<?xml version="1.0" encoding="utf-8" standalone="no"?>
<!DOCTYPE svg PUBLIC "-//W3C//DTD SVG 1.1//EN"
  "http://www.w3.org/Graphics/SVG/1.1/DTD/svg11.dtd">
<svg xmlns:xlink="http://www.w3.org/1999/xlink" width="460.8pt" height="345.6pt" viewBox="0 0 460.8 345.6" xmlns="http://www.w3.org/2000/svg" version="1.1">
 <metadata>
  <rdf:RDF xmlns:dc="http://purl.org/dc/elements/1.1/" xmlns:cc="http://creativecommons.org/ns#" xmlns:rdf="http://www.w3.org/1999/02/22-rdf-syntax-ns#">
   <cc:Work>
    <dc:type rdf:resource="http://purl.org/dc/dcmitype/StillImage"/>
    <dc:date>2024-01-26T00:13:28.967137</dc:date>
    <dc:format>image/svg+xml</dc:format>
    <dc:creator>
     <cc:Agent>
      <dc:title>Matplotlib v3.8.2, https://matplotlib.org/</dc:title>
     </cc:Agent>
    </dc:creator>
   </cc:Work>
  </rdf:RDF>
 </metadata>
 <defs>
  <style type="text/css">*{stroke-linejoin: round; stroke-linecap: butt}</style>
 </defs>
 <g id="figure_1">
  <g id="patch_1">
   <path d="M 0 345.6 
L 460.8 345.6 
L 460.8 0 
L 0 0 
z
" style="fill: #ffffff"/>
  </g>
  <g id="axes_1">
   <g id="patch_2">
    <path d="M 0 293.76 
L 460.8 293.76 
L 460.8 3.456 
L 0 3.456 
z
" style="fill: #ffffff"/>
   </g>
   <g id="matplotlib.axis_1">
    <g id="xtick_1">
     <g id="line2d_1">
      <path d="M 104.376121 293.76 
L 104.376121 3.456 
" clip-path="url(#pe365032a28)" style="fill: none; stroke: #b0b0b0; stroke-width: 0.8; stroke-linecap: square"/>
     </g>
     <g id="line2d_2">
      <defs>
       <path id="m7e15529786" d="M 0 0 
L 0 3.5 
" style="stroke: #000000; stroke-width: 0.8"/>
      </defs>
      <g>
       <use xlink:href="#m7e15529786" x="104.376121" y="293.76" style="stroke: #000000; stroke-width: 0.8"/>
      </g>
     </g>
     <g id="text_1">
      <!-- -4 -->
      <g transform="translate(94.405809 315.956875) scale(0.2 -0.2)">
       <defs>
        <path id="DejaVuSans-2d" d="M 313 2009 
L 1997 2009 
L 1997 1497 
L 313 1497 
L 313 2009 
z
" transform="scale(0.015625)"/>
        <path id="DejaVuSans-34" d="M 2419 4116 
L 825 1625 
L 2419 1625 
L 2419 4116 
z
M 2253 4666 
L 3047 4666 
L 3047 1625 
L 3713 1625 
L 3713 1100 
L 3047 1100 
L 3047 0 
L 2419 0 
L 2419 1100 
L 313 1100 
L 313 1709 
L 2253 4666 
z
" transform="scale(0.015625)"/>
       </defs>
       <use xlink:href="#DejaVuSans-2d"/>
       <use xlink:href="#DejaVuSans-34" x="36.083984"/>
      </g>
     </g>
    </g>
    <g id="xtick_2">
     <g id="line2d_3">
      <path d="M 208.865126 293.76 
L 208.865126 3.456 
" clip-path="url(#pe365032a28)" style="fill: none; stroke: #b0b0b0; stroke-width: 0.8; stroke-linecap: square"/>
     </g>
     <g id="line2d_4">
      <g>
       <use xlink:href="#m7e15529786" x="208.865126" y="293.76" style="stroke: #000000; stroke-width: 0.8"/>
      </g>
     </g>
     <g id="text_2">
      <!-- 0 -->
      <g transform="translate(202.502626 315.956875) scale(0.2 -0.2)">
       <defs>
        <path id="DejaVuSans-30" d="M 2034 4250 
Q 1547 4250 1301 3770 
Q 1056 3291 1056 2328 
Q 1056 1369 1301 889 
Q 1547 409 2034 409 
Q 2525 409 2770 889 
Q 3016 1369 3016 2328 
Q 3016 3291 2770 3770 
Q 2525 4250 2034 4250 
z
M 2034 4750 
Q 2819 4750 3233 4129 
Q 3647 3509 3647 2328 
Q 3647 1150 3233 529 
Q 2819 -91 2034 -91 
Q 1250 -91 836 529 
Q 422 1150 422 2328 
Q 422 3509 836 4129 
Q 1250 4750 2034 4750 
z
" transform="scale(0.015625)"/>
       </defs>
       <use xlink:href="#DejaVuSans-30"/>
      </g>
     </g>
    </g>
    <g id="xtick_3">
     <g id="line2d_5">
      <path d="M 313.354131 293.76 
L 313.354131 3.456 
" clip-path="url(#pe365032a28)" style="fill: none; stroke: #b0b0b0; stroke-width: 0.8; stroke-linecap: square"/>
     </g>
     <g id="line2d_6">
      <g>
       <use xlink:href="#m7e15529786" x="313.354131" y="293.76" style="stroke: #000000; stroke-width: 0.8"/>
      </g>
     </g>
     <g id="text_3">
      <!-- 4 -->
      <g transform="translate(306.991631 315.956875) scale(0.2 -0.2)">
       <use xlink:href="#DejaVuSans-34"/>
      </g>
     </g>
    </g>
    <g id="xtick_4">
     <g id="line2d_7">
      <path d="M 417.843137 293.76 
L 417.843137 3.456 
" clip-path="url(#pe365032a28)" style="fill: none; stroke: #b0b0b0; stroke-width: 0.8; stroke-linecap: square"/>
     </g>
     <g id="line2d_8">
      <g>
       <use xlink:href="#m7e15529786" x="417.843137" y="293.76" style="stroke: #000000; stroke-width: 0.8"/>
      </g>
     </g>
     <g id="text_4">
      <!-- 8 -->
      <g transform="translate(411.480637 315.956875) scale(0.2 -0.2)">
       <defs>
        <path id="DejaVuSans-38" d="M 2034 2216 
Q 1584 2216 1326 1975 
Q 1069 1734 1069 1313 
Q 1069 891 1326 650 
Q 1584 409 2034 409 
Q 2484 409 2743 651 
Q 3003 894 3003 1313 
Q 3003 1734 2745 1975 
Q 2488 2216 2034 2216 
z
M 1403 2484 
Q 997 2584 770 2862 
Q 544 3141 544 3541 
Q 544 4100 942 4425 
Q 1341 4750 2034 4750 
Q 2731 4750 3128 4425 
Q 3525 4100 3525 3541 
Q 3525 3141 3298 2862 
Q 3072 2584 2669 2484 
Q 3125 2378 3379 2068 
Q 3634 1759 3634 1313 
Q 3634 634 3220 271 
Q 2806 -91 2034 -91 
Q 1263 -91 848 271 
Q 434 634 434 1313 
Q 434 1759 690 2068 
Q 947 2378 1403 2484 
z
M 1172 3481 
Q 1172 3119 1398 2916 
Q 1625 2713 2034 2713 
Q 2441 2713 2670 2916 
Q 2900 3119 2900 3481 
Q 2900 3844 2670 4047 
Q 2441 4250 2034 4250 
Q 1625 4250 1398 4047 
Q 1172 3844 1172 3481 
z
" transform="scale(0.015625)"/>
       </defs>
       <use xlink:href="#DejaVuSans-38"/>
      </g>
     </g>
    </g>
    <g id="text_5">
     <!-- log10 of Df -->
     <g transform="translate(175.214063 339.313125) scale(0.2 -0.2)">
      <defs>
       <path id="DejaVuSans-6c" d="M 603 4863 
L 1178 4863 
L 1178 0 
L 603 0 
L 603 4863 
z
" transform="scale(0.015625)"/>
       <path id="DejaVuSans-6f" d="M 1959 3097 
Q 1497 3097 1228 2736 
Q 959 2375 959 1747 
Q 959 1119 1226 758 
Q 1494 397 1959 397 
Q 2419 397 2687 759 
Q 2956 1122 2956 1747 
Q 2956 2369 2687 2733 
Q 2419 3097 1959 3097 
z
M 1959 3584 
Q 2709 3584 3137 3096 
Q 3566 2609 3566 1747 
Q 3566 888 3137 398 
Q 2709 -91 1959 -91 
Q 1206 -91 779 398 
Q 353 888 353 1747 
Q 353 2609 779 3096 
Q 1206 3584 1959 3584 
z
" transform="scale(0.015625)"/>
       <path id="DejaVuSans-67" d="M 2906 1791 
Q 2906 2416 2648 2759 
Q 2391 3103 1925 3103 
Q 1463 3103 1205 2759 
Q 947 2416 947 1791 
Q 947 1169 1205 825 
Q 1463 481 1925 481 
Q 2391 481 2648 825 
Q 2906 1169 2906 1791 
z
M 3481 434 
Q 3481 -459 3084 -895 
Q 2688 -1331 1869 -1331 
Q 1566 -1331 1297 -1286 
Q 1028 -1241 775 -1147 
L 775 -588 
Q 1028 -725 1275 -790 
Q 1522 -856 1778 -856 
Q 2344 -856 2625 -561 
Q 2906 -266 2906 331 
L 2906 616 
Q 2728 306 2450 153 
Q 2172 0 1784 0 
Q 1141 0 747 490 
Q 353 981 353 1791 
Q 353 2603 747 3093 
Q 1141 3584 1784 3584 
Q 2172 3584 2450 3431 
Q 2728 3278 2906 2969 
L 2906 3500 
L 3481 3500 
L 3481 434 
z
" transform="scale(0.015625)"/>
       <path id="DejaVuSans-31" d="M 794 531 
L 1825 531 
L 1825 4091 
L 703 3866 
L 703 4441 
L 1819 4666 
L 2450 4666 
L 2450 531 
L 3481 531 
L 3481 0 
L 794 0 
L 794 531 
z
" transform="scale(0.015625)"/>
       <path id="DejaVuSans-20" transform="scale(0.015625)"/>
       <path id="DejaVuSans-66" d="M 2375 4863 
L 2375 4384 
L 1825 4384 
Q 1516 4384 1395 4259 
Q 1275 4134 1275 3809 
L 1275 3500 
L 2222 3500 
L 2222 3053 
L 1275 3053 
L 1275 0 
L 697 0 
L 697 3053 
L 147 3053 
L 147 3500 
L 697 3500 
L 697 3744 
Q 697 4328 969 4595 
Q 1241 4863 1831 4863 
L 2375 4863 
z
" transform="scale(0.015625)"/>
       <path id="DejaVuSans-44" d="M 1259 4147 
L 1259 519 
L 2022 519 
Q 2988 519 3436 956 
Q 3884 1394 3884 2338 
Q 3884 3275 3436 3711 
Q 2988 4147 2022 4147 
L 1259 4147 
z
M 628 4666 
L 1925 4666 
Q 3281 4666 3915 4102 
Q 4550 3538 4550 2338 
Q 4550 1131 3912 565 
Q 3275 0 1925 0 
L 628 0 
L 628 4666 
z
" transform="scale(0.015625)"/>
      </defs>
      <use xlink:href="#DejaVuSans-6c"/>
      <use xlink:href="#DejaVuSans-6f" x="27.783203"/>
      <use xlink:href="#DejaVuSans-67" x="88.964844"/>
      <use xlink:href="#DejaVuSans-31" x="152.441406"/>
      <use xlink:href="#DejaVuSans-30" x="216.064453"/>
      <use xlink:href="#DejaVuSans-20" x="279.6875"/>
      <use xlink:href="#DejaVuSans-6f" x="311.474609"/>
      <use xlink:href="#DejaVuSans-66" x="372.65625"/>
      <use xlink:href="#DejaVuSans-20" x="407.861328"/>
      <use xlink:href="#DejaVuSans-44" x="439.648438"/>
      <use xlink:href="#DejaVuSans-66" x="516.650391"/>
     </g>
    </g>
   </g>
   <g id="matplotlib.axis_2">
    <g id="ytick_1">
     <g id="line2d_9">
      <path d="M 0 293.76 
L 460.8 293.76 
" clip-path="url(#pe365032a28)" style="fill: none; stroke: #b0b0b0; stroke-width: 0.8; stroke-linecap: square"/>
     </g>
     <g id="line2d_10">
      <defs>
       <path id="m7c2b2d50c2" d="M 0 0 
L -3.5 0 
" style="stroke: #000000; stroke-width: 0.8"/>
      </defs>
      <g>
       <use xlink:href="#m7c2b2d50c2" x="0" y="293.76" style="stroke: #000000; stroke-width: 0.8"/>
      </g>
     </g>
    </g>
    <g id="ytick_2">
     <g id="line2d_11">
      <path d="M 0 236.274059 
L 460.8 236.274059 
" clip-path="url(#pe365032a28)" style="fill: none; stroke: #b0b0b0; stroke-width: 0.8; stroke-linecap: square"/>
     </g>
     <g id="line2d_12">
      <g>
       <use xlink:href="#m7c2b2d50c2" x="0" y="236.274059" style="stroke: #000000; stroke-width: 0.8"/>
      </g>
     </g>
    </g>
    <g id="ytick_3">
     <g id="line2d_13">
      <path d="M 0 178.788119 
L 460.8 178.788119 
" clip-path="url(#pe365032a28)" style="fill: none; stroke: #b0b0b0; stroke-width: 0.8; stroke-linecap: square"/>
     </g>
     <g id="line2d_14">
      <g>
       <use xlink:href="#m7c2b2d50c2" x="0" y="178.788119" style="stroke: #000000; stroke-width: 0.8"/>
      </g>
     </g>
    </g>
    <g id="ytick_4">
     <g id="line2d_15">
      <path d="M 0 121.302178 
L 460.8 121.302178 
" clip-path="url(#pe365032a28)" style="fill: none; stroke: #b0b0b0; stroke-width: 0.8; stroke-linecap: square"/>
     </g>
     <g id="line2d_16">
      <g>
       <use xlink:href="#m7c2b2d50c2" x="0" y="121.302178" style="stroke: #000000; stroke-width: 0.8"/>
      </g>
     </g>
    </g>
    <g id="ytick_5">
     <g id="line2d_17">
      <path d="M 0 63.816238 
L 460.8 63.816238 
" clip-path="url(#pe365032a28)" style="fill: none; stroke: #b0b0b0; stroke-width: 0.8; stroke-linecap: square"/>
     </g>
     <g id="line2d_18">
      <g>
       <use xlink:href="#m7c2b2d50c2" x="0" y="63.816238" style="stroke: #000000; stroke-width: 0.8"/>
      </g>
     </g>
    </g>
    <g id="ytick_6">
     <g id="line2d_19">
      <path d="M 0 6.330297 
L 460.8 6.330297 
" clip-path="url(#pe365032a28)" style="fill: none; stroke: #b0b0b0; stroke-width: 0.8; stroke-linecap: square"/>
     </g>
     <g id="line2d_20">
      <g>
       <use xlink:href="#m7c2b2d50c2" x="0" y="6.330297" style="stroke: #000000; stroke-width: 0.8"/>
      </g>
     </g>
    </g>
   </g>
   <g id="line2d_21">
    <path d="M -0.112884 293.76 
L -0.112884 287.372673 
L 193.154911 287.372673 
L 193.154911 275.396436 
L 204.540667 275.396436 
L 204.540667 274.59802 
L 207.950023 274.59802 
L 207.950023 273.799604 
L 208.792856 273.799604 
L 208.792856 273.001188 
L 209.634386 273.001188 
L 209.634386 272.202772 
L 210.976936 272.202772 
L 210.976936 271.404356 
L 211.760661 271.404356 
L 211.760661 270.605941 
L 213.763934 270.605941 
L 213.763934 269.807525 
L 217.440239 269.807525 
L 217.440239 269.009109 
L 218.161342 269.009109 
L 218.252754 267.412277 
L 219.675666 267.412277 
L 219.675666 266.613861 
L 219.893152 266.613861 
L 219.893152 265.815446 
L 220.231723 265.815446 
L 220.231723 265.01703 
L 222.484212 265.01703 
L 222.585769 263.420198 
L 223.359881 263.420198 
L 223.400773 261.823366 
L 223.494991 261.823366 
L 223.55781 260.226535 
L 224.216715 260.226535 
L 224.216715 259.428119 
L 224.469703 259.428119 
L 224.525831 257.831287 
L 224.585447 257.831287 
L 224.585447 257.032871 
L 226.577694 257.032871 
L 226.577694 256.234455 
L 228.62307 256.234455 
L 228.62307 255.43604 
L 229.272043 255.43604 
L 229.272043 254.637624 
L 229.460962 254.637624 
L 229.460962 253.839208 
L 229.727168 253.839208 
L 229.727168 253.040792 
L 230.281466 253.040792 
L 230.322666 251.44396 
L 230.403192 251.44396 
L 230.472706 249.847129 
L 230.932066 249.847129 
L 230.932066 249.048713 
L 231.571833 249.048713 
L 231.571833 248.250297 
L 231.777752 248.250297 
L 231.777752 247.451881 
L 231.993298 247.451881 
L 231.993298 246.653465 
L 232.243565 246.653465 
L 232.243565 245.85505 
L 232.942634 245.85505 
L 232.942634 245.056634 
L 233.058114 245.056634 
L 233.162735 243.459802 
L 233.238177 243.459802 
L 233.238177 242.661386 
L 233.884438 242.661386 
L 233.884438 241.86297 
L 234.026044 241.86297 
L 234.07227 239.467723 
L 234.287734 239.467723 
L 234.287734 238.669307 
L 234.410815 238.669307 
L 234.410815 237.870891 
L 234.974861 237.870891 
L 234.974861 237.072475 
L 235.206578 237.072475 
L 235.206578 236.274059 
L 235.624811 236.274059 
L 235.65046 234.677228 
L 235.903513 234.677228 
L 235.903513 233.878812 
L 236.595912 233.878812 
L 236.595912 233.080396 
L 237.70645 233.080396 
L 237.70645 232.28198 
L 237.892505 232.28198 
L 237.892505 231.483564 
L 238.008186 231.483564 
L 238.008186 230.685149 
L 238.342499 230.685149 
L 238.346045 229.088317 
L 238.549065 229.088317 
L 238.549065 228.289901 
L 239.166102 228.289901 
L 239.166102 227.491485 
L 239.411144 227.491485 
L 239.411144 226.693069 
L 239.591777 226.693069 
L 239.656277 225.096238 
L 240.070538 225.096238 
L 240.168521 223.499406 
L 240.855947 223.499406 
L 240.855947 222.70099 
L 241.422842 222.70099 
L 241.480734 220.305743 
L 242.222348 220.305743 
L 242.222348 219.507327 
L 242.363021 219.507327 
L 242.3774 217.910495 
L 242.810928 217.910495 
L 242.893366 216.313663 
L 242.969563 216.313663 
L 243.058836 214.716832 
L 243.129553 214.716832 
L 243.170577 213.12 
L 243.661412 213.12 
L 243.724063 211.523168 
L 243.773183 211.523168 
L 243.773183 210.724752 
L 244.086259 210.724752 
L 244.197193 209.127921 
L 244.296526 209.127921 
L 244.395689 207.531089 
L 244.497709 207.531089 
L 244.497709 206.732673 
L 244.901171 206.732673 
L 245.009433 205.135842 
L 245.097977 205.135842 
L 245.097977 204.337426 
L 245.274383 204.337426 
L 245.374011 201.143762 
L 245.409338 201.143762 
L 245.409338 200.345347 
L 245.556807 200.345347 
L 245.62191 198.748515 
L 245.69543 198.748515 
L 245.69543 197.950099 
L 245.827416 197.950099 
L 245.926701 192.361188 
L 245.960321 192.361188 
L 245.984255 190.764356 
L 246.212638 190.764356 
L 246.212638 189.965941 
L 246.333753 189.965941 
L 246.333753 189.167525 
L 246.920994 189.167525 
L 246.920994 188.369109 
L 247.123527 188.369109 
L 247.226597 185.973861 
L 247.334451 185.973861 
L 247.334451 185.175446 
L 247.575997 185.175446 
L 247.575997 184.37703 
L 247.823769 184.37703 
L 247.868614 182.780198 
L 248.379259 182.780198 
L 248.379259 181.981782 
L 248.524152 181.981782 
L 248.524152 181.183366 
L 248.728748 181.183366 
L 248.728748 180.38495 
L 249.430717 180.38495 
L 249.430717 179.586535 
L 249.642854 179.586535 
L 249.642854 178.788119 
L 249.96723 178.788119 
L 249.96723 177.989703 
L 250.120171 177.989703 
L 250.185317 176.392871 
L 250.282873 176.392871 
L 250.282873 175.594455 
L 250.442156 175.594455 
L 250.477223 173.199208 
L 250.782954 173.199208 
L 250.816461 170.80396 
L 250.896329 170.80396 
L 250.94207 169.207129 
L 251.01369 169.207129 
L 251.055554 167.610297 
L 251.143303 167.610297 
L 251.143303 166.811881 
L 251.429394 166.811881 
L 251.517716 165.21505 
L 251.787446 165.21505 
L 251.864706 163.618218 
L 252.058995 163.618218 
L 252.058995 162.819802 
L 252.199459 162.819802 
L 252.199459 162.021386 
L 252.31624 162.021386 
L 252.31624 161.22297 
L 252.658364 161.22297 
L 252.742184 159.626139 
L 252.952426 159.626139 
L 252.952426 158.827723 
L 253.39659 158.827723 
L 253.469222 157.230891 
L 253.880872 157.230891 
L 253.880872 156.432475 
L 254.052225 156.432475 
L 254.09965 154.835644 
L 254.192715 154.835644 
L 254.252378 153.238812 
L 254.335648 153.238812 
L 254.437583 150.843564 
L 254.627823 150.843564 
L 254.696288 148.448317 
L 254.829671 148.448317 
L 254.829671 147.649901 
L 255.020531 147.649901 
L 255.120898 145.254653 
L 255.138565 145.254653 
L 255.138565 144.456238 
L 255.402689 144.456238 
L 255.482536 142.859406 
L 255.596873 142.859406 
L 255.596873 142.06099 
L 255.838707 142.06099 
L 255.838707 141.262574 
L 256.065227 141.262574 
L 256.065227 140.464158 
L 256.644422 140.464158 
L 256.644422 139.665743 
L 256.995934 139.665743 
L 256.995934 138.867327 
L 257.266649 138.867327 
L 257.349991 136.472079 
L 257.655105 136.472079 
L 257.655105 135.673663 
L 258.081234 135.673663 
L 258.138695 133.278416 
L 258.221741 133.278416 
L 258.319949 131.681584 
L 258.477563 131.681584 
L 258.477563 130.883168 
L 258.98197 130.883168 
L 259.069189 128.487921 
L 259.145131 128.487921 
L 259.145131 127.689505 
L 259.729772 127.689505 
L 259.765901 126.092673 
L 260.312911 126.092673 
L 260.312911 125.294257 
L 260.859561 125.294257 
L 260.859561 123.697426 
L 261.03001 123.697426 
L 261.035577 122.100594 
L 261.293444 122.100594 
L 261.344525 120.503762 
L 261.433301 120.503762 
L 261.433301 119.705347 
L 261.683353 119.705347 
L 261.683353 118.906931 
L 262.419581 118.906931 
L 262.526354 116.511683 
L 262.604384 116.511683 
L 262.604384 115.713267 
L 262.919359 115.713267 
L 262.919359 114.914851 
L 263.176352 114.914851 
L 263.202093 111.721188 
L 263.39281 111.721188 
L 263.39281 110.922772 
L 263.790674 110.922772 
L 263.790674 110.124356 
L 265.099088 110.124356 
L 265.099088 109.325941 
L 265.575318 109.325941 
L 265.575318 108.527525 
L 265.806354 108.527525 
L 265.806354 107.729109 
L 266.222111 107.729109 
L 266.222111 106.930693 
L 266.991549 106.930693 
L 267.01767 105.333861 
L 267.271542 105.333861 
L 267.271542 104.535446 
L 267.892495 104.535446 
L 267.892495 103.73703 
L 268.149089 103.73703 
L 268.196121 101.341782 
L 268.900039 101.341782 
L 268.900039 100.543366 
L 269.040725 100.543366 
L 269.040725 99.74495 
L 269.270092 99.74495 
L 269.270092 98.946535 
L 270.530643 98.946535 
L 270.530643 98.148119 
L 271.197148 98.148119 
L 271.197148 97.349703 
L 271.522427 97.349703 
L 271.522427 96.551287 
L 271.738294 96.551287 
L 271.833188 94.15604 
L 272.477915 94.15604 
L 272.477915 93.357624 
L 272.629641 93.357624 
L 272.629641 92.559208 
L 273.941048 92.559208 
L 273.941048 91.760792 
L 274.833882 91.760792 
L 274.896977 90.16396 
L 274.982197 90.16396 
L 274.982197 89.365545 
L 275.50787 89.365545 
L 275.50787 88.567129 
L 275.927294 88.567129 
L 275.927294 87.768713 
L 276.367561 87.768713 
L 276.367561 86.970297 
L 277.221985 86.970297 
L 277.221985 86.171881 
L 278.189225 86.171881 
L 278.189225 85.373465 
L 279.791247 85.373465 
L 279.791247 84.57505 
L 280.235204 84.57505 
L 280.235204 83.776634 
L 280.425079 83.776634 
L 280.425079 82.978218 
L 280.8387 82.978218 
L 280.8387 82.179802 
L 281.986058 82.179802 
L 281.986058 81.381386 
L 282.190111 81.381386 
L 282.190111 80.58297 
L 282.625167 80.58297 
L 282.625167 79.784554 
L 282.879457 79.784554 
L 282.879457 78.986139 
L 283.192275 78.986139 
L 283.192275 78.187723 
L 283.335865 78.187723 
L 283.335865 77.389307 
L 283.675729 77.389307 
L 283.675729 76.590891 
L 284.192686 76.590891 
L 284.24427 74.994059 
L 284.575805 74.994059 
L 284.648756 73.397228 
L 285.136083 73.397228 
L 285.136083 72.598812 
L 286.675409 72.598812 
L 286.675409 71.800396 
L 286.980238 71.800396 
L 286.980238 71.00198 
L 288.242922 71.00198 
L 288.242922 70.203564 
L 291.392271 70.203564 
L 291.392271 69.405149 
L 292.016036 69.405149 
L 292.016036 68.606733 
L 292.288133 68.606733 
L 292.288133 67.808317 
L 294.092113 67.808317 
L 294.092113 67.009901 
L 295.760293 67.009901 
L 295.760293 66.211485 
L 299.314988 66.211485 
L 299.314988 65.413069 
L 299.901154 65.413069 
L 299.901154 64.614653 
L 300.264405 64.614653 
L 300.264405 63.816238 
L 300.868627 63.816238 
L 300.868627 63.017822 
L 303.976041 63.017822 
L 303.976041 62.219406 
L 304.220988 62.219406 
L 304.220988 61.42099 
L 304.336868 61.42099 
L 304.336868 60.622574 
L 304.486751 60.622574 
L 304.486751 59.824158 
L 309.188577 59.824158 
L 309.188577 59.025743 
L 309.79042 59.025743 
L 309.79042 58.227327 
L 310.375318 58.227327 
L 310.375318 57.428911 
L 312.256934 57.428911 
L 312.256934 56.630495 
L 313.503479 56.630495 
L 313.503479 55.832079 
L 317.207919 55.832079 
L 317.207919 55.033663 
L 320.756602 55.033663 
L 320.756602 54.235248 
L 325.010567 54.235248 
L 325.010567 53.436832 
L 326.837784 53.436832 
L 326.837784 52.638416 
L 327.223487 52.638416 
L 327.223487 51.84 
L 330.88646 51.84 
L 330.88646 51.041584 
L 332.307373 51.041584 
L 332.307373 50.243168 
L 332.859464 50.243168 
L 332.859464 49.444752 
L 334.25359 49.444752 
L 334.25359 48.646337 
L 337.1358 48.646337 
L 337.1358 47.847921 
L 337.777006 47.847921 
L 337.777006 47.049505 
L 338.255356 47.049505 
L 338.255356 46.251089 
L 338.479925 46.251089 
L 338.479925 45.452673 
L 342.106352 45.452673 
L 342.106352 44.654257 
L 342.848695 44.654257 
L 342.848695 43.855842 
L 343.494228 43.855842 
L 343.494228 43.057426 
L 344.694204 43.057426 
L 344.694204 42.25901 
L 344.986676 42.25901 
L 344.986676 41.460594 
L 347.619365 41.460594 
L 347.619365 40.662178 
L 347.792547 40.662178 
L 347.792547 39.863762 
L 349.915534 39.863762 
L 349.915534 39.065347 
L 350.625338 39.065347 
L 350.625338 38.266931 
L 351.774046 38.266931 
L 351.774046 37.468515 
L 351.976887 37.468515 
L 351.976887 36.670099 
L 353.159979 36.670099 
L 353.159979 35.871683 
L 354.094875 35.871683 
L 354.094875 35.073267 
L 355.346156 35.073267 
L 355.346156 34.274851 
L 356.015493 34.274851 
L 356.021659 32.67802 
L 356.60576 32.67802 
L 356.60576 31.879604 
L 356.973419 31.879604 
L 356.973419 31.081188 
L 357.864192 31.081188 
L 357.864192 30.282772 
L 358.749901 30.282772 
L 358.788553 28.685941 
L 359.076186 28.685941 
L 359.076186 27.887525 
L 361.019442 27.887525 
L 361.019442 27.089109 
L 361.316702 27.089109 
L 361.350836 25.492277 
L 361.7437 25.492277 
L 361.794978 23.895446 
L 362.272865 23.895446 
L 362.272865 23.09703 
L 363.091026 23.09703 
L 363.091026 22.298614 
L 363.842989 22.298614 
L 363.842989 21.500198 
L 364.859183 21.500198 
L 364.859183 20.701782 
L 366.366106 20.701782 
L 366.366106 19.903366 
L 367.184723 19.903366 
L 367.184723 19.10495 
L 368.371732 19.10495 
L 368.371732 18.306535 
L 368.623212 18.306535 
L 368.62664 16.709703 
L 370.276564 16.709703 
L 370.276564 15.911287 
L 371.330306 15.911287 
L 371.330306 15.112871 
L 371.520956 15.112871 
L 371.520956 14.314455 
L 376.821427 14.314455 
L 376.821427 13.51604 
L 383.62189 13.51604 
L 383.62189 12.717624 
L 385.00867 12.717624 
L 385.00867 11.919208 
L 386.062982 11.919208 
L 386.062982 11.120792 
L 397.040178 11.120792 
L 397.040178 10.322376 
L 397.385978 10.322376 
L 397.385978 9.52396 
L 403.234598 9.52396 
L 403.234598 8.725545 
L 406.284383 8.725545 
L 406.284383 7.927129 
L 409.69597 7.927129 
L 409.69597 7.128713 
L 413.085091 7.128713 
L 413.085091 6.330297 
L 413.085091 6.330297 
L 460.8 6.330297 
L 460.8 6.330297 
" clip-path="url(#pe365032a28)" style="fill: none; stroke: #ff0000; stroke-width: 3; stroke-linecap: square"/>
   </g>
   <g id="line2d_22">
    <path d="M 193.154911 293.76 
L 193.154911 281.783762 
L 221.437953 281.783762 
L 221.437953 280.985347 
L 224.486745 280.985347 
L 224.486745 280.186931 
L 225.746928 280.186931 
L 225.746928 279.388515 
L 228.472821 279.388515 
L 228.472821 278.590099 
L 228.62696 278.590099 
L 228.62696 277.791683 
L 228.788582 277.791683 
L 228.788582 276.993267 
L 230.459167 276.993267 
L 230.472706 275.396436 
L 231.805214 275.396436 
L 231.805214 274.59802 
L 232.568636 274.59802 
L 232.568636 273.799604 
L 234.358893 273.799604 
L 234.358893 273.001188 
L 235.266266 273.001188 
L 235.266266 272.202772 
L 235.624381 272.202772 
L 235.672836 269.807525 
L 235.813634 269.807525 
L 235.813634 269.009109 
L 237.703943 269.009109 
L 237.809173 267.412277 
L 238.046578 267.412277 
L 238.063872 265.815446 
L 239.118982 265.815446 
L 239.118982 265.01703 
L 240.028302 265.01703 
L 240.066925 263.420198 
L 240.331671 263.420198 
L 240.331671 262.621782 
L 240.635344 262.621782 
L 240.635344 261.823366 
L 240.932925 261.823366 
L 240.932925 261.02495 
L 241.600283 261.02495 
L 241.621238 259.428119 
L 241.717013 259.428119 
L 241.717013 258.629703 
L 242.152029 258.629703 
L 242.152029 257.831287 
L 242.958436 257.831287 
L 243.018495 256.234455 
L 243.461779 256.234455 
L 243.461779 255.43604 
L 244.00934 255.43604 
L 244.00934 254.637624 
L 244.170937 254.637624 
L 244.225324 253.040792 
L 244.729403 253.040792 
L 244.729403 252.242376 
L 245.026668 252.242376 
L 245.026668 251.44396 
L 245.61058 251.44396 
L 245.654112 249.847129 
L 245.827416 249.847129 
L 245.873607 236.274059 
L 246.044619 236.274059 
L 246.123347 234.677228 
L 246.668496 234.677228 
L 246.668496 233.878812 
L 247.201962 233.878812 
L 247.201962 233.080396 
L 247.334451 233.080396 
L 247.334451 232.28198 
L 247.819832 232.28198 
L 247.819832 231.483564 
L 247.964184 231.483564 
L 248.073252 229.886733 
L 248.423796 229.886733 
L 248.423796 229.088317 
L 248.605609 229.088317 
L 248.685139 227.491485 
L 248.815665 227.491485 
L 248.815665 226.693069 
L 248.945514 226.693069 
L 249.051136 224.297822 
L 249.184127 224.297822 
L 249.184127 223.499406 
L 249.400183 223.499406 
L 249.454601 221.104158 
L 250.185317 221.104158 
L 250.185317 220.305743 
L 250.525965 220.305743 
L 250.525965 219.507327 
L 251.323886 219.507327 
L 251.418435 217.910495 
L 251.470133 217.910495 
L 251.470133 217.112079 
L 251.787446 217.112079 
L 251.876374 215.515248 
L 252.31226 215.515248 
L 252.31226 214.716832 
L 252.44708 214.716832 
L 252.491451 213.12 
L 252.73794 213.12 
L 252.798153 211.523168 
L 253.36394 211.523168 
L 253.36394 210.724752 
L 254.119596 210.724752 
L 254.119596 209.926337 
L 254.242444 209.926337 
L 254.340419 208.329505 
L 254.40753 208.329505 
L 254.486007 206.732673 
L 254.743731 206.732673 
L 254.743731 205.934257 
L 254.859464 205.934257 
L 254.859464 205.135842 
L 254.983366 205.135842 
L 255.057356 202.740594 
L 255.15755 202.740594 
L 255.15755 201.942178 
L 255.482536 201.942178 
L 255.482536 201.143762 
L 255.793694 201.143762 
L 255.831688 199.546931 
L 255.985611 199.546931 
L 255.985611 198.748515 
L 256.174737 198.748515 
L 256.218917 197.151683 
L 256.289732 197.151683 
L 256.289732 196.353267 
L 256.427428 196.353267 
L 256.535374 192.361188 
L 256.656267 192.361188 
L 256.656267 191.562772 
L 256.876113 191.562772 
L 256.966761 189.167525 
L 256.988344 189.167525 
L 256.988344 188.369109 
L 257.361405 188.369109 
L 257.425996 186.772277 
L 257.539211 186.772277 
L 257.637427 185.175446 
L 257.651071 185.175446 
L 257.732488 183.578614 
L 257.804192 183.578614 
L 257.913015 181.183366 
L 258.143037 181.183366 
L 258.246053 178.788119 
L 258.477563 178.788119 
L 258.538278 175.594455 
L 258.658905 175.594455 
L 258.658905 174.79604 
L 259.503848 174.79604 
L 259.530602 173.199208 
L 259.689732 173.199208 
L 259.772402 171.602376 
L 259.966026 171.602376 
L 259.966026 170.80396 
L 260.209741 170.80396 
L 260.312911 169.207129 
L 260.448027 169.207129 
L 260.532877 166.013465 
L 260.644625 166.013465 
L 260.682115 164.416634 
L 260.868332 164.416634 
L 260.921447 162.819802 
L 261.17015 162.819802 
L 261.17015 162.021386 
L 261.490967 162.021386 
L 261.591312 160.424554 
L 261.963793 160.424554 
L 261.963793 148.448317 
L 262.409862 148.448317 
L 262.512699 146.851485 
L 262.651035 146.851485 
L 262.651035 146.053069 
L 262.909958 146.053069 
L 263.005694 144.456238 
L 263.231545 144.456238 
L 263.231545 143.657822 
L 263.386427 143.657822 
L 263.386427 142.859406 
L 263.821999 142.859406 
L 263.828975 141.262574 
L 264.12247 141.262574 
L 264.12247 140.464158 
L 264.381638 140.464158 
L 264.381638 139.665743 
L 264.703537 139.665743 
L 264.767718 138.068911 
L 265.099088 138.068911 
L 265.202746 135.673663 
L 265.423126 135.673663 
L 265.423126 134.875248 
L 265.793639 134.875248 
L 265.793639 134.076832 
L 265.930164 134.076832 
L 265.930164 133.278416 
L 266.091988 133.278416 
L 266.091988 132.48 
L 266.285325 132.48 
L 266.321784 130.883168 
L 266.631408 130.883168 
L 266.631408 130.084752 
L 267.329078 130.084752 
L 267.329078 129.286337 
L 267.512667 129.286337 
L 267.512667 128.487921 
L 268.05323 128.487921 
L 268.05323 127.689505 
L 268.1942 127.689505 
L 268.252535 126.092673 
L 268.308097 126.092673 
L 268.344099 124.495842 
L 268.503241 124.495842 
L 268.503241 123.697426 
L 268.918973 123.697426 
L 268.918973 122.89901 
L 269.084825 122.89901 
L 269.104941 121.302178 
L 269.270092 121.302178 
L 269.270092 120.503762 
L 269.664893 120.503762 
L 269.664893 119.705347 
L 269.976672 119.705347 
L 270.07784 118.108515 
L 270.801963 118.108515 
L 270.829032 116.511683 
L 271.167362 116.511683 
L 271.167362 115.713267 
L 271.308756 115.713267 
L 271.308756 114.914851 
L 271.515745 114.914851 
L 271.515745 114.116436 
L 271.827956 114.116436 
L 271.90486 110.922772 
L 272.378624 110.922772 
L 272.378624 110.124356 
L 273.133872 110.124356 
L 273.133872 109.325941 
L 274.337182 109.325941 
L 274.337182 108.527525 
L 276.292778 108.527525 
L 276.353858 106.930693 
L 277.662207 106.930693 
L 277.738227 105.333861 
L 278.531696 105.333861 
L 278.531696 104.535446 
L 279.008106 104.535446 
L 279.008106 103.73703 
L 279.952503 103.73703 
L 279.974461 102.140198 
L 280.439231 102.140198 
L 280.439231 101.341782 
L 282.875366 101.341782 
L 282.875366 100.543366 
L 283.149399 100.543366 
L 283.149399 99.74495 
L 283.708063 99.74495 
L 283.708063 98.946535 
L 284.47981 98.946535 
L 284.47981 98.148119 
L 284.855636 98.148119 
L 284.855636 97.349703 
L 285.050519 97.349703 
L 285.050519 96.551287 
L 286.038083 96.551287 
L 286.038083 95.752871 
L 286.469307 95.752871 
L 286.469307 94.954455 
L 287.765023 94.954455 
L 287.765023 94.15604 
L 288.799211 94.15604 
L 288.799211 93.357624 
L 289.081597 93.357624 
L 289.081597 92.559208 
L 289.539408 92.559208 
L 289.539408 91.760792 
L 289.755043 91.760792 
L 289.755043 90.962376 
L 289.920598 90.962376 
L 289.920598 90.16396 
L 290.181634 90.16396 
L 290.181634 89.365545 
L 290.442035 89.365545 
L 290.442035 88.567129 
L 291.07011 88.567129 
L 291.07011 87.768713 
L 294.226489 87.768713 
L 294.226489 86.970297 
L 294.599522 86.970297 
L 294.599522 86.171881 
L 297.236294 86.171881 
L 297.236294 85.373465 
L 298.623217 85.373465 
L 298.623217 84.57505 
L 308.62758 84.57505 
L 308.62758 72.598812 
L 311.290752 72.598812 
L 311.290752 71.800396 
L 314.909861 71.800396 
L 314.909861 71.00198 
L 317.006667 71.00198 
L 317.006667 70.203564 
L 317.558398 70.203564 
L 317.558398 69.405149 
L 318.606944 69.405149 
L 318.606944 68.606733 
L 320.183236 68.606733 
L 320.183236 67.808317 
L 320.434971 67.808317 
L 320.434971 67.009901 
L 322.542696 67.009901 
L 322.542696 66.211485 
L 323.390251 66.211485 
L 323.390251 65.413069 
L 324.123438 65.413069 
L 324.123438 64.614653 
L 325.502436 64.614653 
L 325.502436 63.816238 
L 327.620735 63.816238 
L 327.620735 63.017822 
L 329.270313 63.017822 
L 329.270313 62.219406 
L 329.566029 62.219406 
L 329.566029 61.42099 
L 330.148929 61.42099 
L 330.148929 60.622574 
L 332.707677 60.622574 
L 332.707677 59.824158 
L 333.858378 59.824158 
L 333.858378 59.025743 
L 334.189873 59.025743 
L 334.189873 58.227327 
L 334.35855 58.227327 
L 334.35855 57.428911 
L 338.621342 57.428911 
L 338.621342 56.630495 
L 339.202813 56.630495 
L 339.202813 55.832079 
L 340.350736 55.832079 
L 340.350736 55.033663 
L 341.262167 55.033663 
L 341.262167 54.235248 
L 342.09986 54.235248 
L 342.09986 53.436832 
L 344.912042 53.436832 
L 344.912042 52.638416 
L 345.610027 52.638416 
L 345.610027 51.84 
L 353.089673 51.84 
L 353.089673 51.041584 
L 353.767885 51.041584 
L 353.767885 50.243168 
L 354.294528 50.243168 
L 354.294528 49.444752 
L 354.676375 49.444752 
L 354.676375 48.646337 
L 356.16136 48.646337 
L 356.16136 47.847921 
L 358.98036 47.847921 
L 358.98036 47.049505 
L 359.392695 47.049505 
L 359.466424 45.452673 
L 362.928931 45.452673 
L 362.928931 44.654257 
L 364.746627 44.654257 
L 364.746627 43.855842 
L 373.467428 43.855842 
L 373.467428 43.057426 
L 373.82911 43.057426 
L 373.82911 42.25901 
L 375.11151 42.25901 
L 375.11151 41.460594 
L 375.302872 41.460594 
L 375.302872 40.662178 
L 376.562833 40.662178 
L 376.562833 39.863762 
L 379.524087 39.863762 
L 379.524087 39.065347 
L 379.683548 39.065347 
L 379.697938 37.468515 
L 379.948744 37.468515 
L 379.948744 36.670099 
L 380.210897 36.670099 
L 380.210897 35.871683 
L 380.363322 35.871683 
L 380.363322 35.073267 
L 382.359075 35.073267 
L 382.359075 34.274851 
L 384.131703 34.274851 
L 384.131703 33.476436 
L 384.637644 33.476436 
L 384.637644 32.67802 
L 384.825993 32.67802 
L 384.825993 31.879604 
L 385.387386 31.879604 
L 385.387386 31.081188 
L 385.766846 31.081188 
L 385.766846 30.282772 
L 385.995292 30.282772 
L 385.995292 29.484356 
L 386.137481 29.484356 
L 386.140103 27.887525 
L 386.693917 27.887525 
L 386.693917 27.089109 
L 387.03385 27.089109 
L 387.03385 26.290693 
L 387.244902 26.290693 
L 387.244902 25.492277 
L 388.011717 25.492277 
L 388.011717 24.693861 
L 388.40672 24.693861 
L 388.40672 23.895446 
L 390.438965 23.895446 
L 390.438965 23.09703 
L 390.81681 23.09703 
L 390.81681 22.298614 
L 392.074211 22.298614 
L 392.074211 21.500198 
L 392.281184 21.500198 
L 392.281184 20.701782 
L 392.663824 20.701782 
L 392.663824 19.903366 
L 393.271003 19.903366 
L 393.271003 19.10495 
L 394.088979 19.10495 
L 394.088979 18.306535 
L 394.673946 18.306535 
L 394.673946 17.508119 
L 397.375858 17.508119 
L 397.375858 16.709703 
L 397.757901 16.709703 
L 397.757901 15.911287 
L 399.043974 15.911287 
L 399.043974 15.112871 
L 402.777022 15.112871 
L 402.777022 14.314455 
L 405.182222 14.314455 
L 405.182222 13.51604 
L 407.927271 13.51604 
L 407.927271 12.717624 
L 408.079031 12.717624 
L 408.109298 11.120792 
L 408.634719 11.120792 
L 408.634719 10.322376 
L 412.014261 10.322376 
L 412.014261 9.52396 
L 422.613894 9.52396 
L 422.613894 8.725545 
L 423.467192 8.725545 
L 423.467192 7.927129 
L 432.124351 7.927129 
L 432.124351 7.128713 
L 438.851767 7.128713 
L 438.851767 6.330297 
L 438.851767 6.330297 
L 460.8 6.330297 
L 460.8 6.330297 
" clip-path="url(#pe365032a28)" style="fill: none; stroke: #00bfbf; stroke-width: 1.5; stroke-linecap: square"/>
   </g>
   <g id="line2d_23">
    <path d="M 193.154911 293.76 
L 193.154911 281.783762 
L 209.634386 281.783762 
L 209.634386 280.985347 
L 220.231723 280.985347 
L 220.231723 280.186931 
L 222.585769 280.186931 
L 222.585769 279.388515 
L 223.359881 279.388515 
L 223.359881 278.590099 
L 223.93181 278.590099 
L 223.93181 277.791683 
L 226.868567 277.791683 
L 226.868567 276.993267 
L 227.131822 276.993267 
L 227.131822 276.194851 
L 228.62307 276.194851 
L 228.62307 275.396436 
L 229.085774 275.396436 
L 229.085774 274.59802 
L 229.219269 274.59802 
L 229.252876 273.001188 
L 229.735465 273.001188 
L 229.735465 272.202772 
L 230.472706 272.202772 
L 230.472706 271.404356 
L 230.609872 271.404356 
L 230.609872 270.605941 
L 231.020976 270.605941 
L 231.020976 269.807525 
L 231.777752 269.807525 
L 231.777752 269.009109 
L 231.993298 269.009109 
L 231.993298 268.210693 
L 233.058114 268.210693 
L 233.162735 266.613861 
L 233.454622 266.613861 
L 233.454622 265.815446 
L 234.358893 265.815446 
L 234.410815 264.218614 
L 234.803533 264.218614 
L 234.803533 263.420198 
L 234.95463 263.420198 
L 234.974861 261.823366 
L 235.206578 261.823366 
L 235.206578 261.02495 
L 235.38046 261.02495 
L 235.38046 260.226535 
L 235.624381 260.226535 
L 235.624811 258.629703 
L 235.788065 258.629703 
L 235.788065 257.831287 
L 235.903513 257.831287 
L 235.903513 257.032871 
L 236.544338 257.032871 
L 236.624596 255.43604 
L 237.452381 255.43604 
L 237.452381 254.637624 
L 237.70645 254.637624 
L 237.70645 253.839208 
L 238.746577 253.839208 
L 238.808033 252.242376 
L 239.410861 252.242376 
L 239.410861 251.44396 
L 239.656277 251.44396 
L 239.656277 250.645545 
L 240.1047 250.645545 
L 240.1047 249.847129 
L 240.244327 249.847129 
L 240.275015 248.250297 
L 241.422842 248.250297 
L 241.452525 246.653465 
L 241.719596 246.653465 
L 241.719596 245.85505 
L 241.835137 245.85505 
L 241.835137 245.056634 
L 242.363021 245.056634 
L 242.363021 244.258218 
L 242.534067 244.258218 
L 242.534067 243.459802 
L 242.718919 243.459802 
L 242.810928 241.86297 
L 243.420632 241.86297 
L 243.420632 241.064554 
L 243.917971 241.064554 
L 243.917971 240.266139 
L 244.395689 240.266139 
L 244.395689 239.467723 
L 244.596364 239.467723 
L 244.605109 237.870891 
L 245.009433 237.870891 
L 245.097977 236.274059 
L 245.274383 236.274059 
L 245.274383 235.475644 
L 245.48654 235.475644 
L 245.518635 233.878812 
L 245.672444 233.878812 
L 245.672444 233.080396 
L 245.827416 233.080396 
L 245.880322 221.902574 
L 246.033617 221.902574 
L 246.033617 221.104158 
L 246.920994 221.104158 
L 246.937295 219.507327 
L 247.319694 219.507327 
L 247.334451 217.910495 
L 247.549248 217.910495 
L 247.549248 217.112079 
L 247.832261 217.112079 
L 247.854993 215.515248 
L 248.416516 215.515248 
L 248.416516 214.716832 
L 248.605609 214.716832 
L 248.605609 213.918416 
L 248.728748 213.918416 
L 248.728748 213.12 
L 248.9173 213.12 
L 249.018155 211.523168 
L 249.184127 211.523168 
L 249.184127 210.724752 
L 249.366077 210.724752 
L 249.366077 209.926337 
L 249.490352 209.926337 
L 249.490352 209.127921 
L 249.826459 209.127921 
L 249.826459 208.329505 
L 250.120171 208.329505 
L 250.185317 205.934257 
L 250.471441 205.934257 
L 250.493087 204.337426 
L 250.750551 204.337426 
L 250.750551 203.53901 
L 250.925466 203.53901 
L 250.94207 201.942178 
L 251.143303 201.942178 
L 251.143303 201.143762 
L 251.558672 201.143762 
L 251.558672 200.345347 
L 251.734299 200.345347 
L 251.787446 198.748515 
L 251.864706 198.748515 
L 251.864706 197.950099 
L 252.162137 197.950099 
L 252.199459 195.554851 
L 252.392061 195.554851 
L 252.412484 193.95802 
L 252.509794 193.95802 
L 252.590076 192.361188 
L 252.658364 192.361188 
L 252.73794 190.764356 
L 253.155055 190.764356 
L 253.155055 189.965941 
L 253.39659 189.965941 
L 253.39659 189.167525 
L 253.541977 189.167525 
L 253.541977 188.369109 
L 253.690306 188.369109 
L 253.690306 187.570693 
L 253.87951 187.570693 
L 253.958616 185.175446 
L 254.09965 185.175446 
L 254.192715 181.981782 
L 254.252378 181.981782 
L 254.340419 180.38495 
L 254.506554 180.38495 
L 254.506554 179.586535 
L 254.627823 179.586535 
L 254.627823 178.788119 
L 254.829671 178.788119 
L 254.893719 177.191287 
L 255.057356 177.191287 
L 255.057356 176.392871 
L 255.224772 176.392871 
L 255.224772 175.594455 
L 255.361129 175.594455 
L 255.435672 173.997624 
L 255.482536 173.997624 
L 255.587043 171.602376 
L 255.74224 171.602376 
L 255.74224 170.80396 
L 255.882094 170.80396 
L 255.882094 170.005545 
L 256.031991 170.005545 
L 256.049768 168.408713 
L 256.270669 168.408713 
L 256.270669 167.610297 
L 256.520623 167.610297 
L 256.520623 166.811881 
L 256.680911 166.811881 
L 256.787178 165.21505 
L 257.130368 165.21505 
L 257.130368 164.416634 
L 257.266649 164.416634 
L 257.266649 163.618218 
L 257.46314 163.618218 
L 257.538385 160.424554 
L 257.736688 160.424554 
L 257.736688 159.626139 
L 258.061699 159.626139 
L 258.143037 158.029307 
L 258.221741 158.029307 
L 258.221741 157.230891 
L 258.477563 157.230891 
L 258.477563 156.432475 
L 259.729772 156.432475 
L 259.765901 154.835644 
L 260.312911 154.835644 
L 260.340872 153.238812 
L 261.17015 153.238812 
L 261.17015 152.440396 
L 261.356112 152.440396 
L 261.356112 147.649901 
L 261.626083 147.649901 
L 261.626083 144.456238 
L 261.775123 144.456238 
L 261.858083 142.06099 
L 261.963793 142.06099 
L 261.998887 139.665743 
L 262.08797 139.665743 
L 262.08797 138.867327 
L 262.491163 138.867327 
L 262.491163 138.068911 
L 263.012292 138.068911 
L 263.01381 136.472079 
L 263.154321 136.472079 
L 263.154321 135.673663 
L 263.295302 135.673663 
L 263.295302 134.875248 
L 263.814978 134.875248 
L 263.861961 133.278416 
L 264.219578 133.278416 
L 264.330301 131.681584 
L 264.737708 131.681584 
L 264.737708 130.883168 
L 265.099088 130.883168 
L 265.099088 130.084752 
L 266.301949 130.084752 
L 266.344619 128.487921 
L 267.01767 128.487921 
L 267.119554 126.092673 
L 267.157792 126.092673 
L 267.157792 125.294257 
L 267.421651 125.294257 
L 267.512667 123.697426 
L 267.892495 123.697426 
L 267.892495 122.89901 
L 268.196121 122.89901 
L 268.196121 122.100594 
L 268.308097 122.100594 
L 268.308097 121.302178 
L 268.626123 121.302178 
L 268.626123 120.503762 
L 269.100247 120.503762 
L 269.104941 118.906931 
L 269.270092 118.906931 
L 269.302811 117.310099 
L 269.738997 117.310099 
L 269.738997 116.511683 
L 269.851071 116.511683 
L 269.851071 115.713267 
L 269.976672 115.713267 
L 269.976672 114.914851 
L 270.460694 114.914851 
L 270.479954 112.519604 
L 270.827918 112.519604 
L 270.827918 111.721188 
L 271.197148 111.721188 
L 271.231108 110.124356 
L 271.353176 110.124356 
L 271.353176 109.325941 
L 271.522427 109.325941 
L 271.522427 108.527525 
L 273.036923 108.527525 
L 273.036923 107.729109 
L 273.672347 107.729109 
L 273.672347 106.930693 
L 273.879651 106.930693 
L 273.879651 106.132277 
L 274.591266 106.132277 
L 274.591266 105.333861 
L 275.632207 105.333861 
L 275.632207 104.535446 
L 276.073976 104.535446 
L 276.073976 103.73703 
L 276.792333 103.73703 
L 276.792333 102.938614 
L 277.289557 102.938614 
L 277.289557 102.140198 
L 278.246314 102.140198 
L 278.246314 101.341782 
L 279.228767 101.341782 
L 279.228767 100.543366 
L 279.833514 100.543366 
L 279.833514 99.74495 
L 279.952503 99.74495 
L 279.952503 98.946535 
L 282.055261 98.946535 
L 282.055261 98.148119 
L 283.149399 98.148119 
L 283.149399 97.349703 
L 284.22161 97.349703 
L 284.316668 95.752871 
L 284.762855 95.752871 
L 284.762855 94.954455 
L 285.050519 94.954455 
L 285.050519 94.15604 
L 285.422021 94.15604 
L 285.422021 93.357624 
L 287.07324 93.357624 
L 287.07324 92.559208 
L 287.504064 92.559208 
L 287.504064 91.760792 
L 287.810953 91.760792 
L 287.810953 90.962376 
L 288.306348 90.962376 
L 288.306348 90.16396 
L 288.68463 90.16396 
L 288.68463 89.365545 
L 289.150448 89.365545 
L 289.150448 88.567129 
L 290.442035 88.567129 
L 290.442035 87.768713 
L 291.07011 87.768713 
L 291.07011 86.970297 
L 294.226489 86.970297 
L 294.317533 85.373465 
L 295.451144 85.373465 
L 295.451144 84.57505 
L 296.482083 84.57505 
L 296.482083 83.776634 
L 301.211396 83.776634 
L 301.211396 78.187723 
L 307.480711 78.187723 
L 307.480711 75.792475 
L 308.627199 75.792475 
L 308.62758 71.800396 
L 310.614953 71.800396 
L 310.614953 71.00198 
L 311.1086 71.00198 
L 311.1086 70.203564 
L 311.653808 70.203564 
L 311.653808 69.405149 
L 312.037029 69.405149 
L 312.037029 68.606733 
L 314.909861 68.606733 
L 314.909861 67.808317 
L 315.282158 67.808317 
L 315.282158 67.009901 
L 317.016537 67.009901 
L 317.016537 66.211485 
L 317.29614 66.211485 
L 317.29614 65.413069 
L 318.939459 65.413069 
L 318.939459 64.614653 
L 320.04677 64.614653 
L 320.04677 63.816238 
L 322.004664 63.816238 
L 322.004664 63.017822 
L 323.81347 63.017822 
L 323.81347 62.219406 
L 323.98367 62.219406 
L 323.98367 61.42099 
L 324.266141 61.42099 
L 324.266141 60.622574 
L 325.502436 60.622574 
L 325.502436 59.824158 
L 326.421869 59.824158 
L 326.421869 59.025743 
L 326.75628 59.025743 
L 326.75628 58.227327 
L 327.218488 58.227327 
L 327.218488 57.428911 
L 329.082232 57.428911 
L 329.082232 56.630495 
L 329.566029 56.630495 
L 329.566029 55.832079 
L 330.148929 55.832079 
L 330.148929 55.033663 
L 334.189873 55.033663 
L 334.189873 54.235248 
L 335.066202 54.235248 
L 335.066202 53.436832 
L 340.33945 53.436832 
L 340.33945 52.638416 
L 341.733179 52.638416 
L 341.733179 51.84 
L 341.879856 51.84 
L 341.879856 51.041584 
L 345.610027 51.041584 
L 345.610027 50.243168 
L 351.604135 50.243168 
L 351.604135 49.444752 
L 354.292079 49.444752 
L 354.292079 48.646337 
L 356.093464 48.646337 
L 356.16136 47.049505 
L 358.123833 47.049505 
L 358.123833 46.251089 
L 358.440019 46.251089 
L 358.440019 45.452673 
L 359.001729 45.452673 
L 359.001729 44.654257 
L 359.27053 44.654257 
L 359.27053 43.855842 
L 359.553924 43.855842 
L 359.553924 43.057426 
L 361.376145 43.057426 
L 361.376145 42.25901 
L 362.456258 42.25901 
L 362.456258 41.460594 
L 362.884992 41.460594 
L 362.884992 40.662178 
L 365.709447 40.662178 
L 365.709447 39.863762 
L 367.307262 39.863762 
L 367.307262 39.065347 
L 368.130738 39.065347 
L 368.130738 38.266931 
L 374.294608 38.266931 
L 374.294608 37.468515 
L 375.361263 37.468515 
L 375.361263 36.670099 
L 376.90931 36.670099 
L 376.90931 35.871683 
L 378.708611 35.871683 
L 378.708611 35.073267 
L 379.437143 35.073267 
L 379.524087 33.476436 
L 379.683548 33.476436 
L 379.683548 32.67802 
L 379.94083 32.67802 
L 379.94083 31.879604 
L 380.057647 31.879604 
L 380.057647 31.081188 
L 381.010987 31.081188 
L 381.040901 28.685941 
L 381.257614 28.685941 
L 381.257614 27.887525 
L 382.37053 27.887525 
L 382.37053 27.089109 
L 383.130622 27.089109 
L 383.130622 26.290693 
L 384.001404 26.290693 
L 384.001404 25.492277 
L 385.387374 25.492277 
L 385.387374 24.693861 
L 387.8596 24.693861 
L 387.8596 23.895446 
L 388.218158 23.895446 
L 388.218158 23.09703 
L 389.577244 23.09703 
L 389.577244 22.298614 
L 390.347898 22.298614 
L 390.438965 20.701782 
L 390.814647 20.701782 
L 390.814647 19.903366 
L 391.905025 19.903366 
L 391.905025 19.10495 
L 392.557475 19.10495 
L 392.557475 18.306535 
L 393.129975 18.306535 
L 393.129975 17.508119 
L 393.268844 17.508119 
L 393.268844 16.709703 
L 393.767908 16.709703 
L 393.767908 15.911287 
L 394.98499 15.911287 
L 394.98499 15.112871 
L 398.50131 15.112871 
L 398.50131 14.314455 
L 400.843476 14.314455 
L 400.843476 13.51604 
L 402.20757 13.51604 
L 402.20757 12.717624 
L 402.664869 12.717624 
L 402.664869 11.919208 
L 404.257914 11.919208 
L 404.257914 11.120792 
L 404.878076 11.120792 
L 404.878076 10.322376 
L 405.8448 10.322376 
L 405.8448 9.52396 
L 419.162047 9.52396 
L 419.162047 8.725545 
L 420.019821 8.725545 
L 420.019821 7.927129 
L 429.616901 7.927129 
L 429.616901 7.128713 
L 430.647508 7.128713 
L 430.647508 6.330297 
L 430.647508 6.330297 
L 460.8 6.330297 
L 460.8 6.330297 
" clip-path="url(#pe365032a28)" style="fill: none; stroke: #bf00bf; stroke-width: 1.5; stroke-linecap: square"/>
   </g>
   <g id="patch_3">
    <path d="M 0 293.76 
L 0 3.456 
" style="fill: none; stroke: #000000; stroke-width: 0.8; stroke-linejoin: miter; stroke-linecap: square"/>
   </g>
   <g id="patch_4">
    <path d="M 460.8 293.76 
L 460.8 3.456 
" style="fill: none; stroke: #000000; stroke-width: 0.8; stroke-linejoin: miter; stroke-linecap: square"/>
   </g>
   <g id="patch_5">
    <path d="M 0 293.76 
L 460.8 293.76 
" style="fill: none; stroke: #000000; stroke-width: 0.8; stroke-linejoin: miter; stroke-linecap: square"/>
   </g>
   <g id="patch_6">
    <path d="M 0 3.456 
L 460.8 3.456 
" style="fill: none; stroke: #000000; stroke-width: 0.8; stroke-linejoin: miter; stroke-linecap: square"/>
   </g>
   <g id="text_6">
    <!-- {f1-f24}, 5-D -->
    <g transform="translate(318.609 287.95392) scale(0.2 -0.2)">
     <defs>
      <path id="DejaVuSans-7b" d="M 3272 -594 
L 3272 -1044 
L 3078 -1044 
Q 2300 -1044 2036 -812 
Q 1772 -581 1772 109 
L 1772 856 
Q 1772 1328 1603 1509 
Q 1434 1691 991 1691 
L 800 1691 
L 800 2138 
L 991 2138 
Q 1438 2138 1605 2317 
Q 1772 2497 1772 2963 
L 1772 3713 
Q 1772 4403 2036 4633 
Q 2300 4863 3078 4863 
L 3272 4863 
L 3272 4416 
L 3059 4416 
Q 2619 4416 2484 4278 
Q 2350 4141 2350 3700 
L 2350 2925 
Q 2350 2434 2208 2212 
Q 2066 1991 1722 1913 
Q 2069 1828 2209 1606 
Q 2350 1384 2350 897 
L 2350 122 
Q 2350 -319 2484 -456 
Q 2619 -594 3059 -594 
L 3272 -594 
z
" transform="scale(0.015625)"/>
      <path id="DejaVuSans-32" d="M 1228 531 
L 3431 531 
L 3431 0 
L 469 0 
L 469 531 
Q 828 903 1448 1529 
Q 2069 2156 2228 2338 
Q 2531 2678 2651 2914 
Q 2772 3150 2772 3378 
Q 2772 3750 2511 3984 
Q 2250 4219 1831 4219 
Q 1534 4219 1204 4116 
Q 875 4013 500 3803 
L 500 4441 
Q 881 4594 1212 4672 
Q 1544 4750 1819 4750 
Q 2544 4750 2975 4387 
Q 3406 4025 3406 3419 
Q 3406 3131 3298 2873 
Q 3191 2616 2906 2266 
Q 2828 2175 2409 1742 
Q 1991 1309 1228 531 
z
" transform="scale(0.015625)"/>
      <path id="DejaVuSans-7d" d="M 800 -594 
L 1019 -594 
Q 1456 -594 1589 -459 
Q 1722 -325 1722 122 
L 1722 897 
Q 1722 1384 1862 1606 
Q 2003 1828 2350 1913 
Q 2003 1991 1862 2212 
Q 1722 2434 1722 2925 
L 1722 3700 
Q 1722 4144 1589 4280 
Q 1456 4416 1019 4416 
L 800 4416 
L 800 4863 
L 997 4863 
Q 1775 4863 2036 4633 
Q 2297 4403 2297 3713 
L 2297 2963 
Q 2297 2497 2465 2317 
Q 2634 2138 3078 2138 
L 3272 2138 
L 3272 1691 
L 3078 1691 
Q 2634 1691 2465 1509 
Q 2297 1328 2297 856 
L 2297 109 
Q 2297 -581 2036 -812 
Q 1775 -1044 997 -1044 
L 800 -1044 
L 800 -594 
z
" transform="scale(0.015625)"/>
      <path id="DejaVuSans-2c" d="M 750 794 
L 1409 794 
L 1409 256 
L 897 -744 
L 494 -744 
L 750 256 
L 750 794 
z
" transform="scale(0.015625)"/>
      <path id="DejaVuSans-35" d="M 691 4666 
L 3169 4666 
L 3169 4134 
L 1269 4134 
L 1269 2991 
Q 1406 3038 1543 3061 
Q 1681 3084 1819 3084 
Q 2600 3084 3056 2656 
Q 3513 2228 3513 1497 
Q 3513 744 3044 326 
Q 2575 -91 1722 -91 
Q 1428 -91 1123 -41 
Q 819 9 494 109 
L 494 744 
Q 775 591 1075 516 
Q 1375 441 1709 441 
Q 2250 441 2565 725 
Q 2881 1009 2881 1497 
Q 2881 1984 2565 2268 
Q 2250 2553 1709 2553 
Q 1456 2553 1204 2497 
Q 953 2441 691 2322 
L 691 4666 
z
" transform="scale(0.015625)"/>
     </defs>
     <use xlink:href="#DejaVuSans-7b"/>
     <use xlink:href="#DejaVuSans-66" x="63.623047"/>
     <use xlink:href="#DejaVuSans-31" x="98.828125"/>
     <use xlink:href="#DejaVuSans-2d" x="162.451172"/>
     <use xlink:href="#DejaVuSans-66" x="198.535156"/>
     <use xlink:href="#DejaVuSans-32" x="233.740234"/>
     <use xlink:href="#DejaVuSans-34" x="297.363281"/>
     <use xlink:href="#DejaVuSans-7d" x="360.986328"/>
     <use xlink:href="#DejaVuSans-2c" x="424.609375"/>
     <use xlink:href="#DejaVuSans-20" x="456.396484"/>
     <use xlink:href="#DejaVuSans-35" x="488.183594"/>
     <use xlink:href="#DejaVuSans-2d" x="551.806641"/>
     <use xlink:href="#DejaVuSans-44" x="587.890625"/>
    </g>
   </g>
   <g id="text_7">
    <!-- v2.6.3 -->
    <g style="fill: #808080" transform="translate(214.71875 288.777272) scale(0.1 -0.1)">
     <defs>
      <path id="DejaVuSans-76" d="M 191 3500 
L 800 3500 
L 1894 563 
L 2988 3500 
L 3597 3500 
L 2284 0 
L 1503 0 
L 191 3500 
z
" transform="scale(0.015625)"/>
      <path id="DejaVuSans-2e" d="M 684 794 
L 1344 794 
L 1344 0 
L 684 0 
L 684 794 
z
" transform="scale(0.015625)"/>
      <path id="DejaVuSans-36" d="M 2113 2584 
Q 1688 2584 1439 2293 
Q 1191 2003 1191 1497 
Q 1191 994 1439 701 
Q 1688 409 2113 409 
Q 2538 409 2786 701 
Q 3034 994 3034 1497 
Q 3034 2003 2786 2293 
Q 2538 2584 2113 2584 
z
M 3366 4563 
L 3366 3988 
Q 3128 4100 2886 4159 
Q 2644 4219 2406 4219 
Q 1781 4219 1451 3797 
Q 1122 3375 1075 2522 
Q 1259 2794 1537 2939 
Q 1816 3084 2150 3084 
Q 2853 3084 3261 2657 
Q 3669 2231 3669 1497 
Q 3669 778 3244 343 
Q 2819 -91 2113 -91 
Q 1303 -91 875 529 
Q 447 1150 447 2328 
Q 447 3434 972 4092 
Q 1497 4750 2381 4750 
Q 2619 4750 2861 4703 
Q 3103 4656 3366 4563 
z
" transform="scale(0.015625)"/>
      <path id="DejaVuSans-33" d="M 2597 2516 
Q 3050 2419 3304 2112 
Q 3559 1806 3559 1356 
Q 3559 666 3084 287 
Q 2609 -91 1734 -91 
Q 1441 -91 1130 -33 
Q 819 25 488 141 
L 488 750 
Q 750 597 1062 519 
Q 1375 441 1716 441 
Q 2309 441 2620 675 
Q 2931 909 2931 1356 
Q 2931 1769 2642 2001 
Q 2353 2234 1838 2234 
L 1294 2234 
L 1294 2753 
L 1863 2753 
Q 2328 2753 2575 2939 
Q 2822 3125 2822 3475 
Q 2822 3834 2567 4026 
Q 2313 4219 1838 4219 
Q 1578 4219 1281 4162 
Q 984 4106 628 3988 
L 628 4550 
Q 988 4650 1302 4700 
Q 1616 4750 1894 4750 
Q 2613 4750 3031 4423 
Q 3450 4097 3450 3541 
Q 3450 3153 3228 2886 
Q 3006 2619 2597 2516 
z
" transform="scale(0.015625)"/>
     </defs>
     <use xlink:href="#DejaVuSans-76"/>
     <use xlink:href="#DejaVuSans-32" x="59.179688"/>
     <use xlink:href="#DejaVuSans-2e" x="122.802734"/>
     <use xlink:href="#DejaVuSans-36" x="154.589844"/>
     <use xlink:href="#DejaVuSans-2e" x="218.212891"/>
     <use xlink:href="#DejaVuSans-33" x="250"/>
    </g>
   </g>
  </g>
 </g>
 <defs>
  <clipPath id="pe365032a28">
   <rect x="0" y="3.456" width="460.8" height="290.304"/>
  </clipPath>
 </defs>
</svg>
