<?xml version="1.0" encoding="utf-8" standalone="no"?>
<!DOCTYPE svg PUBLIC "-//W3C//DTD SVG 1.1//EN"
  "http://www.w3.org/Graphics/SVG/1.1/DTD/svg11.dtd">
<svg xmlns:xlink="http://www.w3.org/1999/xlink" width="460.8pt" height="345.6pt" viewBox="0 0 460.8 345.6" xmlns="http://www.w3.org/2000/svg" version="1.1">
 <metadata>
  <rdf:RDF xmlns:dc="http://purl.org/dc/elements/1.1/" xmlns:cc="http://creativecommons.org/ns#" xmlns:rdf="http://www.w3.org/1999/02/22-rdf-syntax-ns#">
   <cc:Work>
    <dc:type rdf:resource="http://purl.org/dc/dcmitype/StillImage"/>
    <dc:date>2024-01-26T00:13:30.013831</dc:date>
    <dc:format>image/svg+xml</dc:format>
    <dc:creator>
     <cc:Agent>
      <dc:title>Matplotlib v3.8.2, https://matplotlib.org/</dc:title>
     </cc:Agent>
    </dc:creator>
   </cc:Work>
  </rdf:RDF>
 </metadata>
 <defs>
  <style type="text/css">*{stroke-linejoin: round; stroke-linecap: butt}</style>
 </defs>
 <g id="figure_1">
  <g id="patch_1">
   <path d="M 0 345.6 
L 460.8 345.6 
L 460.8 0 
L 0 0 
z
" style="fill: #ffffff"/>
  </g>
  <g id="axes_1">
   <g id="patch_2">
    <path d="M 0 293.76 
L 460.8 293.76 
L 460.8 3.456 
L 0 3.456 
z
" style="fill: #ffffff"/>
   </g>
   <g id="matplotlib.axis_1">
    <g id="xtick_1">
     <g id="line2d_1">
      <path d="M 104.376121 293.76 
L 104.376121 3.456 
" clip-path="url(#p4a2f237166)" style="fill: none; stroke: #b0b0b0; stroke-width: 0.8; stroke-linecap: square"/>
     </g>
     <g id="line2d_2">
      <defs>
       <path id="mbdceba39b1" d="M 0 0 
L 0 3.5 
" style="stroke: #000000; stroke-width: 0.8"/>
      </defs>
      <g>
       <use xlink:href="#mbdceba39b1" x="104.376121" y="293.76" style="stroke: #000000; stroke-width: 0.8"/>
      </g>
     </g>
     <g id="text_1">
      <!-- -4 -->
      <g transform="translate(94.405809 315.956875) scale(0.2 -0.2)">
       <defs>
        <path id="DejaVuSans-2d" d="M 313 2009 
L 1997 2009 
L 1997 1497 
L 313 1497 
L 313 2009 
z
" transform="scale(0.015625)"/>
        <path id="DejaVuSans-34" d="M 2419 4116 
L 825 1625 
L 2419 1625 
L 2419 4116 
z
M 2253 4666 
L 3047 4666 
L 3047 1625 
L 3713 1625 
L 3713 1100 
L 3047 1100 
L 3047 0 
L 2419 0 
L 2419 1100 
L 313 1100 
L 313 1709 
L 2253 4666 
z
" transform="scale(0.015625)"/>
       </defs>
       <use xlink:href="#DejaVuSans-2d"/>
       <use xlink:href="#DejaVuSans-34" x="36.083984"/>
      </g>
     </g>
    </g>
    <g id="xtick_2">
     <g id="line2d_3">
      <path d="M 208.865126 293.76 
L 208.865126 3.456 
" clip-path="url(#p4a2f237166)" style="fill: none; stroke: #b0b0b0; stroke-width: 0.8; stroke-linecap: square"/>
     </g>
     <g id="line2d_4">
      <g>
       <use xlink:href="#mbdceba39b1" x="208.865126" y="293.76" style="stroke: #000000; stroke-width: 0.8"/>
      </g>
     </g>
     <g id="text_2">
      <!-- 0 -->
      <g transform="translate(202.502626 315.956875) scale(0.2 -0.2)">
       <defs>
        <path id="DejaVuSans-30" d="M 2034 4250 
Q 1547 4250 1301 3770 
Q 1056 3291 1056 2328 
Q 1056 1369 1301 889 
Q 1547 409 2034 409 
Q 2525 409 2770 889 
Q 3016 1369 3016 2328 
Q 3016 3291 2770 3770 
Q 2525 4250 2034 4250 
z
M 2034 4750 
Q 2819 4750 3233 4129 
Q 3647 3509 3647 2328 
Q 3647 1150 3233 529 
Q 2819 -91 2034 -91 
Q 1250 -91 836 529 
Q 422 1150 422 2328 
Q 422 3509 836 4129 
Q 1250 4750 2034 4750 
z
" transform="scale(0.015625)"/>
       </defs>
       <use xlink:href="#DejaVuSans-30"/>
      </g>
     </g>
    </g>
    <g id="xtick_3">
     <g id="line2d_5">
      <path d="M 313.354131 293.76 
L 313.354131 3.456 
" clip-path="url(#p4a2f237166)" style="fill: none; stroke: #b0b0b0; stroke-width: 0.8; stroke-linecap: square"/>
     </g>
     <g id="line2d_6">
      <g>
       <use xlink:href="#mbdceba39b1" x="313.354131" y="293.76" style="stroke: #000000; stroke-width: 0.8"/>
      </g>
     </g>
     <g id="text_3">
      <!-- 4 -->
      <g transform="translate(306.991631 315.956875) scale(0.2 -0.2)">
       <use xlink:href="#DejaVuSans-34"/>
      </g>
     </g>
    </g>
    <g id="xtick_4">
     <g id="line2d_7">
      <path d="M 417.843137 293.76 
L 417.843137 3.456 
" clip-path="url(#p4a2f237166)" style="fill: none; stroke: #b0b0b0; stroke-width: 0.8; stroke-linecap: square"/>
     </g>
     <g id="line2d_8">
      <g>
       <use xlink:href="#mbdceba39b1" x="417.843137" y="293.76" style="stroke: #000000; stroke-width: 0.8"/>
      </g>
     </g>
     <g id="text_4">
      <!-- 8 -->
      <g transform="translate(411.480637 315.956875) scale(0.2 -0.2)">
       <defs>
        <path id="DejaVuSans-38" d="M 2034 2216 
Q 1584 2216 1326 1975 
Q 1069 1734 1069 1313 
Q 1069 891 1326 650 
Q 1584 409 2034 409 
Q 2484 409 2743 651 
Q 3003 894 3003 1313 
Q 3003 1734 2745 1975 
Q 2488 2216 2034 2216 
z
M 1403 2484 
Q 997 2584 770 2862 
Q 544 3141 544 3541 
Q 544 4100 942 4425 
Q 1341 4750 2034 4750 
Q 2731 4750 3128 4425 
Q 3525 4100 3525 3541 
Q 3525 3141 3298 2862 
Q 3072 2584 2669 2484 
Q 3125 2378 3379 2068 
Q 3634 1759 3634 1313 
Q 3634 634 3220 271 
Q 2806 -91 2034 -91 
Q 1263 -91 848 271 
Q 434 634 434 1313 
Q 434 1759 690 2068 
Q 947 2378 1403 2484 
z
M 1172 3481 
Q 1172 3119 1398 2916 
Q 1625 2713 2034 2713 
Q 2441 2713 2670 2916 
Q 2900 3119 2900 3481 
Q 2900 3844 2670 4047 
Q 2441 4250 2034 4250 
Q 1625 4250 1398 4047 
Q 1172 3844 1172 3481 
z
" transform="scale(0.015625)"/>
       </defs>
       <use xlink:href="#DejaVuSans-38"/>
      </g>
     </g>
    </g>
    <g id="text_5">
     <!-- log10 of Df -->
     <g transform="translate(175.214063 339.313125) scale(0.2 -0.2)">
      <defs>
       <path id="DejaVuSans-6c" d="M 603 4863 
L 1178 4863 
L 1178 0 
L 603 0 
L 603 4863 
z
" transform="scale(0.015625)"/>
       <path id="DejaVuSans-6f" d="M 1959 3097 
Q 1497 3097 1228 2736 
Q 959 2375 959 1747 
Q 959 1119 1226 758 
Q 1494 397 1959 397 
Q 2419 397 2687 759 
Q 2956 1122 2956 1747 
Q 2956 2369 2687 2733 
Q 2419 3097 1959 3097 
z
M 1959 3584 
Q 2709 3584 3137 3096 
Q 3566 2609 3566 1747 
Q 3566 888 3137 398 
Q 2709 -91 1959 -91 
Q 1206 -91 779 398 
Q 353 888 353 1747 
Q 353 2609 779 3096 
Q 1206 3584 1959 3584 
z
" transform="scale(0.015625)"/>
       <path id="DejaVuSans-67" d="M 2906 1791 
Q 2906 2416 2648 2759 
Q 2391 3103 1925 3103 
Q 1463 3103 1205 2759 
Q 947 2416 947 1791 
Q 947 1169 1205 825 
Q 1463 481 1925 481 
Q 2391 481 2648 825 
Q 2906 1169 2906 1791 
z
M 3481 434 
Q 3481 -459 3084 -895 
Q 2688 -1331 1869 -1331 
Q 1566 -1331 1297 -1286 
Q 1028 -1241 775 -1147 
L 775 -588 
Q 1028 -725 1275 -790 
Q 1522 -856 1778 -856 
Q 2344 -856 2625 -561 
Q 2906 -266 2906 331 
L 2906 616 
Q 2728 306 2450 153 
Q 2172 0 1784 0 
Q 1141 0 747 490 
Q 353 981 353 1791 
Q 353 2603 747 3093 
Q 1141 3584 1784 3584 
Q 2172 3584 2450 3431 
Q 2728 3278 2906 2969 
L 2906 3500 
L 3481 3500 
L 3481 434 
z
" transform="scale(0.015625)"/>
       <path id="DejaVuSans-31" d="M 794 531 
L 1825 531 
L 1825 4091 
L 703 3866 
L 703 4441 
L 1819 4666 
L 2450 4666 
L 2450 531 
L 3481 531 
L 3481 0 
L 794 0 
L 794 531 
z
" transform="scale(0.015625)"/>
       <path id="DejaVuSans-20" transform="scale(0.015625)"/>
       <path id="DejaVuSans-66" d="M 2375 4863 
L 2375 4384 
L 1825 4384 
Q 1516 4384 1395 4259 
Q 1275 4134 1275 3809 
L 1275 3500 
L 2222 3500 
L 2222 3053 
L 1275 3053 
L 1275 0 
L 697 0 
L 697 3053 
L 147 3053 
L 147 3500 
L 697 3500 
L 697 3744 
Q 697 4328 969 4595 
Q 1241 4863 1831 4863 
L 2375 4863 
z
" transform="scale(0.015625)"/>
       <path id="DejaVuSans-44" d="M 1259 4147 
L 1259 519 
L 2022 519 
Q 2988 519 3436 956 
Q 3884 1394 3884 2338 
Q 3884 3275 3436 3711 
Q 2988 4147 2022 4147 
L 1259 4147 
z
M 628 4666 
L 1925 4666 
Q 3281 4666 3915 4102 
Q 4550 3538 4550 2338 
Q 4550 1131 3912 565 
Q 3275 0 1925 0 
L 628 0 
L 628 4666 
z
" transform="scale(0.015625)"/>
      </defs>
      <use xlink:href="#DejaVuSans-6c"/>
      <use xlink:href="#DejaVuSans-6f" x="27.783203"/>
      <use xlink:href="#DejaVuSans-67" x="88.964844"/>
      <use xlink:href="#DejaVuSans-31" x="152.441406"/>
      <use xlink:href="#DejaVuSans-30" x="216.064453"/>
      <use xlink:href="#DejaVuSans-20" x="279.6875"/>
      <use xlink:href="#DejaVuSans-6f" x="311.474609"/>
      <use xlink:href="#DejaVuSans-66" x="372.65625"/>
      <use xlink:href="#DejaVuSans-20" x="407.861328"/>
      <use xlink:href="#DejaVuSans-44" x="439.648438"/>
      <use xlink:href="#DejaVuSans-66" x="516.650391"/>
     </g>
    </g>
   </g>
   <g id="matplotlib.axis_2">
    <g id="ytick_1">
     <g id="line2d_9">
      <path d="M 0 293.76 
L 460.8 293.76 
" clip-path="url(#p4a2f237166)" style="fill: none; stroke: #b0b0b0; stroke-width: 0.8; stroke-linecap: square"/>
     </g>
     <g id="line2d_10">
      <defs>
       <path id="ma995490e4d" d="M 0 0 
L -3.5 0 
" style="stroke: #000000; stroke-width: 0.8"/>
      </defs>
      <g>
       <use xlink:href="#ma995490e4d" x="0" y="293.76" style="stroke: #000000; stroke-width: 0.8"/>
      </g>
     </g>
    </g>
    <g id="ytick_2">
     <g id="line2d_11">
      <path d="M 0 236.274059 
L 460.8 236.274059 
" clip-path="url(#p4a2f237166)" style="fill: none; stroke: #b0b0b0; stroke-width: 0.8; stroke-linecap: square"/>
     </g>
     <g id="line2d_12">
      <g>
       <use xlink:href="#ma995490e4d" x="0" y="236.274059" style="stroke: #000000; stroke-width: 0.8"/>
      </g>
     </g>
    </g>
    <g id="ytick_3">
     <g id="line2d_13">
      <path d="M 0 178.788119 
L 460.8 178.788119 
" clip-path="url(#p4a2f237166)" style="fill: none; stroke: #b0b0b0; stroke-width: 0.8; stroke-linecap: square"/>
     </g>
     <g id="line2d_14">
      <g>
       <use xlink:href="#ma995490e4d" x="0" y="178.788119" style="stroke: #000000; stroke-width: 0.8"/>
      </g>
     </g>
    </g>
    <g id="ytick_4">
     <g id="line2d_15">
      <path d="M 0 121.302178 
L 460.8 121.302178 
" clip-path="url(#p4a2f237166)" style="fill: none; stroke: #b0b0b0; stroke-width: 0.8; stroke-linecap: square"/>
     </g>
     <g id="line2d_16">
      <g>
       <use xlink:href="#ma995490e4d" x="0" y="121.302178" style="stroke: #000000; stroke-width: 0.8"/>
      </g>
     </g>
    </g>
    <g id="ytick_5">
     <g id="line2d_17">
      <path d="M 0 63.816238 
L 460.8 63.816238 
" clip-path="url(#p4a2f237166)" style="fill: none; stroke: #b0b0b0; stroke-width: 0.8; stroke-linecap: square"/>
     </g>
     <g id="line2d_18">
      <g>
       <use xlink:href="#ma995490e4d" x="0" y="63.816238" style="stroke: #000000; stroke-width: 0.8"/>
      </g>
     </g>
    </g>
    <g id="ytick_6">
     <g id="line2d_19">
      <path d="M 0 6.330297 
L 460.8 6.330297 
" clip-path="url(#p4a2f237166)" style="fill: none; stroke: #b0b0b0; stroke-width: 0.8; stroke-linecap: square"/>
     </g>
     <g id="line2d_20">
      <g>
       <use xlink:href="#ma995490e4d" x="0" y="6.330297" style="stroke: #000000; stroke-width: 0.8"/>
      </g>
     </g>
    </g>
   </g>
   <g id="line2d_21">
    <path d="M 217.440239 293.76 
L 217.440239 289.927604 
L 219.675666 289.927604 
L 219.675666 286.095208 
L 219.893152 286.095208 
L 219.893152 282.262812 
L 220.231723 282.262812 
L 220.231723 278.430416 
L 222.484212 278.430416 
L 222.585769 270.765624 
L 223.55781 270.765624 
L 223.55781 266.933228 
L 229.460962 266.933228 
L 229.460962 263.100832 
L 238.346045 263.100832 
L 238.346045 259.268436 
L 242.363021 259.268436 
L 242.363021 255.43604 
L 243.661412 255.43604 
L 243.661412 251.603644 
L 244.395689 251.603644 
L 244.395689 247.771248 
L 245.009433 247.771248 
L 245.009433 243.938851 
L 245.349875 243.938851 
L 245.349875 240.106455 
L 250.120171 240.106455 
L 250.120171 236.274059 
L 250.783848 236.274059 
L 250.783848 232.441663 
L 254.335648 232.441663 
L 254.335648 228.609267 
L 265.806354 228.609267 
L 265.806354 224.776871 
L 266.991549 224.776871 
L 266.991549 220.944475 
L 268.149089 220.944475 
L 268.149089 217.112079 
L 271.76658 217.112079 
L 271.833188 209.447287 
L 272.477915 209.447287 
L 272.477915 205.614891 
L 273.941048 205.614891 
L 273.941048 201.782495 
L 274.896977 201.782495 
L 274.982197 194.117703 
L 275.50787 194.117703 
L 275.50787 190.285307 
L 275.927294 190.285307 
L 275.927294 186.452911 
L 277.221985 186.452911 
L 277.221985 182.620515 
L 279.791247 182.620515 
L 279.791247 178.788119 
L 280.235204 178.788119 
L 280.235204 174.955723 
L 280.425079 174.955723 
L 280.425079 171.123327 
L 280.8387 171.123327 
L 280.8387 167.290931 
L 286.980238 167.290931 
L 286.980238 163.458535 
L 309.79042 163.458535 
L 309.79042 159.626139 
L 312.256934 159.626139 
L 312.256934 155.793743 
L 320.756602 155.793743 
L 320.756602 151.961347 
L 342.106352 151.961347 
L 342.106352 148.12895 
L 342.848695 148.12895 
L 342.848695 144.296554 
L 344.694204 144.296554 
L 344.694204 140.464158 
L 344.986676 140.464158 
L 344.986676 136.631762 
L 347.619365 136.631762 
L 347.619365 132.799366 
L 347.792547 132.799366 
L 347.792547 128.96697 
L 351.774046 128.96697 
L 351.774046 125.134574 
L 351.976887 125.134574 
L 351.976887 121.302178 
L 353.159979 121.302178 
L 353.159979 117.469782 
L 354.094875 117.469782 
L 354.094875 113.637386 
L 356.015493 113.637386 
L 356.015493 109.80499 
L 356.973419 109.80499 
L 356.973419 105.972594 
L 357.864192 105.972594 
L 357.864192 102.140198 
L 358.749901 102.140198 
L 358.788553 94.475406 
L 361.019442 94.475406 
L 361.019442 90.64301 
L 361.316702 90.64301 
L 361.316702 86.810614 
L 361.7437 86.810614 
L 361.794978 79.145822 
L 362.272865 79.145822 
L 362.272865 75.313426 
L 363.091026 75.313426 
L 363.091026 71.48103 
L 364.859183 71.48103 
L 364.859183 67.648634 
L 367.184723 67.648634 
L 367.184723 63.816238 
L 368.371732 63.816238 
L 368.371732 59.983842 
L 368.62664 59.983842 
L 368.62664 56.151446 
L 370.276564 56.151446 
L 370.276564 52.31905 
L 371.330306 52.31905 
L 371.330306 48.486653 
L 371.520956 48.486653 
L 371.520956 44.654257 
L 376.821427 44.654257 
L 376.821427 40.821861 
L 383.62189 40.821861 
L 383.62189 36.989465 
L 385.00867 36.989465 
L 385.00867 33.157069 
L 386.062982 33.157069 
L 386.062982 29.324673 
L 397.040178 29.324673 
L 397.040178 25.492277 
L 397.385978 25.492277 
L 397.385978 21.659881 
L 403.234598 21.659881 
L 403.234598 17.827485 
L 406.284383 17.827485 
L 406.284383 13.995089 
L 409.69597 13.995089 
L 409.69597 10.162693 
L 413.085091 10.162693 
L 413.085091 6.330297 
L 413.085091 6.330297 
L 460.8 6.330297 
L 460.8 6.330297 
" clip-path="url(#p4a2f237166)" style="fill: none; stroke: #ff0000; stroke-width: 3; stroke-linecap: square"/>
   </g>
   <g id="line2d_22">
    <path d="M 221.437953 293.76 
L 221.437953 289.927604 
L 225.746928 289.927604 
L 225.746928 286.095208 
L 228.472821 286.095208 
L 228.472821 282.262812 
L 228.788582 282.262812 
L 228.788582 278.430416 
L 241.600283 278.430416 
L 241.600283 274.59802 
L 244.225324 274.59802 
L 244.225324 270.765624 
L 245.654112 270.765624 
L 245.654112 266.933228 
L 245.867642 266.933228 
L 245.867642 263.100832 
L 249.454601 263.100832 
L 249.454601 259.268436 
L 251.323886 259.268436 
L 251.323886 255.43604 
L 252.44708 255.43604 
L 252.44708 251.603644 
L 254.242444 251.603644 
L 254.242444 247.771248 
L 255.985611 247.771248 
L 255.985611 243.938851 
L 260.448027 243.938851 
L 260.448027 240.106455 
L 260.868332 240.106455 
L 260.868332 236.274059 
L 280.439231 236.274059 
L 280.439231 232.441663 
L 282.875366 232.441663 
L 282.875366 228.609267 
L 283.149399 228.609267 
L 283.149399 224.776871 
L 284.47981 224.776871 
L 284.47981 220.944475 
L 284.855636 220.944475 
L 284.855636 217.112079 
L 285.050519 217.112079 
L 285.050519 213.279683 
L 286.038083 213.279683 
L 286.038083 209.447287 
L 286.469307 209.447287 
L 286.469307 205.614891 
L 287.765023 205.614891 
L 287.765023 201.782495 
L 288.799211 201.782495 
L 288.799211 197.950099 
L 289.081597 197.950099 
L 289.081597 194.117703 
L 289.920598 194.117703 
L 289.920598 190.285307 
L 290.181634 190.285307 
L 290.181634 186.452911 
L 291.07011 186.452911 
L 291.07011 182.620515 
L 294.226489 182.620515 
L 294.226489 178.788119 
L 294.599522 178.788119 
L 294.599522 174.955723 
L 325.502436 174.955723 
L 325.502436 171.123327 
L 329.270313 171.123327 
L 329.270313 167.290931 
L 339.202813 167.290931 
L 339.202813 163.458535 
L 341.262167 163.458535 
L 341.262167 159.626139 
L 353.089673 159.626139 
L 353.089673 155.793743 
L 354.676375 155.793743 
L 354.676375 151.961347 
L 373.467428 151.961347 
L 373.467428 148.12895 
L 373.82911 148.12895 
L 373.82911 144.296554 
L 375.11151 144.296554 
L 375.11151 140.464158 
L 375.302872 140.464158 
L 375.302872 136.631762 
L 376.562833 136.631762 
L 376.562833 132.799366 
L 379.524087 132.799366 
L 379.524087 128.96697 
L 379.697938 128.96697 
L 379.697938 125.134574 
L 380.210897 125.134574 
L 380.210897 121.302178 
L 382.359075 121.302178 
L 382.359075 117.469782 
L 384.131703 117.469782 
L 384.131703 113.637386 
L 384.637644 113.637386 
L 384.637644 109.80499 
L 384.825993 109.80499 
L 384.825993 105.972594 
L 385.766846 105.972594 
L 385.766846 102.140198 
L 385.995292 102.140198 
L 385.995292 98.307802 
L 386.137481 98.307802 
L 386.140103 90.64301 
L 386.693917 90.64301 
L 386.693917 86.810614 
L 387.03385 86.810614 
L 387.03385 82.978218 
L 387.244902 82.978218 
L 387.244902 79.145822 
L 388.40672 79.145822 
L 388.40672 75.313426 
L 392.281184 75.313426 
L 392.281184 71.48103 
L 392.663824 71.48103 
L 392.663824 67.648634 
L 394.088979 67.648634 
L 394.088979 63.816238 
L 394.673946 63.816238 
L 394.673946 59.983842 
L 397.375858 59.983842 
L 397.375858 56.151446 
L 397.757901 56.151446 
L 397.757901 52.31905 
L 399.043974 52.31905 
L 399.043974 48.486653 
L 402.777022 48.486653 
L 402.777022 44.654257 
L 405.182222 44.654257 
L 405.182222 40.821861 
L 407.927271 40.821861 
L 407.927271 36.989465 
L 408.079031 36.989465 
L 408.109298 29.324673 
L 408.634719 29.324673 
L 408.634719 25.492277 
L 412.014261 25.492277 
L 412.014261 21.659881 
L 422.613894 21.659881 
L 422.613894 17.827485 
L 423.467192 17.827485 
L 423.467192 13.995089 
L 432.124351 13.995089 
L 432.124351 10.162693 
L 438.851767 10.162693 
L 438.851767 6.330297 
L 438.851767 6.330297 
L 460.8 6.330297 
L 460.8 6.330297 
" clip-path="url(#p4a2f237166)" style="fill: none; stroke: #00bfbf; stroke-width: 1.5; stroke-linecap: square"/>
   </g>
   <g id="line2d_23">
    <path d="M 220.231723 293.76 
L 220.231723 289.927604 
L 222.585769 289.927604 
L 222.585769 286.095208 
L 226.868567 286.095208 
L 226.868567 282.262812 
L 227.131822 282.262812 
L 227.131822 278.430416 
L 234.803533 278.430416 
L 234.803533 274.59802 
L 240.244327 274.59802 
L 240.244327 270.765624 
L 242.363021 270.765624 
L 242.363021 266.933228 
L 244.395689 266.933228 
L 244.395689 263.100832 
L 244.605109 263.100832 
L 244.605109 259.268436 
L 245.009433 259.268436 
L 245.009433 255.43604 
L 246.937295 255.43604 
L 246.937295 251.603644 
L 250.120171 251.603644 
L 250.120171 247.771248 
L 253.690306 247.771248 
L 253.690306 243.938851 
L 253.87951 243.938851 
L 253.87951 240.106455 
L 257.736688 240.106455 
L 257.736688 236.274059 
L 278.246314 236.274059 
L 278.246314 232.441663 
L 279.833514 232.441663 
L 279.833514 228.609267 
L 282.055261 228.609267 
L 282.055261 224.776871 
L 283.149399 224.776871 
L 283.149399 220.944475 
L 284.22161 220.944475 
L 284.316668 213.279683 
L 284.762855 213.279683 
L 284.762855 209.447287 
L 285.050519 209.447287 
L 285.050519 205.614891 
L 285.422021 205.614891 
L 285.422021 201.782495 
L 287.07324 201.782495 
L 287.07324 197.950099 
L 287.504064 197.950099 
L 287.504064 194.117703 
L 287.810953 194.117703 
L 287.810953 190.285307 
L 288.306348 190.285307 
L 288.306348 186.452911 
L 288.68463 186.452911 
L 288.68463 182.620515 
L 291.07011 182.620515 
L 291.07011 178.788119 
L 294.226489 178.788119 
L 294.317533 171.123327 
L 311.653808 171.123327 
L 311.653808 167.290931 
L 312.037029 167.290931 
L 312.037029 163.458535 
L 323.98367 163.458535 
L 323.98367 159.626139 
L 325.502436 159.626139 
L 325.502436 155.793743 
L 327.218488 155.793743 
L 327.218488 151.961347 
L 356.093464 151.961347 
L 356.093464 148.12895 
L 358.123833 148.12895 
L 358.123833 144.296554 
L 359.553924 144.296554 
L 359.553924 140.464158 
L 361.376145 140.464158 
L 361.376145 136.631762 
L 365.709447 136.631762 
L 365.709447 132.799366 
L 367.307262 132.799366 
L 367.307262 128.96697 
L 368.130738 128.96697 
L 368.130738 125.134574 
L 374.294608 125.134574 
L 374.294608 121.302178 
L 375.361263 121.302178 
L 375.361263 117.469782 
L 376.90931 117.469782 
L 376.90931 113.637386 
L 378.708611 113.637386 
L 378.708611 109.80499 
L 379.437143 109.80499 
L 379.524087 102.140198 
L 381.010987 102.140198 
L 381.040901 90.64301 
L 381.257614 90.64301 
L 381.257614 86.810614 
L 382.37053 86.810614 
L 382.37053 82.978218 
L 383.130622 82.978218 
L 383.130622 79.145822 
L 384.001404 79.145822 
L 384.001404 75.313426 
L 388.218158 75.313426 
L 388.218158 71.48103 
L 389.577244 71.48103 
L 389.577244 67.648634 
L 390.347898 67.648634 
L 390.347898 63.816238 
L 392.557475 63.816238 
L 392.557475 59.983842 
L 393.129975 59.983842 
L 393.129975 56.151446 
L 393.767908 56.151446 
L 393.767908 52.31905 
L 394.98499 52.31905 
L 394.98499 48.486653 
L 398.50131 48.486653 
L 398.50131 44.654257 
L 400.843476 44.654257 
L 400.843476 40.821861 
L 402.20757 40.821861 
L 402.20757 36.989465 
L 402.664869 36.989465 
L 402.664869 33.157069 
L 404.257914 33.157069 
L 404.257914 29.324673 
L 404.878076 29.324673 
L 404.878076 25.492277 
L 405.8448 25.492277 
L 405.8448 21.659881 
L 419.162047 21.659881 
L 419.162047 17.827485 
L 420.019821 17.827485 
L 420.019821 13.995089 
L 429.616901 13.995089 
L 429.616901 10.162693 
L 430.647508 10.162693 
L 430.647508 6.330297 
L 430.647508 6.330297 
L 460.8 6.330297 
L 460.8 6.330297 
" clip-path="url(#p4a2f237166)" style="fill: none; stroke: #bf00bf; stroke-width: 1.5; stroke-linecap: square"/>
   </g>
   <g id="patch_3">
    <path d="M 0 293.76 
L 0 3.456 
" style="fill: none; stroke: #000000; stroke-width: 0.8; stroke-linejoin: miter; stroke-linecap: square"/>
   </g>
   <g id="patch_4">
    <path d="M 460.8 293.76 
L 460.8 3.456 
" style="fill: none; stroke: #000000; stroke-width: 0.8; stroke-linejoin: miter; stroke-linecap: square"/>
   </g>
   <g id="patch_5">
    <path d="M 0 293.76 
L 460.8 293.76 
" style="fill: none; stroke: #000000; stroke-width: 0.8; stroke-linejoin: miter; stroke-linecap: square"/>
   </g>
   <g id="patch_6">
    <path d="M 0 3.456 
L 460.8 3.456 
" style="fill: none; stroke: #000000; stroke-width: 0.8; stroke-linejoin: miter; stroke-linecap: square"/>
   </g>
   <g id="text_6">
    <!-- {f10-f14}, 5-D -->
    <g transform="translate(305.884 287.95392) scale(0.2 -0.2)">
     <defs>
      <path id="DejaVuSans-7b" d="M 3272 -594 
L 3272 -1044 
L 3078 -1044 
Q 2300 -1044 2036 -812 
Q 1772 -581 1772 109 
L 1772 856 
Q 1772 1328 1603 1509 
Q 1434 1691 991 1691 
L 800 1691 
L 800 2138 
L 991 2138 
Q 1438 2138 1605 2317 
Q 1772 2497 1772 2963 
L 1772 3713 
Q 1772 4403 2036 4633 
Q 2300 4863 3078 4863 
L 3272 4863 
L 3272 4416 
L 3059 4416 
Q 2619 4416 2484 4278 
Q 2350 4141 2350 3700 
L 2350 2925 
Q 2350 2434 2208 2212 
Q 2066 1991 1722 1913 
Q 2069 1828 2209 1606 
Q 2350 1384 2350 897 
L 2350 122 
Q 2350 -319 2484 -456 
Q 2619 -594 3059 -594 
L 3272 -594 
z
" transform="scale(0.015625)"/>
      <path id="DejaVuSans-7d" d="M 800 -594 
L 1019 -594 
Q 1456 -594 1589 -459 
Q 1722 -325 1722 122 
L 1722 897 
Q 1722 1384 1862 1606 
Q 2003 1828 2350 1913 
Q 2003 1991 1862 2212 
Q 1722 2434 1722 2925 
L 1722 3700 
Q 1722 4144 1589 4280 
Q 1456 4416 1019 4416 
L 800 4416 
L 800 4863 
L 997 4863 
Q 1775 4863 2036 4633 
Q 2297 4403 2297 3713 
L 2297 2963 
Q 2297 2497 2465 2317 
Q 2634 2138 3078 2138 
L 3272 2138 
L 3272 1691 
L 3078 1691 
Q 2634 1691 2465 1509 
Q 2297 1328 2297 856 
L 2297 109 
Q 2297 -581 2036 -812 
Q 1775 -1044 997 -1044 
L 800 -1044 
L 800 -594 
z
" transform="scale(0.015625)"/>
      <path id="DejaVuSans-2c" d="M 750 794 
L 1409 794 
L 1409 256 
L 897 -744 
L 494 -744 
L 750 256 
L 750 794 
z
" transform="scale(0.015625)"/>
      <path id="DejaVuSans-35" d="M 691 4666 
L 3169 4666 
L 3169 4134 
L 1269 4134 
L 1269 2991 
Q 1406 3038 1543 3061 
Q 1681 3084 1819 3084 
Q 2600 3084 3056 2656 
Q 3513 2228 3513 1497 
Q 3513 744 3044 326 
Q 2575 -91 1722 -91 
Q 1428 -91 1123 -41 
Q 819 9 494 109 
L 494 744 
Q 775 591 1075 516 
Q 1375 441 1709 441 
Q 2250 441 2565 725 
Q 2881 1009 2881 1497 
Q 2881 1984 2565 2268 
Q 2250 2553 1709 2553 
Q 1456 2553 1204 2497 
Q 953 2441 691 2322 
L 691 4666 
z
" transform="scale(0.015625)"/>
     </defs>
     <use xlink:href="#DejaVuSans-7b"/>
     <use xlink:href="#DejaVuSans-66" x="63.623047"/>
     <use xlink:href="#DejaVuSans-31" x="98.828125"/>
     <use xlink:href="#DejaVuSans-30" x="162.451172"/>
     <use xlink:href="#DejaVuSans-2d" x="226.074219"/>
     <use xlink:href="#DejaVuSans-66" x="262.158203"/>
     <use xlink:href="#DejaVuSans-31" x="297.363281"/>
     <use xlink:href="#DejaVuSans-34" x="360.986328"/>
     <use xlink:href="#DejaVuSans-7d" x="424.609375"/>
     <use xlink:href="#DejaVuSans-2c" x="488.232422"/>
     <use xlink:href="#DejaVuSans-20" x="520.019531"/>
     <use xlink:href="#DejaVuSans-35" x="551.806641"/>
     <use xlink:href="#DejaVuSans-2d" x="615.429688"/>
     <use xlink:href="#DejaVuSans-44" x="651.513672"/>
    </g>
   </g>
   <g id="text_7">
    <!-- v2.6.3 -->
    <g style="fill: #808080" transform="translate(214.71875 288.777272) scale(0.1 -0.1)">
     <defs>
      <path id="DejaVuSans-76" d="M 191 3500 
L 800 3500 
L 1894 563 
L 2988 3500 
L 3597 3500 
L 2284 0 
L 1503 0 
L 191 3500 
z
" transform="scale(0.015625)"/>
      <path id="DejaVuSans-32" d="M 1228 531 
L 3431 531 
L 3431 0 
L 469 0 
L 469 531 
Q 828 903 1448 1529 
Q 2069 2156 2228 2338 
Q 2531 2678 2651 2914 
Q 2772 3150 2772 3378 
Q 2772 3750 2511 3984 
Q 2250 4219 1831 4219 
Q 1534 4219 1204 4116 
Q 875 4013 500 3803 
L 500 4441 
Q 881 4594 1212 4672 
Q 1544 4750 1819 4750 
Q 2544 4750 2975 4387 
Q 3406 4025 3406 3419 
Q 3406 3131 3298 2873 
Q 3191 2616 2906 2266 
Q 2828 2175 2409 1742 
Q 1991 1309 1228 531 
z
" transform="scale(0.015625)"/>
      <path id="DejaVuSans-2e" d="M 684 794 
L 1344 794 
L 1344 0 
L 684 0 
L 684 794 
z
" transform="scale(0.015625)"/>
      <path id="DejaVuSans-36" d="M 2113 2584 
Q 1688 2584 1439 2293 
Q 1191 2003 1191 1497 
Q 1191 994 1439 701 
Q 1688 409 2113 409 
Q 2538 409 2786 701 
Q 3034 994 3034 1497 
Q 3034 2003 2786 2293 
Q 2538 2584 2113 2584 
z
M 3366 4563 
L 3366 3988 
Q 3128 4100 2886 4159 
Q 2644 4219 2406 4219 
Q 1781 4219 1451 3797 
Q 1122 3375 1075 2522 
Q 1259 2794 1537 2939 
Q 1816 3084 2150 3084 
Q 2853 3084 3261 2657 
Q 3669 2231 3669 1497 
Q 3669 778 3244 343 
Q 2819 -91 2113 -91 
Q 1303 -91 875 529 
Q 447 1150 447 2328 
Q 447 3434 972 4092 
Q 1497 4750 2381 4750 
Q 2619 4750 2861 4703 
Q 3103 4656 3366 4563 
z
" transform="scale(0.015625)"/>
      <path id="DejaVuSans-33" d="M 2597 2516 
Q 3050 2419 3304 2112 
Q 3559 1806 3559 1356 
Q 3559 666 3084 287 
Q 2609 -91 1734 -91 
Q 1441 -91 1130 -33 
Q 819 25 488 141 
L 488 750 
Q 750 597 1062 519 
Q 1375 441 1716 441 
Q 2309 441 2620 675 
Q 2931 909 2931 1356 
Q 2931 1769 2642 2001 
Q 2353 2234 1838 2234 
L 1294 2234 
L 1294 2753 
L 1863 2753 
Q 2328 2753 2575 2939 
Q 2822 3125 2822 3475 
Q 2822 3834 2567 4026 
Q 2313 4219 1838 4219 
Q 1578 4219 1281 4162 
Q 984 4106 628 3988 
L 628 4550 
Q 988 4650 1302 4700 
Q 1616 4750 1894 4750 
Q 2613 4750 3031 4423 
Q 3450 4097 3450 3541 
Q 3450 3153 3228 2886 
Q 3006 2619 2597 2516 
z
" transform="scale(0.015625)"/>
     </defs>
     <use xlink:href="#DejaVuSans-76"/>
     <use xlink:href="#DejaVuSans-32" x="59.179688"/>
     <use xlink:href="#DejaVuSans-2e" x="122.802734"/>
     <use xlink:href="#DejaVuSans-36" x="154.589844"/>
     <use xlink:href="#DejaVuSans-2e" x="218.212891"/>
     <use xlink:href="#DejaVuSans-33" x="250"/>
    </g>
   </g>
  </g>
 </g>
 <defs>
  <clipPath id="p4a2f237166">
   <rect x="0" y="3.456" width="460.8" height="290.304"/>
  </clipPath>
 </defs>
</svg>
