<?xml version="1.0" encoding="utf-8" standalone="no"?>
<!DOCTYPE svg PUBLIC "-//W3C//DTD SVG 1.1//EN"
  "http://www.w3.org/Graphics/SVG/1.1/DTD/svg11.dtd">
<svg xmlns:xlink="http://www.w3.org/1999/xlink" width="460.8pt" height="345.6pt" viewBox="0 0 460.8 345.6" xmlns="http://www.w3.org/2000/svg" version="1.1">
 <metadata>
  <rdf:RDF xmlns:dc="http://purl.org/dc/elements/1.1/" xmlns:cc="http://creativecommons.org/ns#" xmlns:rdf="http://www.w3.org/1999/02/22-rdf-syntax-ns#">
   <cc:Work>
    <dc:type rdf:resource="http://purl.org/dc/dcmitype/StillImage"/>
    <dc:date>2024-01-26T00:13:36.270674</dc:date>
    <dc:format>image/svg+xml</dc:format>
    <dc:creator>
     <cc:Agent>
      <dc:title>Matplotlib v3.8.2, https://matplotlib.org/</dc:title>
     </cc:Agent>
    </dc:creator>
   </cc:Work>
  </rdf:RDF>
 </metadata>
 <defs>
  <style type="text/css">*{stroke-linejoin: round; stroke-linecap: butt}</style>
 </defs>
 <g id="figure_1">
  <g id="patch_1">
   <path d="M 0 345.6 
L 460.8 345.6 
L 460.8 0 
L 0 0 
z
" style="fill: #ffffff"/>
  </g>
  <g id="axes_1">
   <g id="patch_2">
    <path d="M 0 293.76 
L 460.8 293.76 
L 460.8 3.456 
L 0 3.456 
z
" style="fill: #ffffff"/>
   </g>
   <g id="matplotlib.axis_1">
    <g id="xtick_1">
     <g id="line2d_1">
      <path d="M 105.164739 293.76 
L 105.164739 3.456 
" clip-path="url(#p9063220e13)" style="fill: none; stroke: #b0b0b0; stroke-width: 0.8; stroke-linecap: square"/>
     </g>
     <g id="line2d_2">
      <defs>
       <path id="m9e76bf07cb" d="M 0 0 
L 0 3.5 
" style="stroke: #000000; stroke-width: 0.8"/>
      </defs>
      <g>
       <use xlink:href="#m9e76bf07cb" x="105.164739" y="293.76" style="stroke: #000000; stroke-width: 0.8"/>
      </g>
     </g>
     <g id="text_1">
      <!-- -4 -->
      <g transform="translate(95.194426 315.956875) scale(0.2 -0.2)">
       <defs>
        <path id="DejaVuSans-2d" d="M 313 2009 
L 1997 2009 
L 1997 1497 
L 313 1497 
L 313 2009 
z
" transform="scale(0.015625)"/>
        <path id="DejaVuSans-34" d="M 2419 4116 
L 825 1625 
L 2419 1625 
L 2419 4116 
z
M 2253 4666 
L 3047 4666 
L 3047 1625 
L 3713 1625 
L 3713 1100 
L 3047 1100 
L 3047 0 
L 2419 0 
L 2419 1100 
L 313 1100 
L 313 1709 
L 2253 4666 
z
" transform="scale(0.015625)"/>
       </defs>
       <use xlink:href="#DejaVuSans-2d"/>
       <use xlink:href="#DejaVuSans-34" x="36.083984"/>
      </g>
     </g>
    </g>
    <g id="xtick_2">
     <g id="line2d_3">
      <path d="M 210.443215 293.76 
L 210.443215 3.456 
" clip-path="url(#p9063220e13)" style="fill: none; stroke: #b0b0b0; stroke-width: 0.8; stroke-linecap: square"/>
     </g>
     <g id="line2d_4">
      <g>
       <use xlink:href="#m9e76bf07cb" x="210.443215" y="293.76" style="stroke: #000000; stroke-width: 0.8"/>
      </g>
     </g>
     <g id="text_2">
      <!-- 0 -->
      <g transform="translate(204.080715 315.956875) scale(0.2 -0.2)">
       <defs>
        <path id="DejaVuSans-30" d="M 2034 4250 
Q 1547 4250 1301 3770 
Q 1056 3291 1056 2328 
Q 1056 1369 1301 889 
Q 1547 409 2034 409 
Q 2525 409 2770 889 
Q 3016 1369 3016 2328 
Q 3016 3291 2770 3770 
Q 2525 4250 2034 4250 
z
M 2034 4750 
Q 2819 4750 3233 4129 
Q 3647 3509 3647 2328 
Q 3647 1150 3233 529 
Q 2819 -91 2034 -91 
Q 1250 -91 836 529 
Q 422 1150 422 2328 
Q 422 3509 836 4129 
Q 1250 4750 2034 4750 
z
" transform="scale(0.015625)"/>
       </defs>
       <use xlink:href="#DejaVuSans-30"/>
      </g>
     </g>
    </g>
    <g id="xtick_3">
     <g id="line2d_5">
      <path d="M 315.72169 293.76 
L 315.72169 3.456 
" clip-path="url(#p9063220e13)" style="fill: none; stroke: #b0b0b0; stroke-width: 0.8; stroke-linecap: square"/>
     </g>
     <g id="line2d_6">
      <g>
       <use xlink:href="#m9e76bf07cb" x="315.72169" y="293.76" style="stroke: #000000; stroke-width: 0.8"/>
      </g>
     </g>
     <g id="text_3">
      <!-- 4 -->
      <g transform="translate(309.35919 315.956875) scale(0.2 -0.2)">
       <use xlink:href="#DejaVuSans-34"/>
      </g>
     </g>
    </g>
    <g id="xtick_4">
     <g id="line2d_7">
      <path d="M 421.000166 293.76 
L 421.000166 3.456 
" clip-path="url(#p9063220e13)" style="fill: none; stroke: #b0b0b0; stroke-width: 0.8; stroke-linecap: square"/>
     </g>
     <g id="line2d_8">
      <g>
       <use xlink:href="#m9e76bf07cb" x="421.000166" y="293.76" style="stroke: #000000; stroke-width: 0.8"/>
      </g>
     </g>
     <g id="text_4">
      <!-- 8 -->
      <g transform="translate(414.637666 315.956875) scale(0.2 -0.2)">
       <defs>
        <path id="DejaVuSans-38" d="M 2034 2216 
Q 1584 2216 1326 1975 
Q 1069 1734 1069 1313 
Q 1069 891 1326 650 
Q 1584 409 2034 409 
Q 2484 409 2743 651 
Q 3003 894 3003 1313 
Q 3003 1734 2745 1975 
Q 2488 2216 2034 2216 
z
M 1403 2484 
Q 997 2584 770 2862 
Q 544 3141 544 3541 
Q 544 4100 942 4425 
Q 1341 4750 2034 4750 
Q 2731 4750 3128 4425 
Q 3525 4100 3525 3541 
Q 3525 3141 3298 2862 
Q 3072 2584 2669 2484 
Q 3125 2378 3379 2068 
Q 3634 1759 3634 1313 
Q 3634 634 3220 271 
Q 2806 -91 2034 -91 
Q 1263 -91 848 271 
Q 434 634 434 1313 
Q 434 1759 690 2068 
Q 947 2378 1403 2484 
z
M 1172 3481 
Q 1172 3119 1398 2916 
Q 1625 2713 2034 2713 
Q 2441 2713 2670 2916 
Q 2900 3119 2900 3481 
Q 2900 3844 2670 4047 
Q 2441 4250 2034 4250 
Q 1625 4250 1398 4047 
Q 1172 3844 1172 3481 
z
" transform="scale(0.015625)"/>
       </defs>
       <use xlink:href="#DejaVuSans-38"/>
      </g>
     </g>
    </g>
    <g id="text_5">
     <!-- log10 of Df -->
     <g transform="translate(175.214063 339.313125) scale(0.2 -0.2)">
      <defs>
       <path id="DejaVuSans-6c" d="M 603 4863 
L 1178 4863 
L 1178 0 
L 603 0 
L 603 4863 
z
" transform="scale(0.015625)"/>
       <path id="DejaVuSans-6f" d="M 1959 3097 
Q 1497 3097 1228 2736 
Q 959 2375 959 1747 
Q 959 1119 1226 758 
Q 1494 397 1959 397 
Q 2419 397 2687 759 
Q 2956 1122 2956 1747 
Q 2956 2369 2687 2733 
Q 2419 3097 1959 3097 
z
M 1959 3584 
Q 2709 3584 3137 3096 
Q 3566 2609 3566 1747 
Q 3566 888 3137 398 
Q 2709 -91 1959 -91 
Q 1206 -91 779 398 
Q 353 888 353 1747 
Q 353 2609 779 3096 
Q 1206 3584 1959 3584 
z
" transform="scale(0.015625)"/>
       <path id="DejaVuSans-67" d="M 2906 1791 
Q 2906 2416 2648 2759 
Q 2391 3103 1925 3103 
Q 1463 3103 1205 2759 
Q 947 2416 947 1791 
Q 947 1169 1205 825 
Q 1463 481 1925 481 
Q 2391 481 2648 825 
Q 2906 1169 2906 1791 
z
M 3481 434 
Q 3481 -459 3084 -895 
Q 2688 -1331 1869 -1331 
Q 1566 -1331 1297 -1286 
Q 1028 -1241 775 -1147 
L 775 -588 
Q 1028 -725 1275 -790 
Q 1522 -856 1778 -856 
Q 2344 -856 2625 -561 
Q 2906 -266 2906 331 
L 2906 616 
Q 2728 306 2450 153 
Q 2172 0 1784 0 
Q 1141 0 747 490 
Q 353 981 353 1791 
Q 353 2603 747 3093 
Q 1141 3584 1784 3584 
Q 2172 3584 2450 3431 
Q 2728 3278 2906 2969 
L 2906 3500 
L 3481 3500 
L 3481 434 
z
" transform="scale(0.015625)"/>
       <path id="DejaVuSans-31" d="M 794 531 
L 1825 531 
L 1825 4091 
L 703 3866 
L 703 4441 
L 1819 4666 
L 2450 4666 
L 2450 531 
L 3481 531 
L 3481 0 
L 794 0 
L 794 531 
z
" transform="scale(0.015625)"/>
       <path id="DejaVuSans-20" transform="scale(0.015625)"/>
       <path id="DejaVuSans-66" d="M 2375 4863 
L 2375 4384 
L 1825 4384 
Q 1516 4384 1395 4259 
Q 1275 4134 1275 3809 
L 1275 3500 
L 2222 3500 
L 2222 3053 
L 1275 3053 
L 1275 0 
L 697 0 
L 697 3053 
L 147 3053 
L 147 3500 
L 697 3500 
L 697 3744 
Q 697 4328 969 4595 
Q 1241 4863 1831 4863 
L 2375 4863 
z
" transform="scale(0.015625)"/>
       <path id="DejaVuSans-44" d="M 1259 4147 
L 1259 519 
L 2022 519 
Q 2988 519 3436 956 
Q 3884 1394 3884 2338 
Q 3884 3275 3436 3711 
Q 2988 4147 2022 4147 
L 1259 4147 
z
M 628 4666 
L 1925 4666 
Q 3281 4666 3915 4102 
Q 4550 3538 4550 2338 
Q 4550 1131 3912 565 
Q 3275 0 1925 0 
L 628 0 
L 628 4666 
z
" transform="scale(0.015625)"/>
      </defs>
      <use xlink:href="#DejaVuSans-6c"/>
      <use xlink:href="#DejaVuSans-6f" x="27.783203"/>
      <use xlink:href="#DejaVuSans-67" x="88.964844"/>
      <use xlink:href="#DejaVuSans-31" x="152.441406"/>
      <use xlink:href="#DejaVuSans-30" x="216.064453"/>
      <use xlink:href="#DejaVuSans-20" x="279.6875"/>
      <use xlink:href="#DejaVuSans-6f" x="311.474609"/>
      <use xlink:href="#DejaVuSans-66" x="372.65625"/>
      <use xlink:href="#DejaVuSans-20" x="407.861328"/>
      <use xlink:href="#DejaVuSans-44" x="439.648438"/>
      <use xlink:href="#DejaVuSans-66" x="516.650391"/>
     </g>
    </g>
   </g>
   <g id="matplotlib.axis_2">
    <g id="ytick_1">
     <g id="line2d_9">
      <path d="M 0 293.76 
L 460.8 293.76 
" clip-path="url(#p9063220e13)" style="fill: none; stroke: #b0b0b0; stroke-width: 0.8; stroke-linecap: square"/>
     </g>
     <g id="line2d_10">
      <defs>
       <path id="m12fbd6e145" d="M 0 0 
L -3.5 0 
" style="stroke: #000000; stroke-width: 0.8"/>
      </defs>
      <g>
       <use xlink:href="#m12fbd6e145" x="0" y="293.76" style="stroke: #000000; stroke-width: 0.8"/>
      </g>
     </g>
    </g>
    <g id="ytick_2">
     <g id="line2d_11">
      <path d="M 0 236.274059 
L 460.8 236.274059 
" clip-path="url(#p9063220e13)" style="fill: none; stroke: #b0b0b0; stroke-width: 0.8; stroke-linecap: square"/>
     </g>
     <g id="line2d_12">
      <g>
       <use xlink:href="#m12fbd6e145" x="0" y="236.274059" style="stroke: #000000; stroke-width: 0.8"/>
      </g>
     </g>
    </g>
    <g id="ytick_3">
     <g id="line2d_13">
      <path d="M 0 178.788119 
L 460.8 178.788119 
" clip-path="url(#p9063220e13)" style="fill: none; stroke: #b0b0b0; stroke-width: 0.8; stroke-linecap: square"/>
     </g>
     <g id="line2d_14">
      <g>
       <use xlink:href="#m12fbd6e145" x="0" y="178.788119" style="stroke: #000000; stroke-width: 0.8"/>
      </g>
     </g>
    </g>
    <g id="ytick_4">
     <g id="line2d_15">
      <path d="M 0 121.302178 
L 460.8 121.302178 
" clip-path="url(#p9063220e13)" style="fill: none; stroke: #b0b0b0; stroke-width: 0.8; stroke-linecap: square"/>
     </g>
     <g id="line2d_16">
      <g>
       <use xlink:href="#m12fbd6e145" x="0" y="121.302178" style="stroke: #000000; stroke-width: 0.8"/>
      </g>
     </g>
    </g>
    <g id="ytick_5">
     <g id="line2d_17">
      <path d="M 0 63.816238 
L 460.8 63.816238 
" clip-path="url(#p9063220e13)" style="fill: none; stroke: #b0b0b0; stroke-width: 0.8; stroke-linecap: square"/>
     </g>
     <g id="line2d_18">
      <g>
       <use xlink:href="#m12fbd6e145" x="0" y="63.816238" style="stroke: #000000; stroke-width: 0.8"/>
      </g>
     </g>
    </g>
    <g id="ytick_6">
     <g id="line2d_19">
      <path d="M 0 6.330297 
L 460.8 6.330297 
" clip-path="url(#p9063220e13)" style="fill: none; stroke: #b0b0b0; stroke-width: 0.8; stroke-linecap: square"/>
     </g>
     <g id="line2d_20">
      <g>
       <use xlink:href="#m12fbd6e145" x="0" y="6.330297" style="stroke: #000000; stroke-width: 0.8"/>
      </g>
     </g>
    </g>
   </g>
   <g id="line2d_21">
    <path d="M 265.268 293.76 
L 265.268 288.969505 
L 265.339401 288.969505 
L 265.339401 284.17901 
L 265.345495 284.17901 
L 265.345495 279.388515 
L 265.351181 279.388515 
L 265.351181 274.59802 
L 265.355147 274.59802 
L 265.355147 269.807525 
L 265.370366 269.807525 
L 265.370366 265.01703 
L 265.370924 265.01703 
L 265.370924 260.226535 
L 265.371004 260.226535 
L 265.371004 255.43604 
L 265.376587 255.43604 
L 265.376587 250.645545 
L 265.378836 250.645545 
L 265.378836 245.85505 
L 265.394538 245.85505 
L 265.394538 241.064554 
L 265.416662 241.064554 
L 265.416662 236.274059 
L 265.422062 236.274059 
L 265.422062 231.483564 
L 265.476772 231.483564 
L 265.476772 226.693069 
L 265.488518 226.693069 
L 265.488518 221.902574 
L 271.904002 221.902574 
L 271.904002 217.112079 
L 274.325329 217.112079 
L 274.325329 212.321584 
L 274.673144 212.321584 
L 274.673144 207.531089 
L 277.699305 207.531089 
L 277.699305 202.740594 
L 280.057178 202.740594 
L 280.057178 197.950099 
L 280.064769 197.950099 
L 280.064769 193.159604 
L 280.611855 193.159604 
L 280.611855 188.369109 
L 280.815837 188.369109 
L 280.815837 183.578614 
L 281.111938 183.578614 
L 281.111938 178.788119 
L 281.918383 178.788119 
L 281.918383 173.997624 
L 282.350361 173.997624 
L 282.350361 169.207129 
L 283.753872 169.207129 
L 283.753872 164.416634 
L 283.768881 164.416634 
L 283.768881 159.626139 
L 286.310421 159.626139 
L 286.310421 154.835644 
L 291.037556 154.835644 
L 291.037556 150.045149 
L 304.556725 150.045149 
L 304.556725 145.254653 
L 306.594908 145.254653 
L 306.594908 140.464158 
L 313.340856 140.464158 
L 313.340856 135.673663 
L 314.762232 135.673663 
L 314.762232 130.883168 
L 315.04737 130.883168 
L 315.04737 126.092673 
L 315.055424 126.092673 
L 315.055424 121.302178 
L 315.252654 121.302178 
L 315.252654 116.511683 
L 315.841773 116.511683 
L 315.841773 111.721188 
L 316.954784 111.721188 
L 316.954784 106.930693 
L 317.279336 106.930693 
L 317.279336 102.140198 
L 317.911361 102.140198 
L 317.911361 97.349703 
L 318.465713 97.349703 
L 318.465713 92.559208 
L 318.479734 92.559208 
L 318.479734 87.768713 
L 318.785206 87.768713 
L 318.785206 82.978218 
L 319.508375 82.978218 
L 319.508375 78.187723 
L 320.215328 78.187723 
L 320.215328 73.397228 
L 322.770454 73.397228 
L 322.770454 68.606733 
L 324.907585 68.606733 
L 324.907585 63.816238 
L 328.803901 63.816238 
L 328.803901 59.025743 
L 330.548266 59.025743 
L 330.548266 54.235248 
L 331.1173 54.235248 
L 331.1173 49.444752 
L 336.076659 49.444752 
L 336.076659 44.654257 
L 336.188369 44.654257 
L 336.188369 39.863762 
L 336.660616 39.863762 
L 336.660616 35.073267 
L 336.74699 35.073267 
L 336.74699 30.282772 
L 337.203916 30.282772 
L 337.203916 25.492277 
L 337.803759 25.492277 
L 337.803759 20.701782 
L 344.644679 20.701782 
L 344.644679 15.911287 
L 345.419188 15.911287 
L 345.419188 11.120792 
L 353.692941 11.120792 
L 353.692941 6.330297 
L 353.692941 6.330297 
L 353.692941 6.330297 
L 460.8 6.330297 
" clip-path="url(#p9063220e13)" style="fill: none; stroke: #ff0000; stroke-width: 3; stroke-linecap: square"/>
   </g>
   <g id="line2d_22">
    <path d="M 265.495092 293.76 
L 265.495092 288.969505 
L 265.495092 288.969505 
L 265.495092 284.17901 
L 265.495092 284.17901 
L 265.495092 279.388515 
L 265.495092 279.388515 
L 265.495092 274.59802 
L 265.495092 274.59802 
L 265.495092 269.807525 
L 265.495092 269.807525 
L 265.495092 265.01703 
L 265.495092 265.01703 
L 265.495092 260.226535 
L 265.495092 260.226535 
L 265.495092 255.43604 
L 265.495092 255.43604 
L 265.495092 250.645545 
L 265.495092 250.645545 
L 265.495092 245.85505 
L 265.495092 245.85505 
L 265.495092 241.064554 
L 265.495092 241.064554 
L 265.495092 236.274059 
L 265.495092 236.274059 
L 265.495092 231.483564 
L 265.495092 231.483564 
L 265.495092 226.693069 
L 265.495092 226.693069 
L 265.495092 221.902574 
L 285.203355 221.902574 
L 285.203355 217.112079 
L 285.333369 217.112079 
L 285.333369 212.321584 
L 285.579208 212.321584 
L 285.579208 207.531089 
L 287.051463 207.531089 
L 287.051463 202.740594 
L 287.434494 202.740594 
L 287.434494 197.950099 
L 288.739579 197.950099 
L 288.739579 193.159604 
L 289.564201 193.159604 
L 289.564201 188.369109 
L 291.131017 188.369109 
L 291.131017 183.578614 
L 291.565174 183.578614 
L 291.565174 178.788119 
L 292.461967 178.788119 
L 292.461967 173.997624 
L 294.687337 173.997624 
L 294.687337 169.207129 
L 294.823916 169.207129 
L 294.823916 164.416634 
L 298.332417 164.416634 
L 298.332417 159.626139 
L 298.627176 159.626139 
L 298.627176 154.835644 
L 299.832094 154.835644 
L 299.832094 150.045149 
L 323.003524 150.045149 
L 323.003524 145.254653 
L 326.668616 145.254653 
L 326.668616 140.464158 
L 330.244438 140.464158 
L 330.244438 135.673663 
L 334.235096 135.673663 
L 334.235096 130.883168 
L 335.480059 130.883168 
L 335.480059 126.092673 
L 335.760377 126.092673 
L 335.760377 121.302178 
L 336.139176 121.302178 
L 336.139176 116.511683 
L 336.151275 116.511683 
L 336.151275 111.721188 
L 337.56375 111.721188 
L 337.56375 106.930693 
L 337.579004 106.930693 
L 337.579004 102.140198 
L 338.197421 102.140198 
L 338.197421 97.349703 
L 338.836872 97.349703 
L 338.836872 92.559208 
L 338.96283 92.559208 
L 338.96283 87.768713 
L 339.735699 87.768713 
L 339.735699 82.978218 
L 340.119571 82.978218 
L 340.119571 78.187723 
L 343.953922 78.187723 
L 343.953922 73.397228 
L 348.556293 73.397228 
L 348.556293 68.606733 
L 351.42691 68.606733 
L 351.42691 63.816238 
L 351.870242 63.816238 
L 351.870242 59.025743 
L 354.608675 59.025743 
L 354.608675 54.235248 
L 355.21275 54.235248 
L 355.21275 49.444752 
L 355.213724 49.444752 
L 355.213724 44.654257 
L 355.235596 44.654257 
L 355.235596 39.863762 
L 355.409237 39.863762 
L 355.409237 35.073267 
L 356.613857 35.073267 
L 356.613857 30.282772 
L 360.602078 30.282772 
L 360.602078 25.492277 
L 362.07872 25.492277 
L 362.07872 20.701782 
L 362.27095 20.701782 
L 362.27095 15.911287 
L 364.287179 15.911287 
L 364.287179 11.120792 
L 367.145214 11.120792 
L 367.145214 6.330297 
L 367.145214 6.330297 
L 367.145214 6.330297 
L 460.8 6.330297 
" clip-path="url(#p9063220e13)" style="fill: none; stroke: #00bfbf; stroke-width: 1.5; stroke-linecap: square"/>
   </g>
   <g id="line2d_23">
    <path d="M 265.495092 293.76 
L 265.495092 288.969505 
L 265.495092 288.969505 
L 265.495092 284.17901 
L 265.495092 284.17901 
L 265.495092 279.388515 
L 265.495092 279.388515 
L 265.495092 274.59802 
L 265.495092 274.59802 
L 265.495092 269.807525 
L 265.495092 269.807525 
L 265.495092 265.01703 
L 265.495092 265.01703 
L 265.495092 260.226535 
L 265.495092 260.226535 
L 265.495092 255.43604 
L 265.495092 255.43604 
L 265.495092 250.645545 
L 265.495092 250.645545 
L 265.495092 245.85505 
L 265.495092 245.85505 
L 265.495092 241.064554 
L 265.495092 241.064554 
L 265.495092 236.274059 
L 265.495092 236.274059 
L 265.495092 231.483564 
L 265.495092 231.483564 
L 265.495092 226.693069 
L 265.495092 226.693069 
L 265.495092 221.902574 
L 284.889929 221.902574 
L 284.889929 217.112079 
L 285.203355 217.112079 
L 285.203355 212.321584 
L 285.579208 212.321584 
L 285.579208 207.531089 
L 286.655489 207.531089 
L 286.655489 202.740594 
L 286.856093 202.740594 
L 286.856093 197.950099 
L 288.670118 197.950099 
L 288.670118 193.159604 
L 288.739579 193.159604 
L 288.739579 188.369109 
L 291.131017 188.369109 
L 291.131017 183.578614 
L 291.565174 183.578614 
L 291.565174 178.788119 
L 292.322427 178.788119 
L 292.322427 173.997624 
L 294.491416 173.997624 
L 294.491416 169.207129 
L 294.528613 169.207129 
L 294.528613 164.416634 
L 297.628354 164.416634 
L 297.628354 159.626139 
L 297.887923 159.626139 
L 297.887923 154.835644 
L 299.327279 154.835644 
L 299.327279 150.045149 
L 323.003524 150.045149 
L 323.003524 145.254653 
L 326.357142 145.254653 
L 326.357142 140.464158 
L 330.244438 140.464158 
L 330.244438 135.673663 
L 334.174744 135.673663 
L 334.174744 130.883168 
L 335.184791 130.883168 
L 335.184791 126.092673 
L 335.307699 126.092673 
L 335.307699 121.302178 
L 336.113865 121.302178 
L 336.113865 116.511683 
L 336.139176 116.511683 
L 336.139176 111.721188 
L 337.428424 111.721188 
L 337.428424 106.930693 
L 337.56375 106.930693 
L 337.56375 102.140198 
L 338.197421 102.140198 
L 338.197421 97.349703 
L 338.800536 97.349703 
L 338.800536 92.559208 
L 338.873971 92.559208 
L 338.873971 87.768713 
L 339.677361 87.768713 
L 339.677361 82.978218 
L 339.971632 82.978218 
L 339.971632 78.187723 
L 343.674509 78.187723 
L 343.674509 73.397228 
L 348.556293 73.397228 
L 348.556293 68.606733 
L 351.334105 68.606733 
L 351.334105 63.816238 
L 351.42691 63.816238 
L 351.42691 59.025743 
L 354.246521 59.025743 
L 354.246521 54.235248 
L 354.605764 54.235248 
L 354.605764 49.444752 
L 354.608675 49.444752 
L 354.608675 44.654257 
L 355.213724 44.654257 
L 355.213724 39.863762 
L 355.409237 39.863762 
L 355.409237 35.073267 
L 356.005027 35.073267 
L 356.005027 30.282772 
L 358.495358 30.282772 
L 358.495358 25.492277 
L 362.07872 25.492277 
L 362.07872 20.701782 
L 362.27095 20.701782 
L 362.27095 15.911287 
L 363.89088 15.911287 
L 363.89088 11.120792 
L 367.145214 11.120792 
L 367.145214 6.330297 
L 367.145214 6.330297 
L 367.145214 6.330297 
L 460.8 6.330297 
" clip-path="url(#p9063220e13)" style="fill: none; stroke: #bf00bf; stroke-width: 1.5; stroke-linecap: square"/>
   </g>
   <g id="patch_3">
    <path d="M 0 293.76 
L 0 3.456 
" style="fill: none; stroke: #000000; stroke-width: 0.8; stroke-linejoin: miter; stroke-linecap: square"/>
   </g>
   <g id="patch_4">
    <path d="M 460.8 293.76 
L 460.8 3.456 
" style="fill: none; stroke: #000000; stroke-width: 0.8; stroke-linejoin: miter; stroke-linecap: square"/>
   </g>
   <g id="patch_5">
    <path d="M 0 293.76 
L 460.8 293.76 
" style="fill: none; stroke: #000000; stroke-width: 0.8; stroke-linejoin: miter; stroke-linecap: square"/>
   </g>
   <g id="patch_6">
    <path d="M 0 3.456 
L 460.8 3.456 
" style="fill: none; stroke: #000000; stroke-width: 0.8; stroke-linejoin: miter; stroke-linecap: square"/>
   </g>
   <g id="text_6">
    <!-- {f6-f9}, 20-D -->
    <g transform="translate(318.609 287.95392) scale(0.2 -0.2)">
     <defs>
      <path id="DejaVuSans-7b" d="M 3272 -594 
L 3272 -1044 
L 3078 -1044 
Q 2300 -1044 2036 -812 
Q 1772 -581 1772 109 
L 1772 856 
Q 1772 1328 1603 1509 
Q 1434 1691 991 1691 
L 800 1691 
L 800 2138 
L 991 2138 
Q 1438 2138 1605 2317 
Q 1772 2497 1772 2963 
L 1772 3713 
Q 1772 4403 2036 4633 
Q 2300 4863 3078 4863 
L 3272 4863 
L 3272 4416 
L 3059 4416 
Q 2619 4416 2484 4278 
Q 2350 4141 2350 3700 
L 2350 2925 
Q 2350 2434 2208 2212 
Q 2066 1991 1722 1913 
Q 2069 1828 2209 1606 
Q 2350 1384 2350 897 
L 2350 122 
Q 2350 -319 2484 -456 
Q 2619 -594 3059 -594 
L 3272 -594 
z
" transform="scale(0.015625)"/>
      <path id="DejaVuSans-36" d="M 2113 2584 
Q 1688 2584 1439 2293 
Q 1191 2003 1191 1497 
Q 1191 994 1439 701 
Q 1688 409 2113 409 
Q 2538 409 2786 701 
Q 3034 994 3034 1497 
Q 3034 2003 2786 2293 
Q 2538 2584 2113 2584 
z
M 3366 4563 
L 3366 3988 
Q 3128 4100 2886 4159 
Q 2644 4219 2406 4219 
Q 1781 4219 1451 3797 
Q 1122 3375 1075 2522 
Q 1259 2794 1537 2939 
Q 1816 3084 2150 3084 
Q 2853 3084 3261 2657 
Q 3669 2231 3669 1497 
Q 3669 778 3244 343 
Q 2819 -91 2113 -91 
Q 1303 -91 875 529 
Q 447 1150 447 2328 
Q 447 3434 972 4092 
Q 1497 4750 2381 4750 
Q 2619 4750 2861 4703 
Q 3103 4656 3366 4563 
z
" transform="scale(0.015625)"/>
      <path id="DejaVuSans-39" d="M 703 97 
L 703 672 
Q 941 559 1184 500 
Q 1428 441 1663 441 
Q 2288 441 2617 861 
Q 2947 1281 2994 2138 
Q 2813 1869 2534 1725 
Q 2256 1581 1919 1581 
Q 1219 1581 811 2004 
Q 403 2428 403 3163 
Q 403 3881 828 4315 
Q 1253 4750 1959 4750 
Q 2769 4750 3195 4129 
Q 3622 3509 3622 2328 
Q 3622 1225 3098 567 
Q 2575 -91 1691 -91 
Q 1453 -91 1209 -44 
Q 966 3 703 97 
z
M 1959 2075 
Q 2384 2075 2632 2365 
Q 2881 2656 2881 3163 
Q 2881 3666 2632 3958 
Q 2384 4250 1959 4250 
Q 1534 4250 1286 3958 
Q 1038 3666 1038 3163 
Q 1038 2656 1286 2365 
Q 1534 2075 1959 2075 
z
" transform="scale(0.015625)"/>
      <path id="DejaVuSans-7d" d="M 800 -594 
L 1019 -594 
Q 1456 -594 1589 -459 
Q 1722 -325 1722 122 
L 1722 897 
Q 1722 1384 1862 1606 
Q 2003 1828 2350 1913 
Q 2003 1991 1862 2212 
Q 1722 2434 1722 2925 
L 1722 3700 
Q 1722 4144 1589 4280 
Q 1456 4416 1019 4416 
L 800 4416 
L 800 4863 
L 997 4863 
Q 1775 4863 2036 4633 
Q 2297 4403 2297 3713 
L 2297 2963 
Q 2297 2497 2465 2317 
Q 2634 2138 3078 2138 
L 3272 2138 
L 3272 1691 
L 3078 1691 
Q 2634 1691 2465 1509 
Q 2297 1328 2297 856 
L 2297 109 
Q 2297 -581 2036 -812 
Q 1775 -1044 997 -1044 
L 800 -1044 
L 800 -594 
z
" transform="scale(0.015625)"/>
      <path id="DejaVuSans-2c" d="M 750 794 
L 1409 794 
L 1409 256 
L 897 -744 
L 494 -744 
L 750 256 
L 750 794 
z
" transform="scale(0.015625)"/>
      <path id="DejaVuSans-32" d="M 1228 531 
L 3431 531 
L 3431 0 
L 469 0 
L 469 531 
Q 828 903 1448 1529 
Q 2069 2156 2228 2338 
Q 2531 2678 2651 2914 
Q 2772 3150 2772 3378 
Q 2772 3750 2511 3984 
Q 2250 4219 1831 4219 
Q 1534 4219 1204 4116 
Q 875 4013 500 3803 
L 500 4441 
Q 881 4594 1212 4672 
Q 1544 4750 1819 4750 
Q 2544 4750 2975 4387 
Q 3406 4025 3406 3419 
Q 3406 3131 3298 2873 
Q 3191 2616 2906 2266 
Q 2828 2175 2409 1742 
Q 1991 1309 1228 531 
z
" transform="scale(0.015625)"/>
     </defs>
     <use xlink:href="#DejaVuSans-7b"/>
     <use xlink:href="#DejaVuSans-66" x="63.623047"/>
     <use xlink:href="#DejaVuSans-36" x="98.828125"/>
     <use xlink:href="#DejaVuSans-2d" x="162.451172"/>
     <use xlink:href="#DejaVuSans-66" x="198.535156"/>
     <use xlink:href="#DejaVuSans-39" x="233.740234"/>
     <use xlink:href="#DejaVuSans-7d" x="297.363281"/>
     <use xlink:href="#DejaVuSans-2c" x="360.986328"/>
     <use xlink:href="#DejaVuSans-20" x="392.773438"/>
     <use xlink:href="#DejaVuSans-32" x="424.560547"/>
     <use xlink:href="#DejaVuSans-30" x="488.183594"/>
     <use xlink:href="#DejaVuSans-2d" x="551.806641"/>
     <use xlink:href="#DejaVuSans-44" x="587.890625"/>
    </g>
   </g>
   <g id="text_7">
    <!-- v2.6.3 -->
    <g style="fill: #808080" transform="translate(214.71875 288.777272) scale(0.1 -0.1)">
     <defs>
      <path id="DejaVuSans-76" d="M 191 3500 
L 800 3500 
L 1894 563 
L 2988 3500 
L 3597 3500 
L 2284 0 
L 1503 0 
L 191 3500 
z
" transform="scale(0.015625)"/>
      <path id="DejaVuSans-2e" d="M 684 794 
L 1344 794 
L 1344 0 
L 684 0 
L 684 794 
z
" transform="scale(0.015625)"/>
      <path id="DejaVuSans-33" d="M 2597 2516 
Q 3050 2419 3304 2112 
Q 3559 1806 3559 1356 
Q 3559 666 3084 287 
Q 2609 -91 1734 -91 
Q 1441 -91 1130 -33 
Q 819 25 488 141 
L 488 750 
Q 750 597 1062 519 
Q 1375 441 1716 441 
Q 2309 441 2620 675 
Q 2931 909 2931 1356 
Q 2931 1769 2642 2001 
Q 2353 2234 1838 2234 
L 1294 2234 
L 1294 2753 
L 1863 2753 
Q 2328 2753 2575 2939 
Q 2822 3125 2822 3475 
Q 2822 3834 2567 4026 
Q 2313 4219 1838 4219 
Q 1578 4219 1281 4162 
Q 984 4106 628 3988 
L 628 4550 
Q 988 4650 1302 4700 
Q 1616 4750 1894 4750 
Q 2613 4750 3031 4423 
Q 3450 4097 3450 3541 
Q 3450 3153 3228 2886 
Q 3006 2619 2597 2516 
z
" transform="scale(0.015625)"/>
     </defs>
     <use xlink:href="#DejaVuSans-76"/>
     <use xlink:href="#DejaVuSans-32" x="59.179688"/>
     <use xlink:href="#DejaVuSans-2e" x="122.802734"/>
     <use xlink:href="#DejaVuSans-36" x="154.589844"/>
     <use xlink:href="#DejaVuSans-2e" x="218.212891"/>
     <use xlink:href="#DejaVuSans-33" x="250"/>
    </g>
   </g>
  </g>
 </g>
 <defs>
  <clipPath id="p9063220e13">
   <rect x="0" y="3.456" width="460.8" height="290.304"/>
  </clipPath>
 </defs>
</svg>
