<?xml version="1.0" encoding="utf-8" standalone="no"?>
<!DOCTYPE svg PUBLIC "-//W3C//DTD SVG 1.1//EN"
  "http://www.w3.org/Graphics/SVG/1.1/DTD/svg11.dtd">
<svg xmlns:xlink="http://www.w3.org/1999/xlink" width="460.8pt" height="345.6pt" viewBox="0 0 460.8 345.6" xmlns="http://www.w3.org/2000/svg" version="1.1">
 <metadata>
  <rdf:RDF xmlns:dc="http://purl.org/dc/elements/1.1/" xmlns:cc="http://creativecommons.org/ns#" xmlns:rdf="http://www.w3.org/1999/02/22-rdf-syntax-ns#">
   <cc:Work>
    <dc:type rdf:resource="http://purl.org/dc/dcmitype/StillImage"/>
    <dc:date>2024-01-26T00:13:34.552053</dc:date>
    <dc:format>image/svg+xml</dc:format>
    <dc:creator>
     <cc:Agent>
      <dc:title>Matplotlib v3.8.2, https://matplotlib.org/</dc:title>
     </cc:Agent>
    </dc:creator>
   </cc:Work>
  </rdf:RDF>
 </metadata>
 <defs>
  <style type="text/css">*{stroke-linejoin: round; stroke-linecap: butt}</style>
 </defs>
 <g id="figure_1">
  <g id="patch_1">
   <path d="M 0 345.6 
L 460.8 345.6 
L 460.8 0 
L 0 0 
z
" style="fill: #ffffff"/>
  </g>
  <g id="axes_1">
   <g id="patch_2">
    <path d="M 0 293.76 
L 460.8 293.76 
L 460.8 3.456 
L 0 3.456 
z
" style="fill: #ffffff"/>
   </g>
   <g id="matplotlib.axis_1">
    <g id="xtick_1">
     <g id="line2d_1">
      <path d="M 105.164739 293.76 
L 105.164739 3.456 
" clip-path="url(#pc0dc656b07)" style="fill: none; stroke: #b0b0b0; stroke-width: 0.8; stroke-linecap: square"/>
     </g>
     <g id="line2d_2">
      <defs>
       <path id="m2f49f9b201" d="M 0 0 
L 0 3.5 
" style="stroke: #000000; stroke-width: 0.8"/>
      </defs>
      <g>
       <use xlink:href="#m2f49f9b201" x="105.164739" y="293.76" style="stroke: #000000; stroke-width: 0.8"/>
      </g>
     </g>
     <g id="text_1">
      <!-- -4 -->
      <g transform="translate(95.194426 315.956875) scale(0.2 -0.2)">
       <defs>
        <path id="DejaVuSans-2d" d="M 313 2009 
L 1997 2009 
L 1997 1497 
L 313 1497 
L 313 2009 
z
" transform="scale(0.015625)"/>
        <path id="DejaVuSans-34" d="M 2419 4116 
L 825 1625 
L 2419 1625 
L 2419 4116 
z
M 2253 4666 
L 3047 4666 
L 3047 1625 
L 3713 1625 
L 3713 1100 
L 3047 1100 
L 3047 0 
L 2419 0 
L 2419 1100 
L 313 1100 
L 313 1709 
L 2253 4666 
z
" transform="scale(0.015625)"/>
       </defs>
       <use xlink:href="#DejaVuSans-2d"/>
       <use xlink:href="#DejaVuSans-34" x="36.083984"/>
      </g>
     </g>
    </g>
    <g id="xtick_2">
     <g id="line2d_3">
      <path d="M 210.443215 293.76 
L 210.443215 3.456 
" clip-path="url(#pc0dc656b07)" style="fill: none; stroke: #b0b0b0; stroke-width: 0.8; stroke-linecap: square"/>
     </g>
     <g id="line2d_4">
      <g>
       <use xlink:href="#m2f49f9b201" x="210.443215" y="293.76" style="stroke: #000000; stroke-width: 0.8"/>
      </g>
     </g>
     <g id="text_2">
      <!-- 0 -->
      <g transform="translate(204.080715 315.956875) scale(0.2 -0.2)">
       <defs>
        <path id="DejaVuSans-30" d="M 2034 4250 
Q 1547 4250 1301 3770 
Q 1056 3291 1056 2328 
Q 1056 1369 1301 889 
Q 1547 409 2034 409 
Q 2525 409 2770 889 
Q 3016 1369 3016 2328 
Q 3016 3291 2770 3770 
Q 2525 4250 2034 4250 
z
M 2034 4750 
Q 2819 4750 3233 4129 
Q 3647 3509 3647 2328 
Q 3647 1150 3233 529 
Q 2819 -91 2034 -91 
Q 1250 -91 836 529 
Q 422 1150 422 2328 
Q 422 3509 836 4129 
Q 1250 4750 2034 4750 
z
" transform="scale(0.015625)"/>
       </defs>
       <use xlink:href="#DejaVuSans-30"/>
      </g>
     </g>
    </g>
    <g id="xtick_3">
     <g id="line2d_5">
      <path d="M 315.72169 293.76 
L 315.72169 3.456 
" clip-path="url(#pc0dc656b07)" style="fill: none; stroke: #b0b0b0; stroke-width: 0.8; stroke-linecap: square"/>
     </g>
     <g id="line2d_6">
      <g>
       <use xlink:href="#m2f49f9b201" x="315.72169" y="293.76" style="stroke: #000000; stroke-width: 0.8"/>
      </g>
     </g>
     <g id="text_3">
      <!-- 4 -->
      <g transform="translate(309.35919 315.956875) scale(0.2 -0.2)">
       <use xlink:href="#DejaVuSans-34"/>
      </g>
     </g>
    </g>
    <g id="xtick_4">
     <g id="line2d_7">
      <path d="M 421.000166 293.76 
L 421.000166 3.456 
" clip-path="url(#pc0dc656b07)" style="fill: none; stroke: #b0b0b0; stroke-width: 0.8; stroke-linecap: square"/>
     </g>
     <g id="line2d_8">
      <g>
       <use xlink:href="#m2f49f9b201" x="421.000166" y="293.76" style="stroke: #000000; stroke-width: 0.8"/>
      </g>
     </g>
     <g id="text_4">
      <!-- 8 -->
      <g transform="translate(414.637666 315.956875) scale(0.2 -0.2)">
       <defs>
        <path id="DejaVuSans-38" d="M 2034 2216 
Q 1584 2216 1326 1975 
Q 1069 1734 1069 1313 
Q 1069 891 1326 650 
Q 1584 409 2034 409 
Q 2484 409 2743 651 
Q 3003 894 3003 1313 
Q 3003 1734 2745 1975 
Q 2488 2216 2034 2216 
z
M 1403 2484 
Q 997 2584 770 2862 
Q 544 3141 544 3541 
Q 544 4100 942 4425 
Q 1341 4750 2034 4750 
Q 2731 4750 3128 4425 
Q 3525 4100 3525 3541 
Q 3525 3141 3298 2862 
Q 3072 2584 2669 2484 
Q 3125 2378 3379 2068 
Q 3634 1759 3634 1313 
Q 3634 634 3220 271 
Q 2806 -91 2034 -91 
Q 1263 -91 848 271 
Q 434 634 434 1313 
Q 434 1759 690 2068 
Q 947 2378 1403 2484 
z
M 1172 3481 
Q 1172 3119 1398 2916 
Q 1625 2713 2034 2713 
Q 2441 2713 2670 2916 
Q 2900 3119 2900 3481 
Q 2900 3844 2670 4047 
Q 2441 4250 2034 4250 
Q 1625 4250 1398 4047 
Q 1172 3844 1172 3481 
z
" transform="scale(0.015625)"/>
       </defs>
       <use xlink:href="#DejaVuSans-38"/>
      </g>
     </g>
    </g>
    <g id="text_5">
     <!-- log10 of Df -->
     <g transform="translate(175.214063 339.313125) scale(0.2 -0.2)">
      <defs>
       <path id="DejaVuSans-6c" d="M 603 4863 
L 1178 4863 
L 1178 0 
L 603 0 
L 603 4863 
z
" transform="scale(0.015625)"/>
       <path id="DejaVuSans-6f" d="M 1959 3097 
Q 1497 3097 1228 2736 
Q 959 2375 959 1747 
Q 959 1119 1226 758 
Q 1494 397 1959 397 
Q 2419 397 2687 759 
Q 2956 1122 2956 1747 
Q 2956 2369 2687 2733 
Q 2419 3097 1959 3097 
z
M 1959 3584 
Q 2709 3584 3137 3096 
Q 3566 2609 3566 1747 
Q 3566 888 3137 398 
Q 2709 -91 1959 -91 
Q 1206 -91 779 398 
Q 353 888 353 1747 
Q 353 2609 779 3096 
Q 1206 3584 1959 3584 
z
" transform="scale(0.015625)"/>
       <path id="DejaVuSans-67" d="M 2906 1791 
Q 2906 2416 2648 2759 
Q 2391 3103 1925 3103 
Q 1463 3103 1205 2759 
Q 947 2416 947 1791 
Q 947 1169 1205 825 
Q 1463 481 1925 481 
Q 2391 481 2648 825 
Q 2906 1169 2906 1791 
z
M 3481 434 
Q 3481 -459 3084 -895 
Q 2688 -1331 1869 -1331 
Q 1566 -1331 1297 -1286 
Q 1028 -1241 775 -1147 
L 775 -588 
Q 1028 -725 1275 -790 
Q 1522 -856 1778 -856 
Q 2344 -856 2625 -561 
Q 2906 -266 2906 331 
L 2906 616 
Q 2728 306 2450 153 
Q 2172 0 1784 0 
Q 1141 0 747 490 
Q 353 981 353 1791 
Q 353 2603 747 3093 
Q 1141 3584 1784 3584 
Q 2172 3584 2450 3431 
Q 2728 3278 2906 2969 
L 2906 3500 
L 3481 3500 
L 3481 434 
z
" transform="scale(0.015625)"/>
       <path id="DejaVuSans-31" d="M 794 531 
L 1825 531 
L 1825 4091 
L 703 3866 
L 703 4441 
L 1819 4666 
L 2450 4666 
L 2450 531 
L 3481 531 
L 3481 0 
L 794 0 
L 794 531 
z
" transform="scale(0.015625)"/>
       <path id="DejaVuSans-20" transform="scale(0.015625)"/>
       <path id="DejaVuSans-66" d="M 2375 4863 
L 2375 4384 
L 1825 4384 
Q 1516 4384 1395 4259 
Q 1275 4134 1275 3809 
L 1275 3500 
L 2222 3500 
L 2222 3053 
L 1275 3053 
L 1275 0 
L 697 0 
L 697 3053 
L 147 3053 
L 147 3500 
L 697 3500 
L 697 3744 
Q 697 4328 969 4595 
Q 1241 4863 1831 4863 
L 2375 4863 
z
" transform="scale(0.015625)"/>
       <path id="DejaVuSans-44" d="M 1259 4147 
L 1259 519 
L 2022 519 
Q 2988 519 3436 956 
Q 3884 1394 3884 2338 
Q 3884 3275 3436 3711 
Q 2988 4147 2022 4147 
L 1259 4147 
z
M 628 4666 
L 1925 4666 
Q 3281 4666 3915 4102 
Q 4550 3538 4550 2338 
Q 4550 1131 3912 565 
Q 3275 0 1925 0 
L 628 0 
L 628 4666 
z
" transform="scale(0.015625)"/>
      </defs>
      <use xlink:href="#DejaVuSans-6c"/>
      <use xlink:href="#DejaVuSans-6f" x="27.783203"/>
      <use xlink:href="#DejaVuSans-67" x="88.964844"/>
      <use xlink:href="#DejaVuSans-31" x="152.441406"/>
      <use xlink:href="#DejaVuSans-30" x="216.064453"/>
      <use xlink:href="#DejaVuSans-20" x="279.6875"/>
      <use xlink:href="#DejaVuSans-6f" x="311.474609"/>
      <use xlink:href="#DejaVuSans-66" x="372.65625"/>
      <use xlink:href="#DejaVuSans-20" x="407.861328"/>
      <use xlink:href="#DejaVuSans-44" x="439.648438"/>
      <use xlink:href="#DejaVuSans-66" x="516.650391"/>
     </g>
    </g>
   </g>
   <g id="matplotlib.axis_2">
    <g id="ytick_1">
     <g id="line2d_9">
      <path d="M 0 293.76 
L 460.8 293.76 
" clip-path="url(#pc0dc656b07)" style="fill: none; stroke: #b0b0b0; stroke-width: 0.8; stroke-linecap: square"/>
     </g>
     <g id="line2d_10">
      <defs>
       <path id="me55b145fdb" d="M 0 0 
L -3.5 0 
" style="stroke: #000000; stroke-width: 0.8"/>
      </defs>
      <g>
       <use xlink:href="#me55b145fdb" x="0" y="293.76" style="stroke: #000000; stroke-width: 0.8"/>
      </g>
     </g>
    </g>
    <g id="ytick_2">
     <g id="line2d_11">
      <path d="M 0 236.274059 
L 460.8 236.274059 
" clip-path="url(#pc0dc656b07)" style="fill: none; stroke: #b0b0b0; stroke-width: 0.8; stroke-linecap: square"/>
     </g>
     <g id="line2d_12">
      <g>
       <use xlink:href="#me55b145fdb" x="0" y="236.274059" style="stroke: #000000; stroke-width: 0.8"/>
      </g>
     </g>
    </g>
    <g id="ytick_3">
     <g id="line2d_13">
      <path d="M 0 178.788119 
L 460.8 178.788119 
" clip-path="url(#pc0dc656b07)" style="fill: none; stroke: #b0b0b0; stroke-width: 0.8; stroke-linecap: square"/>
     </g>
     <g id="line2d_14">
      <g>
       <use xlink:href="#me55b145fdb" x="0" y="178.788119" style="stroke: #000000; stroke-width: 0.8"/>
      </g>
     </g>
    </g>
    <g id="ytick_4">
     <g id="line2d_15">
      <path d="M 0 121.302178 
L 460.8 121.302178 
" clip-path="url(#pc0dc656b07)" style="fill: none; stroke: #b0b0b0; stroke-width: 0.8; stroke-linecap: square"/>
     </g>
     <g id="line2d_16">
      <g>
       <use xlink:href="#me55b145fdb" x="0" y="121.302178" style="stroke: #000000; stroke-width: 0.8"/>
      </g>
     </g>
    </g>
    <g id="ytick_5">
     <g id="line2d_17">
      <path d="M 0 63.816238 
L 460.8 63.816238 
" clip-path="url(#pc0dc656b07)" style="fill: none; stroke: #b0b0b0; stroke-width: 0.8; stroke-linecap: square"/>
     </g>
     <g id="line2d_18">
      <g>
       <use xlink:href="#me55b145fdb" x="0" y="63.816238" style="stroke: #000000; stroke-width: 0.8"/>
      </g>
     </g>
    </g>
    <g id="ytick_6">
     <g id="line2d_19">
      <path d="M 0 6.330297 
L 460.8 6.330297 
" clip-path="url(#pc0dc656b07)" style="fill: none; stroke: #b0b0b0; stroke-width: 0.8; stroke-linecap: square"/>
     </g>
     <g id="line2d_20">
      <g>
       <use xlink:href="#me55b145fdb" x="0" y="6.330297" style="stroke: #000000; stroke-width: 0.8"/>
      </g>
     </g>
    </g>
   </g>
   <g id="line2d_21">
    <path d="M -0.113737 293.76 
L -0.113737 287.372673 
L 194.6143 287.372673 
L 194.6143 275.396436 
L 224.760772 275.396436 
L 224.760772 274.59802 
L 225.502745 274.59802 
L 225.502745 273.799604 
L 227.73393 273.799604 
L 227.73393 273.001188 
L 228.888445 273.001188 
L 228.888445 272.202772 
L 229.986642 272.202772 
L 229.986642 271.404356 
L 230.275852 271.404356 
L 230.275852 270.605941 
L 230.453982 270.605941 
L 230.453982 269.807525 
L 231.789631 269.807525 
L 231.789631 269.009109 
L 231.911677 269.009109 
L 231.911677 268.210693 
L 232.128651 268.210693 
L 232.128651 267.412277 
L 232.38376 267.412277 
L 232.38376 266.613861 
L 232.9126 266.613861 
L 232.985001 265.01703 
L 233.052386 265.01703 
L 233.115528 263.420198 
L 233.164445 263.420198 
L 233.256427 261.02495 
L 233.972712 261.02495 
L 234.023026 258.629703 
L 234.290752 258.629703 
L 234.290752 257.831287 
L 234.512553 257.831287 
L 234.512553 257.032871 
L 235.079017 257.032871 
L 235.079017 256.234455 
L 235.321692 256.234455 
L 235.321692 255.43604 
L 235.822161 255.43604 
L 235.822161 254.637624 
L 236.160795 254.637624 
L 236.160795 253.839208 
L 236.981186 253.839208 
L 236.981186 253.040792 
L 237.224503 253.040792 
L 237.224503 252.242376 
L 238.074518 252.242376 
L 238.074518 251.44396 
L 239.284566 251.44396 
L 239.284566 250.645545 
L 239.841125 250.645545 
L 239.841125 249.847129 
L 240.369092 249.847129 
L 240.369092 249.048713 
L 240.585378 249.048713 
L 240.585378 248.250297 
L 240.849101 248.250297 
L 240.849101 247.451881 
L 240.986353 247.451881 
L 240.986353 246.653465 
L 241.298095 246.653465 
L 241.298095 245.85505 
L 242.24524 245.85505 
L 242.24524 245.056634 
L 242.981538 245.056634 
L 242.981538 244.258218 
L 243.374284 244.258218 
L 243.374284 243.459802 
L 243.659659 243.459802 
L 243.659659 242.661386 
L 244.111169 242.661386 
L 244.111169 241.86297 
L 244.774131 241.86297 
L 244.774131 241.064554 
L 245.565529 241.064554 
L 245.565529 240.266139 
L 245.740913 240.266139 
L 245.740913 239.467723 
L 246.048443 239.467723 
L 246.102884 237.870891 
L 247.15909 237.870891 
L 247.15909 237.072475 
L 247.418626 237.072475 
L 247.503607 234.677228 
L 247.67489 234.677228 
L 247.67489 233.878812 
L 248.031369 233.878812 
L 248.031369 233.080396 
L 248.167357 233.080396 
L 248.264214 231.483564 
L 248.361444 231.483564 
L 248.361444 230.685149 
L 248.502467 230.685149 
L 248.606505 229.088317 
L 248.837668 229.088317 
L 248.837668 228.289901 
L 249.252324 228.289901 
L 249.252324 227.491485 
L 249.419685 227.491485 
L 249.419685 226.693069 
L 249.531258 226.693069 
L 249.531258 225.894653 
L 249.797592 225.894653 
L 249.797592 225.096238 
L 250.019168 225.096238 
L 250.038678 223.499406 
L 250.133817 223.499406 
L 250.133817 222.70099 
L 250.613267 222.70099 
L 250.682752 221.104158 
L 250.774802 221.104158 
L 250.774802 220.305743 
L 250.966587 220.305743 
L 250.966587 219.507327 
L 251.309524 219.507327 
L 251.309524 218.708911 
L 251.484683 218.708911 
L 251.484683 217.910495 
L 251.709982 217.910495 
L 251.753001 216.313663 
L 251.855867 216.313663 
L 251.855867 215.515248 
L 251.972532 215.515248 
L 252.056322 213.918416 
L 252.444207 213.918416 
L 252.533488 212.321584 
L 252.600381 212.321584 
L 252.600381 211.523168 
L 252.754838 211.523168 
L 252.797016 209.926337 
L 252.958737 209.926337 
L 252.958737 209.127921 
L 253.230786 209.127921 
L 253.243885 207.531089 
L 253.450569 207.531089 
L 253.450569 206.732673 
L 253.781677 206.732673 
L 253.781677 205.934257 
L 253.921288 205.934257 
L 253.958523 204.337426 
L 254.104335 204.337426 
L 254.104335 203.53901 
L 254.686013 203.53901 
L 254.686013 202.740594 
L 255.100393 202.740594 
L 255.100393 201.942178 
L 255.393269 201.942178 
L 255.393269 201.143762 
L 255.888388 201.143762 
L 255.965944 199.546931 
L 256.275114 199.546931 
L 256.356799 197.151683 
L 256.432698 197.151683 
L 256.432698 196.353267 
L 256.806539 196.353267 
L 256.806539 195.554851 
L 257.403956 195.554851 
L 257.483027 193.159604 
L 257.676818 193.159604 
L 257.739387 190.764356 
L 258.228544 190.764356 
L 258.228544 189.965941 
L 259.760896 189.965941 
L 259.781052 188.369109 
L 259.916401 188.369109 
L 259.924035 186.772277 
L 260.262848 186.772277 
L 260.271695 185.175446 
L 260.460493 185.175446 
L 260.544936 183.578614 
L 260.604784 183.578614 
L 260.604784 182.780198 
L 260.779153 182.780198 
L 260.808952 181.183366 
L 260.966506 181.183366 
L 260.966506 180.38495 
L 261.103112 180.38495 
L 261.103112 179.586535 
L 261.344446 179.586535 
L 261.344446 178.788119 
L 262.629094 178.788119 
L 262.629094 177.989703 
L 262.961714 177.989703 
L 262.961714 177.191287 
L 263.392683 177.191287 
L 263.392683 176.392871 
L 263.53406 176.392871 
L 263.53406 175.594455 
L 264.777322 175.594455 
L 264.8006 173.997624 
L 264.952608 173.997624 
L 264.952608 173.199208 
L 265.268 173.199208 
L 265.378836 165.21505 
L 265.394538 165.21505 
L 265.488518 161.22297 
L 267.176993 161.22297 
L 267.176993 160.424554 
L 267.459856 160.424554 
L 267.459856 159.626139 
L 270.166187 159.626139 
L 270.166187 158.827723 
L 271.904002 158.827723 
L 271.904002 158.029307 
L 272.073261 158.029307 
L 272.073261 157.230891 
L 272.254611 157.230891 
L 272.3102 155.634059 
L 272.442039 155.634059 
L 272.442039 154.835644 
L 272.630712 154.835644 
L 272.670358 152.440396 
L 272.977305 152.440396 
L 272.977305 151.64198 
L 273.525709 151.64198 
L 273.613219 150.045149 
L 273.695297 150.045149 
L 273.730825 148.448317 
L 273.922696 148.448317 
L 274.005772 146.851485 
L 274.199994 146.851485 
L 274.199994 146.053069 
L 274.325329 146.053069 
L 274.325329 145.254653 
L 274.583706 145.254653 
L 274.673144 143.657822 
L 275.01961 143.657822 
L 275.01961 142.859406 
L 275.335672 142.859406 
L 275.335672 142.06099 
L 276.133226 142.06099 
L 276.133226 141.262574 
L 276.321804 141.262574 
L 276.430986 139.665743 
L 277.06617 139.665743 
L 277.06617 138.867327 
L 277.337827 138.867327 
L 277.421337 137.270495 
L 277.485766 137.270495 
L 277.485766 136.472079 
L 277.683446 136.472079 
L 277.699305 134.875248 
L 277.883308 134.875248 
L 277.883308 134.076832 
L 278.151676 134.076832 
L 278.224872 132.48 
L 278.275706 132.48 
L 278.369005 130.883168 
L 278.700846 130.883168 
L 278.730059 129.286337 
L 278.988897 129.286337 
L 278.988897 128.487921 
L 279.123807 128.487921 
L 279.123807 127.689505 
L 279.489314 127.689505 
L 279.489314 126.891089 
L 279.667967 126.891089 
L 279.688272 125.294257 
L 279.802261 125.294257 
L 279.86008 123.697426 
L 280.057178 123.697426 
L 280.064769 122.100594 
L 280.176857 122.100594 
L 280.176857 121.302178 
L 280.338777 121.302178 
L 280.338777 120.503762 
L 280.458046 120.503762 
L 280.458046 119.705347 
L 280.611855 119.705347 
L 280.611855 118.906931 
L 280.767635 118.906931 
L 280.815837 116.511683 
L 281.111938 116.511683 
L 281.111938 115.713267 
L 281.232612 115.713267 
L 281.232612 114.914851 
L 281.804224 114.914851 
L 281.804224 114.116436 
L 281.918383 114.116436 
L 281.918383 113.31802 
L 282.350361 113.31802 
L 282.350361 112.519604 
L 282.487361 112.519604 
L 282.487361 111.721188 
L 282.62394 111.721188 
L 282.62394 110.922772 
L 282.762181 110.922772 
L 282.762181 110.124356 
L 283.231672 110.124356 
L 283.239929 108.527525 
L 283.753872 108.527525 
L 283.768881 106.930693 
L 283.985477 106.930693 
L 283.985477 106.132277 
L 284.110967 106.132277 
L 284.110967 105.333861 
L 284.290492 105.333861 
L 284.305793 103.73703 
L 284.438152 103.73703 
L 284.438152 102.938614 
L 284.970267 102.938614 
L 284.970267 102.140198 
L 285.572164 102.140198 
L 285.572164 101.341782 
L 286.310421 101.341782 
L 286.310421 100.543366 
L 286.674832 100.543366 
L 286.674832 99.74495 
L 286.987275 99.74495 
L 287.021141 97.349703 
L 287.374564 97.349703 
L 287.374564 96.551287 
L 287.644174 96.551287 
L 287.644174 95.752871 
L 288.027681 95.752871 
L 288.116956 94.15604 
L 288.528699 94.15604 
L 288.639142 91.760792 
L 289.48808 91.760792 
L 289.48808 90.962376 
L 289.720274 90.962376 
L 289.720274 90.16396 
L 289.841025 90.16396 
L 289.841025 89.365545 
L 289.969429 89.365545 
L 289.969429 88.567129 
L 290.523939 88.567129 
L 290.523939 87.768713 
L 291.037556 87.768713 
L 291.037556 86.970297 
L 291.756318 86.970297 
L 291.756318 86.171881 
L 292.429147 86.171881 
L 292.429147 85.373465 
L 293.735247 85.373465 
L 293.830301 83.776634 
L 295.047106 83.776634 
L 295.052726 82.179802 
L 295.805478 82.179802 
L 295.805478 81.381386 
L 296.344264 81.381386 
L 296.344264 80.58297 
L 296.83713 80.58297 
L 296.893915 78.986139 
L 297.491931 78.986139 
L 297.491931 78.187723 
L 297.64783 78.187723 
L 297.64783 77.389307 
L 297.959565 77.389307 
L 298.040408 75.792475 
L 299.700582 75.792475 
L 299.700582 74.994059 
L 304.556725 74.994059 
L 304.556725 74.195644 
L 306.594908 74.195644 
L 306.639927 72.598812 
L 313.340856 72.598812 
L 313.340856 71.800396 
L 314.762232 71.800396 
L 314.762232 71.00198 
L 315.04737 71.00198 
L 315.055424 69.405149 
L 315.252654 69.405149 
L 315.252654 68.606733 
L 315.841773 68.606733 
L 315.841773 67.808317 
L 316.954784 67.808317 
L 316.954784 67.009901 
L 317.279336 67.009901 
L 317.279336 66.211485 
L 317.911361 66.211485 
L 317.911361 65.413069 
L 318.465713 65.413069 
L 318.479734 63.816238 
L 318.785206 63.816238 
L 318.785206 63.017822 
L 319.508375 63.017822 
L 319.508375 62.219406 
L 320.215328 62.219406 
L 320.215328 61.42099 
L 322.770454 61.42099 
L 322.770454 60.622574 
L 324.907585 60.622574 
L 324.907585 59.824158 
L 325.730392 59.824158 
L 325.730392 59.025743 
L 328.803901 59.025743 
L 328.803901 58.227327 
L 329.939099 58.227327 
L 329.939099 57.428911 
L 330.548266 57.428911 
L 330.548266 56.630495 
L 331.1173 56.630495 
L 331.1173 55.832079 
L 336.076659 55.832079 
L 336.076659 55.033663 
L 336.188369 55.033663 
L 336.188369 54.235248 
L 336.660616 54.235248 
L 336.74699 52.638416 
L 337.203916 52.638416 
L 337.203916 51.84 
L 337.803759 51.84 
L 337.803759 51.041584 
L 342.871253 51.041584 
L 342.871253 50.243168 
L 344.644679 50.243168 
L 344.644679 49.444752 
L 345.419188 49.444752 
L 345.419188 48.646337 
L 345.666984 48.646337 
L 345.666984 47.847921 
L 349.311801 47.847921 
L 349.311801 47.049505 
L 350.326868 47.049505 
L 350.326868 46.251089 
L 353.692941 46.251089 
L 353.692941 45.452673 
L 355.39189 45.452673 
L 355.39189 44.654257 
L 358.772129 44.654257 
L 358.854692 43.057426 
L 360.01437 43.057426 
L 360.01437 42.25901 
L 360.186184 42.25901 
L 360.186184 41.460594 
L 361.403109 41.460594 
L 361.403109 40.662178 
L 362.643652 40.662178 
L 362.643652 39.863762 
L 366.840626 39.863762 
L 366.844332 38.266931 
L 369.09156 38.266931 
L 369.09156 37.468515 
L 372.859646 37.468515 
L 372.859646 36.670099 
L 373.13388 36.670099 
L 373.13388 35.871683 
L 374.583421 35.871683 
L 374.590913 34.274851 
L 374.796934 34.274851 
L 374.796934 33.476436 
L 374.977614 33.476436 
L 374.977614 32.67802 
L 375.298173 32.67802 
L 375.298173 31.879604 
L 376.223312 31.879604 
L 376.223312 31.081188 
L 377.043263 31.081188 
L 377.043263 30.282772 
L 377.466684 30.282772 
L 377.466684 29.484356 
L 379.515735 29.484356 
L 379.515735 28.685941 
L 379.891608 28.685941 
L 379.891608 27.887525 
L 380.029873 27.887525 
L 380.093464 26.290693 
L 380.687576 26.290693 
L 380.687576 25.492277 
L 381.019979 25.492277 
L 381.068121 23.895446 
L 383.006673 23.895446 
L 383.078731 21.500198 
L 383.704544 21.500198 
L 383.704544 20.701782 
L 385.87484 20.701782 
L 385.87484 19.903366 
L 389.218643 19.903366 
L 389.218643 19.10495 
L 389.951549 19.10495 
L 389.951549 18.306535 
L 397.41201 18.306535 
L 397.41201 17.508119 
L 403.494858 17.508119 
L 403.494858 16.709703 
L 405.360713 16.709703 
L 405.360713 15.911287 
L 411.006919 15.911287 
L 411.006919 15.112871 
L 414.583034 15.112871 
L 414.583034 14.314455 
L 417.041923 14.314455 
L 417.041923 13.51604 
L 417.656116 13.51604 
L 417.656116 12.717624 
L 417.792561 12.717624 
L 417.792561 11.919208 
L 419.94575 11.919208 
L 419.94575 11.120792 
L 420.424001 11.120792 
L 420.424001 10.322376 
L 420.98674 10.322376 
L 420.98674 9.52396 
L 423.203837 9.52396 
L 423.203837 8.725545 
L 424.653724 8.725545 
L 424.653724 7.927129 
L 425.406649 7.927129 
L 425.406649 7.128713 
L 427.445804 7.128713 
L 427.445804 6.330297 
L 427.445804 6.330297 
L 460.8 6.330297 
L 460.8 6.330297 
" clip-path="url(#pc0dc656b07)" style="fill: none; stroke: #ff0000; stroke-width: 3; stroke-linecap: square"/>
   </g>
   <g id="line2d_22">
    <path d="M 194.6143 293.76 
L 194.6143 281.783762 
L 227.73393 281.783762 
L 227.73393 280.985347 
L 232.128651 280.985347 
L 232.128651 280.186931 
L 233.632335 280.186931 
L 233.632335 279.388515 
L 234.204003 279.388515 
L 234.204003 278.590099 
L 234.410335 278.590099 
L 234.416691 276.993267 
L 235.232338 276.993267 
L 235.232338 276.194851 
L 235.416011 276.194851 
L 235.416011 275.396436 
L 236.000613 275.396436 
L 236.03989 273.799604 
L 236.938034 273.799604 
L 236.981186 272.202772 
L 237.064987 272.202772 
L 237.064987 271.404356 
L 237.492741 271.404356 
L 237.492741 270.605941 
L 237.794651 270.605941 
L 237.794651 269.807525 
L 238.255903 269.807525 
L 238.352688 267.412277 
L 238.678185 267.412277 
L 238.678185 266.613861 
L 239.542152 266.613861 
L 239.542152 265.815446 
L 239.758175 265.815446 
L 239.758175 265.01703 
L 240.90193 265.01703 
L 240.90193 264.218614 
L 242.315084 264.218614 
L 242.400713 262.621782 
L 243.551888 262.621782 
L 243.551888 261.823366 
L 243.765404 261.823366 
L 243.765404 261.02495 
L 244.335179 261.02495 
L 244.335179 260.226535 
L 245.700105 260.226535 
L 245.700105 259.428119 
L 246.102884 259.428119 
L 246.102884 258.629703 
L 249.388108 258.629703 
L 249.388108 257.831287 
L 250.66504 257.831287 
L 250.66504 257.032871 
L 250.854072 257.032871 
L 250.854072 256.234455 
L 251.313442 256.234455 
L 251.313442 255.43604 
L 251.617687 255.43604 
L 251.617687 254.637624 
L 251.73981 254.637624 
L 251.73981 253.839208 
L 252.033005 253.839208 
L 252.033005 253.040792 
L 252.444207 253.040792 
L 252.444207 252.242376 
L 252.69744 252.242376 
L 252.754838 250.645545 
L 253.161711 250.645545 
L 253.161711 249.847129 
L 253.36986 249.847129 
L 253.450569 248.250297 
L 253.576746 248.250297 
L 253.576746 247.451881 
L 253.928778 247.451881 
L 253.928778 246.653465 
L 254.161785 246.653465 
L 254.161785 245.85505 
L 254.290183 245.85505 
L 254.290183 245.056634 
L 254.469373 245.056634 
L 254.469638 243.459802 
L 255.033021 243.459802 
L 255.033021 242.661386 
L 255.162002 242.661386 
L 255.162002 241.86297 
L 255.373491 241.86297 
L 255.411244 240.266139 
L 255.695186 240.266139 
L 255.801487 238.669307 
L 256.806539 238.669307 
L 256.875912 237.072475 
L 256.940366 237.072475 
L 256.986226 235.475644 
L 257.176372 235.475644 
L 257.176372 234.677228 
L 257.303084 234.677228 
L 257.303084 233.878812 
L 257.556147 233.878812 
L 257.609765 232.28198 
L 257.70474 232.28198 
L 257.724488 230.685149 
L 257.97735 230.685149 
L 257.97735 229.886733 
L 258.243289 229.886733 
L 258.288709 228.289901 
L 258.62854 228.289901 
L 258.62854 227.491485 
L 258.779013 227.491485 
L 258.779013 226.693069 
L 258.98248 226.693069 
L 258.98248 225.894653 
L 259.777442 225.894653 
L 259.81258 224.297822 
L 259.916401 224.297822 
L 260.007843 220.305743 
L 260.065387 220.305743 
L 260.111985 218.708911 
L 260.211096 218.708911 
L 260.28072 215.515248 
L 260.332042 215.515248 
L 260.382478 212.321584 
L 260.512544 212.321584 
L 260.617426 207.531089 
L 260.655106 207.531089 
L 260.727877 204.337426 
L 260.786439 204.337426 
L 260.822907 202.740594 
L 260.904882 202.740594 
L 260.980767 199.546931 
L 261.40548 199.546931 
L 261.480109 197.950099 
L 262.629094 197.950099 
L 262.629094 197.151683 
L 262.838236 197.151683 
L 262.838236 196.353267 
L 263.330513 196.353267 
L 263.330513 195.554851 
L 263.505015 195.554851 
L 263.53736 193.95802 
L 263.983049 193.95802 
L 263.983049 193.159604 
L 264.226904 193.159604 
L 264.243595 191.562772 
L 264.70705 191.562772 
L 264.70705 190.764356 
L 264.947883 190.764356 
L 264.947883 189.965941 
L 265.495092 189.965941 
L 265.559627 177.191287 
L 266.667627 177.191287 
L 266.667627 176.392871 
L 266.916371 176.392871 
L 267.018732 174.79604 
L 269.129755 174.79604 
L 269.129755 173.997624 
L 271.46057 173.997624 
L 271.46057 173.199208 
L 272.292567 173.199208 
L 272.292567 172.400792 
L 273.613219 172.400792 
L 273.613219 171.602376 
L 274.273902 171.602376 
L 274.353016 168.408713 
L 274.725609 168.408713 
L 274.725609 167.610297 
L 274.848898 167.610297 
L 274.953057 166.013465 
L 274.968121 166.013465 
L 274.997275 164.416634 
L 275.143799 164.416634 
L 275.143799 163.618218 
L 275.358287 163.618218 
L 275.358287 162.819802 
L 275.486909 162.819802 
L 275.486909 162.021386 
L 276.035612 162.021386 
L 276.035612 161.22297 
L 276.436123 161.22297 
L 276.436123 160.424554 
L 278.840674 160.424554 
L 278.866484 148.448317 
L 279.382566 148.448317 
L 279.382566 147.649901 
L 279.540426 147.649901 
L 279.540426 146.851485 
L 279.921676 146.851485 
L 279.968538 145.254653 
L 280.672597 145.254653 
L 280.672597 144.456238 
L 280.946419 144.456238 
L 280.946419 143.657822 
L 281.835851 143.657822 
L 281.835851 142.859406 
L 282.535159 142.859406 
L 282.535159 142.06099 
L 283.254902 142.06099 
L 283.254902 141.262574 
L 283.482665 141.262574 
L 283.57343 139.665743 
L 283.697395 139.665743 
L 283.774052 137.270495 
L 284.002973 137.270495 
L 284.002973 136.472079 
L 284.122199 136.472079 
L 284.155398 134.875248 
L 284.296907 134.875248 
L 284.296907 134.076832 
L 284.470635 134.076832 
L 284.470635 133.278416 
L 284.683825 133.278416 
L 284.683825 132.48 
L 284.859846 132.48 
L 284.859846 131.681584 
L 285.203355 131.681584 
L 285.311731 129.286337 
L 285.316467 129.286337 
L 285.333369 127.689505 
L 285.519358 127.689505 
L 285.589758 124.495842 
L 285.79682 124.495842 
L 285.851864 122.89901 
L 285.970944 122.89901 
L 285.970944 122.100594 
L 286.317237 122.100594 
L 286.317237 121.302178 
L 286.581877 121.302178 
L 286.581877 120.503762 
L 286.721714 120.503762 
L 286.721714 119.705347 
L 287.051463 119.705347 
L 287.051463 118.906931 
L 287.434494 118.906931 
L 287.434494 118.108515 
L 287.586729 118.108515 
L 287.623192 115.713267 
L 287.733671 115.713267 
L 287.733671 114.914851 
L 288.064521 114.914851 
L 288.094864 113.31802 
L 288.25643 113.31802 
L 288.308182 111.721188 
L 288.707706 111.721188 
L 288.797597 109.325941 
L 289.230066 109.325941 
L 289.230066 108.527525 
L 289.564201 108.527525 
L 289.564201 107.729109 
L 291.049174 107.729109 
L 291.131017 106.132277 
L 291.565174 106.132277 
L 291.565174 105.333861 
L 292.461967 105.333861 
L 292.461967 104.535446 
L 293.906516 104.535446 
L 293.906516 103.73703 
L 294.687337 103.73703 
L 294.687337 102.938614 
L 294.823916 102.938614 
L 294.823916 102.140198 
L 295.715542 102.140198 
L 295.715542 101.341782 
L 296.267683 101.341782 
L 296.267683 100.543366 
L 296.55807 100.543366 
L 296.55807 99.74495 
L 296.672804 99.74495 
L 296.672804 98.946535 
L 296.82023 98.946535 
L 296.82023 98.148119 
L 297.066098 98.148119 
L 297.066098 97.349703 
L 297.367595 97.349703 
L 297.367595 96.551287 
L 297.711816 96.551287 
L 297.711816 95.752871 
L 297.866746 95.752871 
L 297.962757 94.15604 
L 298.332417 94.15604 
L 298.332417 93.357624 
L 298.627176 93.357624 
L 298.640983 91.760792 
L 298.870863 91.760792 
L 298.870863 90.962376 
L 299.343786 90.962376 
L 299.391179 89.365545 
L 299.832094 89.365545 
L 299.832094 88.567129 
L 305.414504 88.567129 
L 305.414504 87.768713 
L 322.641351 87.768713 
L 322.641505 75.792475 
L 323.003524 75.792475 
L 323.003524 74.994059 
L 326.668616 74.994059 
L 326.668616 74.195644 
L 330.244438 74.195644 
L 330.244438 73.397228 
L 334.235096 73.397228 
L 334.235096 72.598812 
L 335.480059 72.598812 
L 335.480059 71.800396 
L 335.760377 71.800396 
L 335.760377 71.00198 
L 336.139176 71.00198 
L 336.151275 69.405149 
L 337.56375 69.405149 
L 337.579004 67.808317 
L 338.197421 67.808317 
L 338.197421 67.009901 
L 338.836872 67.009901 
L 338.836872 66.211485 
L 338.96283 66.211485 
L 338.96283 65.413069 
L 339.735699 65.413069 
L 339.735699 64.614653 
L 340.119571 64.614653 
L 340.119571 63.816238 
L 343.953922 63.816238 
L 343.953922 63.017822 
L 345.263754 63.017822 
L 345.263754 62.219406 
L 348.556293 62.219406 
L 348.556293 61.42099 
L 351.42691 61.42099 
L 351.42691 60.622574 
L 351.870242 60.622574 
L 351.870242 59.824158 
L 354.608675 59.824158 
L 354.608675 59.025743 
L 355.21275 59.025743 
L 355.235596 56.630495 
L 355.409237 56.630495 
L 355.409237 55.832079 
L 356.613857 55.832079 
L 356.613857 55.033663 
L 356.785615 55.033663 
L 356.785615 54.235248 
L 359.091309 54.235248 
L 359.091309 53.436832 
L 360.602078 53.436832 
L 360.602078 52.638416 
L 362.07872 52.638416 
L 362.07872 51.84 
L 362.27095 51.84 
L 362.27095 51.041584 
L 364.287179 51.041584 
L 364.287179 50.243168 
L 367.145214 50.243168 
L 367.145214 49.444752 
L 367.814557 49.444752 
L 367.814557 48.646337 
L 369.870784 48.646337 
L 369.870784 47.847921 
L 373.154237 47.847921 
L 373.154237 47.049505 
L 374.294354 47.049505 
L 374.356746 45.452673 
L 376.459977 45.452673 
L 376.459977 44.654257 
L 378.168699 44.654257 
L 378.168699 43.855842 
L 378.686597 43.855842 
L 378.686597 43.057426 
L 379.397822 43.057426 
L 379.397822 42.25901 
L 381.818633 42.25901 
L 381.818633 41.460594 
L 386.041265 41.460594 
L 386.041265 40.662178 
L 387.902478 40.662178 
L 387.902478 39.863762 
L 388.124646 39.863762 
L 388.156028 38.266931 
L 388.489873 38.266931 
L 388.489873 37.468515 
L 388.862194 37.468515 
L 388.862194 36.670099 
L 389.564935 36.670099 
L 389.564935 35.871683 
L 389.928207 35.871683 
L 389.928207 35.073267 
L 390.327291 35.073267 
L 390.327291 34.274851 
L 390.738605 34.274851 
L 390.738605 33.476436 
L 390.937608 33.476436 
L 390.937608 32.67802 
L 392.46116 32.67802 
L 392.46116 31.879604 
L 392.739144 31.879604 
L 392.843289 30.282772 
L 393.424028 30.282772 
L 393.424028 29.484356 
L 393.844153 29.484356 
L 393.844153 28.685941 
L 394.514735 28.685941 
L 394.514735 27.887525 
L 395.779542 27.887525 
L 395.779542 27.089109 
L 396.186631 27.089109 
L 396.186631 26.290693 
L 396.593818 26.290693 
L 396.679241 24.693861 
L 397.850856 24.693861 
L 397.850856 23.895446 
L 398.195709 23.895446 
L 398.195709 23.09703 
L 399.685985 23.09703 
L 399.685985 22.298614 
L 400.435904 22.298614 
L 400.435904 21.500198 
L 400.834589 21.500198 
L 400.915219 19.903366 
L 402.620535 19.903366 
L 402.620535 19.10495 
L 406.45584 19.10495 
L 406.45584 18.306535 
L 415.915185 18.306535 
L 415.915185 17.508119 
L 418.259595 17.508119 
L 418.259595 16.709703 
L 419.171079 16.709703 
L 419.171079 15.911287 
L 421.678564 15.911287 
L 421.678564 15.112871 
L 424.504727 15.112871 
L 424.504727 14.314455 
L 426.041256 14.314455 
L 426.041256 13.51604 
L 427.756977 13.51604 
L 427.756977 12.717624 
L 428.628415 12.717624 
L 428.628415 11.919208 
L 430.244381 11.919208 
L 430.244381 11.120792 
L 431.032662 11.120792 
L 431.032662 10.322376 
L 432.482209 10.322376 
L 432.482209 9.52396 
L 433.603594 9.52396 
L 433.603594 8.725545 
L 434.182894 8.725545 
L 434.182894 7.927129 
L 436.9747 7.927129 
L 436.9747 7.128713 
L 438.851727 7.128713 
L 438.851727 6.330297 
L 438.851727 6.330297 
L 460.8 6.330297 
L 460.8 6.330297 
" clip-path="url(#pc0dc656b07)" style="fill: none; stroke: #00bfbf; stroke-width: 1.5; stroke-linecap: square"/>
   </g>
   <g id="line2d_23">
    <path d="M 194.6143 293.76 
L 194.6143 281.783762 
L 227.73393 281.783762 
L 227.73393 280.985347 
L 231.789631 280.985347 
L 231.789631 280.186931 
L 232.128651 280.186931 
L 232.128651 279.388515 
L 232.810236 279.388515 
L 232.810236 278.590099 
L 232.985001 278.590099 
L 233.052386 276.993267 
L 233.256427 276.993267 
L 233.256427 276.194851 
L 233.632335 276.194851 
L 233.632335 275.396436 
L 233.989708 275.396436 
L 233.989708 274.59802 
L 234.410335 274.59802 
L 234.410335 273.799604 
L 234.790745 273.799604 
L 234.790745 273.001188 
L 235.135171 273.001188 
L 235.232338 271.404356 
L 235.321692 271.404356 
L 235.416011 269.807525 
L 235.814577 269.807525 
L 235.814577 269.009109 
L 236.804708 269.009109 
L 236.804708 268.210693 
L 236.981186 268.210693 
L 236.981186 267.412277 
L 237.224503 267.412277 
L 237.224503 266.613861 
L 237.395882 266.613861 
L 237.395882 265.815446 
L 237.794651 265.815446 
L 237.794651 265.01703 
L 239.284566 265.01703 
L 239.284566 264.218614 
L 241.246431 264.218614 
L 241.246431 263.420198 
L 242.24524 263.420198 
L 242.304662 261.823366 
L 242.767238 261.823366 
L 242.767238 261.02495 
L 244.335179 261.02495 
L 244.335179 260.226535 
L 244.582872 260.226535 
L 244.582872 259.428119 
L 246.102884 259.428119 
L 246.102884 258.629703 
L 248.837668 258.629703 
L 248.837668 257.831287 
L 249.797592 257.831287 
L 249.797592 257.032871 
L 250.038678 257.032871 
L 250.038678 256.234455 
L 250.682752 256.234455 
L 250.682752 255.43604 
L 250.966587 255.43604 
L 250.966587 254.637624 
L 251.213327 254.637624 
L 251.313442 251.44396 
L 251.73981 251.44396 
L 251.73981 250.645545 
L 251.972532 250.645545 
L 251.972532 249.847129 
L 252.444207 249.847129 
L 252.444207 249.048713 
L 252.69744 249.048713 
L 252.797016 246.653465 
L 253.243885 246.653465 
L 253.243885 245.85505 
L 253.36986 245.85505 
L 253.450569 244.258218 
L 253.576746 244.258218 
L 253.576746 243.459802 
L 253.738565 243.459802 
L 253.738565 242.661386 
L 254.290183 242.661386 
L 254.290183 241.86297 
L 254.469373 241.86297 
L 254.469373 241.064554 
L 254.658403 241.064554 
L 254.658403 240.266139 
L 255.086382 240.266139 
L 255.086382 239.467723 
L 255.393269 239.467723 
L 255.393269 238.669307 
L 255.62021 238.669307 
L 255.62021 237.870891 
L 255.801487 237.870891 
L 255.801487 237.072475 
L 256.044979 237.072475 
L 256.044979 236.274059 
L 256.432698 236.274059 
L 256.539721 234.677228 
L 256.806539 234.677228 
L 256.875912 233.080396 
L 256.940366 233.080396 
L 256.986226 230.685149 
L 257.100491 230.685149 
L 257.100491 229.886733 
L 257.303084 229.886733 
L 257.303084 229.088317 
L 257.556147 229.088317 
L 257.556147 228.289901 
L 257.810984 228.289901 
L 257.810984 227.491485 
L 258.087683 227.491485 
L 258.087683 226.693069 
L 258.288709 226.693069 
L 258.288709 225.894653 
L 258.902359 225.894653 
L 258.902359 225.096238 
L 259.62116 225.096238 
L 259.62116 224.297822 
L 259.739167 224.297822 
L 259.755638 222.70099 
L 259.901832 222.70099 
L 260.005608 217.910495 
L 260.105562 217.910495 
L 260.190165 215.515248 
L 260.243895 215.515248 
L 260.28072 212.321584 
L 260.416223 212.321584 
L 260.512544 209.926337 
L 260.544936 209.926337 
L 260.655106 203.53901 
L 260.723329 203.53901 
L 260.822907 200.345347 
L 260.966506 200.345347 
L 261.018315 198.748515 
L 261.344446 198.748515 
L 261.40548 197.151683 
L 262.168319 197.151683 
L 262.168319 196.353267 
L 262.629094 196.353267 
L 262.629094 195.554851 
L 263.330513 195.554851 
L 263.392683 193.95802 
L 263.50431 193.95802 
L 263.50431 193.159604 
L 263.983049 193.159604 
L 263.983049 192.361188 
L 264.221112 192.361188 
L 264.243595 190.764356 
L 264.8006 190.764356 
L 264.8006 189.965941 
L 265.495092 189.965941 
L 265.559627 177.191287 
L 266.54603 177.191287 
L 266.54603 176.392871 
L 266.916371 176.392871 
L 267.018732 174.79604 
L 268.700583 174.79604 
L 268.700583 173.997624 
L 269.182332 173.997624 
L 269.182332 173.199208 
L 271.46057 173.199208 
L 271.46057 172.400792 
L 272.292567 172.400792 
L 272.311292 170.80396 
L 273.613219 170.80396 
L 273.623109 169.207129 
L 274.018749 169.207129 
L 274.018749 168.408713 
L 274.250447 168.408713 
L 274.353016 164.416634 
L 274.725609 164.416634 
L 274.760539 162.021386 
L 274.953057 162.021386 
L 274.997275 160.424554 
L 278.617812 160.424554 
L 278.68084 150.843564 
L 278.730059 150.843564 
L 278.768537 148.448317 
L 279.228621 148.448317 
L 279.228621 147.649901 
L 279.540426 147.649901 
L 279.540426 146.851485 
L 279.790059 146.851485 
L 279.822335 145.254653 
L 280.549394 145.254653 
L 280.549394 144.456238 
L 280.946419 144.456238 
L 280.946419 143.657822 
L 281.804224 143.657822 
L 281.835851 142.06099 
L 282.755635 142.06099 
L 282.755635 141.262574 
L 283.114749 141.262574 
L 283.114749 140.464158 
L 283.254902 140.464158 
L 283.339182 138.068911 
L 283.414468 138.068911 
L 283.520972 135.673663 
L 283.543921 135.673663 
L 283.543921 134.875248 
L 283.697395 134.875248 
L 283.738775 133.278416 
L 284.133173 133.278416 
L 284.223116 131.681584 
L 284.454047 131.681584 
L 284.45832 130.084752 
L 284.588159 130.084752 
L 284.682597 128.487921 
L 284.752109 128.487921 
L 284.752109 127.689505 
L 284.889929 127.689505 
L 284.889929 126.891089 
L 285.149565 126.891089 
L 285.203355 124.495842 
L 285.572164 124.495842 
L 285.671746 122.100594 
L 285.851864 122.100594 
L 285.851864 121.302178 
L 286.222814 121.302178 
L 286.222814 120.503762 
L 286.655489 120.503762 
L 286.721714 118.906931 
L 286.856093 118.906931 
L 286.927408 117.310099 
L 286.987275 117.310099 
L 286.987275 116.511683 
L 287.228644 116.511683 
L 287.24904 114.914851 
L 287.619113 114.914851 
L 287.701427 113.31802 
L 287.733671 113.31802 
L 287.733671 112.519604 
L 288.167068 112.519604 
L 288.167068 111.721188 
L 288.469099 111.721188 
L 288.469099 110.922772 
L 288.670118 110.922772 
L 288.739579 108.527525 
L 289.022376 108.527525 
L 289.022376 107.729109 
L 290.387378 107.729109 
L 290.387378 106.930693 
L 290.981047 106.930693 
L 290.981047 106.132277 
L 291.131017 106.132277 
L 291.131017 105.333861 
L 291.565174 105.333861 
L 291.565174 104.535446 
L 292.322427 104.535446 
L 292.322427 103.73703 
L 293.906516 103.73703 
L 293.906516 102.938614 
L 294.491416 102.938614 
L 294.528613 101.341782 
L 295.556717 101.341782 
L 295.556717 100.543366 
L 296.204164 100.543366 
L 296.204164 99.74495 
L 296.360285 99.74495 
L 296.360285 98.946535 
L 296.55807 98.946535 
L 296.55807 98.148119 
L 296.82023 98.148119 
L 296.82023 97.349703 
L 297.066098 97.349703 
L 297.066098 96.551287 
L 297.21929 96.551287 
L 297.21929 95.752871 
L 297.628354 95.752871 
L 297.682257 94.15604 
L 297.866746 94.15604 
L 297.953893 91.760792 
L 298.615394 91.760792 
L 298.615394 90.962376 
L 298.870863 90.962376 
L 298.870863 90.16396 
L 299.241439 90.16396 
L 299.327279 88.567129 
L 299.391179 88.567129 
L 299.391179 87.768713 
L 301.462135 87.768713 
L 301.462135 86.970297 
L 317.883574 86.970297 
L 317.883574 82.179802 
L 318.650865 82.179802 
L 318.650865 78.187723 
L 319.202955 78.187723 
L 319.202955 75.792475 
L 320.937671 75.792475 
L 320.937671 74.994059 
L 323.003524 74.994059 
L 323.003524 74.195644 
L 326.357142 74.195644 
L 326.357142 73.397228 
L 330.244438 73.397228 
L 330.244438 72.598812 
L 334.174744 72.598812 
L 334.174744 71.800396 
L 335.184791 71.800396 
L 335.184791 71.00198 
L 335.307699 71.00198 
L 335.307699 70.203564 
L 336.113865 70.203564 
L 336.139176 68.606733 
L 337.428424 68.606733 
L 337.428424 67.808317 
L 337.56375 67.808317 
L 337.56375 67.009901 
L 338.197421 67.009901 
L 338.197421 66.211485 
L 338.800536 66.211485 
L 338.873971 64.614653 
L 339.677361 64.614653 
L 339.677361 63.816238 
L 339.971632 63.816238 
L 339.971632 63.017822 
L 340.80719 63.017822 
L 340.80719 62.219406 
L 343.674509 62.219406 
L 343.674509 61.42099 
L 348.556293 61.42099 
L 348.556293 60.622574 
L 351.334105 60.622574 
L 351.42691 59.025743 
L 354.246521 59.025743 
L 354.246521 58.227327 
L 354.605764 58.227327 
L 354.608675 56.630495 
L 355.213724 56.630495 
L 355.213724 55.832079 
L 355.409237 55.832079 
L 355.409237 55.033663 
L 356.005027 55.033663 
L 356.005027 54.235248 
L 357.50357 54.235248 
L 357.50357 53.436832 
L 358.495358 53.436832 
L 358.495358 52.638416 
L 362.07872 52.638416 
L 362.07872 51.84 
L 362.27095 51.84 
L 362.27095 51.041584 
L 363.89088 51.041584 
L 363.89088 50.243168 
L 367.145214 50.243168 
L 367.145214 49.444752 
L 367.814557 49.444752 
L 367.814557 48.646337 
L 369.593403 48.646337 
L 369.593403 47.847921 
L 369.870784 47.847921 
L 369.870784 47.049505 
L 372.041827 47.049505 
L 372.041827 46.251089 
L 374.19835 46.251089 
L 374.19835 45.452673 
L 375.224023 45.452673 
L 375.224023 44.654257 
L 377.655187 44.654257 
L 377.655187 43.855842 
L 378.006312 43.855842 
L 378.047599 42.25901 
L 378.168699 42.25901 
L 378.168699 41.460594 
L 384.189695 41.460594 
L 384.189695 40.662178 
L 385.234849 40.662178 
L 385.234849 39.863762 
L 386.187188 39.863762 
L 386.187188 39.065347 
L 387.147491 39.065347 
L 387.147491 38.266931 
L 387.480408 38.266931 
L 387.480408 37.468515 
L 387.707394 37.468515 
L 387.707394 36.670099 
L 388.156028 36.670099 
L 388.156028 35.871683 
L 388.358543 35.871683 
L 388.387828 34.274851 
L 389.928207 34.274851 
L 389.928207 33.476436 
L 390.566769 33.476436 
L 390.566769 32.67802 
L 390.738605 32.67802 
L 390.738605 31.879604 
L 391.206477 31.879604 
L 391.210874 30.282772 
L 391.480707 30.282772 
L 391.480707 29.484356 
L 392.044339 29.484356 
L 392.044339 28.685941 
L 392.233333 28.685941 
L 392.233333 27.887525 
L 392.61257 27.887525 
L 392.654381 26.290693 
L 393.844153 26.290693 
L 393.844153 25.492277 
L 396.209066 25.492277 
L 396.209066 24.693861 
L 396.593818 24.693861 
L 396.593818 23.895446 
L 397.496541 23.895446 
L 397.496541 23.09703 
L 397.816544 23.09703 
L 397.816544 22.298614 
L 398.594517 22.298614 
L 398.594517 21.500198 
L 400.834589 21.500198 
L 400.869562 19.903366 
L 402.126786 19.903366 
L 402.126786 19.10495 
L 406.45584 19.10495 
L 406.45584 18.306535 
L 415.915185 18.306535 
L 415.915185 17.508119 
L 418.259595 17.508119 
L 418.259595 16.709703 
L 419.171079 16.709703 
L 419.171079 15.911287 
L 421.678564 15.911287 
L 421.678564 15.112871 
L 424.504727 15.112871 
L 424.504727 14.314455 
L 424.912757 14.314455 
L 424.912757 13.51604 
L 427.590261 13.51604 
L 427.590261 12.717624 
L 428.628415 12.717624 
L 428.628415 11.919208 
L 430.244381 11.919208 
L 430.244381 11.120792 
L 430.743423 11.120792 
L 430.743423 10.322376 
L 431.032662 10.322376 
L 431.032662 9.52396 
L 433.603594 9.52396 
L 433.603594 8.725545 
L 434.182894 8.725545 
L 434.182894 7.927129 
L 436.405832 7.927129 
L 436.405832 7.128713 
L 438.851727 7.128713 
L 438.851727 6.330297 
L 438.851727 6.330297 
L 460.8 6.330297 
L 460.8 6.330297 
" clip-path="url(#pc0dc656b07)" style="fill: none; stroke: #bf00bf; stroke-width: 1.5; stroke-linecap: square"/>
   </g>
   <g id="patch_3">
    <path d="M 0 293.76 
L 0 3.456 
" style="fill: none; stroke: #000000; stroke-width: 0.8; stroke-linejoin: miter; stroke-linecap: square"/>
   </g>
   <g id="patch_4">
    <path d="M 460.8 293.76 
L 460.8 3.456 
" style="fill: none; stroke: #000000; stroke-width: 0.8; stroke-linejoin: miter; stroke-linecap: square"/>
   </g>
   <g id="patch_5">
    <path d="M 0 293.76 
L 460.8 293.76 
" style="fill: none; stroke: #000000; stroke-width: 0.8; stroke-linejoin: miter; stroke-linecap: square"/>
   </g>
   <g id="patch_6">
    <path d="M 0 3.456 
L 460.8 3.456 
" style="fill: none; stroke: #000000; stroke-width: 0.8; stroke-linejoin: miter; stroke-linecap: square"/>
   </g>
   <g id="text_6">
    <!-- {f1-f24}, 20-D -->
    <g transform="translate(305.884 287.95392) scale(0.2 -0.2)">
     <defs>
      <path id="DejaVuSans-7b" d="M 3272 -594 
L 3272 -1044 
L 3078 -1044 
Q 2300 -1044 2036 -812 
Q 1772 -581 1772 109 
L 1772 856 
Q 1772 1328 1603 1509 
Q 1434 1691 991 1691 
L 800 1691 
L 800 2138 
L 991 2138 
Q 1438 2138 1605 2317 
Q 1772 2497 1772 2963 
L 1772 3713 
Q 1772 4403 2036 4633 
Q 2300 4863 3078 4863 
L 3272 4863 
L 3272 4416 
L 3059 4416 
Q 2619 4416 2484 4278 
Q 2350 4141 2350 3700 
L 2350 2925 
Q 2350 2434 2208 2212 
Q 2066 1991 1722 1913 
Q 2069 1828 2209 1606 
Q 2350 1384 2350 897 
L 2350 122 
Q 2350 -319 2484 -456 
Q 2619 -594 3059 -594 
L 3272 -594 
z
" transform="scale(0.015625)"/>
      <path id="DejaVuSans-32" d="M 1228 531 
L 3431 531 
L 3431 0 
L 469 0 
L 469 531 
Q 828 903 1448 1529 
Q 2069 2156 2228 2338 
Q 2531 2678 2651 2914 
Q 2772 3150 2772 3378 
Q 2772 3750 2511 3984 
Q 2250 4219 1831 4219 
Q 1534 4219 1204 4116 
Q 875 4013 500 3803 
L 500 4441 
Q 881 4594 1212 4672 
Q 1544 4750 1819 4750 
Q 2544 4750 2975 4387 
Q 3406 4025 3406 3419 
Q 3406 3131 3298 2873 
Q 3191 2616 2906 2266 
Q 2828 2175 2409 1742 
Q 1991 1309 1228 531 
z
" transform="scale(0.015625)"/>
      <path id="DejaVuSans-7d" d="M 800 -594 
L 1019 -594 
Q 1456 -594 1589 -459 
Q 1722 -325 1722 122 
L 1722 897 
Q 1722 1384 1862 1606 
Q 2003 1828 2350 1913 
Q 2003 1991 1862 2212 
Q 1722 2434 1722 2925 
L 1722 3700 
Q 1722 4144 1589 4280 
Q 1456 4416 1019 4416 
L 800 4416 
L 800 4863 
L 997 4863 
Q 1775 4863 2036 4633 
Q 2297 4403 2297 3713 
L 2297 2963 
Q 2297 2497 2465 2317 
Q 2634 2138 3078 2138 
L 3272 2138 
L 3272 1691 
L 3078 1691 
Q 2634 1691 2465 1509 
Q 2297 1328 2297 856 
L 2297 109 
Q 2297 -581 2036 -812 
Q 1775 -1044 997 -1044 
L 800 -1044 
L 800 -594 
z
" transform="scale(0.015625)"/>
      <path id="DejaVuSans-2c" d="M 750 794 
L 1409 794 
L 1409 256 
L 897 -744 
L 494 -744 
L 750 256 
L 750 794 
z
" transform="scale(0.015625)"/>
     </defs>
     <use xlink:href="#DejaVuSans-7b"/>
     <use xlink:href="#DejaVuSans-66" x="63.623047"/>
     <use xlink:href="#DejaVuSans-31" x="98.828125"/>
     <use xlink:href="#DejaVuSans-2d" x="162.451172"/>
     <use xlink:href="#DejaVuSans-66" x="198.535156"/>
     <use xlink:href="#DejaVuSans-32" x="233.740234"/>
     <use xlink:href="#DejaVuSans-34" x="297.363281"/>
     <use xlink:href="#DejaVuSans-7d" x="360.986328"/>
     <use xlink:href="#DejaVuSans-2c" x="424.609375"/>
     <use xlink:href="#DejaVuSans-20" x="456.396484"/>
     <use xlink:href="#DejaVuSans-32" x="488.183594"/>
     <use xlink:href="#DejaVuSans-30" x="551.806641"/>
     <use xlink:href="#DejaVuSans-2d" x="615.429688"/>
     <use xlink:href="#DejaVuSans-44" x="651.513672"/>
    </g>
   </g>
   <g id="text_7">
    <!-- v2.6.3 -->
    <g style="fill: #808080" transform="translate(214.71875 288.777272) scale(0.1 -0.1)">
     <defs>
      <path id="DejaVuSans-76" d="M 191 3500 
L 800 3500 
L 1894 563 
L 2988 3500 
L 3597 3500 
L 2284 0 
L 1503 0 
L 191 3500 
z
" transform="scale(0.015625)"/>
      <path id="DejaVuSans-2e" d="M 684 794 
L 1344 794 
L 1344 0 
L 684 0 
L 684 794 
z
" transform="scale(0.015625)"/>
      <path id="DejaVuSans-36" d="M 2113 2584 
Q 1688 2584 1439 2293 
Q 1191 2003 1191 1497 
Q 1191 994 1439 701 
Q 1688 409 2113 409 
Q 2538 409 2786 701 
Q 3034 994 3034 1497 
Q 3034 2003 2786 2293 
Q 2538 2584 2113 2584 
z
M 3366 4563 
L 3366 3988 
Q 3128 4100 2886 4159 
Q 2644 4219 2406 4219 
Q 1781 4219 1451 3797 
Q 1122 3375 1075 2522 
Q 1259 2794 1537 2939 
Q 1816 3084 2150 3084 
Q 2853 3084 3261 2657 
Q 3669 2231 3669 1497 
Q 3669 778 3244 343 
Q 2819 -91 2113 -91 
Q 1303 -91 875 529 
Q 447 1150 447 2328 
Q 447 3434 972 4092 
Q 1497 4750 2381 4750 
Q 2619 4750 2861 4703 
Q 3103 4656 3366 4563 
z
" transform="scale(0.015625)"/>
      <path id="DejaVuSans-33" d="M 2597 2516 
Q 3050 2419 3304 2112 
Q 3559 1806 3559 1356 
Q 3559 666 3084 287 
Q 2609 -91 1734 -91 
Q 1441 -91 1130 -33 
Q 819 25 488 141 
L 488 750 
Q 750 597 1062 519 
Q 1375 441 1716 441 
Q 2309 441 2620 675 
Q 2931 909 2931 1356 
Q 2931 1769 2642 2001 
Q 2353 2234 1838 2234 
L 1294 2234 
L 1294 2753 
L 1863 2753 
Q 2328 2753 2575 2939 
Q 2822 3125 2822 3475 
Q 2822 3834 2567 4026 
Q 2313 4219 1838 4219 
Q 1578 4219 1281 4162 
Q 984 4106 628 3988 
L 628 4550 
Q 988 4650 1302 4700 
Q 1616 4750 1894 4750 
Q 2613 4750 3031 4423 
Q 3450 4097 3450 3541 
Q 3450 3153 3228 2886 
Q 3006 2619 2597 2516 
z
" transform="scale(0.015625)"/>
     </defs>
     <use xlink:href="#DejaVuSans-76"/>
     <use xlink:href="#DejaVuSans-32" x="59.179688"/>
     <use xlink:href="#DejaVuSans-2e" x="122.802734"/>
     <use xlink:href="#DejaVuSans-36" x="154.589844"/>
     <use xlink:href="#DejaVuSans-2e" x="218.212891"/>
     <use xlink:href="#DejaVuSans-33" x="250"/>
    </g>
   </g>
  </g>
 </g>
 <defs>
  <clipPath id="pc0dc656b07">
   <rect x="0" y="3.456" width="460.8" height="290.304"/>
  </clipPath>
 </defs>
</svg>
