<?xml version="1.0" encoding="utf-8" standalone="no"?>
<!DOCTYPE svg PUBLIC "-//W3C//DTD SVG 1.1//EN"
  "http://www.w3.org/Graphics/SVG/1.1/DTD/svg11.dtd">
<svg xmlns:xlink="http://www.w3.org/1999/xlink" width="460.8pt" height="345.6pt" viewBox="0 0 460.8 345.6" xmlns="http://www.w3.org/2000/svg" version="1.1">
 <metadata>
  <rdf:RDF xmlns:dc="http://purl.org/dc/elements/1.1/" xmlns:cc="http://creativecommons.org/ns#" xmlns:rdf="http://www.w3.org/1999/02/22-rdf-syntax-ns#">
   <cc:Work>
    <dc:type rdf:resource="http://purl.org/dc/dcmitype/StillImage"/>
    <dc:date>2024-01-17T15:30:54.596209</dc:date>
    <dc:format>image/svg+xml</dc:format>
    <dc:creator>
     <cc:Agent>
      <dc:title>Matplotlib v3.8.2, https://matplotlib.org/</dc:title>
     </cc:Agent>
    </dc:creator>
   </cc:Work>
  </rdf:RDF>
 </metadata>
 <defs>
  <style type="text/css">*{stroke-linejoin: round; stroke-linecap: butt}</style>
 </defs>
 <g id="figure_1">
  <g id="patch_1">
   <path d="M 0 345.6 
L 460.8 345.6 
L 460.8 0 
L 0 0 
z
" style="fill: #ffffff"/>
  </g>
  <g id="axes_1">
   <g id="patch_2">
    <path d="M 0 293.76 
L 460.8 293.76 
L 460.8 3.456 
L 0 3.456 
z
" style="fill: #ffffff"/>
   </g>
   <g id="matplotlib.axis_1">
    <g id="xtick_1">
     <g id="line2d_1">
      <path d="M 106.611868 293.76 
L 106.611868 3.456 
" clip-path="url(#p9947c8fa86)" style="fill: none; stroke: #b0b0b0; stroke-width: 0.8; stroke-linecap: square"/>
     </g>
     <g id="line2d_2">
      <defs>
       <path id="mde924cdc59" d="M 0 0 
L 0 3.5 
" style="stroke: #000000; stroke-width: 0.8"/>
      </defs>
      <g>
       <use xlink:href="#mde924cdc59" x="106.611868" y="293.76" style="stroke: #000000; stroke-width: 0.8"/>
      </g>
     </g>
     <g id="text_1">
      <!-- -4 -->
      <g transform="translate(96.641555 315.956875) scale(0.2 -0.2)">
       <defs>
        <path id="DejaVuSans-2d" d="M 313 2009 
L 1997 2009 
L 1997 1497 
L 313 1497 
L 313 2009 
z
" transform="scale(0.015625)"/>
        <path id="DejaVuSans-34" d="M 2419 4116 
L 825 1625 
L 2419 1625 
L 2419 4116 
z
M 2253 4666 
L 3047 4666 
L 3047 1625 
L 3713 1625 
L 3713 1100 
L 3047 1100 
L 3047 0 
L 2419 0 
L 2419 1100 
L 313 1100 
L 313 1709 
L 2253 4666 
z
" transform="scale(0.015625)"/>
       </defs>
       <use xlink:href="#DejaVuSans-2d"/>
       <use xlink:href="#DejaVuSans-34" x="36.083984"/>
      </g>
     </g>
    </g>
    <g id="xtick_2">
     <g id="line2d_3">
      <path d="M 213.339037 293.76 
L 213.339037 3.456 
" clip-path="url(#p9947c8fa86)" style="fill: none; stroke: #b0b0b0; stroke-width: 0.8; stroke-linecap: square"/>
     </g>
     <g id="line2d_4">
      <g>
       <use xlink:href="#mde924cdc59" x="213.339037" y="293.76" style="stroke: #000000; stroke-width: 0.8"/>
      </g>
     </g>
     <g id="text_2">
      <!-- 0 -->
      <g transform="translate(206.976537 315.956875) scale(0.2 -0.2)">
       <defs>
        <path id="DejaVuSans-30" d="M 2034 4250 
Q 1547 4250 1301 3770 
Q 1056 3291 1056 2328 
Q 1056 1369 1301 889 
Q 1547 409 2034 409 
Q 2525 409 2770 889 
Q 3016 1369 3016 2328 
Q 3016 3291 2770 3770 
Q 2525 4250 2034 4250 
z
M 2034 4750 
Q 2819 4750 3233 4129 
Q 3647 3509 3647 2328 
Q 3647 1150 3233 529 
Q 2819 -91 2034 -91 
Q 1250 -91 836 529 
Q 422 1150 422 2328 
Q 422 3509 836 4129 
Q 1250 4750 2034 4750 
z
" transform="scale(0.015625)"/>
       </defs>
       <use xlink:href="#DejaVuSans-30"/>
      </g>
     </g>
    </g>
    <g id="xtick_3">
     <g id="line2d_5">
      <path d="M 320.066207 293.76 
L 320.066207 3.456 
" clip-path="url(#p9947c8fa86)" style="fill: none; stroke: #b0b0b0; stroke-width: 0.8; stroke-linecap: square"/>
     </g>
     <g id="line2d_6">
      <g>
       <use xlink:href="#mde924cdc59" x="320.066207" y="293.76" style="stroke: #000000; stroke-width: 0.8"/>
      </g>
     </g>
     <g id="text_3">
      <!-- 4 -->
      <g transform="translate(313.703707 315.956875) scale(0.2 -0.2)">
       <use xlink:href="#DejaVuSans-34"/>
      </g>
     </g>
    </g>
    <g id="xtick_4">
     <g id="line2d_7">
      <path d="M 426.793377 293.76 
L 426.793377 3.456 
" clip-path="url(#p9947c8fa86)" style="fill: none; stroke: #b0b0b0; stroke-width: 0.8; stroke-linecap: square"/>
     </g>
     <g id="line2d_8">
      <g>
       <use xlink:href="#mde924cdc59" x="426.793377" y="293.76" style="stroke: #000000; stroke-width: 0.8"/>
      </g>
     </g>
     <g id="text_4">
      <!-- 8 -->
      <g transform="translate(420.430877 315.956875) scale(0.2 -0.2)">
       <defs>
        <path id="DejaVuSans-38" d="M 2034 2216 
Q 1584 2216 1326 1975 
Q 1069 1734 1069 1313 
Q 1069 891 1326 650 
Q 1584 409 2034 409 
Q 2484 409 2743 651 
Q 3003 894 3003 1313 
Q 3003 1734 2745 1975 
Q 2488 2216 2034 2216 
z
M 1403 2484 
Q 997 2584 770 2862 
Q 544 3141 544 3541 
Q 544 4100 942 4425 
Q 1341 4750 2034 4750 
Q 2731 4750 3128 4425 
Q 3525 4100 3525 3541 
Q 3525 3141 3298 2862 
Q 3072 2584 2669 2484 
Q 3125 2378 3379 2068 
Q 3634 1759 3634 1313 
Q 3634 634 3220 271 
Q 2806 -91 2034 -91 
Q 1263 -91 848 271 
Q 434 634 434 1313 
Q 434 1759 690 2068 
Q 947 2378 1403 2484 
z
M 1172 3481 
Q 1172 3119 1398 2916 
Q 1625 2713 2034 2713 
Q 2441 2713 2670 2916 
Q 2900 3119 2900 3481 
Q 2900 3844 2670 4047 
Q 2441 4250 2034 4250 
Q 1625 4250 1398 4047 
Q 1172 3844 1172 3481 
z
" transform="scale(0.015625)"/>
       </defs>
       <use xlink:href="#DejaVuSans-38"/>
      </g>
     </g>
    </g>
    <g id="text_5">
     <!-- log10 of Df -->
     <g transform="translate(175.214063 339.313125) scale(0.2 -0.2)">
      <defs>
       <path id="DejaVuSans-6c" d="M 603 4863 
L 1178 4863 
L 1178 0 
L 603 0 
L 603 4863 
z
" transform="scale(0.015625)"/>
       <path id="DejaVuSans-6f" d="M 1959 3097 
Q 1497 3097 1228 2736 
Q 959 2375 959 1747 
Q 959 1119 1226 758 
Q 1494 397 1959 397 
Q 2419 397 2687 759 
Q 2956 1122 2956 1747 
Q 2956 2369 2687 2733 
Q 2419 3097 1959 3097 
z
M 1959 3584 
Q 2709 3584 3137 3096 
Q 3566 2609 3566 1747 
Q 3566 888 3137 398 
Q 2709 -91 1959 -91 
Q 1206 -91 779 398 
Q 353 888 353 1747 
Q 353 2609 779 3096 
Q 1206 3584 1959 3584 
z
" transform="scale(0.015625)"/>
       <path id="DejaVuSans-67" d="M 2906 1791 
Q 2906 2416 2648 2759 
Q 2391 3103 1925 3103 
Q 1463 3103 1205 2759 
Q 947 2416 947 1791 
Q 947 1169 1205 825 
Q 1463 481 1925 481 
Q 2391 481 2648 825 
Q 2906 1169 2906 1791 
z
M 3481 434 
Q 3481 -459 3084 -895 
Q 2688 -1331 1869 -1331 
Q 1566 -1331 1297 -1286 
Q 1028 -1241 775 -1147 
L 775 -588 
Q 1028 -725 1275 -790 
Q 1522 -856 1778 -856 
Q 2344 -856 2625 -561 
Q 2906 -266 2906 331 
L 2906 616 
Q 2728 306 2450 153 
Q 2172 0 1784 0 
Q 1141 0 747 490 
Q 353 981 353 1791 
Q 353 2603 747 3093 
Q 1141 3584 1784 3584 
Q 2172 3584 2450 3431 
Q 2728 3278 2906 2969 
L 2906 3500 
L 3481 3500 
L 3481 434 
z
" transform="scale(0.015625)"/>
       <path id="DejaVuSans-31" d="M 794 531 
L 1825 531 
L 1825 4091 
L 703 3866 
L 703 4441 
L 1819 4666 
L 2450 4666 
L 2450 531 
L 3481 531 
L 3481 0 
L 794 0 
L 794 531 
z
" transform="scale(0.015625)"/>
       <path id="DejaVuSans-20" transform="scale(0.015625)"/>
       <path id="DejaVuSans-66" d="M 2375 4863 
L 2375 4384 
L 1825 4384 
Q 1516 4384 1395 4259 
Q 1275 4134 1275 3809 
L 1275 3500 
L 2222 3500 
L 2222 3053 
L 1275 3053 
L 1275 0 
L 697 0 
L 697 3053 
L 147 3053 
L 147 3500 
L 697 3500 
L 697 3744 
Q 697 4328 969 4595 
Q 1241 4863 1831 4863 
L 2375 4863 
z
" transform="scale(0.015625)"/>
       <path id="DejaVuSans-44" d="M 1259 4147 
L 1259 519 
L 2022 519 
Q 2988 519 3436 956 
Q 3884 1394 3884 2338 
Q 3884 3275 3436 3711 
Q 2988 4147 2022 4147 
L 1259 4147 
z
M 628 4666 
L 1925 4666 
Q 3281 4666 3915 4102 
Q 4550 3538 4550 2338 
Q 4550 1131 3912 565 
Q 3275 0 1925 0 
L 628 0 
L 628 4666 
z
" transform="scale(0.015625)"/>
      </defs>
      <use xlink:href="#DejaVuSans-6c"/>
      <use xlink:href="#DejaVuSans-6f" x="27.783203"/>
      <use xlink:href="#DejaVuSans-67" x="88.964844"/>
      <use xlink:href="#DejaVuSans-31" x="152.441406"/>
      <use xlink:href="#DejaVuSans-30" x="216.064453"/>
      <use xlink:href="#DejaVuSans-20" x="279.6875"/>
      <use xlink:href="#DejaVuSans-6f" x="311.474609"/>
      <use xlink:href="#DejaVuSans-66" x="372.65625"/>
      <use xlink:href="#DejaVuSans-20" x="407.861328"/>
      <use xlink:href="#DejaVuSans-44" x="439.648438"/>
      <use xlink:href="#DejaVuSans-66" x="516.650391"/>
     </g>
    </g>
   </g>
   <g id="matplotlib.axis_2">
    <g id="ytick_1">
     <g id="line2d_9">
      <path d="M 0 293.76 
L 460.8 293.76 
" clip-path="url(#p9947c8fa86)" style="fill: none; stroke: #b0b0b0; stroke-width: 0.8; stroke-linecap: square"/>
     </g>
     <g id="line2d_10">
      <defs>
       <path id="m8d04c58d2a" d="M 0 0 
L -3.5 0 
" style="stroke: #000000; stroke-width: 0.8"/>
      </defs>
      <g>
       <use xlink:href="#m8d04c58d2a" x="0" y="293.76" style="stroke: #000000; stroke-width: 0.8"/>
      </g>
     </g>
    </g>
    <g id="ytick_2">
     <g id="line2d_11">
      <path d="M 0 236.274059 
L 460.8 236.274059 
" clip-path="url(#p9947c8fa86)" style="fill: none; stroke: #b0b0b0; stroke-width: 0.8; stroke-linecap: square"/>
     </g>
     <g id="line2d_12">
      <g>
       <use xlink:href="#m8d04c58d2a" x="0" y="236.274059" style="stroke: #000000; stroke-width: 0.8"/>
      </g>
     </g>
    </g>
    <g id="ytick_3">
     <g id="line2d_13">
      <path d="M 0 178.788119 
L 460.8 178.788119 
" clip-path="url(#p9947c8fa86)" style="fill: none; stroke: #b0b0b0; stroke-width: 0.8; stroke-linecap: square"/>
     </g>
     <g id="line2d_14">
      <g>
       <use xlink:href="#m8d04c58d2a" x="0" y="178.788119" style="stroke: #000000; stroke-width: 0.8"/>
      </g>
     </g>
    </g>
    <g id="ytick_4">
     <g id="line2d_15">
      <path d="M 0 121.302178 
L 460.8 121.302178 
" clip-path="url(#p9947c8fa86)" style="fill: none; stroke: #b0b0b0; stroke-width: 0.8; stroke-linecap: square"/>
     </g>
     <g id="line2d_16">
      <g>
       <use xlink:href="#m8d04c58d2a" x="0" y="121.302178" style="stroke: #000000; stroke-width: 0.8"/>
      </g>
     </g>
    </g>
    <g id="ytick_5">
     <g id="line2d_17">
      <path d="M 0 63.816238 
L 460.8 63.816238 
" clip-path="url(#p9947c8fa86)" style="fill: none; stroke: #b0b0b0; stroke-width: 0.8; stroke-linecap: square"/>
     </g>
     <g id="line2d_18">
      <g>
       <use xlink:href="#m8d04c58d2a" x="0" y="63.816238" style="stroke: #000000; stroke-width: 0.8"/>
      </g>
     </g>
    </g>
    <g id="ytick_6">
     <g id="line2d_19">
      <path d="M 0 6.330297 
L 460.8 6.330297 
" clip-path="url(#p9947c8fa86)" style="fill: none; stroke: #b0b0b0; stroke-width: 0.8; stroke-linecap: square"/>
     </g>
     <g id="line2d_20">
      <g>
       <use xlink:href="#m8d04c58d2a" x="0" y="6.330297" style="stroke: #000000; stroke-width: 0.8"/>
      </g>
     </g>
    </g>
   </g>
   <g id="line2d_21">
    <path d="M 225.819059 293.76 
L 225.819059 289.927604 
L 226.161265 289.927604 
L 226.161265 286.095208 
L 227.566046 286.095208 
L 227.566046 282.262812 
L 227.768678 282.262812 
L 227.768678 278.430416 
L 229.872264 278.430416 
L 229.872264 274.59802 
L 232.625692 274.59802 
L 232.625692 270.765624 
L 234.578406 270.765624 
L 234.578406 266.933228 
L 236.041664 266.933228 
L 236.041664 263.100832 
L 243.850945 263.100832 
L 243.850945 259.268436 
L 250.553423 259.268436 
L 250.553423 255.43604 
L 250.916457 255.43604 
L 250.916457 251.603644 
L 253.324624 251.603644 
L 253.324624 247.771248 
L 257.139183 247.771248 
L 257.139183 243.938851 
L 258.229592 243.938851 
L 258.229592 240.106455 
L 259.204377 240.106455 
L 259.204377 236.274059 
L 265.449942 236.274059 
L 265.449942 232.441663 
L 272.174051 232.441663 
L 272.174051 228.609267 
L 278.495593 228.609267 
L 278.495593 224.776871 
L 279.378521 224.776871 
L 279.378521 220.944475 
L 279.550484 220.944475 
L 279.550484 217.112079 
L 280.892113 217.112079 
L 280.892113 213.279683 
L 281.325398 213.279683 
L 281.325398 209.447287 
L 281.851774 209.447287 
L 281.851774 205.614891 
L 282.061697 205.614891 
L 282.061697 201.782495 
L 283.921039 201.782495 
L 283.921039 197.950099 
L 284.746925 197.950099 
L 284.746925 194.117703 
L 285.308726 194.117703 
L 285.308726 190.285307 
L 285.913453 190.285307 
L 285.913453 186.452911 
L 286.642879 186.452911 
L 286.642879 182.620515 
L 287.387457 182.620515 
L 287.387457 178.788119 
L 293.388231 178.788119 
L 293.388231 174.955723 
L 308.895774 174.955723 
L 308.895774 171.123327 
L 317.855632 171.123327 
L 317.855632 167.290931 
L 321.590243 167.290931 
L 321.590243 163.458535 
L 326.821259 163.458535 
L 326.821259 159.626139 
L 330.561639 159.626139 
L 330.561639 155.793743 
L 333.229365 155.793743 
L 333.229365 151.961347 
L 354.125141 151.961347 
L 354.125141 148.12895 
L 355.182458 148.12895 
L 355.182458 144.296554 
L 357.682592 144.296554 
L 357.682592 140.464158 
L 357.997928 140.464158 
L 357.997928 136.631762 
L 360.449831 136.631762 
L 360.449831 132.799366 
L 362.708266 132.799366 
L 362.708266 128.96697 
L 363.457715 128.96697 
L 363.457715 125.134574 
L 366.05427 125.134574 
L 366.05427 121.302178 
L 366.215389 121.302178 
L 366.215389 117.469782 
L 366.35104 117.469782 
L 366.35104 113.637386 
L 367.348232 113.637386 
L 367.348232 109.80499 
L 369.142361 109.80499 
L 369.142361 105.972594 
L 370.36931 105.972594 
L 370.380418 98.307802 
L 371.206327 98.307802 
L 371.206327 94.475406 
L 374.916451 94.475406 
L 374.916451 90.64301 
L 375.55495 90.64301 
L 375.55495 86.810614 
L 376.672283 86.810614 
L 376.672283 82.978218 
L 380.353662 82.978218 
L 380.353662 79.145822 
L 380.687116 79.145822 
L 380.687116 75.313426 
L 382.031322 75.313426 
L 382.031322 71.48103 
L 383.271068 71.48103 
L 383.318372 63.816238 
L 384.784336 63.816238 
L 384.784336 59.983842 
L 385.387488 59.983842 
L 385.387488 56.151446 
L 386.691834 56.151446 
L 386.691834 52.31905 
L 386.876503 52.31905 
L 386.876503 48.486653 
L 389.351574 48.486653 
L 389.351574 44.654257 
L 395.856107 44.654257 
L 395.856107 40.821861 
L 398.806253 40.821861 
L 398.806253 36.989465 
L 399.852445 36.989465 
L 399.852445 33.157069 
L 401.822983 33.157069 
L 401.822983 29.324673 
L 403.960959 29.324673 
L 403.960959 25.492277 
L 407.697264 25.492277 
L 407.697264 21.659881 
L 416.697109 21.659881 
L 416.697109 17.827485 
L 418.701324 17.827485 
L 418.701324 13.995089 
L 425.443687 13.995089 
L 425.443687 10.162693 
L 427.721609 10.162693 
L 427.721609 6.330297 
L 427.721609 6.330297 
L 460.8 6.330297 
L 460.8 6.330297 
" clip-path="url(#p9947c8fa86)" style="fill: none; stroke: #ff0000; stroke-width: 3; stroke-linecap: square"/>
   </g>
   <g id="line2d_22">
    <path d="M 226.181175 293.76 
L 226.181175 289.927604 
L 230.582449 289.927604 
L 230.582449 286.095208 
L 233.366731 286.095208 
L 233.366731 282.262812 
L 233.689255 282.262812 
L 233.689255 278.430416 
L 246.775384 278.430416 
L 246.775384 274.59802 
L 249.456654 274.59802 
L 249.456654 270.765624 
L 250.916047 270.765624 
L 250.916047 266.933228 
L 251.134151 266.933228 
L 251.134151 263.100832 
L 254.797943 263.100832 
L 254.797943 259.268436 
L 256.707268 259.268436 
L 256.707268 255.43604 
L 257.854521 255.43604 
L 257.854521 251.603644 
L 259.688342 251.603644 
L 259.688342 247.771248 
L 261.468848 247.771248 
L 261.468848 243.938851 
L 266.026849 243.938851 
L 266.026849 240.106455 
L 266.456157 240.106455 
L 266.456157 236.274059 
L 286.446266 236.274059 
L 286.446266 232.441663 
L 288.934584 232.441663 
L 288.934584 228.609267 
L 289.214486 228.609267 
L 289.214486 224.776871 
L 290.573395 224.776871 
L 290.573395 220.944475 
L 290.957271 220.944475 
L 290.957271 217.112079 
L 291.156328 217.112079 
L 291.156328 213.279683 
L 292.165046 213.279683 
L 292.165046 209.447287 
L 292.605507 209.447287 
L 292.605507 205.614891 
L 293.928978 205.614891 
L 293.928978 201.782495 
L 294.985318 201.782495 
L 294.985318 197.950099 
L 295.273752 197.950099 
L 295.273752 194.117703 
L 296.130726 194.117703 
L 296.130726 190.285307 
L 296.397353 190.285307 
L 296.397353 186.452911 
L 297.30486 186.452911 
L 297.30486 182.620515 
L 300.528849 182.620515 
L 300.528849 178.788119 
L 300.909873 178.788119 
L 300.909873 174.955723 
L 332.47473 174.955723 
L 332.47473 171.123327 
L 336.323315 171.123327 
L 336.323315 167.290931 
L 346.46857 167.290931 
L 346.46857 163.458535 
L 348.572035 163.458535 
L 348.572035 159.626139 
L 360.652888 159.626139 
L 360.652888 155.793743 
L 362.273577 155.793743 
L 362.273577 151.961347 
L 381.467136 151.961347 
L 381.467136 148.12895 
L 381.836565 148.12895 
L 381.836565 144.296554 
L 383.146435 144.296554 
L 383.146435 140.464158 
L 383.341896 140.464158 
L 383.341896 136.631762 
L 384.628845 136.631762 
L 384.628845 132.799366 
L 387.65353 132.799366 
L 387.65353 128.96697 
L 387.831104 128.96697 
L 387.831104 125.134574 
L 388.355051 125.134574 
L 388.355051 121.302178 
L 390.549243 121.302178 
L 390.549243 117.469782 
L 392.359841 117.469782 
L 392.359841 113.637386 
L 392.876619 113.637386 
L 392.876619 109.80499 
L 393.069003 109.80499 
L 393.069003 105.972594 
L 394.030009 105.972594 
L 394.030009 102.140198 
L 394.263349 102.140198 
L 394.263349 98.307802 
L 394.408583 98.307802 
L 394.411262 90.64301 
L 394.976938 90.64301 
L 394.976938 86.810614 
L 395.324152 86.810614 
L 395.324152 82.978218 
L 395.539726 82.978218 
L 395.539726 79.145822 
L 396.72643 79.145822 
L 396.72643 75.313426 
L 400.683885 75.313426 
L 400.683885 71.48103 
L 401.074721 71.48103 
L 401.074721 67.648634 
L 402.530403 67.648634 
L 402.530403 63.816238 
L 403.1279 63.816238 
L 403.1279 59.983842 
L 405.887687 59.983842 
L 405.887687 56.151446 
L 406.277914 56.151446 
L 406.277914 52.31905 
L 407.591535 52.31905 
L 407.591535 48.486653 
L 411.404544 48.486653 
L 411.404544 44.654257 
L 413.861265 44.654257 
L 413.861265 40.821861 
L 416.665113 40.821861 
L 416.665113 36.989465 
L 416.820123 36.989465 
L 416.851039 29.324673 
L 417.387714 29.324673 
L 417.387714 25.492277 
L 420.839646 25.492277 
L 420.839646 21.659881 
L 431.666325 21.659881 
L 431.666325 17.827485 
L 432.537901 17.827485 
L 432.537901 13.995089 
L 441.380497 13.995089 
L 441.380497 10.162693 
L 448.252015 10.162693 
L 448.252015 6.330297 
L 448.252015 6.330297 
L 460.8 6.330297 
L 460.8 6.330297 
" clip-path="url(#p9947c8fa86)" style="fill: none; stroke: #00bfbf; stroke-width: 1.5; stroke-linecap: square"/>
   </g>
   <g id="line2d_23">
    <path d="M 225.819059 293.76 
L 225.819059 289.927604 
L 229.872264 289.927604 
L 229.872264 286.095208 
L 233.223573 286.095208 
L 233.273081 278.430416 
L 246.031108 278.430416 
L 246.031108 274.59802 
L 249.069131 274.59802 
L 249.069131 270.765624 
L 250.553423 270.765624 
L 250.553423 266.933228 
L 250.916457 266.933228 
L 250.916457 263.100832 
L 254.336741 263.100832 
L 254.336741 259.268436 
L 256.288698 259.268436 
L 256.288698 255.43604 
L 257.139183 255.43604 
L 257.139183 251.603644 
L 259.631012 251.603644 
L 259.631012 247.771248 
L 260.913923 247.771248 
L 260.913923 243.938851 
L 265.748304 243.938851 
L 265.804105 236.274059 
L 275.051943 236.274059 
L 275.051943 232.441663 
L 286.19377 232.441663 
L 286.19377 228.609267 
L 288.630806 228.609267 
L 288.630806 224.776871 
L 289.214486 224.776871 
L 289.214486 220.944475 
L 290.331573 220.944475 
L 290.331573 217.112079 
L 290.884956 217.112079 
L 290.884956 213.279683 
L 291.975805 213.279683 
L 291.975805 209.447287 
L 292.419101 209.447287 
L 292.419101 205.614891 
L 293.85332 205.614891 
L 293.85332 201.782495 
L 294.878107 201.782495 
L 294.878107 197.950099 
L 295.095285 197.950099 
L 295.095285 194.117703 
L 296.000597 194.117703 
L 296.000597 190.285307 
L 296.216775 190.285307 
L 296.216775 186.452911 
L 297.30486 186.452911 
L 297.30486 182.620515 
L 300.528849 182.620515 
L 300.528849 178.788119 
L 300.879052 178.788119 
L 300.879052 174.955723 
L 327.215222 174.955723 
L 327.215222 171.123327 
L 332.212095 171.123327 
L 332.212095 167.290931 
L 337.714959 167.290931 
L 337.714959 163.458535 
L 342.966662 163.458535 
L 342.966662 159.626139 
L 358.82892 159.626139 
L 358.82892 155.793743 
L 360.351101 155.793743 
L 360.351101 151.961347 
L 381.172396 151.961347 
L 381.172396 148.12895 
L 381.611207 148.12895 
L 381.611207 144.296554 
L 382.128513 144.296554 
L 382.13245 136.631762 
L 384.191408 136.631762 
L 384.191408 132.799366 
L 386.148061 132.799366 
L 386.148061 128.96697 
L 387.640948 128.96697 
L 387.65353 121.302178 
L 389.933146 121.302178 
L 389.933146 117.469782 
L 392.176769 117.469782 
L 392.176769 113.637386 
L 392.563458 113.637386 
L 392.622708 105.972594 
L 393.247743 105.972594 
L 393.247743 102.140198 
L 393.867629 102.140198 
L 393.867629 98.307802 
L 394.079464 98.307802 
L 394.188015 90.64301 
L 394.39363 90.64301 
L 394.39363 86.810614 
L 394.667858 86.810614 
L 394.667858 82.978218 
L 394.863097 82.978218 
L 394.863097 79.145822 
L 396.330233 79.145822 
L 396.330233 75.313426 
L 400.291054 75.313426 
L 400.291054 71.48103 
L 400.827136 71.48103 
L 400.827136 67.648634 
L 402.412537 67.648634 
L 402.412537 63.816238 
L 402.659991 63.816238 
L 402.659991 59.983842 
L 405.366685 59.983842 
L 405.366685 56.151446 
L 405.873848 56.151446 
L 405.873848 52.31905 
L 407.189244 52.31905 
L 407.189244 48.486653 
L 411.393133 48.486653 
L 411.393133 44.654257 
L 413.556767 44.654257 
L 413.556767 40.821861 
L 415.931548 40.821861 
L 415.935932 33.157069 
L 416.591428 33.157069 
L 416.591428 29.324673 
L 416.870426 29.324673 
L 416.870426 25.492277 
L 420.074547 25.492277 
L 420.074547 21.659881 
L 431.318252 21.659881 
L 431.318252 17.827485 
L 432.172944 17.827485 
L 432.172944 13.995089 
L 441.22176 13.995089 
L 441.22176 10.162693 
L 447.319851 10.162693 
L 447.319851 6.330297 
L 447.319851 6.330297 
L 460.8 6.330297 
L 460.8 6.330297 
" clip-path="url(#p9947c8fa86)" style="fill: none; stroke: #bf00bf; stroke-width: 1.5; stroke-linecap: square"/>
   </g>
   <g id="patch_3">
    <path d="M 0 293.76 
L 0 3.456 
" style="fill: none; stroke: #000000; stroke-width: 0.8; stroke-linejoin: miter; stroke-linecap: square"/>
   </g>
   <g id="patch_4">
    <path d="M 460.8 293.76 
L 460.8 3.456 
" style="fill: none; stroke: #000000; stroke-width: 0.8; stroke-linejoin: miter; stroke-linecap: square"/>
   </g>
   <g id="patch_5">
    <path d="M 0 293.76 
L 460.8 293.76 
" style="fill: none; stroke: #000000; stroke-width: 0.8; stroke-linejoin: miter; stroke-linecap: square"/>
   </g>
   <g id="patch_6">
    <path d="M 0 3.456 
L 460.8 3.456 
" style="fill: none; stroke: #000000; stroke-width: 0.8; stroke-linejoin: miter; stroke-linecap: square"/>
   </g>
   <g id="text_6">
    <!-- {f10-f14}, 5-D -->
    <g transform="translate(305.884 287.95392) scale(0.2 -0.2)">
     <defs>
      <path id="DejaVuSans-7b" d="M 3272 -594 
L 3272 -1044 
L 3078 -1044 
Q 2300 -1044 2036 -812 
Q 1772 -581 1772 109 
L 1772 856 
Q 1772 1328 1603 1509 
Q 1434 1691 991 1691 
L 800 1691 
L 800 2138 
L 991 2138 
Q 1438 2138 1605 2317 
Q 1772 2497 1772 2963 
L 1772 3713 
Q 1772 4403 2036 4633 
Q 2300 4863 3078 4863 
L 3272 4863 
L 3272 4416 
L 3059 4416 
Q 2619 4416 2484 4278 
Q 2350 4141 2350 3700 
L 2350 2925 
Q 2350 2434 2208 2212 
Q 2066 1991 1722 1913 
Q 2069 1828 2209 1606 
Q 2350 1384 2350 897 
L 2350 122 
Q 2350 -319 2484 -456 
Q 2619 -594 3059 -594 
L 3272 -594 
z
" transform="scale(0.015625)"/>
      <path id="DejaVuSans-7d" d="M 800 -594 
L 1019 -594 
Q 1456 -594 1589 -459 
Q 1722 -325 1722 122 
L 1722 897 
Q 1722 1384 1862 1606 
Q 2003 1828 2350 1913 
Q 2003 1991 1862 2212 
Q 1722 2434 1722 2925 
L 1722 3700 
Q 1722 4144 1589 4280 
Q 1456 4416 1019 4416 
L 800 4416 
L 800 4863 
L 997 4863 
Q 1775 4863 2036 4633 
Q 2297 4403 2297 3713 
L 2297 2963 
Q 2297 2497 2465 2317 
Q 2634 2138 3078 2138 
L 3272 2138 
L 3272 1691 
L 3078 1691 
Q 2634 1691 2465 1509 
Q 2297 1328 2297 856 
L 2297 109 
Q 2297 -581 2036 -812 
Q 1775 -1044 997 -1044 
L 800 -1044 
L 800 -594 
z
" transform="scale(0.015625)"/>
      <path id="DejaVuSans-2c" d="M 750 794 
L 1409 794 
L 1409 256 
L 897 -744 
L 494 -744 
L 750 256 
L 750 794 
z
" transform="scale(0.015625)"/>
      <path id="DejaVuSans-35" d="M 691 4666 
L 3169 4666 
L 3169 4134 
L 1269 4134 
L 1269 2991 
Q 1406 3038 1543 3061 
Q 1681 3084 1819 3084 
Q 2600 3084 3056 2656 
Q 3513 2228 3513 1497 
Q 3513 744 3044 326 
Q 2575 -91 1722 -91 
Q 1428 -91 1123 -41 
Q 819 9 494 109 
L 494 744 
Q 775 591 1075 516 
Q 1375 441 1709 441 
Q 2250 441 2565 725 
Q 2881 1009 2881 1497 
Q 2881 1984 2565 2268 
Q 2250 2553 1709 2553 
Q 1456 2553 1204 2497 
Q 953 2441 691 2322 
L 691 4666 
z
" transform="scale(0.015625)"/>
     </defs>
     <use xlink:href="#DejaVuSans-7b"/>
     <use xlink:href="#DejaVuSans-66" x="63.623047"/>
     <use xlink:href="#DejaVuSans-31" x="98.828125"/>
     <use xlink:href="#DejaVuSans-30" x="162.451172"/>
     <use xlink:href="#DejaVuSans-2d" x="226.074219"/>
     <use xlink:href="#DejaVuSans-66" x="262.158203"/>
     <use xlink:href="#DejaVuSans-31" x="297.363281"/>
     <use xlink:href="#DejaVuSans-34" x="360.986328"/>
     <use xlink:href="#DejaVuSans-7d" x="424.609375"/>
     <use xlink:href="#DejaVuSans-2c" x="488.232422"/>
     <use xlink:href="#DejaVuSans-20" x="520.019531"/>
     <use xlink:href="#DejaVuSans-35" x="551.806641"/>
     <use xlink:href="#DejaVuSans-2d" x="615.429688"/>
     <use xlink:href="#DejaVuSans-44" x="651.513672"/>
    </g>
   </g>
   <g id="text_7">
    <!-- v2.6.3 -->
    <g style="fill: #808080" transform="translate(214.71875 288.777272) scale(0.1 -0.1)">
     <defs>
      <path id="DejaVuSans-76" d="M 191 3500 
L 800 3500 
L 1894 563 
L 2988 3500 
L 3597 3500 
L 2284 0 
L 1503 0 
L 191 3500 
z
" transform="scale(0.015625)"/>
      <path id="DejaVuSans-32" d="M 1228 531 
L 3431 531 
L 3431 0 
L 469 0 
L 469 531 
Q 828 903 1448 1529 
Q 2069 2156 2228 2338 
Q 2531 2678 2651 2914 
Q 2772 3150 2772 3378 
Q 2772 3750 2511 3984 
Q 2250 4219 1831 4219 
Q 1534 4219 1204 4116 
Q 875 4013 500 3803 
L 500 4441 
Q 881 4594 1212 4672 
Q 1544 4750 1819 4750 
Q 2544 4750 2975 4387 
Q 3406 4025 3406 3419 
Q 3406 3131 3298 2873 
Q 3191 2616 2906 2266 
Q 2828 2175 2409 1742 
Q 1991 1309 1228 531 
z
" transform="scale(0.015625)"/>
      <path id="DejaVuSans-2e" d="M 684 794 
L 1344 794 
L 1344 0 
L 684 0 
L 684 794 
z
" transform="scale(0.015625)"/>
      <path id="DejaVuSans-36" d="M 2113 2584 
Q 1688 2584 1439 2293 
Q 1191 2003 1191 1497 
Q 1191 994 1439 701 
Q 1688 409 2113 409 
Q 2538 409 2786 701 
Q 3034 994 3034 1497 
Q 3034 2003 2786 2293 
Q 2538 2584 2113 2584 
z
M 3366 4563 
L 3366 3988 
Q 3128 4100 2886 4159 
Q 2644 4219 2406 4219 
Q 1781 4219 1451 3797 
Q 1122 3375 1075 2522 
Q 1259 2794 1537 2939 
Q 1816 3084 2150 3084 
Q 2853 3084 3261 2657 
Q 3669 2231 3669 1497 
Q 3669 778 3244 343 
Q 2819 -91 2113 -91 
Q 1303 -91 875 529 
Q 447 1150 447 2328 
Q 447 3434 972 4092 
Q 1497 4750 2381 4750 
Q 2619 4750 2861 4703 
Q 3103 4656 3366 4563 
z
" transform="scale(0.015625)"/>
      <path id="DejaVuSans-33" d="M 2597 2516 
Q 3050 2419 3304 2112 
Q 3559 1806 3559 1356 
Q 3559 666 3084 287 
Q 2609 -91 1734 -91 
Q 1441 -91 1130 -33 
Q 819 25 488 141 
L 488 750 
Q 750 597 1062 519 
Q 1375 441 1716 441 
Q 2309 441 2620 675 
Q 2931 909 2931 1356 
Q 2931 1769 2642 2001 
Q 2353 2234 1838 2234 
L 1294 2234 
L 1294 2753 
L 1863 2753 
Q 2328 2753 2575 2939 
Q 2822 3125 2822 3475 
Q 2822 3834 2567 4026 
Q 2313 4219 1838 4219 
Q 1578 4219 1281 4162 
Q 984 4106 628 3988 
L 628 4550 
Q 988 4650 1302 4700 
Q 1616 4750 1894 4750 
Q 2613 4750 3031 4423 
Q 3450 4097 3450 3541 
Q 3450 3153 3228 2886 
Q 3006 2619 2597 2516 
z
" transform="scale(0.015625)"/>
     </defs>
     <use xlink:href="#DejaVuSans-76"/>
     <use xlink:href="#DejaVuSans-32" x="59.179688"/>
     <use xlink:href="#DejaVuSans-2e" x="122.802734"/>
     <use xlink:href="#DejaVuSans-36" x="154.589844"/>
     <use xlink:href="#DejaVuSans-2e" x="218.212891"/>
     <use xlink:href="#DejaVuSans-33" x="250"/>
    </g>
   </g>
  </g>
 </g>
 <defs>
  <clipPath id="p9947c8fa86">
   <rect x="0" y="3.456" width="460.8" height="290.304"/>
  </clipPath>
 </defs>
</svg>
