<?xml version="1.0" encoding="utf-8" standalone="no"?>
<!DOCTYPE svg PUBLIC "-//W3C//DTD SVG 1.1//EN"
  "http://www.w3.org/Graphics/SVG/1.1/DTD/svg11.dtd">
<svg xmlns:xlink="http://www.w3.org/1999/xlink" width="460.8pt" height="345.6pt" viewBox="0 0 460.8 345.6" xmlns="http://www.w3.org/2000/svg" version="1.1">
 <metadata>
  <rdf:RDF xmlns:dc="http://purl.org/dc/elements/1.1/" xmlns:cc="http://creativecommons.org/ns#" xmlns:rdf="http://www.w3.org/1999/02/22-rdf-syntax-ns#">
   <cc:Work>
    <dc:type rdf:resource="http://purl.org/dc/dcmitype/StillImage"/>
    <dc:date>2024-01-17T15:30:58.075819</dc:date>
    <dc:format>image/svg+xml</dc:format>
    <dc:creator>
     <cc:Agent>
      <dc:title>Matplotlib v3.8.2, https://matplotlib.org/</dc:title>
     </cc:Agent>
    </dc:creator>
   </cc:Work>
  </rdf:RDF>
 </metadata>
 <defs>
  <style type="text/css">*{stroke-linejoin: round; stroke-linecap: butt}</style>
 </defs>
 <g id="figure_1">
  <g id="patch_1">
   <path d="M 0 345.6 
L 460.8 345.6 
L 460.8 0 
L 0 0 
z
" style="fill: #ffffff"/>
  </g>
  <g id="axes_1">
   <g id="patch_2">
    <path d="M 0 293.76 
L 460.8 293.76 
L 460.8 3.456 
L 0 3.456 
z
" style="fill: #ffffff"/>
   </g>
   <g id="matplotlib.axis_1">
    <g id="xtick_1">
     <g id="line2d_1">
      <path d="M 104.5682 293.76 
L 104.5682 3.456 
" clip-path="url(#p7abfd3ec50)" style="fill: none; stroke: #b0b0b0; stroke-width: 0.8; stroke-linecap: square"/>
     </g>
     <g id="line2d_2">
      <defs>
       <path id="m4c95dec7f3" d="M 0 0 
L 0 3.5 
" style="stroke: #000000; stroke-width: 0.8"/>
      </defs>
      <g>
       <use xlink:href="#m4c95dec7f3" x="104.5682" y="293.76" style="stroke: #000000; stroke-width: 0.8"/>
      </g>
     </g>
     <g id="text_1">
      <!-- -4 -->
      <g transform="translate(94.597887 315.956875) scale(0.2 -0.2)">
       <defs>
        <path id="DejaVuSans-2d" d="M 313 2009 
L 1997 2009 
L 1997 1497 
L 313 1497 
L 313 2009 
z
" transform="scale(0.015625)"/>
        <path id="DejaVuSans-34" d="M 2419 4116 
L 825 1625 
L 2419 1625 
L 2419 4116 
z
M 2253 4666 
L 3047 4666 
L 3047 1625 
L 3713 1625 
L 3713 1100 
L 3047 1100 
L 3047 0 
L 2419 0 
L 2419 1100 
L 313 1100 
L 313 1709 
L 2253 4666 
z
" transform="scale(0.015625)"/>
       </defs>
       <use xlink:href="#DejaVuSans-2d"/>
       <use xlink:href="#DejaVuSans-34" x="36.083984"/>
      </g>
     </g>
    </g>
    <g id="xtick_2">
     <g id="line2d_3">
      <path d="M 209.249491 293.76 
L 209.249491 3.456 
" clip-path="url(#p7abfd3ec50)" style="fill: none; stroke: #b0b0b0; stroke-width: 0.8; stroke-linecap: square"/>
     </g>
     <g id="line2d_4">
      <g>
       <use xlink:href="#m4c95dec7f3" x="209.249491" y="293.76" style="stroke: #000000; stroke-width: 0.8"/>
      </g>
     </g>
     <g id="text_2">
      <!-- 0 -->
      <g transform="translate(202.886991 315.956875) scale(0.2 -0.2)">
       <defs>
        <path id="DejaVuSans-30" d="M 2034 4250 
Q 1547 4250 1301 3770 
Q 1056 3291 1056 2328 
Q 1056 1369 1301 889 
Q 1547 409 2034 409 
Q 2525 409 2770 889 
Q 3016 1369 3016 2328 
Q 3016 3291 2770 3770 
Q 2525 4250 2034 4250 
z
M 2034 4750 
Q 2819 4750 3233 4129 
Q 3647 3509 3647 2328 
Q 3647 1150 3233 529 
Q 2819 -91 2034 -91 
Q 1250 -91 836 529 
Q 422 1150 422 2328 
Q 422 3509 836 4129 
Q 1250 4750 2034 4750 
z
" transform="scale(0.015625)"/>
       </defs>
       <use xlink:href="#DejaVuSans-30"/>
      </g>
     </g>
    </g>
    <g id="xtick_3">
     <g id="line2d_5">
      <path d="M 313.930783 293.76 
L 313.930783 3.456 
" clip-path="url(#p7abfd3ec50)" style="fill: none; stroke: #b0b0b0; stroke-width: 0.8; stroke-linecap: square"/>
     </g>
     <g id="line2d_6">
      <g>
       <use xlink:href="#m4c95dec7f3" x="313.930783" y="293.76" style="stroke: #000000; stroke-width: 0.8"/>
      </g>
     </g>
     <g id="text_3">
      <!-- 4 -->
      <g transform="translate(307.568283 315.956875) scale(0.2 -0.2)">
       <use xlink:href="#DejaVuSans-34"/>
      </g>
     </g>
    </g>
    <g id="xtick_4">
     <g id="line2d_7">
      <path d="M 418.612074 293.76 
L 418.612074 3.456 
" clip-path="url(#p7abfd3ec50)" style="fill: none; stroke: #b0b0b0; stroke-width: 0.8; stroke-linecap: square"/>
     </g>
     <g id="line2d_8">
      <g>
       <use xlink:href="#m4c95dec7f3" x="418.612074" y="293.76" style="stroke: #000000; stroke-width: 0.8"/>
      </g>
     </g>
     <g id="text_4">
      <!-- 8 -->
      <g transform="translate(412.249574 315.956875) scale(0.2 -0.2)">
       <defs>
        <path id="DejaVuSans-38" d="M 2034 2216 
Q 1584 2216 1326 1975 
Q 1069 1734 1069 1313 
Q 1069 891 1326 650 
Q 1584 409 2034 409 
Q 2484 409 2743 651 
Q 3003 894 3003 1313 
Q 3003 1734 2745 1975 
Q 2488 2216 2034 2216 
z
M 1403 2484 
Q 997 2584 770 2862 
Q 544 3141 544 3541 
Q 544 4100 942 4425 
Q 1341 4750 2034 4750 
Q 2731 4750 3128 4425 
Q 3525 4100 3525 3541 
Q 3525 3141 3298 2862 
Q 3072 2584 2669 2484 
Q 3125 2378 3379 2068 
Q 3634 1759 3634 1313 
Q 3634 634 3220 271 
Q 2806 -91 2034 -91 
Q 1263 -91 848 271 
Q 434 634 434 1313 
Q 434 1759 690 2068 
Q 947 2378 1403 2484 
z
M 1172 3481 
Q 1172 3119 1398 2916 
Q 1625 2713 2034 2713 
Q 2441 2713 2670 2916 
Q 2900 3119 2900 3481 
Q 2900 3844 2670 4047 
Q 2441 4250 2034 4250 
Q 1625 4250 1398 4047 
Q 1172 3844 1172 3481 
z
" transform="scale(0.015625)"/>
       </defs>
       <use xlink:href="#DejaVuSans-38"/>
      </g>
     </g>
    </g>
    <g id="text_5">
     <!-- log10 of Df -->
     <g transform="translate(175.214063 339.313125) scale(0.2 -0.2)">
      <defs>
       <path id="DejaVuSans-6c" d="M 603 4863 
L 1178 4863 
L 1178 0 
L 603 0 
L 603 4863 
z
" transform="scale(0.015625)"/>
       <path id="DejaVuSans-6f" d="M 1959 3097 
Q 1497 3097 1228 2736 
Q 959 2375 959 1747 
Q 959 1119 1226 758 
Q 1494 397 1959 397 
Q 2419 397 2687 759 
Q 2956 1122 2956 1747 
Q 2956 2369 2687 2733 
Q 2419 3097 1959 3097 
z
M 1959 3584 
Q 2709 3584 3137 3096 
Q 3566 2609 3566 1747 
Q 3566 888 3137 398 
Q 2709 -91 1959 -91 
Q 1206 -91 779 398 
Q 353 888 353 1747 
Q 353 2609 779 3096 
Q 1206 3584 1959 3584 
z
" transform="scale(0.015625)"/>
       <path id="DejaVuSans-67" d="M 2906 1791 
Q 2906 2416 2648 2759 
Q 2391 3103 1925 3103 
Q 1463 3103 1205 2759 
Q 947 2416 947 1791 
Q 947 1169 1205 825 
Q 1463 481 1925 481 
Q 2391 481 2648 825 
Q 2906 1169 2906 1791 
z
M 3481 434 
Q 3481 -459 3084 -895 
Q 2688 -1331 1869 -1331 
Q 1566 -1331 1297 -1286 
Q 1028 -1241 775 -1147 
L 775 -588 
Q 1028 -725 1275 -790 
Q 1522 -856 1778 -856 
Q 2344 -856 2625 -561 
Q 2906 -266 2906 331 
L 2906 616 
Q 2728 306 2450 153 
Q 2172 0 1784 0 
Q 1141 0 747 490 
Q 353 981 353 1791 
Q 353 2603 747 3093 
Q 1141 3584 1784 3584 
Q 2172 3584 2450 3431 
Q 2728 3278 2906 2969 
L 2906 3500 
L 3481 3500 
L 3481 434 
z
" transform="scale(0.015625)"/>
       <path id="DejaVuSans-31" d="M 794 531 
L 1825 531 
L 1825 4091 
L 703 3866 
L 703 4441 
L 1819 4666 
L 2450 4666 
L 2450 531 
L 3481 531 
L 3481 0 
L 794 0 
L 794 531 
z
" transform="scale(0.015625)"/>
       <path id="DejaVuSans-20" transform="scale(0.015625)"/>
       <path id="DejaVuSans-66" d="M 2375 4863 
L 2375 4384 
L 1825 4384 
Q 1516 4384 1395 4259 
Q 1275 4134 1275 3809 
L 1275 3500 
L 2222 3500 
L 2222 3053 
L 1275 3053 
L 1275 0 
L 697 0 
L 697 3053 
L 147 3053 
L 147 3500 
L 697 3500 
L 697 3744 
Q 697 4328 969 4595 
Q 1241 4863 1831 4863 
L 2375 4863 
z
" transform="scale(0.015625)"/>
       <path id="DejaVuSans-44" d="M 1259 4147 
L 1259 519 
L 2022 519 
Q 2988 519 3436 956 
Q 3884 1394 3884 2338 
Q 3884 3275 3436 3711 
Q 2988 4147 2022 4147 
L 1259 4147 
z
M 628 4666 
L 1925 4666 
Q 3281 4666 3915 4102 
Q 4550 3538 4550 2338 
Q 4550 1131 3912 565 
Q 3275 0 1925 0 
L 628 0 
L 628 4666 
z
" transform="scale(0.015625)"/>
      </defs>
      <use xlink:href="#DejaVuSans-6c"/>
      <use xlink:href="#DejaVuSans-6f" x="27.783203"/>
      <use xlink:href="#DejaVuSans-67" x="88.964844"/>
      <use xlink:href="#DejaVuSans-31" x="152.441406"/>
      <use xlink:href="#DejaVuSans-30" x="216.064453"/>
      <use xlink:href="#DejaVuSans-20" x="279.6875"/>
      <use xlink:href="#DejaVuSans-6f" x="311.474609"/>
      <use xlink:href="#DejaVuSans-66" x="372.65625"/>
      <use xlink:href="#DejaVuSans-20" x="407.861328"/>
      <use xlink:href="#DejaVuSans-44" x="439.648438"/>
      <use xlink:href="#DejaVuSans-66" x="516.650391"/>
     </g>
    </g>
   </g>
   <g id="matplotlib.axis_2">
    <g id="ytick_1">
     <g id="line2d_9">
      <path d="M 0 293.76 
L 460.8 293.76 
" clip-path="url(#p7abfd3ec50)" style="fill: none; stroke: #b0b0b0; stroke-width: 0.8; stroke-linecap: square"/>
     </g>
     <g id="line2d_10">
      <defs>
       <path id="mb42a73c5a2" d="M 0 0 
L -3.5 0 
" style="stroke: #000000; stroke-width: 0.8"/>
      </defs>
      <g>
       <use xlink:href="#mb42a73c5a2" x="0" y="293.76" style="stroke: #000000; stroke-width: 0.8"/>
      </g>
     </g>
    </g>
    <g id="ytick_2">
     <g id="line2d_11">
      <path d="M 0 236.274059 
L 460.8 236.274059 
" clip-path="url(#p7abfd3ec50)" style="fill: none; stroke: #b0b0b0; stroke-width: 0.8; stroke-linecap: square"/>
     </g>
     <g id="line2d_12">
      <g>
       <use xlink:href="#mb42a73c5a2" x="0" y="236.274059" style="stroke: #000000; stroke-width: 0.8"/>
      </g>
     </g>
    </g>
    <g id="ytick_3">
     <g id="line2d_13">
      <path d="M 0 178.788119 
L 460.8 178.788119 
" clip-path="url(#p7abfd3ec50)" style="fill: none; stroke: #b0b0b0; stroke-width: 0.8; stroke-linecap: square"/>
     </g>
     <g id="line2d_14">
      <g>
       <use xlink:href="#mb42a73c5a2" x="0" y="178.788119" style="stroke: #000000; stroke-width: 0.8"/>
      </g>
     </g>
    </g>
    <g id="ytick_4">
     <g id="line2d_15">
      <path d="M 0 121.302178 
L 460.8 121.302178 
" clip-path="url(#p7abfd3ec50)" style="fill: none; stroke: #b0b0b0; stroke-width: 0.8; stroke-linecap: square"/>
     </g>
     <g id="line2d_16">
      <g>
       <use xlink:href="#mb42a73c5a2" x="0" y="121.302178" style="stroke: #000000; stroke-width: 0.8"/>
      </g>
     </g>
    </g>
    <g id="ytick_5">
     <g id="line2d_17">
      <path d="M 0 63.816238 
L 460.8 63.816238 
" clip-path="url(#p7abfd3ec50)" style="fill: none; stroke: #b0b0b0; stroke-width: 0.8; stroke-linecap: square"/>
     </g>
     <g id="line2d_18">
      <g>
       <use xlink:href="#mb42a73c5a2" x="0" y="63.816238" style="stroke: #000000; stroke-width: 0.8"/>
      </g>
     </g>
    </g>
    <g id="ytick_6">
     <g id="line2d_19">
      <path d="M 0 6.330297 
L 460.8 6.330297 
" clip-path="url(#p7abfd3ec50)" style="fill: none; stroke: #b0b0b0; stroke-width: 0.8; stroke-linecap: square"/>
     </g>
     <g id="line2d_20">
      <g>
       <use xlink:href="#mb42a73c5a2" x="0" y="6.330297" style="stroke: #000000; stroke-width: 0.8"/>
      </g>
     </g>
    </g>
   </g>
   <g id="line2d_21">
    <path d="M -0.113092 293.76 
L -0.113092 287.372673 
L 193.048909 287.372673 
L 193.048909 286.574257 
L 193.323063 286.574257 
L 193.39398 283.380594 
L 193.466486 283.380594 
L 193.510365 275.396436 
L 221.984843 275.396436 
L 221.984843 274.59802 
L 222.319259 274.59802 
L 222.319259 273.799604 
L 223.658715 273.799604 
L 223.658715 273.001188 
L 225.173773 273.001188 
L 225.173773 272.202772 
L 226.316884 272.202772 
L 226.316884 271.404356 
L 227.007319 271.404356 
L 227.007319 270.605941 
L 227.232462 270.605941 
L 227.232462 269.807525 
L 228.865461 269.807525 
L 228.865461 269.009109 
L 229.049425 269.009109 
L 229.049425 268.210693 
L 229.723158 268.210693 
L 229.785179 266.613861 
L 230.201985 266.613861 
L 230.201985 265.815446 
L 231.480685 265.815446 
L 231.480685 265.01703 
L 231.824454 265.01703 
L 231.824454 264.218614 
L 232.453028 264.218614 
L 232.507729 262.621782 
L 232.833466 262.621782 
L 232.833466 261.823366 
L 233.347059 261.823366 
L 233.347059 261.02495 
L 233.502429 261.02495 
L 233.502429 260.226535 
L 234.179032 260.226535 
L 234.179032 259.428119 
L 234.393514 259.428119 
L 234.484477 257.831287 
L 235.042468 257.831287 
L 235.042468 257.032871 
L 235.260798 257.032871 
L 235.260798 256.234455 
L 235.722426 256.234455 
L 235.826453 253.839208 
L 236.261089 253.839208 
L 236.261089 253.040792 
L 236.556462 253.040792 
L 236.556462 252.242376 
L 237.606813 252.242376 
L 237.654224 250.645545 
L 237.72226 250.645545 
L 237.72226 249.847129 
L 238.092243 249.847129 
L 238.092243 249.048713 
L 238.913597 249.048713 
L 238.913597 248.250297 
L 239.129552 248.250297 
L 239.129552 247.451881 
L 239.644167 247.451881 
L 239.644167 246.653465 
L 240.170845 246.653465 
L 240.170845 245.85505 
L 241.578782 245.85505 
L 241.687159 244.258218 
L 242.110376 244.258218 
L 242.110376 243.459802 
L 242.229884 243.459802 
L 242.229884 242.661386 
L 242.579699 242.661386 
L 242.579699 241.86297 
L 243.686664 241.86297 
L 243.686664 241.064554 
L 243.821976 241.064554 
L 243.864412 239.467723 
L 243.980406 239.467723 
L 243.980406 238.669307 
L 244.172577 238.669307 
L 244.172577 237.870891 
L 244.327651 237.870891 
L 244.327651 237.072475 
L 244.76855 237.072475 
L 244.76855 236.274059 
L 245.168521 236.274059 
L 245.168521 235.475644 
L 245.820285 235.475644 
L 245.820285 234.677228 
L 246.452128 234.677228 
L 246.452128 233.878812 
L 246.72745 233.878812 
L 246.72745 233.080396 
L 247.09881 233.080396 
L 247.09881 232.28198 
L 247.499452 232.28198 
L 247.499452 231.483564 
L 248.148545 231.483564 
L 248.148545 230.685149 
L 248.512433 230.685149 
L 248.512433 229.886733 
L 248.682858 229.886733 
L 248.682858 229.088317 
L 248.939045 229.088317 
L 248.972715 225.894653 
L 249.699949 225.894653 
L 249.777218 224.297822 
L 250.033027 224.297822 
L 250.033027 223.499406 
L 250.427233 223.499406 
L 250.427233 222.70099 
L 250.834983 222.70099 
L 250.834983 221.902574 
L 251.121591 221.902574 
L 251.212125 219.507327 
L 251.315543 219.507327 
L 251.315543 218.708911 
L 251.453527 218.708911 
L 251.453527 217.910495 
L 251.786062 217.910495 
L 251.840679 216.313663 
L 252.031697 216.313663 
L 252.031697 215.515248 
L 252.411071 215.515248 
L 252.411071 214.716832 
L 252.865587 214.716832 
L 252.873363 213.12 
L 253.110941 213.12 
L 253.110941 212.321584 
L 253.380575 212.321584 
L 253.380575 211.523168 
L 253.558792 211.523168 
L 253.661172 209.127921 
L 253.723799 209.127921 
L 253.759413 207.531089 
L 253.98993 207.531089 
L 253.98993 206.732673 
L 254.545462 206.732673 
L 254.63809 204.337426 
L 254.730162 204.337426 
L 254.835646 201.942178 
L 255.038545 201.942178 
L 255.038545 201.143762 
L 255.6733 201.143762 
L 255.6733 200.345347 
L 256.078125 200.345347 
L 256.158323 197.950099 
L 256.495116 197.950099 
L 256.495116 197.151683 
L 256.82038 197.151683 
L 256.868397 195.554851 
L 257.164913 195.554851 
L 257.164913 194.756436 
L 257.623141 194.756436 
L 257.623141 193.95802 
L 257.763657 193.95802 
L 257.793671 192.361188 
L 257.991834 192.361188 
L 257.991834 191.562772 
L 258.620277 191.562772 
L 258.66151 189.965941 
L 258.795323 189.965941 
L 258.795323 189.167525 
L 258.95205 189.167525 
L 259.05729 187.570693 
L 259.20566 187.570693 
L 259.248637 185.973861 
L 259.345766 185.973861 
L 259.442891 183.578614 
L 259.5496 183.578614 
L 259.622024 181.981782 
L 260.268278 181.981782 
L 260.268278 181.183366 
L 260.755415 181.183366 
L 260.755415 180.38495 
L 261.247273 180.38495 
L 261.247273 179.586535 
L 261.396199 179.586535 
L 261.396199 178.788119 
L 262.039183 178.788119 
L 262.039183 177.989703 
L 262.221268 177.989703 
L 262.221268 177.191287 
L 262.556391 177.191287 
L 262.662951 175.594455 
L 262.80208 175.594455 
L 262.892284 170.005545 
L 262.921805 170.005545 
L 262.985746 166.811881 
L 263.143588 166.811881 
L 263.143588 166.013465 
L 263.863358 166.013465 
L 263.885759 164.416634 
L 265.151958 164.416634 
L 265.151958 163.618218 
L 265.723972 163.618218 
L 265.723972 162.819802 
L 268.00309 162.819802 
L 268.00309 162.021386 
L 269.082997 162.021386 
L 269.082997 161.22297 
L 270.083206 161.22297 
L 270.146894 159.626139 
L 270.53439 159.626139 
L 270.53439 158.827723 
L 270.802229 158.827723 
L 270.802229 158.029307 
L 270.932687 158.029307 
L 270.932687 157.230891 
L 271.071256 157.230891 
L 271.112571 155.634059 
L 271.3826 155.634059 
L 271.39832 154.037228 
L 271.525574 154.037228 
L 271.525574 153.238812 
L 271.695916 153.238812 
L 271.695916 152.440396 
L 271.837981 152.440396 
L 271.837981 151.64198 
L 271.989401 151.64198 
L 271.989401 150.843564 
L 272.393116 150.843564 
L 272.393116 150.045149 
L 276.353153 150.045149 
L 276.353153 149.246733 
L 277.308111 149.246733 
L 277.308111 148.448317 
L 277.437817 148.448317 
L 277.437817 147.649901 
L 277.695917 147.649901 
L 277.695917 146.851485 
L 278.195104 146.851485 
L 278.227766 145.254653 
L 278.675068 145.254653 
L 278.675068 144.456238 
L 279.562989 144.456238 
L 279.562989 143.657822 
L 280.544491 143.657822 
L 280.544491 142.859406 
L 280.839055 142.859406 
L 280.913661 141.262574 
L 280.969691 141.262574 
L 281.023104 139.665743 
L 281.109324 139.665743 
L 281.109324 138.867327 
L 281.277568 138.867327 
L 281.3762 137.270495 
L 281.532766 137.270495 
L 281.602924 134.875248 
L 281.711277 134.875248 
L 281.716885 133.278416 
L 281.858646 133.278416 
L 281.858646 132.48 
L 282.008939 132.48 
L 282.008939 131.681584 
L 282.147738 131.681584 
L 282.147738 130.883168 
L 282.301061 130.883168 
L 282.301061 130.084752 
L 282.462332 130.084752 
L 282.462332 129.286337 
L 283.04518 129.286337 
L 283.088916 127.689505 
L 283.332549 127.689505 
L 283.332549 126.891089 
L 283.508851 126.891089 
L 283.508851 126.092673 
L 283.692898 126.092673 
L 283.719283 124.495842 
L 284.053259 124.495842 
L 284.131061 122.89901 
L 284.176973 122.89901 
L 284.246064 120.503762 
L 284.47777 120.503762 
L 284.561158 118.108515 
L 284.673284 118.108515 
L 284.673284 117.310099 
L 284.870001 117.310099 
L 284.870001 116.511683 
L 285.128676 116.511683 
L 285.132959 114.914851 
L 285.454604 114.914851 
L 285.530331 112.519604 
L 285.609853 112.519604 
L 285.609853 111.721188 
L 285.768985 111.721188 
L 285.768985 110.922772 
L 285.91196 110.922772 
L 285.974235 109.325941 
L 286.041455 109.325941 
L 286.041455 108.527525 
L 286.368764 108.527525 
L 286.368764 107.729109 
L 286.879445 107.729109 
L 286.879445 106.930693 
L 287.154394 106.930693 
L 287.245277 104.535446 
L 287.658159 104.535446 
L 287.75112 102.140198 
L 287.840574 102.140198 
L 287.841759 100.543366 
L 288.108436 100.543366 
L 288.108436 99.74495 
L 288.415213 99.74495 
L 288.415213 98.946535 
L 288.528858 98.946535 
L 288.533335 97.349703 
L 289.398243 97.349703 
L 289.398243 96.551287 
L 290.552038 96.551287 
L 290.596707 94.954455 
L 291.32234 94.954455 
L 291.32234 94.15604 
L 292.005995 94.15604 
L 292.005995 93.357624 
L 292.217502 93.357624 
L 292.217502 92.559208 
L 292.933098 92.559208 
L 292.933098 91.760792 
L 293.387392 91.760792 
L 293.387392 90.962376 
L 293.558869 90.962376 
L 293.558869 90.16396 
L 293.737102 90.16396 
L 293.748954 88.567129 
L 294.971849 88.567129 
L 294.971849 87.768713 
L 295.969298 87.768713 
L 295.969298 86.970297 
L 296.126528 86.970297 
L 296.126528 86.171881 
L 297.089159 86.171881 
L 297.089159 85.373465 
L 297.580231 85.373465 
L 297.580231 84.57505 
L 297.913534 84.57505 
L 297.927018 82.978218 
L 298.616628 82.978218 
L 298.688559 80.58297 
L 298.827056 80.58297 
L 298.827056 79.784554 
L 299.266113 79.784554 
L 299.364942 78.187723 
L 300.384987 78.187723 
L 300.384987 77.389307 
L 300.984357 77.389307 
L 300.984357 76.590891 
L 305.077212 76.590891 
L 305.077212 75.792475 
L 309.387497 75.792475 
L 309.387497 74.994059 
L 311.550372 74.994059 
L 311.550372 74.195644 
L 312.756688 74.195644 
L 312.861378 72.598812 
L 313.514259 72.598812 
L 313.514259 71.800396 
L 314.014659 71.800396 
L 314.014659 71.00198 
L 314.203831 71.00198 
L 314.203831 70.203564 
L 314.350781 70.203564 
L 314.350781 69.405149 
L 314.668086 69.405149 
L 314.668086 68.606733 
L 315.76225 68.606733 
L 315.76225 67.808317 
L 315.991711 67.808317 
L 316.035234 66.211485 
L 316.802392 66.211485 
L 316.802392 65.413069 
L 317.000474 65.413069 
L 317.000474 64.614653 
L 318.348319 64.614653 
L 318.422396 63.017822 
L 320.422377 63.017822 
L 320.422377 62.219406 
L 327.494081 62.219406 
L 327.494081 61.42099 
L 328.385466 61.42099 
L 328.385466 60.622574 
L 328.609723 60.622574 
L 328.609723 59.824158 
L 331.870207 59.824158 
L 331.870207 59.025743 
L 334.501927 59.025743 
L 334.501927 58.227327 
L 334.84394 58.227327 
L 334.84394 57.428911 
L 340.743335 57.428911 
L 340.743335 56.630495 
L 341.944264 56.630495 
L 341.944264 55.832079 
L 342.345668 55.832079 
L 342.345668 55.033663 
L 347.116411 55.033663 
L 347.116411 54.235248 
L 347.565654 54.235248 
L 347.565654 53.436832 
L 347.756355 53.436832 
L 347.756355 52.638416 
L 350.728977 52.638416 
L 350.728977 51.84 
L 350.882652 51.84 
L 350.969553 50.243168 
L 352.152967 50.243168 
L 352.152967 49.444752 
L 352.268131 49.444752 
L 352.268131 48.646337 
L 353.766967 48.646337 
L 353.766967 47.847921 
L 353.98973 47.847921 
L 353.98973 47.049505 
L 354.567204 47.049505 
L 354.567204 46.251089 
L 358.017582 46.251089 
L 358.017582 45.452673 
L 358.632282 45.452673 
L 358.632282 44.654257 
L 360.336515 44.654257 
L 360.336515 43.855842 
L 361.981493 43.855842 
L 361.981493 43.057426 
L 362.937689 43.057426 
L 362.937689 42.25901 
L 364.726461 42.25901 
L 364.78151 40.662178 
L 365.721192 40.662178 
L 365.721192 39.863762 
L 365.844867 39.863762 
L 365.844867 39.065347 
L 366.571512 39.065347 
L 366.571512 38.266931 
L 367.343392 38.266931 
L 367.343392 37.468515 
L 367.951088 37.468515 
L 367.951088 36.670099 
L 370.738204 36.670099 
L 370.738204 35.871683 
L 371.108643 35.871683 
L 371.108643 35.073267 
L 371.275753 35.073267 
L 371.3732 33.476436 
L 371.923408 33.476436 
L 371.923408 32.67802 
L 372.404732 32.67802 
L 372.404732 31.879604 
L 372.74874 31.879604 
L 372.799618 30.282772 
L 373.577415 30.282772 
L 373.577415 29.484356 
L 375.946713 29.484356 
L 375.946713 28.685941 
L 377.167895 28.685941 
L 377.167895 27.887525 
L 378.480186 27.887525 
L 378.508276 26.290693 
L 378.949503 26.290693 
L 378.949503 25.492277 
L 379.092504 25.492277 
L 379.092504 24.693861 
L 380.067321 24.693861 
L 380.067321 23.895446 
L 380.2437 23.895446 
L 380.2437 23.09703 
L 381.013214 23.09703 
L 381.013214 22.298614 
L 381.608181 22.298614 
L 381.608181 21.500198 
L 382.166079 21.500198 
L 382.166079 20.701782 
L 386.661115 20.701782 
L 386.661115 19.903366 
L 387.692649 19.903366 
L 387.692649 19.10495 
L 391.114025 19.10495 
L 391.114025 18.306535 
L 397.001656 18.306535 
L 397.001656 17.508119 
L 398.549619 17.508119 
L 398.549619 16.709703 
L 404.733626 16.709703 
L 404.733626 15.911287 
L 409.968775 15.911287 
L 409.968775 15.112871 
L 413.377496 15.112871 
L 413.377496 14.314455 
L 414.163095 14.314455 
L 414.163095 13.51604 
L 414.869775 13.51604 
L 414.869775 12.717624 
L 418.112386 12.717624 
L 418.112386 11.919208 
L 419.000943 11.919208 
L 419.000943 11.120792 
L 419.558251 11.120792 
L 419.558251 10.322376 
L 420.776023 10.322376 
L 420.776023 9.52396 
L 422.780806 9.52396 
L 422.780806 8.725545 
L 422.983004 8.725545 
L 422.983004 7.927129 
L 425.048356 7.927129 
L 425.048356 7.128713 
L 427.070667 7.128713 
L 427.070667 6.330297 
L 427.070667 6.330297 
L 460.8 6.330297 
L 460.8 6.330297 
" clip-path="url(#p7abfd3ec50)" style="fill: none; stroke: #ff0000; stroke-width: 3; stroke-linecap: square"/>
   </g>
   <g id="line2d_22">
    <path d="M 193.510365 293.76 
L 193.510365 281.783762 
L 226.791018 281.783762 
L 226.791018 280.985347 
L 229.049425 280.985347 
L 229.049425 280.186931 
L 229.866459 280.186931 
L 229.866459 279.388515 
L 232.833466 279.388515 
L 232.833466 278.590099 
L 234.04968 278.590099 
L 234.11355 276.993267 
L 234.630989 276.993267 
L 234.630989 276.194851 
L 236.562426 276.194851 
L 236.666551 274.59802 
L 237.072444 274.59802 
L 237.072444 273.799604 
L 237.365775 273.799604 
L 237.365775 273.001188 
L 238.092243 273.001188 
L 238.092243 272.202772 
L 238.306728 272.202772 
L 238.306728 271.404356 
L 238.71373 271.404356 
L 238.71373 270.605941 
L 238.927741 270.605941 
L 238.927741 269.807525 
L 239.35367 269.807525 
L 239.35367 269.009109 
L 239.583284 269.009109 
L 239.583284 268.210693 
L 239.798956 268.210693 
L 239.798956 267.412277 
L 239.963662 267.412277 
L 240.019895 265.815446 
L 240.131615 265.815446 
L 240.131615 265.01703 
L 241.756818 265.01703 
L 241.756818 264.218614 
L 241.869316 264.218614 
L 241.869316 263.420198 
L 242.528245 263.420198 
L 242.528245 262.621782 
L 243.596538 262.621782 
L 243.596538 261.823366 
L 244.586098 261.823366 
L 244.586098 261.02495 
L 245.131722 261.02495 
L 245.131722 260.226535 
L 245.278903 260.226535 
L 245.289997 258.629703 
L 248.690086 258.629703 
L 248.690086 257.831287 
L 249.027149 257.831287 
L 249.027149 257.032871 
L 249.828775 257.032871 
L 249.828775 256.234455 
L 249.991666 256.234455 
L 250.087374 254.637624 
L 251.872492 254.637624 
L 251.961026 252.242376 
L 253.357136 252.242376 
L 253.380575 250.645545 
L 253.558792 250.645545 
L 253.558792 249.847129 
L 253.723799 249.847129 
L 253.771022 248.250297 
L 253.953104 248.250297 
L 253.98993 246.653465 
L 254.562478 246.653465 
L 254.562478 245.85505 
L 254.730162 245.85505 
L 254.730162 245.056634 
L 255.038545 245.056634 
L 255.038545 244.258218 
L 255.310776 244.258218 
L 255.310776 243.459802 
L 255.800253 243.459802 
L 255.800253 242.661386 
L 256.091156 242.661386 
L 256.091156 241.86297 
L 256.417554 241.86297 
L 256.497063 239.467723 
L 256.566618 239.467723 
L 256.615363 237.870891 
L 256.82038 237.870891 
L 256.832689 236.274059 
L 257.302859 236.274059 
L 257.392818 234.677228 
L 257.45863 234.677228 
L 257.562389 233.080396 
L 257.623141 233.080396 
L 257.650599 231.483564 
L 257.739248 231.483564 
L 257.840601 229.088317 
L 258.38256 229.088317 
L 258.420321 227.491485 
L 258.515024 227.491485 
L 258.62602 224.297822 
L 258.669061 224.297822 
L 258.706074 221.902574 
L 258.780226 221.902574 
L 258.86856 218.708911 
L 258.953326 218.708911 
L 259.05729 214.716832 
L 259.111247 214.716832 
L 259.213592 210.724752 
L 259.2451 210.724752 
L 259.317456 206.732673 
L 259.437441 206.732673 
L 259.457086 204.337426 
L 259.5496 204.337426 
L 259.54961 202.740594 
L 259.838442 202.740594 
L 259.838442 201.942178 
L 260.316311 201.942178 
L 260.372165 200.345347 
L 260.676136 200.345347 
L 260.676136 199.546931 
L 261.396199 199.546931 
L 261.396199 198.748515 
L 261.776234 198.748515 
L 261.803279 197.151683 
L 262.493072 197.151683 
L 262.570046 194.756436 
L 262.910352 194.756436 
L 262.910352 193.95802 
L 263.090844 193.95802 
L 263.200345 192.361188 
L 263.215429 192.361188 
L 263.215429 191.562772 
L 263.362557 191.562772 
L 263.362557 190.764356 
L 263.660839 190.764356 
L 263.757605 188.369109 
L 263.775932 188.369109 
L 263.881373 182.780198 
L 263.899748 182.780198 
L 263.989091 177.989703 
L 265.547991 177.989703 
L 265.547991 177.191287 
L 265.745843 177.191287 
L 265.745843 176.392871 
L 265.882875 176.392871 
L 265.962205 174.79604 
L 266.343824 174.79604 
L 266.343824 173.997624 
L 268.058124 173.997624 
L 268.058124 173.199208 
L 271.787686 173.199208 
L 271.787686 172.400792 
L 272.464002 172.400792 
L 272.464002 171.602376 
L 272.74306 171.602376 
L 272.850322 170.005545 
L 272.901663 170.005545 
L 272.975004 168.408713 
L 273.154202 168.408713 
L 273.154202 167.610297 
L 273.373735 167.610297 
L 273.398852 165.21505 
L 274.035827 165.21505 
L 274.035827 164.416634 
L 274.272376 164.416634 
L 274.272376 163.618218 
L 274.635097 163.618218 
L 274.635097 162.819802 
L 274.785875 162.819802 
L 274.785875 162.021386 
L 275.222478 162.021386 
L 275.222478 161.22297 
L 277.319004 161.22297 
L 277.321559 149.246733 
L 278.12834 149.246733 
L 278.12834 148.448317 
L 278.756572 148.448317 
L 278.756572 147.649901 
L 278.912449 147.649901 
L 278.912449 146.851485 
L 279.623184 146.851485 
L 279.643119 145.254653 
L 280.333918 145.254653 
L 280.333918 144.456238 
L 281.227702 144.456238 
L 281.227702 143.657822 
L 281.759436 143.657822 
L 281.759436 142.859406 
L 282.027884 142.859406 
L 282.027884 142.06099 
L 282.154049 142.06099 
L 282.257492 140.464158 
L 282.430074 140.464158 
L 282.52252 138.068911 
L 282.586201 138.068911 
L 282.659661 135.673663 
L 282.766665 135.673663 
L 282.766665 134.875248 
L 283.144357 134.875248 
L 283.144357 134.076832 
L 283.50357 134.076832 
L 283.50357 133.278416 
L 283.631252 133.278416 
L 283.631252 132.48 
L 283.795101 132.48 
L 283.795101 131.681584 
L 283.916576 131.681584 
L 283.927447 130.084752 
L 284.14965 130.084752 
L 284.246208 126.891089 
L 284.295198 126.891089 
L 284.360836 125.294257 
L 284.828635 125.294257 
L 284.870001 123.697426 
L 285.06055 123.697426 
L 285.158644 121.302178 
L 285.506764 121.302178 
L 285.506764 120.503762 
L 285.776768 120.503762 
L 285.776768 119.705347 
L 285.91196 119.705347 
L 285.91196 118.906931 
L 286.075926 118.906931 
L 286.075926 118.108515 
L 286.319874 118.108515 
L 286.319874 117.310099 
L 286.533366 117.310099 
L 286.550988 115.713267 
L 286.658156 115.713267 
L 286.660062 114.116436 
L 286.827736 114.116436 
L 286.827736 113.31802 
L 287.049924 113.31802 
L 287.049924 112.519604 
L 287.176275 112.519604 
L 287.176275 111.721188 
L 287.586751 111.721188 
L 287.586751 110.922772 
L 287.843685 110.922772 
L 287.843685 110.124356 
L 288.387929 110.124356 
L 288.387929 109.325941 
L 288.568066 109.325941 
L 288.568066 108.527525 
L 289.854391 108.527525 
L 289.854391 107.729109 
L 291.167404 107.729109 
L 291.167404 106.930693 
L 291.32234 106.930693 
L 291.32234 106.132277 
L 292.005995 106.132277 
L 292.005995 105.333861 
L 292.69215 105.333861 
L 292.69215 104.535446 
L 293.748954 104.535446 
L 293.748954 103.73703 
L 293.970591 103.73703 
L 293.970591 102.938614 
L 294.244907 102.938614 
L 294.244907 102.140198 
L 294.877176 102.140198 
L 294.877176 101.341782 
L 295.184834 101.341782 
L 295.184834 100.543366 
L 295.30324 100.543366 
L 295.30324 99.74495 
L 295.47873 99.74495 
L 295.47873 98.946535 
L 295.703607 98.946535 
L 295.703607 98.148119 
L 295.981372 98.148119 
L 295.981372 97.349703 
L 296.342063 97.349703 
L 296.342063 96.551287 
L 296.562366 96.551287 
L 296.598925 94.954455 
L 297.159161 94.954455 
L 297.159161 94.15604 
L 297.345506 94.15604 
L 297.345506 93.357624 
L 297.546581 93.357624 
L 297.546581 92.559208 
L 297.910535 92.559208 
L 298.00825 90.16396 
L 298.832105 90.16396 
L 298.832105 89.365545 
L 312.926166 89.365545 
L 312.926166 88.567129 
L 320.811308 88.567129 
L 320.811374 76.590891 
L 321.484835 76.590891 
L 321.484835 75.792475 
L 324.81279 75.792475 
L 324.81279 74.994059 
L 329.300588 74.994059 
L 329.300588 74.195644 
L 332.748808 74.195644 
L 332.748808 73.397228 
L 333.846803 73.397228 
L 333.846803 72.598812 
L 334.049925 72.598812 
L 334.049925 71.800396 
L 334.355542 71.800396 
L 334.355542 71.00198 
L 334.727141 71.00198 
L 334.727141 70.203564 
L 335.867365 70.203564 
L 335.867365 69.405149 
L 336.028324 69.405149 
L 336.028324 68.606733 
L 336.64954 68.606733 
L 336.64954 67.808317 
L 337.282375 67.808317 
L 337.30675 66.211485 
L 338.005344 66.211485 
L 338.005344 65.413069 
L 338.43482 65.413069 
L 338.43482 64.614653 
L 343.019916 64.614653 
L 343.019916 63.816238 
L 346.127323 63.816238 
L 346.127323 63.017822 
L 347.474835 63.017822 
L 347.474835 62.219406 
L 350.853268 62.219406 
L 350.853268 61.42099 
L 351.27495 61.42099 
L 351.27495 60.622574 
L 351.605938 60.622574 
L 351.605938 59.824158 
L 353.313098 59.824158 
L 353.313098 59.025743 
L 353.494382 59.025743 
L 353.574461 57.428911 
L 354.229804 57.428911 
L 354.229804 56.630495 
L 354.94424 56.630495 
L 354.94424 55.832079 
L 355.330734 55.832079 
L 355.330734 55.033663 
L 358.266875 55.033663 
L 358.266875 54.235248 
L 358.981499 54.235248 
L 358.981499 53.436832 
L 360.149257 53.436832 
L 360.149257 52.638416 
L 360.84419 52.638416 
L 360.84419 51.84 
L 363.236897 51.84 
L 363.236897 51.041584 
L 366.181669 51.041584 
L 366.181669 50.243168 
L 367.942923 50.243168 
L 367.942923 49.444752 
L 373.718305 49.444752 
L 373.718305 48.646337 
L 374.238462 48.646337 
L 374.238462 47.847921 
L 375.633286 47.847921 
L 375.633286 47.049505 
L 376.424469 47.049505 
L 376.424469 46.251089 
L 377.006046 46.251089 
L 377.006046 45.452673 
L 378.392807 45.452673 
L 378.392807 44.654257 
L 378.994488 44.654257 
L 378.994488 43.855842 
L 379.654386 43.855842 
L 379.654386 43.057426 
L 380.004768 43.057426 
L 380.004768 42.25901 
L 380.389419 42.25901 
L 380.389419 41.460594 
L 384.440321 41.460594 
L 384.440321 40.662178 
L 386.286239 40.662178 
L 386.286239 39.863762 
L 386.65732 39.863762 
L 386.65732 39.065347 
L 387.458165 39.065347 
L 387.500922 37.468515 
L 388.11346 37.468515 
L 388.11346 36.670099 
L 388.720452 36.670099 
L 388.760974 35.073267 
L 388.84875 35.073267 
L 388.949671 33.476436 
L 389.173582 33.476436 
L 389.173582 32.67802 
L 390.511971 32.67802 
L 390.511971 31.879604 
L 391.192507 31.879604 
L 391.192507 31.081188 
L 391.545326 31.081188 
L 391.545326 30.282772 
L 391.803263 30.282772 
L 391.803263 29.484356 
L 392.276976 29.484356 
L 392.276976 28.685941 
L 393.404433 28.685941 
L 393.404433 27.887525 
L 393.534731 27.887525 
L 393.534731 27.089109 
L 393.939299 27.089109 
L 393.939299 26.290693 
L 394.429419 26.290693 
L 394.429419 25.492277 
L 395.400878 25.492277 
L 395.400878 24.693861 
L 395.594097 24.693861 
L 395.594097 23.895446 
L 396.565681 23.895446 
L 396.565681 23.09703 
L 397.418973 23.09703 
L 397.418973 22.298614 
L 398.164494 22.298614 
L 398.164494 21.500198 
L 400.224183 21.500198 
L 400.224183 20.701782 
L 400.337188 20.701782 
L 400.337188 19.903366 
L 400.499509 19.903366 
L 400.499509 19.10495 
L 405.01321 19.10495 
L 405.01321 18.306535 
L 414.093435 18.306535 
L 414.093435 17.508119 
L 417.337401 17.508119 
L 417.433197 15.911287 
L 422.064218 15.911287 
L 422.064218 15.112871 
L 423.291677 15.112871 
L 423.291677 14.314455 
L 424.092088 14.314455 
L 424.092088 13.51604 
L 426.396336 13.51604 
L 426.396336 12.717624 
L 427.455773 12.717624 
L 427.455773 11.919208 
L 429.56218 11.919208 
L 429.56218 11.120792 
L 430.473256 11.120792 
L 430.473256 10.322376 
L 432.480298 10.322376 
L 432.480298 9.52396 
L 433.073698 9.52396 
L 433.073698 8.725545 
L 434.746188 8.725545 
L 434.746188 7.927129 
L 438.776591 7.927129 
L 438.851758 6.330297 
L 438.851758 6.330297 
L 460.8 6.330297 
L 460.8 6.330297 
" clip-path="url(#p7abfd3ec50)" style="fill: none; stroke: #00bfbf; stroke-width: 1.5; stroke-linecap: square"/>
   </g>
   <g id="line2d_23">
    <path d="M 193.510365 293.76 
L 193.510365 281.783762 
L 225.595664 281.783762 
L 225.595664 280.985347 
L 226.791018 280.985347 
L 226.791018 280.186931 
L 227.007319 280.186931 
L 227.007319 279.388515 
L 229.049425 279.388515 
L 229.049425 278.590099 
L 229.785179 278.590099 
L 229.785179 277.791683 
L 231.433671 277.791683 
L 231.480685 276.194851 
L 232.833466 276.194851 
L 232.833466 275.396436 
L 233.347059 275.396436 
L 233.347059 274.59802 
L 233.502429 274.59802 
L 233.502429 273.799604 
L 233.955336 273.799604 
L 233.955336 273.001188 
L 234.074169 273.001188 
L 234.074169 272.202772 
L 235.722426 272.202772 
L 235.722426 271.404356 
L 236.261089 271.404356 
L 236.261089 270.605941 
L 237.365775 270.605941 
L 237.365775 269.807525 
L 238.092243 269.807525 
L 238.092243 269.009109 
L 239.08393 269.009109 
L 239.129552 267.412277 
L 239.611874 267.412277 
L 239.611874 266.613861 
L 239.773975 266.613861 
L 239.806366 265.01703 
L 241.687159 265.01703 
L 241.687159 264.218614 
L 241.869316 264.218614 
L 241.869316 263.420198 
L 242.229884 263.420198 
L 242.229884 262.621782 
L 243.138231 262.621782 
L 243.138231 261.823366 
L 244.586098 261.823366 
L 244.586098 261.02495 
L 244.76855 261.02495 
L 244.76855 260.226535 
L 245.127333 260.226535 
L 245.182266 258.629703 
L 248.051416 258.629703 
L 248.051416 257.831287 
L 248.964252 257.831287 
L 248.964252 257.032871 
L 249.777218 257.032871 
L 249.777218 256.234455 
L 249.991666 256.234455 
L 250.033027 254.637624 
L 251.212125 254.637624 
L 251.212125 253.839208 
L 251.725986 253.839208 
L 251.725986 253.040792 
L 251.886932 253.040792 
L 251.886932 252.242376 
L 252.352215 252.242376 
L 252.352215 251.44396 
L 253.380575 251.44396 
L 253.390753 249.847129 
L 253.558792 249.847129 
L 253.558792 249.048713 
L 253.710871 249.048713 
L 253.723799 247.451881 
L 253.98993 247.451881 
L 253.98993 246.653465 
L 254.279332 246.653465 
L 254.279332 245.85505 
L 254.528959 245.85505 
L 254.528959 245.056634 
L 254.730162 245.056634 
L 254.730162 244.258218 
L 255.038545 244.258218 
L 255.038545 243.459802 
L 255.6733 243.459802 
L 255.6733 242.661386 
L 255.843199 242.661386 
L 255.843199 241.86297 
L 255.982644 241.86297 
L 256.091156 240.266139 
L 256.331243 240.266139 
L 256.36865 237.870891 
L 256.497063 237.870891 
L 256.497063 237.072475 
L 256.82038 237.072475 
L 256.82038 236.274059 
L 257.262507 236.274059 
L 257.336534 234.677228 
L 257.45863 234.677228 
L 257.562389 233.080396 
L 257.623141 233.080396 
L 257.66387 230.685149 
L 257.739248 230.685149 
L 257.78774 229.088317 
L 257.990194 229.088317 
L 257.990194 228.289901 
L 258.380332 228.289901 
L 258.380332 227.491485 
L 258.505362 227.491485 
L 258.613612 225.096238 
L 258.620277 225.096238 
L 258.706074 221.104158 
L 258.773949 221.104158 
L 258.86856 218.708911 
L 258.945251 218.708911 
L 259.055834 215.515248 
L 259.05729 215.515248 
L 259.139664 213.12 
L 259.19271 213.12 
L 259.262495 207.531089 
L 259.317456 207.531089 
L 259.317456 206.732673 
L 259.437441 206.732673 
L 259.530528 203.53901 
L 259.5496 203.53901 
L 259.5496 202.740594 
L 259.785152 202.740594 
L 259.785152 201.942178 
L 260.272472 201.942178 
L 260.372165 200.345347 
L 260.665219 200.345347 
L 260.665219 199.546931 
L 261.396199 199.546931 
L 261.422644 197.950099 
L 261.776234 197.950099 
L 261.776234 197.151683 
L 262.493072 197.151683 
L 262.556391 194.756436 
L 262.845194 194.756436 
L 262.894746 193.159604 
L 263.090844 193.159604 
L 263.199793 191.562772 
L 263.362557 191.562772 
L 263.362557 190.764356 
L 263.660839 190.764356 
L 263.757605 186.772277 
L 263.775932 186.772277 
L 263.885759 178.788119 
L 263.96525 178.788119 
L 263.96525 177.989703 
L 265.536367 177.989703 
L 265.536367 177.191287 
L 265.745843 177.191287 
L 265.745843 176.392871 
L 265.882875 176.392871 
L 265.962205 174.79604 
L 266.343824 174.79604 
L 266.343824 173.997624 
L 268.058124 173.997624 
L 268.058124 173.199208 
L 271.373624 173.199208 
L 271.373624 172.400792 
L 271.655696 172.400792 
L 271.655696 171.602376 
L 271.787686 171.602376 
L 271.787686 170.80396 
L 271.988417 170.80396 
L 271.988417 170.005545 
L 272.403484 170.005545 
L 272.464002 168.408713 
L 272.74306 168.408713 
L 272.850322 166.811881 
L 272.975004 166.811881 
L 272.975004 166.013465 
L 273.096485 166.013465 
L 273.196437 164.416634 
L 273.238776 164.416634 
L 273.238776 163.618218 
L 273.373735 163.618218 
L 273.373735 162.819802 
L 274.09706 162.819802 
L 274.09706 162.021386 
L 274.337602 162.021386 
L 274.337602 161.22297 
L 277.297153 161.22297 
L 277.311889 149.246733 
L 277.861951 149.246733 
L 277.861951 148.448317 
L 278.441402 148.448317 
L 278.441402 147.649901 
L 278.664992 147.649901 
L 278.664992 146.851485 
L 279.300361 146.851485 
L 279.39674 145.254653 
L 280.289638 145.254653 
L 280.289638 144.456238 
L 280.969691 144.456238 
L 280.969691 143.657822 
L 281.759436 143.657822 
L 281.814347 142.06099 
L 281.981958 142.06099 
L 281.981958 141.262574 
L 282.129144 141.262574 
L 282.129144 140.464158 
L 282.269253 140.464158 
L 282.344059 138.068911 
L 282.430074 138.068911 
L 282.46848 136.472079 
L 282.617359 136.472079 
L 282.653064 134.875248 
L 282.959311 134.875248 
L 282.959311 134.076832 
L 283.333579 134.076832 
L 283.415781 132.48 
L 283.491556 132.48 
L 283.491556 131.681584 
L 283.763091 131.681584 
L 283.861603 130.084752 
L 284.030058 130.084752 
L 284.075673 126.891089 
L 284.176973 126.891089 
L 284.180134 125.294257 
L 284.706199 125.294257 
L 284.706199 124.495842 
L 284.870001 124.495842 
L 284.910728 122.89901 
L 285.128676 122.89901 
L 285.158644 121.302178 
L 285.481417 121.302178 
L 285.481417 120.503762 
L 285.776768 120.503762 
L 285.776768 119.705347 
L 285.91196 119.705347 
L 285.952245 118.108515 
L 286.223096 118.108515 
L 286.223096 117.310099 
L 286.368764 117.310099 
L 286.390156 115.713267 
L 286.529103 115.713267 
L 286.529103 114.914851 
L 286.646187 114.914851 
L 286.646187 114.116436 
L 286.827736 114.116436 
L 286.827736 113.31802 
L 286.99595 113.31802 
L 286.999773 111.721188 
L 287.574301 111.721188 
L 287.679158 110.124356 
L 288.387929 110.124356 
L 288.387929 109.325941 
L 288.568066 109.325941 
L 288.568066 108.527525 
L 289.854391 108.527525 
L 289.854391 107.729109 
L 291.126431 107.729109 
L 291.126431 106.930693 
L 291.32234 106.930693 
L 291.32234 106.132277 
L 292.005995 106.132277 
L 292.005995 105.333861 
L 292.69215 105.333861 
L 292.69215 104.535446 
L 293.748954 104.535446 
L 293.855251 102.938614 
L 294.230389 102.938614 
L 294.230389 102.140198 
L 294.870646 102.140198 
L 294.870646 101.341782 
L 295.154196 101.341782 
L 295.154196 100.543366 
L 295.30324 100.543366 
L 295.30324 99.74495 
L 295.47873 99.74495 
L 295.47873 98.946535 
L 295.703607 98.946535 
L 295.703607 98.148119 
L 295.967417 98.148119 
L 295.967417 97.349703 
L 296.339715 97.349703 
L 296.339715 96.551287 
L 296.561046 96.551287 
L 296.598925 94.954455 
L 297.089159 94.954455 
L 297.089159 94.15604 
L 297.341685 94.15604 
L 297.341685 93.357624 
L 297.546581 93.357624 
L 297.546581 92.559208 
L 297.90173 92.559208 
L 298.00825 90.16396 
L 298.827056 90.16396 
L 298.827056 89.365545 
L 312.341582 89.365545 
L 312.341582 88.567129 
L 320.196408 88.567129 
L 320.239247 79.784554 
L 320.317813 79.784554 
L 320.317813 77.389307 
L 320.51053 77.389307 
L 320.51053 76.590891 
L 321.484835 76.590891 
L 321.484835 75.792475 
L 324.761469 75.792475 
L 324.761469 74.994059 
L 329.300588 74.994059 
L 329.300588 74.195644 
L 332.734066 74.195644 
L 332.734066 73.397228 
L 333.793074 73.397228 
L 333.793074 72.598812 
L 333.997912 72.598812 
L 333.997912 71.800396 
L 334.355542 71.800396 
L 334.355542 71.00198 
L 334.711488 71.00198 
L 334.711488 70.203564 
L 335.843473 70.203564 
L 335.843473 69.405149 
L 336.028324 69.405149 
L 336.028324 68.606733 
L 336.64954 68.606733 
L 336.64954 67.808317 
L 337.282375 67.808317 
L 337.304801 66.211485 
L 338.001099 66.211485 
L 338.001099 65.413069 
L 338.411526 65.413069 
L 338.411526 64.614653 
L 342.971366 64.614653 
L 342.971366 63.816238 
L 346.03857 63.816238 
L 346.03857 63.017822 
L 347.474835 63.017822 
L 347.474835 62.219406 
L 350.29091 62.219406 
L 350.29091 61.42099 
L 350.80788 61.42099 
L 350.80788 60.622574 
L 351.605938 60.622574 
L 351.605938 59.824158 
L 353.313098 59.824158 
L 353.401176 58.227327 
L 353.496462 58.227327 
L 353.496462 57.428911 
L 354.229804 57.428911 
L 354.229804 56.630495 
L 354.94424 56.630495 
L 354.94424 55.832079 
L 355.273125 55.832079 
L 355.273125 55.033663 
L 357.084626 55.033663 
L 357.084626 54.235248 
L 358.82704 54.235248 
L 358.82704 53.436832 
L 360.149257 53.436832 
L 360.149257 52.638416 
L 360.84419 52.638416 
L 360.84419 51.84 
L 363.186305 51.84 
L 363.186305 51.041584 
L 366.181669 51.041584 
L 366.181669 50.243168 
L 367.789945 50.243168 
L 367.789945 49.444752 
L 373.558394 49.444752 
L 373.558394 48.646337 
L 374.238462 48.646337 
L 374.238462 47.847921 
L 375.497936 47.847921 
L 375.497936 47.049505 
L 376.424469 47.049505 
L 376.424469 46.251089 
L 376.877367 46.251089 
L 376.877367 45.452673 
L 378.388142 45.452673 
L 378.388142 44.654257 
L 378.684501 44.654257 
L 378.684501 43.855842 
L 379.047248 43.855842 
L 379.047248 43.057426 
L 379.908381 43.057426 
L 379.908381 42.25901 
L 380.389419 42.25901 
L 380.389419 41.460594 
L 384.338315 41.460594 
L 384.338315 40.662178 
L 386.269976 40.662178 
L 386.301557 39.065347 
L 387.287012 39.065347 
L 387.287012 38.266931 
L 387.455135 38.266931 
L 387.518401 36.670099 
L 388.154774 36.670099 
L 388.154774 35.871683 
L 388.752593 35.871683 
L 388.84875 34.274851 
L 388.949671 34.274851 
L 388.949671 33.476436 
L 389.173582 33.476436 
L 389.173582 32.67802 
L 390.270569 32.67802 
L 390.270569 31.879604 
L 390.957831 31.879604 
L 390.957831 31.081188 
L 391.517481 31.081188 
L 391.517481 30.282772 
L 391.725905 30.282772 
L 391.725905 29.484356 
L 392.086263 29.484356 
L 392.086263 28.685941 
L 393.248163 28.685941 
L 393.248163 27.887525 
L 393.404433 27.887525 
L 393.404433 27.089109 
L 393.605316 27.089109 
L 393.605316 26.290693 
L 393.817896 26.290693 
L 393.817896 25.492277 
L 395.400878 25.492277 
L 395.400878 24.693861 
L 395.588103 24.693861 
L 395.588103 23.895446 
L 396.498248 23.895446 
L 396.498248 23.09703 
L 397.319791 23.09703 
L 397.319791 22.298614 
L 397.688507 22.298614 
L 397.688507 21.500198 
L 400.220975 21.500198 
L 400.285622 19.903366 
L 400.499509 19.903366 
L 400.499509 19.10495 
L 405.01321 19.10495 
L 405.01321 18.306535 
L 414.093435 18.306535 
L 414.093435 17.508119 
L 417.337401 17.508119 
L 417.433197 15.911287 
L 422.064218 15.911287 
L 422.064218 15.112871 
L 423.279197 15.112871 
L 423.279197 14.314455 
L 423.965846 14.314455 
L 423.965846 13.51604 
L 426.383834 13.51604 
L 426.383834 12.717624 
L 427.455773 12.717624 
L 427.455773 11.919208 
L 429.56218 11.919208 
L 429.56218 11.120792 
L 430.266986 11.120792 
L 430.266986 10.322376 
L 432.480298 10.322376 
L 432.480298 9.52396 
L 433.073698 9.52396 
L 433.073698 8.725545 
L 434.746188 8.725545 
L 434.746188 7.927129 
L 438.723243 7.927129 
L 438.723243 7.128713 
L 438.851758 7.128713 
L 438.851758 6.330297 
L 438.851758 6.330297 
L 460.8 6.330297 
L 460.8 6.330297 
" clip-path="url(#p7abfd3ec50)" style="fill: none; stroke: #bf00bf; stroke-width: 1.5; stroke-linecap: square"/>
   </g>
   <g id="patch_3">
    <path d="M 0 293.76 
L 0 3.456 
" style="fill: none; stroke: #000000; stroke-width: 0.8; stroke-linejoin: miter; stroke-linecap: square"/>
   </g>
   <g id="patch_4">
    <path d="M 460.8 293.76 
L 460.8 3.456 
" style="fill: none; stroke: #000000; stroke-width: 0.8; stroke-linejoin: miter; stroke-linecap: square"/>
   </g>
   <g id="patch_5">
    <path d="M 0 293.76 
L 460.8 293.76 
" style="fill: none; stroke: #000000; stroke-width: 0.8; stroke-linejoin: miter; stroke-linecap: square"/>
   </g>
   <g id="patch_6">
    <path d="M 0 3.456 
L 460.8 3.456 
" style="fill: none; stroke: #000000; stroke-width: 0.8; stroke-linejoin: miter; stroke-linecap: square"/>
   </g>
   <g id="text_6">
    <!-- {f1-f24}, 20-D -->
    <g transform="translate(305.884 287.95392) scale(0.2 -0.2)">
     <defs>
      <path id="DejaVuSans-7b" d="M 3272 -594 
L 3272 -1044 
L 3078 -1044 
Q 2300 -1044 2036 -812 
Q 1772 -581 1772 109 
L 1772 856 
Q 1772 1328 1603 1509 
Q 1434 1691 991 1691 
L 800 1691 
L 800 2138 
L 991 2138 
Q 1438 2138 1605 2317 
Q 1772 2497 1772 2963 
L 1772 3713 
Q 1772 4403 2036 4633 
Q 2300 4863 3078 4863 
L 3272 4863 
L 3272 4416 
L 3059 4416 
Q 2619 4416 2484 4278 
Q 2350 4141 2350 3700 
L 2350 2925 
Q 2350 2434 2208 2212 
Q 2066 1991 1722 1913 
Q 2069 1828 2209 1606 
Q 2350 1384 2350 897 
L 2350 122 
Q 2350 -319 2484 -456 
Q 2619 -594 3059 -594 
L 3272 -594 
z
" transform="scale(0.015625)"/>
      <path id="DejaVuSans-32" d="M 1228 531 
L 3431 531 
L 3431 0 
L 469 0 
L 469 531 
Q 828 903 1448 1529 
Q 2069 2156 2228 2338 
Q 2531 2678 2651 2914 
Q 2772 3150 2772 3378 
Q 2772 3750 2511 3984 
Q 2250 4219 1831 4219 
Q 1534 4219 1204 4116 
Q 875 4013 500 3803 
L 500 4441 
Q 881 4594 1212 4672 
Q 1544 4750 1819 4750 
Q 2544 4750 2975 4387 
Q 3406 4025 3406 3419 
Q 3406 3131 3298 2873 
Q 3191 2616 2906 2266 
Q 2828 2175 2409 1742 
Q 1991 1309 1228 531 
z
" transform="scale(0.015625)"/>
      <path id="DejaVuSans-7d" d="M 800 -594 
L 1019 -594 
Q 1456 -594 1589 -459 
Q 1722 -325 1722 122 
L 1722 897 
Q 1722 1384 1862 1606 
Q 2003 1828 2350 1913 
Q 2003 1991 1862 2212 
Q 1722 2434 1722 2925 
L 1722 3700 
Q 1722 4144 1589 4280 
Q 1456 4416 1019 4416 
L 800 4416 
L 800 4863 
L 997 4863 
Q 1775 4863 2036 4633 
Q 2297 4403 2297 3713 
L 2297 2963 
Q 2297 2497 2465 2317 
Q 2634 2138 3078 2138 
L 3272 2138 
L 3272 1691 
L 3078 1691 
Q 2634 1691 2465 1509 
Q 2297 1328 2297 856 
L 2297 109 
Q 2297 -581 2036 -812 
Q 1775 -1044 997 -1044 
L 800 -1044 
L 800 -594 
z
" transform="scale(0.015625)"/>
      <path id="DejaVuSans-2c" d="M 750 794 
L 1409 794 
L 1409 256 
L 897 -744 
L 494 -744 
L 750 256 
L 750 794 
z
" transform="scale(0.015625)"/>
     </defs>
     <use xlink:href="#DejaVuSans-7b"/>
     <use xlink:href="#DejaVuSans-66" x="63.623047"/>
     <use xlink:href="#DejaVuSans-31" x="98.828125"/>
     <use xlink:href="#DejaVuSans-2d" x="162.451172"/>
     <use xlink:href="#DejaVuSans-66" x="198.535156"/>
     <use xlink:href="#DejaVuSans-32" x="233.740234"/>
     <use xlink:href="#DejaVuSans-34" x="297.363281"/>
     <use xlink:href="#DejaVuSans-7d" x="360.986328"/>
     <use xlink:href="#DejaVuSans-2c" x="424.609375"/>
     <use xlink:href="#DejaVuSans-20" x="456.396484"/>
     <use xlink:href="#DejaVuSans-32" x="488.183594"/>
     <use xlink:href="#DejaVuSans-30" x="551.806641"/>
     <use xlink:href="#DejaVuSans-2d" x="615.429688"/>
     <use xlink:href="#DejaVuSans-44" x="651.513672"/>
    </g>
   </g>
   <g id="text_7">
    <!-- v2.6.3 -->
    <g style="fill: #808080" transform="translate(214.71875 288.777272) scale(0.1 -0.1)">
     <defs>
      <path id="DejaVuSans-76" d="M 191 3500 
L 800 3500 
L 1894 563 
L 2988 3500 
L 3597 3500 
L 2284 0 
L 1503 0 
L 191 3500 
z
" transform="scale(0.015625)"/>
      <path id="DejaVuSans-2e" d="M 684 794 
L 1344 794 
L 1344 0 
L 684 0 
L 684 794 
z
" transform="scale(0.015625)"/>
      <path id="DejaVuSans-36" d="M 2113 2584 
Q 1688 2584 1439 2293 
Q 1191 2003 1191 1497 
Q 1191 994 1439 701 
Q 1688 409 2113 409 
Q 2538 409 2786 701 
Q 3034 994 3034 1497 
Q 3034 2003 2786 2293 
Q 2538 2584 2113 2584 
z
M 3366 4563 
L 3366 3988 
Q 3128 4100 2886 4159 
Q 2644 4219 2406 4219 
Q 1781 4219 1451 3797 
Q 1122 3375 1075 2522 
Q 1259 2794 1537 2939 
Q 1816 3084 2150 3084 
Q 2853 3084 3261 2657 
Q 3669 2231 3669 1497 
Q 3669 778 3244 343 
Q 2819 -91 2113 -91 
Q 1303 -91 875 529 
Q 447 1150 447 2328 
Q 447 3434 972 4092 
Q 1497 4750 2381 4750 
Q 2619 4750 2861 4703 
Q 3103 4656 3366 4563 
z
" transform="scale(0.015625)"/>
      <path id="DejaVuSans-33" d="M 2597 2516 
Q 3050 2419 3304 2112 
Q 3559 1806 3559 1356 
Q 3559 666 3084 287 
Q 2609 -91 1734 -91 
Q 1441 -91 1130 -33 
Q 819 25 488 141 
L 488 750 
Q 750 597 1062 519 
Q 1375 441 1716 441 
Q 2309 441 2620 675 
Q 2931 909 2931 1356 
Q 2931 1769 2642 2001 
Q 2353 2234 1838 2234 
L 1294 2234 
L 1294 2753 
L 1863 2753 
Q 2328 2753 2575 2939 
Q 2822 3125 2822 3475 
Q 2822 3834 2567 4026 
Q 2313 4219 1838 4219 
Q 1578 4219 1281 4162 
Q 984 4106 628 3988 
L 628 4550 
Q 988 4650 1302 4700 
Q 1616 4750 1894 4750 
Q 2613 4750 3031 4423 
Q 3450 4097 3450 3541 
Q 3450 3153 3228 2886 
Q 3006 2619 2597 2516 
z
" transform="scale(0.015625)"/>
     </defs>
     <use xlink:href="#DejaVuSans-76"/>
     <use xlink:href="#DejaVuSans-32" x="59.179688"/>
     <use xlink:href="#DejaVuSans-2e" x="122.802734"/>
     <use xlink:href="#DejaVuSans-36" x="154.589844"/>
     <use xlink:href="#DejaVuSans-2e" x="218.212891"/>
     <use xlink:href="#DejaVuSans-33" x="250"/>
    </g>
   </g>
  </g>
 </g>
 <defs>
  <clipPath id="p7abfd3ec50">
   <rect x="0" y="3.456" width="460.8" height="290.304"/>
  </clipPath>
 </defs>
</svg>
