<?xml version="1.0" encoding="utf-8" standalone="no"?>
<!DOCTYPE svg PUBLIC "-//W3C//DTD SVG 1.1//EN"
  "http://www.w3.org/Graphics/SVG/1.1/DTD/svg11.dtd">
<svg xmlns:xlink="http://www.w3.org/1999/xlink" width="460.8pt" height="345.6pt" viewBox="0 0 460.8 345.6" xmlns="http://www.w3.org/2000/svg" version="1.1">
 <metadata>
  <rdf:RDF xmlns:dc="http://purl.org/dc/elements/1.1/" xmlns:cc="http://creativecommons.org/ns#" xmlns:rdf="http://www.w3.org/1999/02/22-rdf-syntax-ns#">
   <cc:Work>
    <dc:type rdf:resource="http://purl.org/dc/dcmitype/StillImage"/>
    <dc:date>2024-01-17T15:30:59.419529</dc:date>
    <dc:format>image/svg+xml</dc:format>
    <dc:creator>
     <cc:Agent>
      <dc:title>Matplotlib v3.8.2, https://matplotlib.org/</dc:title>
     </cc:Agent>
    </dc:creator>
   </cc:Work>
  </rdf:RDF>
 </metadata>
 <defs>
  <style type="text/css">*{stroke-linejoin: round; stroke-linecap: butt}</style>
 </defs>
 <g id="figure_1">
  <g id="patch_1">
   <path d="M 0 345.6 
L 460.8 345.6 
L 460.8 0 
L 0 0 
z
" style="fill: #ffffff"/>
  </g>
  <g id="axes_1">
   <g id="patch_2">
    <path d="M 0 293.76 
L 460.8 293.76 
L 460.8 3.456 
L 0 3.456 
z
" style="fill: #ffffff"/>
   </g>
   <g id="matplotlib.axis_1">
    <g id="xtick_1">
     <g id="line2d_1">
      <path d="M 104.5682 293.76 
L 104.5682 3.456 
" clip-path="url(#p357436717b)" style="fill: none; stroke: #b0b0b0; stroke-width: 0.8; stroke-linecap: square"/>
     </g>
     <g id="line2d_2">
      <defs>
       <path id="m75b3cb2657" d="M 0 0 
L 0 3.5 
" style="stroke: #000000; stroke-width: 0.8"/>
      </defs>
      <g>
       <use xlink:href="#m75b3cb2657" x="104.5682" y="293.76" style="stroke: #000000; stroke-width: 0.8"/>
      </g>
     </g>
     <g id="text_1">
      <!-- -4 -->
      <g transform="translate(94.597887 315.956875) scale(0.2 -0.2)">
       <defs>
        <path id="DejaVuSans-2d" d="M 313 2009 
L 1997 2009 
L 1997 1497 
L 313 1497 
L 313 2009 
z
" transform="scale(0.015625)"/>
        <path id="DejaVuSans-34" d="M 2419 4116 
L 825 1625 
L 2419 1625 
L 2419 4116 
z
M 2253 4666 
L 3047 4666 
L 3047 1625 
L 3713 1625 
L 3713 1100 
L 3047 1100 
L 3047 0 
L 2419 0 
L 2419 1100 
L 313 1100 
L 313 1709 
L 2253 4666 
z
" transform="scale(0.015625)"/>
       </defs>
       <use xlink:href="#DejaVuSans-2d"/>
       <use xlink:href="#DejaVuSans-34" x="36.083984"/>
      </g>
     </g>
    </g>
    <g id="xtick_2">
     <g id="line2d_3">
      <path d="M 209.249491 293.76 
L 209.249491 3.456 
" clip-path="url(#p357436717b)" style="fill: none; stroke: #b0b0b0; stroke-width: 0.8; stroke-linecap: square"/>
     </g>
     <g id="line2d_4">
      <g>
       <use xlink:href="#m75b3cb2657" x="209.249491" y="293.76" style="stroke: #000000; stroke-width: 0.8"/>
      </g>
     </g>
     <g id="text_2">
      <!-- 0 -->
      <g transform="translate(202.886991 315.956875) scale(0.2 -0.2)">
       <defs>
        <path id="DejaVuSans-30" d="M 2034 4250 
Q 1547 4250 1301 3770 
Q 1056 3291 1056 2328 
Q 1056 1369 1301 889 
Q 1547 409 2034 409 
Q 2525 409 2770 889 
Q 3016 1369 3016 2328 
Q 3016 3291 2770 3770 
Q 2525 4250 2034 4250 
z
M 2034 4750 
Q 2819 4750 3233 4129 
Q 3647 3509 3647 2328 
Q 3647 1150 3233 529 
Q 2819 -91 2034 -91 
Q 1250 -91 836 529 
Q 422 1150 422 2328 
Q 422 3509 836 4129 
Q 1250 4750 2034 4750 
z
" transform="scale(0.015625)"/>
       </defs>
       <use xlink:href="#DejaVuSans-30"/>
      </g>
     </g>
    </g>
    <g id="xtick_3">
     <g id="line2d_5">
      <path d="M 313.930783 293.76 
L 313.930783 3.456 
" clip-path="url(#p357436717b)" style="fill: none; stroke: #b0b0b0; stroke-width: 0.8; stroke-linecap: square"/>
     </g>
     <g id="line2d_6">
      <g>
       <use xlink:href="#m75b3cb2657" x="313.930783" y="293.76" style="stroke: #000000; stroke-width: 0.8"/>
      </g>
     </g>
     <g id="text_3">
      <!-- 4 -->
      <g transform="translate(307.568283 315.956875) scale(0.2 -0.2)">
       <use xlink:href="#DejaVuSans-34"/>
      </g>
     </g>
    </g>
    <g id="xtick_4">
     <g id="line2d_7">
      <path d="M 418.612074 293.76 
L 418.612074 3.456 
" clip-path="url(#p357436717b)" style="fill: none; stroke: #b0b0b0; stroke-width: 0.8; stroke-linecap: square"/>
     </g>
     <g id="line2d_8">
      <g>
       <use xlink:href="#m75b3cb2657" x="418.612074" y="293.76" style="stroke: #000000; stroke-width: 0.8"/>
      </g>
     </g>
     <g id="text_4">
      <!-- 8 -->
      <g transform="translate(412.249574 315.956875) scale(0.2 -0.2)">
       <defs>
        <path id="DejaVuSans-38" d="M 2034 2216 
Q 1584 2216 1326 1975 
Q 1069 1734 1069 1313 
Q 1069 891 1326 650 
Q 1584 409 2034 409 
Q 2484 409 2743 651 
Q 3003 894 3003 1313 
Q 3003 1734 2745 1975 
Q 2488 2216 2034 2216 
z
M 1403 2484 
Q 997 2584 770 2862 
Q 544 3141 544 3541 
Q 544 4100 942 4425 
Q 1341 4750 2034 4750 
Q 2731 4750 3128 4425 
Q 3525 4100 3525 3541 
Q 3525 3141 3298 2862 
Q 3072 2584 2669 2484 
Q 3125 2378 3379 2068 
Q 3634 1759 3634 1313 
Q 3634 634 3220 271 
Q 2806 -91 2034 -91 
Q 1263 -91 848 271 
Q 434 634 434 1313 
Q 434 1759 690 2068 
Q 947 2378 1403 2484 
z
M 1172 3481 
Q 1172 3119 1398 2916 
Q 1625 2713 2034 2713 
Q 2441 2713 2670 2916 
Q 2900 3119 2900 3481 
Q 2900 3844 2670 4047 
Q 2441 4250 2034 4250 
Q 1625 4250 1398 4047 
Q 1172 3844 1172 3481 
z
" transform="scale(0.015625)"/>
       </defs>
       <use xlink:href="#DejaVuSans-38"/>
      </g>
     </g>
    </g>
    <g id="text_5">
     <!-- log10 of Df -->
     <g transform="translate(175.214063 339.313125) scale(0.2 -0.2)">
      <defs>
       <path id="DejaVuSans-6c" d="M 603 4863 
L 1178 4863 
L 1178 0 
L 603 0 
L 603 4863 
z
" transform="scale(0.015625)"/>
       <path id="DejaVuSans-6f" d="M 1959 3097 
Q 1497 3097 1228 2736 
Q 959 2375 959 1747 
Q 959 1119 1226 758 
Q 1494 397 1959 397 
Q 2419 397 2687 759 
Q 2956 1122 2956 1747 
Q 2956 2369 2687 2733 
Q 2419 3097 1959 3097 
z
M 1959 3584 
Q 2709 3584 3137 3096 
Q 3566 2609 3566 1747 
Q 3566 888 3137 398 
Q 2709 -91 1959 -91 
Q 1206 -91 779 398 
Q 353 888 353 1747 
Q 353 2609 779 3096 
Q 1206 3584 1959 3584 
z
" transform="scale(0.015625)"/>
       <path id="DejaVuSans-67" d="M 2906 1791 
Q 2906 2416 2648 2759 
Q 2391 3103 1925 3103 
Q 1463 3103 1205 2759 
Q 947 2416 947 1791 
Q 947 1169 1205 825 
Q 1463 481 1925 481 
Q 2391 481 2648 825 
Q 2906 1169 2906 1791 
z
M 3481 434 
Q 3481 -459 3084 -895 
Q 2688 -1331 1869 -1331 
Q 1566 -1331 1297 -1286 
Q 1028 -1241 775 -1147 
L 775 -588 
Q 1028 -725 1275 -790 
Q 1522 -856 1778 -856 
Q 2344 -856 2625 -561 
Q 2906 -266 2906 331 
L 2906 616 
Q 2728 306 2450 153 
Q 2172 0 1784 0 
Q 1141 0 747 490 
Q 353 981 353 1791 
Q 353 2603 747 3093 
Q 1141 3584 1784 3584 
Q 2172 3584 2450 3431 
Q 2728 3278 2906 2969 
L 2906 3500 
L 3481 3500 
L 3481 434 
z
" transform="scale(0.015625)"/>
       <path id="DejaVuSans-31" d="M 794 531 
L 1825 531 
L 1825 4091 
L 703 3866 
L 703 4441 
L 1819 4666 
L 2450 4666 
L 2450 531 
L 3481 531 
L 3481 0 
L 794 0 
L 794 531 
z
" transform="scale(0.015625)"/>
       <path id="DejaVuSans-20" transform="scale(0.015625)"/>
       <path id="DejaVuSans-66" d="M 2375 4863 
L 2375 4384 
L 1825 4384 
Q 1516 4384 1395 4259 
Q 1275 4134 1275 3809 
L 1275 3500 
L 2222 3500 
L 2222 3053 
L 1275 3053 
L 1275 0 
L 697 0 
L 697 3053 
L 147 3053 
L 147 3500 
L 697 3500 
L 697 3744 
Q 697 4328 969 4595 
Q 1241 4863 1831 4863 
L 2375 4863 
z
" transform="scale(0.015625)"/>
       <path id="DejaVuSans-44" d="M 1259 4147 
L 1259 519 
L 2022 519 
Q 2988 519 3436 956 
Q 3884 1394 3884 2338 
Q 3884 3275 3436 3711 
Q 2988 4147 2022 4147 
L 1259 4147 
z
M 628 4666 
L 1925 4666 
Q 3281 4666 3915 4102 
Q 4550 3538 4550 2338 
Q 4550 1131 3912 565 
Q 3275 0 1925 0 
L 628 0 
L 628 4666 
z
" transform="scale(0.015625)"/>
      </defs>
      <use xlink:href="#DejaVuSans-6c"/>
      <use xlink:href="#DejaVuSans-6f" x="27.783203"/>
      <use xlink:href="#DejaVuSans-67" x="88.964844"/>
      <use xlink:href="#DejaVuSans-31" x="152.441406"/>
      <use xlink:href="#DejaVuSans-30" x="216.064453"/>
      <use xlink:href="#DejaVuSans-20" x="279.6875"/>
      <use xlink:href="#DejaVuSans-6f" x="311.474609"/>
      <use xlink:href="#DejaVuSans-66" x="372.65625"/>
      <use xlink:href="#DejaVuSans-20" x="407.861328"/>
      <use xlink:href="#DejaVuSans-44" x="439.648438"/>
      <use xlink:href="#DejaVuSans-66" x="516.650391"/>
     </g>
    </g>
   </g>
   <g id="matplotlib.axis_2">
    <g id="ytick_1">
     <g id="line2d_9">
      <path d="M 0 293.76 
L 460.8 293.76 
" clip-path="url(#p357436717b)" style="fill: none; stroke: #b0b0b0; stroke-width: 0.8; stroke-linecap: square"/>
     </g>
     <g id="line2d_10">
      <defs>
       <path id="m457109438b" d="M 0 0 
L -3.5 0 
" style="stroke: #000000; stroke-width: 0.8"/>
      </defs>
      <g>
       <use xlink:href="#m457109438b" x="0" y="293.76" style="stroke: #000000; stroke-width: 0.8"/>
      </g>
     </g>
    </g>
    <g id="ytick_2">
     <g id="line2d_11">
      <path d="M 0 236.274059 
L 460.8 236.274059 
" clip-path="url(#p357436717b)" style="fill: none; stroke: #b0b0b0; stroke-width: 0.8; stroke-linecap: square"/>
     </g>
     <g id="line2d_12">
      <g>
       <use xlink:href="#m457109438b" x="0" y="236.274059" style="stroke: #000000; stroke-width: 0.8"/>
      </g>
     </g>
    </g>
    <g id="ytick_3">
     <g id="line2d_13">
      <path d="M 0 178.788119 
L 460.8 178.788119 
" clip-path="url(#p357436717b)" style="fill: none; stroke: #b0b0b0; stroke-width: 0.8; stroke-linecap: square"/>
     </g>
     <g id="line2d_14">
      <g>
       <use xlink:href="#m457109438b" x="0" y="178.788119" style="stroke: #000000; stroke-width: 0.8"/>
      </g>
     </g>
    </g>
    <g id="ytick_4">
     <g id="line2d_15">
      <path d="M 0 121.302178 
L 460.8 121.302178 
" clip-path="url(#p357436717b)" style="fill: none; stroke: #b0b0b0; stroke-width: 0.8; stroke-linecap: square"/>
     </g>
     <g id="line2d_16">
      <g>
       <use xlink:href="#m457109438b" x="0" y="121.302178" style="stroke: #000000; stroke-width: 0.8"/>
      </g>
     </g>
    </g>
    <g id="ytick_5">
     <g id="line2d_17">
      <path d="M 0 63.816238 
L 460.8 63.816238 
" clip-path="url(#p357436717b)" style="fill: none; stroke: #b0b0b0; stroke-width: 0.8; stroke-linecap: square"/>
     </g>
     <g id="line2d_18">
      <g>
       <use xlink:href="#m457109438b" x="0" y="63.816238" style="stroke: #000000; stroke-width: 0.8"/>
      </g>
     </g>
    </g>
    <g id="ytick_6">
     <g id="line2d_19">
      <path d="M 0 6.330297 
L 460.8 6.330297 
" clip-path="url(#p357436717b)" style="fill: none; stroke: #b0b0b0; stroke-width: 0.8; stroke-linecap: square"/>
     </g>
     <g id="line2d_20">
      <g>
       <use xlink:href="#m457109438b" x="0" y="6.330297" style="stroke: #000000; stroke-width: 0.8"/>
      </g>
     </g>
    </g>
   </g>
   <g id="line2d_21">
    <path d="M 262.221268 293.76 
L 262.221268 288.969505 
L 262.662951 288.969505 
L 262.662951 284.17901 
L 262.80208 284.17901 
L 262.80208 279.388515 
L 262.824502 279.388515 
L 262.824502 274.59802 
L 262.83129 274.59802 
L 262.83129 269.807525 
L 262.838203 269.807525 
L 262.838203 265.01703 
L 262.881602 265.01703 
L 262.881602 260.226535 
L 262.883933 260.226535 
L 262.883933 255.43604 
L 262.892284 255.43604 
L 262.892284 250.645545 
L 262.921805 250.645545 
L 262.921805 245.85505 
L 262.924779 245.85505 
L 262.924779 241.064554 
L 262.948341 241.064554 
L 262.948341 236.274059 
L 262.985746 236.274059 
L 262.985746 231.483564 
L 263.143588 231.483564 
L 263.143588 226.693069 
L 263.863358 226.693069 
L 263.863358 221.902574 
L 284.131061 221.902574 
L 284.131061 217.112079 
L 284.870001 217.112079 
L 284.870001 212.321584 
L 285.128676 212.321584 
L 285.128676 207.531089 
L 285.481417 207.531089 
L 285.481417 202.740594 
L 285.91196 202.740594 
L 285.91196 197.950099 
L 287.154394 197.950099 
L 287.154394 193.159604 
L 288.533335 193.159604 
L 288.533335 188.369109 
L 290.596707 188.369109 
L 290.596707 183.578614 
L 291.32234 183.578614 
L 291.32234 178.788119 
L 292.005995 178.788119 
L 292.005995 173.997624 
L 293.737102 173.997624 
L 293.737102 169.207129 
L 293.748954 169.207129 
L 293.748954 164.416634 
L 297.089159 164.416634 
L 297.089159 159.626139 
L 297.927018 159.626139 
L 297.927018 154.835644 
L 298.827056 154.835644 
L 298.827056 150.045149 
L 305.077212 150.045149 
L 305.077212 145.254653 
L 309.387497 145.254653 
L 309.387497 140.464158 
L 311.550372 140.464158 
L 311.550372 135.673663 
L 312.756688 135.673663 
L 312.756688 130.883168 
L 312.861378 130.883168 
L 312.861378 126.092673 
L 313.514259 126.092673 
L 313.514259 121.302178 
L 314.014659 121.302178 
L 314.014659 116.511683 
L 314.203831 116.511683 
L 314.203831 111.721188 
L 314.668086 111.721188 
L 314.668086 106.930693 
L 315.991711 106.930693 
L 315.991711 102.140198 
L 316.035234 102.140198 
L 316.035234 97.349703 
L 316.802392 97.349703 
L 316.802392 92.559208 
L 317.000474 92.559208 
L 317.000474 87.768713 
L 318.348319 87.768713 
L 318.348319 82.978218 
L 318.422396 82.978218 
L 318.422396 78.187723 
L 320.422377 78.187723 
L 320.422377 73.397228 
L 327.494081 73.397228 
L 327.494081 68.606733 
L 328.609723 68.606733 
L 328.609723 63.816238 
L 331.870207 63.816238 
L 331.870207 59.025743 
L 334.501927 59.025743 
L 334.501927 54.235248 
L 334.84394 54.235248 
L 334.84394 49.444752 
L 340.743335 49.444752 
L 340.743335 44.654257 
L 341.944264 44.654257 
L 341.944264 39.863762 
L 342.345668 39.863762 
L 342.345668 35.073267 
L 350.882652 35.073267 
L 350.882652 30.282772 
L 350.969553 30.282772 
L 350.969553 25.492277 
L 352.152967 25.492277 
L 352.152967 20.701782 
L 352.268131 20.701782 
L 352.268131 15.911287 
L 353.766967 15.911287 
L 353.766967 11.120792 
L 358.632282 11.120792 
L 358.632282 6.330297 
L 358.632282 6.330297 
L 358.632282 6.330297 
L 460.8 6.330297 
" clip-path="url(#p357436717b)" style="fill: none; stroke: #ff0000; stroke-width: 3; stroke-linecap: square"/>
   </g>
   <g id="line2d_22">
    <path d="M 263.660839 293.76 
L 263.660839 288.969505 
L 263.741995 288.969505 
L 263.741995 284.17901 
L 263.757605 284.17901 
L 263.757605 279.388515 
L 263.775932 279.388515 
L 263.775932 274.59802 
L 263.792022 274.59802 
L 263.792022 269.807525 
L 263.793599 269.807525 
L 263.793599 265.01703 
L 263.813749 265.01703 
L 263.813749 260.226535 
L 263.846351 260.226535 
L 263.846351 255.43604 
L 263.846958 255.43604 
L 263.846958 250.645545 
L 263.881373 250.645545 
L 263.881373 245.85505 
L 263.973397 245.85505 
L 263.973397 241.064554 
L 263.989091 241.064554 
L 263.989091 236.274059 
L 263.989091 236.274059 
L 263.989091 231.483564 
L 263.989091 231.483564 
L 263.989091 226.693069 
L 263.989091 226.693069 
L 263.989091 221.902574 
L 284.223443 221.902574 
L 284.223443 217.112079 
L 284.870001 217.112079 
L 284.870001 212.321584 
L 285.154269 212.321584 
L 285.154269 207.531089 
L 285.506764 207.531089 
L 285.506764 202.740594 
L 285.91196 202.740594 
L 285.91196 197.950099 
L 287.843685 197.950099 
L 287.843685 193.159604 
L 288.568066 193.159604 
L 288.568066 188.369109 
L 291.167404 188.369109 
L 291.167404 183.578614 
L 291.32234 183.578614 
L 291.32234 178.788119 
L 292.005995 178.788119 
L 292.005995 173.997624 
L 293.748954 173.997624 
L 293.748954 169.207129 
L 293.970591 169.207129 
L 293.970591 164.416634 
L 297.159161 164.416634 
L 297.159161 159.626139 
L 297.93277 159.626139 
L 297.93277 154.835644 
L 298.832105 154.835644 
L 298.832105 150.045149 
L 321.484835 150.045149 
L 321.484835 145.254653 
L 324.81279 145.254653 
L 324.81279 140.464158 
L 329.300588 140.464158 
L 329.300588 135.673663 
L 332.748808 135.673663 
L 332.748808 130.883168 
L 333.846803 130.883168 
L 333.846803 126.092673 
L 334.049925 126.092673 
L 334.049925 121.302178 
L 334.355542 121.302178 
L 334.355542 116.511683 
L 334.727141 116.511683 
L 334.727141 111.721188 
L 335.867365 111.721188 
L 335.867365 106.930693 
L 336.028324 106.930693 
L 336.028324 102.140198 
L 336.64954 102.140198 
L 336.64954 97.349703 
L 337.282375 97.349703 
L 337.282375 92.559208 
L 337.30675 92.559208 
L 337.30675 87.768713 
L 338.005344 87.768713 
L 338.005344 82.978218 
L 338.43482 82.978218 
L 338.43482 78.187723 
L 343.019916 78.187723 
L 343.019916 73.397228 
L 347.474835 73.397228 
L 347.474835 68.606733 
L 350.853268 68.606733 
L 350.853268 63.816238 
L 351.605938 63.816238 
L 351.605938 59.025743 
L 353.313098 59.025743 
L 353.313098 54.235248 
L 353.494382 54.235248 
L 353.494382 49.444752 
L 353.574461 49.444752 
L 353.574461 44.654257 
L 354.229804 44.654257 
L 354.229804 39.863762 
L 354.94424 39.863762 
L 354.94424 35.073267 
L 355.330734 35.073267 
L 355.330734 30.282772 
L 358.981499 30.282772 
L 358.981499 25.492277 
L 360.149257 25.492277 
L 360.149257 20.701782 
L 360.84419 20.701782 
L 360.84419 15.911287 
L 363.236897 15.911287 
L 363.236897 11.120792 
L 366.181669 11.120792 
L 366.181669 6.330297 
L 366.181669 6.330297 
L 366.181669 6.330297 
L 460.8 6.330297 
" clip-path="url(#p357436717b)" style="fill: none; stroke: #00bfbf; stroke-width: 1.5; stroke-linecap: square"/>
   </g>
   <g id="line2d_23">
    <path d="M 263.660839 293.76 
L 263.660839 288.969505 
L 263.741995 288.969505 
L 263.741995 284.17901 
L 263.752367 284.17901 
L 263.752367 279.388515 
L 263.756135 279.388515 
L 263.756135 274.59802 
L 263.757605 274.59802 
L 263.757605 269.807525 
L 263.775932 269.807525 
L 263.775932 265.01703 
L 263.792022 265.01703 
L 263.792022 260.226535 
L 263.793599 260.226535 
L 263.793599 255.43604 
L 263.813749 255.43604 
L 263.813749 250.645545 
L 263.844954 250.645545 
L 263.844954 245.85505 
L 263.846351 245.85505 
L 263.846351 241.064554 
L 263.846958 241.064554 
L 263.846958 236.274059 
L 263.848436 236.274059 
L 263.848436 231.483564 
L 263.863358 231.483564 
L 263.863358 226.693069 
L 263.96525 226.693069 
L 263.96525 221.902574 
L 284.180134 221.902574 
L 284.180134 217.112079 
L 284.870001 217.112079 
L 284.870001 212.321584 
L 285.128676 212.321584 
L 285.128676 207.531089 
L 285.481417 207.531089 
L 285.481417 202.740594 
L 285.91196 202.740594 
L 285.91196 197.950099 
L 287.679158 197.950099 
L 287.679158 193.159604 
L 288.568066 193.159604 
L 288.568066 188.369109 
L 291.126431 188.369109 
L 291.126431 183.578614 
L 291.32234 183.578614 
L 291.32234 178.788119 
L 292.005995 178.788119 
L 292.005995 173.997624 
L 293.748954 173.997624 
L 293.748954 169.207129 
L 293.855251 169.207129 
L 293.855251 164.416634 
L 297.089159 164.416634 
L 297.089159 159.626139 
L 297.93277 159.626139 
L 297.93277 154.835644 
L 298.827056 154.835644 
L 298.827056 150.045149 
L 321.484835 150.045149 
L 321.484835 145.254653 
L 324.761469 145.254653 
L 324.761469 140.464158 
L 329.300588 140.464158 
L 329.300588 135.673663 
L 332.734066 135.673663 
L 332.734066 130.883168 
L 333.793074 130.883168 
L 333.793074 126.092673 
L 333.997912 126.092673 
L 333.997912 121.302178 
L 334.355542 121.302178 
L 334.355542 116.511683 
L 334.711488 116.511683 
L 334.711488 111.721188 
L 335.843473 111.721188 
L 335.843473 106.930693 
L 336.028324 106.930693 
L 336.028324 102.140198 
L 336.64954 102.140198 
L 336.64954 97.349703 
L 337.282375 97.349703 
L 337.282375 92.559208 
L 337.304801 92.559208 
L 337.304801 87.768713 
L 338.001099 87.768713 
L 338.001099 82.978218 
L 338.411526 82.978218 
L 338.411526 78.187723 
L 342.971366 78.187723 
L 342.971366 73.397228 
L 347.474835 73.397228 
L 347.474835 68.606733 
L 350.80788 68.606733 
L 350.80788 63.816238 
L 351.605938 63.816238 
L 351.605938 59.025743 
L 353.313098 59.025743 
L 353.313098 54.235248 
L 353.401176 54.235248 
L 353.401176 49.444752 
L 353.496462 49.444752 
L 353.496462 44.654257 
L 354.229804 44.654257 
L 354.229804 39.863762 
L 354.94424 39.863762 
L 354.94424 35.073267 
L 355.273125 35.073267 
L 355.273125 30.282772 
L 358.82704 30.282772 
L 358.82704 25.492277 
L 360.149257 25.492277 
L 360.149257 20.701782 
L 360.84419 20.701782 
L 360.84419 15.911287 
L 363.186305 15.911287 
L 363.186305 11.120792 
L 366.181669 11.120792 
L 366.181669 6.330297 
L 366.181669 6.330297 
L 366.181669 6.330297 
L 460.8 6.330297 
" clip-path="url(#p357436717b)" style="fill: none; stroke: #bf00bf; stroke-width: 1.5; stroke-linecap: square"/>
   </g>
   <g id="patch_3">
    <path d="M 0 293.76 
L 0 3.456 
" style="fill: none; stroke: #000000; stroke-width: 0.8; stroke-linejoin: miter; stroke-linecap: square"/>
   </g>
   <g id="patch_4">
    <path d="M 460.8 293.76 
L 460.8 3.456 
" style="fill: none; stroke: #000000; stroke-width: 0.8; stroke-linejoin: miter; stroke-linecap: square"/>
   </g>
   <g id="patch_5">
    <path d="M 0 293.76 
L 460.8 293.76 
" style="fill: none; stroke: #000000; stroke-width: 0.8; stroke-linejoin: miter; stroke-linecap: square"/>
   </g>
   <g id="patch_6">
    <path d="M 0 3.456 
L 460.8 3.456 
" style="fill: none; stroke: #000000; stroke-width: 0.8; stroke-linejoin: miter; stroke-linecap: square"/>
   </g>
   <g id="text_6">
    <!-- {f6-f9}, 20-D -->
    <g transform="translate(318.609 287.95392) scale(0.2 -0.2)">
     <defs>
      <path id="DejaVuSans-7b" d="M 3272 -594 
L 3272 -1044 
L 3078 -1044 
Q 2300 -1044 2036 -812 
Q 1772 -581 1772 109 
L 1772 856 
Q 1772 1328 1603 1509 
Q 1434 1691 991 1691 
L 800 1691 
L 800 2138 
L 991 2138 
Q 1438 2138 1605 2317 
Q 1772 2497 1772 2963 
L 1772 3713 
Q 1772 4403 2036 4633 
Q 2300 4863 3078 4863 
L 3272 4863 
L 3272 4416 
L 3059 4416 
Q 2619 4416 2484 4278 
Q 2350 4141 2350 3700 
L 2350 2925 
Q 2350 2434 2208 2212 
Q 2066 1991 1722 1913 
Q 2069 1828 2209 1606 
Q 2350 1384 2350 897 
L 2350 122 
Q 2350 -319 2484 -456 
Q 2619 -594 3059 -594 
L 3272 -594 
z
" transform="scale(0.015625)"/>
      <path id="DejaVuSans-36" d="M 2113 2584 
Q 1688 2584 1439 2293 
Q 1191 2003 1191 1497 
Q 1191 994 1439 701 
Q 1688 409 2113 409 
Q 2538 409 2786 701 
Q 3034 994 3034 1497 
Q 3034 2003 2786 2293 
Q 2538 2584 2113 2584 
z
M 3366 4563 
L 3366 3988 
Q 3128 4100 2886 4159 
Q 2644 4219 2406 4219 
Q 1781 4219 1451 3797 
Q 1122 3375 1075 2522 
Q 1259 2794 1537 2939 
Q 1816 3084 2150 3084 
Q 2853 3084 3261 2657 
Q 3669 2231 3669 1497 
Q 3669 778 3244 343 
Q 2819 -91 2113 -91 
Q 1303 -91 875 529 
Q 447 1150 447 2328 
Q 447 3434 972 4092 
Q 1497 4750 2381 4750 
Q 2619 4750 2861 4703 
Q 3103 4656 3366 4563 
z
" transform="scale(0.015625)"/>
      <path id="DejaVuSans-39" d="M 703 97 
L 703 672 
Q 941 559 1184 500 
Q 1428 441 1663 441 
Q 2288 441 2617 861 
Q 2947 1281 2994 2138 
Q 2813 1869 2534 1725 
Q 2256 1581 1919 1581 
Q 1219 1581 811 2004 
Q 403 2428 403 3163 
Q 403 3881 828 4315 
Q 1253 4750 1959 4750 
Q 2769 4750 3195 4129 
Q 3622 3509 3622 2328 
Q 3622 1225 3098 567 
Q 2575 -91 1691 -91 
Q 1453 -91 1209 -44 
Q 966 3 703 97 
z
M 1959 2075 
Q 2384 2075 2632 2365 
Q 2881 2656 2881 3163 
Q 2881 3666 2632 3958 
Q 2384 4250 1959 4250 
Q 1534 4250 1286 3958 
Q 1038 3666 1038 3163 
Q 1038 2656 1286 2365 
Q 1534 2075 1959 2075 
z
" transform="scale(0.015625)"/>
      <path id="DejaVuSans-7d" d="M 800 -594 
L 1019 -594 
Q 1456 -594 1589 -459 
Q 1722 -325 1722 122 
L 1722 897 
Q 1722 1384 1862 1606 
Q 2003 1828 2350 1913 
Q 2003 1991 1862 2212 
Q 1722 2434 1722 2925 
L 1722 3700 
Q 1722 4144 1589 4280 
Q 1456 4416 1019 4416 
L 800 4416 
L 800 4863 
L 997 4863 
Q 1775 4863 2036 4633 
Q 2297 4403 2297 3713 
L 2297 2963 
Q 2297 2497 2465 2317 
Q 2634 2138 3078 2138 
L 3272 2138 
L 3272 1691 
L 3078 1691 
Q 2634 1691 2465 1509 
Q 2297 1328 2297 856 
L 2297 109 
Q 2297 -581 2036 -812 
Q 1775 -1044 997 -1044 
L 800 -1044 
L 800 -594 
z
" transform="scale(0.015625)"/>
      <path id="DejaVuSans-2c" d="M 750 794 
L 1409 794 
L 1409 256 
L 897 -744 
L 494 -744 
L 750 256 
L 750 794 
z
" transform="scale(0.015625)"/>
      <path id="DejaVuSans-32" d="M 1228 531 
L 3431 531 
L 3431 0 
L 469 0 
L 469 531 
Q 828 903 1448 1529 
Q 2069 2156 2228 2338 
Q 2531 2678 2651 2914 
Q 2772 3150 2772 3378 
Q 2772 3750 2511 3984 
Q 2250 4219 1831 4219 
Q 1534 4219 1204 4116 
Q 875 4013 500 3803 
L 500 4441 
Q 881 4594 1212 4672 
Q 1544 4750 1819 4750 
Q 2544 4750 2975 4387 
Q 3406 4025 3406 3419 
Q 3406 3131 3298 2873 
Q 3191 2616 2906 2266 
Q 2828 2175 2409 1742 
Q 1991 1309 1228 531 
z
" transform="scale(0.015625)"/>
     </defs>
     <use xlink:href="#DejaVuSans-7b"/>
     <use xlink:href="#DejaVuSans-66" x="63.623047"/>
     <use xlink:href="#DejaVuSans-36" x="98.828125"/>
     <use xlink:href="#DejaVuSans-2d" x="162.451172"/>
     <use xlink:href="#DejaVuSans-66" x="198.535156"/>
     <use xlink:href="#DejaVuSans-39" x="233.740234"/>
     <use xlink:href="#DejaVuSans-7d" x="297.363281"/>
     <use xlink:href="#DejaVuSans-2c" x="360.986328"/>
     <use xlink:href="#DejaVuSans-20" x="392.773438"/>
     <use xlink:href="#DejaVuSans-32" x="424.560547"/>
     <use xlink:href="#DejaVuSans-30" x="488.183594"/>
     <use xlink:href="#DejaVuSans-2d" x="551.806641"/>
     <use xlink:href="#DejaVuSans-44" x="587.890625"/>
    </g>
   </g>
   <g id="text_7">
    <!-- v2.6.3 -->
    <g style="fill: #808080" transform="translate(214.71875 288.777272) scale(0.1 -0.1)">
     <defs>
      <path id="DejaVuSans-76" d="M 191 3500 
L 800 3500 
L 1894 563 
L 2988 3500 
L 3597 3500 
L 2284 0 
L 1503 0 
L 191 3500 
z
" transform="scale(0.015625)"/>
      <path id="DejaVuSans-2e" d="M 684 794 
L 1344 794 
L 1344 0 
L 684 0 
L 684 794 
z
" transform="scale(0.015625)"/>
      <path id="DejaVuSans-33" d="M 2597 2516 
Q 3050 2419 3304 2112 
Q 3559 1806 3559 1356 
Q 3559 666 3084 287 
Q 2609 -91 1734 -91 
Q 1441 -91 1130 -33 
Q 819 25 488 141 
L 488 750 
Q 750 597 1062 519 
Q 1375 441 1716 441 
Q 2309 441 2620 675 
Q 2931 909 2931 1356 
Q 2931 1769 2642 2001 
Q 2353 2234 1838 2234 
L 1294 2234 
L 1294 2753 
L 1863 2753 
Q 2328 2753 2575 2939 
Q 2822 3125 2822 3475 
Q 2822 3834 2567 4026 
Q 2313 4219 1838 4219 
Q 1578 4219 1281 4162 
Q 984 4106 628 3988 
L 628 4550 
Q 988 4650 1302 4700 
Q 1616 4750 1894 4750 
Q 2613 4750 3031 4423 
Q 3450 4097 3450 3541 
Q 3450 3153 3228 2886 
Q 3006 2619 2597 2516 
z
" transform="scale(0.015625)"/>
     </defs>
     <use xlink:href="#DejaVuSans-76"/>
     <use xlink:href="#DejaVuSans-32" x="59.179688"/>
     <use xlink:href="#DejaVuSans-2e" x="122.802734"/>
     <use xlink:href="#DejaVuSans-36" x="154.589844"/>
     <use xlink:href="#DejaVuSans-2e" x="218.212891"/>
     <use xlink:href="#DejaVuSans-33" x="250"/>
    </g>
   </g>
  </g>
 </g>
 <defs>
  <clipPath id="p357436717b">
   <rect x="0" y="3.456" width="460.8" height="290.304"/>
  </clipPath>
 </defs>
</svg>
