<?xml version="1.0" encoding="utf-8" standalone="no"?>
<!DOCTYPE svg PUBLIC "-//W3C//DTD SVG 1.1//EN"
  "http://www.w3.org/Graphics/SVG/1.1/DTD/svg11.dtd">
<svg xmlns:xlink="http://www.w3.org/1999/xlink" width="460.8pt" height="345.6pt" viewBox="0 0 460.8 345.6" xmlns="http://www.w3.org/2000/svg" version="1.1">
 <metadata>
  <rdf:RDF xmlns:dc="http://purl.org/dc/elements/1.1/" xmlns:cc="http://creativecommons.org/ns#" xmlns:rdf="http://www.w3.org/1999/02/22-rdf-syntax-ns#">
   <cc:Work>
    <dc:type rdf:resource="http://purl.org/dc/dcmitype/StillImage"/>
    <dc:date>2024-01-17T15:30:53.804871</dc:date>
    <dc:format>image/svg+xml</dc:format>
    <dc:creator>
     <cc:Agent>
      <dc:title>Matplotlib v3.8.2, https://matplotlib.org/</dc:title>
     </cc:Agent>
    </dc:creator>
   </cc:Work>
  </rdf:RDF>
 </metadata>
 <defs>
  <style type="text/css">*{stroke-linejoin: round; stroke-linecap: butt}</style>
 </defs>
 <g id="figure_1">
  <g id="patch_1">
   <path d="M 0 345.6 
L 460.8 345.6 
L 460.8 0 
L 0 0 
z
" style="fill: #ffffff"/>
  </g>
  <g id="axes_1">
   <g id="patch_2">
    <path d="M 0 293.76 
L 460.8 293.76 
L 460.8 3.456 
L 0 3.456 
z
" style="fill: #ffffff"/>
   </g>
   <g id="matplotlib.axis_1">
    <g id="xtick_1">
     <g id="line2d_1">
      <path d="M 106.611868 293.76 
L 106.611868 3.456 
" clip-path="url(#p89d679dad0)" style="fill: none; stroke: #b0b0b0; stroke-width: 0.8; stroke-linecap: square"/>
     </g>
     <g id="line2d_2">
      <defs>
       <path id="m5f2cbe7dea" d="M 0 0 
L 0 3.5 
" style="stroke: #000000; stroke-width: 0.8"/>
      </defs>
      <g>
       <use xlink:href="#m5f2cbe7dea" x="106.611868" y="293.76" style="stroke: #000000; stroke-width: 0.8"/>
      </g>
     </g>
     <g id="text_1">
      <!-- -4 -->
      <g transform="translate(96.641555 315.956875) scale(0.2 -0.2)">
       <defs>
        <path id="DejaVuSans-2d" d="M 313 2009 
L 1997 2009 
L 1997 1497 
L 313 1497 
L 313 2009 
z
" transform="scale(0.015625)"/>
        <path id="DejaVuSans-34" d="M 2419 4116 
L 825 1625 
L 2419 1625 
L 2419 4116 
z
M 2253 4666 
L 3047 4666 
L 3047 1625 
L 3713 1625 
L 3713 1100 
L 3047 1100 
L 3047 0 
L 2419 0 
L 2419 1100 
L 313 1100 
L 313 1709 
L 2253 4666 
z
" transform="scale(0.015625)"/>
       </defs>
       <use xlink:href="#DejaVuSans-2d"/>
       <use xlink:href="#DejaVuSans-34" x="36.083984"/>
      </g>
     </g>
    </g>
    <g id="xtick_2">
     <g id="line2d_3">
      <path d="M 213.339037 293.76 
L 213.339037 3.456 
" clip-path="url(#p89d679dad0)" style="fill: none; stroke: #b0b0b0; stroke-width: 0.8; stroke-linecap: square"/>
     </g>
     <g id="line2d_4">
      <g>
       <use xlink:href="#m5f2cbe7dea" x="213.339037" y="293.76" style="stroke: #000000; stroke-width: 0.8"/>
      </g>
     </g>
     <g id="text_2">
      <!-- 0 -->
      <g transform="translate(206.976537 315.956875) scale(0.2 -0.2)">
       <defs>
        <path id="DejaVuSans-30" d="M 2034 4250 
Q 1547 4250 1301 3770 
Q 1056 3291 1056 2328 
Q 1056 1369 1301 889 
Q 1547 409 2034 409 
Q 2525 409 2770 889 
Q 3016 1369 3016 2328 
Q 3016 3291 2770 3770 
Q 2525 4250 2034 4250 
z
M 2034 4750 
Q 2819 4750 3233 4129 
Q 3647 3509 3647 2328 
Q 3647 1150 3233 529 
Q 2819 -91 2034 -91 
Q 1250 -91 836 529 
Q 422 1150 422 2328 
Q 422 3509 836 4129 
Q 1250 4750 2034 4750 
z
" transform="scale(0.015625)"/>
       </defs>
       <use xlink:href="#DejaVuSans-30"/>
      </g>
     </g>
    </g>
    <g id="xtick_3">
     <g id="line2d_5">
      <path d="M 320.066207 293.76 
L 320.066207 3.456 
" clip-path="url(#p89d679dad0)" style="fill: none; stroke: #b0b0b0; stroke-width: 0.8; stroke-linecap: square"/>
     </g>
     <g id="line2d_6">
      <g>
       <use xlink:href="#m5f2cbe7dea" x="320.066207" y="293.76" style="stroke: #000000; stroke-width: 0.8"/>
      </g>
     </g>
     <g id="text_3">
      <!-- 4 -->
      <g transform="translate(313.703707 315.956875) scale(0.2 -0.2)">
       <use xlink:href="#DejaVuSans-34"/>
      </g>
     </g>
    </g>
    <g id="xtick_4">
     <g id="line2d_7">
      <path d="M 426.793377 293.76 
L 426.793377 3.456 
" clip-path="url(#p89d679dad0)" style="fill: none; stroke: #b0b0b0; stroke-width: 0.8; stroke-linecap: square"/>
     </g>
     <g id="line2d_8">
      <g>
       <use xlink:href="#m5f2cbe7dea" x="426.793377" y="293.76" style="stroke: #000000; stroke-width: 0.8"/>
      </g>
     </g>
     <g id="text_4">
      <!-- 8 -->
      <g transform="translate(420.430877 315.956875) scale(0.2 -0.2)">
       <defs>
        <path id="DejaVuSans-38" d="M 2034 2216 
Q 1584 2216 1326 1975 
Q 1069 1734 1069 1313 
Q 1069 891 1326 650 
Q 1584 409 2034 409 
Q 2484 409 2743 651 
Q 3003 894 3003 1313 
Q 3003 1734 2745 1975 
Q 2488 2216 2034 2216 
z
M 1403 2484 
Q 997 2584 770 2862 
Q 544 3141 544 3541 
Q 544 4100 942 4425 
Q 1341 4750 2034 4750 
Q 2731 4750 3128 4425 
Q 3525 4100 3525 3541 
Q 3525 3141 3298 2862 
Q 3072 2584 2669 2484 
Q 3125 2378 3379 2068 
Q 3634 1759 3634 1313 
Q 3634 634 3220 271 
Q 2806 -91 2034 -91 
Q 1263 -91 848 271 
Q 434 634 434 1313 
Q 434 1759 690 2068 
Q 947 2378 1403 2484 
z
M 1172 3481 
Q 1172 3119 1398 2916 
Q 1625 2713 2034 2713 
Q 2441 2713 2670 2916 
Q 2900 3119 2900 3481 
Q 2900 3844 2670 4047 
Q 2441 4250 2034 4250 
Q 1625 4250 1398 4047 
Q 1172 3844 1172 3481 
z
" transform="scale(0.015625)"/>
       </defs>
       <use xlink:href="#DejaVuSans-38"/>
      </g>
     </g>
    </g>
    <g id="text_5">
     <!-- log10 of Df -->
     <g transform="translate(175.214063 339.313125) scale(0.2 -0.2)">
      <defs>
       <path id="DejaVuSans-6c" d="M 603 4863 
L 1178 4863 
L 1178 0 
L 603 0 
L 603 4863 
z
" transform="scale(0.015625)"/>
       <path id="DejaVuSans-6f" d="M 1959 3097 
Q 1497 3097 1228 2736 
Q 959 2375 959 1747 
Q 959 1119 1226 758 
Q 1494 397 1959 397 
Q 2419 397 2687 759 
Q 2956 1122 2956 1747 
Q 2956 2369 2687 2733 
Q 2419 3097 1959 3097 
z
M 1959 3584 
Q 2709 3584 3137 3096 
Q 3566 2609 3566 1747 
Q 3566 888 3137 398 
Q 2709 -91 1959 -91 
Q 1206 -91 779 398 
Q 353 888 353 1747 
Q 353 2609 779 3096 
Q 1206 3584 1959 3584 
z
" transform="scale(0.015625)"/>
       <path id="DejaVuSans-67" d="M 2906 1791 
Q 2906 2416 2648 2759 
Q 2391 3103 1925 3103 
Q 1463 3103 1205 2759 
Q 947 2416 947 1791 
Q 947 1169 1205 825 
Q 1463 481 1925 481 
Q 2391 481 2648 825 
Q 2906 1169 2906 1791 
z
M 3481 434 
Q 3481 -459 3084 -895 
Q 2688 -1331 1869 -1331 
Q 1566 -1331 1297 -1286 
Q 1028 -1241 775 -1147 
L 775 -588 
Q 1028 -725 1275 -790 
Q 1522 -856 1778 -856 
Q 2344 -856 2625 -561 
Q 2906 -266 2906 331 
L 2906 616 
Q 2728 306 2450 153 
Q 2172 0 1784 0 
Q 1141 0 747 490 
Q 353 981 353 1791 
Q 353 2603 747 3093 
Q 1141 3584 1784 3584 
Q 2172 3584 2450 3431 
Q 2728 3278 2906 2969 
L 2906 3500 
L 3481 3500 
L 3481 434 
z
" transform="scale(0.015625)"/>
       <path id="DejaVuSans-31" d="M 794 531 
L 1825 531 
L 1825 4091 
L 703 3866 
L 703 4441 
L 1819 4666 
L 2450 4666 
L 2450 531 
L 3481 531 
L 3481 0 
L 794 0 
L 794 531 
z
" transform="scale(0.015625)"/>
       <path id="DejaVuSans-20" transform="scale(0.015625)"/>
       <path id="DejaVuSans-66" d="M 2375 4863 
L 2375 4384 
L 1825 4384 
Q 1516 4384 1395 4259 
Q 1275 4134 1275 3809 
L 1275 3500 
L 2222 3500 
L 2222 3053 
L 1275 3053 
L 1275 0 
L 697 0 
L 697 3053 
L 147 3053 
L 147 3500 
L 697 3500 
L 697 3744 
Q 697 4328 969 4595 
Q 1241 4863 1831 4863 
L 2375 4863 
z
" transform="scale(0.015625)"/>
       <path id="DejaVuSans-44" d="M 1259 4147 
L 1259 519 
L 2022 519 
Q 2988 519 3436 956 
Q 3884 1394 3884 2338 
Q 3884 3275 3436 3711 
Q 2988 4147 2022 4147 
L 1259 4147 
z
M 628 4666 
L 1925 4666 
Q 3281 4666 3915 4102 
Q 4550 3538 4550 2338 
Q 4550 1131 3912 565 
Q 3275 0 1925 0 
L 628 0 
L 628 4666 
z
" transform="scale(0.015625)"/>
      </defs>
      <use xlink:href="#DejaVuSans-6c"/>
      <use xlink:href="#DejaVuSans-6f" x="27.783203"/>
      <use xlink:href="#DejaVuSans-67" x="88.964844"/>
      <use xlink:href="#DejaVuSans-31" x="152.441406"/>
      <use xlink:href="#DejaVuSans-30" x="216.064453"/>
      <use xlink:href="#DejaVuSans-20" x="279.6875"/>
      <use xlink:href="#DejaVuSans-6f" x="311.474609"/>
      <use xlink:href="#DejaVuSans-66" x="372.65625"/>
      <use xlink:href="#DejaVuSans-20" x="407.861328"/>
      <use xlink:href="#DejaVuSans-44" x="439.648438"/>
      <use xlink:href="#DejaVuSans-66" x="516.650391"/>
     </g>
    </g>
   </g>
   <g id="matplotlib.axis_2">
    <g id="ytick_1">
     <g id="line2d_9">
      <path d="M 0 293.76 
L 460.8 293.76 
" clip-path="url(#p89d679dad0)" style="fill: none; stroke: #b0b0b0; stroke-width: 0.8; stroke-linecap: square"/>
     </g>
     <g id="line2d_10">
      <defs>
       <path id="maad077fce4" d="M 0 0 
L -3.5 0 
" style="stroke: #000000; stroke-width: 0.8"/>
      </defs>
      <g>
       <use xlink:href="#maad077fce4" x="0" y="293.76" style="stroke: #000000; stroke-width: 0.8"/>
      </g>
     </g>
    </g>
    <g id="ytick_2">
     <g id="line2d_11">
      <path d="M 0 236.274059 
L 460.8 236.274059 
" clip-path="url(#p89d679dad0)" style="fill: none; stroke: #b0b0b0; stroke-width: 0.8; stroke-linecap: square"/>
     </g>
     <g id="line2d_12">
      <g>
       <use xlink:href="#maad077fce4" x="0" y="236.274059" style="stroke: #000000; stroke-width: 0.8"/>
      </g>
     </g>
    </g>
    <g id="ytick_3">
     <g id="line2d_13">
      <path d="M 0 178.788119 
L 460.8 178.788119 
" clip-path="url(#p89d679dad0)" style="fill: none; stroke: #b0b0b0; stroke-width: 0.8; stroke-linecap: square"/>
     </g>
     <g id="line2d_14">
      <g>
       <use xlink:href="#maad077fce4" x="0" y="178.788119" style="stroke: #000000; stroke-width: 0.8"/>
      </g>
     </g>
    </g>
    <g id="ytick_4">
     <g id="line2d_15">
      <path d="M 0 121.302178 
L 460.8 121.302178 
" clip-path="url(#p89d679dad0)" style="fill: none; stroke: #b0b0b0; stroke-width: 0.8; stroke-linecap: square"/>
     </g>
     <g id="line2d_16">
      <g>
       <use xlink:href="#maad077fce4" x="0" y="121.302178" style="stroke: #000000; stroke-width: 0.8"/>
      </g>
     </g>
    </g>
    <g id="ytick_5">
     <g id="line2d_17">
      <path d="M 0 63.816238 
L 460.8 63.816238 
" clip-path="url(#p89d679dad0)" style="fill: none; stroke: #b0b0b0; stroke-width: 0.8; stroke-linecap: square"/>
     </g>
     <g id="line2d_18">
      <g>
       <use xlink:href="#maad077fce4" x="0" y="63.816238" style="stroke: #000000; stroke-width: 0.8"/>
      </g>
     </g>
    </g>
    <g id="ytick_6">
     <g id="line2d_19">
      <path d="M 0 6.330297 
L 460.8 6.330297 
" clip-path="url(#p89d679dad0)" style="fill: none; stroke: #b0b0b0; stroke-width: 0.8; stroke-linecap: square"/>
     </g>
     <g id="line2d_20">
      <g>
       <use xlink:href="#maad077fce4" x="0" y="6.330297" style="stroke: #000000; stroke-width: 0.8"/>
      </g>
     </g>
    </g>
   </g>
   <g id="line2d_21">
    <path d="M 197.292308 293.76 
L 197.292308 281.783762 
L 221.318083 281.783762 
L 221.318083 280.985347 
L 222.023234 280.985347 
L 222.023234 280.186931 
L 222.714984 280.186931 
L 222.714984 279.388515 
L 223.488358 279.388515 
L 223.488358 278.590099 
L 225.819059 278.590099 
L 225.819059 277.791683 
L 226.161265 277.791683 
L 226.161265 276.993267 
L 227.566046 276.993267 
L 227.566046 276.194851 
L 227.768678 276.194851 
L 227.768678 275.396436 
L 229.872264 275.396436 
L 229.872264 274.59802 
L 230.016641 274.59802 
L 230.016641 273.799604 
L 230.601673 273.799604 
L 230.601673 273.001188 
L 231.436804 273.001188 
L 231.436804 272.202772 
L 231.837654 272.202772 
L 231.837654 271.404356 
L 232.625692 271.404356 
L 232.625692 270.605941 
L 233.446899 270.605941 
L 233.446899 269.807525 
L 234.298963 269.807525 
L 234.298963 269.009109 
L 234.578406 269.009109 
L 234.578406 268.210693 
L 235.217912 268.210693 
L 235.217912 267.412277 
L 235.409454 267.412277 
L 235.455974 265.815446 
L 235.902209 265.815446 
L 235.902209 265.01703 
L 236.041664 265.01703 
L 236.083075 263.420198 
L 236.428597 263.420198 
L 236.428597 262.621782 
L 236.620561 262.621782 
L 236.620561 261.823366 
L 236.888706 261.823366 
L 236.888706 261.02495 
L 237.01048 261.02495 
L 237.094612 259.428119 
L 237.823842 259.428119 
L 237.850242 257.831287 
L 237.93929 257.831287 
L 237.93929 257.032871 
L 238.108762 257.032871 
L 238.19007 254.637624 
L 238.365377 254.637624 
L 238.365377 253.839208 
L 238.6527 253.839208 
L 238.6527 253.040792 
L 238.799458 253.040792 
L 238.799458 252.242376 
L 239.193717 252.242376 
L 239.193717 251.44396 
L 239.492858 251.44396 
L 239.492858 250.645545 
L 240.24272 250.645545 
L 240.318608 249.048713 
L 240.424227 249.048713 
L 240.505245 247.451881 
L 240.720971 247.451881 
L 240.802882 245.85505 
L 241.32946 245.85505 
L 241.32946 245.056634 
L 241.584162 245.056634 
L 241.584162 244.258218 
L 242.114181 244.258218 
L 242.177606 242.661386 
L 242.383127 242.661386 
L 242.383127 241.86297 
L 242.782109 241.86297 
L 242.851018 234.677228 
L 243.217908 234.677228 
L 243.281986 232.28198 
L 243.733706 232.28198 
L 243.733706 231.483564 
L 243.850945 231.483564 
L 243.950531 229.088317 
L 244.124242 229.088317 
L 244.197902 227.491485 
L 244.902543 227.491485 
L 244.902543 226.693069 
L 245.241941 226.693069 
L 245.241941 225.894653 
L 245.41774 225.894653 
L 245.494222 224.297822 
L 245.548346 224.297822 
L 245.548346 223.499406 
L 246.942255 223.499406 
L 247.048055 221.902574 
L 248.438096 221.902574 
L 248.438096 221.104158 
L 248.921687 221.104158 
L 248.968955 218.708911 
L 249.065627 218.708911 
L 249.065627 217.910495 
L 249.403769 217.910495 
L 249.403769 217.112079 
L 249.567153 217.112079 
L 249.567153 216.313663 
L 249.741018 216.313663 
L 249.797042 214.716832 
L 250.009837 214.716832 
L 250.009837 213.918416 
L 250.553423 213.918416 
L 250.553423 213.12 
L 250.75921 213.12 
L 250.75921 212.321584 
L 250.897795 212.321584 
L 250.916457 210.724752 
L 251.361655 210.724752 
L 251.426542 209.127921 
L 251.545664 209.127921 
L 251.619865 207.531089 
L 251.99744 207.531089 
L 251.99744 206.732673 
L 252.632379 206.732673 
L 252.671878 205.135842 
L 252.833309 205.135842 
L 252.833309 204.337426 
L 253.122865 204.337426 
L 253.122865 203.53901 
L 253.324624 203.53901 
L 253.324624 202.740594 
L 253.495475 202.740594 
L 253.495475 201.942178 
L 254.055979 201.942178 
L 254.055979 201.143762 
L 255.271551 201.143762 
L 255.321552 198.748515 
L 255.535007 198.748515 
L 255.535007 197.950099 
L 255.696218 197.950099 
L 255.696218 197.151683 
L 256.420504 197.151683 
L 256.420504 196.353267 
L 256.722557 196.353267 
L 256.766442 194.756436 
L 256.853797 194.756436 
L 256.95942 192.361188 
L 257.114895 192.361188 
L 257.139183 190.764356 
L 257.229563 190.764356 
L 257.229563 189.965941 
L 257.716813 189.965941 
L 257.815834 187.570693 
L 257.874284 187.570693 
L 257.967823 185.175446 
L 258.203468 185.175446 
L 258.236268 182.780198 
L 258.398461 182.780198 
L 258.398461 181.981782 
L 258.699378 181.981782 
L 258.781763 180.38495 
L 258.833618 180.38495 
L 258.839918 178.788119 
L 259.204377 178.788119 
L 259.268813 177.191287 
L 259.324016 177.191287 
L 259.324016 176.392871 
L 259.447259 176.392871 
L 259.547364 173.997624 
L 259.631307 173.997624 
L 259.679552 172.400792 
L 259.885282 172.400792 
L 259.885282 171.602376 
L 260.080283 171.602376 
L 260.080283 170.80396 
L 260.281607 170.80396 
L 260.281607 170.005545 
L 260.446363 170.005545 
L 260.534932 167.610297 
L 260.714718 167.610297 
L 260.751695 165.21505 
L 260.937312 165.21505 
L 260.937312 164.416634 
L 261.05763 164.416634 
L 261.104942 162.021386 
L 261.394951 162.021386 
L 261.48742 159.626139 
L 261.552116 159.626139 
L 261.634033 158.029307 
L 261.767288 158.029307 
L 261.767288 157.230891 
L 262.018859 157.230891 
L 262.018859 156.432475 
L 262.80851 156.432475 
L 262.80851 155.634059 
L 262.92352 155.634059 
L 262.92352 154.835644 
L 263.132819 154.835644 
L 263.132819 154.037228 
L 263.254165 154.037228 
L 263.254165 153.238812 
L 263.853187 153.238812 
L 263.917899 151.64198 
L 263.986526 151.64198 
L 264.021316 149.246733 
L 264.113123 149.246733 
L 264.113123 148.448317 
L 264.540712 148.448317 
L 264.540712 147.649901 
L 264.879486 147.649901 
L 264.879486 146.851485 
L 265.00471 146.851485 
L 265.00471 146.053069 
L 265.161185 146.053069 
L 265.263476 143.657822 
L 265.449942 143.657822 
L 265.449942 142.859406 
L 265.963508 142.859406 
L 265.963508 142.06099 
L 266.510409 142.06099 
L 266.510409 141.262574 
L 266.755474 141.262574 
L 266.846162 139.665743 
L 267.160445 139.665743 
L 267.160445 138.867327 
L 267.396947 138.867327 
L 267.467108 137.270495 
L 267.818554 137.270495 
L 267.818554 136.472079 
L 268.096142 136.472079 
L 268.096142 135.673663 
L 268.277045 135.673663 
L 268.277045 134.875248 
L 269.292033 134.875248 
L 269.292033 134.076832 
L 269.967127 134.076832 
L 269.967127 133.278416 
L 270.121265 133.278416 
L 270.216047 131.681584 
L 270.280754 131.681584 
L 270.280754 130.883168 
L 270.562583 130.883168 
L 270.562583 130.084752 
L 270.7131 130.084752 
L 270.7131 129.286337 
L 271.164888 129.286337 
L 271.237224 126.891089 
L 271.414366 126.891089 
L 271.414366 126.092673 
L 271.540487 126.092673 
L 271.540487 125.294257 
L 271.781556 125.294257 
L 271.781556 124.495842 
L 272.020917 124.495842 
L 272.020917 123.697426 
L 272.174051 123.697426 
L 272.174051 122.89901 
L 272.872667 122.89901 
L 272.979593 120.503762 
L 273.261169 120.503762 
L 273.261169 119.705347 
L 273.931758 119.705347 
L 273.931758 118.906931 
L 274.092055 118.906931 
L 274.192827 116.511683 
L 274.536604 116.511683 
L 274.536604 115.713267 
L 274.750975 115.713267 
L 274.750975 114.914851 
L 275.403639 114.914851 
L 275.403639 114.116436 
L 275.691789 114.116436 
L 275.691789 113.31802 
L 276.099498 113.31802 
L 276.135476 110.124356 
L 276.2181 110.124356 
L 276.2181 109.325941 
L 276.525839 109.325941 
L 276.525839 108.527525 
L 277.164823 108.527525 
L 277.227629 106.930693 
L 277.710488 106.930693 
L 277.710488 106.132277 
L 277.904426 106.132277 
L 277.904426 105.333861 
L 278.495593 105.333861 
L 278.495593 104.535446 
L 278.68709 104.535446 
L 278.68709 103.73703 
L 279.378521 103.73703 
L 279.378521 102.938614 
L 279.550484 102.938614 
L 279.61267 101.341782 
L 279.986804 101.341782 
L 279.986804 100.543366 
L 280.251756 100.543366 
L 280.251756 99.74495 
L 280.892113 99.74495 
L 280.892113 98.946535 
L 281.325398 98.946535 
L 281.325398 98.148119 
L 281.729134 98.148119 
L 281.729134 97.349703 
L 281.851774 97.349703 
L 281.851774 96.551287 
L 282.061697 96.551287 
L 282.061697 95.752871 
L 283.468199 95.752871 
L 283.468199 94.954455 
L 283.685933 94.954455 
L 283.765163 92.559208 
L 283.921039 92.559208 
L 283.96971 90.962376 
L 284.136388 90.962376 
L 284.136388 90.16396 
L 284.440039 90.16396 
L 284.497872 88.567129 
L 284.636233 88.567129 
L 284.746925 86.970297 
L 285.308726 86.970297 
L 285.308726 86.171881 
L 285.80705 86.171881 
L 285.913453 84.57505 
L 286.642879 84.57505 
L 286.642879 83.776634 
L 287.387457 83.776634 
L 287.387457 82.978218 
L 287.745158 82.978218 
L 287.745158 82.179802 
L 288.042801 82.179802 
L 288.042801 81.381386 
L 288.782238 81.381386 
L 288.782238 80.58297 
L 289.461979 80.58297 
L 289.461979 79.784554 
L 289.852154 79.784554 
L 289.852154 78.986139 
L 290.061378 78.986139 
L 290.061378 78.187723 
L 290.613889 78.187723 
L 290.613889 77.389307 
L 290.878614 77.389307 
L 290.878614 76.590891 
L 291.310763 76.590891 
L 291.310763 75.792475 
L 291.921666 75.792475 
L 291.921666 74.994059 
L 293.388231 74.994059 
L 293.388231 74.195644 
L 295.730088 74.195644 
L 295.730088 73.397228 
L 296.342604 73.397228 
L 296.342604 72.598812 
L 301.474262 72.598812 
L 301.474262 71.800396 
L 303.746964 71.800396 
L 303.746964 71.00198 
L 305.233211 71.00198 
L 305.233211 70.203564 
L 307.708248 70.203564 
L 307.708248 69.405149 
L 308.895774 69.405149 
L 308.895774 68.606733 
L 309.335041 68.606733 
L 309.335041 67.808317 
L 310.34115 67.808317 
L 310.34115 67.009901 
L 312.002307 67.009901 
L 312.002307 66.211485 
L 313.282913 66.211485 
L 313.282913 65.413069 
L 314.115428 65.413069 
L 314.115428 64.614653 
L 315.024503 64.614653 
L 315.024503 63.816238 
L 315.702818 63.816238 
L 315.702818 63.017822 
L 317.855632 63.017822 
L 317.93613 61.42099 
L 318.865613 61.42099 
L 318.898688 59.824158 
L 321.590243 59.824158 
L 321.590243 59.025743 
L 323.023043 59.025743 
L 323.023043 58.227327 
L 326.160658 58.227327 
L 326.160658 57.428911 
L 326.821259 57.428911 
L 326.821259 56.630495 
L 330.561639 56.630495 
L 330.561639 55.832079 
L 333.229365 55.832079 
L 333.229365 55.033663 
L 333.748309 55.033663 
L 333.748309 54.235248 
L 335.101962 54.235248 
L 335.101962 53.436832 
L 336.223061 53.436832 
L 336.223061 52.638416 
L 341.465512 52.638416 
L 341.465512 51.84 
L 343.426772 51.84 
L 343.426772 51.041584 
L 345.077779 51.041584 
L 345.077779 50.243168 
L 349.720604 50.243168 
L 349.720604 49.444752 
L 350.614349 49.444752 
L 350.614349 48.646337 
L 354.125141 48.646337 
L 354.125141 47.847921 
L 354.758135 47.847921 
L 354.758135 47.049505 
L 355.182458 47.049505 
L 355.182458 46.251089 
L 357.545677 46.251089 
L 357.545677 45.452673 
L 357.682592 45.452673 
L 357.682592 44.654257 
L 357.997928 44.654257 
L 357.997928 43.855842 
L 358.156565 43.855842 
L 358.156565 43.057426 
L 358.850705 43.057426 
L 358.850705 42.25901 
L 359.392714 42.25901 
L 359.425251 40.662178 
L 360.086446 40.662178 
L 360.086446 39.863762 
L 360.449831 39.863762 
L 360.449831 39.065347 
L 362.043076 39.065347 
L 362.043076 38.266931 
L 362.708266 38.266931 
L 362.708266 37.468515 
L 363.457715 37.468515 
L 363.457715 36.670099 
L 365.766937 36.670099 
L 365.766937 35.871683 
L 366.05427 35.871683 
L 366.05427 35.073267 
L 366.215389 35.073267 
L 366.215389 34.274851 
L 366.35104 34.274851 
L 366.35104 33.476436 
L 367.348232 33.476436 
L 367.348232 32.67802 
L 368.386402 32.67802 
L 368.386402 31.879604 
L 369.142361 31.879604 
L 369.142361 31.081188 
L 370.36931 31.081188 
L 370.380418 29.484356 
L 371.206327 29.484356 
L 371.206327 28.685941 
L 371.558159 28.685941 
L 371.558159 27.887525 
L 373.188901 27.887525 
L 373.188901 27.089109 
L 374.916451 27.089109 
L 374.916451 26.290693 
L 375.55495 26.290693 
L 375.55495 25.492277 
L 376.672283 25.492277 
L 376.672283 24.693861 
L 377.271988 24.693861 
L 377.271988 23.895446 
L 378.991289 23.895446 
L 378.991289 23.09703 
L 380.353662 23.09703 
L 380.353662 22.298614 
L 380.687116 22.298614 
L 380.687116 21.500198 
L 381.638047 21.500198 
L 381.638047 20.701782 
L 382.031322 20.701782 
L 382.031322 19.903366 
L 383.271068 19.903366 
L 383.318372 18.306535 
L 384.784336 18.306535 
L 384.784336 17.508119 
L 385.387488 17.508119 
L 385.387488 16.709703 
L 386.691834 16.709703 
L 386.691834 15.911287 
L 386.876503 15.911287 
L 386.876503 15.112871 
L 389.351574 15.112871 
L 389.351574 14.314455 
L 395.856107 14.314455 
L 395.856107 13.51604 
L 398.806253 13.51604 
L 398.806253 12.717624 
L 399.852445 12.717624 
L 399.852445 11.919208 
L 401.822983 11.919208 
L 401.822983 11.120792 
L 403.960959 11.120792 
L 403.960959 10.322376 
L 407.697264 10.322376 
L 407.697264 9.52396 
L 416.697109 9.52396 
L 416.697109 8.725545 
L 418.701324 8.725545 
L 418.701324 7.927129 
L 425.443687 7.927129 
L 425.443687 7.128713 
L 427.721609 7.128713 
L 427.721609 6.330297 
L 427.721609 6.330297 
L 460.8 6.330297 
L 460.8 6.330297 
" clip-path="url(#p89d679dad0)" style="fill: none; stroke: #ff0000; stroke-width: 3; stroke-linecap: square"/>
   </g>
   <g id="line2d_22">
    <path d="M 197.292308 293.76 
L 197.292308 281.783762 
L 226.181175 281.783762 
L 226.181175 280.985347 
L 229.295273 280.985347 
L 229.295273 280.186931 
L 230.582449 280.186931 
L 230.582449 279.388515 
L 233.366731 279.388515 
L 233.366731 278.590099 
L 233.524172 278.590099 
L 233.524172 277.791683 
L 233.689255 277.791683 
L 233.689255 276.993267 
L 235.395625 276.993267 
L 235.409454 275.396436 
L 236.770504 275.396436 
L 236.770504 274.59802 
L 237.550279 274.59802 
L 237.550279 273.799604 
L 239.378883 273.799604 
L 239.378883 273.001188 
L 240.305693 273.001188 
L 240.305693 272.202772 
L 240.671478 272.202772 
L 240.720971 269.807525 
L 240.864785 269.807525 
L 240.864785 269.009109 
L 242.795584 269.009109 
L 242.903069 267.412277 
L 243.145559 267.412277 
L 243.163223 265.815446 
L 244.240934 265.815446 
L 244.240934 265.01703 
L 245.169731 265.01703 
L 245.209181 263.420198 
L 245.479598 263.420198 
L 245.479598 262.621782 
L 245.789776 262.621782 
L 245.789776 261.823366 
L 246.093731 261.823366 
L 246.093731 261.02495 
L 246.775384 261.02495 
L 246.796789 259.428119 
L 246.894615 259.428119 
L 246.894615 258.629703 
L 247.338949 258.629703 
L 247.338949 257.831287 
L 248.162629 257.831287 
L 248.223974 256.234455 
L 248.676754 256.234455 
L 248.676754 255.43604 
L 249.236044 255.43604 
L 249.236044 254.637624 
L 249.401102 254.637624 
L 249.456654 253.040792 
L 249.97153 253.040792 
L 249.97153 252.242376 
L 250.275163 252.242376 
L 250.275163 251.44396 
L 250.871582 251.44396 
L 250.916047 249.847129 
L 251.093063 249.847129 
L 251.140244 236.274059 
L 251.314919 236.274059 
L 251.395333 234.677228 
L 251.952159 234.677228 
L 251.952159 233.878812 
L 252.497052 233.878812 
L 252.497052 233.080396 
L 252.632379 233.080396 
L 252.632379 232.28198 
L 253.128157 232.28198 
L 253.128157 231.483564 
L 253.275601 231.483564 
L 253.275601 230.685149 
L 253.387005 230.685149 
L 253.387005 229.886733 
L 253.745057 229.886733 
L 253.745057 229.088317 
L 253.930765 229.088317 
L 254.011999 227.491485 
L 254.145321 227.491485 
L 254.145321 226.693069 
L 254.277951 226.693069 
L 254.385836 224.297822 
L 254.521675 224.297822 
L 254.521675 223.499406 
L 254.742359 223.499406 
L 254.797943 221.104158 
L 255.544311 221.104158 
L 255.544311 220.305743 
L 255.892256 220.305743 
L 255.892256 219.507327 
L 256.707268 219.507327 
L 256.803842 217.910495 
L 256.856647 217.910495 
L 256.856647 217.112079 
L 257.180757 217.112079 
L 257.27159 215.515248 
L 257.716813 215.515248 
L 257.716813 214.716832 
L 257.854521 214.716832 
L 257.899842 213.12 
L 258.151611 213.12 
L 258.213114 211.523168 
L 258.79102 211.523168 
L 258.79102 210.724752 
L 259.562862 210.724752 
L 259.562862 209.926337 
L 259.688342 209.926337 
L 259.788415 208.329505 
L 259.856964 208.329505 
L 259.937121 206.732673 
L 260.200367 206.732673 
L 260.200367 205.934257 
L 260.318578 205.934257 
L 260.318578 205.135842 
L 260.445135 205.135842 
L 260.520709 202.740594 
L 260.623049 202.740594 
L 260.623049 201.942178 
L 260.954997 201.942178 
L 260.954997 201.143762 
L 261.27282 201.143762 
L 261.311627 199.546931 
L 261.468848 199.546931 
L 261.468848 198.748515 
L 261.662024 198.748515 
L 261.707151 197.151683 
L 261.779483 197.151683 
L 261.779483 196.353267 
L 261.920129 196.353267 
L 262.030386 192.361188 
L 262.153869 192.361188 
L 262.153869 191.562772 
L 262.378425 191.562772 
L 262.471014 189.167525 
L 262.493059 189.167525 
L 262.493059 188.369109 
L 262.874111 188.369109 
L 262.940086 186.772277 
L 263.055725 186.772277 
L 263.156045 185.175446 
L 263.169982 185.175446 
L 263.253143 183.578614 
L 263.326383 183.578614 
L 263.43034 181.981782 
L 263.437536 181.981782 
L 263.437536 181.183366 
L 263.672485 181.183366 
L 263.777708 178.788119 
L 264.014177 178.788119 
L 264.076193 175.594455 
L 264.199404 175.594455 
L 264.199404 174.79604 
L 265.062445 174.79604 
L 265.089773 173.199208 
L 265.252311 173.199208 
L 265.336752 171.602376 
L 265.534523 171.602376 
L 265.534523 170.80396 
L 265.783459 170.80396 
L 265.888838 169.207129 
L 266.026849 169.207129 
L 266.113517 166.013465 
L 266.227658 166.013465 
L 266.265951 164.416634 
L 266.456157 164.416634 
L 266.510409 162.819802 
L 266.76444 162.819802 
L 266.76444 162.021386 
L 267.092129 162.021386 
L 267.194623 160.424554 
L 267.575083 160.424554 
L 267.575083 148.448317 
L 268.030706 148.448317 
L 268.135746 146.851485 
L 268.277045 146.851485 
L 268.277045 146.053069 
L 268.541515 146.053069 
L 268.639301 144.456238 
L 268.86999 144.456238 
L 268.86999 143.657822 
L 269.02819 143.657822 
L 269.02819 142.859406 
L 269.473092 142.859406 
L 269.480217 141.262574 
L 269.779999 141.262574 
L 269.779999 140.464158 
L 270.044718 140.464158 
L 270.044718 139.665743 
L 270.373512 139.665743 
L 270.439068 138.068911 
L 270.777536 138.068911 
L 270.883414 135.673663 
L 271.108515 135.673663 
L 271.108515 134.875248 
L 271.486964 134.875248 
L 271.486964 134.076832 
L 271.626414 134.076832 
L 271.626414 133.278416 
L 271.791704 133.278416 
L 271.791704 132.48 
L 271.989183 132.48 
L 272.026423 130.883168 
L 272.342679 130.883168 
L 272.342679 130.084752 
L 273.055293 130.084752 
L 273.055293 129.286337 
L 273.242815 129.286337 
L 273.242815 128.487921 
L 273.794956 128.487921 
L 273.794956 127.689505 
L 273.938946 127.689505 
L 273.99853 126.092673 
L 274.055282 126.092673 
L 274.092055 124.495842 
L 274.254606 124.495842 
L 274.254606 123.697426 
L 274.679243 123.697426 
L 274.679243 122.89901 
L 274.848648 122.89901 
L 274.869195 121.302178 
L 275.037883 121.302178 
L 275.037883 120.503762 
L 275.441141 120.503762 
L 275.441141 119.705347 
L 275.759599 119.705347 
L 275.862934 118.108515 
L 276.602567 118.108515 
L 276.630216 116.511683 
L 276.975793 116.511683 
L 276.975793 115.713267 
L 277.120216 115.713267 
L 277.120216 114.914851 
L 277.331638 114.914851 
L 277.331638 114.116436 
L 277.650538 114.116436 
L 277.729088 110.922772 
L 278.213 110.922772 
L 278.213 110.124356 
L 278.984426 110.124356 
L 278.984426 109.325941 
L 280.213511 109.325941 
L 280.213511 108.527525 
L 282.210996 108.527525 
L 282.273384 106.930693 
L 283.609759 106.930693 
L 283.687407 105.333861 
L 284.497872 105.333861 
L 284.497872 104.535446 
L 284.984487 104.535446 
L 284.984487 103.73703 
L 285.949112 103.73703 
L 285.971541 102.140198 
L 286.446266 102.140198 
L 286.446266 101.341782 
L 288.934584 101.341782 
L 288.934584 100.543366 
L 289.214486 100.543366 
L 289.214486 99.74495 
L 289.785117 99.74495 
L 289.785117 98.946535 
L 290.573395 98.946535 
L 290.573395 98.148119 
L 290.957271 98.148119 
L 290.957271 97.349703 
L 291.156328 97.349703 
L 291.156328 96.551287 
L 292.165046 96.551287 
L 292.165046 95.752871 
L 292.605507 95.752871 
L 292.605507 94.954455 
L 293.928978 94.954455 
L 293.928978 94.15604 
L 294.985318 94.15604 
L 294.985318 93.357624 
L 295.273752 93.357624 
L 295.273752 92.559208 
L 295.74137 92.559208 
L 295.74137 91.760792 
L 295.961624 91.760792 
L 295.961624 90.962376 
L 296.130726 90.962376 
L 296.130726 90.16396 
L 296.397353 90.16396 
L 296.397353 89.365545 
L 296.663331 89.365545 
L 296.663331 88.567129 
L 297.30486 88.567129 
L 297.30486 87.768713 
L 300.528849 87.768713 
L 300.528849 86.970297 
L 300.909873 86.970297 
L 300.909873 86.171881 
L 303.603124 86.171881 
L 303.603124 85.373465 
L 305.019755 85.373465 
L 305.019755 84.57505 
L 315.238412 84.57505 
L 315.238412 72.598812 
L 317.95863 72.598812 
L 317.95863 71.800396 
L 321.65526 71.800396 
L 321.65526 71.00198 
L 323.796981 71.00198 
L 323.796981 70.203564 
L 324.36053 70.203564 
L 324.36053 69.405149 
L 325.431536 69.405149 
L 325.431536 68.606733 
L 327.041591 68.606733 
L 327.041591 67.808317 
L 327.298719 67.808317 
L 327.298719 67.009901 
L 329.451592 67.009901 
L 329.451592 66.211485 
L 330.317302 66.211485 
L 330.317302 65.413069 
L 331.066194 65.413069 
L 331.066194 64.614653 
L 332.47473 64.614653 
L 332.47473 63.816238 
L 334.638403 63.816238 
L 334.638403 63.017822 
L 336.323315 63.017822 
L 336.323315 62.219406 
L 336.625366 62.219406 
L 336.625366 61.42099 
L 337.220751 61.42099 
L 337.220751 60.622574 
L 339.834308 60.622574 
L 339.834308 59.824158 
L 341.009657 59.824158 
L 341.009657 59.025743 
L 341.348253 59.025743 
L 341.348253 58.227327 
L 341.520542 58.227327 
L 341.520542 57.428911 
L 345.874643 57.428911 
L 345.874643 56.630495 
L 346.46857 56.630495 
L 346.46857 55.832079 
L 347.641081 55.832079 
L 347.641081 55.033663 
L 348.572035 55.033663 
L 348.572035 54.235248 
L 349.427672 54.235248 
L 349.427672 53.436832 
L 352.300092 53.436832 
L 352.300092 52.638416 
L 353.013027 52.638416 
L 353.013027 51.84 
L 360.652888 51.84 
L 360.652888 51.041584 
L 361.345627 51.041584 
L 361.345627 50.243168 
L 361.883551 50.243168 
L 361.883551 49.444752 
L 362.273577 49.444752 
L 362.273577 48.646337 
L 363.79037 48.646337 
L 363.79037 47.847921 
L 366.669754 47.847921 
L 366.669754 47.049505 
L 367.090921 47.049505 
L 367.166229 45.452673 
L 370.702904 45.452673 
L 370.702904 44.654257 
L 372.559535 44.654257 
L 372.559535 43.855842 
L 381.467136 43.855842 
L 381.467136 43.057426 
L 381.836565 43.057426 
L 381.836565 42.25901 
L 383.146435 42.25901 
L 383.146435 41.460594 
L 383.341896 41.460594 
L 383.341896 40.662178 
L 384.628845 40.662178 
L 384.628845 39.863762 
L 387.65353 39.863762 
L 387.65353 39.065347 
L 387.816406 39.065347 
L 387.831104 37.468515 
L 388.087283 37.468515 
L 388.087283 36.670099 
L 388.355051 36.670099 
L 388.355051 35.871683 
L 388.510741 35.871683 
L 388.510741 35.073267 
L 390.549243 35.073267 
L 390.549243 34.274851 
L 392.359841 34.274851 
L 392.359841 33.476436 
L 392.876619 33.476436 
L 392.876619 32.67802 
L 393.069003 32.67802 
L 393.069003 31.879604 
L 393.642421 31.879604 
L 393.642421 31.081188 
L 394.030009 31.081188 
L 394.030009 30.282772 
L 394.263349 30.282772 
L 394.263349 29.484356 
L 394.408583 29.484356 
L 394.411262 27.887525 
L 394.976938 27.887525 
L 394.976938 27.089109 
L 395.324152 27.089109 
L 395.324152 26.290693 
L 395.539726 26.290693 
L 395.539726 25.492277 
L 396.322965 25.492277 
L 396.322965 24.693861 
L 396.72643 24.693861 
L 396.72643 23.895446 
L 398.802205 23.895446 
L 398.802205 23.09703 
L 399.188144 23.09703 
L 399.188144 22.298614 
L 400.472478 22.298614 
L 400.472478 21.500198 
L 400.683885 21.500198 
L 400.683885 20.701782 
L 401.074721 20.701782 
L 401.074721 19.903366 
L 401.694906 19.903366 
L 401.694906 19.10495 
L 402.530403 19.10495 
L 402.530403 18.306535 
L 403.1279 18.306535 
L 403.1279 17.508119 
L 405.887687 17.508119 
L 405.887687 16.709703 
L 406.277914 16.709703 
L 406.277914 15.911287 
L 407.591535 15.911287 
L 407.591535 15.112871 
L 411.404544 15.112871 
L 411.404544 14.314455 
L 413.861265 14.314455 
L 413.861265 13.51604 
L 416.665113 13.51604 
L 416.665113 12.717624 
L 416.820123 12.717624 
L 416.851039 11.120792 
L 417.387714 11.120792 
L 417.387714 10.322376 
L 420.839646 10.322376 
L 420.839646 9.52396 
L 431.666325 9.52396 
L 431.666325 8.725545 
L 432.537901 8.725545 
L 432.537901 7.927129 
L 441.380497 7.927129 
L 441.380497 7.128713 
L 448.252015 7.128713 
L 448.252015 6.330297 
L 448.252015 6.330297 
L 460.8 6.330297 
L 460.8 6.330297 
" clip-path="url(#p89d679dad0)" style="fill: none; stroke: #00bfbf; stroke-width: 1.5; stroke-linecap: square"/>
   </g>
   <g id="line2d_23">
    <path d="M 197.292308 293.76 
L 197.292308 281.783762 
L 225.819059 281.783762 
L 225.819059 280.985347 
L 228.129533 280.985347 
L 228.129533 280.186931 
L 229.872264 280.186931 
L 229.872264 279.388515 
L 230.995352 279.388515 
L 230.995352 278.590099 
L 231.436804 278.590099 
L 231.436804 277.791683 
L 233.223573 277.791683 
L 233.273081 276.194851 
L 233.446899 276.194851 
L 233.446899 275.396436 
L 235.369262 275.396436 
L 235.409454 273.799604 
L 235.902209 273.799604 
L 235.902209 273.001188 
L 236.428597 273.001188 
L 236.428597 272.202772 
L 237.094612 272.202772 
L 237.094612 271.404356 
L 237.850242 271.404356 
L 237.850242 270.605941 
L 238.6527 270.605941 
L 238.6527 269.807525 
L 238.911582 269.807525 
L 238.911582 269.009109 
L 239.143416 269.009109 
L 239.143416 268.210693 
L 239.492858 268.210693 
L 239.521823 266.613861 
L 239.718585 266.613861 
L 239.718585 265.815446 
L 240.318608 265.815446 
L 240.424227 264.218614 
L 240.720971 264.218614 
L 240.720971 263.420198 
L 241.584162 263.420198 
L 241.584162 262.621782 
L 242.177606 262.621782 
L 242.263864 261.02495 
L 242.383127 261.02495 
L 242.383127 260.226535 
L 242.558905 260.226535 
L 242.568187 258.629703 
L 243.950531 258.629703 
L 243.950531 257.831287 
L 244.719103 257.831287 
L 244.719103 257.032871 
L 244.902543 257.032871 
L 244.902543 256.234455 
L 245.731366 256.234455 
L 245.731366 255.43604 
L 246.031108 255.43604 
L 246.093731 253.839208 
L 246.607475 253.839208 
L 246.607475 253.040792 
L 247.930147 253.040792 
L 247.930147 252.242376 
L 248.755237 252.242376 
L 248.789185 250.645545 
L 248.921687 250.645545 
L 249.019298 247.451881 
L 249.065627 247.451881 
L 249.136052 244.258218 
L 249.403769 244.258218 
L 249.505788 241.86297 
L 249.5908 241.86297 
L 249.595891 240.266139 
L 249.742759 240.266139 
L 249.797042 238.669307 
L 250.069882 238.669307 
L 250.069882 237.870891 
L 250.553423 237.870891 
L 250.56598 236.274059 
L 250.78608 236.274059 
L 250.78608 235.475644 
L 250.916457 235.475644 
L 250.967738 233.878812 
L 251.093063 233.878812 
L 251.114987 231.483564 
L 251.653663 231.483564 
L 251.653663 230.685149 
L 251.816725 230.685149 
L 251.816725 229.886733 
L 252.186369 229.886733 
L 252.186369 229.088317 
L 252.632379 229.088317 
L 252.632379 228.289901 
L 252.833309 228.289901 
L 252.858499 226.693069 
L 253.297268 226.693069 
L 253.297268 225.894653 
L 253.736049 225.894653 
L 253.835084 224.297822 
L 253.918577 224.297822 
L 254.019735 222.70099 
L 254.055979 222.70099 
L 254.055979 221.902574 
L 254.336741 221.902574 
L 254.336741 221.104158 
L 254.573595 221.104158 
L 254.573595 220.305743 
L 255.535007 220.305743 
L 255.535007 219.507327 
L 255.666953 219.507327 
L 255.666953 218.708911 
L 255.788881 218.708911 
L 255.788881 217.910495 
L 256.288698 217.910495 
L 256.394185 216.313663 
L 256.54787 216.313663 
L 256.54787 215.515248 
L 256.838105 215.515248 
L 256.838105 214.716832 
L 257.139183 214.716832 
L 257.180757 213.12 
L 257.496512 213.12 
L 257.496512 212.321584 
L 257.716813 212.321584 
L 257.716813 211.523168 
L 258.151611 211.523168 
L 258.237832 209.926337 
L 258.474047 209.926337 
L 258.474047 209.127921 
L 258.735884 209.127921 
L 258.839918 205.934257 
L 259.126007 205.934257 
L 259.126007 205.135842 
L 259.268813 205.135842 
L 259.324016 202.740594 
L 259.396203 202.740594 
L 259.447259 201.143762 
L 259.529703 201.143762 
L 259.631012 198.748515 
L 259.918004 198.748515 
L 260.028775 195.554851 
L 260.06446 195.554851 
L 260.06446 194.756436 
L 260.247449 194.756436 
L 260.338767 191.562772 
L 260.529226 191.562772 
L 260.534932 189.965941 
L 260.714718 189.965941 
L 260.714718 189.167525 
L 260.913923 189.167525 
L 260.944568 187.570693 
L 261.104942 187.570693 
L 261.19916 185.175446 
L 261.476908 185.175446 
L 261.553922 181.981782 
L 261.671882 181.981782 
L 261.767288 180.38495 
L 261.797179 180.38495 
L 261.868744 178.788119 
L 262.018859 178.788119 
L 262.12932 177.191287 
L 262.189713 177.191287 
L 262.189713 176.392871 
L 262.417108 176.392871 
L 262.417108 175.594455 
L 262.852563 175.594455 
L 262.852563 174.79604 
L 263.132819 174.79604 
L 263.140023 173.199208 
L 263.347723 173.199208 
L 263.390312 171.602376 
L 263.491401 171.602376 
L 263.491401 170.80396 
L 263.816399 170.80396 
L 263.917899 169.207129 
L 263.986526 169.207129 
L 264.052069 166.013465 
L 264.192005 166.013465 
L 264.192005 165.21505 
L 264.481869 165.21505 
L 264.540712 163.618218 
L 265.161185 163.618218 
L 265.161185 162.819802 
L 265.572998 162.819802 
L 265.572998 162.021386 
L 265.748304 162.021386 
L 265.804105 160.424554 
L 265.963508 160.424554 
L 265.986022 158.827723 
L 266.510409 158.827723 
L 266.510409 158.029307 
L 266.67705 158.029307 
L 266.755474 156.432475 
L 266.858407 156.432475 
L 266.858407 155.634059 
L 267.248552 155.634059 
L 267.248552 154.835644 
L 267.372287 154.835644 
L 267.372287 154.037228 
L 267.514488 154.037228 
L 267.575083 142.06099 
L 267.896915 142.06099 
L 267.896915 141.262574 
L 268.096142 141.262574 
L 268.096142 140.464158 
L 268.277045 140.464158 
L 268.383076 138.867327 
L 268.723136 138.867327 
L 268.723136 138.068911 
L 269.292033 138.068911 
L 269.292033 137.270495 
L 269.616779 137.270495 
L 269.633924 135.673663 
L 270.121265 135.673663 
L 270.121265 134.875248 
L 270.744578 134.875248 
L 270.780208 132.48 
L 270.913628 132.48 
L 270.913628 131.681584 
L 271.362027 131.681584 
L 271.362027 130.883168 
L 271.699926 130.883168 
L 271.791704 129.286337 
L 271.873461 129.286337 
L 271.873461 128.487921 
L 272.362626 128.487921 
L 272.362626 127.689505 
L 272.979593 127.689505 
L 272.979593 126.891089 
L 273.396577 126.891089 
L 273.491881 124.495842 
L 273.730342 124.495842 
L 273.730342 123.697426 
L 274.092055 123.697426 
L 274.192827 122.100594 
L 274.416178 122.100594 
L 274.493406 120.503762 
L 274.536604 120.503762 
L 274.536604 119.705347 
L 275.051943 119.705347 
L 275.051943 118.906931 
L 275.50676 118.906931 
L 275.578019 117.310099 
L 276.155657 117.310099 
L 276.22831 115.713267 
L 276.542181 115.713267 
L 276.542181 114.914851 
L 276.746091 114.914851 
L 276.746091 114.116436 
L 276.903403 114.116436 
L 276.903403 113.31802 
L 277.076833 113.31802 
L 277.076833 112.519604 
L 277.227629 112.519604 
L 277.245822 110.922772 
L 277.450549 110.922772 
L 277.462882 109.325941 
L 277.904426 109.325941 
L 277.904426 108.527525 
L 278.773104 108.527525 
L 278.773104 107.729109 
L 281.499963 107.729109 
L 281.499963 106.930693 
L 281.671038 106.930693 
L 281.671038 106.132277 
L 282.075029 106.132277 
L 282.075029 105.333861 
L 283.397544 105.333861 
L 283.397544 104.535446 
L 283.685933 104.535446 
L 283.765163 102.938614 
L 284.440039 102.938614 
L 284.497872 101.341782 
L 286.19377 101.341782 
L 286.19377 100.543366 
L 287.745158 100.543366 
L 287.745158 99.74495 
L 288.630806 99.74495 
L 288.630806 98.946535 
L 289.214486 98.946535 
L 289.214486 98.148119 
L 290.331573 98.148119 
L 290.331573 97.349703 
L 290.884956 97.349703 
L 290.884956 96.551287 
L 291.975805 96.551287 
L 291.975805 95.752871 
L 292.419101 95.752871 
L 292.419101 94.954455 
L 293.85332 94.954455 
L 293.85332 94.15604 
L 294.878107 94.15604 
L 294.881822 92.559208 
L 295.095285 92.559208 
L 295.095285 91.760792 
L 295.827467 91.760792 
L 295.827467 90.962376 
L 296.000597 90.962376 
L 296.000597 90.16396 
L 296.216775 90.16396 
L 296.216775 89.365545 
L 296.606696 89.365545 
L 296.606696 88.567129 
L 297.30486 88.567129 
L 297.30486 87.768713 
L 300.528849 87.768713 
L 300.528849 86.970297 
L 300.879052 86.970297 
L 300.879052 86.171881 
L 303.206419 86.171881 
L 303.206419 85.373465 
L 304.772477 85.373465 
L 304.772477 84.57505 
L 314.289698 84.57505 
L 314.289698 78.986139 
L 315.101898 78.986139 
L 315.101898 76.590891 
L 315.23614 76.590891 
L 315.238412 72.598812 
L 317.748875 72.598812 
L 317.748875 71.800396 
L 321.65526 71.800396 
L 321.65526 71.00198 
L 323.497893 71.00198 
L 323.497893 70.203564 
L 324.320691 70.203564 
L 324.320691 69.405149 
L 325.236736 69.405149 
L 325.236736 68.606733 
L 326.860354 68.606733 
L 326.860354 67.808317 
L 327.215222 67.808317 
L 327.259682 66.211485 
L 327.941787 66.211485 
L 327.941787 65.413069 
L 330.17207 65.413069 
L 330.17207 64.614653 
L 330.987763 64.614653 
L 330.987763 63.816238 
L 332.212095 63.816238 
L 332.212095 63.017822 
L 334.543773 63.017822 
L 334.543773 62.219406 
L 336.54906 62.219406 
L 336.54906 61.42099 
L 337.220751 61.42099 
L 337.220751 60.622574 
L 337.714959 60.622574 
L 337.714959 59.824158 
L 339.27562 59.824158 
L 339.27562 59.025743 
L 340.260283 59.025743 
L 340.260283 58.227327 
L 341.322589 58.227327 
L 341.381414 56.630495 
L 342.966662 56.630495 
L 342.966662 55.832079 
L 345.433858 55.832079 
L 345.433858 55.033663 
L 347.639486 55.033663 
L 347.639486 54.235248 
L 349.333011 54.235248 
L 349.333011 53.436832 
L 351.973206 53.436832 
L 351.973206 52.638416 
L 353.013025 52.638416 
L 353.013025 51.84 
L 358.82892 51.84 
L 358.82892 51.041584 
L 360.351101 51.041584 
L 360.351101 50.243168 
L 361.008709 50.243168 
L 361.008709 49.444752 
L 361.883238 49.444752 
L 361.883238 48.646337 
L 363.79037 48.646337 
L 363.79037 47.847921 
L 366.627663 47.847921 
L 366.627663 47.049505 
L 367.080446 47.049505 
L 367.135881 45.452673 
L 370.698121 45.452673 
L 370.698121 44.654257 
L 372.280071 44.654257 
L 372.280071 43.855842 
L 381.172396 43.855842 
L 381.172396 43.057426 
L 381.611207 43.057426 
L 381.611207 42.25901 
L 382.128513 42.25901 
L 382.13245 40.662178 
L 384.191408 40.662178 
L 384.191408 39.863762 
L 386.148061 39.863762 
L 386.148061 39.065347 
L 387.640948 39.065347 
L 387.65353 37.468515 
L 387.816406 37.468515 
L 387.816406 36.670099 
L 388.086234 36.670099 
L 388.086234 35.871683 
L 388.47275 35.871683 
L 388.47275 35.073267 
L 389.933146 35.073267 
L 389.933146 34.274851 
L 392.176769 34.274851 
L 392.176769 33.476436 
L 392.563458 33.476436 
L 392.622708 31.879604 
L 393.247743 31.879604 
L 393.247743 31.081188 
L 393.64242 31.081188 
L 393.64242 30.282772 
L 393.867629 30.282772 
L 393.867629 29.484356 
L 394.079464 29.484356 
L 394.188015 27.887525 
L 394.39363 27.887525 
L 394.39363 27.089109 
L 394.667858 27.089109 
L 394.667858 26.290693 
L 394.863097 26.290693 
L 394.863097 25.492277 
L 396.309107 25.492277 
L 396.330233 23.895446 
L 398.802205 23.895446 
L 398.802205 23.09703 
L 399.187707 23.09703 
L 399.187707 22.298614 
L 400.291054 22.298614 
L 400.291054 21.500198 
L 400.449257 21.500198 
L 400.449257 20.701782 
L 400.827136 20.701782 
L 400.827136 19.903366 
L 401.694559 19.903366 
L 401.694559 19.10495 
L 402.412537 19.10495 
L 402.412537 18.306535 
L 402.659991 18.306535 
L 402.659991 17.508119 
L 405.366685 17.508119 
L 405.366685 16.709703 
L 405.873848 16.709703 
L 405.873848 15.911287 
L 407.189244 15.911287 
L 407.189244 15.112871 
L 411.393133 15.112871 
L 411.393133 14.314455 
L 413.556767 14.314455 
L 413.556767 13.51604 
L 415.931548 13.51604 
L 415.935932 11.919208 
L 416.591428 11.919208 
L 416.591428 11.120792 
L 416.870426 11.120792 
L 416.870426 10.322376 
L 420.074547 10.322376 
L 420.074547 9.52396 
L 431.318252 9.52396 
L 431.318252 8.725545 
L 432.172944 8.725545 
L 432.172944 7.927129 
L 441.22176 7.927129 
L 441.22176 7.128713 
L 447.319851 7.128713 
L 447.319851 6.330297 
L 447.319851 6.330297 
L 460.8 6.330297 
L 460.8 6.330297 
" clip-path="url(#p89d679dad0)" style="fill: none; stroke: #bf00bf; stroke-width: 1.5; stroke-linecap: square"/>
   </g>
   <g id="patch_3">
    <path d="M 0 293.76 
L 0 3.456 
" style="fill: none; stroke: #000000; stroke-width: 0.8; stroke-linejoin: miter; stroke-linecap: square"/>
   </g>
   <g id="patch_4">
    <path d="M 460.8 293.76 
L 460.8 3.456 
" style="fill: none; stroke: #000000; stroke-width: 0.8; stroke-linejoin: miter; stroke-linecap: square"/>
   </g>
   <g id="patch_5">
    <path d="M 0 293.76 
L 460.8 293.76 
" style="fill: none; stroke: #000000; stroke-width: 0.8; stroke-linejoin: miter; stroke-linecap: square"/>
   </g>
   <g id="patch_6">
    <path d="M 0 3.456 
L 460.8 3.456 
" style="fill: none; stroke: #000000; stroke-width: 0.8; stroke-linejoin: miter; stroke-linecap: square"/>
   </g>
   <g id="text_6">
    <!-- {f1-f24}, 5-D -->
    <g transform="translate(318.609 287.95392) scale(0.2 -0.2)">
     <defs>
      <path id="DejaVuSans-7b" d="M 3272 -594 
L 3272 -1044 
L 3078 -1044 
Q 2300 -1044 2036 -812 
Q 1772 -581 1772 109 
L 1772 856 
Q 1772 1328 1603 1509 
Q 1434 1691 991 1691 
L 800 1691 
L 800 2138 
L 991 2138 
Q 1438 2138 1605 2317 
Q 1772 2497 1772 2963 
L 1772 3713 
Q 1772 4403 2036 4633 
Q 2300 4863 3078 4863 
L 3272 4863 
L 3272 4416 
L 3059 4416 
Q 2619 4416 2484 4278 
Q 2350 4141 2350 3700 
L 2350 2925 
Q 2350 2434 2208 2212 
Q 2066 1991 1722 1913 
Q 2069 1828 2209 1606 
Q 2350 1384 2350 897 
L 2350 122 
Q 2350 -319 2484 -456 
Q 2619 -594 3059 -594 
L 3272 -594 
z
" transform="scale(0.015625)"/>
      <path id="DejaVuSans-32" d="M 1228 531 
L 3431 531 
L 3431 0 
L 469 0 
L 469 531 
Q 828 903 1448 1529 
Q 2069 2156 2228 2338 
Q 2531 2678 2651 2914 
Q 2772 3150 2772 3378 
Q 2772 3750 2511 3984 
Q 2250 4219 1831 4219 
Q 1534 4219 1204 4116 
Q 875 4013 500 3803 
L 500 4441 
Q 881 4594 1212 4672 
Q 1544 4750 1819 4750 
Q 2544 4750 2975 4387 
Q 3406 4025 3406 3419 
Q 3406 3131 3298 2873 
Q 3191 2616 2906 2266 
Q 2828 2175 2409 1742 
Q 1991 1309 1228 531 
z
" transform="scale(0.015625)"/>
      <path id="DejaVuSans-7d" d="M 800 -594 
L 1019 -594 
Q 1456 -594 1589 -459 
Q 1722 -325 1722 122 
L 1722 897 
Q 1722 1384 1862 1606 
Q 2003 1828 2350 1913 
Q 2003 1991 1862 2212 
Q 1722 2434 1722 2925 
L 1722 3700 
Q 1722 4144 1589 4280 
Q 1456 4416 1019 4416 
L 800 4416 
L 800 4863 
L 997 4863 
Q 1775 4863 2036 4633 
Q 2297 4403 2297 3713 
L 2297 2963 
Q 2297 2497 2465 2317 
Q 2634 2138 3078 2138 
L 3272 2138 
L 3272 1691 
L 3078 1691 
Q 2634 1691 2465 1509 
Q 2297 1328 2297 856 
L 2297 109 
Q 2297 -581 2036 -812 
Q 1775 -1044 997 -1044 
L 800 -1044 
L 800 -594 
z
" transform="scale(0.015625)"/>
      <path id="DejaVuSans-2c" d="M 750 794 
L 1409 794 
L 1409 256 
L 897 -744 
L 494 -744 
L 750 256 
L 750 794 
z
" transform="scale(0.015625)"/>
      <path id="DejaVuSans-35" d="M 691 4666 
L 3169 4666 
L 3169 4134 
L 1269 4134 
L 1269 2991 
Q 1406 3038 1543 3061 
Q 1681 3084 1819 3084 
Q 2600 3084 3056 2656 
Q 3513 2228 3513 1497 
Q 3513 744 3044 326 
Q 2575 -91 1722 -91 
Q 1428 -91 1123 -41 
Q 819 9 494 109 
L 494 744 
Q 775 591 1075 516 
Q 1375 441 1709 441 
Q 2250 441 2565 725 
Q 2881 1009 2881 1497 
Q 2881 1984 2565 2268 
Q 2250 2553 1709 2553 
Q 1456 2553 1204 2497 
Q 953 2441 691 2322 
L 691 4666 
z
" transform="scale(0.015625)"/>
     </defs>
     <use xlink:href="#DejaVuSans-7b"/>
     <use xlink:href="#DejaVuSans-66" x="63.623047"/>
     <use xlink:href="#DejaVuSans-31" x="98.828125"/>
     <use xlink:href="#DejaVuSans-2d" x="162.451172"/>
     <use xlink:href="#DejaVuSans-66" x="198.535156"/>
     <use xlink:href="#DejaVuSans-32" x="233.740234"/>
     <use xlink:href="#DejaVuSans-34" x="297.363281"/>
     <use xlink:href="#DejaVuSans-7d" x="360.986328"/>
     <use xlink:href="#DejaVuSans-2c" x="424.609375"/>
     <use xlink:href="#DejaVuSans-20" x="456.396484"/>
     <use xlink:href="#DejaVuSans-35" x="488.183594"/>
     <use xlink:href="#DejaVuSans-2d" x="551.806641"/>
     <use xlink:href="#DejaVuSans-44" x="587.890625"/>
    </g>
   </g>
   <g id="text_7">
    <!-- v2.6.3 -->
    <g style="fill: #808080" transform="translate(214.71875 288.777272) scale(0.1 -0.1)">
     <defs>
      <path id="DejaVuSans-76" d="M 191 3500 
L 800 3500 
L 1894 563 
L 2988 3500 
L 3597 3500 
L 2284 0 
L 1503 0 
L 191 3500 
z
" transform="scale(0.015625)"/>
      <path id="DejaVuSans-2e" d="M 684 794 
L 1344 794 
L 1344 0 
L 684 0 
L 684 794 
z
" transform="scale(0.015625)"/>
      <path id="DejaVuSans-36" d="M 2113 2584 
Q 1688 2584 1439 2293 
Q 1191 2003 1191 1497 
Q 1191 994 1439 701 
Q 1688 409 2113 409 
Q 2538 409 2786 701 
Q 3034 994 3034 1497 
Q 3034 2003 2786 2293 
Q 2538 2584 2113 2584 
z
M 3366 4563 
L 3366 3988 
Q 3128 4100 2886 4159 
Q 2644 4219 2406 4219 
Q 1781 4219 1451 3797 
Q 1122 3375 1075 2522 
Q 1259 2794 1537 2939 
Q 1816 3084 2150 3084 
Q 2853 3084 3261 2657 
Q 3669 2231 3669 1497 
Q 3669 778 3244 343 
Q 2819 -91 2113 -91 
Q 1303 -91 875 529 
Q 447 1150 447 2328 
Q 447 3434 972 4092 
Q 1497 4750 2381 4750 
Q 2619 4750 2861 4703 
Q 3103 4656 3366 4563 
z
" transform="scale(0.015625)"/>
      <path id="DejaVuSans-33" d="M 2597 2516 
Q 3050 2419 3304 2112 
Q 3559 1806 3559 1356 
Q 3559 666 3084 287 
Q 2609 -91 1734 -91 
Q 1441 -91 1130 -33 
Q 819 25 488 141 
L 488 750 
Q 750 597 1062 519 
Q 1375 441 1716 441 
Q 2309 441 2620 675 
Q 2931 909 2931 1356 
Q 2931 1769 2642 2001 
Q 2353 2234 1838 2234 
L 1294 2234 
L 1294 2753 
L 1863 2753 
Q 2328 2753 2575 2939 
Q 2822 3125 2822 3475 
Q 2822 3834 2567 4026 
Q 2313 4219 1838 4219 
Q 1578 4219 1281 4162 
Q 984 4106 628 3988 
L 628 4550 
Q 988 4650 1302 4700 
Q 1616 4750 1894 4750 
Q 2613 4750 3031 4423 
Q 3450 4097 3450 3541 
Q 3450 3153 3228 2886 
Q 3006 2619 2597 2516 
z
" transform="scale(0.015625)"/>
     </defs>
     <use xlink:href="#DejaVuSans-76"/>
     <use xlink:href="#DejaVuSans-32" x="59.179688"/>
     <use xlink:href="#DejaVuSans-2e" x="122.802734"/>
     <use xlink:href="#DejaVuSans-36" x="154.589844"/>
     <use xlink:href="#DejaVuSans-2e" x="218.212891"/>
     <use xlink:href="#DejaVuSans-33" x="250"/>
    </g>
   </g>
  </g>
 </g>
 <defs>
  <clipPath id="p89d679dad0">
   <rect x="0" y="3.456" width="460.8" height="290.304"/>
  </clipPath>
 </defs>
</svg>
