<?xml version="1.0" encoding="utf-8" standalone="no"?>
<!DOCTYPE svg PUBLIC "-//W3C//DTD SVG 1.1//EN"
  "http://www.w3.org/Graphics/SVG/1.1/DTD/svg11.dtd">
<svg xmlns:xlink="http://www.w3.org/1999/xlink" width="460.8pt" height="345.6pt" viewBox="0 0 460.8 345.6" xmlns="http://www.w3.org/2000/svg" version="1.1">
 <metadata>
  <rdf:RDF xmlns:dc="http://purl.org/dc/elements/1.1/" xmlns:cc="http://creativecommons.org/ns#" xmlns:rdf="http://www.w3.org/1999/02/22-rdf-syntax-ns#">
   <cc:Work>
    <dc:type rdf:resource="http://purl.org/dc/dcmitype/StillImage"/>
    <dc:date>2024-01-23T11:32:38.523700</dc:date>
    <dc:format>image/svg+xml</dc:format>
    <dc:creator>
     <cc:Agent>
      <dc:title>Matplotlib v3.8.2, https://matplotlib.org/</dc:title>
     </cc:Agent>
    </dc:creator>
   </cc:Work>
  </rdf:RDF>
 </metadata>
 <defs>
  <style type="text/css">*{stroke-linejoin: round; stroke-linecap: butt}</style>
 </defs>
 <g id="figure_1">
  <g id="patch_1">
   <path d="M 0 345.6 
L 460.8 345.6 
L 460.8 0 
L 0 0 
z
" style="fill: #ffffff"/>
  </g>
  <g id="axes_1">
   <g id="patch_2">
    <path d="M 0 293.76 
L 460.8 293.76 
L 460.8 3.456 
L 0 3.456 
z
" style="fill: #ffffff"/>
   </g>
   <g id="matplotlib.axis_1">
    <g id="xtick_1">
     <g id="line2d_1">
      <path d="M 103.103634 293.76 
L 103.103634 3.456 
" clip-path="url(#p671b0fbdc7)" style="fill: none; stroke: #b0b0b0; stroke-width: 0.8; stroke-linecap: square"/>
     </g>
     <g id="line2d_2">
      <defs>
       <path id="m995b8d6e2e" d="M 0 0 
L 0 3.5 
" style="stroke: #000000; stroke-width: 0.8"/>
      </defs>
      <g>
       <use xlink:href="#m995b8d6e2e" x="103.103634" y="293.76" style="stroke: #000000; stroke-width: 0.8"/>
      </g>
     </g>
     <g id="text_1">
      <!-- -4 -->
      <g transform="translate(93.133322 315.956875) scale(0.2 -0.2)">
       <defs>
        <path id="DejaVuSans-2d" d="M 313 2009 
L 1997 2009 
L 1997 1497 
L 313 1497 
L 313 2009 
z
" transform="scale(0.015625)"/>
        <path id="DejaVuSans-34" d="M 2419 4116 
L 825 1625 
L 2419 1625 
L 2419 4116 
z
M 2253 4666 
L 3047 4666 
L 3047 1625 
L 3713 1625 
L 3713 1100 
L 3047 1100 
L 3047 0 
L 2419 0 
L 2419 1100 
L 313 1100 
L 313 1709 
L 2253 4666 
z
" transform="scale(0.015625)"/>
       </defs>
       <use xlink:href="#DejaVuSans-2d"/>
       <use xlink:href="#DejaVuSans-34" x="36.083984"/>
      </g>
     </g>
    </g>
    <g id="xtick_2">
     <g id="line2d_3">
      <path d="M 206.318777 293.76 
L 206.318777 3.456 
" clip-path="url(#p671b0fbdc7)" style="fill: none; stroke: #b0b0b0; stroke-width: 0.8; stroke-linecap: square"/>
     </g>
     <g id="line2d_4">
      <g>
       <use xlink:href="#m995b8d6e2e" x="206.318777" y="293.76" style="stroke: #000000; stroke-width: 0.8"/>
      </g>
     </g>
     <g id="text_2">
      <!-- 0 -->
      <g transform="translate(199.956277 315.956875) scale(0.2 -0.2)">
       <defs>
        <path id="DejaVuSans-30" d="M 2034 4250 
Q 1547 4250 1301 3770 
Q 1056 3291 1056 2328 
Q 1056 1369 1301 889 
Q 1547 409 2034 409 
Q 2525 409 2770 889 
Q 3016 1369 3016 2328 
Q 3016 3291 2770 3770 
Q 2525 4250 2034 4250 
z
M 2034 4750 
Q 2819 4750 3233 4129 
Q 3647 3509 3647 2328 
Q 3647 1150 3233 529 
Q 2819 -91 2034 -91 
Q 1250 -91 836 529 
Q 422 1150 422 2328 
Q 422 3509 836 4129 
Q 1250 4750 2034 4750 
z
" transform="scale(0.015625)"/>
       </defs>
       <use xlink:href="#DejaVuSans-30"/>
      </g>
     </g>
    </g>
    <g id="xtick_3">
     <g id="line2d_5">
      <path d="M 309.533919 293.76 
L 309.533919 3.456 
" clip-path="url(#p671b0fbdc7)" style="fill: none; stroke: #b0b0b0; stroke-width: 0.8; stroke-linecap: square"/>
     </g>
     <g id="line2d_6">
      <g>
       <use xlink:href="#m995b8d6e2e" x="309.533919" y="293.76" style="stroke: #000000; stroke-width: 0.8"/>
      </g>
     </g>
     <g id="text_3">
      <!-- 4 -->
      <g transform="translate(303.171419 315.956875) scale(0.2 -0.2)">
       <use xlink:href="#DejaVuSans-34"/>
      </g>
     </g>
    </g>
    <g id="xtick_4">
     <g id="line2d_7">
      <path d="M 412.749061 293.76 
L 412.749061 3.456 
" clip-path="url(#p671b0fbdc7)" style="fill: none; stroke: #b0b0b0; stroke-width: 0.8; stroke-linecap: square"/>
     </g>
     <g id="line2d_8">
      <g>
       <use xlink:href="#m995b8d6e2e" x="412.749061" y="293.76" style="stroke: #000000; stroke-width: 0.8"/>
      </g>
     </g>
     <g id="text_4">
      <!-- 8 -->
      <g transform="translate(406.386561 315.956875) scale(0.2 -0.2)">
       <defs>
        <path id="DejaVuSans-38" d="M 2034 2216 
Q 1584 2216 1326 1975 
Q 1069 1734 1069 1313 
Q 1069 891 1326 650 
Q 1584 409 2034 409 
Q 2484 409 2743 651 
Q 3003 894 3003 1313 
Q 3003 1734 2745 1975 
Q 2488 2216 2034 2216 
z
M 1403 2484 
Q 997 2584 770 2862 
Q 544 3141 544 3541 
Q 544 4100 942 4425 
Q 1341 4750 2034 4750 
Q 2731 4750 3128 4425 
Q 3525 4100 3525 3541 
Q 3525 3141 3298 2862 
Q 3072 2584 2669 2484 
Q 3125 2378 3379 2068 
Q 3634 1759 3634 1313 
Q 3634 634 3220 271 
Q 2806 -91 2034 -91 
Q 1263 -91 848 271 
Q 434 634 434 1313 
Q 434 1759 690 2068 
Q 947 2378 1403 2484 
z
M 1172 3481 
Q 1172 3119 1398 2916 
Q 1625 2713 2034 2713 
Q 2441 2713 2670 2916 
Q 2900 3119 2900 3481 
Q 2900 3844 2670 4047 
Q 2441 4250 2034 4250 
Q 1625 4250 1398 4047 
Q 1172 3844 1172 3481 
z
" transform="scale(0.015625)"/>
       </defs>
       <use xlink:href="#DejaVuSans-38"/>
      </g>
     </g>
    </g>
    <g id="text_5">
     <!-- log10 of Df -->
     <g transform="translate(175.214063 339.313125) scale(0.2 -0.2)">
      <defs>
       <path id="DejaVuSans-6c" d="M 603 4863 
L 1178 4863 
L 1178 0 
L 603 0 
L 603 4863 
z
" transform="scale(0.015625)"/>
       <path id="DejaVuSans-6f" d="M 1959 3097 
Q 1497 3097 1228 2736 
Q 959 2375 959 1747 
Q 959 1119 1226 758 
Q 1494 397 1959 397 
Q 2419 397 2687 759 
Q 2956 1122 2956 1747 
Q 2956 2369 2687 2733 
Q 2419 3097 1959 3097 
z
M 1959 3584 
Q 2709 3584 3137 3096 
Q 3566 2609 3566 1747 
Q 3566 888 3137 398 
Q 2709 -91 1959 -91 
Q 1206 -91 779 398 
Q 353 888 353 1747 
Q 353 2609 779 3096 
Q 1206 3584 1959 3584 
z
" transform="scale(0.015625)"/>
       <path id="DejaVuSans-67" d="M 2906 1791 
Q 2906 2416 2648 2759 
Q 2391 3103 1925 3103 
Q 1463 3103 1205 2759 
Q 947 2416 947 1791 
Q 947 1169 1205 825 
Q 1463 481 1925 481 
Q 2391 481 2648 825 
Q 2906 1169 2906 1791 
z
M 3481 434 
Q 3481 -459 3084 -895 
Q 2688 -1331 1869 -1331 
Q 1566 -1331 1297 -1286 
Q 1028 -1241 775 -1147 
L 775 -588 
Q 1028 -725 1275 -790 
Q 1522 -856 1778 -856 
Q 2344 -856 2625 -561 
Q 2906 -266 2906 331 
L 2906 616 
Q 2728 306 2450 153 
Q 2172 0 1784 0 
Q 1141 0 747 490 
Q 353 981 353 1791 
Q 353 2603 747 3093 
Q 1141 3584 1784 3584 
Q 2172 3584 2450 3431 
Q 2728 3278 2906 2969 
L 2906 3500 
L 3481 3500 
L 3481 434 
z
" transform="scale(0.015625)"/>
       <path id="DejaVuSans-31" d="M 794 531 
L 1825 531 
L 1825 4091 
L 703 3866 
L 703 4441 
L 1819 4666 
L 2450 4666 
L 2450 531 
L 3481 531 
L 3481 0 
L 794 0 
L 794 531 
z
" transform="scale(0.015625)"/>
       <path id="DejaVuSans-20" transform="scale(0.015625)"/>
       <path id="DejaVuSans-66" d="M 2375 4863 
L 2375 4384 
L 1825 4384 
Q 1516 4384 1395 4259 
Q 1275 4134 1275 3809 
L 1275 3500 
L 2222 3500 
L 2222 3053 
L 1275 3053 
L 1275 0 
L 697 0 
L 697 3053 
L 147 3053 
L 147 3500 
L 697 3500 
L 697 3744 
Q 697 4328 969 4595 
Q 1241 4863 1831 4863 
L 2375 4863 
z
" transform="scale(0.015625)"/>
       <path id="DejaVuSans-44" d="M 1259 4147 
L 1259 519 
L 2022 519 
Q 2988 519 3436 956 
Q 3884 1394 3884 2338 
Q 3884 3275 3436 3711 
Q 2988 4147 2022 4147 
L 1259 4147 
z
M 628 4666 
L 1925 4666 
Q 3281 4666 3915 4102 
Q 4550 3538 4550 2338 
Q 4550 1131 3912 565 
Q 3275 0 1925 0 
L 628 0 
L 628 4666 
z
" transform="scale(0.015625)"/>
      </defs>
      <use xlink:href="#DejaVuSans-6c"/>
      <use xlink:href="#DejaVuSans-6f" x="27.783203"/>
      <use xlink:href="#DejaVuSans-67" x="88.964844"/>
      <use xlink:href="#DejaVuSans-31" x="152.441406"/>
      <use xlink:href="#DejaVuSans-30" x="216.064453"/>
      <use xlink:href="#DejaVuSans-20" x="279.6875"/>
      <use xlink:href="#DejaVuSans-6f" x="311.474609"/>
      <use xlink:href="#DejaVuSans-66" x="372.65625"/>
      <use xlink:href="#DejaVuSans-20" x="407.861328"/>
      <use xlink:href="#DejaVuSans-44" x="439.648438"/>
      <use xlink:href="#DejaVuSans-66" x="516.650391"/>
     </g>
    </g>
   </g>
   <g id="matplotlib.axis_2">
    <g id="ytick_1">
     <g id="line2d_9">
      <path d="M 0 293.76 
L 460.8 293.76 
" clip-path="url(#p671b0fbdc7)" style="fill: none; stroke: #b0b0b0; stroke-width: 0.8; stroke-linecap: square"/>
     </g>
     <g id="line2d_10">
      <defs>
       <path id="m1d150f8772" d="M 0 0 
L -3.5 0 
" style="stroke: #000000; stroke-width: 0.8"/>
      </defs>
      <g>
       <use xlink:href="#m1d150f8772" x="0" y="293.76" style="stroke: #000000; stroke-width: 0.8"/>
      </g>
     </g>
    </g>
    <g id="ytick_2">
     <g id="line2d_11">
      <path d="M 0 236.274059 
L 460.8 236.274059 
" clip-path="url(#p671b0fbdc7)" style="fill: none; stroke: #b0b0b0; stroke-width: 0.8; stroke-linecap: square"/>
     </g>
     <g id="line2d_12">
      <g>
       <use xlink:href="#m1d150f8772" x="0" y="236.274059" style="stroke: #000000; stroke-width: 0.8"/>
      </g>
     </g>
    </g>
    <g id="ytick_3">
     <g id="line2d_13">
      <path d="M 0 178.788119 
L 460.8 178.788119 
" clip-path="url(#p671b0fbdc7)" style="fill: none; stroke: #b0b0b0; stroke-width: 0.8; stroke-linecap: square"/>
     </g>
     <g id="line2d_14">
      <g>
       <use xlink:href="#m1d150f8772" x="0" y="178.788119" style="stroke: #000000; stroke-width: 0.8"/>
      </g>
     </g>
    </g>
    <g id="ytick_4">
     <g id="line2d_15">
      <path d="M 0 121.302178 
L 460.8 121.302178 
" clip-path="url(#p671b0fbdc7)" style="fill: none; stroke: #b0b0b0; stroke-width: 0.8; stroke-linecap: square"/>
     </g>
     <g id="line2d_16">
      <g>
       <use xlink:href="#m1d150f8772" x="0" y="121.302178" style="stroke: #000000; stroke-width: 0.8"/>
      </g>
     </g>
    </g>
    <g id="ytick_5">
     <g id="line2d_17">
      <path d="M 0 63.816238 
L 460.8 63.816238 
" clip-path="url(#p671b0fbdc7)" style="fill: none; stroke: #b0b0b0; stroke-width: 0.8; stroke-linecap: square"/>
     </g>
     <g id="line2d_18">
      <g>
       <use xlink:href="#m1d150f8772" x="0" y="63.816238" style="stroke: #000000; stroke-width: 0.8"/>
      </g>
     </g>
    </g>
    <g id="ytick_6">
     <g id="line2d_19">
      <path d="M 0 6.330297 
L 460.8 6.330297 
" clip-path="url(#p671b0fbdc7)" style="fill: none; stroke: #b0b0b0; stroke-width: 0.8; stroke-linecap: square"/>
     </g>
     <g id="line2d_20">
      <g>
       <use xlink:href="#m1d150f8772" x="0" y="6.330297" style="stroke: #000000; stroke-width: 0.8"/>
      </g>
     </g>
    </g>
   </g>
   <g id="line2d_21">
    <path d="M 216.808777 293.76 
L 216.808777 288.969505 
L 219.170646 288.969505 
L 219.170646 284.17901 
L 221.258325 284.17901 
L 221.258325 279.388515 
L 222.170753 279.388515 
L 222.170753 274.59802 
L 222.368206 274.59802 
L 222.368206 269.807525 
L 224.43216 269.807525 
L 224.43216 265.01703 
L 224.96089 265.01703 
L 224.96089 260.226535 
L 226.684881 260.226535 
L 226.684881 255.43604 
L 227.93335 255.43604 
L 227.93335 250.645545 
L 228.249075 250.645545 
L 228.249075 245.85505 
L 229.338836 245.85505 
L 229.338836 241.064554 
L 231.961706 241.064554 
L 231.961706 236.274059 
L 235.114407 236.274059 
L 235.114407 231.483564 
L 237.500381 231.483564 
L 237.500381 226.693069 
L 237.816636 226.693069 
L 237.816636 221.902574 
L 238.998666 221.902574 
L 238.998666 217.112079 
L 239.126643 217.112079 
L 239.126643 212.321584 
L 239.604231 212.321584 
L 239.604231 207.531089 
L 243.470781 207.531089 
L 243.470781 202.740594 
L 245.980549 202.740594 
L 245.980549 197.950099 
L 249.309436 197.950099 
L 249.309436 193.159604 
L 250.058772 193.159604 
L 250.058772 188.369109 
L 251.498578 188.369109 
L 251.498578 183.578614 
L 251.768077 183.578614 
L 251.768077 178.788119 
L 252.799683 178.788119 
L 252.799683 173.997624 
L 253.294046 173.997624 
L 253.294046 169.207129 
L 253.415908 169.207129 
L 253.415908 164.416634 
L 253.98 164.416634 
L 253.98 159.626139 
L 254.450783 159.626139 
L 254.450783 154.835644 
L 254.457353 154.835644 
L 254.457353 150.045149 
L 254.638129 150.045149 
L 254.638129 145.254653 
L 254.999564 145.254653 
L 254.999564 140.464158 
L 256.768028 140.464158 
L 256.768028 135.673663 
L 257.189122 135.673663 
L 257.189122 130.883168 
L 257.261905 130.883168 
L 257.261905 126.092673 
L 257.350823 126.092673 
L 257.350823 121.302178 
L 260.167731 121.302178 
L 260.167731 116.511683 
L 260.425206 116.511683 
L 260.425206 111.721188 
L 261.209878 111.721188 
L 261.209878 106.930693 
L 262.625495 106.930693 
L 262.625495 102.140198 
L 265.133402 102.140198 
L 265.133402 97.349703 
L 265.869624 97.349703 
L 265.869624 92.559208 
L 266.931152 92.559208 
L 266.931152 87.768713 
L 272.355442 87.768713 
L 272.355442 82.978218 
L 272.865677 82.978218 
L 272.865677 78.187723 
L 275.478304 78.187723 
L 275.478304 73.397228 
L 275.492002 73.397228 
L 275.492002 68.606733 
L 276.885051 68.606733 
L 276.885051 63.816238 
L 277.06805 63.816238 
L 277.06805 59.025743 
L 278.975335 59.025743 
L 278.975335 54.235248 
L 279.000885 54.235248 
L 279.000885 49.444752 
L 279.07886 49.444752 
L 279.07886 44.654257 
L 280.671081 44.654257 
L 280.671081 39.863762 
L 281.478912 39.863762 
L 281.478912 35.073267 
L 283.222839 35.073267 
L 283.222839 30.282772 
L 283.728426 30.282772 
L 283.728426 25.492277 
L 284.492184 25.492277 
L 284.492184 20.701782 
L 285.49077 20.701782 
L 285.49077 15.911287 
L 286.127331 15.911287 
L 286.127331 11.120792 
L 289.353786 11.120792 
L 289.353786 6.330297 
L 289.353786 6.330297 
L 289.353786 6.330297 
L 460.8 6.330297 
" clip-path="url(#p671b0fbdc7)" style="fill: none; stroke: #ff0000; stroke-width: 3; stroke-linecap: square"/>
   </g>
   <g id="line2d_22">
    <path d="M 259.968048 293.76 
L 259.968048 288.969505 
L 260.048067 288.969505 
L 260.048067 284.17901 
L 260.063459 284.17901 
L 260.063459 279.388515 
L 260.081529 279.388515 
L 260.081529 274.59802 
L 260.097394 274.59802 
L 260.097394 269.807525 
L 260.098948 269.807525 
L 260.098948 265.01703 
L 260.118816 265.01703 
L 260.118816 260.226535 
L 260.150962 260.226535 
L 260.150962 255.43604 
L 260.15156 255.43604 
L 260.15156 250.645545 
L 260.185494 250.645545 
L 260.185494 245.85505 
L 260.276229 245.85505 
L 260.276229 241.064554 
L 260.291702 241.064554 
L 260.291702 236.274059 
L 260.291702 236.274059 
L 260.291702 231.483564 
L 260.291702 231.483564 
L 260.291702 226.693069 
L 260.291702 226.693069 
L 260.291702 221.902574 
L 280.242656 221.902574 
L 280.242656 217.112079 
L 280.880158 217.112079 
L 280.880158 212.321584 
L 281.160444 212.321584 
L 281.160444 207.531089 
L 281.508002 207.531089 
L 281.508002 202.740594 
L 281.907524 202.740594 
L 281.907524 197.950099 
L 283.812193 197.950099 
L 283.812193 193.159604 
L 284.526428 193.159604 
L 284.526428 188.369109 
L 287.08936 188.369109 
L 287.08936 183.578614 
L 287.242126 183.578614 
L 287.242126 178.788119 
L 287.916206 178.788119 
L 287.916206 173.997624 
L 289.634753 173.997624 
L 289.634753 169.207129 
L 289.853286 169.207129 
L 289.853286 164.416634 
L 292.997197 164.416634 
L 292.997197 159.626139 
L 293.759972 159.626139 
L 293.759972 154.835644 
L 294.646711 154.835644 
L 294.646711 150.045149 
L 316.982171 150.045149 
L 316.982171 145.254653 
L 320.263514 145.254653 
L 320.263514 140.464158 
L 324.688458 140.464158 
L 324.688458 135.673663 
L 328.088382 135.673663 
L 328.088382 130.883168 
L 329.170999 130.883168 
L 329.170999 126.092673 
L 329.371275 126.092673 
L 329.371275 121.302178 
L 329.672612 121.302178 
L 329.672612 116.511683 
L 330.039007 116.511683 
L 330.039007 111.721188 
L 331.163261 111.721188 
L 331.163261 106.930693 
L 331.321966 106.930693 
L 331.321966 102.140198 
L 331.934481 102.140198 
L 331.934481 97.349703 
L 332.558452 97.349703 
L 332.558452 92.559208 
L 332.582487 92.559208 
L 332.582487 87.768713 
L 333.271296 87.768713 
L 333.271296 82.978218 
L 333.694757 82.978218 
L 333.694757 78.187723 
L 338.215635 78.187723 
L 338.215635 73.397228 
L 342.608158 73.397228 
L 342.608158 68.606733 
L 345.939274 68.606733 
L 345.939274 63.816238 
L 346.681402 63.816238 
L 346.681402 59.025743 
L 348.364652 59.025743 
L 348.364652 54.235248 
L 348.543397 54.235248 
L 348.543397 49.444752 
L 348.622354 49.444752 
L 348.622354 44.654257 
L 349.268519 44.654257 
L 349.268519 39.863762 
L 349.972948 39.863762 
L 349.972948 35.073267 
L 350.354029 35.073267 
L 350.354029 30.282772 
L 353.953662 30.282772 
L 353.953662 25.492277 
L 355.105065 25.492277 
L 355.105065 20.701782 
L 355.790264 20.701782 
L 355.790264 15.911287 
L 358.149459 15.911287 
L 358.149459 11.120792 
L 361.052988 11.120792 
L 361.052988 6.330297 
L 361.052988 6.330297 
L 361.052988 6.330297 
L 460.8 6.330297 
" clip-path="url(#p671b0fbdc7)" style="fill: none; stroke: #00bfbf; stroke-width: 1.5; stroke-linecap: square"/>
   </g>
   <g id="line2d_23">
    <path d="M 259.968048 293.76 
L 259.968048 288.969505 
L 260.048067 288.969505 
L 260.048067 284.17901 
L 260.058294 284.17901 
L 260.058294 279.388515 
L 260.06201 279.388515 
L 260.06201 274.59802 
L 260.063459 274.59802 
L 260.063459 269.807525 
L 260.081529 269.807525 
L 260.081529 265.01703 
L 260.097394 265.01703 
L 260.097394 260.226535 
L 260.098948 260.226535 
L 260.098948 255.43604 
L 260.118816 255.43604 
L 260.118816 250.645545 
L 260.149584 250.645545 
L 260.149584 245.85505 
L 260.150962 245.85505 
L 260.150962 241.064554 
L 260.15156 241.064554 
L 260.15156 236.274059 
L 260.153017 236.274059 
L 260.153017 231.483564 
L 260.167731 231.483564 
L 260.167731 226.693069 
L 260.268196 226.693069 
L 260.268196 221.902574 
L 280.199953 221.902574 
L 280.199953 217.112079 
L 280.880158 217.112079 
L 280.880158 212.321584 
L 281.135209 212.321584 
L 281.135209 207.531089 
L 281.48301 207.531089 
L 281.48301 202.740594 
L 281.907524 202.740594 
L 281.907524 197.950099 
L 283.64997 197.950099 
L 283.64997 193.159604 
L 284.526428 193.159604 
L 284.526428 188.369109 
L 287.048961 188.369109 
L 287.048961 183.578614 
L 287.242126 183.578614 
L 287.242126 178.788119 
L 287.916206 178.788119 
L 287.916206 173.997624 
L 289.634753 173.997624 
L 289.634753 169.207129 
L 289.739562 169.207129 
L 289.739562 164.416634 
L 292.928177 164.416634 
L 292.928177 159.626139 
L 293.759972 159.626139 
L 293.759972 154.835644 
L 294.641733 154.835644 
L 294.641733 150.045149 
L 316.982171 150.045149 
L 316.982171 145.254653 
L 320.212913 145.254653 
L 320.212913 140.464158 
L 324.688458 140.464158 
L 324.688458 135.673663 
L 328.073846 135.673663 
L 328.073846 130.883168 
L 329.118022 130.883168 
L 329.118022 126.092673 
L 329.319992 126.092673 
L 329.319992 121.302178 
L 329.672612 121.302178 
L 329.672612 116.511683 
L 330.023573 116.511683 
L 330.023573 111.721188 
L 331.139704 111.721188 
L 331.139704 106.930693 
L 331.321966 106.930693 
L 331.321966 102.140198 
L 331.934481 102.140198 
L 331.934481 97.349703 
L 332.558452 97.349703 
L 332.558452 92.559208 
L 332.580564 92.559208 
L 332.580564 87.768713 
L 333.26711 87.768713 
L 333.26711 82.978218 
L 333.671789 82.978218 
L 333.671789 78.187723 
L 338.167764 78.187723 
L 338.167764 73.397228 
L 342.608158 73.397228 
L 342.608158 68.606733 
L 345.894521 68.606733 
L 345.894521 63.816238 
L 346.681402 63.816238 
L 346.681402 59.025743 
L 348.364652 59.025743 
L 348.364652 54.235248 
L 348.451496 54.235248 
L 348.451496 49.444752 
L 348.545448 49.444752 
L 348.545448 44.654257 
L 349.268519 44.654257 
L 349.268519 39.863762 
L 349.972948 39.863762 
L 349.972948 35.073267 
L 350.297227 35.073267 
L 350.297227 30.282772 
L 353.801367 30.282772 
L 353.801367 25.492277 
L 355.105065 25.492277 
L 355.105065 20.701782 
L 355.790264 20.701782 
L 355.790264 15.911287 
L 358.099577 15.911287 
L 358.099577 11.120792 
L 361.052988 11.120792 
L 361.052988 6.330297 
L 361.052988 6.330297 
L 361.052988 6.330297 
L 460.8 6.330297 
" clip-path="url(#p671b0fbdc7)" style="fill: none; stroke: #bf00bf; stroke-width: 1.5; stroke-linecap: square"/>
   </g>
   <g id="line2d_24">
    <path d="M 257.836085 293.76 
L 257.836085 288.969505 
L 258.028779 288.969505 
L 258.028779 284.17901 
L 258.162789 284.17901 
L 258.162789 279.388515 
L 258.259041 279.388515 
L 258.259041 274.59802 
L 258.259661 274.59802 
L 258.259661 269.807525 
L 258.268008 269.807525 
L 258.268008 265.01703 
L 258.481196 265.01703 
L 258.481196 260.226535 
L 258.519887 260.226535 
L 258.519887 255.43604 
L 258.525627 255.43604 
L 258.525627 250.645545 
L 258.597297 250.645545 
L 258.597297 245.85505 
L 258.603414 245.85505 
L 258.603414 241.064554 
L 258.624202 241.064554 
L 258.624202 236.274059 
L 258.693389 236.274059 
L 258.693389 231.483564 
L 258.840188 231.483564 
L 258.840188 226.693069 
L 260.167731 226.693069 
L 260.167731 221.902574 
L 280.151568 221.902574 
L 280.151568 217.112079 
L 280.880158 217.112079 
L 280.880158 212.321584 
L 281.135209 212.321584 
L 281.135209 207.531089 
L 281.48301 207.531089 
L 281.48301 202.740594 
L 281.907524 202.740594 
L 281.907524 197.950099 
L 283.132556 197.950099 
L 283.132556 193.159604 
L 284.492184 193.159604 
L 284.492184 188.369109 
L 284.494358 188.369109 
L 284.494358 183.578614 
L 286.526657 183.578614 
L 286.526657 178.788119 
L 287.242126 178.788119 
L 287.242126 173.997624 
L 287.916206 173.997624 
L 287.916206 169.207129 
L 289.623068 169.207129 
L 289.623068 164.416634 
L 289.634753 164.416634 
L 289.634753 159.626139 
L 289.854234 159.626139 
L 289.854234 154.835644 
L 291.473645 154.835644 
L 291.473645 150.045149 
L 292.928177 150.045149 
L 292.928177 145.254653 
L 293.7543 145.254653 
L 293.7543 140.464158 
L 294.179346 140.464158 
L 294.179346 135.673663 
L 294.504108 135.673663 
L 294.504108 130.883168 
L 294.609933 130.883168 
L 294.609933 126.092673 
L 294.641733 126.092673 
L 294.641733 121.302178 
L 296.040638 121.302178 
L 296.040638 116.511683 
L 297.718597 116.511683 
L 297.718597 111.721188 
L 297.728353 111.721188 
L 297.728353 106.930693 
L 297.753573 106.930693 
L 297.753573 102.140198 
L 297.879819 102.140198 
L 297.879819 97.349703 
L 298.834834 97.349703 
L 298.834834 92.559208 
L 299.212399 92.559208 
L 299.212399 87.768713 
L 300.452966 87.768713 
L 300.452966 82.978218 
L 302.777071 82.978218 
L 302.777071 78.187723 
L 303.056736 78.187723 
L 303.056736 73.397228 
L 303.493226 73.397228 
L 303.493226 68.606733 
L 316.782027 68.606733 
L 316.782027 63.816238 
L 322.822981 63.816238 
L 322.822981 59.025743 
L 322.971795 59.025743 
L 322.971795 54.235248 
L 323.08258 54.235248 
L 323.08258 49.444752 
L 323.229353 49.444752 
L 323.229353 44.654257 
L 323.467848 44.654257 
L 323.467848 39.863762 
L 323.53416 39.863762 
L 323.53416 35.073267 
L 324.207734 35.073267 
L 324.207734 30.282772 
L 329.373311 30.282772 
L 329.373311 25.492277 
L 330.587914 25.492277 
L 330.587914 20.701782 
L 336.755301 20.701782 
L 336.755301 15.911287 
L 345.644767 15.911287 
L 345.644767 11.120792 
L 348.265731 11.120792 
L 348.265731 6.330297 
L 348.265731 6.330297 
L 348.265731 6.330297 
L 460.8 6.330297 
" clip-path="url(#p671b0fbdc7)" style="fill: none; stroke: #000000; stroke-width: 1.5; stroke-linecap: square"/>
   </g>
   <g id="line2d_25">
    <path d="M 247.394407 293.76 
L 247.394407 288.969505 
L 247.586308 288.969505 
L 247.586308 284.17901 
L 247.7005 284.17901 
L 247.7005 279.388515 
L 249.57614 279.388515 
L 249.57614 274.59802 
L 249.732314 274.59802 
L 249.732314 269.807525 
L 250.148208 269.807525 
L 250.148208 265.01703 
L 250.158696 265.01703 
L 250.158696 260.226535 
L 250.265082 260.226535 
L 250.265082 255.43604 
L 250.426268 255.43604 
L 250.426268 250.645545 
L 250.88976 250.645545 
L 250.88976 245.85505 
L 251.633147 245.85505 
L 251.633147 241.064554 
L 251.650244 241.064554 
L 251.650244 236.274059 
L 254.65604 236.274059 
L 254.65604 231.483564 
L 254.748064 231.483564 
L 254.748064 226.693069 
L 255.382306 226.693069 
L 255.382306 221.902574 
L 256.717346 221.902574 
L 256.717346 217.112079 
L 256.768028 217.112079 
L 256.768028 212.321584 
L 257.661789 212.321584 
L 257.661789 207.531089 
L 258.50866 207.531089 
L 258.50866 202.740594 
L 258.780982 202.740594 
L 258.780982 197.950099 
L 259.264284 197.950099 
L 259.264284 193.159604 
L 259.280965 193.159604 
L 259.280965 188.369109 
L 259.324656 188.369109 
L 259.324656 183.578614 
L 259.606088 183.578614 
L 259.606088 178.788119 
L 259.777199 178.788119 
L 259.777199 173.997624 
L 260.167731 173.997624 
L 260.167731 169.207129 
L 260.584299 169.207129 
L 260.584299 164.416634 
L 262.666519 164.416634 
L 262.666519 159.626139 
L 263.313431 159.626139 
L 263.313431 154.835644 
L 263.326538 154.835644 
L 263.326538 150.045149 
L 263.509878 150.045149 
L 263.509878 145.254653 
L 263.829864 145.254653 
L 263.829864 140.464158 
L 264.828973 140.464158 
L 264.828973 135.673663 
L 266.372399 135.673663 
L 266.372399 130.883168 
L 266.65774 130.883168 
L 266.65774 126.092673 
L 266.678277 126.092673 
L 266.678277 121.302178 
L 271.159463 121.302178 
L 271.159463 116.511683 
L 272.089681 116.511683 
L 272.089681 111.721188 
L 273.956703 111.721188 
L 273.956703 106.930693 
L 275.600264 106.930693 
L 275.600264 102.140198 
L 280.126756 102.140198 
L 280.126756 97.349703 
L 280.151568 97.349703 
L 280.151568 92.559208 
L 280.880158 92.559208 
L 280.880158 87.768713 
L 281.135209 87.768713 
L 281.135209 82.978218 
L 281.48301 82.978218 
L 281.48301 78.187723 
L 281.785847 78.187723 
L 281.785847 73.397228 
L 281.907524 73.397228 
L 281.907524 68.606733 
L 283.132556 68.606733 
L 283.132556 63.816238 
L 283.222839 63.816238 
L 283.222839 59.025743 
L 283.730094 59.025743 
L 283.730094 54.235248 
L 284.492184 54.235248 
L 284.492184 49.444752 
L 286.29376 49.444752 
L 286.29376 44.654257 
L 287.916206 44.654257 
L 287.916206 39.863762 
L 289.623068 39.863762 
L 289.623068 35.073267 
L 289.634753 35.073267 
L 289.634753 30.282772 
L 292.05571 30.282772 
L 292.05571 25.492277 
L 292.207964 25.492277 
L 292.207964 20.701782 
L 293.7543 20.701782 
L 293.7543 15.911287 
L 294.641733 15.911287 
L 294.641733 11.120792 
L 298.444579 11.120792 
L 298.444579 6.330297 
L 298.444579 6.330297 
L 298.444579 6.330297 
L 460.8 6.330297 
" clip-path="url(#p671b0fbdc7)" style="fill: none; stroke: #00bfbf; stroke-width: 1.5; stroke-linecap: square"/>
   </g>
   <g id="patch_3">
    <path d="M 0 293.76 
L 0 3.456 
" style="fill: none; stroke: #000000; stroke-width: 0.8; stroke-linejoin: miter; stroke-linecap: square"/>
   </g>
   <g id="patch_4">
    <path d="M 460.8 293.76 
L 460.8 3.456 
" style="fill: none; stroke: #000000; stroke-width: 0.8; stroke-linejoin: miter; stroke-linecap: square"/>
   </g>
   <g id="patch_5">
    <path d="M 0 293.76 
L 460.8 293.76 
" style="fill: none; stroke: #000000; stroke-width: 0.8; stroke-linejoin: miter; stroke-linecap: square"/>
   </g>
   <g id="patch_6">
    <path d="M 0 3.456 
L 460.8 3.456 
" style="fill: none; stroke: #000000; stroke-width: 0.8; stroke-linejoin: miter; stroke-linecap: square"/>
   </g>
   <g id="text_6">
    <!-- {f6-f9}, 20-D -->
    <g transform="translate(318.609 287.95392) scale(0.2 -0.2)">
     <defs>
      <path id="DejaVuSans-7b" d="M 3272 -594 
L 3272 -1044 
L 3078 -1044 
Q 2300 -1044 2036 -812 
Q 1772 -581 1772 109 
L 1772 856 
Q 1772 1328 1603 1509 
Q 1434 1691 991 1691 
L 800 1691 
L 800 2138 
L 991 2138 
Q 1438 2138 1605 2317 
Q 1772 2497 1772 2963 
L 1772 3713 
Q 1772 4403 2036 4633 
Q 2300 4863 3078 4863 
L 3272 4863 
L 3272 4416 
L 3059 4416 
Q 2619 4416 2484 4278 
Q 2350 4141 2350 3700 
L 2350 2925 
Q 2350 2434 2208 2212 
Q 2066 1991 1722 1913 
Q 2069 1828 2209 1606 
Q 2350 1384 2350 897 
L 2350 122 
Q 2350 -319 2484 -456 
Q 2619 -594 3059 -594 
L 3272 -594 
z
" transform="scale(0.015625)"/>
      <path id="DejaVuSans-36" d="M 2113 2584 
Q 1688 2584 1439 2293 
Q 1191 2003 1191 1497 
Q 1191 994 1439 701 
Q 1688 409 2113 409 
Q 2538 409 2786 701 
Q 3034 994 3034 1497 
Q 3034 2003 2786 2293 
Q 2538 2584 2113 2584 
z
M 3366 4563 
L 3366 3988 
Q 3128 4100 2886 4159 
Q 2644 4219 2406 4219 
Q 1781 4219 1451 3797 
Q 1122 3375 1075 2522 
Q 1259 2794 1537 2939 
Q 1816 3084 2150 3084 
Q 2853 3084 3261 2657 
Q 3669 2231 3669 1497 
Q 3669 778 3244 343 
Q 2819 -91 2113 -91 
Q 1303 -91 875 529 
Q 447 1150 447 2328 
Q 447 3434 972 4092 
Q 1497 4750 2381 4750 
Q 2619 4750 2861 4703 
Q 3103 4656 3366 4563 
z
" transform="scale(0.015625)"/>
      <path id="DejaVuSans-39" d="M 703 97 
L 703 672 
Q 941 559 1184 500 
Q 1428 441 1663 441 
Q 2288 441 2617 861 
Q 2947 1281 2994 2138 
Q 2813 1869 2534 1725 
Q 2256 1581 1919 1581 
Q 1219 1581 811 2004 
Q 403 2428 403 3163 
Q 403 3881 828 4315 
Q 1253 4750 1959 4750 
Q 2769 4750 3195 4129 
Q 3622 3509 3622 2328 
Q 3622 1225 3098 567 
Q 2575 -91 1691 -91 
Q 1453 -91 1209 -44 
Q 966 3 703 97 
z
M 1959 2075 
Q 2384 2075 2632 2365 
Q 2881 2656 2881 3163 
Q 2881 3666 2632 3958 
Q 2384 4250 1959 4250 
Q 1534 4250 1286 3958 
Q 1038 3666 1038 3163 
Q 1038 2656 1286 2365 
Q 1534 2075 1959 2075 
z
" transform="scale(0.015625)"/>
      <path id="DejaVuSans-7d" d="M 800 -594 
L 1019 -594 
Q 1456 -594 1589 -459 
Q 1722 -325 1722 122 
L 1722 897 
Q 1722 1384 1862 1606 
Q 2003 1828 2350 1913 
Q 2003 1991 1862 2212 
Q 1722 2434 1722 2925 
L 1722 3700 
Q 1722 4144 1589 4280 
Q 1456 4416 1019 4416 
L 800 4416 
L 800 4863 
L 997 4863 
Q 1775 4863 2036 4633 
Q 2297 4403 2297 3713 
L 2297 2963 
Q 2297 2497 2465 2317 
Q 2634 2138 3078 2138 
L 3272 2138 
L 3272 1691 
L 3078 1691 
Q 2634 1691 2465 1509 
Q 2297 1328 2297 856 
L 2297 109 
Q 2297 -581 2036 -812 
Q 1775 -1044 997 -1044 
L 800 -1044 
L 800 -594 
z
" transform="scale(0.015625)"/>
      <path id="DejaVuSans-2c" d="M 750 794 
L 1409 794 
L 1409 256 
L 897 -744 
L 494 -744 
L 750 256 
L 750 794 
z
" transform="scale(0.015625)"/>
      <path id="DejaVuSans-32" d="M 1228 531 
L 3431 531 
L 3431 0 
L 469 0 
L 469 531 
Q 828 903 1448 1529 
Q 2069 2156 2228 2338 
Q 2531 2678 2651 2914 
Q 2772 3150 2772 3378 
Q 2772 3750 2511 3984 
Q 2250 4219 1831 4219 
Q 1534 4219 1204 4116 
Q 875 4013 500 3803 
L 500 4441 
Q 881 4594 1212 4672 
Q 1544 4750 1819 4750 
Q 2544 4750 2975 4387 
Q 3406 4025 3406 3419 
Q 3406 3131 3298 2873 
Q 3191 2616 2906 2266 
Q 2828 2175 2409 1742 
Q 1991 1309 1228 531 
z
" transform="scale(0.015625)"/>
     </defs>
     <use xlink:href="#DejaVuSans-7b"/>
     <use xlink:href="#DejaVuSans-66" x="63.623047"/>
     <use xlink:href="#DejaVuSans-36" x="98.828125"/>
     <use xlink:href="#DejaVuSans-2d" x="162.451172"/>
     <use xlink:href="#DejaVuSans-66" x="198.535156"/>
     <use xlink:href="#DejaVuSans-39" x="233.740234"/>
     <use xlink:href="#DejaVuSans-7d" x="297.363281"/>
     <use xlink:href="#DejaVuSans-2c" x="360.986328"/>
     <use xlink:href="#DejaVuSans-20" x="392.773438"/>
     <use xlink:href="#DejaVuSans-32" x="424.560547"/>
     <use xlink:href="#DejaVuSans-30" x="488.183594"/>
     <use xlink:href="#DejaVuSans-2d" x="551.806641"/>
     <use xlink:href="#DejaVuSans-44" x="587.890625"/>
    </g>
   </g>
   <g id="text_7">
    <!-- v2.6.3 -->
    <g style="fill: #808080" transform="translate(214.71875 288.777272) scale(0.1 -0.1)">
     <defs>
      <path id="DejaVuSans-76" d="M 191 3500 
L 800 3500 
L 1894 563 
L 2988 3500 
L 3597 3500 
L 2284 0 
L 1503 0 
L 191 3500 
z
" transform="scale(0.015625)"/>
      <path id="DejaVuSans-2e" d="M 684 794 
L 1344 794 
L 1344 0 
L 684 0 
L 684 794 
z
" transform="scale(0.015625)"/>
      <path id="DejaVuSans-33" d="M 2597 2516 
Q 3050 2419 3304 2112 
Q 3559 1806 3559 1356 
Q 3559 666 3084 287 
Q 2609 -91 1734 -91 
Q 1441 -91 1130 -33 
Q 819 25 488 141 
L 488 750 
Q 750 597 1062 519 
Q 1375 441 1716 441 
Q 2309 441 2620 675 
Q 2931 909 2931 1356 
Q 2931 1769 2642 2001 
Q 2353 2234 1838 2234 
L 1294 2234 
L 1294 2753 
L 1863 2753 
Q 2328 2753 2575 2939 
Q 2822 3125 2822 3475 
Q 2822 3834 2567 4026 
Q 2313 4219 1838 4219 
Q 1578 4219 1281 4162 
Q 984 4106 628 3988 
L 628 4550 
Q 988 4650 1302 4700 
Q 1616 4750 1894 4750 
Q 2613 4750 3031 4423 
Q 3450 4097 3450 3541 
Q 3450 3153 3228 2886 
Q 3006 2619 2597 2516 
z
" transform="scale(0.015625)"/>
     </defs>
     <use xlink:href="#DejaVuSans-76"/>
     <use xlink:href="#DejaVuSans-32" x="59.179688"/>
     <use xlink:href="#DejaVuSans-2e" x="122.802734"/>
     <use xlink:href="#DejaVuSans-36" x="154.589844"/>
     <use xlink:href="#DejaVuSans-2e" x="218.212891"/>
     <use xlink:href="#DejaVuSans-33" x="250"/>
    </g>
   </g>
  </g>
 </g>
 <defs>
  <clipPath id="p671b0fbdc7">
   <rect x="0" y="3.456" width="460.8" height="290.304"/>
  </clipPath>
 </defs>
</svg>
