<?xml version="1.0" encoding="utf-8" standalone="no"?>
<!DOCTYPE svg PUBLIC "-//W3C//DTD SVG 1.1//EN"
  "http://www.w3.org/Graphics/SVG/1.1/DTD/svg11.dtd">
<svg xmlns:xlink="http://www.w3.org/1999/xlink" width="460.8pt" height="345.6pt" viewBox="0 0 460.8 345.6" xmlns="http://www.w3.org/2000/svg" version="1.1">
 <metadata>
  <rdf:RDF xmlns:dc="http://purl.org/dc/elements/1.1/" xmlns:cc="http://creativecommons.org/ns#" xmlns:rdf="http://www.w3.org/1999/02/22-rdf-syntax-ns#">
   <cc:Work>
    <dc:type rdf:resource="http://purl.org/dc/dcmitype/StillImage"/>
    <dc:date>2024-01-23T11:32:37.830669</dc:date>
    <dc:format>image/svg+xml</dc:format>
    <dc:creator>
     <cc:Agent>
      <dc:title>Matplotlib v3.8.2, https://matplotlib.org/</dc:title>
     </cc:Agent>
    </dc:creator>
   </cc:Work>
  </rdf:RDF>
 </metadata>
 <defs>
  <style type="text/css">*{stroke-linejoin: round; stroke-linecap: butt}</style>
 </defs>
 <g id="figure_1">
  <g id="patch_1">
   <path d="M 0 345.6 
L 460.8 345.6 
L 460.8 0 
L 0 0 
z
" style="fill: #ffffff"/>
  </g>
  <g id="axes_1">
   <g id="patch_2">
    <path d="M 0 293.76 
L 460.8 293.76 
L 460.8 3.456 
L 0 3.456 
z
" style="fill: #ffffff"/>
   </g>
   <g id="matplotlib.axis_1">
    <g id="xtick_1">
     <g id="line2d_1">
      <path d="M 103.103634 293.76 
L 103.103634 3.456 
" clip-path="url(#p153721c819)" style="fill: none; stroke: #b0b0b0; stroke-width: 0.8; stroke-linecap: square"/>
     </g>
     <g id="line2d_2">
      <defs>
       <path id="ma33c298606" d="M 0 0 
L 0 3.5 
" style="stroke: #000000; stroke-width: 0.8"/>
      </defs>
      <g>
       <use xlink:href="#ma33c298606" x="103.103634" y="293.76" style="stroke: #000000; stroke-width: 0.8"/>
      </g>
     </g>
     <g id="text_1">
      <!-- -4 -->
      <g transform="translate(93.133322 315.956875) scale(0.2 -0.2)">
       <defs>
        <path id="DejaVuSans-2d" d="M 313 2009 
L 1997 2009 
L 1997 1497 
L 313 1497 
L 313 2009 
z
" transform="scale(0.015625)"/>
        <path id="DejaVuSans-34" d="M 2419 4116 
L 825 1625 
L 2419 1625 
L 2419 4116 
z
M 2253 4666 
L 3047 4666 
L 3047 1625 
L 3713 1625 
L 3713 1100 
L 3047 1100 
L 3047 0 
L 2419 0 
L 2419 1100 
L 313 1100 
L 313 1709 
L 2253 4666 
z
" transform="scale(0.015625)"/>
       </defs>
       <use xlink:href="#DejaVuSans-2d"/>
       <use xlink:href="#DejaVuSans-34" x="36.083984"/>
      </g>
     </g>
    </g>
    <g id="xtick_2">
     <g id="line2d_3">
      <path d="M 206.318777 293.76 
L 206.318777 3.456 
" clip-path="url(#p153721c819)" style="fill: none; stroke: #b0b0b0; stroke-width: 0.8; stroke-linecap: square"/>
     </g>
     <g id="line2d_4">
      <g>
       <use xlink:href="#ma33c298606" x="206.318777" y="293.76" style="stroke: #000000; stroke-width: 0.8"/>
      </g>
     </g>
     <g id="text_2">
      <!-- 0 -->
      <g transform="translate(199.956277 315.956875) scale(0.2 -0.2)">
       <defs>
        <path id="DejaVuSans-30" d="M 2034 4250 
Q 1547 4250 1301 3770 
Q 1056 3291 1056 2328 
Q 1056 1369 1301 889 
Q 1547 409 2034 409 
Q 2525 409 2770 889 
Q 3016 1369 3016 2328 
Q 3016 3291 2770 3770 
Q 2525 4250 2034 4250 
z
M 2034 4750 
Q 2819 4750 3233 4129 
Q 3647 3509 3647 2328 
Q 3647 1150 3233 529 
Q 2819 -91 2034 -91 
Q 1250 -91 836 529 
Q 422 1150 422 2328 
Q 422 3509 836 4129 
Q 1250 4750 2034 4750 
z
" transform="scale(0.015625)"/>
       </defs>
       <use xlink:href="#DejaVuSans-30"/>
      </g>
     </g>
    </g>
    <g id="xtick_3">
     <g id="line2d_5">
      <path d="M 309.533919 293.76 
L 309.533919 3.456 
" clip-path="url(#p153721c819)" style="fill: none; stroke: #b0b0b0; stroke-width: 0.8; stroke-linecap: square"/>
     </g>
     <g id="line2d_6">
      <g>
       <use xlink:href="#ma33c298606" x="309.533919" y="293.76" style="stroke: #000000; stroke-width: 0.8"/>
      </g>
     </g>
     <g id="text_3">
      <!-- 4 -->
      <g transform="translate(303.171419 315.956875) scale(0.2 -0.2)">
       <use xlink:href="#DejaVuSans-34"/>
      </g>
     </g>
    </g>
    <g id="xtick_4">
     <g id="line2d_7">
      <path d="M 412.749061 293.76 
L 412.749061 3.456 
" clip-path="url(#p153721c819)" style="fill: none; stroke: #b0b0b0; stroke-width: 0.8; stroke-linecap: square"/>
     </g>
     <g id="line2d_8">
      <g>
       <use xlink:href="#ma33c298606" x="412.749061" y="293.76" style="stroke: #000000; stroke-width: 0.8"/>
      </g>
     </g>
     <g id="text_4">
      <!-- 8 -->
      <g transform="translate(406.386561 315.956875) scale(0.2 -0.2)">
       <defs>
        <path id="DejaVuSans-38" d="M 2034 2216 
Q 1584 2216 1326 1975 
Q 1069 1734 1069 1313 
Q 1069 891 1326 650 
Q 1584 409 2034 409 
Q 2484 409 2743 651 
Q 3003 894 3003 1313 
Q 3003 1734 2745 1975 
Q 2488 2216 2034 2216 
z
M 1403 2484 
Q 997 2584 770 2862 
Q 544 3141 544 3541 
Q 544 4100 942 4425 
Q 1341 4750 2034 4750 
Q 2731 4750 3128 4425 
Q 3525 4100 3525 3541 
Q 3525 3141 3298 2862 
Q 3072 2584 2669 2484 
Q 3125 2378 3379 2068 
Q 3634 1759 3634 1313 
Q 3634 634 3220 271 
Q 2806 -91 2034 -91 
Q 1263 -91 848 271 
Q 434 634 434 1313 
Q 434 1759 690 2068 
Q 947 2378 1403 2484 
z
M 1172 3481 
Q 1172 3119 1398 2916 
Q 1625 2713 2034 2713 
Q 2441 2713 2670 2916 
Q 2900 3119 2900 3481 
Q 2900 3844 2670 4047 
Q 2441 4250 2034 4250 
Q 1625 4250 1398 4047 
Q 1172 3844 1172 3481 
z
" transform="scale(0.015625)"/>
       </defs>
       <use xlink:href="#DejaVuSans-38"/>
      </g>
     </g>
    </g>
    <g id="text_5">
     <!-- log10 of Df -->
     <g transform="translate(175.214063 339.313125) scale(0.2 -0.2)">
      <defs>
       <path id="DejaVuSans-6c" d="M 603 4863 
L 1178 4863 
L 1178 0 
L 603 0 
L 603 4863 
z
" transform="scale(0.015625)"/>
       <path id="DejaVuSans-6f" d="M 1959 3097 
Q 1497 3097 1228 2736 
Q 959 2375 959 1747 
Q 959 1119 1226 758 
Q 1494 397 1959 397 
Q 2419 397 2687 759 
Q 2956 1122 2956 1747 
Q 2956 2369 2687 2733 
Q 2419 3097 1959 3097 
z
M 1959 3584 
Q 2709 3584 3137 3096 
Q 3566 2609 3566 1747 
Q 3566 888 3137 398 
Q 2709 -91 1959 -91 
Q 1206 -91 779 398 
Q 353 888 353 1747 
Q 353 2609 779 3096 
Q 1206 3584 1959 3584 
z
" transform="scale(0.015625)"/>
       <path id="DejaVuSans-67" d="M 2906 1791 
Q 2906 2416 2648 2759 
Q 2391 3103 1925 3103 
Q 1463 3103 1205 2759 
Q 947 2416 947 1791 
Q 947 1169 1205 825 
Q 1463 481 1925 481 
Q 2391 481 2648 825 
Q 2906 1169 2906 1791 
z
M 3481 434 
Q 3481 -459 3084 -895 
Q 2688 -1331 1869 -1331 
Q 1566 -1331 1297 -1286 
Q 1028 -1241 775 -1147 
L 775 -588 
Q 1028 -725 1275 -790 
Q 1522 -856 1778 -856 
Q 2344 -856 2625 -561 
Q 2906 -266 2906 331 
L 2906 616 
Q 2728 306 2450 153 
Q 2172 0 1784 0 
Q 1141 0 747 490 
Q 353 981 353 1791 
Q 353 2603 747 3093 
Q 1141 3584 1784 3584 
Q 2172 3584 2450 3431 
Q 2728 3278 2906 2969 
L 2906 3500 
L 3481 3500 
L 3481 434 
z
" transform="scale(0.015625)"/>
       <path id="DejaVuSans-31" d="M 794 531 
L 1825 531 
L 1825 4091 
L 703 3866 
L 703 4441 
L 1819 4666 
L 2450 4666 
L 2450 531 
L 3481 531 
L 3481 0 
L 794 0 
L 794 531 
z
" transform="scale(0.015625)"/>
       <path id="DejaVuSans-20" transform="scale(0.015625)"/>
       <path id="DejaVuSans-66" d="M 2375 4863 
L 2375 4384 
L 1825 4384 
Q 1516 4384 1395 4259 
Q 1275 4134 1275 3809 
L 1275 3500 
L 2222 3500 
L 2222 3053 
L 1275 3053 
L 1275 0 
L 697 0 
L 697 3053 
L 147 3053 
L 147 3500 
L 697 3500 
L 697 3744 
Q 697 4328 969 4595 
Q 1241 4863 1831 4863 
L 2375 4863 
z
" transform="scale(0.015625)"/>
       <path id="DejaVuSans-44" d="M 1259 4147 
L 1259 519 
L 2022 519 
Q 2988 519 3436 956 
Q 3884 1394 3884 2338 
Q 3884 3275 3436 3711 
Q 2988 4147 2022 4147 
L 1259 4147 
z
M 628 4666 
L 1925 4666 
Q 3281 4666 3915 4102 
Q 4550 3538 4550 2338 
Q 4550 1131 3912 565 
Q 3275 0 1925 0 
L 628 0 
L 628 4666 
z
" transform="scale(0.015625)"/>
      </defs>
      <use xlink:href="#DejaVuSans-6c"/>
      <use xlink:href="#DejaVuSans-6f" x="27.783203"/>
      <use xlink:href="#DejaVuSans-67" x="88.964844"/>
      <use xlink:href="#DejaVuSans-31" x="152.441406"/>
      <use xlink:href="#DejaVuSans-30" x="216.064453"/>
      <use xlink:href="#DejaVuSans-20" x="279.6875"/>
      <use xlink:href="#DejaVuSans-6f" x="311.474609"/>
      <use xlink:href="#DejaVuSans-66" x="372.65625"/>
      <use xlink:href="#DejaVuSans-20" x="407.861328"/>
      <use xlink:href="#DejaVuSans-44" x="439.648438"/>
      <use xlink:href="#DejaVuSans-66" x="516.650391"/>
     </g>
    </g>
   </g>
   <g id="matplotlib.axis_2">
    <g id="ytick_1">
     <g id="line2d_9">
      <path d="M 0 293.76 
L 460.8 293.76 
" clip-path="url(#p153721c819)" style="fill: none; stroke: #b0b0b0; stroke-width: 0.8; stroke-linecap: square"/>
     </g>
     <g id="line2d_10">
      <defs>
       <path id="m839614f2f6" d="M 0 0 
L -3.5 0 
" style="stroke: #000000; stroke-width: 0.8"/>
      </defs>
      <g>
       <use xlink:href="#m839614f2f6" x="0" y="293.76" style="stroke: #000000; stroke-width: 0.8"/>
      </g>
     </g>
    </g>
    <g id="ytick_2">
     <g id="line2d_11">
      <path d="M 0 236.274059 
L 460.8 236.274059 
" clip-path="url(#p153721c819)" style="fill: none; stroke: #b0b0b0; stroke-width: 0.8; stroke-linecap: square"/>
     </g>
     <g id="line2d_12">
      <g>
       <use xlink:href="#m839614f2f6" x="0" y="236.274059" style="stroke: #000000; stroke-width: 0.8"/>
      </g>
     </g>
    </g>
    <g id="ytick_3">
     <g id="line2d_13">
      <path d="M 0 178.788119 
L 460.8 178.788119 
" clip-path="url(#p153721c819)" style="fill: none; stroke: #b0b0b0; stroke-width: 0.8; stroke-linecap: square"/>
     </g>
     <g id="line2d_14">
      <g>
       <use xlink:href="#m839614f2f6" x="0" y="178.788119" style="stroke: #000000; stroke-width: 0.8"/>
      </g>
     </g>
    </g>
    <g id="ytick_4">
     <g id="line2d_15">
      <path d="M 0 121.302178 
L 460.8 121.302178 
" clip-path="url(#p153721c819)" style="fill: none; stroke: #b0b0b0; stroke-width: 0.8; stroke-linecap: square"/>
     </g>
     <g id="line2d_16">
      <g>
       <use xlink:href="#m839614f2f6" x="0" y="121.302178" style="stroke: #000000; stroke-width: 0.8"/>
      </g>
     </g>
    </g>
    <g id="ytick_5">
     <g id="line2d_17">
      <path d="M 0 63.816238 
L 460.8 63.816238 
" clip-path="url(#p153721c819)" style="fill: none; stroke: #b0b0b0; stroke-width: 0.8; stroke-linecap: square"/>
     </g>
     <g id="line2d_18">
      <g>
       <use xlink:href="#m839614f2f6" x="0" y="63.816238" style="stroke: #000000; stroke-width: 0.8"/>
      </g>
     </g>
    </g>
    <g id="ytick_6">
     <g id="line2d_19">
      <path d="M 0 6.330297 
L 460.8 6.330297 
" clip-path="url(#p153721c819)" style="fill: none; stroke: #b0b0b0; stroke-width: 0.8; stroke-linecap: square"/>
     </g>
     <g id="line2d_20">
      <g>
       <use xlink:href="#m839614f2f6" x="0" y="6.330297" style="stroke: #000000; stroke-width: 0.8"/>
      </g>
     </g>
    </g>
   </g>
   <g id="line2d_21">
    <path d="M 97.842859 293.76 
L 97.842859 289.927604 
L 143.510623 289.927604 
L 143.510623 286.095208 
L 143.731197 286.095208 
L 143.731197 282.262812 
L 144.293872 282.262812 
L 144.293872 278.430416 
L 145.106386 278.430416 
L 145.106386 274.59802 
L 146.435841 274.59802 
L 146.50304 266.933228 
L 157.466127 266.933228 
L 157.466127 263.100832 
L 166.944841 263.100832 
L 166.944841 259.268436 
L 176.139175 259.268436 
L 176.139175 255.43604 
L 187.93738 255.43604 
L 187.93738 251.603644 
L 190.940243 251.603644 
L 190.940243 247.771248 
L 201.251249 247.771248 
L 201.251249 243.938851 
L 203.460181 243.938851 
L 203.460181 240.106455 
L 205.583963 240.106455 
L 205.583963 236.274059 
L 217.500712 236.274059 
L 217.500712 232.441663 
L 219.620913 232.441663 
L 219.620913 228.609267 
L 222.757478 228.609267 
L 222.757478 224.776871 
L 226.351725 224.776871 
L 226.351725 220.944475 
L 229.842433 220.944475 
L 229.842433 217.112079 
L 235.469043 217.112079 
L 235.469043 213.279683 
L 237.607393 213.279683 
L 237.607393 209.447287 
L 238.137729 209.447287 
L 238.137729 205.614891 
L 238.776269 205.614891 
L 238.776269 201.782495 
L 239.371304 201.782495 
L 239.371304 197.950099 
L 240.700069 197.950099 
L 240.700069 194.117703 
L 242.691945 194.117703 
L 242.691945 190.285307 
L 243.217232 190.285307 
L 243.217232 186.452911 
L 244.625066 186.452911 
L 244.625066 182.620515 
L 245.477299 182.620515 
L 245.477299 178.788119 
L 246.278879 178.788119 
L 246.278879 174.955723 
L 246.531105 174.955723 
L 246.531105 171.123327 
L 246.789431 171.123327 
L 246.789431 167.290931 
L 248.569426 167.290931 
L 248.569426 163.458535 
L 249.18564 163.458535 
L 249.18564 159.626139 
L 250.535472 159.626139 
L 250.535472 155.793743 
L 253.625475 155.793743 
L 253.625475 151.961347 
L 255.775308 151.961347 
L 255.775308 148.12895 
L 257.169374 148.12895 
L 257.169374 144.296554 
L 257.661443 144.296554 
L 257.661443 140.464158 
L 258.494131 140.464158 
L 258.494131 136.631762 
L 258.998927 136.631762 
L 258.998927 132.799366 
L 259.492735 132.799366 
L 259.499456 125.134574 
L 260.198349 125.134574 
L 260.198349 121.302178 
L 261.296105 121.302178 
L 261.296105 117.469782 
L 261.407869 117.469782 
L 261.407869 113.637386 
L 264.278152 113.637386 
L 264.278152 109.80499 
L 264.623723 109.80499 
L 264.623723 105.972594 
L 264.99582 105.972594 
L 264.99582 102.140198 
L 265.438507 102.140198 
L 265.438507 98.307802 
L 266.698012 98.307802 
L 266.698012 94.475406 
L 268.410667 94.475406 
L 268.410667 90.64301 
L 269.462707 90.64301 
L 269.462707 86.810614 
L 276.339535 86.810614 
L 276.339535 82.978218 
L 277.726572 82.978218 
L 277.803978 75.313426 
L 278.393116 75.313426 
L 278.393116 71.48103 
L 283.271752 71.48103 
L 283.271752 67.648634 
L 283.729093 67.648634 
L 283.729093 63.816238 
L 300.61602 63.816238 
L 300.61602 59.983842 
L 304.52689 59.983842 
L 304.52689 56.151446 
L 304.669345 56.151446 
L 304.669345 52.31905 
L 307.101282 52.31905 
L 307.101282 48.486653 
L 313.286425 48.486653 
L 313.286425 44.654257 
L 313.462493 44.654257 
L 313.462493 40.821861 
L 313.677729 40.821861 
L 313.677729 36.989465 
L 317.536374 36.989465 
L 317.62752 29.324673 
L 318.343299 29.324673 
L 318.343299 25.492277 
L 318.988089 25.492277 
L 318.988089 21.659881 
L 319.686879 21.659881 
L 319.686879 17.827485 
L 320.950017 17.827485 
L 320.950017 13.995089 
L 321.900308 13.995089 
L 321.900308 10.162693 
L 327.751728 10.162693 
L 327.751728 6.330297 
L 327.751728 6.330297 
L 460.8 6.330297 
L 460.8 6.330297 
" clip-path="url(#p153721c819)" style="fill: none; stroke: #ff0000; stroke-width: 3; stroke-linecap: square"/>
   </g>
   <g id="line2d_22">
    <path d="M 241.854505 293.76 
L 241.854505 289.927604 
L 245.539315 289.927604 
L 245.539315 286.095208 
L 246.329713 286.095208 
L 246.329713 282.262812 
L 246.584691 282.262812 
L 246.584691 278.430416 
L 249.831768 278.430416 
L 249.831768 274.59802 
L 250.007489 274.59802 
L 250.007489 270.765624 
L 250.170184 270.765624 
L 250.216746 263.100832 
L 252.843962 263.100832 
L 252.843962 259.268436 
L 253.852706 259.268436 
L 253.955011 251.603644 
L 254.229327 251.603644 
L 254.229327 247.771248 
L 255.823172 247.771248 
L 255.823172 243.938851 
L 259.228072 243.938851 
L 259.228072 240.106455 
L 259.528876 240.106455 
L 259.528876 236.274059 
L 262.023849 236.274059 
L 262.023849 232.441663 
L 288.592751 232.441663 
L 288.592751 228.609267 
L 290.12376 228.609267 
L 290.12376 224.776871 
L 290.747174 224.776871 
L 290.747174 220.944475 
L 291.050523 220.944475 
L 291.050523 217.112079 
L 291.16727 217.112079 
L 291.16727 213.279683 
L 291.340303 213.279683 
L 291.340303 209.447287 
L 291.56203 209.447287 
L 291.56203 205.614891 
L 291.835904 205.614891 
L 291.835904 201.782495 
L 292.191544 201.782495 
L 292.191544 197.950099 
L 292.408762 197.950099 
L 292.444809 190.285307 
L 293.180933 190.285307 
L 293.180933 186.452911 
L 293.379191 186.452911 
L 293.379191 182.620515 
L 293.738048 182.620515 
L 293.834395 174.955723 
L 308.543372 174.955723 
L 308.543372 171.123327 
L 341.27952 171.123327 
L 341.27952 167.290931 
L 346.35505 167.290931 
L 346.35505 163.458535 
L 353.249047 163.458535 
L 353.249047 159.626139 
L 362.789574 159.626139 
L 362.789574 155.793743 
L 368.484066 155.793743 
L 368.484066 151.961347 
L 368.996939 151.961347 
L 368.996939 148.12895 
L 370.372227 148.12895 
L 370.372227 144.296554 
L 371.152328 144.296554 
L 371.152328 140.464158 
L 371.72576 140.464158 
L 371.72576 136.631762 
L 373.093098 136.631762 
L 373.093098 132.799366 
L 373.686353 132.799366 
L 373.686353 128.96697 
L 374.682483 128.96697 
L 374.682483 125.134574 
L 375.061747 125.134574 
L 375.061747 121.302178 
L 379.055912 121.302178 
L 379.055912 117.469782 
L 382.031489 117.469782 
L 382.073647 109.80499 
L 383.31605 109.80499 
L 383.402597 102.140198 
L 383.502105 102.140198 
L 383.502105 98.307802 
L 383.72288 98.307802 
L 383.72288 94.475406 
L 386.061405 94.475406 
L 386.061405 90.64301 
L 386.31573 90.64301 
L 386.31573 86.810614 
L 387.894474 86.810614 
L 387.894474 82.978218 
L 389.862958 82.978218 
L 389.862958 79.145822 
L 391.011447 79.145822 
L 391.011447 75.313426 
L 394.618707 75.313426 
L 394.618707 71.48103 
L 394.890178 71.48103 
L 394.890178 67.648634 
L 399.340661 67.648634 
L 399.340661 63.816238 
L 408.29371 63.816238 
L 408.29371 59.983842 
L 411.49224 59.983842 
L 411.586695 52.31905 
L 416.152855 52.31905 
L 416.152855 48.486653 
L 417.363122 48.486653 
L 417.363122 44.654257 
L 418.152323 44.654257 
L 418.152323 40.821861 
L 420.424298 40.821861 
L 420.424298 36.989465 
L 421.468896 36.989465 
L 421.468896 33.157069 
L 423.545802 33.157069 
L 423.545802 29.324673 
L 424.444118 29.324673 
L 424.444118 25.492277 
L 426.423049 25.492277 
L 426.423049 21.659881 
L 427.008138 21.659881 
L 427.008138 17.827485 
L 428.657204 17.827485 
L 428.657204 13.995089 
L 432.631157 13.995089 
L 432.705271 6.330297 
L 432.705271 6.330297 
L 460.8 6.330297 
L 460.8 6.330297 
" clip-path="url(#p153721c819)" style="fill: none; stroke: #00bfbf; stroke-width: 1.5; stroke-linecap: square"/>
   </g>
   <g id="line2d_23">
    <path d="M 241.748283 293.76 
L 241.748283 289.927604 
L 245.477299 289.927604 
L 245.477299 286.095208 
L 246.278879 286.095208 
L 246.278879 282.262812 
L 246.531105 282.262812 
L 246.531105 278.430416 
L 249.831768 278.430416 
L 249.831768 274.59802 
L 250.007489 274.59802 
L 250.007489 270.765624 
L 250.157438 270.765624 
L 250.170184 263.100832 
L 252.777992 263.100832 
L 252.777992 259.268436 
L 253.852706 259.268436 
L 253.955011 251.603644 
L 254.055072 251.603644 
L 254.055072 247.771248 
L 255.823172 247.771248 
L 255.823172 243.938851 
L 259.163827 243.938851 
L 259.212685 236.274059 
L 262.023849 236.274059 
L 262.023849 232.441663 
L 288.592751 232.441663 
L 288.592751 228.609267 
L 290.109445 228.609267 
L 290.109445 224.776871 
L 290.740736 224.776871 
L 290.740736 220.944475 
L 291.020314 220.944475 
L 291.020314 217.112079 
L 291.16727 217.112079 
L 291.16727 213.279683 
L 291.340303 213.279683 
L 291.340303 209.447287 
L 291.56203 209.447287 
L 291.56203 205.614891 
L 291.822145 205.614891 
L 291.822145 201.782495 
L 292.189229 201.782495 
L 292.189229 197.950099 
L 292.40746 197.950099 
L 292.444809 190.285307 
L 293.177166 190.285307 
L 293.177166 186.452911 
L 293.379191 186.452911 
L 293.379191 182.620515 
L 293.729366 182.620515 
L 293.834395 174.955723 
L 307.966976 174.955723 
L 307.966976 171.123327 
L 341.19201 171.123327 
L 341.19201 167.290931 
L 345.384792 167.290931 
L 345.384792 163.458535 
L 352.083357 163.458535 
L 352.083357 159.626139 
L 362.638739 159.626139 
L 362.638739 155.793743 
L 368.326396 155.793743 
L 368.326396 151.961347 
L 368.996939 151.961347 
L 368.996939 148.12895 
L 370.238772 148.12895 
L 370.238772 144.296554 
L 371.152328 144.296554 
L 371.152328 140.464158 
L 371.598884 140.464158 
L 371.598884 136.631762 
L 373.088499 136.631762 
L 373.088499 132.799366 
L 373.380707 132.799366 
L 373.380707 128.96697 
L 374.587446 128.96697 
L 374.587446 125.134574 
L 375.061747 125.134574 
L 375.061747 121.302178 
L 378.955334 121.302178 
L 378.955334 117.469782 
L 381.862732 117.469782 
L 381.862732 113.637386 
L 382.028501 113.637386 
L 382.028501 109.80499 
L 383.307787 109.80499 
L 383.402597 102.140198 
L 383.502105 102.140198 
L 383.502105 98.307802 
L 383.72288 98.307802 
L 383.72288 94.475406 
L 386.033951 94.475406 
L 386.033951 90.64301 
L 386.239456 90.64301 
L 386.239456 86.810614 
L 387.894474 86.810614 
L 387.894474 82.978218 
L 389.862958 82.978218 
L 389.862958 79.145822 
L 390.944958 79.145822 
L 390.944958 75.313426 
L 394.615544 75.313426 
L 394.615544 71.48103 
L 394.890178 71.48103 
L 394.890178 67.648634 
L 399.340661 67.648634 
L 399.340661 63.816238 
L 408.29371 63.816238 
L 408.29371 59.983842 
L 411.49224 59.983842 
L 411.586695 52.31905 
L 416.152855 52.31905 
L 416.152855 48.486653 
L 417.350817 48.486653 
L 417.350817 44.654257 
L 418.027849 44.654257 
L 418.027849 40.821861 
L 420.41197 40.821861 
L 420.41197 36.989465 
L 421.468896 36.989465 
L 421.468896 33.157069 
L 423.545802 33.157069 
L 423.545802 29.324673 
L 424.240736 29.324673 
L 424.240736 25.492277 
L 426.423049 25.492277 
L 426.423049 21.659881 
L 427.008138 21.659881 
L 427.008138 17.827485 
L 428.657204 17.827485 
L 428.657204 13.995089 
L 432.578557 13.995089 
L 432.578557 10.162693 
L 432.705271 10.162693 
L 432.705271 6.330297 
L 432.705271 6.330297 
L 460.8 6.330297 
L 460.8 6.330297 
" clip-path="url(#p153721c819)" style="fill: none; stroke: #bf00bf; stroke-width: 1.5; stroke-linecap: square"/>
   </g>
   <g id="line2d_24">
    <path d="M 225.805842 293.76 
L 225.805842 289.927604 
L 229.432706 289.927604 
L 229.432706 286.095208 
L 230.861955 286.095208 
L 230.861955 282.262812 
L 232.994467 282.262812 
L 232.994467 278.430416 
L 236.278503 278.430416 
L 236.278503 274.59802 
L 236.504684 274.59802 
L 236.504684 270.765624 
L 240.153843 270.765624 
L 240.153843 266.933228 
L 241.215774 266.933228 
L 241.215774 263.100832 
L 245.477299 263.100832 
L 245.477299 259.268436 
L 246.278879 259.268436 
L 246.278879 255.43604 
L 246.531105 255.43604 
L 246.531105 251.603644 
L 249.831768 251.603644 
L 249.831768 247.771248 
L 250.007489 247.771248 
L 250.007489 243.938851 
L 250.170184 243.938851 
L 250.170184 240.106455 
L 254.776986 240.106455 
L 254.776986 236.274059 
L 261.438238 236.274059 
L 261.438238 232.441663 
L 269.489713 232.441663 
L 269.489713 228.609267 
L 272.035292 228.609267 
L 272.035292 224.776871 
L 275.123459 224.776871 
L 275.123459 220.944475 
L 275.304475 220.944475 
L 275.304475 217.112079 
L 275.635685 217.112079 
L 275.642383 209.447287 
L 276.214808 209.447287 
L 276.22478 201.782495 
L 277.193443 201.782495 
L 277.193443 197.950099 
L 277.361639 197.950099 
L 277.361639 194.117703 
L 277.721748 194.117703 
L 277.721748 190.285307 
L 278.06866 190.285307 
L 278.06866 186.452911 
L 278.334281 186.452911 
L 278.334281 182.620515 
L 279.277272 182.620515 
L 279.277272 178.788119 
L 279.699015 178.788119 
L 279.699015 174.955723 
L 283.730164 174.955723 
L 283.730164 171.123327 
L 284.128077 171.123327 
L 284.128077 167.290931 
L 296.433108 167.290931 
L 296.433108 163.458535 
L 297.762843 163.458535 
L 297.762843 159.626139 
L 297.902264 159.626139 
L 297.902264 155.793743 
L 298.889341 155.793743 
L 298.889341 151.961347 
L 299.848843 151.961347 
L 299.848843 148.12895 
L 321.18974 148.12895 
L 321.18974 144.296554 
L 324.378589 144.296554 
L 324.378589 140.464158 
L 337.306288 140.464158 
L 337.306288 136.631762 
L 349.285553 136.631762 
L 349.285553 132.799366 
L 351.240005 132.799366 
L 351.240005 128.96697 
L 351.746772 128.96697 
L 351.746772 125.134574 
L 351.880648 125.134574 
L 351.880648 121.302178 
L 352.050118 121.302178 
L 352.050118 117.469782 
L 353.134983 117.469782 
L 353.134983 113.637386 
L 353.254647 113.637386 
L 353.254647 109.80499 
L 356.795713 109.80499 
L 356.795713 105.972594 
L 356.947454 105.972594 
L 356.947454 102.140198 
L 357.121393 102.140198 
L 357.121393 98.307802 
L 358.300448 98.307802 
L 358.304821 90.64301 
L 359.006957 90.64301 
L 359.006957 86.810614 
L 359.279846 86.810614 
L 359.279846 82.978218 
L 362.226114 82.978218 
L 362.226114 79.145822 
L 363.73089 79.145822 
L 363.73089 75.313426 
L 367.187704 75.313426 
L 367.187704 71.48103 
L 368.658821 71.48103 
L 368.658821 67.648634 
L 370.178012 67.648634 
L 370.178012 63.816238 
L 370.57747 63.816238 
L 370.57747 59.983842 
L 374.574059 59.983842 
L 374.574059 56.151446 
L 380.936708 56.151446 
L 380.936708 52.31905 
L 392.236512 52.31905 
L 392.236512 48.486653 
L 394.104906 48.486653 
L 394.104906 44.654257 
L 395.234114 44.654257 
L 395.234114 40.821861 
L 396.750989 40.821861 
L 396.750989 36.989465 
L 400.670203 36.989465 
L 400.670203 33.157069 
L 404.287809 33.157069 
L 404.287809 29.324673 
L 405.012203 29.324673 
L 405.012203 25.492277 
L 406.303123 25.492277 
L 406.303123 21.659881 
L 406.423524 21.659881 
L 406.423524 17.827485 
L 406.651811 17.827485 
L 406.651811 13.995089 
L 408.946638 13.995089 
L 408.946638 10.162693 
L 412.243719 10.162693 
L 412.243719 6.330297 
L 412.243719 6.330297 
L 460.8 6.330297 
L 460.8 6.330297 
" clip-path="url(#p153721c819)" style="fill: none; stroke: #000000; stroke-width: 1.5; stroke-linecap: square"/>
   </g>
   <g id="line2d_25">
    <path d="M 170.90449 293.76 
L 170.90449 289.927604 
L 172.693995 289.927604 
L 172.693995 286.095208 
L 177.516033 286.095208 
L 177.516033 282.262812 
L 178.611198 282.262812 
L 178.611198 278.430416 
L 180.383446 278.430416 
L 180.383446 274.59802 
L 181.470877 274.59802 
L 181.470877 270.765624 
L 235.469043 270.765624 
L 235.469043 266.933228 
L 240.700733 266.933228 
L 240.700733 263.100832 
L 244.679884 263.100832 
L 244.679884 259.268436 
L 245.477299 259.268436 
L 245.477299 255.43604 
L 245.6142 255.43604 
L 245.6142 251.603644 
L 246.188067 251.603644 
L 246.278879 243.938851 
L 246.531105 243.938851 
L 246.531105 240.106455 
L 247.165334 240.106455 
L 247.165334 236.274059 
L 247.291831 236.274059 
L 247.291831 232.441663 
L 247.934415 232.441663 
L 247.934415 228.609267 
L 248.816597 228.609267 
L 248.816597 224.776871 
L 249.282032 224.776871 
L 249.338673 217.112079 
L 249.831768 217.112079 
L 249.831768 213.279683 
L 250.007489 213.279683 
L 250.016954 205.614891 
L 250.170184 205.614891 
L 250.170184 201.782495 
L 250.535487 201.782495 
L 250.597103 194.117703 
L 254.776986 194.117703 
L 254.776986 190.285307 
L 255.812574 190.285307 
L 255.812574 186.452911 
L 257.209989 186.452911 
L 257.209989 182.620515 
L 257.71945 182.620515 
L 257.71945 178.788119 
L 258.515273 178.788119 
L 258.515273 174.955723 
L 259.493556 174.955723 
L 259.585083 167.290931 
L 260.233301 167.290931 
L 260.233301 163.458535 
L 260.808519 163.458535 
L 260.808519 159.626139 
L 261.313226 159.626139 
L 261.313226 155.793743 
L 261.43722 155.793743 
L 261.43722 151.961347 
L 265.108626 151.961347 
L 265.108626 148.12895 
L 265.438507 148.12895 
L 265.438507 144.296554 
L 269.462716 144.296554 
L 269.462716 140.464158 
L 275.748417 140.464158 
L 275.748417 136.631762 
L 277.741778 136.631762 
L 277.741778 132.799366 
L 280.719476 132.799366 
L 280.719476 128.96697 
L 283.340148 128.96697 
L 283.340148 125.134574 
L 283.550569 125.134574 
L 283.550569 121.302178 
L 283.730133 121.302178 
L 283.730135 113.637386 
L 284.678139 113.637386 
L 284.678139 109.80499 
L 287.796479 109.80499 
L 287.796479 105.972594 
L 292.192649 105.972594 
L 292.192649 102.140198 
L 296.14772 102.140198 
L 296.14772 98.307802 
L 297.551004 98.307802 
L 297.551004 94.475406 
L 298.856869 94.475406 
L 298.856869 90.64301 
L 299.199822 90.64301 
L 299.199822 86.810614 
L 299.789805 86.810614 
L 299.789805 82.978218 
L 303.327467 82.978218 
L 303.327467 79.145822 
L 305.980118 79.145822 
L 305.980118 75.313426 
L 306.163321 75.313426 
L 306.163321 71.48103 
L 318.215695 71.48103 
L 318.215695 67.648634 
L 322.713461 67.648634 
L 322.713461 63.816238 
L 325.076519 63.816238 
L 325.076519 59.983842 
L 333.394953 59.983842 
L 333.394953 56.151446 
L 333.76718 56.151446 
L 333.777635 48.486653 
L 334.541128 48.486653 
L 334.541128 44.654257 
L 337.838544 44.654257 
L 337.838544 40.821861 
L 339.242766 40.821861 
L 339.242766 36.989465 
L 340.249454 36.989465 
L 340.249454 33.157069 
L 341.404444 33.157069 
L 341.404444 29.324673 
L 341.723625 29.324673 
L 341.723625 25.492277 
L 342.276333 25.492277 
L 342.276333 21.659881 
L 343.879187 21.659881 
L 343.879187 17.827485 
L 345.979015 17.827485 
L 345.979015 13.995089 
L 347.436059 13.995089 
L 347.436059 10.162693 
L 347.820584 10.162693 
L 347.820584 6.330297 
L 347.820584 6.330297 
L 460.8 6.330297 
L 460.8 6.330297 
" clip-path="url(#p153721c819)" style="fill: none; stroke: #00bfbf; stroke-width: 1.5; stroke-linecap: square"/>
   </g>
   <g id="patch_3">
    <path d="M 0 293.76 
L 0 3.456 
" style="fill: none; stroke: #000000; stroke-width: 0.8; stroke-linejoin: miter; stroke-linecap: square"/>
   </g>
   <g id="patch_4">
    <path d="M 460.8 293.76 
L 460.8 3.456 
" style="fill: none; stroke: #000000; stroke-width: 0.8; stroke-linejoin: miter; stroke-linecap: square"/>
   </g>
   <g id="patch_5">
    <path d="M 0 293.76 
L 460.8 293.76 
" style="fill: none; stroke: #000000; stroke-width: 0.8; stroke-linejoin: miter; stroke-linecap: square"/>
   </g>
   <g id="patch_6">
    <path d="M 0 3.456 
L 460.8 3.456 
" style="fill: none; stroke: #000000; stroke-width: 0.8; stroke-linejoin: miter; stroke-linecap: square"/>
   </g>
   <g id="text_6">
    <!-- {f10-f14}, 20-D -->
    <g transform="translate(293.159 287.95392) scale(0.2 -0.2)">
     <defs>
      <path id="DejaVuSans-7b" d="M 3272 -594 
L 3272 -1044 
L 3078 -1044 
Q 2300 -1044 2036 -812 
Q 1772 -581 1772 109 
L 1772 856 
Q 1772 1328 1603 1509 
Q 1434 1691 991 1691 
L 800 1691 
L 800 2138 
L 991 2138 
Q 1438 2138 1605 2317 
Q 1772 2497 1772 2963 
L 1772 3713 
Q 1772 4403 2036 4633 
Q 2300 4863 3078 4863 
L 3272 4863 
L 3272 4416 
L 3059 4416 
Q 2619 4416 2484 4278 
Q 2350 4141 2350 3700 
L 2350 2925 
Q 2350 2434 2208 2212 
Q 2066 1991 1722 1913 
Q 2069 1828 2209 1606 
Q 2350 1384 2350 897 
L 2350 122 
Q 2350 -319 2484 -456 
Q 2619 -594 3059 -594 
L 3272 -594 
z
" transform="scale(0.015625)"/>
      <path id="DejaVuSans-7d" d="M 800 -594 
L 1019 -594 
Q 1456 -594 1589 -459 
Q 1722 -325 1722 122 
L 1722 897 
Q 1722 1384 1862 1606 
Q 2003 1828 2350 1913 
Q 2003 1991 1862 2212 
Q 1722 2434 1722 2925 
L 1722 3700 
Q 1722 4144 1589 4280 
Q 1456 4416 1019 4416 
L 800 4416 
L 800 4863 
L 997 4863 
Q 1775 4863 2036 4633 
Q 2297 4403 2297 3713 
L 2297 2963 
Q 2297 2497 2465 2317 
Q 2634 2138 3078 2138 
L 3272 2138 
L 3272 1691 
L 3078 1691 
Q 2634 1691 2465 1509 
Q 2297 1328 2297 856 
L 2297 109 
Q 2297 -581 2036 -812 
Q 1775 -1044 997 -1044 
L 800 -1044 
L 800 -594 
z
" transform="scale(0.015625)"/>
      <path id="DejaVuSans-2c" d="M 750 794 
L 1409 794 
L 1409 256 
L 897 -744 
L 494 -744 
L 750 256 
L 750 794 
z
" transform="scale(0.015625)"/>
      <path id="DejaVuSans-32" d="M 1228 531 
L 3431 531 
L 3431 0 
L 469 0 
L 469 531 
Q 828 903 1448 1529 
Q 2069 2156 2228 2338 
Q 2531 2678 2651 2914 
Q 2772 3150 2772 3378 
Q 2772 3750 2511 3984 
Q 2250 4219 1831 4219 
Q 1534 4219 1204 4116 
Q 875 4013 500 3803 
L 500 4441 
Q 881 4594 1212 4672 
Q 1544 4750 1819 4750 
Q 2544 4750 2975 4387 
Q 3406 4025 3406 3419 
Q 3406 3131 3298 2873 
Q 3191 2616 2906 2266 
Q 2828 2175 2409 1742 
Q 1991 1309 1228 531 
z
" transform="scale(0.015625)"/>
     </defs>
     <use xlink:href="#DejaVuSans-7b"/>
     <use xlink:href="#DejaVuSans-66" x="63.623047"/>
     <use xlink:href="#DejaVuSans-31" x="98.828125"/>
     <use xlink:href="#DejaVuSans-30" x="162.451172"/>
     <use xlink:href="#DejaVuSans-2d" x="226.074219"/>
     <use xlink:href="#DejaVuSans-66" x="262.158203"/>
     <use xlink:href="#DejaVuSans-31" x="297.363281"/>
     <use xlink:href="#DejaVuSans-34" x="360.986328"/>
     <use xlink:href="#DejaVuSans-7d" x="424.609375"/>
     <use xlink:href="#DejaVuSans-2c" x="488.232422"/>
     <use xlink:href="#DejaVuSans-20" x="520.019531"/>
     <use xlink:href="#DejaVuSans-32" x="551.806641"/>
     <use xlink:href="#DejaVuSans-30" x="615.429688"/>
     <use xlink:href="#DejaVuSans-2d" x="679.052734"/>
     <use xlink:href="#DejaVuSans-44" x="715.136719"/>
    </g>
   </g>
   <g id="text_7">
    <!-- v2.6.3 -->
    <g style="fill: #808080" transform="translate(214.71875 288.777272) scale(0.1 -0.1)">
     <defs>
      <path id="DejaVuSans-76" d="M 191 3500 
L 800 3500 
L 1894 563 
L 2988 3500 
L 3597 3500 
L 2284 0 
L 1503 0 
L 191 3500 
z
" transform="scale(0.015625)"/>
      <path id="DejaVuSans-2e" d="M 684 794 
L 1344 794 
L 1344 0 
L 684 0 
L 684 794 
z
" transform="scale(0.015625)"/>
      <path id="DejaVuSans-36" d="M 2113 2584 
Q 1688 2584 1439 2293 
Q 1191 2003 1191 1497 
Q 1191 994 1439 701 
Q 1688 409 2113 409 
Q 2538 409 2786 701 
Q 3034 994 3034 1497 
Q 3034 2003 2786 2293 
Q 2538 2584 2113 2584 
z
M 3366 4563 
L 3366 3988 
Q 3128 4100 2886 4159 
Q 2644 4219 2406 4219 
Q 1781 4219 1451 3797 
Q 1122 3375 1075 2522 
Q 1259 2794 1537 2939 
Q 1816 3084 2150 3084 
Q 2853 3084 3261 2657 
Q 3669 2231 3669 1497 
Q 3669 778 3244 343 
Q 2819 -91 2113 -91 
Q 1303 -91 875 529 
Q 447 1150 447 2328 
Q 447 3434 972 4092 
Q 1497 4750 2381 4750 
Q 2619 4750 2861 4703 
Q 3103 4656 3366 4563 
z
" transform="scale(0.015625)"/>
      <path id="DejaVuSans-33" d="M 2597 2516 
Q 3050 2419 3304 2112 
Q 3559 1806 3559 1356 
Q 3559 666 3084 287 
Q 2609 -91 1734 -91 
Q 1441 -91 1130 -33 
Q 819 25 488 141 
L 488 750 
Q 750 597 1062 519 
Q 1375 441 1716 441 
Q 2309 441 2620 675 
Q 2931 909 2931 1356 
Q 2931 1769 2642 2001 
Q 2353 2234 1838 2234 
L 1294 2234 
L 1294 2753 
L 1863 2753 
Q 2328 2753 2575 2939 
Q 2822 3125 2822 3475 
Q 2822 3834 2567 4026 
Q 2313 4219 1838 4219 
Q 1578 4219 1281 4162 
Q 984 4106 628 3988 
L 628 4550 
Q 988 4650 1302 4700 
Q 1616 4750 1894 4750 
Q 2613 4750 3031 4423 
Q 3450 4097 3450 3541 
Q 3450 3153 3228 2886 
Q 3006 2619 2597 2516 
z
" transform="scale(0.015625)"/>
     </defs>
     <use xlink:href="#DejaVuSans-76"/>
     <use xlink:href="#DejaVuSans-32" x="59.179688"/>
     <use xlink:href="#DejaVuSans-2e" x="122.802734"/>
     <use xlink:href="#DejaVuSans-36" x="154.589844"/>
     <use xlink:href="#DejaVuSans-2e" x="218.212891"/>
     <use xlink:href="#DejaVuSans-33" x="250"/>
    </g>
   </g>
  </g>
 </g>
 <defs>
  <clipPath id="p153721c819">
   <rect x="0" y="3.456" width="460.8" height="290.304"/>
  </clipPath>
 </defs>
</svg>
