<?xml version="1.0" encoding="utf-8" standalone="no"?>
<!DOCTYPE svg PUBLIC "-//W3C//DTD SVG 1.1//EN"
  "http://www.w3.org/Graphics/SVG/1.1/DTD/svg11.dtd">
<svg xmlns:xlink="http://www.w3.org/1999/xlink" width="460.8pt" height="345.6pt" viewBox="0 0 460.8 345.6" xmlns="http://www.w3.org/2000/svg" version="1.1">
 <metadata>
  <rdf:RDF xmlns:dc="http://purl.org/dc/elements/1.1/" xmlns:cc="http://creativecommons.org/ns#" xmlns:rdf="http://www.w3.org/1999/02/22-rdf-syntax-ns#">
   <cc:Work>
    <dc:type rdf:resource="http://purl.org/dc/dcmitype/StillImage"/>
    <dc:date>2024-01-23T11:32:40.633035</dc:date>
    <dc:format>image/svg+xml</dc:format>
    <dc:creator>
     <cc:Agent>
      <dc:title>Matplotlib v3.8.2, https://matplotlib.org/</dc:title>
     </cc:Agent>
    </dc:creator>
   </cc:Work>
  </rdf:RDF>
 </metadata>
 <defs>
  <style type="text/css">*{stroke-linejoin: round; stroke-linecap: butt}</style>
 </defs>
 <g id="figure_1">
  <g id="patch_1">
   <path d="M 0 345.6 
L 460.8 345.6 
L 460.8 0 
L 0 0 
z
" style="fill: #ffffff"/>
  </g>
  <g id="axes_1">
   <g id="patch_2">
    <path d="M 0 293.76 
L 460.8 293.76 
L 460.8 3.456 
L 0 3.456 
z
" style="fill: #ffffff"/>
   </g>
   <g id="matplotlib.axis_1">
    <g id="xtick_1">
     <g id="line2d_1">
      <path d="M 103.103634 293.76 
L 103.103634 3.456 
" clip-path="url(#p12791266de)" style="fill: none; stroke: #b0b0b0; stroke-width: 0.8; stroke-linecap: square"/>
     </g>
     <g id="line2d_2">
      <defs>
       <path id="m6075661d94" d="M 0 0 
L 0 3.5 
" style="stroke: #000000; stroke-width: 0.8"/>
      </defs>
      <g>
       <use xlink:href="#m6075661d94" x="103.103634" y="293.76" style="stroke: #000000; stroke-width: 0.8"/>
      </g>
     </g>
     <g id="text_1">
      <!-- -4 -->
      <g transform="translate(93.133322 315.956875) scale(0.2 -0.2)">
       <defs>
        <path id="DejaVuSans-2d" d="M 313 2009 
L 1997 2009 
L 1997 1497 
L 313 1497 
L 313 2009 
z
" transform="scale(0.015625)"/>
        <path id="DejaVuSans-34" d="M 2419 4116 
L 825 1625 
L 2419 1625 
L 2419 4116 
z
M 2253 4666 
L 3047 4666 
L 3047 1625 
L 3713 1625 
L 3713 1100 
L 3047 1100 
L 3047 0 
L 2419 0 
L 2419 1100 
L 313 1100 
L 313 1709 
L 2253 4666 
z
" transform="scale(0.015625)"/>
       </defs>
       <use xlink:href="#DejaVuSans-2d"/>
       <use xlink:href="#DejaVuSans-34" x="36.083984"/>
      </g>
     </g>
    </g>
    <g id="xtick_2">
     <g id="line2d_3">
      <path d="M 206.318777 293.76 
L 206.318777 3.456 
" clip-path="url(#p12791266de)" style="fill: none; stroke: #b0b0b0; stroke-width: 0.8; stroke-linecap: square"/>
     </g>
     <g id="line2d_4">
      <g>
       <use xlink:href="#m6075661d94" x="206.318777" y="293.76" style="stroke: #000000; stroke-width: 0.8"/>
      </g>
     </g>
     <g id="text_2">
      <!-- 0 -->
      <g transform="translate(199.956277 315.956875) scale(0.2 -0.2)">
       <defs>
        <path id="DejaVuSans-30" d="M 2034 4250 
Q 1547 4250 1301 3770 
Q 1056 3291 1056 2328 
Q 1056 1369 1301 889 
Q 1547 409 2034 409 
Q 2525 409 2770 889 
Q 3016 1369 3016 2328 
Q 3016 3291 2770 3770 
Q 2525 4250 2034 4250 
z
M 2034 4750 
Q 2819 4750 3233 4129 
Q 3647 3509 3647 2328 
Q 3647 1150 3233 529 
Q 2819 -91 2034 -91 
Q 1250 -91 836 529 
Q 422 1150 422 2328 
Q 422 3509 836 4129 
Q 1250 4750 2034 4750 
z
" transform="scale(0.015625)"/>
       </defs>
       <use xlink:href="#DejaVuSans-30"/>
      </g>
     </g>
    </g>
    <g id="xtick_3">
     <g id="line2d_5">
      <path d="M 309.533919 293.76 
L 309.533919 3.456 
" clip-path="url(#p12791266de)" style="fill: none; stroke: #b0b0b0; stroke-width: 0.8; stroke-linecap: square"/>
     </g>
     <g id="line2d_6">
      <g>
       <use xlink:href="#m6075661d94" x="309.533919" y="293.76" style="stroke: #000000; stroke-width: 0.8"/>
      </g>
     </g>
     <g id="text_3">
      <!-- 4 -->
      <g transform="translate(303.171419 315.956875) scale(0.2 -0.2)">
       <use xlink:href="#DejaVuSans-34"/>
      </g>
     </g>
    </g>
    <g id="xtick_4">
     <g id="line2d_7">
      <path d="M 412.749061 293.76 
L 412.749061 3.456 
" clip-path="url(#p12791266de)" style="fill: none; stroke: #b0b0b0; stroke-width: 0.8; stroke-linecap: square"/>
     </g>
     <g id="line2d_8">
      <g>
       <use xlink:href="#m6075661d94" x="412.749061" y="293.76" style="stroke: #000000; stroke-width: 0.8"/>
      </g>
     </g>
     <g id="text_4">
      <!-- 8 -->
      <g transform="translate(406.386561 315.956875) scale(0.2 -0.2)">
       <defs>
        <path id="DejaVuSans-38" d="M 2034 2216 
Q 1584 2216 1326 1975 
Q 1069 1734 1069 1313 
Q 1069 891 1326 650 
Q 1584 409 2034 409 
Q 2484 409 2743 651 
Q 3003 894 3003 1313 
Q 3003 1734 2745 1975 
Q 2488 2216 2034 2216 
z
M 1403 2484 
Q 997 2584 770 2862 
Q 544 3141 544 3541 
Q 544 4100 942 4425 
Q 1341 4750 2034 4750 
Q 2731 4750 3128 4425 
Q 3525 4100 3525 3541 
Q 3525 3141 3298 2862 
Q 3072 2584 2669 2484 
Q 3125 2378 3379 2068 
Q 3634 1759 3634 1313 
Q 3634 634 3220 271 
Q 2806 -91 2034 -91 
Q 1263 -91 848 271 
Q 434 634 434 1313 
Q 434 1759 690 2068 
Q 947 2378 1403 2484 
z
M 1172 3481 
Q 1172 3119 1398 2916 
Q 1625 2713 2034 2713 
Q 2441 2713 2670 2916 
Q 2900 3119 2900 3481 
Q 2900 3844 2670 4047 
Q 2441 4250 2034 4250 
Q 1625 4250 1398 4047 
Q 1172 3844 1172 3481 
z
" transform="scale(0.015625)"/>
       </defs>
       <use xlink:href="#DejaVuSans-38"/>
      </g>
     </g>
    </g>
    <g id="text_5">
     <!-- log10 of Df -->
     <g transform="translate(175.214063 339.313125) scale(0.2 -0.2)">
      <defs>
       <path id="DejaVuSans-6c" d="M 603 4863 
L 1178 4863 
L 1178 0 
L 603 0 
L 603 4863 
z
" transform="scale(0.015625)"/>
       <path id="DejaVuSans-6f" d="M 1959 3097 
Q 1497 3097 1228 2736 
Q 959 2375 959 1747 
Q 959 1119 1226 758 
Q 1494 397 1959 397 
Q 2419 397 2687 759 
Q 2956 1122 2956 1747 
Q 2956 2369 2687 2733 
Q 2419 3097 1959 3097 
z
M 1959 3584 
Q 2709 3584 3137 3096 
Q 3566 2609 3566 1747 
Q 3566 888 3137 398 
Q 2709 -91 1959 -91 
Q 1206 -91 779 398 
Q 353 888 353 1747 
Q 353 2609 779 3096 
Q 1206 3584 1959 3584 
z
" transform="scale(0.015625)"/>
       <path id="DejaVuSans-67" d="M 2906 1791 
Q 2906 2416 2648 2759 
Q 2391 3103 1925 3103 
Q 1463 3103 1205 2759 
Q 947 2416 947 1791 
Q 947 1169 1205 825 
Q 1463 481 1925 481 
Q 2391 481 2648 825 
Q 2906 1169 2906 1791 
z
M 3481 434 
Q 3481 -459 3084 -895 
Q 2688 -1331 1869 -1331 
Q 1566 -1331 1297 -1286 
Q 1028 -1241 775 -1147 
L 775 -588 
Q 1028 -725 1275 -790 
Q 1522 -856 1778 -856 
Q 2344 -856 2625 -561 
Q 2906 -266 2906 331 
L 2906 616 
Q 2728 306 2450 153 
Q 2172 0 1784 0 
Q 1141 0 747 490 
Q 353 981 353 1791 
Q 353 2603 747 3093 
Q 1141 3584 1784 3584 
Q 2172 3584 2450 3431 
Q 2728 3278 2906 2969 
L 2906 3500 
L 3481 3500 
L 3481 434 
z
" transform="scale(0.015625)"/>
       <path id="DejaVuSans-31" d="M 794 531 
L 1825 531 
L 1825 4091 
L 703 3866 
L 703 4441 
L 1819 4666 
L 2450 4666 
L 2450 531 
L 3481 531 
L 3481 0 
L 794 0 
L 794 531 
z
" transform="scale(0.015625)"/>
       <path id="DejaVuSans-20" transform="scale(0.015625)"/>
       <path id="DejaVuSans-66" d="M 2375 4863 
L 2375 4384 
L 1825 4384 
Q 1516 4384 1395 4259 
Q 1275 4134 1275 3809 
L 1275 3500 
L 2222 3500 
L 2222 3053 
L 1275 3053 
L 1275 0 
L 697 0 
L 697 3053 
L 147 3053 
L 147 3500 
L 697 3500 
L 697 3744 
Q 697 4328 969 4595 
Q 1241 4863 1831 4863 
L 2375 4863 
z
" transform="scale(0.015625)"/>
       <path id="DejaVuSans-44" d="M 1259 4147 
L 1259 519 
L 2022 519 
Q 2988 519 3436 956 
Q 3884 1394 3884 2338 
Q 3884 3275 3436 3711 
Q 2988 4147 2022 4147 
L 1259 4147 
z
M 628 4666 
L 1925 4666 
Q 3281 4666 3915 4102 
Q 4550 3538 4550 2338 
Q 4550 1131 3912 565 
Q 3275 0 1925 0 
L 628 0 
L 628 4666 
z
" transform="scale(0.015625)"/>
      </defs>
      <use xlink:href="#DejaVuSans-6c"/>
      <use xlink:href="#DejaVuSans-6f" x="27.783203"/>
      <use xlink:href="#DejaVuSans-67" x="88.964844"/>
      <use xlink:href="#DejaVuSans-31" x="152.441406"/>
      <use xlink:href="#DejaVuSans-30" x="216.064453"/>
      <use xlink:href="#DejaVuSans-20" x="279.6875"/>
      <use xlink:href="#DejaVuSans-6f" x="311.474609"/>
      <use xlink:href="#DejaVuSans-66" x="372.65625"/>
      <use xlink:href="#DejaVuSans-20" x="407.861328"/>
      <use xlink:href="#DejaVuSans-44" x="439.648438"/>
      <use xlink:href="#DejaVuSans-66" x="516.650391"/>
     </g>
    </g>
   </g>
   <g id="matplotlib.axis_2">
    <g id="ytick_1">
     <g id="line2d_9">
      <path d="M 0 293.76 
L 460.8 293.76 
" clip-path="url(#p12791266de)" style="fill: none; stroke: #b0b0b0; stroke-width: 0.8; stroke-linecap: square"/>
     </g>
     <g id="line2d_10">
      <defs>
       <path id="mec57823aec" d="M 0 0 
L -3.5 0 
" style="stroke: #000000; stroke-width: 0.8"/>
      </defs>
      <g>
       <use xlink:href="#mec57823aec" x="0" y="293.76" style="stroke: #000000; stroke-width: 0.8"/>
      </g>
     </g>
    </g>
    <g id="ytick_2">
     <g id="line2d_11">
      <path d="M 0 236.274059 
L 460.8 236.274059 
" clip-path="url(#p12791266de)" style="fill: none; stroke: #b0b0b0; stroke-width: 0.8; stroke-linecap: square"/>
     </g>
     <g id="line2d_12">
      <g>
       <use xlink:href="#mec57823aec" x="0" y="236.274059" style="stroke: #000000; stroke-width: 0.8"/>
      </g>
     </g>
    </g>
    <g id="ytick_3">
     <g id="line2d_13">
      <path d="M 0 178.788119 
L 460.8 178.788119 
" clip-path="url(#p12791266de)" style="fill: none; stroke: #b0b0b0; stroke-width: 0.8; stroke-linecap: square"/>
     </g>
     <g id="line2d_14">
      <g>
       <use xlink:href="#mec57823aec" x="0" y="178.788119" style="stroke: #000000; stroke-width: 0.8"/>
      </g>
     </g>
    </g>
    <g id="ytick_4">
     <g id="line2d_15">
      <path d="M 0 121.302178 
L 460.8 121.302178 
" clip-path="url(#p12791266de)" style="fill: none; stroke: #b0b0b0; stroke-width: 0.8; stroke-linecap: square"/>
     </g>
     <g id="line2d_16">
      <g>
       <use xlink:href="#mec57823aec" x="0" y="121.302178" style="stroke: #000000; stroke-width: 0.8"/>
      </g>
     </g>
    </g>
    <g id="ytick_5">
     <g id="line2d_17">
      <path d="M 0 63.816238 
L 460.8 63.816238 
" clip-path="url(#p12791266de)" style="fill: none; stroke: #b0b0b0; stroke-width: 0.8; stroke-linecap: square"/>
     </g>
     <g id="line2d_18">
      <g>
       <use xlink:href="#mec57823aec" x="0" y="63.816238" style="stroke: #000000; stroke-width: 0.8"/>
      </g>
     </g>
    </g>
    <g id="ytick_6">
     <g id="line2d_19">
      <path d="M 0 6.330297 
L 460.8 6.330297 
" clip-path="url(#p12791266de)" style="fill: none; stroke: #b0b0b0; stroke-width: 0.8; stroke-linecap: square"/>
     </g>
     <g id="line2d_20">
      <g>
       <use xlink:href="#mec57823aec" x="0" y="6.330297" style="stroke: #000000; stroke-width: 0.8"/>
      </g>
     </g>
    </g>
   </g>
   <g id="line2d_21">
    <path d="M -1 263.100832 
L -0.111508 263.100832 
L -0.111508 232.441663 
L 216.081798 232.441663 
L 216.081798 228.609267 
L 231.200325 228.609267 
L 231.200325 224.776871 
L 240.752735 224.776871 
L 240.752735 220.944475 
L 241.432185 220.944475 
L 241.432185 217.112079 
L 241.768821 217.112079 
L 241.768821 213.279683 
L 242.497388 213.279683 
L 242.497388 209.447287 
L 246.91979 209.447287 
L 246.91979 205.614891 
L 255.170678 205.614891 
L 255.170678 201.782495 
L 255.9858 201.782495 
L 255.9858 197.950099 
L 257.735126 197.950099 
L 257.735126 194.117703 
L 258.213156 194.117703 
L 258.213156 190.285307 
L 258.369105 190.285307 
L 258.369105 186.452911 
L 260.189818 186.452911 
L 260.189818 182.620515 
L 269.042585 182.620515 
L 269.042585 178.788119 
L 269.9165 178.788119 
L 269.9165 174.955723 
L 270.032006 174.955723 
L 270.032006 171.123327 
L 270.32951 171.123327 
L 270.32951 167.290931 
L 270.456823 167.290931 
L 270.456823 163.458535 
L 272.947469 163.458535 
L 272.947469 159.626139 
L 273.708855 159.626139 
L 273.708855 155.793743 
L 273.886401 155.793743 
L 273.886401 151.961347 
L 274.03132 151.961347 
L 274.110631 144.296554 
L 274.215439 144.296554 
L 274.303563 136.631762 
L 274.649907 136.631762 
L 274.649907 132.799366 
L 274.877664 132.799366 
L 274.971677 125.134574 
L 275.259634 125.134574 
L 275.259634 121.302178 
L 276.061935 121.302178 
L 276.105427 113.637386 
L 276.280298 113.637386 
L 276.280298 109.80499 
L 276.579677 109.80499 
L 276.621228 102.140198 
L 276.95367 102.140198 
L 277.034475 94.475406 
L 278.078733 94.475406 
L 278.078733 90.64301 
L 278.229912 90.64301 
L 278.297944 82.978218 
L 279.029015 82.978218 
L 279.029015 79.145822 
L 279.657923 79.145822 
L 279.657923 75.313426 
L 280.207797 75.313426 
L 280.214311 67.648634 
L 281.035734 67.648634 
L 281.035734 63.816238 
L 304.627776 63.816238 
L 304.627776 59.983842 
L 306.967726 59.983842 
L 306.967726 56.151446 
L 308.198477 56.151446 
L 308.198477 52.31905 
L 308.743866 52.31905 
L 308.806123 44.654257 
L 310.547297 44.654257 
L 310.547297 40.821861 
L 310.926777 40.821861 
L 310.926777 36.989465 
L 312.521898 36.989465 
L 312.521898 33.157069 
L 313.841 33.157069 
L 313.841 29.324673 
L 314.746435 29.324673 
L 314.822961 21.659881 
L 315.481156 21.659881 
L 315.481156 17.827485 
L 316.963265 17.827485 
L 316.963265 13.995089 
L 317.666214 13.995089 
L 317.666214 10.162693 
L 320.720622 10.162693 
L 320.720622 6.330297 
L 320.720622 6.330297 
L 460.8 6.330297 
L 460.8 6.330297 
" clip-path="url(#p12791266de)" style="fill: none; stroke: #ff0000; stroke-width: 3; stroke-linecap: square"/>
   </g>
   <g id="line2d_22">
    <path d="M 253.699117 293.76 
L 253.699117 289.927604 
L 254.129393 289.927604 
L 254.129393 286.095208 
L 256.199187 286.095208 
L 256.199187 282.262812 
L 256.670363 282.262812 
L 256.670363 278.430416 
L 257.735126 278.430416 
L 257.735126 274.59802 
L 258.816636 274.59802 
L 258.892533 263.100832 
L 259.406036 263.100832 
L 259.514004 255.43604 
L 259.673944 255.43604 
L 259.673944 251.603644 
L 260.203611 251.603644 
L 260.203611 247.771248 
L 261.828768 247.771248 
L 261.828768 243.938851 
L 262.158963 243.938851 
L 262.237181 236.274059 
L 273.434919 236.274059 
L 273.437438 178.788119 
L 274.232919 178.788119 
L 274.232919 174.955723 
L 274.852353 174.955723 
L 274.852353 171.123327 
L 275.006046 171.123327 
L 275.006046 167.290931 
L 275.706827 167.290931 
L 275.706827 163.458535 
L 277.288873 163.458535 
L 277.288873 159.626139 
L 278.077847 159.626139 
L 278.077847 155.793743 
L 278.202245 155.793743 
L 278.304239 148.12895 
L 278.495973 148.12895 
L 278.565555 140.464158 
L 278.628345 140.464158 
L 278.662166 132.799366 
L 278.806281 132.799366 
L 278.806281 128.96697 
L 279.178683 128.96697 
L 279.178683 125.134574 
L 279.532864 125.134574 
L 279.532864 121.302178 
L 279.658759 121.302178 
L 279.658759 117.469782 
L 279.820313 117.469782 
L 279.820313 113.637386 
L 279.940087 113.637386 
L 279.950805 105.972594 
L 280.169896 105.972594 
L 280.265101 98.307802 
L 280.313405 98.307802 
L 280.313405 94.475406 
L 280.839372 94.475406 
L 280.839372 90.64301 
L 281.068039 90.64301 
L 281.068039 86.810614 
L 282.069193 86.810614 
L 282.069193 82.978218 
L 282.520226 82.978218 
L 282.520226 79.145822 
L 282.643269 79.145822 
L 282.645148 71.48103 
L 283.029549 71.48103 
L 283.029549 67.648634 
L 283.558858 67.648634 
L 283.558858 63.816238 
L 374.337008 63.816238 
L 374.337008 59.983842 
L 380.875976 59.983842 
L 380.875976 56.151446 
L 381.24186 56.151446 
L 381.24186 52.31905 
L 382.677606 52.31905 
L 382.677606 48.486653 
L 383.276096 48.486653 
L 383.276096 44.654257 
L 385.042523 44.654257 
L 385.042523 40.821861 
L 385.713528 40.821861 
L 385.713528 36.989465 
L 386.782808 36.989465 
L 386.782808 33.157069 
L 388.022947 33.157069 
L 388.022947 29.324673 
L 388.421849 29.324673 
L 388.421849 25.492277 
L 388.905104 25.492277 
L 388.905104 21.659881 
L 390.053471 21.659881 
L 390.053471 17.827485 
L 391.852787 17.827485 
L 391.852787 13.995089 
L 392.587867 13.995089 
L 392.587867 10.162693 
L 394.73013 10.162693 
L 394.73013 6.330297 
L 394.73013 6.330297 
L 460.8 6.330297 
L 460.8 6.330297 
" clip-path="url(#p12791266de)" style="fill: none; stroke: #00bfbf; stroke-width: 1.5; stroke-linecap: square"/>
   </g>
   <g id="line2d_23">
    <path d="M 253.65933 293.76 
L 253.65933 289.927604 
L 254.129393 289.927604 
L 254.129393 286.095208 
L 256.146643 286.095208 
L 256.146643 282.262812 
L 256.627137 282.262812 
L 256.627137 278.430416 
L 257.735126 278.430416 
L 257.735126 274.59802 
L 258.816636 274.59802 
L 258.879069 263.100832 
L 259.406036 263.100832 
L 259.513459 255.43604 
L 259.673944 255.43604 
L 259.673944 251.603644 
L 260.189818 251.603644 
L 260.189818 247.771248 
L 261.817307 247.771248 
L 261.817307 243.938851 
L 262.158963 243.938851 
L 262.237181 236.274059 
L 273.413374 236.274059 
L 273.427904 178.788119 
L 273.970262 178.788119 
L 273.970262 174.955723 
L 274.541596 174.955723 
L 274.541596 171.123327 
L 274.762056 171.123327 
L 274.762056 167.290931 
L 275.483554 167.290931 
L 275.483554 163.458535 
L 277.034475 163.458535 
L 277.034475 159.626139 
L 277.867301 159.626139 
L 277.867301 155.793743 
L 278.032564 155.793743 
L 278.032564 151.961347 
L 278.177688 151.961347 
L 278.177688 148.12895 
L 278.315835 148.12895 
L 278.389594 136.631762 
L 278.512272 136.631762 
L 278.512272 132.799366 
L 278.694271 132.799366 
L 278.694271 128.96697 
L 278.996228 128.96697 
L 278.996228 125.134574 
L 279.365255 125.134574 
L 279.446305 117.469782 
L 279.521019 117.469782 
L 279.521019 113.637386 
L 279.788751 113.637386 
L 279.885884 105.972594 
L 280.051979 105.972594 
L 280.096955 98.307802 
L 280.196836 98.307802 
L 280.196836 94.475406 
L 280.71865 94.475406 
L 280.71865 90.64301 
L 280.920315 90.64301 
L 280.920315 86.810614 
L 281.947244 86.810614 
L 281.947244 82.978218 
L 282.379022 82.978218 
L 282.379022 79.145822 
L 282.516023 79.145822 
L 282.516023 75.313426 
L 282.631467 75.313426 
L 282.631467 71.48103 
L 282.976331 71.48103 
L 282.976331 67.648634 
L 283.546582 67.648634 
L 283.546582 63.816238 
L 373.738373 63.816238 
L 373.738373 59.983842 
L 380.859941 59.983842 
L 380.891079 52.31905 
L 382.090881 52.31905 
L 382.090881 48.486653 
L 382.718341 48.486653 
L 382.718341 44.654257 
L 384.804503 44.654257 
L 384.804503 40.821861 
L 385.482139 40.821861 
L 385.482139 36.989465 
L 386.594766 36.989465 
L 386.594766 33.157069 
L 387.740393 33.157069 
L 387.740393 29.324673 
L 388.092544 29.324673 
L 388.092544 25.492277 
L 388.302147 25.492277 
L 388.302147 21.659881 
L 390.04756 21.659881 
L 390.04756 17.827485 
L 391.754994 17.827485 
L 391.754994 13.995089 
L 392.118546 13.995089 
L 392.118546 10.162693 
L 394.679286 10.162693 
L 394.679286 6.330297 
L 394.679286 6.330297 
L 460.8 6.330297 
L 460.8 6.330297 
" clip-path="url(#p12791266de)" style="fill: none; stroke: #bf00bf; stroke-width: 1.5; stroke-linecap: square"/>
   </g>
   <g id="line2d_24">
    <path d="M -0.111508 293.76 
L -0.111508 263.100832 
L 196.005114 263.100832 
L 196.005114 259.268436 
L 213.022318 259.268436 
L 213.022318 255.43604 
L 213.457577 255.43604 
L 213.457577 251.603644 
L 214.379306 251.603644 
L 214.379306 247.771248 
L 215.360565 247.771248 
L 215.360565 243.938851 
L 219.497334 243.938851 
L 219.497334 240.106455 
L 220.401719 240.106455 
L 220.401719 236.274059 
L 220.760707 236.274059 
L 220.760707 232.441663 
L 221.351896 232.441663 
L 221.351896 228.609267 
L 231.200325 228.609267 
L 231.200325 224.776871 
L 240.752735 224.776871 
L 240.752735 220.944475 
L 241.477188 220.944475 
L 241.477188 217.112079 
L 241.771515 217.112079 
L 241.771515 213.279683 
L 242.502615 213.279683 
L 242.502615 209.447287 
L 246.91979 209.447287 
L 246.91979 205.614891 
L 255.170678 205.614891 
L 255.170678 201.782495 
L 255.9858 201.782495 
L 255.9858 197.950099 
L 257.735126 197.950099 
L 257.735126 194.117703 
L 258.369105 194.117703 
L 258.369105 190.285307 
L 258.879069 190.285307 
L 258.879069 186.452911 
L 260.189818 186.452911 
L 260.189818 182.620515 
L 271.704704 182.620515 
L 271.704704 178.788119 
L 271.816516 178.788119 
L 271.816516 174.955723 
L 272.630604 174.955723 
L 272.666298 167.290931 
L 273.182479 167.290931 
L 273.182479 163.458535 
L 275.116961 163.458535 
L 275.116961 159.626139 
L 275.412576 159.626139 
L 275.412576 155.793743 
L 275.739265 155.793743 
L 275.739265 151.961347 
L 276.027568 151.961347 
L 276.034081 144.296554 
L 276.423333 144.296554 
L 276.453311 136.631762 
L 276.717058 136.631762 
L 276.717058 132.799366 
L 277.003962 132.799366 
L 277.034475 125.134574 
L 277.214272 125.134574 
L 277.214272 121.302178 
L 277.701863 121.302178 
L 277.701863 117.469782 
L 277.857475 117.469782 
L 277.944276 109.80499 
L 278.029611 109.80499 
L 278.029611 105.972594 
L 278.534416 105.972594 
L 278.534416 102.140198 
L 278.87185 102.140198 
L 278.895968 94.475406 
L 279.692752 94.475406 
L 279.781518 82.978218 
L 280.035733 82.978218 
L 280.091609 75.313426 
L 280.928744 75.313426 
L 280.928744 71.48103 
L 281.654643 71.48103 
L 281.654643 67.648634 
L 282.653602 67.648634 
L 282.653602 63.816238 
L 355.268796 63.816238 
L 355.268796 59.983842 
L 355.485717 59.983842 
L 355.485717 56.151446 
L 355.763674 56.151446 
L 355.763674 52.31905 
L 356.269255 52.31905 
L 356.269255 48.486653 
L 358.557817 48.486653 
L 358.557817 44.654257 
L 359.012501 44.654257 
L 359.012501 40.821861 
L 361.139581 40.821861 
L 361.139581 36.989465 
L 362.050923 36.989465 
L 362.050923 33.157069 
L 362.171997 33.157069 
L 362.171997 29.324673 
L 365.282011 29.324673 
L 365.282011 25.492277 
L 366.326571 25.492277 
L 366.326571 21.659881 
L 366.693413 21.659881 
L 366.693413 17.827485 
L 370.061585 17.827485 
L 370.061585 13.995089 
L 370.526421 13.995089 
L 370.526421 10.162693 
L 370.904974 10.162693 
L 370.904974 6.330297 
L 370.904974 6.330297 
L 460.8 6.330297 
L 460.8 6.330297 
" clip-path="url(#p12791266de)" style="fill: none; stroke: #000000; stroke-width: 1.5; stroke-linecap: square"/>
   </g>
   <g id="line2d_25">
    <path d="M -0.111508 293.76 
L -0.111508 263.100832 
L 53.595652 263.100832 
L 53.595652 259.268436 
L 72.113436 259.268436 
L 72.113436 255.43604 
L 74.285485 255.43604 
L 74.285485 251.603644 
L 76.035943 251.603644 
L 76.035943 247.771248 
L 83.2025 247.771248 
L 83.2025 243.938851 
L 89.867931 243.938851 
L 89.867931 240.106455 
L 90.421508 240.106455 
L 90.421508 236.274059 
L 127.850023 236.274059 
L 127.850023 232.441663 
L 216.082877 232.441663 
L 216.082877 228.609267 
L 231.200325 228.609267 
L 231.200325 224.776871 
L 240.752735 224.776871 
L 240.752735 220.944475 
L 241.475982 220.944475 
L 241.475982 217.112079 
L 241.768821 217.112079 
L 241.768821 213.279683 
L 242.502429 213.279683 
L 242.502429 209.447287 
L 246.91979 209.447287 
L 246.91979 205.614891 
L 255.170678 205.614891 
L 255.170678 201.782495 
L 255.9858 201.782495 
L 255.9858 197.950099 
L 257.735126 197.950099 
L 257.735126 194.117703 
L 258.369105 194.117703 
L 258.369105 190.285307 
L 258.879069 190.285307 
L 258.879069 186.452911 
L 260.189818 186.452911 
L 260.189818 182.620515 
L 269.601521 182.620515 
L 269.601521 178.788119 
L 270.009329 178.788119 
L 270.009329 174.955723 
L 270.76699 174.955723 
L 270.76699 171.123327 
L 270.909507 171.123327 
L 270.909507 167.290931 
L 271.736218 167.290931 
L 271.736218 163.458535 
L 273.742342 163.458535 
L 273.742342 159.626139 
L 273.93512 159.626139 
L 274.011978 151.961347 
L 274.201406 151.961347 
L 274.244647 144.296554 
L 274.427863 144.296554 
L 274.427863 140.464158 
L 274.929151 140.464158 
L 274.929151 136.631762 
L 275.384351 136.631762 
L 275.384351 132.799366 
L 275.687797 132.799366 
L 275.763817 125.134574 
L 276.252889 125.134574 
L 276.252889 121.302178 
L 276.392165 121.302178 
L 276.392165 117.469782 
L 276.540439 117.469782 
L 276.540439 113.637386 
L 276.975109 113.637386 
L 277.034475 105.972594 
L 277.217851 105.972594 
L 277.299547 98.307802 
L 277.980905 98.307802 
L 277.980905 94.475406 
L 278.527455 94.475406 
L 278.527455 90.64301 
L 278.643033 90.64301 
L 278.643033 86.810614 
L 278.99079 86.810614 
L 278.99079 82.978218 
L 279.318886 82.978218 
L 279.318886 79.145822 
L 279.657923 79.145822 
L 279.657923 75.313426 
L 280.306267 75.313426 
L 280.306267 71.48103 
L 281.290556 71.48103 
L 281.290556 67.648634 
L 281.84469 67.648634 
L 281.84469 63.816238 
L 329.967491 63.816238 
L 329.967491 59.983842 
L 331.95134 59.983842 
L 331.95134 56.151446 
L 334.543065 56.151446 
L 334.543065 52.31905 
L 334.886531 52.31905 
L 334.886531 48.486653 
L 336.276241 48.486653 
L 336.381309 40.821861 
L 337.312711 40.821861 
L 337.312711 36.989465 
L 339.331367 36.989465 
L 339.331367 33.157069 
L 339.592114 33.157069 
L 339.592114 29.324673 
L 340.363091 29.324673 
L 340.363091 25.492277 
L 343.880877 25.492277 
L 343.880877 21.659881 
L 344.558834 21.659881 
L 344.558834 17.827485 
L 345.119865 17.827485 
L 345.119865 13.995089 
L 346.992202 13.995089 
L 346.992202 10.162693 
L 349.60935 10.162693 
L 349.60935 6.330297 
L 349.60935 6.330297 
L 460.8 6.330297 
L 460.8 6.330297 
" clip-path="url(#p12791266de)" style="fill: none; stroke: #00bfbf; stroke-width: 1.5; stroke-linecap: square"/>
   </g>
   <g id="patch_3">
    <path d="M 0 293.76 
L 0 3.456 
" style="fill: none; stroke: #000000; stroke-width: 0.8; stroke-linejoin: miter; stroke-linecap: square"/>
   </g>
   <g id="patch_4">
    <path d="M 460.8 293.76 
L 460.8 3.456 
" style="fill: none; stroke: #000000; stroke-width: 0.8; stroke-linejoin: miter; stroke-linecap: square"/>
   </g>
   <g id="patch_5">
    <path d="M 0 293.76 
L 460.8 293.76 
" style="fill: none; stroke: #000000; stroke-width: 0.8; stroke-linejoin: miter; stroke-linecap: square"/>
   </g>
   <g id="patch_6">
    <path d="M 0 3.456 
L 460.8 3.456 
" style="fill: none; stroke: #000000; stroke-width: 0.8; stroke-linejoin: miter; stroke-linecap: square"/>
   </g>
   <g id="text_6">
    <!-- {f1-f5}, 20-D -->
    <g transform="translate(318.609 287.95392) scale(0.2 -0.2)">
     <defs>
      <path id="DejaVuSans-7b" d="M 3272 -594 
L 3272 -1044 
L 3078 -1044 
Q 2300 -1044 2036 -812 
Q 1772 -581 1772 109 
L 1772 856 
Q 1772 1328 1603 1509 
Q 1434 1691 991 1691 
L 800 1691 
L 800 2138 
L 991 2138 
Q 1438 2138 1605 2317 
Q 1772 2497 1772 2963 
L 1772 3713 
Q 1772 4403 2036 4633 
Q 2300 4863 3078 4863 
L 3272 4863 
L 3272 4416 
L 3059 4416 
Q 2619 4416 2484 4278 
Q 2350 4141 2350 3700 
L 2350 2925 
Q 2350 2434 2208 2212 
Q 2066 1991 1722 1913 
Q 2069 1828 2209 1606 
Q 2350 1384 2350 897 
L 2350 122 
Q 2350 -319 2484 -456 
Q 2619 -594 3059 -594 
L 3272 -594 
z
" transform="scale(0.015625)"/>
      <path id="DejaVuSans-35" d="M 691 4666 
L 3169 4666 
L 3169 4134 
L 1269 4134 
L 1269 2991 
Q 1406 3038 1543 3061 
Q 1681 3084 1819 3084 
Q 2600 3084 3056 2656 
Q 3513 2228 3513 1497 
Q 3513 744 3044 326 
Q 2575 -91 1722 -91 
Q 1428 -91 1123 -41 
Q 819 9 494 109 
L 494 744 
Q 775 591 1075 516 
Q 1375 441 1709 441 
Q 2250 441 2565 725 
Q 2881 1009 2881 1497 
Q 2881 1984 2565 2268 
Q 2250 2553 1709 2553 
Q 1456 2553 1204 2497 
Q 953 2441 691 2322 
L 691 4666 
z
" transform="scale(0.015625)"/>
      <path id="DejaVuSans-7d" d="M 800 -594 
L 1019 -594 
Q 1456 -594 1589 -459 
Q 1722 -325 1722 122 
L 1722 897 
Q 1722 1384 1862 1606 
Q 2003 1828 2350 1913 
Q 2003 1991 1862 2212 
Q 1722 2434 1722 2925 
L 1722 3700 
Q 1722 4144 1589 4280 
Q 1456 4416 1019 4416 
L 800 4416 
L 800 4863 
L 997 4863 
Q 1775 4863 2036 4633 
Q 2297 4403 2297 3713 
L 2297 2963 
Q 2297 2497 2465 2317 
Q 2634 2138 3078 2138 
L 3272 2138 
L 3272 1691 
L 3078 1691 
Q 2634 1691 2465 1509 
Q 2297 1328 2297 856 
L 2297 109 
Q 2297 -581 2036 -812 
Q 1775 -1044 997 -1044 
L 800 -1044 
L 800 -594 
z
" transform="scale(0.015625)"/>
      <path id="DejaVuSans-2c" d="M 750 794 
L 1409 794 
L 1409 256 
L 897 -744 
L 494 -744 
L 750 256 
L 750 794 
z
" transform="scale(0.015625)"/>
      <path id="DejaVuSans-32" d="M 1228 531 
L 3431 531 
L 3431 0 
L 469 0 
L 469 531 
Q 828 903 1448 1529 
Q 2069 2156 2228 2338 
Q 2531 2678 2651 2914 
Q 2772 3150 2772 3378 
Q 2772 3750 2511 3984 
Q 2250 4219 1831 4219 
Q 1534 4219 1204 4116 
Q 875 4013 500 3803 
L 500 4441 
Q 881 4594 1212 4672 
Q 1544 4750 1819 4750 
Q 2544 4750 2975 4387 
Q 3406 4025 3406 3419 
Q 3406 3131 3298 2873 
Q 3191 2616 2906 2266 
Q 2828 2175 2409 1742 
Q 1991 1309 1228 531 
z
" transform="scale(0.015625)"/>
     </defs>
     <use xlink:href="#DejaVuSans-7b"/>
     <use xlink:href="#DejaVuSans-66" x="63.623047"/>
     <use xlink:href="#DejaVuSans-31" x="98.828125"/>
     <use xlink:href="#DejaVuSans-2d" x="162.451172"/>
     <use xlink:href="#DejaVuSans-66" x="198.535156"/>
     <use xlink:href="#DejaVuSans-35" x="233.740234"/>
     <use xlink:href="#DejaVuSans-7d" x="297.363281"/>
     <use xlink:href="#DejaVuSans-2c" x="360.986328"/>
     <use xlink:href="#DejaVuSans-20" x="392.773438"/>
     <use xlink:href="#DejaVuSans-32" x="424.560547"/>
     <use xlink:href="#DejaVuSans-30" x="488.183594"/>
     <use xlink:href="#DejaVuSans-2d" x="551.806641"/>
     <use xlink:href="#DejaVuSans-44" x="587.890625"/>
    </g>
   </g>
   <g id="text_7">
    <!-- v2.6.3 -->
    <g style="fill: #808080" transform="translate(214.71875 288.777272) scale(0.1 -0.1)">
     <defs>
      <path id="DejaVuSans-76" d="M 191 3500 
L 800 3500 
L 1894 563 
L 2988 3500 
L 3597 3500 
L 2284 0 
L 1503 0 
L 191 3500 
z
" transform="scale(0.015625)"/>
      <path id="DejaVuSans-2e" d="M 684 794 
L 1344 794 
L 1344 0 
L 684 0 
L 684 794 
z
" transform="scale(0.015625)"/>
      <path id="DejaVuSans-36" d="M 2113 2584 
Q 1688 2584 1439 2293 
Q 1191 2003 1191 1497 
Q 1191 994 1439 701 
Q 1688 409 2113 409 
Q 2538 409 2786 701 
Q 3034 994 3034 1497 
Q 3034 2003 2786 2293 
Q 2538 2584 2113 2584 
z
M 3366 4563 
L 3366 3988 
Q 3128 4100 2886 4159 
Q 2644 4219 2406 4219 
Q 1781 4219 1451 3797 
Q 1122 3375 1075 2522 
Q 1259 2794 1537 2939 
Q 1816 3084 2150 3084 
Q 2853 3084 3261 2657 
Q 3669 2231 3669 1497 
Q 3669 778 3244 343 
Q 2819 -91 2113 -91 
Q 1303 -91 875 529 
Q 447 1150 447 2328 
Q 447 3434 972 4092 
Q 1497 4750 2381 4750 
Q 2619 4750 2861 4703 
Q 3103 4656 3366 4563 
z
" transform="scale(0.015625)"/>
      <path id="DejaVuSans-33" d="M 2597 2516 
Q 3050 2419 3304 2112 
Q 3559 1806 3559 1356 
Q 3559 666 3084 287 
Q 2609 -91 1734 -91 
Q 1441 -91 1130 -33 
Q 819 25 488 141 
L 488 750 
Q 750 597 1062 519 
Q 1375 441 1716 441 
Q 2309 441 2620 675 
Q 2931 909 2931 1356 
Q 2931 1769 2642 2001 
Q 2353 2234 1838 2234 
L 1294 2234 
L 1294 2753 
L 1863 2753 
Q 2328 2753 2575 2939 
Q 2822 3125 2822 3475 
Q 2822 3834 2567 4026 
Q 2313 4219 1838 4219 
Q 1578 4219 1281 4162 
Q 984 4106 628 3988 
L 628 4550 
Q 988 4650 1302 4700 
Q 1616 4750 1894 4750 
Q 2613 4750 3031 4423 
Q 3450 4097 3450 3541 
Q 3450 3153 3228 2886 
Q 3006 2619 2597 2516 
z
" transform="scale(0.015625)"/>
     </defs>
     <use xlink:href="#DejaVuSans-76"/>
     <use xlink:href="#DejaVuSans-32" x="59.179688"/>
     <use xlink:href="#DejaVuSans-2e" x="122.802734"/>
     <use xlink:href="#DejaVuSans-36" x="154.589844"/>
     <use xlink:href="#DejaVuSans-2e" x="218.212891"/>
     <use xlink:href="#DejaVuSans-33" x="250"/>
    </g>
   </g>
  </g>
 </g>
 <defs>
  <clipPath id="p12791266de">
   <rect x="0" y="3.456" width="460.8" height="290.304"/>
  </clipPath>
 </defs>
</svg>
