<?xml version="1.0" encoding="utf-8" standalone="no"?>
<!DOCTYPE svg PUBLIC "-//W3C//DTD SVG 1.1//EN"
  "http://www.w3.org/Graphics/SVG/1.1/DTD/svg11.dtd">
<svg xmlns:xlink="http://www.w3.org/1999/xlink" width="460.8pt" height="345.6pt" viewBox="0 0 460.8 345.6" xmlns="http://www.w3.org/2000/svg" version="1.1">
 <metadata>
  <rdf:RDF xmlns:dc="http://purl.org/dc/elements/1.1/" xmlns:cc="http://creativecommons.org/ns#" xmlns:rdf="http://www.w3.org/1999/02/22-rdf-syntax-ns#">
   <cc:Work>
    <dc:type rdf:resource="http://purl.org/dc/dcmitype/StillImage"/>
    <dc:date>2024-01-23T11:32:39.225484</dc:date>
    <dc:format>image/svg+xml</dc:format>
    <dc:creator>
     <cc:Agent>
      <dc:title>Matplotlib v3.8.2, https://matplotlib.org/</dc:title>
     </cc:Agent>
    </dc:creator>
   </cc:Work>
  </rdf:RDF>
 </metadata>
 <defs>
  <style type="text/css">*{stroke-linejoin: round; stroke-linecap: butt}</style>
 </defs>
 <g id="figure_1">
  <g id="patch_1">
   <path d="M 0 345.6 
L 460.8 345.6 
L 460.8 0 
L 0 0 
z
" style="fill: #ffffff"/>
  </g>
  <g id="axes_1">
   <g id="patch_2">
    <path d="M 0 293.76 
L 460.8 293.76 
L 460.8 3.456 
L 0 3.456 
z
" style="fill: #ffffff"/>
   </g>
   <g id="matplotlib.axis_1">
    <g id="xtick_1">
     <g id="line2d_1">
      <path d="M 103.103634 293.76 
L 103.103634 3.456 
" clip-path="url(#p799bd7c002)" style="fill: none; stroke: #b0b0b0; stroke-width: 0.8; stroke-linecap: square"/>
     </g>
     <g id="line2d_2">
      <defs>
       <path id="ma9c61d9b16" d="M 0 0 
L 0 3.5 
" style="stroke: #000000; stroke-width: 0.8"/>
      </defs>
      <g>
       <use xlink:href="#ma9c61d9b16" x="103.103634" y="293.76" style="stroke: #000000; stroke-width: 0.8"/>
      </g>
     </g>
     <g id="text_1">
      <!-- -4 -->
      <g transform="translate(93.133322 315.956875) scale(0.2 -0.2)">
       <defs>
        <path id="DejaVuSans-2d" d="M 313 2009 
L 1997 2009 
L 1997 1497 
L 313 1497 
L 313 2009 
z
" transform="scale(0.015625)"/>
        <path id="DejaVuSans-34" d="M 2419 4116 
L 825 1625 
L 2419 1625 
L 2419 4116 
z
M 2253 4666 
L 3047 4666 
L 3047 1625 
L 3713 1625 
L 3713 1100 
L 3047 1100 
L 3047 0 
L 2419 0 
L 2419 1100 
L 313 1100 
L 313 1709 
L 2253 4666 
z
" transform="scale(0.015625)"/>
       </defs>
       <use xlink:href="#DejaVuSans-2d"/>
       <use xlink:href="#DejaVuSans-34" x="36.083984"/>
      </g>
     </g>
    </g>
    <g id="xtick_2">
     <g id="line2d_3">
      <path d="M 206.318777 293.76 
L 206.318777 3.456 
" clip-path="url(#p799bd7c002)" style="fill: none; stroke: #b0b0b0; stroke-width: 0.8; stroke-linecap: square"/>
     </g>
     <g id="line2d_4">
      <g>
       <use xlink:href="#ma9c61d9b16" x="206.318777" y="293.76" style="stroke: #000000; stroke-width: 0.8"/>
      </g>
     </g>
     <g id="text_2">
      <!-- 0 -->
      <g transform="translate(199.956277 315.956875) scale(0.2 -0.2)">
       <defs>
        <path id="DejaVuSans-30" d="M 2034 4250 
Q 1547 4250 1301 3770 
Q 1056 3291 1056 2328 
Q 1056 1369 1301 889 
Q 1547 409 2034 409 
Q 2525 409 2770 889 
Q 3016 1369 3016 2328 
Q 3016 3291 2770 3770 
Q 2525 4250 2034 4250 
z
M 2034 4750 
Q 2819 4750 3233 4129 
Q 3647 3509 3647 2328 
Q 3647 1150 3233 529 
Q 2819 -91 2034 -91 
Q 1250 -91 836 529 
Q 422 1150 422 2328 
Q 422 3509 836 4129 
Q 1250 4750 2034 4750 
z
" transform="scale(0.015625)"/>
       </defs>
       <use xlink:href="#DejaVuSans-30"/>
      </g>
     </g>
    </g>
    <g id="xtick_3">
     <g id="line2d_5">
      <path d="M 309.533919 293.76 
L 309.533919 3.456 
" clip-path="url(#p799bd7c002)" style="fill: none; stroke: #b0b0b0; stroke-width: 0.8; stroke-linecap: square"/>
     </g>
     <g id="line2d_6">
      <g>
       <use xlink:href="#ma9c61d9b16" x="309.533919" y="293.76" style="stroke: #000000; stroke-width: 0.8"/>
      </g>
     </g>
     <g id="text_3">
      <!-- 4 -->
      <g transform="translate(303.171419 315.956875) scale(0.2 -0.2)">
       <use xlink:href="#DejaVuSans-34"/>
      </g>
     </g>
    </g>
    <g id="xtick_4">
     <g id="line2d_7">
      <path d="M 412.749061 293.76 
L 412.749061 3.456 
" clip-path="url(#p799bd7c002)" style="fill: none; stroke: #b0b0b0; stroke-width: 0.8; stroke-linecap: square"/>
     </g>
     <g id="line2d_8">
      <g>
       <use xlink:href="#ma9c61d9b16" x="412.749061" y="293.76" style="stroke: #000000; stroke-width: 0.8"/>
      </g>
     </g>
     <g id="text_4">
      <!-- 8 -->
      <g transform="translate(406.386561 315.956875) scale(0.2 -0.2)">
       <defs>
        <path id="DejaVuSans-38" d="M 2034 2216 
Q 1584 2216 1326 1975 
Q 1069 1734 1069 1313 
Q 1069 891 1326 650 
Q 1584 409 2034 409 
Q 2484 409 2743 651 
Q 3003 894 3003 1313 
Q 3003 1734 2745 1975 
Q 2488 2216 2034 2216 
z
M 1403 2484 
Q 997 2584 770 2862 
Q 544 3141 544 3541 
Q 544 4100 942 4425 
Q 1341 4750 2034 4750 
Q 2731 4750 3128 4425 
Q 3525 4100 3525 3541 
Q 3525 3141 3298 2862 
Q 3072 2584 2669 2484 
Q 3125 2378 3379 2068 
Q 3634 1759 3634 1313 
Q 3634 634 3220 271 
Q 2806 -91 2034 -91 
Q 1263 -91 848 271 
Q 434 634 434 1313 
Q 434 1759 690 2068 
Q 947 2378 1403 2484 
z
M 1172 3481 
Q 1172 3119 1398 2916 
Q 1625 2713 2034 2713 
Q 2441 2713 2670 2916 
Q 2900 3119 2900 3481 
Q 2900 3844 2670 4047 
Q 2441 4250 2034 4250 
Q 1625 4250 1398 4047 
Q 1172 3844 1172 3481 
z
" transform="scale(0.015625)"/>
       </defs>
       <use xlink:href="#DejaVuSans-38"/>
      </g>
     </g>
    </g>
    <g id="text_5">
     <!-- log10 of Df -->
     <g transform="translate(175.214063 339.313125) scale(0.2 -0.2)">
      <defs>
       <path id="DejaVuSans-6c" d="M 603 4863 
L 1178 4863 
L 1178 0 
L 603 0 
L 603 4863 
z
" transform="scale(0.015625)"/>
       <path id="DejaVuSans-6f" d="M 1959 3097 
Q 1497 3097 1228 2736 
Q 959 2375 959 1747 
Q 959 1119 1226 758 
Q 1494 397 1959 397 
Q 2419 397 2687 759 
Q 2956 1122 2956 1747 
Q 2956 2369 2687 2733 
Q 2419 3097 1959 3097 
z
M 1959 3584 
Q 2709 3584 3137 3096 
Q 3566 2609 3566 1747 
Q 3566 888 3137 398 
Q 2709 -91 1959 -91 
Q 1206 -91 779 398 
Q 353 888 353 1747 
Q 353 2609 779 3096 
Q 1206 3584 1959 3584 
z
" transform="scale(0.015625)"/>
       <path id="DejaVuSans-67" d="M 2906 1791 
Q 2906 2416 2648 2759 
Q 2391 3103 1925 3103 
Q 1463 3103 1205 2759 
Q 947 2416 947 1791 
Q 947 1169 1205 825 
Q 1463 481 1925 481 
Q 2391 481 2648 825 
Q 2906 1169 2906 1791 
z
M 3481 434 
Q 3481 -459 3084 -895 
Q 2688 -1331 1869 -1331 
Q 1566 -1331 1297 -1286 
Q 1028 -1241 775 -1147 
L 775 -588 
Q 1028 -725 1275 -790 
Q 1522 -856 1778 -856 
Q 2344 -856 2625 -561 
Q 2906 -266 2906 331 
L 2906 616 
Q 2728 306 2450 153 
Q 2172 0 1784 0 
Q 1141 0 747 490 
Q 353 981 353 1791 
Q 353 2603 747 3093 
Q 1141 3584 1784 3584 
Q 2172 3584 2450 3431 
Q 2728 3278 2906 2969 
L 2906 3500 
L 3481 3500 
L 3481 434 
z
" transform="scale(0.015625)"/>
       <path id="DejaVuSans-31" d="M 794 531 
L 1825 531 
L 1825 4091 
L 703 3866 
L 703 4441 
L 1819 4666 
L 2450 4666 
L 2450 531 
L 3481 531 
L 3481 0 
L 794 0 
L 794 531 
z
" transform="scale(0.015625)"/>
       <path id="DejaVuSans-20" transform="scale(0.015625)"/>
       <path id="DejaVuSans-66" d="M 2375 4863 
L 2375 4384 
L 1825 4384 
Q 1516 4384 1395 4259 
Q 1275 4134 1275 3809 
L 1275 3500 
L 2222 3500 
L 2222 3053 
L 1275 3053 
L 1275 0 
L 697 0 
L 697 3053 
L 147 3053 
L 147 3500 
L 697 3500 
L 697 3744 
Q 697 4328 969 4595 
Q 1241 4863 1831 4863 
L 2375 4863 
z
" transform="scale(0.015625)"/>
       <path id="DejaVuSans-44" d="M 1259 4147 
L 1259 519 
L 2022 519 
Q 2988 519 3436 956 
Q 3884 1394 3884 2338 
Q 3884 3275 3436 3711 
Q 2988 4147 2022 4147 
L 1259 4147 
z
M 628 4666 
L 1925 4666 
Q 3281 4666 3915 4102 
Q 4550 3538 4550 2338 
Q 4550 1131 3912 565 
Q 3275 0 1925 0 
L 628 0 
L 628 4666 
z
" transform="scale(0.015625)"/>
      </defs>
      <use xlink:href="#DejaVuSans-6c"/>
      <use xlink:href="#DejaVuSans-6f" x="27.783203"/>
      <use xlink:href="#DejaVuSans-67" x="88.964844"/>
      <use xlink:href="#DejaVuSans-31" x="152.441406"/>
      <use xlink:href="#DejaVuSans-30" x="216.064453"/>
      <use xlink:href="#DejaVuSans-20" x="279.6875"/>
      <use xlink:href="#DejaVuSans-6f" x="311.474609"/>
      <use xlink:href="#DejaVuSans-66" x="372.65625"/>
      <use xlink:href="#DejaVuSans-20" x="407.861328"/>
      <use xlink:href="#DejaVuSans-44" x="439.648438"/>
      <use xlink:href="#DejaVuSans-66" x="516.650391"/>
     </g>
    </g>
   </g>
   <g id="matplotlib.axis_2">
    <g id="ytick_1">
     <g id="line2d_9">
      <path d="M 0 293.76 
L 460.8 293.76 
" clip-path="url(#p799bd7c002)" style="fill: none; stroke: #b0b0b0; stroke-width: 0.8; stroke-linecap: square"/>
     </g>
     <g id="line2d_10">
      <defs>
       <path id="m9c966d2d19" d="M 0 0 
L -3.5 0 
" style="stroke: #000000; stroke-width: 0.8"/>
      </defs>
      <g>
       <use xlink:href="#m9c966d2d19" x="0" y="293.76" style="stroke: #000000; stroke-width: 0.8"/>
      </g>
     </g>
    </g>
    <g id="ytick_2">
     <g id="line2d_11">
      <path d="M 0 236.274059 
L 460.8 236.274059 
" clip-path="url(#p799bd7c002)" style="fill: none; stroke: #b0b0b0; stroke-width: 0.8; stroke-linecap: square"/>
     </g>
     <g id="line2d_12">
      <g>
       <use xlink:href="#m9c966d2d19" x="0" y="236.274059" style="stroke: #000000; stroke-width: 0.8"/>
      </g>
     </g>
    </g>
    <g id="ytick_3">
     <g id="line2d_13">
      <path d="M 0 178.788119 
L 460.8 178.788119 
" clip-path="url(#p799bd7c002)" style="fill: none; stroke: #b0b0b0; stroke-width: 0.8; stroke-linecap: square"/>
     </g>
     <g id="line2d_14">
      <g>
       <use xlink:href="#m9c966d2d19" x="0" y="178.788119" style="stroke: #000000; stroke-width: 0.8"/>
      </g>
     </g>
    </g>
    <g id="ytick_4">
     <g id="line2d_15">
      <path d="M 0 121.302178 
L 460.8 121.302178 
" clip-path="url(#p799bd7c002)" style="fill: none; stroke: #b0b0b0; stroke-width: 0.8; stroke-linecap: square"/>
     </g>
     <g id="line2d_16">
      <g>
       <use xlink:href="#m9c966d2d19" x="0" y="121.302178" style="stroke: #000000; stroke-width: 0.8"/>
      </g>
     </g>
    </g>
    <g id="ytick_5">
     <g id="line2d_17">
      <path d="M 0 63.816238 
L 460.8 63.816238 
" clip-path="url(#p799bd7c002)" style="fill: none; stroke: #b0b0b0; stroke-width: 0.8; stroke-linecap: square"/>
     </g>
     <g id="line2d_18">
      <g>
       <use xlink:href="#m9c966d2d19" x="0" y="63.816238" style="stroke: #000000; stroke-width: 0.8"/>
      </g>
     </g>
    </g>
    <g id="ytick_6">
     <g id="line2d_19">
      <path d="M 0 6.330297 
L 460.8 6.330297 
" clip-path="url(#p799bd7c002)" style="fill: none; stroke: #b0b0b0; stroke-width: 0.8; stroke-linecap: square"/>
     </g>
     <g id="line2d_20">
      <g>
       <use xlink:href="#m9c966d2d19" x="0" y="6.330297" style="stroke: #000000; stroke-width: 0.8"/>
      </g>
     </g>
    </g>
   </g>
   <g id="line2d_21">
    <path d="M 40.838201 293.76 
L 40.838201 289.927604 
L 202.190591 289.927604 
L 202.190591 286.095208 
L 212.276843 286.095208 
L 212.276843 282.262812 
L 212.764374 282.262812 
L 212.764374 278.430416 
L 213.148368 278.430416 
L 213.148368 274.59802 
L 213.903877 274.59802 
L 213.921219 266.933228 
L 215.457798 266.933228 
L 215.457798 263.100832 
L 216.985845 263.100832 
L 216.985845 259.268436 
L 218.584329 259.268436 
L 218.584329 255.43604 
L 218.706734 255.43604 
L 218.706734 251.603644 
L 219.188054 251.603644 
L 219.188054 247.771248 
L 219.346234 247.771248 
L 219.445121 236.274059 
L 219.754448 236.274059 
L 219.831572 228.609267 
L 219.913181 228.609267 
L 219.930555 220.944475 
L 221.992225 220.944475 
L 221.992225 217.112079 
L 223.13406 217.112079 
L 223.13406 213.279683 
L 223.358536 213.279683 
L 223.358536 209.447287 
L 223.694116 209.447287 
L 223.694116 205.614891 
L 224.247601 205.614891 
L 224.247601 201.782495 
L 224.494587 201.782495 
L 224.494587 190.285307 
L 225.841396 190.285307 
L 225.841396 186.452911 
L 226.060482 186.452911 
L 226.060482 182.620515 
L 226.454776 182.620515 
L 226.475555 174.955723 
L 226.730638 174.955723 
L 226.730638 171.123327 
L 226.935109 171.123327 
L 226.935109 167.290931 
L 227.350806 167.290931 
L 227.350806 163.458535 
L 228.143302 163.458535 
L 228.143302 159.626139 
L 229.037603 159.626139 
L 229.037603 155.793743 
L 230.180711 155.793743 
L 230.180711 151.961347 
L 230.616862 151.961347 
L 230.633754 144.296554 
L 231.110636 144.296554 
L 231.110636 140.464158 
L 231.965774 140.464158 
L 231.965774 136.631762 
L 233.164632 136.631762 
L 233.164632 132.799366 
L 233.317901 132.799366 
L 233.317901 128.96697 
L 240.486227 128.96697 
L 240.486227 125.134574 
L 243.637984 125.134574 
L 243.656474 117.469782 
L 246.783334 117.469782 
L 246.783334 113.637386 
L 247.342589 113.637386 
L 247.342589 109.80499 
L 252.538 109.80499 
L 252.538 105.972594 
L 253.445849 105.972594 
L 253.445849 102.140198 
L 254.8084 102.140198 
L 254.8084 98.307802 
L 254.998083 98.307802 
L 255.092551 86.810614 
L 255.575268 86.810614 
L 255.575268 82.978218 
L 255.809176 82.978218 
L 255.91439 75.313426 
L 260.101155 75.313426 
L 260.172213 67.648634 
L 260.232457 67.648634 
L 260.276248 56.151446 
L 260.358209 56.151446 
L 260.417454 25.492277 
L 260.542631 25.492277 
L 260.542631 21.659881 
L 261.171792 21.659881 
L 261.171792 17.827485 
L 262.073454 17.827485 
L 262.073454 13.995089 
L 276.958668 13.995089 
L 276.958668 10.162693 
L 281.342657 10.162693 
L 281.342657 6.330297 
L 281.342657 6.330297 
L 460.8 6.330297 
L 460.8 6.330297 
" clip-path="url(#p799bd7c002)" style="fill: none; stroke: #ff0000; stroke-width: 3; stroke-linecap: square"/>
   </g>
   <g id="line2d_22">
    <path d="M 223.614619 293.76 
L 223.614619 289.927604 
L 225.841396 289.927604 
L 225.841396 286.095208 
L 226.646986 286.095208 
L 226.646986 282.262812 
L 229.572438 282.262812 
L 229.572438 278.430416 
L 230.771618 278.430416 
L 230.834593 270.765624 
L 231.344785 270.765624 
L 231.344785 266.933228 
L 233.351838 266.933228 
L 233.351838 263.100832 
L 233.752046 263.100832 
L 233.752046 259.268436 
L 234.041268 259.268436 
L 234.041268 255.43604 
L 234.757562 255.43604 
L 234.757562 251.603644 
L 234.969043 251.603644 
L 234.969043 247.771248 
L 235.370344 247.771248 
L 235.370344 243.938851 
L 235.581358 243.938851 
L 235.581358 240.106455 
L 236.60277 240.106455 
L 236.60277 236.274059 
L 253.787816 236.274059 
L 253.787816 232.441663 
L 254.763695 232.441663 
L 254.763695 228.609267 
L 254.894304 228.609267 
L 255.003746 213.279683 
L 255.046184 213.279683 
L 255.082679 201.782495 
L 255.163584 201.782495 
L 255.242889 190.285307 
L 255.326468 190.285307 
L 255.42754 174.955723 
L 255.482177 174.955723 
L 255.583089 155.793743 
L 255.614155 155.793743 
L 255.685497 136.631762 
L 255.803802 136.631762 
L 255.9144 121.302178 
L 267.981072 121.302178 
L 267.981072 117.469782 
L 268.647915 117.469782 
L 268.647915 113.637386 
L 268.923065 113.637386 
L 269.028825 105.972594 
L 269.079447 105.972594 
L 269.15176 98.307802 
L 269.328448 98.307802 
L 269.328448 94.475406 
L 269.544907 94.475406 
L 269.569672 82.978218 
L 270.197725 82.978218 
L 270.197725 79.145822 
L 270.430961 79.145822 
L 270.430961 75.313426 
L 270.788602 75.313426 
L 270.788602 71.48103 
L 270.937268 71.48103 
L 270.937268 67.648634 
L 271.367756 67.648634 
L 271.367756 63.816238 
L 316.318077 63.816238 
L 316.318142 6.330297 
L 316.318142 6.330297 
L 460.8 6.330297 
L 460.8 6.330297 
" clip-path="url(#p799bd7c002)" style="fill: none; stroke: #00bfbf; stroke-width: 1.5; stroke-linecap: square"/>
   </g>
   <g id="line2d_23">
    <path d="M 222.436007 293.76 
L 222.436007 289.927604 
L 223.614619 289.927604 
L 223.614619 286.095208 
L 223.827891 286.095208 
L 223.827891 282.262812 
L 225.841396 282.262812 
L 225.841396 278.430416 
L 226.566845 278.430416 
L 226.566845 274.59802 
L 228.192248 274.59802 
L 228.238604 266.933228 
L 229.572438 266.933228 
L 229.572438 263.100832 
L 230.078838 263.100832 
L 230.078838 259.268436 
L 230.232031 259.268436 
L 230.232031 255.43604 
L 230.678596 255.43604 
L 230.678596 251.603644 
L 230.795764 251.603644 
L 230.795764 247.771248 
L 232.952055 247.771248 
L 232.952055 243.938851 
L 234.041268 243.938851 
L 234.041268 240.106455 
L 234.757562 240.106455 
L 234.757562 236.274059 
L 253.73232 236.274059 
L 253.73232 232.441663 
L 254.761499 232.441663 
L 254.761499 228.609267 
L 254.884778 228.609267 
L 254.991512 217.112079 
L 254.998083 217.112079 
L 255.082679 201.782495 
L 255.149603 201.782495 
L 255.242889 190.285307 
L 255.318506 190.285307 
L 255.42754 174.955723 
L 255.471205 174.955723 
L 255.581307 155.793743 
L 255.610867 155.793743 
L 255.685497 136.631762 
L 255.803802 136.631762 
L 255.91439 121.302178 
L 267.572809 121.302178 
L 267.572809 117.469782 
L 267.85093 117.469782 
L 267.85093 113.637386 
L 267.981072 113.637386 
L 267.981072 109.80499 
L 268.178992 109.80499 
L 268.178992 105.972594 
L 268.588244 105.972594 
L 268.647915 98.307802 
L 268.923065 98.307802 
L 269.028825 90.64301 
L 269.15176 90.64301 
L 269.15176 86.810614 
L 269.27154 86.810614 
L 269.370092 79.145822 
L 269.411838 79.145822 
L 269.411838 75.313426 
L 269.544907 75.313426 
L 269.544907 71.48103 
L 270.258101 71.48103 
L 270.258101 67.648634 
L 270.495274 67.648634 
L 270.495274 63.816238 
L 315.711788 63.816238 
L 315.754028 21.659881 
L 315.831494 21.659881 
L 315.831494 10.162693 
L 316.021512 10.162693 
L 316.021512 6.330297 
L 316.021512 6.330297 
L 460.8 6.330297 
L 460.8 6.330297 
" clip-path="url(#p799bd7c002)" style="fill: none; stroke: #bf00bf; stroke-width: 1.5; stroke-linecap: square"/>
   </g>
   <g id="line2d_24">
    <path d="M 213.411698 293.76 
L 213.411698 289.927604 
L 213.65666 289.927604 
L 213.65666 286.095208 
L 219.247996 286.095208 
L 219.247996 282.262812 
L 219.832325 282.262812 
L 219.832325 278.430416 
L 221.321392 278.430416 
L 221.370225 270.765624 
L 223.827891 270.765624 
L 223.827891 266.933228 
L 225.841396 266.933228 
L 225.841396 263.100832 
L 226.163466 263.100832 
L 226.163466 259.268436 
L 226.566845 259.268436 
L 226.566845 255.43604 
L 228.238604 255.43604 
L 228.238604 251.603644 
L 229.197329 251.603644 
L 229.237977 243.938851 
L 229.572438 243.938851 
L 229.572438 240.106455 
L 230.078838 240.106455 
L 230.078838 236.274059 
L 230.232031 236.274059 
L 230.232031 232.441663 
L 231.110636 232.441663 
L 231.110636 228.609267 
L 231.965774 228.609267 
L 231.965774 224.776871 
L 232.952055 224.776871 
L 232.952055 220.944475 
L 234.551729 220.944475 
L 234.551729 217.112079 
L 234.757562 217.112079 
L 234.757562 213.279683 
L 235.409761 213.279683 
L 235.409761 209.447287 
L 238.069243 209.447287 
L 238.069243 205.614891 
L 239.489254 205.614891 
L 239.489254 201.782495 
L 241.826749 201.782495 
L 241.850421 194.117703 
L 242.475736 194.117703 
L 242.538763 186.452911 
L 243.637984 186.452911 
L 243.638896 178.788119 
L 243.782535 178.788119 
L 243.80883 171.123327 
L 244.227675 171.123327 
L 244.227675 167.290931 
L 246.407642 167.290931 
L 246.407642 163.458535 
L 248.501782 163.458535 
L 248.592825 155.793743 
L 250.870286 155.793743 
L 250.870286 151.961347 
L 253.594039 151.961347 
L 253.594039 148.12895 
L 254.998083 148.12895 
L 255.038738 140.464158 
L 255.325209 140.464158 
L 255.325209 136.631762 
L 255.575268 136.631762 
L 255.617642 125.134574 
L 255.809176 125.134574 
L 255.91439 117.469782 
L 264.010944 117.469782 
L 264.010944 113.637386 
L 264.373064 113.637386 
L 264.373064 109.80499 
L 264.865814 109.80499 
L 264.872072 102.140198 
L 265.131286 102.140198 
L 265.131286 98.307802 
L 265.442346 98.307802 
L 265.536239 90.64301 
L 265.622472 90.64301 
L 265.651537 82.978218 
L 265.736947 82.978218 
L 265.807688 75.313426 
L 265.954712 75.313426 
L 265.954712 71.48103 
L 266.100341 71.48103 
L 266.100341 67.648634 
L 266.539289 67.648634 
L 266.539289 63.816238 
L 267.225542 63.816238 
L 267.229992 56.151446 
L 267.475577 56.151446 
L 267.475577 52.31905 
L 269.325995 52.31905 
L 269.384429 44.654257 
L 271.732155 44.654257 
L 271.732155 40.821861 
L 273.679455 40.821861 
L 273.679455 36.989465 
L 274.263549 36.989465 
L 274.263549 33.157069 
L 274.63911 33.157069 
L 274.63911 29.324673 
L 277.097289 29.324673 
L 277.097289 25.492277 
L 278.50926 25.492277 
L 278.50926 21.659881 
L 278.634905 21.659881 
L 278.634905 17.827485 
L 279.157943 17.827485 
L 279.157943 13.995089 
L 280.167771 13.995089 
L 280.167771 10.162693 
L 283.379145 10.162693 
L 283.379145 6.330297 
L 283.379145 6.330297 
L 460.8 6.330297 
L 460.8 6.330297 
" clip-path="url(#p799bd7c002)" style="fill: none; stroke: #000000; stroke-width: 1.5; stroke-linecap: square"/>
   </g>
   <g id="line2d_25">
    <path d="M 186.25602 293.76 
L 186.25602 289.927604 
L 202.194464 289.927604 
L 202.194464 286.095208 
L 212.276843 286.095208 
L 212.276843 282.262812 
L 214.733435 282.262812 
L 214.733435 278.430416 
L 217.486963 278.430416 
L 217.525596 270.765624 
L 219.645084 270.765624 
L 219.645084 266.933228 
L 219.873447 266.933228 
L 219.873447 263.100832 
L 220.021225 263.100832 
L 220.021225 259.268436 
L 220.687932 259.268436 
L 220.76424 247.771248 
L 220.887493 247.771248 
L 220.887493 243.938851 
L 221.032475 243.938851 
L 221.100772 236.274059 
L 221.352995 236.274059 
L 221.352995 232.441663 
L 222.033763 232.441663 
L 222.033763 228.609267 
L 223.827891 228.609267 
L 223.827891 224.776871 
L 224.164822 224.776871 
L 224.247601 217.112079 
L 224.594094 217.112079 
L 224.594094 213.279683 
L 225.801048 213.279683 
L 225.841396 205.614891 
L 226.944789 205.614891 
L 226.944789 201.782495 
L 227.350806 201.782495 
L 227.350806 197.950099 
L 227.704866 197.950099 
L 227.704866 194.117703 
L 228.084362 194.117703 
L 228.084362 190.285307 
L 228.238604 190.285307 
L 228.255078 182.620515 
L 228.596897 182.620515 
L 228.596897 178.788119 
L 229.038312 178.788119 
L 229.038312 174.955723 
L 229.197329 174.955723 
L 229.197329 171.123327 
L 230.232031 171.123327 
L 230.289971 163.458535 
L 230.619823 163.458535 
L 230.619823 159.626139 
L 231.110636 159.626139 
L 231.110636 155.793743 
L 231.965774 155.793743 
L 232.045003 148.12895 
L 233.387197 148.12895 
L 233.387197 144.296554 
L 233.685842 144.296554 
L 233.685842 140.464158 
L 236.352745 140.464158 
L 236.352745 136.631762 
L 237.64591 136.631762 
L 237.64591 132.799366 
L 243.637984 132.799366 
L 243.656474 125.134574 
L 244.465092 125.134574 
L 244.465092 121.302178 
L 245.35176 121.302178 
L 245.35176 117.469782 
L 246.783334 117.469782 
L 246.783334 113.637386 
L 247.342589 113.637386 
L 247.342589 109.80499 
L 252.583992 109.80499 
L 252.583992 105.972594 
L 253.451792 105.972594 
L 253.451792 102.140198 
L 254.998083 102.140198 
L 255.038738 94.475406 
L 255.325209 94.475406 
L 255.325209 90.64301 
L 255.575268 90.64301 
L 255.617642 82.978218 
L 255.809176 82.978218 
L 255.91439 75.313426 
L 261.071366 75.313426 
L 261.071366 71.48103 
L 261.247031 71.48103 
L 261.309027 63.816238 
L 261.396207 63.816238 
L 261.426134 56.151446 
L 261.593939 56.151446 
L 261.593939 52.31905 
L 261.714809 52.31905 
L 261.795775 44.654257 
L 261.857504 44.654257 
L 261.857504 40.821861 
L 262.061735 40.821861 
L 262.087161 33.157069 
L 262.196965 33.157069 
L 262.196965 29.324673 
L 262.468921 29.324673 
L 262.468921 25.492277 
L 263.02773 25.492277 
L 263.02773 21.659881 
L 263.873978 21.659881 
L 263.873978 17.827485 
L 263.988163 17.827485 
L 263.988163 13.995089 
L 276.958966 13.995089 
L 276.958966 10.162693 
L 281.34266 10.162693 
L 281.34266 6.330297 
L 281.34266 6.330297 
L 460.8 6.330297 
L 460.8 6.330297 
" clip-path="url(#p799bd7c002)" style="fill: none; stroke: #00bfbf; stroke-width: 1.5; stroke-linecap: square"/>
   </g>
   <g id="patch_3">
    <path d="M 0 293.76 
L 0 3.456 
" style="fill: none; stroke: #000000; stroke-width: 0.8; stroke-linejoin: miter; stroke-linecap: square"/>
   </g>
   <g id="patch_4">
    <path d="M 460.8 293.76 
L 460.8 3.456 
" style="fill: none; stroke: #000000; stroke-width: 0.8; stroke-linejoin: miter; stroke-linecap: square"/>
   </g>
   <g id="patch_5">
    <path d="M 0 293.76 
L 460.8 293.76 
" style="fill: none; stroke: #000000; stroke-width: 0.8; stroke-linejoin: miter; stroke-linecap: square"/>
   </g>
   <g id="patch_6">
    <path d="M 0 3.456 
L 460.8 3.456 
" style="fill: none; stroke: #000000; stroke-width: 0.8; stroke-linejoin: miter; stroke-linecap: square"/>
   </g>
   <g id="text_6">
    <!-- {f20-f24}, 20-D -->
    <g transform="translate(293.159 287.95392) scale(0.2 -0.2)">
     <defs>
      <path id="DejaVuSans-7b" d="M 3272 -594 
L 3272 -1044 
L 3078 -1044 
Q 2300 -1044 2036 -812 
Q 1772 -581 1772 109 
L 1772 856 
Q 1772 1328 1603 1509 
Q 1434 1691 991 1691 
L 800 1691 
L 800 2138 
L 991 2138 
Q 1438 2138 1605 2317 
Q 1772 2497 1772 2963 
L 1772 3713 
Q 1772 4403 2036 4633 
Q 2300 4863 3078 4863 
L 3272 4863 
L 3272 4416 
L 3059 4416 
Q 2619 4416 2484 4278 
Q 2350 4141 2350 3700 
L 2350 2925 
Q 2350 2434 2208 2212 
Q 2066 1991 1722 1913 
Q 2069 1828 2209 1606 
Q 2350 1384 2350 897 
L 2350 122 
Q 2350 -319 2484 -456 
Q 2619 -594 3059 -594 
L 3272 -594 
z
" transform="scale(0.015625)"/>
      <path id="DejaVuSans-32" d="M 1228 531 
L 3431 531 
L 3431 0 
L 469 0 
L 469 531 
Q 828 903 1448 1529 
Q 2069 2156 2228 2338 
Q 2531 2678 2651 2914 
Q 2772 3150 2772 3378 
Q 2772 3750 2511 3984 
Q 2250 4219 1831 4219 
Q 1534 4219 1204 4116 
Q 875 4013 500 3803 
L 500 4441 
Q 881 4594 1212 4672 
Q 1544 4750 1819 4750 
Q 2544 4750 2975 4387 
Q 3406 4025 3406 3419 
Q 3406 3131 3298 2873 
Q 3191 2616 2906 2266 
Q 2828 2175 2409 1742 
Q 1991 1309 1228 531 
z
" transform="scale(0.015625)"/>
      <path id="DejaVuSans-7d" d="M 800 -594 
L 1019 -594 
Q 1456 -594 1589 -459 
Q 1722 -325 1722 122 
L 1722 897 
Q 1722 1384 1862 1606 
Q 2003 1828 2350 1913 
Q 2003 1991 1862 2212 
Q 1722 2434 1722 2925 
L 1722 3700 
Q 1722 4144 1589 4280 
Q 1456 4416 1019 4416 
L 800 4416 
L 800 4863 
L 997 4863 
Q 1775 4863 2036 4633 
Q 2297 4403 2297 3713 
L 2297 2963 
Q 2297 2497 2465 2317 
Q 2634 2138 3078 2138 
L 3272 2138 
L 3272 1691 
L 3078 1691 
Q 2634 1691 2465 1509 
Q 2297 1328 2297 856 
L 2297 109 
Q 2297 -581 2036 -812 
Q 1775 -1044 997 -1044 
L 800 -1044 
L 800 -594 
z
" transform="scale(0.015625)"/>
      <path id="DejaVuSans-2c" d="M 750 794 
L 1409 794 
L 1409 256 
L 897 -744 
L 494 -744 
L 750 256 
L 750 794 
z
" transform="scale(0.015625)"/>
     </defs>
     <use xlink:href="#DejaVuSans-7b"/>
     <use xlink:href="#DejaVuSans-66" x="63.623047"/>
     <use xlink:href="#DejaVuSans-32" x="98.828125"/>
     <use xlink:href="#DejaVuSans-30" x="162.451172"/>
     <use xlink:href="#DejaVuSans-2d" x="226.074219"/>
     <use xlink:href="#DejaVuSans-66" x="262.158203"/>
     <use xlink:href="#DejaVuSans-32" x="297.363281"/>
     <use xlink:href="#DejaVuSans-34" x="360.986328"/>
     <use xlink:href="#DejaVuSans-7d" x="424.609375"/>
     <use xlink:href="#DejaVuSans-2c" x="488.232422"/>
     <use xlink:href="#DejaVuSans-20" x="520.019531"/>
     <use xlink:href="#DejaVuSans-32" x="551.806641"/>
     <use xlink:href="#DejaVuSans-30" x="615.429688"/>
     <use xlink:href="#DejaVuSans-2d" x="679.052734"/>
     <use xlink:href="#DejaVuSans-44" x="715.136719"/>
    </g>
   </g>
   <g id="text_7">
    <!-- v2.6.3 -->
    <g style="fill: #808080" transform="translate(214.71875 288.777272) scale(0.1 -0.1)">
     <defs>
      <path id="DejaVuSans-76" d="M 191 3500 
L 800 3500 
L 1894 563 
L 2988 3500 
L 3597 3500 
L 2284 0 
L 1503 0 
L 191 3500 
z
" transform="scale(0.015625)"/>
      <path id="DejaVuSans-2e" d="M 684 794 
L 1344 794 
L 1344 0 
L 684 0 
L 684 794 
z
" transform="scale(0.015625)"/>
      <path id="DejaVuSans-36" d="M 2113 2584 
Q 1688 2584 1439 2293 
Q 1191 2003 1191 1497 
Q 1191 994 1439 701 
Q 1688 409 2113 409 
Q 2538 409 2786 701 
Q 3034 994 3034 1497 
Q 3034 2003 2786 2293 
Q 2538 2584 2113 2584 
z
M 3366 4563 
L 3366 3988 
Q 3128 4100 2886 4159 
Q 2644 4219 2406 4219 
Q 1781 4219 1451 3797 
Q 1122 3375 1075 2522 
Q 1259 2794 1537 2939 
Q 1816 3084 2150 3084 
Q 2853 3084 3261 2657 
Q 3669 2231 3669 1497 
Q 3669 778 3244 343 
Q 2819 -91 2113 -91 
Q 1303 -91 875 529 
Q 447 1150 447 2328 
Q 447 3434 972 4092 
Q 1497 4750 2381 4750 
Q 2619 4750 2861 4703 
Q 3103 4656 3366 4563 
z
" transform="scale(0.015625)"/>
      <path id="DejaVuSans-33" d="M 2597 2516 
Q 3050 2419 3304 2112 
Q 3559 1806 3559 1356 
Q 3559 666 3084 287 
Q 2609 -91 1734 -91 
Q 1441 -91 1130 -33 
Q 819 25 488 141 
L 488 750 
Q 750 597 1062 519 
Q 1375 441 1716 441 
Q 2309 441 2620 675 
Q 2931 909 2931 1356 
Q 2931 1769 2642 2001 
Q 2353 2234 1838 2234 
L 1294 2234 
L 1294 2753 
L 1863 2753 
Q 2328 2753 2575 2939 
Q 2822 3125 2822 3475 
Q 2822 3834 2567 4026 
Q 2313 4219 1838 4219 
Q 1578 4219 1281 4162 
Q 984 4106 628 3988 
L 628 4550 
Q 988 4650 1302 4700 
Q 1616 4750 1894 4750 
Q 2613 4750 3031 4423 
Q 3450 4097 3450 3541 
Q 3450 3153 3228 2886 
Q 3006 2619 2597 2516 
z
" transform="scale(0.015625)"/>
     </defs>
     <use xlink:href="#DejaVuSans-76"/>
     <use xlink:href="#DejaVuSans-32" x="59.179688"/>
     <use xlink:href="#DejaVuSans-2e" x="122.802734"/>
     <use xlink:href="#DejaVuSans-36" x="154.589844"/>
     <use xlink:href="#DejaVuSans-2e" x="218.212891"/>
     <use xlink:href="#DejaVuSans-33" x="250"/>
    </g>
   </g>
  </g>
 </g>
 <defs>
  <clipPath id="p799bd7c002">
   <rect x="0" y="3.456" width="460.8" height="290.304"/>
  </clipPath>
 </defs>
</svg>
