<?xml version="1.0" encoding="utf-8" standalone="no"?>
<!DOCTYPE svg PUBLIC "-//W3C//DTD SVG 1.1//EN"
  "http://www.w3.org/Graphics/SVG/1.1/DTD/svg11.dtd">
<svg xmlns:xlink="http://www.w3.org/1999/xlink" width="460.8pt" height="345.6pt" viewBox="0 0 460.8 345.6" xmlns="http://www.w3.org/2000/svg" version="1.1">
 <metadata>
  <rdf:RDF xmlns:dc="http://purl.org/dc/elements/1.1/" xmlns:cc="http://creativecommons.org/ns#" xmlns:rdf="http://www.w3.org/1999/02/22-rdf-syntax-ns#">
   <cc:Work>
    <dc:type rdf:resource="http://purl.org/dc/dcmitype/StillImage"/>
    <dc:date>2024-01-23T11:32:35.768127</dc:date>
    <dc:format>image/svg+xml</dc:format>
    <dc:creator>
     <cc:Agent>
      <dc:title>Matplotlib v3.8.2, https://matplotlib.org/</dc:title>
     </cc:Agent>
    </dc:creator>
   </cc:Work>
  </rdf:RDF>
 </metadata>
 <defs>
  <style type="text/css">*{stroke-linejoin: round; stroke-linecap: butt}</style>
 </defs>
 <g id="figure_1">
  <g id="patch_1">
   <path d="M 0 345.6 
L 460.8 345.6 
L 460.8 0 
L 0 0 
z
" style="fill: #ffffff"/>
  </g>
  <g id="axes_1">
   <g id="patch_2">
    <path d="M 0 293.76 
L 460.8 293.76 
L 460.8 3.456 
L 0 3.456 
z
" style="fill: #ffffff"/>
   </g>
   <g id="matplotlib.axis_1">
    <g id="xtick_1">
     <g id="line2d_1">
      <path d="M 102.674388 293.76 
L 102.674388 3.456 
" clip-path="url(#p1392dcf581)" style="fill: none; stroke: #b0b0b0; stroke-width: 0.8; stroke-linecap: square"/>
     </g>
     <g id="line2d_2">
      <defs>
       <path id="mf8d846c6e8" d="M 0 0 
L 0 3.5 
" style="stroke: #000000; stroke-width: 0.8"/>
      </defs>
      <g>
       <use xlink:href="#mf8d846c6e8" x="102.674388" y="293.76" style="stroke: #000000; stroke-width: 0.8"/>
      </g>
     </g>
     <g id="text_1">
      <!-- -4 -->
      <g transform="translate(92.704075 315.956875) scale(0.2 -0.2)">
       <defs>
        <path id="DejaVuSans-2d" d="M 313 2009 
L 1997 2009 
L 1997 1497 
L 313 1497 
L 313 2009 
z
" transform="scale(0.015625)"/>
        <path id="DejaVuSans-34" d="M 2419 4116 
L 825 1625 
L 2419 1625 
L 2419 4116 
z
M 2253 4666 
L 3047 4666 
L 3047 1625 
L 3713 1625 
L 3713 1100 
L 3047 1100 
L 3047 0 
L 2419 0 
L 2419 1100 
L 313 1100 
L 313 1709 
L 2253 4666 
z
" transform="scale(0.015625)"/>
       </defs>
       <use xlink:href="#DejaVuSans-2d"/>
       <use xlink:href="#DejaVuSans-34" x="36.083984"/>
      </g>
     </g>
    </g>
    <g id="xtick_2">
     <g id="line2d_3">
      <path d="M 205.459819 293.76 
L 205.459819 3.456 
" clip-path="url(#p1392dcf581)" style="fill: none; stroke: #b0b0b0; stroke-width: 0.8; stroke-linecap: square"/>
     </g>
     <g id="line2d_4">
      <g>
       <use xlink:href="#mf8d846c6e8" x="205.459819" y="293.76" style="stroke: #000000; stroke-width: 0.8"/>
      </g>
     </g>
     <g id="text_2">
      <!-- 0 -->
      <g transform="translate(199.097319 315.956875) scale(0.2 -0.2)">
       <defs>
        <path id="DejaVuSans-30" d="M 2034 4250 
Q 1547 4250 1301 3770 
Q 1056 3291 1056 2328 
Q 1056 1369 1301 889 
Q 1547 409 2034 409 
Q 2525 409 2770 889 
Q 3016 1369 3016 2328 
Q 3016 3291 2770 3770 
Q 2525 4250 2034 4250 
z
M 2034 4750 
Q 2819 4750 3233 4129 
Q 3647 3509 3647 2328 
Q 3647 1150 3233 529 
Q 2819 -91 2034 -91 
Q 1250 -91 836 529 
Q 422 1150 422 2328 
Q 422 3509 836 4129 
Q 1250 4750 2034 4750 
z
" transform="scale(0.015625)"/>
       </defs>
       <use xlink:href="#DejaVuSans-30"/>
      </g>
     </g>
    </g>
    <g id="xtick_3">
     <g id="line2d_5">
      <path d="M 308.24525 293.76 
L 308.24525 3.456 
" clip-path="url(#p1392dcf581)" style="fill: none; stroke: #b0b0b0; stroke-width: 0.8; stroke-linecap: square"/>
     </g>
     <g id="line2d_6">
      <g>
       <use xlink:href="#mf8d846c6e8" x="308.24525" y="293.76" style="stroke: #000000; stroke-width: 0.8"/>
      </g>
     </g>
     <g id="text_3">
      <!-- 4 -->
      <g transform="translate(301.88275 315.956875) scale(0.2 -0.2)">
       <use xlink:href="#DejaVuSans-34"/>
      </g>
     </g>
    </g>
    <g id="xtick_4">
     <g id="line2d_7">
      <path d="M 411.030681 293.76 
L 411.030681 3.456 
" clip-path="url(#p1392dcf581)" style="fill: none; stroke: #b0b0b0; stroke-width: 0.8; stroke-linecap: square"/>
     </g>
     <g id="line2d_8">
      <g>
       <use xlink:href="#mf8d846c6e8" x="411.030681" y="293.76" style="stroke: #000000; stroke-width: 0.8"/>
      </g>
     </g>
     <g id="text_4">
      <!-- 8 -->
      <g transform="translate(404.668181 315.956875) scale(0.2 -0.2)">
       <defs>
        <path id="DejaVuSans-38" d="M 2034 2216 
Q 1584 2216 1326 1975 
Q 1069 1734 1069 1313 
Q 1069 891 1326 650 
Q 1584 409 2034 409 
Q 2484 409 2743 651 
Q 3003 894 3003 1313 
Q 3003 1734 2745 1975 
Q 2488 2216 2034 2216 
z
M 1403 2484 
Q 997 2584 770 2862 
Q 544 3141 544 3541 
Q 544 4100 942 4425 
Q 1341 4750 2034 4750 
Q 2731 4750 3128 4425 
Q 3525 4100 3525 3541 
Q 3525 3141 3298 2862 
Q 3072 2584 2669 2484 
Q 3125 2378 3379 2068 
Q 3634 1759 3634 1313 
Q 3634 634 3220 271 
Q 2806 -91 2034 -91 
Q 1263 -91 848 271 
Q 434 634 434 1313 
Q 434 1759 690 2068 
Q 947 2378 1403 2484 
z
M 1172 3481 
Q 1172 3119 1398 2916 
Q 1625 2713 2034 2713 
Q 2441 2713 2670 2916 
Q 2900 3119 2900 3481 
Q 2900 3844 2670 4047 
Q 2441 4250 2034 4250 
Q 1625 4250 1398 4047 
Q 1172 3844 1172 3481 
z
" transform="scale(0.015625)"/>
       </defs>
       <use xlink:href="#DejaVuSans-38"/>
      </g>
     </g>
    </g>
    <g id="text_5">
     <!-- log10 of Df -->
     <g transform="translate(175.214063 339.313125) scale(0.2 -0.2)">
      <defs>
       <path id="DejaVuSans-6c" d="M 603 4863 
L 1178 4863 
L 1178 0 
L 603 0 
L 603 4863 
z
" transform="scale(0.015625)"/>
       <path id="DejaVuSans-6f" d="M 1959 3097 
Q 1497 3097 1228 2736 
Q 959 2375 959 1747 
Q 959 1119 1226 758 
Q 1494 397 1959 397 
Q 2419 397 2687 759 
Q 2956 1122 2956 1747 
Q 2956 2369 2687 2733 
Q 2419 3097 1959 3097 
z
M 1959 3584 
Q 2709 3584 3137 3096 
Q 3566 2609 3566 1747 
Q 3566 888 3137 398 
Q 2709 -91 1959 -91 
Q 1206 -91 779 398 
Q 353 888 353 1747 
Q 353 2609 779 3096 
Q 1206 3584 1959 3584 
z
" transform="scale(0.015625)"/>
       <path id="DejaVuSans-67" d="M 2906 1791 
Q 2906 2416 2648 2759 
Q 2391 3103 1925 3103 
Q 1463 3103 1205 2759 
Q 947 2416 947 1791 
Q 947 1169 1205 825 
Q 1463 481 1925 481 
Q 2391 481 2648 825 
Q 2906 1169 2906 1791 
z
M 3481 434 
Q 3481 -459 3084 -895 
Q 2688 -1331 1869 -1331 
Q 1566 -1331 1297 -1286 
Q 1028 -1241 775 -1147 
L 775 -588 
Q 1028 -725 1275 -790 
Q 1522 -856 1778 -856 
Q 2344 -856 2625 -561 
Q 2906 -266 2906 331 
L 2906 616 
Q 2728 306 2450 153 
Q 2172 0 1784 0 
Q 1141 0 747 490 
Q 353 981 353 1791 
Q 353 2603 747 3093 
Q 1141 3584 1784 3584 
Q 2172 3584 2450 3431 
Q 2728 3278 2906 2969 
L 2906 3500 
L 3481 3500 
L 3481 434 
z
" transform="scale(0.015625)"/>
       <path id="DejaVuSans-31" d="M 794 531 
L 1825 531 
L 1825 4091 
L 703 3866 
L 703 4441 
L 1819 4666 
L 2450 4666 
L 2450 531 
L 3481 531 
L 3481 0 
L 794 0 
L 794 531 
z
" transform="scale(0.015625)"/>
       <path id="DejaVuSans-20" transform="scale(0.015625)"/>
       <path id="DejaVuSans-66" d="M 2375 4863 
L 2375 4384 
L 1825 4384 
Q 1516 4384 1395 4259 
Q 1275 4134 1275 3809 
L 1275 3500 
L 2222 3500 
L 2222 3053 
L 1275 3053 
L 1275 0 
L 697 0 
L 697 3053 
L 147 3053 
L 147 3500 
L 697 3500 
L 697 3744 
Q 697 4328 969 4595 
Q 1241 4863 1831 4863 
L 2375 4863 
z
" transform="scale(0.015625)"/>
       <path id="DejaVuSans-44" d="M 1259 4147 
L 1259 519 
L 2022 519 
Q 2988 519 3436 956 
Q 3884 1394 3884 2338 
Q 3884 3275 3436 3711 
Q 2988 4147 2022 4147 
L 1259 4147 
z
M 628 4666 
L 1925 4666 
Q 3281 4666 3915 4102 
Q 4550 3538 4550 2338 
Q 4550 1131 3912 565 
Q 3275 0 1925 0 
L 628 0 
L 628 4666 
z
" transform="scale(0.015625)"/>
      </defs>
      <use xlink:href="#DejaVuSans-6c"/>
      <use xlink:href="#DejaVuSans-6f" x="27.783203"/>
      <use xlink:href="#DejaVuSans-67" x="88.964844"/>
      <use xlink:href="#DejaVuSans-31" x="152.441406"/>
      <use xlink:href="#DejaVuSans-30" x="216.064453"/>
      <use xlink:href="#DejaVuSans-20" x="279.6875"/>
      <use xlink:href="#DejaVuSans-6f" x="311.474609"/>
      <use xlink:href="#DejaVuSans-66" x="372.65625"/>
      <use xlink:href="#DejaVuSans-20" x="407.861328"/>
      <use xlink:href="#DejaVuSans-44" x="439.648438"/>
      <use xlink:href="#DejaVuSans-66" x="516.650391"/>
     </g>
    </g>
   </g>
   <g id="matplotlib.axis_2">
    <g id="ytick_1">
     <g id="line2d_9">
      <path d="M 0 293.76 
L 460.8 293.76 
" clip-path="url(#p1392dcf581)" style="fill: none; stroke: #b0b0b0; stroke-width: 0.8; stroke-linecap: square"/>
     </g>
     <g id="line2d_10">
      <defs>
       <path id="mb878c7f434" d="M 0 0 
L -3.5 0 
" style="stroke: #000000; stroke-width: 0.8"/>
      </defs>
      <g>
       <use xlink:href="#mb878c7f434" x="0" y="293.76" style="stroke: #000000; stroke-width: 0.8"/>
      </g>
     </g>
    </g>
    <g id="ytick_2">
     <g id="line2d_11">
      <path d="M 0 236.274059 
L 460.8 236.274059 
" clip-path="url(#p1392dcf581)" style="fill: none; stroke: #b0b0b0; stroke-width: 0.8; stroke-linecap: square"/>
     </g>
     <g id="line2d_12">
      <g>
       <use xlink:href="#mb878c7f434" x="0" y="236.274059" style="stroke: #000000; stroke-width: 0.8"/>
      </g>
     </g>
    </g>
    <g id="ytick_3">
     <g id="line2d_13">
      <path d="M 0 178.788119 
L 460.8 178.788119 
" clip-path="url(#p1392dcf581)" style="fill: none; stroke: #b0b0b0; stroke-width: 0.8; stroke-linecap: square"/>
     </g>
     <g id="line2d_14">
      <g>
       <use xlink:href="#mb878c7f434" x="0" y="178.788119" style="stroke: #000000; stroke-width: 0.8"/>
      </g>
     </g>
    </g>
    <g id="ytick_4">
     <g id="line2d_15">
      <path d="M 0 121.302178 
L 460.8 121.302178 
" clip-path="url(#p1392dcf581)" style="fill: none; stroke: #b0b0b0; stroke-width: 0.8; stroke-linecap: square"/>
     </g>
     <g id="line2d_16">
      <g>
       <use xlink:href="#mb878c7f434" x="0" y="121.302178" style="stroke: #000000; stroke-width: 0.8"/>
      </g>
     </g>
    </g>
    <g id="ytick_5">
     <g id="line2d_17">
      <path d="M 0 63.816238 
L 460.8 63.816238 
" clip-path="url(#p1392dcf581)" style="fill: none; stroke: #b0b0b0; stroke-width: 0.8; stroke-linecap: square"/>
     </g>
     <g id="line2d_18">
      <g>
       <use xlink:href="#mb878c7f434" x="0" y="63.816238" style="stroke: #000000; stroke-width: 0.8"/>
      </g>
     </g>
    </g>
    <g id="ytick_6">
     <g id="line2d_19">
      <path d="M 0 6.330297 
L 460.8 6.330297 
" clip-path="url(#p1392dcf581)" style="fill: none; stroke: #b0b0b0; stroke-width: 0.8; stroke-linecap: square"/>
     </g>
     <g id="line2d_20">
      <g>
       <use xlink:href="#mb878c7f434" x="0" y="6.330297" style="stroke: #000000; stroke-width: 0.8"/>
      </g>
     </g>
    </g>
   </g>
   <g id="line2d_21">
    <path d="M 159.106448 293.76 
L 159.106448 266.933228 
L 190.005741 266.933228 
L 190.005741 236.274059 
L 217.133632 236.274059 
L 217.133632 232.441663 
L 219.120014 232.441663 
L 219.120014 228.609267 
L 220.433619 228.609267 
L 220.433619 224.776871 
L 220.614069 224.776871 
L 220.614069 220.944475 
L 224.252782 220.944475 
L 224.252782 217.112079 
L 224.442798 217.112079 
L 224.442798 213.279683 
L 224.825039 213.279683 
L 224.825039 209.447287 
L 225.467522 209.447287 
L 225.467522 205.614891 
L 229.077097 205.614891 
L 229.077097 201.782495 
L 231.162981 201.782495 
L 231.252595 194.117703 
L 232.66177 194.117703 
L 232.66177 190.285307 
L 232.979092 190.285307 
L 232.979092 186.452911 
L 233.134428 186.452911 
L 233.134428 182.620515 
L 234.559322 182.620515 
L 234.559322 178.788119 
L 235.717896 178.788119 
L 235.717896 174.955723 
L 235.857594 174.955723 
L 235.857594 171.123327 
L 236.137405 171.123327 
L 236.137405 167.290931 
L 238.142793 167.290931 
L 238.142793 163.458535 
L 239.262569 163.458535 
L 239.262569 159.626139 
L 239.7283 159.626139 
L 239.7283 155.793743 
L 240.065802 155.793743 
L 240.065802 151.961347 
L 242.339491 151.961347 
L 242.339491 148.12895 
L 242.662569 148.12895 
L 242.662569 144.296554 
L 243.464967 144.296554 
L 243.464967 140.464158 
L 243.712654 140.464158 
L 243.712654 136.631762 
L 244.130662 136.631762 
L 244.130662 132.799366 
L 244.541457 132.799366 
L 244.541457 128.96697 
L 246.877748 128.96697 
L 246.877748 125.134574 
L 247.058148 125.134574 
L 247.058148 121.302178 
L 247.235804 121.302178 
L 247.235804 117.469782 
L 247.898049 117.469782 
L 247.898049 113.637386 
L 248.440336 113.637386 
L 248.440336 109.80499 
L 249.229011 109.80499 
L 249.280222 102.140198 
L 250.249266 102.140198 
L 250.307107 94.475406 
L 250.474777 94.475406 
L 250.553241 86.810614 
L 250.825377 86.810614 
L 250.912634 79.145822 
L 251.11026 79.145822 
L 251.11026 75.313426 
L 251.461592 75.313426 
L 251.461592 71.48103 
L 252.158959 71.48103 
L 252.158959 67.648634 
L 253.056799 67.648634 
L 253.056799 63.816238 
L 254.023233 63.816238 
L 254.023233 59.983842 
L 254.464351 59.983842 
L 254.464351 56.151446 
L 254.875369 56.151446 
L 254.875369 52.31905 
L 255.112965 52.31905 
L 255.112965 48.486653 
L 256.68382 48.486653 
L 256.68382 44.654257 
L 257.48219 44.654257 
L 257.48219 40.821861 
L 260.061886 40.821861 
L 260.14508 33.157069 
L 262.179741 33.157069 
L 262.179741 29.324673 
L 264.066105 29.324673 
L 264.066105 25.492277 
L 264.397185 25.492277 
L 264.397185 21.659881 
L 264.603638 21.659881 
L 264.603638 17.827485 
L 264.807808 17.827485 
L 264.807808 13.995089 
L 265.233843 13.995089 
L 265.233843 10.162693 
L 267.640624 10.162693 
L 267.640624 6.330297 
L 267.640624 6.330297 
L 460.8 6.330297 
L 460.8 6.330297 
" clip-path="url(#p1392dcf581)" style="fill: none; stroke: #ff0000; stroke-width: 3; stroke-linecap: square"/>
   </g>
   <g id="line2d_22">
    <path d="M 190.005741 293.76 
L 190.005741 236.274059 
L 224.899459 236.274059 
L 224.899459 232.441663 
L 226.701793 232.441663 
L 226.701793 228.609267 
L 228.025894 228.609267 
L 228.025894 224.776871 
L 230.537939 224.776871 
L 230.537939 220.944475 
L 231.430518 220.944475 
L 231.430518 217.112079 
L 231.783217 217.112079 
L 231.783217 213.279683 
L 231.968962 213.279683 
L 231.968962 209.447287 
L 233.828451 209.447287 
L 233.828451 205.614891 
L 234.1655 205.614891 
L 234.1655 201.782495 
L 235.22042 201.782495 
L 235.22042 197.950099 
L 236.712059 197.950099 
L 236.712059 194.117703 
L 237.004788 194.117703 
L 237.004788 190.285307 
L 242.033142 190.285307 
L 242.110587 182.620515 
L 243.921411 182.620515 
L 244.0287 174.955723 
L 244.946071 174.955723 
L 244.946071 171.123327 
L 245.333997 171.123327 
L 245.333997 167.290931 
L 247.370199 167.290931 
L 247.370199 163.458535 
L 250.868421 163.458535 
L 250.868421 159.626139 
L 251.62327 159.626139 
L 251.62327 155.793743 
L 252.04156 155.793743 
L 252.04156 151.961347 
L 252.709532 151.961347 
L 252.709532 148.12895 
L 253.530454 148.12895 
L 253.600989 140.464158 
L 253.701106 140.464158 
L 253.701106 136.631762 
L 253.934309 136.631762 
L 254.035646 125.134574 
L 254.305803 125.134574 
L 254.323106 117.469782 
L 255.299252 117.469782 
L 255.299252 113.637386 
L 255.537109 113.637386 
L 255.537109 109.80499 
L 256.227162 109.80499 
L 256.244961 102.140198 
L 256.912069 102.140198 
L 256.912069 98.307802 
L 257.326364 98.307802 
L 257.326364 94.475406 
L 258.131569 94.475406 
L 258.232729 86.810614 
L 258.623511 86.810614 
L 258.623511 82.978218 
L 258.939855 82.978218 
L 258.939855 79.145822 
L 259.520683 79.145822 
L 259.520683 75.313426 
L 260.071197 75.313426 
L 260.071197 71.48103 
L 260.387847 71.48103 
L 260.450982 63.816238 
L 260.77695 63.816238 
L 260.878918 52.31905 
L 261.095705 52.31905 
L 261.095705 48.486653 
L 261.460177 48.486653 
L 261.460177 44.654257 
L 263.682928 44.654257 
L 263.682928 40.821861 
L 263.969054 40.821861 
L 263.969054 36.989465 
L 264.534556 36.989465 
L 264.534556 33.157069 
L 264.87995 33.157069 
L 264.87995 29.324673 
L 265.268315 29.324673 
L 265.268315 25.492277 
L 265.575011 25.492277 
L 265.674529 17.827485 
L 269.864427 17.827485 
L 269.864427 13.995089 
L 271.848223 13.995089 
L 271.848223 10.162693 
L 273.210022 10.162693 
L 273.210022 6.330297 
L 273.210022 6.330297 
L 460.8 6.330297 
L 460.8 6.330297 
" clip-path="url(#p1392dcf581)" style="fill: none; stroke: #00bfbf; stroke-width: 1.5; stroke-linecap: square"/>
   </g>
   <g id="line2d_23">
    <path d="M 190.005741 293.76 
L 190.005741 236.274059 
L 222.464035 236.274059 
L 222.464035 232.441663 
L 224.825039 232.441663 
L 224.825039 228.609267 
L 226.676405 228.609267 
L 226.676405 224.776871 
L 230.087896 224.776871 
L 230.087896 220.944475 
L 230.311168 220.944475 
L 230.311168 217.112079 
L 230.865095 217.112079 
L 230.865095 213.279683 
L 231.442956 213.279683 
L 231.442956 209.447287 
L 232.66177 209.447287 
L 232.66177 205.614891 
L 233.233297 205.614891 
L 233.233297 201.782495 
L 233.609453 201.782495 
L 233.609453 197.950099 
L 235.857594 197.950099 
L 235.857594 194.117703 
L 237.004788 194.117703 
L 237.004788 190.285307 
L 239.567997 190.285307 
L 239.567997 186.452911 
L 239.7283 186.452911 
L 239.7283 182.620515 
L 240.372701 182.620515 
L 240.377604 174.955723 
L 241.840595 174.955723 
L 241.840595 171.123327 
L 242.359376 171.123327 
L 242.359376 167.290931 
L 243.942277 167.290931 
L 243.942277 163.458535 
L 246.341869 163.458535 
L 246.341869 159.626139 
L 248.927864 159.626139 
L 248.927864 155.793743 
L 249.180031 155.793743 
L 249.280222 148.12895 
L 249.712142 148.12895 
L 249.746441 140.464158 
L 250.716808 140.464158 
L 250.716808 136.631762 
L 250.912634 136.631762 
L 250.912634 132.799366 
L 251.08578 132.799366 
L 251.08578 128.96697 
L 251.461592 128.96697 
L 251.552331 121.302178 
L 251.829945 121.302178 
L 251.89399 113.637386 
L 252.725297 113.637386 
L 252.725297 109.80499 
L 253.621541 109.80499 
L 253.621541 105.972594 
L 253.759913 105.972594 
L 253.759913 102.140198 
L 254.072907 102.140198 
L 254.072907 98.307802 
L 254.236752 98.307802 
L 254.236752 94.475406 
L 254.7138 94.475406 
L 254.7138 90.64301 
L 255.368027 90.64301 
L 255.368027 86.810614 
L 255.764631 86.810614 
L 255.764631 82.978218 
L 256.827906 82.978218 
L 256.903434 75.313426 
L 257.002566 75.313426 
L 257.002566 71.48103 
L 257.378302 71.48103 
L 257.378302 67.648634 
L 257.497467 67.648634 
L 257.497467 63.816238 
L 258.470924 63.816238 
L 258.470924 59.983842 
L 259.659063 59.983842 
L 259.675574 52.31905 
L 260.77695 52.31905 
L 260.779523 44.654257 
L 260.908015 44.654257 
L 260.908015 40.821861 
L 263.299262 40.821861 
L 263.299262 36.989465 
L 263.969054 36.989465 
L 264.066105 29.324673 
L 264.397185 29.324673 
L 264.397185 25.492277 
L 265.33151 25.492277 
L 265.400137 17.827485 
L 267.640624 17.827485 
L 267.640624 13.995089 
L 271.103367 13.995089 
L 271.103367 10.162693 
L 271.268123 10.162693 
L 271.268123 6.330297 
L 271.268123 6.330297 
L 460.8 6.330297 
L 460.8 6.330297 
" clip-path="url(#p1392dcf581)" style="fill: none; stroke: #bf00bf; stroke-width: 1.5; stroke-linecap: square"/>
   </g>
   <g id="line2d_24">
    <path d="M 184.957039 293.76 
L 184.957039 289.927604 
L 185.582584 289.927604 
L 185.582584 286.095208 
L 186.006862 286.095208 
L 186.006862 282.262812 
L 186.119957 282.262812 
L 186.119957 278.430416 
L 187.709289 278.430416 
L 187.709289 274.59802 
L 189.013195 274.59802 
L 189.013195 270.765624 
L 190.005741 270.765624 
L 190.005741 236.274059 
L 220.87505 236.274059 
L 220.87505 232.441663 
L 224.825039 232.441663 
L 224.825039 228.609267 
L 225.359168 228.609267 
L 225.359168 224.776871 
L 226.025214 224.776871 
L 226.025214 220.944475 
L 226.591994 220.944475 
L 226.591994 217.112079 
L 228.223259 217.112079 
L 228.223259 213.279683 
L 228.827722 213.279683 
L 228.827722 209.447287 
L 229.172511 209.447287 
L 229.172511 205.614891 
L 231.442956 205.614891 
L 231.442956 201.782495 
L 232.66177 201.782495 
L 232.66177 197.950099 
L 233.204068 197.950099 
L 233.204068 194.117703 
L 235.636491 194.117703 
L 235.636491 190.285307 
L 235.857594 190.285307 
L 235.857594 186.452911 
L 236.137405 186.452911 
L 236.137405 182.620515 
L 238.543045 182.620515 
L 238.543045 178.788119 
L 239.262569 178.788119 
L 239.262569 174.955723 
L 239.7283 174.955723 
L 239.7283 171.123327 
L 240.321174 171.123327 
L 240.321174 167.290931 
L 241.960757 167.290931 
L 241.960757 163.458535 
L 243.578547 163.458535 
L 243.578547 159.626139 
L 244.541859 159.626139 
L 244.541859 155.793743 
L 245.238559 155.793743 
L 245.238559 151.961347 
L 245.880477 151.961347 
L 245.880477 148.12895 
L 246.368882 148.12895 
L 246.368882 144.296554 
L 247.726675 144.296554 
L 247.726675 140.464158 
L 247.898049 140.464158 
L 247.898049 136.631762 
L 248.088522 136.631762 
L 248.088522 132.799366 
L 248.440336 132.799366 
L 248.440336 128.96697 
L 248.643079 128.96697 
L 248.643079 125.134574 
L 249.206166 125.134574 
L 249.280222 117.469782 
L 249.746441 117.469782 
L 249.746441 113.637386 
L 250.261162 113.637386 
L 250.261162 109.80499 
L 250.452098 109.80499 
L 250.474777 102.140198 
L 250.851854 102.140198 
L 250.912634 94.475406 
L 251.11026 94.475406 
L 251.11026 90.64301 
L 251.461592 90.64301 
L 251.461592 86.810614 
L 252.774741 86.810614 
L 252.868442 79.145822 
L 253.213005 79.145822 
L 253.213005 75.313426 
L 254.236752 75.313426 
L 254.236752 71.48103 
L 255.078645 71.48103 
L 255.099307 63.816238 
L 256.903434 63.816238 
L 256.950206 56.151446 
L 257.791287 56.151446 
L 257.791287 52.31905 
L 259.445151 52.31905 
L 259.445151 48.486653 
L 259.967415 48.486653 
L 259.967415 44.654257 
L 260.433307 44.654257 
L 260.433307 40.821861 
L 261.02206 40.821861 
L 261.02206 36.989465 
L 263.891301 36.989465 
L 263.969054 29.324673 
L 264.066105 29.324673 
L 264.066105 25.492277 
L 264.397185 25.492277 
L 264.397185 21.659881 
L 264.603638 21.659881 
L 264.603638 17.827485 
L 266.956309 17.827485 
L 266.956309 13.995089 
L 267.640624 13.995089 
L 267.640624 10.162693 
L 269.454554 10.162693 
L 269.454554 6.330297 
L 269.454554 6.330297 
L 460.8 6.330297 
L 460.8 6.330297 
" clip-path="url(#p1392dcf581)" style="fill: none; stroke: #000000; stroke-width: 1.5; stroke-linecap: square"/>
   </g>
   <g id="line2d_25">
    <path d="M 160.565081 293.76 
L 160.565081 289.927604 
L 161.126739 289.927604 
L 161.126739 286.095208 
L 162.333005 286.095208 
L 162.333005 282.262812 
L 163.132371 282.262812 
L 163.132371 278.430416 
L 163.475539 278.430416 
L 163.475539 274.59802 
L 163.608711 274.59802 
L 163.608711 270.765624 
L 163.7508 270.765624 
L 163.7508 266.933228 
L 190.005741 266.933228 
L 190.005741 236.274059 
L 219.276336 236.274059 
L 219.276336 232.441663 
L 221.236167 232.441663 
L 221.236167 228.609267 
L 222.11937 228.609267 
L 222.11937 224.776871 
L 224.315078 224.776871 
L 224.315078 220.944475 
L 224.444734 220.944475 
L 224.444734 217.112079 
L 224.825039 217.112079 
L 224.825039 213.279683 
L 226.197453 213.279683 
L 226.197453 209.447287 
L 226.476087 209.447287 
L 226.476087 205.614891 
L 231.442956 205.614891 
L 231.442956 201.782495 
L 231.665365 201.782495 
L 231.665365 197.950099 
L 232.66177 197.950099 
L 232.66177 194.117703 
L 233.930932 194.117703 
L 233.930932 190.285307 
L 234.958776 190.285307 
L 234.958776 186.452911 
L 235.832549 186.452911 
L 235.857594 178.788119 
L 236.137405 178.788119 
L 236.137405 174.955723 
L 239.262569 174.955723 
L 239.262569 171.123327 
L 239.596399 171.123327 
L 239.596399 167.290931 
L 239.7283 167.290931 
L 239.7283 163.458535 
L 240.129987 163.458535 
L 240.129987 159.626139 
L 242.665699 159.626139 
L 242.737993 151.961347 
L 243.714718 151.961347 
L 243.714718 148.12895 
L 244.132673 148.12895 
L 244.132673 144.296554 
L 244.54549 144.296554 
L 244.54549 140.464158 
L 245.845018 140.464158 
L 245.845018 136.631762 
L 247.721135 136.631762 
L 247.721135 132.799366 
L 247.898049 132.799366 
L 247.898049 128.96697 
L 248.440336 128.96697 
L 248.440336 125.134574 
L 249.081153 125.134574 
L 249.081153 121.302178 
L 249.280222 121.302178 
L 249.280222 117.469782 
L 249.416635 117.469782 
L 249.416635 113.637386 
L 249.746441 113.637386 
L 249.746441 109.80499 
L 250.255568 109.80499 
L 250.255568 105.972594 
L 250.474777 105.972594 
L 250.573358 98.307802 
L 250.827706 98.307802 
L 250.912634 90.64301 
L 251.11026 90.64301 
L 251.11026 86.810614 
L 251.461592 86.810614 
L 251.461592 82.978218 
L 252.160292 82.978218 
L 252.160292 79.145822 
L 253.06196 79.145822 
L 253.06196 75.313426 
L 254.236752 75.313426 
L 254.267991 67.648634 
L 254.464503 67.648634 
L 254.464503 63.816238 
L 254.884063 63.816238 
L 254.884063 59.983842 
L 255.226453 59.983842 
L 255.226453 56.151446 
L 256.903434 56.151446 
L 256.903434 52.31905 
L 257.1319 52.31905 
L 257.1319 48.486653 
L 257.48219 48.486653 
L 257.48219 44.654257 
L 259.22151 44.654257 
L 259.22151 40.821861 
L 260.10636 40.821861 
L 260.145683 33.157069 
L 263.083852 33.157069 
L 263.083852 29.324673 
L 264.066105 29.324673 
L 264.066105 25.492277 
L 264.397185 25.492277 
L 264.397185 21.659881 
L 264.603638 21.659881 
L 264.603638 17.827485 
L 265.336409 17.827485 
L 265.336409 13.995089 
L 266.867423 13.995089 
L 266.867423 10.162693 
L 267.640624 10.162693 
L 267.640624 6.330297 
L 267.640624 6.330297 
L 460.8 6.330297 
L 460.8 6.330297 
" clip-path="url(#p1392dcf581)" style="fill: none; stroke: #00bfbf; stroke-width: 1.5; stroke-linecap: square"/>
   </g>
   <g id="patch_3">
    <path d="M 0 293.76 
L 0 3.456 
" style="fill: none; stroke: #000000; stroke-width: 0.8; stroke-linejoin: miter; stroke-linecap: square"/>
   </g>
   <g id="patch_4">
    <path d="M 460.8 293.76 
L 460.8 3.456 
" style="fill: none; stroke: #000000; stroke-width: 0.8; stroke-linejoin: miter; stroke-linecap: square"/>
   </g>
   <g id="patch_5">
    <path d="M 0 293.76 
L 460.8 293.76 
" style="fill: none; stroke: #000000; stroke-width: 0.8; stroke-linejoin: miter; stroke-linecap: square"/>
   </g>
   <g id="patch_6">
    <path d="M 0 3.456 
L 460.8 3.456 
" style="fill: none; stroke: #000000; stroke-width: 0.8; stroke-linejoin: miter; stroke-linecap: square"/>
   </g>
   <g id="text_6">
    <!-- {f15-f19}, 5-D -->
    <g transform="translate(305.884 287.95392) scale(0.2 -0.2)">
     <defs>
      <path id="DejaVuSans-7b" d="M 3272 -594 
L 3272 -1044 
L 3078 -1044 
Q 2300 -1044 2036 -812 
Q 1772 -581 1772 109 
L 1772 856 
Q 1772 1328 1603 1509 
Q 1434 1691 991 1691 
L 800 1691 
L 800 2138 
L 991 2138 
Q 1438 2138 1605 2317 
Q 1772 2497 1772 2963 
L 1772 3713 
Q 1772 4403 2036 4633 
Q 2300 4863 3078 4863 
L 3272 4863 
L 3272 4416 
L 3059 4416 
Q 2619 4416 2484 4278 
Q 2350 4141 2350 3700 
L 2350 2925 
Q 2350 2434 2208 2212 
Q 2066 1991 1722 1913 
Q 2069 1828 2209 1606 
Q 2350 1384 2350 897 
L 2350 122 
Q 2350 -319 2484 -456 
Q 2619 -594 3059 -594 
L 3272 -594 
z
" transform="scale(0.015625)"/>
      <path id="DejaVuSans-35" d="M 691 4666 
L 3169 4666 
L 3169 4134 
L 1269 4134 
L 1269 2991 
Q 1406 3038 1543 3061 
Q 1681 3084 1819 3084 
Q 2600 3084 3056 2656 
Q 3513 2228 3513 1497 
Q 3513 744 3044 326 
Q 2575 -91 1722 -91 
Q 1428 -91 1123 -41 
Q 819 9 494 109 
L 494 744 
Q 775 591 1075 516 
Q 1375 441 1709 441 
Q 2250 441 2565 725 
Q 2881 1009 2881 1497 
Q 2881 1984 2565 2268 
Q 2250 2553 1709 2553 
Q 1456 2553 1204 2497 
Q 953 2441 691 2322 
L 691 4666 
z
" transform="scale(0.015625)"/>
      <path id="DejaVuSans-39" d="M 703 97 
L 703 672 
Q 941 559 1184 500 
Q 1428 441 1663 441 
Q 2288 441 2617 861 
Q 2947 1281 2994 2138 
Q 2813 1869 2534 1725 
Q 2256 1581 1919 1581 
Q 1219 1581 811 2004 
Q 403 2428 403 3163 
Q 403 3881 828 4315 
Q 1253 4750 1959 4750 
Q 2769 4750 3195 4129 
Q 3622 3509 3622 2328 
Q 3622 1225 3098 567 
Q 2575 -91 1691 -91 
Q 1453 -91 1209 -44 
Q 966 3 703 97 
z
M 1959 2075 
Q 2384 2075 2632 2365 
Q 2881 2656 2881 3163 
Q 2881 3666 2632 3958 
Q 2384 4250 1959 4250 
Q 1534 4250 1286 3958 
Q 1038 3666 1038 3163 
Q 1038 2656 1286 2365 
Q 1534 2075 1959 2075 
z
" transform="scale(0.015625)"/>
      <path id="DejaVuSans-7d" d="M 800 -594 
L 1019 -594 
Q 1456 -594 1589 -459 
Q 1722 -325 1722 122 
L 1722 897 
Q 1722 1384 1862 1606 
Q 2003 1828 2350 1913 
Q 2003 1991 1862 2212 
Q 1722 2434 1722 2925 
L 1722 3700 
Q 1722 4144 1589 4280 
Q 1456 4416 1019 4416 
L 800 4416 
L 800 4863 
L 997 4863 
Q 1775 4863 2036 4633 
Q 2297 4403 2297 3713 
L 2297 2963 
Q 2297 2497 2465 2317 
Q 2634 2138 3078 2138 
L 3272 2138 
L 3272 1691 
L 3078 1691 
Q 2634 1691 2465 1509 
Q 2297 1328 2297 856 
L 2297 109 
Q 2297 -581 2036 -812 
Q 1775 -1044 997 -1044 
L 800 -1044 
L 800 -594 
z
" transform="scale(0.015625)"/>
      <path id="DejaVuSans-2c" d="M 750 794 
L 1409 794 
L 1409 256 
L 897 -744 
L 494 -744 
L 750 256 
L 750 794 
z
" transform="scale(0.015625)"/>
     </defs>
     <use xlink:href="#DejaVuSans-7b"/>
     <use xlink:href="#DejaVuSans-66" x="63.623047"/>
     <use xlink:href="#DejaVuSans-31" x="98.828125"/>
     <use xlink:href="#DejaVuSans-35" x="162.451172"/>
     <use xlink:href="#DejaVuSans-2d" x="226.074219"/>
     <use xlink:href="#DejaVuSans-66" x="262.158203"/>
     <use xlink:href="#DejaVuSans-31" x="297.363281"/>
     <use xlink:href="#DejaVuSans-39" x="360.986328"/>
     <use xlink:href="#DejaVuSans-7d" x="424.609375"/>
     <use xlink:href="#DejaVuSans-2c" x="488.232422"/>
     <use xlink:href="#DejaVuSans-20" x="520.019531"/>
     <use xlink:href="#DejaVuSans-35" x="551.806641"/>
     <use xlink:href="#DejaVuSans-2d" x="615.429688"/>
     <use xlink:href="#DejaVuSans-44" x="651.513672"/>
    </g>
   </g>
   <g id="text_7">
    <!-- v2.6.3 -->
    <g style="fill: #808080" transform="translate(214.71875 288.777272) scale(0.1 -0.1)">
     <defs>
      <path id="DejaVuSans-76" d="M 191 3500 
L 800 3500 
L 1894 563 
L 2988 3500 
L 3597 3500 
L 2284 0 
L 1503 0 
L 191 3500 
z
" transform="scale(0.015625)"/>
      <path id="DejaVuSans-32" d="M 1228 531 
L 3431 531 
L 3431 0 
L 469 0 
L 469 531 
Q 828 903 1448 1529 
Q 2069 2156 2228 2338 
Q 2531 2678 2651 2914 
Q 2772 3150 2772 3378 
Q 2772 3750 2511 3984 
Q 2250 4219 1831 4219 
Q 1534 4219 1204 4116 
Q 875 4013 500 3803 
L 500 4441 
Q 881 4594 1212 4672 
Q 1544 4750 1819 4750 
Q 2544 4750 2975 4387 
Q 3406 4025 3406 3419 
Q 3406 3131 3298 2873 
Q 3191 2616 2906 2266 
Q 2828 2175 2409 1742 
Q 1991 1309 1228 531 
z
" transform="scale(0.015625)"/>
      <path id="DejaVuSans-2e" d="M 684 794 
L 1344 794 
L 1344 0 
L 684 0 
L 684 794 
z
" transform="scale(0.015625)"/>
      <path id="DejaVuSans-36" d="M 2113 2584 
Q 1688 2584 1439 2293 
Q 1191 2003 1191 1497 
Q 1191 994 1439 701 
Q 1688 409 2113 409 
Q 2538 409 2786 701 
Q 3034 994 3034 1497 
Q 3034 2003 2786 2293 
Q 2538 2584 2113 2584 
z
M 3366 4563 
L 3366 3988 
Q 3128 4100 2886 4159 
Q 2644 4219 2406 4219 
Q 1781 4219 1451 3797 
Q 1122 3375 1075 2522 
Q 1259 2794 1537 2939 
Q 1816 3084 2150 3084 
Q 2853 3084 3261 2657 
Q 3669 2231 3669 1497 
Q 3669 778 3244 343 
Q 2819 -91 2113 -91 
Q 1303 -91 875 529 
Q 447 1150 447 2328 
Q 447 3434 972 4092 
Q 1497 4750 2381 4750 
Q 2619 4750 2861 4703 
Q 3103 4656 3366 4563 
z
" transform="scale(0.015625)"/>
      <path id="DejaVuSans-33" d="M 2597 2516 
Q 3050 2419 3304 2112 
Q 3559 1806 3559 1356 
Q 3559 666 3084 287 
Q 2609 -91 1734 -91 
Q 1441 -91 1130 -33 
Q 819 25 488 141 
L 488 750 
Q 750 597 1062 519 
Q 1375 441 1716 441 
Q 2309 441 2620 675 
Q 2931 909 2931 1356 
Q 2931 1769 2642 2001 
Q 2353 2234 1838 2234 
L 1294 2234 
L 1294 2753 
L 1863 2753 
Q 2328 2753 2575 2939 
Q 2822 3125 2822 3475 
Q 2822 3834 2567 4026 
Q 2313 4219 1838 4219 
Q 1578 4219 1281 4162 
Q 984 4106 628 3988 
L 628 4550 
Q 988 4650 1302 4700 
Q 1616 4750 1894 4750 
Q 2613 4750 3031 4423 
Q 3450 4097 3450 3541 
Q 3450 3153 3228 2886 
Q 3006 2619 2597 2516 
z
" transform="scale(0.015625)"/>
     </defs>
     <use xlink:href="#DejaVuSans-76"/>
     <use xlink:href="#DejaVuSans-32" x="59.179688"/>
     <use xlink:href="#DejaVuSans-2e" x="122.802734"/>
     <use xlink:href="#DejaVuSans-36" x="154.589844"/>
     <use xlink:href="#DejaVuSans-2e" x="218.212891"/>
     <use xlink:href="#DejaVuSans-33" x="250"/>
    </g>
   </g>
  </g>
 </g>
 <defs>
  <clipPath id="p1392dcf581">
   <rect x="0" y="3.456" width="460.8" height="290.304"/>
  </clipPath>
 </defs>
</svg>
