<?xml version="1.0" encoding="utf-8" standalone="no"?>
<!DOCTYPE svg PUBLIC "-//W3C//DTD SVG 1.1//EN"
  "http://www.w3.org/Graphics/SVG/1.1/DTD/svg11.dtd">
<svg xmlns:xlink="http://www.w3.org/1999/xlink" width="460.8pt" height="345.6pt" viewBox="0 0 460.8 345.6" xmlns="http://www.w3.org/2000/svg" version="1.1">
 <metadata>
  <rdf:RDF xmlns:dc="http://purl.org/dc/elements/1.1/" xmlns:cc="http://creativecommons.org/ns#" xmlns:rdf="http://www.w3.org/1999/02/22-rdf-syntax-ns#">
   <cc:Work>
    <dc:type rdf:resource="http://purl.org/dc/dcmitype/StillImage"/>
    <dc:date>2024-01-23T11:32:39.924633</dc:date>
    <dc:format>image/svg+xml</dc:format>
    <dc:creator>
     <cc:Agent>
      <dc:title>Matplotlib v3.8.2, https://matplotlib.org/</dc:title>
     </cc:Agent>
    </dc:creator>
   </cc:Work>
  </rdf:RDF>
 </metadata>
 <defs>
  <style type="text/css">*{stroke-linejoin: round; stroke-linecap: butt}</style>
 </defs>
 <g id="figure_1">
  <g id="patch_1">
   <path d="M 0 345.6 
L 460.8 345.6 
L 460.8 0 
L 0 0 
z
" style="fill: #ffffff"/>
  </g>
  <g id="axes_1">
   <g id="patch_2">
    <path d="M 0 293.76 
L 460.8 293.76 
L 460.8 3.456 
L 0 3.456 
z
" style="fill: #ffffff"/>
   </g>
   <g id="matplotlib.axis_1">
    <g id="xtick_1">
     <g id="line2d_1">
      <path d="M 103.103634 293.76 
L 103.103634 3.456 
" clip-path="url(#p7e70d453c3)" style="fill: none; stroke: #b0b0b0; stroke-width: 0.8; stroke-linecap: square"/>
     </g>
     <g id="line2d_2">
      <defs>
       <path id="m348c95eda1" d="M 0 0 
L 0 3.5 
" style="stroke: #000000; stroke-width: 0.8"/>
      </defs>
      <g>
       <use xlink:href="#m348c95eda1" x="103.103634" y="293.76" style="stroke: #000000; stroke-width: 0.8"/>
      </g>
     </g>
     <g id="text_1">
      <!-- -4 -->
      <g transform="translate(93.133322 315.956875) scale(0.2 -0.2)">
       <defs>
        <path id="DejaVuSans-2d" d="M 313 2009 
L 1997 2009 
L 1997 1497 
L 313 1497 
L 313 2009 
z
" transform="scale(0.015625)"/>
        <path id="DejaVuSans-34" d="M 2419 4116 
L 825 1625 
L 2419 1625 
L 2419 4116 
z
M 2253 4666 
L 3047 4666 
L 3047 1625 
L 3713 1625 
L 3713 1100 
L 3047 1100 
L 3047 0 
L 2419 0 
L 2419 1100 
L 313 1100 
L 313 1709 
L 2253 4666 
z
" transform="scale(0.015625)"/>
       </defs>
       <use xlink:href="#DejaVuSans-2d"/>
       <use xlink:href="#DejaVuSans-34" x="36.083984"/>
      </g>
     </g>
    </g>
    <g id="xtick_2">
     <g id="line2d_3">
      <path d="M 206.318777 293.76 
L 206.318777 3.456 
" clip-path="url(#p7e70d453c3)" style="fill: none; stroke: #b0b0b0; stroke-width: 0.8; stroke-linecap: square"/>
     </g>
     <g id="line2d_4">
      <g>
       <use xlink:href="#m348c95eda1" x="206.318777" y="293.76" style="stroke: #000000; stroke-width: 0.8"/>
      </g>
     </g>
     <g id="text_2">
      <!-- 0 -->
      <g transform="translate(199.956277 315.956875) scale(0.2 -0.2)">
       <defs>
        <path id="DejaVuSans-30" d="M 2034 4250 
Q 1547 4250 1301 3770 
Q 1056 3291 1056 2328 
Q 1056 1369 1301 889 
Q 1547 409 2034 409 
Q 2525 409 2770 889 
Q 3016 1369 3016 2328 
Q 3016 3291 2770 3770 
Q 2525 4250 2034 4250 
z
M 2034 4750 
Q 2819 4750 3233 4129 
Q 3647 3509 3647 2328 
Q 3647 1150 3233 529 
Q 2819 -91 2034 -91 
Q 1250 -91 836 529 
Q 422 1150 422 2328 
Q 422 3509 836 4129 
Q 1250 4750 2034 4750 
z
" transform="scale(0.015625)"/>
       </defs>
       <use xlink:href="#DejaVuSans-30"/>
      </g>
     </g>
    </g>
    <g id="xtick_3">
     <g id="line2d_5">
      <path d="M 309.533919 293.76 
L 309.533919 3.456 
" clip-path="url(#p7e70d453c3)" style="fill: none; stroke: #b0b0b0; stroke-width: 0.8; stroke-linecap: square"/>
     </g>
     <g id="line2d_6">
      <g>
       <use xlink:href="#m348c95eda1" x="309.533919" y="293.76" style="stroke: #000000; stroke-width: 0.8"/>
      </g>
     </g>
     <g id="text_3">
      <!-- 4 -->
      <g transform="translate(303.171419 315.956875) scale(0.2 -0.2)">
       <use xlink:href="#DejaVuSans-34"/>
      </g>
     </g>
    </g>
    <g id="xtick_4">
     <g id="line2d_7">
      <path d="M 412.749061 293.76 
L 412.749061 3.456 
" clip-path="url(#p7e70d453c3)" style="fill: none; stroke: #b0b0b0; stroke-width: 0.8; stroke-linecap: square"/>
     </g>
     <g id="line2d_8">
      <g>
       <use xlink:href="#m348c95eda1" x="412.749061" y="293.76" style="stroke: #000000; stroke-width: 0.8"/>
      </g>
     </g>
     <g id="text_4">
      <!-- 8 -->
      <g transform="translate(406.386561 315.956875) scale(0.2 -0.2)">
       <defs>
        <path id="DejaVuSans-38" d="M 2034 2216 
Q 1584 2216 1326 1975 
Q 1069 1734 1069 1313 
Q 1069 891 1326 650 
Q 1584 409 2034 409 
Q 2484 409 2743 651 
Q 3003 894 3003 1313 
Q 3003 1734 2745 1975 
Q 2488 2216 2034 2216 
z
M 1403 2484 
Q 997 2584 770 2862 
Q 544 3141 544 3541 
Q 544 4100 942 4425 
Q 1341 4750 2034 4750 
Q 2731 4750 3128 4425 
Q 3525 4100 3525 3541 
Q 3525 3141 3298 2862 
Q 3072 2584 2669 2484 
Q 3125 2378 3379 2068 
Q 3634 1759 3634 1313 
Q 3634 634 3220 271 
Q 2806 -91 2034 -91 
Q 1263 -91 848 271 
Q 434 634 434 1313 
Q 434 1759 690 2068 
Q 947 2378 1403 2484 
z
M 1172 3481 
Q 1172 3119 1398 2916 
Q 1625 2713 2034 2713 
Q 2441 2713 2670 2916 
Q 2900 3119 2900 3481 
Q 2900 3844 2670 4047 
Q 2441 4250 2034 4250 
Q 1625 4250 1398 4047 
Q 1172 3844 1172 3481 
z
" transform="scale(0.015625)"/>
       </defs>
       <use xlink:href="#DejaVuSans-38"/>
      </g>
     </g>
    </g>
    <g id="text_5">
     <!-- log10 of Df -->
     <g transform="translate(175.214063 339.313125) scale(0.2 -0.2)">
      <defs>
       <path id="DejaVuSans-6c" d="M 603 4863 
L 1178 4863 
L 1178 0 
L 603 0 
L 603 4863 
z
" transform="scale(0.015625)"/>
       <path id="DejaVuSans-6f" d="M 1959 3097 
Q 1497 3097 1228 2736 
Q 959 2375 959 1747 
Q 959 1119 1226 758 
Q 1494 397 1959 397 
Q 2419 397 2687 759 
Q 2956 1122 2956 1747 
Q 2956 2369 2687 2733 
Q 2419 3097 1959 3097 
z
M 1959 3584 
Q 2709 3584 3137 3096 
Q 3566 2609 3566 1747 
Q 3566 888 3137 398 
Q 2709 -91 1959 -91 
Q 1206 -91 779 398 
Q 353 888 353 1747 
Q 353 2609 779 3096 
Q 1206 3584 1959 3584 
z
" transform="scale(0.015625)"/>
       <path id="DejaVuSans-67" d="M 2906 1791 
Q 2906 2416 2648 2759 
Q 2391 3103 1925 3103 
Q 1463 3103 1205 2759 
Q 947 2416 947 1791 
Q 947 1169 1205 825 
Q 1463 481 1925 481 
Q 2391 481 2648 825 
Q 2906 1169 2906 1791 
z
M 3481 434 
Q 3481 -459 3084 -895 
Q 2688 -1331 1869 -1331 
Q 1566 -1331 1297 -1286 
Q 1028 -1241 775 -1147 
L 775 -588 
Q 1028 -725 1275 -790 
Q 1522 -856 1778 -856 
Q 2344 -856 2625 -561 
Q 2906 -266 2906 331 
L 2906 616 
Q 2728 306 2450 153 
Q 2172 0 1784 0 
Q 1141 0 747 490 
Q 353 981 353 1791 
Q 353 2603 747 3093 
Q 1141 3584 1784 3584 
Q 2172 3584 2450 3431 
Q 2728 3278 2906 2969 
L 2906 3500 
L 3481 3500 
L 3481 434 
z
" transform="scale(0.015625)"/>
       <path id="DejaVuSans-31" d="M 794 531 
L 1825 531 
L 1825 4091 
L 703 3866 
L 703 4441 
L 1819 4666 
L 2450 4666 
L 2450 531 
L 3481 531 
L 3481 0 
L 794 0 
L 794 531 
z
" transform="scale(0.015625)"/>
       <path id="DejaVuSans-20" transform="scale(0.015625)"/>
       <path id="DejaVuSans-66" d="M 2375 4863 
L 2375 4384 
L 1825 4384 
Q 1516 4384 1395 4259 
Q 1275 4134 1275 3809 
L 1275 3500 
L 2222 3500 
L 2222 3053 
L 1275 3053 
L 1275 0 
L 697 0 
L 697 3053 
L 147 3053 
L 147 3500 
L 697 3500 
L 697 3744 
Q 697 4328 969 4595 
Q 1241 4863 1831 4863 
L 2375 4863 
z
" transform="scale(0.015625)"/>
       <path id="DejaVuSans-44" d="M 1259 4147 
L 1259 519 
L 2022 519 
Q 2988 519 3436 956 
Q 3884 1394 3884 2338 
Q 3884 3275 3436 3711 
Q 2988 4147 2022 4147 
L 1259 4147 
z
M 628 4666 
L 1925 4666 
Q 3281 4666 3915 4102 
Q 4550 3538 4550 2338 
Q 4550 1131 3912 565 
Q 3275 0 1925 0 
L 628 0 
L 628 4666 
z
" transform="scale(0.015625)"/>
      </defs>
      <use xlink:href="#DejaVuSans-6c"/>
      <use xlink:href="#DejaVuSans-6f" x="27.783203"/>
      <use xlink:href="#DejaVuSans-67" x="88.964844"/>
      <use xlink:href="#DejaVuSans-31" x="152.441406"/>
      <use xlink:href="#DejaVuSans-30" x="216.064453"/>
      <use xlink:href="#DejaVuSans-20" x="279.6875"/>
      <use xlink:href="#DejaVuSans-6f" x="311.474609"/>
      <use xlink:href="#DejaVuSans-66" x="372.65625"/>
      <use xlink:href="#DejaVuSans-20" x="407.861328"/>
      <use xlink:href="#DejaVuSans-44" x="439.648438"/>
      <use xlink:href="#DejaVuSans-66" x="516.650391"/>
     </g>
    </g>
   </g>
   <g id="matplotlib.axis_2">
    <g id="ytick_1">
     <g id="line2d_9">
      <path d="M 0 293.76 
L 460.8 293.76 
" clip-path="url(#p7e70d453c3)" style="fill: none; stroke: #b0b0b0; stroke-width: 0.8; stroke-linecap: square"/>
     </g>
     <g id="line2d_10">
      <defs>
       <path id="m4c49050725" d="M 0 0 
L -3.5 0 
" style="stroke: #000000; stroke-width: 0.8"/>
      </defs>
      <g>
       <use xlink:href="#m4c49050725" x="0" y="293.76" style="stroke: #000000; stroke-width: 0.8"/>
      </g>
     </g>
    </g>
    <g id="ytick_2">
     <g id="line2d_11">
      <path d="M 0 236.274059 
L 460.8 236.274059 
" clip-path="url(#p7e70d453c3)" style="fill: none; stroke: #b0b0b0; stroke-width: 0.8; stroke-linecap: square"/>
     </g>
     <g id="line2d_12">
      <g>
       <use xlink:href="#m4c49050725" x="0" y="236.274059" style="stroke: #000000; stroke-width: 0.8"/>
      </g>
     </g>
    </g>
    <g id="ytick_3">
     <g id="line2d_13">
      <path d="M 0 178.788119 
L 460.8 178.788119 
" clip-path="url(#p7e70d453c3)" style="fill: none; stroke: #b0b0b0; stroke-width: 0.8; stroke-linecap: square"/>
     </g>
     <g id="line2d_14">
      <g>
       <use xlink:href="#m4c49050725" x="0" y="178.788119" style="stroke: #000000; stroke-width: 0.8"/>
      </g>
     </g>
    </g>
    <g id="ytick_4">
     <g id="line2d_15">
      <path d="M 0 121.302178 
L 460.8 121.302178 
" clip-path="url(#p7e70d453c3)" style="fill: none; stroke: #b0b0b0; stroke-width: 0.8; stroke-linecap: square"/>
     </g>
     <g id="line2d_16">
      <g>
       <use xlink:href="#m4c49050725" x="0" y="121.302178" style="stroke: #000000; stroke-width: 0.8"/>
      </g>
     </g>
    </g>
    <g id="ytick_5">
     <g id="line2d_17">
      <path d="M 0 63.816238 
L 460.8 63.816238 
" clip-path="url(#p7e70d453c3)" style="fill: none; stroke: #b0b0b0; stroke-width: 0.8; stroke-linecap: square"/>
     </g>
     <g id="line2d_18">
      <g>
       <use xlink:href="#m4c49050725" x="0" y="63.816238" style="stroke: #000000; stroke-width: 0.8"/>
      </g>
     </g>
    </g>
    <g id="ytick_6">
     <g id="line2d_19">
      <path d="M 0 6.330297 
L 460.8 6.330297 
" clip-path="url(#p7e70d453c3)" style="fill: none; stroke: #b0b0b0; stroke-width: 0.8; stroke-linecap: square"/>
     </g>
     <g id="line2d_20">
      <g>
       <use xlink:href="#m4c49050725" x="0" y="6.330297" style="stroke: #000000; stroke-width: 0.8"/>
      </g>
     </g>
    </g>
   </g>
   <g id="line2d_21">
    <path d="M 171.651744 293.76 
L 171.710503 282.262812 
L 172.501008 282.262812 
L 172.598771 274.59802 
L 172.955688 274.59802 
L 172.955688 270.765624 
L 173.280132 270.765624 
L 173.280132 266.933228 
L 190.800091 266.933228 
L 190.800091 236.274059 
L 226.119091 236.274059 
L 226.119091 232.441663 
L 226.260245 232.441663 
L 226.260245 228.609267 
L 226.702311 228.609267 
L 226.702311 224.776871 
L 227.569583 224.776871 
L 227.569583 220.944475 
L 232.420936 220.944475 
L 232.423346 213.279683 
L 233.704232 213.279683 
L 233.752392 205.614891 
L 235.780342 205.614891 
L 235.780342 201.782495 
L 236.853606 201.782495 
L 236.853606 197.950099 
L 238.302128 197.950099 
L 238.302128 194.117703 
L 238.837251 194.117703 
L 238.837251 190.285307 
L 241.340361 190.285307 
L 241.340361 186.452911 
L 241.859784 186.452911 
L 241.859784 182.620515 
L 242.488179 182.620515 
L 242.488179 178.788119 
L 242.759032 178.788119 
L 242.817949 171.123327 
L 242.99803 171.123327 
L 242.99803 167.290931 
L 245.112234 167.290931 
L 245.112234 163.458535 
L 247.618356 163.458535 
L 247.693689 155.793743 
L 247.805408 155.793743 
L 247.805408 151.961347 
L 248.588852 151.961347 
L 248.588852 148.12895 
L 248.850176 148.12895 
L 248.850176 144.296554 
L 249.093075 144.296554 
L 249.093075 140.464158 
L 249.313266 140.464158 
L 249.313266 136.631762 
L 249.611491 136.631762 
L 249.611491 132.799366 
L 249.801969 132.799366 
L 249.801969 128.96697 
L 250.432588 128.96697 
L 250.432588 125.134574 
L 250.85544 125.134574 
L 250.85544 121.302178 
L 251.162452 121.302178 
L 251.162452 117.469782 
L 251.466516 117.469782 
L 251.466516 113.637386 
L 252.092381 113.637386 
L 252.092381 109.80499 
L 252.28902 109.80499 
L 252.28902 105.972594 
L 252.504384 105.972594 
L 252.589817 98.307802 
L 252.795216 98.307802 
L 252.795216 94.475406 
L 253.223396 94.475406 
L 253.223396 90.64301 
L 253.944743 90.64301 
L 253.944743 86.810614 
L 254.257487 86.810614 
L 254.257487 82.978218 
L 255.428975 82.978218 
L 255.428975 79.145822 
L 255.623219 79.145822 
L 255.623219 75.313426 
L 256.034756 75.313426 
L 256.034756 71.48103 
L 258.374069 71.48103 
L 258.374069 67.648634 
L 259.182861 67.648634 
L 259.182861 63.816238 
L 270.032253 63.816238 
L 270.032253 59.983842 
L 270.939319 59.983842 
L 270.939319 56.151446 
L 273.063611 56.151446 
L 273.063611 52.31905 
L 274.189325 52.31905 
L 274.189325 48.486653 
L 274.799403 48.486653 
L 274.799403 44.654257 
L 274.995494 44.654257 
L 274.995494 40.821861 
L 276.559851 40.821861 
L 276.559851 36.989465 
L 278.583676 36.989465 
L 278.583676 33.157069 
L 278.706556 33.157069 
L 278.706556 29.324673 
L 279.718605 29.324673 
L 279.718605 25.492277 
L 279.991883 25.492277 
L 279.991883 21.659881 
L 280.298468 21.659881 
L 280.298468 17.827485 
L 281.82663 17.827485 
L 281.82663 13.995089 
L 282.357929 13.995089 
L 282.357929 10.162693 
L 283.584538 10.162693 
L 283.584538 6.330297 
L 283.584538 6.330297 
L 460.8 6.330297 
L 460.8 6.330297 
" clip-path="url(#p7e70d453c3)" style="fill: none; stroke: #ff0000; stroke-width: 3; stroke-linecap: square"/>
   </g>
   <g id="line2d_22">
    <path d="M 190.800091 293.76 
L 190.800091 236.274059 
L 233.249171 236.274059 
L 233.249171 232.441663 
L 236.001321 232.441663 
L 236.001321 228.609267 
L 236.227719 228.609267 
L 236.227719 224.776871 
L 236.440371 224.776871 
L 236.440371 220.944475 
L 236.658215 220.944475 
L 236.76837 213.279683 
L 238.370811 213.279683 
L 238.481733 205.614891 
L 239.131433 205.614891 
L 239.131433 201.782495 
L 240.184765 201.782495 
L 240.184765 197.950099 
L 241.160465 197.950099 
L 241.160465 194.117703 
L 241.698447 194.117703 
L 241.698447 190.285307 
L 241.843567 190.285307 
L 241.843567 186.452911 
L 245.206973 186.452911 
L 245.206973 182.620515 
L 246.490323 182.620515 
L 246.490323 178.788119 
L 248.344807 178.788119 
L 248.432101 167.290931 
L 249.808657 167.290931 
L 249.808657 163.458535 
L 250.396278 163.458535 
L 250.432588 155.793743 
L 250.997117 155.793743 
L 250.997117 151.961347 
L 251.162452 151.961347 
L 251.162452 148.12895 
L 251.466516 148.12895 
L 251.466516 144.296554 
L 251.734934 144.296554 
L 251.734934 140.464158 
L 252.217556 140.464158 
L 252.217556 136.631762 
L 252.504384 136.631762 
L 252.504384 132.799366 
L 252.826211 132.799366 
L 252.904607 125.134574 
L 252.973187 125.134574 
L 253.02125 117.469782 
L 253.223396 117.469782 
L 253.235532 109.80499 
L 254.014913 109.80499 
L 254.041986 102.140198 
L 254.177207 102.140198 
L 254.177207 98.307802 
L 254.800928 98.307802 
L 254.800928 94.475406 
L 255.155792 94.475406 
L 255.155792 90.64301 
L 255.428975 90.64301 
L 255.428975 86.810614 
L 256.725435 86.810614 
L 256.725435 82.978218 
L 257.025149 82.978218 
L 257.025149 79.145822 
L 258.109839 79.145822 
L 258.136505 71.48103 
L 262.613456 71.48103 
L 262.613456 67.648634 
L 264.303746 67.648634 
L 264.303746 63.816238 
L 275.726482 63.816238 
L 275.726482 59.983842 
L 276.407606 59.983842 
L 276.407606 56.151446 
L 277.813159 56.151446 
L 277.813159 52.31905 
L 278.474404 52.31905 
L 278.474404 48.486653 
L 278.700775 48.486653 
L 278.700775 44.654257 
L 280.181197 44.654257 
L 280.181197 40.821861 
L 280.378124 40.821861 
L 280.378124 36.989465 
L 281.164758 36.989465 
L 281.164758 33.157069 
L 281.774225 33.157069 
L 281.774225 29.324673 
L 282.309724 29.324673 
L 282.309724 25.492277 
L 282.537601 25.492277 
L 282.537601 21.659881 
L 282.810474 21.659881 
L 282.810474 17.827485 
L 283.154131 17.827485 
L 283.154131 13.995089 
L 284.348815 13.995089 
L 284.348815 10.162693 
L 285.794737 10.162693 
L 285.794737 6.330297 
L 285.794737 6.330297 
L 460.8 6.330297 
L 460.8 6.330297 
" clip-path="url(#p7e70d453c3)" style="fill: none; stroke: #00bfbf; stroke-width: 1.5; stroke-linecap: square"/>
   </g>
   <g id="line2d_23">
    <path d="M 190.800091 293.76 
L 190.800091 236.274059 
L 232.420936 236.274059 
L 232.420936 232.441663 
L 235.735359 232.441663 
L 235.780342 224.776871 
L 236.255909 224.776871 
L 236.255909 220.944475 
L 236.41574 220.944475 
L 236.447677 213.279683 
L 238.302128 213.279683 
L 238.302128 209.447287 
L 238.481733 209.447287 
L 238.481733 205.614891 
L 238.837251 205.614891 
L 238.837251 201.782495 
L 239.732876 201.782495 
L 239.732876 197.950099 
L 241.160465 197.950099 
L 241.160465 194.117703 
L 241.340361 194.117703 
L 241.340361 190.285307 
L 241.694119 190.285307 
L 241.694119 186.452911 
L 244.577248 186.452911 
L 244.577248 182.620515 
L 246.490323 182.620515 
L 246.490323 178.788119 
L 247.693689 178.788119 
L 247.693689 174.955723 
L 248.200352 174.955723 
L 248.200352 171.123327 
L 248.359045 171.123327 
L 248.359045 167.290931 
L 248.81781 167.290931 
L 248.81781 163.458535 
L 249.841803 163.458535 
L 249.841803 159.626139 
L 250.432588 159.626139 
L 250.432588 155.793743 
L 250.717937 155.793743 
L 250.717937 151.961347 
L 250.964068 151.961347 
L 250.964068 148.12895 
L 251.162452 148.12895 
L 251.162452 144.296554 
L 251.466516 144.296554 
L 251.466516 140.464158 
L 252.092381 140.464158 
L 252.092381 136.631762 
L 252.2599 136.631762 
L 252.2599 132.799366 
L 252.397393 132.799366 
L 252.504384 125.134574 
L 252.741109 125.134574 
L 252.743553 117.469782 
L 252.904607 117.469782 
L 252.904607 113.637386 
L 253.223396 113.637386 
L 253.223396 109.80499 
L 254.014913 109.80499 
L 254.041986 102.140198 
L 254.177207 102.140198 
L 254.177207 98.307802 
L 254.376825 98.307802 
L 254.376825 94.475406 
L 255.061043 94.475406 
L 255.061043 90.64301 
L 255.428975 90.64301 
L 255.428975 86.810614 
L 256.725435 86.810614 
L 256.725435 82.978218 
L 257.014385 82.978218 
L 257.014385 79.145822 
L 257.7612 79.145822 
L 257.7612 75.313426 
L 258.109839 75.313426 
L 258.109839 71.48103 
L 262.613456 71.48103 
L 262.613456 67.648634 
L 264.303746 67.648634 
L 264.303746 63.816238 
L 275.388525 63.816238 
L 275.388525 59.983842 
L 276.363946 59.983842 
L 276.363946 56.151446 
L 277.813159 56.151446 
L 277.813159 52.31905 
L 278.474404 52.31905 
L 278.474404 48.486653 
L 278.659066 48.486653 
L 278.659066 44.654257 
L 280.054744 44.654257 
L 280.082548 36.989465 
L 281.164758 36.989465 
L 281.164758 33.157069 
L 281.774225 33.157069 
L 281.774225 29.324673 
L 282.214302 29.324673 
L 282.214302 25.492277 
L 282.357929 25.492277 
L 282.357929 21.659881 
L 282.810474 21.659881 
L 282.810474 17.827485 
L 282.980101 17.827485 
L 282.980101 13.995089 
L 284.348815 13.995089 
L 284.348815 10.162693 
L 285.794737 10.162693 
L 285.794737 6.330297 
L 285.794737 6.330297 
L 460.8 6.330297 
L 460.8 6.330297 
" clip-path="url(#p7e70d453c3)" style="fill: none; stroke: #bf00bf; stroke-width: 1.5; stroke-linecap: square"/>
   </g>
   <g id="line2d_24">
    <path d="M 189.589652 293.76 
L 189.633959 286.095208 
L 189.757219 286.095208 
L 189.768537 278.430416 
L 189.929802 278.430416 
L 189.929802 274.59802 
L 190.058812 274.59802 
L 190.058812 270.765624 
L 190.200928 270.765624 
L 190.200928 266.933228 
L 190.800091 266.933228 
L 190.800091 236.274059 
L 231.021852 236.274059 
L 231.021852 232.441663 
L 231.474205 232.441663 
L 231.491662 224.776871 
L 232.420936 224.776871 
L 232.420936 220.944475 
L 232.920352 220.944475 
L 232.920352 217.112079 
L 235.780342 217.112079 
L 235.780342 213.279683 
L 236.173062 213.279683 
L 236.173062 209.447287 
L 236.384272 209.447287 
L 236.384272 205.614891 
L 238.007024 205.614891 
L 238.007024 201.782495 
L 238.302128 201.782495 
L 238.302128 197.950099 
L 238.837251 197.950099 
L 238.837251 194.117703 
L 240.310098 194.117703 
L 240.310098 190.285307 
L 241.340361 190.285307 
L 241.340361 186.452911 
L 243.364946 186.452911 
L 243.364946 182.620515 
L 245.392556 182.620515 
L 245.392556 178.788119 
L 245.659547 178.788119 
L 245.659547 174.955723 
L 246.970307 174.955723 
L 246.970307 171.123327 
L 247.539333 171.123327 
L 247.539333 167.290931 
L 247.677063 167.290931 
L 247.693689 159.626139 
L 248.012788 159.626139 
L 248.012788 155.793743 
L 248.694899 155.793743 
L 248.694899 151.961347 
L 248.992405 151.961347 
L 248.992405 148.12895 
L 249.797248 148.12895 
L 249.871611 140.464158 
L 250.432588 140.464158 
L 250.432588 136.631762 
L 250.887049 136.631762 
L 250.887049 132.799366 
L 251.162452 132.799366 
L 251.162452 128.96697 
L 251.466516 128.96697 
L 251.466516 125.134574 
L 251.590641 125.134574 
L 251.590641 121.302178 
L 252.092381 121.302178 
L 252.092381 117.469782 
L 252.345203 117.469782 
L 252.345203 113.637386 
L 252.504384 113.637386 
L 252.504384 109.80499 
L 252.853144 109.80499 
L 252.853144 105.972594 
L 253.223396 105.972594 
L 253.26346 98.307802 
L 253.999386 98.307802 
L 253.999386 94.475406 
L 254.284197 94.475406 
L 254.284197 90.64301 
L 254.721659 90.64301 
L 254.721659 86.810614 
L 255.428975 86.810614 
L 255.428975 82.978218 
L 255.658533 82.978218 
L 255.658533 79.145822 
L 256.262556 79.145822 
L 256.262556 75.313426 
L 257.554625 75.313426 
L 257.554625 71.48103 
L 261.721128 71.48103 
L 261.721128 67.648634 
L 263.614064 67.648634 
L 263.614064 63.816238 
L 273.521207 63.816238 
L 273.521207 59.983842 
L 273.774041 59.983842 
L 273.774041 56.151446 
L 276.219558 56.151446 
L 276.219558 52.31905 
L 276.661928 52.31905 
L 276.661928 48.486653 
L 276.942954 48.486653 
L 276.942954 44.654257 
L 277.263245 44.654257 
L 277.263245 40.821861 
L 277.713828 40.821861 
L 277.713828 36.989465 
L 279.728371 36.989465 
L 279.811907 29.324673 
L 280.822397 29.324673 
L 280.822397 25.492277 
L 281.096159 25.492277 
L 281.096159 21.659881 
L 281.311918 21.659881 
L 281.311918 17.827485 
L 282.357929 17.827485 
L 282.357929 13.995089 
L 283.159138 13.995089 
L 283.159138 10.162693 
L 284.978695 10.162693 
L 284.978695 6.330297 
L 284.978695 6.330297 
L 460.8 6.330297 
L 460.8 6.330297 
" clip-path="url(#p7e70d453c3)" style="fill: none; stroke: #000000; stroke-width: 1.5; stroke-linecap: square"/>
   </g>
   <g id="line2d_25">
    <path d="M 186.497182 293.76 
L 186.501251 286.095208 
L 186.66782 286.095208 
L 186.726183 270.765624 
L 187.054479 270.765624 
L 187.054479 266.933228 
L 190.800091 266.933228 
L 190.800091 236.274059 
L 226.392811 236.274059 
L 226.392811 232.441663 
L 227.133439 232.441663 
L 227.133439 228.609267 
L 228.203818 228.609267 
L 228.203818 224.776871 
L 229.053676 224.776871 
L 229.053676 220.944475 
L 232.420936 220.944475 
L 232.420936 217.112079 
L 233.743455 217.112079 
L 233.743455 213.279683 
L 234.472653 213.279683 
L 234.472653 209.447287 
L 235.780342 209.447287 
L 235.780342 205.614891 
L 236.438428 205.614891 
L 236.438428 201.782495 
L 238.302128 201.782495 
L 238.302128 197.950099 
L 238.559791 197.950099 
L 238.559791 194.117703 
L 238.837251 194.117703 
L 238.837251 190.285307 
L 241.340361 190.285307 
L 241.340361 186.452911 
L 242.736245 186.452911 
L 242.736245 182.620515 
L 244.044668 182.620515 
L 244.044668 178.788119 
L 244.337088 178.788119 
L 244.396493 171.123327 
L 245.488386 171.123327 
L 245.488386 167.290931 
L 245.826978 167.290931 
L 245.826978 163.458535 
L 247.62102 163.458535 
L 247.693689 155.793743 
L 248.599823 155.793743 
L 248.599823 151.961347 
L 248.853222 151.961347 
L 248.853222 148.12895 
L 249.010965 148.12895 
L 249.010965 144.296554 
L 249.616121 144.296554 
L 249.616121 140.464158 
L 249.813225 140.464158 
L 249.813225 136.631762 
L 250.432588 136.631762 
L 250.432588 132.799366 
L 250.858038 132.799366 
L 250.937021 125.134574 
L 251.162452 125.134574 
L 251.162452 121.302178 
L 251.309281 121.302178 
L 251.309281 117.469782 
L 251.466516 117.469782 
L 251.466516 113.637386 
L 252.092381 113.637386 
L 252.092381 109.80499 
L 252.295506 109.80499 
L 252.295506 105.972594 
L 252.504384 105.972594 
L 252.589817 98.307802 
L 252.799874 98.307802 
L 252.799874 94.475406 
L 253.223396 94.475406 
L 253.223396 90.64301 
L 253.952623 90.64301 
L 253.952623 86.810614 
L 254.266771 86.810614 
L 254.266771 82.978218 
L 255.428975 82.978218 
L 255.428975 79.145822 
L 255.627003 79.145822 
L 255.627003 75.313426 
L 257.048086 75.313426 
L 257.048086 71.48103 
L 260.58439 71.48103 
L 260.58439 67.648634 
L 261.531282 67.648634 
L 261.531282 63.816238 
L 270.393661 63.816238 
L 270.393661 59.983842 
L 271.342258 59.983842 
L 271.342258 56.151446 
L 273.370689 56.151446 
L 273.370689 52.31905 
L 274.499173 52.31905 
L 274.499173 48.486653 
L 275.24971 48.486653 
L 275.337611 40.821861 
L 276.638752 40.821861 
L 276.638752 36.989465 
L 278.654329 36.989465 
L 278.737527 29.324673 
L 280.051792 29.324673 
L 280.051792 25.492277 
L 280.430873 25.492277 
L 280.448939 17.827485 
L 282.279423 17.827485 
L 282.357929 10.162693 
L 284.107063 10.162693 
L 284.107063 6.330297 
L 284.107063 6.330297 
L 460.8 6.330297 
L 460.8 6.330297 
" clip-path="url(#p7e70d453c3)" style="fill: none; stroke: #00bfbf; stroke-width: 1.5; stroke-linecap: square"/>
   </g>
   <g id="patch_3">
    <path d="M 0 293.76 
L 0 3.456 
" style="fill: none; stroke: #000000; stroke-width: 0.8; stroke-linejoin: miter; stroke-linecap: square"/>
   </g>
   <g id="patch_4">
    <path d="M 460.8 293.76 
L 460.8 3.456 
" style="fill: none; stroke: #000000; stroke-width: 0.8; stroke-linejoin: miter; stroke-linecap: square"/>
   </g>
   <g id="patch_5">
    <path d="M 0 293.76 
L 460.8 293.76 
" style="fill: none; stroke: #000000; stroke-width: 0.8; stroke-linejoin: miter; stroke-linecap: square"/>
   </g>
   <g id="patch_6">
    <path d="M 0 3.456 
L 460.8 3.456 
" style="fill: none; stroke: #000000; stroke-width: 0.8; stroke-linejoin: miter; stroke-linecap: square"/>
   </g>
   <g id="text_6">
    <!-- {f15-f19}, 20-D -->
    <g transform="translate(293.159 287.95392) scale(0.2 -0.2)">
     <defs>
      <path id="DejaVuSans-7b" d="M 3272 -594 
L 3272 -1044 
L 3078 -1044 
Q 2300 -1044 2036 -812 
Q 1772 -581 1772 109 
L 1772 856 
Q 1772 1328 1603 1509 
Q 1434 1691 991 1691 
L 800 1691 
L 800 2138 
L 991 2138 
Q 1438 2138 1605 2317 
Q 1772 2497 1772 2963 
L 1772 3713 
Q 1772 4403 2036 4633 
Q 2300 4863 3078 4863 
L 3272 4863 
L 3272 4416 
L 3059 4416 
Q 2619 4416 2484 4278 
Q 2350 4141 2350 3700 
L 2350 2925 
Q 2350 2434 2208 2212 
Q 2066 1991 1722 1913 
Q 2069 1828 2209 1606 
Q 2350 1384 2350 897 
L 2350 122 
Q 2350 -319 2484 -456 
Q 2619 -594 3059 -594 
L 3272 -594 
z
" transform="scale(0.015625)"/>
      <path id="DejaVuSans-35" d="M 691 4666 
L 3169 4666 
L 3169 4134 
L 1269 4134 
L 1269 2991 
Q 1406 3038 1543 3061 
Q 1681 3084 1819 3084 
Q 2600 3084 3056 2656 
Q 3513 2228 3513 1497 
Q 3513 744 3044 326 
Q 2575 -91 1722 -91 
Q 1428 -91 1123 -41 
Q 819 9 494 109 
L 494 744 
Q 775 591 1075 516 
Q 1375 441 1709 441 
Q 2250 441 2565 725 
Q 2881 1009 2881 1497 
Q 2881 1984 2565 2268 
Q 2250 2553 1709 2553 
Q 1456 2553 1204 2497 
Q 953 2441 691 2322 
L 691 4666 
z
" transform="scale(0.015625)"/>
      <path id="DejaVuSans-39" d="M 703 97 
L 703 672 
Q 941 559 1184 500 
Q 1428 441 1663 441 
Q 2288 441 2617 861 
Q 2947 1281 2994 2138 
Q 2813 1869 2534 1725 
Q 2256 1581 1919 1581 
Q 1219 1581 811 2004 
Q 403 2428 403 3163 
Q 403 3881 828 4315 
Q 1253 4750 1959 4750 
Q 2769 4750 3195 4129 
Q 3622 3509 3622 2328 
Q 3622 1225 3098 567 
Q 2575 -91 1691 -91 
Q 1453 -91 1209 -44 
Q 966 3 703 97 
z
M 1959 2075 
Q 2384 2075 2632 2365 
Q 2881 2656 2881 3163 
Q 2881 3666 2632 3958 
Q 2384 4250 1959 4250 
Q 1534 4250 1286 3958 
Q 1038 3666 1038 3163 
Q 1038 2656 1286 2365 
Q 1534 2075 1959 2075 
z
" transform="scale(0.015625)"/>
      <path id="DejaVuSans-7d" d="M 800 -594 
L 1019 -594 
Q 1456 -594 1589 -459 
Q 1722 -325 1722 122 
L 1722 897 
Q 1722 1384 1862 1606 
Q 2003 1828 2350 1913 
Q 2003 1991 1862 2212 
Q 1722 2434 1722 2925 
L 1722 3700 
Q 1722 4144 1589 4280 
Q 1456 4416 1019 4416 
L 800 4416 
L 800 4863 
L 997 4863 
Q 1775 4863 2036 4633 
Q 2297 4403 2297 3713 
L 2297 2963 
Q 2297 2497 2465 2317 
Q 2634 2138 3078 2138 
L 3272 2138 
L 3272 1691 
L 3078 1691 
Q 2634 1691 2465 1509 
Q 2297 1328 2297 856 
L 2297 109 
Q 2297 -581 2036 -812 
Q 1775 -1044 997 -1044 
L 800 -1044 
L 800 -594 
z
" transform="scale(0.015625)"/>
      <path id="DejaVuSans-2c" d="M 750 794 
L 1409 794 
L 1409 256 
L 897 -744 
L 494 -744 
L 750 256 
L 750 794 
z
" transform="scale(0.015625)"/>
      <path id="DejaVuSans-32" d="M 1228 531 
L 3431 531 
L 3431 0 
L 469 0 
L 469 531 
Q 828 903 1448 1529 
Q 2069 2156 2228 2338 
Q 2531 2678 2651 2914 
Q 2772 3150 2772 3378 
Q 2772 3750 2511 3984 
Q 2250 4219 1831 4219 
Q 1534 4219 1204 4116 
Q 875 4013 500 3803 
L 500 4441 
Q 881 4594 1212 4672 
Q 1544 4750 1819 4750 
Q 2544 4750 2975 4387 
Q 3406 4025 3406 3419 
Q 3406 3131 3298 2873 
Q 3191 2616 2906 2266 
Q 2828 2175 2409 1742 
Q 1991 1309 1228 531 
z
" transform="scale(0.015625)"/>
     </defs>
     <use xlink:href="#DejaVuSans-7b"/>
     <use xlink:href="#DejaVuSans-66" x="63.623047"/>
     <use xlink:href="#DejaVuSans-31" x="98.828125"/>
     <use xlink:href="#DejaVuSans-35" x="162.451172"/>
     <use xlink:href="#DejaVuSans-2d" x="226.074219"/>
     <use xlink:href="#DejaVuSans-66" x="262.158203"/>
     <use xlink:href="#DejaVuSans-31" x="297.363281"/>
     <use xlink:href="#DejaVuSans-39" x="360.986328"/>
     <use xlink:href="#DejaVuSans-7d" x="424.609375"/>
     <use xlink:href="#DejaVuSans-2c" x="488.232422"/>
     <use xlink:href="#DejaVuSans-20" x="520.019531"/>
     <use xlink:href="#DejaVuSans-32" x="551.806641"/>
     <use xlink:href="#DejaVuSans-30" x="615.429688"/>
     <use xlink:href="#DejaVuSans-2d" x="679.052734"/>
     <use xlink:href="#DejaVuSans-44" x="715.136719"/>
    </g>
   </g>
   <g id="text_7">
    <!-- v2.6.3 -->
    <g style="fill: #808080" transform="translate(214.71875 288.777272) scale(0.1 -0.1)">
     <defs>
      <path id="DejaVuSans-76" d="M 191 3500 
L 800 3500 
L 1894 563 
L 2988 3500 
L 3597 3500 
L 2284 0 
L 1503 0 
L 191 3500 
z
" transform="scale(0.015625)"/>
      <path id="DejaVuSans-2e" d="M 684 794 
L 1344 794 
L 1344 0 
L 684 0 
L 684 794 
z
" transform="scale(0.015625)"/>
      <path id="DejaVuSans-36" d="M 2113 2584 
Q 1688 2584 1439 2293 
Q 1191 2003 1191 1497 
Q 1191 994 1439 701 
Q 1688 409 2113 409 
Q 2538 409 2786 701 
Q 3034 994 3034 1497 
Q 3034 2003 2786 2293 
Q 2538 2584 2113 2584 
z
M 3366 4563 
L 3366 3988 
Q 3128 4100 2886 4159 
Q 2644 4219 2406 4219 
Q 1781 4219 1451 3797 
Q 1122 3375 1075 2522 
Q 1259 2794 1537 2939 
Q 1816 3084 2150 3084 
Q 2853 3084 3261 2657 
Q 3669 2231 3669 1497 
Q 3669 778 3244 343 
Q 2819 -91 2113 -91 
Q 1303 -91 875 529 
Q 447 1150 447 2328 
Q 447 3434 972 4092 
Q 1497 4750 2381 4750 
Q 2619 4750 2861 4703 
Q 3103 4656 3366 4563 
z
" transform="scale(0.015625)"/>
      <path id="DejaVuSans-33" d="M 2597 2516 
Q 3050 2419 3304 2112 
Q 3559 1806 3559 1356 
Q 3559 666 3084 287 
Q 2609 -91 1734 -91 
Q 1441 -91 1130 -33 
Q 819 25 488 141 
L 488 750 
Q 750 597 1062 519 
Q 1375 441 1716 441 
Q 2309 441 2620 675 
Q 2931 909 2931 1356 
Q 2931 1769 2642 2001 
Q 2353 2234 1838 2234 
L 1294 2234 
L 1294 2753 
L 1863 2753 
Q 2328 2753 2575 2939 
Q 2822 3125 2822 3475 
Q 2822 3834 2567 4026 
Q 2313 4219 1838 4219 
Q 1578 4219 1281 4162 
Q 984 4106 628 3988 
L 628 4550 
Q 988 4650 1302 4700 
Q 1616 4750 1894 4750 
Q 2613 4750 3031 4423 
Q 3450 4097 3450 3541 
Q 3450 3153 3228 2886 
Q 3006 2619 2597 2516 
z
" transform="scale(0.015625)"/>
     </defs>
     <use xlink:href="#DejaVuSans-76"/>
     <use xlink:href="#DejaVuSans-32" x="59.179688"/>
     <use xlink:href="#DejaVuSans-2e" x="122.802734"/>
     <use xlink:href="#DejaVuSans-36" x="154.589844"/>
     <use xlink:href="#DejaVuSans-2e" x="218.212891"/>
     <use xlink:href="#DejaVuSans-33" x="250"/>
    </g>
   </g>
  </g>
 </g>
 <defs>
  <clipPath id="p7e70d453c3">
   <rect x="0" y="3.456" width="460.8" height="290.304"/>
  </clipPath>
 </defs>
</svg>
