<?xml version="1.0" encoding="utf-8" standalone="no"?>
<!DOCTYPE svg PUBLIC "-//W3C//DTD SVG 1.1//EN"
  "http://www.w3.org/Graphics/SVG/1.1/DTD/svg11.dtd">
<svg xmlns:xlink="http://www.w3.org/1999/xlink" width="460.8pt" height="345.6pt" viewBox="0 0 460.8 345.6" xmlns="http://www.w3.org/2000/svg" version="1.1">
 <metadata>
  <rdf:RDF xmlns:dc="http://purl.org/dc/elements/1.1/" xmlns:cc="http://creativecommons.org/ns#" xmlns:rdf="http://www.w3.org/1999/02/22-rdf-syntax-ns#">
   <cc:Work>
    <dc:type rdf:resource="http://purl.org/dc/dcmitype/StillImage"/>
    <dc:date>2024-01-23T11:32:34.342580</dc:date>
    <dc:format>image/svg+xml</dc:format>
    <dc:creator>
     <cc:Agent>
      <dc:title>Matplotlib v3.8.2, https://matplotlib.org/</dc:title>
     </cc:Agent>
    </dc:creator>
   </cc:Work>
  </rdf:RDF>
 </metadata>
 <defs>
  <style type="text/css">*{stroke-linejoin: round; stroke-linecap: butt}</style>
 </defs>
 <g id="figure_1">
  <g id="patch_1">
   <path d="M 0 345.6 
L 460.8 345.6 
L 460.8 0 
L 0 0 
z
" style="fill: #ffffff"/>
  </g>
  <g id="axes_1">
   <g id="patch_2">
    <path d="M 0 293.76 
L 460.8 293.76 
L 460.8 3.456 
L 0 3.456 
z
" style="fill: #ffffff"/>
   </g>
   <g id="matplotlib.axis_1">
    <g id="xtick_1">
     <g id="line2d_1">
      <path d="M 102.674388 293.76 
L 102.674388 3.456 
" clip-path="url(#p3cea9b33b5)" style="fill: none; stroke: #b0b0b0; stroke-width: 0.8; stroke-linecap: square"/>
     </g>
     <g id="line2d_2">
      <defs>
       <path id="m1d86eec3ef" d="M 0 0 
L 0 3.5 
" style="stroke: #000000; stroke-width: 0.8"/>
      </defs>
      <g>
       <use xlink:href="#m1d86eec3ef" x="102.674388" y="293.76" style="stroke: #000000; stroke-width: 0.8"/>
      </g>
     </g>
     <g id="text_1">
      <!-- -4 -->
      <g transform="translate(92.704075 315.956875) scale(0.2 -0.2)">
       <defs>
        <path id="DejaVuSans-2d" d="M 313 2009 
L 1997 2009 
L 1997 1497 
L 313 1497 
L 313 2009 
z
" transform="scale(0.015625)"/>
        <path id="DejaVuSans-34" d="M 2419 4116 
L 825 1625 
L 2419 1625 
L 2419 4116 
z
M 2253 4666 
L 3047 4666 
L 3047 1625 
L 3713 1625 
L 3713 1100 
L 3047 1100 
L 3047 0 
L 2419 0 
L 2419 1100 
L 313 1100 
L 313 1709 
L 2253 4666 
z
" transform="scale(0.015625)"/>
       </defs>
       <use xlink:href="#DejaVuSans-2d"/>
       <use xlink:href="#DejaVuSans-34" x="36.083984"/>
      </g>
     </g>
    </g>
    <g id="xtick_2">
     <g id="line2d_3">
      <path d="M 205.459819 293.76 
L 205.459819 3.456 
" clip-path="url(#p3cea9b33b5)" style="fill: none; stroke: #b0b0b0; stroke-width: 0.8; stroke-linecap: square"/>
     </g>
     <g id="line2d_4">
      <g>
       <use xlink:href="#m1d86eec3ef" x="205.459819" y="293.76" style="stroke: #000000; stroke-width: 0.8"/>
      </g>
     </g>
     <g id="text_2">
      <!-- 0 -->
      <g transform="translate(199.097319 315.956875) scale(0.2 -0.2)">
       <defs>
        <path id="DejaVuSans-30" d="M 2034 4250 
Q 1547 4250 1301 3770 
Q 1056 3291 1056 2328 
Q 1056 1369 1301 889 
Q 1547 409 2034 409 
Q 2525 409 2770 889 
Q 3016 1369 3016 2328 
Q 3016 3291 2770 3770 
Q 2525 4250 2034 4250 
z
M 2034 4750 
Q 2819 4750 3233 4129 
Q 3647 3509 3647 2328 
Q 3647 1150 3233 529 
Q 2819 -91 2034 -91 
Q 1250 -91 836 529 
Q 422 1150 422 2328 
Q 422 3509 836 4129 
Q 1250 4750 2034 4750 
z
" transform="scale(0.015625)"/>
       </defs>
       <use xlink:href="#DejaVuSans-30"/>
      </g>
     </g>
    </g>
    <g id="xtick_3">
     <g id="line2d_5">
      <path d="M 308.24525 293.76 
L 308.24525 3.456 
" clip-path="url(#p3cea9b33b5)" style="fill: none; stroke: #b0b0b0; stroke-width: 0.8; stroke-linecap: square"/>
     </g>
     <g id="line2d_6">
      <g>
       <use xlink:href="#m1d86eec3ef" x="308.24525" y="293.76" style="stroke: #000000; stroke-width: 0.8"/>
      </g>
     </g>
     <g id="text_3">
      <!-- 4 -->
      <g transform="translate(301.88275 315.956875) scale(0.2 -0.2)">
       <use xlink:href="#DejaVuSans-34"/>
      </g>
     </g>
    </g>
    <g id="xtick_4">
     <g id="line2d_7">
      <path d="M 411.030681 293.76 
L 411.030681 3.456 
" clip-path="url(#p3cea9b33b5)" style="fill: none; stroke: #b0b0b0; stroke-width: 0.8; stroke-linecap: square"/>
     </g>
     <g id="line2d_8">
      <g>
       <use xlink:href="#m1d86eec3ef" x="411.030681" y="293.76" style="stroke: #000000; stroke-width: 0.8"/>
      </g>
     </g>
     <g id="text_4">
      <!-- 8 -->
      <g transform="translate(404.668181 315.956875) scale(0.2 -0.2)">
       <defs>
        <path id="DejaVuSans-38" d="M 2034 2216 
Q 1584 2216 1326 1975 
Q 1069 1734 1069 1313 
Q 1069 891 1326 650 
Q 1584 409 2034 409 
Q 2484 409 2743 651 
Q 3003 894 3003 1313 
Q 3003 1734 2745 1975 
Q 2488 2216 2034 2216 
z
M 1403 2484 
Q 997 2584 770 2862 
Q 544 3141 544 3541 
Q 544 4100 942 4425 
Q 1341 4750 2034 4750 
Q 2731 4750 3128 4425 
Q 3525 4100 3525 3541 
Q 3525 3141 3298 2862 
Q 3072 2584 2669 2484 
Q 3125 2378 3379 2068 
Q 3634 1759 3634 1313 
Q 3634 634 3220 271 
Q 2806 -91 2034 -91 
Q 1263 -91 848 271 
Q 434 634 434 1313 
Q 434 1759 690 2068 
Q 947 2378 1403 2484 
z
M 1172 3481 
Q 1172 3119 1398 2916 
Q 1625 2713 2034 2713 
Q 2441 2713 2670 2916 
Q 2900 3119 2900 3481 
Q 2900 3844 2670 4047 
Q 2441 4250 2034 4250 
Q 1625 4250 1398 4047 
Q 1172 3844 1172 3481 
z
" transform="scale(0.015625)"/>
       </defs>
       <use xlink:href="#DejaVuSans-38"/>
      </g>
     </g>
    </g>
    <g id="text_5">
     <!-- log10 of Df -->
     <g transform="translate(175.214063 339.313125) scale(0.2 -0.2)">
      <defs>
       <path id="DejaVuSans-6c" d="M 603 4863 
L 1178 4863 
L 1178 0 
L 603 0 
L 603 4863 
z
" transform="scale(0.015625)"/>
       <path id="DejaVuSans-6f" d="M 1959 3097 
Q 1497 3097 1228 2736 
Q 959 2375 959 1747 
Q 959 1119 1226 758 
Q 1494 397 1959 397 
Q 2419 397 2687 759 
Q 2956 1122 2956 1747 
Q 2956 2369 2687 2733 
Q 2419 3097 1959 3097 
z
M 1959 3584 
Q 2709 3584 3137 3096 
Q 3566 2609 3566 1747 
Q 3566 888 3137 398 
Q 2709 -91 1959 -91 
Q 1206 -91 779 398 
Q 353 888 353 1747 
Q 353 2609 779 3096 
Q 1206 3584 1959 3584 
z
" transform="scale(0.015625)"/>
       <path id="DejaVuSans-67" d="M 2906 1791 
Q 2906 2416 2648 2759 
Q 2391 3103 1925 3103 
Q 1463 3103 1205 2759 
Q 947 2416 947 1791 
Q 947 1169 1205 825 
Q 1463 481 1925 481 
Q 2391 481 2648 825 
Q 2906 1169 2906 1791 
z
M 3481 434 
Q 3481 -459 3084 -895 
Q 2688 -1331 1869 -1331 
Q 1566 -1331 1297 -1286 
Q 1028 -1241 775 -1147 
L 775 -588 
Q 1028 -725 1275 -790 
Q 1522 -856 1778 -856 
Q 2344 -856 2625 -561 
Q 2906 -266 2906 331 
L 2906 616 
Q 2728 306 2450 153 
Q 2172 0 1784 0 
Q 1141 0 747 490 
Q 353 981 353 1791 
Q 353 2603 747 3093 
Q 1141 3584 1784 3584 
Q 2172 3584 2450 3431 
Q 2728 3278 2906 2969 
L 2906 3500 
L 3481 3500 
L 3481 434 
z
" transform="scale(0.015625)"/>
       <path id="DejaVuSans-31" d="M 794 531 
L 1825 531 
L 1825 4091 
L 703 3866 
L 703 4441 
L 1819 4666 
L 2450 4666 
L 2450 531 
L 3481 531 
L 3481 0 
L 794 0 
L 794 531 
z
" transform="scale(0.015625)"/>
       <path id="DejaVuSans-20" transform="scale(0.015625)"/>
       <path id="DejaVuSans-66" d="M 2375 4863 
L 2375 4384 
L 1825 4384 
Q 1516 4384 1395 4259 
Q 1275 4134 1275 3809 
L 1275 3500 
L 2222 3500 
L 2222 3053 
L 1275 3053 
L 1275 0 
L 697 0 
L 697 3053 
L 147 3053 
L 147 3500 
L 697 3500 
L 697 3744 
Q 697 4328 969 4595 
Q 1241 4863 1831 4863 
L 2375 4863 
z
" transform="scale(0.015625)"/>
       <path id="DejaVuSans-44" d="M 1259 4147 
L 1259 519 
L 2022 519 
Q 2988 519 3436 956 
Q 3884 1394 3884 2338 
Q 3884 3275 3436 3711 
Q 2988 4147 2022 4147 
L 1259 4147 
z
M 628 4666 
L 1925 4666 
Q 3281 4666 3915 4102 
Q 4550 3538 4550 2338 
Q 4550 1131 3912 565 
Q 3275 0 1925 0 
L 628 0 
L 628 4666 
z
" transform="scale(0.015625)"/>
      </defs>
      <use xlink:href="#DejaVuSans-6c"/>
      <use xlink:href="#DejaVuSans-6f" x="27.783203"/>
      <use xlink:href="#DejaVuSans-67" x="88.964844"/>
      <use xlink:href="#DejaVuSans-31" x="152.441406"/>
      <use xlink:href="#DejaVuSans-30" x="216.064453"/>
      <use xlink:href="#DejaVuSans-20" x="279.6875"/>
      <use xlink:href="#DejaVuSans-6f" x="311.474609"/>
      <use xlink:href="#DejaVuSans-66" x="372.65625"/>
      <use xlink:href="#DejaVuSans-20" x="407.861328"/>
      <use xlink:href="#DejaVuSans-44" x="439.648438"/>
      <use xlink:href="#DejaVuSans-66" x="516.650391"/>
     </g>
    </g>
   </g>
   <g id="matplotlib.axis_2">
    <g id="ytick_1">
     <g id="line2d_9">
      <path d="M 0 293.76 
L 460.8 293.76 
" clip-path="url(#p3cea9b33b5)" style="fill: none; stroke: #b0b0b0; stroke-width: 0.8; stroke-linecap: square"/>
     </g>
     <g id="line2d_10">
      <defs>
       <path id="md427b26f79" d="M 0 0 
L -3.5 0 
" style="stroke: #000000; stroke-width: 0.8"/>
      </defs>
      <g>
       <use xlink:href="#md427b26f79" x="0" y="293.76" style="stroke: #000000; stroke-width: 0.8"/>
      </g>
     </g>
    </g>
    <g id="ytick_2">
     <g id="line2d_11">
      <path d="M 0 236.274059 
L 460.8 236.274059 
" clip-path="url(#p3cea9b33b5)" style="fill: none; stroke: #b0b0b0; stroke-width: 0.8; stroke-linecap: square"/>
     </g>
     <g id="line2d_12">
      <g>
       <use xlink:href="#md427b26f79" x="0" y="236.274059" style="stroke: #000000; stroke-width: 0.8"/>
      </g>
     </g>
    </g>
    <g id="ytick_3">
     <g id="line2d_13">
      <path d="M 0 178.788119 
L 460.8 178.788119 
" clip-path="url(#p3cea9b33b5)" style="fill: none; stroke: #b0b0b0; stroke-width: 0.8; stroke-linecap: square"/>
     </g>
     <g id="line2d_14">
      <g>
       <use xlink:href="#md427b26f79" x="0" y="178.788119" style="stroke: #000000; stroke-width: 0.8"/>
      </g>
     </g>
    </g>
    <g id="ytick_4">
     <g id="line2d_15">
      <path d="M 0 121.302178 
L 460.8 121.302178 
" clip-path="url(#p3cea9b33b5)" style="fill: none; stroke: #b0b0b0; stroke-width: 0.8; stroke-linecap: square"/>
     </g>
     <g id="line2d_16">
      <g>
       <use xlink:href="#md427b26f79" x="0" y="121.302178" style="stroke: #000000; stroke-width: 0.8"/>
      </g>
     </g>
    </g>
    <g id="ytick_5">
     <g id="line2d_17">
      <path d="M 0 63.816238 
L 460.8 63.816238 
" clip-path="url(#p3cea9b33b5)" style="fill: none; stroke: #b0b0b0; stroke-width: 0.8; stroke-linecap: square"/>
     </g>
     <g id="line2d_18">
      <g>
       <use xlink:href="#md427b26f79" x="0" y="63.816238" style="stroke: #000000; stroke-width: 0.8"/>
      </g>
     </g>
    </g>
    <g id="ytick_6">
     <g id="line2d_19">
      <path d="M 0 6.330297 
L 460.8 6.330297 
" clip-path="url(#p3cea9b33b5)" style="fill: none; stroke: #b0b0b0; stroke-width: 0.8; stroke-linecap: square"/>
     </g>
     <g id="line2d_20">
      <g>
       <use xlink:href="#md427b26f79" x="0" y="6.330297" style="stroke: #000000; stroke-width: 0.8"/>
      </g>
     </g>
    </g>
   </g>
   <g id="line2d_21">
    <path d="M 192.564641 293.76 
L 192.564641 288.969505 
L 193.905959 288.969505 
L 193.905959 284.17901 
L 194.264315 284.17901 
L 194.264315 279.388515 
L 195.281665 279.388515 
L 195.281665 274.59802 
L 196.468952 274.59802 
L 196.468952 269.807525 
L 197.816939 269.807525 
L 197.816939 265.01703 
L 197.871181 265.01703 
L 197.871181 260.226535 
L 198.572304 260.226535 
L 198.572304 255.43604 
L 199.81907 255.43604 
L 199.81907 250.645545 
L 199.989699 250.645545 
L 199.989699 245.85505 
L 200.682314 245.85505 
L 200.682314 241.064554 
L 200.755668 241.064554 
L 200.755668 236.274059 
L 202.294203 236.274059 
L 202.294203 231.483564 
L 208.427044 231.483564 
L 208.427044 226.693069 
L 208.867653 226.693069 
L 208.867653 221.902574 
L 211.691281 221.902574 
L 211.691281 217.112079 
L 212.26181 217.112079 
L 212.26181 212.321584 
L 213.454756 212.321584 
L 213.454756 207.531089 
L 213.895709 207.531089 
L 213.895709 202.740594 
L 215.071475 202.740594 
L 215.071475 197.950099 
L 217.436654 197.950099 
L 217.436654 193.159604 
L 220.196024 193.159604 
L 220.196024 188.369109 
L 220.743027 188.369109 
L 220.743027 183.578614 
L 220.947342 183.578614 
L 220.947342 178.788119 
L 225.993871 178.788119 
L 225.993871 173.997624 
L 229.590284 173.997624 
L 229.590284 169.207129 
L 230.647704 169.207129 
L 230.647704 164.416634 
L 232.312214 164.416634 
L 232.312214 159.626139 
L 232.943442 159.626139 
L 232.943442 154.835644 
L 233.626119 154.835644 
L 233.626119 150.045149 
L 233.818973 150.045149 
L 233.818973 145.254653 
L 235.780863 145.254653 
L 235.780863 140.464158 
L 239.061562 140.464158 
L 239.061562 135.673663 
L 239.704135 135.673663 
L 239.704135 130.883168 
L 239.773822 130.883168 
L 239.773822 126.092673 
L 239.866923 126.092673 
L 239.866923 121.302178 
L 240.192577 121.302178 
L 240.192577 116.511683 
L 240.382357 116.511683 
L 240.382357 111.721188 
L 240.571325 111.721188 
L 240.571325 106.930693 
L 241.301357 106.930693 
L 241.301357 102.140198 
L 242.29632 102.140198 
L 242.29632 97.349703 
L 247.213017 97.349703 
L 247.213017 92.559208 
L 248.16894 92.559208 
L 248.16894 87.768713 
L 248.441838 87.768713 
L 248.441838 82.978218 
L 248.879206 82.978218 
L 248.879206 78.187723 
L 249.375291 78.187723 
L 249.375291 73.397228 
L 250.231055 73.397228 
L 250.231055 68.606733 
L 250.279201 68.606733 
L 250.279201 63.816238 
L 250.771057 63.816238 
L 250.771057 59.025743 
L 251.892251 59.025743 
L 251.892251 54.235248 
L 255.779872 54.235248 
L 255.779872 49.444752 
L 256.443345 49.444752 
L 256.443345 44.654257 
L 256.624576 44.654257 
L 256.624576 39.863762 
L 259.835142 39.863762 
L 259.835142 35.073267 
L 261.524385 35.073267 
L 261.524385 30.282772 
L 262.40708 30.282772 
L 262.40708 25.492277 
L 265.038088 25.492277 
L 265.038088 20.701782 
L 272.685043 20.701782 
L 272.685043 15.911287 
L 282.02583 15.911287 
L 282.02583 11.120792 
L 282.094644 11.120792 
L 282.094644 6.330297 
L 282.094644 6.330297 
L 282.094644 6.330297 
L 460.8 6.330297 
" clip-path="url(#p3cea9b33b5)" style="fill: none; stroke: #ff0000; stroke-width: 3; stroke-linecap: square"/>
   </g>
   <g id="line2d_22">
    <path d="M 234.182512 293.76 
L 234.182512 288.969505 
L 241.81948 288.969505 
L 241.81948 284.17901 
L 241.81948 284.17901 
L 241.81948 279.388515 
L 241.81948 279.388515 
L 241.81948 274.59802 
L 241.81948 274.59802 
L 241.81948 269.807525 
L 241.81948 269.807525 
L 241.81948 265.01703 
L 241.81948 265.01703 
L 241.81948 260.226535 
L 241.81948 260.226535 
L 241.81948 255.43604 
L 241.81948 255.43604 
L 241.81948 250.645545 
L 241.81948 250.645545 
L 241.81948 245.85505 
L 241.81948 245.85505 
L 241.81948 241.064554 
L 241.81948 241.064554 
L 241.81948 236.274059 
L 241.81948 236.274059 
L 241.81948 231.483564 
L 241.81948 231.483564 
L 241.81948 226.693069 
L 241.81948 226.693069 
L 241.81948 221.902574 
L 241.81948 221.902574 
L 241.81948 217.112079 
L 244.373529 217.112079 
L 244.373529 212.321584 
L 248.198597 212.321584 
L 248.198597 207.531089 
L 252.338347 207.531089 
L 252.338347 202.740594 
L 256.395112 202.740594 
L 256.395112 197.950099 
L 256.66742 197.950099 
L 256.66742 193.159604 
L 258.368809 193.159604 
L 258.368809 188.369109 
L 261.753662 188.369109 
L 261.753662 183.578614 
L 261.943847 183.578614 
L 261.943847 178.788119 
L 263.151179 178.788119 
L 263.151179 173.997624 
L 271.78814 173.997624 
L 271.78814 169.207129 
L 273.990554 169.207129 
L 273.990554 164.416634 
L 274.459197 164.416634 
L 274.459197 159.626139 
L 275.388196 159.626139 
L 275.388196 154.835644 
L 275.409797 154.835644 
L 275.409797 150.045149 
L 279.082527 150.045149 
L 279.082527 145.254653 
L 284.818799 145.254653 
L 284.818799 140.464158 
L 285.030917 140.464158 
L 285.030917 135.673663 
L 285.706709 135.673663 
L 285.706709 130.883168 
L 292.390195 130.883168 
L 292.390195 126.092673 
L 293.754506 126.092673 
L 293.754506 121.302178 
L 306.215512 121.302178 
L 306.215512 116.511683 
L 309.775615 116.511683 
L 309.775615 111.721188 
L 312.380971 111.721188 
L 312.380971 106.930693 
L 313.412422 106.930693 
L 313.412422 102.140198 
L 314.963013 102.140198 
L 314.963013 97.349703 
L 315.210645 97.349703 
L 315.210645 92.559208 
L 317.284005 92.559208 
L 317.284005 87.768713 
L 318.117742 87.768713 
L 318.117742 82.978218 
L 318.838976 82.978218 
L 318.838976 78.187723 
L 322.279253 78.187723 
L 322.279253 73.397228 
L 324.192831 73.397228 
L 324.192831 68.606733 
L 324.766228 68.606733 
L 324.766228 63.816238 
L 327.283258 63.816238 
L 327.283258 59.025743 
L 328.415198 59.025743 
L 328.415198 54.235248 
L 328.741289 54.235248 
L 328.741289 49.444752 
L 328.907215 49.444752 
L 328.907215 44.654257 
L 333.100507 44.654257 
L 333.100507 39.863762 
L 336.522312 39.863762 
L 336.522312 35.073267 
L 339.288645 35.073267 
L 339.288645 30.282772 
L 348.000103 30.282772 
L 348.000103 25.492277 
L 350.354555 25.492277 
L 350.354555 20.701782 
L 353.127595 20.701782 
L 353.127595 15.911287 
L 353.533207 15.911287 
L 353.533207 11.120792 
L 353.605734 11.120792 
L 353.605734 6.330297 
L 353.605734 6.330297 
L 353.605734 6.330297 
L 460.8 6.330297 
" clip-path="url(#p3cea9b33b5)" style="fill: none; stroke: #00bfbf; stroke-width: 1.5; stroke-linecap: square"/>
   </g>
   <g id="line2d_23">
    <path d="M 230.647704 293.76 
L 230.647704 288.969505 
L 239.600691 288.969505 
L 239.600691 284.17901 
L 239.773822 284.17901 
L 239.773822 279.388515 
L 239.809387 279.388515 
L 239.809387 274.59802 
L 239.822305 274.59802 
L 239.822305 269.807525 
L 239.866923 269.807525 
L 239.866923 265.01703 
L 239.883172 265.01703 
L 239.883172 260.226535 
L 240.192577 260.226535 
L 240.192577 255.43604 
L 240.290828 255.43604 
L 240.290828 250.645545 
L 240.519047 250.645545 
L 240.519047 245.85505 
L 240.571325 245.85505 
L 240.571325 241.064554 
L 240.834088 241.064554 
L 240.834088 236.274059 
L 241.523836 236.274059 
L 241.523836 231.483564 
L 241.698784 231.483564 
L 241.698784 226.693069 
L 241.81948 226.693069 
L 241.81948 221.902574 
L 241.81948 221.902574 
L 241.81948 217.112079 
L 243.495454 217.112079 
L 243.495454 212.321584 
L 248.198597 212.321584 
L 248.198597 207.531089 
L 251.892251 207.531089 
L 251.892251 202.740594 
L 256.1624 202.740594 
L 256.1624 197.950099 
L 256.66742 197.950099 
L 256.66742 193.159604 
L 258.368809 193.159604 
L 258.368809 188.369109 
L 260.144917 188.369109 
L 260.144917 183.578614 
L 261.339854 183.578614 
L 261.339854 178.788119 
L 261.753662 178.788119 
L 261.753662 173.997624 
L 271.657194 173.997624 
L 271.657194 169.207129 
L 273.208603 169.207129 
L 273.208603 164.416634 
L 273.284906 164.416634 
L 273.284906 159.626139 
L 273.934858 159.626139 
L 273.934858 154.835644 
L 273.990554 154.835644 
L 273.990554 150.045149 
L 277.117909 150.045149 
L 277.117909 145.254653 
L 283.990996 145.254653 
L 283.990996 140.464158 
L 284.901716 140.464158 
L 284.901716 135.673663 
L 285.652166 135.673663 
L 285.652166 130.883168 
L 292.008142 130.883168 
L 292.008142 126.092673 
L 293.51636 126.092673 
L 293.51636 121.302178 
L 306.013504 121.302178 
L 306.013504 116.511683 
L 309.775615 116.511683 
L 309.775615 111.721188 
L 312.342603 111.721188 
L 312.342603 106.930693 
L 313.224817 106.930693 
L 313.224817 102.140198 
L 314.78847 102.140198 
L 314.78847 97.349703 
L 315.173049 97.349703 
L 315.173049 92.559208 
L 315.829962 92.559208 
L 315.829962 87.768713 
L 317.977874 87.768713 
L 317.977874 82.978218 
L 318.763442 82.978218 
L 318.763442 78.187723 
L 322.188118 78.187723 
L 322.188118 73.397228 
L 324.119344 73.397228 
L 324.119344 68.606733 
L 324.766228 68.606733 
L 324.766228 63.816238 
L 326.745205 63.816238 
L 326.745205 59.025743 
L 327.693501 59.025743 
L 327.693501 54.235248 
L 328.716573 54.235248 
L 328.716573 49.444752 
L 328.773225 49.444752 
L 328.773225 44.654257 
L 332.676001 44.654257 
L 332.676001 39.863762 
L 336.431148 39.863762 
L 336.431148 35.073267 
L 338.973832 35.073267 
L 338.973832 30.282772 
L 347.675628 30.282772 
L 347.675628 25.492277 
L 350.354555 25.492277 
L 350.354555 20.701782 
L 353.087058 20.701782 
L 353.087058 15.911287 
L 353.523118 15.911287 
L 353.523118 11.120792 
L 353.576506 11.120792 
L 353.576506 6.330297 
L 353.576506 6.330297 
L 353.576506 6.330297 
L 460.8 6.330297 
" clip-path="url(#p3cea9b33b5)" style="fill: none; stroke: #bf00bf; stroke-width: 1.5; stroke-linecap: square"/>
   </g>
   <g id="line2d_24">
    <path d="M 204.394893 293.76 
L 204.394893 288.969505 
L 222.884259 288.969505 
L 222.884259 284.17901 
L 225.237113 284.17901 
L 225.237113 279.388515 
L 225.269035 279.388515 
L 225.269035 274.59802 
L 226.646486 274.59802 
L 226.646486 269.807525 
L 230.647704 269.807525 
L 230.647704 265.01703 
L 231.335247 265.01703 
L 231.335247 260.226535 
L 231.648152 260.226535 
L 231.648152 255.43604 
L 232.384568 255.43604 
L 232.384568 250.645545 
L 233.065992 250.645545 
L 233.065992 245.85505 
L 234.656175 245.85505 
L 234.656175 241.064554 
L 236.615408 241.064554 
L 236.615408 236.274059 
L 239.773822 236.274059 
L 239.773822 231.483564 
L 239.866923 231.483564 
L 239.866923 226.693069 
L 240.192577 226.693069 
L 240.192577 221.902574 
L 240.571325 221.902574 
L 240.571325 217.112079 
L 243.495454 217.112079 
L 243.495454 212.321584 
L 245.201545 212.321584 
L 245.201545 207.531089 
L 248.198597 207.531089 
L 248.198597 202.740594 
L 251.280179 202.740594 
L 251.280179 197.950099 
L 251.892251 197.950099 
L 251.892251 193.159604 
L 255.217331 193.159604 
L 255.217331 188.369109 
L 256.66742 188.369109 
L 256.66742 183.578614 
L 258.368809 183.578614 
L 258.368809 178.788119 
L 260.144917 178.788119 
L 260.144917 173.997624 
L 261.743889 173.997624 
L 261.743889 169.207129 
L 267.347034 169.207129 
L 267.347034 164.416634 
L 271.898664 164.416634 
L 271.898664 159.626139 
L 272.365209 159.626139 
L 272.365209 154.835644 
L 272.610708 154.835644 
L 272.610708 150.045149 
L 273.208603 150.045149 
L 273.208603 145.254653 
L 273.284906 145.254653 
L 273.284906 140.464158 
L 273.934858 140.464158 
L 273.934858 135.673663 
L 273.990554 135.673663 
L 273.990554 130.883168 
L 277.117909 130.883168 
L 277.117909 126.092673 
L 284.187556 126.092673 
L 284.187556 121.302178 
L 284.693473 121.302178 
L 284.693473 116.511683 
L 285.554508 116.511683 
L 285.554508 111.721188 
L 286.704054 111.721188 
L 286.704054 106.930693 
L 290.020292 106.930693 
L 290.020292 102.140198 
L 290.448473 102.140198 
L 290.448473 97.349703 
L 295.260001 97.349703 
L 295.260001 92.559208 
L 295.598618 92.559208 
L 295.598618 87.768713 
L 295.954745 87.768713 
L 295.954745 82.978218 
L 297.121201 82.978218 
L 297.121201 78.187723 
L 297.412274 78.187723 
L 297.412274 73.397228 
L 297.464146 73.397228 
L 297.464146 68.606733 
L 299.480295 68.606733 
L 299.480295 63.816238 
L 300.160455 63.816238 
L 300.160455 59.025743 
L 301.841962 59.025743 
L 301.841962 54.235248 
L 304.255115 54.235248 
L 304.255115 49.444752 
L 307.90171 49.444752 
L 307.90171 44.654257 
L 315.693865 44.654257 
L 315.693865 39.863762 
L 321.772193 39.863762 
L 321.772193 35.073267 
L 327.051519 35.073267 
L 327.051519 30.282772 
L 328.732825 30.282772 
L 328.732825 25.492277 
L 328.914578 25.492277 
L 328.914578 20.701782 
L 333.441229 20.701782 
L 333.441229 15.911287 
L 338.334199 15.911287 
L 338.334199 11.120792 
L 344.755805 11.120792 
L 344.755805 6.330297 
L 344.755805 6.330297 
L 344.755805 6.330297 
L 460.8 6.330297 
" clip-path="url(#p3cea9b33b5)" style="fill: none; stroke: #000000; stroke-width: 1.5; stroke-linecap: square"/>
   </g>
   <g id="line2d_25">
    <path d="M 198.084736 293.76 
L 198.084736 288.969505 
L 198.290966 288.969505 
L 198.290966 284.17901 
L 198.624047 284.17901 
L 198.624047 279.388515 
L 199.078396 279.388515 
L 199.078396 274.59802 
L 200.496723 274.59802 
L 200.496723 269.807525 
L 202.047895 269.807525 
L 202.047895 265.01703 
L 203.779299 265.01703 
L 203.779299 260.226535 
L 203.997403 260.226535 
L 203.997403 255.43604 
L 205.620425 255.43604 
L 205.620425 250.645545 
L 205.63666 250.645545 
L 205.63666 245.85505 
L 205.987135 245.85505 
L 205.987135 241.064554 
L 217.335164 241.064554 
L 217.335164 236.274059 
L 218.246255 236.274059 
L 218.246255 231.483564 
L 222.936668 231.483564 
L 222.936668 226.693069 
L 223.364479 226.693069 
L 223.364479 221.902574 
L 223.963023 221.902574 
L 223.963023 217.112079 
L 227.481039 217.112079 
L 227.481039 212.321584 
L 230.647704 212.321584 
L 230.647704 207.531089 
L 233.647262 207.531089 
L 233.647262 202.740594 
L 234.116362 202.740594 
L 234.116362 197.950099 
L 234.877638 197.950099 
L 234.877638 193.159604 
L 237.270729 193.159604 
L 237.270729 188.369109 
L 239.061562 188.369109 
L 239.061562 183.578614 
L 239.704135 183.578614 
L 239.704135 178.788119 
L 239.773822 178.788119 
L 239.773822 173.997624 
L 239.866923 173.997624 
L 239.866923 169.207129 
L 240.192577 169.207129 
L 240.192577 164.416634 
L 240.571325 164.416634 
L 240.571325 159.626139 
L 242.319363 159.626139 
L 242.319363 154.835644 
L 244.368847 154.835644 
L 244.368847 150.045149 
L 246.450768 150.045149 
L 246.450768 145.254653 
L 247.972612 145.254653 
L 247.972612 140.464158 
L 248.02575 140.464158 
L 248.02575 135.673663 
L 248.461353 135.673663 
L 248.461353 130.883168 
L 248.879206 130.883168 
L 248.879206 126.092673 
L 249.375291 126.092673 
L 249.375291 121.302178 
L 250.266444 121.302178 
L 250.266444 116.511683 
L 250.770406 116.511683 
L 250.770406 111.721188 
L 250.891584 111.721188 
L 250.891584 106.930693 
L 251.455757 106.930693 
L 251.455757 102.140198 
L 251.817708 102.140198 
L 251.817708 97.349703 
L 251.892251 97.349703 
L 251.892251 92.559208 
L 252.42443 92.559208 
L 252.42443 87.768713 
L 254.876064 87.768713 
L 254.876064 82.978218 
L 256.624576 82.978218 
L 256.624576 78.187723 
L 256.66742 78.187723 
L 256.66742 73.397228 
L 259.690259 73.397228 
L 259.690259 68.606733 
L 259.97439 68.606733 
L 259.97439 63.816238 
L 260.144917 63.816238 
L 260.144917 59.025743 
L 261.524385 59.025743 
L 261.524385 54.235248 
L 262.575066 54.235248 
L 262.575066 49.444752 
L 265.261775 49.444752 
L 265.261775 44.654257 
L 265.818807 44.654257 
L 265.818807 39.863762 
L 268.715953 39.863762 
L 268.715953 35.073267 
L 269.592978 35.073267 
L 269.592978 30.282772 
L 273.208603 30.282772 
L 273.208603 25.492277 
L 273.86342 25.492277 
L 273.86342 20.701782 
L 282.02583 20.701782 
L 282.02583 15.911287 
L 282.548582 15.911287 
L 282.548582 11.120792 
L 292.256567 11.120792 
L 292.256567 6.330297 
L 292.256567 6.330297 
L 292.256567 6.330297 
L 460.8 6.330297 
" clip-path="url(#p3cea9b33b5)" style="fill: none; stroke: #00bfbf; stroke-width: 1.5; stroke-linecap: square"/>
   </g>
   <g id="patch_3">
    <path d="M 0 293.76 
L 0 3.456 
" style="fill: none; stroke: #000000; stroke-width: 0.8; stroke-linejoin: miter; stroke-linecap: square"/>
   </g>
   <g id="patch_4">
    <path d="M 460.8 293.76 
L 460.8 3.456 
" style="fill: none; stroke: #000000; stroke-width: 0.8; stroke-linejoin: miter; stroke-linecap: square"/>
   </g>
   <g id="patch_5">
    <path d="M 0 293.76 
L 460.8 293.76 
" style="fill: none; stroke: #000000; stroke-width: 0.8; stroke-linejoin: miter; stroke-linecap: square"/>
   </g>
   <g id="patch_6">
    <path d="M 0 3.456 
L 460.8 3.456 
" style="fill: none; stroke: #000000; stroke-width: 0.8; stroke-linejoin: miter; stroke-linecap: square"/>
   </g>
   <g id="text_6">
    <!-- {f6-f9}, 5-D -->
    <g transform="translate(331.334 287.95392) scale(0.2 -0.2)">
     <defs>
      <path id="DejaVuSans-7b" d="M 3272 -594 
L 3272 -1044 
L 3078 -1044 
Q 2300 -1044 2036 -812 
Q 1772 -581 1772 109 
L 1772 856 
Q 1772 1328 1603 1509 
Q 1434 1691 991 1691 
L 800 1691 
L 800 2138 
L 991 2138 
Q 1438 2138 1605 2317 
Q 1772 2497 1772 2963 
L 1772 3713 
Q 1772 4403 2036 4633 
Q 2300 4863 3078 4863 
L 3272 4863 
L 3272 4416 
L 3059 4416 
Q 2619 4416 2484 4278 
Q 2350 4141 2350 3700 
L 2350 2925 
Q 2350 2434 2208 2212 
Q 2066 1991 1722 1913 
Q 2069 1828 2209 1606 
Q 2350 1384 2350 897 
L 2350 122 
Q 2350 -319 2484 -456 
Q 2619 -594 3059 -594 
L 3272 -594 
z
" transform="scale(0.015625)"/>
      <path id="DejaVuSans-36" d="M 2113 2584 
Q 1688 2584 1439 2293 
Q 1191 2003 1191 1497 
Q 1191 994 1439 701 
Q 1688 409 2113 409 
Q 2538 409 2786 701 
Q 3034 994 3034 1497 
Q 3034 2003 2786 2293 
Q 2538 2584 2113 2584 
z
M 3366 4563 
L 3366 3988 
Q 3128 4100 2886 4159 
Q 2644 4219 2406 4219 
Q 1781 4219 1451 3797 
Q 1122 3375 1075 2522 
Q 1259 2794 1537 2939 
Q 1816 3084 2150 3084 
Q 2853 3084 3261 2657 
Q 3669 2231 3669 1497 
Q 3669 778 3244 343 
Q 2819 -91 2113 -91 
Q 1303 -91 875 529 
Q 447 1150 447 2328 
Q 447 3434 972 4092 
Q 1497 4750 2381 4750 
Q 2619 4750 2861 4703 
Q 3103 4656 3366 4563 
z
" transform="scale(0.015625)"/>
      <path id="DejaVuSans-39" d="M 703 97 
L 703 672 
Q 941 559 1184 500 
Q 1428 441 1663 441 
Q 2288 441 2617 861 
Q 2947 1281 2994 2138 
Q 2813 1869 2534 1725 
Q 2256 1581 1919 1581 
Q 1219 1581 811 2004 
Q 403 2428 403 3163 
Q 403 3881 828 4315 
Q 1253 4750 1959 4750 
Q 2769 4750 3195 4129 
Q 3622 3509 3622 2328 
Q 3622 1225 3098 567 
Q 2575 -91 1691 -91 
Q 1453 -91 1209 -44 
Q 966 3 703 97 
z
M 1959 2075 
Q 2384 2075 2632 2365 
Q 2881 2656 2881 3163 
Q 2881 3666 2632 3958 
Q 2384 4250 1959 4250 
Q 1534 4250 1286 3958 
Q 1038 3666 1038 3163 
Q 1038 2656 1286 2365 
Q 1534 2075 1959 2075 
z
" transform="scale(0.015625)"/>
      <path id="DejaVuSans-7d" d="M 800 -594 
L 1019 -594 
Q 1456 -594 1589 -459 
Q 1722 -325 1722 122 
L 1722 897 
Q 1722 1384 1862 1606 
Q 2003 1828 2350 1913 
Q 2003 1991 1862 2212 
Q 1722 2434 1722 2925 
L 1722 3700 
Q 1722 4144 1589 4280 
Q 1456 4416 1019 4416 
L 800 4416 
L 800 4863 
L 997 4863 
Q 1775 4863 2036 4633 
Q 2297 4403 2297 3713 
L 2297 2963 
Q 2297 2497 2465 2317 
Q 2634 2138 3078 2138 
L 3272 2138 
L 3272 1691 
L 3078 1691 
Q 2634 1691 2465 1509 
Q 2297 1328 2297 856 
L 2297 109 
Q 2297 -581 2036 -812 
Q 1775 -1044 997 -1044 
L 800 -1044 
L 800 -594 
z
" transform="scale(0.015625)"/>
      <path id="DejaVuSans-2c" d="M 750 794 
L 1409 794 
L 1409 256 
L 897 -744 
L 494 -744 
L 750 256 
L 750 794 
z
" transform="scale(0.015625)"/>
      <path id="DejaVuSans-35" d="M 691 4666 
L 3169 4666 
L 3169 4134 
L 1269 4134 
L 1269 2991 
Q 1406 3038 1543 3061 
Q 1681 3084 1819 3084 
Q 2600 3084 3056 2656 
Q 3513 2228 3513 1497 
Q 3513 744 3044 326 
Q 2575 -91 1722 -91 
Q 1428 -91 1123 -41 
Q 819 9 494 109 
L 494 744 
Q 775 591 1075 516 
Q 1375 441 1709 441 
Q 2250 441 2565 725 
Q 2881 1009 2881 1497 
Q 2881 1984 2565 2268 
Q 2250 2553 1709 2553 
Q 1456 2553 1204 2497 
Q 953 2441 691 2322 
L 691 4666 
z
" transform="scale(0.015625)"/>
     </defs>
     <use xlink:href="#DejaVuSans-7b"/>
     <use xlink:href="#DejaVuSans-66" x="63.623047"/>
     <use xlink:href="#DejaVuSans-36" x="98.828125"/>
     <use xlink:href="#DejaVuSans-2d" x="162.451172"/>
     <use xlink:href="#DejaVuSans-66" x="198.535156"/>
     <use xlink:href="#DejaVuSans-39" x="233.740234"/>
     <use xlink:href="#DejaVuSans-7d" x="297.363281"/>
     <use xlink:href="#DejaVuSans-2c" x="360.986328"/>
     <use xlink:href="#DejaVuSans-20" x="392.773438"/>
     <use xlink:href="#DejaVuSans-35" x="424.560547"/>
     <use xlink:href="#DejaVuSans-2d" x="488.183594"/>
     <use xlink:href="#DejaVuSans-44" x="524.267578"/>
    </g>
   </g>
   <g id="text_7">
    <!-- v2.6.3 -->
    <g style="fill: #808080" transform="translate(214.71875 288.777272) scale(0.1 -0.1)">
     <defs>
      <path id="DejaVuSans-76" d="M 191 3500 
L 800 3500 
L 1894 563 
L 2988 3500 
L 3597 3500 
L 2284 0 
L 1503 0 
L 191 3500 
z
" transform="scale(0.015625)"/>
      <path id="DejaVuSans-32" d="M 1228 531 
L 3431 531 
L 3431 0 
L 469 0 
L 469 531 
Q 828 903 1448 1529 
Q 2069 2156 2228 2338 
Q 2531 2678 2651 2914 
Q 2772 3150 2772 3378 
Q 2772 3750 2511 3984 
Q 2250 4219 1831 4219 
Q 1534 4219 1204 4116 
Q 875 4013 500 3803 
L 500 4441 
Q 881 4594 1212 4672 
Q 1544 4750 1819 4750 
Q 2544 4750 2975 4387 
Q 3406 4025 3406 3419 
Q 3406 3131 3298 2873 
Q 3191 2616 2906 2266 
Q 2828 2175 2409 1742 
Q 1991 1309 1228 531 
z
" transform="scale(0.015625)"/>
      <path id="DejaVuSans-2e" d="M 684 794 
L 1344 794 
L 1344 0 
L 684 0 
L 684 794 
z
" transform="scale(0.015625)"/>
      <path id="DejaVuSans-33" d="M 2597 2516 
Q 3050 2419 3304 2112 
Q 3559 1806 3559 1356 
Q 3559 666 3084 287 
Q 2609 -91 1734 -91 
Q 1441 -91 1130 -33 
Q 819 25 488 141 
L 488 750 
Q 750 597 1062 519 
Q 1375 441 1716 441 
Q 2309 441 2620 675 
Q 2931 909 2931 1356 
Q 2931 1769 2642 2001 
Q 2353 2234 1838 2234 
L 1294 2234 
L 1294 2753 
L 1863 2753 
Q 2328 2753 2575 2939 
Q 2822 3125 2822 3475 
Q 2822 3834 2567 4026 
Q 2313 4219 1838 4219 
Q 1578 4219 1281 4162 
Q 984 4106 628 3988 
L 628 4550 
Q 988 4650 1302 4700 
Q 1616 4750 1894 4750 
Q 2613 4750 3031 4423 
Q 3450 4097 3450 3541 
Q 3450 3153 3228 2886 
Q 3006 2619 2597 2516 
z
" transform="scale(0.015625)"/>
     </defs>
     <use xlink:href="#DejaVuSans-76"/>
     <use xlink:href="#DejaVuSans-32" x="59.179688"/>
     <use xlink:href="#DejaVuSans-2e" x="122.802734"/>
     <use xlink:href="#DejaVuSans-36" x="154.589844"/>
     <use xlink:href="#DejaVuSans-2e" x="218.212891"/>
     <use xlink:href="#DejaVuSans-33" x="250"/>
    </g>
   </g>
  </g>
 </g>
 <defs>
  <clipPath id="p3cea9b33b5">
   <rect x="0" y="3.456" width="460.8" height="290.304"/>
  </clipPath>
 </defs>
</svg>
