<?xml version="1.0" encoding="utf-8" standalone="no"?>
<!DOCTYPE svg PUBLIC "-//W3C//DTD SVG 1.1//EN"
  "http://www.w3.org/Graphics/SVG/1.1/DTD/svg11.dtd">
<svg xmlns:xlink="http://www.w3.org/1999/xlink" width="460.8pt" height="345.6pt" viewBox="0 0 460.8 345.6" xmlns="http://www.w3.org/2000/svg" version="1.1">
 <metadata>
  <rdf:RDF xmlns:dc="http://purl.org/dc/elements/1.1/" xmlns:cc="http://creativecommons.org/ns#" xmlns:rdf="http://www.w3.org/1999/02/22-rdf-syntax-ns#">
   <cc:Work>
    <dc:type rdf:resource="http://purl.org/dc/dcmitype/StillImage"/>
    <dc:date>2024-01-23T11:32:36.710620</dc:date>
    <dc:format>image/svg+xml</dc:format>
    <dc:creator>
     <cc:Agent>
      <dc:title>Matplotlib v3.8.2, https://matplotlib.org/</dc:title>
     </cc:Agent>
    </dc:creator>
   </cc:Work>
  </rdf:RDF>
 </metadata>
 <defs>
  <style type="text/css">*{stroke-linejoin: round; stroke-linecap: butt}</style>
 </defs>
 <g id="figure_1">
  <g id="patch_1">
   <path d="M 0 345.6 
L 460.8 345.6 
L 460.8 0 
L 0 0 
z
" style="fill: #ffffff"/>
  </g>
  <g id="axes_1">
   <g id="patch_2">
    <path d="M 62.208 293.76 
L 460.8 293.76 
L 460.8 3.456 
L 62.208 3.456 
z
" style="fill: #ffffff"/>
   </g>
   <g id="line2d_1">
    <path d="M 351.702306 293.76 
L 351.702306 281.783762 
L 363.468789 281.783762 
L 363.468789 280.985347 
L 368.878713 280.985347 
L 368.878713 279.388515 
L 374.015748 279.388515 
L 374.015748 276.194851 
L 378.906108 276.194851 
L 378.906108 273.799604 
L 383.572403 273.799604 
L 383.572403 270.605941 
L 388.034267 270.605941 
L 388.034267 269.807525 
L 461.8 269.807525 
L 461.8 269.807525 
" clip-path="url(#p415e99d264)" style="fill: none; stroke: #f5deb3; stroke-width: 1.5; stroke-linecap: square"/>
   </g>
   <g id="line2d_2">
    <path clip-path="url(#p415e99d264)" style="fill: none; stroke: #f5deb3; stroke-width: 1.5; stroke-linecap: square"/>
   </g>
   <g id="line2d_3">
    <path d="M 312.312721 293.76 
L 312.312721 290.566337 
L 312.748965 290.566337 
L 312.748965 289.767921 
L 313.183349 289.767921 
L 313.183349 282.582178 
L 313.615889 282.582178 
L 313.615889 281.783762 
L 314.0466 281.783762 
L 314.0466 280.985347 
L 314.902596 280.985347 
L 314.902596 280.186931 
L 319.077892 280.186931 
L 319.077892 279.388515 
L 320.70124 279.388515 
L 320.70124 278.590099 
L 323.872327 278.590099 
L 323.872327 276.993267 
L 325.036487 276.993267 
L 325.036487 276.194851 
L 325.421603 276.194851 
L 325.421603 275.396436 
L 325.805268 275.396436 
L 325.805268 274.59802 
L 327.702212 274.59802 
L 327.702212 273.799604 
L 328.077398 273.799604 
L 328.077398 273.001188 
L 329.194736 273.001188 
L 329.194736 272.202772 
L 332.475043 272.202772 
L 332.475043 271.404356 
L 338.057971 271.404356 
L 338.057971 270.605941 
L 342.37907 270.605941 
L 342.37907 269.807525 
L 461.8 269.807525 
L 461.8 269.807525 
" clip-path="url(#p415e99d264)" style="fill: none; stroke: #f5deb3; stroke-width: 1.5; stroke-linecap: square"/>
   </g>
   <g id="line2d_4">
    <path d="M 238.599535 293.76 
L 238.599535 292.961584 
L 240.38665 292.961584 
L 240.38665 292.163168 
L 243.009875 292.163168 
L 243.009875 291.364752 
L 246.405621 291.364752 
L 246.405621 290.566337 
L 249.691808 290.566337 
L 249.691808 289.767921 
L 261.149147 289.767921 
L 261.149147 288.171089 
L 261.869029 288.171089 
L 261.869029 287.372673 
L 266.770597 287.372673 
L 266.770597 285.775842 
L 272.74473 285.775842 
L 272.74473 284.977426 
L 279.600481 284.977426 
L 279.600481 284.17901 
L 280.798882 284.17901 
L 280.798882 283.380594 
L 283.1542 283.380594 
L 283.1542 282.582178 
L 323.872327 282.582178 
L 323.872327 281.783762 
L 461.8 281.783762 
L 461.8 281.783762 
" clip-path="url(#p415e99d264)" style="fill: none; stroke: #f5deb3; stroke-width: 1.5; stroke-linecap: square"/>
   </g>
   <g id="line2d_5">
    <path clip-path="url(#p415e99d264)" style="fill: none; stroke: #f5deb3; stroke-width: 1.5; stroke-linecap: square"/>
   </g>
   <g id="line2d_6"/>
   <g id="line2d_7">
    <path d="M 310.103026 293.76 
L 310.103026 292.961584 
L 331.030154 292.961584 
L 331.030154 292.163168 
L 332.833085 292.163168 
L 332.833085 291.364752 
L 334.252801 291.364752 
L 334.252801 290.566337 
L 334.604659 290.566337 
L 334.604659 289.767921 
L 335.653001 289.767921 
L 335.653001 288.969505 
L 337.376611 288.969505 
L 337.376611 287.372673 
L 338.057971 287.372673 
L 338.057971 286.574257 
L 347.147317 286.574257 
L 347.147317 285.775842 
L 350.206495 285.775842 
L 350.206495 284.977426 
L 352.883339 284.977426 
L 352.883339 284.17901 
L 355.491637 284.17901 
L 355.491637 283.380594 
L 369.877377 283.380594 
L 369.877377 281.783762 
L 461.8 281.783762 
L 461.8 281.783762 
" clip-path="url(#p415e99d264)" style="fill: none; stroke: #f5deb3; stroke-width: 1.5; stroke-linecap: square"/>
   </g>
   <g id="line2d_8">
    <path d="M 0 0 
" clip-path="url(#p415e99d264)" style="fill: none; stroke: #f5deb3; stroke-width: 1.5; stroke-linecap: square"/>
   </g>
   <g id="line2d_9">
    <path d="M 299.767048 293.76 
L 299.767048 292.961584 
L 303.170899 292.961584 
L 303.170899 292.163168 
L 309.655276 292.163168 
L 309.655276 291.364752 
L 311.434586 291.364752 
L 311.434586 290.566337 
L 311.8746 290.566337 
L 311.8746 289.767921 
L 313.183349 289.767921 
L 313.183349 288.969505 
L 315.751459 288.969505 
L 315.751459 288.171089 
L 316.173252 288.171089 
L 316.173252 287.372673 
L 318.66798 287.372673 
L 318.66798 286.574257 
L 326.56829 286.574257 
L 326.56829 285.775842 
L 328.451208 285.775842 
L 328.451208 284.977426 
L 335.653001 284.977426 
L 335.653001 284.17901 
L 338.057971 284.17901 
L 338.057971 283.380594 
L 342.37907 283.380594 
L 342.37907 282.582178 
L 345.89745 282.582178 
L 345.89745 281.783762 
L 461.8 281.783762 
L 461.8 281.783762 
" clip-path="url(#p415e99d264)" style="fill: none; stroke: #f5deb3; stroke-width: 1.5; stroke-linecap: square"/>
   </g>
   <g id="line2d_10">
    <path d="M 377.07069 293.76 
L 377.07069 292.961584 
L 380.26129 292.961584 
L 380.26129 292.163168 
L 394.283014 292.163168 
L 394.283014 290.566337 
L 401.817904 290.566337 
L 401.817904 289.767921 
L 413.633895 289.767921 
L 413.633895 288.969505 
L 421.712629 288.969505 
L 421.712629 288.171089 
L 461.8 288.171089 
L 461.8 288.171089 
" clip-path="url(#p415e99d264)" style="fill: none; stroke: #f5deb3; stroke-width: 1.5; stroke-linecap: square"/>
   </g>
   <g id="line2d_11">
    <path d="M 221.991838 293.76 
L 221.991838 292.961584 
L 237.694081 292.961584 
L 237.694081 292.163168 
L 240.38665 292.163168 
L 240.38665 291.364752 
L 242.142951 291.364752 
L 242.142951 290.566337 
L 244.721898 290.566337 
L 244.721898 289.767921 
L 247.23716 289.767921 
L 247.23716 288.969505 
L 253.655847 288.969505 
L 253.655847 288.171089 
L 260.42414 288.171089 
L 260.42414 287.372673 
L 261.149147 287.372673 
L 261.149147 286.574257 
L 265.39405 286.574257 
L 265.39405 285.775842 
L 274.026041 285.775842 
L 274.026041 284.977426 
L 283.1542 284.977426 
L 283.1542 284.17901 
L 283.734617 284.17901 
L 283.734617 283.380594 
L 301.23979 283.380594 
L 301.23979 282.582178 
L 316.173252 282.582178 
L 316.173252 281.783762 
L 461.8 281.783762 
L 461.8 281.783762 
" clip-path="url(#p415e99d264)" style="fill: none; stroke: #f5deb3; stroke-width: 1.5; stroke-linecap: square"/>
   </g>
   <g id="line2d_12">
    <path d="M 140.180809 293.76 
L 140.180809 281.783762 
L 209.59543 281.783762 
L 209.59543 280.985347 
L 232.08553 280.985347 
L 232.08553 273.799604 
L 250.497053 273.799604 
L 250.497053 270.605941 
L 279.600481 270.605941 
L 279.600481 269.807525 
L 461.8 269.807525 
L 461.8 269.807525 
" clip-path="url(#p415e99d264)" style="fill: none; stroke: #f5deb3; stroke-width: 1.5; stroke-linecap: square"/>
   </g>
   <g id="line2d_13">
    <path clip-path="url(#p415e99d264)" style="fill: none; stroke: #f5deb3; stroke-width: 1.5; stroke-linecap: square"/>
   </g>
   <g id="line2d_14">
    <path d="M 274.660704 293.76 
L 274.660704 292.961584 
L 277.776021 292.961584 
L 277.776021 292.163168 
L 279.600481 292.163168 
L 279.600481 291.364752 
L 281.983348 291.364752 
L 281.983348 290.566337 
L 282.570456 290.566337 
L 282.570456 288.969505 
L 283.1542 288.969505 
L 283.1542 288.171089 
L 283.734617 288.171089 
L 283.734617 287.372673 
L 284.885623 287.372673 
L 284.885623 284.17901 
L 285.456285 284.17901 
L 285.456285 283.380594 
L 286.023768 283.380594 
L 286.023768 281.783762 
L 429.336137 281.783762 
L 429.336137 280.985347 
L 431.394045 280.985347 
L 431.394045 280.186931 
L 434.339039 280.186931 
L 434.339039 279.388515 
L 435.389182 279.388515 
L 435.389182 278.590099 
L 436.299259 278.590099 
L 436.299259 277.791683 
L 441.10262 277.791683 
L 441.10262 276.993267 
L 441.472359 276.993267 
L 441.472359 276.194851 
L 441.718108 276.194851 
L 441.718108 275.396436 
L 442.695218 275.396436 
L 442.695218 274.59802 
L 444.143531 274.59802 
L 444.143531 273.799604 
L 444.502414 273.799604 
L 444.502414 273.001188 
L 444.740969 273.001188 
L 444.740969 272.202772 
L 447.212635 272.202772 
L 447.212635 271.404356 
L 447.907948 271.404356 
L 447.907948 270.605941 
L 448.368867 270.605941 
L 448.368867 269.807525 
L 461.8 269.807525 
L 461.8 269.807525 
" clip-path="url(#p415e99d264)" style="fill: none; stroke: #f5deb3; stroke-width: 1.5; stroke-linecap: square"/>
   </g>
   <g id="line2d_15"/>
   <g id="line2d_16">
    <path d="M 0 0 
" clip-path="url(#p415e99d264)" style="fill: none; stroke: #f5deb3; stroke-width: 1.5; stroke-linecap: square"/>
   </g>
   <g id="line2d_17">
    <path d="M 0 0 
" clip-path="url(#p415e99d264)" style="fill: none; stroke: #f5deb3; stroke-width: 1.5; stroke-linecap: square"/>
   </g>
   <g id="line2d_18">
    <path d="M 140.180809 293.76 
L 140.180809 287.372673 
L 142.522589 287.372673 
L 142.522589 282.582178 
L 147.050577 282.582178 
L 147.050577 281.783762 
L 149.241262 281.783762 
L 149.241262 280.186931 
L 155.544073 280.186931 
L 155.544073 279.388515 
L 157.561227 279.388515 
L 157.561227 278.590099 
L 161.479516 278.590099 
L 161.479516 277.791683 
L 172.403862 277.791683 
L 172.403862 276.993267 
L 174.115884 276.993267 
L 174.115884 275.396436 
L 179.085794 275.396436 
L 179.085794 274.59802 
L 199.526702 274.59802 
L 199.526702 273.799604 
L 200.841081 273.799604 
L 200.841081 272.202772 
L 208.389937 272.202772 
L 208.389937 271.404356 
L 210.786823 271.404356 
L 210.786823 270.605941 
L 214.279609 270.605941 
L 214.279609 269.807525 
L 461.8 269.807525 
L 461.8 269.807525 
" clip-path="url(#p415e99d264)" style="fill: none; stroke: #f5deb3; stroke-width: 1.5; stroke-linecap: square"/>
   </g>
   <g id="line2d_19">
    <path clip-path="url(#p415e99d264)" style="fill: none; stroke: #f5deb3; stroke-width: 1.5; stroke-linecap: square"/>
   </g>
   <g id="line2d_20">
    <path d="M 270.132716 293.76 
L 270.132716 292.961584 
L 283.1542 292.961584 
L 283.1542 292.163168 
L 284.311746 292.163168 
L 284.311746 291.364752 
L 292.06593 291.364752 
L 292.06593 290.566337 
L 306.926641 290.566337 
L 306.926641 289.767921 
L 312.748965 289.767921 
L 312.748965 288.969505 
L 315.327912 288.969505 
L 315.327912 288.171089 
L 316.593306 288.171089 
L 316.593306 287.372673 
L 328.077398 287.372673 
L 328.077398 286.574257 
L 332.833085 286.574257 
L 332.833085 285.775842 
L 336.000064 285.775842 
L 336.000064 284.977426 
L 340.73873 284.977426 
L 340.73873 284.17901 
L 345.266717 284.17901 
L 345.266717 283.380594 
L 352.294534 283.380594 
L 352.294534 282.582178 
L 369.628627 282.582178 
L 369.628627 281.783762 
L 461.8 281.783762 
L 461.8 281.783762 
" clip-path="url(#p415e99d264)" style="fill: none; stroke: #f5deb3; stroke-width: 1.5; stroke-linecap: square"/>
   </g>
   <g id="line2d_21">
    <path d="M 0 0 
" clip-path="url(#p415e99d264)" style="fill: none; stroke: #f5deb3; stroke-width: 1.5; stroke-linecap: square"/>
   </g>
   <g id="line2d_22">
    <path d="M 318.256412 293.76 
L 318.256412 292.961584 
L 325.805268 292.961584 
L 325.805268 292.163168 
L 336.000064 292.163168 
L 336.000064 291.364752 
L 342.053109 291.364752 
L 342.053109 290.566337 
L 349.298349 290.566337 
L 349.298349 289.767921 
L 356.062299 289.767921 
L 356.062299 288.969505 
L 356.346436 288.969505 
L 356.346436 288.171089 
L 357.755351 288.171089 
L 357.755351 287.372673 
L 360.243308 287.372673 
L 360.243308 286.574257 
L 361.059304 286.574257 
L 361.059304 285.775842 
L 368.375685 285.775842 
L 368.375685 284.977426 
L 368.878713 284.977426 
L 368.878713 284.17901 
L 370.620002 284.17901 
L 370.620002 283.380594 
L 379.359842 283.380594 
L 379.359842 282.582178 
L 413.310006 282.582178 
L 413.310006 281.783762 
L 461.8 281.783762 
L 461.8 281.783762 
" clip-path="url(#p415e99d264)" style="fill: none; stroke: #f5deb3; stroke-width: 1.5; stroke-linecap: square"/>
   </g>
   <g id="line2d_23">
    <path d="M 422.01091 293.76 
L 422.01091 292.961584 
L 439.359202 292.961584 
L 439.359202 292.163168 
L 443.059232 292.163168 
L 443.059232 291.364752 
L 444.860038 291.364752 
L 444.860038 290.566337 
L 447.907948 290.566337 
L 447.907948 289.767921 
L 452.756796 289.767921 
L 452.756796 288.969505 
L 456.645991 288.969505 
L 456.645991 288.171089 
L 461.8 288.171089 
" clip-path="url(#p415e99d264)" style="fill: none; stroke: #f5deb3; stroke-width: 1.5; stroke-linecap: square"/>
   </g>
   <g id="line2d_24">
    <path d="M 0 0 
" clip-path="url(#p415e99d264)" style="fill: none; stroke: #f5deb3; stroke-width: 1.5; stroke-linecap: square"/>
   </g>
   <g id="line2d_25">
    <path d="M 433.277957 293.76 
L 433.277957 292.961584 
L 439.484726 292.961584 
L 439.484726 292.163168 
L 440.731534 292.163168 
L 440.731534 291.364752 
L 442.695218 291.364752 
L 442.695218 290.566337 
L 461.8 290.566337 
L 461.8 290.566337 
" clip-path="url(#p415e99d264)" style="fill: none; stroke: #f5deb3; stroke-width: 1.5; stroke-linecap: square"/>
   </g>
   <g id="line2d_26">
    <path d="M 0 0 
" clip-path="url(#p415e99d264)" style="fill: none; stroke: #f5deb3; stroke-width: 1.5; stroke-linecap: square"/>
   </g>
   <g id="line2d_27">
    <path d="M 425.235618 293.76 
L 425.235618 292.163168 
L 432.340356 292.163168 
L 432.340356 291.364752 
L 435.258505 291.364752 
L 435.258505 290.566337 
L 439.107689 290.566337 
L 439.107689 289.767921 
L 458.95163 289.767921 
L 458.95163 288.969505 
L 461.8 288.969505 
L 461.8 288.969505 
" clip-path="url(#p415e99d264)" style="fill: none; stroke: #f5deb3; stroke-width: 1.5; stroke-linecap: square"/>
   </g>
   <g id="line2d_28">
    <path d="M 364.521646 293.76 
L 364.521646 292.961584 
L 364.783168 292.961584 
L 364.783168 292.163168 
L 365.044021 292.163168 
L 365.044021 291.364752 
L 365.304207 291.364752 
L 365.304207 290.566337 
L 375.201593 290.566337 
L 375.201593 287.372673 
L 375.437114 287.372673 
L 375.437114 286.574257 
L 384.867288 286.574257 
L 384.867288 284.977426 
L 385.50861 284.977426 
L 385.50861 284.17901 
L 394.673294 284.17901 
L 394.673294 283.380594 
L 401.999316 283.380594 
L 401.999316 282.582178 
L 416.973963 282.582178 
L 416.973963 281.783762 
L 461.8 281.783762 
L 461.8 281.783762 
" clip-path="url(#p415e99d264)" style="fill: none; stroke: #f5deb3; stroke-width: 1.5; stroke-linecap: square"/>
   </g>
   <g id="line2d_29">
    <path d="M 132.814014 293.76 
L 132.814014 292.961584 
L 132.814014 292.961584 
L 132.814014 292.163168 
L 132.814014 292.163168 
L 132.814014 291.364752 
L 132.814014 291.364752 
L 132.814014 290.566337 
L 132.814014 290.566337 
L 132.814014 289.767921 
L 132.814014 289.767921 
L 132.814014 288.969505 
L 135.329276 288.969505 
L 135.329276 288.171089 
L 135.329276 288.171089 
L 135.329276 287.372673 
L 135.329276 287.372673 
L 135.329276 286.574257 
L 135.329276 286.574257 
L 135.329276 285.775842 
L 135.329276 285.775842 
L 135.329276 284.977426 
L 135.329276 284.977426 
L 135.329276 284.17901 
L 135.329276 284.17901 
L 135.329276 283.380594 
L 135.329276 283.380594 
L 135.329276 282.582178 
L 135.329276 282.582178 
L 135.329276 281.783762 
L 183.82446 281.783762 
L 183.82446 280.985347 
L 183.82446 280.985347 
L 183.82446 280.186931 
L 183.82446 280.186931 
L 183.82446 279.388515 
L 354.050836 279.388515 
L 354.050836 278.590099 
L 354.050836 278.590099 
L 354.050836 277.791683 
L 354.050836 277.791683 
L 354.050836 276.993267 
L 355.491637 276.993267 
L 355.491637 276.194851 
L 355.491637 276.194851 
L 355.491637 275.396436 
L 355.491637 275.396436 
L 355.491637 274.59802 
L 356.629782 274.59802 
L 356.629782 273.799604 
L 356.629782 273.799604 
L 356.629782 273.001188 
L 356.629782 273.001188 
L 356.629782 272.202772 
L 357.194121 272.202772 
L 357.194121 271.404356 
L 357.194121 271.404356 
L 357.194121 270.605941 
L 357.194121 270.605941 
L 357.194121 269.807525 
L 461.8 269.807525 
" clip-path="url(#p415e99d264)" style="fill: none; stroke: #f5deb3; stroke-width: 1.5; stroke-linecap: square"/>
   </g>
   <g id="line2d_30">
    <path d="M 356.912343 293.76 
L 356.912343 292.961584 
L 356.912343 292.961584 
L 356.912343 292.163168 
L 358.313506 292.163168 
L 358.313506 291.364752 
L 360.788031 291.364752 
L 360.788031 290.566337 
L 361.868815 290.566337 
L 361.868815 289.767921 
L 361.868815 289.767921 
L 361.868815 288.969505 
L 363.468789 288.969505 
L 363.468789 288.171089 
L 363.996578 288.171089 
L 363.996578 287.372673 
L 364.25945 287.372673 
L 364.25945 286.574257 
L 364.521646 286.574257 
L 364.521646 285.775842 
L 365.304207 285.775842 
L 365.304207 284.977426 
L 366.851522 284.977426 
L 366.851522 284.17901 
L 368.123236 284.17901 
L 368.123236 283.380594 
L 368.375685 283.380594 
L 368.375685 282.582178 
L 370.620002 282.582178 
L 370.620002 281.783762 
L 371.112094 281.783762 
L 371.112094 280.985347 
L 371.845804 280.985347 
L 371.845804 280.186931 
L 373.537517 280.186931 
L 373.537517 279.388515 
L 374.254024 279.388515 
L 374.254024 278.590099 
L 375.201593 278.590099 
L 375.201593 277.791683 
L 376.83892 277.791683 
L 376.83892 276.993267 
L 377.532655 276.993267 
L 377.532655 276.194851 
L 379.811563 276.194851 
L 379.811563 275.396436 
L 382.260845 275.396436 
L 382.260845 274.59802 
L 382.918734 274.59802 
L 382.918734 273.799604 
L 383.354979 273.799604 
L 383.354979 273.001188 
L 385.081511 273.001188 
L 385.081511 272.202772 
L 386.357473 272.202772 
L 386.357473 271.404356 
L 386.779266 271.404356 
L 386.779266 270.605941 
L 409.340818 270.605941 
L 409.340818 269.807525 
L 417.130314 269.807525 
L 417.130314 269.009109 
L 417.130314 269.009109 
L 417.130314 268.210693 
L 417.130314 268.210693 
L 417.130314 267.412277 
L 417.130314 267.412277 
L 417.130314 266.613861 
L 417.130314 266.613861 
L 417.130314 265.815446 
L 417.130314 265.815446 
L 417.130314 265.01703 
L 417.130314 265.01703 
L 417.130314 264.218614 
L 417.130314 264.218614 
L 417.130314 263.420198 
L 417.130314 263.420198 
L 417.130314 262.621782 
L 417.130314 262.621782 
L 417.130314 261.823366 
L 417.130314 261.823366 
L 417.130314 261.02495 
L 417.130314 261.02495 
L 417.130314 260.226535 
L 417.130314 260.226535 
L 417.130314 259.428119 
L 417.130314 259.428119 
L 417.130314 258.629703 
L 417.130314 258.629703 
L 417.130314 257.831287 
L 461.8 257.831287 
" clip-path="url(#p415e99d264)" style="fill: none; stroke: #f5deb3; stroke-width: 1.5; stroke-linecap: square"/>
   </g>
   <g id="matplotlib.axis_1">
    <g id="xtick_1">
     <g id="line2d_31">
      <path d="M 62.208 293.76 
L 62.208 3.456 
" clip-path="url(#p415e99d264)" style="fill: none; stroke: #b0b0b0; stroke-width: 0.8; stroke-linecap: square"/>
     </g>
     <g id="line2d_32">
      <defs>
       <path id="m6d3909b831" d="M 0 0 
L 0 3.5 
" style="stroke: #000000; stroke-width: 0.8"/>
      </defs>
      <g>
       <use xlink:href="#m6d3909b831" x="62.208" y="293.76" style="stroke: #000000; stroke-width: 0.8"/>
      </g>
     </g>
     <g id="text_1">
      <!-- 0 -->
      <g transform="translate(55.8455 315.956875) scale(0.2 -0.2)">
       <defs>
        <path id="DejaVuSans-30" d="M 2034 4250 
Q 1547 4250 1301 3770 
Q 1056 3291 1056 2328 
Q 1056 1369 1301 889 
Q 1547 409 2034 409 
Q 2525 409 2770 889 
Q 3016 1369 3016 2328 
Q 3016 3291 2770 3770 
Q 2525 4250 2034 4250 
z
M 2034 4750 
Q 2819 4750 3233 4129 
Q 3647 3509 3647 2328 
Q 3647 1150 3233 529 
Q 2819 -91 2034 -91 
Q 1250 -91 836 529 
Q 422 1150 422 2328 
Q 422 3509 836 4129 
Q 1250 4750 2034 4750 
z
" transform="scale(0.015625)"/>
       </defs>
       <use xlink:href="#DejaVuSans-30"/>
      </g>
     </g>
    </g>
    <g id="xtick_2">
     <g id="line2d_33">
      <path d="M 132.814014 293.76 
L 132.814014 3.456 
" clip-path="url(#p415e99d264)" style="fill: none; stroke: #b0b0b0; stroke-width: 0.8; stroke-linecap: square"/>
     </g>
     <g id="line2d_34">
      <defs>
       <path id="m599c282646" d="M 0 0 
L 0 2 
" style="stroke: #000000; stroke-width: 0.6"/>
      </defs>
      <g>
       <use xlink:href="#m599c282646" x="132.814014" y="293.76" style="stroke: #000000; stroke-width: 0.6"/>
      </g>
     </g>
    </g>
    <g id="xtick_3">
     <g id="line2d_35">
      <path d="M 174.115884 293.76 
L 174.115884 3.456 
" clip-path="url(#p415e99d264)" style="fill: none; stroke: #b0b0b0; stroke-width: 0.8; stroke-linecap: square"/>
     </g>
     <g id="line2d_36">
      <g>
       <use xlink:href="#m599c282646" x="174.115884" y="293.76" style="stroke: #000000; stroke-width: 0.6"/>
      </g>
     </g>
    </g>
    <g id="xtick_4">
     <g id="line2d_37">
      <path d="M 203.420028 293.76 
L 203.420028 3.456 
" clip-path="url(#p415e99d264)" style="fill: none; stroke: #b0b0b0; stroke-width: 0.8; stroke-linecap: square"/>
     </g>
     <g id="line2d_38">
      <g>
       <use xlink:href="#m599c282646" x="203.420028" y="293.76" style="stroke: #000000; stroke-width: 0.6"/>
      </g>
     </g>
    </g>
    <g id="xtick_5">
     <g id="line2d_39">
      <path d="M 226.150087 293.76 
L 226.150087 3.456 
" clip-path="url(#p415e99d264)" style="fill: none; stroke: #b0b0b0; stroke-width: 0.8; stroke-linecap: square"/>
     </g>
     <g id="line2d_40">
      <g>
       <use xlink:href="#m599c282646" x="226.150087" y="293.76" style="stroke: #000000; stroke-width: 0.6"/>
      </g>
     </g>
    </g>
    <g id="xtick_6">
     <g id="line2d_41">
      <path d="M 244.721898 293.76 
L 244.721898 3.456 
" clip-path="url(#p415e99d264)" style="fill: none; stroke: #b0b0b0; stroke-width: 0.8; stroke-linecap: square"/>
     </g>
     <g id="line2d_42">
      <g>
       <use xlink:href="#m599c282646" x="244.721898" y="293.76" style="stroke: #000000; stroke-width: 0.6"/>
      </g>
     </g>
    </g>
    <g id="xtick_7">
     <g id="line2d_43">
      <path d="M 260.42414 293.76 
L 260.42414 3.456 
" clip-path="url(#p415e99d264)" style="fill: none; stroke: #b0b0b0; stroke-width: 0.8; stroke-linecap: square"/>
     </g>
     <g id="line2d_44">
      <g>
       <use xlink:href="#m599c282646" x="260.42414" y="293.76" style="stroke: #000000; stroke-width: 0.6"/>
      </g>
     </g>
    </g>
    <g id="xtick_8">
     <g id="line2d_45">
      <path d="M 274.026041 293.76 
L 274.026041 3.456 
" clip-path="url(#p415e99d264)" style="fill: none; stroke: #b0b0b0; stroke-width: 0.8; stroke-linecap: square"/>
     </g>
     <g id="line2d_46">
      <g>
       <use xlink:href="#m599c282646" x="274.026041" y="293.76" style="stroke: #000000; stroke-width: 0.6"/>
      </g>
     </g>
    </g>
    <g id="xtick_9">
     <g id="line2d_47">
      <path d="M 286.023768 293.76 
L 286.023768 3.456 
" clip-path="url(#p415e99d264)" style="fill: none; stroke: #b0b0b0; stroke-width: 0.8; stroke-linecap: square"/>
     </g>
     <g id="line2d_48">
      <g>
       <use xlink:href="#m599c282646" x="286.023768" y="293.76" style="stroke: #000000; stroke-width: 0.6"/>
      </g>
     </g>
    </g>
    <g id="xtick_10">
     <g id="line2d_49">
      <path d="M 367.362115 293.76 
L 367.362115 3.456 
" clip-path="url(#p415e99d264)" style="fill: none; stroke: #b0b0b0; stroke-width: 0.8; stroke-linecap: square"/>
     </g>
     <g id="line2d_50">
      <g>
       <use xlink:href="#m599c282646" x="367.362115" y="293.76" style="stroke: #000000; stroke-width: 0.6"/>
      </g>
     </g>
    </g>
    <g id="xtick_11">
     <g id="line2d_51">
      <path d="M 408.663985 293.76 
L 408.663985 3.456 
" clip-path="url(#p415e99d264)" style="fill: none; stroke: #b0b0b0; stroke-width: 0.8; stroke-linecap: square"/>
     </g>
     <g id="line2d_52">
      <g>
       <use xlink:href="#m599c282646" x="408.663985" y="293.76" style="stroke: #000000; stroke-width: 0.6"/>
      </g>
     </g>
    </g>
    <g id="xtick_12">
     <g id="line2d_53">
      <path d="M 437.968128 293.76 
L 437.968128 3.456 
" clip-path="url(#p415e99d264)" style="fill: none; stroke: #b0b0b0; stroke-width: 0.8; stroke-linecap: square"/>
     </g>
     <g id="line2d_54">
      <g>
       <use xlink:href="#m599c282646" x="437.968128" y="293.76" style="stroke: #000000; stroke-width: 0.6"/>
      </g>
     </g>
    </g>
    <g id="xtick_13">
     <g id="line2d_55">
      <path d="M 460.698188 293.76 
L 460.698188 3.456 
" clip-path="url(#p415e99d264)" style="fill: none; stroke: #b0b0b0; stroke-width: 0.8; stroke-linecap: square"/>
     </g>
     <g id="line2d_56">
      <g>
       <use xlink:href="#m599c282646" x="460.698188" y="293.76" style="stroke: #000000; stroke-width: 0.6"/>
      </g>
     </g>
    </g>
    <g id="text_2">
     <!-- log10 of FEvals / DIM -->
     <g transform="translate(156.430563 339.313125) scale(0.2 -0.2)">
      <defs>
       <path id="DejaVuSans-6c" d="M 603 4863 
L 1178 4863 
L 1178 0 
L 603 0 
L 603 4863 
z
" transform="scale(0.015625)"/>
       <path id="DejaVuSans-6f" d="M 1959 3097 
Q 1497 3097 1228 2736 
Q 959 2375 959 1747 
Q 959 1119 1226 758 
Q 1494 397 1959 397 
Q 2419 397 2687 759 
Q 2956 1122 2956 1747 
Q 2956 2369 2687 2733 
Q 2419 3097 1959 3097 
z
M 1959 3584 
Q 2709 3584 3137 3096 
Q 3566 2609 3566 1747 
Q 3566 888 3137 398 
Q 2709 -91 1959 -91 
Q 1206 -91 779 398 
Q 353 888 353 1747 
Q 353 2609 779 3096 
Q 1206 3584 1959 3584 
z
" transform="scale(0.015625)"/>
       <path id="DejaVuSans-67" d="M 2906 1791 
Q 2906 2416 2648 2759 
Q 2391 3103 1925 3103 
Q 1463 3103 1205 2759 
Q 947 2416 947 1791 
Q 947 1169 1205 825 
Q 1463 481 1925 481 
Q 2391 481 2648 825 
Q 2906 1169 2906 1791 
z
M 3481 434 
Q 3481 -459 3084 -895 
Q 2688 -1331 1869 -1331 
Q 1566 -1331 1297 -1286 
Q 1028 -1241 775 -1147 
L 775 -588 
Q 1028 -725 1275 -790 
Q 1522 -856 1778 -856 
Q 2344 -856 2625 -561 
Q 2906 -266 2906 331 
L 2906 616 
Q 2728 306 2450 153 
Q 2172 0 1784 0 
Q 1141 0 747 490 
Q 353 981 353 1791 
Q 353 2603 747 3093 
Q 1141 3584 1784 3584 
Q 2172 3584 2450 3431 
Q 2728 3278 2906 2969 
L 2906 3500 
L 3481 3500 
L 3481 434 
z
" transform="scale(0.015625)"/>
       <path id="DejaVuSans-31" d="M 794 531 
L 1825 531 
L 1825 4091 
L 703 3866 
L 703 4441 
L 1819 4666 
L 2450 4666 
L 2450 531 
L 3481 531 
L 3481 0 
L 794 0 
L 794 531 
z
" transform="scale(0.015625)"/>
       <path id="DejaVuSans-20" transform="scale(0.015625)"/>
       <path id="DejaVuSans-66" d="M 2375 4863 
L 2375 4384 
L 1825 4384 
Q 1516 4384 1395 4259 
Q 1275 4134 1275 3809 
L 1275 3500 
L 2222 3500 
L 2222 3053 
L 1275 3053 
L 1275 0 
L 697 0 
L 697 3053 
L 147 3053 
L 147 3500 
L 697 3500 
L 697 3744 
Q 697 4328 969 4595 
Q 1241 4863 1831 4863 
L 2375 4863 
z
" transform="scale(0.015625)"/>
       <path id="DejaVuSans-46" d="M 628 4666 
L 3309 4666 
L 3309 4134 
L 1259 4134 
L 1259 2759 
L 3109 2759 
L 3109 2228 
L 1259 2228 
L 1259 0 
L 628 0 
L 628 4666 
z
" transform="scale(0.015625)"/>
       <path id="DejaVuSans-45" d="M 628 4666 
L 3578 4666 
L 3578 4134 
L 1259 4134 
L 1259 2753 
L 3481 2753 
L 3481 2222 
L 1259 2222 
L 1259 531 
L 3634 531 
L 3634 0 
L 628 0 
L 628 4666 
z
" transform="scale(0.015625)"/>
       <path id="DejaVuSans-76" d="M 191 3500 
L 800 3500 
L 1894 563 
L 2988 3500 
L 3597 3500 
L 2284 0 
L 1503 0 
L 191 3500 
z
" transform="scale(0.015625)"/>
       <path id="DejaVuSans-61" d="M 2194 1759 
Q 1497 1759 1228 1600 
Q 959 1441 959 1056 
Q 959 750 1161 570 
Q 1363 391 1709 391 
Q 2188 391 2477 730 
Q 2766 1069 2766 1631 
L 2766 1759 
L 2194 1759 
z
M 3341 1997 
L 3341 0 
L 2766 0 
L 2766 531 
Q 2569 213 2275 61 
Q 1981 -91 1556 -91 
Q 1019 -91 701 211 
Q 384 513 384 1019 
Q 384 1609 779 1909 
Q 1175 2209 1959 2209 
L 2766 2209 
L 2766 2266 
Q 2766 2663 2505 2880 
Q 2244 3097 1772 3097 
Q 1472 3097 1187 3025 
Q 903 2953 641 2809 
L 641 3341 
Q 956 3463 1253 3523 
Q 1550 3584 1831 3584 
Q 2591 3584 2966 3190 
Q 3341 2797 3341 1997 
z
" transform="scale(0.015625)"/>
       <path id="DejaVuSans-73" d="M 2834 3397 
L 2834 2853 
Q 2591 2978 2328 3040 
Q 2066 3103 1784 3103 
Q 1356 3103 1142 2972 
Q 928 2841 928 2578 
Q 928 2378 1081 2264 
Q 1234 2150 1697 2047 
L 1894 2003 
Q 2506 1872 2764 1633 
Q 3022 1394 3022 966 
Q 3022 478 2636 193 
Q 2250 -91 1575 -91 
Q 1294 -91 989 -36 
Q 684 19 347 128 
L 347 722 
Q 666 556 975 473 
Q 1284 391 1588 391 
Q 1994 391 2212 530 
Q 2431 669 2431 922 
Q 2431 1156 2273 1281 
Q 2116 1406 1581 1522 
L 1381 1569 
Q 847 1681 609 1914 
Q 372 2147 372 2553 
Q 372 3047 722 3315 
Q 1072 3584 1716 3584 
Q 2034 3584 2315 3537 
Q 2597 3491 2834 3397 
z
" transform="scale(0.015625)"/>
       <path id="DejaVuSans-2f" d="M 1625 4666 
L 2156 4666 
L 531 -594 
L 0 -594 
L 1625 4666 
z
" transform="scale(0.015625)"/>
       <path id="DejaVuSans-44" d="M 1259 4147 
L 1259 519 
L 2022 519 
Q 2988 519 3436 956 
Q 3884 1394 3884 2338 
Q 3884 3275 3436 3711 
Q 2988 4147 2022 4147 
L 1259 4147 
z
M 628 4666 
L 1925 4666 
Q 3281 4666 3915 4102 
Q 4550 3538 4550 2338 
Q 4550 1131 3912 565 
Q 3275 0 1925 0 
L 628 0 
L 628 4666 
z
" transform="scale(0.015625)"/>
       <path id="DejaVuSans-49" d="M 628 4666 
L 1259 4666 
L 1259 0 
L 628 0 
L 628 4666 
z
" transform="scale(0.015625)"/>
       <path id="DejaVuSans-4d" d="M 628 4666 
L 1569 4666 
L 2759 1491 
L 3956 4666 
L 4897 4666 
L 4897 0 
L 4281 0 
L 4281 4097 
L 3078 897 
L 2444 897 
L 1241 4097 
L 1241 0 
L 628 0 
L 628 4666 
z
" transform="scale(0.015625)"/>
      </defs>
      <use xlink:href="#DejaVuSans-6c"/>
      <use xlink:href="#DejaVuSans-6f" x="27.783203"/>
      <use xlink:href="#DejaVuSans-67" x="88.964844"/>
      <use xlink:href="#DejaVuSans-31" x="152.441406"/>
      <use xlink:href="#DejaVuSans-30" x="216.064453"/>
      <use xlink:href="#DejaVuSans-20" x="279.6875"/>
      <use xlink:href="#DejaVuSans-6f" x="311.474609"/>
      <use xlink:href="#DejaVuSans-66" x="372.65625"/>
      <use xlink:href="#DejaVuSans-20" x="407.861328"/>
      <use xlink:href="#DejaVuSans-46" x="439.648438"/>
      <use xlink:href="#DejaVuSans-45" x="497.167969"/>
      <use xlink:href="#DejaVuSans-76" x="560.351562"/>
      <use xlink:href="#DejaVuSans-61" x="619.53125"/>
      <use xlink:href="#DejaVuSans-6c" x="680.810547"/>
      <use xlink:href="#DejaVuSans-73" x="708.59375"/>
      <use xlink:href="#DejaVuSans-20" x="760.693359"/>
      <use xlink:href="#DejaVuSans-2f" x="792.480469"/>
      <use xlink:href="#DejaVuSans-20" x="826.171875"/>
      <use xlink:href="#DejaVuSans-44" x="857.958984"/>
      <use xlink:href="#DejaVuSans-49" x="934.960938"/>
      <use xlink:href="#DejaVuSans-4d" x="964.453125"/>
     </g>
    </g>
   </g>
   <g id="matplotlib.axis_2">
    <g id="ytick_1">
     <g id="line2d_57">
      <path d="M 62.208 293.76 
L 460.8 293.76 
" clip-path="url(#p415e99d264)" style="fill: none; stroke: #b0b0b0; stroke-width: 0.8; stroke-linecap: square"/>
     </g>
     <g id="line2d_58">
      <defs>
       <path id="m0ead9ef5a5" d="M 0 0 
L -3.5 0 
" style="stroke: #000000; stroke-width: 0.8"/>
      </defs>
      <g>
       <use xlink:href="#m0ead9ef5a5" x="62.208" y="293.76" style="stroke: #000000; stroke-width: 0.8"/>
      </g>
     </g>
     <g id="text_3">
      <!-- 0.0 -->
      <g transform="translate(29.763 299.83875) scale(0.16 -0.16)">
       <defs>
        <path id="DejaVuSans-2e" d="M 684 794 
L 1344 794 
L 1344 0 
L 684 0 
L 684 794 
z
" transform="scale(0.015625)"/>
       </defs>
       <use xlink:href="#DejaVuSans-30"/>
       <use xlink:href="#DejaVuSans-2e" x="63.623047"/>
       <use xlink:href="#DejaVuSans-30" x="95.410156"/>
      </g>
     </g>
    </g>
    <g id="ytick_2">
     <g id="line2d_59">
      <path d="M 62.208 236.274059 
L 460.8 236.274059 
" clip-path="url(#p415e99d264)" style="fill: none; stroke: #b0b0b0; stroke-width: 0.8; stroke-linecap: square"/>
     </g>
     <g id="line2d_60">
      <g>
       <use xlink:href="#m0ead9ef5a5" x="62.208" y="236.274059" style="stroke: #000000; stroke-width: 0.8"/>
      </g>
     </g>
     <g id="text_4">
      <!-- 0.2 -->
      <g transform="translate(29.763 242.352809) scale(0.16 -0.16)">
       <defs>
        <path id="DejaVuSans-32" d="M 1228 531 
L 3431 531 
L 3431 0 
L 469 0 
L 469 531 
Q 828 903 1448 1529 
Q 2069 2156 2228 2338 
Q 2531 2678 2651 2914 
Q 2772 3150 2772 3378 
Q 2772 3750 2511 3984 
Q 2250 4219 1831 4219 
Q 1534 4219 1204 4116 
Q 875 4013 500 3803 
L 500 4441 
Q 881 4594 1212 4672 
Q 1544 4750 1819 4750 
Q 2544 4750 2975 4387 
Q 3406 4025 3406 3419 
Q 3406 3131 3298 2873 
Q 3191 2616 2906 2266 
Q 2828 2175 2409 1742 
Q 1991 1309 1228 531 
z
" transform="scale(0.015625)"/>
       </defs>
       <use xlink:href="#DejaVuSans-30"/>
       <use xlink:href="#DejaVuSans-2e" x="63.623047"/>
       <use xlink:href="#DejaVuSans-32" x="95.410156"/>
      </g>
     </g>
    </g>
    <g id="ytick_3">
     <g id="line2d_61">
      <path d="M 62.208 178.788119 
L 460.8 178.788119 
" clip-path="url(#p415e99d264)" style="fill: none; stroke: #b0b0b0; stroke-width: 0.8; stroke-linecap: square"/>
     </g>
     <g id="line2d_62">
      <g>
       <use xlink:href="#m0ead9ef5a5" x="62.208" y="178.788119" style="stroke: #000000; stroke-width: 0.8"/>
      </g>
     </g>
     <g id="text_5">
      <!-- 0.4 -->
      <g transform="translate(29.763 184.866869) scale(0.16 -0.16)">
       <defs>
        <path id="DejaVuSans-34" d="M 2419 4116 
L 825 1625 
L 2419 1625 
L 2419 4116 
z
M 2253 4666 
L 3047 4666 
L 3047 1625 
L 3713 1625 
L 3713 1100 
L 3047 1100 
L 3047 0 
L 2419 0 
L 2419 1100 
L 313 1100 
L 313 1709 
L 2253 4666 
z
" transform="scale(0.015625)"/>
       </defs>
       <use xlink:href="#DejaVuSans-30"/>
       <use xlink:href="#DejaVuSans-2e" x="63.623047"/>
       <use xlink:href="#DejaVuSans-34" x="95.410156"/>
      </g>
     </g>
    </g>
    <g id="ytick_4">
     <g id="line2d_63">
      <path d="M 62.208 121.302178 
L 460.8 121.302178 
" clip-path="url(#p415e99d264)" style="fill: none; stroke: #b0b0b0; stroke-width: 0.8; stroke-linecap: square"/>
     </g>
     <g id="line2d_64">
      <g>
       <use xlink:href="#m0ead9ef5a5" x="62.208" y="121.302178" style="stroke: #000000; stroke-width: 0.8"/>
      </g>
     </g>
     <g id="text_6">
      <!-- 0.6 -->
      <g transform="translate(29.763 127.380928) scale(0.16 -0.16)">
       <defs>
        <path id="DejaVuSans-36" d="M 2113 2584 
Q 1688 2584 1439 2293 
Q 1191 2003 1191 1497 
Q 1191 994 1439 701 
Q 1688 409 2113 409 
Q 2538 409 2786 701 
Q 3034 994 3034 1497 
Q 3034 2003 2786 2293 
Q 2538 2584 2113 2584 
z
M 3366 4563 
L 3366 3988 
Q 3128 4100 2886 4159 
Q 2644 4219 2406 4219 
Q 1781 4219 1451 3797 
Q 1122 3375 1075 2522 
Q 1259 2794 1537 2939 
Q 1816 3084 2150 3084 
Q 2853 3084 3261 2657 
Q 3669 2231 3669 1497 
Q 3669 778 3244 343 
Q 2819 -91 2113 -91 
Q 1303 -91 875 529 
Q 447 1150 447 2328 
Q 447 3434 972 4092 
Q 1497 4750 2381 4750 
Q 2619 4750 2861 4703 
Q 3103 4656 3366 4563 
z
" transform="scale(0.015625)"/>
       </defs>
       <use xlink:href="#DejaVuSans-30"/>
       <use xlink:href="#DejaVuSans-2e" x="63.623047"/>
       <use xlink:href="#DejaVuSans-36" x="95.410156"/>
      </g>
     </g>
    </g>
    <g id="ytick_5">
     <g id="line2d_65">
      <path d="M 62.208 63.816238 
L 460.8 63.816238 
" clip-path="url(#p415e99d264)" style="fill: none; stroke: #b0b0b0; stroke-width: 0.8; stroke-linecap: square"/>
     </g>
     <g id="line2d_66">
      <g>
       <use xlink:href="#m0ead9ef5a5" x="62.208" y="63.816238" style="stroke: #000000; stroke-width: 0.8"/>
      </g>
     </g>
     <g id="text_7">
      <!-- 0.8 -->
      <g transform="translate(29.763 69.894988) scale(0.16 -0.16)">
       <defs>
        <path id="DejaVuSans-38" d="M 2034 2216 
Q 1584 2216 1326 1975 
Q 1069 1734 1069 1313 
Q 1069 891 1326 650 
Q 1584 409 2034 409 
Q 2484 409 2743 651 
Q 3003 894 3003 1313 
Q 3003 1734 2745 1975 
Q 2488 2216 2034 2216 
z
M 1403 2484 
Q 997 2584 770 2862 
Q 544 3141 544 3541 
Q 544 4100 942 4425 
Q 1341 4750 2034 4750 
Q 2731 4750 3128 4425 
Q 3525 4100 3525 3541 
Q 3525 3141 3298 2862 
Q 3072 2584 2669 2484 
Q 3125 2378 3379 2068 
Q 3634 1759 3634 1313 
Q 3634 634 3220 271 
Q 2806 -91 2034 -91 
Q 1263 -91 848 271 
Q 434 634 434 1313 
Q 434 1759 690 2068 
Q 947 2378 1403 2484 
z
M 1172 3481 
Q 1172 3119 1398 2916 
Q 1625 2713 2034 2713 
Q 2441 2713 2670 2916 
Q 2900 3119 2900 3481 
Q 2900 3844 2670 4047 
Q 2441 4250 2034 4250 
Q 1625 4250 1398 4047 
Q 1172 3844 1172 3481 
z
" transform="scale(0.015625)"/>
       </defs>
       <use xlink:href="#DejaVuSans-30"/>
       <use xlink:href="#DejaVuSans-2e" x="63.623047"/>
       <use xlink:href="#DejaVuSans-38" x="95.410156"/>
      </g>
     </g>
    </g>
    <g id="ytick_6">
     <g id="line2d_67">
      <path d="M 62.208 6.330297 
L 460.8 6.330297 
" clip-path="url(#p415e99d264)" style="fill: none; stroke: #b0b0b0; stroke-width: 0.8; stroke-linecap: square"/>
     </g>
     <g id="line2d_68">
      <g>
       <use xlink:href="#m0ead9ef5a5" x="62.208" y="6.330297" style="stroke: #000000; stroke-width: 0.8"/>
      </g>
     </g>
     <g id="text_8">
      <!-- 1.0 -->
      <g transform="translate(29.763 12.409047) scale(0.16 -0.16)">
       <use xlink:href="#DejaVuSans-31"/>
       <use xlink:href="#DejaVuSans-2e" x="63.623047"/>
       <use xlink:href="#DejaVuSans-30" x="95.410156"/>
      </g>
     </g>
    </g>
    <g id="text_9">
     <!-- proportion of trials -->
     <g transform="translate(21.603625 241.61425) rotate(-90) scale(0.2 -0.2)">
      <defs>
       <path id="DejaVuSans-70" d="M 1159 525 
L 1159 -1331 
L 581 -1331 
L 581 3500 
L 1159 3500 
L 1159 2969 
Q 1341 3281 1617 3432 
Q 1894 3584 2278 3584 
Q 2916 3584 3314 3078 
Q 3713 2572 3713 1747 
Q 3713 922 3314 415 
Q 2916 -91 2278 -91 
Q 1894 -91 1617 61 
Q 1341 213 1159 525 
z
M 3116 1747 
Q 3116 2381 2855 2742 
Q 2594 3103 2138 3103 
Q 1681 3103 1420 2742 
Q 1159 2381 1159 1747 
Q 1159 1113 1420 752 
Q 1681 391 2138 391 
Q 2594 391 2855 752 
Q 3116 1113 3116 1747 
z
" transform="scale(0.015625)"/>
       <path id="DejaVuSans-72" d="M 2631 2963 
Q 2534 3019 2420 3045 
Q 2306 3072 2169 3072 
Q 1681 3072 1420 2755 
Q 1159 2438 1159 1844 
L 1159 0 
L 581 0 
L 581 3500 
L 1159 3500 
L 1159 2956 
Q 1341 3275 1631 3429 
Q 1922 3584 2338 3584 
Q 2397 3584 2469 3576 
Q 2541 3569 2628 3553 
L 2631 2963 
z
" transform="scale(0.015625)"/>
       <path id="DejaVuSans-74" d="M 1172 4494 
L 1172 3500 
L 2356 3500 
L 2356 3053 
L 1172 3053 
L 1172 1153 
Q 1172 725 1289 603 
Q 1406 481 1766 481 
L 2356 481 
L 2356 0 
L 1766 0 
Q 1100 0 847 248 
Q 594 497 594 1153 
L 594 3053 
L 172 3053 
L 172 3500 
L 594 3500 
L 594 4494 
L 1172 4494 
z
" transform="scale(0.015625)"/>
       <path id="DejaVuSans-69" d="M 603 3500 
L 1178 3500 
L 1178 0 
L 603 0 
L 603 3500 
z
M 603 4863 
L 1178 4863 
L 1178 4134 
L 603 4134 
L 603 4863 
z
" transform="scale(0.015625)"/>
       <path id="DejaVuSans-6e" d="M 3513 2113 
L 3513 0 
L 2938 0 
L 2938 2094 
Q 2938 2591 2744 2837 
Q 2550 3084 2163 3084 
Q 1697 3084 1428 2787 
Q 1159 2491 1159 1978 
L 1159 0 
L 581 0 
L 581 3500 
L 1159 3500 
L 1159 2956 
Q 1366 3272 1645 3428 
Q 1925 3584 2291 3584 
Q 2894 3584 3203 3211 
Q 3513 2838 3513 2113 
z
" transform="scale(0.015625)"/>
      </defs>
      <use xlink:href="#DejaVuSans-70"/>
      <use xlink:href="#DejaVuSans-72" x="63.476562"/>
      <use xlink:href="#DejaVuSans-6f" x="102.339844"/>
      <use xlink:href="#DejaVuSans-70" x="163.521484"/>
      <use xlink:href="#DejaVuSans-6f" x="226.998047"/>
      <use xlink:href="#DejaVuSans-72" x="288.179688"/>
      <use xlink:href="#DejaVuSans-74" x="329.292969"/>
      <use xlink:href="#DejaVuSans-69" x="368.501953"/>
      <use xlink:href="#DejaVuSans-6f" x="396.285156"/>
      <use xlink:href="#DejaVuSans-6e" x="457.466797"/>
      <use xlink:href="#DejaVuSans-20" x="520.845703"/>
      <use xlink:href="#DejaVuSans-6f" x="552.632812"/>
      <use xlink:href="#DejaVuSans-66" x="613.814453"/>
      <use xlink:href="#DejaVuSans-20" x="649.019531"/>
      <use xlink:href="#DejaVuSans-74" x="680.806641"/>
      <use xlink:href="#DejaVuSans-72" x="720.015625"/>
      <use xlink:href="#DejaVuSans-69" x="761.128906"/>
      <use xlink:href="#DejaVuSans-61" x="788.912109"/>
      <use xlink:href="#DejaVuSans-6c" x="850.191406"/>
      <use xlink:href="#DejaVuSans-73" x="877.974609"/>
     </g>
    </g>
   </g>
   <g id="line2d_69">
    <path d="M -1 276.194851 
L 51.475667 276.194851 
L 51.475667 275.396436 
L 56.983114 275.396436 
L 56.983114 273.001188 
L 62.208 273.001188 
L 62.208 272.202772 
L 88.933197 272.202772 
L 88.933197 270.605941 
L 92.777538 270.605941 
L 92.777538 259.428119 
L 103.50987 259.428119 
L 103.50987 258.629703 
L 110.083954 258.629703 
L 110.083954 257.032871 
L 132.814014 257.032871 
L 132.814014 256.234455 
L 149.241262 256.234455 
L 149.241262 255.43604 
L 151.385825 255.43604 
L 151.385825 254.637624 
L 155.544073 254.637624 
L 155.544073 250.645545 
L 159.539211 250.645545 
L 159.539211 249.048713 
L 161.479516 249.048713 
L 161.479516 248.250297 
L 188.352447 248.250297 
L 188.352447 247.451881 
L 195.478635 247.451881 
L 195.478635 245.85505 
L 200.841081 245.85505 
L 200.841081 244.258218 
L 202.138716 244.258218 
L 202.138716 243.459802 
L 204.685422 243.459802 
L 204.685422 242.661386 
L 208.389937 242.661386 
L 208.389937 241.064554 
L 218.757823 241.064554 
L 218.757823 240.266139 
L 220.925201 240.266139 
L 220.925201 239.467723 
L 221.991838 239.467723 
L 221.991838 238.669307 
L 224.09218 238.669307 
L 224.09218 236.274059 
L 226.150087 236.274059 
L 226.150087 235.475644 
L 230.145224 235.475644 
L 230.145224 234.677228 
L 231.119997 234.677228 
L 231.119997 233.080396 
L 245.567238 233.080396 
L 245.567238 232.28198 
L 247.23716 232.28198 
L 247.23716 231.483564 
L 263.998646 231.483564 
L 263.998646 230.685149 
L 289.91002 230.685149 
L 289.91002 229.886733 
L 292.06593 229.886733 
L 292.06593 229.088317 
L 321.103066 229.088317 
L 321.103066 228.289901 
L 327.325639 228.289901 
L 327.325639 227.491485 
L 328.82365 227.491485 
L 328.82365 226.693069 
L 329.194736 226.693069 
L 329.194736 225.894653 
L 332.475043 225.894653 
L 332.475043 225.096238 
L 334.955307 225.096238 
L 334.955307 224.297822 
L 335.653001 224.297822 
L 335.653001 223.499406 
L 337.034214 223.499406 
L 337.034214 222.70099 
L 338.057971 222.70099 
L 338.057971 221.902574 
L 339.407169 221.902574 
L 339.407169 221.104158 
L 340.73873 221.104158 
L 340.73873 220.305743 
L 343.350743 220.305743 
L 343.350743 219.507327 
L 343.672585 219.507327 
L 343.672585 218.708911 
L 344.313235 218.708911 
L 344.313235 217.112079 
L 345.266717 217.112079 
L 345.266717 216.313663 
L 345.89745 216.313663 
L 345.89745 215.515248 
L 347.457403 215.515248 
L 347.457403 214.716832 
L 349.298349 214.716832 
L 349.298349 213.918416 
L 356.912343 213.918416 
L 356.912343 213.12 
L 358.868618 213.12 
L 358.868618 212.321584 
L 365.304207 212.321584 
L 365.304207 211.523168 
L 366.595263 211.523168 
L 366.595263 210.724752 
L 378.678482 210.724752 
L 378.678482 209.926337 
L 380.26129 209.926337 
L 380.26129 209.127921 
L 384.437486 209.127921 
L 384.437486 208.329505 
L 414.599428 208.329505 
L 414.599428 207.531089 
L 439.484726 207.531089 
L 439.484726 206.732673 
L 440.359092 206.732673 
L 440.359092 205.934257 
L 440.359092 205.934257 
L 460.8 205.934257 
L 460.8 205.934257 
" clip-path="url(#p415e99d264)" style="fill: none; stroke: #000000; stroke-width: 1.5; stroke-linecap: square"/>
   </g>
   <g id="line2d_70">
    <path clip-path="url(#p415e99d264)" style="fill: none; stroke: #000000; stroke-width: 1.5; stroke-linecap: square"/>
   </g>
   <g id="line2d_71">
    <path d="M 92.777538 293.76 
L 92.777538 292.961584 
L 92.777538 292.961584 
L 92.777538 292.163168 
L 92.777538 292.163168 
L 92.777538 291.364752 
L 92.777538 291.364752 
L 92.777538 290.566337 
L 92.777538 290.566337 
L 92.777538 289.767921 
L 92.777538 289.767921 
L 92.777538 288.969505 
L 92.777538 288.969505 
L 92.777538 288.171089 
L 92.777538 288.171089 
L 92.777538 287.372673 
L 199.526702 287.372673 
L 199.526702 286.574257 
L 208.389937 286.574257 
L 208.389937 285.775842 
L 213.128603 285.775842 
L 213.128603 284.977426 
L 221.991838 284.977426 
L 221.991838 284.17901 
L 229.161034 284.17901 
L 229.161034 283.380594 
L 232.08553 283.380594 
L 232.08553 282.582178 
L 233.041996 282.582178 
L 233.041996 281.783762 
L 255.962276 281.783762 
L 255.962276 280.985347 
L 266.084649 280.985347 
L 266.084649 280.186931 
L 278.387812 280.186931 
L 278.387812 279.388515 
L 288.814709 279.388515 
L 288.814709 278.590099 
L 293.127012 278.590099 
L 293.127012 277.791683 
L 296.245509 277.791683 
L 296.245509 276.993267 
L 299.271363 276.993267 
L 299.271363 276.194851 
L 316.173252 276.194851 
L 316.173252 275.396436 
L 385.72149 275.396436 
L 385.72149 274.59802 
L 388.449188 274.59802 
L 388.449188 273.799604 
L 390.701526 273.799604 
L 390.701526 273.001188 
L 393.103121 273.001188 
L 393.103121 272.202772 
L 397.364169 272.202772 
L 397.364169 271.404356 
L 397.931653 271.404356 
L 397.931653 270.605941 
L 398.683412 270.605941 
L 398.683412 269.807525 
L 399.243613 269.807525 
L 399.243613 269.009109 
L 400.170489 269.009109 
L 400.170489 268.210693 
L 403.439099 268.210693 
L 403.439099 267.412277 
L 403.795887 267.412277 
L 403.795887 266.613861 
L 403.795887 266.613861 
L 403.795887 266.613861 
L 460.8 266.613861 
" clip-path="url(#p415e99d264)" style="fill: none; stroke: #00bfbf; stroke-width: 1.5; stroke-linecap: square"/>
   </g>
   <g id="line2d_72">
    <path clip-path="url(#p415e99d264)" style="fill: none; stroke: #00bfbf; stroke-width: 1.5; stroke-linecap: square"/>
   </g>
   <g id="line2d_73">
    <path d="M 92.777538 293.76 
L 92.777538 292.961584 
L 92.777538 292.961584 
L 92.777538 292.163168 
L 92.777538 292.163168 
L 92.777538 291.364752 
L 92.777538 291.364752 
L 92.777538 290.566337 
L 92.777538 290.566337 
L 92.777538 289.767921 
L 92.777538 289.767921 
L 92.777538 288.969505 
L 92.777538 288.969505 
L 92.777538 288.171089 
L 92.777538 288.171089 
L 92.777538 287.372673 
L 278.995951 287.372673 
L 278.995951 286.574257 
L 281.983348 286.574257 
L 281.983348 285.775842 
L 283.734617 285.775842 
L 283.734617 284.977426 
L 285.456285 284.977426 
L 285.456285 284.17901 
L 289.363836 284.17901 
L 289.363836 283.380594 
L 291.531215 283.380594 
L 291.531215 282.582178 
L 292.597852 282.582178 
L 292.597852 281.783762 
L 314.0466 281.783762 
L 314.0466 280.985347 
L 418.372561 280.985347 
L 418.372561 280.186931 
L 458.014713 280.186931 
L 458.014713 279.388515 
L 458.014713 279.388515 
L 458.014713 279.388515 
L 460.8 279.388515 
" clip-path="url(#p415e99d264)" style="fill: none; stroke: #bf00bf; stroke-width: 1.5; stroke-linecap: square"/>
   </g>
   <g id="line2d_74">
    <path clip-path="url(#p415e99d264)" style="fill: none; stroke: #bf00bf; stroke-width: 1.5; stroke-linecap: square"/>
   </g>
   <g id="line2d_75">
    <path d="M 92.777538 293.76 
L 92.777538 292.961584 
L 92.777538 292.961584 
L 92.777538 292.163168 
L 92.777538 292.163168 
L 92.777538 291.364752 
L 92.777538 291.364752 
L 92.777538 290.566337 
L 92.777538 290.566337 
L 92.777538 289.767921 
L 92.777538 289.767921 
L 92.777538 288.969505 
L 92.777538 288.969505 
L 92.777538 288.171089 
L 92.777538 288.171089 
L 92.777538 287.372673 
L 321.503314 287.372673 
L 321.503314 286.574257 
L 324.261861 286.574257 
L 324.261861 285.775842 
L 329.564475 285.775842 
L 329.564475 284.977426 
L 338.057971 284.977426 
L 338.057971 284.17901 
L 338.39695 284.17901 
L 338.39695 283.380594 
L 340.075125 283.380594 
L 340.075125 282.582178 
L 340.407468 282.582178 
L 340.407468 281.783762 
L 353.760214 281.783762 
L 353.760214 280.985347 
L 353.760214 280.985347 
L 353.760214 280.985347 
L 460.8 280.985347 
" clip-path="url(#p415e99d264)" style="fill: none; stroke: #ff0000; stroke-width: 3; stroke-linecap: square"/>
   </g>
   <g id="line2d_76">
    <path clip-path="url(#p415e99d264)" style="fill: none; stroke: #ff0000; stroke-width: 3; stroke-linecap: square"/>
   </g>
   <g id="line2d_77">
    <path d="M 460.8 293.76 
L 460.8 3.456 
" clip-path="url(#p415e99d264)" style="fill: none; stroke: #000000; stroke-width: 1.5; stroke-linecap: square"/>
   </g>
   <g id="patch_3">
    <path d="M 62.208 293.76 
L 62.208 3.456 
" style="fill: none; stroke: #000000; stroke-width: 0.8; stroke-linejoin: miter; stroke-linecap: square"/>
   </g>
   <g id="patch_4">
    <path d="M 460.8 293.76 
L 460.8 3.456 
" style="fill: none; stroke: #000000; stroke-width: 0.8; stroke-linejoin: miter; stroke-linecap: square"/>
   </g>
   <g id="patch_5">
    <path d="M 62.208 293.76 
L 460.8 293.76 
" style="fill: none; stroke: #000000; stroke-width: 0.8; stroke-linejoin: miter; stroke-linecap: square"/>
   </g>
   <g id="patch_6">
    <path d="M 62.208 3.456 
L 460.8 3.456 
" style="fill: none; stroke: #000000; stroke-width: 0.8; stroke-linejoin: miter; stroke-linecap: square"/>
   </g>
   <g id="text_10">
    <!-- {f1-f24}, 20-D -->
    <g transform="translate(188.654 24.458955) scale(0.2 -0.2)">
     <defs>
      <path id="DejaVuSans-7b" d="M 3272 -594 
L 3272 -1044 
L 3078 -1044 
Q 2300 -1044 2036 -812 
Q 1772 -581 1772 109 
L 1772 856 
Q 1772 1328 1603 1509 
Q 1434 1691 991 1691 
L 800 1691 
L 800 2138 
L 991 2138 
Q 1438 2138 1605 2317 
Q 1772 2497 1772 2963 
L 1772 3713 
Q 1772 4403 2036 4633 
Q 2300 4863 3078 4863 
L 3272 4863 
L 3272 4416 
L 3059 4416 
Q 2619 4416 2484 4278 
Q 2350 4141 2350 3700 
L 2350 2925 
Q 2350 2434 2208 2212 
Q 2066 1991 1722 1913 
Q 2069 1828 2209 1606 
Q 2350 1384 2350 897 
L 2350 122 
Q 2350 -319 2484 -456 
Q 2619 -594 3059 -594 
L 3272 -594 
z
" transform="scale(0.015625)"/>
      <path id="DejaVuSans-2d" d="M 313 2009 
L 1997 2009 
L 1997 1497 
L 313 1497 
L 313 2009 
z
" transform="scale(0.015625)"/>
      <path id="DejaVuSans-7d" d="M 800 -594 
L 1019 -594 
Q 1456 -594 1589 -459 
Q 1722 -325 1722 122 
L 1722 897 
Q 1722 1384 1862 1606 
Q 2003 1828 2350 1913 
Q 2003 1991 1862 2212 
Q 1722 2434 1722 2925 
L 1722 3700 
Q 1722 4144 1589 4280 
Q 1456 4416 1019 4416 
L 800 4416 
L 800 4863 
L 997 4863 
Q 1775 4863 2036 4633 
Q 2297 4403 2297 3713 
L 2297 2963 
Q 2297 2497 2465 2317 
Q 2634 2138 3078 2138 
L 3272 2138 
L 3272 1691 
L 3078 1691 
Q 2634 1691 2465 1509 
Q 2297 1328 2297 856 
L 2297 109 
Q 2297 -581 2036 -812 
Q 1775 -1044 997 -1044 
L 800 -1044 
L 800 -594 
z
" transform="scale(0.015625)"/>
      <path id="DejaVuSans-2c" d="M 750 794 
L 1409 794 
L 1409 256 
L 897 -744 
L 494 -744 
L 750 256 
L 750 794 
z
" transform="scale(0.015625)"/>
     </defs>
     <use xlink:href="#DejaVuSans-7b"/>
     <use xlink:href="#DejaVuSans-66" x="63.623047"/>
     <use xlink:href="#DejaVuSans-31" x="98.828125"/>
     <use xlink:href="#DejaVuSans-2d" x="162.451172"/>
     <use xlink:href="#DejaVuSans-66" x="198.535156"/>
     <use xlink:href="#DejaVuSans-32" x="233.740234"/>
     <use xlink:href="#DejaVuSans-34" x="297.363281"/>
     <use xlink:href="#DejaVuSans-7d" x="360.986328"/>
     <use xlink:href="#DejaVuSans-2c" x="424.609375"/>
     <use xlink:href="#DejaVuSans-20" x="456.396484"/>
     <use xlink:href="#DejaVuSans-32" x="488.183594"/>
     <use xlink:href="#DejaVuSans-30" x="551.806641"/>
     <use xlink:href="#DejaVuSans-2d" x="615.429688"/>
     <use xlink:href="#DejaVuSans-44" x="651.513672"/>
    </g>
   </g>
   <g id="text_11">
    <!-- absolute targets -->
    <g transform="translate(62.208 607.73703) scale(0.14 -0.14)">
     <defs>
      <path id="DejaVuSans-62" d="M 3116 1747 
Q 3116 2381 2855 2742 
Q 2594 3103 2138 3103 
Q 1681 3103 1420 2742 
Q 1159 2381 1159 1747 
Q 1159 1113 1420 752 
Q 1681 391 2138 391 
Q 2594 391 2855 752 
Q 3116 1113 3116 1747 
z
M 1159 2969 
Q 1341 3281 1617 3432 
Q 1894 3584 2278 3584 
Q 2916 3584 3314 3078 
Q 3713 2572 3713 1747 
Q 3713 922 3314 415 
Q 2916 -91 2278 -91 
Q 1894 -91 1617 61 
Q 1341 213 1159 525 
L 1159 0 
L 581 0 
L 581 4863 
L 1159 4863 
L 1159 2969 
z
" transform="scale(0.015625)"/>
      <path id="DejaVuSans-75" d="M 544 1381 
L 544 3500 
L 1119 3500 
L 1119 1403 
Q 1119 906 1312 657 
Q 1506 409 1894 409 
Q 2359 409 2629 706 
Q 2900 1003 2900 1516 
L 2900 3500 
L 3475 3500 
L 3475 0 
L 2900 0 
L 2900 538 
Q 2691 219 2414 64 
Q 2138 -91 1772 -91 
Q 1169 -91 856 284 
Q 544 659 544 1381 
z
M 1991 3584 
L 1991 3584 
z
" transform="scale(0.015625)"/>
      <path id="DejaVuSans-65" d="M 3597 1894 
L 3597 1613 
L 953 1613 
Q 991 1019 1311 708 
Q 1631 397 2203 397 
Q 2534 397 2845 478 
Q 3156 559 3463 722 
L 3463 178 
Q 3153 47 2828 -22 
Q 2503 -91 2169 -91 
Q 1331 -91 842 396 
Q 353 884 353 1716 
Q 353 2575 817 3079 
Q 1281 3584 2069 3584 
Q 2775 3584 3186 3129 
Q 3597 2675 3597 1894 
z
M 3022 2063 
Q 3016 2534 2758 2815 
Q 2500 3097 2075 3097 
Q 1594 3097 1305 2825 
Q 1016 2553 972 2059 
L 3022 2063 
z
" transform="scale(0.015625)"/>
     </defs>
     <use xlink:href="#DejaVuSans-61"/>
     <use xlink:href="#DejaVuSans-62" x="61.279297"/>
     <use xlink:href="#DejaVuSans-73" x="124.755859"/>
     <use xlink:href="#DejaVuSans-6f" x="176.855469"/>
     <use xlink:href="#DejaVuSans-6c" x="238.037109"/>
     <use xlink:href="#DejaVuSans-75" x="265.820312"/>
     <use xlink:href="#DejaVuSans-74" x="329.199219"/>
     <use xlink:href="#DejaVuSans-65" x="368.408203"/>
     <use xlink:href="#DejaVuSans-20" x="429.931641"/>
     <use xlink:href="#DejaVuSans-74" x="461.71875"/>
     <use xlink:href="#DejaVuSans-61" x="500.927734"/>
     <use xlink:href="#DejaVuSans-72" x="562.207031"/>
     <use xlink:href="#DejaVuSans-67" x="601.570312"/>
     <use xlink:href="#DejaVuSans-65" x="665.046875"/>
     <use xlink:href="#DejaVuSans-74" x="726.570312"/>
     <use xlink:href="#DejaVuSans-73" x="765.779297"/>
    </g>
   </g>
   <g id="text_12">
    <!-- v2.6.3 -->
    <g style="fill: #808080" transform="translate(245.82275 288.777272) scale(0.1 -0.1)">
     <defs>
      <path id="DejaVuSans-33" d="M 2597 2516 
Q 3050 2419 3304 2112 
Q 3559 1806 3559 1356 
Q 3559 666 3084 287 
Q 2609 -91 1734 -91 
Q 1441 -91 1130 -33 
Q 819 25 488 141 
L 488 750 
Q 750 597 1062 519 
Q 1375 441 1716 441 
Q 2309 441 2620 675 
Q 2931 909 2931 1356 
Q 2931 1769 2642 2001 
Q 2353 2234 1838 2234 
L 1294 2234 
L 1294 2753 
L 1863 2753 
Q 2328 2753 2575 2939 
Q 2822 3125 2822 3475 
Q 2822 3834 2567 4026 
Q 2313 4219 1838 4219 
Q 1578 4219 1281 4162 
Q 984 4106 628 3988 
L 628 4550 
Q 988 4650 1302 4700 
Q 1616 4750 1894 4750 
Q 2613 4750 3031 4423 
Q 3450 4097 3450 3541 
Q 3450 3153 3228 2886 
Q 3006 2619 2597 2516 
z
" transform="scale(0.015625)"/>
     </defs>
     <use xlink:href="#DejaVuSans-76"/>
     <use xlink:href="#DejaVuSans-32" x="59.179688"/>
     <use xlink:href="#DejaVuSans-2e" x="122.802734"/>
     <use xlink:href="#DejaVuSans-36" x="154.589844"/>
     <use xlink:href="#DejaVuSans-2e" x="218.212891"/>
     <use xlink:href="#DejaVuSans-33" x="250"/>
    </g>
   </g>
   <g id="legend_1">
    <g id="patch_7">
     <path d="M 299.34375 136.881 
L 446.8 136.881 
Q 450.8 136.881 450.8 132.881 
L 450.8 17.456 
Q 450.8 13.456 446.8 13.456 
L 299.34375 13.456 
Q 295.34375 13.456 295.34375 17.456 
L 295.34375 132.881 
Q 295.34375 136.881 299.34375 136.881 
z
" style="fill: #ffffff; opacity: 0.2; stroke: #cccccc; stroke-linejoin: miter"/>
    </g>
    <g id="line2d_78">
     <path d="M 303.34375 29.652875 
L 303.34375 29.652875 
L 323.34375 29.652875 
L 323.34375 29.652875 
L 343.34375 29.652875 
" style="fill: none; stroke: #000000; stroke-width: 1.5; stroke-linecap: square"/>
    </g>
    <g id="text_13">
     <!-- 1: 13/24 -->
     <g transform="translate(359.34375 36.652875) scale(0.2 -0.2)">
      <defs>
       <path id="DejaVuSans-3a" d="M 750 794 
L 1409 794 
L 1409 0 
L 750 0 
L 750 794 
z
M 750 3309 
L 1409 3309 
L 1409 2516 
L 750 2516 
L 750 3309 
z
" transform="scale(0.015625)"/>
      </defs>
      <use xlink:href="#DejaVuSans-31"/>
      <use xlink:href="#DejaVuSans-3a" x="63.623047"/>
      <use xlink:href="#DejaVuSans-20" x="97.314453"/>
      <use xlink:href="#DejaVuSans-31" x="129.101562"/>
      <use xlink:href="#DejaVuSans-33" x="192.724609"/>
      <use xlink:href="#DejaVuSans-2f" x="256.347656"/>
      <use xlink:href="#DejaVuSans-32" x="290.039062"/>
      <use xlink:href="#DejaVuSans-34" x="353.662109"/>
     </g>
    </g>
    <g id="line2d_79">
     <path d="M 303.34375 59.009125 
L 303.34375 59.009125 
L 323.34375 59.009125 
L 323.34375 59.009125 
L 343.34375 59.009125 
" style="fill: none; stroke: #00bfbf; stroke-width: 1.5; stroke-linecap: square"/>
    </g>
    <g id="text_14">
     <!-- -1: 6/24 -->
     <g transform="translate(359.34375 66.009125) scale(0.2 -0.2)">
      <use xlink:href="#DejaVuSans-2d"/>
      <use xlink:href="#DejaVuSans-31" x="36.083984"/>
      <use xlink:href="#DejaVuSans-3a" x="99.707031"/>
      <use xlink:href="#DejaVuSans-20" x="133.398438"/>
      <use xlink:href="#DejaVuSans-36" x="165.185547"/>
      <use xlink:href="#DejaVuSans-2f" x="228.808594"/>
      <use xlink:href="#DejaVuSans-32" x="262.5"/>
      <use xlink:href="#DejaVuSans-34" x="326.123047"/>
     </g>
    </g>
    <g id="line2d_80">
     <path d="M 303.34375 88.365375 
L 303.34375 88.365375 
L 323.34375 88.365375 
L 323.34375 88.365375 
L 343.34375 88.365375 
" style="fill: none; stroke: #bf00bf; stroke-width: 1.5; stroke-linecap: square"/>
    </g>
    <g id="text_15">
     <!-- -4: 4/24 -->
     <g transform="translate(359.34375 95.365375) scale(0.2 -0.2)">
      <use xlink:href="#DejaVuSans-2d"/>
      <use xlink:href="#DejaVuSans-34" x="36.083984"/>
      <use xlink:href="#DejaVuSans-3a" x="99.707031"/>
      <use xlink:href="#DejaVuSans-20" x="133.398438"/>
      <use xlink:href="#DejaVuSans-34" x="165.185547"/>
      <use xlink:href="#DejaVuSans-2f" x="228.808594"/>
      <use xlink:href="#DejaVuSans-32" x="262.5"/>
      <use xlink:href="#DejaVuSans-34" x="326.123047"/>
     </g>
    </g>
    <g id="line2d_81">
     <path d="M 303.34375 117.721625 
L 303.34375 117.721625 
L 323.34375 117.721625 
L 323.34375 117.721625 
L 343.34375 117.721625 
" style="fill: none; stroke: #ff0000; stroke-width: 3; stroke-linecap: square"/>
    </g>
    <g id="text_16">
     <!-- -8: 2/24 -->
     <g transform="translate(359.34375 124.721625) scale(0.2 -0.2)">
      <use xlink:href="#DejaVuSans-2d"/>
      <use xlink:href="#DejaVuSans-38" x="36.083984"/>
      <use xlink:href="#DejaVuSans-3a" x="99.707031"/>
      <use xlink:href="#DejaVuSans-20" x="133.398438"/>
      <use xlink:href="#DejaVuSans-32" x="165.185547"/>
      <use xlink:href="#DejaVuSans-2f" x="228.808594"/>
      <use xlink:href="#DejaVuSans-32" x="262.5"/>
      <use xlink:href="#DejaVuSans-34" x="326.123047"/>
     </g>
    </g>
   </g>
  </g>
 </g>
 <defs>
  <clipPath id="p415e99d264">
   <rect x="62.208" y="3.456" width="398.592" height="290.304"/>
  </clipPath>
 </defs>
</svg>
