<?xml version="1.0" encoding="utf-8" standalone="no"?>
<!DOCTYPE svg PUBLIC "-//W3C//DTD SVG 1.1//EN"
  "http://www.w3.org/Graphics/SVG/1.1/DTD/svg11.dtd">
<svg xmlns:xlink="http://www.w3.org/1999/xlink" width="460.8pt" height="345.6pt" viewBox="0 0 460.8 345.6" xmlns="http://www.w3.org/2000/svg" version="1.1">
 <metadata>
  <rdf:RDF xmlns:dc="http://purl.org/dc/elements/1.1/" xmlns:cc="http://creativecommons.org/ns#" xmlns:rdf="http://www.w3.org/1999/02/22-rdf-syntax-ns#">
   <cc:Work>
    <dc:type rdf:resource="http://purl.org/dc/dcmitype/StillImage"/>
    <dc:date>2024-01-25T18:23:08.550521</dc:date>
    <dc:format>image/svg+xml</dc:format>
    <dc:creator>
     <cc:Agent>
      <dc:title>Matplotlib v3.8.2, https://matplotlib.org/</dc:title>
     </cc:Agent>
    </dc:creator>
   </cc:Work>
  </rdf:RDF>
 </metadata>
 <defs>
  <style type="text/css">*{stroke-linejoin: round; stroke-linecap: butt}</style>
 </defs>
 <g id="figure_1">
  <g id="patch_1">
   <path d="M 0 345.6 
L 460.8 345.6 
L 460.8 0 
L 0 0 
z
" style="fill: #ffffff"/>
  </g>
  <g id="axes_1">
   <g id="patch_2">
    <path d="M 0 293.76 
L 460.8 293.76 
L 460.8 3.456 
L 0 3.456 
z
" style="fill: #ffffff"/>
   </g>
   <g id="matplotlib.axis_1">
    <g id="xtick_1">
     <g id="line2d_1">
      <path d="M 102.674388 293.76 
L 102.674388 3.456 
" clip-path="url(#p0ce54af07e)" style="fill: none; stroke: #b0b0b0; stroke-width: 0.8; stroke-linecap: square"/>
     </g>
     <g id="line2d_2">
      <defs>
       <path id="m5d767f0713" d="M 0 0 
L 0 3.5 
" style="stroke: #000000; stroke-width: 0.8"/>
      </defs>
      <g>
       <use xlink:href="#m5d767f0713" x="102.674388" y="293.76" style="stroke: #000000; stroke-width: 0.8"/>
      </g>
     </g>
     <g id="text_1">
      <!-- -4 -->
      <g transform="translate(92.704075 315.956875) scale(0.2 -0.2)">
       <defs>
        <path id="DejaVuSans-2d" d="M 313 2009 
L 1997 2009 
L 1997 1497 
L 313 1497 
L 313 2009 
z
" transform="scale(0.015625)"/>
        <path id="DejaVuSans-34" d="M 2419 4116 
L 825 1625 
L 2419 1625 
L 2419 4116 
z
M 2253 4666 
L 3047 4666 
L 3047 1625 
L 3713 1625 
L 3713 1100 
L 3047 1100 
L 3047 0 
L 2419 0 
L 2419 1100 
L 313 1100 
L 313 1709 
L 2253 4666 
z
" transform="scale(0.015625)"/>
       </defs>
       <use xlink:href="#DejaVuSans-2d"/>
       <use xlink:href="#DejaVuSans-34" x="36.083984"/>
      </g>
     </g>
    </g>
    <g id="xtick_2">
     <g id="line2d_3">
      <path d="M 205.459819 293.76 
L 205.459819 3.456 
" clip-path="url(#p0ce54af07e)" style="fill: none; stroke: #b0b0b0; stroke-width: 0.8; stroke-linecap: square"/>
     </g>
     <g id="line2d_4">
      <g>
       <use xlink:href="#m5d767f0713" x="205.459819" y="293.76" style="stroke: #000000; stroke-width: 0.8"/>
      </g>
     </g>
     <g id="text_2">
      <!-- 0 -->
      <g transform="translate(199.097319 315.956875) scale(0.2 -0.2)">
       <defs>
        <path id="DejaVuSans-30" d="M 2034 4250 
Q 1547 4250 1301 3770 
Q 1056 3291 1056 2328 
Q 1056 1369 1301 889 
Q 1547 409 2034 409 
Q 2525 409 2770 889 
Q 3016 1369 3016 2328 
Q 3016 3291 2770 3770 
Q 2525 4250 2034 4250 
z
M 2034 4750 
Q 2819 4750 3233 4129 
Q 3647 3509 3647 2328 
Q 3647 1150 3233 529 
Q 2819 -91 2034 -91 
Q 1250 -91 836 529 
Q 422 1150 422 2328 
Q 422 3509 836 4129 
Q 1250 4750 2034 4750 
z
" transform="scale(0.015625)"/>
       </defs>
       <use xlink:href="#DejaVuSans-30"/>
      </g>
     </g>
    </g>
    <g id="xtick_3">
     <g id="line2d_5">
      <path d="M 308.24525 293.76 
L 308.24525 3.456 
" clip-path="url(#p0ce54af07e)" style="fill: none; stroke: #b0b0b0; stroke-width: 0.8; stroke-linecap: square"/>
     </g>
     <g id="line2d_6">
      <g>
       <use xlink:href="#m5d767f0713" x="308.24525" y="293.76" style="stroke: #000000; stroke-width: 0.8"/>
      </g>
     </g>
     <g id="text_3">
      <!-- 4 -->
      <g transform="translate(301.88275 315.956875) scale(0.2 -0.2)">
       <use xlink:href="#DejaVuSans-34"/>
      </g>
     </g>
    </g>
    <g id="xtick_4">
     <g id="line2d_7">
      <path d="M 411.030681 293.76 
L 411.030681 3.456 
" clip-path="url(#p0ce54af07e)" style="fill: none; stroke: #b0b0b0; stroke-width: 0.8; stroke-linecap: square"/>
     </g>
     <g id="line2d_8">
      <g>
       <use xlink:href="#m5d767f0713" x="411.030681" y="293.76" style="stroke: #000000; stroke-width: 0.8"/>
      </g>
     </g>
     <g id="text_4">
      <!-- 8 -->
      <g transform="translate(404.668181 315.956875) scale(0.2 -0.2)">
       <defs>
        <path id="DejaVuSans-38" d="M 2034 2216 
Q 1584 2216 1326 1975 
Q 1069 1734 1069 1313 
Q 1069 891 1326 650 
Q 1584 409 2034 409 
Q 2484 409 2743 651 
Q 3003 894 3003 1313 
Q 3003 1734 2745 1975 
Q 2488 2216 2034 2216 
z
M 1403 2484 
Q 997 2584 770 2862 
Q 544 3141 544 3541 
Q 544 4100 942 4425 
Q 1341 4750 2034 4750 
Q 2731 4750 3128 4425 
Q 3525 4100 3525 3541 
Q 3525 3141 3298 2862 
Q 3072 2584 2669 2484 
Q 3125 2378 3379 2068 
Q 3634 1759 3634 1313 
Q 3634 634 3220 271 
Q 2806 -91 2034 -91 
Q 1263 -91 848 271 
Q 434 634 434 1313 
Q 434 1759 690 2068 
Q 947 2378 1403 2484 
z
M 1172 3481 
Q 1172 3119 1398 2916 
Q 1625 2713 2034 2713 
Q 2441 2713 2670 2916 
Q 2900 3119 2900 3481 
Q 2900 3844 2670 4047 
Q 2441 4250 2034 4250 
Q 1625 4250 1398 4047 
Q 1172 3844 1172 3481 
z
" transform="scale(0.015625)"/>
       </defs>
       <use xlink:href="#DejaVuSans-38"/>
      </g>
     </g>
    </g>
    <g id="text_5">
     <!-- log10 of Df -->
     <g transform="translate(175.214063 339.313125) scale(0.2 -0.2)">
      <defs>
       <path id="DejaVuSans-6c" d="M 603 4863 
L 1178 4863 
L 1178 0 
L 603 0 
L 603 4863 
z
" transform="scale(0.015625)"/>
       <path id="DejaVuSans-6f" d="M 1959 3097 
Q 1497 3097 1228 2736 
Q 959 2375 959 1747 
Q 959 1119 1226 758 
Q 1494 397 1959 397 
Q 2419 397 2687 759 
Q 2956 1122 2956 1747 
Q 2956 2369 2687 2733 
Q 2419 3097 1959 3097 
z
M 1959 3584 
Q 2709 3584 3137 3096 
Q 3566 2609 3566 1747 
Q 3566 888 3137 398 
Q 2709 -91 1959 -91 
Q 1206 -91 779 398 
Q 353 888 353 1747 
Q 353 2609 779 3096 
Q 1206 3584 1959 3584 
z
" transform="scale(0.015625)"/>
       <path id="DejaVuSans-67" d="M 2906 1791 
Q 2906 2416 2648 2759 
Q 2391 3103 1925 3103 
Q 1463 3103 1205 2759 
Q 947 2416 947 1791 
Q 947 1169 1205 825 
Q 1463 481 1925 481 
Q 2391 481 2648 825 
Q 2906 1169 2906 1791 
z
M 3481 434 
Q 3481 -459 3084 -895 
Q 2688 -1331 1869 -1331 
Q 1566 -1331 1297 -1286 
Q 1028 -1241 775 -1147 
L 775 -588 
Q 1028 -725 1275 -790 
Q 1522 -856 1778 -856 
Q 2344 -856 2625 -561 
Q 2906 -266 2906 331 
L 2906 616 
Q 2728 306 2450 153 
Q 2172 0 1784 0 
Q 1141 0 747 490 
Q 353 981 353 1791 
Q 353 2603 747 3093 
Q 1141 3584 1784 3584 
Q 2172 3584 2450 3431 
Q 2728 3278 2906 2969 
L 2906 3500 
L 3481 3500 
L 3481 434 
z
" transform="scale(0.015625)"/>
       <path id="DejaVuSans-31" d="M 794 531 
L 1825 531 
L 1825 4091 
L 703 3866 
L 703 4441 
L 1819 4666 
L 2450 4666 
L 2450 531 
L 3481 531 
L 3481 0 
L 794 0 
L 794 531 
z
" transform="scale(0.015625)"/>
       <path id="DejaVuSans-20" transform="scale(0.015625)"/>
       <path id="DejaVuSans-66" d="M 2375 4863 
L 2375 4384 
L 1825 4384 
Q 1516 4384 1395 4259 
Q 1275 4134 1275 3809 
L 1275 3500 
L 2222 3500 
L 2222 3053 
L 1275 3053 
L 1275 0 
L 697 0 
L 697 3053 
L 147 3053 
L 147 3500 
L 697 3500 
L 697 3744 
Q 697 4328 969 4595 
Q 1241 4863 1831 4863 
L 2375 4863 
z
" transform="scale(0.015625)"/>
       <path id="DejaVuSans-44" d="M 1259 4147 
L 1259 519 
L 2022 519 
Q 2988 519 3436 956 
Q 3884 1394 3884 2338 
Q 3884 3275 3436 3711 
Q 2988 4147 2022 4147 
L 1259 4147 
z
M 628 4666 
L 1925 4666 
Q 3281 4666 3915 4102 
Q 4550 3538 4550 2338 
Q 4550 1131 3912 565 
Q 3275 0 1925 0 
L 628 0 
L 628 4666 
z
" transform="scale(0.015625)"/>
      </defs>
      <use xlink:href="#DejaVuSans-6c"/>
      <use xlink:href="#DejaVuSans-6f" x="27.783203"/>
      <use xlink:href="#DejaVuSans-67" x="88.964844"/>
      <use xlink:href="#DejaVuSans-31" x="152.441406"/>
      <use xlink:href="#DejaVuSans-30" x="216.064453"/>
      <use xlink:href="#DejaVuSans-20" x="279.6875"/>
      <use xlink:href="#DejaVuSans-6f" x="311.474609"/>
      <use xlink:href="#DejaVuSans-66" x="372.65625"/>
      <use xlink:href="#DejaVuSans-20" x="407.861328"/>
      <use xlink:href="#DejaVuSans-44" x="439.648438"/>
      <use xlink:href="#DejaVuSans-66" x="516.650391"/>
     </g>
    </g>
   </g>
   <g id="matplotlib.axis_2">
    <g id="ytick_1">
     <g id="line2d_9">
      <path d="M 0 293.76 
L 460.8 293.76 
" clip-path="url(#p0ce54af07e)" style="fill: none; stroke: #b0b0b0; stroke-width: 0.8; stroke-linecap: square"/>
     </g>
     <g id="line2d_10">
      <defs>
       <path id="m6e4fdde7e4" d="M 0 0 
L -3.5 0 
" style="stroke: #000000; stroke-width: 0.8"/>
      </defs>
      <g>
       <use xlink:href="#m6e4fdde7e4" x="0" y="293.76" style="stroke: #000000; stroke-width: 0.8"/>
      </g>
     </g>
    </g>
    <g id="ytick_2">
     <g id="line2d_11">
      <path d="M 0 236.274059 
L 460.8 236.274059 
" clip-path="url(#p0ce54af07e)" style="fill: none; stroke: #b0b0b0; stroke-width: 0.8; stroke-linecap: square"/>
     </g>
     <g id="line2d_12">
      <g>
       <use xlink:href="#m6e4fdde7e4" x="0" y="236.274059" style="stroke: #000000; stroke-width: 0.8"/>
      </g>
     </g>
    </g>
    <g id="ytick_3">
     <g id="line2d_13">
      <path d="M 0 178.788119 
L 460.8 178.788119 
" clip-path="url(#p0ce54af07e)" style="fill: none; stroke: #b0b0b0; stroke-width: 0.8; stroke-linecap: square"/>
     </g>
     <g id="line2d_14">
      <g>
       <use xlink:href="#m6e4fdde7e4" x="0" y="178.788119" style="stroke: #000000; stroke-width: 0.8"/>
      </g>
     </g>
    </g>
    <g id="ytick_4">
     <g id="line2d_15">
      <path d="M 0 121.302178 
L 460.8 121.302178 
" clip-path="url(#p0ce54af07e)" style="fill: none; stroke: #b0b0b0; stroke-width: 0.8; stroke-linecap: square"/>
     </g>
     <g id="line2d_16">
      <g>
       <use xlink:href="#m6e4fdde7e4" x="0" y="121.302178" style="stroke: #000000; stroke-width: 0.8"/>
      </g>
     </g>
    </g>
    <g id="ytick_5">
     <g id="line2d_17">
      <path d="M 0 63.816238 
L 460.8 63.816238 
" clip-path="url(#p0ce54af07e)" style="fill: none; stroke: #b0b0b0; stroke-width: 0.8; stroke-linecap: square"/>
     </g>
     <g id="line2d_18">
      <g>
       <use xlink:href="#m6e4fdde7e4" x="0" y="63.816238" style="stroke: #000000; stroke-width: 0.8"/>
      </g>
     </g>
    </g>
    <g id="ytick_6">
     <g id="line2d_19">
      <path d="M 0 6.330297 
L 460.8 6.330297 
" clip-path="url(#p0ce54af07e)" style="fill: none; stroke: #b0b0b0; stroke-width: 0.8; stroke-linecap: square"/>
     </g>
     <g id="line2d_20">
      <g>
       <use xlink:href="#m6e4fdde7e4" x="0" y="6.330297" style="stroke: #000000; stroke-width: 0.8"/>
      </g>
     </g>
    </g>
   </g>
   <g id="line2d_21">
    <path d="M -1 263.100832 
L -0.111044 263.100832 
L -0.111044 232.441663 
L 206.216537 232.441663 
L 206.216537 228.609267 
L 223.296158 228.609267 
L 223.296158 224.776871 
L 225.399064 224.776871 
L 225.399064 220.944475 
L 226.131191 220.944475 
L 226.131191 217.112079 
L 230.237779 217.112079 
L 230.237779 213.279683 
L 234.027695 213.279683 
L 234.027695 209.447287 
L 235.624695 209.447287 
L 235.624695 205.614891 
L 237.612975 205.614891 
L 237.612975 201.782495 
L 239.379584 201.782495 
L 239.379585 194.117703 
L 239.676414 194.117703 
L 239.75042 186.452911 
L 239.89874 186.452911 
L 239.89874 182.620515 
L 240.210077 182.620515 
L 240.210077 178.788119 
L 240.394834 178.788119 
L 240.394834 174.955723 
L 240.869792 174.955723 
L 240.869792 171.123327 
L 241.041302 171.123327 
L 241.041302 167.290931 
L 242.184227 167.290931 
L 242.184227 163.458535 
L 242.590076 163.458535 
L 242.590076 159.626139 
L 243.725935 159.626139 
L 243.725935 151.961347 
L 244.761351 151.961347 
L 244.761351 148.12895 
L 244.992245 148.12895 
L 244.992245 144.296554 
L 245.8918 144.296554 
L 245.8918 140.464158 
L 247.884902 140.464158 
L 247.884902 136.631762 
L 249.002492 136.631762 
L 249.002492 132.799366 
L 249.28163 132.799366 
L 249.28163 128.96697 
L 249.498382 128.96697 
L 249.599254 121.302178 
L 249.919575 121.302178 
L 249.919575 117.469782 
L 250.210392 117.469782 
L 250.210392 113.637386 
L 250.674964 113.637386 
L 250.716981 105.972594 
L 251.461217 105.972594 
L 251.544706 98.307802 
L 253.733369 98.307802 
L 253.733369 94.475406 
L 255.265292 94.475406 
L 255.265292 90.64301 
L 255.495174 90.64301 
L 255.495174 86.810614 
L 256.068806 86.810614 
L 256.068806 82.978218 
L 257.282251 82.978218 
L 257.282251 79.145822 
L 257.519065 79.145822 
L 257.519065 75.313426 
L 257.921676 75.313426 
L 257.921676 71.48103 
L 258.632758 71.48103 
L 258.632758 67.648634 
L 258.885562 67.648634 
L 258.885562 63.816238 
L 259.753083 63.816238 
L 259.753083 59.983842 
L 263.95067 59.983842 
L 263.95067 56.151446 
L 265.543076 56.151446 
L 265.543076 52.31905 
L 266.190189 52.31905 
L 266.190189 48.486653 
L 269.106013 48.486653 
L 269.106013 44.654257 
L 269.276183 44.654257 
L 269.276183 40.821861 
L 273.088885 40.821861 
L 273.088885 36.989465 
L 273.899395 36.989465 
L 273.899395 33.157069 
L 275.031475 33.157069 
L 275.031475 29.324673 
L 279.181081 29.324673 
L 279.181081 25.492277 
L 279.38415 25.492277 
L 279.38415 21.659881 
L 291.017863 21.659881 
L 291.017863 17.827485 
L 292.047302 17.827485 
L 292.047302 13.995089 
L 297.433984 13.995089 
L 297.433984 10.162693 
L 304.560009 10.162693 
L 304.560009 6.330297 
L 304.560009 6.330297 
L 460.8 6.330297 
L 460.8 6.330297 
" clip-path="url(#p0ce54af07e)" style="fill: none; stroke: #ff0000; stroke-width: 3; stroke-linecap: square"/>
   </g>
   <g id="line2d_22">
    <path d="M 220.826745 293.76 
L 220.826745 289.927604 
L 233.931966 289.927604 
L 233.931966 286.095208 
L 237.68188 286.095208 
L 237.68188 282.262812 
L 240.190009 282.262812 
L 240.190009 278.430416 
L 241.606179 278.430416 
L 241.606179 274.59802 
L 242.646848 274.59802 
L 242.646848 270.765624 
L 243.301945 270.765624 
L 243.301945 266.933228 
L 243.779412 266.933228 
L 243.779412 263.100832 
L 244.630612 263.100832 
L 244.630612 259.268436 
L 244.75901 259.268436 
L 244.75901 255.43604 
L 244.886742 255.43604 
L 244.886742 251.603644 
L 245.372641 251.603644 
L 245.372641 247.771248 
L 246.106331 247.771248 
L 246.106331 243.938851 
L 246.441425 243.938851 
L 246.441425 240.106455 
L 249.976466 240.106455 
L 249.976466 236.274059 
L 255.272934 236.274059 
L 255.272934 232.441663 
L 255.455787 232.441663 
L 255.455787 228.609267 
L 256.068806 228.609267 
L 256.068806 224.776871 
L 257.227655 224.776871 
L 257.227655 220.944475 
L 257.692773 220.944475 
L 257.692773 163.458535 
L 258.717686 163.458535 
L 258.717686 159.626139 
L 259.092212 159.626139 
L 259.092212 155.793743 
L 259.527544 155.793743 
L 259.527544 151.961347 
L 259.816255 151.961347 
L 259.816255 148.12895 
L 261.594476 148.12895 
L 261.594476 144.296554 
L 261.979712 144.296554 
L 261.979712 140.464158 
L 262.284288 140.464158 
L 262.284288 136.631762 
L 262.970583 136.631762 
L 262.970583 132.799366 
L 263.8216 132.799366 
L 263.878984 125.134574 
L 263.93364 125.134574 
L 263.93364 121.302178 
L 264.125602 121.302178 
L 264.125602 117.469782 
L 264.697704 117.469782 
L 264.717492 109.80499 
L 266.386846 109.80499 
L 266.413474 102.140198 
L 266.746287 102.140198 
L 266.746287 98.307802 
L 266.885377 98.307802 
L 266.885377 94.475406 
L 267.088991 94.475406 
L 267.088991 90.64301 
L 267.396112 90.64301 
L 267.471761 75.313426 
L 267.937801 75.313426 
L 267.937801 71.48103 
L 268.680736 71.48103 
L 268.680736 67.648634 
L 273.135242 67.648634 
L 273.135242 63.816238 
L 311.838235 63.816238 
L 311.838235 59.983842 
L 334.801705 59.983842 
L 334.801705 56.151446 
L 339.97525 56.151446 
L 339.97525 52.31905 
L 348.51816 52.31905 
L 348.51816 48.486653 
L 357.011789 48.486653 
L 357.011789 44.654257 
L 358.799849 44.654257 
L 358.799849 40.821861 
L 373.493241 40.821861 
L 373.493241 36.989465 
L 373.754113 36.989465 
L 373.754113 33.157069 
L 374.161932 33.157069 
L 374.161932 29.324673 
L 379.104085 29.324673 
L 379.104085 25.492277 
L 381.685628 25.492277 
L 381.685628 21.659881 
L 384.073303 21.659881 
L 384.073303 17.827485 
L 384.444988 17.827485 
L 384.444988 13.995089 
L 385.681888 13.995089 
L 385.681888 10.162693 
L 386.859168 10.162693 
L 386.859168 6.330297 
L 386.859168 6.330297 
L 460.8 6.330297 
L 460.8 6.330297 
" clip-path="url(#p0ce54af07e)" style="fill: none; stroke: #00bfbf; stroke-width: 1.5; stroke-linecap: square"/>
   </g>
   <g id="line2d_23">
    <path d="M 206.216537 293.76 
L 206.216537 289.927604 
L 231.123963 289.927604 
L 231.123963 286.095208 
L 236.357605 286.095208 
L 236.357605 282.262812 
L 237.892291 282.262812 
L 237.892291 278.430416 
L 238.761664 278.430416 
L 238.761664 274.59802 
L 241.275464 274.59802 
L 241.275464 270.765624 
L 241.667035 270.765624 
L 241.667035 266.933228 
L 242.02232 266.933228 
L 242.02232 263.100832 
L 242.895229 263.100832 
L 242.895229 259.268436 
L 243.301945 259.268436 
L 243.301945 255.43604 
L 243.51324 255.43604 
L 243.51324 251.603644 
L 243.814 251.603644 
L 243.814 247.771248 
L 244.366368 247.771248 
L 244.366368 243.938851 
L 246.106331 243.938851 
L 246.106331 240.106455 
L 248.471883 240.106455 
L 248.471883 236.274059 
L 250.674964 236.274059 
L 250.674964 232.441663 
L 254.01173 232.441663 
L 254.01173 228.609267 
L 255.495174 228.609267 
L 255.495174 224.776871 
L 256.068806 224.776871 
L 256.068806 220.944475 
L 257.094999 220.944475 
L 257.094999 197.950099 
L 257.360568 197.950099 
L 257.360568 182.620515 
L 257.507179 182.620515 
L 257.588786 171.123327 
L 257.692773 171.123327 
L 257.692773 163.458535 
L 258.211544 163.458535 
L 258.211544 159.626139 
L 258.72567 159.626139 
L 258.72567 155.793743 
L 259.002573 155.793743 
L 259.002573 151.961347 
L 259.513775 151.961347 
L 259.559993 144.296554 
L 260.020697 144.296554 
L 260.020697 140.464158 
L 261.9602 140.464158 
L 262.002174 132.799366 
L 262.668701 132.799366 
L 262.764474 125.134574 
L 263.061647 125.134574 
L 263.061647 121.302178 
L 263.93364 121.302178 
L 263.93364 117.469782 
L 264.246481 117.469782 
L 264.246481 113.637386 
L 264.717492 113.637386 
L 264.717492 109.80499 
L 264.912136 109.80499 
L 264.912136 105.972594 
L 265.341211 105.972594 
L 265.451457 98.307802 
L 266.051141 98.307802 
L 266.070087 86.810614 
L 266.412377 86.810614 
L 266.412377 82.978218 
L 266.808994 82.978218 
L 266.808994 79.145822 
L 266.929073 79.145822 
L 266.929073 75.313426 
L 267.095564 75.313426 
L 267.095564 71.48103 
L 268.585367 71.48103 
L 268.585367 67.648634 
L 272.279549 67.648634 
L 272.279549 63.816238 
L 310.141842 63.816238 
L 310.141842 59.983842 
L 334.790604 59.983842 
L 334.790604 56.151446 
L 339.97525 56.151446 
L 339.97525 52.31905 
L 348.515751 52.31905 
L 348.515751 48.486653 
L 356.546822 48.486653 
L 356.546822 44.654257 
L 356.968566 44.654257 
L 356.968566 40.821861 
L 373.493241 40.821861 
L 373.493241 36.989465 
L 373.746328 36.989465 
L 373.746328 33.157069 
L 373.861241 33.157069 
L 373.861241 29.324673 
L 379.104073 29.324673 
L 379.104073 25.492277 
L 381.535992 25.492277 
L 381.535992 21.659881 
L 384.073303 21.659881 
L 384.073303 17.827485 
L 384.44286 17.827485 
L 384.44286 13.995089 
L 385.515461 13.995089 
L 385.515461 10.162693 
L 386.857044 10.162693 
L 386.857044 6.330297 
L 386.857044 6.330297 
L 460.8 6.330297 
L 460.8 6.330297 
" clip-path="url(#p0ce54af07e)" style="fill: none; stroke: #bf00bf; stroke-width: 1.5; stroke-linecap: square"/>
   </g>
   <g id="line2d_24">
    <path d="M -0.111044 293.76 
L -0.111044 263.100832 
L 195.930416 263.100832 
L 195.930416 259.268436 
L 201.205865 259.268436 
L 201.205865 255.43604 
L 205.388727 255.43604 
L 205.388727 251.603644 
L 206.216537 251.603644 
L 206.216537 247.771248 
L 207.026284 247.771248 
L 207.026284 243.938851 
L 208.308145 243.938851 
L 208.308145 240.106455 
L 211.900735 240.106455 
L 211.900735 236.274059 
L 213.71146 236.274059 
L 213.71146 232.441663 
L 218.750054 232.441663 
L 218.750054 228.609267 
L 230.237779 228.609267 
L 230.237779 224.776871 
L 239.75042 224.776871 
L 239.75042 220.944475 
L 240.220703 220.944475 
L 240.220703 217.112079 
L 240.511453 217.112079 
L 240.511453 213.279683 
L 241.275464 213.279683 
L 241.275464 209.447287 
L 242.185645 209.447287 
L 242.185645 205.614891 
L 242.895229 205.614891 
L 242.895229 201.782495 
L 243.301945 201.782495 
L 243.301945 197.950099 
L 245.729962 197.950099 
L 245.729962 194.117703 
L 245.8918 194.117703 
L 245.8918 190.285307 
L 246.106331 190.285307 
L 246.106331 186.452911 
L 246.688805 186.452911 
L 246.727184 178.788119 
L 248.202512 178.788119 
L 248.202512 174.955723 
L 248.707227 174.955723 
L 248.707227 171.123327 
L 249.018966 171.123327 
L 249.018966 167.290931 
L 249.152029 167.290931 
L 249.152029 163.458535 
L 249.272063 163.458535 
L 249.272063 159.626139 
L 249.464064 159.626139 
L 249.464064 155.793743 
L 249.723016 155.793743 
L 249.723016 151.961347 
L 250.072752 151.961347 
L 250.072752 148.12895 
L 250.639795 148.12895 
L 250.674964 140.464158 
L 252.556813 140.464158 
L 252.556813 136.631762 
L 253.437467 136.631762 
L 253.437467 132.799366 
L 254.01173 132.799366 
L 254.01173 128.96697 
L 254.596475 128.96697 
L 254.596475 125.134574 
L 254.823113 125.134574 
L 254.870081 117.469782 
L 255.495174 117.469782 
L 255.495174 113.637386 
L 256.068806 113.637386 
L 256.073195 105.972594 
L 256.606543 105.972594 
L 256.606543 98.307802 
L 257.381006 98.307802 
L 257.416904 90.64301 
L 257.727489 90.64301 
L 257.727489 86.810614 
L 258.322919 86.810614 
L 258.322919 82.978218 
L 258.632758 82.978218 
L 258.632758 79.145822 
L 258.885562 79.145822 
L 258.896857 71.48103 
L 261.881663 71.48103 
L 261.881663 67.648634 
L 267.095564 67.648634 
L 267.095564 63.816238 
L 301.309362 63.816238 
L 301.309362 59.983842 
L 323.144831 59.983842 
L 323.144831 56.151446 
L 329.176265 56.151446 
L 329.176265 52.31905 
L 330.559602 52.31905 
L 330.559602 48.486653 
L 331.214462 48.486653 
L 331.214462 44.654257 
L 337.205962 44.654257 
L 337.205962 40.821861 
L 341.61803 40.821861 
L 341.61803 36.989465 
L 342.376682 36.989465 
L 342.376682 33.157069 
L 345.071446 33.157069 
L 345.071446 29.324673 
L 348.316143 29.324673 
L 348.316143 25.492277 
L 351.67573 25.492277 
L 351.67573 21.659881 
L 351.944201 21.659881 
L 351.944201 17.827485 
L 352.311914 17.827485 
L 352.311914 13.995089 
L 353.414708 13.995089 
L 353.414708 10.162693 
L 358.62808 10.162693 
L 358.62808 6.330297 
L 358.62808 6.330297 
L 460.8 6.330297 
L 460.8 6.330297 
" clip-path="url(#p0ce54af07e)" style="fill: none; stroke: #000000; stroke-width: 1.5; stroke-linecap: square"/>
   </g>
   <g id="line2d_25">
    <path d="M -0.111044 293.76 
L -0.111044 263.100832 
L 26.618826 263.100832 
L 26.618826 259.268436 
L 68.093185 259.268436 
L 68.093185 255.43604 
L 70.727278 255.43604 
L 70.727278 251.603644 
L 72.44964 251.603644 
L 72.44964 247.771248 
L 82.671821 247.771248 
L 82.671821 243.938851 
L 83.525979 243.938851 
L 83.525979 240.106455 
L 89.41132 240.106455 
L 89.41132 236.274059 
L 90.708638 236.274059 
L 90.708638 232.441663 
L 206.216537 232.441663 
L 206.216537 228.609267 
L 226.455572 228.609267 
L 226.455572 224.776871 
L 230.237779 224.776871 
L 230.237779 220.944475 
L 235.973796 220.944475 
L 235.973796 217.112079 
L 238.035848 217.112079 
L 238.035848 213.279683 
L 238.377356 213.279683 
L 238.377356 209.447287 
L 239.380769 209.447287 
L 239.380769 205.614891 
L 239.75042 205.614891 
L 239.75042 201.782495 
L 240.005008 201.782495 
L 240.005008 197.950099 
L 240.210077 197.950099 
L 240.210077 194.117703 
L 240.511453 194.117703 
L 240.511453 190.285307 
L 241.275464 190.285307 
L 241.275464 186.452911 
L 242.122461 186.452911 
L 242.122461 182.620515 
L 242.24474 182.620515 
L 242.24474 178.788119 
L 242.396748 178.788119 
L 242.396748 174.955723 
L 243.301945 174.955723 
L 243.301945 171.123327 
L 243.427884 171.123327 
L 243.427884 167.290931 
L 243.857297 167.290931 
L 243.857297 163.458535 
L 245.046436 163.458535 
L 245.154912 155.793743 
L 245.58099 155.793743 
L 245.58099 151.961347 
L 245.8918 151.961347 
L 245.8918 148.12895 
L 246.106331 148.12895 
L 246.106331 144.296554 
L 249.360392 144.296554 
L 249.360392 140.464158 
L 249.538667 140.464158 
L 249.625867 132.799366 
L 249.931124 132.799366 
L 249.931124 128.96697 
L 250.063794 128.96697 
L 250.063794 125.134574 
L 250.674964 125.134574 
L 250.674964 121.302178 
L 252.556813 121.302178 
L 252.607108 113.637386 
L 253.760272 113.637386 
L 253.760272 109.80499 
L 254.01173 109.80499 
L 254.01173 105.972594 
L 254.417368 105.972594 
L 254.500063 98.307802 
L 255.026794 98.307802 
L 255.026794 94.475406 
L 255.495174 94.475406 
L 255.495174 90.64301 
L 256.068806 90.64301 
L 256.068806 86.810614 
L 257.282251 86.810614 
L 257.282251 82.978218 
L 257.733338 82.978218 
L 257.733338 79.145822 
L 257.921676 79.145822 
L 257.921676 75.313426 
L 258.632758 75.313426 
L 258.632758 71.48103 
L 258.885562 71.48103 
L 258.885562 67.648634 
L 267.095564 67.648634 
L 267.095564 63.816238 
L 274.348689 63.816238 
L 274.348689 59.983842 
L 288.6933 59.983842 
L 288.6933 56.151446 
L 290.496772 56.151446 
L 290.496772 52.31905 
L 305.293564 52.31905 
L 305.293564 48.486653 
L 305.737865 48.486653 
L 305.737865 44.654257 
L 308.851664 44.654257 
L 308.851664 40.821861 
L 313.415548 40.821861 
L 313.415548 36.989465 
L 315.505899 36.989465 
L 315.505899 33.157069 
L 316.70543 33.157069 
L 316.70543 29.324673 
L 328.703307 29.324673 
L 328.703307 25.492277 
L 328.952392 25.492277 
L 329.044683 17.827485 
L 329.719733 17.827485 
L 329.719733 13.995089 
L 337.092556 13.995089 
L 337.092556 10.162693 
L 340.186331 10.162693 
L 340.186331 6.330297 
L 340.186331 6.330297 
L 460.8 6.330297 
L 460.8 6.330297 
" clip-path="url(#p0ce54af07e)" style="fill: none; stroke: #00bfbf; stroke-width: 1.5; stroke-linecap: square"/>
   </g>
   <g id="patch_3">
    <path d="M 0 293.76 
L 0 3.456 
" style="fill: none; stroke: #000000; stroke-width: 0.8; stroke-linejoin: miter; stroke-linecap: square"/>
   </g>
   <g id="patch_4">
    <path d="M 460.8 293.76 
L 460.8 3.456 
" style="fill: none; stroke: #000000; stroke-width: 0.8; stroke-linejoin: miter; stroke-linecap: square"/>
   </g>
   <g id="patch_5">
    <path d="M 0 293.76 
L 460.8 293.76 
" style="fill: none; stroke: #000000; stroke-width: 0.8; stroke-linejoin: miter; stroke-linecap: square"/>
   </g>
   <g id="patch_6">
    <path d="M 0 3.456 
L 460.8 3.456 
" style="fill: none; stroke: #000000; stroke-width: 0.8; stroke-linejoin: miter; stroke-linecap: square"/>
   </g>
   <g id="text_6">
    <!-- {f1-f5}, 5-D -->
    <g transform="translate(331.334 287.95392) scale(0.2 -0.2)">
     <defs>
      <path id="DejaVuSans-7b" d="M 3272 -594 
L 3272 -1044 
L 3078 -1044 
Q 2300 -1044 2036 -812 
Q 1772 -581 1772 109 
L 1772 856 
Q 1772 1328 1603 1509 
Q 1434 1691 991 1691 
L 800 1691 
L 800 2138 
L 991 2138 
Q 1438 2138 1605 2317 
Q 1772 2497 1772 2963 
L 1772 3713 
Q 1772 4403 2036 4633 
Q 2300 4863 3078 4863 
L 3272 4863 
L 3272 4416 
L 3059 4416 
Q 2619 4416 2484 4278 
Q 2350 4141 2350 3700 
L 2350 2925 
Q 2350 2434 2208 2212 
Q 2066 1991 1722 1913 
Q 2069 1828 2209 1606 
Q 2350 1384 2350 897 
L 2350 122 
Q 2350 -319 2484 -456 
Q 2619 -594 3059 -594 
L 3272 -594 
z
" transform="scale(0.015625)"/>
      <path id="DejaVuSans-35" d="M 691 4666 
L 3169 4666 
L 3169 4134 
L 1269 4134 
L 1269 2991 
Q 1406 3038 1543 3061 
Q 1681 3084 1819 3084 
Q 2600 3084 3056 2656 
Q 3513 2228 3513 1497 
Q 3513 744 3044 326 
Q 2575 -91 1722 -91 
Q 1428 -91 1123 -41 
Q 819 9 494 109 
L 494 744 
Q 775 591 1075 516 
Q 1375 441 1709 441 
Q 2250 441 2565 725 
Q 2881 1009 2881 1497 
Q 2881 1984 2565 2268 
Q 2250 2553 1709 2553 
Q 1456 2553 1204 2497 
Q 953 2441 691 2322 
L 691 4666 
z
" transform="scale(0.015625)"/>
      <path id="DejaVuSans-7d" d="M 800 -594 
L 1019 -594 
Q 1456 -594 1589 -459 
Q 1722 -325 1722 122 
L 1722 897 
Q 1722 1384 1862 1606 
Q 2003 1828 2350 1913 
Q 2003 1991 1862 2212 
Q 1722 2434 1722 2925 
L 1722 3700 
Q 1722 4144 1589 4280 
Q 1456 4416 1019 4416 
L 800 4416 
L 800 4863 
L 997 4863 
Q 1775 4863 2036 4633 
Q 2297 4403 2297 3713 
L 2297 2963 
Q 2297 2497 2465 2317 
Q 2634 2138 3078 2138 
L 3272 2138 
L 3272 1691 
L 3078 1691 
Q 2634 1691 2465 1509 
Q 2297 1328 2297 856 
L 2297 109 
Q 2297 -581 2036 -812 
Q 1775 -1044 997 -1044 
L 800 -1044 
L 800 -594 
z
" transform="scale(0.015625)"/>
      <path id="DejaVuSans-2c" d="M 750 794 
L 1409 794 
L 1409 256 
L 897 -744 
L 494 -744 
L 750 256 
L 750 794 
z
" transform="scale(0.015625)"/>
     </defs>
     <use xlink:href="#DejaVuSans-7b"/>
     <use xlink:href="#DejaVuSans-66" x="63.623047"/>
     <use xlink:href="#DejaVuSans-31" x="98.828125"/>
     <use xlink:href="#DejaVuSans-2d" x="162.451172"/>
     <use xlink:href="#DejaVuSans-66" x="198.535156"/>
     <use xlink:href="#DejaVuSans-35" x="233.740234"/>
     <use xlink:href="#DejaVuSans-7d" x="297.363281"/>
     <use xlink:href="#DejaVuSans-2c" x="360.986328"/>
     <use xlink:href="#DejaVuSans-20" x="392.773438"/>
     <use xlink:href="#DejaVuSans-35" x="424.560547"/>
     <use xlink:href="#DejaVuSans-2d" x="488.183594"/>
     <use xlink:href="#DejaVuSans-44" x="524.267578"/>
    </g>
   </g>
   <g id="text_7">
    <!-- v2.6.3 -->
    <g style="fill: #808080" transform="translate(214.71875 288.777272) scale(0.1 -0.1)">
     <defs>
      <path id="DejaVuSans-76" d="M 191 3500 
L 800 3500 
L 1894 563 
L 2988 3500 
L 3597 3500 
L 2284 0 
L 1503 0 
L 191 3500 
z
" transform="scale(0.015625)"/>
      <path id="DejaVuSans-32" d="M 1228 531 
L 3431 531 
L 3431 0 
L 469 0 
L 469 531 
Q 828 903 1448 1529 
Q 2069 2156 2228 2338 
Q 2531 2678 2651 2914 
Q 2772 3150 2772 3378 
Q 2772 3750 2511 3984 
Q 2250 4219 1831 4219 
Q 1534 4219 1204 4116 
Q 875 4013 500 3803 
L 500 4441 
Q 881 4594 1212 4672 
Q 1544 4750 1819 4750 
Q 2544 4750 2975 4387 
Q 3406 4025 3406 3419 
Q 3406 3131 3298 2873 
Q 3191 2616 2906 2266 
Q 2828 2175 2409 1742 
Q 1991 1309 1228 531 
z
" transform="scale(0.015625)"/>
      <path id="DejaVuSans-2e" d="M 684 794 
L 1344 794 
L 1344 0 
L 684 0 
L 684 794 
z
" transform="scale(0.015625)"/>
      <path id="DejaVuSans-36" d="M 2113 2584 
Q 1688 2584 1439 2293 
Q 1191 2003 1191 1497 
Q 1191 994 1439 701 
Q 1688 409 2113 409 
Q 2538 409 2786 701 
Q 3034 994 3034 1497 
Q 3034 2003 2786 2293 
Q 2538 2584 2113 2584 
z
M 3366 4563 
L 3366 3988 
Q 3128 4100 2886 4159 
Q 2644 4219 2406 4219 
Q 1781 4219 1451 3797 
Q 1122 3375 1075 2522 
Q 1259 2794 1537 2939 
Q 1816 3084 2150 3084 
Q 2853 3084 3261 2657 
Q 3669 2231 3669 1497 
Q 3669 778 3244 343 
Q 2819 -91 2113 -91 
Q 1303 -91 875 529 
Q 447 1150 447 2328 
Q 447 3434 972 4092 
Q 1497 4750 2381 4750 
Q 2619 4750 2861 4703 
Q 3103 4656 3366 4563 
z
" transform="scale(0.015625)"/>
      <path id="DejaVuSans-33" d="M 2597 2516 
Q 3050 2419 3304 2112 
Q 3559 1806 3559 1356 
Q 3559 666 3084 287 
Q 2609 -91 1734 -91 
Q 1441 -91 1130 -33 
Q 819 25 488 141 
L 488 750 
Q 750 597 1062 519 
Q 1375 441 1716 441 
Q 2309 441 2620 675 
Q 2931 909 2931 1356 
Q 2931 1769 2642 2001 
Q 2353 2234 1838 2234 
L 1294 2234 
L 1294 2753 
L 1863 2753 
Q 2328 2753 2575 2939 
Q 2822 3125 2822 3475 
Q 2822 3834 2567 4026 
Q 2313 4219 1838 4219 
Q 1578 4219 1281 4162 
Q 984 4106 628 3988 
L 628 4550 
Q 988 4650 1302 4700 
Q 1616 4750 1894 4750 
Q 2613 4750 3031 4423 
Q 3450 4097 3450 3541 
Q 3450 3153 3228 2886 
Q 3006 2619 2597 2516 
z
" transform="scale(0.015625)"/>
     </defs>
     <use xlink:href="#DejaVuSans-76"/>
     <use xlink:href="#DejaVuSans-32" x="59.179688"/>
     <use xlink:href="#DejaVuSans-2e" x="122.802734"/>
     <use xlink:href="#DejaVuSans-36" x="154.589844"/>
     <use xlink:href="#DejaVuSans-2e" x="218.212891"/>
     <use xlink:href="#DejaVuSans-33" x="250"/>
    </g>
   </g>
  </g>
 </g>
 <defs>
  <clipPath id="p0ce54af07e">
   <rect x="0" y="3.456" width="460.8" height="290.304"/>
  </clipPath>
 </defs>
</svg>
