<?xml version="1.0" encoding="utf-8" standalone="no"?>
<!DOCTYPE svg PUBLIC "-//W3C//DTD SVG 1.1//EN"
  "http://www.w3.org/Graphics/SVG/1.1/DTD/svg11.dtd">
<svg xmlns:xlink="http://www.w3.org/1999/xlink" width="460.8pt" height="345.6pt" viewBox="0 0 460.8 345.6" xmlns="http://www.w3.org/2000/svg" version="1.1">
 <metadata>
  <rdf:RDF xmlns:dc="http://purl.org/dc/elements/1.1/" xmlns:cc="http://creativecommons.org/ns#" xmlns:rdf="http://www.w3.org/1999/02/22-rdf-syntax-ns#">
   <cc:Work>
    <dc:type rdf:resource="http://purl.org/dc/dcmitype/StillImage"/>
    <dc:date>2024-01-25T18:23:05.116586</dc:date>
    <dc:format>image/svg+xml</dc:format>
    <dc:creator>
     <cc:Agent>
      <dc:title>Matplotlib v3.8.2, https://matplotlib.org/</dc:title>
     </cc:Agent>
    </dc:creator>
   </cc:Work>
  </rdf:RDF>
 </metadata>
 <defs>
  <style type="text/css">*{stroke-linejoin: round; stroke-linecap: butt}</style>
 </defs>
 <g id="figure_1">
  <g id="patch_1">
   <path d="M 0 345.6 
L 460.8 345.6 
L 460.8 0 
L 0 0 
z
" style="fill: #ffffff"/>
  </g>
  <g id="axes_1">
   <g id="patch_2">
    <path d="M 0 293.76 
L 460.8 293.76 
L 460.8 3.456 
L 0 3.456 
z
" style="fill: #ffffff"/>
   </g>
   <g id="matplotlib.axis_1">
    <g id="xtick_1">
     <g id="line2d_1">
      <path d="M 102.674388 293.76 
L 102.674388 3.456 
" clip-path="url(#p60c5adb5e4)" style="fill: none; stroke: #b0b0b0; stroke-width: 0.8; stroke-linecap: square"/>
     </g>
     <g id="line2d_2">
      <defs>
       <path id="m908ee93b33" d="M 0 0 
L 0 3.5 
" style="stroke: #000000; stroke-width: 0.8"/>
      </defs>
      <g>
       <use xlink:href="#m908ee93b33" x="102.674388" y="293.76" style="stroke: #000000; stroke-width: 0.8"/>
      </g>
     </g>
     <g id="text_1">
      <!-- -4 -->
      <g transform="translate(92.704075 315.956875) scale(0.2 -0.2)">
       <defs>
        <path id="DejaVuSans-2d" d="M 313 2009 
L 1997 2009 
L 1997 1497 
L 313 1497 
L 313 2009 
z
" transform="scale(0.015625)"/>
        <path id="DejaVuSans-34" d="M 2419 4116 
L 825 1625 
L 2419 1625 
L 2419 4116 
z
M 2253 4666 
L 3047 4666 
L 3047 1625 
L 3713 1625 
L 3713 1100 
L 3047 1100 
L 3047 0 
L 2419 0 
L 2419 1100 
L 313 1100 
L 313 1709 
L 2253 4666 
z
" transform="scale(0.015625)"/>
       </defs>
       <use xlink:href="#DejaVuSans-2d"/>
       <use xlink:href="#DejaVuSans-34" x="36.083984"/>
      </g>
     </g>
    </g>
    <g id="xtick_2">
     <g id="line2d_3">
      <path d="M 205.459819 293.76 
L 205.459819 3.456 
" clip-path="url(#p60c5adb5e4)" style="fill: none; stroke: #b0b0b0; stroke-width: 0.8; stroke-linecap: square"/>
     </g>
     <g id="line2d_4">
      <g>
       <use xlink:href="#m908ee93b33" x="205.459819" y="293.76" style="stroke: #000000; stroke-width: 0.8"/>
      </g>
     </g>
     <g id="text_2">
      <!-- 0 -->
      <g transform="translate(199.097319 315.956875) scale(0.2 -0.2)">
       <defs>
        <path id="DejaVuSans-30" d="M 2034 4250 
Q 1547 4250 1301 3770 
Q 1056 3291 1056 2328 
Q 1056 1369 1301 889 
Q 1547 409 2034 409 
Q 2525 409 2770 889 
Q 3016 1369 3016 2328 
Q 3016 3291 2770 3770 
Q 2525 4250 2034 4250 
z
M 2034 4750 
Q 2819 4750 3233 4129 
Q 3647 3509 3647 2328 
Q 3647 1150 3233 529 
Q 2819 -91 2034 -91 
Q 1250 -91 836 529 
Q 422 1150 422 2328 
Q 422 3509 836 4129 
Q 1250 4750 2034 4750 
z
" transform="scale(0.015625)"/>
       </defs>
       <use xlink:href="#DejaVuSans-30"/>
      </g>
     </g>
    </g>
    <g id="xtick_3">
     <g id="line2d_5">
      <path d="M 308.24525 293.76 
L 308.24525 3.456 
" clip-path="url(#p60c5adb5e4)" style="fill: none; stroke: #b0b0b0; stroke-width: 0.8; stroke-linecap: square"/>
     </g>
     <g id="line2d_6">
      <g>
       <use xlink:href="#m908ee93b33" x="308.24525" y="293.76" style="stroke: #000000; stroke-width: 0.8"/>
      </g>
     </g>
     <g id="text_3">
      <!-- 4 -->
      <g transform="translate(301.88275 315.956875) scale(0.2 -0.2)">
       <use xlink:href="#DejaVuSans-34"/>
      </g>
     </g>
    </g>
    <g id="xtick_4">
     <g id="line2d_7">
      <path d="M 411.030681 293.76 
L 411.030681 3.456 
" clip-path="url(#p60c5adb5e4)" style="fill: none; stroke: #b0b0b0; stroke-width: 0.8; stroke-linecap: square"/>
     </g>
     <g id="line2d_8">
      <g>
       <use xlink:href="#m908ee93b33" x="411.030681" y="293.76" style="stroke: #000000; stroke-width: 0.8"/>
      </g>
     </g>
     <g id="text_4">
      <!-- 8 -->
      <g transform="translate(404.668181 315.956875) scale(0.2 -0.2)">
       <defs>
        <path id="DejaVuSans-38" d="M 2034 2216 
Q 1584 2216 1326 1975 
Q 1069 1734 1069 1313 
Q 1069 891 1326 650 
Q 1584 409 2034 409 
Q 2484 409 2743 651 
Q 3003 894 3003 1313 
Q 3003 1734 2745 1975 
Q 2488 2216 2034 2216 
z
M 1403 2484 
Q 997 2584 770 2862 
Q 544 3141 544 3541 
Q 544 4100 942 4425 
Q 1341 4750 2034 4750 
Q 2731 4750 3128 4425 
Q 3525 4100 3525 3541 
Q 3525 3141 3298 2862 
Q 3072 2584 2669 2484 
Q 3125 2378 3379 2068 
Q 3634 1759 3634 1313 
Q 3634 634 3220 271 
Q 2806 -91 2034 -91 
Q 1263 -91 848 271 
Q 434 634 434 1313 
Q 434 1759 690 2068 
Q 947 2378 1403 2484 
z
M 1172 3481 
Q 1172 3119 1398 2916 
Q 1625 2713 2034 2713 
Q 2441 2713 2670 2916 
Q 2900 3119 2900 3481 
Q 2900 3844 2670 4047 
Q 2441 4250 2034 4250 
Q 1625 4250 1398 4047 
Q 1172 3844 1172 3481 
z
" transform="scale(0.015625)"/>
       </defs>
       <use xlink:href="#DejaVuSans-38"/>
      </g>
     </g>
    </g>
    <g id="text_5">
     <!-- log10 of Df -->
     <g transform="translate(175.214063 339.313125) scale(0.2 -0.2)">
      <defs>
       <path id="DejaVuSans-6c" d="M 603 4863 
L 1178 4863 
L 1178 0 
L 603 0 
L 603 4863 
z
" transform="scale(0.015625)"/>
       <path id="DejaVuSans-6f" d="M 1959 3097 
Q 1497 3097 1228 2736 
Q 959 2375 959 1747 
Q 959 1119 1226 758 
Q 1494 397 1959 397 
Q 2419 397 2687 759 
Q 2956 1122 2956 1747 
Q 2956 2369 2687 2733 
Q 2419 3097 1959 3097 
z
M 1959 3584 
Q 2709 3584 3137 3096 
Q 3566 2609 3566 1747 
Q 3566 888 3137 398 
Q 2709 -91 1959 -91 
Q 1206 -91 779 398 
Q 353 888 353 1747 
Q 353 2609 779 3096 
Q 1206 3584 1959 3584 
z
" transform="scale(0.015625)"/>
       <path id="DejaVuSans-67" d="M 2906 1791 
Q 2906 2416 2648 2759 
Q 2391 3103 1925 3103 
Q 1463 3103 1205 2759 
Q 947 2416 947 1791 
Q 947 1169 1205 825 
Q 1463 481 1925 481 
Q 2391 481 2648 825 
Q 2906 1169 2906 1791 
z
M 3481 434 
Q 3481 -459 3084 -895 
Q 2688 -1331 1869 -1331 
Q 1566 -1331 1297 -1286 
Q 1028 -1241 775 -1147 
L 775 -588 
Q 1028 -725 1275 -790 
Q 1522 -856 1778 -856 
Q 2344 -856 2625 -561 
Q 2906 -266 2906 331 
L 2906 616 
Q 2728 306 2450 153 
Q 2172 0 1784 0 
Q 1141 0 747 490 
Q 353 981 353 1791 
Q 353 2603 747 3093 
Q 1141 3584 1784 3584 
Q 2172 3584 2450 3431 
Q 2728 3278 2906 2969 
L 2906 3500 
L 3481 3500 
L 3481 434 
z
" transform="scale(0.015625)"/>
       <path id="DejaVuSans-31" d="M 794 531 
L 1825 531 
L 1825 4091 
L 703 3866 
L 703 4441 
L 1819 4666 
L 2450 4666 
L 2450 531 
L 3481 531 
L 3481 0 
L 794 0 
L 794 531 
z
" transform="scale(0.015625)"/>
       <path id="DejaVuSans-20" transform="scale(0.015625)"/>
       <path id="DejaVuSans-66" d="M 2375 4863 
L 2375 4384 
L 1825 4384 
Q 1516 4384 1395 4259 
Q 1275 4134 1275 3809 
L 1275 3500 
L 2222 3500 
L 2222 3053 
L 1275 3053 
L 1275 0 
L 697 0 
L 697 3053 
L 147 3053 
L 147 3500 
L 697 3500 
L 697 3744 
Q 697 4328 969 4595 
Q 1241 4863 1831 4863 
L 2375 4863 
z
" transform="scale(0.015625)"/>
       <path id="DejaVuSans-44" d="M 1259 4147 
L 1259 519 
L 2022 519 
Q 2988 519 3436 956 
Q 3884 1394 3884 2338 
Q 3884 3275 3436 3711 
Q 2988 4147 2022 4147 
L 1259 4147 
z
M 628 4666 
L 1925 4666 
Q 3281 4666 3915 4102 
Q 4550 3538 4550 2338 
Q 4550 1131 3912 565 
Q 3275 0 1925 0 
L 628 0 
L 628 4666 
z
" transform="scale(0.015625)"/>
      </defs>
      <use xlink:href="#DejaVuSans-6c"/>
      <use xlink:href="#DejaVuSans-6f" x="27.783203"/>
      <use xlink:href="#DejaVuSans-67" x="88.964844"/>
      <use xlink:href="#DejaVuSans-31" x="152.441406"/>
      <use xlink:href="#DejaVuSans-30" x="216.064453"/>
      <use xlink:href="#DejaVuSans-20" x="279.6875"/>
      <use xlink:href="#DejaVuSans-6f" x="311.474609"/>
      <use xlink:href="#DejaVuSans-66" x="372.65625"/>
      <use xlink:href="#DejaVuSans-20" x="407.861328"/>
      <use xlink:href="#DejaVuSans-44" x="439.648438"/>
      <use xlink:href="#DejaVuSans-66" x="516.650391"/>
     </g>
    </g>
   </g>
   <g id="matplotlib.axis_2">
    <g id="ytick_1">
     <g id="line2d_9">
      <path d="M 0 293.76 
L 460.8 293.76 
" clip-path="url(#p60c5adb5e4)" style="fill: none; stroke: #b0b0b0; stroke-width: 0.8; stroke-linecap: square"/>
     </g>
     <g id="line2d_10">
      <defs>
       <path id="m4174c892d5" d="M 0 0 
L -3.5 0 
" style="stroke: #000000; stroke-width: 0.8"/>
      </defs>
      <g>
       <use xlink:href="#m4174c892d5" x="0" y="293.76" style="stroke: #000000; stroke-width: 0.8"/>
      </g>
     </g>
    </g>
    <g id="ytick_2">
     <g id="line2d_11">
      <path d="M 0 236.274059 
L 460.8 236.274059 
" clip-path="url(#p60c5adb5e4)" style="fill: none; stroke: #b0b0b0; stroke-width: 0.8; stroke-linecap: square"/>
     </g>
     <g id="line2d_12">
      <g>
       <use xlink:href="#m4174c892d5" x="0" y="236.274059" style="stroke: #000000; stroke-width: 0.8"/>
      </g>
     </g>
    </g>
    <g id="ytick_3">
     <g id="line2d_13">
      <path d="M 0 178.788119 
L 460.8 178.788119 
" clip-path="url(#p60c5adb5e4)" style="fill: none; stroke: #b0b0b0; stroke-width: 0.8; stroke-linecap: square"/>
     </g>
     <g id="line2d_14">
      <g>
       <use xlink:href="#m4174c892d5" x="0" y="178.788119" style="stroke: #000000; stroke-width: 0.8"/>
      </g>
     </g>
    </g>
    <g id="ytick_4">
     <g id="line2d_15">
      <path d="M 0 121.302178 
L 460.8 121.302178 
" clip-path="url(#p60c5adb5e4)" style="fill: none; stroke: #b0b0b0; stroke-width: 0.8; stroke-linecap: square"/>
     </g>
     <g id="line2d_16">
      <g>
       <use xlink:href="#m4174c892d5" x="0" y="121.302178" style="stroke: #000000; stroke-width: 0.8"/>
      </g>
     </g>
    </g>
    <g id="ytick_5">
     <g id="line2d_17">
      <path d="M 0 63.816238 
L 460.8 63.816238 
" clip-path="url(#p60c5adb5e4)" style="fill: none; stroke: #b0b0b0; stroke-width: 0.8; stroke-linecap: square"/>
     </g>
     <g id="line2d_18">
      <g>
       <use xlink:href="#m4174c892d5" x="0" y="63.816238" style="stroke: #000000; stroke-width: 0.8"/>
      </g>
     </g>
    </g>
    <g id="ytick_6">
     <g id="line2d_19">
      <path d="M 0 6.330297 
L 460.8 6.330297 
" clip-path="url(#p60c5adb5e4)" style="fill: none; stroke: #b0b0b0; stroke-width: 0.8; stroke-linecap: square"/>
     </g>
     <g id="line2d_20">
      <g>
       <use xlink:href="#m4174c892d5" x="0" y="6.330297" style="stroke: #000000; stroke-width: 0.8"/>
      </g>
     </g>
    </g>
   </g>
   <g id="line2d_21">
    <path d="M -1 287.372673 
L -0.111044 287.372673 
L -0.111044 280.985347 
L 126.107155 280.985347 
L 126.107155 280.186931 
L 132.328639 280.186931 
L 132.328639 279.388515 
L 133.083682 279.388515 
L 133.083682 278.590099 
L 133.352767 278.590099 
L 133.352767 277.791683 
L 137.050628 277.791683 
L 137.050628 276.993267 
L 141.27392 276.993267 
L 141.27392 276.194851 
L 159.106448 276.194851 
L 159.106448 270.605941 
L 160.371697 270.605941 
L 160.371697 269.807525 
L 176.854313 269.807525 
L 176.854313 269.009109 
L 184.212951 269.009109 
L 184.268181 267.412277 
L 184.616724 267.412277 
L 184.616724 266.613861 
L 188.608902 266.613861 
L 188.608902 265.815446 
L 189.730354 265.815446 
L 189.730354 265.01703 
L 190.005741 265.01703 
L 190.005741 258.629703 
L 191.2487 258.629703 
L 191.2487 257.831287 
L 193.773725 257.831287 
L 193.773725 257.032871 
L 196.082688 257.032871 
L 196.082688 256.234455 
L 196.458389 256.234455 
L 196.458389 255.43604 
L 196.79626 255.43604 
L 196.79626 254.637624 
L 197.154284 254.637624 
L 197.154284 253.839208 
L 197.60598 253.839208 
L 197.631256 252.242376 
L 197.862858 252.242376 
L 197.862858 251.44396 
L 199.923916 251.44396 
L 199.928496 249.847129 
L 201.223594 249.847129 
L 201.223594 249.048713 
L 202.364582 249.048713 
L 202.364582 248.250297 
L 202.561743 248.250297 
L 202.561743 247.451881 
L 203.158869 247.451881 
L 203.158869 246.653465 
L 203.451792 246.653465 
L 203.451792 245.85505 
L 203.727988 245.85505 
L 203.727988 245.056634 
L 204.680194 245.056634 
L 204.680194 244.258218 
L 206.216537 244.258218 
L 206.216537 243.459802 
L 206.335659 243.459802 
L 206.335659 242.661386 
L 207.569918 242.661386 
L 207.569918 241.86297 
L 207.907615 241.86297 
L 207.912423 240.266139 
L 208.131516 240.266139 
L 208.131516 239.467723 
L 210.963483 239.467723 
L 210.963483 238.669307 
L 212.123276 238.669307 
L 212.123276 237.870891 
L 212.817071 237.870891 
L 212.912068 236.274059 
L 212.941224 236.274059 
L 212.941224 235.475644 
L 213.362298 235.475644 
L 213.362298 234.677228 
L 213.80691 234.677228 
L 213.80691 233.878812 
L 214.24777 233.878812 
L 214.273308 231.483564 
L 214.441117 231.483564 
L 214.538431 229.088317 
L 214.602577 229.088317 
L 214.602577 228.289901 
L 215.241234 228.289901 
L 215.241234 227.491485 
L 215.431053 227.491485 
L 215.431053 226.693069 
L 215.943243 226.693069 
L 216.031671 225.096238 
L 216.087691 225.096238 
L 216.196489 223.499406 
L 216.506476 223.499406 
L 216.506476 222.70099 
L 216.641096 222.70099 
L 216.641096 221.902574 
L 216.866015 221.902574 
L 216.895592 220.305743 
L 217.236119 220.305743 
L 217.250695 218.708911 
L 217.862811 218.708911 
L 217.862811 217.910495 
L 218.105949 217.910495 
L 218.190316 215.515248 
L 218.335893 215.515248 
L 218.335893 214.716832 
L 218.710733 214.716832 
L 218.772685 213.12 
L 219.095484 213.12 
L 219.095484 212.321584 
L 219.278357 212.321584 
L 219.368925 210.724752 
L 219.689415 210.724752 
L 219.751059 208.329505 
L 219.871666 208.329505 
L 219.871666 207.531089 
L 220.04771 207.531089 
L 220.04771 206.732673 
L 220.692602 206.732673 
L 220.692602 205.934257 
L 220.920002 205.934257 
L 221.00048 204.337426 
L 221.415502 204.337426 
L 221.415502 203.53901 
L 222.008756 203.53901 
L 222.008756 202.740594 
L 222.344753 202.740594 
L 222.344753 201.942178 
L 222.542813 201.942178 
L 222.587533 199.546931 
L 222.721012 199.546931 
L 222.721012 198.748515 
L 222.933615 198.748515 
L 222.994623 197.151683 
L 223.296158 197.151683 
L 223.379045 195.554851 
L 223.46482 195.554851 
L 223.46482 194.756436 
L 224.062299 194.756436 
L 224.062299 193.95802 
L 224.247858 193.95802 
L 224.322524 191.562772 
L 225.070927 191.562772 
L 225.149982 189.167525 
L 225.399064 189.167525 
L 225.450352 187.570693 
L 225.601646 187.570693 
L 225.601646 186.772277 
L 226.131191 186.772277 
L 226.192625 185.175446 
L 226.629635 185.175446 
L 226.629635 184.37703 
L 226.893021 184.37703 
L 226.893021 183.578614 
L 227.490071 183.578614 
L 227.600616 181.183366 
L 227.840415 181.183366 
L 227.840415 180.38495 
L 228.210912 180.38495 
L 228.210912 179.586535 
L 228.617142 179.586535 
L 228.617142 178.788119 
L 229.81733 178.788119 
L 229.81733 177.989703 
L 230.10901 177.989703 
L 230.160269 176.392871 
L 230.237779 176.392871 
L 230.237779 175.594455 
L 230.355269 175.594455 
L 230.443857 173.199208 
L 230.589015 173.199208 
L 230.589015 172.400792 
L 230.852782 172.400792 
L 230.852782 171.602376 
L 231.055503 171.602376 
L 231.143864 169.207129 
L 231.254694 169.207129 
L 231.254694 168.408713 
L 231.366743 168.408713 
L 231.366743 167.610297 
L 231.903784 167.610297 
L 231.903784 166.811881 
L 232.214622 166.811881 
L 232.214622 166.013465 
L 232.593146 166.013465 
L 232.593146 165.21505 
L 232.877845 165.21505 
L 232.877845 164.416634 
L 233.071625 164.416634 
L 233.071625 163.618218 
L 233.429598 163.618218 
L 233.429598 162.819802 
L 233.830918 162.819802 
L 233.830918 162.021386 
L 233.982967 162.021386 
L 234.027695 160.424554 
L 234.469796 160.424554 
L 234.469796 159.626139 
L 234.601708 159.626139 
L 234.706112 157.230891 
L 235.06848 157.230891 
L 235.06848 156.432475 
L 235.284268 156.432475 
L 235.284268 155.634059 
L 235.429762 155.634059 
L 235.47974 153.238812 
L 235.541292 153.238812 
L 235.624695 151.64198 
L 235.748955 151.64198 
L 235.839149 150.045149 
L 235.868036 150.045149 
L 235.868036 149.246733 
L 236.327972 149.246733 
L 236.435031 147.649901 
L 236.541457 147.649901 
L 236.541457 146.851485 
L 236.940502 146.851485 
L 236.940502 146.053069 
L 237.363664 146.053069 
L 237.363664 145.254653 
L 237.486718 145.254653 
L 237.532189 143.657822 
L 237.612975 143.657822 
L 237.715926 142.06099 
L 237.737459 142.06099 
L 237.737459 141.262574 
L 237.918987 141.262574 
L 237.918987 140.464158 
L 238.088818 140.464158 
L 238.088818 139.665743 
L 238.46129 139.665743 
L 238.46129 138.867327 
L 239.233665 138.867327 
L 239.342634 137.270495 
L 239.379584 137.270495 
L 239.402114 134.875248 
L 239.606889 134.875248 
L 239.676414 132.48 
L 239.75042 132.48 
L 239.75042 131.681584 
L 239.89874 131.681584 
L 239.89874 130.883168 
L 240.210077 130.883168 
L 240.210077 130.084752 
L 240.394834 130.084752 
L 240.493404 128.487921 
L 240.555198 128.487921 
L 240.555198 127.689505 
L 240.822298 127.689505 
L 240.908337 125.294257 
L 241.041302 125.294257 
L 241.041302 124.495842 
L 241.349725 124.495842 
L 241.349725 123.697426 
L 241.681052 123.697426 
L 241.689647 121.302178 
L 241.81948 121.302178 
L 241.917147 118.108515 
L 241.954337 118.108515 
L 242.010355 116.511683 
L 242.06665 116.511683 
L 242.099882 113.31802 
L 242.180902 113.31802 
L 242.184227 111.721188 
L 242.342232 111.721188 
L 242.342232 110.922772 
L 242.504941 110.922772 
L 242.590076 109.325941 
L 242.656025 109.325941 
L 242.656025 108.527525 
L 242.797265 108.527525 
L 242.797265 107.729109 
L 243.445237 107.729109 
L 243.445237 106.930693 
L 243.58611 106.930693 
L 243.695513 101.341782 
L 243.725935 101.341782 
L 243.752115 98.148119 
L 244.404233 98.148119 
L 244.404233 97.349703 
L 244.733874 97.349703 
L 244.830864 94.954455 
L 244.992245 94.954455 
L 244.992245 94.15604 
L 245.190338 94.15604 
L 245.190338 93.357624 
L 245.462412 93.357624 
L 245.510234 91.760792 
L 245.8918 91.760792 
L 245.8918 90.962376 
L 246.110748 90.962376 
L 246.110748 90.16396 
L 246.283058 90.16396 
L 246.38779 88.567129 
L 247.330125 88.567129 
L 247.330125 87.768713 
L 247.75834 87.768713 
L 247.808384 86.171881 
L 247.884902 86.171881 
L 247.944221 84.57505 
L 248.355838 84.57505 
L 248.37016 82.978218 
L 248.485473 82.978218 
L 248.485473 82.179802 
L 248.793212 82.179802 
L 248.793212 81.381386 
L 249.002492 81.381386 
L 249.002492 80.58297 
L 249.28163 80.58297 
L 249.28163 79.784554 
L 249.498382 79.784554 
L 249.599254 78.187723 
L 249.741634 78.187723 
L 249.828588 76.590891 
L 249.919575 76.590891 
L 250.003565 74.195644 
L 250.048393 74.195644 
L 250.048393 73.397228 
L 250.210392 73.397228 
L 250.240977 71.800396 
L 250.417023 71.800396 
L 250.417023 71.00198 
L 250.674964 71.00198 
L 250.716981 69.405149 
L 250.887529 69.405149 
L 250.887529 68.606733 
L 251.461217 68.606733 
L 251.544706 67.009901 
L 252.35776 67.009901 
L 252.35776 66.211485 
L 252.973921 66.211485 
L 253.07221 64.614653 
L 253.341927 64.614653 
L 253.341927 63.816238 
L 253.454332 63.816238 
L 253.48018 62.219406 
L 253.733369 62.219406 
L 253.733369 61.42099 
L 254.982502 61.42099 
L 254.982502 60.622574 
L 255.265292 60.622574 
L 255.265292 59.824158 
L 255.495174 59.824158 
L 255.530714 58.227327 
L 255.633624 58.227327 
L 255.743421 56.630495 
L 256.068806 56.630495 
L 256.068806 55.832079 
L 256.22385 55.832079 
L 256.22385 55.033663 
L 257.125787 55.033663 
L 257.125787 54.235248 
L 257.282251 54.235248 
L 257.282251 53.436832 
L 257.519065 53.436832 
L 257.608554 51.84 
L 257.842314 51.84 
L 257.921676 50.243168 
L 258.184282 50.243168 
L 258.184282 49.444752 
L 258.632758 49.444752 
L 258.671237 47.847921 
L 258.885562 47.847921 
L 258.885562 47.049505 
L 259.753083 47.049505 
L 259.753083 46.251089 
L 260.14508 46.251089 
L 260.14508 45.452673 
L 260.55053 45.452673 
L 260.55053 44.654257 
L 260.977908 44.654257 
L 260.977908 43.855842 
L 261.24148 43.855842 
L 261.297082 42.25901 
L 261.466513 42.25901 
L 261.494148 40.662178 
L 262.060564 40.662178 
L 262.060564 39.863762 
L 262.664252 39.863762 
L 262.664252 39.065347 
L 262.949351 39.065347 
L 262.949351 38.266931 
L 263.142223 38.266931 
L 263.142223 37.468515 
L 263.95067 37.468515 
L 263.95067 36.670099 
L 265.543076 36.670099 
L 265.543076 35.871683 
L 266.190189 35.871683 
L 266.190189 35.073267 
L 267.242851 35.073267 
L 267.242851 34.274851 
L 267.938276 34.274851 
L 267.938276 33.476436 
L 269.106013 33.476436 
L 269.106013 32.67802 
L 269.276183 32.67802 
L 269.276183 31.879604 
L 270.961765 31.879604 
L 270.961765 31.081188 
L 272.902607 31.081188 
L 272.902607 30.282772 
L 273.088885 30.282772 
L 273.088885 29.484356 
L 273.427862 29.484356 
L 273.427862 28.685941 
L 273.899395 28.685941 
L 273.899395 27.887525 
L 275.031475 27.887525 
L 275.031475 27.089109 
L 275.741934 27.089109 
L 275.741934 26.290693 
L 276.386875 26.290693 
L 276.386875 25.492277 
L 276.629209 25.492277 
L 276.629209 24.693861 
L 277.222559 24.693861 
L 277.237209 23.09703 
L 278.277428 23.09703 
L 278.277428 22.298614 
L 279.181081 22.298614 
L 279.181081 21.500198 
L 279.38415 21.500198 
L 279.38415 20.701782 
L 280.142286 20.701782 
L 280.142286 19.903366 
L 281.280868 19.903366 
L 281.280868 19.10495 
L 282.520494 19.10495 
L 282.531244 17.508119 
L 284.053646 17.508119 
L 284.053646 16.709703 
L 284.17131 16.709703 
L 284.17131 15.911287 
L 289.43172 15.911287 
L 289.43172 15.112871 
L 291.017863 15.112871 
L 291.017863 14.314455 
L 291.254984 14.314455 
L 291.254984 13.51604 
L 292.047302 13.51604 
L 292.047302 12.717624 
L 293.404906 12.717624 
L 293.404906 11.919208 
L 296.557095 11.919208 
L 296.557095 11.120792 
L 297.433984 11.120792 
L 297.433984 10.322376 
L 297.897465 10.322376 
L 297.897465 9.52396 
L 299.304162 9.52396 
L 299.304162 8.725545 
L 300.804112 8.725545 
L 300.804112 7.927129 
L 302.683236 7.927129 
L 302.683236 7.128713 
L 304.560009 7.128713 
L 304.560009 6.330297 
L 304.560009 6.330297 
L 460.8 6.330297 
L 460.8 6.330297 
" clip-path="url(#p60c5adb5e4)" style="fill: none; stroke: #ff0000; stroke-width: 3; stroke-linecap: square"/>
   </g>
   <g id="line2d_22">
    <path d="M 190.005741 293.76 
L 190.005741 281.783762 
L 217.82766 281.783762 
L 217.82766 280.985347 
L 220.826745 280.985347 
L 220.826745 280.186931 
L 222.066382 280.186931 
L 222.066382 279.388515 
L 224.747832 279.388515 
L 224.747832 278.590099 
L 224.899459 278.590099 
L 224.899459 277.791683 
L 225.058445 277.791683 
L 225.058445 276.993267 
L 226.701793 276.993267 
L 226.715112 275.396436 
L 228.025894 275.396436 
L 228.025894 274.59802 
L 228.77687 274.59802 
L 228.77687 273.799604 
L 230.537939 273.799604 
L 230.537939 273.001188 
L 231.430518 273.001188 
L 231.430518 272.202772 
L 231.782794 272.202772 
L 231.830459 269.807525 
L 231.968962 269.807525 
L 231.968962 269.009109 
L 233.828451 269.009109 
L 233.931966 267.412277 
L 234.1655 267.412277 
L 234.182512 265.815446 
L 235.22042 265.815446 
L 235.22042 265.01703 
L 236.114914 265.01703 
L 236.152908 263.420198 
L 236.413337 263.420198 
L 236.413337 262.621782 
L 236.712059 262.621782 
L 236.712059 261.823366 
L 237.004788 261.823366 
L 237.004788 261.02495 
L 237.661266 261.02495 
L 237.68188 259.428119 
L 237.776093 259.428119 
L 237.776093 258.629703 
L 238.204016 258.629703 
L 238.204016 257.831287 
L 238.997275 257.831287 
L 239.056355 256.234455 
L 239.492413 256.234455 
L 239.492413 255.43604 
L 240.031046 255.43604 
L 240.031046 254.637624 
L 240.190009 254.637624 
L 240.243508 253.040792 
L 240.739369 253.040792 
L 240.739369 252.242376 
L 241.031788 252.242376 
L 241.031788 251.44396 
L 241.606179 251.44396 
L 241.649002 249.847129 
L 241.81948 249.847129 
L 241.864919 236.274059 
L 242.033142 236.274059 
L 242.110587 234.677228 
L 242.646848 234.677228 
L 242.646848 233.878812 
L 243.171617 233.878812 
L 243.171617 233.080396 
L 243.301945 233.080396 
L 243.301945 232.28198 
L 243.779412 232.28198 
L 243.779412 231.483564 
L 243.921411 231.483564 
L 244.0287 229.886733 
L 244.373529 229.886733 
L 244.373529 229.088317 
L 244.552378 229.088317 
L 244.630612 227.491485 
L 244.75901 227.491485 
L 244.75901 226.693069 
L 244.886742 226.693069 
L 244.990642 224.297822 
L 245.121464 224.297822 
L 245.121464 223.499406 
L 245.333997 223.499406 
L 245.387529 221.104158 
L 246.106331 221.104158 
L 246.106331 220.305743 
L 246.441425 220.305743 
L 246.441425 219.507327 
L 247.226337 219.507327 
L 247.319344 217.910495 
L 247.370199 217.910495 
L 247.370199 217.112079 
L 247.682339 217.112079 
L 247.769817 215.515248 
L 248.198597 215.515248 
L 248.198597 214.716832 
L 248.331218 214.716832 
L 248.374866 213.12 
L 248.617337 213.12 
L 248.676567 211.523168 
L 249.23313 211.523168 
L 249.23313 210.724752 
L 249.976466 210.724752 
L 249.976466 209.926337 
L 250.097312 209.926337 
L 250.193688 208.329505 
L 250.259705 208.329505 
L 250.336903 206.732673 
L 250.590426 206.732673 
L 250.590426 205.934257 
L 250.704271 205.934257 
L 250.704271 205.135842 
L 250.826154 205.135842 
L 250.898937 202.740594 
L 250.997497 202.740594 
L 250.997497 201.942178 
L 251.317185 201.942178 
L 251.317185 201.143762 
L 251.62327 201.143762 
L 251.660644 199.546931 
L 251.812058 199.546931 
L 251.812058 198.748515 
L 251.9981 198.748515 
L 252.04156 197.151683 
L 252.111221 197.151683 
L 252.111221 196.353267 
L 252.246672 196.353267 
L 252.352857 192.361188 
L 252.471779 192.361188 
L 252.471779 191.562772 
L 252.688041 191.562772 
L 252.798442 188.369109 
L 253.16542 188.369109 
L 253.228959 186.772277 
L 253.340328 186.772277 
L 253.450364 184.37703 
L 253.530454 184.37703 
L 253.600989 182.780198 
L 253.701106 182.780198 
L 253.708037 181.183366 
L 253.934309 181.183366 
L 254.035646 178.788119 
L 254.263381 178.788119 
L 254.323106 175.594455 
L 254.441767 175.594455 
L 254.441767 174.79604 
L 255.272934 174.79604 
L 255.299252 173.199208 
L 255.455787 173.199208 
L 255.537109 171.602376 
L 255.727577 171.602376 
L 255.727577 170.80396 
L 255.967318 170.80396 
L 256.068806 169.207129 
L 256.201719 169.207129 
L 256.285186 166.013465 
L 256.395112 166.013465 
L 256.431991 164.416634 
L 256.615172 164.416634 
L 256.66742 162.819802 
L 256.912069 162.819802 
L 256.912069 162.021386 
L 257.227655 162.021386 
L 257.326364 160.424554 
L 257.692773 160.424554 
L 257.692773 148.448317 
L 258.131569 148.448317 
L 258.232729 146.851485 
L 258.368809 146.851485 
L 258.368809 146.053069 
L 258.623511 146.053069 
L 258.717686 144.456238 
L 258.939855 144.456238 
L 258.939855 143.657822 
L 259.092212 143.657822 
L 259.092212 142.859406 
L 259.520683 142.859406 
L 259.527544 141.262574 
L 259.816255 141.262574 
L 259.816255 140.464158 
L 260.071197 140.464158 
L 260.071197 139.665743 
L 260.387847 139.665743 
L 260.450982 138.068911 
L 260.77695 138.068911 
L 260.878918 135.673663 
L 261.095705 135.673663 
L 261.095705 134.875248 
L 261.460177 134.875248 
L 261.460177 134.076832 
L 261.594476 134.076832 
L 261.594476 133.278416 
L 261.753662 133.278416 
L 261.753662 132.48 
L 261.943847 132.48 
L 261.979712 130.883168 
L 262.284288 130.883168 
L 262.284288 130.084752 
L 262.970583 130.084752 
L 262.970583 129.286337 
L 263.151179 129.286337 
L 263.151179 128.487921 
L 263.682928 128.487921 
L 263.682928 127.689505 
L 263.8216 127.689505 
L 263.878984 126.092673 
L 263.93364 126.092673 
L 263.969054 124.495842 
L 264.125602 124.495842 
L 264.125602 123.697426 
L 264.534556 123.697426 
L 264.534556 122.89901 
L 264.697704 122.89901 
L 264.717492 121.302178 
L 264.87995 121.302178 
L 264.87995 120.503762 
L 265.268315 120.503762 
L 265.268315 119.705347 
L 265.575011 119.705347 
L 265.674529 118.108515 
L 266.386846 118.108515 
L 266.413474 116.511683 
L 266.746287 116.511683 
L 266.746287 115.713267 
L 266.885377 115.713267 
L 266.885377 114.914851 
L 267.088991 114.914851 
L 267.088991 114.116436 
L 267.396112 114.116436 
L 267.471761 110.922772 
L 267.937801 110.922772 
L 267.937801 110.124356 
L 268.680736 110.124356 
L 268.680736 109.325941 
L 269.864427 109.325941 
L 269.864427 108.527525 
L 271.78814 108.527525 
L 271.848223 106.930693 
L 273.135242 106.930693 
L 273.210022 105.333861 
L 273.990554 105.333861 
L 273.990554 104.535446 
L 274.459197 104.535446 
L 274.459197 103.73703 
L 275.388196 103.73703 
L 275.409797 102.140198 
L 275.866989 102.140198 
L 275.866989 101.341782 
L 278.263406 101.341782 
L 278.263406 100.543366 
L 278.532971 100.543366 
L 278.532971 99.74495 
L 279.082527 99.74495 
L 279.082527 98.946535 
L 279.841691 98.946535 
L 279.841691 98.148119 
L 280.21139 98.148119 
L 280.21139 97.349703 
L 280.403095 97.349703 
L 280.403095 96.551287 
L 281.374558 96.551287 
L 281.374558 95.752871 
L 281.798752 95.752871 
L 281.798752 94.954455 
L 283.073343 94.954455 
L 283.073343 94.15604 
L 284.09067 94.15604 
L 284.09067 93.357624 
L 284.368451 93.357624 
L 284.368451 92.559208 
L 284.818799 92.559208 
L 284.818799 91.760792 
L 285.030917 91.760792 
L 285.030917 90.962376 
L 285.193774 90.962376 
L 285.193774 90.16396 
L 285.450554 90.16396 
L 285.450554 89.365545 
L 285.706709 89.365545 
L 285.706709 88.567129 
L 286.324544 88.567129 
L 286.324544 87.768713 
L 289.429462 87.768713 
L 289.429462 86.970297 
L 289.796413 86.970297 
L 289.796413 86.171881 
L 292.390195 86.171881 
L 292.390195 85.373465 
L 293.754506 85.373465 
L 293.754506 84.57505 
L 303.595759 84.57505 
L 303.595759 72.598812 
L 306.215512 72.598812 
L 306.215512 71.800396 
L 309.775615 71.800396 
L 309.775615 71.00198 
L 311.838235 71.00198 
L 311.838235 70.203564 
L 312.380971 70.203564 
L 312.380971 69.405149 
L 313.412422 69.405149 
L 313.412422 68.606733 
L 314.963013 68.606733 
L 314.963013 67.808317 
L 315.210645 67.808317 
L 315.210645 67.009901 
L 317.284005 67.009901 
L 317.284005 66.211485 
L 318.117742 66.211485 
L 318.117742 65.413069 
L 318.838976 65.413069 
L 318.838976 64.614653 
L 320.19549 64.614653 
L 320.19549 63.816238 
L 322.279253 63.816238 
L 322.279253 63.017822 
L 323.901937 63.017822 
L 323.901937 62.219406 
L 324.192831 62.219406 
L 324.192831 61.42099 
L 324.766228 61.42099 
L 324.766228 60.622574 
L 327.283258 60.622574 
L 327.283258 59.824158 
L 328.415198 59.824158 
L 328.415198 59.025743 
L 328.741289 59.025743 
L 328.741289 58.227327 
L 328.907215 58.227327 
L 328.907215 57.428911 
L 333.100507 57.428911 
L 333.100507 56.630495 
L 333.672498 56.630495 
L 333.672498 55.832079 
L 334.801705 55.832079 
L 334.801705 55.033663 
L 335.698276 55.033663 
L 335.698276 54.235248 
L 336.522312 54.235248 
L 336.522312 53.436832 
L 339.288645 53.436832 
L 339.288645 52.638416 
L 339.97525 52.638416 
L 339.97525 51.84 
L 347.332949 51.84 
L 347.332949 51.041584 
L 348.000103 51.041584 
L 348.000103 50.243168 
L 348.51816 50.243168 
L 348.51816 49.444752 
L 348.893781 49.444752 
L 348.893781 48.646337 
L 350.354555 48.646337 
L 350.354555 47.847921 
L 353.127595 47.847921 
L 353.127595 47.049505 
L 353.533207 47.049505 
L 353.605734 45.452673 
L 357.011789 45.452673 
L 357.011789 44.654257 
L 358.799849 44.654257 
L 358.799849 43.855842 
L 367.378467 43.855842 
L 367.378467 43.057426 
L 367.734253 43.057426 
L 367.734253 42.25901 
L 368.995745 42.25901 
L 368.995745 41.460594 
L 369.183987 41.460594 
L 369.183987 40.662178 
L 370.423405 40.662178 
L 370.423405 39.863762 
L 373.33638 39.863762 
L 373.33638 39.065347 
L 373.493241 39.065347 
L 373.507396 37.468515 
L 373.754113 37.468515 
L 373.754113 36.670099 
L 374.011992 36.670099 
L 374.011992 35.871683 
L 374.161932 35.871683 
L 374.161932 35.073267 
L 376.125147 35.073267 
L 376.125147 34.274851 
L 377.868874 34.274851 
L 377.868874 33.476436 
L 378.366566 33.476436 
L 378.366566 32.67802 
L 378.551844 32.67802 
L 378.551844 31.879604 
L 379.104085 31.879604 
L 379.104085 31.081188 
L 379.477358 31.081188 
L 379.477358 30.282772 
L 379.70208 30.282772 
L 379.70208 29.484356 
L 379.84195 29.484356 
L 379.84453 27.887525 
L 380.389314 27.887525 
L 380.389314 27.089109 
L 380.723705 27.089109 
L 380.723705 26.290693 
L 380.931316 26.290693 
L 380.931316 25.492277 
L 381.685628 25.492277 
L 381.685628 24.693861 
L 382.074192 24.693861 
L 382.074192 23.895446 
L 384.073303 23.895446 
L 384.073303 23.09703 
L 384.444988 23.09703 
L 384.444988 22.298614 
L 385.681888 22.298614 
L 385.681888 21.500198 
L 385.885487 21.500198 
L 385.885487 20.701782 
L 386.261888 20.701782 
L 386.261888 19.903366 
L 386.859168 19.903366 
L 386.859168 19.10495 
L 387.663808 19.10495 
L 387.663808 18.306535 
L 388.239238 18.306535 
L 388.239238 17.508119 
L 390.897098 17.508119 
L 390.897098 16.709703 
L 391.272912 16.709703 
L 391.272912 15.911287 
L 392.538018 15.911287 
L 392.538018 15.112871 
L 396.210202 15.112871 
L 396.210202 14.314455 
L 398.576188 14.314455 
L 398.576188 13.51604 
L 401.276482 13.51604 
L 401.276482 12.717624 
L 401.425768 12.717624 
L 401.455542 11.120792 
L 401.972396 11.120792 
L 401.972396 10.322376 
L 405.296838 10.322376 
L 405.296838 9.52396 
L 415.723657 9.52396 
L 415.723657 8.725545 
L 416.563043 8.725545 
L 416.563043 7.927129 
L 425.079057 7.927129 
L 425.079057 7.128713 
L 431.69679 7.128713 
L 431.69679 6.330297 
L 431.69679 6.330297 
L 460.8 6.330297 
L 460.8 6.330297 
" clip-path="url(#p60c5adb5e4)" style="fill: none; stroke: #00bfbf; stroke-width: 1.5; stroke-linecap: square"/>
   </g>
   <g id="line2d_23">
    <path d="M 190.005741 293.76 
L 190.005741 281.783762 
L 206.216537 281.783762 
L 206.216537 280.985347 
L 216.641096 280.985347 
L 216.641096 280.186931 
L 218.956762 280.186931 
L 218.956762 279.388515 
L 219.718253 279.388515 
L 219.718253 278.590099 
L 220.280857 278.590099 
L 220.280857 277.791683 
L 223.169734 277.791683 
L 223.169734 276.993267 
L 223.428697 276.993267 
L 223.428697 276.194851 
L 224.895632 276.194851 
L 224.895632 275.396436 
L 225.350792 275.396436 
L 225.350792 274.59802 
L 225.48211 274.59802 
L 225.515169 273.001188 
L 225.98989 273.001188 
L 225.98989 272.202772 
L 226.715112 272.202772 
L 226.715112 271.404356 
L 226.850041 271.404356 
L 226.850041 270.605941 
L 227.254443 270.605941 
L 227.254443 269.807525 
L 227.99888 269.807525 
L 227.99888 269.009109 
L 228.210912 269.009109 
L 228.210912 268.210693 
L 229.258367 268.210693 
L 229.361282 266.613861 
L 229.64841 266.613861 
L 229.64841 265.815446 
L 230.537939 265.815446 
L 230.589015 264.218614 
L 230.975329 264.218614 
L 230.975329 263.420198 
L 231.123963 263.420198 
L 231.143864 261.823366 
L 231.371803 261.823366 
L 231.371803 261.02495 
L 231.542851 261.02495 
L 231.542851 260.226535 
L 231.782794 260.226535 
L 231.783217 258.629703 
L 231.94381 258.629703 
L 231.94381 257.831287 
L 232.057376 257.831287 
L 232.057376 257.032871 
L 232.687753 257.032871 
L 232.766702 255.43604 
L 233.580991 255.43604 
L 233.580991 254.637624 
L 233.830918 254.637624 
L 233.830918 253.839208 
L 234.854087 253.839208 
L 234.91454 252.242376 
L 235.50754 252.242376 
L 235.50754 251.44396 
L 235.748955 251.44396 
L 235.748955 250.645545 
L 236.190067 250.645545 
L 236.190067 249.847129 
L 236.327418 249.847129 
L 236.357605 248.250297 
L 237.486718 248.250297 
L 237.515917 246.653465 
L 237.778634 246.653465 
L 237.778634 245.85505 
L 237.892291 245.85505 
L 237.892291 245.056634 
L 238.411568 245.056634 
L 238.411568 244.258218 
L 238.579826 244.258218 
L 238.579826 243.459802 
L 238.761664 243.459802 
L 238.852173 241.86297 
L 239.451936 241.86297 
L 239.451936 241.064554 
L 239.941166 241.064554 
L 239.941166 240.266139 
L 240.411096 240.266139 
L 240.411096 239.467723 
L 240.608499 239.467723 
L 240.617101 237.870891 
L 241.014834 237.870891 
L 241.101935 236.274059 
L 241.275464 236.274059 
L 241.275464 235.475644 
L 241.484162 235.475644 
L 241.515734 233.878812 
L 241.667035 233.878812 
L 241.667035 233.080396 
L 241.81948 233.080396 
L 241.871524 221.902574 
L 242.02232 221.902574 
L 242.02232 221.104158 
L 242.895229 221.104158 
L 242.911264 219.507327 
L 243.287428 219.507327 
L 243.301945 217.910495 
L 243.51324 217.910495 
L 243.51324 217.112079 
L 243.791639 217.112079 
L 243.814 215.515248 
L 244.366368 215.515248 
L 244.366368 214.716832 
L 244.552378 214.716832 
L 244.552378 213.918416 
L 244.67351 213.918416 
L 244.67351 213.12 
L 244.858987 213.12 
L 244.958198 211.523168 
L 245.121464 211.523168 
L 245.121464 210.724752 
L 245.300448 210.724752 
L 245.300448 209.926337 
L 245.422697 209.926337 
L 245.422697 209.127921 
L 245.753323 209.127921 
L 245.753323 208.329505 
L 246.042247 208.329505 
L 246.106331 205.934257 
L 246.38779 205.934257 
L 246.409083 204.337426 
L 246.662349 204.337426 
L 246.662349 203.53901 
L 246.834412 203.53901 
L 246.850746 201.942178 
L 247.048698 201.942178 
L 247.048698 201.143762 
L 247.457294 201.143762 
L 247.457294 200.345347 
L 247.630058 200.345347 
L 247.682339 198.748515 
L 247.75834 198.748515 
L 247.75834 197.950099 
L 248.050921 197.950099 
L 248.087635 195.554851 
L 248.277097 195.554851 
L 248.297187 193.95802 
L 248.39291 193.95802 
L 248.471883 192.361188 
L 248.539058 192.361188 
L 248.617337 190.764356 
L 249.027651 190.764356 
L 249.027651 189.965941 
L 249.265248 189.965941 
L 249.265248 189.167525 
L 249.408264 189.167525 
L 249.408264 188.369109 
L 249.554175 188.369109 
L 249.554175 187.570693 
L 249.740295 187.570693 
L 249.818111 185.175446 
L 249.956845 185.175446 
L 250.048393 181.981782 
L 250.107083 181.981782 
L 250.193688 180.38495 
L 250.357115 180.38495 
L 250.357115 179.586535 
L 250.476407 179.586535 
L 250.476407 178.788119 
L 250.674964 178.788119 
L 250.737968 177.191287 
L 250.898937 177.191287 
L 250.898937 176.392871 
L 251.063623 176.392871 
L 251.063623 175.594455 
L 251.197757 175.594455 
L 251.271085 173.997624 
L 251.317185 173.997624 
L 251.419988 171.602376 
L 251.572654 171.602376 
L 251.572654 170.80396 
L 251.710229 170.80396 
L 251.710229 170.005545 
L 251.857681 170.005545 
L 251.875169 168.408713 
L 252.092468 168.408713 
L 252.092468 167.610297 
L 252.338347 167.610297 
L 252.338347 166.811881 
L 252.496022 166.811881 
L 252.600556 165.21505 
L 252.938151 165.21505 
L 252.938151 164.416634 
L 253.07221 164.416634 
L 253.07221 163.618218 
L 253.265497 163.618218 
L 253.339516 160.424554 
L 253.534585 160.424554 
L 253.534585 159.626139 
L 253.854297 159.626139 
L 253.934309 158.029307 
L 254.01173 158.029307 
L 254.01173 157.230891 
L 254.263381 157.230891 
L 254.263381 156.432475 
L 255.495174 156.432475 
L 255.530714 154.835644 
L 256.068806 154.835644 
L 256.096311 153.238812 
L 256.912069 153.238812 
L 256.912069 152.440396 
L 257.094999 152.440396 
L 257.094999 147.649901 
L 257.360568 147.649901 
L 257.360568 144.456238 
L 257.507179 144.456238 
L 257.588786 142.06099 
L 257.692773 142.06099 
L 257.727294 139.665743 
L 257.814925 139.665743 
L 257.814925 138.867327 
L 258.211544 138.867327 
L 258.211544 138.068911 
L 258.724176 138.068911 
L 258.72567 136.472079 
L 258.86389 136.472079 
L 258.86389 135.673663 
L 259.002573 135.673663 
L 259.002573 134.875248 
L 259.513775 134.875248 
L 259.559993 133.278416 
L 259.911779 133.278416 
L 260.020697 131.681584 
L 260.421462 131.681584 
L 260.421462 130.883168 
L 260.77695 130.883168 
L 260.77695 130.084752 
L 261.9602 130.084752 
L 262.002174 128.487921 
L 262.664252 128.487921 
L 262.764474 126.092673 
L 262.802089 126.092673 
L 262.802089 125.294257 
L 263.061647 125.294257 
L 263.151179 123.697426 
L 263.524814 123.697426 
L 263.524814 122.89901 
L 263.823489 122.89901 
L 263.93364 121.302178 
L 264.246481 121.302178 
L 264.246481 120.503762 
L 264.712874 120.503762 
L 264.717492 118.906931 
L 264.87995 118.906931 
L 264.912136 117.310099 
L 265.341211 117.310099 
L 265.451457 115.713267 
L 265.575011 115.713267 
L 265.575011 114.914851 
L 266.051141 114.914851 
L 266.070087 112.519604 
L 266.412377 112.519604 
L 266.412377 111.721188 
L 266.775588 111.721188 
L 266.808994 110.124356 
L 266.929073 110.124356 
L 266.929073 109.325941 
L 267.095564 109.325941 
L 267.095564 108.527525 
L 268.585367 108.527525 
L 268.585367 107.729109 
L 269.210432 107.729109 
L 269.210432 106.930693 
L 269.414356 106.930693 
L 269.414356 106.132277 
L 270.114369 106.132277 
L 270.114369 105.333861 
L 271.138338 105.333861 
L 271.138338 104.535446 
L 271.572905 104.535446 
L 271.572905 103.73703 
L 272.279549 103.73703 
L 272.279549 102.938614 
L 272.768667 102.938614 
L 272.768667 102.140198 
L 273.709825 102.140198 
L 273.709825 101.341782 
L 274.676261 101.341782 
L 274.676261 100.543366 
L 275.271148 100.543366 
L 275.271148 99.74495 
L 275.388196 99.74495 
L 275.388196 98.946535 
L 277.456672 98.946535 
L 277.456672 98.148119 
L 278.532971 98.148119 
L 278.532971 97.349703 
L 279.587701 97.349703 
L 279.681209 95.752871 
L 280.120122 95.752871 
L 280.120122 94.954455 
L 280.403095 94.954455 
L 280.403095 94.15604 
L 280.76854 94.15604 
L 280.76854 93.357624 
L 282.392839 93.357624 
L 282.392839 92.559208 
L 282.816638 92.559208 
L 282.816638 91.760792 
L 283.118524 91.760792 
L 283.118524 90.962376 
L 283.605842 90.962376 
L 283.605842 90.16396 
L 283.977957 90.16396 
L 283.977957 89.365545 
L 284.43618 89.365545 
L 284.43618 88.567129 
L 285.706709 88.567129 
L 285.706709 87.768713 
L 286.324544 87.768713 
L 286.324544 86.970297 
L 289.429462 86.970297 
L 289.519022 85.373465 
L 290.63415 85.373465 
L 290.63415 84.57505 
L 291.648281 84.57505 
L 291.648281 83.776634 
L 296.300488 83.776634 
L 296.300488 78.187723 
L 302.467589 78.187723 
L 302.467589 75.792475 
L 303.595385 75.792475 
L 303.595759 71.800396 
L 305.55073 71.800396 
L 305.55073 71.00198 
L 306.036329 71.00198 
L 306.036329 70.203564 
L 306.572648 70.203564 
L 306.572648 69.405149 
L 306.949621 69.405149 
L 306.949621 68.606733 
L 309.775615 68.606733 
L 309.775615 67.808317 
L 310.141842 67.808317 
L 310.141842 67.009901 
L 311.847944 67.009901 
L 311.847944 66.211485 
L 312.122989 66.211485 
L 312.122989 65.413069 
L 313.739515 65.413069 
L 313.739515 64.614653 
L 314.828773 64.614653 
L 314.828773 63.816238 
L 316.754745 63.816238 
L 316.754745 63.017822 
L 318.534061 63.017822 
L 318.534061 62.219406 
L 318.701486 62.219406 
L 318.701486 61.42099 
L 318.979352 61.42099 
L 318.979352 60.622574 
L 320.19549 60.622574 
L 320.19549 59.824158 
L 321.099932 59.824158 
L 321.099932 59.025743 
L 321.428892 59.025743 
L 321.428892 58.227327 
L 321.883564 58.227327 
L 321.883564 57.428911 
L 323.716921 57.428911 
L 323.716921 56.630495 
L 324.192831 56.630495 
L 324.192831 55.832079 
L 324.766228 55.832079 
L 324.766228 55.033663 
L 328.741289 55.033663 
L 328.741289 54.235248 
L 329.60333 54.235248 
L 329.60333 53.436832 
L 334.790604 53.436832 
L 334.790604 52.638416 
L 336.161609 52.638416 
L 336.161609 51.84 
L 336.305895 51.84 
L 336.305895 51.041584 
L 339.97525 51.041584 
L 339.97525 50.243168 
L 345.871631 50.243168 
L 345.871631 49.444752 
L 348.515751 49.444752 
L 348.515751 48.646337 
L 350.287767 48.646337 
L 350.354555 47.049505 
L 352.285033 47.049505 
L 352.285033 46.251089 
L 352.596063 46.251089 
L 352.596063 45.452673 
L 353.148616 45.452673 
L 353.148616 44.654257 
L 353.413034 44.654257 
L 353.413034 43.855842 
L 353.691807 43.855842 
L 353.691807 43.057426 
L 355.48432 43.057426 
L 355.48432 42.25901 
L 356.546822 42.25901 
L 356.546822 41.460594 
L 356.968566 41.460594 
L 356.968566 40.662178 
L 359.746972 40.662178 
L 359.746972 39.863762 
L 361.318736 39.863762 
L 361.318736 39.065347 
L 362.128786 39.065347 
L 362.128786 38.266931 
L 368.192162 38.266931 
L 368.192162 37.468515 
L 369.241426 37.468515 
L 369.241426 36.670099 
L 370.764234 36.670099 
L 370.764234 35.871683 
L 372.534199 35.871683 
L 372.534199 35.073267 
L 373.250854 35.073267 
L 373.33638 33.476436 
L 373.493241 33.476436 
L 373.493241 32.67802 
L 373.746328 32.67802 
L 373.746328 31.879604 
L 373.861241 31.879604 
L 373.861241 31.081188 
L 374.799038 31.081188 
L 374.828464 28.685941 
L 375.041643 28.685941 
L 375.041643 27.887525 
L 376.136415 27.887525 
L 376.136415 27.089109 
L 376.884114 27.089109 
L 376.884114 26.290693 
L 377.740699 26.290693 
L 377.740699 25.492277 
L 379.104073 25.492277 
L 379.104073 24.693861 
L 381.535992 24.693861 
L 381.535992 23.895446 
L 381.888704 23.895446 
L 381.888704 23.09703 
L 383.225632 23.09703 
L 383.225632 22.298614 
L 383.983721 22.298614 
L 384.073303 20.701782 
L 384.44286 20.701782 
L 384.44286 19.903366 
L 385.515461 19.903366 
L 385.515461 19.10495 
L 386.157273 19.10495 
L 386.157273 18.306535 
L 386.72044 18.306535 
L 386.72044 17.508119 
L 386.857044 17.508119 
L 386.857044 16.709703 
L 387.347972 16.709703 
L 387.347972 15.911287 
L 388.54521 15.911287 
L 388.54521 15.112871 
L 392.004201 15.112871 
L 392.004201 14.314455 
L 394.30818 14.314455 
L 394.30818 13.51604 
L 395.650035 13.51604 
L 395.650035 12.717624 
L 396.099878 12.717624 
L 396.099878 11.919208 
L 397.66695 11.919208 
L 397.66695 11.120792 
L 398.277001 11.120792 
L 398.277001 10.322376 
L 399.227963 10.322376 
L 399.227963 9.52396 
L 412.328088 9.52396 
L 412.328088 8.725545 
L 413.171877 8.725545 
L 413.171877 7.927129 
L 422.612488 7.927129 
L 422.612488 7.128713 
L 423.626292 7.128713 
L 423.626292 6.330297 
L 423.626292 6.330297 
L 460.8 6.330297 
L 460.8 6.330297 
" clip-path="url(#p60c5adb5e4)" style="fill: none; stroke: #bf00bf; stroke-width: 1.5; stroke-linecap: square"/>
   </g>
   <g id="line2d_24">
    <path d="M -0.111044 293.76 
L -0.111044 287.372673 
L 186.595093 287.372673 
L 186.595093 286.574257 
L 190.005741 286.574257 
L 190.005741 275.396436 
L 195.930416 275.396436 
L 195.930416 274.59802 
L 201.205865 274.59802 
L 201.205865 273.799604 
L 205.388727 273.799604 
L 205.388727 273.001188 
L 206.216537 273.001188 
L 206.216537 272.202772 
L 207.026284 272.202772 
L 207.026284 271.404356 
L 208.308145 271.404356 
L 208.308145 270.605941 
L 209.619509 270.605941 
L 209.619509 269.807525 
L 210.838584 269.807525 
L 210.838584 269.009109 
L 211.006306 269.009109 
L 211.006306 268.210693 
L 211.900735 268.210693 
L 211.900735 267.412277 
L 213.406186 267.412277 
L 213.406186 266.613861 
L 213.529679 266.613861 
L 213.529679 265.815446 
L 213.71146 265.815446 
L 213.71146 265.01703 
L 215.499435 265.01703 
L 215.499435 264.218614 
L 216.112215 264.218614 
L 216.112215 263.420198 
L 216.641096 263.420198 
L 216.641096 262.621782 
L 218.107949 262.621782 
L 218.107949 261.823366 
L 218.750054 261.823366 
L 218.750054 261.02495 
L 218.956762 261.02495 
L 218.956762 260.226535 
L 219.073684 260.226535 
L 219.073684 259.428119 
L 219.380007 259.428119 
L 219.380007 258.629703 
L 219.718253 258.629703 
L 219.718253 257.831287 
L 220.197614 257.831287 
L 220.197614 257.032871 
L 220.809981 257.032871 
L 220.865194 254.637624 
L 221.506454 254.637624 
L 221.506454 253.839208 
L 221.891861 253.839208 
L 221.891861 253.040792 
L 222.721012 253.040792 
L 222.771122 251.44396 
L 223.12311 251.44396 
L 223.12311 250.645545 
L 223.606039 250.645545 
L 223.606039 249.847129 
L 224.840166 249.847129 
L 224.840166 249.048713 
L 225.534023 249.048713 
L 225.534023 248.250297 
L 225.981728 248.250297 
L 225.981728 247.451881 
L 226.567518 247.451881 
L 226.646731 245.85505 
L 227.166983 245.85505 
L 227.272478 243.459802 
L 227.543138 243.459802 
L 227.543138 242.661386 
L 227.99888 242.661386 
L 227.99888 241.86297 
L 228.210912 241.86297 
L 228.210912 241.064554 
L 229.015916 241.064554 
L 229.015916 240.266139 
L 229.14477 240.266139 
L 229.14477 239.467723 
L 229.258367 239.467723 
L 229.258367 238.669307 
L 229.749847 238.669307 
L 229.749847 237.870891 
L 229.873309 237.870891 
L 229.873309 237.072475 
L 230.071219 237.072475 
L 230.156404 235.475644 
L 230.237779 235.475644 
L 230.255989 233.878812 
L 230.46794 233.878812 
L 230.46794 233.080396 
L 230.589015 233.080396 
L 230.589015 232.28198 
L 231.143864 232.28198 
L 231.143864 231.483564 
L 231.343869 231.483564 
L 231.343869 230.685149 
L 231.544534 230.685149 
L 231.544534 229.886733 
L 231.783217 229.886733 
L 231.808448 228.289901 
L 232.199414 228.289901 
L 232.199414 227.491485 
L 232.429867 227.491485 
L 232.429867 226.693069 
L 232.593146 226.693069 
L 232.593146 225.894653 
L 232.877845 225.894653 
L 232.877845 225.096238 
L 233.469834 225.096238 
L 233.469834 224.297822 
L 233.830918 224.297822 
L 233.830918 223.499406 
L 234.378088 223.499406 
L 234.378088 222.70099 
L 234.502602 222.70099 
L 234.502602 221.902574 
L 234.659795 221.902574 
L 234.659795 221.104158 
L 234.794691 221.104158 
L 234.837277 219.507327 
L 234.916687 219.507327 
L 234.936312 217.910495 
L 235.266772 217.910495 
L 235.266772 217.112079 
L 235.748955 217.112079 
L 235.748955 216.313663 
L 235.881259 216.313663 
L 235.881259 215.515248 
L 236.363497 215.515248 
L 236.447654 213.918416 
L 237.231328 213.918416 
L 237.231328 213.12 
L 237.486718 213.12 
L 237.56513 209.926337 
L 237.697648 209.926337 
L 237.697648 209.127921 
L 238.411568 209.127921 
L 238.411568 208.329505 
L 238.875407 208.329505 
L 238.875407 207.531089 
L 239.402114 207.531089 
L 239.402114 206.732673 
L 239.688791 206.732673 
L 239.75042 204.337426 
L 239.994846 204.337426 
L 240.012436 202.740594 
L 240.158308 202.740594 
L 240.220703 201.143762 
L 240.411096 201.143762 
L 240.511453 198.748515 
L 240.825364 198.748515 
L 240.908337 197.151683 
L 241.014834 197.151683 
L 241.014834 196.353267 
L 241.275464 196.353267 
L 241.349725 193.95802 
L 241.391591 193.95802 
L 241.478434 192.361188 
L 241.553284 192.361188 
L 241.581668 190.764356 
L 241.679509 190.764356 
L 241.689647 189.167525 
L 241.81948 189.167525 
L 241.917147 185.973861 
L 241.944603 185.973861 
L 241.944603 185.175446 
L 242.185645 185.175446 
L 242.185645 184.37703 
L 242.895229 184.37703 
L 242.895229 183.578614 
L 243.09446 183.578614 
L 243.167513 181.981782 
L 243.301945 181.981782 
L 243.301945 181.183366 
L 243.539553 181.183366 
L 243.539553 180.38495 
L 243.783286 180.38495 
L 243.827399 177.989703 
L 244.228548 177.989703 
L 244.228548 177.191287 
L 244.47225 177.191287 
L 244.47225 176.392871 
L 244.67351 176.392871 
L 244.67351 175.594455 
L 244.806014 175.594455 
L 244.889874 173.997624 
L 244.949885 173.997624 
L 244.949885 173.199208 
L 245.259901 173.199208 
L 245.28209 171.602376 
L 245.532653 171.602376 
L 245.595504 170.005545 
L 245.671506 170.005545 
L 245.769091 167.610297 
L 245.891348 167.610297 
L 245.8918 166.013465 
L 246.042247 166.013465 
L 246.106331 164.416634 
L 246.245742 164.416634 
L 246.245742 163.618218 
L 246.38779 163.618218 
L 246.462154 162.021386 
L 246.688805 162.021386 
L 246.727184 159.626139 
L 246.850746 159.626139 
L 246.850746 158.827723 
L 246.96238 158.827723 
L 247.048698 156.432475 
L 247.330125 156.432475 
L 247.400015 154.835644 
L 247.682339 154.835644 
L 247.75834 153.238812 
L 247.94946 153.238812 
L 247.94946 152.440396 
L 248.202512 152.440396 
L 248.202512 151.64198 
L 248.539058 151.64198 
L 248.621511 150.045149 
L 248.707227 150.045149 
L 248.707227 149.246733 
L 248.959604 149.246733 
L 249.018966 147.649901 
L 249.152029 147.649901 
L 249.222277 146.053069 
L 249.272063 146.053069 
L 249.272063 145.254653 
L 249.464064 145.254653 
L 249.464064 144.456238 
L 249.723016 144.456238 
L 249.741634 142.859406 
L 249.910193 142.859406 
L 249.956845 141.262574 
L 250.048393 141.262574 
L 250.107083 138.068911 
L 250.188996 138.068911 
L 250.193688 136.472079 
L 250.639795 136.472079 
L 250.700714 132.48 
L 250.961443 132.48 
L 250.961443 131.681584 
L 251.118343 131.681584 
L 251.118343 130.883168 
L 251.667549 130.883168 
L 251.667549 130.084752 
L 251.890376 130.084752 
L 251.890376 129.286337 
L 252.556813 129.286337 
L 252.556813 128.487921 
L 253.07221 128.487921 
L 253.07221 127.689505 
L 253.437467 127.689505 
L 253.454332 126.092673 
L 254.01173 126.092673 
L 254.01173 125.294257 
L 254.263381 125.294257 
L 254.263381 124.495842 
L 254.596475 124.495842 
L 254.596475 123.697426 
L 254.823113 123.697426 
L 254.870081 122.100594 
L 255.495174 122.100594 
L 255.530714 120.503762 
L 256.068806 120.503762 
L 256.073195 118.906931 
L 256.567135 118.906931 
L 256.606543 115.713267 
L 257.0836 115.713267 
L 257.170929 114.116436 
L 257.381006 114.116436 
L 257.416904 112.519604 
L 257.569724 112.519604 
L 257.569724 111.721188 
L 257.727489 111.721188 
L 257.727489 110.922772 
L 257.841545 110.922772 
L 257.841545 110.124356 
L 258.129311 110.124356 
L 258.144357 108.527525 
L 258.322919 108.527525 
L 258.399056 106.930693 
L 258.632758 106.930693 
L 258.632758 106.132277 
L 258.885562 106.132277 
L 258.896857 104.535446 
L 259.387619 104.535446 
L 259.387619 103.73703 
L 260.634163 103.73703 
L 260.634163 102.938614 
L 260.747017 102.938614 
L 260.747017 102.140198 
L 261.09927 102.140198 
L 261.09927 101.341782 
L 261.391897 101.341782 
L 261.391897 100.543366 
L 261.770284 100.543366 
L 261.770284 99.74495 
L 261.881663 99.74495 
L 261.914453 98.148119 
L 262.141826 98.148119 
L 262.141826 97.349703 
L 262.664252 97.349703 
L 262.751583 95.752871 
L 263.154116 95.752871 
L 263.154116 94.954455 
L 263.524814 94.954455 
L 263.524814 94.15604 
L 263.791422 94.15604 
L 263.823489 92.559208 
L 263.980569 92.559208 
L 263.980569 91.760792 
L 264.743419 91.760792 
L 264.743419 90.962376 
L 264.87995 90.962376 
L 264.87995 90.16396 
L 265.974907 90.16396 
L 265.974907 89.365545 
L 266.119949 89.365545 
L 266.119949 88.567129 
L 266.775588 88.567129 
L 266.775588 87.768713 
L 267.095564 87.768713 
L 267.095564 86.970297 
L 267.307911 86.970297 
L 267.401258 85.373465 
L 268.054277 85.373465 
L 268.054277 84.57505 
L 268.371825 84.57505 
L 268.371825 83.776634 
L 269.182092 83.776634 
L 269.182092 82.978218 
L 269.841487 82.978218 
L 269.841487 82.179802 
L 270.025094 82.179802 
L 270.025094 81.381386 
L 270.184895 81.381386 
L 270.184895 80.58297 
L 270.438671 80.58297 
L 270.498926 78.986139 
L 271.428614 78.986139 
L 271.428614 78.187723 
L 271.803258 78.187723 
L 271.803258 77.389307 
L 271.930909 77.389307 
L 271.930909 76.590891 
L 272.381473 76.590891 
L 272.381473 75.792475 
L 273.321612 75.792475 
L 273.321612 74.994059 
L 273.702548 74.994059 
L 273.702548 74.195644 
L 274.504831 74.195644 
L 274.504831 73.397228 
L 274.670573 73.397228 
L 274.670573 72.598812 
L 275.986343 72.598812 
L 275.986343 71.800396 
L 278.385124 71.800396 
L 278.385124 71.00198 
L 278.74171 71.00198 
L 278.74171 70.203564 
L 279.607152 70.203564 
L 279.607152 69.405149 
L 281.260827 69.405149 
L 281.260827 68.606733 
L 282.023812 68.606733 
L 282.023812 67.808317 
L 282.301353 67.808317 
L 282.302252 66.211485 
L 284.726409 66.211485 
L 284.726409 65.413069 
L 286.241325 65.413069 
L 286.2415 63.816238 
L 287.907726 63.816238 
L 287.907726 63.017822 
L 289.454222 63.017822 
L 289.454222 62.219406 
L 291.881771 62.219406 
L 291.881771 61.42099 
L 293.605665 61.42099 
L 293.605665 60.622574 
L 294.675431 60.622574 
L 294.675431 59.824158 
L 295.083037 59.824158 
L 295.083037 59.025743 
L 295.213968 59.025743 
L 295.213968 58.227327 
L 296.174474 58.227327 
L 296.174474 57.428911 
L 299.664508 57.428911 
L 299.664508 56.630495 
L 301.309362 56.630495 
L 301.309362 55.832079 
L 302.423002 55.832079 
L 302.423002 55.033663 
L 308.488728 55.033663 
L 308.488728 54.235248 
L 313.643781 54.235248 
L 313.643781 53.436832 
L 314.806994 53.436832 
L 314.806994 52.638416 
L 319.948446 52.638416 
L 319.948446 51.84 
L 320.366947 51.84 
L 320.461404 50.243168 
L 320.936444 50.243168 
L 320.936444 49.444752 
L 321.165678 49.444752 
L 321.165678 48.646337 
L 321.703283 48.646337 
L 321.759244 47.049505 
L 322.582888 47.049505 
L 322.582888 46.251089 
L 323.144831 46.251089 
L 323.179823 44.654257 
L 327.462373 44.654257 
L 327.462373 43.855842 
L 329.176265 43.855842 
L 329.176265 43.057426 
L 330.559602 43.057426 
L 330.559602 42.25901 
L 331.214462 42.25901 
L 331.260984 40.662178 
L 331.87784 40.662178 
L 331.87784 39.863762 
L 332.662669 39.863762 
L 332.662669 39.065347 
L 337.205962 39.065347 
L 337.205962 38.266931 
L 338.076047 38.266931 
L 338.076047 37.468515 
L 339.168383 37.468515 
L 339.168383 36.670099 
L 341.61803 36.670099 
L 341.61803 35.871683 
L 342.131918 35.871683 
L 342.131918 35.073267 
L 342.376682 35.073267 
L 342.376682 34.274851 
L 343.986373 34.274851 
L 343.986373 33.476436 
L 345.071446 33.476436 
L 345.144391 31.879604 
L 346.161876 31.879604 
L 346.161876 31.081188 
L 347.318362 31.081188 
L 347.318362 30.282772 
L 347.602142 30.282772 
L 347.602142 29.484356 
L 348.316143 29.484356 
L 348.316143 28.685941 
L 348.682209 28.685941 
L 348.724198 27.089109 
L 349.95333 27.089109 
L 349.95333 26.290693 
L 350.584231 26.290693 
L 350.631863 24.693861 
L 351.093198 24.693861 
L 351.093198 23.895446 
L 351.67573 23.895446 
L 351.67573 23.09703 
L 351.944201 23.09703 
L 351.944201 22.298614 
L 352.311914 22.298614 
L 352.311914 21.500198 
L 353.414708 21.500198 
L 353.511083 19.903366 
L 355.424312 19.903366 
L 355.424312 19.10495 
L 356.548824 19.10495 
L 356.548824 18.306535 
L 358.213035 18.306535 
L 358.213035 17.508119 
L 358.62808 17.508119 
L 358.62808 16.709703 
L 358.763549 16.709703 
L 358.854184 15.112871 
L 362.026917 15.112871 
L 362.026917 14.314455 
L 369.28218 14.314455 
L 369.28218 13.51604 
L 371.384403 13.51604 
L 371.429727 11.919208 
L 374.242939 11.919208 
L 374.242939 11.120792 
L 378.193399 11.120792 
L 378.193399 10.322376 
L 379.583144 10.322376 
L 379.583144 9.52396 
L 391.343221 9.52396 
L 391.343221 8.725545 
L 395.980171 8.725545 
L 395.980171 7.927129 
L 396.593181 7.927129 
L 396.593181 7.128713 
L 400.752459 7.128713 
L 400.752459 6.330297 
L 400.752459 6.330297 
L 460.8 6.330297 
L 460.8 6.330297 
" clip-path="url(#p60c5adb5e4)" style="fill: none; stroke: #000000; stroke-width: 1.5; stroke-linecap: square"/>
   </g>
   <g id="line2d_25">
    <path d="M -0.111044 293.76 
L -0.111044 287.372673 
L 26.618826 287.372673 
L 26.618826 286.574257 
L 68.093185 286.574257 
L 68.093185 285.775842 
L 70.727278 285.775842 
L 70.727278 284.977426 
L 72.44964 284.977426 
L 72.44964 284.17901 
L 82.671821 284.17901 
L 82.671821 283.380594 
L 83.525979 283.380594 
L 83.525979 282.582178 
L 89.41132 282.582178 
L 89.41132 281.783762 
L 90.708638 281.783762 
L 90.708638 280.985347 
L 157.247226 280.985347 
L 157.247226 280.186931 
L 157.362828 280.186931 
L 157.362828 279.388515 
L 158.797386 279.388515 
L 158.797386 278.590099 
L 159.123176 278.590099 
L 159.123176 277.791683 
L 161.981769 277.791683 
L 162.053108 275.396436 
L 163.943021 275.396436 
L 163.943021 274.59802 
L 166.110934 274.59802 
L 166.110934 273.799604 
L 166.301852 273.799604 
L 166.301852 273.001188 
L 166.672606 273.001188 
L 166.672606 272.202772 
L 167.116987 272.202772 
L 167.116987 271.404356 
L 173.501417 271.404356 
L 173.501417 270.605941 
L 190.005741 270.605941 
L 190.005741 264.218614 
L 196.459487 264.218614 
L 196.459487 263.420198 
L 201.325621 263.420198 
L 201.325621 262.621782 
L 201.470713 262.621782 
L 201.526081 261.02495 
L 203.188536 261.02495 
L 203.188536 260.226535 
L 204.140433 260.226535 
L 204.140433 259.428119 
L 204.96312 259.428119 
L 204.96312 258.629703 
L 206.161314 258.629703 
L 206.216537 257.032871 
L 206.561041 257.032871 
L 206.561041 256.234455 
L 207.907847 256.234455 
L 207.962288 254.637624 
L 208.052645 254.637624 
L 208.052645 253.839208 
L 208.964289 253.839208 
L 208.964289 253.040792 
L 209.512719 253.040792 
L 209.512719 252.242376 
L 209.658061 252.242376 
L 209.658061 251.44396 
L 210.201598 251.44396 
L 210.201598 250.645545 
L 213.073058 250.645545 
L 213.073058 249.847129 
L 213.769624 249.847129 
L 213.769624 249.048713 
L 214.192436 249.048713 
L 214.192436 248.250297 
L 214.461306 248.250297 
L 214.461306 247.451881 
L 214.659893 247.451881 
L 214.659893 246.653465 
L 214.897742 246.653465 
L 214.897742 245.85505 
L 215.775448 245.85505 
L 215.775448 245.056634 
L 215.9248 245.056634 
L 215.964278 243.459802 
L 216.134645 243.459802 
L 216.134645 242.661386 
L 216.641096 242.661386 
L 216.641096 241.86297 
L 216.847401 241.86297 
L 216.847401 241.064554 
L 217.144584 241.064554 
L 217.144584 240.266139 
L 217.97542 240.266139 
L 218.025493 238.669307 
L 218.144643 238.669307 
L 218.144643 237.870891 
L 218.292424 237.870891 
L 218.292424 237.072475 
L 218.515168 237.072475 
L 218.515168 236.274059 
L 218.710733 236.274059 
L 218.710733 235.475644 
L 218.899163 235.475644 
L 218.899163 234.677228 
L 219.280943 234.677228 
L 219.280943 233.878812 
L 219.5602 233.878812 
L 219.5602 233.080396 
L 219.718253 233.080396 
L 219.718253 232.28198 
L 220.04771 232.28198 
L 220.04771 231.483564 
L 220.197614 231.483564 
L 220.197614 230.685149 
L 222.156264 230.685149 
L 222.243779 229.088317 
L 222.393831 229.088317 
L 222.393831 228.289901 
L 222.548427 228.289901 
L 222.548427 227.491485 
L 222.707918 227.491485 
L 222.771319 225.096238 
L 222.854197 225.096238 
L 222.854197 224.297822 
L 223.007241 224.297822 
L 223.007241 223.499406 
L 223.289033 223.499406 
L 223.289033 222.70099 
L 223.636568 222.70099 
L 223.636568 221.902574 
L 224.062299 221.902574 
L 224.062299 221.104158 
L 224.865787 221.104158 
L 224.865787 220.305743 
L 225.048207 220.305743 
L 225.071896 218.708911 
L 225.178677 218.708911 
L 225.178677 217.910495 
L 225.534023 217.910495 
L 225.534023 217.112079 
L 225.781609 217.112079 
L 225.781609 216.313663 
L 225.935707 216.313663 
L 225.992879 213.918416 
L 226.455572 213.918416 
L 226.565901 212.321584 
L 226.567518 212.321584 
L 226.646731 210.724752 
L 226.893021 210.724752 
L 226.893021 209.926337 
L 227.193558 209.926337 
L 227.193558 209.127921 
L 227.581329 209.127921 
L 227.60166 206.732673 
L 227.99888 206.732673 
L 227.99888 205.934257 
L 228.210912 205.934257 
L 228.210912 205.135842 
L 228.731391 205.135842 
L 228.731391 204.337426 
L 229.037586 204.337426 
L 229.14477 202.740594 
L 229.258367 202.740594 
L 229.258367 201.942178 
L 230.237779 201.942178 
L 230.255989 200.345347 
L 230.470365 200.345347 
L 230.470365 199.546931 
L 230.589015 199.546931 
L 230.589015 198.748515 
L 231.074157 198.748515 
L 231.143864 197.151683 
L 231.372211 197.151683 
L 231.372211 196.353267 
L 231.712329 196.353267 
L 231.783217 193.95802 
L 232.319859 193.95802 
L 232.346628 192.361188 
L 232.593146 192.361188 
L 232.593146 191.562772 
L 232.877845 191.562772 
L 232.877845 190.764356 
L 233.07721 190.764356 
L 233.07721 189.965941 
L 233.491066 189.965941 
L 233.491066 189.167525 
L 233.830918 189.167525 
L 233.830918 188.369109 
L 234.091091 188.369109 
L 234.187042 185.973861 
L 234.659795 185.973861 
L 234.729433 184.37703 
L 235.284268 184.37703 
L 235.284268 183.578614 
L 235.552531 183.578614 
L 235.552531 182.780198 
L 235.748955 182.780198 
L 235.748955 181.981782 
L 235.882734 181.981782 
L 235.973796 180.38495 
L 236.541457 180.38495 
L 236.541457 179.586535 
L 236.722552 179.586535 
L 236.822482 177.191287 
L 236.961535 177.191287 
L 236.961535 176.392871 
L 237.486718 176.392871 
L 237.591029 174.79604 
L 238.035848 174.79604 
L 238.035848 173.997624 
L 238.161879 173.997624 
L 238.161879 173.199208 
L 238.30918 173.199208 
L 238.411568 170.80396 
L 238.653342 170.80396 
L 238.653342 170.005545 
L 239.098464 170.005545 
L 239.098464 169.207129 
L 239.380769 169.207129 
L 239.447296 166.811881 
L 239.688791 166.811881 
L 239.75042 163.618218 
L 240.005008 163.618218 
L 240.005008 162.819802 
L 240.210077 162.819802 
L 240.220653 161.22297 
L 240.411096 161.22297 
L 240.511453 159.626139 
L 240.621822 159.626139 
L 240.621822 158.827723 
L 240.878567 158.827723 
L 240.927339 156.432475 
L 241.143003 156.432475 
L 241.143003 155.634059 
L 241.275464 155.634059 
L 241.349725 154.037228 
L 241.689647 154.037228 
L 241.766662 152.440396 
L 241.81948 152.440396 
L 241.917147 149.246733 
L 241.944603 149.246733 
L 241.944603 148.448317 
L 242.058436 148.448317 
L 242.122461 146.053069 
L 242.24474 146.053069 
L 242.342749 143.657822 
L 242.396748 143.657822 
L 242.504941 142.06099 
L 242.735085 142.06099 
L 242.735085 141.262574 
L 243.055488 141.262574 
L 243.09446 138.867327 
L 243.284215 138.867327 
L 243.349382 136.472079 
L 243.411386 136.472079 
L 243.427884 134.875248 
L 243.539553 134.875248 
L 243.605974 132.48 
L 243.715733 132.48 
L 243.805376 129.286337 
L 243.857297 129.286337 
L 243.928451 126.891089 
L 244.01138 126.891089 
L 244.01138 126.092673 
L 244.32128 126.092673 
L 244.41364 124.495842 
L 244.67351 124.495842 
L 244.67351 123.697426 
L 244.911944 123.697426 
L 244.911944 122.89901 
L 245.046436 122.89901 
L 245.154912 120.503762 
L 245.278602 120.503762 
L 245.292939 118.906931 
L 245.465842 118.906931 
L 245.465842 118.108515 
L 245.58099 118.108515 
L 245.58099 117.310099 
L 245.765457 117.310099 
L 245.765457 116.511683 
L 245.8918 116.511683 
L 245.8918 115.713267 
L 246.042247 115.713267 
L 246.106331 114.116436 
L 246.310255 114.116436 
L 246.38779 112.519604 
L 246.850746 112.519604 
L 246.890012 110.922772 
L 247.00907 110.922772 
L 247.048698 109.325941 
L 247.313683 109.325941 
L 247.330125 107.729109 
L 247.447617 107.729109 
L 247.553532 106.132277 
L 247.75834 106.132277 
L 247.75834 105.333861 
L 248.37382 105.333861 
L 248.451301 103.73703 
L 248.539058 103.73703 
L 248.539058 102.938614 
L 248.698569 102.938614 
L 248.698569 102.140198 
L 249.153647 102.140198 
L 249.153647 101.341782 
L 249.353171 101.341782 
L 249.360392 99.74495 
L 249.488806 99.74495 
L 249.538667 98.148119 
L 249.625867 98.148119 
L 249.722189 96.551287 
L 249.741634 96.551287 
L 249.741634 95.752871 
L 249.931124 95.752871 
L 249.956845 94.15604 
L 250.048393 94.15604 
L 250.107083 91.760792 
L 250.188996 91.760792 
L 250.29897 90.16396 
L 250.419334 90.16396 
L 250.419334 89.365545 
L 250.674964 89.365545 
L 250.674964 88.567129 
L 250.792485 88.567129 
L 250.887529 86.970297 
L 251.138526 86.970297 
L 251.138526 86.171881 
L 252.368049 86.171881 
L 252.368049 85.373465 
L 252.556813 85.373465 
L 252.607108 83.776634 
L 253.07221 83.776634 
L 253.07221 82.978218 
L 253.454332 82.978218 
L 253.454332 82.179802 
L 253.720998 82.179802 
L 253.760272 80.58297 
L 254.01173 80.58297 
L 254.01173 79.784554 
L 254.180572 79.784554 
L 254.263381 78.187723 
L 254.417368 78.187723 
L 254.500063 76.590891 
L 255.026794 76.590891 
L 255.039166 74.994059 
L 255.495174 74.994059 
L 255.530714 73.397228 
L 256.068806 73.397228 
L 256.068806 72.598812 
L 256.256316 72.598812 
L 256.256316 71.800396 
L 256.457984 71.800396 
L 256.522453 69.405149 
L 256.603628 69.405149 
L 256.603628 68.606733 
L 257.157095 68.606733 
L 257.157095 67.808317 
L 257.282251 67.808317 
L 257.282251 67.009901 
L 257.608554 67.009901 
L 257.608554 66.211485 
L 257.733338 66.211485 
L 257.733338 65.413069 
L 257.921676 65.413069 
L 257.921676 64.614653 
L 258.144357 64.614653 
L 258.144357 63.816238 
L 258.372051 63.816238 
L 258.372051 63.017822 
L 258.632758 63.017822 
L 258.632758 62.219406 
L 258.885562 62.219406 
L 258.885562 61.42099 
L 259.44772 61.42099 
L 259.44772 60.622574 
L 260.159289 60.622574 
L 260.159289 59.824158 
L 260.994587 59.824158 
L 260.994587 59.025743 
L 261.364645 59.025743 
L 261.364645 58.227327 
L 261.535894 58.227327 
L 261.535894 57.428911 
L 262.664252 57.428911 
L 262.664252 56.630495 
L 262.995407 56.630495 
L 262.995407 55.832079 
L 263.154116 55.832079 
L 263.154116 55.033663 
L 263.52809 55.033663 
L 263.52809 54.235248 
L 263.712357 54.235248 
L 263.712357 53.436832 
L 263.823489 53.436832 
L 263.823489 52.638416 
L 264.415085 52.638416 
L 264.415085 51.84 
L 264.545603 51.84 
L 264.545603 51.041584 
L 264.87995 51.041584 
L 264.934247 49.444752 
L 265.199441 49.444752 
L 265.25725 47.847921 
L 266.775588 47.847921 
L 266.775588 47.049505 
L 267.095564 47.049505 
L 267.095564 46.251089 
L 267.307911 46.251089 
L 267.307911 45.452673 
L 268.339658 45.452673 
L 268.339658 44.654257 
L 269.908508 44.654257 
L 269.908508 43.855842 
L 273.017065 43.855842 
L 273.017065 43.057426 
L 273.817477 43.057426 
L 273.817477 42.25901 
L 274.229916 42.25901 
L 274.298215 40.662178 
L 274.348689 40.662178 
L 274.348689 39.863762 
L 275.805246 39.863762 
L 275.805246 39.065347 
L 276.571432 39.065347 
L 276.651069 37.468515 
L 277.742284 37.468515 
L 277.742284 36.670099 
L 280.16393 36.670099 
L 280.16393 35.871683 
L 281.76795 35.871683 
L 281.76795 35.073267 
L 282.287484 35.073267 
L 282.287484 34.274851 
L 282.545566 34.274851 
L 282.578483 31.879604 
L 288.6933 31.879604 
L 288.6933 31.081188 
L 290.496772 31.081188 
L 290.496772 30.282772 
L 291.989526 30.282772 
L 291.989526 29.484356 
L 298.661956 29.484356 
L 298.661956 28.685941 
L 299.246316 28.685941 
L 299.246316 27.887525 
L 300.294972 27.887525 
L 300.294972 27.089109 
L 301.070679 27.089109 
L 301.070679 26.290693 
L 303.061261 26.290693 
L 303.061261 25.492277 
L 304.124858 25.492277 
L 304.124858 24.693861 
L 305.293564 24.693861 
L 305.293564 23.895446 
L 305.737865 23.895446 
L 305.737865 23.09703 
L 306.361972 23.09703 
L 306.361972 22.298614 
L 306.645279 22.298614 
L 306.645279 21.500198 
L 307.401525 21.500198 
L 307.401525 20.701782 
L 308.851664 20.701782 
L 308.851664 19.903366 
L 311.696002 19.903366 
L 311.696002 19.10495 
L 313.415548 19.10495 
L 313.415548 18.306535 
L 315.413729 18.306535 
L 315.505899 16.709703 
L 316.70543 16.709703 
L 316.70543 15.911287 
L 320.818463 15.911287 
L 320.818463 15.112871 
L 328.703307 15.112871 
L 328.703307 14.314455 
L 328.952392 14.314455 
L 329.044683 12.717624 
L 329.472238 12.717624 
L 329.472238 11.919208 
L 329.719733 11.919208 
L 329.719733 11.120792 
L 330.45728 11.120792 
L 330.45728 10.322376 
L 331.221 10.322376 
L 331.221 9.52396 
L 334.479284 9.52396 
L 334.577742 7.927129 
L 337.092556 7.927129 
L 337.092556 7.128713 
L 340.186331 7.128713 
L 340.186331 6.330297 
L 340.186331 6.330297 
L 460.8 6.330297 
L 460.8 6.330297 
" clip-path="url(#p60c5adb5e4)" style="fill: none; stroke: #00bfbf; stroke-width: 1.5; stroke-linecap: square"/>
   </g>
   <g id="patch_3">
    <path d="M 0 293.76 
L 0 3.456 
" style="fill: none; stroke: #000000; stroke-width: 0.8; stroke-linejoin: miter; stroke-linecap: square"/>
   </g>
   <g id="patch_4">
    <path d="M 460.8 293.76 
L 460.8 3.456 
" style="fill: none; stroke: #000000; stroke-width: 0.8; stroke-linejoin: miter; stroke-linecap: square"/>
   </g>
   <g id="patch_5">
    <path d="M 0 293.76 
L 460.8 293.76 
" style="fill: none; stroke: #000000; stroke-width: 0.8; stroke-linejoin: miter; stroke-linecap: square"/>
   </g>
   <g id="patch_6">
    <path d="M 0 3.456 
L 460.8 3.456 
" style="fill: none; stroke: #000000; stroke-width: 0.8; stroke-linejoin: miter; stroke-linecap: square"/>
   </g>
   <g id="text_6">
    <!-- {f1-f24}, 5-D -->
    <g transform="translate(318.609 287.95392) scale(0.2 -0.2)">
     <defs>
      <path id="DejaVuSans-7b" d="M 3272 -594 
L 3272 -1044 
L 3078 -1044 
Q 2300 -1044 2036 -812 
Q 1772 -581 1772 109 
L 1772 856 
Q 1772 1328 1603 1509 
Q 1434 1691 991 1691 
L 800 1691 
L 800 2138 
L 991 2138 
Q 1438 2138 1605 2317 
Q 1772 2497 1772 2963 
L 1772 3713 
Q 1772 4403 2036 4633 
Q 2300 4863 3078 4863 
L 3272 4863 
L 3272 4416 
L 3059 4416 
Q 2619 4416 2484 4278 
Q 2350 4141 2350 3700 
L 2350 2925 
Q 2350 2434 2208 2212 
Q 2066 1991 1722 1913 
Q 2069 1828 2209 1606 
Q 2350 1384 2350 897 
L 2350 122 
Q 2350 -319 2484 -456 
Q 2619 -594 3059 -594 
L 3272 -594 
z
" transform="scale(0.015625)"/>
      <path id="DejaVuSans-32" d="M 1228 531 
L 3431 531 
L 3431 0 
L 469 0 
L 469 531 
Q 828 903 1448 1529 
Q 2069 2156 2228 2338 
Q 2531 2678 2651 2914 
Q 2772 3150 2772 3378 
Q 2772 3750 2511 3984 
Q 2250 4219 1831 4219 
Q 1534 4219 1204 4116 
Q 875 4013 500 3803 
L 500 4441 
Q 881 4594 1212 4672 
Q 1544 4750 1819 4750 
Q 2544 4750 2975 4387 
Q 3406 4025 3406 3419 
Q 3406 3131 3298 2873 
Q 3191 2616 2906 2266 
Q 2828 2175 2409 1742 
Q 1991 1309 1228 531 
z
" transform="scale(0.015625)"/>
      <path id="DejaVuSans-7d" d="M 800 -594 
L 1019 -594 
Q 1456 -594 1589 -459 
Q 1722 -325 1722 122 
L 1722 897 
Q 1722 1384 1862 1606 
Q 2003 1828 2350 1913 
Q 2003 1991 1862 2212 
Q 1722 2434 1722 2925 
L 1722 3700 
Q 1722 4144 1589 4280 
Q 1456 4416 1019 4416 
L 800 4416 
L 800 4863 
L 997 4863 
Q 1775 4863 2036 4633 
Q 2297 4403 2297 3713 
L 2297 2963 
Q 2297 2497 2465 2317 
Q 2634 2138 3078 2138 
L 3272 2138 
L 3272 1691 
L 3078 1691 
Q 2634 1691 2465 1509 
Q 2297 1328 2297 856 
L 2297 109 
Q 2297 -581 2036 -812 
Q 1775 -1044 997 -1044 
L 800 -1044 
L 800 -594 
z
" transform="scale(0.015625)"/>
      <path id="DejaVuSans-2c" d="M 750 794 
L 1409 794 
L 1409 256 
L 897 -744 
L 494 -744 
L 750 256 
L 750 794 
z
" transform="scale(0.015625)"/>
      <path id="DejaVuSans-35" d="M 691 4666 
L 3169 4666 
L 3169 4134 
L 1269 4134 
L 1269 2991 
Q 1406 3038 1543 3061 
Q 1681 3084 1819 3084 
Q 2600 3084 3056 2656 
Q 3513 2228 3513 1497 
Q 3513 744 3044 326 
Q 2575 -91 1722 -91 
Q 1428 -91 1123 -41 
Q 819 9 494 109 
L 494 744 
Q 775 591 1075 516 
Q 1375 441 1709 441 
Q 2250 441 2565 725 
Q 2881 1009 2881 1497 
Q 2881 1984 2565 2268 
Q 2250 2553 1709 2553 
Q 1456 2553 1204 2497 
Q 953 2441 691 2322 
L 691 4666 
z
" transform="scale(0.015625)"/>
     </defs>
     <use xlink:href="#DejaVuSans-7b"/>
     <use xlink:href="#DejaVuSans-66" x="63.623047"/>
     <use xlink:href="#DejaVuSans-31" x="98.828125"/>
     <use xlink:href="#DejaVuSans-2d" x="162.451172"/>
     <use xlink:href="#DejaVuSans-66" x="198.535156"/>
     <use xlink:href="#DejaVuSans-32" x="233.740234"/>
     <use xlink:href="#DejaVuSans-34" x="297.363281"/>
     <use xlink:href="#DejaVuSans-7d" x="360.986328"/>
     <use xlink:href="#DejaVuSans-2c" x="424.609375"/>
     <use xlink:href="#DejaVuSans-20" x="456.396484"/>
     <use xlink:href="#DejaVuSans-35" x="488.183594"/>
     <use xlink:href="#DejaVuSans-2d" x="551.806641"/>
     <use xlink:href="#DejaVuSans-44" x="587.890625"/>
    </g>
   </g>
   <g id="text_7">
    <!-- v2.6.3 -->
    <g style="fill: #808080" transform="translate(214.71875 288.777272) scale(0.1 -0.1)">
     <defs>
      <path id="DejaVuSans-76" d="M 191 3500 
L 800 3500 
L 1894 563 
L 2988 3500 
L 3597 3500 
L 2284 0 
L 1503 0 
L 191 3500 
z
" transform="scale(0.015625)"/>
      <path id="DejaVuSans-2e" d="M 684 794 
L 1344 794 
L 1344 0 
L 684 0 
L 684 794 
z
" transform="scale(0.015625)"/>
      <path id="DejaVuSans-36" d="M 2113 2584 
Q 1688 2584 1439 2293 
Q 1191 2003 1191 1497 
Q 1191 994 1439 701 
Q 1688 409 2113 409 
Q 2538 409 2786 701 
Q 3034 994 3034 1497 
Q 3034 2003 2786 2293 
Q 2538 2584 2113 2584 
z
M 3366 4563 
L 3366 3988 
Q 3128 4100 2886 4159 
Q 2644 4219 2406 4219 
Q 1781 4219 1451 3797 
Q 1122 3375 1075 2522 
Q 1259 2794 1537 2939 
Q 1816 3084 2150 3084 
Q 2853 3084 3261 2657 
Q 3669 2231 3669 1497 
Q 3669 778 3244 343 
Q 2819 -91 2113 -91 
Q 1303 -91 875 529 
Q 447 1150 447 2328 
Q 447 3434 972 4092 
Q 1497 4750 2381 4750 
Q 2619 4750 2861 4703 
Q 3103 4656 3366 4563 
z
" transform="scale(0.015625)"/>
      <path id="DejaVuSans-33" d="M 2597 2516 
Q 3050 2419 3304 2112 
Q 3559 1806 3559 1356 
Q 3559 666 3084 287 
Q 2609 -91 1734 -91 
Q 1441 -91 1130 -33 
Q 819 25 488 141 
L 488 750 
Q 750 597 1062 519 
Q 1375 441 1716 441 
Q 2309 441 2620 675 
Q 2931 909 2931 1356 
Q 2931 1769 2642 2001 
Q 2353 2234 1838 2234 
L 1294 2234 
L 1294 2753 
L 1863 2753 
Q 2328 2753 2575 2939 
Q 2822 3125 2822 3475 
Q 2822 3834 2567 4026 
Q 2313 4219 1838 4219 
Q 1578 4219 1281 4162 
Q 984 4106 628 3988 
L 628 4550 
Q 988 4650 1302 4700 
Q 1616 4750 1894 4750 
Q 2613 4750 3031 4423 
Q 3450 4097 3450 3541 
Q 3450 3153 3228 2886 
Q 3006 2619 2597 2516 
z
" transform="scale(0.015625)"/>
     </defs>
     <use xlink:href="#DejaVuSans-76"/>
     <use xlink:href="#DejaVuSans-32" x="59.179688"/>
     <use xlink:href="#DejaVuSans-2e" x="122.802734"/>
     <use xlink:href="#DejaVuSans-36" x="154.589844"/>
     <use xlink:href="#DejaVuSans-2e" x="218.212891"/>
     <use xlink:href="#DejaVuSans-33" x="250"/>
    </g>
   </g>
  </g>
 </g>
 <defs>
  <clipPath id="p60c5adb5e4">
   <rect x="0" y="3.456" width="460.8" height="290.304"/>
  </clipPath>
 </defs>
</svg>
