<?xml version="1.0" encoding="utf-8" standalone="no"?>
<!DOCTYPE svg PUBLIC "-//W3C//DTD SVG 1.1//EN"
  "http://www.w3.org/Graphics/SVG/1.1/DTD/svg11.dtd">
<svg xmlns:xlink="http://www.w3.org/1999/xlink" width="460.8pt" height="345.6pt" viewBox="0 0 460.8 345.6" xmlns="http://www.w3.org/2000/svg" version="1.1">
 <metadata>
  <rdf:RDF xmlns:dc="http://purl.org/dc/elements/1.1/" xmlns:cc="http://creativecommons.org/ns#" xmlns:rdf="http://www.w3.org/1999/02/22-rdf-syntax-ns#">
   <cc:Work>
    <dc:type rdf:resource="http://purl.org/dc/dcmitype/StillImage"/>
    <dc:date>2024-01-25T18:23:05.841910</dc:date>
    <dc:format>image/svg+xml</dc:format>
    <dc:creator>
     <cc:Agent>
      <dc:title>Matplotlib v3.8.2, https://matplotlib.org/</dc:title>
     </cc:Agent>
    </dc:creator>
   </cc:Work>
  </rdf:RDF>
 </metadata>
 <defs>
  <style type="text/css">*{stroke-linejoin: round; stroke-linecap: butt}</style>
 </defs>
 <g id="figure_1">
  <g id="patch_1">
   <path d="M 0 345.6 
L 460.8 345.6 
L 460.8 0 
L 0 0 
z
" style="fill: #ffffff"/>
  </g>
  <g id="axes_1">
   <g id="patch_2">
    <path d="M 0 293.76 
L 460.8 293.76 
L 460.8 3.456 
L 0 3.456 
z
" style="fill: #ffffff"/>
   </g>
   <g id="matplotlib.axis_1">
    <g id="xtick_1">
     <g id="line2d_1">
      <path d="M 102.674388 293.76 
L 102.674388 3.456 
" clip-path="url(#p22d85d01f2)" style="fill: none; stroke: #b0b0b0; stroke-width: 0.8; stroke-linecap: square"/>
     </g>
     <g id="line2d_2">
      <defs>
       <path id="m385a038aab" d="M 0 0 
L 0 3.5 
" style="stroke: #000000; stroke-width: 0.8"/>
      </defs>
      <g>
       <use xlink:href="#m385a038aab" x="102.674388" y="293.76" style="stroke: #000000; stroke-width: 0.8"/>
      </g>
     </g>
     <g id="text_1">
      <!-- -4 -->
      <g transform="translate(92.704075 315.956875) scale(0.2 -0.2)">
       <defs>
        <path id="DejaVuSans-2d" d="M 313 2009 
L 1997 2009 
L 1997 1497 
L 313 1497 
L 313 2009 
z
" transform="scale(0.015625)"/>
        <path id="DejaVuSans-34" d="M 2419 4116 
L 825 1625 
L 2419 1625 
L 2419 4116 
z
M 2253 4666 
L 3047 4666 
L 3047 1625 
L 3713 1625 
L 3713 1100 
L 3047 1100 
L 3047 0 
L 2419 0 
L 2419 1100 
L 313 1100 
L 313 1709 
L 2253 4666 
z
" transform="scale(0.015625)"/>
       </defs>
       <use xlink:href="#DejaVuSans-2d"/>
       <use xlink:href="#DejaVuSans-34" x="36.083984"/>
      </g>
     </g>
    </g>
    <g id="xtick_2">
     <g id="line2d_3">
      <path d="M 205.459819 293.76 
L 205.459819 3.456 
" clip-path="url(#p22d85d01f2)" style="fill: none; stroke: #b0b0b0; stroke-width: 0.8; stroke-linecap: square"/>
     </g>
     <g id="line2d_4">
      <g>
       <use xlink:href="#m385a038aab" x="205.459819" y="293.76" style="stroke: #000000; stroke-width: 0.8"/>
      </g>
     </g>
     <g id="text_2">
      <!-- 0 -->
      <g transform="translate(199.097319 315.956875) scale(0.2 -0.2)">
       <defs>
        <path id="DejaVuSans-30" d="M 2034 4250 
Q 1547 4250 1301 3770 
Q 1056 3291 1056 2328 
Q 1056 1369 1301 889 
Q 1547 409 2034 409 
Q 2525 409 2770 889 
Q 3016 1369 3016 2328 
Q 3016 3291 2770 3770 
Q 2525 4250 2034 4250 
z
M 2034 4750 
Q 2819 4750 3233 4129 
Q 3647 3509 3647 2328 
Q 3647 1150 3233 529 
Q 2819 -91 2034 -91 
Q 1250 -91 836 529 
Q 422 1150 422 2328 
Q 422 3509 836 4129 
Q 1250 4750 2034 4750 
z
" transform="scale(0.015625)"/>
       </defs>
       <use xlink:href="#DejaVuSans-30"/>
      </g>
     </g>
    </g>
    <g id="xtick_3">
     <g id="line2d_5">
      <path d="M 308.24525 293.76 
L 308.24525 3.456 
" clip-path="url(#p22d85d01f2)" style="fill: none; stroke: #b0b0b0; stroke-width: 0.8; stroke-linecap: square"/>
     </g>
     <g id="line2d_6">
      <g>
       <use xlink:href="#m385a038aab" x="308.24525" y="293.76" style="stroke: #000000; stroke-width: 0.8"/>
      </g>
     </g>
     <g id="text_3">
      <!-- 4 -->
      <g transform="translate(301.88275 315.956875) scale(0.2 -0.2)">
       <use xlink:href="#DejaVuSans-34"/>
      </g>
     </g>
    </g>
    <g id="xtick_4">
     <g id="line2d_7">
      <path d="M 411.030681 293.76 
L 411.030681 3.456 
" clip-path="url(#p22d85d01f2)" style="fill: none; stroke: #b0b0b0; stroke-width: 0.8; stroke-linecap: square"/>
     </g>
     <g id="line2d_8">
      <g>
       <use xlink:href="#m385a038aab" x="411.030681" y="293.76" style="stroke: #000000; stroke-width: 0.8"/>
      </g>
     </g>
     <g id="text_4">
      <!-- 8 -->
      <g transform="translate(404.668181 315.956875) scale(0.2 -0.2)">
       <defs>
        <path id="DejaVuSans-38" d="M 2034 2216 
Q 1584 2216 1326 1975 
Q 1069 1734 1069 1313 
Q 1069 891 1326 650 
Q 1584 409 2034 409 
Q 2484 409 2743 651 
Q 3003 894 3003 1313 
Q 3003 1734 2745 1975 
Q 2488 2216 2034 2216 
z
M 1403 2484 
Q 997 2584 770 2862 
Q 544 3141 544 3541 
Q 544 4100 942 4425 
Q 1341 4750 2034 4750 
Q 2731 4750 3128 4425 
Q 3525 4100 3525 3541 
Q 3525 3141 3298 2862 
Q 3072 2584 2669 2484 
Q 3125 2378 3379 2068 
Q 3634 1759 3634 1313 
Q 3634 634 3220 271 
Q 2806 -91 2034 -91 
Q 1263 -91 848 271 
Q 434 634 434 1313 
Q 434 1759 690 2068 
Q 947 2378 1403 2484 
z
M 1172 3481 
Q 1172 3119 1398 2916 
Q 1625 2713 2034 2713 
Q 2441 2713 2670 2916 
Q 2900 3119 2900 3481 
Q 2900 3844 2670 4047 
Q 2441 4250 2034 4250 
Q 1625 4250 1398 4047 
Q 1172 3844 1172 3481 
z
" transform="scale(0.015625)"/>
       </defs>
       <use xlink:href="#DejaVuSans-38"/>
      </g>
     </g>
    </g>
    <g id="text_5">
     <!-- log10 of Df -->
     <g transform="translate(175.214063 339.313125) scale(0.2 -0.2)">
      <defs>
       <path id="DejaVuSans-6c" d="M 603 4863 
L 1178 4863 
L 1178 0 
L 603 0 
L 603 4863 
z
" transform="scale(0.015625)"/>
       <path id="DejaVuSans-6f" d="M 1959 3097 
Q 1497 3097 1228 2736 
Q 959 2375 959 1747 
Q 959 1119 1226 758 
Q 1494 397 1959 397 
Q 2419 397 2687 759 
Q 2956 1122 2956 1747 
Q 2956 2369 2687 2733 
Q 2419 3097 1959 3097 
z
M 1959 3584 
Q 2709 3584 3137 3096 
Q 3566 2609 3566 1747 
Q 3566 888 3137 398 
Q 2709 -91 1959 -91 
Q 1206 -91 779 398 
Q 353 888 353 1747 
Q 353 2609 779 3096 
Q 1206 3584 1959 3584 
z
" transform="scale(0.015625)"/>
       <path id="DejaVuSans-67" d="M 2906 1791 
Q 2906 2416 2648 2759 
Q 2391 3103 1925 3103 
Q 1463 3103 1205 2759 
Q 947 2416 947 1791 
Q 947 1169 1205 825 
Q 1463 481 1925 481 
Q 2391 481 2648 825 
Q 2906 1169 2906 1791 
z
M 3481 434 
Q 3481 -459 3084 -895 
Q 2688 -1331 1869 -1331 
Q 1566 -1331 1297 -1286 
Q 1028 -1241 775 -1147 
L 775 -588 
Q 1028 -725 1275 -790 
Q 1522 -856 1778 -856 
Q 2344 -856 2625 -561 
Q 2906 -266 2906 331 
L 2906 616 
Q 2728 306 2450 153 
Q 2172 0 1784 0 
Q 1141 0 747 490 
Q 353 981 353 1791 
Q 353 2603 747 3093 
Q 1141 3584 1784 3584 
Q 2172 3584 2450 3431 
Q 2728 3278 2906 2969 
L 2906 3500 
L 3481 3500 
L 3481 434 
z
" transform="scale(0.015625)"/>
       <path id="DejaVuSans-31" d="M 794 531 
L 1825 531 
L 1825 4091 
L 703 3866 
L 703 4441 
L 1819 4666 
L 2450 4666 
L 2450 531 
L 3481 531 
L 3481 0 
L 794 0 
L 794 531 
z
" transform="scale(0.015625)"/>
       <path id="DejaVuSans-20" transform="scale(0.015625)"/>
       <path id="DejaVuSans-66" d="M 2375 4863 
L 2375 4384 
L 1825 4384 
Q 1516 4384 1395 4259 
Q 1275 4134 1275 3809 
L 1275 3500 
L 2222 3500 
L 2222 3053 
L 1275 3053 
L 1275 0 
L 697 0 
L 697 3053 
L 147 3053 
L 147 3500 
L 697 3500 
L 697 3744 
Q 697 4328 969 4595 
Q 1241 4863 1831 4863 
L 2375 4863 
z
" transform="scale(0.015625)"/>
       <path id="DejaVuSans-44" d="M 1259 4147 
L 1259 519 
L 2022 519 
Q 2988 519 3436 956 
Q 3884 1394 3884 2338 
Q 3884 3275 3436 3711 
Q 2988 4147 2022 4147 
L 1259 4147 
z
M 628 4666 
L 1925 4666 
Q 3281 4666 3915 4102 
Q 4550 3538 4550 2338 
Q 4550 1131 3912 565 
Q 3275 0 1925 0 
L 628 0 
L 628 4666 
z
" transform="scale(0.015625)"/>
      </defs>
      <use xlink:href="#DejaVuSans-6c"/>
      <use xlink:href="#DejaVuSans-6f" x="27.783203"/>
      <use xlink:href="#DejaVuSans-67" x="88.964844"/>
      <use xlink:href="#DejaVuSans-31" x="152.441406"/>
      <use xlink:href="#DejaVuSans-30" x="216.064453"/>
      <use xlink:href="#DejaVuSans-20" x="279.6875"/>
      <use xlink:href="#DejaVuSans-6f" x="311.474609"/>
      <use xlink:href="#DejaVuSans-66" x="372.65625"/>
      <use xlink:href="#DejaVuSans-20" x="407.861328"/>
      <use xlink:href="#DejaVuSans-44" x="439.648438"/>
      <use xlink:href="#DejaVuSans-66" x="516.650391"/>
     </g>
    </g>
   </g>
   <g id="matplotlib.axis_2">
    <g id="ytick_1">
     <g id="line2d_9">
      <path d="M 0 293.76 
L 460.8 293.76 
" clip-path="url(#p22d85d01f2)" style="fill: none; stroke: #b0b0b0; stroke-width: 0.8; stroke-linecap: square"/>
     </g>
     <g id="line2d_10">
      <defs>
       <path id="m5c27676442" d="M 0 0 
L -3.5 0 
" style="stroke: #000000; stroke-width: 0.8"/>
      </defs>
      <g>
       <use xlink:href="#m5c27676442" x="0" y="293.76" style="stroke: #000000; stroke-width: 0.8"/>
      </g>
     </g>
    </g>
    <g id="ytick_2">
     <g id="line2d_11">
      <path d="M 0 236.274059 
L 460.8 236.274059 
" clip-path="url(#p22d85d01f2)" style="fill: none; stroke: #b0b0b0; stroke-width: 0.8; stroke-linecap: square"/>
     </g>
     <g id="line2d_12">
      <g>
       <use xlink:href="#m5c27676442" x="0" y="236.274059" style="stroke: #000000; stroke-width: 0.8"/>
      </g>
     </g>
    </g>
    <g id="ytick_3">
     <g id="line2d_13">
      <path d="M 0 178.788119 
L 460.8 178.788119 
" clip-path="url(#p22d85d01f2)" style="fill: none; stroke: #b0b0b0; stroke-width: 0.8; stroke-linecap: square"/>
     </g>
     <g id="line2d_14">
      <g>
       <use xlink:href="#m5c27676442" x="0" y="178.788119" style="stroke: #000000; stroke-width: 0.8"/>
      </g>
     </g>
    </g>
    <g id="ytick_4">
     <g id="line2d_15">
      <path d="M 0 121.302178 
L 460.8 121.302178 
" clip-path="url(#p22d85d01f2)" style="fill: none; stroke: #b0b0b0; stroke-width: 0.8; stroke-linecap: square"/>
     </g>
     <g id="line2d_16">
      <g>
       <use xlink:href="#m5c27676442" x="0" y="121.302178" style="stroke: #000000; stroke-width: 0.8"/>
      </g>
     </g>
    </g>
    <g id="ytick_5">
     <g id="line2d_17">
      <path d="M 0 63.816238 
L 460.8 63.816238 
" clip-path="url(#p22d85d01f2)" style="fill: none; stroke: #b0b0b0; stroke-width: 0.8; stroke-linecap: square"/>
     </g>
     <g id="line2d_18">
      <g>
       <use xlink:href="#m5c27676442" x="0" y="63.816238" style="stroke: #000000; stroke-width: 0.8"/>
      </g>
     </g>
    </g>
    <g id="ytick_6">
     <g id="line2d_19">
      <path d="M 0 6.330297 
L 460.8 6.330297 
" clip-path="url(#p22d85d01f2)" style="fill: none; stroke: #b0b0b0; stroke-width: 0.8; stroke-linecap: square"/>
     </g>
     <g id="line2d_20">
      <g>
       <use xlink:href="#m5c27676442" x="0" y="6.330297" style="stroke: #000000; stroke-width: 0.8"/>
      </g>
     </g>
    </g>
   </g>
   <g id="line2d_21">
    <path d="M 126.107155 293.76 
L 126.107155 289.927604 
L 132.328639 289.927604 
L 132.328639 286.095208 
L 133.083682 286.095208 
L 133.083682 282.262812 
L 133.352767 282.262812 
L 133.352767 278.430416 
L 137.050628 278.430416 
L 137.050628 274.59802 
L 141.27392 274.59802 
L 141.27392 270.765624 
L 160.371697 270.765624 
L 160.371697 266.933228 
L 176.854313 266.933228 
L 176.854313 263.100832 
L 184.268181 263.100832 
L 184.268181 259.268436 
L 184.616724 259.268436 
L 184.616724 255.43604 
L 191.2487 255.43604 
L 191.2487 251.603644 
L 201.223594 251.603644 
L 201.223594 247.771248 
L 203.727988 247.771248 
L 203.727988 243.938851 
L 206.335659 243.938851 
L 206.335659 240.106455 
L 207.912423 240.106455 
L 207.912423 236.274059 
L 213.362298 236.274059 
L 213.362298 232.441663 
L 216.641096 232.441663 
L 216.641096 228.609267 
L 218.710733 228.609267 
L 218.710733 224.776871 
L 219.751059 224.776871 
L 219.751059 220.944475 
L 222.585228 220.944475 
L 222.585228 217.112079 
L 223.379045 217.112079 
L 223.379045 213.279683 
L 224.247858 213.279683 
L 224.247858 209.447287 
L 225.601646 209.447287 
L 225.601646 205.614891 
L 226.192625 205.614891 
L 226.192625 201.782495 
L 226.629635 201.782495 
L 226.629635 197.950099 
L 230.407928 197.950099 
L 230.443857 190.285307 
L 231.055503 190.285307 
L 231.055503 186.452911 
L 231.366743 186.452911 
L 231.366743 182.620515 
L 233.429598 182.620515 
L 233.429598 178.788119 
L 234.706112 178.788119 
L 234.706112 174.955723 
L 235.06848 174.955723 
L 235.06848 171.123327 
L 235.429762 171.123327 
L 235.47974 163.458535 
L 236.940502 163.458535 
L 236.940502 159.626139 
L 237.715926 159.626139 
L 237.737459 151.961347 
L 238.088818 151.961347 
L 238.088818 148.12895 
L 238.46129 148.12895 
L 238.46129 144.296554 
L 241.349725 144.296554 
L 241.349725 140.464158 
L 241.681052 140.464158 
L 241.681052 136.631762 
L 241.867321 136.631762 
L 241.954337 128.96697 
L 242.098635 128.96697 
L 242.098635 125.134574 
L 242.656025 125.134574 
L 242.656025 121.302178 
L 243.658517 121.302178 
L 243.752115 113.637386 
L 244.404233 113.637386 
L 244.404233 109.80499 
L 246.110748 109.80499 
L 246.110748 105.972594 
L 247.808384 105.972594 
L 247.808384 102.140198 
L 253.341927 102.140198 
L 253.341927 98.307802 
L 258.184282 98.307802 
L 258.184282 94.475406 
L 261.297082 94.475406 
L 261.297082 90.64301 
L 262.949351 90.64301 
L 262.949351 86.810614 
L 263.142223 86.810614 
L 263.142223 82.978218 
L 267.242851 82.978218 
L 267.242851 79.145822 
L 267.938276 79.145822 
L 267.938276 75.313426 
L 270.961765 75.313426 
L 270.961765 71.48103 
L 272.902607 71.48103 
L 272.902607 67.648634 
L 276.386875 67.648634 
L 276.386875 63.816238 
L 276.629209 63.816238 
L 276.629209 59.983842 
L 277.222559 59.983842 
L 277.237209 52.31905 
L 278.277428 52.31905 
L 278.277428 48.486653 
L 282.531244 48.486653 
L 282.531244 44.654257 
L 284.053646 44.654257 
L 284.053646 40.821861 
L 284.17131 40.821861 
L 284.17131 36.989465 
L 289.43172 36.989465 
L 289.43172 33.157069 
L 291.254984 33.157069 
L 291.254984 29.324673 
L 293.404906 29.324673 
L 293.404906 25.492277 
L 296.557095 25.492277 
L 296.557095 21.659881 
L 297.897465 21.659881 
L 297.897465 17.827485 
L 299.304162 17.827485 
L 299.304162 13.995089 
L 300.804112 13.995089 
L 300.804112 10.162693 
L 302.683236 10.162693 
L 302.683236 6.330297 
L 302.683236 6.330297 
L 460.8 6.330297 
L 460.8 6.330297 
" clip-path="url(#p22d85d01f2)" style="fill: none; stroke: #ff0000; stroke-width: 3; stroke-linecap: square"/>
   </g>
   <g id="line2d_22">
    <path d="M 217.82766 293.76 
L 217.82766 289.927604 
L 222.066382 289.927604 
L 222.066382 286.095208 
L 224.747832 286.095208 
L 224.747832 282.262812 
L 225.058445 282.262812 
L 225.058445 278.430416 
L 237.661266 278.430416 
L 237.661266 274.59802 
L 240.243508 274.59802 
L 240.243508 270.765624 
L 241.649002 270.765624 
L 241.649002 266.933228 
L 241.859051 266.933228 
L 241.859051 263.100832 
L 245.387529 263.100832 
L 245.387529 259.268436 
L 247.226337 259.268436 
L 247.226337 255.43604 
L 248.331218 255.43604 
L 248.331218 251.603644 
L 250.097312 251.603644 
L 250.097312 247.771248 
L 251.812058 247.771248 
L 251.812058 243.938851 
L 256.201719 243.938851 
L 256.201719 240.106455 
L 256.615172 240.106455 
L 256.615172 236.274059 
L 275.866989 236.274059 
L 275.866989 232.441663 
L 278.263406 232.441663 
L 278.263406 228.609267 
L 278.532971 228.609267 
L 278.532971 224.776871 
L 279.841691 224.776871 
L 279.841691 220.944475 
L 280.21139 220.944475 
L 280.21139 217.112079 
L 280.403095 217.112079 
L 280.403095 213.279683 
L 281.374558 213.279683 
L 281.374558 209.447287 
L 281.798752 209.447287 
L 281.798752 205.614891 
L 283.073343 205.614891 
L 283.073343 201.782495 
L 284.09067 201.782495 
L 284.09067 197.950099 
L 284.368451 197.950099 
L 284.368451 194.117703 
L 285.193774 194.117703 
L 285.193774 190.285307 
L 285.450554 190.285307 
L 285.450554 186.452911 
L 286.324544 186.452911 
L 286.324544 182.620515 
L 289.429462 182.620515 
L 289.429462 178.788119 
L 289.796413 178.788119 
L 289.796413 174.955723 
L 320.19549 174.955723 
L 320.19549 171.123327 
L 323.901937 171.123327 
L 323.901937 167.290931 
L 333.672498 167.290931 
L 333.672498 163.458535 
L 335.698276 163.458535 
L 335.698276 159.626139 
L 347.332949 159.626139 
L 347.332949 155.793743 
L 348.893781 155.793743 
L 348.893781 151.961347 
L 367.378467 151.961347 
L 367.378467 148.12895 
L 367.734253 148.12895 
L 367.734253 144.296554 
L 368.995745 144.296554 
L 368.995745 140.464158 
L 369.183987 140.464158 
L 369.183987 136.631762 
L 370.423405 136.631762 
L 370.423405 132.799366 
L 373.33638 132.799366 
L 373.33638 128.96697 
L 373.507396 128.96697 
L 373.507396 125.134574 
L 374.011992 125.134574 
L 374.011992 121.302178 
L 376.125147 121.302178 
L 376.125147 117.469782 
L 377.868874 117.469782 
L 377.868874 113.637386 
L 378.366566 113.637386 
L 378.366566 109.80499 
L 378.551844 109.80499 
L 378.551844 105.972594 
L 379.477358 105.972594 
L 379.477358 102.140198 
L 379.70208 102.140198 
L 379.70208 98.307802 
L 379.84195 98.307802 
L 379.84453 90.64301 
L 380.389314 90.64301 
L 380.389314 86.810614 
L 380.723705 86.810614 
L 380.723705 82.978218 
L 380.931316 82.978218 
L 380.931316 79.145822 
L 382.074192 79.145822 
L 382.074192 75.313426 
L 385.885487 75.313426 
L 385.885487 71.48103 
L 386.261888 71.48103 
L 386.261888 67.648634 
L 387.663808 67.648634 
L 387.663808 63.816238 
L 388.239238 63.816238 
L 388.239238 59.983842 
L 390.897098 59.983842 
L 390.897098 56.151446 
L 391.272912 56.151446 
L 391.272912 52.31905 
L 392.538018 52.31905 
L 392.538018 48.486653 
L 396.210202 48.486653 
L 396.210202 44.654257 
L 398.576188 44.654257 
L 398.576188 40.821861 
L 401.276482 40.821861 
L 401.276482 36.989465 
L 401.425768 36.989465 
L 401.455542 29.324673 
L 401.972396 29.324673 
L 401.972396 25.492277 
L 405.296838 25.492277 
L 405.296838 21.659881 
L 415.723657 21.659881 
L 415.723657 17.827485 
L 416.563043 17.827485 
L 416.563043 13.995089 
L 425.079057 13.995089 
L 425.079057 10.162693 
L 431.69679 10.162693 
L 431.69679 6.330297 
L 431.69679 6.330297 
L 460.8 6.330297 
L 460.8 6.330297 
" clip-path="url(#p22d85d01f2)" style="fill: none; stroke: #00bfbf; stroke-width: 1.5; stroke-linecap: square"/>
   </g>
   <g id="line2d_23">
    <path d="M 216.641096 293.76 
L 216.641096 289.927604 
L 218.956762 289.927604 
L 218.956762 286.095208 
L 223.169734 286.095208 
L 223.169734 282.262812 
L 223.428697 282.262812 
L 223.428697 278.430416 
L 230.975329 278.430416 
L 230.975329 274.59802 
L 236.327418 274.59802 
L 236.327418 270.765624 
L 238.411568 270.765624 
L 238.411568 266.933228 
L 240.411096 266.933228 
L 240.411096 263.100832 
L 240.617101 263.100832 
L 240.617101 259.268436 
L 241.014834 259.268436 
L 241.014834 255.43604 
L 242.911264 255.43604 
L 242.911264 251.603644 
L 246.042247 251.603644 
L 246.042247 247.771248 
L 249.554175 247.771248 
L 249.554175 243.938851 
L 249.740295 243.938851 
L 249.740295 240.106455 
L 253.534585 240.106455 
L 253.534585 236.274059 
L 273.709825 236.274059 
L 273.709825 232.441663 
L 275.271148 232.441663 
L 275.271148 228.609267 
L 277.456672 228.609267 
L 277.456672 224.776871 
L 278.532971 224.776871 
L 278.532971 220.944475 
L 279.587701 220.944475 
L 279.681209 213.279683 
L 280.120122 213.279683 
L 280.120122 209.447287 
L 280.403095 209.447287 
L 280.403095 205.614891 
L 280.76854 205.614891 
L 280.76854 201.782495 
L 282.392839 201.782495 
L 282.392839 197.950099 
L 282.816638 197.950099 
L 282.816638 194.117703 
L 283.118524 194.117703 
L 283.118524 190.285307 
L 283.605842 190.285307 
L 283.605842 186.452911 
L 283.977957 186.452911 
L 283.977957 182.620515 
L 286.324544 182.620515 
L 286.324544 178.788119 
L 289.429462 178.788119 
L 289.519022 171.123327 
L 306.572648 171.123327 
L 306.572648 167.290931 
L 306.949621 167.290931 
L 306.949621 163.458535 
L 318.701486 163.458535 
L 318.701486 159.626139 
L 320.19549 159.626139 
L 320.19549 155.793743 
L 321.883564 155.793743 
L 321.883564 151.961347 
L 350.287767 151.961347 
L 350.287767 148.12895 
L 352.285033 148.12895 
L 352.285033 144.296554 
L 353.691807 144.296554 
L 353.691807 140.464158 
L 355.48432 140.464158 
L 355.48432 136.631762 
L 359.746972 136.631762 
L 359.746972 132.799366 
L 361.318736 132.799366 
L 361.318736 128.96697 
L 362.128786 128.96697 
L 362.128786 125.134574 
L 368.192162 125.134574 
L 368.192162 121.302178 
L 369.241426 121.302178 
L 369.241426 117.469782 
L 370.764234 117.469782 
L 370.764234 113.637386 
L 372.534199 113.637386 
L 372.534199 109.80499 
L 373.250854 109.80499 
L 373.33638 102.140198 
L 374.799038 102.140198 
L 374.828464 90.64301 
L 375.041643 90.64301 
L 375.041643 86.810614 
L 376.136415 86.810614 
L 376.136415 82.978218 
L 376.884114 82.978218 
L 376.884114 79.145822 
L 377.740699 79.145822 
L 377.740699 75.313426 
L 381.888704 75.313426 
L 381.888704 71.48103 
L 383.225632 71.48103 
L 383.225632 67.648634 
L 383.983721 67.648634 
L 383.983721 63.816238 
L 386.157273 63.816238 
L 386.157273 59.983842 
L 386.72044 59.983842 
L 386.72044 56.151446 
L 387.347972 56.151446 
L 387.347972 52.31905 
L 388.54521 52.31905 
L 388.54521 48.486653 
L 392.004201 48.486653 
L 392.004201 44.654257 
L 394.30818 44.654257 
L 394.30818 40.821861 
L 395.650035 40.821861 
L 395.650035 36.989465 
L 396.099878 36.989465 
L 396.099878 33.157069 
L 397.66695 33.157069 
L 397.66695 29.324673 
L 398.277001 29.324673 
L 398.277001 25.492277 
L 399.227963 25.492277 
L 399.227963 21.659881 
L 412.328088 21.659881 
L 412.328088 17.827485 
L 413.171877 17.827485 
L 413.171877 13.995089 
L 422.612488 13.995089 
L 422.612488 10.162693 
L 423.626292 10.162693 
L 423.626292 6.330297 
L 423.626292 6.330297 
L 460.8 6.330297 
L 460.8 6.330297 
" clip-path="url(#p22d85d01f2)" style="fill: none; stroke: #bf00bf; stroke-width: 1.5; stroke-linecap: square"/>
   </g>
   <g id="line2d_24">
    <path d="M 210.838584 293.76 
L 210.838584 289.927604 
L 211.006306 289.927604 
L 211.006306 286.095208 
L 213.406186 286.095208 
L 213.406186 282.262812 
L 215.499435 282.262812 
L 215.499435 278.430416 
L 216.112215 278.430416 
L 216.112215 274.59802 
L 216.641096 274.59802 
L 216.641096 270.765624 
L 218.956762 270.765624 
L 218.956762 266.933228 
L 222.771122 266.933228 
L 222.771122 263.100832 
L 234.378088 263.100832 
L 234.378088 259.268436 
L 238.411568 259.268436 
L 238.411568 255.43604 
L 239.688791 255.43604 
L 239.688791 251.603644 
L 240.411096 251.603644 
L 240.411096 247.771248 
L 241.014834 247.771248 
L 241.014834 243.938851 
L 241.349725 243.938851 
L 241.349725 240.106455 
L 245.891348 240.106455 
L 245.891348 236.274059 
L 246.042247 236.274059 
L 246.042247 232.441663 
L 246.695103 232.441663 
L 246.695103 228.609267 
L 250.188996 228.609267 
L 250.188996 224.776871 
L 259.387619 224.776871 
L 259.387619 220.944475 
L 260.634163 220.944475 
L 260.634163 217.112079 
L 261.391897 217.112079 
L 261.391897 213.279683 
L 262.751583 213.279683 
L 262.751583 209.447287 
L 267.401258 209.447287 
L 267.401258 205.614891 
L 268.371825 205.614891 
L 268.371825 201.782495 
L 269.182092 201.782495 
L 269.182092 197.950099 
L 269.841487 197.950099 
L 269.841487 194.117703 
L 270.184895 194.117703 
L 270.184895 190.285307 
L 270.498926 190.285307 
L 270.498926 186.452911 
L 271.428614 186.452911 
L 271.428614 182.620515 
L 271.930909 182.620515 
L 271.930909 178.788119 
L 273.321612 178.788119 
L 273.321612 174.955723 
L 274.504831 174.955723 
L 274.504831 171.123327 
L 274.670573 171.123327 
L 274.670573 167.290931 
L 282.301353 167.290931 
L 282.301353 163.458535 
L 296.174474 163.458535 
L 296.174474 159.626139 
L 299.664508 159.626139 
L 299.664508 155.793743 
L 313.643781 155.793743 
L 313.643781 151.961347 
L 314.806994 151.961347 
L 314.806994 148.12895 
L 319.948446 148.12895 
L 319.948446 144.296554 
L 320.461404 144.296554 
L 320.461404 140.464158 
L 321.759244 140.464158 
L 321.759244 136.631762 
L 327.462373 136.631762 
L 327.462373 132.799366 
L 331.87784 132.799366 
L 331.87784 128.96697 
L 332.662669 128.96697 
L 332.662669 125.134574 
L 338.076047 125.134574 
L 338.076047 121.302178 
L 339.168383 121.302178 
L 339.168383 117.469782 
L 342.131918 117.469782 
L 342.131918 113.637386 
L 343.986373 113.637386 
L 343.986373 109.80499 
L 345.144391 109.80499 
L 345.144391 105.972594 
L 346.161876 105.972594 
L 346.161876 102.140198 
L 347.318362 102.140198 
L 347.318362 98.307802 
L 347.602142 98.307802 
L 347.602142 94.475406 
L 348.682209 94.475406 
L 348.724198 86.810614 
L 349.95333 86.810614 
L 349.95333 82.978218 
L 350.584231 82.978218 
L 350.631863 75.313426 
L 351.093198 75.313426 
L 351.093198 71.48103 
L 353.511083 71.48103 
L 353.511083 67.648634 
L 355.424312 67.648634 
L 355.424312 63.816238 
L 356.548824 63.816238 
L 356.548824 59.983842 
L 358.213035 59.983842 
L 358.213035 56.151446 
L 358.763549 56.151446 
L 358.854184 48.486653 
L 362.026917 48.486653 
L 362.026917 44.654257 
L 369.28218 44.654257 
L 369.28218 40.821861 
L 371.384403 40.821861 
L 371.429727 33.157069 
L 374.242939 33.157069 
L 374.242939 29.324673 
L 378.193399 29.324673 
L 378.193399 25.492277 
L 379.583144 25.492277 
L 379.583144 21.659881 
L 391.343221 21.659881 
L 391.343221 17.827485 
L 395.980171 17.827485 
L 395.980171 13.995089 
L 396.593181 13.995089 
L 396.593181 10.162693 
L 400.752459 10.162693 
L 400.752459 6.330297 
L 400.752459 6.330297 
L 460.8 6.330297 
L 460.8 6.330297 
" clip-path="url(#p22d85d01f2)" style="fill: none; stroke: #000000; stroke-width: 1.5; stroke-linecap: square"/>
   </g>
   <g id="line2d_25">
    <path d="M 157.247226 293.76 
L 157.247226 289.927604 
L 157.362828 289.927604 
L 157.362828 286.095208 
L 158.797386 286.095208 
L 158.797386 282.262812 
L 162.053108 282.262812 
L 162.053108 278.430416 
L 166.672606 278.430416 
L 166.672606 274.59802 
L 173.501417 274.59802 
L 173.501417 270.765624 
L 216.641096 270.765624 
L 216.641096 266.933228 
L 218.710733 266.933228 
L 218.710733 263.100832 
L 223.289033 263.100832 
L 223.289033 259.268436 
L 225.048207 259.268436 
L 225.048207 255.43604 
L 225.781609 255.43604 
L 225.781609 251.603644 
L 227.581329 251.603644 
L 227.581329 247.771248 
L 231.372211 247.771248 
L 231.372211 243.938851 
L 233.491066 243.938851 
L 233.491066 240.106455 
L 234.187042 240.106455 
L 234.187042 236.274059 
L 236.722552 236.274059 
L 236.822482 224.776871 
L 236.961535 224.776871 
L 236.961535 220.944475 
L 237.591029 220.944475 
L 237.591029 217.112079 
L 238.161879 217.112079 
L 238.161879 213.279683 
L 238.411568 213.279683 
L 238.411568 209.447287 
L 239.098464 209.447287 
L 239.098464 205.614891 
L 239.688791 205.614891 
L 239.688791 201.782495 
L 240.411096 201.782495 
L 240.411096 197.950099 
L 240.878567 197.950099 
L 240.878567 194.117703 
L 241.349725 194.117703 
L 241.349725 190.285307 
L 241.766662 190.285307 
L 241.766662 186.452911 
L 242.058436 186.452911 
L 242.058436 182.620515 
L 242.735085 182.620515 
L 242.735085 178.788119 
L 243.715733 178.788119 
L 243.758471 171.123327 
L 244.41364 171.123327 
L 244.41364 167.290931 
L 246.042247 167.290931 
L 246.042247 163.458535 
L 247.553532 163.458535 
L 247.553532 159.626139 
L 249.353171 159.626139 
L 249.353171 155.793743 
L 249.488806 155.793743 
L 249.488806 151.961347 
L 249.722189 151.961347 
L 249.722189 148.12895 
L 250.188996 148.12895 
L 250.188996 144.296554 
L 254.180572 144.296554 
L 254.180572 140.464158 
L 256.522453 140.464158 
L 256.522453 136.631762 
L 258.372051 136.631762 
L 258.372051 132.799366 
L 262.995407 132.799366 
L 262.995407 128.96697 
L 263.712357 128.96697 
L 263.712357 125.134574 
L 264.415085 125.134574 
L 264.415085 121.302178 
L 264.934247 121.302178 
L 264.934247 117.469782 
L 268.339658 117.469782 
L 268.339658 113.637386 
L 269.908508 113.637386 
L 269.908508 109.80499 
L 273.017065 109.80499 
L 273.017065 105.972594 
L 273.817477 105.972594 
L 273.817477 102.140198 
L 274.298215 102.140198 
L 274.298215 98.307802 
L 276.571432 98.307802 
L 276.651069 90.64301 
L 277.742284 90.64301 
L 277.742284 86.810614 
L 281.76795 86.810614 
L 281.76795 82.978218 
L 282.548898 82.978218 
L 282.578483 75.313426 
L 291.989526 75.313426 
L 291.989526 71.48103 
L 298.661956 71.48103 
L 298.661956 67.648634 
L 299.246316 67.648634 
L 299.246316 63.816238 
L 300.294972 63.816238 
L 300.294972 59.983842 
L 301.070679 59.983842 
L 301.070679 56.151446 
L 303.061261 56.151446 
L 303.061261 52.31905 
L 304.124858 52.31905 
L 304.124858 48.486653 
L 306.361972 48.486653 
L 306.361972 44.654257 
L 306.645279 44.654257 
L 306.645279 40.821861 
L 307.401525 40.821861 
L 307.401525 36.989465 
L 311.696002 36.989465 
L 311.696002 33.157069 
L 315.413729 33.157069 
L 315.413729 29.324673 
L 320.818463 29.324673 
L 320.818463 25.492277 
L 329.472238 25.492277 
L 329.472238 21.659881 
L 330.45728 21.659881 
L 330.45728 17.827485 
L 331.221 17.827485 
L 331.221 13.995089 
L 334.479284 13.995089 
L 334.577742 6.330297 
L 334.577742 6.330297 
L 460.8 6.330297 
L 460.8 6.330297 
" clip-path="url(#p22d85d01f2)" style="fill: none; stroke: #00bfbf; stroke-width: 1.5; stroke-linecap: square"/>
   </g>
   <g id="patch_3">
    <path d="M 0 293.76 
L 0 3.456 
" style="fill: none; stroke: #000000; stroke-width: 0.8; stroke-linejoin: miter; stroke-linecap: square"/>
   </g>
   <g id="patch_4">
    <path d="M 460.8 293.76 
L 460.8 3.456 
" style="fill: none; stroke: #000000; stroke-width: 0.8; stroke-linejoin: miter; stroke-linecap: square"/>
   </g>
   <g id="patch_5">
    <path d="M 0 293.76 
L 460.8 293.76 
" style="fill: none; stroke: #000000; stroke-width: 0.8; stroke-linejoin: miter; stroke-linecap: square"/>
   </g>
   <g id="patch_6">
    <path d="M 0 3.456 
L 460.8 3.456 
" style="fill: none; stroke: #000000; stroke-width: 0.8; stroke-linejoin: miter; stroke-linecap: square"/>
   </g>
   <g id="text_6">
    <!-- {f10-f14}, 5-D -->
    <g transform="translate(305.884 287.95392) scale(0.2 -0.2)">
     <defs>
      <path id="DejaVuSans-7b" d="M 3272 -594 
L 3272 -1044 
L 3078 -1044 
Q 2300 -1044 2036 -812 
Q 1772 -581 1772 109 
L 1772 856 
Q 1772 1328 1603 1509 
Q 1434 1691 991 1691 
L 800 1691 
L 800 2138 
L 991 2138 
Q 1438 2138 1605 2317 
Q 1772 2497 1772 2963 
L 1772 3713 
Q 1772 4403 2036 4633 
Q 2300 4863 3078 4863 
L 3272 4863 
L 3272 4416 
L 3059 4416 
Q 2619 4416 2484 4278 
Q 2350 4141 2350 3700 
L 2350 2925 
Q 2350 2434 2208 2212 
Q 2066 1991 1722 1913 
Q 2069 1828 2209 1606 
Q 2350 1384 2350 897 
L 2350 122 
Q 2350 -319 2484 -456 
Q 2619 -594 3059 -594 
L 3272 -594 
z
" transform="scale(0.015625)"/>
      <path id="DejaVuSans-7d" d="M 800 -594 
L 1019 -594 
Q 1456 -594 1589 -459 
Q 1722 -325 1722 122 
L 1722 897 
Q 1722 1384 1862 1606 
Q 2003 1828 2350 1913 
Q 2003 1991 1862 2212 
Q 1722 2434 1722 2925 
L 1722 3700 
Q 1722 4144 1589 4280 
Q 1456 4416 1019 4416 
L 800 4416 
L 800 4863 
L 997 4863 
Q 1775 4863 2036 4633 
Q 2297 4403 2297 3713 
L 2297 2963 
Q 2297 2497 2465 2317 
Q 2634 2138 3078 2138 
L 3272 2138 
L 3272 1691 
L 3078 1691 
Q 2634 1691 2465 1509 
Q 2297 1328 2297 856 
L 2297 109 
Q 2297 -581 2036 -812 
Q 1775 -1044 997 -1044 
L 800 -1044 
L 800 -594 
z
" transform="scale(0.015625)"/>
      <path id="DejaVuSans-2c" d="M 750 794 
L 1409 794 
L 1409 256 
L 897 -744 
L 494 -744 
L 750 256 
L 750 794 
z
" transform="scale(0.015625)"/>
      <path id="DejaVuSans-35" d="M 691 4666 
L 3169 4666 
L 3169 4134 
L 1269 4134 
L 1269 2991 
Q 1406 3038 1543 3061 
Q 1681 3084 1819 3084 
Q 2600 3084 3056 2656 
Q 3513 2228 3513 1497 
Q 3513 744 3044 326 
Q 2575 -91 1722 -91 
Q 1428 -91 1123 -41 
Q 819 9 494 109 
L 494 744 
Q 775 591 1075 516 
Q 1375 441 1709 441 
Q 2250 441 2565 725 
Q 2881 1009 2881 1497 
Q 2881 1984 2565 2268 
Q 2250 2553 1709 2553 
Q 1456 2553 1204 2497 
Q 953 2441 691 2322 
L 691 4666 
z
" transform="scale(0.015625)"/>
     </defs>
     <use xlink:href="#DejaVuSans-7b"/>
     <use xlink:href="#DejaVuSans-66" x="63.623047"/>
     <use xlink:href="#DejaVuSans-31" x="98.828125"/>
     <use xlink:href="#DejaVuSans-30" x="162.451172"/>
     <use xlink:href="#DejaVuSans-2d" x="226.074219"/>
     <use xlink:href="#DejaVuSans-66" x="262.158203"/>
     <use xlink:href="#DejaVuSans-31" x="297.363281"/>
     <use xlink:href="#DejaVuSans-34" x="360.986328"/>
     <use xlink:href="#DejaVuSans-7d" x="424.609375"/>
     <use xlink:href="#DejaVuSans-2c" x="488.232422"/>
     <use xlink:href="#DejaVuSans-20" x="520.019531"/>
     <use xlink:href="#DejaVuSans-35" x="551.806641"/>
     <use xlink:href="#DejaVuSans-2d" x="615.429688"/>
     <use xlink:href="#DejaVuSans-44" x="651.513672"/>
    </g>
   </g>
   <g id="text_7">
    <!-- v2.6.3 -->
    <g style="fill: #808080" transform="translate(214.71875 288.777272) scale(0.1 -0.1)">
     <defs>
      <path id="DejaVuSans-76" d="M 191 3500 
L 800 3500 
L 1894 563 
L 2988 3500 
L 3597 3500 
L 2284 0 
L 1503 0 
L 191 3500 
z
" transform="scale(0.015625)"/>
      <path id="DejaVuSans-32" d="M 1228 531 
L 3431 531 
L 3431 0 
L 469 0 
L 469 531 
Q 828 903 1448 1529 
Q 2069 2156 2228 2338 
Q 2531 2678 2651 2914 
Q 2772 3150 2772 3378 
Q 2772 3750 2511 3984 
Q 2250 4219 1831 4219 
Q 1534 4219 1204 4116 
Q 875 4013 500 3803 
L 500 4441 
Q 881 4594 1212 4672 
Q 1544 4750 1819 4750 
Q 2544 4750 2975 4387 
Q 3406 4025 3406 3419 
Q 3406 3131 3298 2873 
Q 3191 2616 2906 2266 
Q 2828 2175 2409 1742 
Q 1991 1309 1228 531 
z
" transform="scale(0.015625)"/>
      <path id="DejaVuSans-2e" d="M 684 794 
L 1344 794 
L 1344 0 
L 684 0 
L 684 794 
z
" transform="scale(0.015625)"/>
      <path id="DejaVuSans-36" d="M 2113 2584 
Q 1688 2584 1439 2293 
Q 1191 2003 1191 1497 
Q 1191 994 1439 701 
Q 1688 409 2113 409 
Q 2538 409 2786 701 
Q 3034 994 3034 1497 
Q 3034 2003 2786 2293 
Q 2538 2584 2113 2584 
z
M 3366 4563 
L 3366 3988 
Q 3128 4100 2886 4159 
Q 2644 4219 2406 4219 
Q 1781 4219 1451 3797 
Q 1122 3375 1075 2522 
Q 1259 2794 1537 2939 
Q 1816 3084 2150 3084 
Q 2853 3084 3261 2657 
Q 3669 2231 3669 1497 
Q 3669 778 3244 343 
Q 2819 -91 2113 -91 
Q 1303 -91 875 529 
Q 447 1150 447 2328 
Q 447 3434 972 4092 
Q 1497 4750 2381 4750 
Q 2619 4750 2861 4703 
Q 3103 4656 3366 4563 
z
" transform="scale(0.015625)"/>
      <path id="DejaVuSans-33" d="M 2597 2516 
Q 3050 2419 3304 2112 
Q 3559 1806 3559 1356 
Q 3559 666 3084 287 
Q 2609 -91 1734 -91 
Q 1441 -91 1130 -33 
Q 819 25 488 141 
L 488 750 
Q 750 597 1062 519 
Q 1375 441 1716 441 
Q 2309 441 2620 675 
Q 2931 909 2931 1356 
Q 2931 1769 2642 2001 
Q 2353 2234 1838 2234 
L 1294 2234 
L 1294 2753 
L 1863 2753 
Q 2328 2753 2575 2939 
Q 2822 3125 2822 3475 
Q 2822 3834 2567 4026 
Q 2313 4219 1838 4219 
Q 1578 4219 1281 4162 
Q 984 4106 628 3988 
L 628 4550 
Q 988 4650 1302 4700 
Q 1616 4750 1894 4750 
Q 2613 4750 3031 4423 
Q 3450 4097 3450 3541 
Q 3450 3153 3228 2886 
Q 3006 2619 2597 2516 
z
" transform="scale(0.015625)"/>
     </defs>
     <use xlink:href="#DejaVuSans-76"/>
     <use xlink:href="#DejaVuSans-32" x="59.179688"/>
     <use xlink:href="#DejaVuSans-2e" x="122.802734"/>
     <use xlink:href="#DejaVuSans-36" x="154.589844"/>
     <use xlink:href="#DejaVuSans-2e" x="218.212891"/>
     <use xlink:href="#DejaVuSans-33" x="250"/>
    </g>
   </g>
  </g>
 </g>
 <defs>
  <clipPath id="p22d85d01f2">
   <rect x="0" y="3.456" width="460.8" height="290.304"/>
  </clipPath>
 </defs>
</svg>
