<?xml version="1.0" encoding="utf-8" standalone="no"?>
<!DOCTYPE svg PUBLIC "-//W3C//DTD SVG 1.1//EN"
  "http://www.w3.org/Graphics/SVG/1.1/DTD/svg11.dtd">
<svg xmlns:xlink="http://www.w3.org/1999/xlink" width="460.8pt" height="345.6pt" viewBox="0 0 460.8 345.6" xmlns="http://www.w3.org/2000/svg" version="1.1">
 <metadata>
  <rdf:RDF xmlns:dc="http://purl.org/dc/elements/1.1/" xmlns:cc="http://creativecommons.org/ns#" xmlns:rdf="http://www.w3.org/1999/02/22-rdf-syntax-ns#">
   <cc:Work>
    <dc:type rdf:resource="http://purl.org/dc/dcmitype/StillImage"/>
    <dc:date>2024-01-25T18:23:07.181290</dc:date>
    <dc:format>image/svg+xml</dc:format>
    <dc:creator>
     <cc:Agent>
      <dc:title>Matplotlib v3.8.2, https://matplotlib.org/</dc:title>
     </cc:Agent>
    </dc:creator>
   </cc:Work>
  </rdf:RDF>
 </metadata>
 <defs>
  <style type="text/css">*{stroke-linejoin: round; stroke-linecap: butt}</style>
 </defs>
 <g id="figure_1">
  <g id="patch_1">
   <path d="M 0 345.6 
L 460.8 345.6 
L 460.8 0 
L 0 0 
z
" style="fill: #ffffff"/>
  </g>
  <g id="axes_1">
   <g id="patch_2">
    <path d="M 0 293.76 
L 460.8 293.76 
L 460.8 3.456 
L 0 3.456 
z
" style="fill: #ffffff"/>
   </g>
   <g id="matplotlib.axis_1">
    <g id="xtick_1">
     <g id="line2d_1">
      <path d="M 102.674388 293.76 
L 102.674388 3.456 
" clip-path="url(#p71ce706753)" style="fill: none; stroke: #b0b0b0; stroke-width: 0.8; stroke-linecap: square"/>
     </g>
     <g id="line2d_2">
      <defs>
       <path id="m20d7b10776" d="M 0 0 
L 0 3.5 
" style="stroke: #000000; stroke-width: 0.8"/>
      </defs>
      <g>
       <use xlink:href="#m20d7b10776" x="102.674388" y="293.76" style="stroke: #000000; stroke-width: 0.8"/>
      </g>
     </g>
     <g id="text_1">
      <!-- -4 -->
      <g transform="translate(92.704075 315.956875) scale(0.2 -0.2)">
       <defs>
        <path id="DejaVuSans-2d" d="M 313 2009 
L 1997 2009 
L 1997 1497 
L 313 1497 
L 313 2009 
z
" transform="scale(0.015625)"/>
        <path id="DejaVuSans-34" d="M 2419 4116 
L 825 1625 
L 2419 1625 
L 2419 4116 
z
M 2253 4666 
L 3047 4666 
L 3047 1625 
L 3713 1625 
L 3713 1100 
L 3047 1100 
L 3047 0 
L 2419 0 
L 2419 1100 
L 313 1100 
L 313 1709 
L 2253 4666 
z
" transform="scale(0.015625)"/>
       </defs>
       <use xlink:href="#DejaVuSans-2d"/>
       <use xlink:href="#DejaVuSans-34" x="36.083984"/>
      </g>
     </g>
    </g>
    <g id="xtick_2">
     <g id="line2d_3">
      <path d="M 205.459819 293.76 
L 205.459819 3.456 
" clip-path="url(#p71ce706753)" style="fill: none; stroke: #b0b0b0; stroke-width: 0.8; stroke-linecap: square"/>
     </g>
     <g id="line2d_4">
      <g>
       <use xlink:href="#m20d7b10776" x="205.459819" y="293.76" style="stroke: #000000; stroke-width: 0.8"/>
      </g>
     </g>
     <g id="text_2">
      <!-- 0 -->
      <g transform="translate(199.097319 315.956875) scale(0.2 -0.2)">
       <defs>
        <path id="DejaVuSans-30" d="M 2034 4250 
Q 1547 4250 1301 3770 
Q 1056 3291 1056 2328 
Q 1056 1369 1301 889 
Q 1547 409 2034 409 
Q 2525 409 2770 889 
Q 3016 1369 3016 2328 
Q 3016 3291 2770 3770 
Q 2525 4250 2034 4250 
z
M 2034 4750 
Q 2819 4750 3233 4129 
Q 3647 3509 3647 2328 
Q 3647 1150 3233 529 
Q 2819 -91 2034 -91 
Q 1250 -91 836 529 
Q 422 1150 422 2328 
Q 422 3509 836 4129 
Q 1250 4750 2034 4750 
z
" transform="scale(0.015625)"/>
       </defs>
       <use xlink:href="#DejaVuSans-30"/>
      </g>
     </g>
    </g>
    <g id="xtick_3">
     <g id="line2d_5">
      <path d="M 308.24525 293.76 
L 308.24525 3.456 
" clip-path="url(#p71ce706753)" style="fill: none; stroke: #b0b0b0; stroke-width: 0.8; stroke-linecap: square"/>
     </g>
     <g id="line2d_6">
      <g>
       <use xlink:href="#m20d7b10776" x="308.24525" y="293.76" style="stroke: #000000; stroke-width: 0.8"/>
      </g>
     </g>
     <g id="text_3">
      <!-- 4 -->
      <g transform="translate(301.88275 315.956875) scale(0.2 -0.2)">
       <use xlink:href="#DejaVuSans-34"/>
      </g>
     </g>
    </g>
    <g id="xtick_4">
     <g id="line2d_7">
      <path d="M 411.030681 293.76 
L 411.030681 3.456 
" clip-path="url(#p71ce706753)" style="fill: none; stroke: #b0b0b0; stroke-width: 0.8; stroke-linecap: square"/>
     </g>
     <g id="line2d_8">
      <g>
       <use xlink:href="#m20d7b10776" x="411.030681" y="293.76" style="stroke: #000000; stroke-width: 0.8"/>
      </g>
     </g>
     <g id="text_4">
      <!-- 8 -->
      <g transform="translate(404.668181 315.956875) scale(0.2 -0.2)">
       <defs>
        <path id="DejaVuSans-38" d="M 2034 2216 
Q 1584 2216 1326 1975 
Q 1069 1734 1069 1313 
Q 1069 891 1326 650 
Q 1584 409 2034 409 
Q 2484 409 2743 651 
Q 3003 894 3003 1313 
Q 3003 1734 2745 1975 
Q 2488 2216 2034 2216 
z
M 1403 2484 
Q 997 2584 770 2862 
Q 544 3141 544 3541 
Q 544 4100 942 4425 
Q 1341 4750 2034 4750 
Q 2731 4750 3128 4425 
Q 3525 4100 3525 3541 
Q 3525 3141 3298 2862 
Q 3072 2584 2669 2484 
Q 3125 2378 3379 2068 
Q 3634 1759 3634 1313 
Q 3634 634 3220 271 
Q 2806 -91 2034 -91 
Q 1263 -91 848 271 
Q 434 634 434 1313 
Q 434 1759 690 2068 
Q 947 2378 1403 2484 
z
M 1172 3481 
Q 1172 3119 1398 2916 
Q 1625 2713 2034 2713 
Q 2441 2713 2670 2916 
Q 2900 3119 2900 3481 
Q 2900 3844 2670 4047 
Q 2441 4250 2034 4250 
Q 1625 4250 1398 4047 
Q 1172 3844 1172 3481 
z
" transform="scale(0.015625)"/>
       </defs>
       <use xlink:href="#DejaVuSans-38"/>
      </g>
     </g>
    </g>
    <g id="text_5">
     <!-- log10 of Df -->
     <g transform="translate(175.214063 339.313125) scale(0.2 -0.2)">
      <defs>
       <path id="DejaVuSans-6c" d="M 603 4863 
L 1178 4863 
L 1178 0 
L 603 0 
L 603 4863 
z
" transform="scale(0.015625)"/>
       <path id="DejaVuSans-6f" d="M 1959 3097 
Q 1497 3097 1228 2736 
Q 959 2375 959 1747 
Q 959 1119 1226 758 
Q 1494 397 1959 397 
Q 2419 397 2687 759 
Q 2956 1122 2956 1747 
Q 2956 2369 2687 2733 
Q 2419 3097 1959 3097 
z
M 1959 3584 
Q 2709 3584 3137 3096 
Q 3566 2609 3566 1747 
Q 3566 888 3137 398 
Q 2709 -91 1959 -91 
Q 1206 -91 779 398 
Q 353 888 353 1747 
Q 353 2609 779 3096 
Q 1206 3584 1959 3584 
z
" transform="scale(0.015625)"/>
       <path id="DejaVuSans-67" d="M 2906 1791 
Q 2906 2416 2648 2759 
Q 2391 3103 1925 3103 
Q 1463 3103 1205 2759 
Q 947 2416 947 1791 
Q 947 1169 1205 825 
Q 1463 481 1925 481 
Q 2391 481 2648 825 
Q 2906 1169 2906 1791 
z
M 3481 434 
Q 3481 -459 3084 -895 
Q 2688 -1331 1869 -1331 
Q 1566 -1331 1297 -1286 
Q 1028 -1241 775 -1147 
L 775 -588 
Q 1028 -725 1275 -790 
Q 1522 -856 1778 -856 
Q 2344 -856 2625 -561 
Q 2906 -266 2906 331 
L 2906 616 
Q 2728 306 2450 153 
Q 2172 0 1784 0 
Q 1141 0 747 490 
Q 353 981 353 1791 
Q 353 2603 747 3093 
Q 1141 3584 1784 3584 
Q 2172 3584 2450 3431 
Q 2728 3278 2906 2969 
L 2906 3500 
L 3481 3500 
L 3481 434 
z
" transform="scale(0.015625)"/>
       <path id="DejaVuSans-31" d="M 794 531 
L 1825 531 
L 1825 4091 
L 703 3866 
L 703 4441 
L 1819 4666 
L 2450 4666 
L 2450 531 
L 3481 531 
L 3481 0 
L 794 0 
L 794 531 
z
" transform="scale(0.015625)"/>
       <path id="DejaVuSans-20" transform="scale(0.015625)"/>
       <path id="DejaVuSans-66" d="M 2375 4863 
L 2375 4384 
L 1825 4384 
Q 1516 4384 1395 4259 
Q 1275 4134 1275 3809 
L 1275 3500 
L 2222 3500 
L 2222 3053 
L 1275 3053 
L 1275 0 
L 697 0 
L 697 3053 
L 147 3053 
L 147 3500 
L 697 3500 
L 697 3744 
Q 697 4328 969 4595 
Q 1241 4863 1831 4863 
L 2375 4863 
z
" transform="scale(0.015625)"/>
       <path id="DejaVuSans-44" d="M 1259 4147 
L 1259 519 
L 2022 519 
Q 2988 519 3436 956 
Q 3884 1394 3884 2338 
Q 3884 3275 3436 3711 
Q 2988 4147 2022 4147 
L 1259 4147 
z
M 628 4666 
L 1925 4666 
Q 3281 4666 3915 4102 
Q 4550 3538 4550 2338 
Q 4550 1131 3912 565 
Q 3275 0 1925 0 
L 628 0 
L 628 4666 
z
" transform="scale(0.015625)"/>
      </defs>
      <use xlink:href="#DejaVuSans-6c"/>
      <use xlink:href="#DejaVuSans-6f" x="27.783203"/>
      <use xlink:href="#DejaVuSans-67" x="88.964844"/>
      <use xlink:href="#DejaVuSans-31" x="152.441406"/>
      <use xlink:href="#DejaVuSans-30" x="216.064453"/>
      <use xlink:href="#DejaVuSans-20" x="279.6875"/>
      <use xlink:href="#DejaVuSans-6f" x="311.474609"/>
      <use xlink:href="#DejaVuSans-66" x="372.65625"/>
      <use xlink:href="#DejaVuSans-20" x="407.861328"/>
      <use xlink:href="#DejaVuSans-44" x="439.648438"/>
      <use xlink:href="#DejaVuSans-66" x="516.650391"/>
     </g>
    </g>
   </g>
   <g id="matplotlib.axis_2">
    <g id="ytick_1">
     <g id="line2d_9">
      <path d="M 0 293.76 
L 460.8 293.76 
" clip-path="url(#p71ce706753)" style="fill: none; stroke: #b0b0b0; stroke-width: 0.8; stroke-linecap: square"/>
     </g>
     <g id="line2d_10">
      <defs>
       <path id="m3d6787e778" d="M 0 0 
L -3.5 0 
" style="stroke: #000000; stroke-width: 0.8"/>
      </defs>
      <g>
       <use xlink:href="#m3d6787e778" x="0" y="293.76" style="stroke: #000000; stroke-width: 0.8"/>
      </g>
     </g>
    </g>
    <g id="ytick_2">
     <g id="line2d_11">
      <path d="M 0 236.274059 
L 460.8 236.274059 
" clip-path="url(#p71ce706753)" style="fill: none; stroke: #b0b0b0; stroke-width: 0.8; stroke-linecap: square"/>
     </g>
     <g id="line2d_12">
      <g>
       <use xlink:href="#m3d6787e778" x="0" y="236.274059" style="stroke: #000000; stroke-width: 0.8"/>
      </g>
     </g>
    </g>
    <g id="ytick_3">
     <g id="line2d_13">
      <path d="M 0 178.788119 
L 460.8 178.788119 
" clip-path="url(#p71ce706753)" style="fill: none; stroke: #b0b0b0; stroke-width: 0.8; stroke-linecap: square"/>
     </g>
     <g id="line2d_14">
      <g>
       <use xlink:href="#m3d6787e778" x="0" y="178.788119" style="stroke: #000000; stroke-width: 0.8"/>
      </g>
     </g>
    </g>
    <g id="ytick_4">
     <g id="line2d_15">
      <path d="M 0 121.302178 
L 460.8 121.302178 
" clip-path="url(#p71ce706753)" style="fill: none; stroke: #b0b0b0; stroke-width: 0.8; stroke-linecap: square"/>
     </g>
     <g id="line2d_16">
      <g>
       <use xlink:href="#m3d6787e778" x="0" y="121.302178" style="stroke: #000000; stroke-width: 0.8"/>
      </g>
     </g>
    </g>
    <g id="ytick_5">
     <g id="line2d_17">
      <path d="M 0 63.816238 
L 460.8 63.816238 
" clip-path="url(#p71ce706753)" style="fill: none; stroke: #b0b0b0; stroke-width: 0.8; stroke-linecap: square"/>
     </g>
     <g id="line2d_18">
      <g>
       <use xlink:href="#m3d6787e778" x="0" y="63.816238" style="stroke: #000000; stroke-width: 0.8"/>
      </g>
     </g>
    </g>
    <g id="ytick_6">
     <g id="line2d_19">
      <path d="M 0 6.330297 
L 460.8 6.330297 
" clip-path="url(#p71ce706753)" style="fill: none; stroke: #b0b0b0; stroke-width: 0.8; stroke-linecap: square"/>
     </g>
     <g id="line2d_20">
      <g>
       <use xlink:href="#m3d6787e778" x="0" y="6.330297" style="stroke: #000000; stroke-width: 0.8"/>
      </g>
     </g>
    </g>
   </g>
   <g id="line2d_21">
    <path d="M 184.212951 293.76 
L 184.212951 289.927604 
L 196.458389 289.927604 
L 196.458389 286.095208 
L 199.923916 286.095208 
L 199.923916 282.262812 
L 207.907615 282.262812 
L 207.907615 278.430416 
L 212.123276 278.430416 
L 212.123276 274.59802 
L 212.941224 274.59802 
L 212.941224 270.765624 
L 213.80691 270.765624 
L 213.80691 266.933228 
L 214.24777 266.933228 
L 214.271854 259.268436 
L 214.441117 259.268436 
L 214.538431 247.771248 
L 214.602577 247.771248 
L 214.602577 243.938851 
L 215.431053 243.938851 
L 215.431053 240.106455 
L 215.943243 240.106455 
L 215.943243 236.274059 
L 216.087691 236.274059 
L 216.196489 228.609267 
L 216.866015 228.609267 
L 216.895592 220.944475 
L 217.250695 220.944475 
L 217.250695 217.112079 
L 217.862811 217.112079 
L 217.862811 213.279683 
L 218.190316 213.279683 
L 218.190316 209.447287 
L 218.335893 209.447287 
L 218.335893 205.614891 
L 219.095484 205.614891 
L 219.095484 201.782495 
L 219.278357 201.782495 
L 219.368925 194.117703 
L 219.689415 194.117703 
L 219.689415 190.285307 
L 219.871666 190.285307 
L 219.871666 186.452911 
L 220.692602 186.452911 
L 220.692602 182.620515 
L 220.920002 182.620515 
L 220.920002 178.788119 
L 221.415502 178.788119 
L 221.415502 174.955723 
L 222.721012 174.955723 
L 222.721012 171.123327 
L 223.46482 171.123327 
L 223.46482 167.290931 
L 224.322524 167.290931 
L 224.322524 163.458535 
L 225.070927 163.458535 
L 225.070927 159.626139 
L 226.893021 159.626139 
L 226.893021 155.793743 
L 227.600616 155.793743 
L 227.600616 148.12895 
L 228.210912 148.12895 
L 228.210912 144.296554 
L 229.81733 144.296554 
L 229.81733 140.464158 
L 230.10901 140.464158 
L 230.10901 136.631762 
L 230.355269 136.631762 
L 230.355269 132.799366 
L 230.852782 132.799366 
L 230.852782 128.96697 
L 231.078286 128.96697 
L 231.078286 125.134574 
L 235.454393 125.134574 
L 235.454393 121.302178 
L 235.839149 121.302178 
L 235.839149 117.469782 
L 236.327972 117.469782 
L 236.327972 113.637386 
L 236.541457 113.637386 
L 236.541457 109.80499 
L 237.918987 109.80499 
L 237.918987 105.972594 
L 239.342634 105.972594 
L 239.402114 98.307802 
L 239.606889 98.307802 
L 239.606889 94.475406 
L 240.822298 94.475406 
L 240.822298 90.64301 
L 242.010355 90.64301 
L 242.091759 79.145822 
L 242.180902 79.145822 
L 242.180902 75.313426 
L 242.797265 75.313426 
L 242.797265 71.48103 
L 243.445237 71.48103 
L 243.445237 67.648634 
L 243.605974 67.648634 
L 243.695513 52.31905 
L 243.736658 52.31905 
L 243.736658 48.486653 
L 245.190338 48.486653 
L 245.190338 44.654257 
L 246.283058 44.654257 
L 246.283058 40.821861 
L 247.330125 40.821861 
L 247.330125 36.989465 
L 247.944221 36.989465 
L 247.944221 33.157069 
L 249.741634 33.157069 
L 249.741634 29.324673 
L 249.956845 29.324673 
L 250.048393 21.659881 
L 252.35776 21.659881 
L 252.35776 17.827485 
L 260.977908 17.827485 
L 260.977908 13.995089 
L 275.741934 13.995089 
L 275.741934 10.162693 
L 280.142286 10.162693 
L 280.142286 6.330297 
L 280.142286 6.330297 
L 460.8 6.330297 
L 460.8 6.330297 
" clip-path="url(#p71ce706753)" style="fill: none; stroke: #ff0000; stroke-width: 3; stroke-linecap: square"/>
   </g>
   <g id="line2d_22">
    <path d="M 226.715112 293.76 
L 226.715112 289.927604 
L 228.77687 289.927604 
L 228.77687 286.095208 
L 231.782794 286.095208 
L 231.830459 278.430416 
L 236.114914 278.430416 
L 236.152908 270.765624 
L 236.413337 270.765624 
L 236.413337 266.933228 
L 237.776093 266.933228 
L 237.776093 263.100832 
L 238.204016 263.100832 
L 238.204016 259.268436 
L 238.997275 259.268436 
L 239.056355 251.603644 
L 239.492413 251.603644 
L 239.492413 247.771248 
L 240.031046 247.771248 
L 240.031046 243.938851 
L 240.739369 243.938851 
L 240.739369 240.106455 
L 241.031788 240.106455 
L 241.031788 236.274059 
L 241.864919 236.274059 
L 241.864919 232.441663 
L 243.171617 232.441663 
L 243.171617 228.609267 
L 244.552378 228.609267 
L 244.552378 224.776871 
L 244.990642 224.776871 
L 244.990642 220.944475 
L 245.121464 220.944475 
L 245.121464 217.112079 
L 247.319344 217.112079 
L 247.319344 213.279683 
L 247.682339 213.279683 
L 247.769817 205.614891 
L 248.374866 205.614891 
L 248.374866 201.782495 
L 248.617337 201.782495 
L 248.676567 194.117703 
L 249.23313 194.117703 
L 249.23313 190.285307 
L 250.193688 190.285307 
L 250.259705 182.620515 
L 250.336903 182.620515 
L 250.336903 178.788119 
L 250.590426 178.788119 
L 250.590426 174.955723 
L 250.704271 174.955723 
L 250.704271 171.123327 
L 250.826154 171.123327 
L 250.898937 163.458535 
L 250.997497 163.458535 
L 250.997497 159.626139 
L 251.317185 159.626139 
L 251.317185 155.793743 
L 251.660644 155.793743 
L 251.660644 151.961347 
L 251.9981 151.961347 
L 251.9981 148.12895 
L 252.111221 148.12895 
L 252.111221 144.296554 
L 252.246672 144.296554 
L 252.352857 128.96697 
L 252.471779 128.96697 
L 252.471779 125.134574 
L 252.688041 125.134574 
L 252.798442 113.637386 
L 253.16542 113.637386 
L 253.228959 105.972594 
L 253.340328 105.972594 
L 253.450364 94.475406 
L 253.708037 94.475406 
L 253.708037 90.64301 
L 254.263381 90.64301 
L 254.299873 82.978218 
L 254.441767 82.978218 
L 254.441767 79.145822 
L 255.727577 79.145822 
L 255.727577 75.313426 
L 255.967318 75.313426 
L 255.967318 71.48103 
L 256.285186 71.48103 
L 256.285186 67.648634 
L 256.431991 67.648634 
L 256.431991 63.816238 
L 303.595759 63.816238 
L 303.595759 6.330297 
L 303.595759 6.330297 
L 460.8 6.330297 
L 460.8 6.330297 
" clip-path="url(#p71ce706753)" style="fill: none; stroke: #00bfbf; stroke-width: 1.5; stroke-linecap: square"/>
   </g>
   <g id="line2d_23">
    <path d="M 225.98989 293.76 
L 225.98989 289.927604 
L 226.715112 289.927604 
L 226.715112 286.095208 
L 227.254443 286.095208 
L 227.254443 282.262812 
L 227.99888 282.262812 
L 227.99888 278.430416 
L 228.210912 278.430416 
L 228.210912 274.59802 
L 229.361282 274.59802 
L 229.361282 270.765624 
L 229.64841 270.765624 
L 229.64841 266.933228 
L 231.371803 266.933228 
L 231.371803 263.100832 
L 231.782794 263.100832 
L 231.782794 259.268436 
L 232.687753 259.268436 
L 232.766702 251.603644 
L 233.580991 251.603644 
L 233.580991 247.771248 
L 234.854087 247.771248 
L 234.91454 240.106455 
L 235.50754 240.106455 
L 235.50754 236.274059 
L 237.778634 236.274059 
L 237.778634 232.441663 
L 238.579826 232.441663 
L 238.579826 228.609267 
L 238.852173 228.609267 
L 238.852173 224.776871 
L 240.608499 224.776871 
L 240.608499 220.944475 
L 241.484162 220.944475 
L 241.515734 213.279683 
L 244.552378 213.279683 
L 244.552378 209.447287 
L 244.858987 209.447287 
L 244.858987 205.614891 
L 245.121464 205.614891 
L 245.121464 201.782495 
L 245.422697 201.782495 
L 245.422697 197.950099 
L 245.753323 197.950099 
L 245.753323 194.117703 
L 246.046025 194.117703 
L 246.046025 190.285307 
L 246.409083 190.285307 
L 246.409083 186.452911 
L 246.834412 186.452911 
L 246.834412 182.620515 
L 247.048698 182.620515 
L 247.048698 178.788119 
L 247.682339 178.788119 
L 247.682339 174.955723 
L 248.050921 174.955723 
L 248.087635 163.458535 
L 248.617337 163.458535 
L 248.617337 159.626139 
L 249.027651 159.626139 
L 249.027651 155.793743 
L 249.265248 155.793743 
L 249.265248 151.961347 
L 249.408264 151.961347 
L 249.408264 148.12895 
L 249.741634 148.12895 
L 249.741634 144.296554 
L 249.956845 144.296554 
L 250.048393 132.799366 
L 250.107083 132.799366 
L 250.193688 125.134574 
L 250.357115 125.134574 
L 250.357115 121.302178 
L 250.476407 121.302178 
L 250.476407 117.469782 
L 250.898937 117.469782 
L 250.898937 113.637386 
L 251.063623 113.637386 
L 251.063623 109.80499 
L 251.197757 109.80499 
L 251.197757 105.972594 
L 251.317185 105.972594 
L 251.419988 94.475406 
L 251.710229 94.475406 
L 251.710229 90.64301 
L 251.857681 90.64301 
L 251.875169 82.978218 
L 253.265497 82.978218 
L 253.339516 67.648634 
L 254.263381 67.648634 
L 254.263381 63.816238 
L 296.300488 63.816238 
L 296.300488 36.989465 
L 302.467589 36.989465 
L 302.467589 25.492277 
L 303.595385 25.492277 
L 303.595759 6.330297 
L 303.595759 6.330297 
L 460.8 6.330297 
L 460.8 6.330297 
" clip-path="url(#p71ce706753)" style="fill: none; stroke: #bf00bf; stroke-width: 1.5; stroke-linecap: square"/>
   </g>
   <g id="line2d_24">
    <path d="M 213.529679 293.76 
L 213.529679 289.927604 
L 220.197614 289.927604 
L 220.197614 286.095208 
L 220.809981 286.095208 
L 220.865194 274.59802 
L 221.506454 274.59802 
L 221.506454 270.765624 
L 221.891861 270.765624 
L 221.891861 266.933228 
L 222.721012 266.933228 
L 222.721012 263.100832 
L 223.606039 263.100832 
L 223.606039 259.268436 
L 225.534023 259.268436 
L 225.534023 255.43604 
L 226.567518 255.43604 
L 226.646731 247.771248 
L 227.166983 247.771248 
L 227.166983 243.938851 
L 227.543138 243.938851 
L 227.543138 240.106455 
L 227.99888 240.106455 
L 227.99888 236.274059 
L 228.210912 236.274059 
L 228.210912 232.441663 
L 229.015916 232.441663 
L 229.015916 228.609267 
L 229.14477 228.609267 
L 229.14477 224.776871 
L 229.873309 224.776871 
L 229.873309 220.944475 
L 230.156404 220.944475 
L 230.255989 213.279683 
L 230.46794 213.279683 
L 230.46794 209.447287 
L 232.199414 209.447287 
L 232.199414 205.614891 
L 232.429867 205.614891 
L 232.429867 201.782495 
L 234.502602 201.782495 
L 234.502602 197.950099 
L 235.881259 197.950099 
L 235.881259 194.117703 
L 237.231328 194.117703 
L 237.231328 190.285307 
L 239.402114 190.285307 
L 239.402114 186.452911 
L 240.158308 186.452911 
L 240.158308 182.620515 
L 241.295338 182.620515 
L 241.391591 174.955723 
L 241.478434 174.955723 
L 241.478434 171.123327 
L 241.679509 171.123327 
L 241.679509 167.290931 
L 241.879371 167.290931 
L 241.879371 163.458535 
L 243.09446 163.458535 
L 243.09446 159.626139 
L 243.539553 159.626139 
L 243.539553 155.793743 
L 243.783286 155.793743 
L 243.827399 148.12895 
L 244.228548 148.12895 
L 244.228548 144.296554 
L 244.806014 144.296554 
L 244.806014 140.464158 
L 245.259901 140.464158 
L 245.259901 136.631762 
L 245.595504 136.631762 
L 245.671506 128.96697 
L 246.462154 128.96697 
L 246.462154 125.134574 
L 246.96238 125.134574 
L 247.048698 113.637386 
L 247.330125 113.637386 
L 247.330125 109.80499 
L 247.682339 109.80499 
L 247.682339 105.972594 
L 248.621511 105.972594 
L 248.621511 102.140198 
L 248.959604 102.140198 
L 248.959604 98.307802 
L 249.222277 98.307802 
L 249.222277 94.475406 
L 249.741634 94.475406 
L 249.741634 90.64301 
L 249.910193 90.64301 
L 249.956845 82.978218 
L 250.048393 82.978218 
L 250.107083 75.313426 
L 250.193688 75.313426 
L 250.193688 71.48103 
L 250.644819 71.48103 
L 250.695956 63.816238 
L 251.118343 63.816238 
L 251.118343 59.983842 
L 251.667549 59.983842 
L 251.667549 56.151446 
L 251.890376 56.151446 
L 251.890376 52.31905 
L 254.263381 52.31905 
L 254.263381 48.486653 
L 256.567135 48.486653 
L 256.568837 40.821861 
L 261.770284 40.821861 
L 261.770284 36.989465 
L 262.141826 36.989465 
L 262.141826 33.157069 
L 263.980569 33.157069 
L 263.980569 29.324673 
L 265.974907 29.324673 
L 265.974907 25.492277 
L 270.025094 25.492277 
L 270.025094 21.659881 
L 270.438671 21.659881 
L 270.438671 17.827485 
L 272.381473 17.827485 
L 272.381473 13.995089 
L 275.986343 13.995089 
L 275.986343 10.162693 
L 281.260827 10.162693 
L 281.260827 6.330297 
L 281.260827 6.330297 
L 460.8 6.330297 
L 460.8 6.330297 
" clip-path="url(#p71ce706753)" style="fill: none; stroke: #000000; stroke-width: 1.5; stroke-linecap: square"/>
   </g>
   <g id="line2d_25">
    <path d="M 196.459487 293.76 
L 196.459487 289.927604 
L 207.907847 289.927604 
L 207.907847 286.095208 
L 208.052645 286.095208 
L 208.052645 282.262812 
L 213.769624 282.262812 
L 213.769624 278.430416 
L 214.461306 278.430416 
L 214.461306 274.59802 
L 214.659893 274.59802 
L 214.659893 270.765624 
L 214.897742 270.765624 
L 214.897742 266.933228 
L 215.964278 266.933228 
L 215.964278 263.100832 
L 216.847401 263.100832 
L 216.847401 259.268436 
L 217.144584 259.268436 
L 217.144584 255.43604 
L 217.97542 255.43604 
L 218.025493 247.771248 
L 218.292424 247.771248 
L 218.292424 243.938851 
L 218.515168 243.938851 
L 218.515168 240.106455 
L 218.899163 240.106455 
L 218.899163 236.274059 
L 219.280943 236.274059 
L 219.280943 232.441663 
L 220.197614 232.441663 
L 220.197614 228.609267 
L 222.156264 228.609267 
L 222.156264 224.776871 
L 222.548427 224.776871 
L 222.548427 220.944475 
L 222.721012 220.944475 
L 222.721012 217.112079 
L 223.636568 217.112079 
L 223.636568 213.279683 
L 224.865787 213.279683 
L 224.865787 209.447287 
L 225.071896 209.447287 
L 225.071896 205.614891 
L 225.534023 205.614891 
L 225.534023 201.782495 
L 225.992879 201.782495 
L 225.992879 197.950099 
L 226.565901 197.950099 
L 226.646731 186.452911 
L 226.893021 186.452911 
L 226.893021 182.620515 
L 227.193558 182.620515 
L 227.193558 178.788119 
L 227.600825 178.788119 
L 227.60166 171.123327 
L 227.99888 171.123327 
L 227.99888 167.290931 
L 228.210912 167.290931 
L 228.210912 163.458535 
L 229.14477 163.458535 
L 229.14477 159.626139 
L 230.255989 159.626139 
L 230.255989 155.793743 
L 232.346628 155.793743 
L 232.346628 151.961347 
L 234.091091 151.961347 
L 234.091091 148.12895 
L 234.729433 148.12895 
L 234.729433 144.296554 
L 236.541457 144.296554 
L 236.541457 140.464158 
L 238.653342 140.464158 
L 238.653342 136.631762 
L 239.402114 136.631762 
L 239.402114 132.799366 
L 239.703433 132.799366 
L 239.703433 128.96697 
L 240.220653 128.96697 
L 240.220653 125.134574 
L 240.927339 125.134574 
L 240.927339 121.302178 
L 241.879371 121.302178 
L 241.879371 117.469782 
L 243.055488 117.469782 
L 243.09446 105.972594 
L 243.284215 105.972594 
L 243.284215 102.140198 
L 243.539553 102.140198 
L 243.605974 94.475406 
L 243.783286 94.475406 
L 243.881751 82.978218 
L 244.32128 82.978218 
L 244.32128 79.145822 
L 244.911944 79.145822 
L 244.911944 75.313426 
L 245.13746 75.313426 
L 245.13746 71.48103 
L 245.278602 71.48103 
L 245.292939 63.816238 
L 246.310255 63.816238 
L 246.310255 59.983842 
L 247.048698 59.983842 
L 247.048698 56.151446 
L 247.313683 56.151446 
L 247.330125 48.486653 
L 249.153647 48.486653 
L 249.153647 44.654257 
L 249.741634 44.654257 
L 249.741634 40.821861 
L 249.956845 40.821861 
L 250.048393 33.157069 
L 250.107083 33.157069 
L 250.107083 29.324673 
L 250.792485 29.324673 
L 250.792485 25.492277 
L 252.368049 25.492277 
L 252.368049 21.659881 
L 254.263381 21.659881 
L 254.263381 17.827485 
L 260.994587 17.827485 
L 260.994587 13.995089 
L 275.805246 13.995089 
L 275.805246 10.162693 
L 280.16393 10.162693 
L 280.16393 6.330297 
L 280.16393 6.330297 
L 460.8 6.330297 
L 460.8 6.330297 
" clip-path="url(#p71ce706753)" style="fill: none; stroke: #00bfbf; stroke-width: 1.5; stroke-linecap: square"/>
   </g>
   <g id="patch_3">
    <path d="M 0 293.76 
L 0 3.456 
" style="fill: none; stroke: #000000; stroke-width: 0.8; stroke-linejoin: miter; stroke-linecap: square"/>
   </g>
   <g id="patch_4">
    <path d="M 460.8 293.76 
L 460.8 3.456 
" style="fill: none; stroke: #000000; stroke-width: 0.8; stroke-linejoin: miter; stroke-linecap: square"/>
   </g>
   <g id="patch_5">
    <path d="M 0 293.76 
L 460.8 293.76 
" style="fill: none; stroke: #000000; stroke-width: 0.8; stroke-linejoin: miter; stroke-linecap: square"/>
   </g>
   <g id="patch_6">
    <path d="M 0 3.456 
L 460.8 3.456 
" style="fill: none; stroke: #000000; stroke-width: 0.8; stroke-linejoin: miter; stroke-linecap: square"/>
   </g>
   <g id="text_6">
    <!-- {f20-f24}, 5-D -->
    <g transform="translate(305.884 287.95392) scale(0.2 -0.2)">
     <defs>
      <path id="DejaVuSans-7b" d="M 3272 -594 
L 3272 -1044 
L 3078 -1044 
Q 2300 -1044 2036 -812 
Q 1772 -581 1772 109 
L 1772 856 
Q 1772 1328 1603 1509 
Q 1434 1691 991 1691 
L 800 1691 
L 800 2138 
L 991 2138 
Q 1438 2138 1605 2317 
Q 1772 2497 1772 2963 
L 1772 3713 
Q 1772 4403 2036 4633 
Q 2300 4863 3078 4863 
L 3272 4863 
L 3272 4416 
L 3059 4416 
Q 2619 4416 2484 4278 
Q 2350 4141 2350 3700 
L 2350 2925 
Q 2350 2434 2208 2212 
Q 2066 1991 1722 1913 
Q 2069 1828 2209 1606 
Q 2350 1384 2350 897 
L 2350 122 
Q 2350 -319 2484 -456 
Q 2619 -594 3059 -594 
L 3272 -594 
z
" transform="scale(0.015625)"/>
      <path id="DejaVuSans-32" d="M 1228 531 
L 3431 531 
L 3431 0 
L 469 0 
L 469 531 
Q 828 903 1448 1529 
Q 2069 2156 2228 2338 
Q 2531 2678 2651 2914 
Q 2772 3150 2772 3378 
Q 2772 3750 2511 3984 
Q 2250 4219 1831 4219 
Q 1534 4219 1204 4116 
Q 875 4013 500 3803 
L 500 4441 
Q 881 4594 1212 4672 
Q 1544 4750 1819 4750 
Q 2544 4750 2975 4387 
Q 3406 4025 3406 3419 
Q 3406 3131 3298 2873 
Q 3191 2616 2906 2266 
Q 2828 2175 2409 1742 
Q 1991 1309 1228 531 
z
" transform="scale(0.015625)"/>
      <path id="DejaVuSans-7d" d="M 800 -594 
L 1019 -594 
Q 1456 -594 1589 -459 
Q 1722 -325 1722 122 
L 1722 897 
Q 1722 1384 1862 1606 
Q 2003 1828 2350 1913 
Q 2003 1991 1862 2212 
Q 1722 2434 1722 2925 
L 1722 3700 
Q 1722 4144 1589 4280 
Q 1456 4416 1019 4416 
L 800 4416 
L 800 4863 
L 997 4863 
Q 1775 4863 2036 4633 
Q 2297 4403 2297 3713 
L 2297 2963 
Q 2297 2497 2465 2317 
Q 2634 2138 3078 2138 
L 3272 2138 
L 3272 1691 
L 3078 1691 
Q 2634 1691 2465 1509 
Q 2297 1328 2297 856 
L 2297 109 
Q 2297 -581 2036 -812 
Q 1775 -1044 997 -1044 
L 800 -1044 
L 800 -594 
z
" transform="scale(0.015625)"/>
      <path id="DejaVuSans-2c" d="M 750 794 
L 1409 794 
L 1409 256 
L 897 -744 
L 494 -744 
L 750 256 
L 750 794 
z
" transform="scale(0.015625)"/>
      <path id="DejaVuSans-35" d="M 691 4666 
L 3169 4666 
L 3169 4134 
L 1269 4134 
L 1269 2991 
Q 1406 3038 1543 3061 
Q 1681 3084 1819 3084 
Q 2600 3084 3056 2656 
Q 3513 2228 3513 1497 
Q 3513 744 3044 326 
Q 2575 -91 1722 -91 
Q 1428 -91 1123 -41 
Q 819 9 494 109 
L 494 744 
Q 775 591 1075 516 
Q 1375 441 1709 441 
Q 2250 441 2565 725 
Q 2881 1009 2881 1497 
Q 2881 1984 2565 2268 
Q 2250 2553 1709 2553 
Q 1456 2553 1204 2497 
Q 953 2441 691 2322 
L 691 4666 
z
" transform="scale(0.015625)"/>
     </defs>
     <use xlink:href="#DejaVuSans-7b"/>
     <use xlink:href="#DejaVuSans-66" x="63.623047"/>
     <use xlink:href="#DejaVuSans-32" x="98.828125"/>
     <use xlink:href="#DejaVuSans-30" x="162.451172"/>
     <use xlink:href="#DejaVuSans-2d" x="226.074219"/>
     <use xlink:href="#DejaVuSans-66" x="262.158203"/>
     <use xlink:href="#DejaVuSans-32" x="297.363281"/>
     <use xlink:href="#DejaVuSans-34" x="360.986328"/>
     <use xlink:href="#DejaVuSans-7d" x="424.609375"/>
     <use xlink:href="#DejaVuSans-2c" x="488.232422"/>
     <use xlink:href="#DejaVuSans-20" x="520.019531"/>
     <use xlink:href="#DejaVuSans-35" x="551.806641"/>
     <use xlink:href="#DejaVuSans-2d" x="615.429688"/>
     <use xlink:href="#DejaVuSans-44" x="651.513672"/>
    </g>
   </g>
   <g id="text_7">
    <!-- v2.6.3 -->
    <g style="fill: #808080" transform="translate(214.71875 288.777272) scale(0.1 -0.1)">
     <defs>
      <path id="DejaVuSans-76" d="M 191 3500 
L 800 3500 
L 1894 563 
L 2988 3500 
L 3597 3500 
L 2284 0 
L 1503 0 
L 191 3500 
z
" transform="scale(0.015625)"/>
      <path id="DejaVuSans-2e" d="M 684 794 
L 1344 794 
L 1344 0 
L 684 0 
L 684 794 
z
" transform="scale(0.015625)"/>
      <path id="DejaVuSans-36" d="M 2113 2584 
Q 1688 2584 1439 2293 
Q 1191 2003 1191 1497 
Q 1191 994 1439 701 
Q 1688 409 2113 409 
Q 2538 409 2786 701 
Q 3034 994 3034 1497 
Q 3034 2003 2786 2293 
Q 2538 2584 2113 2584 
z
M 3366 4563 
L 3366 3988 
Q 3128 4100 2886 4159 
Q 2644 4219 2406 4219 
Q 1781 4219 1451 3797 
Q 1122 3375 1075 2522 
Q 1259 2794 1537 2939 
Q 1816 3084 2150 3084 
Q 2853 3084 3261 2657 
Q 3669 2231 3669 1497 
Q 3669 778 3244 343 
Q 2819 -91 2113 -91 
Q 1303 -91 875 529 
Q 447 1150 447 2328 
Q 447 3434 972 4092 
Q 1497 4750 2381 4750 
Q 2619 4750 2861 4703 
Q 3103 4656 3366 4563 
z
" transform="scale(0.015625)"/>
      <path id="DejaVuSans-33" d="M 2597 2516 
Q 3050 2419 3304 2112 
Q 3559 1806 3559 1356 
Q 3559 666 3084 287 
Q 2609 -91 1734 -91 
Q 1441 -91 1130 -33 
Q 819 25 488 141 
L 488 750 
Q 750 597 1062 519 
Q 1375 441 1716 441 
Q 2309 441 2620 675 
Q 2931 909 2931 1356 
Q 2931 1769 2642 2001 
Q 2353 2234 1838 2234 
L 1294 2234 
L 1294 2753 
L 1863 2753 
Q 2328 2753 2575 2939 
Q 2822 3125 2822 3475 
Q 2822 3834 2567 4026 
Q 2313 4219 1838 4219 
Q 1578 4219 1281 4162 
Q 984 4106 628 3988 
L 628 4550 
Q 988 4650 1302 4700 
Q 1616 4750 1894 4750 
Q 2613 4750 3031 4423 
Q 3450 4097 3450 3541 
Q 3450 3153 3228 2886 
Q 3006 2619 2597 2516 
z
" transform="scale(0.015625)"/>
     </defs>
     <use xlink:href="#DejaVuSans-76"/>
     <use xlink:href="#DejaVuSans-32" x="59.179688"/>
     <use xlink:href="#DejaVuSans-2e" x="122.802734"/>
     <use xlink:href="#DejaVuSans-36" x="154.589844"/>
     <use xlink:href="#DejaVuSans-2e" x="218.212891"/>
     <use xlink:href="#DejaVuSans-33" x="250"/>
    </g>
   </g>
  </g>
 </g>
 <defs>
  <clipPath id="p71ce706753">
   <rect x="0" y="3.456" width="460.8" height="290.304"/>
  </clipPath>
 </defs>
</svg>
