<?xml version="1.0" encoding="utf-8" standalone="no"?>
<!DOCTYPE svg PUBLIC "-//W3C//DTD SVG 1.1//EN"
  "http://www.w3.org/Graphics/SVG/1.1/DTD/svg11.dtd">
<svg xmlns:xlink="http://www.w3.org/1999/xlink" width="460.8pt" height="345.6pt" viewBox="0 0 460.8 345.6" xmlns="http://www.w3.org/2000/svg" version="1.1">
 <metadata>
  <rdf:RDF xmlns:dc="http://purl.org/dc/elements/1.1/" xmlns:cc="http://creativecommons.org/ns#" xmlns:rdf="http://www.w3.org/1999/02/22-rdf-syntax-ns#">
   <cc:Work>
    <dc:type rdf:resource="http://purl.org/dc/dcmitype/StillImage"/>
    <dc:date>2024-01-25T18:23:06.501786</dc:date>
    <dc:format>image/svg+xml</dc:format>
    <dc:creator>
     <cc:Agent>
      <dc:title>Matplotlib v3.8.2, https://matplotlib.org/</dc:title>
     </cc:Agent>
    </dc:creator>
   </cc:Work>
  </rdf:RDF>
 </metadata>
 <defs>
  <style type="text/css">*{stroke-linejoin: round; stroke-linecap: butt}</style>
 </defs>
 <g id="figure_1">
  <g id="patch_1">
   <path d="M 0 345.6 
L 460.8 345.6 
L 460.8 0 
L 0 0 
z
" style="fill: #ffffff"/>
  </g>
  <g id="axes_1">
   <g id="patch_2">
    <path d="M 0 293.76 
L 460.8 293.76 
L 460.8 3.456 
L 0 3.456 
z
" style="fill: #ffffff"/>
   </g>
   <g id="matplotlib.axis_1">
    <g id="xtick_1">
     <g id="line2d_1">
      <path d="M 102.674388 293.76 
L 102.674388 3.456 
" clip-path="url(#p60284fba4e)" style="fill: none; stroke: #b0b0b0; stroke-width: 0.8; stroke-linecap: square"/>
     </g>
     <g id="line2d_2">
      <defs>
       <path id="m2a08c64a20" d="M 0 0 
L 0 3.5 
" style="stroke: #000000; stroke-width: 0.8"/>
      </defs>
      <g>
       <use xlink:href="#m2a08c64a20" x="102.674388" y="293.76" style="stroke: #000000; stroke-width: 0.8"/>
      </g>
     </g>
     <g id="text_1">
      <!-- -4 -->
      <g transform="translate(92.704075 315.956875) scale(0.2 -0.2)">
       <defs>
        <path id="DejaVuSans-2d" d="M 313 2009 
L 1997 2009 
L 1997 1497 
L 313 1497 
L 313 2009 
z
" transform="scale(0.015625)"/>
        <path id="DejaVuSans-34" d="M 2419 4116 
L 825 1625 
L 2419 1625 
L 2419 4116 
z
M 2253 4666 
L 3047 4666 
L 3047 1625 
L 3713 1625 
L 3713 1100 
L 3047 1100 
L 3047 0 
L 2419 0 
L 2419 1100 
L 313 1100 
L 313 1709 
L 2253 4666 
z
" transform="scale(0.015625)"/>
       </defs>
       <use xlink:href="#DejaVuSans-2d"/>
       <use xlink:href="#DejaVuSans-34" x="36.083984"/>
      </g>
     </g>
    </g>
    <g id="xtick_2">
     <g id="line2d_3">
      <path d="M 205.459819 293.76 
L 205.459819 3.456 
" clip-path="url(#p60284fba4e)" style="fill: none; stroke: #b0b0b0; stroke-width: 0.8; stroke-linecap: square"/>
     </g>
     <g id="line2d_4">
      <g>
       <use xlink:href="#m2a08c64a20" x="205.459819" y="293.76" style="stroke: #000000; stroke-width: 0.8"/>
      </g>
     </g>
     <g id="text_2">
      <!-- 0 -->
      <g transform="translate(199.097319 315.956875) scale(0.2 -0.2)">
       <defs>
        <path id="DejaVuSans-30" d="M 2034 4250 
Q 1547 4250 1301 3770 
Q 1056 3291 1056 2328 
Q 1056 1369 1301 889 
Q 1547 409 2034 409 
Q 2525 409 2770 889 
Q 3016 1369 3016 2328 
Q 3016 3291 2770 3770 
Q 2525 4250 2034 4250 
z
M 2034 4750 
Q 2819 4750 3233 4129 
Q 3647 3509 3647 2328 
Q 3647 1150 3233 529 
Q 2819 -91 2034 -91 
Q 1250 -91 836 529 
Q 422 1150 422 2328 
Q 422 3509 836 4129 
Q 1250 4750 2034 4750 
z
" transform="scale(0.015625)"/>
       </defs>
       <use xlink:href="#DejaVuSans-30"/>
      </g>
     </g>
    </g>
    <g id="xtick_3">
     <g id="line2d_5">
      <path d="M 308.24525 293.76 
L 308.24525 3.456 
" clip-path="url(#p60284fba4e)" style="fill: none; stroke: #b0b0b0; stroke-width: 0.8; stroke-linecap: square"/>
     </g>
     <g id="line2d_6">
      <g>
       <use xlink:href="#m2a08c64a20" x="308.24525" y="293.76" style="stroke: #000000; stroke-width: 0.8"/>
      </g>
     </g>
     <g id="text_3">
      <!-- 4 -->
      <g transform="translate(301.88275 315.956875) scale(0.2 -0.2)">
       <use xlink:href="#DejaVuSans-34"/>
      </g>
     </g>
    </g>
    <g id="xtick_4">
     <g id="line2d_7">
      <path d="M 411.030681 293.76 
L 411.030681 3.456 
" clip-path="url(#p60284fba4e)" style="fill: none; stroke: #b0b0b0; stroke-width: 0.8; stroke-linecap: square"/>
     </g>
     <g id="line2d_8">
      <g>
       <use xlink:href="#m2a08c64a20" x="411.030681" y="293.76" style="stroke: #000000; stroke-width: 0.8"/>
      </g>
     </g>
     <g id="text_4">
      <!-- 8 -->
      <g transform="translate(404.668181 315.956875) scale(0.2 -0.2)">
       <defs>
        <path id="DejaVuSans-38" d="M 2034 2216 
Q 1584 2216 1326 1975 
Q 1069 1734 1069 1313 
Q 1069 891 1326 650 
Q 1584 409 2034 409 
Q 2484 409 2743 651 
Q 3003 894 3003 1313 
Q 3003 1734 2745 1975 
Q 2488 2216 2034 2216 
z
M 1403 2484 
Q 997 2584 770 2862 
Q 544 3141 544 3541 
Q 544 4100 942 4425 
Q 1341 4750 2034 4750 
Q 2731 4750 3128 4425 
Q 3525 4100 3525 3541 
Q 3525 3141 3298 2862 
Q 3072 2584 2669 2484 
Q 3125 2378 3379 2068 
Q 3634 1759 3634 1313 
Q 3634 634 3220 271 
Q 2806 -91 2034 -91 
Q 1263 -91 848 271 
Q 434 634 434 1313 
Q 434 1759 690 2068 
Q 947 2378 1403 2484 
z
M 1172 3481 
Q 1172 3119 1398 2916 
Q 1625 2713 2034 2713 
Q 2441 2713 2670 2916 
Q 2900 3119 2900 3481 
Q 2900 3844 2670 4047 
Q 2441 4250 2034 4250 
Q 1625 4250 1398 4047 
Q 1172 3844 1172 3481 
z
" transform="scale(0.015625)"/>
       </defs>
       <use xlink:href="#DejaVuSans-38"/>
      </g>
     </g>
    </g>
    <g id="text_5">
     <!-- log10 of Df -->
     <g transform="translate(175.214063 339.313125) scale(0.2 -0.2)">
      <defs>
       <path id="DejaVuSans-6c" d="M 603 4863 
L 1178 4863 
L 1178 0 
L 603 0 
L 603 4863 
z
" transform="scale(0.015625)"/>
       <path id="DejaVuSans-6f" d="M 1959 3097 
Q 1497 3097 1228 2736 
Q 959 2375 959 1747 
Q 959 1119 1226 758 
Q 1494 397 1959 397 
Q 2419 397 2687 759 
Q 2956 1122 2956 1747 
Q 2956 2369 2687 2733 
Q 2419 3097 1959 3097 
z
M 1959 3584 
Q 2709 3584 3137 3096 
Q 3566 2609 3566 1747 
Q 3566 888 3137 398 
Q 2709 -91 1959 -91 
Q 1206 -91 779 398 
Q 353 888 353 1747 
Q 353 2609 779 3096 
Q 1206 3584 1959 3584 
z
" transform="scale(0.015625)"/>
       <path id="DejaVuSans-67" d="M 2906 1791 
Q 2906 2416 2648 2759 
Q 2391 3103 1925 3103 
Q 1463 3103 1205 2759 
Q 947 2416 947 1791 
Q 947 1169 1205 825 
Q 1463 481 1925 481 
Q 2391 481 2648 825 
Q 2906 1169 2906 1791 
z
M 3481 434 
Q 3481 -459 3084 -895 
Q 2688 -1331 1869 -1331 
Q 1566 -1331 1297 -1286 
Q 1028 -1241 775 -1147 
L 775 -588 
Q 1028 -725 1275 -790 
Q 1522 -856 1778 -856 
Q 2344 -856 2625 -561 
Q 2906 -266 2906 331 
L 2906 616 
Q 2728 306 2450 153 
Q 2172 0 1784 0 
Q 1141 0 747 490 
Q 353 981 353 1791 
Q 353 2603 747 3093 
Q 1141 3584 1784 3584 
Q 2172 3584 2450 3431 
Q 2728 3278 2906 2969 
L 2906 3500 
L 3481 3500 
L 3481 434 
z
" transform="scale(0.015625)"/>
       <path id="DejaVuSans-31" d="M 794 531 
L 1825 531 
L 1825 4091 
L 703 3866 
L 703 4441 
L 1819 4666 
L 2450 4666 
L 2450 531 
L 3481 531 
L 3481 0 
L 794 0 
L 794 531 
z
" transform="scale(0.015625)"/>
       <path id="DejaVuSans-20" transform="scale(0.015625)"/>
       <path id="DejaVuSans-66" d="M 2375 4863 
L 2375 4384 
L 1825 4384 
Q 1516 4384 1395 4259 
Q 1275 4134 1275 3809 
L 1275 3500 
L 2222 3500 
L 2222 3053 
L 1275 3053 
L 1275 0 
L 697 0 
L 697 3053 
L 147 3053 
L 147 3500 
L 697 3500 
L 697 3744 
Q 697 4328 969 4595 
Q 1241 4863 1831 4863 
L 2375 4863 
z
" transform="scale(0.015625)"/>
       <path id="DejaVuSans-44" d="M 1259 4147 
L 1259 519 
L 2022 519 
Q 2988 519 3436 956 
Q 3884 1394 3884 2338 
Q 3884 3275 3436 3711 
Q 2988 4147 2022 4147 
L 1259 4147 
z
M 628 4666 
L 1925 4666 
Q 3281 4666 3915 4102 
Q 4550 3538 4550 2338 
Q 4550 1131 3912 565 
Q 3275 0 1925 0 
L 628 0 
L 628 4666 
z
" transform="scale(0.015625)"/>
      </defs>
      <use xlink:href="#DejaVuSans-6c"/>
      <use xlink:href="#DejaVuSans-6f" x="27.783203"/>
      <use xlink:href="#DejaVuSans-67" x="88.964844"/>
      <use xlink:href="#DejaVuSans-31" x="152.441406"/>
      <use xlink:href="#DejaVuSans-30" x="216.064453"/>
      <use xlink:href="#DejaVuSans-20" x="279.6875"/>
      <use xlink:href="#DejaVuSans-6f" x="311.474609"/>
      <use xlink:href="#DejaVuSans-66" x="372.65625"/>
      <use xlink:href="#DejaVuSans-20" x="407.861328"/>
      <use xlink:href="#DejaVuSans-44" x="439.648438"/>
      <use xlink:href="#DejaVuSans-66" x="516.650391"/>
     </g>
    </g>
   </g>
   <g id="matplotlib.axis_2">
    <g id="ytick_1">
     <g id="line2d_9">
      <path d="M 0 293.76 
L 460.8 293.76 
" clip-path="url(#p60284fba4e)" style="fill: none; stroke: #b0b0b0; stroke-width: 0.8; stroke-linecap: square"/>
     </g>
     <g id="line2d_10">
      <defs>
       <path id="m61be944fba" d="M 0 0 
L -3.5 0 
" style="stroke: #000000; stroke-width: 0.8"/>
      </defs>
      <g>
       <use xlink:href="#m61be944fba" x="0" y="293.76" style="stroke: #000000; stroke-width: 0.8"/>
      </g>
     </g>
    </g>
    <g id="ytick_2">
     <g id="line2d_11">
      <path d="M 0 236.274059 
L 460.8 236.274059 
" clip-path="url(#p60284fba4e)" style="fill: none; stroke: #b0b0b0; stroke-width: 0.8; stroke-linecap: square"/>
     </g>
     <g id="line2d_12">
      <g>
       <use xlink:href="#m61be944fba" x="0" y="236.274059" style="stroke: #000000; stroke-width: 0.8"/>
      </g>
     </g>
    </g>
    <g id="ytick_3">
     <g id="line2d_13">
      <path d="M 0 178.788119 
L 460.8 178.788119 
" clip-path="url(#p60284fba4e)" style="fill: none; stroke: #b0b0b0; stroke-width: 0.8; stroke-linecap: square"/>
     </g>
     <g id="line2d_14">
      <g>
       <use xlink:href="#m61be944fba" x="0" y="178.788119" style="stroke: #000000; stroke-width: 0.8"/>
      </g>
     </g>
    </g>
    <g id="ytick_4">
     <g id="line2d_15">
      <path d="M 0 121.302178 
L 460.8 121.302178 
" clip-path="url(#p60284fba4e)" style="fill: none; stroke: #b0b0b0; stroke-width: 0.8; stroke-linecap: square"/>
     </g>
     <g id="line2d_16">
      <g>
       <use xlink:href="#m61be944fba" x="0" y="121.302178" style="stroke: #000000; stroke-width: 0.8"/>
      </g>
     </g>
    </g>
    <g id="ytick_5">
     <g id="line2d_17">
      <path d="M 0 63.816238 
L 460.8 63.816238 
" clip-path="url(#p60284fba4e)" style="fill: none; stroke: #b0b0b0; stroke-width: 0.8; stroke-linecap: square"/>
     </g>
     <g id="line2d_18">
      <g>
       <use xlink:href="#m61be944fba" x="0" y="63.816238" style="stroke: #000000; stroke-width: 0.8"/>
      </g>
     </g>
    </g>
    <g id="ytick_6">
     <g id="line2d_19">
      <path d="M 0 6.330297 
L 460.8 6.330297 
" clip-path="url(#p60284fba4e)" style="fill: none; stroke: #b0b0b0; stroke-width: 0.8; stroke-linecap: square"/>
     </g>
     <g id="line2d_20">
      <g>
       <use xlink:href="#m61be944fba" x="0" y="6.330297" style="stroke: #000000; stroke-width: 0.8"/>
      </g>
     </g>
    </g>
   </g>
   <g id="line2d_21">
    <path d="M 188.608902 293.76 
L 188.608902 288.969505 
L 189.730354 288.969505 
L 189.730354 284.17901 
L 193.773725 284.17901 
L 193.773725 279.388515 
L 196.082688 279.388515 
L 196.082688 274.59802 
L 196.79626 274.59802 
L 196.79626 269.807525 
L 197.154284 269.807525 
L 197.154284 265.01703 
L 197.60598 265.01703 
L 197.60598 260.226535 
L 197.631256 260.226535 
L 197.631256 255.43604 
L 197.862858 255.43604 
L 197.862858 250.645545 
L 199.928496 250.645545 
L 199.928496 245.85505 
L 202.364582 245.85505 
L 202.364582 241.064554 
L 202.561743 241.064554 
L 202.561743 236.274059 
L 203.158869 236.274059 
L 203.158869 231.483564 
L 203.451792 231.483564 
L 203.451792 226.693069 
L 204.680194 226.693069 
L 204.680194 221.902574 
L 207.569918 221.902574 
L 207.569918 217.112079 
L 208.131516 217.112079 
L 208.131516 212.321584 
L 210.963483 212.321584 
L 210.963483 207.531089 
L 212.817071 207.531089 
L 212.817071 202.740594 
L 212.912068 202.740594 
L 212.912068 197.950099 
L 216.506476 197.950099 
L 216.506476 193.159604 
L 217.236119 193.159604 
L 217.236119 188.369109 
L 218.105949 188.369109 
L 218.105949 183.578614 
L 218.772685 183.578614 
L 218.772685 178.788119 
L 221.00048 178.788119 
L 221.00048 173.997624 
L 222.344753 173.997624 
L 222.344753 169.207129 
L 222.587533 169.207129 
L 222.587533 164.416634 
L 222.933615 164.416634 
L 222.933615 159.626139 
L 224.062299 159.626139 
L 224.062299 154.835644 
L 231.254694 154.835644 
L 231.254694 150.045149 
L 231.903784 150.045149 
L 231.903784 145.254653 
L 232.593146 145.254653 
L 232.593146 140.464158 
L 232.877845 140.464158 
L 232.877845 135.673663 
L 233.982967 135.673663 
L 233.982967 130.883168 
L 234.469796 130.883168 
L 234.469796 126.092673 
L 234.601708 126.092673 
L 234.601708 121.302178 
L 234.659795 121.302178 
L 234.659795 116.511683 
L 235.284268 116.511683 
L 235.284268 111.721188 
L 240.555198 111.721188 
L 240.555198 106.930693 
L 240.908337 106.930693 
L 240.908337 102.140198 
L 241.689647 102.140198 
L 241.689647 97.349703 
L 241.81948 97.349703 
L 241.81948 92.559208 
L 241.81948 92.559208 
L 241.81948 87.768713 
L 242.342232 87.768713 
L 242.342232 82.978218 
L 248.355838 82.978218 
L 248.355838 78.187723 
L 248.485473 78.187723 
L 248.485473 73.397228 
L 248.793212 73.397228 
L 248.793212 68.606733 
L 249.828588 68.606733 
L 249.828588 63.816238 
L 250.003565 63.816238 
L 250.003565 59.025743 
L 250.240977 59.025743 
L 250.240977 54.235248 
L 250.887529 54.235248 
L 250.887529 49.444752 
L 255.530714 49.444752 
L 255.530714 44.654257 
L 255.633624 44.654257 
L 255.633624 39.863762 
L 257.842314 39.863762 
L 257.842314 35.073267 
L 258.671237 35.073267 
L 258.671237 30.282772 
L 261.466513 30.282772 
L 261.466513 25.492277 
L 261.494148 25.492277 
L 261.494148 20.701782 
L 273.427862 20.701782 
L 273.427862 15.911287 
L 281.280868 15.911287 
L 281.280868 11.120792 
L 282.520494 11.120792 
L 282.520494 6.330297 
L 282.520494 6.330297 
L 282.520494 6.330297 
L 460.8 6.330297 
" clip-path="url(#p60284fba4e)" style="fill: none; stroke: #ff0000; stroke-width: 3; stroke-linecap: square"/>
   </g>
   <g id="line2d_22">
    <path d="M 234.182512 293.76 
L 234.182512 288.969505 
L 241.81948 288.969505 
L 241.81948 284.17901 
L 241.81948 284.17901 
L 241.81948 279.388515 
L 241.81948 279.388515 
L 241.81948 274.59802 
L 241.81948 274.59802 
L 241.81948 269.807525 
L 241.81948 269.807525 
L 241.81948 265.01703 
L 241.81948 265.01703 
L 241.81948 260.226535 
L 241.81948 260.226535 
L 241.81948 255.43604 
L 241.81948 255.43604 
L 241.81948 250.645545 
L 241.81948 250.645545 
L 241.81948 245.85505 
L 241.81948 245.85505 
L 241.81948 241.064554 
L 241.81948 241.064554 
L 241.81948 236.274059 
L 241.81948 236.274059 
L 241.81948 231.483564 
L 241.81948 231.483564 
L 241.81948 226.693069 
L 241.81948 226.693069 
L 241.81948 221.902574 
L 241.81948 221.902574 
L 241.81948 217.112079 
L 244.373529 217.112079 
L 244.373529 212.321584 
L 248.198597 212.321584 
L 248.198597 207.531089 
L 252.338347 207.531089 
L 252.338347 202.740594 
L 256.395112 202.740594 
L 256.395112 197.950099 
L 256.66742 197.950099 
L 256.66742 193.159604 
L 258.368809 193.159604 
L 258.368809 188.369109 
L 261.753662 188.369109 
L 261.753662 183.578614 
L 261.943847 183.578614 
L 261.943847 178.788119 
L 263.151179 178.788119 
L 263.151179 173.997624 
L 271.78814 173.997624 
L 271.78814 169.207129 
L 273.990554 169.207129 
L 273.990554 164.416634 
L 274.459197 164.416634 
L 274.459197 159.626139 
L 275.388196 159.626139 
L 275.388196 154.835644 
L 275.409797 154.835644 
L 275.409797 150.045149 
L 279.082527 150.045149 
L 279.082527 145.254653 
L 284.818799 145.254653 
L 284.818799 140.464158 
L 285.030917 140.464158 
L 285.030917 135.673663 
L 285.706709 135.673663 
L 285.706709 130.883168 
L 292.390195 130.883168 
L 292.390195 126.092673 
L 293.754506 126.092673 
L 293.754506 121.302178 
L 306.215512 121.302178 
L 306.215512 116.511683 
L 309.775615 116.511683 
L 309.775615 111.721188 
L 312.380971 111.721188 
L 312.380971 106.930693 
L 313.412422 106.930693 
L 313.412422 102.140198 
L 314.963013 102.140198 
L 314.963013 97.349703 
L 315.210645 97.349703 
L 315.210645 92.559208 
L 317.284005 92.559208 
L 317.284005 87.768713 
L 318.117742 87.768713 
L 318.117742 82.978218 
L 318.838976 82.978218 
L 318.838976 78.187723 
L 322.279253 78.187723 
L 322.279253 73.397228 
L 324.192831 73.397228 
L 324.192831 68.606733 
L 324.766228 68.606733 
L 324.766228 63.816238 
L 327.283258 63.816238 
L 327.283258 59.025743 
L 328.415198 59.025743 
L 328.415198 54.235248 
L 328.741289 54.235248 
L 328.741289 49.444752 
L 328.907215 49.444752 
L 328.907215 44.654257 
L 333.100507 44.654257 
L 333.100507 39.863762 
L 336.522312 39.863762 
L 336.522312 35.073267 
L 339.288645 35.073267 
L 339.288645 30.282772 
L 348.000103 30.282772 
L 348.000103 25.492277 
L 350.354555 25.492277 
L 350.354555 20.701782 
L 353.127595 20.701782 
L 353.127595 15.911287 
L 353.533207 15.911287 
L 353.533207 11.120792 
L 353.605734 11.120792 
L 353.605734 6.330297 
L 353.605734 6.330297 
L 353.605734 6.330297 
L 460.8 6.330297 
" clip-path="url(#p60284fba4e)" style="fill: none; stroke: #00bfbf; stroke-width: 1.5; stroke-linecap: square"/>
   </g>
   <g id="line2d_23">
    <path d="M 225.350792 293.76 
L 225.350792 288.969505 
L 226.850041 288.969505 
L 226.850041 284.17901 
L 239.451936 284.17901 
L 239.451936 279.388515 
L 241.101935 279.388515 
L 241.101935 274.59802 
L 241.81948 274.59802 
L 241.81948 269.807525 
L 241.81948 269.807525 
L 241.81948 265.01703 
L 241.81948 265.01703 
L 241.81948 260.226535 
L 241.81948 260.226535 
L 241.81948 255.43604 
L 241.81948 255.43604 
L 241.81948 250.645545 
L 241.81948 250.645545 
L 241.81948 245.85505 
L 241.81948 245.85505 
L 241.81948 241.064554 
L 241.81948 241.064554 
L 241.81948 236.274059 
L 241.81948 236.274059 
L 241.81948 231.483564 
L 241.81948 231.483564 
L 241.81948 226.693069 
L 241.81948 226.693069 
L 241.81948 221.902574 
L 241.81948 221.902574 
L 241.81948 217.112079 
L 241.81948 217.112079 
L 241.81948 212.321584 
L 245.300448 212.321584 
L 245.300448 207.531089 
L 248.297187 207.531089 
L 248.297187 202.740594 
L 248.39291 202.740594 
L 248.39291 197.950099 
L 252.338347 197.950099 
L 252.338347 193.159604 
L 252.600556 193.159604 
L 252.600556 188.369109 
L 255.530714 188.369109 
L 255.530714 183.578614 
L 258.86389 183.578614 
L 258.86389 178.788119 
L 263.151179 178.788119 
L 263.151179 173.997624 
L 269.210432 173.997624 
L 269.210432 169.207129 
L 270.114369 169.207129 
L 270.114369 164.416634 
L 271.138338 164.416634 
L 271.138338 159.626139 
L 271.572905 159.626139 
L 271.572905 154.835644 
L 272.768667 154.835644 
L 272.768667 150.045149 
L 274.676261 150.045149 
L 274.676261 145.254653 
L 275.388196 145.254653 
L 275.388196 140.464158 
L 284.43618 140.464158 
L 284.43618 135.673663 
L 285.706709 135.673663 
L 285.706709 130.883168 
L 290.63415 130.883168 
L 290.63415 126.092673 
L 291.648281 126.092673 
L 291.648281 121.302178 
L 305.55073 121.302178 
L 305.55073 116.511683 
L 306.036329 116.511683 
L 306.036329 111.721188 
L 309.775615 111.721188 
L 309.775615 106.930693 
L 311.847944 106.930693 
L 311.847944 102.140198 
L 312.122989 102.140198 
L 312.122989 97.349703 
L 313.739515 97.349703 
L 313.739515 92.559208 
L 314.828773 92.559208 
L 314.828773 87.768713 
L 316.754745 87.768713 
L 316.754745 82.978218 
L 318.534061 82.978218 
L 318.534061 78.187723 
L 318.979352 78.187723 
L 318.979352 73.397228 
L 321.099932 73.397228 
L 321.099932 68.606733 
L 321.428892 68.606733 
L 321.428892 63.816238 
L 323.716921 63.816238 
L 323.716921 59.025743 
L 324.192831 59.025743 
L 324.192831 54.235248 
L 324.766228 54.235248 
L 324.766228 49.444752 
L 328.741289 49.444752 
L 328.741289 44.654257 
L 329.60333 44.654257 
L 329.60333 39.863762 
L 336.161609 39.863762 
L 336.161609 35.073267 
L 336.305895 35.073267 
L 336.305895 30.282772 
L 345.871631 30.282772 
L 345.871631 25.492277 
L 350.354555 25.492277 
L 350.354555 20.701782 
L 352.596063 20.701782 
L 352.596063 15.911287 
L 353.148616 15.911287 
L 353.148616 11.120792 
L 353.413034 11.120792 
L 353.413034 6.330297 
L 353.413034 6.330297 
L 353.413034 6.330297 
L 460.8 6.330297 
" clip-path="url(#p60284fba4e)" style="fill: none; stroke: #bf00bf; stroke-width: 1.5; stroke-linecap: square"/>
   </g>
   <g id="line2d_24">
    <path d="M 209.619509 293.76 
L 209.619509 288.969505 
L 224.840166 288.969505 
L 224.840166 284.17901 
L 225.981728 284.17901 
L 225.981728 279.388515 
L 229.749847 279.388515 
L 229.749847 274.59802 
L 232.593146 274.59802 
L 232.593146 269.807525 
L 232.877845 269.807525 
L 232.877845 265.01703 
L 234.659795 265.01703 
L 234.659795 260.226535 
L 234.794691 260.226535 
L 234.794691 255.43604 
L 234.916687 255.43604 
L 234.916687 250.645545 
L 234.936312 250.645545 
L 234.936312 245.85505 
L 236.363497 245.85505 
L 236.363497 241.064554 
L 236.447654 241.064554 
L 236.447654 236.274059 
L 237.551943 236.274059 
L 237.551943 231.483564 
L 239.726171 231.483564 
L 239.726171 226.693069 
L 239.994846 226.693069 
L 239.994846 221.902574 
L 240.012436 221.902574 
L 240.012436 217.112079 
L 240.412595 217.112079 
L 240.412595 212.321584 
L 240.908337 212.321584 
L 240.908337 207.531089 
L 241.689647 207.531089 
L 241.689647 202.740594 
L 241.81948 202.740594 
L 241.81948 197.950099 
L 241.81948 197.950099 
L 241.81948 193.159604 
L 241.944603 193.159604 
L 241.944603 188.369109 
L 244.47225 188.369109 
L 244.47225 183.578614 
L 245.532653 183.578614 
L 245.532653 178.788119 
L 246.245742 178.788119 
L 246.245742 173.997624 
L 255.530714 173.997624 
L 255.530714 169.207129 
L 257.569724 169.207129 
L 257.569724 164.416634 
L 258.144357 164.416634 
L 258.144357 159.626139 
L 261.914453 159.626139 
L 261.914453 154.835644 
L 263.154116 154.835644 
L 263.154116 150.045149 
L 264.743419 150.045149 
L 264.743419 145.254653 
L 266.119949 145.254653 
L 266.119949 140.464158 
L 267.307911 140.464158 
L 267.307911 135.673663 
L 268.054277 135.673663 
L 268.054277 130.883168 
L 271.803258 130.883168 
L 271.803258 126.092673 
L 273.702548 126.092673 
L 273.702548 121.302178 
L 278.385124 121.302178 
L 278.385124 116.511683 
L 278.74171 116.511683 
L 278.74171 111.721188 
L 279.607152 111.721188 
L 279.607152 106.930693 
L 282.023812 106.930693 
L 282.023812 102.140198 
L 282.302252 102.140198 
L 282.302252 97.349703 
L 284.726409 97.349703 
L 284.726409 92.559208 
L 286.241325 92.559208 
L 286.241325 87.768713 
L 286.2415 87.768713 
L 286.2415 82.978218 
L 287.907726 82.978218 
L 287.907726 78.187723 
L 289.454222 78.187723 
L 289.454222 73.397228 
L 291.881771 73.397228 
L 291.881771 68.606733 
L 293.605665 68.606733 
L 293.605665 63.816238 
L 294.675431 63.816238 
L 294.675431 59.025743 
L 295.083037 59.025743 
L 295.083037 54.235248 
L 295.213968 54.235248 
L 295.213968 49.444752 
L 302.423002 49.444752 
L 302.423002 44.654257 
L 308.488728 44.654257 
L 308.488728 39.863762 
L 320.366947 39.863762 
L 320.366947 35.073267 
L 320.936444 35.073267 
L 320.936444 30.282772 
L 321.165678 30.282772 
L 321.165678 25.492277 
L 321.703283 25.492277 
L 321.703283 20.701782 
L 322.582888 20.701782 
L 322.582888 15.911287 
L 323.179823 15.911287 
L 323.179823 11.120792 
L 331.260984 11.120792 
L 331.260984 6.330297 
L 331.260984 6.330297 
L 331.260984 6.330297 
L 460.8 6.330297 
" clip-path="url(#p60284fba4e)" style="fill: none; stroke: #000000; stroke-width: 1.5; stroke-linecap: square"/>
   </g>
   <g id="line2d_25">
    <path d="M 201.325621 293.76 
L 201.325621 288.969505 
L 201.470713 288.969505 
L 201.470713 284.17901 
L 201.526081 284.17901 
L 201.526081 279.388515 
L 203.188536 279.388515 
L 203.188536 274.59802 
L 204.140433 274.59802 
L 204.140433 269.807525 
L 204.96312 269.807525 
L 204.96312 265.01703 
L 206.161314 265.01703 
L 206.161314 260.226535 
L 206.561041 260.226535 
L 206.561041 255.43604 
L 207.962288 255.43604 
L 207.962288 250.645545 
L 208.964289 250.645545 
L 208.964289 245.85505 
L 209.512719 245.85505 
L 209.512719 241.064554 
L 209.658061 241.064554 
L 209.658061 236.274059 
L 210.201598 236.274059 
L 210.201598 231.483564 
L 213.073058 231.483564 
L 213.073058 226.693069 
L 214.192436 226.693069 
L 214.192436 221.902574 
L 215.9248 221.902574 
L 215.9248 217.112079 
L 219.5602 217.112079 
L 219.5602 212.321584 
L 222.393831 212.321584 
L 222.393831 207.531089 
L 222.771319 207.531089 
L 222.771319 202.740594 
L 222.854197 202.740594 
L 222.854197 197.950099 
L 224.062299 197.950099 
L 224.062299 193.159604 
L 225.981728 193.159604 
L 225.981728 188.369109 
L 231.712329 188.369109 
L 231.712329 183.578614 
L 232.593146 183.578614 
L 232.593146 178.788119 
L 232.877845 178.788119 
L 232.877845 173.997624 
L 234.163516 173.997624 
L 234.163516 169.207129 
L 234.659795 169.207129 
L 234.659795 164.416634 
L 235.284268 164.416634 
L 235.284268 159.626139 
L 239.447296 159.626139 
L 239.447296 154.835644 
L 240.621822 154.835644 
L 240.621822 150.045149 
L 240.908337 150.045149 
L 240.908337 145.254653 
L 241.689647 145.254653 
L 241.689647 140.464158 
L 241.81948 140.464158 
L 241.81948 135.673663 
L 241.81948 135.673663 
L 241.81948 130.883168 
L 241.944603 130.883168 
L 241.944603 126.092673 
L 242.32426 126.092673 
L 242.32426 121.302178 
L 242.342749 121.302178 
L 242.342749 116.511683 
L 243.411386 116.511683 
L 243.411386 111.721188 
L 244.01138 111.721188 
L 244.01138 106.930693 
L 245.765457 106.930693 
L 245.765457 102.140198 
L 247.447617 102.140198 
L 247.447617 97.349703 
L 248.451301 97.349703 
L 248.451301 92.559208 
L 248.698569 92.559208 
L 248.698569 87.768713 
L 250.29897 87.768713 
L 250.29897 82.978218 
L 250.887529 82.978218 
L 250.887529 78.187723 
L 251.138526 78.187723 
L 251.138526 73.397228 
L 255.530714 73.397228 
L 255.530714 68.606733 
L 256.603628 68.606733 
L 256.603628 63.816238 
L 258.144357 63.816238 
L 258.144357 59.025743 
L 259.44772 59.025743 
L 259.44772 54.235248 
L 261.364645 54.235248 
L 261.364645 49.444752 
L 261.535894 49.444752 
L 261.535894 44.654257 
L 263.154116 44.654257 
L 263.154116 39.863762 
L 264.545603 39.863762 
L 264.545603 35.073267 
L 265.199441 35.073267 
L 265.199441 30.282772 
L 265.25725 30.282772 
L 265.25725 25.492277 
L 267.307911 25.492277 
L 267.307911 20.701782 
L 274.229916 20.701782 
L 274.229916 15.911287 
L 282.287484 15.911287 
L 282.287484 11.120792 
L 282.545566 11.120792 
L 282.545566 6.330297 
L 282.545566 6.330297 
L 282.545566 6.330297 
L 460.8 6.330297 
" clip-path="url(#p60284fba4e)" style="fill: none; stroke: #00bfbf; stroke-width: 1.5; stroke-linecap: square"/>
   </g>
   <g id="patch_3">
    <path d="M 0 293.76 
L 0 3.456 
" style="fill: none; stroke: #000000; stroke-width: 0.8; stroke-linejoin: miter; stroke-linecap: square"/>
   </g>
   <g id="patch_4">
    <path d="M 460.8 293.76 
L 460.8 3.456 
" style="fill: none; stroke: #000000; stroke-width: 0.8; stroke-linejoin: miter; stroke-linecap: square"/>
   </g>
   <g id="patch_5">
    <path d="M 0 293.76 
L 460.8 293.76 
" style="fill: none; stroke: #000000; stroke-width: 0.8; stroke-linejoin: miter; stroke-linecap: square"/>
   </g>
   <g id="patch_6">
    <path d="M 0 3.456 
L 460.8 3.456 
" style="fill: none; stroke: #000000; stroke-width: 0.8; stroke-linejoin: miter; stroke-linecap: square"/>
   </g>
   <g id="text_6">
    <!-- {f6-f9}, 5-D -->
    <g transform="translate(331.334 287.95392) scale(0.2 -0.2)">
     <defs>
      <path id="DejaVuSans-7b" d="M 3272 -594 
L 3272 -1044 
L 3078 -1044 
Q 2300 -1044 2036 -812 
Q 1772 -581 1772 109 
L 1772 856 
Q 1772 1328 1603 1509 
Q 1434 1691 991 1691 
L 800 1691 
L 800 2138 
L 991 2138 
Q 1438 2138 1605 2317 
Q 1772 2497 1772 2963 
L 1772 3713 
Q 1772 4403 2036 4633 
Q 2300 4863 3078 4863 
L 3272 4863 
L 3272 4416 
L 3059 4416 
Q 2619 4416 2484 4278 
Q 2350 4141 2350 3700 
L 2350 2925 
Q 2350 2434 2208 2212 
Q 2066 1991 1722 1913 
Q 2069 1828 2209 1606 
Q 2350 1384 2350 897 
L 2350 122 
Q 2350 -319 2484 -456 
Q 2619 -594 3059 -594 
L 3272 -594 
z
" transform="scale(0.015625)"/>
      <path id="DejaVuSans-36" d="M 2113 2584 
Q 1688 2584 1439 2293 
Q 1191 2003 1191 1497 
Q 1191 994 1439 701 
Q 1688 409 2113 409 
Q 2538 409 2786 701 
Q 3034 994 3034 1497 
Q 3034 2003 2786 2293 
Q 2538 2584 2113 2584 
z
M 3366 4563 
L 3366 3988 
Q 3128 4100 2886 4159 
Q 2644 4219 2406 4219 
Q 1781 4219 1451 3797 
Q 1122 3375 1075 2522 
Q 1259 2794 1537 2939 
Q 1816 3084 2150 3084 
Q 2853 3084 3261 2657 
Q 3669 2231 3669 1497 
Q 3669 778 3244 343 
Q 2819 -91 2113 -91 
Q 1303 -91 875 529 
Q 447 1150 447 2328 
Q 447 3434 972 4092 
Q 1497 4750 2381 4750 
Q 2619 4750 2861 4703 
Q 3103 4656 3366 4563 
z
" transform="scale(0.015625)"/>
      <path id="DejaVuSans-39" d="M 703 97 
L 703 672 
Q 941 559 1184 500 
Q 1428 441 1663 441 
Q 2288 441 2617 861 
Q 2947 1281 2994 2138 
Q 2813 1869 2534 1725 
Q 2256 1581 1919 1581 
Q 1219 1581 811 2004 
Q 403 2428 403 3163 
Q 403 3881 828 4315 
Q 1253 4750 1959 4750 
Q 2769 4750 3195 4129 
Q 3622 3509 3622 2328 
Q 3622 1225 3098 567 
Q 2575 -91 1691 -91 
Q 1453 -91 1209 -44 
Q 966 3 703 97 
z
M 1959 2075 
Q 2384 2075 2632 2365 
Q 2881 2656 2881 3163 
Q 2881 3666 2632 3958 
Q 2384 4250 1959 4250 
Q 1534 4250 1286 3958 
Q 1038 3666 1038 3163 
Q 1038 2656 1286 2365 
Q 1534 2075 1959 2075 
z
" transform="scale(0.015625)"/>
      <path id="DejaVuSans-7d" d="M 800 -594 
L 1019 -594 
Q 1456 -594 1589 -459 
Q 1722 -325 1722 122 
L 1722 897 
Q 1722 1384 1862 1606 
Q 2003 1828 2350 1913 
Q 2003 1991 1862 2212 
Q 1722 2434 1722 2925 
L 1722 3700 
Q 1722 4144 1589 4280 
Q 1456 4416 1019 4416 
L 800 4416 
L 800 4863 
L 997 4863 
Q 1775 4863 2036 4633 
Q 2297 4403 2297 3713 
L 2297 2963 
Q 2297 2497 2465 2317 
Q 2634 2138 3078 2138 
L 3272 2138 
L 3272 1691 
L 3078 1691 
Q 2634 1691 2465 1509 
Q 2297 1328 2297 856 
L 2297 109 
Q 2297 -581 2036 -812 
Q 1775 -1044 997 -1044 
L 800 -1044 
L 800 -594 
z
" transform="scale(0.015625)"/>
      <path id="DejaVuSans-2c" d="M 750 794 
L 1409 794 
L 1409 256 
L 897 -744 
L 494 -744 
L 750 256 
L 750 794 
z
" transform="scale(0.015625)"/>
      <path id="DejaVuSans-35" d="M 691 4666 
L 3169 4666 
L 3169 4134 
L 1269 4134 
L 1269 2991 
Q 1406 3038 1543 3061 
Q 1681 3084 1819 3084 
Q 2600 3084 3056 2656 
Q 3513 2228 3513 1497 
Q 3513 744 3044 326 
Q 2575 -91 1722 -91 
Q 1428 -91 1123 -41 
Q 819 9 494 109 
L 494 744 
Q 775 591 1075 516 
Q 1375 441 1709 441 
Q 2250 441 2565 725 
Q 2881 1009 2881 1497 
Q 2881 1984 2565 2268 
Q 2250 2553 1709 2553 
Q 1456 2553 1204 2497 
Q 953 2441 691 2322 
L 691 4666 
z
" transform="scale(0.015625)"/>
     </defs>
     <use xlink:href="#DejaVuSans-7b"/>
     <use xlink:href="#DejaVuSans-66" x="63.623047"/>
     <use xlink:href="#DejaVuSans-36" x="98.828125"/>
     <use xlink:href="#DejaVuSans-2d" x="162.451172"/>
     <use xlink:href="#DejaVuSans-66" x="198.535156"/>
     <use xlink:href="#DejaVuSans-39" x="233.740234"/>
     <use xlink:href="#DejaVuSans-7d" x="297.363281"/>
     <use xlink:href="#DejaVuSans-2c" x="360.986328"/>
     <use xlink:href="#DejaVuSans-20" x="392.773438"/>
     <use xlink:href="#DejaVuSans-35" x="424.560547"/>
     <use xlink:href="#DejaVuSans-2d" x="488.183594"/>
     <use xlink:href="#DejaVuSans-44" x="524.267578"/>
    </g>
   </g>
   <g id="text_7">
    <!-- v2.6.3 -->
    <g style="fill: #808080" transform="translate(214.71875 288.777272) scale(0.1 -0.1)">
     <defs>
      <path id="DejaVuSans-76" d="M 191 3500 
L 800 3500 
L 1894 563 
L 2988 3500 
L 3597 3500 
L 2284 0 
L 1503 0 
L 191 3500 
z
" transform="scale(0.015625)"/>
      <path id="DejaVuSans-32" d="M 1228 531 
L 3431 531 
L 3431 0 
L 469 0 
L 469 531 
Q 828 903 1448 1529 
Q 2069 2156 2228 2338 
Q 2531 2678 2651 2914 
Q 2772 3150 2772 3378 
Q 2772 3750 2511 3984 
Q 2250 4219 1831 4219 
Q 1534 4219 1204 4116 
Q 875 4013 500 3803 
L 500 4441 
Q 881 4594 1212 4672 
Q 1544 4750 1819 4750 
Q 2544 4750 2975 4387 
Q 3406 4025 3406 3419 
Q 3406 3131 3298 2873 
Q 3191 2616 2906 2266 
Q 2828 2175 2409 1742 
Q 1991 1309 1228 531 
z
" transform="scale(0.015625)"/>
      <path id="DejaVuSans-2e" d="M 684 794 
L 1344 794 
L 1344 0 
L 684 0 
L 684 794 
z
" transform="scale(0.015625)"/>
      <path id="DejaVuSans-33" d="M 2597 2516 
Q 3050 2419 3304 2112 
Q 3559 1806 3559 1356 
Q 3559 666 3084 287 
Q 2609 -91 1734 -91 
Q 1441 -91 1130 -33 
Q 819 25 488 141 
L 488 750 
Q 750 597 1062 519 
Q 1375 441 1716 441 
Q 2309 441 2620 675 
Q 2931 909 2931 1356 
Q 2931 1769 2642 2001 
Q 2353 2234 1838 2234 
L 1294 2234 
L 1294 2753 
L 1863 2753 
Q 2328 2753 2575 2939 
Q 2822 3125 2822 3475 
Q 2822 3834 2567 4026 
Q 2313 4219 1838 4219 
Q 1578 4219 1281 4162 
Q 984 4106 628 3988 
L 628 4550 
Q 988 4650 1302 4700 
Q 1616 4750 1894 4750 
Q 2613 4750 3031 4423 
Q 3450 4097 3450 3541 
Q 3450 3153 3228 2886 
Q 3006 2619 2597 2516 
z
" transform="scale(0.015625)"/>
     </defs>
     <use xlink:href="#DejaVuSans-76"/>
     <use xlink:href="#DejaVuSans-32" x="59.179688"/>
     <use xlink:href="#DejaVuSans-2e" x="122.802734"/>
     <use xlink:href="#DejaVuSans-36" x="154.589844"/>
     <use xlink:href="#DejaVuSans-2e" x="218.212891"/>
     <use xlink:href="#DejaVuSans-33" x="250"/>
    </g>
   </g>
  </g>
 </g>
 <defs>
  <clipPath id="p60284fba4e">
   <rect x="0" y="3.456" width="460.8" height="290.304"/>
  </clipPath>
 </defs>
</svg>
