<?xml version="1.0" encoding="utf-8" standalone="no"?>
<!DOCTYPE svg PUBLIC "-//W3C//DTD SVG 1.1//EN"
  "http://www.w3.org/Graphics/SVG/1.1/DTD/svg11.dtd">
<svg xmlns:xlink="http://www.w3.org/1999/xlink" width="460.8pt" height="345.6pt" viewBox="0 0 460.8 345.6" xmlns="http://www.w3.org/2000/svg" version="1.1">
 <metadata>
  <rdf:RDF xmlns:dc="http://purl.org/dc/elements/1.1/" xmlns:cc="http://creativecommons.org/ns#" xmlns:rdf="http://www.w3.org/1999/02/22-rdf-syntax-ns#">
   <cc:Work>
    <dc:type rdf:resource="http://purl.org/dc/dcmitype/StillImage"/>
    <dc:date>2024-01-25T18:23:07.842539</dc:date>
    <dc:format>image/svg+xml</dc:format>
    <dc:creator>
     <cc:Agent>
      <dc:title>Matplotlib v3.8.2, https://matplotlib.org/</dc:title>
     </cc:Agent>
    </dc:creator>
   </cc:Work>
  </rdf:RDF>
 </metadata>
 <defs>
  <style type="text/css">*{stroke-linejoin: round; stroke-linecap: butt}</style>
 </defs>
 <g id="figure_1">
  <g id="patch_1">
   <path d="M 0 345.6 
L 460.8 345.6 
L 460.8 0 
L 0 0 
z
" style="fill: #ffffff"/>
  </g>
  <g id="axes_1">
   <g id="patch_2">
    <path d="M 0 293.76 
L 460.8 293.76 
L 460.8 3.456 
L 0 3.456 
z
" style="fill: #ffffff"/>
   </g>
   <g id="matplotlib.axis_1">
    <g id="xtick_1">
     <g id="line2d_1">
      <path d="M 102.674388 293.76 
L 102.674388 3.456 
" clip-path="url(#p8b968b6cc4)" style="fill: none; stroke: #b0b0b0; stroke-width: 0.8; stroke-linecap: square"/>
     </g>
     <g id="line2d_2">
      <defs>
       <path id="mdd2828b570" d="M 0 0 
L 0 3.5 
" style="stroke: #000000; stroke-width: 0.8"/>
      </defs>
      <g>
       <use xlink:href="#mdd2828b570" x="102.674388" y="293.76" style="stroke: #000000; stroke-width: 0.8"/>
      </g>
     </g>
     <g id="text_1">
      <!-- -4 -->
      <g transform="translate(92.704075 315.956875) scale(0.2 -0.2)">
       <defs>
        <path id="DejaVuSans-2d" d="M 313 2009 
L 1997 2009 
L 1997 1497 
L 313 1497 
L 313 2009 
z
" transform="scale(0.015625)"/>
        <path id="DejaVuSans-34" d="M 2419 4116 
L 825 1625 
L 2419 1625 
L 2419 4116 
z
M 2253 4666 
L 3047 4666 
L 3047 1625 
L 3713 1625 
L 3713 1100 
L 3047 1100 
L 3047 0 
L 2419 0 
L 2419 1100 
L 313 1100 
L 313 1709 
L 2253 4666 
z
" transform="scale(0.015625)"/>
       </defs>
       <use xlink:href="#DejaVuSans-2d"/>
       <use xlink:href="#DejaVuSans-34" x="36.083984"/>
      </g>
     </g>
    </g>
    <g id="xtick_2">
     <g id="line2d_3">
      <path d="M 205.459819 293.76 
L 205.459819 3.456 
" clip-path="url(#p8b968b6cc4)" style="fill: none; stroke: #b0b0b0; stroke-width: 0.8; stroke-linecap: square"/>
     </g>
     <g id="line2d_4">
      <g>
       <use xlink:href="#mdd2828b570" x="205.459819" y="293.76" style="stroke: #000000; stroke-width: 0.8"/>
      </g>
     </g>
     <g id="text_2">
      <!-- 0 -->
      <g transform="translate(199.097319 315.956875) scale(0.2 -0.2)">
       <defs>
        <path id="DejaVuSans-30" d="M 2034 4250 
Q 1547 4250 1301 3770 
Q 1056 3291 1056 2328 
Q 1056 1369 1301 889 
Q 1547 409 2034 409 
Q 2525 409 2770 889 
Q 3016 1369 3016 2328 
Q 3016 3291 2770 3770 
Q 2525 4250 2034 4250 
z
M 2034 4750 
Q 2819 4750 3233 4129 
Q 3647 3509 3647 2328 
Q 3647 1150 3233 529 
Q 2819 -91 2034 -91 
Q 1250 -91 836 529 
Q 422 1150 422 2328 
Q 422 3509 836 4129 
Q 1250 4750 2034 4750 
z
" transform="scale(0.015625)"/>
       </defs>
       <use xlink:href="#DejaVuSans-30"/>
      </g>
     </g>
    </g>
    <g id="xtick_3">
     <g id="line2d_5">
      <path d="M 308.24525 293.76 
L 308.24525 3.456 
" clip-path="url(#p8b968b6cc4)" style="fill: none; stroke: #b0b0b0; stroke-width: 0.8; stroke-linecap: square"/>
     </g>
     <g id="line2d_6">
      <g>
       <use xlink:href="#mdd2828b570" x="308.24525" y="293.76" style="stroke: #000000; stroke-width: 0.8"/>
      </g>
     </g>
     <g id="text_3">
      <!-- 4 -->
      <g transform="translate(301.88275 315.956875) scale(0.2 -0.2)">
       <use xlink:href="#DejaVuSans-34"/>
      </g>
     </g>
    </g>
    <g id="xtick_4">
     <g id="line2d_7">
      <path d="M 411.030681 293.76 
L 411.030681 3.456 
" clip-path="url(#p8b968b6cc4)" style="fill: none; stroke: #b0b0b0; stroke-width: 0.8; stroke-linecap: square"/>
     </g>
     <g id="line2d_8">
      <g>
       <use xlink:href="#mdd2828b570" x="411.030681" y="293.76" style="stroke: #000000; stroke-width: 0.8"/>
      </g>
     </g>
     <g id="text_4">
      <!-- 8 -->
      <g transform="translate(404.668181 315.956875) scale(0.2 -0.2)">
       <defs>
        <path id="DejaVuSans-38" d="M 2034 2216 
Q 1584 2216 1326 1975 
Q 1069 1734 1069 1313 
Q 1069 891 1326 650 
Q 1584 409 2034 409 
Q 2484 409 2743 651 
Q 3003 894 3003 1313 
Q 3003 1734 2745 1975 
Q 2488 2216 2034 2216 
z
M 1403 2484 
Q 997 2584 770 2862 
Q 544 3141 544 3541 
Q 544 4100 942 4425 
Q 1341 4750 2034 4750 
Q 2731 4750 3128 4425 
Q 3525 4100 3525 3541 
Q 3525 3141 3298 2862 
Q 3072 2584 2669 2484 
Q 3125 2378 3379 2068 
Q 3634 1759 3634 1313 
Q 3634 634 3220 271 
Q 2806 -91 2034 -91 
Q 1263 -91 848 271 
Q 434 634 434 1313 
Q 434 1759 690 2068 
Q 947 2378 1403 2484 
z
M 1172 3481 
Q 1172 3119 1398 2916 
Q 1625 2713 2034 2713 
Q 2441 2713 2670 2916 
Q 2900 3119 2900 3481 
Q 2900 3844 2670 4047 
Q 2441 4250 2034 4250 
Q 1625 4250 1398 4047 
Q 1172 3844 1172 3481 
z
" transform="scale(0.015625)"/>
       </defs>
       <use xlink:href="#DejaVuSans-38"/>
      </g>
     </g>
    </g>
    <g id="text_5">
     <!-- log10 of Df -->
     <g transform="translate(175.214063 339.313125) scale(0.2 -0.2)">
      <defs>
       <path id="DejaVuSans-6c" d="M 603 4863 
L 1178 4863 
L 1178 0 
L 603 0 
L 603 4863 
z
" transform="scale(0.015625)"/>
       <path id="DejaVuSans-6f" d="M 1959 3097 
Q 1497 3097 1228 2736 
Q 959 2375 959 1747 
Q 959 1119 1226 758 
Q 1494 397 1959 397 
Q 2419 397 2687 759 
Q 2956 1122 2956 1747 
Q 2956 2369 2687 2733 
Q 2419 3097 1959 3097 
z
M 1959 3584 
Q 2709 3584 3137 3096 
Q 3566 2609 3566 1747 
Q 3566 888 3137 398 
Q 2709 -91 1959 -91 
Q 1206 -91 779 398 
Q 353 888 353 1747 
Q 353 2609 779 3096 
Q 1206 3584 1959 3584 
z
" transform="scale(0.015625)"/>
       <path id="DejaVuSans-67" d="M 2906 1791 
Q 2906 2416 2648 2759 
Q 2391 3103 1925 3103 
Q 1463 3103 1205 2759 
Q 947 2416 947 1791 
Q 947 1169 1205 825 
Q 1463 481 1925 481 
Q 2391 481 2648 825 
Q 2906 1169 2906 1791 
z
M 3481 434 
Q 3481 -459 3084 -895 
Q 2688 -1331 1869 -1331 
Q 1566 -1331 1297 -1286 
Q 1028 -1241 775 -1147 
L 775 -588 
Q 1028 -725 1275 -790 
Q 1522 -856 1778 -856 
Q 2344 -856 2625 -561 
Q 2906 -266 2906 331 
L 2906 616 
Q 2728 306 2450 153 
Q 2172 0 1784 0 
Q 1141 0 747 490 
Q 353 981 353 1791 
Q 353 2603 747 3093 
Q 1141 3584 1784 3584 
Q 2172 3584 2450 3431 
Q 2728 3278 2906 2969 
L 2906 3500 
L 3481 3500 
L 3481 434 
z
" transform="scale(0.015625)"/>
       <path id="DejaVuSans-31" d="M 794 531 
L 1825 531 
L 1825 4091 
L 703 3866 
L 703 4441 
L 1819 4666 
L 2450 4666 
L 2450 531 
L 3481 531 
L 3481 0 
L 794 0 
L 794 531 
z
" transform="scale(0.015625)"/>
       <path id="DejaVuSans-20" transform="scale(0.015625)"/>
       <path id="DejaVuSans-66" d="M 2375 4863 
L 2375 4384 
L 1825 4384 
Q 1516 4384 1395 4259 
Q 1275 4134 1275 3809 
L 1275 3500 
L 2222 3500 
L 2222 3053 
L 1275 3053 
L 1275 0 
L 697 0 
L 697 3053 
L 147 3053 
L 147 3500 
L 697 3500 
L 697 3744 
Q 697 4328 969 4595 
Q 1241 4863 1831 4863 
L 2375 4863 
z
" transform="scale(0.015625)"/>
       <path id="DejaVuSans-44" d="M 1259 4147 
L 1259 519 
L 2022 519 
Q 2988 519 3436 956 
Q 3884 1394 3884 2338 
Q 3884 3275 3436 3711 
Q 2988 4147 2022 4147 
L 1259 4147 
z
M 628 4666 
L 1925 4666 
Q 3281 4666 3915 4102 
Q 4550 3538 4550 2338 
Q 4550 1131 3912 565 
Q 3275 0 1925 0 
L 628 0 
L 628 4666 
z
" transform="scale(0.015625)"/>
      </defs>
      <use xlink:href="#DejaVuSans-6c"/>
      <use xlink:href="#DejaVuSans-6f" x="27.783203"/>
      <use xlink:href="#DejaVuSans-67" x="88.964844"/>
      <use xlink:href="#DejaVuSans-31" x="152.441406"/>
      <use xlink:href="#DejaVuSans-30" x="216.064453"/>
      <use xlink:href="#DejaVuSans-20" x="279.6875"/>
      <use xlink:href="#DejaVuSans-6f" x="311.474609"/>
      <use xlink:href="#DejaVuSans-66" x="372.65625"/>
      <use xlink:href="#DejaVuSans-20" x="407.861328"/>
      <use xlink:href="#DejaVuSans-44" x="439.648438"/>
      <use xlink:href="#DejaVuSans-66" x="516.650391"/>
     </g>
    </g>
   </g>
   <g id="matplotlib.axis_2">
    <g id="ytick_1">
     <g id="line2d_9">
      <path d="M 0 293.76 
L 460.8 293.76 
" clip-path="url(#p8b968b6cc4)" style="fill: none; stroke: #b0b0b0; stroke-width: 0.8; stroke-linecap: square"/>
     </g>
     <g id="line2d_10">
      <defs>
       <path id="m1f3c8ba106" d="M 0 0 
L -3.5 0 
" style="stroke: #000000; stroke-width: 0.8"/>
      </defs>
      <g>
       <use xlink:href="#m1f3c8ba106" x="0" y="293.76" style="stroke: #000000; stroke-width: 0.8"/>
      </g>
     </g>
    </g>
    <g id="ytick_2">
     <g id="line2d_11">
      <path d="M 0 236.274059 
L 460.8 236.274059 
" clip-path="url(#p8b968b6cc4)" style="fill: none; stroke: #b0b0b0; stroke-width: 0.8; stroke-linecap: square"/>
     </g>
     <g id="line2d_12">
      <g>
       <use xlink:href="#m1f3c8ba106" x="0" y="236.274059" style="stroke: #000000; stroke-width: 0.8"/>
      </g>
     </g>
    </g>
    <g id="ytick_3">
     <g id="line2d_13">
      <path d="M 0 178.788119 
L 460.8 178.788119 
" clip-path="url(#p8b968b6cc4)" style="fill: none; stroke: #b0b0b0; stroke-width: 0.8; stroke-linecap: square"/>
     </g>
     <g id="line2d_14">
      <g>
       <use xlink:href="#m1f3c8ba106" x="0" y="178.788119" style="stroke: #000000; stroke-width: 0.8"/>
      </g>
     </g>
    </g>
    <g id="ytick_4">
     <g id="line2d_15">
      <path d="M 0 121.302178 
L 460.8 121.302178 
" clip-path="url(#p8b968b6cc4)" style="fill: none; stroke: #b0b0b0; stroke-width: 0.8; stroke-linecap: square"/>
     </g>
     <g id="line2d_16">
      <g>
       <use xlink:href="#m1f3c8ba106" x="0" y="121.302178" style="stroke: #000000; stroke-width: 0.8"/>
      </g>
     </g>
    </g>
    <g id="ytick_5">
     <g id="line2d_17">
      <path d="M 0 63.816238 
L 460.8 63.816238 
" clip-path="url(#p8b968b6cc4)" style="fill: none; stroke: #b0b0b0; stroke-width: 0.8; stroke-linecap: square"/>
     </g>
     <g id="line2d_18">
      <g>
       <use xlink:href="#m1f3c8ba106" x="0" y="63.816238" style="stroke: #000000; stroke-width: 0.8"/>
      </g>
     </g>
    </g>
    <g id="ytick_6">
     <g id="line2d_19">
      <path d="M 0 6.330297 
L 460.8 6.330297 
" clip-path="url(#p8b968b6cc4)" style="fill: none; stroke: #b0b0b0; stroke-width: 0.8; stroke-linecap: square"/>
     </g>
     <g id="line2d_20">
      <g>
       <use xlink:href="#m1f3c8ba106" x="0" y="6.330297" style="stroke: #000000; stroke-width: 0.8"/>
      </g>
     </g>
    </g>
   </g>
   <g id="line2d_21">
    <path d="M 159.106448 293.76 
L 159.106448 266.933228 
L 190.005741 266.933228 
L 190.005741 236.274059 
L 214.273308 236.274059 
L 214.273308 232.441663 
L 215.241234 232.441663 
L 215.241234 228.609267 
L 216.031671 228.609267 
L 216.031671 224.776871 
L 218.141894 224.776871 
L 218.141894 220.944475 
L 219.718253 220.944475 
L 219.718253 217.112079 
L 220.04771 217.112079 
L 220.04771 213.279683 
L 222.008756 213.279683 
L 222.008756 209.447287 
L 222.542813 209.447287 
L 222.542813 205.614891 
L 222.994623 205.614891 
L 222.994623 201.782495 
L 224.249697 201.782495 
L 224.249697 197.950099 
L 225.125667 197.950099 
L 225.149982 190.285307 
L 225.450352 190.285307 
L 225.450352 186.452911 
L 227.490071 186.452911 
L 227.490071 182.620515 
L 227.840415 182.620515 
L 227.840415 178.788119 
L 228.617142 178.788119 
L 228.617142 174.955723 
L 230.160269 174.955723 
L 230.160269 171.123327 
L 230.589015 171.123327 
L 230.589015 167.290931 
L 231.143864 167.290931 
L 231.143864 163.458535 
L 232.214622 163.458535 
L 232.214622 159.626139 
L 233.071625 159.626139 
L 233.071625 155.793743 
L 233.830918 155.793743 
L 233.830918 151.961347 
L 235.541292 151.961347 
L 235.541292 148.12895 
L 235.748955 148.12895 
L 235.748955 144.296554 
L 235.868036 144.296554 
L 235.868036 140.464158 
L 236.435031 140.464158 
L 236.435031 136.631762 
L 237.363664 136.631762 
L 237.363664 132.799366 
L 237.486718 132.799366 
L 237.532189 125.134574 
L 239.233665 125.134574 
L 239.233665 121.302178 
L 239.656983 121.302178 
L 239.656983 117.469782 
L 240.493404 117.469782 
L 240.493404 113.637386 
L 241.688867 113.637386 
L 241.688867 109.80499 
L 241.917147 109.80499 
L 241.917147 105.972594 
L 242.099882 105.972594 
L 242.099882 102.140198 
L 242.504941 102.140198 
L 242.504941 98.307802 
L 243.58611 98.307802 
L 243.656806 90.64301 
L 244.733874 90.64301 
L 244.830864 82.978218 
L 245.462412 82.978218 
L 245.510234 75.313426 
L 246.38779 75.313426 
L 246.38779 71.48103 
L 247.75834 71.48103 
L 247.75834 67.648634 
L 248.37016 67.648634 
L 248.37016 63.816238 
L 250.417023 63.816238 
L 250.417023 59.983842 
L 252.973921 59.983842 
L 253.07221 52.31905 
L 253.454332 52.31905 
L 253.48018 44.654257 
L 254.982502 44.654257 
L 254.982502 40.821861 
L 255.743421 40.821861 
L 255.743421 36.989465 
L 256.22385 36.989465 
L 256.22385 33.157069 
L 257.125787 33.157069 
L 257.125787 29.324673 
L 257.608554 29.324673 
L 257.608554 25.492277 
L 260.14508 25.492277 
L 260.14508 21.659881 
L 260.55053 21.659881 
L 260.55053 17.827485 
L 261.24148 17.827485 
L 261.24148 13.995089 
L 262.060564 13.995089 
L 262.060564 10.162693 
L 262.664252 10.162693 
L 262.664252 6.330297 
L 262.664252 6.330297 
L 460.8 6.330297 
L 460.8 6.330297 
" clip-path="url(#p8b968b6cc4)" style="fill: none; stroke: #ff0000; stroke-width: 3; stroke-linecap: square"/>
   </g>
   <g id="line2d_22">
    <path d="M 190.005741 293.76 
L 190.005741 236.274059 
L 224.899459 236.274059 
L 224.899459 232.441663 
L 226.701793 232.441663 
L 226.701793 228.609267 
L 228.025894 228.609267 
L 228.025894 224.776871 
L 230.537939 224.776871 
L 230.537939 220.944475 
L 231.430518 220.944475 
L 231.430518 217.112079 
L 231.783217 217.112079 
L 231.783217 213.279683 
L 231.968962 213.279683 
L 231.968962 209.447287 
L 233.828451 209.447287 
L 233.828451 205.614891 
L 234.1655 205.614891 
L 234.1655 201.782495 
L 235.22042 201.782495 
L 235.22042 197.950099 
L 236.712059 197.950099 
L 236.712059 194.117703 
L 237.004788 194.117703 
L 237.004788 190.285307 
L 242.033142 190.285307 
L 242.110587 182.620515 
L 243.921411 182.620515 
L 244.0287 174.955723 
L 244.946071 174.955723 
L 244.946071 171.123327 
L 245.333997 171.123327 
L 245.333997 167.290931 
L 247.370199 167.290931 
L 247.370199 163.458535 
L 250.868421 163.458535 
L 250.868421 159.626139 
L 251.62327 159.626139 
L 251.62327 155.793743 
L 252.04156 155.793743 
L 252.04156 151.961347 
L 252.709532 151.961347 
L 252.709532 148.12895 
L 253.530454 148.12895 
L 253.600989 140.464158 
L 253.701106 140.464158 
L 253.701106 136.631762 
L 253.934309 136.631762 
L 254.035646 125.134574 
L 254.305803 125.134574 
L 254.323106 117.469782 
L 255.299252 117.469782 
L 255.299252 113.637386 
L 255.537109 113.637386 
L 255.537109 109.80499 
L 256.227162 109.80499 
L 256.244961 102.140198 
L 256.912069 102.140198 
L 256.912069 98.307802 
L 257.326364 98.307802 
L 257.326364 94.475406 
L 258.131569 94.475406 
L 258.232729 86.810614 
L 258.623511 86.810614 
L 258.623511 82.978218 
L 258.939855 82.978218 
L 258.939855 79.145822 
L 259.520683 79.145822 
L 259.520683 75.313426 
L 260.071197 75.313426 
L 260.071197 71.48103 
L 260.387847 71.48103 
L 260.450982 63.816238 
L 260.77695 63.816238 
L 260.878918 52.31905 
L 261.095705 52.31905 
L 261.095705 48.486653 
L 261.460177 48.486653 
L 261.460177 44.654257 
L 263.682928 44.654257 
L 263.682928 40.821861 
L 263.969054 40.821861 
L 263.969054 36.989465 
L 264.534556 36.989465 
L 264.534556 33.157069 
L 264.87995 33.157069 
L 264.87995 29.324673 
L 265.268315 29.324673 
L 265.268315 25.492277 
L 265.575011 25.492277 
L 265.674529 17.827485 
L 269.864427 17.827485 
L 269.864427 13.995089 
L 271.848223 13.995089 
L 271.848223 10.162693 
L 273.210022 10.162693 
L 273.210022 6.330297 
L 273.210022 6.330297 
L 460.8 6.330297 
L 460.8 6.330297 
" clip-path="url(#p8b968b6cc4)" style="fill: none; stroke: #00bfbf; stroke-width: 1.5; stroke-linecap: square"/>
   </g>
   <g id="line2d_23">
    <path d="M 190.005741 293.76 
L 190.005741 236.274059 
L 219.718253 236.274059 
L 219.718253 232.441663 
L 220.280857 232.441663 
L 220.280857 228.609267 
L 224.895632 228.609267 
L 224.895632 224.776871 
L 225.48211 224.776871 
L 225.515169 217.112079 
L 229.258367 217.112079 
L 229.258367 213.279683 
L 230.537939 213.279683 
L 230.589015 205.614891 
L 231.143864 205.614891 
L 231.143864 201.782495 
L 231.542851 201.782495 
L 231.542851 197.950099 
L 231.783217 197.950099 
L 231.783217 194.117703 
L 231.94381 194.117703 
L 231.94381 190.285307 
L 232.057376 190.285307 
L 232.057376 186.452911 
L 233.830918 186.452911 
L 233.830918 182.620515 
L 235.748955 182.620515 
L 235.748955 178.788119 
L 236.190067 178.788119 
L 236.190067 174.955723 
L 237.486718 174.955723 
L 237.515917 167.290931 
L 239.941166 167.290931 
L 239.941166 163.458535 
L 241.871524 163.458535 
L 241.871524 159.626139 
L 243.287428 159.626139 
L 243.287428 155.793743 
L 243.791639 155.793743 
L 243.791639 151.961347 
L 244.67351 151.961347 
L 244.67351 148.12895 
L 244.958198 148.12895 
L 244.958198 144.296554 
L 246.38779 144.296554 
L 246.38779 140.464158 
L 246.662349 140.464158 
L 246.662349 136.631762 
L 246.850746 136.631762 
L 246.850746 132.799366 
L 247.457294 132.799366 
L 247.457294 128.96697 
L 247.630058 128.96697 
L 247.630058 125.134574 
L 247.75834 125.134574 
L 247.75834 121.302178 
L 248.277097 121.302178 
L 248.277097 117.469782 
L 248.539058 117.469782 
L 248.539058 113.637386 
L 249.818111 113.637386 
L 249.818111 109.80499 
L 249.974434 109.80499 
L 249.974434 105.972594 
L 250.737968 105.972594 
L 250.737968 102.140198 
L 251.271085 102.140198 
L 251.271085 98.307802 
L 251.572654 98.307802 
L 251.572654 94.475406 
L 252.092468 94.475406 
L 252.092468 90.64301 
L 252.496022 90.64301 
L 252.496022 86.810614 
L 252.938151 86.810614 
L 252.938151 82.978218 
L 253.07221 82.978218 
L 253.07221 79.145822 
L 253.854297 79.145822 
L 253.934309 71.48103 
L 256.096311 71.48103 
L 256.096311 67.648634 
L 256.912069 67.648634 
L 256.912069 63.816238 
L 257.727294 63.816238 
L 257.814925 56.151446 
L 258.724176 56.151446 
L 258.724176 52.31905 
L 259.911779 52.31905 
L 259.911779 48.486653 
L 260.421462 48.486653 
L 260.421462 44.654257 
L 260.77695 44.654257 
L 260.77695 40.821861 
L 262.664252 40.821861 
L 262.664252 36.989465 
L 262.802089 36.989465 
L 262.802089 33.157069 
L 263.524814 33.157069 
L 263.524814 29.324673 
L 263.823489 29.324673 
L 263.823489 25.492277 
L 264.712874 25.492277 
L 264.712874 21.659881 
L 264.87995 21.659881 
L 264.87995 17.827485 
L 265.575011 17.827485 
L 265.575011 13.995089 
L 266.775588 13.995089 
L 266.775588 10.162693 
L 269.414356 10.162693 
L 269.414356 6.330297 
L 269.414356 6.330297 
L 460.8 6.330297 
L 460.8 6.330297 
" clip-path="url(#p8b968b6cc4)" style="fill: none; stroke: #bf00bf; stroke-width: 1.5; stroke-linecap: square"/>
   </g>
   <g id="line2d_24">
    <path d="M 186.595093 293.76 
L 186.595093 289.927604 
L 190.005741 289.927604 
L 190.005741 236.274059 
L 218.107949 236.274059 
L 218.107949 232.441663 
L 219.073684 232.441663 
L 219.073684 228.609267 
L 219.380007 228.609267 
L 219.380007 224.776871 
L 219.718253 224.776871 
L 219.718253 220.944475 
L 223.12311 220.944475 
L 223.12311 217.112079 
L 227.210228 217.112079 
L 227.272478 209.447287 
L 229.258367 209.447287 
L 229.258367 205.614891 
L 230.071219 205.614891 
L 230.071219 201.782495 
L 230.589015 201.782495 
L 230.589015 197.950099 
L 231.143864 197.950099 
L 231.143864 194.117703 
L 231.343869 194.117703 
L 231.343869 190.285307 
L 231.544534 190.285307 
L 231.544534 186.452911 
L 231.783217 186.452911 
L 231.808448 178.788119 
L 233.469834 178.788119 
L 233.469834 174.955723 
L 233.830918 174.955723 
L 233.830918 171.123327 
L 234.837277 171.123327 
L 234.837277 167.290931 
L 235.266772 167.290931 
L 235.266772 163.458535 
L 235.748955 163.458535 
L 235.748955 159.626139 
L 237.486718 159.626139 
L 237.56513 148.12895 
L 237.697648 148.12895 
L 237.697648 144.296554 
L 238.875407 144.296554 
L 238.875407 140.464158 
L 240.825364 140.464158 
L 240.825364 136.631762 
L 241.553284 136.631762 
L 241.581668 128.96697 
L 241.917147 128.96697 
L 241.917147 125.134574 
L 243.167513 125.134574 
L 243.167513 121.302178 
L 243.785168 121.302178 
L 243.785168 117.469782 
L 244.67351 117.469782 
L 244.67351 113.637386 
L 244.889874 113.637386 
L 244.949885 105.972594 
L 245.28209 105.972594 
L 245.28209 102.140198 
L 245.769091 102.140198 
L 245.769091 98.307802 
L 246.38779 98.307802 
L 246.38779 94.475406 
L 246.850746 94.475406 
L 246.850746 90.64301 
L 247.400015 90.64301 
L 247.400015 86.810614 
L 247.75834 86.810614 
L 247.75834 82.978218 
L 247.94946 82.978218 
L 247.94946 79.145822 
L 248.539058 79.145822 
L 248.539058 75.313426 
L 250.097757 75.313426 
L 250.097757 71.48103 
L 250.700714 71.48103 
L 250.700714 67.648634 
L 250.961443 67.648634 
L 250.961443 63.816238 
L 253.07221 63.816238 
L 253.07221 59.983842 
L 253.454332 59.983842 
L 253.454332 56.151446 
L 257.0836 56.151446 
L 257.170929 48.486653 
L 257.841545 48.486653 
L 257.841545 44.654257 
L 258.129311 44.654257 
L 258.129311 40.821861 
L 258.399056 40.821861 
L 258.399056 36.989465 
L 260.747017 36.989465 
L 260.747017 33.157069 
L 261.09927 33.157069 
L 261.09927 29.324673 
L 262.664252 29.324673 
L 262.664252 25.492277 
L 263.524814 25.492277 
L 263.524814 21.659881 
L 263.791422 21.659881 
L 263.823489 13.995089 
L 264.87995 13.995089 
L 264.87995 10.162693 
L 266.775588 10.162693 
L 266.775588 6.330297 
L 266.775588 6.330297 
L 460.8 6.330297 
L 460.8 6.330297 
" clip-path="url(#p8b968b6cc4)" style="fill: none; stroke: #000000; stroke-width: 1.5; stroke-linecap: square"/>
   </g>
   <g id="line2d_25">
    <path d="M 159.123176 293.76 
L 159.123176 289.927604 
L 161.981769 289.927604 
L 161.985335 282.262812 
L 163.943021 282.262812 
L 163.943021 278.430416 
L 166.110934 278.430416 
L 166.110934 274.59802 
L 166.301852 274.59802 
L 166.301852 270.765624 
L 167.116987 270.765624 
L 167.116987 266.933228 
L 190.005741 266.933228 
L 190.005741 236.274059 
L 215.775448 236.274059 
L 215.775448 232.441663 
L 216.134645 232.441663 
L 216.134645 228.609267 
L 218.144643 228.609267 
L 218.144643 224.776871 
L 219.718253 224.776871 
L 219.718253 220.944475 
L 220.04771 220.944475 
L 220.04771 217.112079 
L 222.243779 217.112079 
L 222.243779 213.279683 
L 222.707918 213.279683 
L 222.707918 209.447287 
L 223.007241 209.447287 
L 223.007241 205.614891 
L 225.178677 205.614891 
L 225.178677 201.782495 
L 225.935707 201.782495 
L 225.935707 197.950099 
L 228.731391 197.950099 
L 228.731391 194.117703 
L 229.037586 194.117703 
L 229.037586 190.285307 
L 229.258367 190.285307 
L 229.258367 186.452911 
L 230.470365 186.452911 
L 230.470365 182.620515 
L 230.589015 182.620515 
L 230.589015 178.788119 
L 231.074157 178.788119 
L 231.143864 171.123327 
L 231.754109 171.123327 
L 231.783217 163.458535 
L 232.319859 163.458535 
L 232.319859 159.626139 
L 233.07721 159.626139 
L 233.07721 155.793743 
L 233.830918 155.793743 
L 233.830918 151.961347 
L 235.552531 151.961347 
L 235.552531 148.12895 
L 235.748955 148.12895 
L 235.748955 144.296554 
L 235.882734 144.296554 
L 235.882734 140.464158 
L 237.486718 140.464158 
L 237.486718 136.631762 
L 238.30918 136.631762 
L 238.30918 132.799366 
L 239.68941 132.799366 
L 239.68941 128.96697 
L 241.143003 128.96697 
L 241.143003 125.134574 
L 241.917147 125.134574 
L 241.917147 121.302178 
L 242.10368 121.302178 
L 242.10368 117.469782 
L 242.504941 117.469782 
L 242.504941 113.637386 
L 243.349382 113.637386 
L 243.349382 109.80499 
L 243.58611 109.80499 
L 243.58611 105.972594 
L 243.928451 105.972594 
L 243.928451 102.140198 
L 244.67351 102.140198 
L 244.67351 98.307802 
L 245.465842 98.307802 
L 245.465842 94.475406 
L 246.38779 94.475406 
L 246.38779 90.64301 
L 246.850746 90.64301 
L 246.890012 82.978218 
L 247.00907 82.978218 
L 247.00907 79.145822 
L 247.75834 79.145822 
L 247.75834 75.313426 
L 248.37382 75.313426 
L 248.37382 71.48103 
L 248.539058 71.48103 
L 248.539058 67.648634 
L 250.419334 67.648634 
L 250.419334 63.816238 
L 253.07221 63.816238 
L 253.07221 59.983842 
L 253.454332 59.983842 
L 253.454332 56.151446 
L 253.720998 56.151446 
L 253.720998 52.31905 
L 255.039166 52.31905 
L 255.039166 48.486653 
L 256.256316 48.486653 
L 256.256316 44.654257 
L 256.457984 44.654257 
L 256.500008 36.989465 
L 257.157095 36.989465 
L 257.157095 33.157069 
L 257.608554 33.157069 
L 257.608554 29.324673 
L 260.159289 29.324673 
L 260.159289 25.492277 
L 262.664252 25.492277 
L 262.664252 21.659881 
L 263.52809 21.659881 
L 263.52809 17.827485 
L 263.823489 17.827485 
L 263.823489 13.995089 
L 264.87995 13.995089 
L 264.87995 10.162693 
L 266.775588 10.162693 
L 266.775588 6.330297 
L 266.775588 6.330297 
L 460.8 6.330297 
L 460.8 6.330297 
" clip-path="url(#p8b968b6cc4)" style="fill: none; stroke: #00bfbf; stroke-width: 1.5; stroke-linecap: square"/>
   </g>
   <g id="patch_3">
    <path d="M 0 293.76 
L 0 3.456 
" style="fill: none; stroke: #000000; stroke-width: 0.8; stroke-linejoin: miter; stroke-linecap: square"/>
   </g>
   <g id="patch_4">
    <path d="M 460.8 293.76 
L 460.8 3.456 
" style="fill: none; stroke: #000000; stroke-width: 0.8; stroke-linejoin: miter; stroke-linecap: square"/>
   </g>
   <g id="patch_5">
    <path d="M 0 293.76 
L 460.8 293.76 
" style="fill: none; stroke: #000000; stroke-width: 0.8; stroke-linejoin: miter; stroke-linecap: square"/>
   </g>
   <g id="patch_6">
    <path d="M 0 3.456 
L 460.8 3.456 
" style="fill: none; stroke: #000000; stroke-width: 0.8; stroke-linejoin: miter; stroke-linecap: square"/>
   </g>
   <g id="text_6">
    <!-- {f15-f19}, 5-D -->
    <g transform="translate(305.884 287.95392) scale(0.2 -0.2)">
     <defs>
      <path id="DejaVuSans-7b" d="M 3272 -594 
L 3272 -1044 
L 3078 -1044 
Q 2300 -1044 2036 -812 
Q 1772 -581 1772 109 
L 1772 856 
Q 1772 1328 1603 1509 
Q 1434 1691 991 1691 
L 800 1691 
L 800 2138 
L 991 2138 
Q 1438 2138 1605 2317 
Q 1772 2497 1772 2963 
L 1772 3713 
Q 1772 4403 2036 4633 
Q 2300 4863 3078 4863 
L 3272 4863 
L 3272 4416 
L 3059 4416 
Q 2619 4416 2484 4278 
Q 2350 4141 2350 3700 
L 2350 2925 
Q 2350 2434 2208 2212 
Q 2066 1991 1722 1913 
Q 2069 1828 2209 1606 
Q 2350 1384 2350 897 
L 2350 122 
Q 2350 -319 2484 -456 
Q 2619 -594 3059 -594 
L 3272 -594 
z
" transform="scale(0.015625)"/>
      <path id="DejaVuSans-35" d="M 691 4666 
L 3169 4666 
L 3169 4134 
L 1269 4134 
L 1269 2991 
Q 1406 3038 1543 3061 
Q 1681 3084 1819 3084 
Q 2600 3084 3056 2656 
Q 3513 2228 3513 1497 
Q 3513 744 3044 326 
Q 2575 -91 1722 -91 
Q 1428 -91 1123 -41 
Q 819 9 494 109 
L 494 744 
Q 775 591 1075 516 
Q 1375 441 1709 441 
Q 2250 441 2565 725 
Q 2881 1009 2881 1497 
Q 2881 1984 2565 2268 
Q 2250 2553 1709 2553 
Q 1456 2553 1204 2497 
Q 953 2441 691 2322 
L 691 4666 
z
" transform="scale(0.015625)"/>
      <path id="DejaVuSans-39" d="M 703 97 
L 703 672 
Q 941 559 1184 500 
Q 1428 441 1663 441 
Q 2288 441 2617 861 
Q 2947 1281 2994 2138 
Q 2813 1869 2534 1725 
Q 2256 1581 1919 1581 
Q 1219 1581 811 2004 
Q 403 2428 403 3163 
Q 403 3881 828 4315 
Q 1253 4750 1959 4750 
Q 2769 4750 3195 4129 
Q 3622 3509 3622 2328 
Q 3622 1225 3098 567 
Q 2575 -91 1691 -91 
Q 1453 -91 1209 -44 
Q 966 3 703 97 
z
M 1959 2075 
Q 2384 2075 2632 2365 
Q 2881 2656 2881 3163 
Q 2881 3666 2632 3958 
Q 2384 4250 1959 4250 
Q 1534 4250 1286 3958 
Q 1038 3666 1038 3163 
Q 1038 2656 1286 2365 
Q 1534 2075 1959 2075 
z
" transform="scale(0.015625)"/>
      <path id="DejaVuSans-7d" d="M 800 -594 
L 1019 -594 
Q 1456 -594 1589 -459 
Q 1722 -325 1722 122 
L 1722 897 
Q 1722 1384 1862 1606 
Q 2003 1828 2350 1913 
Q 2003 1991 1862 2212 
Q 1722 2434 1722 2925 
L 1722 3700 
Q 1722 4144 1589 4280 
Q 1456 4416 1019 4416 
L 800 4416 
L 800 4863 
L 997 4863 
Q 1775 4863 2036 4633 
Q 2297 4403 2297 3713 
L 2297 2963 
Q 2297 2497 2465 2317 
Q 2634 2138 3078 2138 
L 3272 2138 
L 3272 1691 
L 3078 1691 
Q 2634 1691 2465 1509 
Q 2297 1328 2297 856 
L 2297 109 
Q 2297 -581 2036 -812 
Q 1775 -1044 997 -1044 
L 800 -1044 
L 800 -594 
z
" transform="scale(0.015625)"/>
      <path id="DejaVuSans-2c" d="M 750 794 
L 1409 794 
L 1409 256 
L 897 -744 
L 494 -744 
L 750 256 
L 750 794 
z
" transform="scale(0.015625)"/>
     </defs>
     <use xlink:href="#DejaVuSans-7b"/>
     <use xlink:href="#DejaVuSans-66" x="63.623047"/>
     <use xlink:href="#DejaVuSans-31" x="98.828125"/>
     <use xlink:href="#DejaVuSans-35" x="162.451172"/>
     <use xlink:href="#DejaVuSans-2d" x="226.074219"/>
     <use xlink:href="#DejaVuSans-66" x="262.158203"/>
     <use xlink:href="#DejaVuSans-31" x="297.363281"/>
     <use xlink:href="#DejaVuSans-39" x="360.986328"/>
     <use xlink:href="#DejaVuSans-7d" x="424.609375"/>
     <use xlink:href="#DejaVuSans-2c" x="488.232422"/>
     <use xlink:href="#DejaVuSans-20" x="520.019531"/>
     <use xlink:href="#DejaVuSans-35" x="551.806641"/>
     <use xlink:href="#DejaVuSans-2d" x="615.429688"/>
     <use xlink:href="#DejaVuSans-44" x="651.513672"/>
    </g>
   </g>
   <g id="text_7">
    <!-- v2.6.3 -->
    <g style="fill: #808080" transform="translate(214.71875 288.777272) scale(0.1 -0.1)">
     <defs>
      <path id="DejaVuSans-76" d="M 191 3500 
L 800 3500 
L 1894 563 
L 2988 3500 
L 3597 3500 
L 2284 0 
L 1503 0 
L 191 3500 
z
" transform="scale(0.015625)"/>
      <path id="DejaVuSans-32" d="M 1228 531 
L 3431 531 
L 3431 0 
L 469 0 
L 469 531 
Q 828 903 1448 1529 
Q 2069 2156 2228 2338 
Q 2531 2678 2651 2914 
Q 2772 3150 2772 3378 
Q 2772 3750 2511 3984 
Q 2250 4219 1831 4219 
Q 1534 4219 1204 4116 
Q 875 4013 500 3803 
L 500 4441 
Q 881 4594 1212 4672 
Q 1544 4750 1819 4750 
Q 2544 4750 2975 4387 
Q 3406 4025 3406 3419 
Q 3406 3131 3298 2873 
Q 3191 2616 2906 2266 
Q 2828 2175 2409 1742 
Q 1991 1309 1228 531 
z
" transform="scale(0.015625)"/>
      <path id="DejaVuSans-2e" d="M 684 794 
L 1344 794 
L 1344 0 
L 684 0 
L 684 794 
z
" transform="scale(0.015625)"/>
      <path id="DejaVuSans-36" d="M 2113 2584 
Q 1688 2584 1439 2293 
Q 1191 2003 1191 1497 
Q 1191 994 1439 701 
Q 1688 409 2113 409 
Q 2538 409 2786 701 
Q 3034 994 3034 1497 
Q 3034 2003 2786 2293 
Q 2538 2584 2113 2584 
z
M 3366 4563 
L 3366 3988 
Q 3128 4100 2886 4159 
Q 2644 4219 2406 4219 
Q 1781 4219 1451 3797 
Q 1122 3375 1075 2522 
Q 1259 2794 1537 2939 
Q 1816 3084 2150 3084 
Q 2853 3084 3261 2657 
Q 3669 2231 3669 1497 
Q 3669 778 3244 343 
Q 2819 -91 2113 -91 
Q 1303 -91 875 529 
Q 447 1150 447 2328 
Q 447 3434 972 4092 
Q 1497 4750 2381 4750 
Q 2619 4750 2861 4703 
Q 3103 4656 3366 4563 
z
" transform="scale(0.015625)"/>
      <path id="DejaVuSans-33" d="M 2597 2516 
Q 3050 2419 3304 2112 
Q 3559 1806 3559 1356 
Q 3559 666 3084 287 
Q 2609 -91 1734 -91 
Q 1441 -91 1130 -33 
Q 819 25 488 141 
L 488 750 
Q 750 597 1062 519 
Q 1375 441 1716 441 
Q 2309 441 2620 675 
Q 2931 909 2931 1356 
Q 2931 1769 2642 2001 
Q 2353 2234 1838 2234 
L 1294 2234 
L 1294 2753 
L 1863 2753 
Q 2328 2753 2575 2939 
Q 2822 3125 2822 3475 
Q 2822 3834 2567 4026 
Q 2313 4219 1838 4219 
Q 1578 4219 1281 4162 
Q 984 4106 628 3988 
L 628 4550 
Q 988 4650 1302 4700 
Q 1616 4750 1894 4750 
Q 2613 4750 3031 4423 
Q 3450 4097 3450 3541 
Q 3450 3153 3228 2886 
Q 3006 2619 2597 2516 
z
" transform="scale(0.015625)"/>
     </defs>
     <use xlink:href="#DejaVuSans-76"/>
     <use xlink:href="#DejaVuSans-32" x="59.179688"/>
     <use xlink:href="#DejaVuSans-2e" x="122.802734"/>
     <use xlink:href="#DejaVuSans-36" x="154.589844"/>
     <use xlink:href="#DejaVuSans-2e" x="218.212891"/>
     <use xlink:href="#DejaVuSans-33" x="250"/>
    </g>
   </g>
  </g>
 </g>
 <defs>
  <clipPath id="p8b968b6cc4">
   <rect x="0" y="3.456" width="460.8" height="290.304"/>
  </clipPath>
 </defs>
</svg>
