<?xml version="1.0" encoding="utf-8" standalone="no"?>
<!DOCTYPE svg PUBLIC "-//W3C//DTD SVG 1.1//EN"
  "http://www.w3.org/Graphics/SVG/1.1/DTD/svg11.dtd">
<svg xmlns:xlink="http://www.w3.org/1999/xlink" width="460.8pt" height="345.6pt" viewBox="0 0 460.8 345.6" xmlns="http://www.w3.org/2000/svg" version="1.1">
 <metadata>
  <rdf:RDF xmlns:dc="http://purl.org/dc/elements/1.1/" xmlns:cc="http://creativecommons.org/ns#" xmlns:rdf="http://www.w3.org/1999/02/22-rdf-syntax-ns#">
   <cc:Work>
    <dc:type rdf:resource="http://purl.org/dc/dcmitype/StillImage"/>
    <dc:date>2024-01-19T15:05:56.963691</dc:date>
    <dc:format>image/svg+xml</dc:format>
    <dc:creator>
     <cc:Agent>
      <dc:title>Matplotlib v3.8.2, https://matplotlib.org/</dc:title>
     </cc:Agent>
    </dc:creator>
   </cc:Work>
  </rdf:RDF>
 </metadata>
 <defs>
  <style type="text/css">*{stroke-linejoin: round; stroke-linecap: butt}</style>
 </defs>
 <g id="figure_1">
  <g id="patch_1">
   <path d="M 0 345.6 
L 460.8 345.6 
L 460.8 0 
L 0 0 
z
" style="fill: #ffffff"/>
  </g>
  <g id="axes_1">
   <g id="patch_2">
    <path d="M 0 293.76 
L 460.8 293.76 
L 460.8 3.456 
L 0 3.456 
z
" style="fill: #ffffff"/>
   </g>
   <g id="matplotlib.axis_1">
    <g id="xtick_1">
     <g id="line2d_1">
      <path d="M 103.103634 293.76 
L 103.103634 3.456 
" clip-path="url(#p4542082345)" style="fill: none; stroke: #b0b0b0; stroke-width: 0.8; stroke-linecap: square"/>
     </g>
     <g id="line2d_2">
      <defs>
       <path id="mae05c76264" d="M 0 0 
L 0 3.5 
" style="stroke: #000000; stroke-width: 0.8"/>
      </defs>
      <g>
       <use xlink:href="#mae05c76264" x="103.103634" y="293.76" style="stroke: #000000; stroke-width: 0.8"/>
      </g>
     </g>
     <g id="text_1">
      <!-- -4 -->
      <g transform="translate(93.133322 315.956875) scale(0.2 -0.2)">
       <defs>
        <path id="DejaVuSans-2d" d="M 313 2009 
L 1997 2009 
L 1997 1497 
L 313 1497 
L 313 2009 
z
" transform="scale(0.015625)"/>
        <path id="DejaVuSans-34" d="M 2419 4116 
L 825 1625 
L 2419 1625 
L 2419 4116 
z
M 2253 4666 
L 3047 4666 
L 3047 1625 
L 3713 1625 
L 3713 1100 
L 3047 1100 
L 3047 0 
L 2419 0 
L 2419 1100 
L 313 1100 
L 313 1709 
L 2253 4666 
z
" transform="scale(0.015625)"/>
       </defs>
       <use xlink:href="#DejaVuSans-2d"/>
       <use xlink:href="#DejaVuSans-34" x="36.083984"/>
      </g>
     </g>
    </g>
    <g id="xtick_2">
     <g id="line2d_3">
      <path d="M 206.318777 293.76 
L 206.318777 3.456 
" clip-path="url(#p4542082345)" style="fill: none; stroke: #b0b0b0; stroke-width: 0.8; stroke-linecap: square"/>
     </g>
     <g id="line2d_4">
      <g>
       <use xlink:href="#mae05c76264" x="206.318777" y="293.76" style="stroke: #000000; stroke-width: 0.8"/>
      </g>
     </g>
     <g id="text_2">
      <!-- 0 -->
      <g transform="translate(199.956277 315.956875) scale(0.2 -0.2)">
       <defs>
        <path id="DejaVuSans-30" d="M 2034 4250 
Q 1547 4250 1301 3770 
Q 1056 3291 1056 2328 
Q 1056 1369 1301 889 
Q 1547 409 2034 409 
Q 2525 409 2770 889 
Q 3016 1369 3016 2328 
Q 3016 3291 2770 3770 
Q 2525 4250 2034 4250 
z
M 2034 4750 
Q 2819 4750 3233 4129 
Q 3647 3509 3647 2328 
Q 3647 1150 3233 529 
Q 2819 -91 2034 -91 
Q 1250 -91 836 529 
Q 422 1150 422 2328 
Q 422 3509 836 4129 
Q 1250 4750 2034 4750 
z
" transform="scale(0.015625)"/>
       </defs>
       <use xlink:href="#DejaVuSans-30"/>
      </g>
     </g>
    </g>
    <g id="xtick_3">
     <g id="line2d_5">
      <path d="M 309.533919 293.76 
L 309.533919 3.456 
" clip-path="url(#p4542082345)" style="fill: none; stroke: #b0b0b0; stroke-width: 0.8; stroke-linecap: square"/>
     </g>
     <g id="line2d_6">
      <g>
       <use xlink:href="#mae05c76264" x="309.533919" y="293.76" style="stroke: #000000; stroke-width: 0.8"/>
      </g>
     </g>
     <g id="text_3">
      <!-- 4 -->
      <g transform="translate(303.171419 315.956875) scale(0.2 -0.2)">
       <use xlink:href="#DejaVuSans-34"/>
      </g>
     </g>
    </g>
    <g id="xtick_4">
     <g id="line2d_7">
      <path d="M 412.749061 293.76 
L 412.749061 3.456 
" clip-path="url(#p4542082345)" style="fill: none; stroke: #b0b0b0; stroke-width: 0.8; stroke-linecap: square"/>
     </g>
     <g id="line2d_8">
      <g>
       <use xlink:href="#mae05c76264" x="412.749061" y="293.76" style="stroke: #000000; stroke-width: 0.8"/>
      </g>
     </g>
     <g id="text_4">
      <!-- 8 -->
      <g transform="translate(406.386561 315.956875) scale(0.2 -0.2)">
       <defs>
        <path id="DejaVuSans-38" d="M 2034 2216 
Q 1584 2216 1326 1975 
Q 1069 1734 1069 1313 
Q 1069 891 1326 650 
Q 1584 409 2034 409 
Q 2484 409 2743 651 
Q 3003 894 3003 1313 
Q 3003 1734 2745 1975 
Q 2488 2216 2034 2216 
z
M 1403 2484 
Q 997 2584 770 2862 
Q 544 3141 544 3541 
Q 544 4100 942 4425 
Q 1341 4750 2034 4750 
Q 2731 4750 3128 4425 
Q 3525 4100 3525 3541 
Q 3525 3141 3298 2862 
Q 3072 2584 2669 2484 
Q 3125 2378 3379 2068 
Q 3634 1759 3634 1313 
Q 3634 634 3220 271 
Q 2806 -91 2034 -91 
Q 1263 -91 848 271 
Q 434 634 434 1313 
Q 434 1759 690 2068 
Q 947 2378 1403 2484 
z
M 1172 3481 
Q 1172 3119 1398 2916 
Q 1625 2713 2034 2713 
Q 2441 2713 2670 2916 
Q 2900 3119 2900 3481 
Q 2900 3844 2670 4047 
Q 2441 4250 2034 4250 
Q 1625 4250 1398 4047 
Q 1172 3844 1172 3481 
z
" transform="scale(0.015625)"/>
       </defs>
       <use xlink:href="#DejaVuSans-38"/>
      </g>
     </g>
    </g>
    <g id="text_5">
     <!-- log10 of Df -->
     <g transform="translate(175.214063 339.313125) scale(0.2 -0.2)">
      <defs>
       <path id="DejaVuSans-6c" d="M 603 4863 
L 1178 4863 
L 1178 0 
L 603 0 
L 603 4863 
z
" transform="scale(0.015625)"/>
       <path id="DejaVuSans-6f" d="M 1959 3097 
Q 1497 3097 1228 2736 
Q 959 2375 959 1747 
Q 959 1119 1226 758 
Q 1494 397 1959 397 
Q 2419 397 2687 759 
Q 2956 1122 2956 1747 
Q 2956 2369 2687 2733 
Q 2419 3097 1959 3097 
z
M 1959 3584 
Q 2709 3584 3137 3096 
Q 3566 2609 3566 1747 
Q 3566 888 3137 398 
Q 2709 -91 1959 -91 
Q 1206 -91 779 398 
Q 353 888 353 1747 
Q 353 2609 779 3096 
Q 1206 3584 1959 3584 
z
" transform="scale(0.015625)"/>
       <path id="DejaVuSans-67" d="M 2906 1791 
Q 2906 2416 2648 2759 
Q 2391 3103 1925 3103 
Q 1463 3103 1205 2759 
Q 947 2416 947 1791 
Q 947 1169 1205 825 
Q 1463 481 1925 481 
Q 2391 481 2648 825 
Q 2906 1169 2906 1791 
z
M 3481 434 
Q 3481 -459 3084 -895 
Q 2688 -1331 1869 -1331 
Q 1566 -1331 1297 -1286 
Q 1028 -1241 775 -1147 
L 775 -588 
Q 1028 -725 1275 -790 
Q 1522 -856 1778 -856 
Q 2344 -856 2625 -561 
Q 2906 -266 2906 331 
L 2906 616 
Q 2728 306 2450 153 
Q 2172 0 1784 0 
Q 1141 0 747 490 
Q 353 981 353 1791 
Q 353 2603 747 3093 
Q 1141 3584 1784 3584 
Q 2172 3584 2450 3431 
Q 2728 3278 2906 2969 
L 2906 3500 
L 3481 3500 
L 3481 434 
z
" transform="scale(0.015625)"/>
       <path id="DejaVuSans-31" d="M 794 531 
L 1825 531 
L 1825 4091 
L 703 3866 
L 703 4441 
L 1819 4666 
L 2450 4666 
L 2450 531 
L 3481 531 
L 3481 0 
L 794 0 
L 794 531 
z
" transform="scale(0.015625)"/>
       <path id="DejaVuSans-20" transform="scale(0.015625)"/>
       <path id="DejaVuSans-66" d="M 2375 4863 
L 2375 4384 
L 1825 4384 
Q 1516 4384 1395 4259 
Q 1275 4134 1275 3809 
L 1275 3500 
L 2222 3500 
L 2222 3053 
L 1275 3053 
L 1275 0 
L 697 0 
L 697 3053 
L 147 3053 
L 147 3500 
L 697 3500 
L 697 3744 
Q 697 4328 969 4595 
Q 1241 4863 1831 4863 
L 2375 4863 
z
" transform="scale(0.015625)"/>
       <path id="DejaVuSans-44" d="M 1259 4147 
L 1259 519 
L 2022 519 
Q 2988 519 3436 956 
Q 3884 1394 3884 2338 
Q 3884 3275 3436 3711 
Q 2988 4147 2022 4147 
L 1259 4147 
z
M 628 4666 
L 1925 4666 
Q 3281 4666 3915 4102 
Q 4550 3538 4550 2338 
Q 4550 1131 3912 565 
Q 3275 0 1925 0 
L 628 0 
L 628 4666 
z
" transform="scale(0.015625)"/>
      </defs>
      <use xlink:href="#DejaVuSans-6c"/>
      <use xlink:href="#DejaVuSans-6f" x="27.783203"/>
      <use xlink:href="#DejaVuSans-67" x="88.964844"/>
      <use xlink:href="#DejaVuSans-31" x="152.441406"/>
      <use xlink:href="#DejaVuSans-30" x="216.064453"/>
      <use xlink:href="#DejaVuSans-20" x="279.6875"/>
      <use xlink:href="#DejaVuSans-6f" x="311.474609"/>
      <use xlink:href="#DejaVuSans-66" x="372.65625"/>
      <use xlink:href="#DejaVuSans-20" x="407.861328"/>
      <use xlink:href="#DejaVuSans-44" x="439.648438"/>
      <use xlink:href="#DejaVuSans-66" x="516.650391"/>
     </g>
    </g>
   </g>
   <g id="matplotlib.axis_2">
    <g id="ytick_1">
     <g id="line2d_9">
      <path d="M 0 293.76 
L 460.8 293.76 
" clip-path="url(#p4542082345)" style="fill: none; stroke: #b0b0b0; stroke-width: 0.8; stroke-linecap: square"/>
     </g>
     <g id="line2d_10">
      <defs>
       <path id="md4f61c3263" d="M 0 0 
L -3.5 0 
" style="stroke: #000000; stroke-width: 0.8"/>
      </defs>
      <g>
       <use xlink:href="#md4f61c3263" x="0" y="293.76" style="stroke: #000000; stroke-width: 0.8"/>
      </g>
     </g>
    </g>
    <g id="ytick_2">
     <g id="line2d_11">
      <path d="M 0 236.274059 
L 460.8 236.274059 
" clip-path="url(#p4542082345)" style="fill: none; stroke: #b0b0b0; stroke-width: 0.8; stroke-linecap: square"/>
     </g>
     <g id="line2d_12">
      <g>
       <use xlink:href="#md4f61c3263" x="0" y="236.274059" style="stroke: #000000; stroke-width: 0.8"/>
      </g>
     </g>
    </g>
    <g id="ytick_3">
     <g id="line2d_13">
      <path d="M 0 178.788119 
L 460.8 178.788119 
" clip-path="url(#p4542082345)" style="fill: none; stroke: #b0b0b0; stroke-width: 0.8; stroke-linecap: square"/>
     </g>
     <g id="line2d_14">
      <g>
       <use xlink:href="#md4f61c3263" x="0" y="178.788119" style="stroke: #000000; stroke-width: 0.8"/>
      </g>
     </g>
    </g>
    <g id="ytick_4">
     <g id="line2d_15">
      <path d="M 0 121.302178 
L 460.8 121.302178 
" clip-path="url(#p4542082345)" style="fill: none; stroke: #b0b0b0; stroke-width: 0.8; stroke-linecap: square"/>
     </g>
     <g id="line2d_16">
      <g>
       <use xlink:href="#md4f61c3263" x="0" y="121.302178" style="stroke: #000000; stroke-width: 0.8"/>
      </g>
     </g>
    </g>
    <g id="ytick_5">
     <g id="line2d_17">
      <path d="M 0 63.816238 
L 460.8 63.816238 
" clip-path="url(#p4542082345)" style="fill: none; stroke: #b0b0b0; stroke-width: 0.8; stroke-linecap: square"/>
     </g>
     <g id="line2d_18">
      <g>
       <use xlink:href="#md4f61c3263" x="0" y="63.816238" style="stroke: #000000; stroke-width: 0.8"/>
      </g>
     </g>
    </g>
    <g id="ytick_6">
     <g id="line2d_19">
      <path d="M 0 6.330297 
L 460.8 6.330297 
" clip-path="url(#p4542082345)" style="fill: none; stroke: #b0b0b0; stroke-width: 0.8; stroke-linecap: square"/>
     </g>
     <g id="line2d_20">
      <g>
       <use xlink:href="#md4f61c3263" x="0" y="6.330297" style="stroke: #000000; stroke-width: 0.8"/>
      </g>
     </g>
    </g>
   </g>
   <g id="line2d_21">
    <path d="M -1 286.574257 
L -0.111508 286.574257 
L -0.111508 280.186931 
L 90.225248 280.186931 
L 90.225248 279.388515 
L 134.326915 279.388515 
L 134.326915 278.590099 
L 136.722066 278.590099 
L 136.722066 277.791683 
L 137.23313 277.791683 
L 137.23313 276.993267 
L 137.575994 276.993267 
L 137.575994 276.194851 
L 137.916131 276.194851 
L 137.916131 275.396436 
L 138.554925 275.396436 
L 138.554925 274.59802 
L 157.455938 274.59802 
L 157.455938 273.799604 
L 162.182055 273.799604 
L 162.182055 273.001188 
L 162.318777 273.001188 
L 162.318777 272.202772 
L 162.453993 272.202772 
L 162.453993 271.404356 
L 162.679434 271.404356 
L 162.683267 269.807525 
L 162.970364 269.807525 
L 162.978491 268.210693 
L 166.939651 268.210693 
L 166.939651 267.412277 
L 176.136083 267.412277 
L 176.136083 266.613861 
L 187.935749 266.613861 
L 187.935749 265.815446 
L 190.800091 265.815446 
L 190.800091 259.428119 
L 190.938624 259.428119 
L 190.938624 258.629703 
L 194.487216 258.629703 
L 194.487216 257.831287 
L 201.249542 257.831287 
L 201.249542 257.032871 
L 202.190591 257.032871 
L 202.190591 256.234455 
L 203.459946 256.234455 
L 203.459946 255.43604 
L 208.010196 255.43604 
L 208.010196 254.637624 
L 210.17154 254.637624 
L 210.276165 253.040792 
L 212.125545 253.040792 
L 212.125545 252.242376 
L 213.136534 252.242376 
L 213.136534 251.44396 
L 213.831459 251.44396 
L 213.831459 250.645545 
L 214.561811 250.645545 
L 214.561811 249.847129 
L 214.732259 249.847129 
L 214.732259 249.048713 
L 215.435292 249.048713 
L 215.435292 248.250297 
L 216.060293 248.250297 
L 216.060293 247.451881 
L 217.498833 247.451881 
L 217.521376 245.85505 
L 217.95376 245.85505 
L 218.02127 244.258218 
L 218.413014 244.258218 
L 218.504981 241.86297 
L 218.792603 241.86297 
L 218.878834 240.266139 
L 219.006356 240.266139 
L 219.006356 239.467723 
L 219.26763 239.467723 
L 219.368588 237.072475 
L 219.727831 237.072475 
L 219.727831 236.274059 
L 220.241761 236.274059 
L 220.241761 235.475644 
L 220.549274 235.475644 
L 220.65377 233.080396 
L 220.938412 233.080396 
L 220.976364 231.483564 
L 221.068114 231.483564 
L 221.068114 230.685149 
L 222.261103 230.685149 
L 222.261103 229.886733 
L 222.757433 229.886733 
L 222.757433 229.088317 
L 223.211424 229.088317 
L 223.211424 228.289901 
L 223.417249 228.289901 
L 223.527617 226.693069 
L 223.694116 226.693069 
L 223.787967 225.096238 
L 224.494587 225.096238 
L 224.494587 223.499406 
L 224.67427 223.499406 
L 224.67427 222.70099 
L 224.998301 222.70099 
L 224.998301 221.902574 
L 225.172815 221.902574 
L 225.172815 221.104158 
L 225.664196 221.104158 
L 225.664196 220.305743 
L 225.966714 220.305743 
L 225.966714 219.507327 
L 226.192274 219.507327 
L 226.192274 218.708911 
L 226.317837 218.708911 
L 226.351725 217.112079 
L 226.88961 217.112079 
L 226.944759 215.515248 
L 227.351532 215.515248 
L 227.351532 214.716832 
L 227.476 214.716832 
L 227.56509 213.12 
L 228.143258 213.12 
L 228.143258 212.321584 
L 228.382386 212.321584 
L 228.489702 210.724752 
L 229.84061 210.724752 
L 229.84061 209.926337 
L 230.331087 209.926337 
L 230.331087 209.127921 
L 230.616862 209.127921 
L 230.6169 207.531089 
L 231.200325 207.531089 
L 231.203236 205.934257 
L 231.401088 205.934257 
L 231.476897 204.337426 
L 231.965774 204.337426 
L 231.965774 203.53901 
L 232.420936 203.53901 
L 232.420936 202.740594 
L 233.164629 202.740594 
L 233.164629 201.942178 
L 233.317901 201.942178 
L 233.317901 201.143762 
L 233.465912 201.143762 
L 233.553932 199.546931 
L 233.736088 199.546931 
L 233.736088 198.748515 
L 234.488588 198.748515 
L 234.568864 197.151683 
L 235.458193 197.151683 
L 235.458193 196.353267 
L 235.780342 196.353267 
L 235.780342 195.554851 
L 236.351847 195.554851 
L 236.448972 193.95802 
L 236.654198 193.95802 
L 236.654198 193.159604 
L 236.853658 193.159604 
L 236.853658 192.361188 
L 237.416961 192.361188 
L 237.42243 190.764356 
L 237.666299 190.764356 
L 237.666299 189.965941 
L 238.302128 189.965941 
L 238.302128 189.167525 
L 238.554213 189.167525 
L 238.554213 188.369109 
L 238.776037 188.369109 
L 238.837251 186.772277 
L 239.369647 186.772277 
L 239.369647 185.973861 
L 239.586793 185.973861 
L 239.586793 185.175446 
L 239.810112 185.175446 
L 239.810112 184.37703 
L 240.752735 184.37703 
L 240.759702 182.780198 
L 241.340361 182.780198 
L 241.340361 181.981782 
L 241.473372 181.981782 
L 241.514685 180.38495 
L 241.765248 180.38495 
L 241.803409 178.788119 
L 241.982975 178.788119 
L 241.99221 177.191287 
L 242.106398 177.191287 
L 242.106398 176.392871 
L 242.324338 176.392871 
L 242.324338 175.594455 
L 242.499207 175.594455 
L 242.602704 173.997624 
L 242.676709 173.997624 
L 242.69205 172.400792 
L 243.109786 172.400792 
L 243.212186 170.80396 
L 243.496355 170.80396 
L 243.496355 170.005545 
L 243.623955 170.005545 
L 243.623955 169.207129 
L 244.473185 169.207129 
L 244.473185 168.408713 
L 244.596941 168.408713 
L 244.675163 166.811881 
L 244.828789 166.811881 
L 244.828789 166.013465 
L 245.980549 166.013465 
L 246.048484 164.416634 
L 246.278879 164.416634 
L 246.349724 162.819802 
L 246.442815 162.819802 
L 246.442815 162.021386 
L 246.91979 162.021386 
L 246.91979 161.22297 
L 247.266353 161.22297 
L 247.336804 158.827723 
L 247.380278 158.827723 
L 247.380278 158.029307 
L 247.693689 158.029307 
L 247.693689 157.230891 
L 248.58279 157.230891 
L 248.600974 155.634059 
L 248.850141 155.634059 
L 248.864193 154.037228 
L 248.971287 154.037228 
L 249.072248 152.440396 
L 249.427382 152.440396 
L 249.500941 150.843564 
L 249.565592 150.843564 
L 249.645793 149.246733 
L 249.801466 149.246733 
L 249.801466 148.448317 
L 250.248426 148.448317 
L 250.248426 147.649901 
L 250.432588 147.649901 
L 250.533797 146.053069 
L 251.162452 146.053069 
L 251.162452 145.254653 
L 251.292021 145.254653 
L 251.292021 144.456238 
L 251.466516 144.456238 
L 251.466516 143.657822 
L 252.563827 143.657822 
L 252.563827 142.859406 
L 252.702451 142.859406 
L 252.795026 141.262574 
L 253.223396 141.262574 
L 253.319219 139.665743 
L 253.451767 139.665743 
L 253.451767 138.867327 
L 253.708703 138.867327 
L 253.708703 138.068911 
L 253.889456 138.068911 
L 253.889456 137.270495 
L 254.252624 137.270495 
L 254.348758 135.673663 
L 254.65507 135.673663 
L 254.65507 134.875248 
L 254.998083 134.875248 
L 255.038738 133.278416 
L 255.127256 133.278416 
L 255.170678 130.883168 
L 255.271443 130.883168 
L 255.271443 130.084752 
L 255.428975 130.084752 
L 255.428975 129.286337 
L 255.615248 129.286337 
L 255.643802 126.891089 
L 255.752082 126.891089 
L 255.758407 125.294257 
L 255.91439 125.294257 
L 255.9858 123.697426 
L 256.529918 123.697426 
L 256.529918 122.89901 
L 256.711845 122.89901 
L 256.768028 121.302178 
L 257.150192 121.302178 
L 257.173547 119.705347 
L 257.632338 119.705347 
L 257.735126 118.108515 
L 258.369105 118.108515 
L 258.369105 117.310099 
L 258.484694 117.310099 
L 258.484694 116.511683 
L 258.681866 116.511683 
L 258.681866 115.713267 
L 258.925605 115.713267 
L 258.925605 114.914851 
L 259.454905 114.914851 
L 259.489412 113.31802 
L 259.914528 113.31802 
L 259.914528 112.519604 
L 260.070049 112.519604 
L 260.170515 109.325941 
L 260.181178 109.325941 
L 260.266976 106.132277 
L 260.328926 106.132277 
L 260.40531 99.74495 
L 260.460917 99.74495 
L 260.460917 98.946535 
L 261.171792 98.946535 
L 261.250792 97.349703 
L 261.370524 97.349703 
L 261.370524 96.551287 
L 262.025909 96.551287 
L 262.025909 95.752871 
L 262.631828 95.752871 
L 262.631828 94.954455 
L 264.277769 94.954455 
L 264.277769 94.15604 
L 265.108626 94.15604 
L 265.1312 92.559208 
L 265.720378 92.559208 
L 265.720378 91.760792 
L 266.927191 91.760792 
L 266.927191 90.962376 
L 268.409393 90.962376 
L 268.409393 90.16396 
L 269.027227 90.16396 
L 269.041778 88.567129 
L 269.34302 88.567129 
L 269.433873 86.970297 
L 269.9165 86.970297 
L 269.9165 86.171881 
L 270.030612 86.171881 
L 270.030656 84.57505 
L 270.32951 84.57505 
L 270.32951 83.776634 
L 270.939309 83.776634 
L 270.939309 82.978218 
L 271.44668 82.978218 
L 271.44668 82.179802 
L 271.735113 82.179802 
L 271.735113 81.381386 
L 272.947469 81.381386 
L 272.947469 80.58297 
L 273.063585 80.58297 
L 273.063585 79.784554 
L 273.574836 79.784554 
L 273.574836 78.986139 
L 273.70884 78.986139 
L 273.737637 77.389307 
L 273.871332 77.389307 
L 273.871332 76.590891 
L 274.03132 76.590891 
L 274.110631 74.195644 
L 274.18932 74.195644 
L 274.215418 72.598812 
L 274.649898 72.598812 
L 274.739682 71.00198 
L 274.799356 71.00198 
L 274.874927 69.405149 
L 274.971123 69.405149 
L 274.995476 67.009901 
L 275.259629 67.009901 
L 275.259629 66.211485 
L 275.416961 66.211485 
L 275.416961 65.413069 
L 275.994878 65.413069 
L 276.105399 63.017822 
L 276.280209 63.017822 
L 276.280209 62.219406 
L 276.558431 62.219406 
L 276.579677 60.622574 
L 276.909067 60.622574 
L 276.996645 58.227327 
L 277.034475 58.227327 
L 277.034475 57.428911 
L 277.171503 57.428911 
L 277.171503 56.630495 
L 277.32865 56.630495 
L 277.32865 55.832079 
L 277.719373 55.832079 
L 277.803978 54.235248 
L 278.078618 54.235248 
L 278.078618 53.436832 
L 278.225265 53.436832 
L 278.297942 51.84 
L 278.392233 51.84 
L 278.392233 51.041584 
L 278.583607 51.041584 
L 278.583607 50.243168 
L 278.706536 50.243168 
L 278.758877 48.646337 
L 279.19357 48.646337 
L 279.19357 47.847921 
L 279.707988 47.847921 
L 279.707988 47.049505 
L 279.99181 47.049505 
L 280.10008 45.452673 
L 280.196836 45.452673 
L 280.298468 43.057426 
L 280.889486 43.057426 
L 280.889486 42.25901 
L 281.31906 42.25901 
L 281.31906 41.460594 
L 281.448009 41.460594 
L 281.448009 40.662178 
L 281.574569 40.662178 
L 281.574569 39.863762 
L 281.825298 39.863762 
L 281.825298 39.065347 
L 282.040366 39.065347 
L 282.040366 38.266931 
L 282.357929 38.266931 
L 282.453718 36.670099 
L 282.548798 36.670099 
L 282.548798 35.871683 
L 282.794122 35.871683 
L 282.794122 35.073267 
L 283.583422 35.073267 
L 283.673396 33.476436 
L 283.72551 33.476436 
L 283.729093 31.879604 
L 284.070332 31.879604 
L 284.070332 31.081188 
L 285.384235 31.081188 
L 285.384235 30.282772 
L 288.996651 30.282772 
L 288.996651 29.484356 
L 294.090372 29.484356 
L 294.090372 28.685941 
L 294.475853 28.685941 
L 294.475853 27.887525 
L 298.01908 27.887525 
L 298.01908 27.089109 
L 299.538615 27.089109 
L 299.538615 26.290693 
L 299.680625 26.290693 
L 299.680625 25.492277 
L 299.802423 25.492277 
L 299.802423 24.693861 
L 302.194587 24.693861 
L 302.278405 23.09703 
L 302.627195 23.09703 
L 302.733308 20.701782 
L 303.54461 20.701782 
L 303.54461 19.903366 
L 304.827772 19.903366 
L 304.900716 18.306535 
L 305.626337 18.306535 
L 305.626337 17.508119 
L 305.969309 17.508119 
L 305.969309 16.709703 
L 306.198868 16.709703 
L 306.198868 15.911287 
L 306.451552 15.911287 
L 306.451552 15.112871 
L 306.957858 15.112871 
L 307.032859 13.51604 
L 307.358679 13.51604 
L 307.358679 12.717624 
L 308.180356 12.717624 
L 308.180356 11.919208 
L 308.423748 11.919208 
L 308.423748 11.120792 
L 308.73408 11.120792 
L 308.804677 8.725545 
L 310.104017 8.725545 
L 310.104017 7.927129 
L 312.999186 7.927129 
L 312.999186 7.128713 
L 316.954251 7.128713 
L 316.954251 6.330297 
L 316.954251 6.330297 
L 460.8 6.330297 
L 460.8 6.330297 
" clip-path="url(#p4542082345)" style="fill: none; stroke: #ff0000; stroke-width: 3; stroke-linecap: square"/>
   </g>
   <g id="line2d_22">
    <path d="M 190.800091 293.76 
L 190.800091 281.783762 
L 223.614619 281.783762 
L 223.614619 280.985347 
L 225.841396 280.985347 
L 225.841396 280.186931 
L 226.646986 280.186931 
L 226.646986 279.388515 
L 229.572438 279.388515 
L 229.572438 278.590099 
L 230.771618 278.590099 
L 230.834593 276.993267 
L 231.344785 276.993267 
L 231.344785 276.194851 
L 233.249171 276.194851 
L 233.351838 274.59802 
L 233.752046 274.59802 
L 233.752046 273.799604 
L 234.041268 273.799604 
L 234.041268 273.001188 
L 234.757562 273.001188 
L 234.757562 272.202772 
L 234.969043 272.202772 
L 234.969043 271.404356 
L 235.370344 271.404356 
L 235.370344 270.605941 
L 235.581358 270.605941 
L 235.581358 269.807525 
L 236.001321 269.807525 
L 236.001321 269.009109 
L 236.227719 269.009109 
L 236.227719 268.210693 
L 236.440371 268.210693 
L 236.440371 267.412277 
L 236.60277 267.412277 
L 236.658215 265.815446 
L 236.76837 265.815446 
L 236.76837 265.01703 
L 238.370811 265.01703 
L 238.481733 263.420198 
L 239.131433 263.420198 
L 239.131433 262.621782 
L 240.184765 262.621782 
L 240.184765 261.823366 
L 241.160465 261.823366 
L 241.160465 261.02495 
L 241.698447 261.02495 
L 241.698447 260.226535 
L 241.843567 260.226535 
L 241.854505 258.629703 
L 245.206973 258.629703 
L 245.206973 257.831287 
L 245.539315 257.831287 
L 245.539315 257.032871 
L 246.329713 257.032871 
L 246.329713 256.234455 
L 246.490323 256.234455 
L 246.584691 254.637624 
L 248.344807 254.637624 
L 248.432101 252.242376 
L 249.808657 252.242376 
L 249.831768 250.645545 
L 250.007489 250.645545 
L 250.007489 249.847129 
L 250.170184 249.847129 
L 250.216746 248.250297 
L 250.396278 248.250297 
L 250.432588 246.653465 
L 250.997117 246.653465 
L 250.997117 245.85505 
L 251.162452 245.85505 
L 251.162452 245.056634 
L 251.466516 245.056634 
L 251.466516 244.258218 
L 251.734934 244.258218 
L 251.734934 243.459802 
L 252.217556 243.459802 
L 252.217556 242.661386 
L 252.504384 242.661386 
L 252.504384 241.86297 
L 252.826211 241.86297 
L 252.904607 239.467723 
L 252.973187 239.467723 
L 253.02125 237.870891 
L 253.223396 237.870891 
L 253.235532 236.274059 
L 253.699117 236.274059 
L 253.787816 234.677228 
L 253.852706 234.677228 
L 253.955011 233.080396 
L 254.014913 233.080396 
L 254.041986 231.483564 
L 254.129393 231.483564 
L 254.229327 229.088317 
L 254.763695 229.088317 
L 254.800928 227.491485 
L 254.894304 227.491485 
L 255.003746 224.297822 
L 255.046184 224.297822 
L 255.155792 221.104158 
L 255.163584 221.104158 
L 255.242889 218.708911 
L 255.326468 218.708911 
L 255.428975 214.716832 
L 255.482177 214.716832 
L 255.583089 210.724752 
L 255.614155 210.724752 
L 255.685497 206.732673 
L 255.803802 206.732673 
L 255.9144 202.740594 
L 256.199187 202.740594 
L 256.199187 201.942178 
L 256.670363 201.942178 
L 256.725435 200.345347 
L 257.025149 200.345347 
L 257.025149 199.546931 
L 257.735126 199.546931 
L 257.735126 198.748515 
L 258.109839 198.748515 
L 258.136505 197.151683 
L 258.816636 197.151683 
L 258.892533 194.756436 
L 259.228072 194.756436 
L 259.228072 193.95802 
L 259.406036 193.95802 
L 259.514004 192.361188 
L 259.528876 192.361188 
L 259.528876 191.562772 
L 259.673944 191.562772 
L 259.673944 190.764356 
L 259.968048 190.764356 
L 260.063459 188.369109 
L 260.081529 188.369109 
L 260.185494 182.780198 
L 260.203611 182.780198 
L 260.291702 177.989703 
L 261.828768 177.989703 
L 261.828768 177.191287 
L 262.023849 177.191287 
L 262.023849 176.392871 
L 262.158963 176.392871 
L 262.237181 174.79604 
L 262.613456 174.79604 
L 262.613456 173.997624 
L 264.303746 173.997624 
L 264.303746 173.199208 
L 267.981072 173.199208 
L 267.981072 172.400792 
L 268.647915 172.400792 
L 268.647915 171.602376 
L 268.923065 171.602376 
L 269.028825 170.005545 
L 269.079447 170.005545 
L 269.15176 168.408713 
L 269.328448 168.408713 
L 269.328448 167.610297 
L 269.544907 167.610297 
L 269.569672 165.21505 
L 270.197725 165.21505 
L 270.197725 164.416634 
L 270.430961 164.416634 
L 270.430961 163.618218 
L 270.788602 163.618218 
L 270.788602 162.819802 
L 270.937268 162.819802 
L 270.937268 162.021386 
L 271.367756 162.021386 
L 271.367756 161.22297 
L 273.434919 161.22297 
L 273.437438 149.246733 
L 274.232919 149.246733 
L 274.232919 148.448317 
L 274.852353 148.448317 
L 274.852353 147.649901 
L 275.006046 147.649901 
L 275.006046 146.851485 
L 275.706827 146.851485 
L 275.726482 145.254653 
L 276.407606 145.254653 
L 276.407606 144.456238 
L 277.288873 144.456238 
L 277.288873 143.657822 
L 277.813159 143.657822 
L 277.813159 142.859406 
L 278.077847 142.859406 
L 278.077847 142.06099 
L 278.202245 142.06099 
L 278.304239 140.464158 
L 278.474404 140.464158 
L 278.565555 138.068911 
L 278.628345 138.068911 
L 278.700775 135.673663 
L 278.806281 135.673663 
L 278.806281 134.875248 
L 279.178683 134.875248 
L 279.178683 134.076832 
L 279.532864 134.076832 
L 279.532864 133.278416 
L 279.658759 133.278416 
L 279.658759 132.48 
L 279.820313 132.48 
L 279.820313 131.681584 
L 279.940087 131.681584 
L 279.950805 130.084752 
L 280.169896 130.084752 
L 280.265101 126.891089 
L 280.313405 126.891089 
L 280.378124 125.294257 
L 280.839372 125.294257 
L 280.880158 123.697426 
L 281.068039 123.697426 
L 281.164758 121.302178 
L 281.508002 121.302178 
L 281.508002 120.503762 
L 281.774225 120.503762 
L 281.774225 119.705347 
L 281.907524 119.705347 
L 281.907524 118.906931 
L 282.069193 118.906931 
L 282.069193 118.108515 
L 282.309724 118.108515 
L 282.309724 117.310099 
L 282.520226 117.310099 
L 282.537601 115.713267 
L 282.643269 115.713267 
L 282.645148 114.116436 
L 282.810474 114.116436 
L 282.810474 113.31802 
L 283.029549 113.31802 
L 283.029549 112.519604 
L 283.154131 112.519604 
L 283.154131 111.721188 
L 283.558858 111.721188 
L 283.558858 110.922772 
L 283.812193 110.922772 
L 283.812193 110.124356 
L 284.348815 110.124356 
L 284.348815 109.325941 
L 284.526428 109.325941 
L 284.526428 108.527525 
L 285.794737 108.527525 
L 285.794737 107.729109 
L 287.08936 107.729109 
L 287.08936 106.930693 
L 287.242126 106.930693 
L 287.242126 106.132277 
L 287.916206 106.132277 
L 287.916206 105.333861 
L 288.592751 105.333861 
L 288.592751 104.535446 
L 289.634753 104.535446 
L 289.634753 103.73703 
L 289.853286 103.73703 
L 289.853286 102.938614 
L 290.12376 102.938614 
L 290.12376 102.140198 
L 290.747174 102.140198 
L 290.747174 101.341782 
L 291.050523 101.341782 
L 291.050523 100.543366 
L 291.16727 100.543366 
L 291.16727 99.74495 
L 291.340303 99.74495 
L 291.340303 98.946535 
L 291.56203 98.946535 
L 291.56203 98.148119 
L 291.835904 98.148119 
L 291.835904 97.349703 
L 292.191544 97.349703 
L 292.191544 96.551287 
L 292.408762 96.551287 
L 292.444809 94.954455 
L 292.997197 94.954455 
L 292.997197 94.15604 
L 293.180933 94.15604 
L 293.180933 93.357624 
L 293.379191 93.357624 
L 293.379191 92.559208 
L 293.738048 92.559208 
L 293.834395 90.16396 
L 294.646711 90.16396 
L 294.646711 89.365545 
L 308.543372 89.365545 
L 308.543372 88.567129 
L 316.318077 88.567129 
L 316.318142 76.590891 
L 316.982171 76.590891 
L 316.982171 75.792475 
L 320.263514 75.792475 
L 320.263514 74.994059 
L 324.688458 74.994059 
L 324.688458 74.195644 
L 328.088382 74.195644 
L 328.088382 73.397228 
L 329.170999 73.397228 
L 329.170999 72.598812 
L 329.371275 72.598812 
L 329.371275 71.800396 
L 329.672612 71.800396 
L 329.672612 71.00198 
L 330.039007 71.00198 
L 330.039007 70.203564 
L 331.163261 70.203564 
L 331.163261 69.405149 
L 331.321966 69.405149 
L 331.321966 68.606733 
L 331.934481 68.606733 
L 331.934481 67.808317 
L 332.558452 67.808317 
L 332.582487 66.211485 
L 333.271296 66.211485 
L 333.271296 65.413069 
L 333.694757 65.413069 
L 333.694757 64.614653 
L 338.215635 64.614653 
L 338.215635 63.816238 
L 341.27952 63.816238 
L 341.27952 63.017822 
L 342.608158 63.017822 
L 342.608158 62.219406 
L 345.939274 62.219406 
L 345.939274 61.42099 
L 346.35505 61.42099 
L 346.35505 60.622574 
L 346.681402 60.622574 
L 346.681402 59.824158 
L 348.364652 59.824158 
L 348.364652 59.025743 
L 348.543397 59.025743 
L 348.622354 57.428911 
L 349.268519 57.428911 
L 349.268519 56.630495 
L 349.972948 56.630495 
L 349.972948 55.832079 
L 350.354029 55.832079 
L 350.354029 55.033663 
L 353.249047 55.033663 
L 353.249047 54.235248 
L 353.953662 54.235248 
L 353.953662 53.436832 
L 355.105065 53.436832 
L 355.105065 52.638416 
L 355.790264 52.638416 
L 355.790264 51.84 
L 358.149459 51.84 
L 358.149459 51.041584 
L 361.052988 51.041584 
L 361.052988 50.243168 
L 362.789574 50.243168 
L 362.789574 49.444752 
L 368.484066 49.444752 
L 368.484066 48.646337 
L 368.996939 48.646337 
L 368.996939 47.847921 
L 370.372227 47.847921 
L 370.372227 47.049505 
L 371.152328 47.049505 
L 371.152328 46.251089 
L 371.72576 46.251089 
L 371.72576 45.452673 
L 373.093098 45.452673 
L 373.093098 44.654257 
L 373.686353 44.654257 
L 373.686353 43.855842 
L 374.337008 43.855842 
L 374.337008 43.057426 
L 374.682483 43.057426 
L 374.682483 42.25901 
L 375.061747 42.25901 
L 375.061747 41.460594 
L 379.055912 41.460594 
L 379.055912 40.662178 
L 380.875976 40.662178 
L 380.875976 39.863762 
L 381.24186 39.863762 
L 381.24186 39.065347 
L 382.031489 39.065347 
L 382.073647 37.468515 
L 382.677606 37.468515 
L 382.677606 36.670099 
L 383.276096 36.670099 
L 383.31605 35.073267 
L 383.402597 35.073267 
L 383.502105 33.476436 
L 383.72288 33.476436 
L 383.72288 32.67802 
L 385.042523 32.67802 
L 385.042523 31.879604 
L 385.713528 31.879604 
L 385.713528 31.081188 
L 386.061405 31.081188 
L 386.061405 30.282772 
L 386.31573 30.282772 
L 386.31573 29.484356 
L 386.782808 29.484356 
L 386.782808 28.685941 
L 387.894474 28.685941 
L 387.894474 27.887525 
L 388.022947 27.887525 
L 388.022947 27.089109 
L 388.421849 27.089109 
L 388.421849 26.290693 
L 388.905104 26.290693 
L 388.905104 25.492277 
L 389.862958 25.492277 
L 389.862958 24.693861 
L 390.053471 24.693861 
L 390.053471 23.895446 
L 391.011447 23.895446 
L 391.011447 23.09703 
L 391.852787 23.09703 
L 391.852787 22.298614 
L 392.587867 22.298614 
L 392.587867 21.500198 
L 394.618707 21.500198 
L 394.618707 20.701782 
L 394.73013 20.701782 
L 394.73013 19.903366 
L 394.890178 19.903366 
L 394.890178 19.10495 
L 399.340661 19.10495 
L 399.340661 18.306535 
L 408.29371 18.306535 
L 408.29371 17.508119 
L 411.49224 17.508119 
L 411.586695 15.911287 
L 416.152855 15.911287 
L 416.152855 15.112871 
L 417.363122 15.112871 
L 417.363122 14.314455 
L 418.152323 14.314455 
L 418.152323 13.51604 
L 420.424298 13.51604 
L 420.424298 12.717624 
L 421.468896 12.717624 
L 421.468896 11.919208 
L 423.545802 11.919208 
L 423.545802 11.120792 
L 424.444118 11.120792 
L 424.444118 10.322376 
L 426.423049 10.322376 
L 426.423049 9.52396 
L 427.008138 9.52396 
L 427.008138 8.725545 
L 428.657204 8.725545 
L 428.657204 7.927129 
L 432.631157 7.927129 
L 432.705271 6.330297 
L 432.705271 6.330297 
L 460.8 6.330297 
L 460.8 6.330297 
" clip-path="url(#p4542082345)" style="fill: none; stroke: #00bfbf; stroke-width: 1.5; stroke-linecap: square"/>
   </g>
   <g id="line2d_23">
    <path d="M 190.800091 293.76 
L 190.800091 281.783762 
L 222.436007 281.783762 
L 222.436007 280.985347 
L 223.614619 280.985347 
L 223.614619 280.186931 
L 223.827891 280.186931 
L 223.827891 279.388515 
L 225.841396 279.388515 
L 225.841396 278.590099 
L 226.566845 278.590099 
L 226.566845 277.791683 
L 228.192248 277.791683 
L 228.238604 276.194851 
L 229.572438 276.194851 
L 229.572438 275.396436 
L 230.078838 275.396436 
L 230.078838 274.59802 
L 230.232031 274.59802 
L 230.232031 273.799604 
L 230.678596 273.799604 
L 230.678596 273.001188 
L 230.795764 273.001188 
L 230.795764 272.202772 
L 232.420936 272.202772 
L 232.420936 271.404356 
L 232.952055 271.404356 
L 232.952055 270.605941 
L 234.041268 270.605941 
L 234.041268 269.807525 
L 234.757562 269.807525 
L 234.757562 269.009109 
L 235.735359 269.009109 
L 235.780342 267.412277 
L 236.255909 267.412277 
L 236.255909 266.613861 
L 236.41574 266.613861 
L 236.447677 265.01703 
L 238.302128 265.01703 
L 238.302128 264.218614 
L 238.481733 264.218614 
L 238.481733 263.420198 
L 238.837251 263.420198 
L 238.837251 262.621782 
L 239.732876 262.621782 
L 239.732876 261.823366 
L 241.160465 261.823366 
L 241.160465 261.02495 
L 241.340361 261.02495 
L 241.340361 260.226535 
L 241.694119 260.226535 
L 241.748283 258.629703 
L 244.577248 258.629703 
L 244.577248 257.831287 
L 245.477299 257.831287 
L 245.477299 257.032871 
L 246.278879 257.032871 
L 246.278879 256.234455 
L 246.490323 256.234455 
L 246.531105 254.637624 
L 247.693689 254.637624 
L 247.693689 253.839208 
L 248.200352 253.839208 
L 248.200352 253.040792 
L 248.359045 253.040792 
L 248.359045 252.242376 
L 248.81781 252.242376 
L 248.81781 251.44396 
L 249.831768 251.44396 
L 249.841803 249.847129 
L 250.007489 249.847129 
L 250.007489 249.048713 
L 250.157438 249.048713 
L 250.170184 247.451881 
L 250.432588 247.451881 
L 250.432588 246.653465 
L 250.717937 246.653465 
L 250.717937 245.85505 
L 250.964068 245.85505 
L 250.964068 245.056634 
L 251.162452 245.056634 
L 251.162452 244.258218 
L 251.466516 244.258218 
L 251.466516 243.459802 
L 252.092381 243.459802 
L 252.092381 242.661386 
L 252.2599 242.661386 
L 252.2599 241.86297 
L 252.397393 241.86297 
L 252.504384 240.266139 
L 252.741109 240.266139 
L 252.777992 237.870891 
L 252.904607 237.870891 
L 252.904607 237.072475 
L 253.223396 237.072475 
L 253.223396 236.274059 
L 253.65933 236.274059 
L 253.73232 234.677228 
L 253.852706 234.677228 
L 253.955011 233.080396 
L 254.014913 233.080396 
L 254.055072 230.685149 
L 254.129393 230.685149 
L 254.177207 229.088317 
L 254.376825 229.088317 
L 254.376825 228.289901 
L 254.761499 228.289901 
L 254.761499 227.491485 
L 254.884778 227.491485 
L 254.991512 225.096238 
L 254.998083 225.096238 
L 255.082679 221.104158 
L 255.149603 221.104158 
L 255.242889 218.708911 
L 255.318506 218.708911 
L 255.428975 214.716832 
L 255.471205 214.716832 
L 255.581307 210.724752 
L 255.610867 210.724752 
L 255.685497 206.732673 
L 255.803802 206.732673 
L 255.91439 202.740594 
L 256.146643 202.740594 
L 256.146643 201.942178 
L 256.627137 201.942178 
L 256.725435 200.345347 
L 257.014385 200.345347 
L 257.014385 199.546931 
L 257.735126 199.546931 
L 257.7612 197.950099 
L 258.109839 197.950099 
L 258.109839 197.151683 
L 258.816636 197.151683 
L 258.879069 194.756436 
L 259.163827 194.756436 
L 259.212685 193.159604 
L 259.406036 193.159604 
L 259.513459 191.562772 
L 259.673944 191.562772 
L 259.673944 190.764356 
L 259.968048 190.764356 
L 260.063459 186.772277 
L 260.081529 186.772277 
L 260.189818 178.788119 
L 260.268196 178.788119 
L 260.268196 177.989703 
L 261.817307 177.989703 
L 261.817307 177.191287 
L 262.023849 177.191287 
L 262.023849 176.392871 
L 262.158963 176.392871 
L 262.237181 174.79604 
L 262.613456 174.79604 
L 262.613456 173.997624 
L 264.303746 173.997624 
L 264.303746 173.199208 
L 267.572809 173.199208 
L 267.572809 172.400792 
L 267.85093 172.400792 
L 267.85093 171.602376 
L 267.981072 171.602376 
L 267.981072 170.80396 
L 268.178992 170.80396 
L 268.178992 170.005545 
L 268.588244 170.005545 
L 268.647915 168.408713 
L 268.923065 168.408713 
L 269.028825 166.811881 
L 269.15176 166.811881 
L 269.15176 166.013465 
L 269.27154 166.013465 
L 269.370092 164.416634 
L 269.411838 164.416634 
L 269.411838 163.618218 
L 269.544907 163.618218 
L 269.544907 162.819802 
L 270.258101 162.819802 
L 270.258101 162.021386 
L 270.495274 162.021386 
L 270.495274 161.22297 
L 273.413374 161.22297 
L 273.427904 149.246733 
L 273.970262 149.246733 
L 273.970262 148.448317 
L 274.541596 148.448317 
L 274.541596 147.649901 
L 274.762056 147.649901 
L 274.762056 146.851485 
L 275.388525 146.851485 
L 275.483554 145.254653 
L 276.363946 145.254653 
L 276.363946 144.456238 
L 277.034475 144.456238 
L 277.034475 143.657822 
L 277.813159 143.657822 
L 277.867301 142.06099 
L 278.032564 142.06099 
L 278.032564 141.262574 
L 278.177688 141.262574 
L 278.177688 140.464158 
L 278.315835 140.464158 
L 278.389594 138.068911 
L 278.474404 138.068911 
L 278.512272 136.472079 
L 278.659066 136.472079 
L 278.694271 134.875248 
L 278.996228 134.875248 
L 278.996228 134.076832 
L 279.365255 134.076832 
L 279.446305 132.48 
L 279.521019 132.48 
L 279.521019 131.681584 
L 279.788751 131.681584 
L 279.885884 130.084752 
L 280.051979 130.084752 
L 280.096955 126.891089 
L 280.196836 126.891089 
L 280.199953 125.294257 
L 280.71865 125.294257 
L 280.71865 124.495842 
L 280.880158 124.495842 
L 280.920315 122.89901 
L 281.135209 122.89901 
L 281.164758 121.302178 
L 281.48301 121.302178 
L 281.48301 120.503762 
L 281.774225 120.503762 
L 281.774225 119.705347 
L 281.907524 119.705347 
L 281.947244 118.108515 
L 282.214302 118.108515 
L 282.214302 117.310099 
L 282.357929 117.310099 
L 282.379022 115.713267 
L 282.516023 115.713267 
L 282.516023 114.914851 
L 282.631467 114.914851 
L 282.631467 114.116436 
L 282.810474 114.116436 
L 282.810474 113.31802 
L 282.976331 113.31802 
L 282.980101 111.721188 
L 283.546582 111.721188 
L 283.64997 110.124356 
L 284.348815 110.124356 
L 284.348815 109.325941 
L 284.526428 109.325941 
L 284.526428 108.527525 
L 285.794737 108.527525 
L 285.794737 107.729109 
L 287.048961 107.729109 
L 287.048961 106.930693 
L 287.242126 106.930693 
L 287.242126 106.132277 
L 287.916206 106.132277 
L 287.916206 105.333861 
L 288.592751 105.333861 
L 288.592751 104.535446 
L 289.634753 104.535446 
L 289.739562 102.938614 
L 290.109445 102.938614 
L 290.109445 102.140198 
L 290.740736 102.140198 
L 290.740736 101.341782 
L 291.020314 101.341782 
L 291.020314 100.543366 
L 291.16727 100.543366 
L 291.16727 99.74495 
L 291.340303 99.74495 
L 291.340303 98.946535 
L 291.56203 98.946535 
L 291.56203 98.148119 
L 291.822145 98.148119 
L 291.822145 97.349703 
L 292.189229 97.349703 
L 292.189229 96.551287 
L 292.40746 96.551287 
L 292.444809 94.954455 
L 292.928177 94.954455 
L 292.928177 94.15604 
L 293.177166 94.15604 
L 293.177166 93.357624 
L 293.379191 93.357624 
L 293.379191 92.559208 
L 293.729366 92.559208 
L 293.834395 90.16396 
L 294.641733 90.16396 
L 294.641733 89.365545 
L 307.966976 89.365545 
L 307.966976 88.567129 
L 315.711788 88.567129 
L 315.754028 79.784554 
L 315.831494 79.784554 
L 315.831494 77.389307 
L 316.021512 77.389307 
L 316.021512 76.590891 
L 316.982171 76.590891 
L 316.982171 75.792475 
L 320.212913 75.792475 
L 320.212913 74.994059 
L 324.688458 74.994059 
L 324.688458 74.195644 
L 328.073846 74.195644 
L 328.073846 73.397228 
L 329.118022 73.397228 
L 329.118022 72.598812 
L 329.319992 72.598812 
L 329.319992 71.800396 
L 329.672612 71.800396 
L 329.672612 71.00198 
L 330.023573 71.00198 
L 330.023573 70.203564 
L 331.139704 70.203564 
L 331.139704 69.405149 
L 331.321966 69.405149 
L 331.321966 68.606733 
L 331.934481 68.606733 
L 331.934481 67.808317 
L 332.558452 67.808317 
L 332.580564 66.211485 
L 333.26711 66.211485 
L 333.26711 65.413069 
L 333.671789 65.413069 
L 333.671789 64.614653 
L 338.167764 64.614653 
L 338.167764 63.816238 
L 341.19201 63.816238 
L 341.19201 63.017822 
L 342.608158 63.017822 
L 342.608158 62.219406 
L 345.384792 62.219406 
L 345.384792 61.42099 
L 345.894521 61.42099 
L 345.894521 60.622574 
L 346.681402 60.622574 
L 346.681402 59.824158 
L 348.364652 59.824158 
L 348.451496 58.227327 
L 348.545448 58.227327 
L 348.545448 57.428911 
L 349.268519 57.428911 
L 349.268519 56.630495 
L 349.972948 56.630495 
L 349.972948 55.832079 
L 350.297227 55.832079 
L 350.297227 55.033663 
L 352.083357 55.033663 
L 352.083357 54.235248 
L 353.801367 54.235248 
L 353.801367 53.436832 
L 355.105065 53.436832 
L 355.105065 52.638416 
L 355.790264 52.638416 
L 355.790264 51.84 
L 358.099577 51.84 
L 358.099577 51.041584 
L 361.052988 51.041584 
L 361.052988 50.243168 
L 362.638739 50.243168 
L 362.638739 49.444752 
L 368.326396 49.444752 
L 368.326396 48.646337 
L 368.996939 48.646337 
L 368.996939 47.847921 
L 370.238772 47.847921 
L 370.238772 47.049505 
L 371.152328 47.049505 
L 371.152328 46.251089 
L 371.598884 46.251089 
L 371.598884 45.452673 
L 373.088499 45.452673 
L 373.088499 44.654257 
L 373.380707 44.654257 
L 373.380707 43.855842 
L 373.738373 43.855842 
L 373.738373 43.057426 
L 374.587446 43.057426 
L 374.587446 42.25901 
L 375.061747 42.25901 
L 375.061747 41.460594 
L 378.955334 41.460594 
L 378.955334 40.662178 
L 380.859941 40.662178 
L 380.891079 39.065347 
L 381.862732 39.065347 
L 381.862732 38.266931 
L 382.028501 38.266931 
L 382.090881 36.670099 
L 382.718341 36.670099 
L 382.718341 35.871683 
L 383.307787 35.871683 
L 383.402597 34.274851 
L 383.502105 34.274851 
L 383.502105 33.476436 
L 383.72288 33.476436 
L 383.72288 32.67802 
L 384.804503 32.67802 
L 384.804503 31.879604 
L 385.482139 31.879604 
L 385.482139 31.081188 
L 386.033951 31.081188 
L 386.033951 30.282772 
L 386.239456 30.282772 
L 386.239456 29.484356 
L 386.594766 29.484356 
L 386.594766 28.685941 
L 387.740393 28.685941 
L 387.740393 27.887525 
L 387.894474 27.887525 
L 387.894474 27.089109 
L 388.092544 27.089109 
L 388.092544 26.290693 
L 388.302147 26.290693 
L 388.302147 25.492277 
L 389.862958 25.492277 
L 389.862958 24.693861 
L 390.04756 24.693861 
L 390.04756 23.895446 
L 390.944958 23.895446 
L 390.944958 23.09703 
L 391.754994 23.09703 
L 391.754994 22.298614 
L 392.118546 22.298614 
L 392.118546 21.500198 
L 394.615544 21.500198 
L 394.679286 19.903366 
L 394.890178 19.903366 
L 394.890178 19.10495 
L 399.340661 19.10495 
L 399.340661 18.306535 
L 408.29371 18.306535 
L 408.29371 17.508119 
L 411.49224 17.508119 
L 411.586695 15.911287 
L 416.152855 15.911287 
L 416.152855 15.112871 
L 417.350817 15.112871 
L 417.350817 14.314455 
L 418.027849 14.314455 
L 418.027849 13.51604 
L 420.41197 13.51604 
L 420.41197 12.717624 
L 421.468896 12.717624 
L 421.468896 11.919208 
L 423.545802 11.919208 
L 423.545802 11.120792 
L 424.240736 11.120792 
L 424.240736 10.322376 
L 426.423049 10.322376 
L 426.423049 9.52396 
L 427.008138 9.52396 
L 427.008138 8.725545 
L 428.657204 8.725545 
L 428.657204 7.927129 
L 432.578557 7.927129 
L 432.578557 7.128713 
L 432.705271 7.128713 
L 432.705271 6.330297 
L 432.705271 6.330297 
L 460.8 6.330297 
L 460.8 6.330297 
" clip-path="url(#p4542082345)" style="fill: none; stroke: #bf00bf; stroke-width: 1.5; stroke-linecap: square"/>
   </g>
   <g id="line2d_24">
    <path d="M -0.111508 293.76 
L -0.111508 287.372673 
L 189.589652 287.372673 
L 189.633959 285.775842 
L 189.757219 285.775842 
L 189.768537 284.17901 
L 189.929802 284.17901 
L 189.929802 283.380594 
L 190.058812 283.380594 
L 190.058812 282.582178 
L 190.200928 282.582178 
L 190.200928 281.783762 
L 190.800091 281.783762 
L 190.800091 275.396436 
L 196.005114 275.396436 
L 196.005114 274.59802 
L 213.022318 274.59802 
L 213.022318 273.799604 
L 213.411698 273.799604 
L 213.457577 272.202772 
L 213.65666 272.202772 
L 213.65666 271.404356 
L 214.379306 271.404356 
L 214.379306 270.605941 
L 215.360565 270.605941 
L 215.360565 269.807525 
L 219.247996 269.807525 
L 219.247996 269.009109 
L 219.497334 269.009109 
L 219.497334 268.210693 
L 219.832325 268.210693 
L 219.832325 267.412277 
L 220.401719 267.412277 
L 220.401719 266.613861 
L 220.760707 266.613861 
L 220.760707 265.815446 
L 221.321392 265.815446 
L 221.370225 263.420198 
L 223.827891 263.420198 
L 223.827891 262.621782 
L 225.805842 262.621782 
L 225.841396 261.02495 
L 226.163466 261.02495 
L 226.163466 260.226535 
L 226.566845 260.226535 
L 226.566845 259.428119 
L 228.238604 259.428119 
L 228.238604 258.629703 
L 229.197329 258.629703 
L 229.237977 257.032871 
L 229.432706 257.032871 
L 229.432706 256.234455 
L 229.572438 256.234455 
L 229.572438 255.43604 
L 230.078838 255.43604 
L 230.078838 254.637624 
L 230.232031 254.637624 
L 230.232031 253.839208 
L 230.861955 253.839208 
L 230.861955 253.040792 
L 231.021852 253.040792 
L 231.110636 251.44396 
L 231.200325 251.44396 
L 231.200325 250.645545 
L 231.474205 250.645545 
L 231.491662 249.048713 
L 231.965774 249.048713 
L 231.965774 248.250297 
L 232.420936 248.250297 
L 232.420936 247.451881 
L 232.920352 247.451881 
L 232.994467 245.056634 
L 234.551729 245.056634 
L 234.551729 244.258218 
L 234.757562 244.258218 
L 234.757562 243.459802 
L 235.409761 243.459802 
L 235.409761 242.661386 
L 235.780342 242.661386 
L 235.780342 241.86297 
L 236.173062 241.86297 
L 236.278503 240.266139 
L 236.384272 240.266139 
L 236.384272 239.467723 
L 236.504684 239.467723 
L 236.504684 238.669307 
L 238.007024 238.669307 
L 238.069243 237.072475 
L 238.302128 237.072475 
L 238.302128 236.274059 
L 238.837251 236.274059 
L 238.837251 235.475644 
L 239.489254 235.475644 
L 239.489254 234.677228 
L 240.153843 234.677228 
L 240.153843 233.878812 
L 240.310098 233.878812 
L 240.310098 233.080396 
L 240.752735 233.080396 
L 240.752735 232.28198 
L 241.215774 232.28198 
L 241.215774 231.483564 
L 241.340361 231.483564 
L 241.340361 230.685149 
L 241.477188 230.685149 
L 241.477188 229.886733 
L 241.771515 229.886733 
L 241.850421 227.491485 
L 242.475736 227.491485 
L 242.538763 225.096238 
L 243.364946 225.096238 
L 243.364946 224.297822 
L 243.637984 224.297822 
L 243.638896 222.70099 
L 243.782535 222.70099 
L 243.80883 221.104158 
L 244.227675 221.104158 
L 244.227675 220.305743 
L 245.392556 220.305743 
L 245.477299 218.708911 
L 245.659547 218.708911 
L 245.659547 217.910495 
L 246.278879 217.910495 
L 246.278879 217.112079 
L 246.407642 217.112079 
L 246.407642 216.313663 
L 246.531105 216.313663 
L 246.531105 215.515248 
L 246.91979 215.515248 
L 246.970307 213.918416 
L 247.539333 213.918416 
L 247.539333 213.12 
L 247.677063 213.12 
L 247.693689 211.523168 
L 248.012788 211.523168 
L 248.012788 210.724752 
L 248.501782 210.724752 
L 248.592825 209.127921 
L 248.694899 209.127921 
L 248.694899 208.329505 
L 248.992405 208.329505 
L 248.992405 207.531089 
L 249.797248 207.531089 
L 249.871611 205.135842 
L 250.007489 205.135842 
L 250.007489 204.337426 
L 250.170184 204.337426 
L 250.170184 203.53901 
L 250.432588 203.53901 
L 250.432588 202.740594 
L 250.870286 202.740594 
L 250.887049 201.143762 
L 251.162452 201.143762 
L 251.162452 200.345347 
L 251.466516 200.345347 
L 251.466516 199.546931 
L 251.590641 199.546931 
L 251.590641 198.748515 
L 252.092381 198.748515 
L 252.092381 197.950099 
L 252.345203 197.950099 
L 252.345203 197.151683 
L 252.504384 197.151683 
L 252.504384 196.353267 
L 252.853144 196.353267 
L 252.853144 195.554851 
L 253.223396 195.554851 
L 253.26346 193.95802 
L 253.594039 193.95802 
L 253.594039 193.159604 
L 253.999386 193.159604 
L 253.999386 192.361188 
L 254.284197 192.361188 
L 254.284197 191.562772 
L 254.721659 191.562772 
L 254.721659 190.764356 
L 254.998083 190.764356 
L 255.038738 189.167525 
L 255.170678 189.167525 
L 255.170678 188.369109 
L 255.325209 188.369109 
L 255.428975 186.772277 
L 255.575268 186.772277 
L 255.658533 183.578614 
L 255.809176 183.578614 
L 255.91439 181.981782 
L 255.9858 181.981782 
L 255.9858 181.183366 
L 256.262556 181.183366 
L 256.262556 180.38495 
L 256.621651 180.38495 
L 256.621651 179.586535 
L 257.554625 179.586535 
L 257.554625 178.788119 
L 257.735126 178.788119 
L 257.836085 177.191287 
L 258.028779 177.191287 
L 258.028779 176.392871 
L 258.162789 176.392871 
L 258.268008 173.199208 
L 258.369105 173.199208 
L 258.369105 172.400792 
L 258.481196 172.400792 
L 258.525627 170.005545 
L 258.597297 170.005545 
L 258.693389 166.811881 
L 258.840188 166.811881 
L 258.879069 165.21505 
L 260.167731 165.21505 
L 260.189818 163.618218 
L 261.438238 163.618218 
L 261.438238 162.819802 
L 261.721128 162.819802 
L 261.721128 162.021386 
L 263.614064 162.021386 
L 263.614064 161.22297 
L 264.010944 161.22297 
L 264.010944 160.424554 
L 264.373064 160.424554 
L 264.373064 159.626139 
L 264.865814 159.626139 
L 264.872072 158.029307 
L 265.131286 158.029307 
L 265.131286 157.230891 
L 265.442346 157.230891 
L 265.536239 155.634059 
L 265.622472 155.634059 
L 265.651537 154.037228 
L 265.736947 154.037228 
L 265.807688 152.440396 
L 265.954712 152.440396 
L 265.954712 151.64198 
L 266.100341 151.64198 
L 266.100341 150.843564 
L 266.539289 150.843564 
L 266.539289 150.045149 
L 267.225542 150.045149 
L 267.229992 148.448317 
L 267.475577 148.448317 
L 267.475577 147.649901 
L 269.325995 147.649901 
L 269.384429 146.053069 
L 269.489713 146.053069 
L 269.489713 145.254653 
L 271.704704 145.254653 
L 271.732155 143.657822 
L 272.035292 143.657822 
L 272.035292 142.859406 
L 272.630604 142.859406 
L 272.666298 141.262574 
L 272.881365 141.262574 
L 272.881365 140.464158 
L 273.182479 140.464158 
L 273.182479 139.665743 
L 273.521207 139.665743 
L 273.521207 138.867327 
L 273.679455 138.867327 
L 273.774041 137.270495 
L 274.263549 137.270495 
L 274.263549 136.472079 
L 274.63911 136.472079 
L 274.63911 135.673663 
L 275.116961 135.673663 
L 275.123459 134.076832 
L 275.304475 134.076832 
L 275.412576 132.48 
L 275.635685 132.48 
L 275.739265 130.084752 
L 276.027568 130.084752 
L 276.034081 128.487921 
L 276.214808 128.487921 
L 276.22478 126.092673 
L 276.423333 126.092673 
L 276.453311 124.495842 
L 276.661928 124.495842 
L 276.717058 122.89901 
L 276.942954 122.89901 
L 277.034475 120.503762 
L 277.097289 120.503762 
L 277.193443 118.906931 
L 277.214272 118.906931 
L 277.263245 117.310099 
L 277.361639 117.310099 
L 277.361639 116.511683 
L 277.701863 116.511683 
L 277.721748 114.116436 
L 277.857475 114.116436 
L 277.944276 112.519604 
L 278.029611 112.519604 
L 278.06866 110.922772 
L 278.334281 110.922772 
L 278.334281 110.124356 
L 278.50926 110.124356 
L 278.534416 108.527525 
L 278.634905 108.527525 
L 278.634905 107.729109 
L 278.87185 107.729109 
L 278.895968 106.132277 
L 279.157943 106.132277 
L 279.157943 105.333861 
L 279.277272 105.333861 
L 279.277272 104.535446 
L 279.692752 104.535446 
L 279.781518 100.543366 
L 279.811907 100.543366 
L 279.811907 99.74495 
L 280.035733 99.74495 
L 280.035733 98.946535 
L 280.151568 98.946535 
L 280.196836 96.551287 
L 280.822397 96.551287 
L 280.928744 94.15604 
L 281.096159 94.15604 
L 281.135209 92.559208 
L 281.311918 92.559208 
L 281.311918 91.760792 
L 281.48301 91.760792 
L 281.48301 90.962376 
L 281.654643 90.962376 
L 281.654643 90.16396 
L 281.907524 90.16396 
L 281.907524 89.365545 
L 282.357929 89.365545 
L 282.357929 88.567129 
L 282.653602 88.567129 
L 282.653602 87.768713 
L 283.132556 87.768713 
L 283.159138 86.171881 
L 283.379145 86.171881 
L 283.379145 85.373465 
L 283.730164 85.373465 
L 283.730164 84.57505 
L 284.128077 84.57505 
L 284.128077 83.776634 
L 284.492184 83.776634 
L 284.494358 82.179802 
L 284.978695 82.179802 
L 284.978695 81.381386 
L 286.526657 81.381386 
L 286.526657 80.58297 
L 287.242126 80.58297 
L 287.242126 79.784554 
L 287.916206 79.784554 
L 287.916206 78.986139 
L 289.623068 78.986139 
L 289.634753 77.389307 
L 289.854234 77.389307 
L 289.854234 76.590891 
L 291.473645 76.590891 
L 291.473645 75.792475 
L 292.928177 75.792475 
L 292.928177 74.994059 
L 293.7543 74.994059 
L 293.7543 74.195644 
L 294.179346 74.195644 
L 294.179346 73.397228 
L 294.504108 73.397228 
L 294.609933 71.800396 
L 294.641733 71.800396 
L 294.641733 71.00198 
L 296.040638 71.00198 
L 296.040638 70.203564 
L 296.433108 70.203564 
L 296.433108 69.405149 
L 297.718597 69.405149 
L 297.762843 66.211485 
L 297.879819 66.211485 
L 297.902264 64.614653 
L 298.834834 64.614653 
L 298.889341 63.017822 
L 299.212399 63.017822 
L 299.212399 62.219406 
L 299.848843 62.219406 
L 299.848843 61.42099 
L 300.452966 61.42099 
L 300.452966 60.622574 
L 302.777071 60.622574 
L 302.777071 59.824158 
L 303.056736 59.824158 
L 303.056736 59.025743 
L 303.493226 59.025743 
L 303.493226 58.227327 
L 316.782027 58.227327 
L 316.782027 57.428911 
L 321.18974 57.428911 
L 321.18974 56.630495 
L 322.822981 56.630495 
L 322.822981 55.832079 
L 322.971795 55.832079 
L 323.08258 54.235248 
L 323.229353 54.235248 
L 323.229353 53.436832 
L 323.467848 53.436832 
L 323.53416 51.84 
L 324.207734 51.84 
L 324.207734 51.041584 
L 324.378589 51.041584 
L 324.378589 50.243168 
L 329.373311 50.243168 
L 329.373311 49.444752 
L 330.587914 49.444752 
L 330.587914 48.646337 
L 336.755301 48.646337 
L 336.755301 47.847921 
L 337.306288 47.847921 
L 337.306288 47.049505 
L 345.644767 47.049505 
L 345.644767 46.251089 
L 348.265731 46.251089 
L 348.265731 45.452673 
L 349.285553 45.452673 
L 349.285553 44.654257 
L 351.240005 44.654257 
L 351.240005 43.855842 
L 351.746772 43.855842 
L 351.746772 43.057426 
L 351.880648 43.057426 
L 351.880648 42.25901 
L 352.050118 42.25901 
L 352.050118 41.460594 
L 353.134983 41.460594 
L 353.134983 40.662178 
L 353.254647 40.662178 
L 353.254647 39.863762 
L 355.268796 39.863762 
L 355.268796 39.065347 
L 355.485717 39.065347 
L 355.485717 38.266931 
L 355.763674 38.266931 
L 355.763674 37.468515 
L 356.269255 37.468515 
L 356.269255 36.670099 
L 356.795713 36.670099 
L 356.795713 35.871683 
L 356.947454 35.871683 
L 356.947454 35.073267 
L 357.121393 35.073267 
L 357.121393 34.274851 
L 358.300448 34.274851 
L 358.304821 32.67802 
L 358.557817 32.67802 
L 358.557817 31.879604 
L 359.006957 31.879604 
L 359.012501 30.282772 
L 359.279846 30.282772 
L 359.279846 29.484356 
L 361.139581 29.484356 
L 361.139581 28.685941 
L 362.050923 28.685941 
L 362.050923 27.887525 
L 362.171997 27.887525 
L 362.226114 26.290693 
L 363.73089 26.290693 
L 363.73089 25.492277 
L 365.282011 25.492277 
L 365.282011 24.693861 
L 366.326571 24.693861 
L 366.326571 23.895446 
L 366.693413 23.895446 
L 366.693413 23.09703 
L 367.187704 23.09703 
L 367.187704 22.298614 
L 368.658821 22.298614 
L 368.658821 21.500198 
L 370.061585 21.500198 
L 370.061585 20.701782 
L 370.178012 20.701782 
L 370.178012 19.903366 
L 370.526421 19.903366 
L 370.57747 18.306535 
L 370.904974 18.306535 
L 370.904974 17.508119 
L 374.574059 17.508119 
L 374.574059 16.709703 
L 380.936708 16.709703 
L 380.936708 15.911287 
L 392.236512 15.911287 
L 392.236512 15.112871 
L 394.104906 15.112871 
L 394.104906 14.314455 
L 395.234114 14.314455 
L 395.234114 13.51604 
L 396.750989 13.51604 
L 396.750989 12.717624 
L 400.670203 12.717624 
L 400.670203 11.919208 
L 404.287809 11.919208 
L 404.287809 11.120792 
L 405.012203 11.120792 
L 405.012203 10.322376 
L 406.303123 10.322376 
L 406.303123 9.52396 
L 406.423524 9.52396 
L 406.423524 8.725545 
L 406.651811 8.725545 
L 406.651811 7.927129 
L 408.946638 7.927129 
L 408.946638 7.128713 
L 412.243719 7.128713 
L 412.243719 6.330297 
L 412.243719 6.330297 
L 460.8 6.330297 
L 460.8 6.330297 
" clip-path="url(#p4542082345)" style="fill: none; stroke: #000000; stroke-width: 1.5; stroke-linecap: square"/>
   </g>
   <g id="line2d_25">
    <path d="M -0.111508 293.76 
L -0.111508 287.372673 
L 53.595652 287.372673 
L 53.595652 286.574257 
L 72.113436 286.574257 
L 72.113436 285.775842 
L 74.285485 285.775842 
L 74.285485 284.977426 
L 76.035943 284.977426 
L 76.035943 284.17901 
L 83.2025 284.17901 
L 83.2025 283.380594 
L 89.867931 283.380594 
L 89.867931 282.582178 
L 90.421508 282.582178 
L 90.421508 281.783762 
L 127.850023 281.783762 
L 127.850023 280.985347 
L 170.90449 280.985347 
L 170.90449 280.186931 
L 172.693995 280.186931 
L 172.693995 279.388515 
L 177.516033 279.388515 
L 177.516033 278.590099 
L 178.611198 278.590099 
L 178.611198 277.791683 
L 180.383446 277.791683 
L 180.383446 276.993267 
L 181.470877 276.993267 
L 181.470877 276.194851 
L 186.25602 276.194851 
L 186.25602 275.396436 
L 186.497182 275.396436 
L 186.501251 273.799604 
L 186.66782 273.799604 
L 186.726183 270.605941 
L 187.054479 270.605941 
L 187.054479 269.807525 
L 190.800091 269.807525 
L 190.800091 263.420198 
L 202.194464 263.420198 
L 202.194464 262.621782 
L 212.276843 262.621782 
L 212.276843 261.823366 
L 214.733435 261.823366 
L 214.733435 261.02495 
L 216.080097 261.02495 
L 216.080097 260.226535 
L 217.525596 260.226535 
L 217.525596 259.428119 
L 218.337902 259.428119 
L 218.337902 258.629703 
L 219.487831 258.629703 
L 219.487831 257.831287 
L 219.645084 257.831287 
L 219.645084 257.032871 
L 219.873447 257.032871 
L 219.873447 256.234455 
L 220.687932 256.234455 
L 220.76424 253.839208 
L 220.887493 253.839208 
L 220.887493 253.040792 
L 221.032475 253.040792 
L 221.100772 251.44396 
L 221.352995 251.44396 
L 221.352995 250.645545 
L 222.033763 250.645545 
L 222.033763 249.847129 
L 223.827891 249.847129 
L 223.827891 249.048713 
L 224.164822 249.048713 
L 224.164822 248.250297 
L 224.594094 248.250297 
L 224.594094 247.451881 
L 224.956884 247.451881 
L 224.956884 246.653465 
L 225.801048 246.653465 
L 225.841396 245.056634 
L 226.392811 245.056634 
L 226.392811 244.258218 
L 226.566845 244.258218 
L 226.566845 243.459802 
L 226.944789 243.459802 
L 226.944789 242.661386 
L 227.133439 242.661386 
L 227.133439 241.86297 
L 228.203818 241.86297 
L 228.238604 240.266139 
L 228.596897 240.266139 
L 228.600002 238.669307 
L 228.826304 238.669307 
L 228.826304 237.870891 
L 229.038312 237.870891 
L 229.053676 236.274059 
L 229.197329 236.274059 
L 229.197329 235.475644 
L 229.572438 235.475644 
L 229.572438 234.677228 
L 230.232031 234.677228 
L 230.232031 233.878812 
L 230.619823 233.878812 
L 230.619823 233.080396 
L 231.110636 233.080396 
L 231.200325 231.483564 
L 231.362274 231.483564 
L 231.362274 230.685149 
L 231.965774 230.685149 
L 232.045003 229.088317 
L 232.420936 229.088317 
L 232.420936 228.289901 
L 233.387197 228.289901 
L 233.387197 227.491485 
L 233.685842 227.491485 
L 233.743455 225.894653 
L 234.472653 225.894653 
L 234.472653 225.096238 
L 235.469053 225.096238 
L 235.469053 224.297822 
L 235.780342 224.297822 
L 235.780342 223.499406 
L 236.352745 223.499406 
L 236.438428 221.902574 
L 237.416961 221.902574 
L 237.416961 221.104158 
L 237.64591 221.104158 
L 237.64591 220.305743 
L 238.302128 220.305743 
L 238.302128 219.507327 
L 238.559791 219.507327 
L 238.559791 218.708911 
L 238.837251 218.708911 
L 238.837251 217.910495 
L 240.700733 217.910495 
L 240.752735 216.313663 
L 241.00117 216.313663 
L 241.00117 215.515248 
L 241.340361 215.515248 
L 241.340361 214.716832 
L 241.475935 214.716832 
L 241.475935 213.918416 
L 241.768821 213.918416 
L 241.768821 213.12 
L 242.502429 213.12 
L 242.502429 212.321584 
L 242.736245 212.321584 
L 242.736245 211.523168 
L 243.620977 211.523168 
L 243.620977 210.724752 
L 244.044668 210.724752 
L 244.044668 209.926337 
L 244.337088 209.926337 
L 244.396493 208.329505 
L 244.465092 208.329505 
L 244.465092 207.531089 
L 244.679884 207.531089 
L 244.679884 206.732673 
L 245.351761 206.732673 
L 245.351761 205.934257 
L 245.468011 205.934257 
L 245.488386 203.53901 
L 245.6142 203.53901 
L 245.6142 202.740594 
L 245.826978 202.740594 
L 245.826978 201.942178 
L 246.188067 201.942178 
L 246.278879 200.345347 
L 246.91979 200.345347 
L 246.91979 199.546931 
L 247.165334 199.546931 
L 247.165334 198.748515 
L 247.291831 198.748515 
L 247.394407 196.353267 
L 247.586308 196.353267 
L 247.693689 193.95802 
L 247.7005 193.95802 
L 247.7005 193.159604 
L 247.934415 193.159604 
L 247.934415 192.361188 
L 248.599823 192.361188 
L 248.599823 191.562772 
L 248.816597 191.562772 
L 248.853222 189.965941 
L 248.991504 189.965941 
L 249.010965 188.369109 
L 249.282032 188.369109 
L 249.346748 185.973861 
L 249.57614 185.973861 
L 249.616121 184.37703 
L 249.732314 184.37703 
L 249.813225 182.780198 
L 250.016954 182.780198 
L 250.016954 181.981782 
L 250.148208 181.981782 
L 250.170184 179.586535 
L 250.265082 179.586535 
L 250.265082 178.788119 
L 250.426268 178.788119 
L 250.535487 176.392871 
L 250.597103 176.392871 
L 250.597103 175.594455 
L 250.858038 175.594455 
L 250.937021 173.199208 
L 251.162452 173.199208 
L 251.162452 172.400792 
L 251.309281 172.400792 
L 251.309281 171.602376 
L 251.466516 171.602376 
L 251.466516 170.80396 
L 251.633147 170.80396 
L 251.650244 169.207129 
L 252.092381 169.207129 
L 252.092381 168.408713 
L 252.295506 168.408713 
L 252.295506 167.610297 
L 252.504384 167.610297 
L 252.583992 166.013465 
L 252.702451 166.013465 
L 252.799874 164.416634 
L 253.223396 164.416634 
L 253.223396 163.618218 
L 253.451792 163.618218 
L 253.451792 162.819802 
L 253.952623 162.819802 
L 253.952623 162.021386 
L 254.266771 162.021386 
L 254.266771 161.22297 
L 254.65604 161.22297 
L 254.748064 159.626139 
L 254.998083 159.626139 
L 255.038738 158.029307 
L 255.170678 158.029307 
L 255.170678 157.230891 
L 255.325209 157.230891 
L 255.428975 154.835644 
L 255.575268 154.835644 
L 255.627003 152.440396 
L 255.809176 152.440396 
L 255.91439 150.045149 
L 255.9858 150.045149 
L 255.9858 149.246733 
L 256.576501 149.246733 
L 256.576501 148.448317 
L 256.717346 148.448317 
L 256.768028 146.851485 
L 257.048086 146.851485 
L 257.048086 146.053069 
L 257.209989 146.053069 
L 257.209989 145.254653 
L 257.661789 145.254653 
L 257.735126 142.859406 
L 258.369105 142.859406 
L 258.369105 142.06099 
L 258.50866 142.06099 
L 258.515273 140.464158 
L 258.780982 140.464158 
L 258.879069 138.867327 
L 259.264284 138.867327 
L 259.324656 136.472079 
L 259.493556 136.472079 
L 259.585083 134.875248 
L 259.606088 134.875248 
L 259.606088 134.076832 
L 259.777199 134.076832 
L 259.777199 133.278416 
L 260.167731 133.278416 
L 260.233301 130.883168 
L 260.584299 130.883168 
L 260.58439 129.286337 
L 260.808519 129.286337 
L 260.808519 128.487921 
L 261.071366 128.487921 
L 261.071366 127.689505 
L 261.247031 127.689505 
L 261.313226 125.294257 
L 261.396207 125.294257 
L 261.43722 122.89901 
L 261.531282 122.89901 
L 261.593939 121.302178 
L 261.714809 121.302178 
L 261.795775 119.705347 
L 261.857504 119.705347 
L 261.857504 118.906931 
L 262.061735 118.906931 
L 262.087161 117.310099 
L 262.196965 117.310099 
L 262.196965 116.511683 
L 262.468921 116.511683 
L 262.468921 115.713267 
L 262.666519 115.713267 
L 262.666519 114.914851 
L 263.02773 114.914851 
L 263.02773 114.116436 
L 263.313431 114.116436 
L 263.326538 112.519604 
L 263.509878 112.519604 
L 263.509878 111.721188 
L 263.829864 111.721188 
L 263.873978 110.124356 
L 263.988163 110.124356 
L 263.988163 109.325941 
L 264.828973 109.325941 
L 264.828973 108.527525 
L 265.108626 108.527525 
L 265.108626 107.729109 
L 266.372399 107.729109 
L 266.372399 106.930693 
L 266.65774 106.930693 
L 266.678277 105.333861 
L 269.462716 105.333861 
L 269.462716 104.535446 
L 269.601521 104.535446 
L 269.601521 103.73703 
L 270.009329 103.73703 
L 270.009329 102.938614 
L 270.393661 102.938614 
L 270.393661 102.140198 
L 270.76699 102.140198 
L 270.76699 101.341782 
L 270.909507 101.341782 
L 270.909507 100.543366 
L 271.159463 100.543366 
L 271.159463 99.74495 
L 271.342258 99.74495 
L 271.44668 98.148119 
L 271.788455 98.148119 
L 271.788455 97.349703 
L 272.089681 97.349703 
L 272.089681 96.551287 
L 273.370689 96.551287 
L 273.370689 95.752871 
L 273.742342 95.752871 
L 273.756717 94.15604 
L 273.93512 94.15604 
L 274.011978 91.760792 
L 274.201406 91.760792 
L 274.244647 90.16396 
L 274.427863 90.16396 
L 274.499173 88.567129 
L 274.630017 88.567129 
L 274.630017 87.768713 
L 274.929151 87.768713 
L 274.929151 86.970297 
L 275.24971 86.970297 
L 275.337611 85.373465 
L 275.384351 85.373465 
L 275.384351 84.57505 
L 275.600264 84.57505 
L 275.687797 82.978218 
L 275.748417 82.978218 
L 275.763817 81.381386 
L 276.252889 81.381386 
L 276.252889 80.58297 
L 276.392165 80.58297 
L 276.392165 79.784554 
L 276.540439 79.784554 
L 276.638752 78.187723 
L 276.958966 78.187723 
L 277.034475 75.792475 
L 277.217851 75.792475 
L 277.299547 74.195644 
L 277.741778 74.195644 
L 277.741778 73.397228 
L 277.900465 73.397228 
L 277.980905 71.800396 
L 278.527455 71.800396 
L 278.527455 71.00198 
L 278.643033 71.00198 
L 278.737527 68.606733 
L 278.99079 68.606733 
L 278.99079 67.808317 
L 279.318886 67.808317 
L 279.413355 66.211485 
L 280.051792 66.211485 
L 280.151568 63.816238 
L 280.196836 63.816238 
L 280.306267 62.219406 
L 280.430873 62.219406 
L 280.448939 60.622574 
L 280.719476 60.622574 
L 280.719476 59.824158 
L 281.290556 59.824158 
L 281.34266 58.227327 
L 281.84469 58.227327 
L 281.84469 57.428911 
L 282.040366 57.428911 
L 282.040366 56.630495 
L 282.279423 56.630495 
L 282.357929 55.033663 
L 282.453718 55.033663 
L 282.453718 54.235248 
L 283.222839 54.235248 
L 283.222839 53.436832 
L 283.340148 53.436832 
L 283.340148 52.638416 
L 283.730094 52.638416 
L 283.730135 49.444752 
L 284.107063 49.444752 
L 284.107063 48.646337 
L 284.492184 48.646337 
L 284.492184 47.847921 
L 284.678139 47.847921 
L 284.758083 46.251089 
L 285.061483 46.251089 
L 285.061483 45.452673 
L 286.526657 45.452673 
L 286.526657 44.654257 
L 287.09282 44.654257 
L 287.09282 43.855842 
L 287.242126 43.855842 
L 287.242126 43.057426 
L 287.796479 43.057426 
L 287.796479 42.25901 
L 287.916206 42.25901 
L 287.916206 41.460594 
L 289.810404 41.460594 
L 289.810404 40.662178 
L 292.192649 40.662178 
L 292.207964 39.065347 
L 296.14772 39.065347 
L 296.14772 38.266931 
L 297.551004 38.266931 
L 297.551004 37.468515 
L 298.444579 37.468515 
L 298.444579 36.670099 
L 298.856869 36.670099 
L 298.856869 35.871683 
L 299.199822 35.871683 
L 299.199822 35.073267 
L 299.789805 35.073267 
L 299.789805 34.274851 
L 303.327467 34.274851 
L 303.327467 33.476436 
L 305.980118 33.476436 
L 305.980118 32.67802 
L 306.163321 32.67802 
L 306.163321 31.879604 
L 318.215695 31.879604 
L 318.215695 31.081188 
L 322.713461 31.081188 
L 322.713461 30.282772 
L 325.076519 30.282772 
L 325.076519 29.484356 
L 329.967491 29.484356 
L 329.967491 28.685941 
L 331.95134 28.685941 
L 331.95134 27.887525 
L 333.394953 27.887525 
L 333.394953 27.089109 
L 333.76718 27.089109 
L 333.777635 25.492277 
L 334.541128 25.492277 
L 334.543065 23.895446 
L 334.886531 23.895446 
L 334.886531 23.09703 
L 336.276241 23.09703 
L 336.381309 21.500198 
L 337.312711 21.500198 
L 337.312711 20.701782 
L 337.838544 20.701782 
L 337.838544 19.903366 
L 339.242766 19.903366 
L 339.331367 18.306535 
L 339.592114 18.306535 
L 339.592114 17.508119 
L 340.249454 17.508119 
L 340.249454 16.709703 
L 340.363091 16.709703 
L 340.363091 15.911287 
L 341.404444 15.911287 
L 341.404444 15.112871 
L 341.723625 15.112871 
L 341.723625 14.314455 
L 342.276333 14.314455 
L 342.276333 13.51604 
L 343.879187 13.51604 
L 343.880877 11.919208 
L 344.558834 11.919208 
L 344.558834 11.120792 
L 345.119865 11.120792 
L 345.119865 10.322376 
L 345.979015 10.322376 
L 345.979015 9.52396 
L 346.992202 9.52396 
L 346.992202 8.725545 
L 347.436059 8.725545 
L 347.436059 7.927129 
L 347.820584 7.927129 
L 347.820584 7.128713 
L 349.60935 7.128713 
L 349.60935 6.330297 
L 349.60935 6.330297 
L 460.8 6.330297 
L 460.8 6.330297 
" clip-path="url(#p4542082345)" style="fill: none; stroke: #00bfbf; stroke-width: 1.5; stroke-linecap: square"/>
   </g>
   <g id="line2d_26">
    <path d="M -1 286.574257 
L -0.111508 286.574257 
L -0.111508 280.186931 
L 90.225248 280.186931 
L 90.225248 279.388515 
L 134.326915 279.388515 
L 134.326915 278.590099 
L 136.806516 278.590099 
L 136.806516 277.791683 
L 137.233627 277.791683 
L 137.233627 276.993267 
L 137.576439 276.993267 
L 137.576439 276.194851 
L 137.916557 276.194851 
L 137.916557 275.396436 
L 138.559882 275.396436 
L 138.559882 274.59802 
L 157.455938 274.59802 
L 157.455938 273.799604 
L 162.189418 273.799604 
L 162.189418 273.001188 
L 162.352822 273.001188 
L 162.45453 271.404356 
L 162.679434 271.404356 
L 162.721413 269.807525 
L 162.97758 269.807525 
L 162.981112 268.210693 
L 166.939651 268.210693 
L 166.939651 267.412277 
L 176.136083 267.412277 
L 176.136083 266.613861 
L 187.935749 266.613861 
L 187.935749 265.815446 
L 190.800091 265.815446 
L 190.800091 259.428119 
L 190.938624 259.428119 
L 190.938624 258.629703 
L 194.487277 258.629703 
L 194.487277 257.831287 
L 201.249543 257.831287 
L 201.249543 257.032871 
L 202.190591 257.032871 
L 202.190591 256.234455 
L 203.459946 256.234455 
L 203.459946 255.43604 
L 208.010196 255.43604 
L 208.010196 254.637624 
L 210.17154 254.637624 
L 210.276165 253.040792 
L 212.125545 253.040792 
L 212.125545 252.242376 
L 213.137863 252.242376 
L 213.137863 251.44396 
L 213.831459 251.44396 
L 213.831459 250.645545 
L 214.561811 250.645545 
L 214.561811 249.847129 
L 214.732259 249.847129 
L 214.732259 249.048713 
L 215.435292 249.048713 
L 215.435292 248.250297 
L 216.060293 248.250297 
L 216.060293 247.451881 
L 217.498834 247.451881 
L 217.521529 245.85505 
L 217.953781 245.85505 
L 218.021478 244.258218 
L 218.413014 244.258218 
L 218.504981 241.86297 
L 218.792603 241.86297 
L 218.879748 240.266139 
L 219.007539 240.266139 
L 219.007539 239.467723 
L 219.267943 239.467723 
L 219.368799 237.072475 
L 219.727831 237.072475 
L 219.727831 236.274059 
L 220.241761 236.274059 
L 220.241761 235.475644 
L 220.549274 235.475644 
L 220.654418 233.080396 
L 220.938412 233.080396 
L 220.977221 231.483564 
L 221.068114 231.483564 
L 221.068114 230.685149 
L 222.261103 230.685149 
L 222.261103 229.886733 
L 222.757433 229.886733 
L 222.757433 229.088317 
L 223.211702 229.088317 
L 223.211702 228.289901 
L 223.417249 228.289901 
L 223.527617 226.693069 
L 223.694116 226.693069 
L 223.787967 225.096238 
L 224.494587 225.096238 
L 224.494587 223.499406 
L 224.67427 223.499406 
L 224.67427 222.70099 
L 224.998301 222.70099 
L 224.998301 221.902574 
L 225.172815 221.902574 
L 225.172815 221.104158 
L 225.666466 221.104158 
L 225.666466 220.305743 
L 225.96672 220.305743 
L 225.96672 219.507327 
L 226.192292 219.507327 
L 226.192292 218.708911 
L 226.318244 218.708911 
L 226.351725 217.112079 
L 226.889804 217.112079 
L 226.944759 215.515248 
L 227.353424 215.515248 
L 227.353424 214.716832 
L 227.476005 214.716832 
L 227.56509 213.12 
L 228.143258 213.12 
L 228.143258 212.321584 
L 228.382386 212.321584 
L 228.48974 210.724752 
L 229.840611 210.724752 
L 229.840611 209.926337 
L 230.331087 209.926337 
L 230.331087 209.127921 
L 230.616862 209.127921 
L 230.616901 207.531089 
L 231.200325 207.531089 
L 231.203303 205.934257 
L 231.401088 205.934257 
L 231.477157 204.337426 
L 231.965774 204.337426 
L 231.965774 203.53901 
L 232.420936 203.53901 
L 232.420936 202.740594 
L 233.164629 202.740594 
L 233.164629 201.942178 
L 233.317901 201.942178 
L 233.317901 201.143762 
L 233.465912 201.143762 
L 233.554137 199.546931 
L 233.736088 199.546931 
L 233.736088 198.748515 
L 234.488659 198.748515 
L 234.568864 197.151683 
L 235.458193 197.151683 
L 235.458193 196.353267 
L 235.780342 196.353267 
L 235.780342 195.554851 
L 236.351847 195.554851 
L 236.449037 193.95802 
L 236.655071 193.95802 
L 236.655071 193.159604 
L 236.853658 193.159604 
L 236.853658 192.361188 
L 237.416961 192.361188 
L 237.42243 190.764356 
L 237.666299 190.764356 
L 237.666299 189.965941 
L 238.302128 189.965941 
L 238.302128 189.167525 
L 238.554585 189.167525 
L 238.554585 188.369109 
L 238.776037 188.369109 
L 238.837251 186.772277 
L 239.369647 186.772277 
L 239.369647 185.973861 
L 239.586972 185.973861 
L 239.586972 185.175446 
L 239.810112 185.175446 
L 239.810112 184.37703 
L 240.752735 184.37703 
L 240.759702 182.780198 
L 241.340361 182.780198 
L 241.340361 181.981782 
L 241.473372 181.981782 
L 241.515019 180.38495 
L 241.765248 180.38495 
L 241.80348 178.788119 
L 241.983026 178.788119 
L 241.992247 177.191287 
L 242.10641 177.191287 
L 242.10641 176.392871 
L 242.324345 176.392871 
L 242.324345 175.594455 
L 242.499207 175.594455 
L 242.602704 173.997624 
L 242.676709 173.997624 
L 242.69205 172.400792 
L 243.109786 172.400792 
L 243.212186 170.80396 
L 243.496355 170.80396 
L 243.496355 170.005545 
L 243.62396 170.005545 
L 243.62396 169.207129 
L 244.473185 169.207129 
L 244.473185 168.408713 
L 244.596941 168.408713 
L 244.675163 166.811881 
L 244.82899 166.811881 
L 244.82899 166.013465 
L 245.980549 166.013465 
L 246.048494 164.416634 
L 246.278879 164.416634 
L 246.349724 162.819802 
L 246.501888 162.819802 
L 246.501888 162.021386 
L 246.91979 162.021386 
L 246.91979 161.22297 
L 247.266469 161.22297 
L 247.336804 158.827723 
L 247.380328 158.827723 
L 247.380328 158.029307 
L 247.693689 158.029307 
L 247.693689 157.230891 
L 248.58279 157.230891 
L 248.601686 155.634059 
L 248.850141 155.634059 
L 248.864275 154.037228 
L 248.971287 154.037228 
L 249.072307 152.440396 
L 249.427382 152.440396 
L 249.500941 150.843564 
L 249.568652 150.843564 
L 249.645793 149.246733 
L 249.801466 149.246733 
L 249.801466 148.448317 
L 250.248459 148.448317 
L 250.248459 147.649901 
L 250.432588 147.649901 
L 250.533797 146.053069 
L 251.162452 146.053069 
L 251.162452 145.254653 
L 251.292021 145.254653 
L 251.292021 144.456238 
L 251.466516 144.456238 
L 251.466516 143.657822 
L 252.564567 143.657822 
L 252.564567 142.859406 
L 252.702451 142.859406 
L 252.795026 141.262574 
L 253.223396 141.262574 
L 253.320456 139.665743 
L 253.451767 139.665743 
L 253.451767 138.867327 
L 253.70871 138.867327 
L 253.70871 138.068911 
L 253.889471 138.068911 
L 253.889471 137.270495 
L 254.252628 137.270495 
L 254.348987 135.673663 
L 254.65507 135.673663 
L 254.65507 134.875248 
L 254.998083 134.875248 
L 255.038738 133.278416 
L 255.13142 133.278416 
L 255.170678 130.883168 
L 255.271443 130.883168 
L 255.271443 130.084752 
L 255.428975 130.084752 
L 255.428975 129.286337 
L 255.617499 129.286337 
L 255.644028 126.891089 
L 255.752084 126.891089 
L 255.758407 125.294257 
L 255.91439 125.294257 
L 255.9858 123.697426 
L 256.530022 123.697426 
L 256.530022 122.89901 
L 256.711845 122.89901 
L 256.768028 121.302178 
L 257.150192 121.302178 
L 257.173594 119.705347 
L 257.632338 119.705347 
L 257.735126 118.108515 
L 258.369105 118.108515 
L 258.369105 117.310099 
L 258.484702 117.310099 
L 258.484702 116.511683 
L 258.681872 116.511683 
L 258.681872 115.713267 
L 258.925608 115.713267 
L 258.925608 114.914851 
L 259.454905 114.914851 
L 259.489412 113.31802 
L 259.914821 113.31802 
L 259.914821 112.519604 
L 260.070051 112.519604 
L 260.170516 109.325941 
L 260.181178 109.325941 
L 260.266976 106.132277 
L 260.328926 106.132277 
L 260.40531 99.74495 
L 260.46092 99.74495 
L 260.46092 98.946535 
L 261.171792 98.946535 
L 261.250792 97.349703 
L 261.371116 97.349703 
L 261.371116 96.551287 
L 262.025909 96.551287 
L 262.025909 95.752871 
L 262.631828 95.752871 
L 262.631828 94.954455 
L 264.277769 94.954455 
L 264.277769 94.15604 
L 265.108626 94.15604 
L 265.1312 92.559208 
L 265.720378 92.559208 
L 265.720378 91.760792 
L 266.927191 91.760792 
L 266.927191 90.962376 
L 268.409393 90.962376 
L 268.409393 90.16396 
L 269.027227 90.16396 
L 269.041778 88.567129 
L 269.34302 88.567129 
L 269.433873 86.970297 
L 269.9165 86.970297 
L 269.9165 86.171881 
L 270.030612 86.171881 
L 270.030656 84.57505 
L 270.32951 84.57505 
L 270.32951 83.776634 
L 270.939309 83.776634 
L 270.939309 82.978218 
L 271.44668 82.978218 
L 271.44668 82.179802 
L 271.735113 82.179802 
L 271.735113 81.381386 
L 272.947469 81.381386 
L 272.947469 80.58297 
L 273.063585 80.58297 
L 273.063585 79.784554 
L 273.574836 79.784554 
L 273.574836 78.986139 
L 273.70884 78.986139 
L 273.737637 77.389307 
L 273.871332 77.389307 
L 273.871332 76.590891 
L 274.03132 76.590891 
L 274.110631 74.195644 
L 274.18932 74.195644 
L 274.215418 72.598812 
L 274.649898 72.598812 
L 274.739682 71.00198 
L 274.799356 71.00198 
L 274.874927 69.405149 
L 274.971123 69.405149 
L 274.995476 67.009901 
L 275.259629 67.009901 
L 275.259629 66.211485 
L 275.416961 66.211485 
L 275.416961 65.413069 
L 275.994878 65.413069 
L 276.105399 63.017822 
L 276.280209 63.017822 
L 276.280209 62.219406 
L 276.558431 62.219406 
L 276.579677 60.622574 
L 276.909067 60.622574 
L 276.996645 58.227327 
L 277.034475 58.227327 
L 277.034475 57.428911 
L 277.171503 57.428911 
L 277.171503 56.630495 
L 277.32865 56.630495 
L 277.32865 55.832079 
L 277.719373 55.832079 
L 277.803978 54.235248 
L 278.078618 54.235248 
L 278.078618 53.436832 
L 278.225265 53.436832 
L 278.297942 51.84 
L 278.392233 51.84 
L 278.392233 51.041584 
L 278.583607 51.041584 
L 278.583607 50.243168 
L 278.706536 50.243168 
L 278.758877 48.646337 
L 279.19357 48.646337 
L 279.19357 47.847921 
L 279.707988 47.847921 
L 279.707988 47.049505 
L 279.99181 47.049505 
L 280.100081 45.452673 
L 280.196836 45.452673 
L 280.298468 43.057426 
L 280.889488 43.057426 
L 280.889488 42.25901 
L 281.31906 42.25901 
L 281.31906 41.460594 
L 281.448009 41.460594 
L 281.448009 40.662178 
L 281.574569 40.662178 
L 281.574569 39.863762 
L 281.825298 39.863762 
L 281.825298 39.065347 
L 282.040366 39.065347 
L 282.040366 38.266931 
L 282.357929 38.266931 
L 282.453718 36.670099 
L 282.548798 36.670099 
L 282.548798 35.871683 
L 282.794122 35.871683 
L 282.794122 35.073267 
L 283.583424 35.073267 
L 283.673396 33.476436 
L 283.72551 33.476436 
L 283.729093 31.879604 
L 284.070332 31.879604 
L 284.070332 31.081188 
L 285.384235 31.081188 
L 285.384235 30.282772 
L 288.998504 30.282772 
L 288.998504 29.484356 
L 294.093929 29.484356 
L 294.093929 28.685941 
L 294.475958 28.685941 
L 294.475958 27.887525 
L 298.022624 27.887525 
L 298.022624 27.089109 
L 299.541883 27.089109 
L 299.541883 26.290693 
L 299.680894 26.290693 
L 299.680894 25.492277 
L 299.8027 25.492277 
L 299.8027 24.693861 
L 302.194857 24.693861 
L 302.27876 23.09703 
L 302.6283 23.09703 
L 302.73333 20.701782 
L 303.54461 20.701782 
L 303.54461 19.903366 
L 304.828004 19.903366 
L 304.900716 18.306535 
L 305.630073 18.306535 
L 305.630073 17.508119 
L 305.97071 17.508119 
L 305.97071 16.709703 
L 306.199211 16.709703 
L 306.199211 15.911287 
L 306.451552 15.911287 
L 306.451552 15.112871 
L 306.957858 15.112871 
L 307.034163 13.51604 
L 307.359258 13.51604 
L 307.359258 12.717624 
L 308.187709 12.717624 
L 308.187709 11.919208 
L 308.425133 11.919208 
L 308.425133 11.120792 
L 308.734465 11.120792 
L 308.826721 8.725545 
L 310.104264 8.725545 
L 310.104264 7.927129 
L 313.002108 7.927129 
L 313.002108 7.128713 
L 316.961063 7.128713 
L 316.961063 6.330297 
L 316.961063 6.330297 
L 460.8 6.330297 
L 460.8 6.330297 
" clip-path="url(#p4542082345)" style="fill: none; stroke: #bf00bf; stroke-width: 1.5; stroke-linecap: square"/>
   </g>
   <g id="patch_3">
    <path d="M 0 293.76 
L 0 3.456 
" style="fill: none; stroke: #000000; stroke-width: 0.8; stroke-linejoin: miter; stroke-linecap: square"/>
   </g>
   <g id="patch_4">
    <path d="M 460.8 293.76 
L 460.8 3.456 
" style="fill: none; stroke: #000000; stroke-width: 0.8; stroke-linejoin: miter; stroke-linecap: square"/>
   </g>
   <g id="patch_5">
    <path d="M 0 293.76 
L 460.8 293.76 
" style="fill: none; stroke: #000000; stroke-width: 0.8; stroke-linejoin: miter; stroke-linecap: square"/>
   </g>
   <g id="patch_6">
    <path d="M 0 3.456 
L 460.8 3.456 
" style="fill: none; stroke: #000000; stroke-width: 0.8; stroke-linejoin: miter; stroke-linecap: square"/>
   </g>
   <g id="text_6">
    <!-- {f1-f24}, 20-D -->
    <g transform="translate(305.884 287.95392) scale(0.2 -0.2)">
     <defs>
      <path id="DejaVuSans-7b" d="M 3272 -594 
L 3272 -1044 
L 3078 -1044 
Q 2300 -1044 2036 -812 
Q 1772 -581 1772 109 
L 1772 856 
Q 1772 1328 1603 1509 
Q 1434 1691 991 1691 
L 800 1691 
L 800 2138 
L 991 2138 
Q 1438 2138 1605 2317 
Q 1772 2497 1772 2963 
L 1772 3713 
Q 1772 4403 2036 4633 
Q 2300 4863 3078 4863 
L 3272 4863 
L 3272 4416 
L 3059 4416 
Q 2619 4416 2484 4278 
Q 2350 4141 2350 3700 
L 2350 2925 
Q 2350 2434 2208 2212 
Q 2066 1991 1722 1913 
Q 2069 1828 2209 1606 
Q 2350 1384 2350 897 
L 2350 122 
Q 2350 -319 2484 -456 
Q 2619 -594 3059 -594 
L 3272 -594 
z
" transform="scale(0.015625)"/>
      <path id="DejaVuSans-32" d="M 1228 531 
L 3431 531 
L 3431 0 
L 469 0 
L 469 531 
Q 828 903 1448 1529 
Q 2069 2156 2228 2338 
Q 2531 2678 2651 2914 
Q 2772 3150 2772 3378 
Q 2772 3750 2511 3984 
Q 2250 4219 1831 4219 
Q 1534 4219 1204 4116 
Q 875 4013 500 3803 
L 500 4441 
Q 881 4594 1212 4672 
Q 1544 4750 1819 4750 
Q 2544 4750 2975 4387 
Q 3406 4025 3406 3419 
Q 3406 3131 3298 2873 
Q 3191 2616 2906 2266 
Q 2828 2175 2409 1742 
Q 1991 1309 1228 531 
z
" transform="scale(0.015625)"/>
      <path id="DejaVuSans-7d" d="M 800 -594 
L 1019 -594 
Q 1456 -594 1589 -459 
Q 1722 -325 1722 122 
L 1722 897 
Q 1722 1384 1862 1606 
Q 2003 1828 2350 1913 
Q 2003 1991 1862 2212 
Q 1722 2434 1722 2925 
L 1722 3700 
Q 1722 4144 1589 4280 
Q 1456 4416 1019 4416 
L 800 4416 
L 800 4863 
L 997 4863 
Q 1775 4863 2036 4633 
Q 2297 4403 2297 3713 
L 2297 2963 
Q 2297 2497 2465 2317 
Q 2634 2138 3078 2138 
L 3272 2138 
L 3272 1691 
L 3078 1691 
Q 2634 1691 2465 1509 
Q 2297 1328 2297 856 
L 2297 109 
Q 2297 -581 2036 -812 
Q 1775 -1044 997 -1044 
L 800 -1044 
L 800 -594 
z
" transform="scale(0.015625)"/>
      <path id="DejaVuSans-2c" d="M 750 794 
L 1409 794 
L 1409 256 
L 897 -744 
L 494 -744 
L 750 256 
L 750 794 
z
" transform="scale(0.015625)"/>
     </defs>
     <use xlink:href="#DejaVuSans-7b"/>
     <use xlink:href="#DejaVuSans-66" x="63.623047"/>
     <use xlink:href="#DejaVuSans-31" x="98.828125"/>
     <use xlink:href="#DejaVuSans-2d" x="162.451172"/>
     <use xlink:href="#DejaVuSans-66" x="198.535156"/>
     <use xlink:href="#DejaVuSans-32" x="233.740234"/>
     <use xlink:href="#DejaVuSans-34" x="297.363281"/>
     <use xlink:href="#DejaVuSans-7d" x="360.986328"/>
     <use xlink:href="#DejaVuSans-2c" x="424.609375"/>
     <use xlink:href="#DejaVuSans-20" x="456.396484"/>
     <use xlink:href="#DejaVuSans-32" x="488.183594"/>
     <use xlink:href="#DejaVuSans-30" x="551.806641"/>
     <use xlink:href="#DejaVuSans-2d" x="615.429688"/>
     <use xlink:href="#DejaVuSans-44" x="651.513672"/>
    </g>
   </g>
   <g id="text_7">
    <!-- v2.6.3 -->
    <g style="fill: #808080" transform="translate(214.71875 288.777272) scale(0.1 -0.1)">
     <defs>
      <path id="DejaVuSans-76" d="M 191 3500 
L 800 3500 
L 1894 563 
L 2988 3500 
L 3597 3500 
L 2284 0 
L 1503 0 
L 191 3500 
z
" transform="scale(0.015625)"/>
      <path id="DejaVuSans-2e" d="M 684 794 
L 1344 794 
L 1344 0 
L 684 0 
L 684 794 
z
" transform="scale(0.015625)"/>
      <path id="DejaVuSans-36" d="M 2113 2584 
Q 1688 2584 1439 2293 
Q 1191 2003 1191 1497 
Q 1191 994 1439 701 
Q 1688 409 2113 409 
Q 2538 409 2786 701 
Q 3034 994 3034 1497 
Q 3034 2003 2786 2293 
Q 2538 2584 2113 2584 
z
M 3366 4563 
L 3366 3988 
Q 3128 4100 2886 4159 
Q 2644 4219 2406 4219 
Q 1781 4219 1451 3797 
Q 1122 3375 1075 2522 
Q 1259 2794 1537 2939 
Q 1816 3084 2150 3084 
Q 2853 3084 3261 2657 
Q 3669 2231 3669 1497 
Q 3669 778 3244 343 
Q 2819 -91 2113 -91 
Q 1303 -91 875 529 
Q 447 1150 447 2328 
Q 447 3434 972 4092 
Q 1497 4750 2381 4750 
Q 2619 4750 2861 4703 
Q 3103 4656 3366 4563 
z
" transform="scale(0.015625)"/>
      <path id="DejaVuSans-33" d="M 2597 2516 
Q 3050 2419 3304 2112 
Q 3559 1806 3559 1356 
Q 3559 666 3084 287 
Q 2609 -91 1734 -91 
Q 1441 -91 1130 -33 
Q 819 25 488 141 
L 488 750 
Q 750 597 1062 519 
Q 1375 441 1716 441 
Q 2309 441 2620 675 
Q 2931 909 2931 1356 
Q 2931 1769 2642 2001 
Q 2353 2234 1838 2234 
L 1294 2234 
L 1294 2753 
L 1863 2753 
Q 2328 2753 2575 2939 
Q 2822 3125 2822 3475 
Q 2822 3834 2567 4026 
Q 2313 4219 1838 4219 
Q 1578 4219 1281 4162 
Q 984 4106 628 3988 
L 628 4550 
Q 988 4650 1302 4700 
Q 1616 4750 1894 4750 
Q 2613 4750 3031 4423 
Q 3450 4097 3450 3541 
Q 3450 3153 3228 2886 
Q 3006 2619 2597 2516 
z
" transform="scale(0.015625)"/>
     </defs>
     <use xlink:href="#DejaVuSans-76"/>
     <use xlink:href="#DejaVuSans-32" x="59.179688"/>
     <use xlink:href="#DejaVuSans-2e" x="122.802734"/>
     <use xlink:href="#DejaVuSans-36" x="154.589844"/>
     <use xlink:href="#DejaVuSans-2e" x="218.212891"/>
     <use xlink:href="#DejaVuSans-33" x="250"/>
    </g>
   </g>
  </g>
 </g>
 <defs>
  <clipPath id="p4542082345">
   <rect x="0" y="3.456" width="460.8" height="290.304"/>
  </clipPath>
 </defs>
</svg>
