<?xml version="1.0" encoding="utf-8" standalone="no"?>
<!DOCTYPE svg PUBLIC "-//W3C//DTD SVG 1.1//EN"
  "http://www.w3.org/Graphics/SVG/1.1/DTD/svg11.dtd">
<svg xmlns:xlink="http://www.w3.org/1999/xlink" width="460.8pt" height="345.6pt" viewBox="0 0 460.8 345.6" xmlns="http://www.w3.org/2000/svg" version="1.1">
 <metadata>
  <rdf:RDF xmlns:dc="http://purl.org/dc/elements/1.1/" xmlns:cc="http://creativecommons.org/ns#" xmlns:rdf="http://www.w3.org/1999/02/22-rdf-syntax-ns#">
   <cc:Work>
    <dc:type rdf:resource="http://purl.org/dc/dcmitype/StillImage"/>
    <dc:date>2024-01-19T15:05:52.634221</dc:date>
    <dc:format>image/svg+xml</dc:format>
    <dc:creator>
     <cc:Agent>
      <dc:title>Matplotlib v3.8.2, https://matplotlib.org/</dc:title>
     </cc:Agent>
    </dc:creator>
   </cc:Work>
  </rdf:RDF>
 </metadata>
 <defs>
  <style type="text/css">*{stroke-linejoin: round; stroke-linecap: butt}</style>
 </defs>
 <g id="figure_1">
  <g id="patch_1">
   <path d="M 0 345.6 
L 460.8 345.6 
L 460.8 0 
L 0 0 
z
" style="fill: #ffffff"/>
  </g>
  <g id="axes_1">
   <g id="patch_2">
    <path d="M 0 293.76 
L 460.8 293.76 
L 460.8 3.456 
L 0 3.456 
z
" style="fill: #ffffff"/>
   </g>
   <g id="matplotlib.axis_1">
    <g id="xtick_1">
     <g id="line2d_1">
      <path d="M 102.674388 293.76 
L 102.674388 3.456 
" clip-path="url(#pbf307516e9)" style="fill: none; stroke: #b0b0b0; stroke-width: 0.8; stroke-linecap: square"/>
     </g>
     <g id="line2d_2">
      <defs>
       <path id="me02817179c" d="M 0 0 
L 0 3.5 
" style="stroke: #000000; stroke-width: 0.8"/>
      </defs>
      <g>
       <use xlink:href="#me02817179c" x="102.674388" y="293.76" style="stroke: #000000; stroke-width: 0.8"/>
      </g>
     </g>
     <g id="text_1">
      <!-- -4 -->
      <g transform="translate(92.704075 315.956875) scale(0.2 -0.2)">
       <defs>
        <path id="DejaVuSans-2d" d="M 313 2009 
L 1997 2009 
L 1997 1497 
L 313 1497 
L 313 2009 
z
" transform="scale(0.015625)"/>
        <path id="DejaVuSans-34" d="M 2419 4116 
L 825 1625 
L 2419 1625 
L 2419 4116 
z
M 2253 4666 
L 3047 4666 
L 3047 1625 
L 3713 1625 
L 3713 1100 
L 3047 1100 
L 3047 0 
L 2419 0 
L 2419 1100 
L 313 1100 
L 313 1709 
L 2253 4666 
z
" transform="scale(0.015625)"/>
       </defs>
       <use xlink:href="#DejaVuSans-2d"/>
       <use xlink:href="#DejaVuSans-34" x="36.083984"/>
      </g>
     </g>
    </g>
    <g id="xtick_2">
     <g id="line2d_3">
      <path d="M 205.459819 293.76 
L 205.459819 3.456 
" clip-path="url(#pbf307516e9)" style="fill: none; stroke: #b0b0b0; stroke-width: 0.8; stroke-linecap: square"/>
     </g>
     <g id="line2d_4">
      <g>
       <use xlink:href="#me02817179c" x="205.459819" y="293.76" style="stroke: #000000; stroke-width: 0.8"/>
      </g>
     </g>
     <g id="text_2">
      <!-- 0 -->
      <g transform="translate(199.097319 315.956875) scale(0.2 -0.2)">
       <defs>
        <path id="DejaVuSans-30" d="M 2034 4250 
Q 1547 4250 1301 3770 
Q 1056 3291 1056 2328 
Q 1056 1369 1301 889 
Q 1547 409 2034 409 
Q 2525 409 2770 889 
Q 3016 1369 3016 2328 
Q 3016 3291 2770 3770 
Q 2525 4250 2034 4250 
z
M 2034 4750 
Q 2819 4750 3233 4129 
Q 3647 3509 3647 2328 
Q 3647 1150 3233 529 
Q 2819 -91 2034 -91 
Q 1250 -91 836 529 
Q 422 1150 422 2328 
Q 422 3509 836 4129 
Q 1250 4750 2034 4750 
z
" transform="scale(0.015625)"/>
       </defs>
       <use xlink:href="#DejaVuSans-30"/>
      </g>
     </g>
    </g>
    <g id="xtick_3">
     <g id="line2d_5">
      <path d="M 308.24525 293.76 
L 308.24525 3.456 
" clip-path="url(#pbf307516e9)" style="fill: none; stroke: #b0b0b0; stroke-width: 0.8; stroke-linecap: square"/>
     </g>
     <g id="line2d_6">
      <g>
       <use xlink:href="#me02817179c" x="308.24525" y="293.76" style="stroke: #000000; stroke-width: 0.8"/>
      </g>
     </g>
     <g id="text_3">
      <!-- 4 -->
      <g transform="translate(301.88275 315.956875) scale(0.2 -0.2)">
       <use xlink:href="#DejaVuSans-34"/>
      </g>
     </g>
    </g>
    <g id="xtick_4">
     <g id="line2d_7">
      <path d="M 411.030681 293.76 
L 411.030681 3.456 
" clip-path="url(#pbf307516e9)" style="fill: none; stroke: #b0b0b0; stroke-width: 0.8; stroke-linecap: square"/>
     </g>
     <g id="line2d_8">
      <g>
       <use xlink:href="#me02817179c" x="411.030681" y="293.76" style="stroke: #000000; stroke-width: 0.8"/>
      </g>
     </g>
     <g id="text_4">
      <!-- 8 -->
      <g transform="translate(404.668181 315.956875) scale(0.2 -0.2)">
       <defs>
        <path id="DejaVuSans-38" d="M 2034 2216 
Q 1584 2216 1326 1975 
Q 1069 1734 1069 1313 
Q 1069 891 1326 650 
Q 1584 409 2034 409 
Q 2484 409 2743 651 
Q 3003 894 3003 1313 
Q 3003 1734 2745 1975 
Q 2488 2216 2034 2216 
z
M 1403 2484 
Q 997 2584 770 2862 
Q 544 3141 544 3541 
Q 544 4100 942 4425 
Q 1341 4750 2034 4750 
Q 2731 4750 3128 4425 
Q 3525 4100 3525 3541 
Q 3525 3141 3298 2862 
Q 3072 2584 2669 2484 
Q 3125 2378 3379 2068 
Q 3634 1759 3634 1313 
Q 3634 634 3220 271 
Q 2806 -91 2034 -91 
Q 1263 -91 848 271 
Q 434 634 434 1313 
Q 434 1759 690 2068 
Q 947 2378 1403 2484 
z
M 1172 3481 
Q 1172 3119 1398 2916 
Q 1625 2713 2034 2713 
Q 2441 2713 2670 2916 
Q 2900 3119 2900 3481 
Q 2900 3844 2670 4047 
Q 2441 4250 2034 4250 
Q 1625 4250 1398 4047 
Q 1172 3844 1172 3481 
z
" transform="scale(0.015625)"/>
       </defs>
       <use xlink:href="#DejaVuSans-38"/>
      </g>
     </g>
    </g>
    <g id="text_5">
     <!-- log10 of Df -->
     <g transform="translate(175.214063 339.313125) scale(0.2 -0.2)">
      <defs>
       <path id="DejaVuSans-6c" d="M 603 4863 
L 1178 4863 
L 1178 0 
L 603 0 
L 603 4863 
z
" transform="scale(0.015625)"/>
       <path id="DejaVuSans-6f" d="M 1959 3097 
Q 1497 3097 1228 2736 
Q 959 2375 959 1747 
Q 959 1119 1226 758 
Q 1494 397 1959 397 
Q 2419 397 2687 759 
Q 2956 1122 2956 1747 
Q 2956 2369 2687 2733 
Q 2419 3097 1959 3097 
z
M 1959 3584 
Q 2709 3584 3137 3096 
Q 3566 2609 3566 1747 
Q 3566 888 3137 398 
Q 2709 -91 1959 -91 
Q 1206 -91 779 398 
Q 353 888 353 1747 
Q 353 2609 779 3096 
Q 1206 3584 1959 3584 
z
" transform="scale(0.015625)"/>
       <path id="DejaVuSans-67" d="M 2906 1791 
Q 2906 2416 2648 2759 
Q 2391 3103 1925 3103 
Q 1463 3103 1205 2759 
Q 947 2416 947 1791 
Q 947 1169 1205 825 
Q 1463 481 1925 481 
Q 2391 481 2648 825 
Q 2906 1169 2906 1791 
z
M 3481 434 
Q 3481 -459 3084 -895 
Q 2688 -1331 1869 -1331 
Q 1566 -1331 1297 -1286 
Q 1028 -1241 775 -1147 
L 775 -588 
Q 1028 -725 1275 -790 
Q 1522 -856 1778 -856 
Q 2344 -856 2625 -561 
Q 2906 -266 2906 331 
L 2906 616 
Q 2728 306 2450 153 
Q 2172 0 1784 0 
Q 1141 0 747 490 
Q 353 981 353 1791 
Q 353 2603 747 3093 
Q 1141 3584 1784 3584 
Q 2172 3584 2450 3431 
Q 2728 3278 2906 2969 
L 2906 3500 
L 3481 3500 
L 3481 434 
z
" transform="scale(0.015625)"/>
       <path id="DejaVuSans-31" d="M 794 531 
L 1825 531 
L 1825 4091 
L 703 3866 
L 703 4441 
L 1819 4666 
L 2450 4666 
L 2450 531 
L 3481 531 
L 3481 0 
L 794 0 
L 794 531 
z
" transform="scale(0.015625)"/>
       <path id="DejaVuSans-20" transform="scale(0.015625)"/>
       <path id="DejaVuSans-66" d="M 2375 4863 
L 2375 4384 
L 1825 4384 
Q 1516 4384 1395 4259 
Q 1275 4134 1275 3809 
L 1275 3500 
L 2222 3500 
L 2222 3053 
L 1275 3053 
L 1275 0 
L 697 0 
L 697 3053 
L 147 3053 
L 147 3500 
L 697 3500 
L 697 3744 
Q 697 4328 969 4595 
Q 1241 4863 1831 4863 
L 2375 4863 
z
" transform="scale(0.015625)"/>
       <path id="DejaVuSans-44" d="M 1259 4147 
L 1259 519 
L 2022 519 
Q 2988 519 3436 956 
Q 3884 1394 3884 2338 
Q 3884 3275 3436 3711 
Q 2988 4147 2022 4147 
L 1259 4147 
z
M 628 4666 
L 1925 4666 
Q 3281 4666 3915 4102 
Q 4550 3538 4550 2338 
Q 4550 1131 3912 565 
Q 3275 0 1925 0 
L 628 0 
L 628 4666 
z
" transform="scale(0.015625)"/>
      </defs>
      <use xlink:href="#DejaVuSans-6c"/>
      <use xlink:href="#DejaVuSans-6f" x="27.783203"/>
      <use xlink:href="#DejaVuSans-67" x="88.964844"/>
      <use xlink:href="#DejaVuSans-31" x="152.441406"/>
      <use xlink:href="#DejaVuSans-30" x="216.064453"/>
      <use xlink:href="#DejaVuSans-20" x="279.6875"/>
      <use xlink:href="#DejaVuSans-6f" x="311.474609"/>
      <use xlink:href="#DejaVuSans-66" x="372.65625"/>
      <use xlink:href="#DejaVuSans-20" x="407.861328"/>
      <use xlink:href="#DejaVuSans-44" x="439.648438"/>
      <use xlink:href="#DejaVuSans-66" x="516.650391"/>
     </g>
    </g>
   </g>
   <g id="matplotlib.axis_2">
    <g id="ytick_1">
     <g id="line2d_9">
      <path d="M 0 293.76 
L 460.8 293.76 
" clip-path="url(#pbf307516e9)" style="fill: none; stroke: #b0b0b0; stroke-width: 0.8; stroke-linecap: square"/>
     </g>
     <g id="line2d_10">
      <defs>
       <path id="m06e0afd539" d="M 0 0 
L -3.5 0 
" style="stroke: #000000; stroke-width: 0.8"/>
      </defs>
      <g>
       <use xlink:href="#m06e0afd539" x="0" y="293.76" style="stroke: #000000; stroke-width: 0.8"/>
      </g>
     </g>
    </g>
    <g id="ytick_2">
     <g id="line2d_11">
      <path d="M 0 236.274059 
L 460.8 236.274059 
" clip-path="url(#pbf307516e9)" style="fill: none; stroke: #b0b0b0; stroke-width: 0.8; stroke-linecap: square"/>
     </g>
     <g id="line2d_12">
      <g>
       <use xlink:href="#m06e0afd539" x="0" y="236.274059" style="stroke: #000000; stroke-width: 0.8"/>
      </g>
     </g>
    </g>
    <g id="ytick_3">
     <g id="line2d_13">
      <path d="M 0 178.788119 
L 460.8 178.788119 
" clip-path="url(#pbf307516e9)" style="fill: none; stroke: #b0b0b0; stroke-width: 0.8; stroke-linecap: square"/>
     </g>
     <g id="line2d_14">
      <g>
       <use xlink:href="#m06e0afd539" x="0" y="178.788119" style="stroke: #000000; stroke-width: 0.8"/>
      </g>
     </g>
    </g>
    <g id="ytick_4">
     <g id="line2d_15">
      <path d="M 0 121.302178 
L 460.8 121.302178 
" clip-path="url(#pbf307516e9)" style="fill: none; stroke: #b0b0b0; stroke-width: 0.8; stroke-linecap: square"/>
     </g>
     <g id="line2d_16">
      <g>
       <use xlink:href="#m06e0afd539" x="0" y="121.302178" style="stroke: #000000; stroke-width: 0.8"/>
      </g>
     </g>
    </g>
    <g id="ytick_5">
     <g id="line2d_17">
      <path d="M 0 63.816238 
L 460.8 63.816238 
" clip-path="url(#pbf307516e9)" style="fill: none; stroke: #b0b0b0; stroke-width: 0.8; stroke-linecap: square"/>
     </g>
     <g id="line2d_18">
      <g>
       <use xlink:href="#m06e0afd539" x="0" y="63.816238" style="stroke: #000000; stroke-width: 0.8"/>
      </g>
     </g>
    </g>
    <g id="ytick_6">
     <g id="line2d_19">
      <path d="M 0 6.330297 
L 460.8 6.330297 
" clip-path="url(#pbf307516e9)" style="fill: none; stroke: #b0b0b0; stroke-width: 0.8; stroke-linecap: square"/>
     </g>
     <g id="line2d_20">
      <g>
       <use xlink:href="#m06e0afd539" x="0" y="6.330297" style="stroke: #000000; stroke-width: 0.8"/>
      </g>
     </g>
    </g>
   </g>
   <g id="line2d_21">
    <path d="M -1 286.574257 
L -0.111044 286.574257 
L -0.111044 280.186931 
L 120.044299 280.186931 
L 120.044299 279.388515 
L 121.458287 279.388515 
L 121.458287 278.590099 
L 127.211033 278.590099 
L 127.211033 277.791683 
L 128.609291 277.791683 
L 128.609291 276.993267 
L 128.756442 276.993267 
L 128.756442 276.194851 
L 129.622059 276.194851 
L 129.622059 275.396436 
L 145.527745 275.396436 
L 145.527745 274.59802 
L 154.588417 274.59802 
L 154.588417 273.799604 
L 155.95033 273.799604 
L 155.95033 273.001188 
L 156.417888 273.001188 
L 156.417888 272.202772 
L 159.106448 272.202772 
L 159.106448 266.613861 
L 170.293643 266.613861 
L 170.293643 265.815446 
L 182.970642 265.815446 
L 182.970642 265.01703 
L 189.127288 265.01703 
L 189.127288 264.218614 
L 190.005741 264.218614 
L 190.005741 257.831287 
L 190.164918 257.831287 
L 190.164918 257.032871 
L 190.781577 257.032871 
L 190.781577 256.234455 
L 191.744541 256.234455 
L 191.762362 254.637624 
L 192.068167 254.637624 
L 192.145961 253.040792 
L 193.085757 253.040792 
L 193.085757 252.242376 
L 193.481177 252.242376 
L 193.481177 251.44396 
L 194.23101 251.44396 
L 194.23101 250.645545 
L 194.759994 250.645545 
L 194.798956 249.048713 
L 195.39786 249.048713 
L 195.39786 248.250297 
L 195.890033 248.250297 
L 195.890033 247.451881 
L 197.599201 247.451881 
L 197.599201 246.653465 
L 199.654526 246.653465 
L 199.654526 245.85505 
L 200.611778 245.85505 
L 200.611778 245.056634 
L 201.34882 245.056634 
L 201.34882 243.459802 
L 202.005927 243.459802 
L 202.005927 242.661386 
L 202.225295 242.661386 
L 202.225295 241.86297 
L 202.442581 241.86297 
L 202.442581 241.064554 
L 202.9341 241.064554 
L 202.9341 240.266139 
L 203.296463 240.266139 
L 203.296463 239.467723 
L 203.734443 239.467723 
L 203.845517 237.870891 
L 204.29924 237.870891 
L 204.29924 237.072475 
L 204.735834 237.072475 
L 204.735834 236.274059 
L 205.910985 236.274059 
L 205.910985 235.475644 
L 207.736849 235.475644 
L 207.736849 234.677228 
L 207.907615 234.677228 
L 207.907615 233.878812 
L 208.427044 233.878812 
L 208.427044 233.080396 
L 210.34075 233.080396 
L 210.443928 231.483564 
L 211.228323 231.483564 
L 211.228323 230.685149 
L 212.038096 230.685149 
L 212.038096 229.886733 
L 214.313671 229.886733 
L 214.313671 229.088317 
L 214.539139 229.088317 
L 214.539139 228.289901 
L 215.349185 228.289901 
L 215.417051 225.096238 
L 215.521715 225.096238 
L 215.561686 221.902574 
L 215.737176 221.902574 
L 215.737176 221.104158 
L 216.082479 221.104158 
L 216.107362 219.507327 
L 216.584428 219.507327 
L 216.606062 217.910495 
L 216.958893 217.910495 
L 217.043844 216.313663 
L 217.478917 216.313663 
L 217.478917 215.515248 
L 217.852398 215.515248 
L 217.852398 214.716832 
L 218.589576 214.716832 
L 218.589576 213.918416 
L 219.119929 213.918416 
L 219.119929 213.12 
L 219.471308 213.12 
L 219.471308 212.321584 
L 219.785414 212.321584 
L 219.785414 211.523168 
L 220.151267 211.523168 
L 220.151267 210.724752 
L 220.415799 210.724752 
L 220.415799 209.926337 
L 220.61342 209.926337 
L 220.70256 207.531089 
L 220.741696 207.531089 
L 220.741696 206.732673 
L 220.893219 206.732673 
L 220.893219 205.934257 
L 221.382426 205.934257 
L 221.382426 205.135842 
L 222.245314 205.135842 
L 222.245314 204.337426 
L 222.601564 204.337426 
L 222.601564 203.53901 
L 222.785966 203.53901 
L 222.835473 201.942178 
L 222.908116 201.942178 
L 222.908116 201.143762 
L 223.177366 201.143762 
L 223.177366 200.345347 
L 223.420374 200.345347 
L 223.420374 199.546931 
L 224.049278 199.546931 
L 224.049278 198.748515 
L 224.442789 198.748515 
L 224.516438 197.151683 
L 224.751259 197.151683 
L 224.825039 195.554851 
L 224.863978 195.554851 
L 224.863978 194.756436 
L 225.04491 194.756436 
L 225.04491 193.95802 
L 225.230038 193.95802 
L 225.243718 192.361188 
L 225.450457 192.361188 
L 225.450457 191.562772 
L 226.195304 191.562772 
L 226.296012 189.965941 
L 226.521657 189.965941 
L 226.521657 189.167525 
L 226.706907 189.167525 
L 226.706907 188.369109 
L 226.948877 188.369109 
L 227.017259 186.772277 
L 227.600616 186.772277 
L 227.600616 185.973861 
L 229.06974 185.973861 
L 229.093549 184.37703 
L 229.219714 184.37703 
L 229.219714 183.578614 
L 229.404614 183.578614 
L 229.404614 182.780198 
L 229.660423 182.780198 
L 229.660423 181.981782 
L 230.060945 181.981782 
L 230.060945 181.183366 
L 230.237779 181.183366 
L 230.237779 180.38495 
L 230.355058 180.38495 
L 230.442948 178.788119 
L 230.647704 178.788119 
L 230.647704 177.989703 
L 230.83395 177.989703 
L 230.83395 177.191287 
L 230.996123 177.191287 
L 231.078286 174.79604 
L 231.252384 174.79604 
L 231.252384 173.997624 
L 231.379622 173.997624 
L 231.4645 172.400792 
L 232.66177 172.400792 
L 232.756898 170.80396 
L 232.974975 170.80396 
L 232.974975 170.005545 
L 233.13442 170.005545 
L 233.13442 169.207129 
L 233.678017 169.207129 
L 233.678017 168.408713 
L 234.526924 168.408713 
L 234.526924 167.610297 
L 234.831302 167.610297 
L 234.831302 166.811881 
L 235.136671 166.811881 
L 235.136671 166.013465 
L 235.28417 166.013465 
L 235.372878 164.416634 
L 235.663783 164.416634 
L 235.716975 162.021386 
L 235.857594 162.021386 
L 235.857594 161.22297 
L 236.003101 161.22297 
L 236.103729 158.827723 
L 236.137405 158.827723 
L 236.137405 158.029307 
L 236.251731 158.029307 
L 236.251731 157.230891 
L 236.455132 157.230891 
L 236.550892 155.634059 
L 236.60653 155.634059 
L 236.60653 154.835644 
L 237.467266 154.835644 
L 237.467266 154.037228 
L 237.713029 154.037228 
L 237.713549 152.440396 
L 237.996652 152.440396 
L 238.070972 150.843564 
L 238.220571 150.843564 
L 238.220571 150.045149 
L 238.457566 150.045149 
L 238.457566 149.246733 
L 239.061562 149.246733 
L 239.061562 148.448317 
L 239.262569 148.448317 
L 239.336162 146.851485 
L 239.7283 146.851485 
L 239.773822 144.456238 
L 239.866923 144.456238 
L 239.866923 143.657822 
L 240.192577 143.657822 
L 240.212904 142.06099 
L 240.534436 142.06099 
L 240.577457 139.665743 
L 240.681727 139.665743 
L 240.681727 138.867327 
L 240.984133 138.867327 
L 241.073036 137.270495 
L 241.381852 137.270495 
L 241.381852 136.472079 
L 241.593614 136.472079 
L 241.677306 134.875248 
L 241.804866 134.875248 
L 241.840686 133.278416 
L 242.183527 133.278416 
L 242.183527 132.48 
L 242.29961 132.48 
L 242.343901 130.084752 
L 242.662569 130.084752 
L 242.662569 129.286337 
L 242.869476 129.286337 
L 242.977445 126.092673 
L 243.220258 126.092673 
L 243.326559 124.495842 
L 243.333448 124.495842 
L 243.418062 122.89901 
L 243.494216 122.89901 
L 243.568696 120.503762 
L 243.657804 120.503762 
L 243.734244 117.310099 
L 243.804147 117.310099 
L 243.88815 114.914851 
L 244.130662 114.914851 
L 244.130662 114.116436 
L 244.490163 114.116436 
L 244.54055 112.519604 
L 244.898085 112.519604 
L 244.898085 111.721188 
L 245.020992 111.721188 
L 245.020992 110.922772 
L 245.313307 110.922772 
L 245.313307 110.124356 
L 245.786006 110.124356 
L 245.8918 108.527525 
L 245.945535 108.527525 
L 245.945535 107.729109 
L 246.790778 107.729109 
L 246.790778 106.930693 
L 247.563973 106.930693 
L 247.563973 106.132277 
L 247.898049 106.132277 
L 247.898049 105.333861 
L 248.164524 105.333861 
L 248.16894 103.73703 
L 248.375829 103.73703 
L 248.375829 102.938614 
L 248.62463 102.938614 
L 248.667278 101.341782 
L 248.821351 101.341782 
L 248.918533 98.946535 
L 249.07353 98.946535 
L 249.07353 98.148119 
L 249.217824 98.148119 
L 249.255433 96.551287 
L 249.666054 96.551287 
L 249.752657 93.357624 
L 249.919658 93.357624 
L 249.919658 92.559208 
L 250.079474 92.559208 
L 250.079474 91.760792 
L 250.231439 91.760792 
L 250.332083 90.16396 
L 250.546678 90.16396 
L 250.546678 89.365545 
L 250.717074 89.365545 
L 250.775264 87.768713 
L 250.850955 87.768713 
L 250.922758 86.171881 
L 251.010514 86.171881 
L 251.05962 84.57505 
L 251.276075 84.57505 
L 251.276075 83.776634 
L 251.684015 83.776634 
L 251.692614 82.179802 
L 251.869397 82.179802 
L 251.869397 81.381386 
L 252.158959 81.381386 
L 252.158959 80.58297 
L 252.326759 80.58297 
L 252.337172 78.986139 
L 252.877851 78.986139 
L 252.877851 78.187723 
L 253.09741 78.187723 
L 253.09741 77.389307 
L 253.880952 77.389307 
L 253.880952 76.590891 
L 254.023233 76.590891 
L 254.110579 74.994059 
L 254.170658 74.994059 
L 254.170658 74.195644 
L 254.305725 74.195644 
L 254.337607 71.800396 
L 254.77047 71.800396 
L 254.871062 70.203564 
L 255.112865 70.203564 
L 255.112865 69.405149 
L 256.083823 69.405149 
L 256.140718 67.009901 
L 256.265006 67.009901 
L 256.292514 65.413069 
L 256.682637 65.413069 
L 256.683833 63.017822 
L 257.017004 63.017822 
L 257.017004 61.42099 
L 257.16049 61.42099 
L 257.180529 59.824158 
L 257.733681 59.824158 
L 257.733681 59.025743 
L 258.737161 59.025743 
L 258.737161 58.227327 
L 259.80934 58.227327 
L 259.80934 57.428911 
L 260.061886 57.428911 
L 260.061886 56.630495 
L 260.203181 56.630495 
L 260.309074 55.033663 
L 260.682505 55.033663 
L 260.709117 53.436832 
L 260.913168 53.436832 
L 260.942504 51.84 
L 261.149996 51.84 
L 261.149996 51.041584 
L 261.517092 51.041584 
L 261.614351 49.444752 
L 262.177697 49.444752 
L 262.177697 48.646337 
L 262.912431 48.646337 
L 262.912579 47.049505 
L 263.14262 47.049505 
L 263.14262 46.251089 
L 263.731384 46.251089 
L 263.814677 44.654257 
L 263.969054 44.654257 
L 264.047552 43.057426 
L 264.397185 43.057426 
L 264.397185 42.25901 
L 264.603638 42.25901 
L 264.707393 40.662178 
L 264.735995 40.662178 
L 264.735995 39.863762 
L 265.233843 39.863762 
L 265.233843 39.065347 
L 266.841142 39.065347 
L 266.841142 38.266931 
L 267.252444 38.266931 
L 267.252444 37.468515 
L 267.640624 37.468515 
L 267.671515 35.871683 
L 268.068855 35.871683 
L 268.130466 33.476436 
L 268.753922 33.476436 
L 268.753922 32.67802 
L 268.88584 32.67802 
L 268.88584 31.879604 
L 269.038424 31.879604 
L 269.038424 31.081188 
L 271.771493 31.081188 
L 271.771493 30.282772 
L 272.005803 30.282772 
L 272.005803 29.484356 
L 272.167722 29.484356 
L 272.241048 27.887525 
L 272.463935 27.887525 
L 272.463935 27.089109 
L 273.197961 27.089109 
L 273.197961 26.290693 
L 273.453778 26.290693 
L 273.453778 25.492277 
L 274.104894 25.492277 
L 274.104894 24.693861 
L 274.542011 24.693861 
L 274.622823 23.09703 
L 275.559627 23.09703 
L 275.559627 22.298614 
L 276.276179 22.298614 
L 276.276179 21.500198 
L 276.432942 21.500198 
L 276.432942 20.701782 
L 276.598405 20.701782 
L 276.608326 19.10495 
L 277.51443 19.10495 
L 277.51443 18.306535 
L 278.865923 18.306535 
L 278.865923 17.508119 
L 279.418706 17.508119 
L 279.418706 16.709703 
L 282.02583 16.709703 
L 282.038733 15.112871 
L 282.184787 15.112871 
L 282.184787 14.314455 
L 282.496515 14.314455 
L 282.496515 13.51604 
L 290.013411 13.51604 
L 290.013411 12.717624 
L 290.572233 12.717624 
L 290.675987 10.322376 
L 290.847862 10.322376 
L 290.847862 9.52396 
L 291.403085 9.52396 
L 291.403085 8.725545 
L 291.990419 8.725545 
L 291.990419 7.927129 
L 293.880294 7.927129 
L 293.880294 7.128713 
L 294.962575 7.128713 
L 294.962575 6.330297 
L 294.962575 6.330297 
L 460.8 6.330297 
L 460.8 6.330297 
" clip-path="url(#pbf307516e9)" style="fill: none; stroke: #ff0000; stroke-width: 3; stroke-linecap: square"/>
   </g>
   <g id="line2d_22">
    <path d="M 190.005741 293.76 
L 190.005741 281.783762 
L 217.82766 281.783762 
L 217.82766 280.985347 
L 220.826745 280.985347 
L 220.826745 280.186931 
L 222.066382 280.186931 
L 222.066382 279.388515 
L 224.747832 279.388515 
L 224.747832 278.590099 
L 224.899459 278.590099 
L 224.899459 277.791683 
L 225.058445 277.791683 
L 225.058445 276.993267 
L 226.701793 276.993267 
L 226.715112 275.396436 
L 228.025894 275.396436 
L 228.025894 274.59802 
L 228.77687 274.59802 
L 228.77687 273.799604 
L 230.537939 273.799604 
L 230.537939 273.001188 
L 231.430518 273.001188 
L 231.430518 272.202772 
L 231.782794 272.202772 
L 231.830459 269.807525 
L 231.968962 269.807525 
L 231.968962 269.009109 
L 233.828451 269.009109 
L 233.931966 267.412277 
L 234.1655 267.412277 
L 234.182512 265.815446 
L 235.22042 265.815446 
L 235.22042 265.01703 
L 236.114914 265.01703 
L 236.152908 263.420198 
L 236.413337 263.420198 
L 236.413337 262.621782 
L 236.712059 262.621782 
L 236.712059 261.823366 
L 237.004788 261.823366 
L 237.004788 261.02495 
L 237.661266 261.02495 
L 237.68188 259.428119 
L 237.776093 259.428119 
L 237.776093 258.629703 
L 238.204016 258.629703 
L 238.204016 257.831287 
L 238.997275 257.831287 
L 239.056355 256.234455 
L 239.492413 256.234455 
L 239.492413 255.43604 
L 240.031046 255.43604 
L 240.031046 254.637624 
L 240.190009 254.637624 
L 240.243508 253.040792 
L 240.739369 253.040792 
L 240.739369 252.242376 
L 241.031788 252.242376 
L 241.031788 251.44396 
L 241.606179 251.44396 
L 241.649002 249.847129 
L 241.81948 249.847129 
L 241.864919 236.274059 
L 242.033142 236.274059 
L 242.110587 234.677228 
L 242.646848 234.677228 
L 242.646848 233.878812 
L 243.171617 233.878812 
L 243.171617 233.080396 
L 243.301945 233.080396 
L 243.301945 232.28198 
L 243.779412 232.28198 
L 243.779412 231.483564 
L 243.921411 231.483564 
L 244.0287 229.886733 
L 244.373529 229.886733 
L 244.373529 229.088317 
L 244.552378 229.088317 
L 244.630612 227.491485 
L 244.75901 227.491485 
L 244.75901 226.693069 
L 244.886742 226.693069 
L 244.990642 224.297822 
L 245.121464 224.297822 
L 245.121464 223.499406 
L 245.333997 223.499406 
L 245.387529 221.104158 
L 246.106331 221.104158 
L 246.106331 220.305743 
L 246.441425 220.305743 
L 246.441425 219.507327 
L 247.226337 219.507327 
L 247.319344 217.910495 
L 247.370199 217.910495 
L 247.370199 217.112079 
L 247.682339 217.112079 
L 247.769817 215.515248 
L 248.198597 215.515248 
L 248.198597 214.716832 
L 248.331218 214.716832 
L 248.374866 213.12 
L 248.617337 213.12 
L 248.676567 211.523168 
L 249.23313 211.523168 
L 249.23313 210.724752 
L 249.976466 210.724752 
L 249.976466 209.926337 
L 250.097312 209.926337 
L 250.193688 208.329505 
L 250.259705 208.329505 
L 250.336903 206.732673 
L 250.590426 206.732673 
L 250.590426 205.934257 
L 250.704271 205.934257 
L 250.704271 205.135842 
L 250.826154 205.135842 
L 250.898937 202.740594 
L 250.997497 202.740594 
L 250.997497 201.942178 
L 251.317185 201.942178 
L 251.317185 201.143762 
L 251.62327 201.143762 
L 251.660644 199.546931 
L 251.812058 199.546931 
L 251.812058 198.748515 
L 251.9981 198.748515 
L 252.04156 197.151683 
L 252.111221 197.151683 
L 252.111221 196.353267 
L 252.246672 196.353267 
L 252.352857 192.361188 
L 252.471779 192.361188 
L 252.471779 191.562772 
L 252.688041 191.562772 
L 252.798442 188.369109 
L 253.16542 188.369109 
L 253.228959 186.772277 
L 253.340328 186.772277 
L 253.450364 184.37703 
L 253.530454 184.37703 
L 253.600989 182.780198 
L 253.701106 182.780198 
L 253.708037 181.183366 
L 253.934309 181.183366 
L 254.035646 178.788119 
L 254.263381 178.788119 
L 254.323106 175.594455 
L 254.441767 175.594455 
L 254.441767 174.79604 
L 255.272934 174.79604 
L 255.299252 173.199208 
L 255.455787 173.199208 
L 255.537109 171.602376 
L 255.727577 171.602376 
L 255.727577 170.80396 
L 255.967318 170.80396 
L 256.068806 169.207129 
L 256.201719 169.207129 
L 256.285186 166.013465 
L 256.395112 166.013465 
L 256.431991 164.416634 
L 256.615172 164.416634 
L 256.66742 162.819802 
L 256.912069 162.819802 
L 256.912069 162.021386 
L 257.227655 162.021386 
L 257.326364 160.424554 
L 257.692773 160.424554 
L 257.692773 148.448317 
L 258.131569 148.448317 
L 258.232729 146.851485 
L 258.368809 146.851485 
L 258.368809 146.053069 
L 258.623511 146.053069 
L 258.717686 144.456238 
L 258.939855 144.456238 
L 258.939855 143.657822 
L 259.092212 143.657822 
L 259.092212 142.859406 
L 259.520683 142.859406 
L 259.527544 141.262574 
L 259.816255 141.262574 
L 259.816255 140.464158 
L 260.071197 140.464158 
L 260.071197 139.665743 
L 260.387847 139.665743 
L 260.450982 138.068911 
L 260.77695 138.068911 
L 260.878918 135.673663 
L 261.095705 135.673663 
L 261.095705 134.875248 
L 261.460177 134.875248 
L 261.460177 134.076832 
L 261.594476 134.076832 
L 261.594476 133.278416 
L 261.753662 133.278416 
L 261.753662 132.48 
L 261.943847 132.48 
L 261.979712 130.883168 
L 262.284288 130.883168 
L 262.284288 130.084752 
L 262.970583 130.084752 
L 262.970583 129.286337 
L 263.151179 129.286337 
L 263.151179 128.487921 
L 263.682928 128.487921 
L 263.682928 127.689505 
L 263.8216 127.689505 
L 263.878984 126.092673 
L 263.93364 126.092673 
L 263.969054 124.495842 
L 264.125602 124.495842 
L 264.125602 123.697426 
L 264.534556 123.697426 
L 264.534556 122.89901 
L 264.697704 122.89901 
L 264.717492 121.302178 
L 264.87995 121.302178 
L 264.87995 120.503762 
L 265.268315 120.503762 
L 265.268315 119.705347 
L 265.575011 119.705347 
L 265.674529 118.108515 
L 266.386846 118.108515 
L 266.413474 116.511683 
L 266.746287 116.511683 
L 266.746287 115.713267 
L 266.885377 115.713267 
L 266.885377 114.914851 
L 267.088991 114.914851 
L 267.088991 114.116436 
L 267.396112 114.116436 
L 267.471761 110.922772 
L 267.937801 110.922772 
L 267.937801 110.124356 
L 268.680736 110.124356 
L 268.680736 109.325941 
L 269.864427 109.325941 
L 269.864427 108.527525 
L 271.78814 108.527525 
L 271.848223 106.930693 
L 273.135242 106.930693 
L 273.210022 105.333861 
L 273.990554 105.333861 
L 273.990554 104.535446 
L 274.459197 104.535446 
L 274.459197 103.73703 
L 275.388196 103.73703 
L 275.409797 102.140198 
L 275.866989 102.140198 
L 275.866989 101.341782 
L 278.263406 101.341782 
L 278.263406 100.543366 
L 278.532971 100.543366 
L 278.532971 99.74495 
L 279.082527 99.74495 
L 279.082527 98.946535 
L 279.841691 98.946535 
L 279.841691 98.148119 
L 280.21139 98.148119 
L 280.21139 97.349703 
L 280.403095 97.349703 
L 280.403095 96.551287 
L 281.374558 96.551287 
L 281.374558 95.752871 
L 281.798752 95.752871 
L 281.798752 94.954455 
L 283.073343 94.954455 
L 283.073343 94.15604 
L 284.09067 94.15604 
L 284.09067 93.357624 
L 284.368451 93.357624 
L 284.368451 92.559208 
L 284.818799 92.559208 
L 284.818799 91.760792 
L 285.030917 91.760792 
L 285.030917 90.962376 
L 285.193774 90.962376 
L 285.193774 90.16396 
L 285.450554 90.16396 
L 285.450554 89.365545 
L 285.706709 89.365545 
L 285.706709 88.567129 
L 286.324544 88.567129 
L 286.324544 87.768713 
L 289.429462 87.768713 
L 289.429462 86.970297 
L 289.796413 86.970297 
L 289.796413 86.171881 
L 292.390195 86.171881 
L 292.390195 85.373465 
L 293.754506 85.373465 
L 293.754506 84.57505 
L 303.595759 84.57505 
L 303.595759 72.598812 
L 306.215512 72.598812 
L 306.215512 71.800396 
L 309.775615 71.800396 
L 309.775615 71.00198 
L 311.838235 71.00198 
L 311.838235 70.203564 
L 312.380971 70.203564 
L 312.380971 69.405149 
L 313.412422 69.405149 
L 313.412422 68.606733 
L 314.963013 68.606733 
L 314.963013 67.808317 
L 315.210645 67.808317 
L 315.210645 67.009901 
L 317.284005 67.009901 
L 317.284005 66.211485 
L 318.117742 66.211485 
L 318.117742 65.413069 
L 318.838976 65.413069 
L 318.838976 64.614653 
L 320.19549 64.614653 
L 320.19549 63.816238 
L 322.279253 63.816238 
L 322.279253 63.017822 
L 323.901937 63.017822 
L 323.901937 62.219406 
L 324.192831 62.219406 
L 324.192831 61.42099 
L 324.766228 61.42099 
L 324.766228 60.622574 
L 327.283258 60.622574 
L 327.283258 59.824158 
L 328.415198 59.824158 
L 328.415198 59.025743 
L 328.741289 59.025743 
L 328.741289 58.227327 
L 328.907215 58.227327 
L 328.907215 57.428911 
L 333.100507 57.428911 
L 333.100507 56.630495 
L 333.672498 56.630495 
L 333.672498 55.832079 
L 334.801705 55.832079 
L 334.801705 55.033663 
L 335.698276 55.033663 
L 335.698276 54.235248 
L 336.522312 54.235248 
L 336.522312 53.436832 
L 339.288645 53.436832 
L 339.288645 52.638416 
L 339.97525 52.638416 
L 339.97525 51.84 
L 347.332949 51.84 
L 347.332949 51.041584 
L 348.000103 51.041584 
L 348.000103 50.243168 
L 348.51816 50.243168 
L 348.51816 49.444752 
L 348.893781 49.444752 
L 348.893781 48.646337 
L 350.354555 48.646337 
L 350.354555 47.847921 
L 353.127595 47.847921 
L 353.127595 47.049505 
L 353.533207 47.049505 
L 353.605734 45.452673 
L 357.011789 45.452673 
L 357.011789 44.654257 
L 358.799849 44.654257 
L 358.799849 43.855842 
L 367.378467 43.855842 
L 367.378467 43.057426 
L 367.734253 43.057426 
L 367.734253 42.25901 
L 368.995745 42.25901 
L 368.995745 41.460594 
L 369.183987 41.460594 
L 369.183987 40.662178 
L 370.423405 40.662178 
L 370.423405 39.863762 
L 373.33638 39.863762 
L 373.33638 39.065347 
L 373.493241 39.065347 
L 373.507396 37.468515 
L 373.754113 37.468515 
L 373.754113 36.670099 
L 374.011992 36.670099 
L 374.011992 35.871683 
L 374.161932 35.871683 
L 374.161932 35.073267 
L 376.125147 35.073267 
L 376.125147 34.274851 
L 377.868874 34.274851 
L 377.868874 33.476436 
L 378.366566 33.476436 
L 378.366566 32.67802 
L 378.551844 32.67802 
L 378.551844 31.879604 
L 379.104085 31.879604 
L 379.104085 31.081188 
L 379.477358 31.081188 
L 379.477358 30.282772 
L 379.70208 30.282772 
L 379.70208 29.484356 
L 379.84195 29.484356 
L 379.84453 27.887525 
L 380.389314 27.887525 
L 380.389314 27.089109 
L 380.723705 27.089109 
L 380.723705 26.290693 
L 380.931316 26.290693 
L 380.931316 25.492277 
L 381.685628 25.492277 
L 381.685628 24.693861 
L 382.074192 24.693861 
L 382.074192 23.895446 
L 384.073303 23.895446 
L 384.073303 23.09703 
L 384.444988 23.09703 
L 384.444988 22.298614 
L 385.681888 22.298614 
L 385.681888 21.500198 
L 385.885487 21.500198 
L 385.885487 20.701782 
L 386.261888 20.701782 
L 386.261888 19.903366 
L 386.859168 19.903366 
L 386.859168 19.10495 
L 387.663808 19.10495 
L 387.663808 18.306535 
L 388.239238 18.306535 
L 388.239238 17.508119 
L 390.897098 17.508119 
L 390.897098 16.709703 
L 391.272912 16.709703 
L 391.272912 15.911287 
L 392.538018 15.911287 
L 392.538018 15.112871 
L 396.210202 15.112871 
L 396.210202 14.314455 
L 398.576188 14.314455 
L 398.576188 13.51604 
L 401.276482 13.51604 
L 401.276482 12.717624 
L 401.425768 12.717624 
L 401.455542 11.120792 
L 401.972396 11.120792 
L 401.972396 10.322376 
L 405.296838 10.322376 
L 405.296838 9.52396 
L 415.723657 9.52396 
L 415.723657 8.725545 
L 416.563043 8.725545 
L 416.563043 7.927129 
L 425.079057 7.927129 
L 425.079057 7.128713 
L 431.69679 7.128713 
L 431.69679 6.330297 
L 431.69679 6.330297 
L 460.8 6.330297 
L 460.8 6.330297 
" clip-path="url(#pbf307516e9)" style="fill: none; stroke: #00bfbf; stroke-width: 1.5; stroke-linecap: square"/>
   </g>
   <g id="line2d_23">
    <path d="M 190.005741 293.76 
L 190.005741 281.783762 
L 217.478917 281.783762 
L 217.478917 280.985347 
L 219.704059 280.985347 
L 219.704059 280.186931 
L 221.382426 280.186931 
L 221.382426 279.388515 
L 222.464035 279.388515 
L 222.464035 278.590099 
L 222.889183 278.590099 
L 222.889183 277.791683 
L 224.609962 277.791683 
L 224.657641 276.194851 
L 224.825039 276.194851 
L 224.825039 275.396436 
L 226.676405 275.396436 
L 226.715112 273.799604 
L 227.189668 273.799604 
L 227.189668 273.001188 
L 227.696615 273.001188 
L 227.696615 272.202772 
L 228.338032 272.202772 
L 228.338032 271.404356 
L 229.065755 271.404356 
L 229.065755 270.605941 
L 229.838576 270.605941 
L 229.838576 269.807525 
L 230.087896 269.807525 
L 230.087896 269.009109 
L 230.311168 269.009109 
L 230.311168 268.210693 
L 230.647704 268.210693 
L 230.675599 266.613861 
L 230.865095 266.613861 
L 230.865095 265.815446 
L 231.442956 265.815446 
L 231.544675 264.218614 
L 231.830459 264.218614 
L 231.830459 263.420198 
L 232.66177 263.420198 
L 232.66177 262.621782 
L 233.233297 262.621782 
L 233.316369 261.02495 
L 233.431227 261.02495 
L 233.431227 260.226535 
L 233.600513 260.226535 
L 233.609453 258.629703 
L 234.940743 258.629703 
L 234.940743 257.831287 
L 235.680929 257.831287 
L 235.680929 257.032871 
L 235.857594 257.032871 
L 235.857594 256.234455 
L 236.655806 256.234455 
L 236.655806 255.43604 
L 236.944478 255.43604 
L 237.004788 253.839208 
L 237.499558 253.839208 
L 237.499558 253.040792 
L 238.77338 253.040792 
L 238.77338 252.242376 
L 239.567997 252.242376 
L 239.600691 250.645545 
L 239.7283 250.645545 
L 239.822305 247.451881 
L 239.866923 247.451881 
L 239.934748 244.258218 
L 240.192577 244.258218 
L 240.290828 241.86297 
L 240.372701 241.86297 
L 240.377604 240.266139 
L 240.519047 240.266139 
L 240.571325 238.669307 
L 240.834088 238.669307 
L 240.834088 237.870891 
L 241.299771 237.870891 
L 241.311864 236.274059 
L 241.523836 236.274059 
L 241.523836 235.475644 
L 241.649397 235.475644 
L 241.698784 233.878812 
L 241.81948 233.878812 
L 241.840595 231.483564 
L 242.359376 231.483564 
L 242.359376 230.685149 
L 242.516416 230.685149 
L 242.516416 229.886733 
L 242.872407 229.886733 
L 242.872407 229.088317 
L 243.301945 229.088317 
L 243.301945 228.289901 
L 243.495454 228.289901 
L 243.519714 226.693069 
L 243.942277 226.693069 
L 243.942277 225.894653 
L 244.364854 225.894653 
L 244.460231 224.297822 
L 244.540641 224.297822 
L 244.638062 222.70099 
L 244.672967 222.70099 
L 244.672967 221.902574 
L 244.94336 221.902574 
L 244.94336 221.104158 
L 245.171467 221.104158 
L 245.171467 220.305743 
L 246.097371 220.305743 
L 246.097371 219.507327 
L 246.224443 219.507327 
L 246.224443 218.708911 
L 246.341869 218.708911 
L 246.341869 217.910495 
L 246.823226 217.910495 
L 246.924817 216.313663 
L 247.072826 216.313663 
L 247.072826 215.515248 
L 247.352341 215.515248 
L 247.352341 214.716832 
L 247.6423 214.716832 
L 247.682339 213.12 
L 247.986432 213.12 
L 247.986432 212.321584 
L 248.198597 212.321584 
L 248.198597 211.523168 
L 248.617337 211.523168 
L 248.700373 209.926337 
L 248.927864 209.926337 
L 248.927864 209.127921 
L 249.180031 209.127921 
L 249.280222 205.934257 
L 249.555745 205.934257 
L 249.555745 205.135842 
L 249.693277 205.135842 
L 249.746441 202.740594 
L 249.815962 202.740594 
L 249.865132 201.143762 
L 249.944531 201.143762 
L 250.042099 198.748515 
L 250.318492 198.748515 
L 250.425171 195.554851 
L 250.459538 195.554851 
L 250.459538 194.756436 
L 250.635769 194.756436 
L 250.723714 191.562772 
L 250.907139 191.562772 
L 250.912634 189.965941 
L 251.08578 189.965941 
L 251.08578 189.167525 
L 251.277628 189.167525 
L 251.307142 187.570693 
L 251.461592 187.570693 
L 251.552331 185.175446 
L 251.81982 185.175446 
L 251.89399 181.981782 
L 252.007594 181.981782 
L 252.099476 180.38495 
L 252.128263 180.38495 
L 252.197185 178.788119 
L 252.341756 178.788119 
L 252.448137 177.191287 
L 252.5063 177.191287 
L 252.5063 176.392871 
L 252.725297 176.392871 
L 252.725297 175.594455 
L 253.144669 175.594455 
L 253.144669 174.79604 
L 253.414574 174.79604 
L 253.421512 173.199208 
L 253.621541 173.199208 
L 253.662557 171.602376 
L 253.759913 171.602376 
L 253.759913 170.80396 
L 254.072907 170.80396 
L 254.170658 169.207129 
L 254.236752 169.207129 
L 254.299873 166.013465 
L 254.434642 166.013465 
L 254.434642 165.21505 
L 254.7138 165.21505 
L 254.77047 163.618218 
L 255.368027 163.618218 
L 255.368027 162.819802 
L 255.764631 162.819802 
L 255.764631 162.021386 
L 255.933462 162.021386 
L 255.987202 160.424554 
L 256.140718 160.424554 
L 256.1624 158.827723 
L 256.66742 158.827723 
L 256.66742 158.029307 
L 256.827906 158.029307 
L 256.903434 156.432475 
L 257.002566 156.432475 
L 257.002566 155.634059 
L 257.378302 155.634059 
L 257.378302 154.835644 
L 257.497467 154.835644 
L 257.497467 154.037228 
L 257.634416 154.037228 
L 257.692773 142.06099 
L 258.002719 142.06099 
L 258.002719 141.262574 
L 258.194588 141.262574 
L 258.194588 140.464158 
L 258.368809 140.464158 
L 258.470924 138.867327 
L 258.798425 138.867327 
L 258.798425 138.068911 
L 259.34631 138.068911 
L 259.34631 137.270495 
L 259.659063 137.270495 
L 259.675574 135.673663 
L 260.144917 135.673663 
L 260.144917 134.875248 
L 260.745209 134.875248 
L 260.779523 132.48 
L 260.908015 132.48 
L 260.908015 131.681584 
L 261.339854 131.681584 
L 261.339854 130.883168 
L 261.665274 130.883168 
L 261.753662 129.286337 
L 261.8324 129.286337 
L 261.8324 128.487921 
L 262.303498 128.487921 
L 262.303498 127.689505 
L 262.897678 127.689505 
L 262.897678 126.891089 
L 263.299262 126.891089 
L 263.391046 124.495842 
L 263.6207 124.495842 
L 263.6207 123.697426 
L 263.969054 123.697426 
L 264.066105 122.100594 
L 264.281206 122.100594 
L 264.355582 120.503762 
L 264.397185 120.503762 
L 264.397185 119.705347 
L 264.89349 119.705347 
L 264.89349 118.906931 
L 265.33151 118.906931 
L 265.400137 117.310099 
L 265.956442 117.310099 
L 266.026411 115.713267 
L 266.32869 115.713267 
L 266.32869 114.914851 
L 266.525069 114.914851 
L 266.525069 114.116436 
L 266.676571 114.116436 
L 266.676571 113.31802 
L 266.843596 113.31802 
L 266.843596 112.519604 
L 266.988823 112.519604 
L 267.006344 110.922772 
L 267.203509 110.922772 
L 267.215387 109.325941 
L 267.640624 109.325941 
L 267.640624 108.527525 
L 268.477219 108.527525 
L 268.477219 107.729109 
L 271.103367 107.729109 
L 271.103367 106.930693 
L 271.268123 106.930693 
L 271.268123 106.132277 
L 271.657194 106.132277 
L 271.657194 105.333861 
L 272.930865 105.333861 
L 272.930865 104.535446 
L 273.208603 104.535446 
L 273.284906 102.938614 
L 273.934858 102.938614 
L 273.990554 101.341782 
L 275.623818 101.341782 
L 275.623818 100.543366 
L 277.117909 100.543366 
L 277.117909 99.74495 
L 277.970848 99.74495 
L 277.970848 98.946535 
L 278.532971 98.946535 
L 278.532971 98.148119 
L 279.6088 98.148119 
L 279.6088 97.349703 
L 280.141745 97.349703 
L 280.141745 96.551287 
L 281.192306 96.551287 
L 281.192306 95.752871 
L 281.61923 95.752871 
L 281.61923 94.954455 
L 283.000479 94.954455 
L 283.000479 94.15604 
L 283.987418 94.15604 
L 283.990996 92.559208 
L 284.196575 92.559208 
L 284.196575 91.760792 
L 284.901716 91.760792 
L 284.901716 90.962376 
L 285.068452 90.962376 
L 285.068452 90.16396 
L 285.276645 90.16396 
L 285.276645 89.365545 
L 285.652166 89.365545 
L 285.652166 88.567129 
L 286.324544 88.567129 
L 286.324544 87.768713 
L 289.429462 87.768713 
L 289.429462 86.970297 
L 289.766731 86.970297 
L 289.766731 86.171881 
L 292.008142 86.171881 
L 292.008142 85.373465 
L 293.51636 85.373465 
L 293.51636 84.57505 
L 302.682083 84.57505 
L 302.682083 78.986139 
L 303.464286 78.986139 
L 303.464286 76.590891 
L 303.593571 76.590891 
L 303.595759 72.598812 
L 306.013504 72.598812 
L 306.013504 71.800396 
L 309.775615 71.800396 
L 309.775615 71.00198 
L 311.550194 71.00198 
L 311.550194 70.203564 
L 312.342603 70.203564 
L 312.342603 69.405149 
L 313.224817 69.405149 
L 313.224817 68.606733 
L 314.78847 68.606733 
L 314.78847 67.808317 
L 315.130231 67.808317 
L 315.173049 66.211485 
L 315.829962 66.211485 
L 315.829962 65.413069 
L 317.977874 65.413069 
L 317.977874 64.614653 
L 318.763442 64.614653 
L 318.763442 63.816238 
L 319.942555 63.816238 
L 319.942555 63.017822 
L 322.188118 63.017822 
L 322.188118 62.219406 
L 324.119344 62.219406 
L 324.119344 61.42099 
L 324.766228 61.42099 
L 324.766228 60.622574 
L 325.242183 60.622574 
L 325.242183 59.824158 
L 326.745205 59.824158 
L 326.745205 59.025743 
L 327.693501 59.025743 
L 327.693501 58.227327 
L 328.716573 58.227327 
L 328.773225 56.630495 
L 330.299925 56.630495 
L 330.299925 55.832079 
L 332.676001 55.832079 
L 332.676001 55.033663 
L 334.800169 55.033663 
L 334.800169 54.235248 
L 336.431148 54.235248 
L 336.431148 53.436832 
L 338.973832 53.436832 
L 338.973832 52.638416 
L 339.975248 52.638416 
L 339.975248 51.84 
L 345.576345 51.84 
L 345.576345 51.041584 
L 347.042307 51.041584 
L 347.042307 50.243168 
L 347.675628 50.243168 
L 347.675628 49.444752 
L 348.517858 49.444752 
L 348.517858 48.646337 
L 350.354555 48.646337 
L 350.354555 47.847921 
L 353.087058 47.847921 
L 353.087058 47.049505 
L 353.523118 47.049505 
L 353.576506 45.452673 
L 357.007183 45.452673 
L 357.007183 44.654257 
L 358.530707 44.654257 
L 358.530707 43.855842 
L 367.094613 43.855842 
L 367.094613 43.057426 
L 367.517218 43.057426 
L 367.517218 42.25901 
L 368.015418 42.25901 
L 368.01921 40.662178 
L 370.002124 40.662178 
L 370.002124 39.863762 
L 371.886513 39.863762 
L 371.886513 39.065347 
L 373.324263 39.065347 
L 373.33638 37.468515 
L 373.493241 37.468515 
L 373.493241 36.670099 
L 373.753103 36.670099 
L 373.753103 35.871683 
L 374.125344 35.871683 
L 374.125344 35.073267 
L 375.531804 35.073267 
L 375.531804 34.274851 
L 377.692563 34.274851 
L 377.692563 33.476436 
L 378.064971 33.476436 
L 378.122032 31.879604 
L 378.723983 31.879604 
L 378.723983 31.081188 
L 379.104083 31.081188 
L 379.104083 30.282772 
L 379.320975 30.282772 
L 379.320975 29.484356 
L 379.524986 29.484356 
L 379.629528 27.887525 
L 379.827549 27.887525 
L 379.827549 27.089109 
L 380.091649 27.089109 
L 380.091649 26.290693 
L 380.279677 26.290693 
L 380.279677 25.492277 
L 381.672283 25.492277 
L 381.692628 23.895446 
L 384.073303 23.895446 
L 384.073303 23.09703 
L 384.444567 23.09703 
L 384.444567 22.298614 
L 385.507164 22.298614 
L 385.507164 21.500198 
L 385.659524 21.500198 
L 385.659524 20.701782 
L 386.023448 20.701782 
L 386.023448 19.903366 
L 386.858834 19.903366 
L 386.858834 19.10495 
L 387.550295 19.10495 
L 387.550295 18.306535 
L 387.78861 18.306535 
L 387.78861 17.508119 
L 390.395338 17.508119 
L 390.395338 16.709703 
L 390.88377 16.709703 
L 390.88377 15.911287 
L 392.150585 15.911287 
L 392.150585 15.112871 
L 396.199212 15.112871 
L 396.199212 14.314455 
L 398.282937 14.314455 
L 398.282937 13.51604 
L 400.57001 13.51604 
L 400.574232 11.919208 
L 401.205519 11.919208 
L 401.205519 11.120792 
L 401.474213 11.120792 
L 401.474213 10.322376 
L 404.559996 10.322376 
L 404.559996 9.52396 
L 415.38844 9.52396 
L 415.38844 8.725545 
L 416.211565 8.725545 
L 416.211565 7.927129 
L 424.926183 7.927129 
L 424.926183 7.128713 
L 430.799054 7.128713 
L 430.799054 6.330297 
L 430.799054 6.330297 
L 460.8 6.330297 
L 460.8 6.330297 
" clip-path="url(#pbf307516e9)" style="fill: none; stroke: #bf00bf; stroke-width: 1.5; stroke-linecap: square"/>
   </g>
   <g id="line2d_24">
    <path d="M -0.111044 293.76 
L -0.111044 287.372673 
L 179.327496 287.372673 
L 179.327496 286.574257 
L 184.957039 286.574257 
L 184.957039 285.775842 
L 185.582584 285.775842 
L 185.582584 284.977426 
L 186.006862 284.977426 
L 186.006862 284.17901 
L 186.119957 284.17901 
L 186.119957 283.380594 
L 187.709289 283.380594 
L 187.709289 282.582178 
L 189.013195 282.582178 
L 189.013195 281.783762 
L 190.005741 281.783762 
L 190.005741 274.59802 
L 190.336575 274.59802 
L 190.336575 273.799604 
L 204.394893 273.799604 
L 204.394893 273.001188 
L 207.189552 273.001188 
L 207.189552 272.202772 
L 212.048186 272.202772 
L 212.048186 271.404356 
L 214.618634 271.404356 
L 214.618634 270.605941 
L 215.183388 270.605941 
L 215.183388 269.807525 
L 215.423116 269.807525 
L 215.423116 269.009109 
L 215.782786 269.009109 
L 215.782786 268.210693 
L 216.182119 268.210693 
L 216.182119 267.412277 
L 216.70566 267.412277 
L 216.70566 266.613861 
L 217.418589 266.613861 
L 217.478917 265.01703 
L 219.516363 265.01703 
L 219.516363 264.218614 
L 220.410387 264.218614 
L 220.410387 263.420198 
L 220.749848 263.420198 
L 220.83459 261.823366 
L 220.87505 261.823366 
L 220.981366 260.226535 
L 221.382426 260.226535 
L 221.382426 259.428119 
L 222.884259 259.428119 
L 222.884259 258.629703 
L 223.249938 258.629703 
L 223.275228 257.032871 
L 223.595933 257.032871 
L 223.595933 256.234455 
L 224.779477 256.234455 
L 224.825039 254.637624 
L 225.16807 254.637624 
L 225.269035 252.242376 
L 225.344268 252.242376 
L 225.359168 250.645545 
L 226.025214 250.645545 
L 226.025214 249.847129 
L 226.591994 249.847129 
L 226.646486 248.250297 
L 227.189668 248.250297 
L 227.189668 247.451881 
L 227.363855 247.451881 
L 227.363855 246.653465 
L 227.602731 246.653465 
L 227.602731 245.85505 
L 227.864483 245.85505 
L 227.864483 245.056634 
L 228.223259 245.056634 
L 228.223259 244.258218 
L 228.352712 244.258218 
L 228.352712 243.459802 
L 228.827722 243.459802 
L 228.827722 242.661386 
L 229.172511 242.661386 
L 229.172511 241.86297 
L 229.838576 241.86297 
L 229.838576 241.064554 
L 230.237779 241.064554 
L 230.237779 240.266139 
L 230.359612 240.266139 
L 230.359612 239.467723 
L 230.569243 239.467723 
L 230.647704 237.870891 
L 231.335247 237.870891 
L 231.442956 236.274059 
L 231.544675 236.274059 
L 231.648152 234.677228 
L 231.830459 234.677228 
L 231.830459 233.878812 
L 232.384568 233.878812 
L 232.416854 231.483564 
L 232.66177 231.483564 
L 232.66177 230.685149 
L 233.065992 230.685149 
L 233.172214 229.088317 
L 233.204068 229.088317 
L 233.204068 228.289901 
L 233.431227 228.289901 
L 233.431227 227.491485 
L 234.540575 227.491485 
L 234.540575 226.693069 
L 234.656175 226.693069 
L 234.656175 225.894653 
L 234.940743 225.894653 
L 234.940743 225.096238 
L 235.091692 225.096238 
L 235.091692 224.297822 
L 235.636491 224.297822 
L 235.636491 223.499406 
L 235.857594 223.499406 
L 235.857594 222.70099 
L 236.137405 222.70099 
L 236.137405 221.902574 
L 236.615408 221.902574 
L 236.615408 221.104158 
L 238.543045 221.104158 
L 238.543045 220.305743 
L 239.262569 220.305743 
L 239.262569 219.507327 
L 239.7283 219.507327 
L 239.773822 216.313663 
L 239.866923 216.313663 
L 239.866923 215.515248 
L 240.192577 215.515248 
L 240.192577 214.716832 
L 240.321174 214.716832 
L 240.321174 213.918416 
L 240.475802 213.918416 
L 240.571325 212.321584 
L 240.763928 212.321584 
L 240.763928 211.523168 
L 241.299771 211.523168 
L 241.299771 210.724752 
L 241.49191 210.724752 
L 241.49191 209.926337 
L 241.649397 209.926337 
L 241.649397 209.127921 
L 241.775984 209.127921 
L 241.775984 208.329505 
L 241.960757 208.329505 
L 241.960757 207.531089 
L 242.116496 207.531089 
L 242.116496 206.732673 
L 242.642346 206.732673 
L 242.690456 205.135842 
L 243.301945 205.135842 
L 243.301945 204.337426 
L 243.495454 204.337426 
L 243.578547 202.740594 
L 243.797879 202.740594 
L 243.797879 201.942178 
L 243.943276 201.942178 
L 244.02464 200.345347 
L 244.126937 200.345347 
L 244.126937 199.546931 
L 244.541859 199.546931 
L 244.541859 198.748515 
L 244.672967 198.748515 
L 244.672967 197.950099 
L 245.201545 197.950099 
L 245.238559 196.353267 
L 245.559975 196.353267 
L 245.559975 195.554851 
L 245.675274 195.554851 
L 245.675274 194.756436 
L 245.835745 194.756436 
L 245.8918 192.361188 
L 246.097371 192.361188 
L 246.097371 191.562772 
L 246.368882 191.562772 
L 246.368882 190.764356 
L 246.538081 190.764356 
L 246.538081 189.965941 
L 246.756309 189.965941 
L 246.844156 188.369109 
L 246.924271 188.369109 
L 246.924271 187.570693 
L 247.367455 187.570693 
L 247.367455 186.772277 
L 247.6423 186.772277 
L 247.726675 185.175446 
L 247.898049 185.175446 
L 247.898049 184.37703 
L 248.022427 184.37703 
L 248.125676 181.981782 
L 248.198597 181.981782 
L 248.198597 181.183366 
L 248.440336 181.183366 
L 248.440336 180.38495 
L 248.643079 180.38495 
L 248.683635 177.989703 
L 249.206166 177.989703 
L 249.300914 174.79604 
L 249.466104 174.79604 
L 249.477843 173.199208 
L 249.616883 173.199208 
L 249.693277 170.80396 
L 249.746441 170.80396 
L 249.746441 170.005545 
L 249.860689 170.005545 
L 249.944531 168.408713 
L 250.088846 168.408713 
L 250.088846 167.610297 
L 250.261162 167.610297 
L 250.360326 166.013465 
L 250.452098 166.013465 
L 250.474777 164.416634 
L 250.702315 164.416634 
L 250.702315 163.618218 
L 250.851854 163.618218 
L 250.912634 162.021386 
L 251.11026 162.021386 
L 251.11026 161.22297 
L 251.280179 161.22297 
L 251.300153 159.626139 
L 251.461592 159.626139 
L 251.554808 158.029307 
L 251.81982 158.029307 
L 251.892251 156.432475 
L 252.099476 156.432475 
L 252.099476 155.634059 
L 252.774741 155.634059 
L 252.868442 154.037228 
L 252.908411 154.037228 
L 252.908411 153.238812 
L 253.213005 153.238812 
L 253.213005 152.440396 
L 253.414574 152.440396 
L 253.414574 151.64198 
L 253.611623 151.64198 
L 253.611623 150.843564 
L 253.740027 150.843564 
L 253.740027 150.045149 
L 254.108337 150.045149 
L 254.170658 148.448317 
L 254.236752 148.448317 
L 254.270256 146.053069 
L 254.77047 146.053069 
L 254.77047 145.254653 
L 255.027529 145.254653 
L 255.099307 142.859406 
L 255.217331 142.859406 
L 255.217331 142.06099 
L 255.646119 142.06099 
L 255.646119 141.262574 
L 255.787071 141.262574 
L 255.787071 140.464158 
L 256.140718 140.464158 
L 256.201717 138.867327 
L 256.290665 138.867327 
L 256.290665 138.068911 
L 256.66742 138.068911 
L 256.66742 137.270495 
L 256.903434 137.270495 
L 256.950206 135.673663 
L 257.03132 135.673663 
L 257.03132 134.875248 
L 257.180529 134.875248 
L 257.180529 134.076832 
L 257.588786 134.076832 
L 257.588786 133.278416 
L 257.791287 133.278416 
L 257.791287 132.48 
L 258.013185 132.48 
L 258.057834 130.883168 
L 258.194588 130.883168 
L 258.194588 130.084752 
L 258.368809 130.084752 
L 258.368809 129.286337 
L 259.028631 129.286337 
L 259.028631 128.487921 
L 259.445151 128.487921 
L 259.445151 127.689505 
L 259.733257 127.689505 
L 259.733257 126.891089 
L 259.967415 126.891089 
L 259.967415 126.092673 
L 260.144917 126.092673 
L 260.144917 125.294257 
L 260.375249 125.294257 
L 260.433307 123.697426 
L 260.65123 123.697426 
L 260.65123 122.89901 
L 261.02206 122.89901 
L 261.02206 122.100594 
L 261.149996 122.100594 
L 261.149996 121.302178 
L 261.511723 121.302178 
L 261.511723 120.503762 
L 261.743889 120.503762 
L 261.743889 119.705347 
L 261.967639 119.705347 
L 261.967639 118.906931 
L 262.179102 118.906931 
L 262.252259 117.310099 
L 262.374168 117.310099 
L 262.374168 116.511683 
L 262.882441 116.511683 
L 262.882441 115.713267 
L 263.137551 115.713267 
L 263.137551 114.914851 
L 263.719544 114.914851 
L 263.814677 113.31802 
L 263.891301 113.31802 
L 263.969054 111.721188 
L 264.039584 111.721188 
L 264.066105 110.124356 
L 264.397185 110.124356 
L 264.397185 109.325941 
L 264.603638 109.325941 
L 264.603638 108.527525 
L 265.67604 108.527525 
L 265.679094 106.930693 
L 265.802347 106.930693 
L 265.85006 105.333861 
L 266.096723 105.333861 
L 266.096723 104.535446 
L 266.67262 104.535446 
L 266.67262 103.73703 
L 266.802289 103.73703 
L 266.802289 102.938614 
L 266.931317 102.938614 
L 266.988823 100.543366 
L 267.347034 100.543366 
L 267.347034 99.74495 
L 267.573961 99.74495 
L 267.640624 98.148119 
L 268.355051 98.148119 
L 268.394382 96.551287 
L 268.873025 96.551287 
L 268.873025 95.752871 
L 269.43721 95.752871 
L 269.454554 94.15604 
L 269.633819 94.15604 
L 269.633819 93.357624 
L 270.613634 93.357624 
L 270.613634 92.559208 
L 271.614611 92.559208 
L 271.614611 91.760792 
L 271.849053 91.760792 
L 271.898664 90.16396 
L 272.365209 90.16396 
L 272.365209 89.365545 
L 272.484777 89.365545 
L 272.484777 88.567129 
L 272.610708 88.567129 
L 272.610708 87.768713 
L 272.970605 87.768713 
L 272.970605 86.970297 
L 273.208603 86.970297 
L 273.284906 85.373465 
L 273.568481 85.373465 
L 273.626278 83.776634 
L 273.934858 83.776634 
L 273.990554 82.179802 
L 274.458437 82.179802 
L 274.458437 81.381386 
L 274.771461 81.381386 
L 274.771461 80.58297 
L 274.958138 80.58297 
L 274.958138 79.784554 
L 276.010775 79.784554 
L 276.056341 78.187723 
L 276.53948 78.187723 
L 276.53948 77.389307 
L 276.901828 77.389307 
L 276.901828 76.590891 
L 277.117909 76.590891 
L 277.117909 75.792475 
L 278.086968 75.792475 
L 278.086968 74.994059 
L 282.101997 74.994059 
L 282.101997 74.195644 
L 282.548929 74.195644 
L 282.548929 73.397228 
L 284.187556 73.397228 
L 284.187556 72.598812 
L 284.693473 72.598812 
L 284.693473 71.800396 
L 285.554508 71.800396 
L 285.554508 71.00198 
L 286.704054 71.00198 
L 286.704054 70.203564 
L 290.020292 70.203564 
L 290.020292 69.405149 
L 290.448473 69.405149 
L 290.448473 68.606733 
L 295.260001 68.606733 
L 295.260001 67.808317 
L 295.598618 67.808317 
L 295.598618 67.009901 
L 295.954745 67.009901 
L 295.954745 66.211485 
L 296.081327 66.211485 
L 296.081327 65.413069 
L 296.993219 65.413069 
L 296.993219 64.614653 
L 297.121201 64.614653 
L 297.121201 63.816238 
L 297.412274 63.816238 
L 297.464146 62.219406 
L 297.633387 62.219406 
L 297.633387 61.42099 
L 299.480295 61.42099 
L 299.480295 60.622574 
L 300.160455 60.622574 
L 300.160455 59.824158 
L 301.841962 59.824158 
L 301.841962 59.025743 
L 304.255115 59.025743 
L 304.255115 58.227327 
L 304.76331 58.227327 
L 304.76331 57.428911 
L 307.90171 57.428911 
L 307.90171 56.630495 
L 313.840039 56.630495 
L 313.840039 55.832079 
L 313.97751 55.832079 
L 313.97751 55.033663 
L 315.693865 55.033663 
L 315.693865 54.235248 
L 320.673714 54.235248 
L 320.673714 53.436832 
L 321.772193 53.436832 
L 321.772193 52.638416 
L 324.920762 52.638416 
L 324.920762 51.84 
L 327.051519 51.84 
L 327.051519 51.041584 
L 328.732825 51.041584 
L 328.732825 50.243168 
L 328.914578 50.243168 
L 328.914578 49.444752 
L 330.054399 49.444752 
L 330.054399 48.646337 
L 331.432976 48.646337 
L 331.432976 47.847921 
L 332.178615 47.847921 
L 332.178615 47.049505 
L 333.441229 47.049505 
L 333.441229 46.251089 
L 333.625679 46.251089 
L 333.625679 45.452673 
L 336.604851 45.452673 
L 336.640673 43.855842 
L 338.334199 43.855842 
L 338.334199 43.057426 
L 338.957935 43.057426 
L 338.957935 42.25901 
L 340.145189 42.25901 
L 340.145189 41.460594 
L 341.457564 41.460594 
L 341.457564 40.662178 
L 342.047047 40.662178 
L 342.047047 39.863762 
L 343.929871 39.863762 
L 343.929871 39.065347 
L 344.199609 39.065347 
L 344.199609 38.266931 
L 344.755805 38.266931 
L 344.755805 37.468515 
L 344.897074 37.468515 
L 344.897074 36.670099 
L 345.312781 36.670099 
L 345.312781 35.871683 
L 346.694749 35.871683 
L 346.694749 35.073267 
L 346.997922 35.073267 
L 346.997922 34.274851 
L 348.46941 34.274851 
L 348.46941 33.476436 
L 349.079001 33.476436 
L 349.135214 31.879604 
L 350.117362 31.879604 
L 350.117362 31.081188 
L 350.703434 31.081188 
L 350.703434 30.282772 
L 351.206226 30.282772 
L 351.206226 29.484356 
L 351.670237 29.484356 
L 351.670237 28.685941 
L 351.934137 28.685941 
L 351.987135 27.089109 
L 353.421779 27.089109 
L 353.421779 26.290693 
L 354.632768 26.290693 
L 354.632768 25.492277 
L 355.702749 25.492277 
L 355.702749 24.693861 
L 355.844033 24.693861 
L 355.844033 23.895446 
L 356.434485 23.895446 
L 356.434485 23.09703 
L 356.6805 23.09703 
L 356.6805 22.298614 
L 357.744758 22.298614 
L 357.744758 21.500198 
L 358.362264 21.500198 
L 358.362264 20.701782 
L 358.926381 20.701782 
L 358.926381 19.903366 
L 359.656299 19.903366 
L 359.656299 19.10495 
L 360.925268 19.10495 
L 360.925268 18.306535 
L 363.253336 18.306535 
L 363.253336 17.508119 
L 364.610494 17.508119 
L 364.610494 16.709703 
L 366.410821 16.709703 
L 366.410821 15.911287 
L 367.098371 15.911287 
L 367.098371 15.112871 
L 368.615083 15.112871 
L 368.615083 14.314455 
L 376.669407 14.314455 
L 376.669407 13.51604 
L 379.74402 13.51604 
L 379.768369 11.919208 
L 385.280606 11.919208 
L 385.280606 11.120792 
L 387.514505 11.120792 
L 387.514505 10.322376 
L 390.169087 10.322376 
L 390.169087 9.52396 
L 395.442029 9.52396 
L 395.442029 8.725545 
L 401.412834 8.725545 
L 401.412834 7.927129 
L 406.519895 7.927129 
L 406.519895 7.128713 
L 410.286178 7.128713 
L 410.286178 6.330297 
L 410.286178 6.330297 
L 460.8 6.330297 
L 460.8 6.330297 
" clip-path="url(#pbf307516e9)" style="fill: none; stroke: #000000; stroke-width: 1.5; stroke-linecap: square"/>
   </g>
   <g id="line2d_25">
    <path d="M -0.111044 293.76 
L -0.111044 287.372673 
L 59.689815 287.372673 
L 59.689815 286.574257 
L 83.055262 286.574257 
L 83.055262 285.775842 
L 91.268936 285.775842 
L 91.342257 284.17901 
L 92.633153 284.17901 
L 92.633153 283.380594 
L 93.687543 283.380594 
L 93.687543 282.582178 
L 95.902297 282.582178 
L 95.902297 281.783762 
L 107.246142 281.783762 
L 107.246142 280.985347 
L 156.707553 280.985347 
L 156.707553 280.186931 
L 158.836711 280.186931 
L 158.836711 279.388515 
L 160.565081 279.388515 
L 160.565081 278.590099 
L 161.126739 278.590099 
L 161.126739 277.791683 
L 161.438716 277.791683 
L 161.438716 276.993267 
L 162.333005 276.993267 
L 162.333005 276.194851 
L 162.643281 276.194851 
L 162.643281 275.396436 
L 162.803792 275.396436 
L 162.803792 274.59802 
L 163.132371 274.59802 
L 163.132371 273.799604 
L 163.475539 273.799604 
L 163.475539 273.001188 
L 163.608711 273.001188 
L 163.608711 272.202772 
L 163.7508 272.202772 
L 163.7508 271.404356 
L 164.940933 271.404356 
L 164.940933 270.605941 
L 190.005741 270.605941 
L 190.005741 264.218614 
L 195.923751 264.218614 
L 195.923751 263.420198 
L 198.084736 263.420198 
L 198.084736 262.621782 
L 198.290966 262.621782 
L 198.290966 261.823366 
L 198.624047 261.823366 
L 198.624047 261.02495 
L 199.078396 261.02495 
L 199.078396 260.226535 
L 200.496723 260.226535 
L 200.496723 259.428119 
L 202.047895 259.428119 
L 202.047895 258.629703 
L 203.779299 258.629703 
L 203.779299 257.831287 
L 203.997403 257.831287 
L 203.997403 257.032871 
L 205.620425 257.032871 
L 205.63666 255.43604 
L 205.987135 255.43604 
L 205.987135 254.637624 
L 207.545252 254.637624 
L 207.545252 253.839208 
L 207.907768 253.839208 
L 207.907768 253.040792 
L 212.366804 253.040792 
L 212.366804 252.242376 
L 213.901407 252.242376 
L 213.901407 251.44396 
L 215.16962 251.44396 
L 215.16962 250.645545 
L 216.126291 250.645545 
L 216.160491 248.250297 
L 217.017833 248.250297 
L 217.017833 247.451881 
L 217.335164 247.451881 
L 217.335164 246.653465 
L 217.478917 246.653465 
L 217.478917 245.85505 
L 217.868367 245.85505 
L 217.868367 245.056634 
L 218.112662 245.056634 
L 218.184502 242.661386 
L 218.246255 242.661386 
L 218.246255 241.86297 
L 218.411536 241.86297 
L 218.411536 241.064554 
L 218.637276 241.064554 
L 218.637276 240.266139 
L 219.276336 240.266139 
L 219.276336 239.467723 
L 219.538799 239.467723 
L 219.538799 238.669307 
L 219.89553 238.669307 
L 219.89553 237.870891 
L 221.236167 237.870891 
L 221.236167 237.072475 
L 221.382426 237.072475 
L 221.382426 236.274059 
L 221.652579 236.274059 
L 221.652579 235.475644 
L 222.108544 235.475644 
L 222.11937 233.878812 
L 222.936668 233.878812 
L 222.936668 233.080396 
L 223.177366 233.080396 
L 223.275228 230.685149 
L 223.364479 230.685149 
L 223.364479 229.886733 
L 223.963023 229.886733 
L 223.963023 229.088317 
L 224.315078 229.088317 
L 224.315078 228.289901 
L 224.444734 228.289901 
L 224.444734 227.491485 
L 224.825039 227.491485 
L 224.825039 226.693069 
L 224.986325 226.693069 
L 224.986325 225.894653 
L 225.223565 225.894653 
L 225.223565 225.096238 
L 225.953806 225.096238 
L 225.999514 223.499406 
L 226.197453 223.499406 
L 226.197453 222.70099 
L 226.476087 222.70099 
L 226.476087 221.902574 
L 227.189668 221.902574 
L 227.193477 220.305743 
L 227.481039 220.305743 
L 227.481039 219.507327 
L 227.600621 219.507327 
L 227.608356 217.910495 
L 229.838576 217.910495 
L 229.838576 217.112079 
L 230.149436 217.112079 
L 230.237779 215.515248 
L 230.359612 215.515248 
L 230.359612 214.716832 
L 230.647704 214.716832 
L 230.647704 213.918416 
L 231.046499 213.918416 
L 231.046499 213.12 
L 231.442956 213.12 
L 231.544675 211.523168 
L 231.665365 211.523168 
L 231.731509 209.926337 
L 231.830459 209.926337 
L 231.830459 209.127921 
L 232.346725 209.127921 
L 232.416476 207.531089 
L 232.66177 207.531089 
L 232.66177 206.732673 
L 232.960078 206.732673 
L 232.960078 205.934257 
L 233.172214 205.934257 
L 233.172214 205.135842 
L 233.313035 205.135842 
L 233.313035 204.337426 
L 233.431227 204.337426 
L 233.437477 202.740594 
L 233.579628 202.740594 
L 233.647262 201.143762 
L 233.930932 201.143762 
L 233.993239 199.546931 
L 234.116362 199.546931 
L 234.116362 198.748515 
L 234.877638 198.748515 
L 234.958776 196.353267 
L 235.760211 196.353267 
L 235.857594 193.95802 
L 236.137405 193.95802 
L 236.137405 193.159604 
L 239.061562 193.159604 
L 239.061562 192.361188 
L 239.17462 192.361188 
L 239.262569 189.965941 
L 239.596399 189.965941 
L 239.703943 187.570693 
L 239.7283 187.570693 
L 239.773822 185.175446 
L 239.866923 185.175446 
L 239.866923 184.37703 
L 240.129987 184.37703 
L 240.192577 182.780198 
L 240.412005 182.780198 
L 240.412005 181.981782 
L 240.571325 181.981782 
L 240.571325 181.183366 
L 240.761115 181.183366 
L 240.761115 180.38495 
L 241.299771 180.38495 
L 241.299771 179.586535 
L 241.593614 179.586535 
L 241.649397 177.989703 
L 242.003657 177.989703 
L 242.003657 177.191287 
L 242.116496 177.191287 
L 242.116496 176.392871 
L 242.319363 176.392871 
L 242.380078 174.79604 
L 242.665699 174.79604 
L 242.737993 173.199208 
L 243.029697 173.199208 
L 243.029697 172.400792 
L 243.158812 172.400792 
L 243.158812 171.602376 
L 243.301945 171.602376 
L 243.301945 170.80396 
L 243.714718 170.80396 
L 243.804586 169.207129 
L 243.848857 169.207129 
L 243.942538 167.610297 
L 243.98325 167.610297 
L 244.033331 166.013465 
L 244.132673 166.013465 
L 244.132673 165.21505 
L 244.328661 165.21505 
L 244.368847 163.618218 
L 244.451362 163.618218 
L 244.54549 162.021386 
L 244.639312 162.021386 
L 244.679842 158.827723 
L 244.787868 158.827723 
L 244.787868 158.029307 
L 245.014897 158.029307 
L 245.014897 157.230891 
L 245.219778 157.230891 
L 245.219778 156.432475 
L 245.379641 156.432475 
L 245.379641 155.634059 
L 245.533707 155.634059 
L 245.533707 154.835644 
L 245.786006 154.835644 
L 245.8918 152.440396 
L 245.935891 152.440396 
L 245.935891 151.64198 
L 246.102676 151.64198 
L 246.125917 150.045149 
L 246.450768 150.045149 
L 246.450768 149.246733 
L 246.911826 149.246733 
L 246.911826 148.448317 
L 247.030481 148.448317 
L 247.030481 147.649901 
L 247.721135 147.649901 
L 247.77337 146.053069 
L 247.898049 146.053069 
L 247.972612 144.456238 
L 248.198597 144.456238 
L 248.198597 143.657822 
L 248.327013 143.657822 
L 248.330436 142.06099 
L 248.440336 142.06099 
L 248.461353 140.464158 
L 248.667278 140.464158 
L 248.683635 138.867327 
L 249.014578 138.867327 
L 249.098747 134.875248 
L 249.153693 134.875248 
L 249.153693 134.076832 
L 249.274155 134.076832 
L 249.280222 132.48 
L 249.416635 132.48 
L 249.44992 130.883168 
L 249.531882 130.883168 
L 249.531882 130.084752 
L 249.693277 130.084752 
L 249.746441 127.689505 
L 249.944531 127.689505 
L 249.944531 126.891089 
L 250.231439 126.891089 
L 250.266444 124.495842 
L 250.573358 124.495842 
L 250.573358 123.697426 
L 250.753684 123.697426 
L 250.827706 121.302178 
L 250.891584 121.302178 
L 250.912634 119.705347 
L 251.11026 119.705347 
L 251.11026 118.906931 
L 251.300153 118.906931 
L 251.300153 118.108515 
L 251.455757 118.108515 
L 251.461592 116.511683 
L 251.692614 116.511683 
L 251.692614 115.713267 
L 251.817708 115.713267 
L 251.892251 113.31802 
L 252.099476 113.31802 
L 252.160292 111.721188 
L 252.350346 111.721188 
L 252.42443 109.325941 
L 253.06196 109.325941 
L 253.113766 107.729109 
L 253.414574 107.729109 
L 253.414574 106.930693 
L 253.779175 106.930693 
L 253.78208 105.333861 
L 254.058871 105.333861 
L 254.058871 104.535446 
L 254.170658 104.535446 
L 254.270256 100.543366 
L 254.355033 100.543366 
L 254.464503 98.148119 
L 254.593698 98.148119 
L 254.593698 97.349703 
L 254.77047 97.349703 
L 254.876064 95.752871 
L 254.884063 95.752871 
L 254.884063 94.954455 
L 255.226453 94.954455 
L 255.226453 94.15604 
L 255.646119 94.15604 
L 255.646119 93.357624 
L 256.140718 93.357624 
L 256.140718 92.559208 
L 256.66742 92.559208 
L 256.66742 91.760792 
L 256.817572 91.760792 
L 256.903434 90.16396 
L 257.1319 90.16396 
L 257.180529 88.567129 
L 258.013185 88.567129 
L 258.077915 86.970297 
L 258.194588 86.970297 
L 258.194588 86.171881 
L 258.368809 86.171881 
L 258.368809 85.373465 
L 259.002581 85.373465 
L 259.002581 84.57505 
L 259.14959 84.57505 
L 259.22151 82.978218 
L 259.51753 82.978218 
L 259.51753 82.179802 
L 259.690259 82.179802 
L 259.690259 81.381386 
L 259.911317 81.381386 
L 259.911317 80.58297 
L 260.10636 80.58297 
L 260.145683 78.187723 
L 260.609906 78.187723 
L 260.609906 77.389307 
L 260.942659 77.389307 
L 260.97792 74.994059 
L 261.149996 74.994059 
L 261.149996 74.195644 
L 261.511723 74.195644 
L 261.524385 72.598812 
L 261.651787 72.598812 
L 261.651787 71.800396 
L 263.083852 71.800396 
L 263.083852 71.00198 
L 263.299205 71.00198 
L 263.299205 70.203564 
L 263.589921 70.203564 
L 263.589921 69.405149 
L 263.814677 69.405149 
L 263.814677 68.606733 
L 263.969054 68.606733 
L 264.066105 67.009901 
L 264.099083 67.009901 
L 264.099083 66.211485 
L 264.386807 66.211485 
L 264.476606 63.017822 
L 264.603638 63.017822 
L 264.603638 62.219406 
L 264.970013 62.219406 
L 264.970013 61.42099 
L 265.261775 61.42099 
L 265.336409 59.824158 
L 265.510044 59.824158 
L 265.510044 59.025743 
L 265.818807 59.025743 
L 265.860234 57.428911 
L 266.867423 57.428911 
L 266.867423 56.630495 
L 266.988823 56.630495 
L 266.988823 55.832079 
L 267.640624 55.832079 
L 267.640624 55.033663 
L 268.177522 55.033663 
L 268.177522 54.235248 
L 268.334696 54.235248 
L 268.334696 53.436832 
L 268.715953 53.436832 
L 268.715953 52.638416 
L 270.276956 52.638416 
L 270.276956 51.84 
L 270.561011 51.84 
L 270.561011 51.041584 
L 271.97634 51.041584 
L 271.97634 50.243168 
L 272.619094 50.243168 
L 272.619094 49.444752 
L 273.208603 49.444752 
L 273.208603 48.646337 
L 273.86342 48.646337 
L 273.86342 47.847921 
L 275.797422 47.847921 
L 275.797422 47.049505 
L 276.17443 47.049505 
L 276.249104 45.452673 
L 276.608326 45.452673 
L 276.6419 43.855842 
L 277.117909 43.855842 
L 277.178342 42.25901 
L 277.595357 42.25901 
L 277.595357 41.460594 
L 280.163171 41.460594 
L 280.163171 40.662178 
L 280.740665 40.662178 
L 280.740665 39.863762 
L 281.511444 39.863762 
L 281.511444 39.065347 
L 281.711213 39.065347 
L 281.711213 38.266931 
L 282.02583 38.266931 
L 282.02583 37.468515 
L 282.230732 37.468515 
L 282.230732 36.670099 
L 282.548582 36.670099 
L 282.548582 35.871683 
L 283.407816 35.871683 
L 283.407816 35.073267 
L 290.882943 35.073267 
L 290.882943 34.274851 
L 291.403788 34.274851 
L 291.403788 33.476436 
L 292.256567 33.476436 
L 292.256567 32.67802 
L 292.632401 32.67802 
L 292.632401 31.879604 
L 295.747647 31.879604 
L 295.747647 31.081188 
L 297.578029 31.081188 
L 297.578029 30.282772 
L 297.746573 30.282772 
L 297.746573 29.484356 
L 304.372305 29.484356 
L 304.372305 28.685941 
L 306.06582 28.685941 
L 306.06582 27.887525 
L 306.452842 27.887525 
L 306.490895 26.290693 
L 306.91614 26.290693 
L 306.91614 25.492277 
L 308.678364 25.492277 
L 308.678364 24.693861 
L 309.327314 24.693861 
L 309.327314 23.895446 
L 311.362513 23.895446 
L 311.394892 22.298614 
L 311.57122 22.298614 
L 311.57122 21.500198 
L 314.267118 21.500198 
L 314.267118 20.701782 
L 314.517277 20.701782 
L 314.517277 19.903366 
L 315.448262 19.903366 
L 315.448262 19.10495 
L 316.116961 19.10495 
L 316.116961 18.306535 
L 322.93548 18.306535 
L 322.93548 17.508119 
L 323.088083 17.508119 
L 323.088083 16.709703 
L 326.756669 16.709703 
L 326.756669 15.911287 
L 328.629455 15.911287 
L 328.629455 15.112871 
L 328.930889 15.112871 
L 328.930889 14.314455 
L 329.225982 14.314455 
L 329.317395 12.717624 
L 329.600843 12.717624 
L 329.692613 11.120792 
L 330.653693 11.120792 
L 330.686667 9.52396 
L 332.696993 9.52396 
L 332.696993 8.725545 
L 334.195634 8.725545 
L 334.195634 7.927129 
L 335.602589 7.927129 
L 335.602589 7.128713 
L 336.524848 7.128713 
L 336.524848 6.330297 
L 336.524848 6.330297 
L 460.8 6.330297 
L 460.8 6.330297 
" clip-path="url(#pbf307516e9)" style="fill: none; stroke: #00bfbf; stroke-width: 1.5; stroke-linecap: square"/>
   </g>
   <g id="line2d_26">
    <path d="M -1 286.574257 
L -0.111044 286.574257 
L -0.111044 280.186931 
L 120.049042 280.186931 
L 120.049042 279.388515 
L 121.458287 279.388515 
L 121.458287 278.590099 
L 127.211033 278.590099 
L 127.211033 277.791683 
L 128.704711 277.791683 
L 128.756442 276.194851 
L 129.63779 276.194851 
L 129.63779 275.396436 
L 145.531509 275.396436 
L 145.531509 274.59802 
L 154.58845 274.59802 
L 154.58845 273.799604 
L 155.95033 273.799604 
L 155.95033 273.001188 
L 156.575907 273.001188 
L 156.575907 272.202772 
L 159.106448 272.202772 
L 159.106448 266.613861 
L 170.293643 266.613861 
L 170.293643 265.815446 
L 182.970642 265.815446 
L 182.970642 265.01703 
L 189.150832 265.01703 
L 189.150832 264.218614 
L 190.005741 264.218614 
L 190.005741 257.831287 
L 190.164918 257.831287 
L 190.164918 257.032871 
L 190.788339 257.032871 
L 190.788339 256.234455 
L 191.752401 256.234455 
L 191.752401 255.43604 
L 191.988875 255.43604 
L 192.074659 253.839208 
L 192.17672 253.839208 
L 192.17672 253.040792 
L 193.085757 253.040792 
L 193.085757 252.242376 
L 193.513555 252.242376 
L 193.513555 251.44396 
L 194.245458 251.44396 
L 194.245458 250.645545 
L 194.774059 250.645545 
L 194.834676 249.048713 
L 195.408115 249.048713 
L 195.408115 248.250297 
L 195.899496 248.250297 
L 195.899496 247.451881 
L 199.119235 247.451881 
L 199.119235 246.653465 
L 199.654526 246.653465 
L 199.654526 245.85505 
L 200.611801 245.85505 
L 200.611801 245.056634 
L 201.34882 245.056634 
L 201.34882 243.459802 
L 202.006445 243.459802 
L 202.006445 242.661386 
L 202.226562 242.661386 
L 202.226562 241.86297 
L 202.442589 241.86297 
L 202.442589 241.064554 
L 203.010152 241.064554 
L 203.010152 240.266139 
L 203.395668 240.266139 
L 203.395668 239.467723 
L 203.734443 239.467723 
L 203.845517 237.870891 
L 204.324244 237.870891 
L 204.324244 237.072475 
L 204.766122 237.072475 
L 204.766122 236.274059 
L 206.001752 236.274059 
L 206.001752 235.475644 
L 207.736849 235.475644 
L 207.736849 234.677228 
L 207.907615 234.677228 
L 207.907615 233.878812 
L 208.427044 233.878812 
L 208.427044 233.080396 
L 210.34075 233.080396 
L 210.443928 231.483564 
L 211.228323 231.483564 
L 211.228323 230.685149 
L 212.038096 230.685149 
L 212.038096 229.886733 
L 214.313671 229.886733 
L 214.313671 229.088317 
L 214.539139 229.088317 
L 214.539139 228.289901 
L 215.349406 228.289901 
L 215.417051 225.096238 
L 215.521743 225.096238 
L 215.561686 221.902574 
L 215.737176 221.902574 
L 215.737176 221.104158 
L 216.082479 221.104158 
L 216.107362 219.507327 
L 216.606062 219.507327 
L 216.606062 218.708911 
L 216.933293 218.708911 
L 217.043868 216.313663 
L 217.478917 216.313663 
L 217.478917 215.515248 
L 217.852398 215.515248 
L 217.852398 214.716832 
L 218.589576 214.716832 
L 218.589576 213.918416 
L 219.119929 213.918416 
L 219.119929 213.12 
L 219.471308 213.12 
L 219.471308 212.321584 
L 219.785414 212.321584 
L 219.785414 211.523168 
L 220.151267 211.523168 
L 220.151267 210.724752 
L 220.415868 210.724752 
L 220.415868 209.926337 
L 220.61342 209.926337 
L 220.70256 207.531089 
L 220.741698 207.531089 
L 220.741698 206.732673 
L 220.893544 206.732673 
L 220.893544 205.934257 
L 221.382426 205.934257 
L 221.382426 205.135842 
L 222.245314 205.135842 
L 222.245314 204.337426 
L 222.601564 204.337426 
L 222.601564 203.53901 
L 222.786004 203.53901 
L 222.835473 201.942178 
L 222.908116 201.942178 
L 222.908116 201.143762 
L 223.177366 201.143762 
L 223.177366 200.345347 
L 223.420374 200.345347 
L 223.420374 199.546931 
L 224.049278 199.546931 
L 224.049278 198.748515 
L 224.442789 198.748515 
L 224.516438 197.151683 
L 224.751259 197.151683 
L 224.825039 195.554851 
L 224.863983 195.554851 
L 224.863983 194.756436 
L 225.04491 194.756436 
L 225.04491 193.95802 
L 225.230038 193.95802 
L 225.243718 192.361188 
L 225.450467 192.361188 
L 225.450467 191.562772 
L 226.195304 191.562772 
L 226.296012 189.965941 
L 226.521657 189.965941 
L 226.521657 189.167525 
L 226.706908 189.167525 
L 226.706908 188.369109 
L 226.948877 188.369109 
L 227.017259 186.772277 
L 227.600616 186.772277 
L 227.600616 185.973861 
L 229.06974 185.973861 
L 229.093549 184.37703 
L 229.219714 184.37703 
L 229.219714 183.578614 
L 229.404614 183.578614 
L 229.404614 182.780198 
L 229.660457 182.780198 
L 229.660457 181.981782 
L 230.060945 181.981782 
L 230.060945 181.183366 
L 230.237779 181.183366 
L 230.237779 180.38495 
L 230.365213 180.38495 
L 230.442948 178.788119 
L 230.647704 178.788119 
L 230.647704 177.989703 
L 230.83395 177.989703 
L 230.83395 177.191287 
L 230.996123 177.191287 
L 231.078286 174.79604 
L 231.252384 174.79604 
L 231.252384 173.997624 
L 231.379637 173.997624 
L 231.4645 172.400792 
L 232.66177 172.400792 
L 232.756898 170.80396 
L 232.974975 170.80396 
L 232.974975 170.005545 
L 233.13442 170.005545 
L 233.13442 169.207129 
L 233.678017 169.207129 
L 233.678017 168.408713 
L 234.526941 168.408713 
L 234.526941 167.610297 
L 234.831302 167.610297 
L 234.831302 166.811881 
L 235.136671 166.811881 
L 235.136671 166.013465 
L 235.284171 166.013465 
L 235.372878 164.416634 
L 235.665272 164.416634 
L 235.716975 162.021386 
L 235.857594 162.021386 
L 235.857594 161.22297 
L 236.02205 161.22297 
L 236.125899 158.827723 
L 236.137405 158.827723 
L 236.137405 158.029307 
L 236.251731 158.029307 
L 236.251731 157.230891 
L 236.455132 157.230891 
L 236.550892 155.634059 
L 236.60653 155.634059 
L 236.60653 154.835644 
L 237.467266 154.835644 
L 237.467266 154.037228 
L 237.713029 154.037228 
L 237.713549 152.440396 
L 237.996652 152.440396 
L 238.071124 150.843564 
L 238.220571 150.843564 
L 238.220571 150.045149 
L 238.457566 150.045149 
L 238.457566 149.246733 
L 239.061562 149.246733 
L 239.061562 148.448317 
L 239.262569 148.448317 
L 239.336162 146.851485 
L 239.7283 146.851485 
L 239.773822 144.456238 
L 239.866923 144.456238 
L 239.866923 143.657822 
L 240.192577 143.657822 
L 240.212904 142.06099 
L 240.534436 142.06099 
L 240.577457 139.665743 
L 240.686065 139.665743 
L 240.686065 138.867327 
L 240.984133 138.867327 
L 241.073036 137.270495 
L 241.381898 137.270495 
L 241.381898 136.472079 
L 241.593614 136.472079 
L 241.677306 134.875248 
L 241.804866 134.875248 
L 241.840686 133.278416 
L 242.183527 133.278416 
L 242.183527 132.48 
L 242.29961 132.48 
L 242.343901 130.084752 
L 242.662569 130.084752 
L 242.662569 129.286337 
L 242.869476 129.286337 
L 242.977455 126.092673 
L 243.220258 126.092673 
L 243.326559 124.495842 
L 243.333448 124.495842 
L 243.418262 122.89901 
L 243.494216 122.89901 
L 243.568707 120.503762 
L 243.657804 120.503762 
L 243.734244 117.310099 
L 243.80416 117.310099 
L 243.888175 114.914851 
L 244.130662 114.914851 
L 244.130662 114.116436 
L 244.490163 114.116436 
L 244.54055 112.519604 
L 244.898089 112.519604 
L 244.898089 111.721188 
L 245.020992 111.721188 
L 245.020992 110.922772 
L 245.313307 110.922772 
L 245.313307 110.124356 
L 245.786006 110.124356 
L 245.8918 108.527525 
L 245.945535 108.527525 
L 245.945535 107.729109 
L 246.79225 107.729109 
L 246.79225 106.930693 
L 247.563973 106.930693 
L 247.563973 106.132277 
L 247.898049 106.132277 
L 247.898049 105.333861 
L 248.164524 105.333861 
L 248.16894 103.73703 
L 248.375829 103.73703 
L 248.375829 102.938614 
L 248.62463 102.938614 
L 248.667278 101.341782 
L 248.821351 101.341782 
L 248.918533 98.946535 
L 249.07353 98.946535 
L 249.07353 98.148119 
L 249.217824 98.148119 
L 249.255433 96.551287 
L 249.666054 96.551287 
L 249.752657 93.357624 
L 249.91966 93.357624 
L 249.91966 92.559208 
L 250.079474 92.559208 
L 250.079474 91.760792 
L 250.231439 91.760792 
L 250.332384 90.16396 
L 250.546678 90.16396 
L 250.546678 89.365545 
L 250.717075 89.365545 
L 250.775264 87.768713 
L 250.850955 87.768713 
L 250.922758 86.171881 
L 251.010514 86.171881 
L 251.05962 84.57505 
L 251.279042 84.57505 
L 251.279042 83.776634 
L 251.684015 83.776634 
L 251.692614 82.179802 
L 251.869397 82.179802 
L 251.869397 81.381386 
L 252.158959 81.381386 
L 252.158959 80.58297 
L 252.326759 80.58297 
L 252.337172 78.986139 
L 252.877851 78.986139 
L 252.877851 78.187723 
L 253.09741 78.187723 
L 253.09741 77.389307 
L 253.880952 77.389307 
L 253.880952 76.590891 
L 254.023233 76.590891 
L 254.110579 74.994059 
L 254.170658 74.994059 
L 254.170658 74.195644 
L 254.305725 74.195644 
L 254.337607 71.800396 
L 254.77047 71.800396 
L 254.871062 70.203564 
L 255.112865 70.203564 
L 255.112865 69.405149 
L 256.083823 69.405149 
L 256.140718 67.009901 
L 256.265914 67.009901 
L 256.292514 65.413069 
L 256.68382 65.413069 
L 256.70169 63.017822 
L 257.017004 63.017822 
L 257.017004 61.42099 
L 257.16049 61.42099 
L 257.180529 59.824158 
L 257.733681 59.824158 
L 257.733681 59.025743 
L 258.737161 59.025743 
L 258.737161 58.227327 
L 259.80934 58.227327 
L 259.80934 57.428911 
L 260.061886 57.428911 
L 260.061886 56.630495 
L 260.203989 56.630495 
L 260.309074 55.033663 
L 260.682505 55.033663 
L 260.709117 53.436832 
L 260.913168 53.436832 
L 260.942504 51.84 
L 261.149996 51.84 
L 261.149996 51.041584 
L 261.517092 51.041584 
L 261.614351 49.444752 
L 262.179849 49.444752 
L 262.179849 48.646337 
L 262.912431 48.646337 
L 262.912579 47.049505 
L 263.14262 47.049505 
L 263.14262 46.251089 
L 263.731384 46.251089 
L 263.814677 44.654257 
L 263.969054 44.654257 
L 264.047552 43.057426 
L 264.397185 43.057426 
L 264.397185 42.25901 
L 264.603638 42.25901 
L 264.707632 40.662178 
L 264.735995 40.662178 
L 264.735995 39.863762 
L 265.233843 39.863762 
L 265.233843 39.065347 
L 266.84142 39.065347 
L 266.84142 38.266931 
L 267.252444 38.266931 
L 267.252444 37.468515 
L 267.640624 37.468515 
L 267.671515 35.871683 
L 268.070253 35.871683 
L 268.132807 33.476436 
L 268.753922 33.476436 
L 268.753922 32.67802 
L 268.88584 32.67802 
L 268.88584 31.879604 
L 269.038601 31.879604 
L 269.038601 31.081188 
L 271.771493 31.081188 
L 271.771493 30.282772 
L 272.014384 30.282772 
L 272.014384 29.484356 
L 272.167722 29.484356 
L 272.241048 27.887525 
L 272.465015 27.887525 
L 272.465015 27.089109 
L 273.197961 27.089109 
L 273.197961 26.290693 
L 273.453778 26.290693 
L 273.453778 25.492277 
L 274.115322 25.492277 
L 274.115322 24.693861 
L 274.542011 24.693861 
L 274.622823 23.09703 
L 275.559627 23.09703 
L 275.559627 22.298614 
L 276.276179 22.298614 
L 276.276179 21.500198 
L 276.432942 21.500198 
L 276.432942 20.701782 
L 276.598405 20.701782 
L 276.608326 19.10495 
L 277.550306 19.10495 
L 277.550306 18.306535 
L 278.868695 18.306535 
L 278.868695 17.508119 
L 279.418706 17.508119 
L 279.418706 16.709703 
L 282.02583 16.709703 
L 282.039548 15.112871 
L 282.355089 15.112871 
L 282.355089 14.314455 
L 282.496515 14.314455 
L 282.496515 13.51604 
L 290.038457 13.51604 
L 290.038457 12.717624 
L 290.572798 12.717624 
L 290.675987 10.322376 
L 290.847862 10.322376 
L 290.847862 9.52396 
L 291.403674 9.52396 
L 291.403674 8.725545 
L 291.990684 8.725545 
L 291.990684 7.927129 
L 293.880294 7.927129 
L 293.880294 7.128713 
L 294.972068 7.128713 
L 294.972068 6.330297 
L 294.972068 6.330297 
L 460.8 6.330297 
L 460.8 6.330297 
" clip-path="url(#pbf307516e9)" style="fill: none; stroke: #bf00bf; stroke-width: 1.5; stroke-linecap: square"/>
   </g>
   <g id="patch_3">
    <path d="M 0 293.76 
L 0 3.456 
" style="fill: none; stroke: #000000; stroke-width: 0.8; stroke-linejoin: miter; stroke-linecap: square"/>
   </g>
   <g id="patch_4">
    <path d="M 460.8 293.76 
L 460.8 3.456 
" style="fill: none; stroke: #000000; stroke-width: 0.8; stroke-linejoin: miter; stroke-linecap: square"/>
   </g>
   <g id="patch_5">
    <path d="M 0 293.76 
L 460.8 293.76 
" style="fill: none; stroke: #000000; stroke-width: 0.8; stroke-linejoin: miter; stroke-linecap: square"/>
   </g>
   <g id="patch_6">
    <path d="M 0 3.456 
L 460.8 3.456 
" style="fill: none; stroke: #000000; stroke-width: 0.8; stroke-linejoin: miter; stroke-linecap: square"/>
   </g>
   <g id="text_6">
    <!-- {f1-f24}, 5-D -->
    <g transform="translate(318.609 287.95392) scale(0.2 -0.2)">
     <defs>
      <path id="DejaVuSans-7b" d="M 3272 -594 
L 3272 -1044 
L 3078 -1044 
Q 2300 -1044 2036 -812 
Q 1772 -581 1772 109 
L 1772 856 
Q 1772 1328 1603 1509 
Q 1434 1691 991 1691 
L 800 1691 
L 800 2138 
L 991 2138 
Q 1438 2138 1605 2317 
Q 1772 2497 1772 2963 
L 1772 3713 
Q 1772 4403 2036 4633 
Q 2300 4863 3078 4863 
L 3272 4863 
L 3272 4416 
L 3059 4416 
Q 2619 4416 2484 4278 
Q 2350 4141 2350 3700 
L 2350 2925 
Q 2350 2434 2208 2212 
Q 2066 1991 1722 1913 
Q 2069 1828 2209 1606 
Q 2350 1384 2350 897 
L 2350 122 
Q 2350 -319 2484 -456 
Q 2619 -594 3059 -594 
L 3272 -594 
z
" transform="scale(0.015625)"/>
      <path id="DejaVuSans-32" d="M 1228 531 
L 3431 531 
L 3431 0 
L 469 0 
L 469 531 
Q 828 903 1448 1529 
Q 2069 2156 2228 2338 
Q 2531 2678 2651 2914 
Q 2772 3150 2772 3378 
Q 2772 3750 2511 3984 
Q 2250 4219 1831 4219 
Q 1534 4219 1204 4116 
Q 875 4013 500 3803 
L 500 4441 
Q 881 4594 1212 4672 
Q 1544 4750 1819 4750 
Q 2544 4750 2975 4387 
Q 3406 4025 3406 3419 
Q 3406 3131 3298 2873 
Q 3191 2616 2906 2266 
Q 2828 2175 2409 1742 
Q 1991 1309 1228 531 
z
" transform="scale(0.015625)"/>
      <path id="DejaVuSans-7d" d="M 800 -594 
L 1019 -594 
Q 1456 -594 1589 -459 
Q 1722 -325 1722 122 
L 1722 897 
Q 1722 1384 1862 1606 
Q 2003 1828 2350 1913 
Q 2003 1991 1862 2212 
Q 1722 2434 1722 2925 
L 1722 3700 
Q 1722 4144 1589 4280 
Q 1456 4416 1019 4416 
L 800 4416 
L 800 4863 
L 997 4863 
Q 1775 4863 2036 4633 
Q 2297 4403 2297 3713 
L 2297 2963 
Q 2297 2497 2465 2317 
Q 2634 2138 3078 2138 
L 3272 2138 
L 3272 1691 
L 3078 1691 
Q 2634 1691 2465 1509 
Q 2297 1328 2297 856 
L 2297 109 
Q 2297 -581 2036 -812 
Q 1775 -1044 997 -1044 
L 800 -1044 
L 800 -594 
z
" transform="scale(0.015625)"/>
      <path id="DejaVuSans-2c" d="M 750 794 
L 1409 794 
L 1409 256 
L 897 -744 
L 494 -744 
L 750 256 
L 750 794 
z
" transform="scale(0.015625)"/>
      <path id="DejaVuSans-35" d="M 691 4666 
L 3169 4666 
L 3169 4134 
L 1269 4134 
L 1269 2991 
Q 1406 3038 1543 3061 
Q 1681 3084 1819 3084 
Q 2600 3084 3056 2656 
Q 3513 2228 3513 1497 
Q 3513 744 3044 326 
Q 2575 -91 1722 -91 
Q 1428 -91 1123 -41 
Q 819 9 494 109 
L 494 744 
Q 775 591 1075 516 
Q 1375 441 1709 441 
Q 2250 441 2565 725 
Q 2881 1009 2881 1497 
Q 2881 1984 2565 2268 
Q 2250 2553 1709 2553 
Q 1456 2553 1204 2497 
Q 953 2441 691 2322 
L 691 4666 
z
" transform="scale(0.015625)"/>
     </defs>
     <use xlink:href="#DejaVuSans-7b"/>
     <use xlink:href="#DejaVuSans-66" x="63.623047"/>
     <use xlink:href="#DejaVuSans-31" x="98.828125"/>
     <use xlink:href="#DejaVuSans-2d" x="162.451172"/>
     <use xlink:href="#DejaVuSans-66" x="198.535156"/>
     <use xlink:href="#DejaVuSans-32" x="233.740234"/>
     <use xlink:href="#DejaVuSans-34" x="297.363281"/>
     <use xlink:href="#DejaVuSans-7d" x="360.986328"/>
     <use xlink:href="#DejaVuSans-2c" x="424.609375"/>
     <use xlink:href="#DejaVuSans-20" x="456.396484"/>
     <use xlink:href="#DejaVuSans-35" x="488.183594"/>
     <use xlink:href="#DejaVuSans-2d" x="551.806641"/>
     <use xlink:href="#DejaVuSans-44" x="587.890625"/>
    </g>
   </g>
   <g id="text_7">
    <!-- v2.6.3 -->
    <g style="fill: #808080" transform="translate(214.71875 288.777272) scale(0.1 -0.1)">
     <defs>
      <path id="DejaVuSans-76" d="M 191 3500 
L 800 3500 
L 1894 563 
L 2988 3500 
L 3597 3500 
L 2284 0 
L 1503 0 
L 191 3500 
z
" transform="scale(0.015625)"/>
      <path id="DejaVuSans-2e" d="M 684 794 
L 1344 794 
L 1344 0 
L 684 0 
L 684 794 
z
" transform="scale(0.015625)"/>
      <path id="DejaVuSans-36" d="M 2113 2584 
Q 1688 2584 1439 2293 
Q 1191 2003 1191 1497 
Q 1191 994 1439 701 
Q 1688 409 2113 409 
Q 2538 409 2786 701 
Q 3034 994 3034 1497 
Q 3034 2003 2786 2293 
Q 2538 2584 2113 2584 
z
M 3366 4563 
L 3366 3988 
Q 3128 4100 2886 4159 
Q 2644 4219 2406 4219 
Q 1781 4219 1451 3797 
Q 1122 3375 1075 2522 
Q 1259 2794 1537 2939 
Q 1816 3084 2150 3084 
Q 2853 3084 3261 2657 
Q 3669 2231 3669 1497 
Q 3669 778 3244 343 
Q 2819 -91 2113 -91 
Q 1303 -91 875 529 
Q 447 1150 447 2328 
Q 447 3434 972 4092 
Q 1497 4750 2381 4750 
Q 2619 4750 2861 4703 
Q 3103 4656 3366 4563 
z
" transform="scale(0.015625)"/>
      <path id="DejaVuSans-33" d="M 2597 2516 
Q 3050 2419 3304 2112 
Q 3559 1806 3559 1356 
Q 3559 666 3084 287 
Q 2609 -91 1734 -91 
Q 1441 -91 1130 -33 
Q 819 25 488 141 
L 488 750 
Q 750 597 1062 519 
Q 1375 441 1716 441 
Q 2309 441 2620 675 
Q 2931 909 2931 1356 
Q 2931 1769 2642 2001 
Q 2353 2234 1838 2234 
L 1294 2234 
L 1294 2753 
L 1863 2753 
Q 2328 2753 2575 2939 
Q 2822 3125 2822 3475 
Q 2822 3834 2567 4026 
Q 2313 4219 1838 4219 
Q 1578 4219 1281 4162 
Q 984 4106 628 3988 
L 628 4550 
Q 988 4650 1302 4700 
Q 1616 4750 1894 4750 
Q 2613 4750 3031 4423 
Q 3450 4097 3450 3541 
Q 3450 3153 3228 2886 
Q 3006 2619 2597 2516 
z
" transform="scale(0.015625)"/>
     </defs>
     <use xlink:href="#DejaVuSans-76"/>
     <use xlink:href="#DejaVuSans-32" x="59.179688"/>
     <use xlink:href="#DejaVuSans-2e" x="122.802734"/>
     <use xlink:href="#DejaVuSans-36" x="154.589844"/>
     <use xlink:href="#DejaVuSans-2e" x="218.212891"/>
     <use xlink:href="#DejaVuSans-33" x="250"/>
    </g>
   </g>
  </g>
 </g>
 <defs>
  <clipPath id="pbf307516e9">
   <rect x="0" y="3.456" width="460.8" height="290.304"/>
  </clipPath>
 </defs>
</svg>
