<?xml version="1.0" encoding="utf-8" standalone="no"?>
<!DOCTYPE svg PUBLIC "-//W3C//DTD SVG 1.1//EN"
  "http://www.w3.org/Graphics/SVG/1.1/DTD/svg11.dtd">
<svg xmlns:xlink="http://www.w3.org/1999/xlink" width="460.8pt" height="345.6pt" viewBox="0 0 460.8 345.6" xmlns="http://www.w3.org/2000/svg" version="1.1">
 <metadata>
  <rdf:RDF xmlns:dc="http://purl.org/dc/elements/1.1/" xmlns:cc="http://creativecommons.org/ns#" xmlns:rdf="http://www.w3.org/1999/02/22-rdf-syntax-ns#">
   <cc:Work>
    <dc:type rdf:resource="http://purl.org/dc/dcmitype/StillImage"/>
    <dc:date>2024-01-19T15:05:54.843484</dc:date>
    <dc:format>image/svg+xml</dc:format>
    <dc:creator>
     <cc:Agent>
      <dc:title>Matplotlib v3.8.2, https://matplotlib.org/</dc:title>
     </cc:Agent>
    </dc:creator>
   </cc:Work>
  </rdf:RDF>
 </metadata>
 <defs>
  <style type="text/css">*{stroke-linejoin: round; stroke-linecap: butt}</style>
 </defs>
 <g id="figure_1">
  <g id="patch_1">
   <path d="M 0 345.6 
L 460.8 345.6 
L 460.8 0 
L 0 0 
z
" style="fill: #ffffff"/>
  </g>
  <g id="axes_1">
   <g id="patch_2">
    <path d="M 0 293.76 
L 460.8 293.76 
L 460.8 3.456 
L 0 3.456 
z
" style="fill: #ffffff"/>
   </g>
   <g id="matplotlib.axis_1">
    <g id="xtick_1">
     <g id="line2d_1">
      <path d="M 102.674388 293.76 
L 102.674388 3.456 
" clip-path="url(#p61fee5e50f)" style="fill: none; stroke: #b0b0b0; stroke-width: 0.8; stroke-linecap: square"/>
     </g>
     <g id="line2d_2">
      <defs>
       <path id="m47541ff3b6" d="M 0 0 
L 0 3.5 
" style="stroke: #000000; stroke-width: 0.8"/>
      </defs>
      <g>
       <use xlink:href="#m47541ff3b6" x="102.674388" y="293.76" style="stroke: #000000; stroke-width: 0.8"/>
      </g>
     </g>
     <g id="text_1">
      <!-- -4 -->
      <g transform="translate(92.704075 315.956875) scale(0.2 -0.2)">
       <defs>
        <path id="DejaVuSans-2d" d="M 313 2009 
L 1997 2009 
L 1997 1497 
L 313 1497 
L 313 2009 
z
" transform="scale(0.015625)"/>
        <path id="DejaVuSans-34" d="M 2419 4116 
L 825 1625 
L 2419 1625 
L 2419 4116 
z
M 2253 4666 
L 3047 4666 
L 3047 1625 
L 3713 1625 
L 3713 1100 
L 3047 1100 
L 3047 0 
L 2419 0 
L 2419 1100 
L 313 1100 
L 313 1709 
L 2253 4666 
z
" transform="scale(0.015625)"/>
       </defs>
       <use xlink:href="#DejaVuSans-2d"/>
       <use xlink:href="#DejaVuSans-34" x="36.083984"/>
      </g>
     </g>
    </g>
    <g id="xtick_2">
     <g id="line2d_3">
      <path d="M 205.459819 293.76 
L 205.459819 3.456 
" clip-path="url(#p61fee5e50f)" style="fill: none; stroke: #b0b0b0; stroke-width: 0.8; stroke-linecap: square"/>
     </g>
     <g id="line2d_4">
      <g>
       <use xlink:href="#m47541ff3b6" x="205.459819" y="293.76" style="stroke: #000000; stroke-width: 0.8"/>
      </g>
     </g>
     <g id="text_2">
      <!-- 0 -->
      <g transform="translate(199.097319 315.956875) scale(0.2 -0.2)">
       <defs>
        <path id="DejaVuSans-30" d="M 2034 4250 
Q 1547 4250 1301 3770 
Q 1056 3291 1056 2328 
Q 1056 1369 1301 889 
Q 1547 409 2034 409 
Q 2525 409 2770 889 
Q 3016 1369 3016 2328 
Q 3016 3291 2770 3770 
Q 2525 4250 2034 4250 
z
M 2034 4750 
Q 2819 4750 3233 4129 
Q 3647 3509 3647 2328 
Q 3647 1150 3233 529 
Q 2819 -91 2034 -91 
Q 1250 -91 836 529 
Q 422 1150 422 2328 
Q 422 3509 836 4129 
Q 1250 4750 2034 4750 
z
" transform="scale(0.015625)"/>
       </defs>
       <use xlink:href="#DejaVuSans-30"/>
      </g>
     </g>
    </g>
    <g id="xtick_3">
     <g id="line2d_5">
      <path d="M 308.24525 293.76 
L 308.24525 3.456 
" clip-path="url(#p61fee5e50f)" style="fill: none; stroke: #b0b0b0; stroke-width: 0.8; stroke-linecap: square"/>
     </g>
     <g id="line2d_6">
      <g>
       <use xlink:href="#m47541ff3b6" x="308.24525" y="293.76" style="stroke: #000000; stroke-width: 0.8"/>
      </g>
     </g>
     <g id="text_3">
      <!-- 4 -->
      <g transform="translate(301.88275 315.956875) scale(0.2 -0.2)">
       <use xlink:href="#DejaVuSans-34"/>
      </g>
     </g>
    </g>
    <g id="xtick_4">
     <g id="line2d_7">
      <path d="M 411.030681 293.76 
L 411.030681 3.456 
" clip-path="url(#p61fee5e50f)" style="fill: none; stroke: #b0b0b0; stroke-width: 0.8; stroke-linecap: square"/>
     </g>
     <g id="line2d_8">
      <g>
       <use xlink:href="#m47541ff3b6" x="411.030681" y="293.76" style="stroke: #000000; stroke-width: 0.8"/>
      </g>
     </g>
     <g id="text_4">
      <!-- 8 -->
      <g transform="translate(404.668181 315.956875) scale(0.2 -0.2)">
       <defs>
        <path id="DejaVuSans-38" d="M 2034 2216 
Q 1584 2216 1326 1975 
Q 1069 1734 1069 1313 
Q 1069 891 1326 650 
Q 1584 409 2034 409 
Q 2484 409 2743 651 
Q 3003 894 3003 1313 
Q 3003 1734 2745 1975 
Q 2488 2216 2034 2216 
z
M 1403 2484 
Q 997 2584 770 2862 
Q 544 3141 544 3541 
Q 544 4100 942 4425 
Q 1341 4750 2034 4750 
Q 2731 4750 3128 4425 
Q 3525 4100 3525 3541 
Q 3525 3141 3298 2862 
Q 3072 2584 2669 2484 
Q 3125 2378 3379 2068 
Q 3634 1759 3634 1313 
Q 3634 634 3220 271 
Q 2806 -91 2034 -91 
Q 1263 -91 848 271 
Q 434 634 434 1313 
Q 434 1759 690 2068 
Q 947 2378 1403 2484 
z
M 1172 3481 
Q 1172 3119 1398 2916 
Q 1625 2713 2034 2713 
Q 2441 2713 2670 2916 
Q 2900 3119 2900 3481 
Q 2900 3844 2670 4047 
Q 2441 4250 2034 4250 
Q 1625 4250 1398 4047 
Q 1172 3844 1172 3481 
z
" transform="scale(0.015625)"/>
       </defs>
       <use xlink:href="#DejaVuSans-38"/>
      </g>
     </g>
    </g>
    <g id="text_5">
     <!-- log10 of Df -->
     <g transform="translate(175.214063 339.313125) scale(0.2 -0.2)">
      <defs>
       <path id="DejaVuSans-6c" d="M 603 4863 
L 1178 4863 
L 1178 0 
L 603 0 
L 603 4863 
z
" transform="scale(0.015625)"/>
       <path id="DejaVuSans-6f" d="M 1959 3097 
Q 1497 3097 1228 2736 
Q 959 2375 959 1747 
Q 959 1119 1226 758 
Q 1494 397 1959 397 
Q 2419 397 2687 759 
Q 2956 1122 2956 1747 
Q 2956 2369 2687 2733 
Q 2419 3097 1959 3097 
z
M 1959 3584 
Q 2709 3584 3137 3096 
Q 3566 2609 3566 1747 
Q 3566 888 3137 398 
Q 2709 -91 1959 -91 
Q 1206 -91 779 398 
Q 353 888 353 1747 
Q 353 2609 779 3096 
Q 1206 3584 1959 3584 
z
" transform="scale(0.015625)"/>
       <path id="DejaVuSans-67" d="M 2906 1791 
Q 2906 2416 2648 2759 
Q 2391 3103 1925 3103 
Q 1463 3103 1205 2759 
Q 947 2416 947 1791 
Q 947 1169 1205 825 
Q 1463 481 1925 481 
Q 2391 481 2648 825 
Q 2906 1169 2906 1791 
z
M 3481 434 
Q 3481 -459 3084 -895 
Q 2688 -1331 1869 -1331 
Q 1566 -1331 1297 -1286 
Q 1028 -1241 775 -1147 
L 775 -588 
Q 1028 -725 1275 -790 
Q 1522 -856 1778 -856 
Q 2344 -856 2625 -561 
Q 2906 -266 2906 331 
L 2906 616 
Q 2728 306 2450 153 
Q 2172 0 1784 0 
Q 1141 0 747 490 
Q 353 981 353 1791 
Q 353 2603 747 3093 
Q 1141 3584 1784 3584 
Q 2172 3584 2450 3431 
Q 2728 3278 2906 2969 
L 2906 3500 
L 3481 3500 
L 3481 434 
z
" transform="scale(0.015625)"/>
       <path id="DejaVuSans-31" d="M 794 531 
L 1825 531 
L 1825 4091 
L 703 3866 
L 703 4441 
L 1819 4666 
L 2450 4666 
L 2450 531 
L 3481 531 
L 3481 0 
L 794 0 
L 794 531 
z
" transform="scale(0.015625)"/>
       <path id="DejaVuSans-20" transform="scale(0.015625)"/>
       <path id="DejaVuSans-66" d="M 2375 4863 
L 2375 4384 
L 1825 4384 
Q 1516 4384 1395 4259 
Q 1275 4134 1275 3809 
L 1275 3500 
L 2222 3500 
L 2222 3053 
L 1275 3053 
L 1275 0 
L 697 0 
L 697 3053 
L 147 3053 
L 147 3500 
L 697 3500 
L 697 3744 
Q 697 4328 969 4595 
Q 1241 4863 1831 4863 
L 2375 4863 
z
" transform="scale(0.015625)"/>
       <path id="DejaVuSans-44" d="M 1259 4147 
L 1259 519 
L 2022 519 
Q 2988 519 3436 956 
Q 3884 1394 3884 2338 
Q 3884 3275 3436 3711 
Q 2988 4147 2022 4147 
L 1259 4147 
z
M 628 4666 
L 1925 4666 
Q 3281 4666 3915 4102 
Q 4550 3538 4550 2338 
Q 4550 1131 3912 565 
Q 3275 0 1925 0 
L 628 0 
L 628 4666 
z
" transform="scale(0.015625)"/>
      </defs>
      <use xlink:href="#DejaVuSans-6c"/>
      <use xlink:href="#DejaVuSans-6f" x="27.783203"/>
      <use xlink:href="#DejaVuSans-67" x="88.964844"/>
      <use xlink:href="#DejaVuSans-31" x="152.441406"/>
      <use xlink:href="#DejaVuSans-30" x="216.064453"/>
      <use xlink:href="#DejaVuSans-20" x="279.6875"/>
      <use xlink:href="#DejaVuSans-6f" x="311.474609"/>
      <use xlink:href="#DejaVuSans-66" x="372.65625"/>
      <use xlink:href="#DejaVuSans-20" x="407.861328"/>
      <use xlink:href="#DejaVuSans-44" x="439.648438"/>
      <use xlink:href="#DejaVuSans-66" x="516.650391"/>
     </g>
    </g>
   </g>
   <g id="matplotlib.axis_2">
    <g id="ytick_1">
     <g id="line2d_9">
      <path d="M 0 293.76 
L 460.8 293.76 
" clip-path="url(#p61fee5e50f)" style="fill: none; stroke: #b0b0b0; stroke-width: 0.8; stroke-linecap: square"/>
     </g>
     <g id="line2d_10">
      <defs>
       <path id="m68954ca578" d="M 0 0 
L -3.5 0 
" style="stroke: #000000; stroke-width: 0.8"/>
      </defs>
      <g>
       <use xlink:href="#m68954ca578" x="0" y="293.76" style="stroke: #000000; stroke-width: 0.8"/>
      </g>
     </g>
    </g>
    <g id="ytick_2">
     <g id="line2d_11">
      <path d="M 0 236.274059 
L 460.8 236.274059 
" clip-path="url(#p61fee5e50f)" style="fill: none; stroke: #b0b0b0; stroke-width: 0.8; stroke-linecap: square"/>
     </g>
     <g id="line2d_12">
      <g>
       <use xlink:href="#m68954ca578" x="0" y="236.274059" style="stroke: #000000; stroke-width: 0.8"/>
      </g>
     </g>
    </g>
    <g id="ytick_3">
     <g id="line2d_13">
      <path d="M 0 178.788119 
L 460.8 178.788119 
" clip-path="url(#p61fee5e50f)" style="fill: none; stroke: #b0b0b0; stroke-width: 0.8; stroke-linecap: square"/>
     </g>
     <g id="line2d_14">
      <g>
       <use xlink:href="#m68954ca578" x="0" y="178.788119" style="stroke: #000000; stroke-width: 0.8"/>
      </g>
     </g>
    </g>
    <g id="ytick_4">
     <g id="line2d_15">
      <path d="M 0 121.302178 
L 460.8 121.302178 
" clip-path="url(#p61fee5e50f)" style="fill: none; stroke: #b0b0b0; stroke-width: 0.8; stroke-linecap: square"/>
     </g>
     <g id="line2d_16">
      <g>
       <use xlink:href="#m68954ca578" x="0" y="121.302178" style="stroke: #000000; stroke-width: 0.8"/>
      </g>
     </g>
    </g>
    <g id="ytick_5">
     <g id="line2d_17">
      <path d="M 0 63.816238 
L 460.8 63.816238 
" clip-path="url(#p61fee5e50f)" style="fill: none; stroke: #b0b0b0; stroke-width: 0.8; stroke-linecap: square"/>
     </g>
     <g id="line2d_18">
      <g>
       <use xlink:href="#m68954ca578" x="0" y="63.816238" style="stroke: #000000; stroke-width: 0.8"/>
      </g>
     </g>
    </g>
    <g id="ytick_6">
     <g id="line2d_19">
      <path d="M 0 6.330297 
L 460.8 6.330297 
" clip-path="url(#p61fee5e50f)" style="fill: none; stroke: #b0b0b0; stroke-width: 0.8; stroke-linecap: square"/>
     </g>
     <g id="line2d_20">
      <g>
       <use xlink:href="#m68954ca578" x="0" y="6.330297" style="stroke: #000000; stroke-width: 0.8"/>
      </g>
     </g>
    </g>
   </g>
   <g id="line2d_21">
    <path d="M -1 289.927604 
L 156.417888 289.927604 
L 156.417888 286.095208 
L 199.654526 286.095208 
L 199.654526 282.262812 
L 201.34882 282.262812 
L 201.34882 274.59802 
L 203.734443 274.59802 
L 203.845517 266.933228 
L 204.735834 266.933228 
L 204.735834 263.100832 
L 207.907615 263.100832 
L 207.907615 259.268436 
L 210.34075 259.268436 
L 210.443928 251.603644 
L 212.038096 251.603644 
L 212.038096 247.771248 
L 215.349185 247.771248 
L 215.417051 232.441663 
L 215.521715 232.441663 
L 215.561686 217.112079 
L 215.737176 217.112079 
L 215.737176 213.279683 
L 216.082479 213.279683 
L 216.107362 205.614891 
L 216.958893 205.614891 
L 216.958893 201.782495 
L 217.852398 201.782495 
L 217.852398 197.950099 
L 218.589576 197.950099 
L 218.589576 194.117703 
L 219.785414 194.117703 
L 219.785414 190.285307 
L 220.151267 190.285307 
L 220.151267 186.452911 
L 220.698016 186.452911 
L 220.70256 178.788119 
L 222.245314 178.788119 
L 222.245314 174.955723 
L 222.785966 174.955723 
L 222.785966 171.123327 
L 222.908116 171.123327 
L 222.908116 167.290931 
L 224.516438 167.290931 
L 224.516438 163.458535 
L 224.751259 163.458535 
L 224.751259 159.626139 
L 225.04491 159.626139 
L 225.04491 155.793743 
L 225.243718 155.793743 
L 225.243718 151.961347 
L 227.600616 151.961347 
L 227.600616 148.12895 
L 229.093549 148.12895 
L 229.093549 144.296554 
L 229.660423 144.296554 
L 229.660423 140.464158 
L 230.83395 140.464158 
L 230.83395 136.631762 
L 230.996123 136.631762 
L 231.078286 128.96697 
L 235.372878 128.96697 
L 235.372878 125.134574 
L 235.663783 125.134574 
L 235.682859 117.469782 
L 236.60653 117.469782 
L 236.60653 113.637386 
L 237.996652 113.637386 
L 237.996652 109.80499 
L 238.220571 109.80499 
L 238.220571 105.972594 
L 241.593614 105.972594 
L 241.593614 102.140198 
L 242.343901 102.140198 
L 242.343901 98.307802 
L 242.944454 98.307802 
L 242.945187 90.64301 
L 243.220258 90.64301 
L 243.326559 82.978218 
L 243.333448 82.978218 
L 243.418062 75.313426 
L 243.494216 75.313426 
L 243.568696 63.816238 
L 243.657804 63.816238 
L 243.734244 52.31905 
L 243.836649 52.31905 
L 243.836649 48.486653 
L 244.490163 48.486653 
L 244.490163 44.654257 
L 245.313307 44.654257 
L 245.313307 40.821861 
L 245.786006 40.821861 
L 245.786006 36.989465 
L 248.667278 36.989465 
L 248.667278 33.157069 
L 248.821351 33.157069 
L 248.821351 29.324673 
L 249.693277 29.324673 
L 249.693277 25.492277 
L 250.079474 25.492277 
L 250.079474 21.659881 
L 250.546678 21.659881 
L 250.546678 17.827485 
L 252.337172 17.827485 
L 252.337172 13.995089 
L 260.913168 13.995089 
L 260.913168 10.162693 
L 275.559627 10.162693 
L 275.559627 6.330297 
L 275.559627 6.330297 
L 460.8 6.330297 
L 460.8 6.330297 
" clip-path="url(#p61fee5e50f)" style="fill: none; stroke: #ff0000; stroke-width: 3; stroke-linecap: square"/>
   </g>
   <g id="line2d_22">
    <path d="M 226.715112 293.76 
L 226.715112 289.927604 
L 228.77687 289.927604 
L 228.77687 286.095208 
L 231.782794 286.095208 
L 231.830459 278.430416 
L 236.114914 278.430416 
L 236.152908 270.765624 
L 236.413337 270.765624 
L 236.413337 266.933228 
L 237.776093 266.933228 
L 237.776093 263.100832 
L 238.204016 263.100832 
L 238.204016 259.268436 
L 238.997275 259.268436 
L 239.056355 251.603644 
L 239.492413 251.603644 
L 239.492413 247.771248 
L 240.031046 247.771248 
L 240.031046 243.938851 
L 240.739369 243.938851 
L 240.739369 240.106455 
L 241.031788 240.106455 
L 241.031788 236.274059 
L 241.864919 236.274059 
L 241.864919 232.441663 
L 243.171617 232.441663 
L 243.171617 228.609267 
L 244.552378 228.609267 
L 244.552378 224.776871 
L 244.990642 224.776871 
L 244.990642 220.944475 
L 245.121464 220.944475 
L 245.121464 217.112079 
L 247.319344 217.112079 
L 247.319344 213.279683 
L 247.682339 213.279683 
L 247.769817 205.614891 
L 248.374866 205.614891 
L 248.374866 201.782495 
L 248.617337 201.782495 
L 248.676567 194.117703 
L 249.23313 194.117703 
L 249.23313 190.285307 
L 250.193688 190.285307 
L 250.259705 182.620515 
L 250.336903 182.620515 
L 250.336903 178.788119 
L 250.590426 178.788119 
L 250.590426 174.955723 
L 250.704271 174.955723 
L 250.704271 171.123327 
L 250.826154 171.123327 
L 250.898937 163.458535 
L 250.997497 163.458535 
L 250.997497 159.626139 
L 251.317185 159.626139 
L 251.317185 155.793743 
L 251.660644 155.793743 
L 251.660644 151.961347 
L 251.9981 151.961347 
L 251.9981 148.12895 
L 252.111221 148.12895 
L 252.111221 144.296554 
L 252.246672 144.296554 
L 252.352857 128.96697 
L 252.471779 128.96697 
L 252.471779 125.134574 
L 252.688041 125.134574 
L 252.798442 113.637386 
L 253.16542 113.637386 
L 253.228959 105.972594 
L 253.340328 105.972594 
L 253.450364 94.475406 
L 253.708037 94.475406 
L 253.708037 90.64301 
L 254.263381 90.64301 
L 254.299873 82.978218 
L 254.441767 82.978218 
L 254.441767 79.145822 
L 255.727577 79.145822 
L 255.727577 75.313426 
L 255.967318 75.313426 
L 255.967318 71.48103 
L 256.285186 71.48103 
L 256.285186 67.648634 
L 256.431991 67.648634 
L 256.431991 63.816238 
L 303.595759 63.816238 
L 303.595759 6.330297 
L 303.595759 6.330297 
L 460.8 6.330297 
L 460.8 6.330297 
" clip-path="url(#p61fee5e50f)" style="fill: none; stroke: #00bfbf; stroke-width: 1.5; stroke-linecap: square"/>
   </g>
   <g id="line2d_23">
    <path d="M 222.889183 293.76 
L 222.889183 289.927604 
L 226.715112 289.927604 
L 226.715112 286.095208 
L 227.189668 286.095208 
L 227.189668 282.262812 
L 227.696615 282.262812 
L 227.696615 278.430416 
L 228.338032 278.430416 
L 228.338032 274.59802 
L 229.065755 274.59802 
L 229.065755 270.765624 
L 229.838576 270.765624 
L 229.838576 266.933228 
L 230.675599 266.933228 
L 230.675599 263.100832 
L 231.544675 263.100832 
L 231.544675 259.268436 
L 231.830459 259.268436 
L 231.830459 255.43604 
L 233.316369 255.43604 
L 233.316369 251.603644 
L 233.431227 251.603644 
L 233.431227 247.771248 
L 234.940743 247.771248 
L 234.940743 243.938851 
L 235.680929 243.938851 
L 235.680929 240.106455 
L 236.655806 240.106455 
L 236.655806 236.274059 
L 238.77338 236.274059 
L 238.77338 232.441663 
L 240.231287 232.441663 
L 240.231287 228.609267 
L 242.872407 228.609267 
L 242.872407 224.776871 
L 244.460231 224.776871 
L 244.540641 217.112079 
L 246.924817 217.112079 
L 246.924817 213.279683 
L 247.072826 213.279683 
L 247.072826 209.447287 
L 247.352341 209.447287 
L 247.352341 205.614891 
L 247.682339 205.614891 
L 247.682339 201.782495 
L 247.986432 201.782495 
L 247.986432 197.950099 
L 248.617337 197.950099 
L 248.700373 190.285307 
L 249.23313 190.285307 
L 249.274155 182.620515 
L 249.555745 182.620515 
L 249.555745 178.788119 
L 249.693277 178.788119 
L 249.693277 174.955723 
L 249.865132 174.955723 
L 249.969764 163.458535 
L 250.318492 163.458535 
L 250.425171 148.12895 
L 250.459538 148.12895 
L 250.459538 144.296554 
L 250.635769 144.296554 
L 250.723714 132.799366 
L 250.907139 132.799366 
L 250.907139 128.96697 
L 251.307142 128.96697 
L 251.307142 125.134574 
L 251.52995 125.134574 
L 251.52995 121.302178 
L 251.81982 121.302178 
L 251.81982 117.469782 
L 252.007594 117.469782 
L 252.099476 109.80499 
L 252.128263 109.80499 
L 252.197185 102.140198 
L 252.341756 102.140198 
L 252.448137 94.475406 
L 252.5063 94.475406 
L 252.5063 90.64301 
L 253.144669 90.64301 
L 253.144669 86.810614 
L 253.414574 86.810614 
L 253.421512 79.145822 
L 253.662557 79.145822 
L 253.662557 75.313426 
L 254.263381 75.313426 
L 254.299873 67.648634 
L 254.434642 67.648634 
L 254.434642 63.816238 
L 302.682083 63.816238 
L 302.682083 36.989465 
L 303.464286 36.989465 
L 303.464286 25.492277 
L 303.593571 25.492277 
L 303.595759 6.330297 
L 303.595759 6.330297 
L 460.8 6.330297 
L 460.8 6.330297 
" clip-path="url(#p61fee5e50f)" style="fill: none; stroke: #bf00bf; stroke-width: 1.5; stroke-linecap: square"/>
   </g>
   <g id="line2d_24">
    <path d="M 212.048186 293.76 
L 212.048186 289.927604 
L 217.418589 289.927604 
L 217.418589 286.095208 
L 219.516363 286.095208 
L 219.516363 282.262812 
L 220.981366 282.262812 
L 220.981366 278.430416 
L 223.275228 278.430416 
L 223.275228 274.59802 
L 223.595933 274.59802 
L 223.595933 270.765624 
L 224.779477 270.765624 
L 224.779477 266.933228 
L 225.16807 266.933228 
L 225.16807 263.100832 
L 227.189668 263.100832 
L 227.189668 259.268436 
L 227.602731 259.268436 
L 227.602731 255.43604 
L 227.864483 255.43604 
L 227.864483 251.603644 
L 228.352712 251.603644 
L 228.352712 247.771248 
L 229.838576 247.771248 
L 229.838576 243.938851 
L 230.359612 243.938851 
L 230.359612 240.106455 
L 230.569243 240.106455 
L 230.569243 236.274059 
L 231.544675 236.274059 
L 231.544675 232.441663 
L 231.830459 232.441663 
L 231.830459 228.609267 
L 232.416476 228.609267 
L 232.416854 220.944475 
L 233.172214 220.944475 
L 233.172214 217.112079 
L 233.431227 217.112079 
L 233.431227 213.279683 
L 234.940743 213.279683 
L 234.940743 209.447287 
L 235.091692 209.447287 
L 235.091692 205.614891 
L 239.748129 205.614891 
L 239.748129 201.782495 
L 241.775984 201.782495 
L 241.775984 197.950099 
L 242.116496 197.950099 
L 242.116496 194.117703 
L 242.642346 194.117703 
L 242.690456 186.452911 
L 243.797879 186.452911 
L 243.797879 182.620515 
L 244.02464 182.620515 
L 244.126937 174.955723 
L 245.559975 174.955723 
L 245.559975 171.123327 
L 245.675274 171.123327 
L 245.675274 167.290931 
L 245.835745 167.290931 
L 245.835745 163.458535 
L 246.538081 163.458535 
L 246.538081 159.626139 
L 246.756309 159.626139 
L 246.844156 151.961347 
L 246.924271 151.961347 
L 246.924271 148.12895 
L 247.367455 148.12895 
L 247.367455 144.296554 
L 248.022427 144.296554 
L 248.125676 136.631762 
L 248.667278 136.631762 
L 248.667278 132.799366 
L 249.274155 132.799366 
L 249.300914 125.134574 
L 249.466104 125.134574 
L 249.477843 117.469782 
L 249.670806 117.469782 
L 249.693277 109.80499 
L 249.860689 109.80499 
L 249.944531 102.140198 
L 250.088846 102.140198 
L 250.088846 98.307802 
L 250.360326 98.307802 
L 250.360326 94.475406 
L 250.702315 94.475406 
L 250.702315 90.64301 
L 251.300153 90.64301 
L 251.300153 86.810614 
L 251.554808 86.810614 
L 251.554808 82.978218 
L 251.81982 82.978218 
L 251.81982 79.145822 
L 252.099476 79.145822 
L 252.099476 75.313426 
L 252.908411 75.313426 
L 252.908411 71.48103 
L 253.414574 71.48103 
L 253.414574 67.648634 
L 253.740027 67.648634 
L 253.740027 63.816238 
L 254.263381 63.816238 
L 254.263381 59.983842 
L 255.787071 59.983842 
L 255.787071 56.151446 
L 257.03132 56.151446 
L 257.03132 52.31905 
L 263.137551 52.31905 
L 263.137551 48.486653 
L 263.719544 48.486653 
L 263.719544 44.654257 
L 271.614611 44.654257 
L 271.614611 40.821861 
L 271.849053 40.821861 
L 271.849053 36.989465 
L 272.970605 36.989465 
L 272.970605 33.157069 
L 273.626278 33.157069 
L 273.626278 29.324673 
L 274.458437 29.324673 
L 274.458437 25.492277 
L 274.958138 25.492277 
L 274.958138 21.659881 
L 276.53948 21.659881 
L 276.53948 17.827485 
L 276.901828 17.827485 
L 276.901828 13.995089 
L 278.086968 13.995089 
L 278.086968 10.162693 
L 282.101997 10.162693 
L 282.101997 6.330297 
L 282.101997 6.330297 
L 460.8 6.330297 
L 460.8 6.330297 
" clip-path="url(#p61fee5e50f)" style="fill: none; stroke: #000000; stroke-width: 1.5; stroke-linecap: square"/>
   </g>
   <g id="line2d_25">
    <path d="M 195.923751 293.76 
L 195.923751 289.927604 
L 207.907768 289.927604 
L 207.907768 286.095208 
L 212.366804 286.095208 
L 212.366804 282.262812 
L 213.901407 282.262812 
L 213.901407 278.430416 
L 216.126291 278.430416 
L 216.160491 266.933228 
L 217.017833 266.933228 
L 217.017833 263.100832 
L 217.868367 263.100832 
L 217.868367 259.268436 
L 218.112662 259.268436 
L 218.184502 247.771248 
L 218.411536 247.771248 
L 218.411536 243.938851 
L 218.637276 243.938851 
L 218.637276 240.106455 
L 219.538799 240.106455 
L 219.538799 236.274059 
L 221.652579 236.274059 
L 221.652579 232.441663 
L 222.108544 232.441663 
L 222.108544 228.609267 
L 223.255648 228.609267 
L 223.275228 220.944475 
L 224.986325 220.944475 
L 224.986325 217.112079 
L 225.223565 217.112079 
L 225.223565 213.279683 
L 225.999514 213.279683 
L 225.999514 209.447287 
L 227.189668 209.447287 
L 227.193477 201.782495 
L 227.600621 201.782495 
L 227.608356 194.117703 
L 229.838576 194.117703 
L 229.838576 190.285307 
L 230.359612 190.285307 
L 230.359612 186.452911 
L 231.544675 186.452911 
L 231.544675 182.620515 
L 231.830459 182.620515 
L 231.830459 178.788119 
L 232.346725 178.788119 
L 232.416476 171.123327 
L 232.960078 171.123327 
L 232.960078 167.290931 
L 233.172214 167.290931 
L 233.172214 163.458535 
L 233.431227 163.458535 
L 233.431227 159.626139 
L 233.579628 159.626139 
L 233.579628 155.793743 
L 233.993239 155.793743 
L 233.993239 151.961347 
L 234.940743 151.961347 
L 234.940743 148.12895 
L 239.17462 148.12895 
L 239.17462 144.296554 
L 239.703943 144.296554 
L 239.703943 140.464158 
L 241.593614 140.464158 
L 241.593614 136.631762 
L 242.003657 136.631762 
L 242.003657 132.799366 
L 242.116496 132.799366 
L 242.116496 128.96697 
L 243.804586 128.96697 
L 243.804586 125.134574 
L 243.98325 125.134574 
L 244.033331 117.469782 
L 244.328661 117.469782 
L 244.328661 113.637386 
L 244.451362 113.637386 
L 244.451362 109.80499 
L 244.639312 109.80499 
L 244.679842 98.307802 
L 244.787868 98.307802 
L 244.787868 94.475406 
L 245.379641 94.475406 
L 245.379641 90.64301 
L 245.786006 90.64301 
L 245.786006 86.810614 
L 246.102676 86.810614 
L 246.102676 82.978218 
L 247.77337 82.978218 
L 247.77337 79.145822 
L 248.327013 79.145822 
L 248.327013 75.313426 
L 248.667278 75.313426 
L 248.667278 71.48103 
L 249.014578 71.48103 
L 249.098747 56.151446 
L 249.153693 56.151446 
L 249.153693 52.31905 
L 249.274155 52.31905 
L 249.274155 48.486653 
L 249.693277 48.486653 
L 249.693277 44.654257 
L 249.944531 44.654257 
L 249.944531 40.821861 
L 251.300153 40.821861 
L 251.300153 36.989465 
L 251.81982 36.989465 
L 251.81982 33.157069 
L 252.099476 33.157069 
L 252.099476 29.324673 
L 252.350346 29.324673 
L 252.350346 25.492277 
L 253.414574 25.492277 
L 253.414574 21.659881 
L 254.263381 21.659881 
L 254.263381 17.827485 
L 260.97792 17.827485 
L 260.97792 13.995089 
L 275.797422 13.995089 
L 275.797422 10.162693 
L 280.163171 10.162693 
L 280.163171 6.330297 
L 280.163171 6.330297 
L 460.8 6.330297 
L 460.8 6.330297 
" clip-path="url(#p61fee5e50f)" style="fill: none; stroke: #00bfbf; stroke-width: 1.5; stroke-linecap: square"/>
   </g>
   <g id="line2d_26">
    <path d="M -1 289.927604 
L 156.575907 289.927604 
L 156.575907 286.095208 
L 199.654526 286.095208 
L 199.654526 282.262812 
L 201.34882 282.262812 
L 201.34882 274.59802 
L 203.734443 274.59802 
L 203.845517 266.933228 
L 204.766122 266.933228 
L 204.766122 263.100832 
L 207.907615 263.100832 
L 207.907615 259.268436 
L 210.34075 259.268436 
L 210.443928 251.603644 
L 212.038096 251.603644 
L 212.038096 247.771248 
L 215.349406 247.771248 
L 215.417051 232.441663 
L 215.521743 232.441663 
L 215.561686 217.112079 
L 215.737176 217.112079 
L 215.737176 213.279683 
L 216.082479 213.279683 
L 216.107362 205.614891 
L 216.958893 205.614891 
L 216.958893 201.782495 
L 217.852398 201.782495 
L 217.852398 197.950099 
L 218.589576 197.950099 
L 218.589576 194.117703 
L 219.785414 194.117703 
L 219.785414 190.285307 
L 220.151267 190.285307 
L 220.151267 186.452911 
L 220.698016 186.452911 
L 220.70256 178.788119 
L 222.245314 178.788119 
L 222.245314 174.955723 
L 222.786004 174.955723 
L 222.786004 171.123327 
L 222.908116 171.123327 
L 222.908116 167.290931 
L 224.516438 167.290931 
L 224.516438 163.458535 
L 224.751259 163.458535 
L 224.751259 159.626139 
L 225.04491 159.626139 
L 225.04491 155.793743 
L 225.243718 155.793743 
L 225.243718 151.961347 
L 227.600616 151.961347 
L 227.600616 148.12895 
L 229.093549 148.12895 
L 229.093549 144.296554 
L 229.660457 144.296554 
L 229.660457 140.464158 
L 230.83395 140.464158 
L 230.83395 136.631762 
L 230.996123 136.631762 
L 231.078286 128.96697 
L 235.372878 128.96697 
L 235.372878 125.134574 
L 235.665272 125.134574 
L 235.683551 117.469782 
L 236.60653 117.469782 
L 236.60653 113.637386 
L 237.996652 113.637386 
L 237.996652 109.80499 
L 238.220571 109.80499 
L 238.220571 105.972594 
L 241.593614 105.972594 
L 241.593614 102.140198 
L 242.343901 102.140198 
L 242.343901 98.307802 
L 242.944454 98.307802 
L 242.945194 90.64301 
L 243.220258 90.64301 
L 243.326559 82.978218 
L 243.333448 82.978218 
L 243.418262 75.313426 
L 243.494216 75.313426 
L 243.568707 63.816238 
L 243.657804 63.816238 
L 243.734244 52.31905 
L 243.836649 52.31905 
L 243.836649 48.486653 
L 244.490163 48.486653 
L 244.490163 44.654257 
L 245.313307 44.654257 
L 245.313307 40.821861 
L 245.786006 40.821861 
L 245.786006 36.989465 
L 248.667278 36.989465 
L 248.667278 33.157069 
L 248.821351 33.157069 
L 248.821351 29.324673 
L 249.693277 29.324673 
L 249.693277 25.492277 
L 250.079474 25.492277 
L 250.079474 21.659881 
L 250.546678 21.659881 
L 250.546678 17.827485 
L 252.337172 17.827485 
L 252.337172 13.995089 
L 260.913168 13.995089 
L 260.913168 10.162693 
L 275.559627 10.162693 
L 275.559627 6.330297 
L 275.559627 6.330297 
L 460.8 6.330297 
L 460.8 6.330297 
" clip-path="url(#p61fee5e50f)" style="fill: none; stroke: #bf00bf; stroke-width: 1.5; stroke-linecap: square"/>
   </g>
   <g id="patch_3">
    <path d="M 0 293.76 
L 0 3.456 
" style="fill: none; stroke: #000000; stroke-width: 0.8; stroke-linejoin: miter; stroke-linecap: square"/>
   </g>
   <g id="patch_4">
    <path d="M 460.8 293.76 
L 460.8 3.456 
" style="fill: none; stroke: #000000; stroke-width: 0.8; stroke-linejoin: miter; stroke-linecap: square"/>
   </g>
   <g id="patch_5">
    <path d="M 0 293.76 
L 460.8 293.76 
" style="fill: none; stroke: #000000; stroke-width: 0.8; stroke-linejoin: miter; stroke-linecap: square"/>
   </g>
   <g id="patch_6">
    <path d="M 0 3.456 
L 460.8 3.456 
" style="fill: none; stroke: #000000; stroke-width: 0.8; stroke-linejoin: miter; stroke-linecap: square"/>
   </g>
   <g id="text_6">
    <!-- {f20-f24}, 5-D -->
    <g transform="translate(305.884 287.95392) scale(0.2 -0.2)">
     <defs>
      <path id="DejaVuSans-7b" d="M 3272 -594 
L 3272 -1044 
L 3078 -1044 
Q 2300 -1044 2036 -812 
Q 1772 -581 1772 109 
L 1772 856 
Q 1772 1328 1603 1509 
Q 1434 1691 991 1691 
L 800 1691 
L 800 2138 
L 991 2138 
Q 1438 2138 1605 2317 
Q 1772 2497 1772 2963 
L 1772 3713 
Q 1772 4403 2036 4633 
Q 2300 4863 3078 4863 
L 3272 4863 
L 3272 4416 
L 3059 4416 
Q 2619 4416 2484 4278 
Q 2350 4141 2350 3700 
L 2350 2925 
Q 2350 2434 2208 2212 
Q 2066 1991 1722 1913 
Q 2069 1828 2209 1606 
Q 2350 1384 2350 897 
L 2350 122 
Q 2350 -319 2484 -456 
Q 2619 -594 3059 -594 
L 3272 -594 
z
" transform="scale(0.015625)"/>
      <path id="DejaVuSans-32" d="M 1228 531 
L 3431 531 
L 3431 0 
L 469 0 
L 469 531 
Q 828 903 1448 1529 
Q 2069 2156 2228 2338 
Q 2531 2678 2651 2914 
Q 2772 3150 2772 3378 
Q 2772 3750 2511 3984 
Q 2250 4219 1831 4219 
Q 1534 4219 1204 4116 
Q 875 4013 500 3803 
L 500 4441 
Q 881 4594 1212 4672 
Q 1544 4750 1819 4750 
Q 2544 4750 2975 4387 
Q 3406 4025 3406 3419 
Q 3406 3131 3298 2873 
Q 3191 2616 2906 2266 
Q 2828 2175 2409 1742 
Q 1991 1309 1228 531 
z
" transform="scale(0.015625)"/>
      <path id="DejaVuSans-7d" d="M 800 -594 
L 1019 -594 
Q 1456 -594 1589 -459 
Q 1722 -325 1722 122 
L 1722 897 
Q 1722 1384 1862 1606 
Q 2003 1828 2350 1913 
Q 2003 1991 1862 2212 
Q 1722 2434 1722 2925 
L 1722 3700 
Q 1722 4144 1589 4280 
Q 1456 4416 1019 4416 
L 800 4416 
L 800 4863 
L 997 4863 
Q 1775 4863 2036 4633 
Q 2297 4403 2297 3713 
L 2297 2963 
Q 2297 2497 2465 2317 
Q 2634 2138 3078 2138 
L 3272 2138 
L 3272 1691 
L 3078 1691 
Q 2634 1691 2465 1509 
Q 2297 1328 2297 856 
L 2297 109 
Q 2297 -581 2036 -812 
Q 1775 -1044 997 -1044 
L 800 -1044 
L 800 -594 
z
" transform="scale(0.015625)"/>
      <path id="DejaVuSans-2c" d="M 750 794 
L 1409 794 
L 1409 256 
L 897 -744 
L 494 -744 
L 750 256 
L 750 794 
z
" transform="scale(0.015625)"/>
      <path id="DejaVuSans-35" d="M 691 4666 
L 3169 4666 
L 3169 4134 
L 1269 4134 
L 1269 2991 
Q 1406 3038 1543 3061 
Q 1681 3084 1819 3084 
Q 2600 3084 3056 2656 
Q 3513 2228 3513 1497 
Q 3513 744 3044 326 
Q 2575 -91 1722 -91 
Q 1428 -91 1123 -41 
Q 819 9 494 109 
L 494 744 
Q 775 591 1075 516 
Q 1375 441 1709 441 
Q 2250 441 2565 725 
Q 2881 1009 2881 1497 
Q 2881 1984 2565 2268 
Q 2250 2553 1709 2553 
Q 1456 2553 1204 2497 
Q 953 2441 691 2322 
L 691 4666 
z
" transform="scale(0.015625)"/>
     </defs>
     <use xlink:href="#DejaVuSans-7b"/>
     <use xlink:href="#DejaVuSans-66" x="63.623047"/>
     <use xlink:href="#DejaVuSans-32" x="98.828125"/>
     <use xlink:href="#DejaVuSans-30" x="162.451172"/>
     <use xlink:href="#DejaVuSans-2d" x="226.074219"/>
     <use xlink:href="#DejaVuSans-66" x="262.158203"/>
     <use xlink:href="#DejaVuSans-32" x="297.363281"/>
     <use xlink:href="#DejaVuSans-34" x="360.986328"/>
     <use xlink:href="#DejaVuSans-7d" x="424.609375"/>
     <use xlink:href="#DejaVuSans-2c" x="488.232422"/>
     <use xlink:href="#DejaVuSans-20" x="520.019531"/>
     <use xlink:href="#DejaVuSans-35" x="551.806641"/>
     <use xlink:href="#DejaVuSans-2d" x="615.429688"/>
     <use xlink:href="#DejaVuSans-44" x="651.513672"/>
    </g>
   </g>
   <g id="text_7">
    <!-- v2.6.3 -->
    <g style="fill: #808080" transform="translate(214.71875 288.777272) scale(0.1 -0.1)">
     <defs>
      <path id="DejaVuSans-76" d="M 191 3500 
L 800 3500 
L 1894 563 
L 2988 3500 
L 3597 3500 
L 2284 0 
L 1503 0 
L 191 3500 
z
" transform="scale(0.015625)"/>
      <path id="DejaVuSans-2e" d="M 684 794 
L 1344 794 
L 1344 0 
L 684 0 
L 684 794 
z
" transform="scale(0.015625)"/>
      <path id="DejaVuSans-36" d="M 2113 2584 
Q 1688 2584 1439 2293 
Q 1191 2003 1191 1497 
Q 1191 994 1439 701 
Q 1688 409 2113 409 
Q 2538 409 2786 701 
Q 3034 994 3034 1497 
Q 3034 2003 2786 2293 
Q 2538 2584 2113 2584 
z
M 3366 4563 
L 3366 3988 
Q 3128 4100 2886 4159 
Q 2644 4219 2406 4219 
Q 1781 4219 1451 3797 
Q 1122 3375 1075 2522 
Q 1259 2794 1537 2939 
Q 1816 3084 2150 3084 
Q 2853 3084 3261 2657 
Q 3669 2231 3669 1497 
Q 3669 778 3244 343 
Q 2819 -91 2113 -91 
Q 1303 -91 875 529 
Q 447 1150 447 2328 
Q 447 3434 972 4092 
Q 1497 4750 2381 4750 
Q 2619 4750 2861 4703 
Q 3103 4656 3366 4563 
z
" transform="scale(0.015625)"/>
      <path id="DejaVuSans-33" d="M 2597 2516 
Q 3050 2419 3304 2112 
Q 3559 1806 3559 1356 
Q 3559 666 3084 287 
Q 2609 -91 1734 -91 
Q 1441 -91 1130 -33 
Q 819 25 488 141 
L 488 750 
Q 750 597 1062 519 
Q 1375 441 1716 441 
Q 2309 441 2620 675 
Q 2931 909 2931 1356 
Q 2931 1769 2642 2001 
Q 2353 2234 1838 2234 
L 1294 2234 
L 1294 2753 
L 1863 2753 
Q 2328 2753 2575 2939 
Q 2822 3125 2822 3475 
Q 2822 3834 2567 4026 
Q 2313 4219 1838 4219 
Q 1578 4219 1281 4162 
Q 984 4106 628 3988 
L 628 4550 
Q 988 4650 1302 4700 
Q 1616 4750 1894 4750 
Q 2613 4750 3031 4423 
Q 3450 4097 3450 3541 
Q 3450 3153 3228 2886 
Q 3006 2619 2597 2516 
z
" transform="scale(0.015625)"/>
     </defs>
     <use xlink:href="#DejaVuSans-76"/>
     <use xlink:href="#DejaVuSans-32" x="59.179688"/>
     <use xlink:href="#DejaVuSans-2e" x="122.802734"/>
     <use xlink:href="#DejaVuSans-36" x="154.589844"/>
     <use xlink:href="#DejaVuSans-2e" x="218.212891"/>
     <use xlink:href="#DejaVuSans-33" x="250"/>
    </g>
   </g>
  </g>
 </g>
 <defs>
  <clipPath id="p61fee5e50f">
   <rect x="0" y="3.456" width="460.8" height="290.304"/>
  </clipPath>
 </defs>
</svg>
