<?xml version="1.0" encoding="utf-8" standalone="no"?>
<!DOCTYPE svg PUBLIC "-//W3C//DTD SVG 1.1//EN"
  "http://www.w3.org/Graphics/SVG/1.1/DTD/svg11.dtd">
<svg xmlns:xlink="http://www.w3.org/1999/xlink" width="460.8pt" height="345.6pt" viewBox="0 0 460.8 345.6" xmlns="http://www.w3.org/2000/svg" version="1.1">
 <metadata>
  <rdf:RDF xmlns:dc="http://purl.org/dc/elements/1.1/" xmlns:cc="http://creativecommons.org/ns#" xmlns:rdf="http://www.w3.org/1999/02/22-rdf-syntax-ns#">
   <cc:Work>
    <dc:type rdf:resource="http://purl.org/dc/dcmitype/StillImage"/>
    <dc:date>2024-01-19T15:05:53.409557</dc:date>
    <dc:format>image/svg+xml</dc:format>
    <dc:creator>
     <cc:Agent>
      <dc:title>Matplotlib v3.8.2, https://matplotlib.org/</dc:title>
     </cc:Agent>
    </dc:creator>
   </cc:Work>
  </rdf:RDF>
 </metadata>
 <defs>
  <style type="text/css">*{stroke-linejoin: round; stroke-linecap: butt}</style>
 </defs>
 <g id="figure_1">
  <g id="patch_1">
   <path d="M 0 345.6 
L 460.8 345.6 
L 460.8 0 
L 0 0 
z
" style="fill: #ffffff"/>
  </g>
  <g id="axes_1">
   <g id="patch_2">
    <path d="M 0 293.76 
L 460.8 293.76 
L 460.8 3.456 
L 0 3.456 
z
" style="fill: #ffffff"/>
   </g>
   <g id="matplotlib.axis_1">
    <g id="xtick_1">
     <g id="line2d_1">
      <path d="M 102.674388 293.76 
L 102.674388 3.456 
" clip-path="url(#p88aff11b60)" style="fill: none; stroke: #b0b0b0; stroke-width: 0.8; stroke-linecap: square"/>
     </g>
     <g id="line2d_2">
      <defs>
       <path id="me6a401eca1" d="M 0 0 
L 0 3.5 
" style="stroke: #000000; stroke-width: 0.8"/>
      </defs>
      <g>
       <use xlink:href="#me6a401eca1" x="102.674388" y="293.76" style="stroke: #000000; stroke-width: 0.8"/>
      </g>
     </g>
     <g id="text_1">
      <!-- -4 -->
      <g transform="translate(92.704075 315.956875) scale(0.2 -0.2)">
       <defs>
        <path id="DejaVuSans-2d" d="M 313 2009 
L 1997 2009 
L 1997 1497 
L 313 1497 
L 313 2009 
z
" transform="scale(0.015625)"/>
        <path id="DejaVuSans-34" d="M 2419 4116 
L 825 1625 
L 2419 1625 
L 2419 4116 
z
M 2253 4666 
L 3047 4666 
L 3047 1625 
L 3713 1625 
L 3713 1100 
L 3047 1100 
L 3047 0 
L 2419 0 
L 2419 1100 
L 313 1100 
L 313 1709 
L 2253 4666 
z
" transform="scale(0.015625)"/>
       </defs>
       <use xlink:href="#DejaVuSans-2d"/>
       <use xlink:href="#DejaVuSans-34" x="36.083984"/>
      </g>
     </g>
    </g>
    <g id="xtick_2">
     <g id="line2d_3">
      <path d="M 205.459819 293.76 
L 205.459819 3.456 
" clip-path="url(#p88aff11b60)" style="fill: none; stroke: #b0b0b0; stroke-width: 0.8; stroke-linecap: square"/>
     </g>
     <g id="line2d_4">
      <g>
       <use xlink:href="#me6a401eca1" x="205.459819" y="293.76" style="stroke: #000000; stroke-width: 0.8"/>
      </g>
     </g>
     <g id="text_2">
      <!-- 0 -->
      <g transform="translate(199.097319 315.956875) scale(0.2 -0.2)">
       <defs>
        <path id="DejaVuSans-30" d="M 2034 4250 
Q 1547 4250 1301 3770 
Q 1056 3291 1056 2328 
Q 1056 1369 1301 889 
Q 1547 409 2034 409 
Q 2525 409 2770 889 
Q 3016 1369 3016 2328 
Q 3016 3291 2770 3770 
Q 2525 4250 2034 4250 
z
M 2034 4750 
Q 2819 4750 3233 4129 
Q 3647 3509 3647 2328 
Q 3647 1150 3233 529 
Q 2819 -91 2034 -91 
Q 1250 -91 836 529 
Q 422 1150 422 2328 
Q 422 3509 836 4129 
Q 1250 4750 2034 4750 
z
" transform="scale(0.015625)"/>
       </defs>
       <use xlink:href="#DejaVuSans-30"/>
      </g>
     </g>
    </g>
    <g id="xtick_3">
     <g id="line2d_5">
      <path d="M 308.24525 293.76 
L 308.24525 3.456 
" clip-path="url(#p88aff11b60)" style="fill: none; stroke: #b0b0b0; stroke-width: 0.8; stroke-linecap: square"/>
     </g>
     <g id="line2d_6">
      <g>
       <use xlink:href="#me6a401eca1" x="308.24525" y="293.76" style="stroke: #000000; stroke-width: 0.8"/>
      </g>
     </g>
     <g id="text_3">
      <!-- 4 -->
      <g transform="translate(301.88275 315.956875) scale(0.2 -0.2)">
       <use xlink:href="#DejaVuSans-34"/>
      </g>
     </g>
    </g>
    <g id="xtick_4">
     <g id="line2d_7">
      <path d="M 411.030681 293.76 
L 411.030681 3.456 
" clip-path="url(#p88aff11b60)" style="fill: none; stroke: #b0b0b0; stroke-width: 0.8; stroke-linecap: square"/>
     </g>
     <g id="line2d_8">
      <g>
       <use xlink:href="#me6a401eca1" x="411.030681" y="293.76" style="stroke: #000000; stroke-width: 0.8"/>
      </g>
     </g>
     <g id="text_4">
      <!-- 8 -->
      <g transform="translate(404.668181 315.956875) scale(0.2 -0.2)">
       <defs>
        <path id="DejaVuSans-38" d="M 2034 2216 
Q 1584 2216 1326 1975 
Q 1069 1734 1069 1313 
Q 1069 891 1326 650 
Q 1584 409 2034 409 
Q 2484 409 2743 651 
Q 3003 894 3003 1313 
Q 3003 1734 2745 1975 
Q 2488 2216 2034 2216 
z
M 1403 2484 
Q 997 2584 770 2862 
Q 544 3141 544 3541 
Q 544 4100 942 4425 
Q 1341 4750 2034 4750 
Q 2731 4750 3128 4425 
Q 3525 4100 3525 3541 
Q 3525 3141 3298 2862 
Q 3072 2584 2669 2484 
Q 3125 2378 3379 2068 
Q 3634 1759 3634 1313 
Q 3634 634 3220 271 
Q 2806 -91 2034 -91 
Q 1263 -91 848 271 
Q 434 634 434 1313 
Q 434 1759 690 2068 
Q 947 2378 1403 2484 
z
M 1172 3481 
Q 1172 3119 1398 2916 
Q 1625 2713 2034 2713 
Q 2441 2713 2670 2916 
Q 2900 3119 2900 3481 
Q 2900 3844 2670 4047 
Q 2441 4250 2034 4250 
Q 1625 4250 1398 4047 
Q 1172 3844 1172 3481 
z
" transform="scale(0.015625)"/>
       </defs>
       <use xlink:href="#DejaVuSans-38"/>
      </g>
     </g>
    </g>
    <g id="text_5">
     <!-- log10 of Df -->
     <g transform="translate(175.214063 339.313125) scale(0.2 -0.2)">
      <defs>
       <path id="DejaVuSans-6c" d="M 603 4863 
L 1178 4863 
L 1178 0 
L 603 0 
L 603 4863 
z
" transform="scale(0.015625)"/>
       <path id="DejaVuSans-6f" d="M 1959 3097 
Q 1497 3097 1228 2736 
Q 959 2375 959 1747 
Q 959 1119 1226 758 
Q 1494 397 1959 397 
Q 2419 397 2687 759 
Q 2956 1122 2956 1747 
Q 2956 2369 2687 2733 
Q 2419 3097 1959 3097 
z
M 1959 3584 
Q 2709 3584 3137 3096 
Q 3566 2609 3566 1747 
Q 3566 888 3137 398 
Q 2709 -91 1959 -91 
Q 1206 -91 779 398 
Q 353 888 353 1747 
Q 353 2609 779 3096 
Q 1206 3584 1959 3584 
z
" transform="scale(0.015625)"/>
       <path id="DejaVuSans-67" d="M 2906 1791 
Q 2906 2416 2648 2759 
Q 2391 3103 1925 3103 
Q 1463 3103 1205 2759 
Q 947 2416 947 1791 
Q 947 1169 1205 825 
Q 1463 481 1925 481 
Q 2391 481 2648 825 
Q 2906 1169 2906 1791 
z
M 3481 434 
Q 3481 -459 3084 -895 
Q 2688 -1331 1869 -1331 
Q 1566 -1331 1297 -1286 
Q 1028 -1241 775 -1147 
L 775 -588 
Q 1028 -725 1275 -790 
Q 1522 -856 1778 -856 
Q 2344 -856 2625 -561 
Q 2906 -266 2906 331 
L 2906 616 
Q 2728 306 2450 153 
Q 2172 0 1784 0 
Q 1141 0 747 490 
Q 353 981 353 1791 
Q 353 2603 747 3093 
Q 1141 3584 1784 3584 
Q 2172 3584 2450 3431 
Q 2728 3278 2906 2969 
L 2906 3500 
L 3481 3500 
L 3481 434 
z
" transform="scale(0.015625)"/>
       <path id="DejaVuSans-31" d="M 794 531 
L 1825 531 
L 1825 4091 
L 703 3866 
L 703 4441 
L 1819 4666 
L 2450 4666 
L 2450 531 
L 3481 531 
L 3481 0 
L 794 0 
L 794 531 
z
" transform="scale(0.015625)"/>
       <path id="DejaVuSans-20" transform="scale(0.015625)"/>
       <path id="DejaVuSans-66" d="M 2375 4863 
L 2375 4384 
L 1825 4384 
Q 1516 4384 1395 4259 
Q 1275 4134 1275 3809 
L 1275 3500 
L 2222 3500 
L 2222 3053 
L 1275 3053 
L 1275 0 
L 697 0 
L 697 3053 
L 147 3053 
L 147 3500 
L 697 3500 
L 697 3744 
Q 697 4328 969 4595 
Q 1241 4863 1831 4863 
L 2375 4863 
z
" transform="scale(0.015625)"/>
       <path id="DejaVuSans-44" d="M 1259 4147 
L 1259 519 
L 2022 519 
Q 2988 519 3436 956 
Q 3884 1394 3884 2338 
Q 3884 3275 3436 3711 
Q 2988 4147 2022 4147 
L 1259 4147 
z
M 628 4666 
L 1925 4666 
Q 3281 4666 3915 4102 
Q 4550 3538 4550 2338 
Q 4550 1131 3912 565 
Q 3275 0 1925 0 
L 628 0 
L 628 4666 
z
" transform="scale(0.015625)"/>
      </defs>
      <use xlink:href="#DejaVuSans-6c"/>
      <use xlink:href="#DejaVuSans-6f" x="27.783203"/>
      <use xlink:href="#DejaVuSans-67" x="88.964844"/>
      <use xlink:href="#DejaVuSans-31" x="152.441406"/>
      <use xlink:href="#DejaVuSans-30" x="216.064453"/>
      <use xlink:href="#DejaVuSans-20" x="279.6875"/>
      <use xlink:href="#DejaVuSans-6f" x="311.474609"/>
      <use xlink:href="#DejaVuSans-66" x="372.65625"/>
      <use xlink:href="#DejaVuSans-20" x="407.861328"/>
      <use xlink:href="#DejaVuSans-44" x="439.648438"/>
      <use xlink:href="#DejaVuSans-66" x="516.650391"/>
     </g>
    </g>
   </g>
   <g id="matplotlib.axis_2">
    <g id="ytick_1">
     <g id="line2d_9">
      <path d="M 0 293.76 
L 460.8 293.76 
" clip-path="url(#p88aff11b60)" style="fill: none; stroke: #b0b0b0; stroke-width: 0.8; stroke-linecap: square"/>
     </g>
     <g id="line2d_10">
      <defs>
       <path id="m4e93b98ba6" d="M 0 0 
L -3.5 0 
" style="stroke: #000000; stroke-width: 0.8"/>
      </defs>
      <g>
       <use xlink:href="#m4e93b98ba6" x="0" y="293.76" style="stroke: #000000; stroke-width: 0.8"/>
      </g>
     </g>
    </g>
    <g id="ytick_2">
     <g id="line2d_11">
      <path d="M 0 236.274059 
L 460.8 236.274059 
" clip-path="url(#p88aff11b60)" style="fill: none; stroke: #b0b0b0; stroke-width: 0.8; stroke-linecap: square"/>
     </g>
     <g id="line2d_12">
      <g>
       <use xlink:href="#m4e93b98ba6" x="0" y="236.274059" style="stroke: #000000; stroke-width: 0.8"/>
      </g>
     </g>
    </g>
    <g id="ytick_3">
     <g id="line2d_13">
      <path d="M 0 178.788119 
L 460.8 178.788119 
" clip-path="url(#p88aff11b60)" style="fill: none; stroke: #b0b0b0; stroke-width: 0.8; stroke-linecap: square"/>
     </g>
     <g id="line2d_14">
      <g>
       <use xlink:href="#m4e93b98ba6" x="0" y="178.788119" style="stroke: #000000; stroke-width: 0.8"/>
      </g>
     </g>
    </g>
    <g id="ytick_4">
     <g id="line2d_15">
      <path d="M 0 121.302178 
L 460.8 121.302178 
" clip-path="url(#p88aff11b60)" style="fill: none; stroke: #b0b0b0; stroke-width: 0.8; stroke-linecap: square"/>
     </g>
     <g id="line2d_16">
      <g>
       <use xlink:href="#m4e93b98ba6" x="0" y="121.302178" style="stroke: #000000; stroke-width: 0.8"/>
      </g>
     </g>
    </g>
    <g id="ytick_5">
     <g id="line2d_17">
      <path d="M 0 63.816238 
L 460.8 63.816238 
" clip-path="url(#p88aff11b60)" style="fill: none; stroke: #b0b0b0; stroke-width: 0.8; stroke-linecap: square"/>
     </g>
     <g id="line2d_18">
      <g>
       <use xlink:href="#m4e93b98ba6" x="0" y="63.816238" style="stroke: #000000; stroke-width: 0.8"/>
      </g>
     </g>
    </g>
    <g id="ytick_6">
     <g id="line2d_19">
      <path d="M 0 6.330297 
L 460.8 6.330297 
" clip-path="url(#p88aff11b60)" style="fill: none; stroke: #b0b0b0; stroke-width: 0.8; stroke-linecap: square"/>
     </g>
     <g id="line2d_20">
      <g>
       <use xlink:href="#m4e93b98ba6" x="0" y="6.330297" style="stroke: #000000; stroke-width: 0.8"/>
      </g>
     </g>
    </g>
   </g>
   <g id="line2d_21">
    <path d="M 120.044299 293.76 
L 120.044299 289.927604 
L 121.458287 289.927604 
L 121.458287 286.095208 
L 127.211033 286.095208 
L 127.211033 282.262812 
L 128.609291 282.262812 
L 128.609291 278.430416 
L 128.756442 278.430416 
L 128.756442 274.59802 
L 129.622059 274.59802 
L 129.622059 270.765624 
L 154.588417 270.765624 
L 154.588417 266.933228 
L 155.95033 266.933228 
L 155.95033 263.100832 
L 170.293643 263.100832 
L 170.293643 259.268436 
L 182.970642 259.268436 
L 182.970642 255.43604 
L 191.762362 255.43604 
L 191.762362 251.603644 
L 193.085757 251.603644 
L 193.085757 247.771248 
L 197.599201 247.771248 
L 197.599201 243.938851 
L 200.611778 243.938851 
L 200.611778 240.106455 
L 202.442581 240.106455 
L 202.442581 236.274059 
L 214.313671 236.274059 
L 214.313671 232.441663 
L 217.478917 232.441663 
L 217.478917 228.609267 
L 219.471308 228.609267 
L 219.471308 224.776871 
L 221.382426 224.776871 
L 221.382426 220.944475 
L 222.601564 220.944475 
L 222.601564 217.112079 
L 222.835473 217.112079 
L 222.835473 213.279683 
L 223.420374 213.279683 
L 223.420374 209.447287 
L 224.049278 209.447287 
L 224.049278 205.614891 
L 224.863978 205.614891 
L 224.863978 201.782495 
L 226.706907 201.782495 
L 226.706907 197.950099 
L 227.017259 197.950099 
L 227.017259 194.117703 
L 229.06974 194.117703 
L 229.06974 190.285307 
L 230.060945 190.285307 
L 230.060945 186.452911 
L 230.442948 186.452911 
L 230.442948 182.620515 
L 231.027992 182.620515 
L 231.027992 178.788119 
L 231.379622 178.788119 
L 231.4645 171.123327 
L 235.136671 171.123327 
L 235.136671 167.290931 
L 235.28417 167.290931 
L 235.28417 163.458535 
L 236.103729 163.458535 
L 236.103729 159.626139 
L 237.713549 159.626139 
L 237.713549 155.793743 
L 240.577457 155.793743 
L 240.577457 151.961347 
L 241.677306 151.961347 
L 241.677306 148.12895 
L 241.840686 148.12895 
L 241.840686 144.296554 
L 242.183527 144.296554 
L 242.183527 140.464158 
L 242.977445 140.464158 
L 242.977445 136.631762 
L 243.706667 136.631762 
L 243.804147 128.96697 
L 243.88815 128.96697 
L 243.88815 125.134574 
L 248.164524 125.134574 
L 248.164524 121.302178 
L 253.880952 121.302178 
L 253.880952 117.469782 
L 256.682637 117.469782 
L 256.682637 113.637386 
L 257.180529 113.637386 
L 257.180529 109.80499 
L 260.203181 109.80499 
L 260.203181 105.972594 
L 263.14262 105.972594 
L 263.14262 102.140198 
L 263.731384 102.140198 
L 263.731384 98.307802 
L 264.735995 98.307802 
L 264.735995 94.475406 
L 267.252444 94.475406 
L 267.252444 90.64301 
L 268.099211 90.64301 
L 268.099211 86.810614 
L 268.753922 86.810614 
L 268.753922 82.978218 
L 268.88584 82.978218 
L 268.88584 79.145822 
L 269.038424 79.145822 
L 269.038424 75.313426 
L 271.771493 75.313426 
L 271.771493 71.48103 
L 272.241048 71.48103 
L 272.241048 67.648634 
L 274.542011 67.648634 
L 274.622823 59.983842 
L 276.276179 59.983842 
L 276.276179 56.151446 
L 276.432942 56.151446 
L 276.432942 52.31905 
L 276.598405 52.31905 
L 276.608326 44.654257 
L 277.51443 44.654257 
L 277.51443 40.821861 
L 279.418706 40.821861 
L 279.418706 36.989465 
L 282.038733 36.989465 
L 282.038733 33.157069 
L 282.496515 33.157069 
L 282.496515 29.324673 
L 290.572233 29.324673 
L 290.675987 17.827485 
L 290.847862 17.827485 
L 290.847862 13.995089 
L 293.880294 13.995089 
L 293.880294 10.162693 
L 294.962575 10.162693 
L 294.962575 6.330297 
L 294.962575 6.330297 
L 460.8 6.330297 
L 460.8 6.330297 
" clip-path="url(#p88aff11b60)" style="fill: none; stroke: #ff0000; stroke-width: 3; stroke-linecap: square"/>
   </g>
   <g id="line2d_22">
    <path d="M 217.82766 293.76 
L 217.82766 289.927604 
L 222.066382 289.927604 
L 222.066382 286.095208 
L 224.747832 286.095208 
L 224.747832 282.262812 
L 225.058445 282.262812 
L 225.058445 278.430416 
L 237.661266 278.430416 
L 237.661266 274.59802 
L 240.243508 274.59802 
L 240.243508 270.765624 
L 241.649002 270.765624 
L 241.649002 266.933228 
L 241.859051 266.933228 
L 241.859051 263.100832 
L 245.387529 263.100832 
L 245.387529 259.268436 
L 247.226337 259.268436 
L 247.226337 255.43604 
L 248.331218 255.43604 
L 248.331218 251.603644 
L 250.097312 251.603644 
L 250.097312 247.771248 
L 251.812058 247.771248 
L 251.812058 243.938851 
L 256.201719 243.938851 
L 256.201719 240.106455 
L 256.615172 240.106455 
L 256.615172 236.274059 
L 275.866989 236.274059 
L 275.866989 232.441663 
L 278.263406 232.441663 
L 278.263406 228.609267 
L 278.532971 228.609267 
L 278.532971 224.776871 
L 279.841691 224.776871 
L 279.841691 220.944475 
L 280.21139 220.944475 
L 280.21139 217.112079 
L 280.403095 217.112079 
L 280.403095 213.279683 
L 281.374558 213.279683 
L 281.374558 209.447287 
L 281.798752 209.447287 
L 281.798752 205.614891 
L 283.073343 205.614891 
L 283.073343 201.782495 
L 284.09067 201.782495 
L 284.09067 197.950099 
L 284.368451 197.950099 
L 284.368451 194.117703 
L 285.193774 194.117703 
L 285.193774 190.285307 
L 285.450554 190.285307 
L 285.450554 186.452911 
L 286.324544 186.452911 
L 286.324544 182.620515 
L 289.429462 182.620515 
L 289.429462 178.788119 
L 289.796413 178.788119 
L 289.796413 174.955723 
L 320.19549 174.955723 
L 320.19549 171.123327 
L 323.901937 171.123327 
L 323.901937 167.290931 
L 333.672498 167.290931 
L 333.672498 163.458535 
L 335.698276 163.458535 
L 335.698276 159.626139 
L 347.332949 159.626139 
L 347.332949 155.793743 
L 348.893781 155.793743 
L 348.893781 151.961347 
L 367.378467 151.961347 
L 367.378467 148.12895 
L 367.734253 148.12895 
L 367.734253 144.296554 
L 368.995745 144.296554 
L 368.995745 140.464158 
L 369.183987 140.464158 
L 369.183987 136.631762 
L 370.423405 136.631762 
L 370.423405 132.799366 
L 373.33638 132.799366 
L 373.33638 128.96697 
L 373.507396 128.96697 
L 373.507396 125.134574 
L 374.011992 125.134574 
L 374.011992 121.302178 
L 376.125147 121.302178 
L 376.125147 117.469782 
L 377.868874 117.469782 
L 377.868874 113.637386 
L 378.366566 113.637386 
L 378.366566 109.80499 
L 378.551844 109.80499 
L 378.551844 105.972594 
L 379.477358 105.972594 
L 379.477358 102.140198 
L 379.70208 102.140198 
L 379.70208 98.307802 
L 379.84195 98.307802 
L 379.84453 90.64301 
L 380.389314 90.64301 
L 380.389314 86.810614 
L 380.723705 86.810614 
L 380.723705 82.978218 
L 380.931316 82.978218 
L 380.931316 79.145822 
L 382.074192 79.145822 
L 382.074192 75.313426 
L 385.885487 75.313426 
L 385.885487 71.48103 
L 386.261888 71.48103 
L 386.261888 67.648634 
L 387.663808 67.648634 
L 387.663808 63.816238 
L 388.239238 63.816238 
L 388.239238 59.983842 
L 390.897098 59.983842 
L 390.897098 56.151446 
L 391.272912 56.151446 
L 391.272912 52.31905 
L 392.538018 52.31905 
L 392.538018 48.486653 
L 396.210202 48.486653 
L 396.210202 44.654257 
L 398.576188 44.654257 
L 398.576188 40.821861 
L 401.276482 40.821861 
L 401.276482 36.989465 
L 401.425768 36.989465 
L 401.455542 29.324673 
L 401.972396 29.324673 
L 401.972396 25.492277 
L 405.296838 25.492277 
L 405.296838 21.659881 
L 415.723657 21.659881 
L 415.723657 17.827485 
L 416.563043 17.827485 
L 416.563043 13.995089 
L 425.079057 13.995089 
L 425.079057 10.162693 
L 431.69679 10.162693 
L 431.69679 6.330297 
L 431.69679 6.330297 
L 460.8 6.330297 
L 460.8 6.330297 
" clip-path="url(#p88aff11b60)" style="fill: none; stroke: #00bfbf; stroke-width: 1.5; stroke-linecap: square"/>
   </g>
   <g id="line2d_23">
    <path d="M 217.478917 293.76 
L 217.478917 289.927604 
L 221.382426 289.927604 
L 221.382426 286.095208 
L 224.609962 286.095208 
L 224.657641 278.430416 
L 236.944478 278.430416 
L 236.944478 274.59802 
L 239.870298 274.59802 
L 239.870298 270.765624 
L 241.299771 270.765624 
L 241.299771 266.933228 
L 241.649397 266.933228 
L 241.649397 263.100832 
L 244.94336 263.100832 
L 244.94336 259.268436 
L 246.823226 259.268436 
L 246.823226 255.43604 
L 247.6423 255.43604 
L 247.6423 251.603644 
L 250.042099 251.603644 
L 250.042099 247.771248 
L 251.277628 247.771248 
L 251.277628 243.938851 
L 255.933462 243.938851 
L 255.987202 236.274059 
L 264.89349 236.274059 
L 264.89349 232.441663 
L 275.623818 232.441663 
L 275.623818 228.609267 
L 277.970848 228.609267 
L 277.970848 224.776871 
L 278.532971 224.776871 
L 278.532971 220.944475 
L 279.6088 220.944475 
L 279.6088 217.112079 
L 280.141745 217.112079 
L 280.141745 213.279683 
L 281.192306 213.279683 
L 281.192306 209.447287 
L 281.61923 209.447287 
L 281.61923 205.614891 
L 283.000479 205.614891 
L 283.000479 201.782495 
L 283.987418 201.782495 
L 283.987418 197.950099 
L 284.196575 197.950099 
L 284.196575 194.117703 
L 285.068452 194.117703 
L 285.068452 190.285307 
L 285.276645 190.285307 
L 285.276645 186.452911 
L 286.324544 186.452911 
L 286.324544 182.620515 
L 289.429462 182.620515 
L 289.429462 178.788119 
L 289.766731 178.788119 
L 289.766731 174.955723 
L 315.130231 174.955723 
L 315.130231 171.123327 
L 319.942555 171.123327 
L 319.942555 167.290931 
L 325.242183 167.290931 
L 325.242183 163.458535 
L 330.299925 163.458535 
L 330.299925 159.626139 
L 345.576345 159.626139 
L 345.576345 155.793743 
L 347.042307 155.793743 
L 347.042307 151.961347 
L 367.094613 151.961347 
L 367.094613 148.12895 
L 367.517218 148.12895 
L 367.517218 144.296554 
L 368.015418 144.296554 
L 368.01921 136.631762 
L 370.002124 136.631762 
L 370.002124 132.799366 
L 371.886513 132.799366 
L 371.886513 128.96697 
L 373.324263 128.96697 
L 373.33638 121.302178 
L 375.531804 121.302178 
L 375.531804 117.469782 
L 377.692563 117.469782 
L 377.692563 113.637386 
L 378.064971 113.637386 
L 378.122032 105.972594 
L 378.723983 105.972594 
L 378.723983 102.140198 
L 379.320975 102.140198 
L 379.320975 98.307802 
L 379.524986 98.307802 
L 379.629528 90.64301 
L 379.827549 90.64301 
L 379.827549 86.810614 
L 380.091649 86.810614 
L 380.091649 82.978218 
L 380.279677 82.978218 
L 380.279677 79.145822 
L 381.692628 79.145822 
L 381.692628 75.313426 
L 385.507164 75.313426 
L 385.507164 71.48103 
L 386.023448 71.48103 
L 386.023448 67.648634 
L 387.550295 67.648634 
L 387.550295 63.816238 
L 387.78861 63.816238 
L 387.78861 59.983842 
L 390.395338 59.983842 
L 390.395338 56.151446 
L 390.88377 56.151446 
L 390.88377 52.31905 
L 392.150585 52.31905 
L 392.150585 48.486653 
L 396.199212 48.486653 
L 396.199212 44.654257 
L 398.282937 44.654257 
L 398.282937 40.821861 
L 400.57001 40.821861 
L 400.574232 33.157069 
L 401.205519 33.157069 
L 401.205519 29.324673 
L 401.474213 29.324673 
L 401.474213 25.492277 
L 404.559996 25.492277 
L 404.559996 21.659881 
L 415.38844 21.659881 
L 415.38844 17.827485 
L 416.211565 17.827485 
L 416.211565 13.995089 
L 424.926183 13.995089 
L 424.926183 10.162693 
L 430.799054 10.162693 
L 430.799054 6.330297 
L 430.799054 6.330297 
L 460.8 6.330297 
L 460.8 6.330297 
" clip-path="url(#p88aff11b60)" style="fill: none; stroke: #bf00bf; stroke-width: 1.5; stroke-linecap: square"/>
   </g>
   <g id="line2d_24">
    <path d="M 214.618634 293.76 
L 214.618634 289.927604 
L 215.782786 289.927604 
L 215.782786 286.095208 
L 216.182119 286.095208 
L 216.182119 282.262812 
L 216.70566 282.262812 
L 216.70566 278.430416 
L 217.478917 278.430416 
L 217.478917 274.59802 
L 221.382426 274.59802 
L 221.382426 270.765624 
L 223.249938 270.765624 
L 223.249938 266.933228 
L 225.344268 266.933228 
L 225.344268 263.100832 
L 234.540575 263.100832 
L 234.540575 259.268436 
L 241.299771 259.268436 
L 241.299771 255.43604 
L 241.649397 255.43604 
L 241.649397 251.603644 
L 243.943276 251.603644 
L 243.943276 247.771248 
L 247.6423 247.771248 
L 247.6423 243.938851 
L 248.683635 243.938851 
L 248.683635 240.106455 
L 249.616883 240.106455 
L 249.616883 236.274059 
L 255.646119 236.274059 
L 255.646119 232.441663 
L 257.180529 232.441663 
L 257.180529 228.609267 
L 266.802289 228.609267 
L 266.802289 224.776871 
L 266.931317 224.776871 
L 266.931317 220.944475 
L 267.573961 220.944475 
L 267.573961 217.112079 
L 268.355051 217.112079 
L 268.355051 213.279683 
L 268.873025 213.279683 
L 268.873025 209.447287 
L 269.43721 209.447287 
L 269.43721 205.614891 
L 269.633819 205.614891 
L 269.633819 201.782495 
L 270.613634 201.782495 
L 270.613634 197.950099 
L 272.484777 197.950099 
L 272.484777 194.117703 
L 273.568481 194.117703 
L 273.568481 190.285307 
L 274.771461 190.285307 
L 274.771461 186.452911 
L 276.010775 186.452911 
L 276.056341 178.788119 
L 282.548929 178.788119 
L 282.548929 174.955723 
L 296.081327 174.955723 
L 296.081327 171.123327 
L 296.993219 171.123327 
L 296.993219 167.290931 
L 297.633387 167.290931 
L 297.633387 163.458535 
L 313.840039 163.458535 
L 313.840039 159.626139 
L 313.97751 159.626139 
L 313.97751 155.793743 
L 320.673714 155.793743 
L 320.673714 151.961347 
L 324.920762 151.961347 
L 324.920762 148.12895 
L 333.625679 148.12895 
L 333.625679 144.296554 
L 336.640673 144.296554 
L 336.640673 140.464158 
L 341.457564 140.464158 
L 341.457564 136.631762 
L 343.929871 136.631762 
L 343.929871 132.799366 
L 344.897074 132.799366 
L 344.897074 128.96697 
L 346.694749 128.96697 
L 346.694749 125.134574 
L 349.079001 125.134574 
L 349.079001 121.302178 
L 350.117362 121.302178 
L 350.117362 117.469782 
L 350.703434 117.469782 
L 350.703434 113.637386 
L 351.206226 113.637386 
L 351.206226 109.80499 
L 351.670237 109.80499 
L 351.670237 105.972594 
L 351.934137 105.972594 
L 351.987135 98.307802 
L 353.421779 98.307802 
L 353.421779 94.475406 
L 354.632768 94.475406 
L 354.632768 90.64301 
L 355.702749 90.64301 
L 355.702749 86.810614 
L 355.844033 86.810614 
L 355.844033 82.978218 
L 356.6805 82.978218 
L 356.6805 79.145822 
L 357.744758 79.145822 
L 357.744758 75.313426 
L 358.362264 75.313426 
L 358.362264 71.48103 
L 359.656299 71.48103 
L 359.656299 67.648634 
L 360.925268 67.648634 
L 360.925268 63.816238 
L 363.253336 63.816238 
L 363.253336 59.983842 
L 364.610494 59.983842 
L 364.610494 56.151446 
L 366.410821 56.151446 
L 366.410821 52.31905 
L 367.098371 52.31905 
L 367.098371 48.486653 
L 368.615083 48.486653 
L 368.615083 44.654257 
L 376.669407 44.654257 
L 376.669407 40.821861 
L 379.74402 40.821861 
L 379.768369 33.157069 
L 385.280606 33.157069 
L 385.280606 29.324673 
L 387.514505 29.324673 
L 387.514505 25.492277 
L 390.169087 25.492277 
L 390.169087 21.659881 
L 395.442029 21.659881 
L 395.442029 17.827485 
L 401.412834 17.827485 
L 401.412834 13.995089 
L 406.519895 13.995089 
L 406.519895 10.162693 
L 410.286178 10.162693 
L 410.286178 6.330297 
L 410.286178 6.330297 
L 460.8 6.330297 
L 460.8 6.330297 
" clip-path="url(#p88aff11b60)" style="fill: none; stroke: #000000; stroke-width: 1.5; stroke-linecap: square"/>
   </g>
   <g id="line2d_25">
    <path d="M 156.707553 293.76 
L 156.707553 289.927604 
L 158.836711 289.927604 
L 158.836711 286.095208 
L 161.438716 286.095208 
L 161.438716 282.262812 
L 162.643281 282.262812 
L 162.643281 278.430416 
L 162.803792 278.430416 
L 162.803792 274.59802 
L 164.940933 274.59802 
L 164.940933 270.765624 
L 207.545252 270.765624 
L 207.545252 266.933228 
L 217.478917 266.933228 
L 217.478917 263.100832 
L 219.89553 263.100832 
L 219.89553 259.268436 
L 221.382426 259.268436 
L 221.382426 255.43604 
L 225.953806 255.43604 
L 225.953806 251.603644 
L 230.149436 251.603644 
L 230.149436 247.771248 
L 231.046499 247.771248 
L 231.046499 243.938851 
L 231.731509 243.938851 
L 231.731509 240.106455 
L 233.313035 240.106455 
L 233.313035 236.274059 
L 233.437477 236.274059 
L 233.437477 232.441663 
L 235.760211 232.441663 
L 235.760211 228.609267 
L 239.208139 228.609267 
L 239.208139 224.776871 
L 241.299771 224.776871 
L 241.299771 220.944475 
L 241.649397 220.944475 
L 241.649397 217.112079 
L 242.380078 217.112079 
L 242.380078 213.279683 
L 243.029697 213.279683 
L 243.029697 209.447287 
L 243.158812 209.447287 
L 243.158812 205.614891 
L 243.848857 205.614891 
L 243.942538 197.950099 
L 245.219778 197.950099 
L 245.219778 194.117703 
L 245.533707 194.117703 
L 245.533707 190.285307 
L 245.935891 190.285307 
L 245.935891 186.452911 
L 246.125917 186.452911 
L 246.125917 182.620515 
L 246.911826 182.620515 
L 246.911826 178.788119 
L 247.030481 178.788119 
L 247.030481 174.955723 
L 248.330436 174.955723 
L 248.330436 171.123327 
L 248.683635 171.123327 
L 248.683635 167.290931 
L 249.44992 167.290931 
L 249.44992 163.458535 
L 249.718459 163.458535 
L 249.718459 159.626139 
L 254.058871 159.626139 
L 254.058871 155.793743 
L 255.646119 155.793743 
L 255.646119 151.961347 
L 257.180529 151.961347 
L 257.180529 148.12895 
L 264.407023 148.12895 
L 264.476606 140.464158 
L 265.860234 140.464158 
L 265.860234 136.631762 
L 268.334696 136.631762 
L 268.334696 132.799366 
L 270.276956 132.799366 
L 270.276956 128.96697 
L 271.97634 128.96697 
L 271.97634 125.134574 
L 276.249104 125.134574 
L 276.249104 121.302178 
L 276.608326 121.302178 
L 276.6419 113.637386 
L 277.178342 113.637386 
L 277.178342 109.80499 
L 277.595357 109.80499 
L 277.595357 105.972594 
L 280.740665 105.972594 
L 280.740665 102.140198 
L 281.511444 102.140198 
L 281.511444 98.307802 
L 281.711213 98.307802 
L 281.711213 94.475406 
L 282.230732 94.475406 
L 282.230732 90.64301 
L 283.407816 90.64301 
L 283.407816 86.810614 
L 290.882943 86.810614 
L 290.882943 82.978218 
L 291.403788 82.978218 
L 291.403788 79.145822 
L 295.747647 79.145822 
L 295.747647 75.313426 
L 297.578029 75.313426 
L 297.578029 71.48103 
L 297.746573 71.48103 
L 297.746573 67.648634 
L 306.06582 67.648634 
L 306.06582 63.816238 
L 306.490895 63.816238 
L 306.490895 59.983842 
L 306.91614 59.983842 
L 306.91614 56.151446 
L 308.678364 56.151446 
L 308.678364 52.31905 
L 309.327314 52.31905 
L 309.327314 48.486653 
L 311.394892 48.486653 
L 311.394892 44.654257 
L 311.57122 44.654257 
L 311.57122 40.821861 
L 316.116961 40.821861 
L 316.116961 36.989465 
L 322.93548 36.989465 
L 322.93548 33.157069 
L 329.600843 33.157069 
L 329.692613 25.492277 
L 330.686667 25.492277 
L 330.686667 21.659881 
L 332.696993 21.659881 
L 332.696993 17.827485 
L 334.195634 17.827485 
L 334.195634 13.995089 
L 335.602589 13.995089 
L 335.602589 10.162693 
L 336.524848 10.162693 
L 336.524848 6.330297 
L 336.524848 6.330297 
L 460.8 6.330297 
L 460.8 6.330297 
" clip-path="url(#p88aff11b60)" style="fill: none; stroke: #00bfbf; stroke-width: 1.5; stroke-linecap: square"/>
   </g>
   <g id="line2d_26">
    <path d="M 120.049042 293.76 
L 120.049042 289.927604 
L 121.458287 289.927604 
L 121.458287 286.095208 
L 127.211033 286.095208 
L 127.211033 282.262812 
L 128.704711 282.262812 
L 128.756442 274.59802 
L 129.63779 274.59802 
L 129.63779 270.765624 
L 154.58845 270.765624 
L 154.58845 266.933228 
L 155.95033 266.933228 
L 155.95033 263.100832 
L 170.293643 263.100832 
L 170.293643 259.268436 
L 182.970642 259.268436 
L 182.970642 255.43604 
L 191.988875 255.43604 
L 191.988875 251.603644 
L 193.085757 251.603644 
L 193.085757 247.771248 
L 199.119235 247.771248 
L 199.119235 243.938851 
L 200.611801 243.938851 
L 200.611801 240.106455 
L 202.442589 240.106455 
L 202.442589 236.274059 
L 214.313671 236.274059 
L 214.313671 232.441663 
L 217.478917 232.441663 
L 217.478917 228.609267 
L 219.471308 228.609267 
L 219.471308 224.776871 
L 221.382426 224.776871 
L 221.382426 220.944475 
L 222.601564 220.944475 
L 222.601564 217.112079 
L 222.835473 217.112079 
L 222.835473 213.279683 
L 223.420374 213.279683 
L 223.420374 209.447287 
L 224.049278 209.447287 
L 224.049278 205.614891 
L 224.863983 205.614891 
L 224.863983 201.782495 
L 226.706908 201.782495 
L 226.706908 197.950099 
L 227.017259 197.950099 
L 227.017259 194.117703 
L 229.06974 194.117703 
L 229.06974 190.285307 
L 230.060945 190.285307 
L 230.060945 186.452911 
L 230.442948 186.452911 
L 230.442948 182.620515 
L 231.028062 182.620515 
L 231.028062 178.788119 
L 231.379637 178.788119 
L 231.4645 171.123327 
L 235.136671 171.123327 
L 235.136671 167.290931 
L 235.284171 167.290931 
L 235.284171 163.458535 
L 236.103729 163.458535 
L 236.103729 159.626139 
L 237.713549 159.626139 
L 237.713549 155.793743 
L 240.577457 155.793743 
L 240.577457 151.961347 
L 241.677306 151.961347 
L 241.677306 148.12895 
L 241.840686 148.12895 
L 241.840686 144.296554 
L 242.183527 144.296554 
L 242.183527 140.464158 
L 242.977455 140.464158 
L 242.977455 136.631762 
L 243.706667 136.631762 
L 243.80416 128.96697 
L 243.888175 128.96697 
L 243.888175 125.134574 
L 248.164524 125.134574 
L 248.164524 121.302178 
L 253.880952 121.302178 
L 253.880952 117.469782 
L 256.70169 117.469782 
L 256.70169 113.637386 
L 257.180529 113.637386 
L 257.180529 109.80499 
L 260.203989 109.80499 
L 260.203989 105.972594 
L 263.14262 105.972594 
L 263.14262 102.140198 
L 263.731384 102.140198 
L 263.731384 98.307802 
L 264.735995 98.307802 
L 264.735995 94.475406 
L 267.252444 94.475406 
L 267.252444 90.64301 
L 268.109425 90.64301 
L 268.109425 86.810614 
L 268.753922 86.810614 
L 268.753922 82.978218 
L 268.88584 82.978218 
L 268.88584 79.145822 
L 269.038601 79.145822 
L 269.038601 75.313426 
L 271.771493 75.313426 
L 271.771493 71.48103 
L 272.241048 71.48103 
L 272.241048 67.648634 
L 274.542011 67.648634 
L 274.622823 59.983842 
L 276.276179 59.983842 
L 276.276179 56.151446 
L 276.432942 56.151446 
L 276.432942 52.31905 
L 276.598405 52.31905 
L 276.608326 44.654257 
L 277.550306 44.654257 
L 277.550306 40.821861 
L 279.418706 40.821861 
L 279.418706 36.989465 
L 282.039548 36.989465 
L 282.039548 33.157069 
L 282.496515 33.157069 
L 282.496515 29.324673 
L 290.572798 29.324673 
L 290.675987 17.827485 
L 290.847862 17.827485 
L 290.847862 13.995089 
L 293.880294 13.995089 
L 293.880294 10.162693 
L 294.972068 10.162693 
L 294.972068 6.330297 
L 294.972068 6.330297 
L 460.8 6.330297 
L 460.8 6.330297 
" clip-path="url(#p88aff11b60)" style="fill: none; stroke: #bf00bf; stroke-width: 1.5; stroke-linecap: square"/>
   </g>
   <g id="patch_3">
    <path d="M 0 293.76 
L 0 3.456 
" style="fill: none; stroke: #000000; stroke-width: 0.8; stroke-linejoin: miter; stroke-linecap: square"/>
   </g>
   <g id="patch_4">
    <path d="M 460.8 293.76 
L 460.8 3.456 
" style="fill: none; stroke: #000000; stroke-width: 0.8; stroke-linejoin: miter; stroke-linecap: square"/>
   </g>
   <g id="patch_5">
    <path d="M 0 293.76 
L 460.8 293.76 
" style="fill: none; stroke: #000000; stroke-width: 0.8; stroke-linejoin: miter; stroke-linecap: square"/>
   </g>
   <g id="patch_6">
    <path d="M 0 3.456 
L 460.8 3.456 
" style="fill: none; stroke: #000000; stroke-width: 0.8; stroke-linejoin: miter; stroke-linecap: square"/>
   </g>
   <g id="text_6">
    <!-- {f10-f14}, 5-D -->
    <g transform="translate(305.884 287.95392) scale(0.2 -0.2)">
     <defs>
      <path id="DejaVuSans-7b" d="M 3272 -594 
L 3272 -1044 
L 3078 -1044 
Q 2300 -1044 2036 -812 
Q 1772 -581 1772 109 
L 1772 856 
Q 1772 1328 1603 1509 
Q 1434 1691 991 1691 
L 800 1691 
L 800 2138 
L 991 2138 
Q 1438 2138 1605 2317 
Q 1772 2497 1772 2963 
L 1772 3713 
Q 1772 4403 2036 4633 
Q 2300 4863 3078 4863 
L 3272 4863 
L 3272 4416 
L 3059 4416 
Q 2619 4416 2484 4278 
Q 2350 4141 2350 3700 
L 2350 2925 
Q 2350 2434 2208 2212 
Q 2066 1991 1722 1913 
Q 2069 1828 2209 1606 
Q 2350 1384 2350 897 
L 2350 122 
Q 2350 -319 2484 -456 
Q 2619 -594 3059 -594 
L 3272 -594 
z
" transform="scale(0.015625)"/>
      <path id="DejaVuSans-7d" d="M 800 -594 
L 1019 -594 
Q 1456 -594 1589 -459 
Q 1722 -325 1722 122 
L 1722 897 
Q 1722 1384 1862 1606 
Q 2003 1828 2350 1913 
Q 2003 1991 1862 2212 
Q 1722 2434 1722 2925 
L 1722 3700 
Q 1722 4144 1589 4280 
Q 1456 4416 1019 4416 
L 800 4416 
L 800 4863 
L 997 4863 
Q 1775 4863 2036 4633 
Q 2297 4403 2297 3713 
L 2297 2963 
Q 2297 2497 2465 2317 
Q 2634 2138 3078 2138 
L 3272 2138 
L 3272 1691 
L 3078 1691 
Q 2634 1691 2465 1509 
Q 2297 1328 2297 856 
L 2297 109 
Q 2297 -581 2036 -812 
Q 1775 -1044 997 -1044 
L 800 -1044 
L 800 -594 
z
" transform="scale(0.015625)"/>
      <path id="DejaVuSans-2c" d="M 750 794 
L 1409 794 
L 1409 256 
L 897 -744 
L 494 -744 
L 750 256 
L 750 794 
z
" transform="scale(0.015625)"/>
      <path id="DejaVuSans-35" d="M 691 4666 
L 3169 4666 
L 3169 4134 
L 1269 4134 
L 1269 2991 
Q 1406 3038 1543 3061 
Q 1681 3084 1819 3084 
Q 2600 3084 3056 2656 
Q 3513 2228 3513 1497 
Q 3513 744 3044 326 
Q 2575 -91 1722 -91 
Q 1428 -91 1123 -41 
Q 819 9 494 109 
L 494 744 
Q 775 591 1075 516 
Q 1375 441 1709 441 
Q 2250 441 2565 725 
Q 2881 1009 2881 1497 
Q 2881 1984 2565 2268 
Q 2250 2553 1709 2553 
Q 1456 2553 1204 2497 
Q 953 2441 691 2322 
L 691 4666 
z
" transform="scale(0.015625)"/>
     </defs>
     <use xlink:href="#DejaVuSans-7b"/>
     <use xlink:href="#DejaVuSans-66" x="63.623047"/>
     <use xlink:href="#DejaVuSans-31" x="98.828125"/>
     <use xlink:href="#DejaVuSans-30" x="162.451172"/>
     <use xlink:href="#DejaVuSans-2d" x="226.074219"/>
     <use xlink:href="#DejaVuSans-66" x="262.158203"/>
     <use xlink:href="#DejaVuSans-31" x="297.363281"/>
     <use xlink:href="#DejaVuSans-34" x="360.986328"/>
     <use xlink:href="#DejaVuSans-7d" x="424.609375"/>
     <use xlink:href="#DejaVuSans-2c" x="488.232422"/>
     <use xlink:href="#DejaVuSans-20" x="520.019531"/>
     <use xlink:href="#DejaVuSans-35" x="551.806641"/>
     <use xlink:href="#DejaVuSans-2d" x="615.429688"/>
     <use xlink:href="#DejaVuSans-44" x="651.513672"/>
    </g>
   </g>
   <g id="text_7">
    <!-- v2.6.3 -->
    <g style="fill: #808080" transform="translate(214.71875 288.777272) scale(0.1 -0.1)">
     <defs>
      <path id="DejaVuSans-76" d="M 191 3500 
L 800 3500 
L 1894 563 
L 2988 3500 
L 3597 3500 
L 2284 0 
L 1503 0 
L 191 3500 
z
" transform="scale(0.015625)"/>
      <path id="DejaVuSans-32" d="M 1228 531 
L 3431 531 
L 3431 0 
L 469 0 
L 469 531 
Q 828 903 1448 1529 
Q 2069 2156 2228 2338 
Q 2531 2678 2651 2914 
Q 2772 3150 2772 3378 
Q 2772 3750 2511 3984 
Q 2250 4219 1831 4219 
Q 1534 4219 1204 4116 
Q 875 4013 500 3803 
L 500 4441 
Q 881 4594 1212 4672 
Q 1544 4750 1819 4750 
Q 2544 4750 2975 4387 
Q 3406 4025 3406 3419 
Q 3406 3131 3298 2873 
Q 3191 2616 2906 2266 
Q 2828 2175 2409 1742 
Q 1991 1309 1228 531 
z
" transform="scale(0.015625)"/>
      <path id="DejaVuSans-2e" d="M 684 794 
L 1344 794 
L 1344 0 
L 684 0 
L 684 794 
z
" transform="scale(0.015625)"/>
      <path id="DejaVuSans-36" d="M 2113 2584 
Q 1688 2584 1439 2293 
Q 1191 2003 1191 1497 
Q 1191 994 1439 701 
Q 1688 409 2113 409 
Q 2538 409 2786 701 
Q 3034 994 3034 1497 
Q 3034 2003 2786 2293 
Q 2538 2584 2113 2584 
z
M 3366 4563 
L 3366 3988 
Q 3128 4100 2886 4159 
Q 2644 4219 2406 4219 
Q 1781 4219 1451 3797 
Q 1122 3375 1075 2522 
Q 1259 2794 1537 2939 
Q 1816 3084 2150 3084 
Q 2853 3084 3261 2657 
Q 3669 2231 3669 1497 
Q 3669 778 3244 343 
Q 2819 -91 2113 -91 
Q 1303 -91 875 529 
Q 447 1150 447 2328 
Q 447 3434 972 4092 
Q 1497 4750 2381 4750 
Q 2619 4750 2861 4703 
Q 3103 4656 3366 4563 
z
" transform="scale(0.015625)"/>
      <path id="DejaVuSans-33" d="M 2597 2516 
Q 3050 2419 3304 2112 
Q 3559 1806 3559 1356 
Q 3559 666 3084 287 
Q 2609 -91 1734 -91 
Q 1441 -91 1130 -33 
Q 819 25 488 141 
L 488 750 
Q 750 597 1062 519 
Q 1375 441 1716 441 
Q 2309 441 2620 675 
Q 2931 909 2931 1356 
Q 2931 1769 2642 2001 
Q 2353 2234 1838 2234 
L 1294 2234 
L 1294 2753 
L 1863 2753 
Q 2328 2753 2575 2939 
Q 2822 3125 2822 3475 
Q 2822 3834 2567 4026 
Q 2313 4219 1838 4219 
Q 1578 4219 1281 4162 
Q 984 4106 628 3988 
L 628 4550 
Q 988 4650 1302 4700 
Q 1616 4750 1894 4750 
Q 2613 4750 3031 4423 
Q 3450 4097 3450 3541 
Q 3450 3153 3228 2886 
Q 3006 2619 2597 2516 
z
" transform="scale(0.015625)"/>
     </defs>
     <use xlink:href="#DejaVuSans-76"/>
     <use xlink:href="#DejaVuSans-32" x="59.179688"/>
     <use xlink:href="#DejaVuSans-2e" x="122.802734"/>
     <use xlink:href="#DejaVuSans-36" x="154.589844"/>
     <use xlink:href="#DejaVuSans-2e" x="218.212891"/>
     <use xlink:href="#DejaVuSans-33" x="250"/>
    </g>
   </g>
  </g>
 </g>
 <defs>
  <clipPath id="p88aff11b60">
   <rect x="0" y="3.456" width="460.8" height="290.304"/>
  </clipPath>
 </defs>
</svg>
