<?xml version="1.0" encoding="utf-8" standalone="no"?>
<!DOCTYPE svg PUBLIC "-//W3C//DTD SVG 1.1//EN"
  "http://www.w3.org/Graphics/SVG/1.1/DTD/svg11.dtd">
<svg xmlns:xlink="http://www.w3.org/1999/xlink" width="460.8pt" height="345.6pt" viewBox="0 0 460.8 345.6" xmlns="http://www.w3.org/2000/svg" version="1.1">
 <metadata>
  <rdf:RDF xmlns:dc="http://purl.org/dc/elements/1.1/" xmlns:cc="http://creativecommons.org/ns#" xmlns:rdf="http://www.w3.org/1999/02/22-rdf-syntax-ns#">
   <cc:Work>
    <dc:type rdf:resource="http://purl.org/dc/dcmitype/StillImage"/>
    <dc:date>2024-01-19T15:05:55.768271</dc:date>
    <dc:format>image/svg+xml</dc:format>
    <dc:creator>
     <cc:Agent>
      <dc:title>Matplotlib v3.8.2, https://matplotlib.org/</dc:title>
     </cc:Agent>
    </dc:creator>
   </cc:Work>
  </rdf:RDF>
 </metadata>
 <defs>
  <style type="text/css">*{stroke-linejoin: round; stroke-linecap: butt}</style>
 </defs>
 <g id="figure_1">
  <g id="patch_1">
   <path d="M 0 345.6 
L 460.8 345.6 
L 460.8 0 
L 0 0 
z
" style="fill: #ffffff"/>
  </g>
  <g id="axes_1">
   <g id="patch_2">
    <path d="M 62.208 293.76 
L 460.8 293.76 
L 460.8 3.456 
L 62.208 3.456 
z
" style="fill: #ffffff"/>
   </g>
   <g id="line2d_1">
    <path d="M 422.555377 293.76 
L 422.555377 289.927604 
L 422.555377 289.927604 
L 422.555377 286.095208 
L 423.091079 286.095208 
L 423.091079 282.262812 
L 423.091079 282.262812 
L 423.091079 278.430416 
L 423.091079 278.430416 
L 423.091079 274.59802 
L 423.357692 274.59802 
L 423.357692 270.765624 
L 423.357692 270.765624 
L 423.357692 266.933228 
L 424.152634 266.933228 
L 424.152634 263.100832 
L 426.494553 263.100832 
L 426.494553 259.268436 
L 426.494553 259.268436 
L 426.494553 255.43604 
L 428.021339 255.43604 
L 428.021339 251.603644 
L 428.774745 251.603644 
L 428.774745 247.771248 
L 431.482425 247.771248 
L 431.482425 243.938851 
L 434.576849 243.938851 
L 434.576849 240.106455 
L 437.111442 240.106455 
L 437.111442 236.274059 
L 456.371417 236.274059 
L 456.371417 232.441663 
L 458.347976 232.441663 
L 458.347976 228.609267 
L 458.879292 228.609267 
L 458.879292 224.776871 
L 458.879292 224.776871 
L 458.879292 220.944475 
L 459.231698 220.944475 
L 459.231698 217.112079 
L 460.106484 217.112079 
L 460.106484 213.279683 
L 460.280385 213.279683 
L 460.280385 209.447287 
L 461.316513 209.447287 
L 461.316513 205.614891 
L 461.316513 205.614891 
L 461.316513 201.782495 
L 461.8 201.782495 
" clip-path="url(#p1b9546af9b)" style="fill: none; stroke: #f5deb3; stroke-width: 1.5; stroke-linecap: square"/>
   </g>
   <g id="line2d_2">
    <path d="M 345.405108 293.76 
L 345.405108 282.262812 
L 345.405108 282.262812 
L 345.405108 270.765624 
L 346.058059 270.765624 
L 346.058059 259.268436 
L 346.058059 259.268436 
L 346.058059 247.771248 
L 346.058059 247.771248 
L 346.058059 236.274059 
L 461.8 236.274059 
" clip-path="url(#p1b9546af9b)" style="fill: none; stroke: #f5deb3; stroke-width: 1.5; stroke-linecap: square"/>
   </g>
   <g id="line2d_3">
    <path d="M 190.389932 293.76 
L 190.389932 289.927604 
L 190.389932 289.927604 
L 190.389932 286.095208 
L 190.389932 286.095208 
L 190.389932 282.262812 
L 190.389932 282.262812 
L 190.389932 278.430416 
L 190.389932 278.430416 
L 190.389932 274.59802 
L 190.389932 274.59802 
L 190.389932 270.765624 
L 190.389932 270.765624 
L 190.389932 266.933228 
L 190.389932 266.933228 
L 190.389932 263.100832 
L 190.389932 263.100832 
L 190.389932 259.268436 
L 190.389932 259.268436 
L 190.389932 255.43604 
L 190.389932 255.43604 
L 190.389932 251.603644 
L 190.389932 251.603644 
L 190.389932 247.771248 
L 190.389932 247.771248 
L 190.389932 243.938851 
L 190.389932 243.938851 
L 190.389932 240.106455 
L 190.389932 240.106455 
L 190.389932 236.274059 
L 190.389932 236.274059 
L 190.389932 232.441663 
L 190.389932 232.441663 
L 190.389932 228.609267 
L 190.389932 228.609267 
L 190.389932 224.776871 
L 190.389932 224.776871 
L 190.389932 220.944475 
L 194.235703 220.944475 
L 194.235703 217.112079 
L 194.235703 217.112079 
L 194.235703 213.279683 
L 194.235703 213.279683 
L 194.235703 209.447287 
L 197.917774 209.447287 
L 197.917774 205.614891 
L 197.917774 205.614891 
L 197.917774 201.782495 
L 201.449515 201.782495 
L 201.449515 197.950099 
L 201.449515 197.950099 
L 201.449515 194.117703 
L 201.449515 194.117703 
L 201.449515 190.285307 
L 204.842719 190.285307 
L 204.842719 186.452911 
L 208.107847 186.452911 
L 208.107847 182.620515 
L 222.806767 182.620515 
L 222.806767 178.788119 
L 461.8 178.788119 
" clip-path="url(#p1b9546af9b)" style="fill: none; stroke: #f5deb3; stroke-width: 1.5; stroke-linecap: square"/>
   </g>
   <g id="line2d_4">
    <path d="M 137.949718 293.76 
L 137.949718 289.927604 
L 173.028782 289.927604 
L 173.028782 286.095208 
L 194.235703 286.095208 
L 194.235703 282.262812 
L 197.917774 282.262812 
L 197.917774 278.430416 
L 208.107847 278.430416 
L 208.107847 274.59802 
L 217.223177 274.59802 
L 217.223177 270.765624 
L 222.806767 270.765624 
L 222.806767 266.933228 
L 225.468996 266.933228 
L 225.468996 263.100832 
L 225.468996 263.100832 
L 225.468996 259.268436 
L 225.468996 259.268436 
L 225.468996 255.43604 
L 232.996839 255.43604 
L 232.996839 251.603644 
L 239.921783 251.603644 
L 239.921783 247.771248 
L 242.112169 247.771248 
L 242.112169 243.938851 
L 248.369035 243.938851 
L 248.369035 240.106455 
L 261.417571 240.106455 
L 261.417571 236.274059 
L 437.33822 236.274059 
L 437.33822 232.441663 
L 442.182598 232.441663 
L 442.182598 228.609267 
L 445.129887 228.609267 
L 445.129887 224.776871 
L 446.158623 224.776871 
L 446.158623 220.944475 
L 446.36291 220.944475 
L 446.36291 217.112079 
L 446.972893 217.112079 
L 446.972893 213.279683 
L 447.377173 213.279683 
L 447.377173 209.447287 
L 448.578798 209.447287 
L 448.578798 205.614891 
L 448.975659 205.614891 
L 448.975659 201.782495 
L 449.763962 201.782495 
L 449.763962 197.950099 
L 451.703855 197.950099 
L 451.703855 194.117703 
L 456.00714 194.117703 
L 456.00714 190.285307 
L 456.371417 190.285307 
L 456.371417 186.452911 
L 457.813378 186.452911 
L 457.813378 182.620515 
L 461.8 182.620515 
" clip-path="url(#p1b9546af9b)" style="fill: none; stroke: #f5deb3; stroke-width: 1.5; stroke-linecap: square"/>
   </g>
   <g id="line2d_5">
    <path d="M 447.578606 293.76 
L 447.578606 289.927604 
L 461.8 289.927604 
" clip-path="url(#p1b9546af9b)" style="fill: none; stroke: #f5deb3; stroke-width: 1.5; stroke-linecap: square"/>
   </g>
   <g id="line2d_6"/>
   <g id="line2d_7">
    <path d="M 339.295586 293.76 
L 339.295586 289.927604 
L 342.064322 289.927604 
L 342.064322 286.095208 
L 348.621673 286.095208 
L 348.621673 282.262812 
L 351.722923 282.262812 
L 351.722923 278.430416 
L 353.531677 278.430416 
L 353.531677 274.59802 
L 357.61061 274.59802 
L 357.61061 266.933228 
L 358.741549 266.933228 
L 358.741549 263.100832 
L 359.301523 263.100832 
L 359.301523 259.268436 
L 360.410713 259.268436 
L 360.410713 255.43604 
L 363.655429 255.43604 
L 363.655429 251.603644 
L 365.75288 251.603644 
L 365.75288 247.771248 
L 366.269392 247.771248 
L 366.269392 243.938851 
L 367.800682 243.938851 
L 367.800682 240.106455 
L 373.668396 240.106455 
L 373.668396 236.274059 
L 461.8 236.274059 
L 461.8 236.274059 
" clip-path="url(#p1b9546af9b)" style="fill: none; stroke: #f5deb3; stroke-width: 1.5; stroke-linecap: square"/>
   </g>
   <g id="line2d_8">
    <path d="M 0 0 
" clip-path="url(#p1b9546af9b)" style="fill: none; stroke: #f5deb3; stroke-width: 1.5; stroke-linecap: square"/>
   </g>
   <g id="line2d_9">
    <path d="M 230.559618 293.76 
L 230.559618 289.927604 
L 239.921783 289.927604 
L 239.921783 286.095208 
L 246.33328 286.095208 
L 246.33328 282.262812 
L 256.064382 282.262812 
L 256.064382 278.430416 
L 257.885831 278.430416 
L 257.885831 274.59802 
L 278.621276 274.59802 
L 278.621276 270.765624 
L 284.116177 270.765624 
L 284.116177 266.933228 
L 296.496635 266.933228 
L 296.496635 263.100832 
L 296.496635 263.100832 
L 296.496635 259.268436 
L 302.080225 259.268436 
L 302.080225 255.43604 
L 302.080225 255.43604 
L 302.080225 251.603644 
L 307.325201 251.603644 
L 307.325201 247.771248 
L 308.337092 247.771248 
L 308.337092 243.938851 
L 309.337283 243.938851 
L 309.337283 240.106455 
L 310.326044 240.106455 
L 310.326044 236.274059 
L 461.8 236.274059 
" clip-path="url(#p1b9546af9b)" style="fill: none; stroke: #f5deb3; stroke-width: 1.5; stroke-linecap: square"/>
   </g>
   <g id="line2d_10">
    <path d="M 322.246486 293.76 
L 322.246486 289.927604 
L 337.877265 289.927604 
L 337.877265 286.095208 
L 338.589332 286.095208 
L 338.589332 274.59802 
L 341.3804 274.59802 
L 341.3804 270.765624 
L 343.416156 270.765624 
L 343.416156 266.933228 
L 352.330052 266.933228 
L 352.330052 263.100832 
L 353.531677 263.100832 
L 353.531677 259.268436 
L 365.233265 259.268436 
L 365.233265 255.43604 
L 371.271688 255.43604 
L 371.271688 251.603644 
L 385.574794 251.603644 
L 385.574794 247.771248 
L 385.985796 247.771248 
L 385.985796 243.938851 
L 400.312329 243.938851 
L 400.312329 240.106455 
L 402.032378 240.106455 
L 402.032378 236.274059 
L 461.8 236.274059 
L 461.8 236.274059 
" clip-path="url(#p1b9546af9b)" style="fill: none; stroke: #f5deb3; stroke-width: 1.5; stroke-linecap: square"/>
   </g>
   <g id="line2d_11">
    <path d="M 157.25512 293.76 
L 157.25512 289.927604 
L 182.144112 289.927604 
L 182.144112 286.095208 
L 186.365224 286.095208 
L 186.365224 282.262812 
L 186.365224 282.262812 
L 186.365224 278.430416 
L 186.365224 278.430416 
L 186.365224 274.59802 
L 190.389932 274.59802 
L 190.389932 270.765624 
L 190.389932 270.765624 
L 190.389932 266.933228 
L 194.235703 266.933228 
L 194.235703 263.100832 
L 194.235703 263.100832 
L 194.235703 259.268436 
L 208.107847 259.268436 
L 208.107847 255.43604 
L 208.107847 255.43604 
L 208.107847 251.603644 
L 225.468996 251.603644 
L 225.468996 247.771248 
L 225.468996 247.771248 
L 225.468996 243.938851 
L 235.367278 243.938851 
L 235.367278 240.106455 
L 237.674498 240.106455 
L 237.674498 236.274059 
L 424.416 236.274059 
L 424.416 232.441663 
L 431.239744 232.441663 
L 431.239744 228.609267 
L 431.239744 228.609267 
L 431.239744 224.776871 
L 431.965754 224.776871 
L 431.965754 220.944475 
L 433.636452 220.944475 
L 433.636452 217.112079 
L 435.043241 217.112079 
L 435.043241 213.279683 
L 435.275498 213.279683 
L 435.275498 209.447287 
L 436.884068 209.447287 
L 436.884068 205.614891 
L 437.33822 205.614891 
L 437.33822 201.782495 
L 441.537759 201.782495 
L 441.537759 197.950099 
L 441.537759 197.950099 
L 441.537759 194.117703 
L 443.246765 194.117703 
L 443.246765 190.285307 
L 443.668793 190.285307 
L 443.668793 186.452911 
L 447.377173 186.452911 
L 447.377173 182.620515 
L 447.980071 182.620515 
L 447.980071 178.788119 
L 461.8 178.788119 
" clip-path="url(#p1b9546af9b)" style="fill: none; stroke: #f5deb3; stroke-width: 1.5; stroke-linecap: square"/>
   </g>
   <g id="line2d_12">
    <path d="M 144.874663 293.76 
L 144.874663 289.927604 
L 144.874663 289.927604 
L 144.874663 286.095208 
L 144.874663 286.095208 
L 144.874663 282.262812 
L 144.874663 282.262812 
L 144.874663 278.430416 
L 144.874663 278.430416 
L 144.874663 274.59802 
L 144.874663 274.59802 
L 144.874663 270.765624 
L 144.874663 270.765624 
L 144.874663 266.933228 
L 144.874663 266.933228 
L 144.874663 263.100832 
L 144.874663 263.100832 
L 144.874663 259.268436 
L 144.874663 259.268436 
L 144.874663 255.43604 
L 144.874663 255.43604 
L 144.874663 251.603644 
L 144.874663 251.603644 
L 144.874663 247.771248 
L 144.874663 247.771248 
L 144.874663 243.938851 
L 144.874663 243.938851 
L 144.874663 240.106455 
L 144.874663 240.106455 
L 144.874663 236.274059 
L 177.706441 236.274059 
L 177.706441 232.441663 
L 177.706441 232.441663 
L 177.706441 228.609267 
L 201.449515 228.609267 
L 201.449515 224.776871 
L 220.060008 224.776871 
L 220.060008 220.944475 
L 220.060008 220.944475 
L 220.060008 217.112079 
L 220.060008 217.112079 
L 220.060008 213.279683 
L 220.060008 213.279683 
L 220.060008 209.447287 
L 220.060008 209.447287 
L 220.060008 205.614891 
L 220.060008 205.614891 
L 220.060008 201.782495 
L 220.060008 201.782495 
L 220.060008 197.950099 
L 220.060008 197.950099 
L 220.060008 194.117703 
L 235.367278 194.117703 
L 235.367278 190.285307 
L 235.367278 190.285307 
L 235.367278 186.452911 
L 235.367278 186.452911 
L 235.367278 182.620515 
L 248.369035 182.620515 
L 248.369035 178.788119 
L 461.8 178.788119 
" clip-path="url(#p1b9546af9b)" style="fill: none; stroke: #f5deb3; stroke-width: 1.5; stroke-linecap: square"/>
   </g>
   <g id="line2d_13">
    <path d="M 427.261314 293.76 
L 427.261314 289.927604 
L 427.261314 289.927604 
L 427.261314 286.095208 
L 427.261314 286.095208 
L 427.261314 282.262812 
L 434.576849 282.262812 
L 434.576849 278.430416 
L 434.576849 278.430416 
L 434.576849 274.59802 
L 434.576849 274.59802 
L 434.576849 270.765624 
L 435.275498 270.765624 
L 435.275498 266.933228 
L 435.275498 266.933228 
L 435.275498 263.100832 
L 435.275498 263.100832 
L 435.275498 259.268436 
L 450.739346 259.268436 
L 450.739346 255.43604 
L 450.739346 255.43604 
L 450.739346 251.603644 
L 450.739346 251.603644 
L 450.739346 247.771248 
L 460.453937 247.771248 
L 460.453937 243.938851 
L 460.453937 243.938851 
L 460.453937 240.106455 
L 460.453937 240.106455 
L 460.453937 236.274059 
L 461.8 236.274059 
" clip-path="url(#p1b9546af9b)" style="fill: none; stroke: #f5deb3; stroke-width: 1.5; stroke-linecap: square"/>
   </g>
   <g id="line2d_14">
    <path d="M 230.559618 293.76 
L 230.559618 289.927604 
L 230.559618 289.927604 
L 230.559618 286.095208 
L 232.996839 286.095208 
L 232.996839 282.262812 
L 237.674498 282.262812 
L 237.674498 278.430416 
L 244.248465 278.430416 
L 244.248465 274.59802 
L 244.248465 274.59802 
L 244.248465 270.765624 
L 244.248465 270.765624 
L 244.248465 266.933228 
L 250.357988 266.933228 
L 250.357988 263.100832 
L 254.203759 263.100832 
L 254.203759 259.268436 
L 254.203759 259.268436 
L 254.203759 255.43604 
L 254.203759 255.43604 
L 254.203759 251.603644 
L 254.203759 251.603644 
L 254.203759 247.771248 
L 254.203759 247.771248 
L 254.203759 243.938851 
L 254.203759 243.938851 
L 254.203759 240.106455 
L 254.203759 240.106455 
L 254.203759 236.274059 
L 359.857895 236.274059 
L 359.857895 232.441663 
L 365.75288 232.441663 
L 365.75288 228.609267 
L 370.784275 228.609267 
L 370.784275 224.776871 
L 373.668396 224.776871 
L 373.668396 220.944475 
L 373.668396 220.944475 
L 373.668396 217.112079 
L 375.539077 217.112079 
L 375.539077 213.279683 
L 376.459464 213.279683 
L 376.459464 209.447287 
L 377.370163 209.447287 
L 377.370163 205.614891 
L 380.92002 205.614891 
L 380.92002 201.782495 
L 382.641781 201.782495 
L 382.641781 197.950099 
L 386.394854 197.950099 
L 386.394854 194.117703 
L 387.61055 194.117703 
L 387.61055 190.285307 
L 390.382454 190.285307 
L 390.382454 186.452911 
L 390.382454 186.452911 
L 390.382454 182.620515 
L 404.05229 182.620515 
L 404.05229 178.788119 
L 461.8 178.788119 
" clip-path="url(#p1b9546af9b)" style="fill: none; stroke: #f5deb3; stroke-width: 1.5; stroke-linecap: square"/>
   </g>
   <g id="line2d_15">
    <path clip-path="url(#p1b9546af9b)" style="fill: none; stroke: #f5deb3; stroke-width: 1.5; stroke-linecap: square"/>
   </g>
   <g id="line2d_16">
    <path d="M 0 0 
" clip-path="url(#p1b9546af9b)" style="fill: none; stroke: #f5deb3; stroke-width: 1.5; stroke-linecap: square"/>
   </g>
   <g id="line2d_17">
    <path d="M 338.589332 293.76 
L 338.589332 289.927604 
L 347.987856 289.927604 
L 347.987856 286.095208 
L 368.305148 286.095208 
L 368.305148 282.262812 
L 386.394854 282.262812 
L 386.394854 278.430416 
L 389.205353 278.430416 
L 389.205353 274.59802 
L 413.499734 274.59802 
L 413.499734 270.765624 
L 420.928076 270.765624 
L 420.928076 266.933228 
L 421.201428 266.933228 
L 421.201428 263.100832 
L 426.237449 263.100832 
L 426.237449 259.268436 
L 449.763962 259.268436 
L 449.763962 255.43604 
L 461.8 255.43604 
" clip-path="url(#p1b9546af9b)" style="fill: none; stroke: #f5deb3; stroke-width: 1.5; stroke-linecap: square"/>
   </g>
   <g id="line2d_18">
    <path d="M 137.949718 293.76 
L 137.949718 289.927604 
L 137.949718 289.927604 
L 137.949718 286.095208 
L 137.949718 286.095208 
L 137.949718 282.262812 
L 137.949718 282.262812 
L 137.949718 278.430416 
L 137.949718 278.430416 
L 137.949718 274.59802 
L 137.949718 274.59802 
L 137.949718 270.765624 
L 137.949718 270.765624 
L 137.949718 266.933228 
L 137.949718 266.933228 
L 137.949718 263.100832 
L 137.949718 263.100832 
L 137.949718 259.268436 
L 137.949718 259.268436 
L 137.949718 255.43604 
L 137.949718 255.43604 
L 137.949718 251.603644 
L 137.949718 251.603644 
L 137.949718 247.771248 
L 137.949718 247.771248 
L 137.949718 243.938851 
L 137.949718 243.938851 
L 137.949718 240.106455 
L 137.949718 240.106455 
L 137.949718 236.274059 
L 144.874663 236.274059 
L 144.874663 232.441663 
L 144.874663 232.441663 
L 144.874663 228.609267 
L 144.874663 228.609267 
L 144.874663 224.776871 
L 144.874663 224.776871 
L 144.874663 220.944475 
L 144.874663 220.944475 
L 144.874663 217.112079 
L 151.286159 217.112079 
L 151.286159 213.279683 
L 157.25512 213.279683 
L 157.25512 209.447287 
L 162.83871 209.447287 
L 162.83871 205.614891 
L 162.83871 205.614891 
L 162.83871 201.782495 
L 168.083687 201.782495 
L 168.083687 197.950099 
L 168.083687 197.950099 
L 168.083687 194.117703 
L 168.083687 194.117703 
L 168.083687 190.285307 
L 168.083687 190.285307 
L 168.083687 186.452911 
L 173.028782 186.452911 
L 173.028782 182.620515 
L 186.365224 182.620515 
L 186.365224 178.788119 
L 461.8 178.788119 
" clip-path="url(#p1b9546af9b)" style="fill: none; stroke: #f5deb3; stroke-width: 1.5; stroke-linecap: square"/>
   </g>
   <g id="line2d_19">
    <path d="M 0 0 
" clip-path="url(#p1b9546af9b)" style="fill: none; stroke: #f5deb3; stroke-width: 1.5; stroke-linecap: square"/>
   </g>
   <g id="line2d_20">
    <path d="M 157.25512 293.76 
L 157.25512 289.927604 
L 168.083687 289.927604 
L 168.083687 286.095208 
L 173.028782 286.095208 
L 173.028782 282.262812 
L 173.028782 282.262812 
L 173.028782 278.430416 
L 186.365224 278.430416 
L 186.365224 274.59802 
L 194.235703 274.59802 
L 194.235703 270.765624 
L 197.917774 270.765624 
L 197.917774 266.933228 
L 204.842719 266.933228 
L 204.842719 263.100832 
L 208.107847 263.100832 
L 208.107847 259.268436 
L 208.107847 259.268436 
L 208.107847 255.43604 
L 211.254216 255.43604 
L 211.254216 251.603644 
L 217.223177 251.603644 
L 217.223177 247.771248 
L 222.806767 247.771248 
L 222.806767 243.938851 
L 225.468996 243.938851 
L 225.468996 240.106455 
L 232.996839 240.106455 
L 232.996839 236.274059 
L 377.821943 236.274059 
L 377.821943 232.441663 
L 385.574794 232.441663 
L 385.574794 228.609267 
L 385.985796 228.609267 
L 385.985796 224.776871 
L 387.207213 224.776871 
L 387.207213 220.944475 
L 388.8094 220.944475 
L 388.8094 217.112079 
L 390.771289 217.112079 
L 390.771289 213.279683 
L 392.309385 213.279683 
L 392.309385 209.447287 
L 393.445274 209.447287 
L 393.445274 205.614891 
L 396.76611 205.614891 
L 396.76611 201.782495 
L 397.487078 201.782495 
L 397.487078 197.950099 
L 401.348456 197.950099 
L 401.348456 194.117703 
L 403.384212 194.117703 
L 403.384212 190.285307 
L 406.996394 190.285307 
L 406.996394 186.452911 
L 411.690979 186.452911 
L 411.690979 182.620515 
L 411.995076 182.620515 
L 411.995076 178.788119 
L 446.972893 178.788119 
L 446.972893 174.955723 
L 461.8 174.955723 
" clip-path="url(#p1b9546af9b)" style="fill: none; stroke: #f5deb3; stroke-width: 1.5; stroke-linecap: square"/>
   </g>
   <g id="line2d_21">
    <path d="M 0 0 
" clip-path="url(#p1b9546af9b)" style="fill: none; stroke: #f5deb3; stroke-width: 1.5; stroke-linecap: square"/>
   </g>
   <g id="line2d_22">
    <path d="M 173.028782 293.76 
L 173.028782 289.927604 
L 173.028782 289.927604 
L 173.028782 286.095208 
L 186.365224 286.095208 
L 186.365224 282.262812 
L 190.389932 282.262812 
L 190.389932 278.430416 
L 201.449515 278.430416 
L 201.449515 274.59802 
L 201.449515 274.59802 
L 201.449515 270.765624 
L 201.449515 270.765624 
L 201.449515 266.933228 
L 211.254216 266.933228 
L 211.254216 263.100832 
L 232.996839 263.100832 
L 232.996839 259.268436 
L 244.248465 259.268436 
L 244.248465 255.43604 
L 246.33328 255.43604 
L 246.33328 251.603644 
L 256.064382 251.603644 
L 256.064382 247.771248 
L 259.669721 247.771248 
L 259.669721 243.938851 
L 329.631446 243.938851 
L 329.631446 240.106455 
L 344.084233 240.106455 
L 344.084233 236.274059 
L 384.329944 236.274059 
L 384.329944 232.441663 
L 385.985796 232.441663 
L 385.985796 228.609267 
L 387.207213 228.609267 
L 387.207213 224.776871 
L 389.599502 224.776871 
L 389.599502 220.944475 
L 391.543755 220.944475 
L 391.543755 217.112079 
L 393.068299 217.112079 
L 393.068299 213.279683 
L 393.445274 213.279683 
L 393.445274 209.447287 
L 394.194332 209.447287 
L 394.194332 205.614891 
L 394.566442 205.614891 
L 394.566442 201.782495 
L 398.202087 201.782495 
L 398.202087 197.950099 
L 398.911236 197.950099 
L 398.911236 194.117703 
L 401.348456 194.117703 
L 401.348456 190.285307 
L 401.691093 190.285307 
L 401.691093 186.452911 
L 404.384404 186.452911 
L 404.384404 182.620515 
L 409.8436 182.620515 
L 409.8436 178.788119 
L 461.8 178.788119 
" clip-path="url(#p1b9546af9b)" style="fill: none; stroke: #f5deb3; stroke-width: 1.5; stroke-linecap: square"/>
   </g>
   <g id="line2d_23">
    <path d="M 303.154967 293.76 
L 303.154967 289.927604 
L 334.226275 289.927604 
L 334.226275 286.095208 
L 337.877265 286.095208 
L 337.877265 282.262812 
L 339.996121 282.262812 
L 339.996121 278.430416 
L 351.111502 278.430416 
L 351.111502 274.59802 
L 351.111502 274.59802 
L 351.111502 270.765624 
L 360.410713 270.765624 
L 360.410713 266.933228 
L 360.96002 266.933228 
L 360.96002 263.100832 
L 363.123023 263.100832 
L 363.123023 259.268436 
L 363.655429 259.268436 
L 363.655429 255.43604 
L 364.184578 255.43604 
L 364.184578 251.603644 
L 378.718486 251.603644 
L 378.718486 247.771248 
L 388.411626 247.771248 
L 388.411626 243.938851 
L 394.936959 243.938851 
L 394.936959 240.106455 
L 410.77222 240.106455 
L 410.77222 236.274059 
L 461.8 236.274059 
" clip-path="url(#p1b9546af9b)" style="fill: none; stroke: #f5deb3; stroke-width: 1.5; stroke-linecap: square"/>
   </g>
   <g id="line2d_24">
    <path d="M 382.641781 293.76 
L 382.641781 289.927604 
L 382.641781 289.927604 
L 382.641781 286.095208 
L 383.06692 286.095208 
L 383.06692 282.262812 
L 399.614619 282.262812 
L 399.614619 278.430416 
L 399.614619 278.430416 
L 399.614619 274.59802 
L 399.964177 274.59802 
L 399.964177 270.765624 
L 415.271446 270.765624 
L 415.271446 266.933228 
L 415.271446 266.933228 
L 415.271446 263.100832 
L 415.563236 263.100832 
L 415.563236 259.268436 
L 415.854045 259.268436 
L 415.854045 255.43604 
L 428.524338 255.43604 
L 428.524338 251.603644 
L 428.524338 251.603644 
L 428.524338 247.771248 
L 428.774745 247.771248 
L 428.774745 243.938851 
L 429.02443 243.938851 
L 429.02443 240.106455 
L 450.155436 240.106455 
L 450.155436 236.274059 
L 461.8 236.274059 
" clip-path="url(#p1b9546af9b)" style="fill: none; stroke: #f5deb3; stroke-width: 1.5; stroke-linecap: square"/>
   </g>
   <g id="line2d_25">
    <path d="M 323.942925 293.76 
L 323.942925 289.927604 
L 338.589332 289.927604 
L 338.589332 286.095208 
L 342.064322 286.095208 
L 342.064322 282.262812 
L 350.49573 282.262812 
L 350.49573 278.430416 
L 352.330052 278.430416 
L 352.330052 274.59802 
L 363.123023 274.59802 
L 363.123023 270.765624 
L 363.655429 270.765624 
L 363.655429 266.933228 
L 364.71051 266.933228 
L 364.71051 263.100832 
L 364.71051 263.100832 
L 364.71051 259.268436 
L 366.269392 259.268436 
L 366.269392 255.43604 
L 369.801132 255.43604 
L 369.801132 251.603644 
L 371.756371 251.603644 
L 371.756371 247.771248 
L 391.158384 247.771248 
L 391.158384 243.938851 
L 392.309385 243.938851 
L 392.309385 240.106455 
L 393.820613 240.106455 
L 393.820613 236.274059 
L 461.8 236.274059 
" clip-path="url(#p1b9546af9b)" style="fill: none; stroke: #f5deb3; stroke-width: 1.5; stroke-linecap: square"/>
   </g>
   <g id="line2d_26">
    <path d="M 0 0 
" clip-path="url(#p1b9546af9b)" style="fill: none; stroke: #f5deb3; stroke-width: 1.5; stroke-linecap: square"/>
   </g>
   <g id="line2d_27">
    <path d="M 355.885989 293.76 
L 355.885989 289.927604 
L 374.608792 289.927604 
L 374.608792 286.095208 
L 375.539077 286.095208 
L 375.539077 282.262812 
L 378.718486 282.262812 
L 378.718486 278.430416 
L 388.411626 278.430416 
L 388.411626 274.59802 
L 388.411626 274.59802 
L 388.411626 270.765624 
L 389.599502 270.765624 
L 389.599502 266.933228 
L 395.673267 266.933228 
L 395.673267 263.100832 
L 410.77222 263.100832 
L 410.77222 259.268436 
L 415.271446 259.268436 
L 415.271446 255.43604 
L 422.286277 255.43604 
L 422.286277 251.603644 
L 426.494553 251.603644 
L 426.494553 247.771248 
L 429.02443 247.771248 
L 429.02443 243.938851 
L 443.879037 243.938851 
L 443.879037 240.106455 
L 461.8 240.106455 
" clip-path="url(#p1b9546af9b)" style="fill: none; stroke: #f5deb3; stroke-width: 1.5; stroke-linecap: square"/>
   </g>
   <g id="line2d_28">
    <path d="M 252.302241 293.76 
L 252.302241 289.927604 
L 285.437052 289.927604 
L 285.437052 286.095208 
L 308.337092 286.095208 
L 308.337092 282.262812 
L 308.337092 282.262812 
L 308.337092 278.430416 
L 310.326044 278.430416 
L 310.326044 274.59802 
L 319.637777 274.59802 
L 319.637777 270.765624 
L 327.239157 270.765624 
L 327.239157 266.933228 
L 327.239157 266.933228 
L 327.239157 263.100832 
L 328.043959 263.100832 
L 328.043959 259.268436 
L 342.742879 259.268436 
L 342.742879 255.43604 
L 343.416156 255.43604 
L 343.416156 251.603644 
L 343.416156 251.603644 
L 343.416156 247.771248 
L 356.464691 247.771248 
L 356.464691 243.938851 
L 376.000494 243.938851 
L 376.000494 240.106455 
L 386.801987 240.106455 
L 386.801987 236.274059 
L 461.8 236.274059 
" clip-path="url(#p1b9546af9b)" style="fill: none; stroke: #f5deb3; stroke-width: 1.5; stroke-linecap: square"/>
   </g>
   <g id="line2d_29">
    <path d="M 122.176056 293.76 
L 122.176056 289.927604 
L 122.176056 289.927604 
L 122.176056 286.095208 
L 122.176056 286.095208 
L 122.176056 282.262812 
L 122.176056 282.262812 
L 122.176056 278.430416 
L 122.176056 278.430416 
L 122.176056 274.59802 
L 122.176056 274.59802 
L 122.176056 270.765624 
L 122.176056 270.765624 
L 122.176056 266.933228 
L 122.176056 266.933228 
L 122.176056 263.100832 
L 122.176056 263.100832 
L 122.176056 259.268436 
L 122.176056 259.268436 
L 122.176056 255.43604 
L 122.176056 255.43604 
L 122.176056 251.603644 
L 122.176056 251.603644 
L 122.176056 247.771248 
L 122.176056 247.771248 
L 122.176056 243.938851 
L 122.176056 243.938851 
L 122.176056 240.106455 
L 122.176056 240.106455 
L 122.176056 236.274059 
L 162.83871 236.274059 
L 162.83871 232.441663 
L 162.83871 232.441663 
L 162.83871 228.609267 
L 162.83871 228.609267 
L 162.83871 224.776871 
L 168.083687 224.776871 
L 168.083687 220.944475 
L 168.083687 220.944475 
L 168.083687 217.112079 
L 168.083687 217.112079 
L 168.083687 213.279683 
L 168.083687 213.279683 
L 168.083687 209.447287 
L 168.083687 209.447287 
L 168.083687 205.614891 
L 168.083687 205.614891 
L 168.083687 201.782495 
L 268.075903 201.782495 
L 268.075903 197.950099 
L 268.075903 197.950099 
L 268.075903 194.117703 
L 268.075903 194.117703 
L 268.075903 190.285307 
L 269.66339 190.285307 
L 269.66339 186.452911 
L 269.66339 186.452911 
L 269.66339 182.620515 
L 269.66339 182.620515 
L 269.66339 178.788119 
L 461.8 178.788119 
" clip-path="url(#p1b9546af9b)" style="fill: none; stroke: #f5deb3; stroke-width: 1.5; stroke-linecap: square"/>
   </g>
   <g id="line2d_30">
    <path d="M 244.248465 293.76 
L 244.248465 289.927604 
L 252.302241 289.927604 
L 252.302241 286.095208 
L 290.527674 286.095208 
L 290.527674 282.262812 
L 291.754867 282.262812 
L 291.754867 278.430416 
L 298.773493 278.430416 
L 298.773493 274.59802 
L 303.154967 274.59802 
L 303.154967 270.765624 
L 305.265209 270.765624 
L 305.265209 266.933228 
L 305.265209 266.933228 
L 305.265209 263.100832 
L 306.301336 263.100832 
L 306.301336 259.268436 
L 306.301336 259.268436 
L 306.301336 255.43604 
L 306.301336 255.43604 
L 306.301336 251.603644 
L 310.326044 251.603644 
L 310.326044 247.771248 
L 311.303632 247.771248 
L 311.303632 243.938851 
L 312.270297 243.938851 
L 312.270297 240.106455 
L 312.270297 240.106455 
L 312.270297 236.274059 
L 312.270297 236.274059 
L 312.270297 232.441663 
L 313.22628 232.441663 
L 313.22628 228.609267 
L 314.171816 228.609267 
L 314.171816 224.776871 
L 314.171816 224.776871 
L 314.171816 220.944475 
L 315.107129 220.944475 
L 315.107129 217.112079 
L 316.947956 217.112079 
L 316.947956 213.279683 
L 317.853887 213.279683 
L 317.853887 209.447287 
L 318.75043 209.447287 
L 318.75043 205.614891 
L 323.098864 205.614891 
L 323.098864 201.782495 
L 324.778831 201.782495 
L 324.778831 197.950099 
L 326.426798 197.950099 
L 326.426798 194.117703 
L 326.426798 194.117703 
L 326.426798 190.285307 
L 328.043959 190.285307 
L 328.043959 186.452911 
L 328.841344 186.452911 
L 328.841344 182.620515 
L 336.435305 182.620515 
L 336.435305 178.788119 
L 351.722923 178.788119 
L 351.722923 174.955723 
L 351.722923 174.955723 
L 351.722923 171.123327 
L 351.722923 171.123327 
L 351.722923 167.290931 
L 351.722923 167.290931 
L 351.722923 163.458535 
L 351.722923 163.458535 
L 351.722923 159.626139 
L 351.722923 159.626139 
L 351.722923 155.793743 
L 351.722923 155.793743 
L 351.722923 151.961347 
L 351.722923 151.961347 
L 351.722923 148.12895 
L 351.722923 148.12895 
L 351.722923 144.296554 
L 351.722923 144.296554 
L 351.722923 140.464158 
L 351.722923 140.464158 
L 351.722923 136.631762 
L 351.722923 136.631762 
L 351.722923 132.799366 
L 351.722923 132.799366 
L 351.722923 128.96697 
L 351.722923 128.96697 
L 351.722923 125.134574 
L 351.722923 125.134574 
L 351.722923 121.302178 
L 351.722923 121.302178 
L 351.722923 121.302178 
L 460.8 121.302178 
" clip-path="url(#p1b9546af9b)" style="fill: none; stroke: #f5deb3; stroke-width: 1.5; stroke-linecap: square"/>
   </g>
   <g id="matplotlib.axis_1">
    <g id="xtick_1">
     <g id="line2d_31">
      <path d="M 62.208 293.76 
L 62.208 3.456 
" clip-path="url(#p1b9546af9b)" style="fill: none; stroke: #b0b0b0; stroke-width: 0.8; stroke-linecap: square"/>
     </g>
     <g id="line2d_32">
      <defs>
       <path id="ma46b7c7bda" d="M 0 0 
L 0 3.5 
" style="stroke: #000000; stroke-width: 0.8"/>
      </defs>
      <g>
       <use xlink:href="#ma46b7c7bda" x="62.208" y="293.76" style="stroke: #000000; stroke-width: 0.8"/>
      </g>
     </g>
     <g id="text_1">
      <!-- 0 -->
      <g transform="translate(55.8455 315.956875) scale(0.2 -0.2)">
       <defs>
        <path id="DejaVuSans-30" d="M 2034 4250 
Q 1547 4250 1301 3770 
Q 1056 3291 1056 2328 
Q 1056 1369 1301 889 
Q 1547 409 2034 409 
Q 2525 409 2770 889 
Q 3016 1369 3016 2328 
Q 3016 3291 2770 3770 
Q 2525 4250 2034 4250 
z
M 2034 4750 
Q 2819 4750 3233 4129 
Q 3647 3509 3647 2328 
Q 3647 1150 3233 529 
Q 2819 -91 2034 -91 
Q 1250 -91 836 529 
Q 422 1150 422 2328 
Q 422 3509 836 4129 
Q 1250 4750 2034 4750 
z
" transform="scale(0.015625)"/>
       </defs>
       <use xlink:href="#DejaVuSans-30"/>
      </g>
     </g>
    </g>
    <g id="xtick_2">
     <g id="line2d_33">
      <path d="M 460.627142 293.76 
L 460.627142 3.456 
" clip-path="url(#p1b9546af9b)" style="fill: none; stroke: #b0b0b0; stroke-width: 0.8; stroke-linecap: square"/>
     </g>
     <g id="line2d_34">
      <g>
       <use xlink:href="#ma46b7c7bda" x="460.627142" y="293.76" style="stroke: #000000; stroke-width: 0.8"/>
      </g>
     </g>
     <g id="text_2">
      <!-- 2 -->
      <g transform="translate(454.264642 315.956875) scale(0.2 -0.2)">
       <defs>
        <path id="DejaVuSans-32" d="M 1228 531 
L 3431 531 
L 3431 0 
L 469 0 
L 469 531 
Q 828 903 1448 1529 
Q 2069 2156 2228 2338 
Q 2531 2678 2651 2914 
Q 2772 3150 2772 3378 
Q 2772 3750 2511 3984 
Q 2250 4219 1831 4219 
Q 1534 4219 1204 4116 
Q 875 4013 500 3803 
L 500 4441 
Q 881 4594 1212 4672 
Q 1544 4750 1819 4750 
Q 2544 4750 2975 4387 
Q 3406 4025 3406 3419 
Q 3406 3131 3298 2873 
Q 3191 2616 2906 2266 
Q 2828 2175 2409 1742 
Q 1991 1309 1228 531 
z
" transform="scale(0.015625)"/>
       </defs>
       <use xlink:href="#DejaVuSans-32"/>
      </g>
     </g>
    </g>
    <g id="xtick_3">
     <g id="line2d_35">
      <path d="M 122.176056 293.76 
L 122.176056 3.456 
" clip-path="url(#p1b9546af9b)" style="fill: none; stroke: #b0b0b0; stroke-width: 0.8; stroke-linecap: square"/>
     </g>
     <g id="line2d_36">
      <defs>
       <path id="m8c71d94e27" d="M 0 0 
L 0 2 
" style="stroke: #000000; stroke-width: 0.6"/>
      </defs>
      <g>
       <use xlink:href="#m8c71d94e27" x="122.176056" y="293.76" style="stroke: #000000; stroke-width: 0.6"/>
      </g>
     </g>
    </g>
    <g id="xtick_4">
     <g id="line2d_37">
      <path d="M 157.25512 293.76 
L 157.25512 3.456 
" clip-path="url(#p1b9546af9b)" style="fill: none; stroke: #b0b0b0; stroke-width: 0.8; stroke-linecap: square"/>
     </g>
     <g id="line2d_38">
      <g>
       <use xlink:href="#m8c71d94e27" x="157.25512" y="293.76" style="stroke: #000000; stroke-width: 0.6"/>
      </g>
     </g>
    </g>
    <g id="xtick_5">
     <g id="line2d_39">
      <path d="M 182.144112 293.76 
L 182.144112 3.456 
" clip-path="url(#p1b9546af9b)" style="fill: none; stroke: #b0b0b0; stroke-width: 0.8; stroke-linecap: square"/>
     </g>
     <g id="line2d_40">
      <g>
       <use xlink:href="#m8c71d94e27" x="182.144112" y="293.76" style="stroke: #000000; stroke-width: 0.6"/>
      </g>
     </g>
    </g>
    <g id="xtick_6">
     <g id="line2d_41">
      <path d="M 201.449515 293.76 
L 201.449515 3.456 
" clip-path="url(#p1b9546af9b)" style="fill: none; stroke: #b0b0b0; stroke-width: 0.8; stroke-linecap: square"/>
     </g>
     <g id="line2d_42">
      <g>
       <use xlink:href="#m8c71d94e27" x="201.449515" y="293.76" style="stroke: #000000; stroke-width: 0.6"/>
      </g>
     </g>
    </g>
    <g id="xtick_7">
     <g id="line2d_43">
      <path d="M 217.223177 293.76 
L 217.223177 3.456 
" clip-path="url(#p1b9546af9b)" style="fill: none; stroke: #b0b0b0; stroke-width: 0.8; stroke-linecap: square"/>
     </g>
     <g id="line2d_44">
      <g>
       <use xlink:href="#m8c71d94e27" x="217.223177" y="293.76" style="stroke: #000000; stroke-width: 0.6"/>
      </g>
     </g>
    </g>
    <g id="xtick_8">
     <g id="line2d_45">
      <path d="M 230.559618 293.76 
L 230.559618 3.456 
" clip-path="url(#p1b9546af9b)" style="fill: none; stroke: #b0b0b0; stroke-width: 0.8; stroke-linecap: square"/>
     </g>
     <g id="line2d_46">
      <g>
       <use xlink:href="#m8c71d94e27" x="230.559618" y="293.76" style="stroke: #000000; stroke-width: 0.6"/>
      </g>
     </g>
    </g>
    <g id="xtick_9">
     <g id="line2d_47">
      <path d="M 242.112169 293.76 
L 242.112169 3.456 
" clip-path="url(#p1b9546af9b)" style="fill: none; stroke: #b0b0b0; stroke-width: 0.8; stroke-linecap: square"/>
     </g>
     <g id="line2d_48">
      <g>
       <use xlink:href="#m8c71d94e27" x="242.112169" y="293.76" style="stroke: #000000; stroke-width: 0.6"/>
      </g>
     </g>
    </g>
    <g id="xtick_10">
     <g id="line2d_49">
      <path d="M 252.302241 293.76 
L 252.302241 3.456 
" clip-path="url(#p1b9546af9b)" style="fill: none; stroke: #b0b0b0; stroke-width: 0.8; stroke-linecap: square"/>
     </g>
     <g id="line2d_50">
      <g>
       <use xlink:href="#m8c71d94e27" x="252.302241" y="293.76" style="stroke: #000000; stroke-width: 0.6"/>
      </g>
     </g>
    </g>
    <g id="xtick_11">
     <g id="line2d_51">
      <path d="M 321.385627 293.76 
L 321.385627 3.456 
" clip-path="url(#p1b9546af9b)" style="fill: none; stroke: #b0b0b0; stroke-width: 0.8; stroke-linecap: square"/>
     </g>
     <g id="line2d_52">
      <g>
       <use xlink:href="#m8c71d94e27" x="321.385627" y="293.76" style="stroke: #000000; stroke-width: 0.6"/>
      </g>
     </g>
    </g>
    <g id="xtick_12">
     <g id="line2d_53">
      <path d="M 356.464691 293.76 
L 356.464691 3.456 
" clip-path="url(#p1b9546af9b)" style="fill: none; stroke: #b0b0b0; stroke-width: 0.8; stroke-linecap: square"/>
     </g>
     <g id="line2d_54">
      <g>
       <use xlink:href="#m8c71d94e27" x="356.464691" y="293.76" style="stroke: #000000; stroke-width: 0.6"/>
      </g>
     </g>
    </g>
    <g id="xtick_13">
     <g id="line2d_55">
      <path d="M 381.353683 293.76 
L 381.353683 3.456 
" clip-path="url(#p1b9546af9b)" style="fill: none; stroke: #b0b0b0; stroke-width: 0.8; stroke-linecap: square"/>
     </g>
     <g id="line2d_56">
      <g>
       <use xlink:href="#m8c71d94e27" x="381.353683" y="293.76" style="stroke: #000000; stroke-width: 0.6"/>
      </g>
     </g>
    </g>
    <g id="xtick_14">
     <g id="line2d_57">
      <path d="M 400.659085 293.76 
L 400.659085 3.456 
" clip-path="url(#p1b9546af9b)" style="fill: none; stroke: #b0b0b0; stroke-width: 0.8; stroke-linecap: square"/>
     </g>
     <g id="line2d_58">
      <g>
       <use xlink:href="#m8c71d94e27" x="400.659085" y="293.76" style="stroke: #000000; stroke-width: 0.6"/>
      </g>
     </g>
    </g>
    <g id="xtick_15">
     <g id="line2d_59">
      <path d="M 416.432747 293.76 
L 416.432747 3.456 
" clip-path="url(#p1b9546af9b)" style="fill: none; stroke: #b0b0b0; stroke-width: 0.8; stroke-linecap: square"/>
     </g>
     <g id="line2d_60">
      <g>
       <use xlink:href="#m8c71d94e27" x="416.432747" y="293.76" style="stroke: #000000; stroke-width: 0.6"/>
      </g>
     </g>
    </g>
    <g id="xtick_16">
     <g id="line2d_61">
      <path d="M 429.769189 293.76 
L 429.769189 3.456 
" clip-path="url(#p1b9546af9b)" style="fill: none; stroke: #b0b0b0; stroke-width: 0.8; stroke-linecap: square"/>
     </g>
     <g id="line2d_62">
      <g>
       <use xlink:href="#m8c71d94e27" x="429.769189" y="293.76" style="stroke: #000000; stroke-width: 0.6"/>
      </g>
     </g>
    </g>
    <g id="xtick_17">
     <g id="line2d_63">
      <path d="M 441.321739 293.76 
L 441.321739 3.456 
" clip-path="url(#p1b9546af9b)" style="fill: none; stroke: #b0b0b0; stroke-width: 0.8; stroke-linecap: square"/>
     </g>
     <g id="line2d_64">
      <g>
       <use xlink:href="#m8c71d94e27" x="441.321739" y="293.76" style="stroke: #000000; stroke-width: 0.6"/>
      </g>
     </g>
    </g>
    <g id="xtick_18">
     <g id="line2d_65">
      <path d="M 451.511812 293.76 
L 451.511812 3.456 
" clip-path="url(#p1b9546af9b)" style="fill: none; stroke: #b0b0b0; stroke-width: 0.8; stroke-linecap: square"/>
     </g>
     <g id="line2d_66">
      <g>
       <use xlink:href="#m8c71d94e27" x="451.511812" y="293.76" style="stroke: #000000; stroke-width: 0.6"/>
      </g>
     </g>
    </g>
    <g id="text_3">
     <!-- log10 of FEvals / DIM -->
     <g transform="translate(156.430563 339.313125) scale(0.2 -0.2)">
      <defs>
       <path id="DejaVuSans-6c" d="M 603 4863 
L 1178 4863 
L 1178 0 
L 603 0 
L 603 4863 
z
" transform="scale(0.015625)"/>
       <path id="DejaVuSans-6f" d="M 1959 3097 
Q 1497 3097 1228 2736 
Q 959 2375 959 1747 
Q 959 1119 1226 758 
Q 1494 397 1959 397 
Q 2419 397 2687 759 
Q 2956 1122 2956 1747 
Q 2956 2369 2687 2733 
Q 2419 3097 1959 3097 
z
M 1959 3584 
Q 2709 3584 3137 3096 
Q 3566 2609 3566 1747 
Q 3566 888 3137 398 
Q 2709 -91 1959 -91 
Q 1206 -91 779 398 
Q 353 888 353 1747 
Q 353 2609 779 3096 
Q 1206 3584 1959 3584 
z
" transform="scale(0.015625)"/>
       <path id="DejaVuSans-67" d="M 2906 1791 
Q 2906 2416 2648 2759 
Q 2391 3103 1925 3103 
Q 1463 3103 1205 2759 
Q 947 2416 947 1791 
Q 947 1169 1205 825 
Q 1463 481 1925 481 
Q 2391 481 2648 825 
Q 2906 1169 2906 1791 
z
M 3481 434 
Q 3481 -459 3084 -895 
Q 2688 -1331 1869 -1331 
Q 1566 -1331 1297 -1286 
Q 1028 -1241 775 -1147 
L 775 -588 
Q 1028 -725 1275 -790 
Q 1522 -856 1778 -856 
Q 2344 -856 2625 -561 
Q 2906 -266 2906 331 
L 2906 616 
Q 2728 306 2450 153 
Q 2172 0 1784 0 
Q 1141 0 747 490 
Q 353 981 353 1791 
Q 353 2603 747 3093 
Q 1141 3584 1784 3584 
Q 2172 3584 2450 3431 
Q 2728 3278 2906 2969 
L 2906 3500 
L 3481 3500 
L 3481 434 
z
" transform="scale(0.015625)"/>
       <path id="DejaVuSans-31" d="M 794 531 
L 1825 531 
L 1825 4091 
L 703 3866 
L 703 4441 
L 1819 4666 
L 2450 4666 
L 2450 531 
L 3481 531 
L 3481 0 
L 794 0 
L 794 531 
z
" transform="scale(0.015625)"/>
       <path id="DejaVuSans-20" transform="scale(0.015625)"/>
       <path id="DejaVuSans-66" d="M 2375 4863 
L 2375 4384 
L 1825 4384 
Q 1516 4384 1395 4259 
Q 1275 4134 1275 3809 
L 1275 3500 
L 2222 3500 
L 2222 3053 
L 1275 3053 
L 1275 0 
L 697 0 
L 697 3053 
L 147 3053 
L 147 3500 
L 697 3500 
L 697 3744 
Q 697 4328 969 4595 
Q 1241 4863 1831 4863 
L 2375 4863 
z
" transform="scale(0.015625)"/>
       <path id="DejaVuSans-46" d="M 628 4666 
L 3309 4666 
L 3309 4134 
L 1259 4134 
L 1259 2759 
L 3109 2759 
L 3109 2228 
L 1259 2228 
L 1259 0 
L 628 0 
L 628 4666 
z
" transform="scale(0.015625)"/>
       <path id="DejaVuSans-45" d="M 628 4666 
L 3578 4666 
L 3578 4134 
L 1259 4134 
L 1259 2753 
L 3481 2753 
L 3481 2222 
L 1259 2222 
L 1259 531 
L 3634 531 
L 3634 0 
L 628 0 
L 628 4666 
z
" transform="scale(0.015625)"/>
       <path id="DejaVuSans-76" d="M 191 3500 
L 800 3500 
L 1894 563 
L 2988 3500 
L 3597 3500 
L 2284 0 
L 1503 0 
L 191 3500 
z
" transform="scale(0.015625)"/>
       <path id="DejaVuSans-61" d="M 2194 1759 
Q 1497 1759 1228 1600 
Q 959 1441 959 1056 
Q 959 750 1161 570 
Q 1363 391 1709 391 
Q 2188 391 2477 730 
Q 2766 1069 2766 1631 
L 2766 1759 
L 2194 1759 
z
M 3341 1997 
L 3341 0 
L 2766 0 
L 2766 531 
Q 2569 213 2275 61 
Q 1981 -91 1556 -91 
Q 1019 -91 701 211 
Q 384 513 384 1019 
Q 384 1609 779 1909 
Q 1175 2209 1959 2209 
L 2766 2209 
L 2766 2266 
Q 2766 2663 2505 2880 
Q 2244 3097 1772 3097 
Q 1472 3097 1187 3025 
Q 903 2953 641 2809 
L 641 3341 
Q 956 3463 1253 3523 
Q 1550 3584 1831 3584 
Q 2591 3584 2966 3190 
Q 3341 2797 3341 1997 
z
" transform="scale(0.015625)"/>
       <path id="DejaVuSans-73" d="M 2834 3397 
L 2834 2853 
Q 2591 2978 2328 3040 
Q 2066 3103 1784 3103 
Q 1356 3103 1142 2972 
Q 928 2841 928 2578 
Q 928 2378 1081 2264 
Q 1234 2150 1697 2047 
L 1894 2003 
Q 2506 1872 2764 1633 
Q 3022 1394 3022 966 
Q 3022 478 2636 193 
Q 2250 -91 1575 -91 
Q 1294 -91 989 -36 
Q 684 19 347 128 
L 347 722 
Q 666 556 975 473 
Q 1284 391 1588 391 
Q 1994 391 2212 530 
Q 2431 669 2431 922 
Q 2431 1156 2273 1281 
Q 2116 1406 1581 1522 
L 1381 1569 
Q 847 1681 609 1914 
Q 372 2147 372 2553 
Q 372 3047 722 3315 
Q 1072 3584 1716 3584 
Q 2034 3584 2315 3537 
Q 2597 3491 2834 3397 
z
" transform="scale(0.015625)"/>
       <path id="DejaVuSans-2f" d="M 1625 4666 
L 2156 4666 
L 531 -594 
L 0 -594 
L 1625 4666 
z
" transform="scale(0.015625)"/>
       <path id="DejaVuSans-44" d="M 1259 4147 
L 1259 519 
L 2022 519 
Q 2988 519 3436 956 
Q 3884 1394 3884 2338 
Q 3884 3275 3436 3711 
Q 2988 4147 2022 4147 
L 1259 4147 
z
M 628 4666 
L 1925 4666 
Q 3281 4666 3915 4102 
Q 4550 3538 4550 2338 
Q 4550 1131 3912 565 
Q 3275 0 1925 0 
L 628 0 
L 628 4666 
z
" transform="scale(0.015625)"/>
       <path id="DejaVuSans-49" d="M 628 4666 
L 1259 4666 
L 1259 0 
L 628 0 
L 628 4666 
z
" transform="scale(0.015625)"/>
       <path id="DejaVuSans-4d" d="M 628 4666 
L 1569 4666 
L 2759 1491 
L 3956 4666 
L 4897 4666 
L 4897 0 
L 4281 0 
L 4281 4097 
L 3078 897 
L 2444 897 
L 1241 4097 
L 1241 0 
L 628 0 
L 628 4666 
z
" transform="scale(0.015625)"/>
      </defs>
      <use xlink:href="#DejaVuSans-6c"/>
      <use xlink:href="#DejaVuSans-6f" x="27.783203"/>
      <use xlink:href="#DejaVuSans-67" x="88.964844"/>
      <use xlink:href="#DejaVuSans-31" x="152.441406"/>
      <use xlink:href="#DejaVuSans-30" x="216.064453"/>
      <use xlink:href="#DejaVuSans-20" x="279.6875"/>
      <use xlink:href="#DejaVuSans-6f" x="311.474609"/>
      <use xlink:href="#DejaVuSans-66" x="372.65625"/>
      <use xlink:href="#DejaVuSans-20" x="407.861328"/>
      <use xlink:href="#DejaVuSans-46" x="439.648438"/>
      <use xlink:href="#DejaVuSans-45" x="497.167969"/>
      <use xlink:href="#DejaVuSans-76" x="560.351562"/>
      <use xlink:href="#DejaVuSans-61" x="619.53125"/>
      <use xlink:href="#DejaVuSans-6c" x="680.810547"/>
      <use xlink:href="#DejaVuSans-73" x="708.59375"/>
      <use xlink:href="#DejaVuSans-20" x="760.693359"/>
      <use xlink:href="#DejaVuSans-2f" x="792.480469"/>
      <use xlink:href="#DejaVuSans-20" x="826.171875"/>
      <use xlink:href="#DejaVuSans-44" x="857.958984"/>
      <use xlink:href="#DejaVuSans-49" x="934.960938"/>
      <use xlink:href="#DejaVuSans-4d" x="964.453125"/>
     </g>
    </g>
   </g>
   <g id="matplotlib.axis_2">
    <g id="ytick_1">
     <g id="line2d_67">
      <path d="M 62.208 293.76 
L 460.8 293.76 
" clip-path="url(#p1b9546af9b)" style="fill: none; stroke: #b0b0b0; stroke-width: 0.8; stroke-linecap: square"/>
     </g>
     <g id="line2d_68">
      <defs>
       <path id="m9a7d0739e6" d="M 0 0 
L -3.5 0 
" style="stroke: #000000; stroke-width: 0.8"/>
      </defs>
      <g>
       <use xlink:href="#m9a7d0739e6" x="62.208" y="293.76" style="stroke: #000000; stroke-width: 0.8"/>
      </g>
     </g>
     <g id="text_4">
      <!-- 0.0 -->
      <g transform="translate(29.763 299.83875) scale(0.16 -0.16)">
       <defs>
        <path id="DejaVuSans-2e" d="M 684 794 
L 1344 794 
L 1344 0 
L 684 0 
L 684 794 
z
" transform="scale(0.015625)"/>
       </defs>
       <use xlink:href="#DejaVuSans-30"/>
       <use xlink:href="#DejaVuSans-2e" x="63.623047"/>
       <use xlink:href="#DejaVuSans-30" x="95.410156"/>
      </g>
     </g>
    </g>
    <g id="ytick_2">
     <g id="line2d_69">
      <path d="M 62.208 236.274059 
L 460.8 236.274059 
" clip-path="url(#p1b9546af9b)" style="fill: none; stroke: #b0b0b0; stroke-width: 0.8; stroke-linecap: square"/>
     </g>
     <g id="line2d_70">
      <g>
       <use xlink:href="#m9a7d0739e6" x="62.208" y="236.274059" style="stroke: #000000; stroke-width: 0.8"/>
      </g>
     </g>
     <g id="text_5">
      <!-- 0.2 -->
      <g transform="translate(29.763 242.352809) scale(0.16 -0.16)">
       <use xlink:href="#DejaVuSans-30"/>
       <use xlink:href="#DejaVuSans-2e" x="63.623047"/>
       <use xlink:href="#DejaVuSans-32" x="95.410156"/>
      </g>
     </g>
    </g>
    <g id="ytick_3">
     <g id="line2d_71">
      <path d="M 62.208 178.788119 
L 460.8 178.788119 
" clip-path="url(#p1b9546af9b)" style="fill: none; stroke: #b0b0b0; stroke-width: 0.8; stroke-linecap: square"/>
     </g>
     <g id="line2d_72">
      <g>
       <use xlink:href="#m9a7d0739e6" x="62.208" y="178.788119" style="stroke: #000000; stroke-width: 0.8"/>
      </g>
     </g>
     <g id="text_6">
      <!-- 0.4 -->
      <g transform="translate(29.763 184.866869) scale(0.16 -0.16)">
       <defs>
        <path id="DejaVuSans-34" d="M 2419 4116 
L 825 1625 
L 2419 1625 
L 2419 4116 
z
M 2253 4666 
L 3047 4666 
L 3047 1625 
L 3713 1625 
L 3713 1100 
L 3047 1100 
L 3047 0 
L 2419 0 
L 2419 1100 
L 313 1100 
L 313 1709 
L 2253 4666 
z
" transform="scale(0.015625)"/>
       </defs>
       <use xlink:href="#DejaVuSans-30"/>
       <use xlink:href="#DejaVuSans-2e" x="63.623047"/>
       <use xlink:href="#DejaVuSans-34" x="95.410156"/>
      </g>
     </g>
    </g>
    <g id="ytick_4">
     <g id="line2d_73">
      <path d="M 62.208 121.302178 
L 460.8 121.302178 
" clip-path="url(#p1b9546af9b)" style="fill: none; stroke: #b0b0b0; stroke-width: 0.8; stroke-linecap: square"/>
     </g>
     <g id="line2d_74">
      <g>
       <use xlink:href="#m9a7d0739e6" x="62.208" y="121.302178" style="stroke: #000000; stroke-width: 0.8"/>
      </g>
     </g>
     <g id="text_7">
      <!-- 0.6 -->
      <g transform="translate(29.763 127.380928) scale(0.16 -0.16)">
       <defs>
        <path id="DejaVuSans-36" d="M 2113 2584 
Q 1688 2584 1439 2293 
Q 1191 2003 1191 1497 
Q 1191 994 1439 701 
Q 1688 409 2113 409 
Q 2538 409 2786 701 
Q 3034 994 3034 1497 
Q 3034 2003 2786 2293 
Q 2538 2584 2113 2584 
z
M 3366 4563 
L 3366 3988 
Q 3128 4100 2886 4159 
Q 2644 4219 2406 4219 
Q 1781 4219 1451 3797 
Q 1122 3375 1075 2522 
Q 1259 2794 1537 2939 
Q 1816 3084 2150 3084 
Q 2853 3084 3261 2657 
Q 3669 2231 3669 1497 
Q 3669 778 3244 343 
Q 2819 -91 2113 -91 
Q 1303 -91 875 529 
Q 447 1150 447 2328 
Q 447 3434 972 4092 
Q 1497 4750 2381 4750 
Q 2619 4750 2861 4703 
Q 3103 4656 3366 4563 
z
" transform="scale(0.015625)"/>
       </defs>
       <use xlink:href="#DejaVuSans-30"/>
       <use xlink:href="#DejaVuSans-2e" x="63.623047"/>
       <use xlink:href="#DejaVuSans-36" x="95.410156"/>
      </g>
     </g>
    </g>
    <g id="ytick_5">
     <g id="line2d_75">
      <path d="M 62.208 63.816238 
L 460.8 63.816238 
" clip-path="url(#p1b9546af9b)" style="fill: none; stroke: #b0b0b0; stroke-width: 0.8; stroke-linecap: square"/>
     </g>
     <g id="line2d_76">
      <g>
       <use xlink:href="#m9a7d0739e6" x="62.208" y="63.816238" style="stroke: #000000; stroke-width: 0.8"/>
      </g>
     </g>
     <g id="text_8">
      <!-- 0.8 -->
      <g transform="translate(29.763 69.894988) scale(0.16 -0.16)">
       <defs>
        <path id="DejaVuSans-38" d="M 2034 2216 
Q 1584 2216 1326 1975 
Q 1069 1734 1069 1313 
Q 1069 891 1326 650 
Q 1584 409 2034 409 
Q 2484 409 2743 651 
Q 3003 894 3003 1313 
Q 3003 1734 2745 1975 
Q 2488 2216 2034 2216 
z
M 1403 2484 
Q 997 2584 770 2862 
Q 544 3141 544 3541 
Q 544 4100 942 4425 
Q 1341 4750 2034 4750 
Q 2731 4750 3128 4425 
Q 3525 4100 3525 3541 
Q 3525 3141 3298 2862 
Q 3072 2584 2669 2484 
Q 3125 2378 3379 2068 
Q 3634 1759 3634 1313 
Q 3634 634 3220 271 
Q 2806 -91 2034 -91 
Q 1263 -91 848 271 
Q 434 634 434 1313 
Q 434 1759 690 2068 
Q 947 2378 1403 2484 
z
M 1172 3481 
Q 1172 3119 1398 2916 
Q 1625 2713 2034 2713 
Q 2441 2713 2670 2916 
Q 2900 3119 2900 3481 
Q 2900 3844 2670 4047 
Q 2441 4250 2034 4250 
Q 1625 4250 1398 4047 
Q 1172 3844 1172 3481 
z
" transform="scale(0.015625)"/>
       </defs>
       <use xlink:href="#DejaVuSans-30"/>
       <use xlink:href="#DejaVuSans-2e" x="63.623047"/>
       <use xlink:href="#DejaVuSans-38" x="95.410156"/>
      </g>
     </g>
    </g>
    <g id="ytick_6">
     <g id="line2d_77">
      <path d="M 62.208 6.330297 
L 460.8 6.330297 
" clip-path="url(#p1b9546af9b)" style="fill: none; stroke: #b0b0b0; stroke-width: 0.8; stroke-linecap: square"/>
     </g>
     <g id="line2d_78">
      <g>
       <use xlink:href="#m9a7d0739e6" x="62.208" y="6.330297" style="stroke: #000000; stroke-width: 0.8"/>
      </g>
     </g>
     <g id="text_9">
      <!-- 1.0 -->
      <g transform="translate(29.763 12.409047) scale(0.16 -0.16)">
       <use xlink:href="#DejaVuSans-31"/>
       <use xlink:href="#DejaVuSans-2e" x="63.623047"/>
       <use xlink:href="#DejaVuSans-30" x="95.410156"/>
      </g>
     </g>
    </g>
    <g id="text_10">
     <!-- proportion of trials -->
     <g transform="translate(21.603625 241.61425) rotate(-90) scale(0.2 -0.2)">
      <defs>
       <path id="DejaVuSans-70" d="M 1159 525 
L 1159 -1331 
L 581 -1331 
L 581 3500 
L 1159 3500 
L 1159 2969 
Q 1341 3281 1617 3432 
Q 1894 3584 2278 3584 
Q 2916 3584 3314 3078 
Q 3713 2572 3713 1747 
Q 3713 922 3314 415 
Q 2916 -91 2278 -91 
Q 1894 -91 1617 61 
Q 1341 213 1159 525 
z
M 3116 1747 
Q 3116 2381 2855 2742 
Q 2594 3103 2138 3103 
Q 1681 3103 1420 2742 
Q 1159 2381 1159 1747 
Q 1159 1113 1420 752 
Q 1681 391 2138 391 
Q 2594 391 2855 752 
Q 3116 1113 3116 1747 
z
" transform="scale(0.015625)"/>
       <path id="DejaVuSans-72" d="M 2631 2963 
Q 2534 3019 2420 3045 
Q 2306 3072 2169 3072 
Q 1681 3072 1420 2755 
Q 1159 2438 1159 1844 
L 1159 0 
L 581 0 
L 581 3500 
L 1159 3500 
L 1159 2956 
Q 1341 3275 1631 3429 
Q 1922 3584 2338 3584 
Q 2397 3584 2469 3576 
Q 2541 3569 2628 3553 
L 2631 2963 
z
" transform="scale(0.015625)"/>
       <path id="DejaVuSans-74" d="M 1172 4494 
L 1172 3500 
L 2356 3500 
L 2356 3053 
L 1172 3053 
L 1172 1153 
Q 1172 725 1289 603 
Q 1406 481 1766 481 
L 2356 481 
L 2356 0 
L 1766 0 
Q 1100 0 847 248 
Q 594 497 594 1153 
L 594 3053 
L 172 3053 
L 172 3500 
L 594 3500 
L 594 4494 
L 1172 4494 
z
" transform="scale(0.015625)"/>
       <path id="DejaVuSans-69" d="M 603 3500 
L 1178 3500 
L 1178 0 
L 603 0 
L 603 3500 
z
M 603 4863 
L 1178 4863 
L 1178 4134 
L 603 4134 
L 603 4863 
z
" transform="scale(0.015625)"/>
       <path id="DejaVuSans-6e" d="M 3513 2113 
L 3513 0 
L 2938 0 
L 2938 2094 
Q 2938 2591 2744 2837 
Q 2550 3084 2163 3084 
Q 1697 3084 1428 2787 
Q 1159 2491 1159 1978 
L 1159 0 
L 581 0 
L 581 3500 
L 1159 3500 
L 1159 2956 
Q 1366 3272 1645 3428 
Q 1925 3584 2291 3584 
Q 2894 3584 3203 3211 
Q 3513 2838 3513 2113 
z
" transform="scale(0.015625)"/>
      </defs>
      <use xlink:href="#DejaVuSans-70"/>
      <use xlink:href="#DejaVuSans-72" x="63.476562"/>
      <use xlink:href="#DejaVuSans-6f" x="102.339844"/>
      <use xlink:href="#DejaVuSans-70" x="163.521484"/>
      <use xlink:href="#DejaVuSans-6f" x="226.998047"/>
      <use xlink:href="#DejaVuSans-72" x="288.179688"/>
      <use xlink:href="#DejaVuSans-74" x="329.292969"/>
      <use xlink:href="#DejaVuSans-69" x="368.501953"/>
      <use xlink:href="#DejaVuSans-6f" x="396.285156"/>
      <use xlink:href="#DejaVuSans-6e" x="457.466797"/>
      <use xlink:href="#DejaVuSans-20" x="520.845703"/>
      <use xlink:href="#DejaVuSans-6f" x="552.632812"/>
      <use xlink:href="#DejaVuSans-66" x="613.814453"/>
      <use xlink:href="#DejaVuSans-20" x="649.019531"/>
      <use xlink:href="#DejaVuSans-74" x="680.806641"/>
      <use xlink:href="#DejaVuSans-72" x="720.015625"/>
      <use xlink:href="#DejaVuSans-69" x="761.128906"/>
      <use xlink:href="#DejaVuSans-61" x="788.912109"/>
      <use xlink:href="#DejaVuSans-6c" x="850.191406"/>
      <use xlink:href="#DejaVuSans-73" x="877.974609"/>
     </g>
    </g>
   </g>
   <g id="line2d_79">
    <path d="M -1 289.927604 
L 113.060726 289.927604 
L 113.060726 286.095208 
L 122.176056 286.095208 
L 122.176056 282.262812 
L 122.176056 282.262812 
L 122.176056 278.430416 
L 122.176056 278.430416 
L 122.176056 274.59802 
L 130.421875 274.59802 
L 130.421875 270.765624 
L 137.949718 270.765624 
L 137.949718 266.933228 
L 137.949718 266.933228 
L 137.949718 263.100832 
L 137.949718 263.100832 
L 137.949718 259.268436 
L 137.949718 259.268436 
L 137.949718 255.43604 
L 137.949718 255.43604 
L 137.949718 251.603644 
L 137.949718 251.603644 
L 137.949718 247.771248 
L 137.949718 247.771248 
L 137.949718 243.938851 
L 137.949718 243.938851 
L 137.949718 240.106455 
L 137.949718 240.106455 
L 137.949718 236.274059 
L 151.286159 236.274059 
L 151.286159 232.441663 
L 151.286159 232.441663 
L 151.286159 228.609267 
L 157.25512 228.609267 
L 157.25512 224.776871 
L 311.303632 224.776871 
L 311.303632 220.944475 
L 391.543755 220.944475 
L 391.543755 217.112079 
L 391.543755 217.112079 
L 391.543755 217.112079 
L 460.8 217.112079 
" clip-path="url(#p1b9546af9b)" style="fill: none; stroke: #000000; stroke-width: 1.5; stroke-linecap: square"/>
   </g>
   <g id="line2d_80">
    <path clip-path="url(#p1b9546af9b)" style="fill: none; stroke: #000000; stroke-width: 1.5; stroke-linecap: square"/>
   </g>
   <g id="line2d_81">
    <path d="M 137.949718 293.76 
L 137.949718 289.927604 
L 137.949718 289.927604 
L 137.949718 286.095208 
L 137.949718 286.095208 
L 137.949718 282.262812 
L 137.949718 282.262812 
L 137.949718 278.430416 
L 137.949718 278.430416 
L 137.949718 274.59802 
L 137.949718 274.59802 
L 137.949718 270.765624 
L 137.949718 270.765624 
L 137.949718 266.933228 
L 137.949718 266.933228 
L 137.949718 263.100832 
L 157.25512 263.100832 
L 157.25512 259.268436 
L 190.389932 259.268436 
L 190.389932 255.43604 
L 201.449515 255.43604 
L 201.449515 251.603644 
L 204.842719 251.603644 
L 204.842719 247.771248 
L 204.842719 247.771248 
L 204.842719 243.938851 
L 204.842719 243.938851 
L 204.842719 240.106455 
L 208.107847 240.106455 
L 208.107847 236.274059 
L 217.223177 236.274059 
L 217.223177 232.441663 
L 217.223177 232.441663 
L 217.223177 232.441663 
L 460.8 232.441663 
" clip-path="url(#p1b9546af9b)" style="fill: none; stroke: #00bfbf; stroke-width: 1.5; stroke-linecap: square"/>
   </g>
   <g id="line2d_82">
    <path clip-path="url(#p1b9546af9b)" style="fill: none; stroke: #00bfbf; stroke-width: 1.5; stroke-linecap: square"/>
   </g>
   <g id="line2d_83">
    <path d="M 137.949718 293.76 
L 137.949718 289.927604 
L 137.949718 289.927604 
L 137.949718 286.095208 
L 137.949718 286.095208 
L 137.949718 282.262812 
L 137.949718 282.262812 
L 137.949718 278.430416 
L 137.949718 278.430416 
L 137.949718 274.59802 
L 137.949718 274.59802 
L 137.949718 270.765624 
L 137.949718 270.765624 
L 137.949718 266.933228 
L 137.949718 266.933228 
L 137.949718 263.100832 
L 237.674498 263.100832 
L 237.674498 259.268436 
L 248.369035 259.268436 
L 248.369035 255.43604 
L 254.203759 255.43604 
L 254.203759 251.603644 
L 254.203759 251.603644 
L 254.203759 247.771248 
L 256.064382 247.771248 
L 256.064382 243.938851 
L 256.064382 243.938851 
L 256.064382 240.106455 
L 257.885831 240.106455 
L 257.885831 236.274059 
L 266.458741 236.274059 
L 266.458741 232.441663 
L 266.458741 232.441663 
L 266.458741 232.441663 
L 460.8 232.441663 
" clip-path="url(#p1b9546af9b)" style="fill: none; stroke: #bf00bf; stroke-width: 1.5; stroke-linecap: square"/>
   </g>
   <g id="line2d_84">
    <path clip-path="url(#p1b9546af9b)" style="fill: none; stroke: #bf00bf; stroke-width: 1.5; stroke-linecap: square"/>
   </g>
   <g id="line2d_85">
    <path d="M 137.949718 293.76 
L 137.949718 289.927604 
L 137.949718 289.927604 
L 137.949718 286.095208 
L 137.949718 286.095208 
L 137.949718 282.262812 
L 137.949718 282.262812 
L 137.949718 278.430416 
L 137.949718 278.430416 
L 137.949718 274.59802 
L 137.949718 274.59802 
L 137.949718 270.765624 
L 137.949718 270.765624 
L 137.949718 266.933228 
L 137.949718 266.933228 
L 137.949718 263.100832 
L 288.019799 263.100832 
L 288.019799 259.268436 
L 292.964895 259.268436 
L 292.964895 255.43604 
L 294.158233 255.43604 
L 294.158233 251.603644 
L 294.158233 251.603644 
L 294.158233 247.771248 
L 297.642554 247.771248 
L 297.642554 243.938851 
L 298.773493 243.938851 
L 298.773493 240.106455 
L 300.991964 240.106455 
L 300.991964 236.274059 
L 305.265209 236.274059 
L 305.265209 232.441663 
L 305.265209 232.441663 
L 305.265209 232.441663 
L 460.8 232.441663 
" clip-path="url(#p1b9546af9b)" style="fill: none; stroke: #ff0000; stroke-width: 3; stroke-linecap: square"/>
   </g>
   <g id="line2d_86">
    <path clip-path="url(#p1b9546af9b)" style="fill: none; stroke: #ff0000; stroke-width: 3; stroke-linecap: square"/>
   </g>
   <g id="line2d_87">
    <path d="M 460.8 293.76 
L 460.8 3.456 
" clip-path="url(#p1b9546af9b)" style="fill: none; stroke: #000000; stroke-width: 1.5; stroke-linecap: square"/>
   </g>
   <g id="patch_3">
    <path d="M 62.208 293.76 
L 62.208 3.456 
" style="fill: none; stroke: #000000; stroke-width: 0.8; stroke-linejoin: miter; stroke-linecap: square"/>
   </g>
   <g id="patch_4">
    <path d="M 460.8 293.76 
L 460.8 3.456 
" style="fill: none; stroke: #000000; stroke-width: 0.8; stroke-linejoin: miter; stroke-linecap: square"/>
   </g>
   <g id="patch_5">
    <path d="M 62.208 293.76 
L 460.8 293.76 
" style="fill: none; stroke: #000000; stroke-width: 0.8; stroke-linejoin: miter; stroke-linecap: square"/>
   </g>
   <g id="patch_6">
    <path d="M 62.208 3.456 
L 460.8 3.456 
" style="fill: none; stroke: #000000; stroke-width: 0.8; stroke-linejoin: miter; stroke-linecap: square"/>
   </g>
   <g id="text_11">
    <!-- {f1-f5}, 5-D -->
    <g transform="translate(201.379 24.458955) scale(0.2 -0.2)">
     <defs>
      <path id="DejaVuSans-7b" d="M 3272 -594 
L 3272 -1044 
L 3078 -1044 
Q 2300 -1044 2036 -812 
Q 1772 -581 1772 109 
L 1772 856 
Q 1772 1328 1603 1509 
Q 1434 1691 991 1691 
L 800 1691 
L 800 2138 
L 991 2138 
Q 1438 2138 1605 2317 
Q 1772 2497 1772 2963 
L 1772 3713 
Q 1772 4403 2036 4633 
Q 2300 4863 3078 4863 
L 3272 4863 
L 3272 4416 
L 3059 4416 
Q 2619 4416 2484 4278 
Q 2350 4141 2350 3700 
L 2350 2925 
Q 2350 2434 2208 2212 
Q 2066 1991 1722 1913 
Q 2069 1828 2209 1606 
Q 2350 1384 2350 897 
L 2350 122 
Q 2350 -319 2484 -456 
Q 2619 -594 3059 -594 
L 3272 -594 
z
" transform="scale(0.015625)"/>
      <path id="DejaVuSans-2d" d="M 313 2009 
L 1997 2009 
L 1997 1497 
L 313 1497 
L 313 2009 
z
" transform="scale(0.015625)"/>
      <path id="DejaVuSans-35" d="M 691 4666 
L 3169 4666 
L 3169 4134 
L 1269 4134 
L 1269 2991 
Q 1406 3038 1543 3061 
Q 1681 3084 1819 3084 
Q 2600 3084 3056 2656 
Q 3513 2228 3513 1497 
Q 3513 744 3044 326 
Q 2575 -91 1722 -91 
Q 1428 -91 1123 -41 
Q 819 9 494 109 
L 494 744 
Q 775 591 1075 516 
Q 1375 441 1709 441 
Q 2250 441 2565 725 
Q 2881 1009 2881 1497 
Q 2881 1984 2565 2268 
Q 2250 2553 1709 2553 
Q 1456 2553 1204 2497 
Q 953 2441 691 2322 
L 691 4666 
z
" transform="scale(0.015625)"/>
      <path id="DejaVuSans-7d" d="M 800 -594 
L 1019 -594 
Q 1456 -594 1589 -459 
Q 1722 -325 1722 122 
L 1722 897 
Q 1722 1384 1862 1606 
Q 2003 1828 2350 1913 
Q 2003 1991 1862 2212 
Q 1722 2434 1722 2925 
L 1722 3700 
Q 1722 4144 1589 4280 
Q 1456 4416 1019 4416 
L 800 4416 
L 800 4863 
L 997 4863 
Q 1775 4863 2036 4633 
Q 2297 4403 2297 3713 
L 2297 2963 
Q 2297 2497 2465 2317 
Q 2634 2138 3078 2138 
L 3272 2138 
L 3272 1691 
L 3078 1691 
Q 2634 1691 2465 1509 
Q 2297 1328 2297 856 
L 2297 109 
Q 2297 -581 2036 -812 
Q 1775 -1044 997 -1044 
L 800 -1044 
L 800 -594 
z
" transform="scale(0.015625)"/>
      <path id="DejaVuSans-2c" d="M 750 794 
L 1409 794 
L 1409 256 
L 897 -744 
L 494 -744 
L 750 256 
L 750 794 
z
" transform="scale(0.015625)"/>
     </defs>
     <use xlink:href="#DejaVuSans-7b"/>
     <use xlink:href="#DejaVuSans-66" x="63.623047"/>
     <use xlink:href="#DejaVuSans-31" x="98.828125"/>
     <use xlink:href="#DejaVuSans-2d" x="162.451172"/>
     <use xlink:href="#DejaVuSans-66" x="198.535156"/>
     <use xlink:href="#DejaVuSans-35" x="233.740234"/>
     <use xlink:href="#DejaVuSans-7d" x="297.363281"/>
     <use xlink:href="#DejaVuSans-2c" x="360.986328"/>
     <use xlink:href="#DejaVuSans-20" x="392.773438"/>
     <use xlink:href="#DejaVuSans-35" x="424.560547"/>
     <use xlink:href="#DejaVuSans-2d" x="488.183594"/>
     <use xlink:href="#DejaVuSans-44" x="524.267578"/>
    </g>
   </g>
   <g id="text_12">
    <!-- absolute targets -->
    <g transform="translate(62.208 609.932673) scale(0.14 -0.14)">
     <defs>
      <path id="DejaVuSans-62" d="M 3116 1747 
Q 3116 2381 2855 2742 
Q 2594 3103 2138 3103 
Q 1681 3103 1420 2742 
Q 1159 2381 1159 1747 
Q 1159 1113 1420 752 
Q 1681 391 2138 391 
Q 2594 391 2855 752 
Q 3116 1113 3116 1747 
z
M 1159 2969 
Q 1341 3281 1617 3432 
Q 1894 3584 2278 3584 
Q 2916 3584 3314 3078 
Q 3713 2572 3713 1747 
Q 3713 922 3314 415 
Q 2916 -91 2278 -91 
Q 1894 -91 1617 61 
Q 1341 213 1159 525 
L 1159 0 
L 581 0 
L 581 4863 
L 1159 4863 
L 1159 2969 
z
" transform="scale(0.015625)"/>
      <path id="DejaVuSans-75" d="M 544 1381 
L 544 3500 
L 1119 3500 
L 1119 1403 
Q 1119 906 1312 657 
Q 1506 409 1894 409 
Q 2359 409 2629 706 
Q 2900 1003 2900 1516 
L 2900 3500 
L 3475 3500 
L 3475 0 
L 2900 0 
L 2900 538 
Q 2691 219 2414 64 
Q 2138 -91 1772 -91 
Q 1169 -91 856 284 
Q 544 659 544 1381 
z
M 1991 3584 
L 1991 3584 
z
" transform="scale(0.015625)"/>
      <path id="DejaVuSans-65" d="M 3597 1894 
L 3597 1613 
L 953 1613 
Q 991 1019 1311 708 
Q 1631 397 2203 397 
Q 2534 397 2845 478 
Q 3156 559 3463 722 
L 3463 178 
Q 3153 47 2828 -22 
Q 2503 -91 2169 -91 
Q 1331 -91 842 396 
Q 353 884 353 1716 
Q 353 2575 817 3079 
Q 1281 3584 2069 3584 
Q 2775 3584 3186 3129 
Q 3597 2675 3597 1894 
z
M 3022 2063 
Q 3016 2534 2758 2815 
Q 2500 3097 2075 3097 
Q 1594 3097 1305 2825 
Q 1016 2553 972 2059 
L 3022 2063 
z
" transform="scale(0.015625)"/>
     </defs>
     <use xlink:href="#DejaVuSans-61"/>
     <use xlink:href="#DejaVuSans-62" x="61.279297"/>
     <use xlink:href="#DejaVuSans-73" x="124.755859"/>
     <use xlink:href="#DejaVuSans-6f" x="176.855469"/>
     <use xlink:href="#DejaVuSans-6c" x="238.037109"/>
     <use xlink:href="#DejaVuSans-75" x="265.820312"/>
     <use xlink:href="#DejaVuSans-74" x="329.199219"/>
     <use xlink:href="#DejaVuSans-65" x="368.408203"/>
     <use xlink:href="#DejaVuSans-20" x="429.931641"/>
     <use xlink:href="#DejaVuSans-74" x="461.71875"/>
     <use xlink:href="#DejaVuSans-61" x="500.927734"/>
     <use xlink:href="#DejaVuSans-72" x="562.207031"/>
     <use xlink:href="#DejaVuSans-67" x="601.570312"/>
     <use xlink:href="#DejaVuSans-65" x="665.046875"/>
     <use xlink:href="#DejaVuSans-74" x="726.570312"/>
     <use xlink:href="#DejaVuSans-73" x="765.779297"/>
    </g>
   </g>
   <g id="text_13">
    <!-- v2.6.3 -->
    <g style="fill: #808080" transform="translate(245.82275 288.777272) scale(0.1 -0.1)">
     <defs>
      <path id="DejaVuSans-33" d="M 2597 2516 
Q 3050 2419 3304 2112 
Q 3559 1806 3559 1356 
Q 3559 666 3084 287 
Q 2609 -91 1734 -91 
Q 1441 -91 1130 -33 
Q 819 25 488 141 
L 488 750 
Q 750 597 1062 519 
Q 1375 441 1716 441 
Q 2309 441 2620 675 
Q 2931 909 2931 1356 
Q 2931 1769 2642 2001 
Q 2353 2234 1838 2234 
L 1294 2234 
L 1294 2753 
L 1863 2753 
Q 2328 2753 2575 2939 
Q 2822 3125 2822 3475 
Q 2822 3834 2567 4026 
Q 2313 4219 1838 4219 
Q 1578 4219 1281 4162 
Q 984 4106 628 3988 
L 628 4550 
Q 988 4650 1302 4700 
Q 1616 4750 1894 4750 
Q 2613 4750 3031 4423 
Q 3450 4097 3450 3541 
Q 3450 3153 3228 2886 
Q 3006 2619 2597 2516 
z
" transform="scale(0.015625)"/>
     </defs>
     <use xlink:href="#DejaVuSans-76"/>
     <use xlink:href="#DejaVuSans-32" x="59.179688"/>
     <use xlink:href="#DejaVuSans-2e" x="122.802734"/>
     <use xlink:href="#DejaVuSans-36" x="154.589844"/>
     <use xlink:href="#DejaVuSans-2e" x="218.212891"/>
     <use xlink:href="#DejaVuSans-33" x="250"/>
    </g>
   </g>
   <g id="legend_1">
    <g id="patch_7">
     <path d="M 76.208 136.881 
L 205.429875 136.881 
Q 209.429875 136.881 209.429875 132.881 
L 209.429875 17.456 
Q 209.429875 13.456 205.429875 13.456 
L 76.208 13.456 
Q 72.208 13.456 72.208 17.456 
L 72.208 132.881 
Q 72.208 136.881 76.208 136.881 
z
" style="fill: #ffffff; opacity: 0.2; stroke: #cccccc; stroke-linejoin: miter"/>
    </g>
    <g id="line2d_88">
     <path d="M 80.208 29.652875 
L 80.208 29.652875 
L 100.208 29.652875 
L 100.208 29.652875 
L 120.208 29.652875 
" style="fill: none; stroke: #000000; stroke-width: 1.5; stroke-linecap: square"/>
    </g>
    <g id="text_14">
     <!-- 1: 2/5 -->
     <g transform="translate(136.208 36.652875) scale(0.2 -0.2)">
      <defs>
       <path id="DejaVuSans-3a" d="M 750 794 
L 1409 794 
L 1409 0 
L 750 0 
L 750 794 
z
M 750 3309 
L 1409 3309 
L 1409 2516 
L 750 2516 
L 750 3309 
z
" transform="scale(0.015625)"/>
      </defs>
      <use xlink:href="#DejaVuSans-31"/>
      <use xlink:href="#DejaVuSans-3a" x="63.623047"/>
      <use xlink:href="#DejaVuSans-20" x="97.314453"/>
      <use xlink:href="#DejaVuSans-32" x="129.101562"/>
      <use xlink:href="#DejaVuSans-2f" x="192.724609"/>
      <use xlink:href="#DejaVuSans-35" x="226.416016"/>
     </g>
    </g>
    <g id="line2d_89">
     <path d="M 80.208 59.009125 
L 80.208 59.009125 
L 100.208 59.009125 
L 100.208 59.009125 
L 120.208 59.009125 
" style="fill: none; stroke: #00bfbf; stroke-width: 1.5; stroke-linecap: square"/>
    </g>
    <g id="text_15">
     <!-- -1: 2/5 -->
     <g transform="translate(136.208 66.009125) scale(0.2 -0.2)">
      <use xlink:href="#DejaVuSans-2d"/>
      <use xlink:href="#DejaVuSans-31" x="36.083984"/>
      <use xlink:href="#DejaVuSans-3a" x="99.707031"/>
      <use xlink:href="#DejaVuSans-20" x="133.398438"/>
      <use xlink:href="#DejaVuSans-32" x="165.185547"/>
      <use xlink:href="#DejaVuSans-2f" x="228.808594"/>
      <use xlink:href="#DejaVuSans-35" x="262.5"/>
     </g>
    </g>
    <g id="line2d_90">
     <path d="M 80.208 88.365375 
L 80.208 88.365375 
L 100.208 88.365375 
L 100.208 88.365375 
L 120.208 88.365375 
" style="fill: none; stroke: #bf00bf; stroke-width: 1.5; stroke-linecap: square"/>
    </g>
    <g id="text_16">
     <!-- -4: 2/5 -->
     <g transform="translate(136.208 95.365375) scale(0.2 -0.2)">
      <use xlink:href="#DejaVuSans-2d"/>
      <use xlink:href="#DejaVuSans-34" x="36.083984"/>
      <use xlink:href="#DejaVuSans-3a" x="99.707031"/>
      <use xlink:href="#DejaVuSans-20" x="133.398438"/>
      <use xlink:href="#DejaVuSans-32" x="165.185547"/>
      <use xlink:href="#DejaVuSans-2f" x="228.808594"/>
      <use xlink:href="#DejaVuSans-35" x="262.5"/>
     </g>
    </g>
    <g id="line2d_91">
     <path d="M 80.208 117.721625 
L 80.208 117.721625 
L 100.208 117.721625 
L 100.208 117.721625 
L 120.208 117.721625 
" style="fill: none; stroke: #ff0000; stroke-width: 3; stroke-linecap: square"/>
    </g>
    <g id="text_17">
     <!-- -8: 2/5 -->
     <g transform="translate(136.208 124.721625) scale(0.2 -0.2)">
      <use xlink:href="#DejaVuSans-2d"/>
      <use xlink:href="#DejaVuSans-38" x="36.083984"/>
      <use xlink:href="#DejaVuSans-3a" x="99.707031"/>
      <use xlink:href="#DejaVuSans-20" x="133.398438"/>
      <use xlink:href="#DejaVuSans-32" x="165.185547"/>
      <use xlink:href="#DejaVuSans-2f" x="228.808594"/>
      <use xlink:href="#DejaVuSans-35" x="262.5"/>
     </g>
    </g>
   </g>
  </g>
 </g>
 <defs>
  <clipPath id="p1b9546af9b">
   <rect x="62.208" y="3.456" width="398.592" height="290.304"/>
  </clipPath>
 </defs>
</svg>
