<?xml version="1.0" encoding="utf-8" standalone="no"?>
<!DOCTYPE svg PUBLIC "-//W3C//DTD SVG 1.1//EN"
  "http://www.w3.org/Graphics/SVG/1.1/DTD/svg11.dtd">
<svg xmlns:xlink="http://www.w3.org/1999/xlink" width="460.8pt" height="345.6pt" viewBox="0 0 460.8 345.6" xmlns="http://www.w3.org/2000/svg" version="1.1">
 <metadata>
  <rdf:RDF xmlns:dc="http://purl.org/dc/elements/1.1/" xmlns:cc="http://creativecommons.org/ns#" xmlns:rdf="http://www.w3.org/1999/02/22-rdf-syntax-ns#">
   <cc:Work>
    <dc:type rdf:resource="http://purl.org/dc/dcmitype/StillImage"/>
    <dc:date>2024-01-19T15:06:00.048351</dc:date>
    <dc:format>image/svg+xml</dc:format>
    <dc:creator>
     <cc:Agent>
      <dc:title>Matplotlib v3.8.2, https://matplotlib.org/</dc:title>
     </cc:Agent>
    </dc:creator>
   </cc:Work>
  </rdf:RDF>
 </metadata>
 <defs>
  <style type="text/css">*{stroke-linejoin: round; stroke-linecap: butt}</style>
 </defs>
 <g id="figure_1">
  <g id="patch_1">
   <path d="M 0 345.6 
L 460.8 345.6 
L 460.8 0 
L 0 0 
z
" style="fill: #ffffff"/>
  </g>
  <g id="axes_1">
   <g id="patch_2">
    <path d="M 62.208 293.76 
L 460.8 293.76 
L 460.8 3.456 
L 62.208 3.456 
z
" style="fill: #ffffff"/>
   </g>
   <g id="line2d_1">
    <path d="M 308.165205 293.76 
L 308.165205 289.927604 
L 308.165205 289.927604 
L 308.165205 286.095208 
L 308.165205 286.095208 
L 308.165205 282.262812 
L 308.165205 282.262812 
L 308.165205 278.430416 
L 308.165205 278.430416 
L 308.165205 274.59802 
L 308.165205 274.59802 
L 308.165205 270.765624 
L 308.165205 270.765624 
L 308.165205 266.933228 
L 308.165205 266.933228 
L 308.165205 263.100832 
L 308.165205 263.100832 
L 308.165205 259.268436 
L 308.165205 259.268436 
L 308.165205 255.43604 
L 308.165205 255.43604 
L 308.165205 251.603644 
L 308.165205 251.603644 
L 308.165205 247.771248 
L 308.165205 247.771248 
L 308.165205 243.938851 
L 308.165205 243.938851 
L 308.165205 240.106455 
L 308.165205 240.106455 
L 308.165205 236.274059 
L 318.162125 236.274059 
L 318.162125 232.441663 
L 322.758449 232.441663 
L 322.758449 228.609267 
L 322.758449 228.609267 
L 322.758449 224.776871 
L 327.122924 224.776871 
L 327.122924 220.944475 
L 327.122924 220.944475 
L 327.122924 217.112079 
L 327.122924 217.112079 
L 327.122924 213.279683 
L 327.122924 213.279683 
L 327.122924 209.447287 
L 331.277822 209.447287 
L 331.277822 205.614891 
L 331.277822 205.614891 
L 331.277822 201.782495 
L 331.277822 201.782495 
L 331.277822 197.950099 
L 335.242352 197.950099 
L 335.242352 194.117703 
L 335.242352 194.117703 
L 335.242352 190.285307 
L 335.242352 190.285307 
L 335.242352 186.452911 
L 335.242352 186.452911 
L 335.242352 182.620515 
L 339.033196 182.620515 
L 339.033196 178.788119 
L 461.8 178.788119 
" clip-path="url(#pa73cc4a27d)" style="fill: none; stroke: #f5deb3; stroke-width: 1.5; stroke-linecap: square"/>
   </g>
   <g id="line2d_2">
    <path clip-path="url(#pa73cc4a27d)" style="fill: none; stroke: #f5deb3; stroke-width: 1.5; stroke-linecap: square"/>
   </g>
   <g id="line2d_3">
    <path d="M 274.699426 293.76 
L 274.699426 289.927604 
L 274.699426 289.927604 
L 274.699426 286.095208 
L 274.699426 286.095208 
L 274.699426 282.262812 
L 274.699426 282.262812 
L 274.699426 278.430416 
L 275.070064 278.430416 
L 275.070064 274.59802 
L 275.439121 274.59802 
L 275.439121 270.765624 
L 275.439121 270.765624 
L 275.439121 266.933228 
L 275.439121 266.933228 
L 275.439121 263.100832 
L 275.439121 263.100832 
L 275.439121 259.268436 
L 275.439121 259.268436 
L 275.439121 255.43604 
L 275.439121 255.43604 
L 275.439121 251.603644 
L 275.439121 251.603644 
L 275.439121 247.771248 
L 275.439121 247.771248 
L 275.439121 243.938851 
L 275.439121 243.938851 
L 275.439121 240.106455 
L 275.806611 240.106455 
L 275.806611 236.274059 
L 276.172547 236.274059 
L 276.172547 232.441663 
L 276.89981 232.441663 
L 276.89981 228.609267 
L 280.447182 228.609267 
L 280.447182 224.776871 
L 281.826395 224.776871 
L 281.826395 220.944475 
L 284.520581 220.944475 
L 284.520581 217.112079 
L 284.520581 217.112079 
L 284.520581 213.279683 
L 285.509664 213.279683 
L 285.509664 209.447287 
L 285.836862 209.447287 
L 285.836862 205.614891 
L 286.162827 205.614891 
L 286.162827 201.782495 
L 287.774489 201.782495 
L 287.774489 197.950099 
L 288.093251 197.950099 
L 288.093251 194.117703 
L 289.042552 194.117703 
L 289.042552 190.285307 
L 291.829533 190.285307 
L 291.829533 186.452911 
L 296.572844 186.452911 
L 296.572844 182.620515 
L 300.244092 182.620515 
L 300.244092 178.788119 
L 300.244092 178.788119 
L 300.244092 178.788119 
L 460.8 178.788119 
" clip-path="url(#pa73cc4a27d)" style="fill: none; stroke: #f5deb3; stroke-width: 1.5; stroke-linecap: square"/>
   </g>
   <g id="line2d_4">
    <path d="M 212.07198 293.76 
L 212.07198 289.927604 
L 213.590331 289.927604 
L 213.590331 286.095208 
L 215.819049 286.095208 
L 215.819049 282.262812 
L 218.704108 282.262812 
L 218.704108 278.430416 
L 221.496084 278.430416 
L 221.496084 274.59802 
L 231.230351 274.59802 
L 231.230351 270.765624 
L 231.230351 270.765624 
L 231.230351 266.933228 
L 231.841971 266.933228 
L 231.841971 263.100832 
L 236.006391 263.100832 
L 236.006391 259.268436 
L 236.006391 259.268436 
L 236.006391 255.43604 
L 241.082073 255.43604 
L 241.082073 251.603644 
L 246.906786 251.603644 
L 246.906786 247.771248 
L 247.92496 247.771248 
L 247.92496 243.938851 
L 249.926061 243.938851 
L 249.926061 240.106455 
L 284.520581 240.106455 
L 284.520581 236.274059 
L 441.768989 236.274059 
L 441.768989 232.441663 
L 445.667541 232.441663 
L 445.667541 228.609267 
L 446.23235 228.609267 
L 446.23235 224.776871 
L 446.895133 224.776871 
L 446.895133 220.944475 
L 447.854776 220.944475 
L 447.854776 217.112079 
L 450.086048 217.112079 
L 450.086048 213.279683 
L 450.379251 213.279683 
L 450.379251 209.447287 
L 450.525481 209.447287 
L 450.525481 205.614891 
L 450.671464 205.614891 
L 450.671464 201.782495 
L 451.20464 201.782495 
L 451.20464 197.950099 
L 451.494084 197.950099 
L 451.494084 194.117703 
L 451.590351 194.117703 
L 451.590351 190.285307 
L 453.775435 190.285307 
L 453.775435 186.452911 
L 454.149882 186.452911 
L 454.149882 182.620515 
L 454.569206 182.620515 
L 454.569206 178.788119 
L 461.8 178.788119 
" clip-path="url(#pa73cc4a27d)" style="fill: none; stroke: #f5deb3; stroke-width: 1.5; stroke-linecap: square"/>
   </g>
   <g id="line2d_5">
    <path clip-path="url(#pa73cc4a27d)" style="fill: none; stroke: #f5deb3; stroke-width: 1.5; stroke-linecap: square"/>
   </g>
   <g id="line2d_6"/>
   <g id="line2d_7">
    <path d="M 272.822048 293.76 
L 272.822048 289.927604 
L 290.601942 289.927604 
L 290.601942 286.095208 
L 292.13373 286.095208 
L 292.13373 282.262812 
L 293.339934 282.262812 
L 293.339934 278.430416 
L 293.638876 278.430416 
L 293.638876 274.59802 
L 294.529558 274.59802 
L 294.529558 270.765624 
L 295.993954 270.765624 
L 295.993954 266.933228 
L 295.993954 266.933228 
L 295.993954 263.100832 
L 296.572844 263.100832 
L 296.572844 259.268436 
L 304.295242 259.268436 
L 304.295242 255.43604 
L 306.894349 255.43604 
L 306.894349 251.603644 
L 309.168622 251.603644 
L 309.168622 247.771248 
L 311.384658 247.771248 
L 311.384658 243.938851 
L 323.606924 243.938851 
L 323.606924 240.106455 
L 323.606924 240.106455 
L 323.606924 236.274059 
L 461.8 236.274059 
" clip-path="url(#pa73cc4a27d)" style="fill: none; stroke: #f5deb3; stroke-width: 1.5; stroke-linecap: square"/>
   </g>
   <g id="line2d_8">
    <path d="M 0 0 
" clip-path="url(#pa73cc4a27d)" style="fill: none; stroke: #f5deb3; stroke-width: 1.5; stroke-linecap: square"/>
   </g>
   <g id="line2d_9">
    <path d="M 264.040499 293.76 
L 264.040499 289.927604 
L 266.932445 289.927604 
L 266.932445 286.095208 
L 272.441635 286.095208 
L 272.441635 282.262812 
L 273.953355 282.262812 
L 273.953355 278.430416 
L 274.327195 278.430416 
L 274.327195 274.59802 
L 275.439121 274.59802 
L 275.439121 270.765624 
L 277.621012 270.765624 
L 277.621012 266.933228 
L 277.979372 266.933228 
L 277.979372 263.100832 
L 280.098917 263.100832 
L 280.098917 259.268436 
L 286.811098 259.268436 
L 286.811098 255.43604 
L 288.410843 255.43604 
L 288.410843 251.603644 
L 294.529558 251.603644 
L 294.529558 247.771248 
L 296.572844 247.771248 
L 296.572844 243.938851 
L 300.244092 243.938851 
L 300.244092 240.106455 
L 303.233342 240.106455 
L 303.233342 236.274059 
L 461.8 236.274059 
" clip-path="url(#pa73cc4a27d)" style="fill: none; stroke: #f5deb3; stroke-width: 1.5; stroke-linecap: square"/>
   </g>
   <g id="line2d_10">
    <path d="M 329.718433 293.76 
L 329.718433 289.927604 
L 332.429198 289.927604 
L 332.429198 286.095208 
L 344.342192 286.095208 
L 344.342192 282.262812 
L 344.342192 282.262812 
L 344.342192 278.430416 
L 350.743909 278.430416 
L 350.743909 274.59802 
L 360.782891 274.59802 
L 360.782891 270.765624 
L 367.646662 270.765624 
L 367.646662 266.933228 
L 461.8 266.933228 
" clip-path="url(#pa73cc4a27d)" style="fill: none; stroke: #f5deb3; stroke-width: 1.5; stroke-linecap: square"/>
   </g>
   <g id="line2d_11">
    <path d="M 197.961918 293.76 
L 197.961918 289.927604 
L 211.302697 289.927604 
L 211.302697 286.095208 
L 213.590331 286.095208 
L 213.590331 282.262812 
L 215.082501 282.262812 
L 215.082501 278.430416 
L 217.2736 278.430416 
L 217.2736 274.59802 
L 219.410591 274.59802 
L 219.410591 270.765624 
L 224.86397 270.765624 
L 224.86397 266.933228 
L 230.614379 266.933228 
L 230.614379 263.100832 
L 231.230351 263.100832 
L 231.230351 259.268436 
L 234.836863 259.268436 
L 234.836863 255.43604 
L 242.170688 255.43604 
L 242.170688 251.603644 
L 249.926061 251.603644 
L 249.926061 247.771248 
L 250.419189 247.771248 
L 250.419189 243.938851 
L 265.291756 243.938851 
L 265.291756 240.106455 
L 277.979372 240.106455 
L 277.979372 236.274059 
L 426.548822 236.274059 
L 426.548822 232.441663 
L 427.761029 232.441663 
L 427.761029 228.609267 
L 429.765026 228.609267 
L 429.765026 224.776871 
L 429.950543 224.776871 
L 429.950543 220.944475 
L 432.146275 220.944475 
L 432.146275 217.112079 
L 432.626741 217.112079 
L 432.626741 213.279683 
L 434.4051 213.279683 
L 434.4051 209.447287 
L 435.222658 209.447287 
L 435.222658 205.614891 
L 435.396849 205.614891 
L 435.396849 201.782495 
L 437.119741 201.782495 
L 437.119741 197.950099 
L 437.742972 197.950099 
L 437.742972 194.117703 
L 438.193429 194.117703 
L 438.193429 190.285307 
L 439.420229 190.285307 
L 439.420229 186.452911 
L 440.902461 186.452911 
L 440.902461 182.620515 
L 442.413239 182.620515 
L 442.413239 178.788119 
L 442.413239 178.788119 
L 442.413239 178.788119 
L 460.8 178.788119 
" clip-path="url(#pa73cc4a27d)" style="fill: none; stroke: #f5deb3; stroke-width: 1.5; stroke-linecap: square"/>
   </g>
   <g id="line2d_12">
    <path d="M 128.454464 293.76 
L 128.454464 289.927604 
L 128.454464 289.927604 
L 128.454464 286.095208 
L 128.454464 286.095208 
L 128.454464 282.262812 
L 128.454464 282.262812 
L 128.454464 278.430416 
L 128.454464 278.430416 
L 128.454464 274.59802 
L 128.454464 274.59802 
L 128.454464 270.765624 
L 128.454464 270.765624 
L 128.454464 266.933228 
L 128.454464 266.933228 
L 128.454464 263.100832 
L 128.454464 263.100832 
L 128.454464 259.268436 
L 128.454464 259.268436 
L 128.454464 255.43604 
L 128.454464 255.43604 
L 128.454464 251.603644 
L 128.454464 251.603644 
L 128.454464 247.771248 
L 128.454464 247.771248 
L 128.454464 243.938851 
L 128.454464 243.938851 
L 128.454464 240.106455 
L 128.454464 240.106455 
L 128.454464 236.274059 
L 187.429808 236.274059 
L 187.429808 232.441663 
L 206.537617 232.441663 
L 206.537617 228.609267 
L 206.537617 228.609267 
L 206.537617 224.776871 
L 206.537617 224.776871 
L 206.537617 220.944475 
L 206.537617 220.944475 
L 206.537617 217.112079 
L 206.537617 217.112079 
L 206.537617 213.279683 
L 206.537617 213.279683 
L 206.537617 209.447287 
L 206.537617 209.447287 
L 206.537617 205.614891 
L 206.537617 205.614891 
L 206.537617 201.782495 
L 206.537617 201.782495 
L 206.537617 197.950099 
L 222.180228 197.950099 
L 222.180228 194.117703 
L 222.180228 194.117703 
L 222.180228 190.285307 
L 222.180228 190.285307 
L 222.180228 186.452911 
L 222.180228 186.452911 
L 222.180228 182.620515 
L 246.906786 182.620515 
L 246.906786 178.788119 
L 461.8 178.788119 
" clip-path="url(#pa73cc4a27d)" style="fill: none; stroke: #f5deb3; stroke-width: 1.5; stroke-linecap: square"/>
   </g>
   <g id="line2d_13">
    <path d="M 454.383091 293.76 
L 454.383091 289.927604 
L 454.383091 289.927604 
L 454.383091 286.095208 
L 455.769299 286.095208 
L 455.769299 282.262812 
L 455.769299 282.262812 
L 455.769299 278.430416 
L 457.852609 278.430416 
L 457.852609 274.59802 
L 458.076063 274.59802 
L 458.076063 270.765624 
L 458.076063 270.765624 
L 458.076063 266.933228 
L 458.076063 266.933228 
L 458.076063 263.100832 
L 459.272846 263.100832 
L 459.272846 259.268436 
L 461.8 259.268436 
" clip-path="url(#pa73cc4a27d)" style="fill: none; stroke: #f5deb3; stroke-width: 1.5; stroke-linecap: square"/>
   </g>
   <g id="line2d_14">
    <path d="M 242.709903 293.76 
L 242.709903 289.927604 
L 245.356707 289.927604 
L 245.356707 286.095208 
L 246.906786 286.095208 
L 246.906786 282.262812 
L 248.931294 282.262812 
L 248.931294 278.430416 
L 249.430107 278.430416 
L 249.430107 274.59802 
L 249.430107 274.59802 
L 249.430107 270.765624 
L 249.926061 270.765624 
L 249.926061 266.933228 
L 250.419189 266.933228 
L 250.419189 263.100832 
L 251.397095 263.100832 
L 251.397095 259.268436 
L 251.397095 259.268436 
L 251.397095 255.43604 
L 251.397095 255.43604 
L 251.397095 251.603644 
L 251.397095 251.603644 
L 251.397095 247.771248 
L 251.881935 247.771248 
L 251.881935 243.938851 
L 252.364074 243.938851 
L 252.364074 240.106455 
L 252.364074 240.106455 
L 252.364074 236.274059 
L 374.12367 236.274059 
L 374.12367 232.441663 
L 375.872088 232.441663 
L 375.872088 228.609267 
L 378.374185 228.609267 
L 378.374185 224.776871 
L 379.266396 224.776871 
L 379.266396 220.944475 
L 380.039607 220.944475 
L 380.039607 217.112079 
L 384.12059 217.112079 
L 384.12059 213.279683 
L 384.434723 213.279683 
L 384.434723 209.447287 
L 384.643514 209.447287 
L 384.643514 205.614891 
L 385.473677 205.614891 
L 385.473677 201.782495 
L 386.704177 201.782495 
L 386.704177 197.950099 
L 387.009088 197.950099 
L 387.009088 194.117703 
L 387.211767 194.117703 
L 387.211767 190.285307 
L 389.311718 190.285307 
L 389.311718 186.452911 
L 389.902463 186.452911 
L 389.902463 182.620515 
L 390.294064 182.620515 
L 390.294064 178.788119 
L 405.402796 178.788119 
L 405.402796 174.955723 
L 410.577067 174.955723 
L 410.577067 171.123327 
L 411.193039 171.123327 
L 411.193039 167.290931 
L 413.688576 167.290931 
L 413.688576 163.458535 
L 414.356871 163.458535 
L 414.356871 159.626139 
L 415.166729 159.626139 
L 415.166729 155.793743 
L 416.547969 155.793743 
L 416.547969 151.961347 
L 418.049386 151.961347 
L 418.049386 148.12895 
L 418.684961 148.12895 
L 418.684961 144.296554 
L 422.133375 144.296554 
L 422.133375 140.464158 
L 432.865977 140.464158 
L 432.865977 136.631762 
L 436.948987 136.631762 
L 436.948987 132.799366 
L 443.052727 132.799366 
L 443.052727 128.96697 
L 461.8 128.96697 
" clip-path="url(#pa73cc4a27d)" style="fill: none; stroke: #f5deb3; stroke-width: 1.5; stroke-linecap: square"/>
   </g>
   <g id="line2d_15"/>
   <g id="line2d_16">
    <path d="M 0 0 
" clip-path="url(#pa73cc4a27d)" style="fill: none; stroke: #f5deb3; stroke-width: 1.5; stroke-linecap: square"/>
   </g>
   <g id="line2d_17">
    <path clip-path="url(#pa73cc4a27d)" style="fill: none; stroke: #f5deb3; stroke-width: 1.5; stroke-linecap: square"/>
   </g>
   <g id="line2d_18">
    <path d="M 128.454464 293.76 
L 128.454464 289.927604 
L 128.454464 289.927604 
L 128.454464 286.095208 
L 128.454464 286.095208 
L 128.454464 282.262812 
L 128.454464 282.262812 
L 128.454464 278.430416 
L 128.454464 278.430416 
L 128.454464 274.59802 
L 128.454464 274.59802 
L 128.454464 270.765624 
L 128.454464 270.765624 
L 128.454464 266.933228 
L 128.454464 266.933228 
L 128.454464 263.100832 
L 130.444064 263.100832 
L 130.444064 259.268436 
L 130.444064 259.268436 
L 130.444064 255.43604 
L 130.444064 255.43604 
L 130.444064 251.603644 
L 130.444064 251.603644 
L 130.444064 247.771248 
L 130.444064 247.771248 
L 130.444064 243.938851 
L 130.444064 243.938851 
L 130.444064 240.106455 
L 134.291086 240.106455 
L 134.291086 236.274059 
L 136.152314 236.274059 
L 136.152314 232.441663 
L 136.152314 232.441663 
L 136.152314 228.609267 
L 141.507244 228.609267 
L 141.507244 224.776871 
L 143.221038 224.776871 
L 143.221038 220.944475 
L 146.550055 220.944475 
L 146.550055 217.112079 
L 155.831486 217.112079 
L 155.831486 213.279683 
L 157.286037 213.279683 
L 157.286037 209.447287 
L 157.286037 209.447287 
L 157.286037 205.614891 
L 161.508521 205.614891 
L 161.508521 201.782495 
L 178.875318 201.782495 
L 178.875318 197.950099 
L 179.992027 197.950099 
L 179.992027 194.117703 
L 179.992027 194.117703 
L 179.992027 190.285307 
L 186.405609 190.285307 
L 186.405609 186.452911 
L 188.442027 186.452911 
L 188.442027 182.620515 
L 191.409532 182.620515 
L 191.409532 178.788119 
L 461.8 178.788119 
" clip-path="url(#pa73cc4a27d)" style="fill: none; stroke: #f5deb3; stroke-width: 1.5; stroke-linecap: square"/>
   </g>
   <g id="line2d_19">
    <path clip-path="url(#pa73cc4a27d)" style="fill: none; stroke: #f5deb3; stroke-width: 1.5; stroke-linecap: square"/>
   </g>
   <g id="line2d_20">
    <path d="M 238.86288 293.76 
L 238.86288 289.927604 
L 249.926061 289.927604 
L 249.926061 286.095208 
L 250.909523 286.095208 
L 250.909523 282.262812 
L 257.497554 282.262812 
L 257.497554 278.430416 
L 270.12336 278.430416 
L 270.12336 274.59802 
L 275.070064 274.59802 
L 275.070064 270.765624 
L 277.261162 270.765624 
L 277.261162 266.933228 
L 278.336254 266.933228 
L 278.336254 263.100832 
L 288.093251 263.100832 
L 288.093251 259.268436 
L 292.13373 259.268436 
L 292.13373 255.43604 
L 294.824426 255.43604 
L 294.824426 251.603644 
L 298.850443 251.603644 
L 298.850443 247.771248 
L 302.697466 247.771248 
L 302.697466 243.938851 
L 308.668368 243.938851 
L 308.668368 240.106455 
L 323.395583 240.106455 
L 323.395583 236.274059 
L 440.411199 236.274059 
L 440.411199 232.441663 
L 442.413239 232.441663 
L 442.413239 228.609267 
L 446.181156 228.609267 
L 446.181156 224.776871 
L 447.047365 224.776871 
L 447.047365 220.944475 
L 452.83217 220.944475 
L 452.83217 217.112079 
L 456.408675 217.112079 
L 456.408675 213.279683 
L 456.408675 213.279683 
L 456.408675 209.447287 
L 456.862498 209.447287 
L 456.862498 205.614891 
L 456.862498 205.614891 
L 456.862498 201.782495 
L 457.08852 201.782495 
L 457.08852 197.950099 
L 457.763065 197.950099 
L 457.763065 194.117703 
L 461.8 194.117703 
" clip-path="url(#pa73cc4a27d)" style="fill: none; stroke: #f5deb3; stroke-width: 1.5; stroke-linecap: square"/>
   </g>
   <g id="line2d_21">
    <path d="M 0 0 
" clip-path="url(#pa73cc4a27d)" style="fill: none; stroke: #f5deb3; stroke-width: 1.5; stroke-linecap: square"/>
   </g>
   <g id="line2d_22">
    <path d="M 279.749245 293.76 
L 279.749245 289.927604 
L 286.162827 289.927604 
L 286.162827 286.095208 
L 294.824426 286.095208 
L 294.824426 282.262812 
L 299.967152 282.262812 
L 299.967152 278.430416 
L 306.12278 278.430416 
L 306.12278 274.59802 
L 311.869498 274.59802 
L 311.869498 270.765624 
L 312.110903 270.765624 
L 312.110903 266.933228 
L 313.307931 266.933228 
L 313.307931 263.100832 
L 315.421724 263.100832 
L 315.421724 259.268436 
L 316.115002 259.268436 
L 316.115002 255.43604 
L 322.331071 255.43604 
L 322.331071 251.603644 
L 322.758449 251.603644 
L 322.758449 247.771248 
L 324.237865 247.771248 
L 324.237865 243.938851 
L 331.663319 243.938851 
L 331.663319 240.106455 
L 360.507712 240.106455 
L 360.507712 236.274059 
L 447.603268 236.274059 
L 447.603268 232.441663 
L 461.8 232.441663 
" clip-path="url(#pa73cc4a27d)" style="fill: none; stroke: #f5deb3; stroke-width: 1.5; stroke-linecap: square"/>
   </g>
   <g id="line2d_23">
    <path d="M 367.900085 293.76 
L 367.900085 289.927604 
L 382.639364 289.927604 
L 382.639364 286.095208 
L 385.782946 286.095208 
L 385.782946 282.262812 
L 387.312928 282.262812 
L 387.312928 278.430416 
L 389.902463 278.430416 
L 389.902463 274.59802 
L 394.022091 274.59802 
L 394.022091 270.765624 
L 397.32639 270.765624 
L 397.32639 266.933228 
L 416.620059 266.933228 
L 416.620059 263.100832 
L 461.8 263.100832 
" clip-path="url(#pa73cc4a27d)" style="fill: none; stroke: #f5deb3; stroke-width: 1.5; stroke-linecap: square"/>
   </g>
   <g id="line2d_24">
    <path clip-path="url(#pa73cc4a27d)" style="fill: none; stroke: #f5deb3; stroke-width: 1.5; stroke-linecap: square"/>
   </g>
   <g id="line2d_25">
    <path d="M 377.472679 293.76 
L 377.472679 289.927604 
L 382.746011 289.927604 
L 382.746011 286.095208 
L 383.805311 286.095208 
L 383.805311 282.262812 
L 385.473677 282.262812 
L 385.473677 278.430416 
L 405.074044 278.430416 
L 405.074044 274.59802 
L 407.269259 274.59802 
L 407.269259 270.765624 
L 407.749614 270.765624 
L 407.749614 266.933228 
L 413.911915 266.933228 
L 413.911915 263.100832 
L 425.709525 263.100832 
L 425.709525 259.268436 
L 433.698135 259.268436 
L 433.698135 255.43604 
L 435.512782 255.43604 
L 435.512782 251.603644 
L 443.898094 251.603644 
L 443.898094 247.771248 
L 445.254444 247.771248 
L 445.254444 243.938851 
L 450.720071 243.938851 
L 450.720071 240.106455 
L 461.8 240.106455 
" clip-path="url(#pa73cc4a27d)" style="fill: none; stroke: #f5deb3; stroke-width: 1.5; stroke-linecap: square"/>
   </g>
   <g id="line2d_26">
    <path d="M 442.626927 293.76 
L 442.626927 289.927604 
L 444.003187 289.927604 
L 444.003187 286.095208 
L 448.903199 286.095208 
L 448.903199 282.262812 
L 450.086048 282.262812 
L 450.086048 278.430416 
L 450.281627 278.430416 
L 450.281627 274.59802 
L 450.720071 274.59802 
L 450.720071 270.765624 
L 450.76865 270.765624 
L 450.76865 266.933228 
L 452.070084 266.933228 
L 452.070084 263.100832 
L 452.070084 263.100832 
L 452.070084 259.268436 
L 453.728515 259.268436 
L 453.728515 255.43604 
L 455.401809 255.43604 
L 455.401809 251.603644 
L 456.272063 251.603644 
L 456.272063 247.771248 
L 458.254412 247.771248 
L 458.254412 243.938851 
L 458.654358 243.938851 
L 458.654358 240.106455 
L 461.8 240.106455 
" clip-path="url(#pa73cc4a27d)" style="fill: none; stroke: #f5deb3; stroke-width: 1.5; stroke-linecap: square"/>
   </g>
   <g id="line2d_27">
    <path d="M 370.639828 293.76 
L 370.639828 289.927604 
L 370.639828 289.927604 
L 370.639828 286.095208 
L 376.676084 286.095208 
L 376.676084 282.262812 
L 379.155372 282.262812 
L 379.155372 278.430416 
L 382.425676 278.430416 
L 382.425676 274.59802 
L 399.285283 274.59802 
L 399.285283 270.765624 
L 407.909142 270.765624 
L 407.909142 266.933228 
L 407.988796 266.933228 
L 407.988796 263.100832 
L 408.465185 263.100832 
L 408.465185 259.268436 
L 412.108855 259.268436 
L 412.108855 255.43604 
L 418.191028 255.43604 
L 418.191028 251.603644 
L 426.677226 251.603644 
L 426.677226 247.771248 
L 433.164096 247.771248 
L 433.164096 243.938851 
L 433.816364 243.938851 
L 433.816364 240.106455 
L 440.684467 240.106455 
L 440.684467 236.274059 
L 461.8 236.274059 
" clip-path="url(#pa73cc4a27d)" style="fill: none; stroke: #f5deb3; stroke-width: 1.5; stroke-linecap: square"/>
   </g>
   <g id="line2d_28">
    <path d="M 319.056642 293.76 
L 319.056642 289.927604 
L 319.278834 289.927604 
L 319.278834 286.095208 
L 319.500457 286.095208 
L 319.500457 282.262812 
L 319.721514 282.262812 
L 319.721514 278.430416 
L 328.13043 278.430416 
L 328.13043 274.59802 
L 328.13043 274.59802 
L 328.13043 270.765624 
L 328.13043 270.765624 
L 328.13043 266.933228 
L 328.13043 266.933228 
L 328.13043 263.100832 
L 328.330531 263.100832 
L 328.330531 259.268436 
L 336.342499 259.268436 
L 336.342499 255.43604 
L 336.342499 255.43604 
L 336.342499 251.603644 
L 336.887373 251.603644 
L 336.887373 247.771248 
L 344.673778 247.771248 
L 344.673778 243.938851 
L 350.898038 243.938851 
L 350.898038 240.106455 
L 363.620645 240.106455 
L 363.620645 236.274059 
L 461.8 236.274059 
" clip-path="url(#pa73cc4a27d)" style="fill: none; stroke: #f5deb3; stroke-width: 1.5; stroke-linecap: square"/>
   </g>
   <g id="line2d_29">
    <path d="M 122.195563 293.76 
L 122.195563 289.927604 
L 122.195563 289.927604 
L 122.195563 286.095208 
L 122.195563 286.095208 
L 122.195563 282.262812 
L 122.195563 282.262812 
L 122.195563 278.430416 
L 122.195563 278.430416 
L 122.195563 274.59802 
L 122.195563 274.59802 
L 122.195563 270.765624 
L 124.332554 270.765624 
L 124.332554 266.933228 
L 124.332554 266.933228 
L 124.332554 263.100832 
L 124.332554 263.100832 
L 124.332554 259.268436 
L 124.332554 259.268436 
L 124.332554 255.43604 
L 124.332554 255.43604 
L 124.332554 251.603644 
L 124.332554 251.603644 
L 124.332554 247.771248 
L 124.332554 247.771248 
L 124.332554 243.938851 
L 124.332554 243.938851 
L 124.332554 240.106455 
L 124.332554 240.106455 
L 124.332554 236.274059 
L 165.534538 236.274059 
L 165.534538 232.441663 
L 165.534538 232.441663 
L 165.534538 228.609267 
L 165.534538 228.609267 
L 165.534538 224.776871 
L 310.160539 224.776871 
L 310.160539 220.944475 
L 310.160539 220.944475 
L 310.160539 217.112079 
L 310.160539 217.112079 
L 310.160539 213.279683 
L 311.384658 213.279683 
L 311.384658 209.447287 
L 311.384658 209.447287 
L 311.384658 205.614891 
L 311.384658 205.614891 
L 311.384658 201.782495 
L 312.351637 201.782495 
L 312.351637 197.950099 
L 312.351637 197.950099 
L 312.351637 194.117703 
L 312.351637 194.117703 
L 312.351637 190.285307 
L 312.831105 190.285307 
L 312.831105 186.452911 
L 312.831105 186.452911 
L 312.831105 182.620515 
L 312.831105 182.620515 
L 312.831105 178.788119 
L 312.831105 178.788119 
L 312.831105 178.788119 
L 460.8 178.788119 
" clip-path="url(#pa73cc4a27d)" style="fill: none; stroke: #f5deb3; stroke-width: 1.5; stroke-linecap: square"/>
   </g>
   <g id="line2d_30">
    <path d="M 312.591703 293.76 
L 312.591703 289.927604 
L 312.591703 289.927604 
L 312.591703 286.095208 
L 313.782145 286.095208 
L 313.782145 282.262812 
L 315.884526 282.262812 
L 315.884526 278.430416 
L 316.802771 278.430416 
L 316.802771 274.59802 
L 316.802771 274.59802 
L 316.802771 270.765624 
L 318.162125 270.765624 
L 318.162125 266.933228 
L 318.610539 266.933228 
L 318.610539 263.100832 
L 318.833878 263.100832 
L 318.833878 259.268436 
L 319.056642 259.268436 
L 319.056642 255.43604 
L 319.721514 255.43604 
L 319.721514 251.603644 
L 321.036128 251.603644 
L 321.036128 247.771248 
L 322.116588 247.771248 
L 322.116588 243.938851 
L 322.331071 243.938851 
L 322.331071 240.106455 
L 324.237865 240.106455 
L 324.237865 236.274059 
L 324.655952 236.274059 
L 324.655952 232.441663 
L 325.279319 232.441663 
L 325.279319 228.609267 
L 326.716615 228.609267 
L 326.716615 224.776871 
L 327.325366 224.776871 
L 327.325366 220.944475 
L 328.13043 220.944475 
L 328.13043 217.112079 
L 329.521519 217.112079 
L 329.521519 213.279683 
L 330.110923 213.279683 
L 330.110923 209.447287 
L 332.047105 209.447287 
L 332.047105 205.614891 
L 334.128039 205.614891 
L 334.128039 201.782495 
L 334.686989 201.782495 
L 334.686989 197.950099 
L 335.057627 197.950099 
L 335.057627 194.117703 
L 336.524505 194.117703 
L 336.524505 190.285307 
L 337.608575 190.285307 
L 337.608575 186.452911 
L 337.966935 186.452911 
L 337.966935 182.620515 
L 357.13545 182.620515 
L 357.13545 178.788119 
L 363.753483 178.788119 
L 363.753483 174.955723 
L 363.753483 174.955723 
L 363.753483 171.123327 
L 363.753483 171.123327 
L 363.753483 167.290931 
L 363.753483 167.290931 
L 363.753483 163.458535 
L 363.753483 163.458535 
L 363.753483 159.626139 
L 363.753483 159.626139 
L 363.753483 155.793743 
L 363.753483 155.793743 
L 363.753483 151.961347 
L 363.753483 151.961347 
L 363.753483 148.12895 
L 363.753483 148.12895 
L 363.753483 144.296554 
L 363.753483 144.296554 
L 363.753483 140.464158 
L 363.753483 140.464158 
L 363.753483 136.631762 
L 363.753483 136.631762 
L 363.753483 132.799366 
L 363.753483 132.799366 
L 363.753483 128.96697 
L 363.753483 128.96697 
L 363.753483 125.134574 
L 363.753483 125.134574 
L 363.753483 121.302178 
L 363.753483 121.302178 
L 363.753483 121.302178 
L 460.8 121.302178 
" clip-path="url(#pa73cc4a27d)" style="fill: none; stroke: #f5deb3; stroke-width: 1.5; stroke-linecap: square"/>
   </g>
   <g id="matplotlib.axis_1">
    <g id="xtick_1">
     <g id="line2d_31">
      <path d="M 261.482369 293.76 
L 261.482369 3.456 
" clip-path="url(#pa73cc4a27d)" style="fill: none; stroke: #b0b0b0; stroke-width: 0.8; stroke-linecap: square"/>
     </g>
     <g id="line2d_32">
      <defs>
       <path id="m46dd6c8914" d="M 0 0 
L 0 3.5 
" style="stroke: #000000; stroke-width: 0.8"/>
      </defs>
      <g>
       <use xlink:href="#m46dd6c8914" x="261.482369" y="293.76" style="stroke: #000000; stroke-width: 0.8"/>
      </g>
     </g>
     <g id="text_1">
      <!-- 1 -->
      <g transform="translate(255.119869 315.956875) scale(0.2 -0.2)">
       <defs>
        <path id="DejaVuSans-31" d="M 794 531 
L 1825 531 
L 1825 4091 
L 703 3866 
L 703 4441 
L 1819 4666 
L 2450 4666 
L 2450 531 
L 3481 531 
L 3481 0 
L 794 0 
L 794 531 
z
" transform="scale(0.015625)"/>
       </defs>
       <use xlink:href="#DejaVuSans-31"/>
      </g>
     </g>
    </g>
    <g id="xtick_2">
     <g id="line2d_33">
      <path d="M 122.195563 293.76 
L 122.195563 3.456 
" clip-path="url(#pa73cc4a27d)" style="fill: none; stroke: #b0b0b0; stroke-width: 0.8; stroke-linecap: square"/>
     </g>
     <g id="line2d_34">
      <defs>
       <path id="m0b1a2cbcc9" d="M 0 0 
L 0 2 
" style="stroke: #000000; stroke-width: 0.6"/>
      </defs>
      <g>
       <use xlink:href="#m0b1a2cbcc9" x="122.195563" y="293.76" style="stroke: #000000; stroke-width: 0.6"/>
      </g>
     </g>
    </g>
    <g id="xtick_3">
     <g id="line2d_35">
      <path d="M 157.286037 293.76 
L 157.286037 3.456 
" clip-path="url(#pa73cc4a27d)" style="fill: none; stroke: #b0b0b0; stroke-width: 0.8; stroke-linecap: square"/>
     </g>
     <g id="line2d_36">
      <g>
       <use xlink:href="#m0b1a2cbcc9" x="157.286037" y="293.76" style="stroke: #000000; stroke-width: 0.6"/>
      </g>
     </g>
    </g>
    <g id="xtick_4">
     <g id="line2d_37">
      <path d="M 182.183125 293.76 
L 182.183125 3.456 
" clip-path="url(#pa73cc4a27d)" style="fill: none; stroke: #b0b0b0; stroke-width: 0.8; stroke-linecap: square"/>
     </g>
     <g id="line2d_38">
      <g>
       <use xlink:href="#m0b1a2cbcc9" x="182.183125" y="293.76" style="stroke: #000000; stroke-width: 0.6"/>
      </g>
     </g>
    </g>
    <g id="xtick_5">
     <g id="line2d_39">
      <path d="M 201.494807 293.76 
L 201.494807 3.456 
" clip-path="url(#pa73cc4a27d)" style="fill: none; stroke: #b0b0b0; stroke-width: 0.8; stroke-linecap: square"/>
     </g>
     <g id="line2d_40">
      <g>
       <use xlink:href="#m0b1a2cbcc9" x="201.494807" y="293.76" style="stroke: #000000; stroke-width: 0.6"/>
      </g>
     </g>
    </g>
    <g id="xtick_6">
     <g id="line2d_41">
      <path d="M 217.2736 293.76 
L 217.2736 3.456 
" clip-path="url(#pa73cc4a27d)" style="fill: none; stroke: #b0b0b0; stroke-width: 0.8; stroke-linecap: square"/>
     </g>
     <g id="line2d_42">
      <g>
       <use xlink:href="#m0b1a2cbcc9" x="217.2736" y="293.76" style="stroke: #000000; stroke-width: 0.6"/>
      </g>
     </g>
    </g>
    <g id="xtick_7">
     <g id="line2d_43">
      <path d="M 230.614379 293.76 
L 230.614379 3.456 
" clip-path="url(#pa73cc4a27d)" style="fill: none; stroke: #b0b0b0; stroke-width: 0.8; stroke-linecap: square"/>
     </g>
     <g id="line2d_44">
      <g>
       <use xlink:href="#m0b1a2cbcc9" x="230.614379" y="293.76" style="stroke: #000000; stroke-width: 0.6"/>
      </g>
     </g>
    </g>
    <g id="xtick_8">
     <g id="line2d_45">
      <path d="M 242.170688 293.76 
L 242.170688 3.456 
" clip-path="url(#pa73cc4a27d)" style="fill: none; stroke: #b0b0b0; stroke-width: 0.8; stroke-linecap: square"/>
     </g>
     <g id="line2d_46">
      <g>
       <use xlink:href="#m0b1a2cbcc9" x="242.170688" y="293.76" style="stroke: #000000; stroke-width: 0.6"/>
      </g>
     </g>
    </g>
    <g id="xtick_9">
     <g id="line2d_47">
      <path d="M 252.364074 293.76 
L 252.364074 3.456 
" clip-path="url(#pa73cc4a27d)" style="fill: none; stroke: #b0b0b0; stroke-width: 0.8; stroke-linecap: square"/>
     </g>
     <g id="line2d_48">
      <g>
       <use xlink:href="#m0b1a2cbcc9" x="252.364074" y="293.76" style="stroke: #000000; stroke-width: 0.6"/>
      </g>
     </g>
    </g>
    <g id="xtick_10">
     <g id="line2d_49">
      <path d="M 321.469932 293.76 
L 321.469932 3.456 
" clip-path="url(#pa73cc4a27d)" style="fill: none; stroke: #b0b0b0; stroke-width: 0.8; stroke-linecap: square"/>
     </g>
     <g id="line2d_50">
      <g>
       <use xlink:href="#m0b1a2cbcc9" x="321.469932" y="293.76" style="stroke: #000000; stroke-width: 0.6"/>
      </g>
     </g>
    </g>
    <g id="xtick_11">
     <g id="line2d_51">
      <path d="M 356.560407 293.76 
L 356.560407 3.456 
" clip-path="url(#pa73cc4a27d)" style="fill: none; stroke: #b0b0b0; stroke-width: 0.8; stroke-linecap: square"/>
     </g>
     <g id="line2d_52">
      <g>
       <use xlink:href="#m0b1a2cbcc9" x="356.560407" y="293.76" style="stroke: #000000; stroke-width: 0.6"/>
      </g>
     </g>
    </g>
    <g id="xtick_12">
     <g id="line2d_53">
      <path d="M 381.457495 293.76 
L 381.457495 3.456 
" clip-path="url(#pa73cc4a27d)" style="fill: none; stroke: #b0b0b0; stroke-width: 0.8; stroke-linecap: square"/>
     </g>
     <g id="line2d_54">
      <g>
       <use xlink:href="#m0b1a2cbcc9" x="381.457495" y="293.76" style="stroke: #000000; stroke-width: 0.6"/>
      </g>
     </g>
    </g>
    <g id="xtick_13">
     <g id="line2d_55">
      <path d="M 400.769176 293.76 
L 400.769176 3.456 
" clip-path="url(#pa73cc4a27d)" style="fill: none; stroke: #b0b0b0; stroke-width: 0.8; stroke-linecap: square"/>
     </g>
     <g id="line2d_56">
      <g>
       <use xlink:href="#m0b1a2cbcc9" x="400.769176" y="293.76" style="stroke: #000000; stroke-width: 0.6"/>
      </g>
     </g>
    </g>
    <g id="xtick_14">
     <g id="line2d_57">
      <path d="M 416.547969 293.76 
L 416.547969 3.456 
" clip-path="url(#pa73cc4a27d)" style="fill: none; stroke: #b0b0b0; stroke-width: 0.8; stroke-linecap: square"/>
     </g>
     <g id="line2d_58">
      <g>
       <use xlink:href="#m0b1a2cbcc9" x="416.547969" y="293.76" style="stroke: #000000; stroke-width: 0.6"/>
      </g>
     </g>
    </g>
    <g id="xtick_15">
     <g id="line2d_59">
      <path d="M 429.888749 293.76 
L 429.888749 3.456 
" clip-path="url(#pa73cc4a27d)" style="fill: none; stroke: #b0b0b0; stroke-width: 0.8; stroke-linecap: square"/>
     </g>
     <g id="line2d_60">
      <g>
       <use xlink:href="#m0b1a2cbcc9" x="429.888749" y="293.76" style="stroke: #000000; stroke-width: 0.6"/>
      </g>
     </g>
    </g>
    <g id="xtick_16">
     <g id="line2d_61">
      <path d="M 441.445057 293.76 
L 441.445057 3.456 
" clip-path="url(#pa73cc4a27d)" style="fill: none; stroke: #b0b0b0; stroke-width: 0.8; stroke-linecap: square"/>
     </g>
     <g id="line2d_62">
      <g>
       <use xlink:href="#m0b1a2cbcc9" x="441.445057" y="293.76" style="stroke: #000000; stroke-width: 0.6"/>
      </g>
     </g>
    </g>
    <g id="xtick_17">
     <g id="line2d_63">
      <path d="M 451.638444 293.76 
L 451.638444 3.456 
" clip-path="url(#pa73cc4a27d)" style="fill: none; stroke: #b0b0b0; stroke-width: 0.8; stroke-linecap: square"/>
     </g>
     <g id="line2d_64">
      <g>
       <use xlink:href="#m0b1a2cbcc9" x="451.638444" y="293.76" style="stroke: #000000; stroke-width: 0.6"/>
      </g>
     </g>
    </g>
    <g id="text_2">
     <!-- log10 of FEvals / DIM -->
     <g transform="translate(156.430563 339.313125) scale(0.2 -0.2)">
      <defs>
       <path id="DejaVuSans-6c" d="M 603 4863 
L 1178 4863 
L 1178 0 
L 603 0 
L 603 4863 
z
" transform="scale(0.015625)"/>
       <path id="DejaVuSans-6f" d="M 1959 3097 
Q 1497 3097 1228 2736 
Q 959 2375 959 1747 
Q 959 1119 1226 758 
Q 1494 397 1959 397 
Q 2419 397 2687 759 
Q 2956 1122 2956 1747 
Q 2956 2369 2687 2733 
Q 2419 3097 1959 3097 
z
M 1959 3584 
Q 2709 3584 3137 3096 
Q 3566 2609 3566 1747 
Q 3566 888 3137 398 
Q 2709 -91 1959 -91 
Q 1206 -91 779 398 
Q 353 888 353 1747 
Q 353 2609 779 3096 
Q 1206 3584 1959 3584 
z
" transform="scale(0.015625)"/>
       <path id="DejaVuSans-67" d="M 2906 1791 
Q 2906 2416 2648 2759 
Q 2391 3103 1925 3103 
Q 1463 3103 1205 2759 
Q 947 2416 947 1791 
Q 947 1169 1205 825 
Q 1463 481 1925 481 
Q 2391 481 2648 825 
Q 2906 1169 2906 1791 
z
M 3481 434 
Q 3481 -459 3084 -895 
Q 2688 -1331 1869 -1331 
Q 1566 -1331 1297 -1286 
Q 1028 -1241 775 -1147 
L 775 -588 
Q 1028 -725 1275 -790 
Q 1522 -856 1778 -856 
Q 2344 -856 2625 -561 
Q 2906 -266 2906 331 
L 2906 616 
Q 2728 306 2450 153 
Q 2172 0 1784 0 
Q 1141 0 747 490 
Q 353 981 353 1791 
Q 353 2603 747 3093 
Q 1141 3584 1784 3584 
Q 2172 3584 2450 3431 
Q 2728 3278 2906 2969 
L 2906 3500 
L 3481 3500 
L 3481 434 
z
" transform="scale(0.015625)"/>
       <path id="DejaVuSans-30" d="M 2034 4250 
Q 1547 4250 1301 3770 
Q 1056 3291 1056 2328 
Q 1056 1369 1301 889 
Q 1547 409 2034 409 
Q 2525 409 2770 889 
Q 3016 1369 3016 2328 
Q 3016 3291 2770 3770 
Q 2525 4250 2034 4250 
z
M 2034 4750 
Q 2819 4750 3233 4129 
Q 3647 3509 3647 2328 
Q 3647 1150 3233 529 
Q 2819 -91 2034 -91 
Q 1250 -91 836 529 
Q 422 1150 422 2328 
Q 422 3509 836 4129 
Q 1250 4750 2034 4750 
z
" transform="scale(0.015625)"/>
       <path id="DejaVuSans-20" transform="scale(0.015625)"/>
       <path id="DejaVuSans-66" d="M 2375 4863 
L 2375 4384 
L 1825 4384 
Q 1516 4384 1395 4259 
Q 1275 4134 1275 3809 
L 1275 3500 
L 2222 3500 
L 2222 3053 
L 1275 3053 
L 1275 0 
L 697 0 
L 697 3053 
L 147 3053 
L 147 3500 
L 697 3500 
L 697 3744 
Q 697 4328 969 4595 
Q 1241 4863 1831 4863 
L 2375 4863 
z
" transform="scale(0.015625)"/>
       <path id="DejaVuSans-46" d="M 628 4666 
L 3309 4666 
L 3309 4134 
L 1259 4134 
L 1259 2759 
L 3109 2759 
L 3109 2228 
L 1259 2228 
L 1259 0 
L 628 0 
L 628 4666 
z
" transform="scale(0.015625)"/>
       <path id="DejaVuSans-45" d="M 628 4666 
L 3578 4666 
L 3578 4134 
L 1259 4134 
L 1259 2753 
L 3481 2753 
L 3481 2222 
L 1259 2222 
L 1259 531 
L 3634 531 
L 3634 0 
L 628 0 
L 628 4666 
z
" transform="scale(0.015625)"/>
       <path id="DejaVuSans-76" d="M 191 3500 
L 800 3500 
L 1894 563 
L 2988 3500 
L 3597 3500 
L 2284 0 
L 1503 0 
L 191 3500 
z
" transform="scale(0.015625)"/>
       <path id="DejaVuSans-61" d="M 2194 1759 
Q 1497 1759 1228 1600 
Q 959 1441 959 1056 
Q 959 750 1161 570 
Q 1363 391 1709 391 
Q 2188 391 2477 730 
Q 2766 1069 2766 1631 
L 2766 1759 
L 2194 1759 
z
M 3341 1997 
L 3341 0 
L 2766 0 
L 2766 531 
Q 2569 213 2275 61 
Q 1981 -91 1556 -91 
Q 1019 -91 701 211 
Q 384 513 384 1019 
Q 384 1609 779 1909 
Q 1175 2209 1959 2209 
L 2766 2209 
L 2766 2266 
Q 2766 2663 2505 2880 
Q 2244 3097 1772 3097 
Q 1472 3097 1187 3025 
Q 903 2953 641 2809 
L 641 3341 
Q 956 3463 1253 3523 
Q 1550 3584 1831 3584 
Q 2591 3584 2966 3190 
Q 3341 2797 3341 1997 
z
" transform="scale(0.015625)"/>
       <path id="DejaVuSans-73" d="M 2834 3397 
L 2834 2853 
Q 2591 2978 2328 3040 
Q 2066 3103 1784 3103 
Q 1356 3103 1142 2972 
Q 928 2841 928 2578 
Q 928 2378 1081 2264 
Q 1234 2150 1697 2047 
L 1894 2003 
Q 2506 1872 2764 1633 
Q 3022 1394 3022 966 
Q 3022 478 2636 193 
Q 2250 -91 1575 -91 
Q 1294 -91 989 -36 
Q 684 19 347 128 
L 347 722 
Q 666 556 975 473 
Q 1284 391 1588 391 
Q 1994 391 2212 530 
Q 2431 669 2431 922 
Q 2431 1156 2273 1281 
Q 2116 1406 1581 1522 
L 1381 1569 
Q 847 1681 609 1914 
Q 372 2147 372 2553 
Q 372 3047 722 3315 
Q 1072 3584 1716 3584 
Q 2034 3584 2315 3537 
Q 2597 3491 2834 3397 
z
" transform="scale(0.015625)"/>
       <path id="DejaVuSans-2f" d="M 1625 4666 
L 2156 4666 
L 531 -594 
L 0 -594 
L 1625 4666 
z
" transform="scale(0.015625)"/>
       <path id="DejaVuSans-44" d="M 1259 4147 
L 1259 519 
L 2022 519 
Q 2988 519 3436 956 
Q 3884 1394 3884 2338 
Q 3884 3275 3436 3711 
Q 2988 4147 2022 4147 
L 1259 4147 
z
M 628 4666 
L 1925 4666 
Q 3281 4666 3915 4102 
Q 4550 3538 4550 2338 
Q 4550 1131 3912 565 
Q 3275 0 1925 0 
L 628 0 
L 628 4666 
z
" transform="scale(0.015625)"/>
       <path id="DejaVuSans-49" d="M 628 4666 
L 1259 4666 
L 1259 0 
L 628 0 
L 628 4666 
z
" transform="scale(0.015625)"/>
       <path id="DejaVuSans-4d" d="M 628 4666 
L 1569 4666 
L 2759 1491 
L 3956 4666 
L 4897 4666 
L 4897 0 
L 4281 0 
L 4281 4097 
L 3078 897 
L 2444 897 
L 1241 4097 
L 1241 0 
L 628 0 
L 628 4666 
z
" transform="scale(0.015625)"/>
      </defs>
      <use xlink:href="#DejaVuSans-6c"/>
      <use xlink:href="#DejaVuSans-6f" x="27.783203"/>
      <use xlink:href="#DejaVuSans-67" x="88.964844"/>
      <use xlink:href="#DejaVuSans-31" x="152.441406"/>
      <use xlink:href="#DejaVuSans-30" x="216.064453"/>
      <use xlink:href="#DejaVuSans-20" x="279.6875"/>
      <use xlink:href="#DejaVuSans-6f" x="311.474609"/>
      <use xlink:href="#DejaVuSans-66" x="372.65625"/>
      <use xlink:href="#DejaVuSans-20" x="407.861328"/>
      <use xlink:href="#DejaVuSans-46" x="439.648438"/>
      <use xlink:href="#DejaVuSans-45" x="497.167969"/>
      <use xlink:href="#DejaVuSans-76" x="560.351562"/>
      <use xlink:href="#DejaVuSans-61" x="619.53125"/>
      <use xlink:href="#DejaVuSans-6c" x="680.810547"/>
      <use xlink:href="#DejaVuSans-73" x="708.59375"/>
      <use xlink:href="#DejaVuSans-20" x="760.693359"/>
      <use xlink:href="#DejaVuSans-2f" x="792.480469"/>
      <use xlink:href="#DejaVuSans-20" x="826.171875"/>
      <use xlink:href="#DejaVuSans-44" x="857.958984"/>
      <use xlink:href="#DejaVuSans-49" x="934.960938"/>
      <use xlink:href="#DejaVuSans-4d" x="964.453125"/>
     </g>
    </g>
   </g>
   <g id="matplotlib.axis_2">
    <g id="ytick_1">
     <g id="line2d_65">
      <path d="M 62.208 293.76 
L 460.8 293.76 
" clip-path="url(#pa73cc4a27d)" style="fill: none; stroke: #b0b0b0; stroke-width: 0.8; stroke-linecap: square"/>
     </g>
     <g id="line2d_66">
      <defs>
       <path id="m79ba426b5a" d="M 0 0 
L -3.5 0 
" style="stroke: #000000; stroke-width: 0.8"/>
      </defs>
      <g>
       <use xlink:href="#m79ba426b5a" x="62.208" y="293.76" style="stroke: #000000; stroke-width: 0.8"/>
      </g>
     </g>
     <g id="text_3">
      <!-- 0.0 -->
      <g transform="translate(29.763 299.83875) scale(0.16 -0.16)">
       <defs>
        <path id="DejaVuSans-2e" d="M 684 794 
L 1344 794 
L 1344 0 
L 684 0 
L 684 794 
z
" transform="scale(0.015625)"/>
       </defs>
       <use xlink:href="#DejaVuSans-30"/>
       <use xlink:href="#DejaVuSans-2e" x="63.623047"/>
       <use xlink:href="#DejaVuSans-30" x="95.410156"/>
      </g>
     </g>
    </g>
    <g id="ytick_2">
     <g id="line2d_67">
      <path d="M 62.208 236.274059 
L 460.8 236.274059 
" clip-path="url(#pa73cc4a27d)" style="fill: none; stroke: #b0b0b0; stroke-width: 0.8; stroke-linecap: square"/>
     </g>
     <g id="line2d_68">
      <g>
       <use xlink:href="#m79ba426b5a" x="62.208" y="236.274059" style="stroke: #000000; stroke-width: 0.8"/>
      </g>
     </g>
     <g id="text_4">
      <!-- 0.2 -->
      <g transform="translate(29.763 242.352809) scale(0.16 -0.16)">
       <defs>
        <path id="DejaVuSans-32" d="M 1228 531 
L 3431 531 
L 3431 0 
L 469 0 
L 469 531 
Q 828 903 1448 1529 
Q 2069 2156 2228 2338 
Q 2531 2678 2651 2914 
Q 2772 3150 2772 3378 
Q 2772 3750 2511 3984 
Q 2250 4219 1831 4219 
Q 1534 4219 1204 4116 
Q 875 4013 500 3803 
L 500 4441 
Q 881 4594 1212 4672 
Q 1544 4750 1819 4750 
Q 2544 4750 2975 4387 
Q 3406 4025 3406 3419 
Q 3406 3131 3298 2873 
Q 3191 2616 2906 2266 
Q 2828 2175 2409 1742 
Q 1991 1309 1228 531 
z
" transform="scale(0.015625)"/>
       </defs>
       <use xlink:href="#DejaVuSans-30"/>
       <use xlink:href="#DejaVuSans-2e" x="63.623047"/>
       <use xlink:href="#DejaVuSans-32" x="95.410156"/>
      </g>
     </g>
    </g>
    <g id="ytick_3">
     <g id="line2d_69">
      <path d="M 62.208 178.788119 
L 460.8 178.788119 
" clip-path="url(#pa73cc4a27d)" style="fill: none; stroke: #b0b0b0; stroke-width: 0.8; stroke-linecap: square"/>
     </g>
     <g id="line2d_70">
      <g>
       <use xlink:href="#m79ba426b5a" x="62.208" y="178.788119" style="stroke: #000000; stroke-width: 0.8"/>
      </g>
     </g>
     <g id="text_5">
      <!-- 0.4 -->
      <g transform="translate(29.763 184.866869) scale(0.16 -0.16)">
       <defs>
        <path id="DejaVuSans-34" d="M 2419 4116 
L 825 1625 
L 2419 1625 
L 2419 4116 
z
M 2253 4666 
L 3047 4666 
L 3047 1625 
L 3713 1625 
L 3713 1100 
L 3047 1100 
L 3047 0 
L 2419 0 
L 2419 1100 
L 313 1100 
L 313 1709 
L 2253 4666 
z
" transform="scale(0.015625)"/>
       </defs>
       <use xlink:href="#DejaVuSans-30"/>
       <use xlink:href="#DejaVuSans-2e" x="63.623047"/>
       <use xlink:href="#DejaVuSans-34" x="95.410156"/>
      </g>
     </g>
    </g>
    <g id="ytick_4">
     <g id="line2d_71">
      <path d="M 62.208 121.302178 
L 460.8 121.302178 
" clip-path="url(#pa73cc4a27d)" style="fill: none; stroke: #b0b0b0; stroke-width: 0.8; stroke-linecap: square"/>
     </g>
     <g id="line2d_72">
      <g>
       <use xlink:href="#m79ba426b5a" x="62.208" y="121.302178" style="stroke: #000000; stroke-width: 0.8"/>
      </g>
     </g>
     <g id="text_6">
      <!-- 0.6 -->
      <g transform="translate(29.763 127.380928) scale(0.16 -0.16)">
       <defs>
        <path id="DejaVuSans-36" d="M 2113 2584 
Q 1688 2584 1439 2293 
Q 1191 2003 1191 1497 
Q 1191 994 1439 701 
Q 1688 409 2113 409 
Q 2538 409 2786 701 
Q 3034 994 3034 1497 
Q 3034 2003 2786 2293 
Q 2538 2584 2113 2584 
z
M 3366 4563 
L 3366 3988 
Q 3128 4100 2886 4159 
Q 2644 4219 2406 4219 
Q 1781 4219 1451 3797 
Q 1122 3375 1075 2522 
Q 1259 2794 1537 2939 
Q 1816 3084 2150 3084 
Q 2853 3084 3261 2657 
Q 3669 2231 3669 1497 
Q 3669 778 3244 343 
Q 2819 -91 2113 -91 
Q 1303 -91 875 529 
Q 447 1150 447 2328 
Q 447 3434 972 4092 
Q 1497 4750 2381 4750 
Q 2619 4750 2861 4703 
Q 3103 4656 3366 4563 
z
" transform="scale(0.015625)"/>
       </defs>
       <use xlink:href="#DejaVuSans-30"/>
       <use xlink:href="#DejaVuSans-2e" x="63.623047"/>
       <use xlink:href="#DejaVuSans-36" x="95.410156"/>
      </g>
     </g>
    </g>
    <g id="ytick_5">
     <g id="line2d_73">
      <path d="M 62.208 63.816238 
L 460.8 63.816238 
" clip-path="url(#pa73cc4a27d)" style="fill: none; stroke: #b0b0b0; stroke-width: 0.8; stroke-linecap: square"/>
     </g>
     <g id="line2d_74">
      <g>
       <use xlink:href="#m79ba426b5a" x="62.208" y="63.816238" style="stroke: #000000; stroke-width: 0.8"/>
      </g>
     </g>
     <g id="text_7">
      <!-- 0.8 -->
      <g transform="translate(29.763 69.894988) scale(0.16 -0.16)">
       <defs>
        <path id="DejaVuSans-38" d="M 2034 2216 
Q 1584 2216 1326 1975 
Q 1069 1734 1069 1313 
Q 1069 891 1326 650 
Q 1584 409 2034 409 
Q 2484 409 2743 651 
Q 3003 894 3003 1313 
Q 3003 1734 2745 1975 
Q 2488 2216 2034 2216 
z
M 1403 2484 
Q 997 2584 770 2862 
Q 544 3141 544 3541 
Q 544 4100 942 4425 
Q 1341 4750 2034 4750 
Q 2731 4750 3128 4425 
Q 3525 4100 3525 3541 
Q 3525 3141 3298 2862 
Q 3072 2584 2669 2484 
Q 3125 2378 3379 2068 
Q 3634 1759 3634 1313 
Q 3634 634 3220 271 
Q 2806 -91 2034 -91 
Q 1263 -91 848 271 
Q 434 634 434 1313 
Q 434 1759 690 2068 
Q 947 2378 1403 2484 
z
M 1172 3481 
Q 1172 3119 1398 2916 
Q 1625 2713 2034 2713 
Q 2441 2713 2670 2916 
Q 2900 3119 2900 3481 
Q 2900 3844 2670 4047 
Q 2441 4250 2034 4250 
Q 1625 4250 1398 4047 
Q 1172 3844 1172 3481 
z
" transform="scale(0.015625)"/>
       </defs>
       <use xlink:href="#DejaVuSans-30"/>
       <use xlink:href="#DejaVuSans-2e" x="63.623047"/>
       <use xlink:href="#DejaVuSans-38" x="95.410156"/>
      </g>
     </g>
    </g>
    <g id="ytick_6">
     <g id="line2d_75">
      <path d="M 62.208 6.330297 
L 460.8 6.330297 
" clip-path="url(#pa73cc4a27d)" style="fill: none; stroke: #b0b0b0; stroke-width: 0.8; stroke-linecap: square"/>
     </g>
     <g id="line2d_76">
      <g>
       <use xlink:href="#m79ba426b5a" x="62.208" y="6.330297" style="stroke: #000000; stroke-width: 0.8"/>
      </g>
     </g>
     <g id="text_8">
      <!-- 1.0 -->
      <g transform="translate(29.763 12.409047) scale(0.16 -0.16)">
       <use xlink:href="#DejaVuSans-31"/>
       <use xlink:href="#DejaVuSans-2e" x="63.623047"/>
       <use xlink:href="#DejaVuSans-30" x="95.410156"/>
      </g>
     </g>
    </g>
    <g id="text_9">
     <!-- proportion of trials -->
     <g transform="translate(21.603625 241.61425) rotate(-90) scale(0.2 -0.2)">
      <defs>
       <path id="DejaVuSans-70" d="M 1159 525 
L 1159 -1331 
L 581 -1331 
L 581 3500 
L 1159 3500 
L 1159 2969 
Q 1341 3281 1617 3432 
Q 1894 3584 2278 3584 
Q 2916 3584 3314 3078 
Q 3713 2572 3713 1747 
Q 3713 922 3314 415 
Q 2916 -91 2278 -91 
Q 1894 -91 1617 61 
Q 1341 213 1159 525 
z
M 3116 1747 
Q 3116 2381 2855 2742 
Q 2594 3103 2138 3103 
Q 1681 3103 1420 2742 
Q 1159 2381 1159 1747 
Q 1159 1113 1420 752 
Q 1681 391 2138 391 
Q 2594 391 2855 752 
Q 3116 1113 3116 1747 
z
" transform="scale(0.015625)"/>
       <path id="DejaVuSans-72" d="M 2631 2963 
Q 2534 3019 2420 3045 
Q 2306 3072 2169 3072 
Q 1681 3072 1420 2755 
Q 1159 2438 1159 1844 
L 1159 0 
L 581 0 
L 581 3500 
L 1159 3500 
L 1159 2956 
Q 1341 3275 1631 3429 
Q 1922 3584 2338 3584 
Q 2397 3584 2469 3576 
Q 2541 3569 2628 3553 
L 2631 2963 
z
" transform="scale(0.015625)"/>
       <path id="DejaVuSans-74" d="M 1172 4494 
L 1172 3500 
L 2356 3500 
L 2356 3053 
L 1172 3053 
L 1172 1153 
Q 1172 725 1289 603 
Q 1406 481 1766 481 
L 2356 481 
L 2356 0 
L 1766 0 
Q 1100 0 847 248 
Q 594 497 594 1153 
L 594 3053 
L 172 3053 
L 172 3500 
L 594 3500 
L 594 4494 
L 1172 4494 
z
" transform="scale(0.015625)"/>
       <path id="DejaVuSans-69" d="M 603 3500 
L 1178 3500 
L 1178 0 
L 603 0 
L 603 3500 
z
M 603 4863 
L 1178 4863 
L 1178 4134 
L 603 4134 
L 603 4863 
z
" transform="scale(0.015625)"/>
       <path id="DejaVuSans-6e" d="M 3513 2113 
L 3513 0 
L 2938 0 
L 2938 2094 
Q 2938 2591 2744 2837 
Q 2550 3084 2163 3084 
Q 1697 3084 1428 2787 
Q 1159 2491 1159 1978 
L 1159 0 
L 581 0 
L 581 3500 
L 1159 3500 
L 1159 2956 
Q 1366 3272 1645 3428 
Q 1925 3584 2291 3584 
Q 2894 3584 3203 3211 
Q 3513 2838 3513 2113 
z
" transform="scale(0.015625)"/>
      </defs>
      <use xlink:href="#DejaVuSans-70"/>
      <use xlink:href="#DejaVuSans-72" x="63.476562"/>
      <use xlink:href="#DejaVuSans-6f" x="102.339844"/>
      <use xlink:href="#DejaVuSans-70" x="163.521484"/>
      <use xlink:href="#DejaVuSans-6f" x="226.998047"/>
      <use xlink:href="#DejaVuSans-72" x="288.179688"/>
      <use xlink:href="#DejaVuSans-74" x="329.292969"/>
      <use xlink:href="#DejaVuSans-69" x="368.501953"/>
      <use xlink:href="#DejaVuSans-6f" x="396.285156"/>
      <use xlink:href="#DejaVuSans-6e" x="457.466797"/>
      <use xlink:href="#DejaVuSans-20" x="520.845703"/>
      <use xlink:href="#DejaVuSans-6f" x="552.632812"/>
      <use xlink:href="#DejaVuSans-66" x="613.814453"/>
      <use xlink:href="#DejaVuSans-20" x="649.019531"/>
      <use xlink:href="#DejaVuSans-74" x="680.806641"/>
      <use xlink:href="#DejaVuSans-72" x="720.015625"/>
      <use xlink:href="#DejaVuSans-69" x="761.128906"/>
      <use xlink:href="#DejaVuSans-61" x="788.912109"/>
      <use xlink:href="#DejaVuSans-6c" x="850.191406"/>
      <use xlink:href="#DejaVuSans-73" x="877.974609"/>
     </g>
    </g>
   </g>
   <g id="line2d_77">
    <path d="M 88.18018 293.76 
L 88.18018 289.927604 
L 88.18018 289.927604 
L 88.18018 286.095208 
L 88.18018 286.095208 
L 88.18018 282.262812 
L 88.18018 282.262812 
L 88.18018 278.430416 
L 88.18018 278.430416 
L 88.18018 274.59802 
L 88.18018 274.59802 
L 88.18018 270.765624 
L 88.18018 270.765624 
L 88.18018 266.933228 
L 88.18018 266.933228 
L 88.18018 263.100832 
L 88.18018 263.100832 
L 88.18018 259.268436 
L 88.18018 259.268436 
L 88.18018 255.43604 
L 88.18018 255.43604 
L 88.18018 251.603644 
L 88.18018 251.603644 
L 88.18018 247.771248 
L 88.18018 247.771248 
L 88.18018 243.938851 
L 97.298475 243.938851 
L 97.298475 240.106455 
L 102.883881 240.106455 
L 102.883881 236.274059 
L 136.152314 236.274059 
L 136.152314 232.441663 
L 141.507244 232.441663 
L 141.507244 228.609267 
L 141.507244 228.609267 
L 141.507244 224.776871 
L 141.507244 224.776871 
L 141.507244 224.776871 
L 460.8 224.776871 
" clip-path="url(#pa73cc4a27d)" style="fill: none; stroke: #000000; stroke-width: 1.5; stroke-linecap: square"/>
   </g>
   <g id="line2d_78">
    <path clip-path="url(#pa73cc4a27d)" style="fill: none; stroke: #000000; stroke-width: 1.5; stroke-linecap: square"/>
   </g>
   <g id="line2d_79">
    <path d="M 88.18018 293.76 
L 88.18018 289.927604 
L 88.18018 289.927604 
L 88.18018 286.095208 
L 88.18018 286.095208 
L 88.18018 282.262812 
L 88.18018 282.262812 
L 88.18018 278.430416 
L 88.18018 278.430416 
L 88.18018 274.59802 
L 88.18018 274.59802 
L 88.18018 270.765624 
L 88.18018 270.765624 
L 88.18018 266.933228 
L 88.18018 266.933228 
L 88.18018 263.100832 
L 178.875318 263.100832 
L 178.875318 259.268436 
L 186.405609 259.268436 
L 186.405609 255.43604 
L 190.431626 255.43604 
L 190.431626 251.603644 
L 197.961918 251.603644 
L 197.961918 247.771248 
L 204.052937 247.771248 
L 204.052937 243.938851 
L 206.537617 243.938851 
L 206.537617 240.106455 
L 207.350241 240.106455 
L 207.350241 236.274059 
L 226.823535 236.274059 
L 226.823535 232.441663 
L 226.823535 232.441663 
L 226.823535 232.441663 
L 460.8 232.441663 
" clip-path="url(#pa73cc4a27d)" style="fill: none; stroke: #00bfbf; stroke-width: 1.5; stroke-linecap: square"/>
   </g>
   <g id="line2d_80">
    <path clip-path="url(#pa73cc4a27d)" style="fill: none; stroke: #00bfbf; stroke-width: 1.5; stroke-linecap: square"/>
   </g>
   <g id="line2d_81">
    <path d="M 88.18018 293.76 
L 88.18018 289.927604 
L 88.18018 289.927604 
L 88.18018 286.095208 
L 88.18018 286.095208 
L 88.18018 282.262812 
L 88.18018 282.262812 
L 88.18018 278.430416 
L 88.18018 278.430416 
L 88.18018 274.59802 
L 88.18018 274.59802 
L 88.18018 270.765624 
L 88.18018 270.765624 
L 88.18018 266.933228 
L 88.18018 266.933228 
L 88.18018 263.100832 
L 246.393172 263.100832 
L 246.393172 259.268436 
L 248.931294 259.268436 
L 248.931294 255.43604 
L 250.419189 255.43604 
L 250.419189 251.603644 
L 251.881935 251.603644 
L 251.881935 247.771248 
L 255.201829 247.771248 
L 255.201829 243.938851 
L 257.043255 243.938851 
L 257.043255 240.106455 
L 257.949481 240.106455 
L 257.949481 236.274059 
L 276.172547 236.274059 
L 276.172547 232.441663 
L 276.172547 232.441663 
L 276.172547 232.441663 
L 460.8 232.441663 
" clip-path="url(#pa73cc4a27d)" style="fill: none; stroke: #bf00bf; stroke-width: 1.5; stroke-linecap: square"/>
   </g>
   <g id="line2d_82">
    <path clip-path="url(#pa73cc4a27d)" style="fill: none; stroke: #bf00bf; stroke-width: 1.5; stroke-linecap: square"/>
   </g>
   <g id="line2d_83">
    <path d="M 88.18018 293.76 
L 88.18018 289.927604 
L 88.18018 289.927604 
L 88.18018 286.095208 
L 88.18018 286.095208 
L 88.18018 282.262812 
L 88.18018 282.262812 
L 88.18018 278.430416 
L 88.18018 278.430416 
L 88.18018 274.59802 
L 88.18018 274.59802 
L 88.18018 270.765624 
L 88.18018 270.765624 
L 88.18018 266.933228 
L 88.18018 266.933228 
L 88.18018 263.100832 
L 282.507845 263.100832 
L 282.507845 259.268436 
L 284.851533 259.268436 
L 284.851533 255.43604 
L 289.356686 255.43604 
L 289.356686 251.603644 
L 296.572844 251.603644 
L 296.572844 247.771248 
L 296.860844 247.771248 
L 296.860844 243.938851 
L 298.286638 243.938851 
L 298.286638 240.106455 
L 298.569 240.106455 
L 298.569 236.274059 
L 309.913623 236.274059 
L 309.913623 232.441663 
L 309.913623 232.441663 
L 309.913623 232.441663 
L 460.8 232.441663 
" clip-path="url(#pa73cc4a27d)" style="fill: none; stroke: #ff0000; stroke-width: 3; stroke-linecap: square"/>
   </g>
   <g id="line2d_84">
    <path clip-path="url(#pa73cc4a27d)" style="fill: none; stroke: #ff0000; stroke-width: 3; stroke-linecap: square"/>
   </g>
   <g id="line2d_85">
    <path d="M 460.8 293.76 
L 460.8 3.456 
" clip-path="url(#pa73cc4a27d)" style="fill: none; stroke: #000000; stroke-width: 1.5; stroke-linecap: square"/>
   </g>
   <g id="patch_3">
    <path d="M 62.208 293.76 
L 62.208 3.456 
" style="fill: none; stroke: #000000; stroke-width: 0.8; stroke-linejoin: miter; stroke-linecap: square"/>
   </g>
   <g id="patch_4">
    <path d="M 460.8 293.76 
L 460.8 3.456 
" style="fill: none; stroke: #000000; stroke-width: 0.8; stroke-linejoin: miter; stroke-linecap: square"/>
   </g>
   <g id="patch_5">
    <path d="M 62.208 293.76 
L 460.8 293.76 
" style="fill: none; stroke: #000000; stroke-width: 0.8; stroke-linejoin: miter; stroke-linecap: square"/>
   </g>
   <g id="patch_6">
    <path d="M 62.208 3.456 
L 460.8 3.456 
" style="fill: none; stroke: #000000; stroke-width: 0.8; stroke-linejoin: miter; stroke-linecap: square"/>
   </g>
   <g id="text_10">
    <!-- {f1-f5}, 20-D -->
    <g transform="translate(195.0165 24.458955) scale(0.2 -0.2)">
     <defs>
      <path id="DejaVuSans-7b" d="M 3272 -594 
L 3272 -1044 
L 3078 -1044 
Q 2300 -1044 2036 -812 
Q 1772 -581 1772 109 
L 1772 856 
Q 1772 1328 1603 1509 
Q 1434 1691 991 1691 
L 800 1691 
L 800 2138 
L 991 2138 
Q 1438 2138 1605 2317 
Q 1772 2497 1772 2963 
L 1772 3713 
Q 1772 4403 2036 4633 
Q 2300 4863 3078 4863 
L 3272 4863 
L 3272 4416 
L 3059 4416 
Q 2619 4416 2484 4278 
Q 2350 4141 2350 3700 
L 2350 2925 
Q 2350 2434 2208 2212 
Q 2066 1991 1722 1913 
Q 2069 1828 2209 1606 
Q 2350 1384 2350 897 
L 2350 122 
Q 2350 -319 2484 -456 
Q 2619 -594 3059 -594 
L 3272 -594 
z
" transform="scale(0.015625)"/>
      <path id="DejaVuSans-2d" d="M 313 2009 
L 1997 2009 
L 1997 1497 
L 313 1497 
L 313 2009 
z
" transform="scale(0.015625)"/>
      <path id="DejaVuSans-35" d="M 691 4666 
L 3169 4666 
L 3169 4134 
L 1269 4134 
L 1269 2991 
Q 1406 3038 1543 3061 
Q 1681 3084 1819 3084 
Q 2600 3084 3056 2656 
Q 3513 2228 3513 1497 
Q 3513 744 3044 326 
Q 2575 -91 1722 -91 
Q 1428 -91 1123 -41 
Q 819 9 494 109 
L 494 744 
Q 775 591 1075 516 
Q 1375 441 1709 441 
Q 2250 441 2565 725 
Q 2881 1009 2881 1497 
Q 2881 1984 2565 2268 
Q 2250 2553 1709 2553 
Q 1456 2553 1204 2497 
Q 953 2441 691 2322 
L 691 4666 
z
" transform="scale(0.015625)"/>
      <path id="DejaVuSans-7d" d="M 800 -594 
L 1019 -594 
Q 1456 -594 1589 -459 
Q 1722 -325 1722 122 
L 1722 897 
Q 1722 1384 1862 1606 
Q 2003 1828 2350 1913 
Q 2003 1991 1862 2212 
Q 1722 2434 1722 2925 
L 1722 3700 
Q 1722 4144 1589 4280 
Q 1456 4416 1019 4416 
L 800 4416 
L 800 4863 
L 997 4863 
Q 1775 4863 2036 4633 
Q 2297 4403 2297 3713 
L 2297 2963 
Q 2297 2497 2465 2317 
Q 2634 2138 3078 2138 
L 3272 2138 
L 3272 1691 
L 3078 1691 
Q 2634 1691 2465 1509 
Q 2297 1328 2297 856 
L 2297 109 
Q 2297 -581 2036 -812 
Q 1775 -1044 997 -1044 
L 800 -1044 
L 800 -594 
z
" transform="scale(0.015625)"/>
      <path id="DejaVuSans-2c" d="M 750 794 
L 1409 794 
L 1409 256 
L 897 -744 
L 494 -744 
L 750 256 
L 750 794 
z
" transform="scale(0.015625)"/>
     </defs>
     <use xlink:href="#DejaVuSans-7b"/>
     <use xlink:href="#DejaVuSans-66" x="63.623047"/>
     <use xlink:href="#DejaVuSans-31" x="98.828125"/>
     <use xlink:href="#DejaVuSans-2d" x="162.451172"/>
     <use xlink:href="#DejaVuSans-66" x="198.535156"/>
     <use xlink:href="#DejaVuSans-35" x="233.740234"/>
     <use xlink:href="#DejaVuSans-7d" x="297.363281"/>
     <use xlink:href="#DejaVuSans-2c" x="360.986328"/>
     <use xlink:href="#DejaVuSans-20" x="392.773438"/>
     <use xlink:href="#DejaVuSans-32" x="424.560547"/>
     <use xlink:href="#DejaVuSans-30" x="488.183594"/>
     <use xlink:href="#DejaVuSans-2d" x="551.806641"/>
     <use xlink:href="#DejaVuSans-44" x="587.890625"/>
    </g>
   </g>
   <g id="text_11">
    <!-- absolute targets -->
    <g transform="translate(62.208 609.166194) scale(0.14 -0.14)">
     <defs>
      <path id="DejaVuSans-62" d="M 3116 1747 
Q 3116 2381 2855 2742 
Q 2594 3103 2138 3103 
Q 1681 3103 1420 2742 
Q 1159 2381 1159 1747 
Q 1159 1113 1420 752 
Q 1681 391 2138 391 
Q 2594 391 2855 752 
Q 3116 1113 3116 1747 
z
M 1159 2969 
Q 1341 3281 1617 3432 
Q 1894 3584 2278 3584 
Q 2916 3584 3314 3078 
Q 3713 2572 3713 1747 
Q 3713 922 3314 415 
Q 2916 -91 2278 -91 
Q 1894 -91 1617 61 
Q 1341 213 1159 525 
L 1159 0 
L 581 0 
L 581 4863 
L 1159 4863 
L 1159 2969 
z
" transform="scale(0.015625)"/>
      <path id="DejaVuSans-75" d="M 544 1381 
L 544 3500 
L 1119 3500 
L 1119 1403 
Q 1119 906 1312 657 
Q 1506 409 1894 409 
Q 2359 409 2629 706 
Q 2900 1003 2900 1516 
L 2900 3500 
L 3475 3500 
L 3475 0 
L 2900 0 
L 2900 538 
Q 2691 219 2414 64 
Q 2138 -91 1772 -91 
Q 1169 -91 856 284 
Q 544 659 544 1381 
z
M 1991 3584 
L 1991 3584 
z
" transform="scale(0.015625)"/>
      <path id="DejaVuSans-65" d="M 3597 1894 
L 3597 1613 
L 953 1613 
Q 991 1019 1311 708 
Q 1631 397 2203 397 
Q 2534 397 2845 478 
Q 3156 559 3463 722 
L 3463 178 
Q 3153 47 2828 -22 
Q 2503 -91 2169 -91 
Q 1331 -91 842 396 
Q 353 884 353 1716 
Q 353 2575 817 3079 
Q 1281 3584 2069 3584 
Q 2775 3584 3186 3129 
Q 3597 2675 3597 1894 
z
M 3022 2063 
Q 3016 2534 2758 2815 
Q 2500 3097 2075 3097 
Q 1594 3097 1305 2825 
Q 1016 2553 972 2059 
L 3022 2063 
z
" transform="scale(0.015625)"/>
     </defs>
     <use xlink:href="#DejaVuSans-61"/>
     <use xlink:href="#DejaVuSans-62" x="61.279297"/>
     <use xlink:href="#DejaVuSans-73" x="124.755859"/>
     <use xlink:href="#DejaVuSans-6f" x="176.855469"/>
     <use xlink:href="#DejaVuSans-6c" x="238.037109"/>
     <use xlink:href="#DejaVuSans-75" x="265.820312"/>
     <use xlink:href="#DejaVuSans-74" x="329.199219"/>
     <use xlink:href="#DejaVuSans-65" x="368.408203"/>
     <use xlink:href="#DejaVuSans-20" x="429.931641"/>
     <use xlink:href="#DejaVuSans-74" x="461.71875"/>
     <use xlink:href="#DejaVuSans-61" x="500.927734"/>
     <use xlink:href="#DejaVuSans-72" x="562.207031"/>
     <use xlink:href="#DejaVuSans-67" x="601.570312"/>
     <use xlink:href="#DejaVuSans-65" x="665.046875"/>
     <use xlink:href="#DejaVuSans-74" x="726.570312"/>
     <use xlink:href="#DejaVuSans-73" x="765.779297"/>
    </g>
   </g>
   <g id="text_12">
    <!-- v2.6.3 -->
    <g style="fill: #808080" transform="translate(245.82275 288.777272) scale(0.1 -0.1)">
     <defs>
      <path id="DejaVuSans-33" d="M 2597 2516 
Q 3050 2419 3304 2112 
Q 3559 1806 3559 1356 
Q 3559 666 3084 287 
Q 2609 -91 1734 -91 
Q 1441 -91 1130 -33 
Q 819 25 488 141 
L 488 750 
Q 750 597 1062 519 
Q 1375 441 1716 441 
Q 2309 441 2620 675 
Q 2931 909 2931 1356 
Q 2931 1769 2642 2001 
Q 2353 2234 1838 2234 
L 1294 2234 
L 1294 2753 
L 1863 2753 
Q 2328 2753 2575 2939 
Q 2822 3125 2822 3475 
Q 2822 3834 2567 4026 
Q 2313 4219 1838 4219 
Q 1578 4219 1281 4162 
Q 984 4106 628 3988 
L 628 4550 
Q 988 4650 1302 4700 
Q 1616 4750 1894 4750 
Q 2613 4750 3031 4423 
Q 3450 4097 3450 3541 
Q 3450 3153 3228 2886 
Q 3006 2619 2597 2516 
z
" transform="scale(0.015625)"/>
     </defs>
     <use xlink:href="#DejaVuSans-76"/>
     <use xlink:href="#DejaVuSans-32" x="59.179688"/>
     <use xlink:href="#DejaVuSans-2e" x="122.802734"/>
     <use xlink:href="#DejaVuSans-36" x="154.589844"/>
     <use xlink:href="#DejaVuSans-2e" x="218.212891"/>
     <use xlink:href="#DejaVuSans-33" x="250"/>
    </g>
   </g>
   <g id="legend_1">
    <g id="patch_7">
     <path d="M 76.208 136.881 
L 205.429875 136.881 
Q 209.429875 136.881 209.429875 132.881 
L 209.429875 17.456 
Q 209.429875 13.456 205.429875 13.456 
L 76.208 13.456 
Q 72.208 13.456 72.208 17.456 
L 72.208 132.881 
Q 72.208 136.881 76.208 136.881 
z
" style="fill: #ffffff; opacity: 0.2; stroke: #cccccc; stroke-linejoin: miter"/>
    </g>
    <g id="line2d_86">
     <path d="M 80.208 29.652875 
L 80.208 29.652875 
L 100.208 29.652875 
L 100.208 29.652875 
L 120.208 29.652875 
" style="fill: none; stroke: #000000; stroke-width: 1.5; stroke-linecap: square"/>
    </g>
    <g id="text_13">
     <!-- 1: 2/5 -->
     <g transform="translate(136.208 36.652875) scale(0.2 -0.2)">
      <defs>
       <path id="DejaVuSans-3a" d="M 750 794 
L 1409 794 
L 1409 0 
L 750 0 
L 750 794 
z
M 750 3309 
L 1409 3309 
L 1409 2516 
L 750 2516 
L 750 3309 
z
" transform="scale(0.015625)"/>
      </defs>
      <use xlink:href="#DejaVuSans-31"/>
      <use xlink:href="#DejaVuSans-3a" x="63.623047"/>
      <use xlink:href="#DejaVuSans-20" x="97.314453"/>
      <use xlink:href="#DejaVuSans-32" x="129.101562"/>
      <use xlink:href="#DejaVuSans-2f" x="192.724609"/>
      <use xlink:href="#DejaVuSans-35" x="226.416016"/>
     </g>
    </g>
    <g id="line2d_87">
     <path d="M 80.208 59.009125 
L 80.208 59.009125 
L 100.208 59.009125 
L 100.208 59.009125 
L 120.208 59.009125 
" style="fill: none; stroke: #00bfbf; stroke-width: 1.5; stroke-linecap: square"/>
    </g>
    <g id="text_14">
     <!-- -1: 2/5 -->
     <g transform="translate(136.208 66.009125) scale(0.2 -0.2)">
      <use xlink:href="#DejaVuSans-2d"/>
      <use xlink:href="#DejaVuSans-31" x="36.083984"/>
      <use xlink:href="#DejaVuSans-3a" x="99.707031"/>
      <use xlink:href="#DejaVuSans-20" x="133.398438"/>
      <use xlink:href="#DejaVuSans-32" x="165.185547"/>
      <use xlink:href="#DejaVuSans-2f" x="228.808594"/>
      <use xlink:href="#DejaVuSans-35" x="262.5"/>
     </g>
    </g>
    <g id="line2d_88">
     <path d="M 80.208 88.365375 
L 80.208 88.365375 
L 100.208 88.365375 
L 100.208 88.365375 
L 120.208 88.365375 
" style="fill: none; stroke: #bf00bf; stroke-width: 1.5; stroke-linecap: square"/>
    </g>
    <g id="text_15">
     <!-- -4: 2/5 -->
     <g transform="translate(136.208 95.365375) scale(0.2 -0.2)">
      <use xlink:href="#DejaVuSans-2d"/>
      <use xlink:href="#DejaVuSans-34" x="36.083984"/>
      <use xlink:href="#DejaVuSans-3a" x="99.707031"/>
      <use xlink:href="#DejaVuSans-20" x="133.398438"/>
      <use xlink:href="#DejaVuSans-32" x="165.185547"/>
      <use xlink:href="#DejaVuSans-2f" x="228.808594"/>
      <use xlink:href="#DejaVuSans-35" x="262.5"/>
     </g>
    </g>
    <g id="line2d_89">
     <path d="M 80.208 117.721625 
L 80.208 117.721625 
L 100.208 117.721625 
L 100.208 117.721625 
L 120.208 117.721625 
" style="fill: none; stroke: #ff0000; stroke-width: 3; stroke-linecap: square"/>
    </g>
    <g id="text_16">
     <!-- -8: 2/5 -->
     <g transform="translate(136.208 124.721625) scale(0.2 -0.2)">
      <use xlink:href="#DejaVuSans-2d"/>
      <use xlink:href="#DejaVuSans-38" x="36.083984"/>
      <use xlink:href="#DejaVuSans-3a" x="99.707031"/>
      <use xlink:href="#DejaVuSans-20" x="133.398438"/>
      <use xlink:href="#DejaVuSans-32" x="165.185547"/>
      <use xlink:href="#DejaVuSans-2f" x="228.808594"/>
      <use xlink:href="#DejaVuSans-35" x="262.5"/>
     </g>
    </g>
   </g>
  </g>
 </g>
 <defs>
  <clipPath id="pa73cc4a27d">
   <rect x="62.208" y="3.456" width="398.592" height="290.304"/>
  </clipPath>
 </defs>
</svg>
