<?xml version="1.0" encoding="utf-8" standalone="no"?>
<!DOCTYPE svg PUBLIC "-//W3C//DTD SVG 1.1//EN"
  "http://www.w3.org/Graphics/SVG/1.1/DTD/svg11.dtd">
<svg xmlns:xlink="http://www.w3.org/1999/xlink" width="460.8pt" height="345.6pt" viewBox="0 0 460.8 345.6" xmlns="http://www.w3.org/2000/svg" version="1.1">
 <metadata>
  <rdf:RDF xmlns:dc="http://purl.org/dc/elements/1.1/" xmlns:cc="http://creativecommons.org/ns#" xmlns:rdf="http://www.w3.org/1999/02/22-rdf-syntax-ns#">
   <cc:Work>
    <dc:type rdf:resource="http://purl.org/dc/dcmitype/StillImage"/>
    <dc:date>2024-01-17T15:11:10.809240</dc:date>
    <dc:format>image/svg+xml</dc:format>
    <dc:creator>
     <cc:Agent>
      <dc:title>Matplotlib v3.8.2, https://matplotlib.org/</dc:title>
     </cc:Agent>
    </dc:creator>
   </cc:Work>
  </rdf:RDF>
 </metadata>
 <defs>
  <style type="text/css">*{stroke-linejoin: round; stroke-linecap: butt}</style>
 </defs>
 <g id="figure_1">
  <g id="patch_1">
   <path d="M 0 345.6 
L 460.8 345.6 
L 460.8 0 
L 0 0 
z
" style="fill: #ffffff"/>
  </g>
  <g id="axes_1">
   <g id="patch_2">
    <path d="M 0 293.76 
L 460.8 293.76 
L 460.8 3.456 
L 0 3.456 
z
" style="fill: #ffffff"/>
   </g>
   <g id="matplotlib.axis_1">
    <g id="xtick_1">
     <g id="line2d_1">
      <path d="M 106.611868 293.76 
L 106.611868 3.456 
" clip-path="url(#p3ef842841a)" style="fill: none; stroke: #b0b0b0; stroke-width: 0.8; stroke-linecap: square"/>
     </g>
     <g id="line2d_2">
      <defs>
       <path id="m7aadb7eeb6" d="M 0 0 
L 0 3.5 
" style="stroke: #000000; stroke-width: 0.8"/>
      </defs>
      <g>
       <use xlink:href="#m7aadb7eeb6" x="106.611868" y="293.76" style="stroke: #000000; stroke-width: 0.8"/>
      </g>
     </g>
     <g id="text_1">
      <!-- -4 -->
      <g transform="translate(96.641555 315.956875) scale(0.2 -0.2)">
       <defs>
        <path id="DejaVuSans-2d" d="M 313 2009 
L 1997 2009 
L 1997 1497 
L 313 1497 
L 313 2009 
z
" transform="scale(0.015625)"/>
        <path id="DejaVuSans-34" d="M 2419 4116 
L 825 1625 
L 2419 1625 
L 2419 4116 
z
M 2253 4666 
L 3047 4666 
L 3047 1625 
L 3713 1625 
L 3713 1100 
L 3047 1100 
L 3047 0 
L 2419 0 
L 2419 1100 
L 313 1100 
L 313 1709 
L 2253 4666 
z
" transform="scale(0.015625)"/>
       </defs>
       <use xlink:href="#DejaVuSans-2d"/>
       <use xlink:href="#DejaVuSans-34" x="36.083984"/>
      </g>
     </g>
    </g>
    <g id="xtick_2">
     <g id="line2d_3">
      <path d="M 213.339037 293.76 
L 213.339037 3.456 
" clip-path="url(#p3ef842841a)" style="fill: none; stroke: #b0b0b0; stroke-width: 0.8; stroke-linecap: square"/>
     </g>
     <g id="line2d_4">
      <g>
       <use xlink:href="#m7aadb7eeb6" x="213.339037" y="293.76" style="stroke: #000000; stroke-width: 0.8"/>
      </g>
     </g>
     <g id="text_2">
      <!-- 0 -->
      <g transform="translate(206.976537 315.956875) scale(0.2 -0.2)">
       <defs>
        <path id="DejaVuSans-30" d="M 2034 4250 
Q 1547 4250 1301 3770 
Q 1056 3291 1056 2328 
Q 1056 1369 1301 889 
Q 1547 409 2034 409 
Q 2525 409 2770 889 
Q 3016 1369 3016 2328 
Q 3016 3291 2770 3770 
Q 2525 4250 2034 4250 
z
M 2034 4750 
Q 2819 4750 3233 4129 
Q 3647 3509 3647 2328 
Q 3647 1150 3233 529 
Q 2819 -91 2034 -91 
Q 1250 -91 836 529 
Q 422 1150 422 2328 
Q 422 3509 836 4129 
Q 1250 4750 2034 4750 
z
" transform="scale(0.015625)"/>
       </defs>
       <use xlink:href="#DejaVuSans-30"/>
      </g>
     </g>
    </g>
    <g id="xtick_3">
     <g id="line2d_5">
      <path d="M 320.066207 293.76 
L 320.066207 3.456 
" clip-path="url(#p3ef842841a)" style="fill: none; stroke: #b0b0b0; stroke-width: 0.8; stroke-linecap: square"/>
     </g>
     <g id="line2d_6">
      <g>
       <use xlink:href="#m7aadb7eeb6" x="320.066207" y="293.76" style="stroke: #000000; stroke-width: 0.8"/>
      </g>
     </g>
     <g id="text_3">
      <!-- 4 -->
      <g transform="translate(313.703707 315.956875) scale(0.2 -0.2)">
       <use xlink:href="#DejaVuSans-34"/>
      </g>
     </g>
    </g>
    <g id="xtick_4">
     <g id="line2d_7">
      <path d="M 426.793377 293.76 
L 426.793377 3.456 
" clip-path="url(#p3ef842841a)" style="fill: none; stroke: #b0b0b0; stroke-width: 0.8; stroke-linecap: square"/>
     </g>
     <g id="line2d_8">
      <g>
       <use xlink:href="#m7aadb7eeb6" x="426.793377" y="293.76" style="stroke: #000000; stroke-width: 0.8"/>
      </g>
     </g>
     <g id="text_4">
      <!-- 8 -->
      <g transform="translate(420.430877 315.956875) scale(0.2 -0.2)">
       <defs>
        <path id="DejaVuSans-38" d="M 2034 2216 
Q 1584 2216 1326 1975 
Q 1069 1734 1069 1313 
Q 1069 891 1326 650 
Q 1584 409 2034 409 
Q 2484 409 2743 651 
Q 3003 894 3003 1313 
Q 3003 1734 2745 1975 
Q 2488 2216 2034 2216 
z
M 1403 2484 
Q 997 2584 770 2862 
Q 544 3141 544 3541 
Q 544 4100 942 4425 
Q 1341 4750 2034 4750 
Q 2731 4750 3128 4425 
Q 3525 4100 3525 3541 
Q 3525 3141 3298 2862 
Q 3072 2584 2669 2484 
Q 3125 2378 3379 2068 
Q 3634 1759 3634 1313 
Q 3634 634 3220 271 
Q 2806 -91 2034 -91 
Q 1263 -91 848 271 
Q 434 634 434 1313 
Q 434 1759 690 2068 
Q 947 2378 1403 2484 
z
M 1172 3481 
Q 1172 3119 1398 2916 
Q 1625 2713 2034 2713 
Q 2441 2713 2670 2916 
Q 2900 3119 2900 3481 
Q 2900 3844 2670 4047 
Q 2441 4250 2034 4250 
Q 1625 4250 1398 4047 
Q 1172 3844 1172 3481 
z
" transform="scale(0.015625)"/>
       </defs>
       <use xlink:href="#DejaVuSans-38"/>
      </g>
     </g>
    </g>
    <g id="text_5">
     <!-- log10 of Df -->
     <g transform="translate(175.214063 339.313125) scale(0.2 -0.2)">
      <defs>
       <path id="DejaVuSans-6c" d="M 603 4863 
L 1178 4863 
L 1178 0 
L 603 0 
L 603 4863 
z
" transform="scale(0.015625)"/>
       <path id="DejaVuSans-6f" d="M 1959 3097 
Q 1497 3097 1228 2736 
Q 959 2375 959 1747 
Q 959 1119 1226 758 
Q 1494 397 1959 397 
Q 2419 397 2687 759 
Q 2956 1122 2956 1747 
Q 2956 2369 2687 2733 
Q 2419 3097 1959 3097 
z
M 1959 3584 
Q 2709 3584 3137 3096 
Q 3566 2609 3566 1747 
Q 3566 888 3137 398 
Q 2709 -91 1959 -91 
Q 1206 -91 779 398 
Q 353 888 353 1747 
Q 353 2609 779 3096 
Q 1206 3584 1959 3584 
z
" transform="scale(0.015625)"/>
       <path id="DejaVuSans-67" d="M 2906 1791 
Q 2906 2416 2648 2759 
Q 2391 3103 1925 3103 
Q 1463 3103 1205 2759 
Q 947 2416 947 1791 
Q 947 1169 1205 825 
Q 1463 481 1925 481 
Q 2391 481 2648 825 
Q 2906 1169 2906 1791 
z
M 3481 434 
Q 3481 -459 3084 -895 
Q 2688 -1331 1869 -1331 
Q 1566 -1331 1297 -1286 
Q 1028 -1241 775 -1147 
L 775 -588 
Q 1028 -725 1275 -790 
Q 1522 -856 1778 -856 
Q 2344 -856 2625 -561 
Q 2906 -266 2906 331 
L 2906 616 
Q 2728 306 2450 153 
Q 2172 0 1784 0 
Q 1141 0 747 490 
Q 353 981 353 1791 
Q 353 2603 747 3093 
Q 1141 3584 1784 3584 
Q 2172 3584 2450 3431 
Q 2728 3278 2906 2969 
L 2906 3500 
L 3481 3500 
L 3481 434 
z
" transform="scale(0.015625)"/>
       <path id="DejaVuSans-31" d="M 794 531 
L 1825 531 
L 1825 4091 
L 703 3866 
L 703 4441 
L 1819 4666 
L 2450 4666 
L 2450 531 
L 3481 531 
L 3481 0 
L 794 0 
L 794 531 
z
" transform="scale(0.015625)"/>
       <path id="DejaVuSans-20" transform="scale(0.015625)"/>
       <path id="DejaVuSans-66" d="M 2375 4863 
L 2375 4384 
L 1825 4384 
Q 1516 4384 1395 4259 
Q 1275 4134 1275 3809 
L 1275 3500 
L 2222 3500 
L 2222 3053 
L 1275 3053 
L 1275 0 
L 697 0 
L 697 3053 
L 147 3053 
L 147 3500 
L 697 3500 
L 697 3744 
Q 697 4328 969 4595 
Q 1241 4863 1831 4863 
L 2375 4863 
z
" transform="scale(0.015625)"/>
       <path id="DejaVuSans-44" d="M 1259 4147 
L 1259 519 
L 2022 519 
Q 2988 519 3436 956 
Q 3884 1394 3884 2338 
Q 3884 3275 3436 3711 
Q 2988 4147 2022 4147 
L 1259 4147 
z
M 628 4666 
L 1925 4666 
Q 3281 4666 3915 4102 
Q 4550 3538 4550 2338 
Q 4550 1131 3912 565 
Q 3275 0 1925 0 
L 628 0 
L 628 4666 
z
" transform="scale(0.015625)"/>
      </defs>
      <use xlink:href="#DejaVuSans-6c"/>
      <use xlink:href="#DejaVuSans-6f" x="27.783203"/>
      <use xlink:href="#DejaVuSans-67" x="88.964844"/>
      <use xlink:href="#DejaVuSans-31" x="152.441406"/>
      <use xlink:href="#DejaVuSans-30" x="216.064453"/>
      <use xlink:href="#DejaVuSans-20" x="279.6875"/>
      <use xlink:href="#DejaVuSans-6f" x="311.474609"/>
      <use xlink:href="#DejaVuSans-66" x="372.65625"/>
      <use xlink:href="#DejaVuSans-20" x="407.861328"/>
      <use xlink:href="#DejaVuSans-44" x="439.648438"/>
      <use xlink:href="#DejaVuSans-66" x="516.650391"/>
     </g>
    </g>
   </g>
   <g id="matplotlib.axis_2">
    <g id="ytick_1">
     <g id="line2d_9">
      <path d="M 0 293.76 
L 460.8 293.76 
" clip-path="url(#p3ef842841a)" style="fill: none; stroke: #b0b0b0; stroke-width: 0.8; stroke-linecap: square"/>
     </g>
     <g id="line2d_10">
      <defs>
       <path id="m299f40e4c6" d="M 0 0 
L -3.5 0 
" style="stroke: #000000; stroke-width: 0.8"/>
      </defs>
      <g>
       <use xlink:href="#m299f40e4c6" x="0" y="293.76" style="stroke: #000000; stroke-width: 0.8"/>
      </g>
     </g>
    </g>
    <g id="ytick_2">
     <g id="line2d_11">
      <path d="M 0 236.274059 
L 460.8 236.274059 
" clip-path="url(#p3ef842841a)" style="fill: none; stroke: #b0b0b0; stroke-width: 0.8; stroke-linecap: square"/>
     </g>
     <g id="line2d_12">
      <g>
       <use xlink:href="#m299f40e4c6" x="0" y="236.274059" style="stroke: #000000; stroke-width: 0.8"/>
      </g>
     </g>
    </g>
    <g id="ytick_3">
     <g id="line2d_13">
      <path d="M 0 178.788119 
L 460.8 178.788119 
" clip-path="url(#p3ef842841a)" style="fill: none; stroke: #b0b0b0; stroke-width: 0.8; stroke-linecap: square"/>
     </g>
     <g id="line2d_14">
      <g>
       <use xlink:href="#m299f40e4c6" x="0" y="178.788119" style="stroke: #000000; stroke-width: 0.8"/>
      </g>
     </g>
    </g>
    <g id="ytick_4">
     <g id="line2d_15">
      <path d="M 0 121.302178 
L 460.8 121.302178 
" clip-path="url(#p3ef842841a)" style="fill: none; stroke: #b0b0b0; stroke-width: 0.8; stroke-linecap: square"/>
     </g>
     <g id="line2d_16">
      <g>
       <use xlink:href="#m299f40e4c6" x="0" y="121.302178" style="stroke: #000000; stroke-width: 0.8"/>
      </g>
     </g>
    </g>
    <g id="ytick_5">
     <g id="line2d_17">
      <path d="M 0 63.816238 
L 460.8 63.816238 
" clip-path="url(#p3ef842841a)" style="fill: none; stroke: #b0b0b0; stroke-width: 0.8; stroke-linecap: square"/>
     </g>
     <g id="line2d_18">
      <g>
       <use xlink:href="#m299f40e4c6" x="0" y="63.816238" style="stroke: #000000; stroke-width: 0.8"/>
      </g>
     </g>
    </g>
    <g id="ytick_6">
     <g id="line2d_19">
      <path d="M 0 6.330297 
L 460.8 6.330297 
" clip-path="url(#p3ef842841a)" style="fill: none; stroke: #b0b0b0; stroke-width: 0.8; stroke-linecap: square"/>
     </g>
     <g id="line2d_20">
      <g>
       <use xlink:href="#m299f40e4c6" x="0" y="6.330297" style="stroke: #000000; stroke-width: 0.8"/>
      </g>
     </g>
    </g>
   </g>
   <g id="line2d_21">
    <path d="M 197.292308 293.76 
L 197.292308 281.783762 
L 224.135663 281.783762 
L 224.135663 280.985347 
L 226.181175 280.985347 
L 226.181175 280.186931 
L 227.340849 280.186931 
L 227.340849 279.388515 
L 228.12522 279.388515 
L 228.12522 278.590099 
L 229.037813 278.590099 
L 229.037813 277.791683 
L 229.295273 277.791683 
L 229.295273 276.993267 
L 229.641368 276.993267 
L 229.641368 276.194851 
L 230.582449 276.194851 
L 230.582449 275.396436 
L 230.80353 275.396436 
L 230.80353 274.59802 
L 232.003127 274.59802 
L 232.003127 273.799604 
L 232.827808 273.799604 
L 232.865801 272.202772 
L 233.094389 272.202772 
L 233.097782 270.605941 
L 233.366731 270.605941 
L 233.366731 269.807525 
L 233.524172 269.807525 
L 233.524172 269.009109 
L 233.689255 269.009109 
L 233.727486 267.412277 
L 234.579193 267.412277 
L 234.579193 266.613861 
L 234.885014 266.613861 
L 234.885014 265.815446 
L 235.409454 265.815446 
L 235.409454 265.01703 
L 236.276675 265.01703 
L 236.374647 263.420198 
L 236.770504 263.420198 
L 236.770504 262.621782 
L 238.133937 262.621782 
L 238.133937 261.823366 
L 238.453115 261.823366 
L 238.453115 261.02495 
L 238.70967 261.02495 
L 238.70967 260.226535 
L 238.919181 260.226535 
L 238.919181 259.428119 
L 239.377986 259.428119 
L 239.483378 256.234455 
L 239.50093 256.234455 
L 239.592055 253.839208 
L 239.989787 253.839208 
L 239.989787 253.040792 
L 240.279823 253.040792 
L 240.279823 252.242376 
L 240.430898 252.242376 
L 240.430898 251.44396 
L 240.590711 251.44396 
L 240.590711 250.645545 
L 240.720971 250.645545 
L 240.720971 249.847129 
L 240.988259 249.847129 
L 240.988259 249.048713 
L 241.925237 249.048713 
L 241.968453 247.451881 
L 242.429574 247.451881 
L 242.429574 246.653465 
L 242.612019 246.653465 
L 242.612019 245.85505 
L 242.903069 245.85505 
L 242.954337 244.258218 
L 243.108169 244.258218 
L 243.163223 242.661386 
L 243.403235 242.661386 
L 243.49533 241.064554 
L 243.616743 241.064554 
L 243.724335 239.467723 
L 244.00242 239.467723 
L 244.00242 238.669307 
L 244.240934 238.669307 
L 244.240934 237.870891 
L 245.765207 237.870891 
L 245.765207 237.072475 
L 246.623784 237.072475 
L 246.623784 236.274059 
L 246.796789 236.274059 
L 246.796789 235.475644 
L 246.929431 235.475644 
L 246.929431 234.677228 
L 247.295625 234.677228 
L 247.295625 233.878812 
L 247.62825 233.878812 
L 247.62825 233.080396 
L 248.017665 233.080396 
L 248.017665 232.28198 
L 248.162629 232.28198 
L 248.162629 231.483564 
L 248.522281 231.483564 
L 248.522281 230.685149 
L 248.703818 230.685149 
L 248.703818 229.886733 
L 248.90216 229.886733 
L 248.90216 229.088317 
L 249.270719 229.088317 
L 249.310335 227.491485 
L 249.401102 227.491485 
L 249.401102 226.693069 
L 249.642992 226.693069 
L 249.642992 225.894653 
L 249.76048 225.894653 
L 249.76048 225.096238 
L 251.093063 225.096238 
L 251.093063 213.12 
L 251.257619 213.12 
L 251.257619 212.321584 
L 251.447287 212.321584 
L 251.447287 211.523168 
L 251.641311 211.523168 
L 251.641311 210.724752 
L 251.98069 210.724752 
L 251.98069 209.926337 
L 252.185008 209.926337 
L 252.185008 209.127921 
L 252.303971 209.127921 
L 252.303971 208.329505 
L 252.433654 208.329505 
L 252.487101 206.732673 
L 252.567755 206.732673 
L 252.625634 205.135842 
L 252.787211 205.135842 
L 252.871831 203.53901 
L 252.956146 203.53901 
L 252.956146 202.740594 
L 253.089826 202.740594 
L 253.188841 201.143762 
L 253.243765 201.143762 
L 253.275601 199.546931 
L 253.387005 199.546931 
L 253.388049 197.950099 
L 253.539216 197.950099 
L 253.602101 196.353267 
L 253.745057 196.353267 
L 253.839619 194.756436 
L 253.890563 194.756436 
L 253.890563 193.95802 
L 254.067255 193.95802 
L 254.067255 193.159604 
L 254.521675 193.159604 
L 254.521675 192.361188 
L 254.742359 192.361188 
L 254.742359 191.562772 
L 254.867767 191.562772 
L 254.969785 189.965941 
L 255.177885 189.965941 
L 255.261576 187.570693 
L 255.382304 187.570693 
L 255.382304 186.772277 
L 255.523659 186.772277 
L 255.544311 185.175446 
L 255.756478 185.175446 
L 255.756478 184.37703 
L 255.892256 184.37703 
L 255.892256 183.578614 
L 256.231567 183.578614 
L 256.294661 181.981782 
L 256.511998 181.981782 
L 256.614562 180.38495 
L 256.956642 180.38495 
L 256.965264 178.788119 
L 257.180757 178.788119 
L 257.262766 176.392871 
L 257.296356 176.392871 
L 257.405186 174.79604 
L 257.554123 174.79604 
L 257.554123 173.997624 
L 257.899842 173.997624 
L 257.899842 173.199208 
L 258.872216 173.199208 
L 258.872216 172.400792 
L 259.40342 172.400792 
L 259.486717 170.80396 
L 259.788415 170.80396 
L 259.788415 170.005545 
L 259.908056 170.005545 
L 259.908056 169.207129 
L 260.093798 169.207129 
L 260.113254 167.610297 
L 260.316451 167.610297 
L 260.316451 166.811881 
L 260.428437 166.811881 
L 260.520709 164.416634 
L 260.623049 164.416634 
L 260.623049 163.618218 
L 260.954997 163.618218 
L 260.954997 162.819802 
L 261.27707 162.819802 
L 261.27707 162.021386 
L 261.444492 162.021386 
L 261.528497 160.424554 
L 261.573972 160.424554 
L 261.573972 159.626139 
L 261.706988 159.626139 
L 261.706988 158.827723 
L 262.000285 158.827723 
L 262.096576 156.432475 
L 262.236491 156.432475 
L 262.298667 154.835644 
L 262.378425 154.835644 
L 262.383815 153.238812 
L 262.527267 153.238812 
L 262.527267 152.440396 
L 262.698694 152.440396 
L 262.698694 151.64198 
L 262.874111 151.64198 
L 262.940086 150.045149 
L 263.109655 150.045149 
L 263.109655 149.246733 
L 263.289882 149.246733 
L 263.289882 148.448317 
L 263.672485 148.448317 
L 263.762182 146.851485 
L 264.102507 146.851485 
L 264.102507 146.053069 
L 264.249481 146.053069 
L 264.249481 145.254653 
L 264.689824 145.254653 
L 264.689824 144.456238 
L 264.846247 144.456238 
L 264.906729 142.859406 
L 265.002237 142.859406 
L 265.062445 141.262574 
L 265.229967 141.262574 
L 265.336752 138.867327 
L 265.888838 138.867327 
L 265.888838 138.068911 
L 266.243298 138.068911 
L 266.265951 136.472079 
L 266.757562 136.472079 
L 266.757562 135.673663 
L 267.092129 135.673663 
L 267.092129 134.875248 
L 267.216144 134.875248 
L 267.278027 131.681584 
L 267.508526 131.681584 
L 267.574121 129.286337 
L 267.877187 129.286337 
L 267.877187 128.487921 
L 268.005555 128.487921 
L 268.005555 127.689505 
L 268.276797 127.689505 
L 268.381247 125.294257 
L 268.413299 125.294257 
L 268.468111 122.89901 
L 268.639301 122.89901 
L 268.639301 122.100594 
L 269.02819 122.100594 
L 269.106702 120.503762 
L 269.300066 120.503762 
L 269.300066 119.705347 
L 269.587306 119.705347 
L 269.587306 118.906931 
L 269.779999 118.906931 
L 269.779999 118.108515 
L 269.971529 118.108515 
L 270.006571 115.713267 
L 270.195371 115.713267 
L 270.195371 114.914851 
L 270.795722 114.914851 
L 270.795722 114.116436 
L 270.913114 114.116436 
L 271.004096 112.519604 
L 271.194094 112.519604 
L 271.194094 111.721188 
L 271.486964 111.721188 
L 271.486964 110.922772 
L 272.916691 110.922772 
L 272.944007 109.325941 
L 273.242815 109.325941 
L 273.242815 108.527525 
L 273.938946 108.527525 
L 273.99853 106.930693 
L 274.055282 106.930693 
L 274.092055 105.333861 
L 274.204218 105.333861 
L 274.204218 104.535446 
L 275.501698 104.535446 
L 275.501698 103.73703 
L 275.801068 103.73703 
L 275.801068 102.938614 
L 276.032865 102.938614 
L 276.032865 102.140198 
L 276.698359 102.140198 
L 276.698359 101.341782 
L 276.975793 101.341782 
L 276.975793 100.543366 
L 277.120216 100.543366 
L 277.120216 99.74495 
L 277.729088 99.74495 
L 277.729088 98.946535 
L 278.875212 98.946535 
L 278.978685 97.349703 
L 280.248116 97.349703 
L 280.248116 96.551287 
L 283.683338 96.551287 
L 283.683338 95.752871 
L 285.978146 95.752871 
L 285.978146 94.954455 
L 286.586337 94.954455 
L 286.586337 94.15604 
L 288.934584 94.15604 
L 289.005221 92.559208 
L 289.214486 92.559208 
L 289.214486 91.760792 
L 289.918465 91.760792 
L 289.930152 90.16396 
L 290.957271 90.16396 
L 290.957271 89.365545 
L 291.156328 89.365545 
L 291.156328 88.567129 
L 292.765908 88.567129 
L 292.765908 87.768713 
L 293.762631 87.768713 
L 293.790772 86.171881 
L 295.74137 86.171881 
L 295.74137 85.373465 
L 295.961624 85.373465 
L 295.961624 84.57505 
L 296.130726 84.57505 
L 296.130726 83.776634 
L 296.663331 83.776634 
L 296.663331 82.978218 
L 300.114008 82.978218 
L 300.114008 82.179802 
L 300.589979 82.179802 
L 300.589979 81.381386 
L 300.802218 81.381386 
L 300.802218 80.58297 
L 302.765353 80.58297 
L 302.765353 79.784554 
L 303.369213 79.784554 
L 303.369213 78.986139 
L 303.554011 78.986139 
L 303.603124 77.389307 
L 305.019755 77.389307 
L 305.019755 76.590891 
L 305.643559 76.590891 
L 305.643559 75.792475 
L 306.498522 75.792475 
L 306.498522 74.994059 
L 308.084136 74.994059 
L 308.163751 73.397228 
L 308.72694 73.397228 
L 308.72694 72.598812 
L 312.818456 72.598812 
L 312.818456 71.800396 
L 312.994959 71.800396 
L 312.994959 71.00198 
L 313.14971 71.00198 
L 313.14971 70.203564 
L 313.286274 70.203564 
L 313.286274 69.405149 
L 314.3871 69.405149 
L 314.3871 68.606733 
L 315.238412 68.606733 
L 315.238412 63.017822 
L 318.933146 63.017822 
L 318.933146 62.219406 
L 323.35474 62.219406 
L 323.35474 61.42099 
L 323.796981 61.42099 
L 323.796981 60.622574 
L 324.652822 60.622574 
L 324.652822 59.824158 
L 326.910645 59.824158 
L 326.910645 59.025743 
L 327.298719 59.025743 
L 327.298719 58.227327 
L 329.451592 58.227327 
L 329.451592 57.428911 
L 331.489101 57.428911 
L 331.489101 56.630495 
L 332.47473 56.630495 
L 332.47473 55.832079 
L 334.144891 55.832079 
L 334.159007 54.235248 
L 335.688308 54.235248 
L 335.688308 53.436832 
L 335.880045 53.436832 
L 335.880045 52.638416 
L 336.625366 52.638416 
L 336.625366 51.84 
L 337.220751 51.84 
L 337.220751 51.041584 
L 337.726743 51.041584 
L 337.726743 50.243168 
L 338.36633 50.243168 
L 338.36633 49.444752 
L 340.970827 49.444752 
L 341.054189 47.847921 
L 341.305977 47.847921 
L 341.390884 46.251089 
L 341.709715 46.251089 
L 341.709715 45.452673 
L 342.326648 45.452673 
L 342.326648 44.654257 
L 342.686553 44.654257 
L 342.686553 43.855842 
L 342.963645 43.855842 
L 342.963645 43.057426 
L 345.874643 43.057426 
L 345.874643 42.25901 
L 346.459083 42.25901 
L 346.459083 41.460594 
L 347.641081 41.460594 
L 347.641081 40.662178 
L 349.028079 40.662178 
L 349.028079 39.863762 
L 352.180013 39.863762 
L 352.180013 39.065347 
L 352.300092 39.065347 
L 352.300092 38.266931 
L 353.013027 38.266931 
L 353.013027 37.468515 
L 353.79824 37.468515 
L 353.79824 36.670099 
L 354.064664 36.670099 
L 354.16136 35.073267 
L 357.721963 35.073267 
L 357.721963 34.274851 
L 358.214749 34.274851 
L 358.214749 33.476436 
L 358.81523 33.476436 
L 358.81523 32.67802 
L 360.228344 32.67802 
L 360.228344 31.879604 
L 361.883551 31.879604 
L 361.883551 31.081188 
L 362.193247 31.081188 
L 362.193247 30.282772 
L 362.811478 30.282772 
L 362.811478 29.484356 
L 363.981514 29.484356 
L 363.981514 28.685941 
L 365.369215 28.685941 
L 365.369215 27.887525 
L 365.89879 27.887525 
L 365.89879 27.089109 
L 369.366903 27.089109 
L 369.366903 26.290693 
L 369.581789 26.290693 
L 369.581789 25.492277 
L 373.290505 25.492277 
L 373.290505 24.693861 
L 374.815809 24.693861 
L 374.815809 23.895446 
L 375.012824 23.895446 
L 375.012824 23.09703 
L 379.721959 23.09703 
L 379.721959 22.298614 
L 381.551766 22.298614 
L 381.551766 21.500198 
L 381.934519 21.500198 
L 381.934519 20.701782 
L 382.236875 20.701782 
L 382.236875 19.903366 
L 385.796614 19.903366 
L 385.796614 19.10495 
L 391.227152 19.10495 
L 391.227152 18.306535 
L 394.030009 18.306535 
L 394.030009 17.508119 
L 398.149441 17.508119 
L 398.149441 16.709703 
L 398.709295 16.709703 
L 398.709295 15.911287 
L 399.750409 15.911287 
L 399.750409 15.112871 
L 401.268013 15.112871 
L 401.268013 14.314455 
L 402.048101 14.314455 
L 402.048101 13.51604 
L 405.887687 13.51604 
L 405.887687 12.717624 
L 407.160768 12.717624 
L 407.160768 11.919208 
L 407.409011 11.919208 
L 407.409011 11.120792 
L 407.591535 11.120792 
L 407.591535 10.322376 
L 410.550312 10.322376 
L 410.550312 9.52396 
L 413.861265 9.52396 
L 413.861265 8.725545 
L 415.442376 8.725545 
L 415.442376 7.927129 
L 415.887615 7.927129 
L 415.887615 7.128713 
L 416.804939 7.128713 
L 416.804939 6.330297 
L 416.804939 6.330297 
L 460.8 6.330297 
L 460.8 6.330297 
" clip-path="url(#p3ef842841a)" style="fill: none; stroke: #ff0000; stroke-width: 3; stroke-linecap: square"/>
   </g>
   <g id="line2d_22">
    <path d="M 197.292308 293.76 
L 197.292308 281.783762 
L 226.181175 281.783762 
L 226.181175 280.985347 
L 229.295273 280.985347 
L 229.295273 280.186931 
L 230.582449 280.186931 
L 230.582449 279.388515 
L 233.366731 279.388515 
L 233.366731 278.590099 
L 233.524172 278.590099 
L 233.524172 277.791683 
L 233.689255 277.791683 
L 233.755434 276.194851 
L 235.395625 276.194851 
L 235.409454 274.59802 
L 236.770504 274.59802 
L 236.770504 273.799604 
L 237.550279 273.799604 
L 237.550279 273.001188 
L 239.378883 273.001188 
L 239.378883 272.202772 
L 240.305693 272.202772 
L 240.305693 271.404356 
L 240.642447 271.404356 
L 240.741405 267.412277 
L 240.864785 267.412277 
L 240.864785 266.613861 
L 241.968453 266.613861 
L 241.968453 265.815446 
L 242.733847 265.815446 
L 242.733847 265.01703 
L 242.903069 265.01703 
L 242.971625 263.420198 
L 243.145559 263.420198 
L 243.163223 261.823366 
L 243.616743 261.823366 
L 243.616743 261.02495 
L 243.824192 261.02495 
L 243.824192 260.226535 
L 244.118902 260.226535 
L 244.118902 259.428119 
L 244.240934 259.428119 
L 244.240934 258.629703 
L 244.506116 258.629703 
L 244.506116 257.831287 
L 244.939633 257.831287 
L 244.939633 257.032871 
L 245.209181 257.032871 
L 245.209181 256.234455 
L 245.789776 256.234455 
L 245.81361 254.637624 
L 246.093731 254.637624 
L 246.093731 253.839208 
L 246.366285 253.839208 
L 246.366285 253.040792 
L 246.723508 253.040792 
L 246.796789 250.645545 
L 247.338949 250.645545 
L 247.338949 249.847129 
L 248.017665 249.847129 
L 248.017665 249.048713 
L 248.162629 249.048713 
L 248.162629 248.250297 
L 249.236044 248.250297 
L 249.236044 247.451881 
L 249.401102 247.451881 
L 249.456654 245.85505 
L 249.97153 245.85505 
L 249.97153 245.056634 
L 250.871582 245.056634 
L 250.916047 243.459802 
L 251.093063 243.459802 
L 251.093063 231.483564 
L 251.314919 231.483564 
L 251.314919 230.685149 
L 251.952159 230.685149 
L 251.952159 229.886733 
L 253.089826 229.886733 
L 253.089826 229.088317 
L 253.275601 229.088317 
L 253.275601 228.289901 
L 253.387005 228.289901 
L 253.387005 227.491485 
L 253.745057 227.491485 
L 253.745057 226.693069 
L 254.011999 226.693069 
L 254.011999 225.894653 
L 254.145321 225.894653 
L 254.145321 225.096238 
L 254.277951 225.096238 
L 254.385836 222.70099 
L 254.521675 222.70099 
L 254.521675 221.902574 
L 254.742359 221.902574 
L 254.782484 220.305743 
L 255.448755 220.305743 
L 255.544311 218.708911 
L 255.892256 218.708911 
L 255.892256 217.910495 
L 256.231567 217.910495 
L 256.294661 216.313663 
L 256.707268 216.313663 
L 256.803842 214.716832 
L 256.908576 214.716832 
L 256.908576 213.918416 
L 257.180757 213.918416 
L 257.180757 213.12 
L 257.538713 213.12 
L 257.538713 212.321584 
L 257.716813 212.321584 
L 257.716813 211.523168 
L 257.854521 211.523168 
L 257.899842 209.926337 
L 258.151611 209.926337 
L 258.213114 208.329505 
L 258.79102 208.329505 
L 258.79102 207.531089 
L 259.463803 207.531089 
L 259.562862 205.934257 
L 259.688342 205.934257 
L 259.788415 204.337426 
L 259.856964 204.337426 
L 259.937121 202.740594 
L 259.997371 202.740594 
L 259.997371 201.942178 
L 260.166849 201.942178 
L 260.200367 200.345347 
L 260.318578 200.345347 
L 260.318578 199.546931 
L 260.489023 199.546931 
L 260.520709 197.950099 
L 260.623049 197.950099 
L 260.623049 197.151683 
L 260.954997 197.151683 
L 260.954997 196.353267 
L 261.27282 196.353267 
L 261.311627 194.756436 
L 261.424058 194.756436 
L 261.468848 193.159604 
L 261.662024 193.159604 
L 261.707151 191.562772 
L 261.920129 191.562772 
L 262.030386 188.369109 
L 262.096576 188.369109 
L 262.096576 187.570693 
L 262.287197 187.570693 
L 262.378425 185.973861 
L 262.400739 185.973861 
L 262.493059 183.578614 
L 262.852596 183.578614 
L 262.940086 181.183366 
L 263.055725 181.183366 
L 263.156045 179.586535 
L 263.253143 179.586535 
L 263.299032 177.989703 
L 263.43034 177.989703 
L 263.437536 176.392871 
L 263.672485 176.392871 
L 263.777708 173.997624 
L 264.014177 173.997624 
L 264.058226 171.602376 
L 264.199404 171.602376 
L 264.249481 169.207129 
L 264.374046 169.207129 
L 264.374046 168.408713 
L 264.663527 168.408713 
L 264.690528 166.013465 
L 264.947184 166.013465 
L 264.947184 165.21505 
L 265.062445 165.21505 
L 265.089773 163.618218 
L 265.252311 163.618218 
L 265.336752 161.22297 
L 265.783459 161.22297 
L 265.888838 159.626139 
L 266.026849 159.626139 
L 266.113517 156.432475 
L 266.227658 156.432475 
L 266.265951 154.835644 
L 266.456157 154.835644 
L 266.510409 153.238812 
L 266.7011 153.238812 
L 266.7011 152.440396 
L 267.092129 152.440396 
L 267.092129 151.64198 
L 267.499405 151.64198 
L 267.575083 144.456238 
L 267.743416 144.456238 
L 267.743416 143.657822 
L 267.92791 143.657822 
L 267.92791 142.859406 
L 268.135746 142.859406 
L 268.135746 142.06099 
L 268.277045 142.06099 
L 268.277045 141.262574 
L 268.541515 141.262574 
L 268.639301 139.665743 
L 268.932088 139.665743 
L 269.02819 138.068911 
L 269.300066 138.068911 
L 269.300066 137.270495 
L 269.480217 137.270495 
L 269.480217 136.472079 
L 269.779999 136.472079 
L 269.779999 135.673663 
L 270.044718 135.673663 
L 270.044718 134.875248 
L 270.439068 134.875248 
L 270.439068 134.076832 
L 270.777536 134.076832 
L 270.883414 131.681584 
L 271.486964 131.681584 
L 271.486964 130.883168 
L 271.791704 130.883168 
L 271.791704 130.084752 
L 272.026423 130.084752 
L 272.026423 129.286337 
L 272.204773 129.286337 
L 272.204773 128.487921 
L 272.342679 128.487921 
L 272.342679 127.689505 
L 272.944007 127.689505 
L 272.944007 126.891089 
L 273.242815 126.891089 
L 273.242815 126.092673 
L 273.794956 126.092673 
L 273.86293 124.495842 
L 273.938946 124.495842 
L 273.99853 122.89901 
L 274.055282 122.89901 
L 274.092055 121.302178 
L 274.254606 121.302178 
L 274.254606 120.503762 
L 274.848648 120.503762 
L 274.869195 118.906931 
L 275.441141 118.906931 
L 275.441141 118.108515 
L 275.759599 118.108515 
L 275.862934 116.511683 
L 276.602567 116.511683 
L 276.698359 114.116436 
L 276.975793 114.116436 
L 276.975793 113.31802 
L 277.120216 113.31802 
L 277.196616 111.721188 
L 277.506735 111.721188 
L 277.506735 110.922772 
L 277.650538 110.922772 
L 277.729088 108.527525 
L 278.213 108.527525 
L 278.213 107.729109 
L 278.984426 107.729109 
L 278.984426 106.930693 
L 280.213511 106.930693 
L 280.213511 106.132277 
L 282.210996 106.132277 
L 282.273384 104.535446 
L 282.398899 104.535446 
L 282.398899 103.73703 
L 283.609759 103.73703 
L 283.609759 102.938614 
L 284.984487 102.938614 
L 284.984487 102.140198 
L 286.446266 102.140198 
L 286.446266 101.341782 
L 288.934584 101.341782 
L 288.934584 100.543366 
L 289.214486 100.543366 
L 289.214486 99.74495 
L 289.785117 99.74495 
L 289.785117 98.946535 
L 290.573395 98.946535 
L 290.573395 98.148119 
L 290.957271 98.148119 
L 290.957271 97.349703 
L 291.156328 97.349703 
L 291.156328 96.551287 
L 292.165046 96.551287 
L 292.165046 95.752871 
L 292.605507 95.752871 
L 292.605507 94.954455 
L 293.928978 94.954455 
L 293.928978 94.15604 
L 294.985318 94.15604 
L 294.985318 93.357624 
L 295.273752 93.357624 
L 295.273752 92.559208 
L 295.74137 92.559208 
L 295.74137 91.760792 
L 295.961624 91.760792 
L 295.961624 90.962376 
L 296.130726 90.962376 
L 296.130726 90.16396 
L 296.397353 90.16396 
L 296.397353 89.365545 
L 296.663331 89.365545 
L 296.663331 88.567129 
L 297.30486 88.567129 
L 297.30486 87.768713 
L 300.528849 87.768713 
L 300.528849 86.970297 
L 300.909873 86.970297 
L 300.909873 86.171881 
L 303.603124 86.171881 
L 303.603124 85.373465 
L 305.019755 85.373465 
L 305.019755 84.57505 
L 315.238412 84.57505 
L 315.238412 72.598812 
L 317.95863 72.598812 
L 317.95863 71.800396 
L 321.65526 71.800396 
L 321.65526 71.00198 
L 323.796981 71.00198 
L 323.796981 70.203564 
L 324.36053 70.203564 
L 324.36053 69.405149 
L 325.431536 69.405149 
L 325.431536 68.606733 
L 327.041591 68.606733 
L 327.041591 67.808317 
L 327.298719 67.808317 
L 327.298719 67.009901 
L 329.451592 67.009901 
L 329.451592 66.211485 
L 330.317302 66.211485 
L 330.317302 65.413069 
L 331.066194 65.413069 
L 331.066194 64.614653 
L 332.47473 64.614653 
L 332.47473 63.816238 
L 334.638403 63.816238 
L 334.638403 63.017822 
L 336.323315 63.017822 
L 336.323315 62.219406 
L 336.625366 62.219406 
L 336.625366 61.42099 
L 337.220751 61.42099 
L 337.220751 60.622574 
L 337.726743 60.622574 
L 337.726743 59.824158 
L 339.834308 59.824158 
L 339.834308 59.025743 
L 341.009657 59.025743 
L 341.009657 58.227327 
L 341.348253 58.227327 
L 341.348253 57.428911 
L 341.520542 57.428911 
L 341.520542 56.630495 
L 345.874643 56.630495 
L 345.874643 55.832079 
L 346.46857 55.832079 
L 346.46857 55.033663 
L 347.641081 55.033663 
L 347.641081 54.235248 
L 348.572035 54.235248 
L 348.572035 53.436832 
L 349.427672 53.436832 
L 349.427672 52.638416 
L 352.300092 52.638416 
L 352.300092 51.84 
L 353.013027 51.84 
L 353.013027 51.041584 
L 354.064664 51.041584 
L 354.064664 50.243168 
L 359.880526 50.243168 
L 359.880526 49.444752 
L 361.345627 49.444752 
L 361.345627 48.646337 
L 361.883551 48.646337 
L 361.883551 47.847921 
L 362.273577 47.847921 
L 362.273577 47.049505 
L 362.811478 47.049505 
L 362.811478 46.251089 
L 363.79037 46.251089 
L 363.79037 45.452673 
L 366.669754 45.452673 
L 366.669754 44.654257 
L 367.090921 44.654257 
L 367.090921 43.855842 
L 369.581789 43.855842 
L 369.581789 43.057426 
L 370.702904 43.057426 
L 370.702904 42.25901 
L 371.024899 42.25901 
L 371.024899 41.460594 
L 372.559535 41.460594 
L 372.559535 40.662178 
L 373.730725 40.662178 
L 373.730725 39.863762 
L 377.872895 39.863762 
L 377.872895 39.065347 
L 381.60931 39.065347 
L 381.60931 38.266931 
L 381.836565 38.266931 
L 381.836565 37.468515 
L 382.647917 37.468515 
L 382.647917 36.670099 
L 383.93755 36.670099 
L 383.93755 35.871683 
L 384.628845 35.871683 
L 384.628845 35.073267 
L 385.665027 35.073267 
L 385.665027 34.274851 
L 386.285021 34.274851 
L 386.285021 33.476436 
L 388.087283 33.476436 
L 388.087283 32.67802 
L 388.355051 32.67802 
L 388.355051 31.879604 
L 388.510741 31.879604 
L 388.510741 31.081188 
L 390.549243 31.081188 
L 390.549243 30.282772 
L 392.359841 30.282772 
L 392.359841 29.484356 
L 392.876619 29.484356 
L 392.876619 28.685941 
L 394.030009 28.685941 
L 394.030009 27.887525 
L 394.263349 27.887525 
L 394.263349 27.089109 
L 394.976938 27.089109 
L 394.976938 26.290693 
L 395.324152 26.290693 
L 395.324152 25.492277 
L 396.322965 25.492277 
L 396.322965 24.693861 
L 396.72643 24.693861 
L 396.72643 23.895446 
L 397.024207 23.895446 
L 397.024207 23.09703 
L 398.709295 23.09703 
L 398.802205 21.500198 
L 399.188144 21.500198 
L 399.188144 20.701782 
L 399.750409 20.701782 
L 399.750409 19.903366 
L 400.472478 19.903366 
L 400.472478 19.10495 
L 401.694906 19.10495 
L 401.694906 18.306535 
L 402.530403 18.306535 
L 402.530403 17.508119 
L 403.1279 17.508119 
L 403.1279 16.709703 
L 405.887687 16.709703 
L 405.887687 15.911287 
L 406.277914 15.911287 
L 406.277914 15.112871 
L 407.591535 15.112871 
L 407.591535 14.314455 
L 409.519853 14.314455 
L 409.519853 13.51604 
L 413.861265 13.51604 
L 413.861265 12.717624 
L 416.747323 12.717624 
L 416.851039 10.322376 
L 417.387714 10.322376 
L 417.387714 9.52396 
L 417.865741 9.52396 
L 417.865741 8.725545 
L 431.666325 8.725545 
L 431.666325 7.927129 
L 441.380497 7.927129 
L 441.380497 7.128713 
L 448.252015 7.128713 
L 448.252015 6.330297 
L 448.252015 6.330297 
L 460.8 6.330297 
L 460.8 6.330297 
" clip-path="url(#p3ef842841a)" style="fill: none; stroke: #00bfbf; stroke-width: 1.5; stroke-linecap: square"/>
   </g>
   <g id="line2d_23">
    <path d="M 197.292308 293.76 
L 197.292308 281.783762 
L 226.181175 281.783762 
L 226.181175 280.985347 
L 228.12522 280.985347 
L 228.12522 280.186931 
L 229.295273 280.186931 
L 229.295273 279.388515 
L 230.582449 279.388515 
L 230.582449 278.590099 
L 230.80353 278.590099 
L 230.80353 277.791683 
L 232.003127 277.791683 
L 232.003127 276.993267 
L 233.097782 276.993267 
L 233.097782 276.194851 
L 233.366731 276.194851 
L 233.366731 275.396436 
L 233.524172 275.396436 
L 233.524172 274.59802 
L 233.689255 274.59802 
L 233.755434 273.001188 
L 235.336576 273.001188 
L 235.409454 271.404356 
L 236.276675 271.404356 
L 236.374647 269.807525 
L 236.770504 269.807525 
L 236.770504 269.009109 
L 237.140511 269.009109 
L 237.140511 268.210693 
L 237.550279 268.210693 
L 237.550279 267.412277 
L 238.70967 267.412277 
L 238.752421 265.815446 
L 238.919181 265.815446 
L 238.919181 265.01703 
L 239.378883 265.01703 
L 239.483378 263.420198 
L 239.592055 263.420198 
L 239.592055 262.621782 
L 240.46161 262.621782 
L 240.46161 261.823366 
L 240.590711 261.823366 
L 240.671917 258.629703 
L 240.720971 258.629703 
L 240.741405 257.032871 
L 241.925237 257.032871 
L 241.968453 254.637624 
L 242.903069 254.637624 
L 242.903069 253.839208 
L 243.163223 253.839208 
L 243.163223 253.040792 
L 243.49533 253.040792 
L 243.49533 252.242376 
L 243.616743 252.242376 
L 243.724335 250.645545 
L 243.858298 250.645545 
L 243.858298 249.847129 
L 244.00242 249.847129 
L 244.00242 249.048713 
L 244.240934 249.048713 
L 244.240934 248.250297 
L 244.902668 248.250297 
L 244.939633 246.653465 
L 245.208882 246.653465 
L 245.208882 245.85505 
L 245.765207 245.85505 
L 245.81361 244.258218 
L 246.623784 244.258218 
L 246.623784 243.459802 
L 246.796789 243.459802 
L 246.820015 241.86297 
L 246.929431 241.86297 
L 246.929431 241.064554 
L 248.017665 241.064554 
L 248.017665 240.266139 
L 248.162629 240.266139 
L 248.162629 239.467723 
L 248.522281 239.467723 
L 248.591627 237.870891 
L 249.228745 237.870891 
L 249.310335 235.475644 
L 249.401102 235.475644 
L 249.456654 233.878812 
L 249.642992 233.878812 
L 249.642992 233.080396 
L 249.76048 233.080396 
L 249.76048 232.28198 
L 251.093063 232.28198 
L 251.093063 220.305743 
L 251.628815 220.305743 
L 251.628815 219.507327 
L 252.433654 219.507327 
L 252.487101 217.910495 
L 252.567755 217.910495 
L 252.625634 216.313663 
L 252.787211 216.313663 
L 252.871831 214.716832 
L 252.956146 214.716832 
L 252.956146 213.918416 
L 253.089826 213.918416 
L 253.089826 213.12 
L 253.243765 213.12 
L 253.275601 211.523168 
L 253.387005 211.523168 
L 253.388049 209.926337 
L 253.539216 209.926337 
L 253.539216 209.127921 
L 253.745057 209.127921 
L 253.839619 207.531089 
L 254.032411 207.531089 
L 254.067255 205.934257 
L 254.277951 205.934257 
L 254.277951 205.135842 
L 254.521675 205.135842 
L 254.629148 203.53901 
L 254.742359 203.53901 
L 254.742359 202.740594 
L 254.867767 202.740594 
L 254.969785 201.143762 
L 255.177885 201.143762 
L 255.221335 199.546931 
L 255.382304 199.546931 
L 255.382304 198.748515 
L 255.523659 198.748515 
L 255.544311 197.151683 
L 255.892256 197.151683 
L 255.922788 195.554851 
L 256.231567 195.554851 
L 256.294661 193.95802 
L 256.614562 193.95802 
L 256.614562 193.159604 
L 256.956642 193.159604 
L 256.956642 192.361188 
L 257.180757 192.361188 
L 257.276277 189.965941 
L 257.296356 189.965941 
L 257.296356 189.167525 
L 257.538713 189.167525 
L 257.554123 187.570693 
L 257.716813 187.570693 
L 257.716813 186.772277 
L 257.899842 186.772277 
L 257.899842 185.973861 
L 258.949968 185.973861 
L 258.976003 184.37703 
L 259.256908 184.37703 
L 259.256908 183.578614 
L 259.40174 183.578614 
L 259.486717 181.183366 
L 259.562862 181.183366 
L 259.562862 180.38495 
L 259.688342 180.38495 
L 259.788415 178.788119 
L 259.856964 178.788119 
L 259.908056 177.191287 
L 259.997371 177.191287 
L 260.093798 175.594455 
L 260.489023 175.594455 
L 260.520709 173.199208 
L 260.623049 173.199208 
L 260.623049 172.400792 
L 260.821125 172.400792 
L 260.821125 171.602376 
L 260.954997 171.602376 
L 260.954997 170.80396 
L 261.27707 170.80396 
L 261.27707 170.005545 
L 261.573972 170.005545 
L 261.635263 167.610297 
L 261.706988 167.610297 
L 261.706988 166.811881 
L 261.887249 166.811881 
L 261.887249 166.013465 
L 262.010019 166.013465 
L 262.096576 162.819802 
L 262.236491 162.819802 
L 262.236491 162.021386 
L 262.378425 162.021386 
L 262.378425 161.22297 
L 262.493059 161.22297 
L 262.518538 158.827723 
L 262.874111 158.827723 
L 262.940086 156.432475 
L 263.059915 156.432475 
L 263.109655 154.835644 
L 263.302871 154.835644 
L 263.302871 154.037228 
L 263.437536 154.037228 
L 263.458085 152.440396 
L 263.554566 152.440396 
L 263.554566 151.64198 
L 263.672485 151.64198 
L 263.762182 150.045149 
L 263.98159 150.045149 
L 264.058226 148.448317 
L 264.102507 148.448317 
L 264.102507 147.649901 
L 264.249481 147.649901 
L 264.249481 146.851485 
L 264.689824 146.851485 
L 264.689824 146.053069 
L 264.846247 146.053069 
L 264.846247 145.254653 
L 265.062445 145.254653 
L 265.062445 144.456238 
L 265.252311 144.456238 
L 265.336752 142.859406 
L 265.783459 142.859406 
L 265.888838 141.262574 
L 266.243298 141.262574 
L 266.274473 138.867327 
L 266.757562 138.867327 
L 266.757562 138.068911 
L 267.092129 138.068911 
L 267.092129 137.270495 
L 267.216144 137.270495 
L 267.271804 135.673663 
L 267.508526 135.673663 
L 267.575083 133.278416 
L 268.277045 133.278416 
L 268.277045 132.48 
L 268.413299 132.48 
L 268.431207 130.883168 
L 268.639301 130.883168 
L 268.639301 130.084752 
L 269.02819 130.084752 
L 269.02819 129.286337 
L 269.300066 129.286337 
L 269.300066 128.487921 
L 269.779999 128.487921 
L 269.779999 127.689505 
L 269.977671 127.689505 
L 270.006571 125.294257 
L 270.777536 125.294257 
L 270.795722 122.89901 
L 271.194094 122.89901 
L 271.194094 122.100594 
L 271.486964 122.100594 
L 271.486964 121.302178 
L 271.791704 121.302178 
L 271.791704 120.503762 
L 272.204773 120.503762 
L 272.204773 119.705347 
L 272.342679 119.705347 
L 272.342679 118.906931 
L 272.700105 118.906931 
L 272.700105 118.108515 
L 272.916691 118.108515 
L 272.944007 116.511683 
L 273.242815 116.511683 
L 273.242815 115.713267 
L 273.794956 115.713267 
L 273.794956 114.914851 
L 273.938946 114.914851 
L 273.99853 113.31802 
L 274.055282 113.31802 
L 274.092055 111.721188 
L 274.204218 111.721188 
L 274.254606 110.124356 
L 274.560196 110.124356 
L 274.560196 109.325941 
L 275.482063 109.325941 
L 275.501698 107.729109 
L 275.801068 107.729109 
L 275.901688 105.333861 
L 276.698359 105.333861 
L 276.698359 104.535446 
L 276.841871 104.535446 
L 276.841871 103.73703 
L 276.975793 103.73703 
L 276.975793 102.938614 
L 277.120216 102.938614 
L 277.120216 102.140198 
L 277.729088 102.140198 
L 277.729088 101.341782 
L 277.917041 101.341782 
L 277.917041 100.543366 
L 278.084251 100.543366 
L 278.084251 99.74495 
L 286.446266 99.74495 
L 286.446266 98.946535 
L 286.586337 98.946535 
L 286.586337 98.148119 
L 288.934584 98.148119 
L 288.934584 97.349703 
L 289.214486 97.349703 
L 289.214486 96.551287 
L 290.573395 96.551287 
L 290.573395 95.752871 
L 290.848866 95.752871 
L 290.957271 94.15604 
L 291.156328 94.15604 
L 291.156328 93.357624 
L 291.638137 93.357624 
L 291.638137 92.559208 
L 292.165046 92.559208 
L 292.165046 91.760792 
L 292.504404 91.760792 
L 292.605507 90.16396 
L 293.762631 90.16396 
L 293.790772 88.567129 
L 294.750915 88.567129 
L 294.750915 87.768713 
L 294.985318 87.768713 
L 294.985318 86.970297 
L 295.74137 86.970297 
L 295.74137 86.171881 
L 295.961624 86.171881 
L 295.961624 85.373465 
L 296.130726 85.373465 
L 296.130726 84.57505 
L 296.663331 84.57505 
L 296.663331 83.776634 
L 300.114008 83.776634 
L 300.114008 82.978218 
L 300.802218 82.978218 
L 300.802218 82.179802 
L 302.765353 82.179802 
L 302.765353 81.381386 
L 303.603124 81.381386 
L 303.603124 80.58297 
L 305.019755 80.58297 
L 305.019755 79.784554 
L 306.498522 79.784554 
L 306.503839 78.187723 
L 308.163751 78.187723 
L 308.163751 77.389307 
L 308.72694 77.389307 
L 308.72694 76.590891 
L 312.818456 76.590891 
L 312.818456 75.792475 
L 313.14971 75.792475 
L 313.14971 74.994059 
L 315.238412 74.994059 
L 315.238412 65.413069 
L 321.65526 65.413069 
L 321.65526 64.614653 
L 323.796981 64.614653 
L 323.796981 63.816238 
L 324.652822 63.816238 
L 324.652822 63.017822 
L 327.041591 63.017822 
L 327.041591 62.219406 
L 327.298719 62.219406 
L 327.298719 61.42099 
L 327.55045 61.42099 
L 327.55045 60.622574 
L 329.451592 60.622574 
L 329.451592 59.824158 
L 331.489101 59.824158 
L 331.489101 59.025743 
L 332.47473 59.025743 
L 332.47473 58.227327 
L 335.688308 58.227327 
L 335.688308 57.428911 
L 336.625366 57.428911 
L 336.625366 56.630495 
L 337.220751 56.630495 
L 337.220751 55.832079 
L 337.726743 55.832079 
L 337.726743 55.033663 
L 341.054189 55.033663 
L 341.054189 54.235248 
L 341.348253 54.235248 
L 341.390884 52.638416 
L 341.709715 52.638416 
L 341.709715 51.84 
L 342.326648 51.84 
L 342.326648 51.041584 
L 345.874643 51.041584 
L 345.874643 50.243168 
L 347.359588 50.243168 
L 347.359588 49.444752 
L 347.641081 49.444752 
L 347.641081 48.646337 
L 348.572035 48.646337 
L 348.572035 47.847921 
L 349.427672 47.847921 
L 349.427672 47.049505 
L 350.282228 47.049505 
L 350.282228 46.251089 
L 352.180013 46.251089 
L 352.180013 45.452673 
L 352.300092 45.452673 
L 352.300092 44.654257 
L 353.013027 44.654257 
L 353.013027 43.855842 
L 353.79824 43.855842 
L 353.79824 43.057426 
L 354.064664 43.057426 
L 354.064664 42.25901 
L 354.888865 42.25901 
L 354.888865 41.460594 
L 357.54528 41.460594 
L 357.54528 40.662178 
L 359.974607 40.662178 
L 359.974607 39.863762 
L 361.883551 39.863762 
L 361.883551 39.065347 
L 362.811478 39.065347 
L 362.811478 38.266931 
L 364.110977 38.266931 
L 364.110977 37.468515 
L 365.58941 37.468515 
L 365.69108 35.871683 
L 368.696315 35.871683 
L 368.696315 35.073267 
L 368.922484 35.073267 
L 368.922484 34.274851 
L 369.366903 34.274851 
L 369.366903 33.476436 
L 369.581789 33.476436 
L 369.581789 32.67802 
L 372.559535 32.67802 
L 372.559535 31.879604 
L 375.012824 31.879604 
L 375.012824 31.081188 
L 376.318179 31.081188 
L 376.318179 30.282772 
L 377.800807 30.282772 
L 377.800807 29.484356 
L 379.309817 29.484356 
L 379.309817 28.685941 
L 379.721959 28.685941 
L 379.721959 27.887525 
L 381.517422 27.887525 
L 381.517422 27.089109 
L 382.414964 27.089109 
L 382.414964 26.290693 
L 383.287093 26.290693 
L 383.287093 25.492277 
L 386.285021 25.492277 
L 386.285021 24.693861 
L 388.087283 24.693861 
L 388.087283 23.895446 
L 390.195878 23.895446 
L 390.195878 23.09703 
L 393.048623 23.09703 
L 393.048623 22.298614 
L 394.030009 22.298614 
L 394.030009 21.500198 
L 394.976938 21.500198 
L 394.976938 20.701782 
L 398.588619 20.701782 
L 398.588619 19.903366 
L 398.709295 19.903366 
L 398.709295 19.10495 
L 399.750409 19.10495 
L 399.750409 18.306535 
L 400.472478 18.306535 
L 400.472478 17.508119 
L 402.048101 17.508119 
L 402.048101 16.709703 
L 402.530403 16.709703 
L 402.530403 15.911287 
L 405.887687 15.911287 
L 405.972882 14.314455 
L 406.277914 14.314455 
L 406.277914 13.51604 
L 407.591535 13.51604 
L 407.591535 12.717624 
L 413.861265 12.717624 
L 413.861265 11.919208 
L 416.650953 11.919208 
L 416.747323 10.322376 
L 416.804939 10.322376 
L 416.851039 7.927129 
L 429.452638 7.927129 
L 429.452638 7.128713 
L 432.628306 7.128713 
L 432.628306 6.330297 
L 432.628306 6.330297 
L 460.8 6.330297 
L 460.8 6.330297 
" clip-path="url(#p3ef842841a)" style="fill: none; stroke: #bf00bf; stroke-width: 1.5; stroke-linecap: square"/>
   </g>
   <g id="patch_3">
    <path d="M 0 293.76 
L 0 3.456 
" style="fill: none; stroke: #000000; stroke-width: 0.8; stroke-linejoin: miter; stroke-linecap: square"/>
   </g>
   <g id="patch_4">
    <path d="M 460.8 293.76 
L 460.8 3.456 
" style="fill: none; stroke: #000000; stroke-width: 0.8; stroke-linejoin: miter; stroke-linecap: square"/>
   </g>
   <g id="patch_5">
    <path d="M 0 293.76 
L 460.8 293.76 
" style="fill: none; stroke: #000000; stroke-width: 0.8; stroke-linejoin: miter; stroke-linecap: square"/>
   </g>
   <g id="patch_6">
    <path d="M 0 3.456 
L 460.8 3.456 
" style="fill: none; stroke: #000000; stroke-width: 0.8; stroke-linejoin: miter; stroke-linecap: square"/>
   </g>
   <g id="text_6">
    <!-- {f1-f24}, 5-D -->
    <g transform="translate(318.609 287.95392) scale(0.2 -0.2)">
     <defs>
      <path id="DejaVuSans-7b" d="M 3272 -594 
L 3272 -1044 
L 3078 -1044 
Q 2300 -1044 2036 -812 
Q 1772 -581 1772 109 
L 1772 856 
Q 1772 1328 1603 1509 
Q 1434 1691 991 1691 
L 800 1691 
L 800 2138 
L 991 2138 
Q 1438 2138 1605 2317 
Q 1772 2497 1772 2963 
L 1772 3713 
Q 1772 4403 2036 4633 
Q 2300 4863 3078 4863 
L 3272 4863 
L 3272 4416 
L 3059 4416 
Q 2619 4416 2484 4278 
Q 2350 4141 2350 3700 
L 2350 2925 
Q 2350 2434 2208 2212 
Q 2066 1991 1722 1913 
Q 2069 1828 2209 1606 
Q 2350 1384 2350 897 
L 2350 122 
Q 2350 -319 2484 -456 
Q 2619 -594 3059 -594 
L 3272 -594 
z
" transform="scale(0.015625)"/>
      <path id="DejaVuSans-32" d="M 1228 531 
L 3431 531 
L 3431 0 
L 469 0 
L 469 531 
Q 828 903 1448 1529 
Q 2069 2156 2228 2338 
Q 2531 2678 2651 2914 
Q 2772 3150 2772 3378 
Q 2772 3750 2511 3984 
Q 2250 4219 1831 4219 
Q 1534 4219 1204 4116 
Q 875 4013 500 3803 
L 500 4441 
Q 881 4594 1212 4672 
Q 1544 4750 1819 4750 
Q 2544 4750 2975 4387 
Q 3406 4025 3406 3419 
Q 3406 3131 3298 2873 
Q 3191 2616 2906 2266 
Q 2828 2175 2409 1742 
Q 1991 1309 1228 531 
z
" transform="scale(0.015625)"/>
      <path id="DejaVuSans-7d" d="M 800 -594 
L 1019 -594 
Q 1456 -594 1589 -459 
Q 1722 -325 1722 122 
L 1722 897 
Q 1722 1384 1862 1606 
Q 2003 1828 2350 1913 
Q 2003 1991 1862 2212 
Q 1722 2434 1722 2925 
L 1722 3700 
Q 1722 4144 1589 4280 
Q 1456 4416 1019 4416 
L 800 4416 
L 800 4863 
L 997 4863 
Q 1775 4863 2036 4633 
Q 2297 4403 2297 3713 
L 2297 2963 
Q 2297 2497 2465 2317 
Q 2634 2138 3078 2138 
L 3272 2138 
L 3272 1691 
L 3078 1691 
Q 2634 1691 2465 1509 
Q 2297 1328 2297 856 
L 2297 109 
Q 2297 -581 2036 -812 
Q 1775 -1044 997 -1044 
L 800 -1044 
L 800 -594 
z
" transform="scale(0.015625)"/>
      <path id="DejaVuSans-2c" d="M 750 794 
L 1409 794 
L 1409 256 
L 897 -744 
L 494 -744 
L 750 256 
L 750 794 
z
" transform="scale(0.015625)"/>
      <path id="DejaVuSans-35" d="M 691 4666 
L 3169 4666 
L 3169 4134 
L 1269 4134 
L 1269 2991 
Q 1406 3038 1543 3061 
Q 1681 3084 1819 3084 
Q 2600 3084 3056 2656 
Q 3513 2228 3513 1497 
Q 3513 744 3044 326 
Q 2575 -91 1722 -91 
Q 1428 -91 1123 -41 
Q 819 9 494 109 
L 494 744 
Q 775 591 1075 516 
Q 1375 441 1709 441 
Q 2250 441 2565 725 
Q 2881 1009 2881 1497 
Q 2881 1984 2565 2268 
Q 2250 2553 1709 2553 
Q 1456 2553 1204 2497 
Q 953 2441 691 2322 
L 691 4666 
z
" transform="scale(0.015625)"/>
     </defs>
     <use xlink:href="#DejaVuSans-7b"/>
     <use xlink:href="#DejaVuSans-66" x="63.623047"/>
     <use xlink:href="#DejaVuSans-31" x="98.828125"/>
     <use xlink:href="#DejaVuSans-2d" x="162.451172"/>
     <use xlink:href="#DejaVuSans-66" x="198.535156"/>
     <use xlink:href="#DejaVuSans-32" x="233.740234"/>
     <use xlink:href="#DejaVuSans-34" x="297.363281"/>
     <use xlink:href="#DejaVuSans-7d" x="360.986328"/>
     <use xlink:href="#DejaVuSans-2c" x="424.609375"/>
     <use xlink:href="#DejaVuSans-20" x="456.396484"/>
     <use xlink:href="#DejaVuSans-35" x="488.183594"/>
     <use xlink:href="#DejaVuSans-2d" x="551.806641"/>
     <use xlink:href="#DejaVuSans-44" x="587.890625"/>
    </g>
   </g>
   <g id="text_7">
    <!-- v2.6.3 -->
    <g style="fill: #808080" transform="translate(214.71875 288.777272) scale(0.1 -0.1)">
     <defs>
      <path id="DejaVuSans-76" d="M 191 3500 
L 800 3500 
L 1894 563 
L 2988 3500 
L 3597 3500 
L 2284 0 
L 1503 0 
L 191 3500 
z
" transform="scale(0.015625)"/>
      <path id="DejaVuSans-2e" d="M 684 794 
L 1344 794 
L 1344 0 
L 684 0 
L 684 794 
z
" transform="scale(0.015625)"/>
      <path id="DejaVuSans-36" d="M 2113 2584 
Q 1688 2584 1439 2293 
Q 1191 2003 1191 1497 
Q 1191 994 1439 701 
Q 1688 409 2113 409 
Q 2538 409 2786 701 
Q 3034 994 3034 1497 
Q 3034 2003 2786 2293 
Q 2538 2584 2113 2584 
z
M 3366 4563 
L 3366 3988 
Q 3128 4100 2886 4159 
Q 2644 4219 2406 4219 
Q 1781 4219 1451 3797 
Q 1122 3375 1075 2522 
Q 1259 2794 1537 2939 
Q 1816 3084 2150 3084 
Q 2853 3084 3261 2657 
Q 3669 2231 3669 1497 
Q 3669 778 3244 343 
Q 2819 -91 2113 -91 
Q 1303 -91 875 529 
Q 447 1150 447 2328 
Q 447 3434 972 4092 
Q 1497 4750 2381 4750 
Q 2619 4750 2861 4703 
Q 3103 4656 3366 4563 
z
" transform="scale(0.015625)"/>
      <path id="DejaVuSans-33" d="M 2597 2516 
Q 3050 2419 3304 2112 
Q 3559 1806 3559 1356 
Q 3559 666 3084 287 
Q 2609 -91 1734 -91 
Q 1441 -91 1130 -33 
Q 819 25 488 141 
L 488 750 
Q 750 597 1062 519 
Q 1375 441 1716 441 
Q 2309 441 2620 675 
Q 2931 909 2931 1356 
Q 2931 1769 2642 2001 
Q 2353 2234 1838 2234 
L 1294 2234 
L 1294 2753 
L 1863 2753 
Q 2328 2753 2575 2939 
Q 2822 3125 2822 3475 
Q 2822 3834 2567 4026 
Q 2313 4219 1838 4219 
Q 1578 4219 1281 4162 
Q 984 4106 628 3988 
L 628 4550 
Q 988 4650 1302 4700 
Q 1616 4750 1894 4750 
Q 2613 4750 3031 4423 
Q 3450 4097 3450 3541 
Q 3450 3153 3228 2886 
Q 3006 2619 2597 2516 
z
" transform="scale(0.015625)"/>
     </defs>
     <use xlink:href="#DejaVuSans-76"/>
     <use xlink:href="#DejaVuSans-32" x="59.179688"/>
     <use xlink:href="#DejaVuSans-2e" x="122.802734"/>
     <use xlink:href="#DejaVuSans-36" x="154.589844"/>
     <use xlink:href="#DejaVuSans-2e" x="218.212891"/>
     <use xlink:href="#DejaVuSans-33" x="250"/>
    </g>
   </g>
  </g>
 </g>
 <defs>
  <clipPath id="p3ef842841a">
   <rect x="0" y="3.456" width="460.8" height="290.304"/>
  </clipPath>
 </defs>
</svg>
