<?xml version="1.0" encoding="utf-8" standalone="no"?>
<!DOCTYPE svg PUBLIC "-//W3C//DTD SVG 1.1//EN"
  "http://www.w3.org/Graphics/SVG/1.1/DTD/svg11.dtd">
<svg xmlns:xlink="http://www.w3.org/1999/xlink" width="460.8pt" height="345.6pt" viewBox="0 0 460.8 345.6" xmlns="http://www.w3.org/2000/svg" version="1.1">
 <metadata>
  <rdf:RDF xmlns:dc="http://purl.org/dc/elements/1.1/" xmlns:cc="http://creativecommons.org/ns#" xmlns:rdf="http://www.w3.org/1999/02/22-rdf-syntax-ns#">
   <cc:Work>
    <dc:type rdf:resource="http://purl.org/dc/dcmitype/StillImage"/>
    <dc:date>2024-01-17T15:11:11.523225</dc:date>
    <dc:format>image/svg+xml</dc:format>
    <dc:creator>
     <cc:Agent>
      <dc:title>Matplotlib v3.8.2, https://matplotlib.org/</dc:title>
     </cc:Agent>
    </dc:creator>
   </cc:Work>
  </rdf:RDF>
 </metadata>
 <defs>
  <style type="text/css">*{stroke-linejoin: round; stroke-linecap: butt}</style>
 </defs>
 <g id="figure_1">
  <g id="patch_1">
   <path d="M 0 345.6 
L 460.8 345.6 
L 460.8 0 
L 0 0 
z
" style="fill: #ffffff"/>
  </g>
  <g id="axes_1">
   <g id="patch_2">
    <path d="M 0 293.76 
L 460.8 293.76 
L 460.8 3.456 
L 0 3.456 
z
" style="fill: #ffffff"/>
   </g>
   <g id="matplotlib.axis_1">
    <g id="xtick_1">
     <g id="line2d_1">
      <path d="M 106.611868 293.76 
L 106.611868 3.456 
" clip-path="url(#p2ed17d086d)" style="fill: none; stroke: #b0b0b0; stroke-width: 0.8; stroke-linecap: square"/>
     </g>
     <g id="line2d_2">
      <defs>
       <path id="m841d1c0c3b" d="M 0 0 
L 0 3.5 
" style="stroke: #000000; stroke-width: 0.8"/>
      </defs>
      <g>
       <use xlink:href="#m841d1c0c3b" x="106.611868" y="293.76" style="stroke: #000000; stroke-width: 0.8"/>
      </g>
     </g>
     <g id="text_1">
      <!-- -4 -->
      <g transform="translate(96.641555 315.956875) scale(0.2 -0.2)">
       <defs>
        <path id="DejaVuSans-2d" d="M 313 2009 
L 1997 2009 
L 1997 1497 
L 313 1497 
L 313 2009 
z
" transform="scale(0.015625)"/>
        <path id="DejaVuSans-34" d="M 2419 4116 
L 825 1625 
L 2419 1625 
L 2419 4116 
z
M 2253 4666 
L 3047 4666 
L 3047 1625 
L 3713 1625 
L 3713 1100 
L 3047 1100 
L 3047 0 
L 2419 0 
L 2419 1100 
L 313 1100 
L 313 1709 
L 2253 4666 
z
" transform="scale(0.015625)"/>
       </defs>
       <use xlink:href="#DejaVuSans-2d"/>
       <use xlink:href="#DejaVuSans-34" x="36.083984"/>
      </g>
     </g>
    </g>
    <g id="xtick_2">
     <g id="line2d_3">
      <path d="M 213.339037 293.76 
L 213.339037 3.456 
" clip-path="url(#p2ed17d086d)" style="fill: none; stroke: #b0b0b0; stroke-width: 0.8; stroke-linecap: square"/>
     </g>
     <g id="line2d_4">
      <g>
       <use xlink:href="#m841d1c0c3b" x="213.339037" y="293.76" style="stroke: #000000; stroke-width: 0.8"/>
      </g>
     </g>
     <g id="text_2">
      <!-- 0 -->
      <g transform="translate(206.976537 315.956875) scale(0.2 -0.2)">
       <defs>
        <path id="DejaVuSans-30" d="M 2034 4250 
Q 1547 4250 1301 3770 
Q 1056 3291 1056 2328 
Q 1056 1369 1301 889 
Q 1547 409 2034 409 
Q 2525 409 2770 889 
Q 3016 1369 3016 2328 
Q 3016 3291 2770 3770 
Q 2525 4250 2034 4250 
z
M 2034 4750 
Q 2819 4750 3233 4129 
Q 3647 3509 3647 2328 
Q 3647 1150 3233 529 
Q 2819 -91 2034 -91 
Q 1250 -91 836 529 
Q 422 1150 422 2328 
Q 422 3509 836 4129 
Q 1250 4750 2034 4750 
z
" transform="scale(0.015625)"/>
       </defs>
       <use xlink:href="#DejaVuSans-30"/>
      </g>
     </g>
    </g>
    <g id="xtick_3">
     <g id="line2d_5">
      <path d="M 320.066207 293.76 
L 320.066207 3.456 
" clip-path="url(#p2ed17d086d)" style="fill: none; stroke: #b0b0b0; stroke-width: 0.8; stroke-linecap: square"/>
     </g>
     <g id="line2d_6">
      <g>
       <use xlink:href="#m841d1c0c3b" x="320.066207" y="293.76" style="stroke: #000000; stroke-width: 0.8"/>
      </g>
     </g>
     <g id="text_3">
      <!-- 4 -->
      <g transform="translate(313.703707 315.956875) scale(0.2 -0.2)">
       <use xlink:href="#DejaVuSans-34"/>
      </g>
     </g>
    </g>
    <g id="xtick_4">
     <g id="line2d_7">
      <path d="M 426.793377 293.76 
L 426.793377 3.456 
" clip-path="url(#p2ed17d086d)" style="fill: none; stroke: #b0b0b0; stroke-width: 0.8; stroke-linecap: square"/>
     </g>
     <g id="line2d_8">
      <g>
       <use xlink:href="#m841d1c0c3b" x="426.793377" y="293.76" style="stroke: #000000; stroke-width: 0.8"/>
      </g>
     </g>
     <g id="text_4">
      <!-- 8 -->
      <g transform="translate(420.430877 315.956875) scale(0.2 -0.2)">
       <defs>
        <path id="DejaVuSans-38" d="M 2034 2216 
Q 1584 2216 1326 1975 
Q 1069 1734 1069 1313 
Q 1069 891 1326 650 
Q 1584 409 2034 409 
Q 2484 409 2743 651 
Q 3003 894 3003 1313 
Q 3003 1734 2745 1975 
Q 2488 2216 2034 2216 
z
M 1403 2484 
Q 997 2584 770 2862 
Q 544 3141 544 3541 
Q 544 4100 942 4425 
Q 1341 4750 2034 4750 
Q 2731 4750 3128 4425 
Q 3525 4100 3525 3541 
Q 3525 3141 3298 2862 
Q 3072 2584 2669 2484 
Q 3125 2378 3379 2068 
Q 3634 1759 3634 1313 
Q 3634 634 3220 271 
Q 2806 -91 2034 -91 
Q 1263 -91 848 271 
Q 434 634 434 1313 
Q 434 1759 690 2068 
Q 947 2378 1403 2484 
z
M 1172 3481 
Q 1172 3119 1398 2916 
Q 1625 2713 2034 2713 
Q 2441 2713 2670 2916 
Q 2900 3119 2900 3481 
Q 2900 3844 2670 4047 
Q 2441 4250 2034 4250 
Q 1625 4250 1398 4047 
Q 1172 3844 1172 3481 
z
" transform="scale(0.015625)"/>
       </defs>
       <use xlink:href="#DejaVuSans-38"/>
      </g>
     </g>
    </g>
    <g id="text_5">
     <!-- log10 of Df -->
     <g transform="translate(175.214063 339.313125) scale(0.2 -0.2)">
      <defs>
       <path id="DejaVuSans-6c" d="M 603 4863 
L 1178 4863 
L 1178 0 
L 603 0 
L 603 4863 
z
" transform="scale(0.015625)"/>
       <path id="DejaVuSans-6f" d="M 1959 3097 
Q 1497 3097 1228 2736 
Q 959 2375 959 1747 
Q 959 1119 1226 758 
Q 1494 397 1959 397 
Q 2419 397 2687 759 
Q 2956 1122 2956 1747 
Q 2956 2369 2687 2733 
Q 2419 3097 1959 3097 
z
M 1959 3584 
Q 2709 3584 3137 3096 
Q 3566 2609 3566 1747 
Q 3566 888 3137 398 
Q 2709 -91 1959 -91 
Q 1206 -91 779 398 
Q 353 888 353 1747 
Q 353 2609 779 3096 
Q 1206 3584 1959 3584 
z
" transform="scale(0.015625)"/>
       <path id="DejaVuSans-67" d="M 2906 1791 
Q 2906 2416 2648 2759 
Q 2391 3103 1925 3103 
Q 1463 3103 1205 2759 
Q 947 2416 947 1791 
Q 947 1169 1205 825 
Q 1463 481 1925 481 
Q 2391 481 2648 825 
Q 2906 1169 2906 1791 
z
M 3481 434 
Q 3481 -459 3084 -895 
Q 2688 -1331 1869 -1331 
Q 1566 -1331 1297 -1286 
Q 1028 -1241 775 -1147 
L 775 -588 
Q 1028 -725 1275 -790 
Q 1522 -856 1778 -856 
Q 2344 -856 2625 -561 
Q 2906 -266 2906 331 
L 2906 616 
Q 2728 306 2450 153 
Q 2172 0 1784 0 
Q 1141 0 747 490 
Q 353 981 353 1791 
Q 353 2603 747 3093 
Q 1141 3584 1784 3584 
Q 2172 3584 2450 3431 
Q 2728 3278 2906 2969 
L 2906 3500 
L 3481 3500 
L 3481 434 
z
" transform="scale(0.015625)"/>
       <path id="DejaVuSans-31" d="M 794 531 
L 1825 531 
L 1825 4091 
L 703 3866 
L 703 4441 
L 1819 4666 
L 2450 4666 
L 2450 531 
L 3481 531 
L 3481 0 
L 794 0 
L 794 531 
z
" transform="scale(0.015625)"/>
       <path id="DejaVuSans-20" transform="scale(0.015625)"/>
       <path id="DejaVuSans-66" d="M 2375 4863 
L 2375 4384 
L 1825 4384 
Q 1516 4384 1395 4259 
Q 1275 4134 1275 3809 
L 1275 3500 
L 2222 3500 
L 2222 3053 
L 1275 3053 
L 1275 0 
L 697 0 
L 697 3053 
L 147 3053 
L 147 3500 
L 697 3500 
L 697 3744 
Q 697 4328 969 4595 
Q 1241 4863 1831 4863 
L 2375 4863 
z
" transform="scale(0.015625)"/>
       <path id="DejaVuSans-44" d="M 1259 4147 
L 1259 519 
L 2022 519 
Q 2988 519 3436 956 
Q 3884 1394 3884 2338 
Q 3884 3275 3436 3711 
Q 2988 4147 2022 4147 
L 1259 4147 
z
M 628 4666 
L 1925 4666 
Q 3281 4666 3915 4102 
Q 4550 3538 4550 2338 
Q 4550 1131 3912 565 
Q 3275 0 1925 0 
L 628 0 
L 628 4666 
z
" transform="scale(0.015625)"/>
      </defs>
      <use xlink:href="#DejaVuSans-6c"/>
      <use xlink:href="#DejaVuSans-6f" x="27.783203"/>
      <use xlink:href="#DejaVuSans-67" x="88.964844"/>
      <use xlink:href="#DejaVuSans-31" x="152.441406"/>
      <use xlink:href="#DejaVuSans-30" x="216.064453"/>
      <use xlink:href="#DejaVuSans-20" x="279.6875"/>
      <use xlink:href="#DejaVuSans-6f" x="311.474609"/>
      <use xlink:href="#DejaVuSans-66" x="372.65625"/>
      <use xlink:href="#DejaVuSans-20" x="407.861328"/>
      <use xlink:href="#DejaVuSans-44" x="439.648438"/>
      <use xlink:href="#DejaVuSans-66" x="516.650391"/>
     </g>
    </g>
   </g>
   <g id="matplotlib.axis_2">
    <g id="ytick_1">
     <g id="line2d_9">
      <path d="M 0 293.76 
L 460.8 293.76 
" clip-path="url(#p2ed17d086d)" style="fill: none; stroke: #b0b0b0; stroke-width: 0.8; stroke-linecap: square"/>
     </g>
     <g id="line2d_10">
      <defs>
       <path id="mc915065cb0" d="M 0 0 
L -3.5 0 
" style="stroke: #000000; stroke-width: 0.8"/>
      </defs>
      <g>
       <use xlink:href="#mc915065cb0" x="0" y="293.76" style="stroke: #000000; stroke-width: 0.8"/>
      </g>
     </g>
    </g>
    <g id="ytick_2">
     <g id="line2d_11">
      <path d="M 0 236.274059 
L 460.8 236.274059 
" clip-path="url(#p2ed17d086d)" style="fill: none; stroke: #b0b0b0; stroke-width: 0.8; stroke-linecap: square"/>
     </g>
     <g id="line2d_12">
      <g>
       <use xlink:href="#mc915065cb0" x="0" y="236.274059" style="stroke: #000000; stroke-width: 0.8"/>
      </g>
     </g>
    </g>
    <g id="ytick_3">
     <g id="line2d_13">
      <path d="M 0 178.788119 
L 460.8 178.788119 
" clip-path="url(#p2ed17d086d)" style="fill: none; stroke: #b0b0b0; stroke-width: 0.8; stroke-linecap: square"/>
     </g>
     <g id="line2d_14">
      <g>
       <use xlink:href="#mc915065cb0" x="0" y="178.788119" style="stroke: #000000; stroke-width: 0.8"/>
      </g>
     </g>
    </g>
    <g id="ytick_4">
     <g id="line2d_15">
      <path d="M 0 121.302178 
L 460.8 121.302178 
" clip-path="url(#p2ed17d086d)" style="fill: none; stroke: #b0b0b0; stroke-width: 0.8; stroke-linecap: square"/>
     </g>
     <g id="line2d_16">
      <g>
       <use xlink:href="#mc915065cb0" x="0" y="121.302178" style="stroke: #000000; stroke-width: 0.8"/>
      </g>
     </g>
    </g>
    <g id="ytick_5">
     <g id="line2d_17">
      <path d="M 0 63.816238 
L 460.8 63.816238 
" clip-path="url(#p2ed17d086d)" style="fill: none; stroke: #b0b0b0; stroke-width: 0.8; stroke-linecap: square"/>
     </g>
     <g id="line2d_18">
      <g>
       <use xlink:href="#mc915065cb0" x="0" y="63.816238" style="stroke: #000000; stroke-width: 0.8"/>
      </g>
     </g>
    </g>
    <g id="ytick_6">
     <g id="line2d_19">
      <path d="M 0 6.330297 
L 460.8 6.330297 
" clip-path="url(#p2ed17d086d)" style="fill: none; stroke: #b0b0b0; stroke-width: 0.8; stroke-linecap: square"/>
     </g>
     <g id="line2d_20">
      <g>
       <use xlink:href="#mc915065cb0" x="0" y="6.330297" style="stroke: #000000; stroke-width: 0.8"/>
      </g>
     </g>
    </g>
   </g>
   <g id="line2d_21">
    <path d="M 226.181175 293.76 
L 226.181175 289.927604 
L 228.12522 289.927604 
L 228.12522 286.095208 
L 230.582449 286.095208 
L 230.582449 282.262812 
L 233.366731 282.262812 
L 233.366731 278.430416 
L 233.689255 278.430416 
L 233.689255 274.59802 
L 238.133937 274.59802 
L 238.133937 270.765624 
L 239.532655 270.765624 
L 239.532655 266.933228 
L 240.590711 266.933228 
L 240.590711 263.100832 
L 242.429574 263.100832 
L 242.429574 259.268436 
L 242.954337 259.268436 
L 242.954337 255.43604 
L 243.108169 255.43604 
L 243.108169 251.603644 
L 246.623784 251.603644 
L 246.623784 247.771248 
L 247.295625 247.771248 
L 247.295625 243.938851 
L 248.90216 243.938851 
L 248.90216 240.106455 
L 257.554123 240.106455 
L 257.554123 236.274059 
L 278.875212 236.274059 
L 278.978685 228.609267 
L 280.248116 228.609267 
L 280.248116 224.776871 
L 285.978146 224.776871 
L 285.978146 220.944475 
L 286.586337 220.944475 
L 286.586337 217.112079 
L 288.934584 217.112079 
L 289.005221 209.447287 
L 289.214486 209.447287 
L 289.214486 205.614891 
L 289.918465 205.614891 
L 289.930152 197.950099 
L 290.957271 197.950099 
L 290.957271 194.117703 
L 291.156328 194.117703 
L 291.156328 190.285307 
L 292.765908 190.285307 
L 292.765908 186.452911 
L 293.790772 186.452911 
L 293.790772 182.620515 
L 296.130726 182.620515 
L 296.130726 178.788119 
L 300.802218 178.788119 
L 300.802218 174.955723 
L 323.35474 174.955723 
L 323.35474 171.123327 
L 324.652822 171.123327 
L 324.652822 167.290931 
L 326.910645 167.290931 
L 326.910645 163.458535 
L 331.489101 163.458535 
L 331.489101 159.626139 
L 332.47473 159.626139 
L 332.47473 155.793743 
L 334.144891 155.793743 
L 334.159007 148.12895 
L 335.688308 148.12895 
L 335.688308 144.296554 
L 335.880045 144.296554 
L 335.880045 140.464158 
L 337.726743 140.464158 
L 337.726743 136.631762 
L 340.970827 136.631762 
L 340.970827 132.799366 
L 341.709715 132.799366 
L 341.709715 128.96697 
L 342.326648 128.96697 
L 342.326648 125.134574 
L 342.963645 125.134574 
L 342.963645 121.302178 
L 346.459083 121.302178 
L 346.459083 117.469782 
L 349.028079 117.469782 
L 349.028079 113.637386 
L 354.064664 113.637386 
L 354.16136 105.972594 
L 358.81523 105.972594 
L 358.81523 102.140198 
L 362.811478 102.140198 
L 362.811478 98.307802 
L 365.89879 98.307802 
L 365.89879 94.475406 
L 369.581789 94.475406 
L 369.581789 90.64301 
L 373.290505 90.64301 
L 373.290505 86.810614 
L 374.815809 86.810614 
L 374.815809 82.978218 
L 375.012824 82.978218 
L 375.012824 79.145822 
L 379.721959 79.145822 
L 379.721959 75.313426 
L 381.934519 75.313426 
L 381.934519 71.48103 
L 385.796614 71.48103 
L 385.796614 67.648634 
L 391.227152 67.648634 
L 391.227152 63.816238 
L 394.030009 63.816238 
L 394.030009 59.983842 
L 398.149441 59.983842 
L 398.149441 56.151446 
L 398.709295 56.151446 
L 398.709295 52.31905 
L 399.750409 52.31905 
L 399.750409 48.486653 
L 401.268013 48.486653 
L 401.268013 44.654257 
L 402.048101 44.654257 
L 402.048101 40.821861 
L 405.887687 40.821861 
L 405.887687 36.989465 
L 407.160768 36.989465 
L 407.160768 33.157069 
L 407.409011 33.157069 
L 407.409011 29.324673 
L 407.591535 29.324673 
L 407.591535 25.492277 
L 410.550312 25.492277 
L 410.550312 21.659881 
L 413.861265 21.659881 
L 413.861265 17.827485 
L 415.442376 17.827485 
L 415.442376 13.995089 
L 415.887615 13.995089 
L 415.887615 10.162693 
L 416.804939 10.162693 
L 416.804939 6.330297 
L 416.804939 6.330297 
L 460.8 6.330297 
L 460.8 6.330297 
" clip-path="url(#p2ed17d086d)" style="fill: none; stroke: #ff0000; stroke-width: 3; stroke-linecap: square"/>
   </g>
   <g id="line2d_22">
    <path d="M 226.181175 293.76 
L 226.181175 289.927604 
L 230.582449 289.927604 
L 230.582449 286.095208 
L 233.366731 286.095208 
L 233.366731 282.262812 
L 233.689255 282.262812 
L 233.689255 278.430416 
L 240.741405 278.430416 
L 240.741405 274.59802 
L 243.824192 274.59802 
L 243.824192 270.765624 
L 246.775384 270.765624 
L 246.775384 266.933228 
L 249.456654 266.933228 
L 249.456654 263.100832 
L 250.916047 263.100832 
L 250.916047 259.268436 
L 256.707268 259.268436 
L 256.707268 255.43604 
L 257.854521 255.43604 
L 257.854521 251.603644 
L 259.688342 251.603644 
L 259.688342 247.771248 
L 261.468848 247.771248 
L 261.468848 243.938851 
L 266.026849 243.938851 
L 266.026849 240.106455 
L 266.456157 240.106455 
L 266.456157 236.274059 
L 286.446266 236.274059 
L 286.446266 232.441663 
L 288.934584 232.441663 
L 288.934584 228.609267 
L 289.214486 228.609267 
L 289.214486 224.776871 
L 290.573395 224.776871 
L 290.573395 220.944475 
L 290.957271 220.944475 
L 290.957271 217.112079 
L 291.156328 217.112079 
L 291.156328 213.279683 
L 292.165046 213.279683 
L 292.165046 209.447287 
L 292.605507 209.447287 
L 292.605507 205.614891 
L 293.928978 205.614891 
L 293.928978 201.782495 
L 294.985318 201.782495 
L 294.985318 197.950099 
L 295.273752 197.950099 
L 295.273752 194.117703 
L 296.130726 194.117703 
L 296.130726 190.285307 
L 296.397353 190.285307 
L 296.397353 186.452911 
L 297.30486 186.452911 
L 297.30486 182.620515 
L 300.528849 182.620515 
L 300.528849 178.788119 
L 300.909873 178.788119 
L 300.909873 174.955723 
L 332.47473 174.955723 
L 332.47473 171.123327 
L 336.323315 171.123327 
L 336.323315 167.290931 
L 337.726743 167.290931 
L 337.726743 163.458535 
L 346.46857 163.458535 
L 346.46857 159.626139 
L 348.572035 159.626139 
L 348.572035 155.793743 
L 354.064664 155.793743 
L 354.064664 151.961347 
L 362.273577 151.961347 
L 362.273577 148.12895 
L 362.811478 148.12895 
L 362.811478 144.296554 
L 369.581789 144.296554 
L 369.581789 140.464158 
L 371.024899 140.464158 
L 371.024899 136.631762 
L 373.730725 136.631762 
L 373.730725 132.799366 
L 381.60931 132.799366 
L 381.60931 128.96697 
L 381.836565 128.96697 
L 381.836565 125.134574 
L 382.647917 125.134574 
L 382.647917 121.302178 
L 384.628845 121.302178 
L 384.628845 117.469782 
L 385.665027 117.469782 
L 385.665027 113.637386 
L 386.285021 113.637386 
L 386.285021 109.80499 
L 388.355051 109.80499 
L 388.355051 105.972594 
L 390.549243 105.972594 
L 390.549243 102.140198 
L 392.359841 102.140198 
L 392.359841 98.307802 
L 392.876619 98.307802 
L 392.876619 94.475406 
L 394.030009 94.475406 
L 394.030009 90.64301 
L 394.263349 90.64301 
L 394.263349 86.810614 
L 394.976938 86.810614 
L 394.976938 82.978218 
L 395.324152 82.978218 
L 395.324152 79.145822 
L 396.72643 79.145822 
L 396.72643 75.313426 
L 397.024207 75.313426 
L 397.024207 71.48103 
L 398.709295 71.48103 
L 398.709295 67.648634 
L 399.750409 67.648634 
L 399.750409 63.816238 
L 402.530403 63.816238 
L 402.530403 59.983842 
L 403.1279 59.983842 
L 403.1279 56.151446 
L 405.887687 56.151446 
L 405.887687 52.31905 
L 406.277914 52.31905 
L 406.277914 48.486653 
L 407.591535 48.486653 
L 407.591535 44.654257 
L 409.519853 44.654257 
L 409.519853 40.821861 
L 413.861265 40.821861 
L 413.861265 36.989465 
L 416.747323 36.989465 
L 416.851039 25.492277 
L 417.387714 25.492277 
L 417.387714 21.659881 
L 417.865741 21.659881 
L 417.865741 17.827485 
L 431.666325 17.827485 
L 431.666325 13.995089 
L 441.380497 13.995089 
L 441.380497 10.162693 
L 448.252015 10.162693 
L 448.252015 6.330297 
L 448.252015 6.330297 
L 460.8 6.330297 
L 460.8 6.330297 
" clip-path="url(#p2ed17d086d)" style="fill: none; stroke: #00bfbf; stroke-width: 1.5; stroke-linecap: square"/>
   </g>
   <g id="line2d_23">
    <path d="M 226.181175 293.76 
L 226.181175 289.927604 
L 228.12522 289.927604 
L 228.12522 286.095208 
L 230.582449 286.095208 
L 230.582449 282.262812 
L 233.366731 282.262812 
L 233.366731 278.430416 
L 233.689255 278.430416 
L 233.689255 274.59802 
L 240.590711 274.59802 
L 240.590711 270.765624 
L 240.741405 270.765624 
L 240.741405 266.933228 
L 244.902668 266.933228 
L 244.902668 263.100832 
L 246.623784 263.100832 
L 246.623784 259.268436 
L 248.591627 259.268436 
L 248.591627 255.43604 
L 249.456654 255.43604 
L 249.456654 251.603644 
L 251.628815 251.603644 
L 251.628815 247.771248 
L 257.554123 247.771248 
L 257.554123 243.938851 
L 258.976003 243.938851 
L 258.976003 240.106455 
L 259.688342 240.106455 
L 259.688342 236.274059 
L 286.446266 236.274059 
L 286.446266 232.441663 
L 286.586337 232.441663 
L 286.586337 228.609267 
L 288.934584 228.609267 
L 288.934584 224.776871 
L 289.214486 224.776871 
L 289.214486 220.944475 
L 290.573395 220.944475 
L 290.573395 217.112079 
L 290.848866 217.112079 
L 290.957271 209.447287 
L 291.156328 209.447287 
L 291.156328 205.614891 
L 291.638137 205.614891 
L 291.638137 201.782495 
L 292.165046 201.782495 
L 292.165046 197.950099 
L 292.504404 197.950099 
L 292.605507 190.285307 
L 293.790772 190.285307 
L 293.790772 186.452911 
L 294.985318 186.452911 
L 294.985318 182.620515 
L 296.130726 182.620515 
L 296.130726 178.788119 
L 300.802218 178.788119 
L 300.802218 174.955723 
L 324.652822 174.955723 
L 324.652822 171.123327 
L 331.489101 171.123327 
L 331.489101 167.290931 
L 332.47473 167.290931 
L 332.47473 163.458535 
L 335.688308 163.458535 
L 335.688308 159.626139 
L 337.726743 159.626139 
L 337.726743 155.793743 
L 341.709715 155.793743 
L 341.709715 151.961347 
L 342.326648 151.961347 
L 342.326648 148.12895 
L 348.572035 148.12895 
L 348.572035 144.296554 
L 350.282228 144.296554 
L 350.282228 140.464158 
L 354.064664 140.464158 
L 354.064664 136.631762 
L 354.888865 136.631762 
L 354.888865 132.799366 
L 357.54528 132.799366 
L 357.54528 128.96697 
L 362.811478 128.96697 
L 362.811478 125.134574 
L 364.110977 125.134574 
L 364.110977 121.302178 
L 365.58941 121.302178 
L 365.69108 113.637386 
L 369.581789 113.637386 
L 369.581789 109.80499 
L 375.012824 109.80499 
L 375.012824 105.972594 
L 376.318179 105.972594 
L 376.318179 102.140198 
L 379.309817 102.140198 
L 379.309817 98.307802 
L 379.721959 98.307802 
L 379.721959 94.475406 
L 381.517422 94.475406 
L 381.517422 90.64301 
L 383.287093 90.64301 
L 383.287093 86.810614 
L 386.285021 86.810614 
L 386.285021 82.978218 
L 390.195878 82.978218 
L 390.195878 79.145822 
L 393.048623 79.145822 
L 393.048623 75.313426 
L 394.030009 75.313426 
L 394.030009 71.48103 
L 394.976938 71.48103 
L 394.976938 67.648634 
L 398.709295 67.648634 
L 398.709295 63.816238 
L 399.750409 63.816238 
L 399.750409 59.983842 
L 402.048101 59.983842 
L 402.048101 56.151446 
L 402.530403 56.151446 
L 402.530403 52.31905 
L 405.887687 52.31905 
L 405.972882 44.654257 
L 406.277914 44.654257 
L 406.277914 40.821861 
L 407.591535 40.821861 
L 407.591535 36.989465 
L 413.861265 36.989465 
L 413.861265 33.157069 
L 416.650953 33.157069 
L 416.747323 25.492277 
L 416.804939 25.492277 
L 416.851039 13.995089 
L 429.452638 13.995089 
L 429.452638 10.162693 
L 432.628306 10.162693 
L 432.628306 6.330297 
L 432.628306 6.330297 
L 460.8 6.330297 
L 460.8 6.330297 
" clip-path="url(#p2ed17d086d)" style="fill: none; stroke: #bf00bf; stroke-width: 1.5; stroke-linecap: square"/>
   </g>
   <g id="patch_3">
    <path d="M 0 293.76 
L 0 3.456 
" style="fill: none; stroke: #000000; stroke-width: 0.8; stroke-linejoin: miter; stroke-linecap: square"/>
   </g>
   <g id="patch_4">
    <path d="M 460.8 293.76 
L 460.8 3.456 
" style="fill: none; stroke: #000000; stroke-width: 0.8; stroke-linejoin: miter; stroke-linecap: square"/>
   </g>
   <g id="patch_5">
    <path d="M 0 293.76 
L 460.8 293.76 
" style="fill: none; stroke: #000000; stroke-width: 0.8; stroke-linejoin: miter; stroke-linecap: square"/>
   </g>
   <g id="patch_6">
    <path d="M 0 3.456 
L 460.8 3.456 
" style="fill: none; stroke: #000000; stroke-width: 0.8; stroke-linejoin: miter; stroke-linecap: square"/>
   </g>
   <g id="text_6">
    <!-- {f10-f14}, 5-D -->
    <g transform="translate(305.884 287.95392) scale(0.2 -0.2)">
     <defs>
      <path id="DejaVuSans-7b" d="M 3272 -594 
L 3272 -1044 
L 3078 -1044 
Q 2300 -1044 2036 -812 
Q 1772 -581 1772 109 
L 1772 856 
Q 1772 1328 1603 1509 
Q 1434 1691 991 1691 
L 800 1691 
L 800 2138 
L 991 2138 
Q 1438 2138 1605 2317 
Q 1772 2497 1772 2963 
L 1772 3713 
Q 1772 4403 2036 4633 
Q 2300 4863 3078 4863 
L 3272 4863 
L 3272 4416 
L 3059 4416 
Q 2619 4416 2484 4278 
Q 2350 4141 2350 3700 
L 2350 2925 
Q 2350 2434 2208 2212 
Q 2066 1991 1722 1913 
Q 2069 1828 2209 1606 
Q 2350 1384 2350 897 
L 2350 122 
Q 2350 -319 2484 -456 
Q 2619 -594 3059 -594 
L 3272 -594 
z
" transform="scale(0.015625)"/>
      <path id="DejaVuSans-7d" d="M 800 -594 
L 1019 -594 
Q 1456 -594 1589 -459 
Q 1722 -325 1722 122 
L 1722 897 
Q 1722 1384 1862 1606 
Q 2003 1828 2350 1913 
Q 2003 1991 1862 2212 
Q 1722 2434 1722 2925 
L 1722 3700 
Q 1722 4144 1589 4280 
Q 1456 4416 1019 4416 
L 800 4416 
L 800 4863 
L 997 4863 
Q 1775 4863 2036 4633 
Q 2297 4403 2297 3713 
L 2297 2963 
Q 2297 2497 2465 2317 
Q 2634 2138 3078 2138 
L 3272 2138 
L 3272 1691 
L 3078 1691 
Q 2634 1691 2465 1509 
Q 2297 1328 2297 856 
L 2297 109 
Q 2297 -581 2036 -812 
Q 1775 -1044 997 -1044 
L 800 -1044 
L 800 -594 
z
" transform="scale(0.015625)"/>
      <path id="DejaVuSans-2c" d="M 750 794 
L 1409 794 
L 1409 256 
L 897 -744 
L 494 -744 
L 750 256 
L 750 794 
z
" transform="scale(0.015625)"/>
      <path id="DejaVuSans-35" d="M 691 4666 
L 3169 4666 
L 3169 4134 
L 1269 4134 
L 1269 2991 
Q 1406 3038 1543 3061 
Q 1681 3084 1819 3084 
Q 2600 3084 3056 2656 
Q 3513 2228 3513 1497 
Q 3513 744 3044 326 
Q 2575 -91 1722 -91 
Q 1428 -91 1123 -41 
Q 819 9 494 109 
L 494 744 
Q 775 591 1075 516 
Q 1375 441 1709 441 
Q 2250 441 2565 725 
Q 2881 1009 2881 1497 
Q 2881 1984 2565 2268 
Q 2250 2553 1709 2553 
Q 1456 2553 1204 2497 
Q 953 2441 691 2322 
L 691 4666 
z
" transform="scale(0.015625)"/>
     </defs>
     <use xlink:href="#DejaVuSans-7b"/>
     <use xlink:href="#DejaVuSans-66" x="63.623047"/>
     <use xlink:href="#DejaVuSans-31" x="98.828125"/>
     <use xlink:href="#DejaVuSans-30" x="162.451172"/>
     <use xlink:href="#DejaVuSans-2d" x="226.074219"/>
     <use xlink:href="#DejaVuSans-66" x="262.158203"/>
     <use xlink:href="#DejaVuSans-31" x="297.363281"/>
     <use xlink:href="#DejaVuSans-34" x="360.986328"/>
     <use xlink:href="#DejaVuSans-7d" x="424.609375"/>
     <use xlink:href="#DejaVuSans-2c" x="488.232422"/>
     <use xlink:href="#DejaVuSans-20" x="520.019531"/>
     <use xlink:href="#DejaVuSans-35" x="551.806641"/>
     <use xlink:href="#DejaVuSans-2d" x="615.429688"/>
     <use xlink:href="#DejaVuSans-44" x="651.513672"/>
    </g>
   </g>
   <g id="text_7">
    <!-- v2.6.3 -->
    <g style="fill: #808080" transform="translate(214.71875 288.777272) scale(0.1 -0.1)">
     <defs>
      <path id="DejaVuSans-76" d="M 191 3500 
L 800 3500 
L 1894 563 
L 2988 3500 
L 3597 3500 
L 2284 0 
L 1503 0 
L 191 3500 
z
" transform="scale(0.015625)"/>
      <path id="DejaVuSans-32" d="M 1228 531 
L 3431 531 
L 3431 0 
L 469 0 
L 469 531 
Q 828 903 1448 1529 
Q 2069 2156 2228 2338 
Q 2531 2678 2651 2914 
Q 2772 3150 2772 3378 
Q 2772 3750 2511 3984 
Q 2250 4219 1831 4219 
Q 1534 4219 1204 4116 
Q 875 4013 500 3803 
L 500 4441 
Q 881 4594 1212 4672 
Q 1544 4750 1819 4750 
Q 2544 4750 2975 4387 
Q 3406 4025 3406 3419 
Q 3406 3131 3298 2873 
Q 3191 2616 2906 2266 
Q 2828 2175 2409 1742 
Q 1991 1309 1228 531 
z
" transform="scale(0.015625)"/>
      <path id="DejaVuSans-2e" d="M 684 794 
L 1344 794 
L 1344 0 
L 684 0 
L 684 794 
z
" transform="scale(0.015625)"/>
      <path id="DejaVuSans-36" d="M 2113 2584 
Q 1688 2584 1439 2293 
Q 1191 2003 1191 1497 
Q 1191 994 1439 701 
Q 1688 409 2113 409 
Q 2538 409 2786 701 
Q 3034 994 3034 1497 
Q 3034 2003 2786 2293 
Q 2538 2584 2113 2584 
z
M 3366 4563 
L 3366 3988 
Q 3128 4100 2886 4159 
Q 2644 4219 2406 4219 
Q 1781 4219 1451 3797 
Q 1122 3375 1075 2522 
Q 1259 2794 1537 2939 
Q 1816 3084 2150 3084 
Q 2853 3084 3261 2657 
Q 3669 2231 3669 1497 
Q 3669 778 3244 343 
Q 2819 -91 2113 -91 
Q 1303 -91 875 529 
Q 447 1150 447 2328 
Q 447 3434 972 4092 
Q 1497 4750 2381 4750 
Q 2619 4750 2861 4703 
Q 3103 4656 3366 4563 
z
" transform="scale(0.015625)"/>
      <path id="DejaVuSans-33" d="M 2597 2516 
Q 3050 2419 3304 2112 
Q 3559 1806 3559 1356 
Q 3559 666 3084 287 
Q 2609 -91 1734 -91 
Q 1441 -91 1130 -33 
Q 819 25 488 141 
L 488 750 
Q 750 597 1062 519 
Q 1375 441 1716 441 
Q 2309 441 2620 675 
Q 2931 909 2931 1356 
Q 2931 1769 2642 2001 
Q 2353 2234 1838 2234 
L 1294 2234 
L 1294 2753 
L 1863 2753 
Q 2328 2753 2575 2939 
Q 2822 3125 2822 3475 
Q 2822 3834 2567 4026 
Q 2313 4219 1838 4219 
Q 1578 4219 1281 4162 
Q 984 4106 628 3988 
L 628 4550 
Q 988 4650 1302 4700 
Q 1616 4750 1894 4750 
Q 2613 4750 3031 4423 
Q 3450 4097 3450 3541 
Q 3450 3153 3228 2886 
Q 3006 2619 2597 2516 
z
" transform="scale(0.015625)"/>
     </defs>
     <use xlink:href="#DejaVuSans-76"/>
     <use xlink:href="#DejaVuSans-32" x="59.179688"/>
     <use xlink:href="#DejaVuSans-2e" x="122.802734"/>
     <use xlink:href="#DejaVuSans-36" x="154.589844"/>
     <use xlink:href="#DejaVuSans-2e" x="218.212891"/>
     <use xlink:href="#DejaVuSans-33" x="250"/>
    </g>
   </g>
  </g>
 </g>
 <defs>
  <clipPath id="p2ed17d086d">
   <rect x="0" y="3.456" width="460.8" height="290.304"/>
  </clipPath>
 </defs>
</svg>
