<?xml version="1.0" encoding="utf-8" standalone="no"?>
<!DOCTYPE svg PUBLIC "-//W3C//DTD SVG 1.1//EN"
  "http://www.w3.org/Graphics/SVG/1.1/DTD/svg11.dtd">
<svg xmlns:xlink="http://www.w3.org/1999/xlink" width="460.8pt" height="345.6pt" viewBox="0 0 460.8 345.6" xmlns="http://www.w3.org/2000/svg" version="1.1">
 <metadata>
  <rdf:RDF xmlns:dc="http://purl.org/dc/elements/1.1/" xmlns:cc="http://creativecommons.org/ns#" xmlns:rdf="http://www.w3.org/1999/02/22-rdf-syntax-ns#">
   <cc:Work>
    <dc:type rdf:resource="http://purl.org/dc/dcmitype/StillImage"/>
    <dc:date>2024-01-17T15:11:15.063448</dc:date>
    <dc:format>image/svg+xml</dc:format>
    <dc:creator>
     <cc:Agent>
      <dc:title>Matplotlib v3.8.2, https://matplotlib.org/</dc:title>
     </cc:Agent>
    </dc:creator>
   </cc:Work>
  </rdf:RDF>
 </metadata>
 <defs>
  <style type="text/css">*{stroke-linejoin: round; stroke-linecap: butt}</style>
 </defs>
 <g id="figure_1">
  <g id="patch_1">
   <path d="M 0 345.6 
L 460.8 345.6 
L 460.8 0 
L 0 0 
z
" style="fill: #ffffff"/>
  </g>
  <g id="axes_1">
   <g id="patch_2">
    <path d="M 0 293.76 
L 460.8 293.76 
L 460.8 3.456 
L 0 3.456 
z
" style="fill: #ffffff"/>
   </g>
   <g id="matplotlib.axis_1">
    <g id="xtick_1">
     <g id="line2d_1">
      <path d="M 106.735217 293.76 
L 106.735217 3.456 
" clip-path="url(#pde813909d6)" style="fill: none; stroke: #b0b0b0; stroke-width: 0.8; stroke-linecap: square"/>
     </g>
     <g id="line2d_2">
      <defs>
       <path id="mc579d758cd" d="M 0 0 
L 0 3.5 
" style="stroke: #000000; stroke-width: 0.8"/>
      </defs>
      <g>
       <use xlink:href="#mc579d758cd" x="106.735217" y="293.76" style="stroke: #000000; stroke-width: 0.8"/>
      </g>
     </g>
     <g id="text_1">
      <!-- -4 -->
      <g transform="translate(96.764904 315.956875) scale(0.2 -0.2)">
       <defs>
        <path id="DejaVuSans-2d" d="M 313 2009 
L 1997 2009 
L 1997 1497 
L 313 1497 
L 313 2009 
z
" transform="scale(0.015625)"/>
        <path id="DejaVuSans-34" d="M 2419 4116 
L 825 1625 
L 2419 1625 
L 2419 4116 
z
M 2253 4666 
L 3047 4666 
L 3047 1625 
L 3713 1625 
L 3713 1100 
L 3047 1100 
L 3047 0 
L 2419 0 
L 2419 1100 
L 313 1100 
L 313 1709 
L 2253 4666 
z
" transform="scale(0.015625)"/>
       </defs>
       <use xlink:href="#DejaVuSans-2d"/>
       <use xlink:href="#DejaVuSans-34" x="36.083984"/>
      </g>
     </g>
    </g>
    <g id="xtick_2">
     <g id="line2d_3">
      <path d="M 213.585869 293.76 
L 213.585869 3.456 
" clip-path="url(#pde813909d6)" style="fill: none; stroke: #b0b0b0; stroke-width: 0.8; stroke-linecap: square"/>
     </g>
     <g id="line2d_4">
      <g>
       <use xlink:href="#mc579d758cd" x="213.585869" y="293.76" style="stroke: #000000; stroke-width: 0.8"/>
      </g>
     </g>
     <g id="text_2">
      <!-- 0 -->
      <g transform="translate(207.223369 315.956875) scale(0.2 -0.2)">
       <defs>
        <path id="DejaVuSans-30" d="M 2034 4250 
Q 1547 4250 1301 3770 
Q 1056 3291 1056 2328 
Q 1056 1369 1301 889 
Q 1547 409 2034 409 
Q 2525 409 2770 889 
Q 3016 1369 3016 2328 
Q 3016 3291 2770 3770 
Q 2525 4250 2034 4250 
z
M 2034 4750 
Q 2819 4750 3233 4129 
Q 3647 3509 3647 2328 
Q 3647 1150 3233 529 
Q 2819 -91 2034 -91 
Q 1250 -91 836 529 
Q 422 1150 422 2328 
Q 422 3509 836 4129 
Q 1250 4750 2034 4750 
z
" transform="scale(0.015625)"/>
       </defs>
       <use xlink:href="#DejaVuSans-30"/>
      </g>
     </g>
    </g>
    <g id="xtick_3">
     <g id="line2d_5">
      <path d="M 320.436521 293.76 
L 320.436521 3.456 
" clip-path="url(#pde813909d6)" style="fill: none; stroke: #b0b0b0; stroke-width: 0.8; stroke-linecap: square"/>
     </g>
     <g id="line2d_6">
      <g>
       <use xlink:href="#mc579d758cd" x="320.436521" y="293.76" style="stroke: #000000; stroke-width: 0.8"/>
      </g>
     </g>
     <g id="text_3">
      <!-- 4 -->
      <g transform="translate(314.074021 315.956875) scale(0.2 -0.2)">
       <use xlink:href="#DejaVuSans-34"/>
      </g>
     </g>
    </g>
    <g id="xtick_4">
     <g id="line2d_7">
      <path d="M 427.287174 293.76 
L 427.287174 3.456 
" clip-path="url(#pde813909d6)" style="fill: none; stroke: #b0b0b0; stroke-width: 0.8; stroke-linecap: square"/>
     </g>
     <g id="line2d_8">
      <g>
       <use xlink:href="#mc579d758cd" x="427.287174" y="293.76" style="stroke: #000000; stroke-width: 0.8"/>
      </g>
     </g>
     <g id="text_4">
      <!-- 8 -->
      <g transform="translate(420.924674 315.956875) scale(0.2 -0.2)">
       <defs>
        <path id="DejaVuSans-38" d="M 2034 2216 
Q 1584 2216 1326 1975 
Q 1069 1734 1069 1313 
Q 1069 891 1326 650 
Q 1584 409 2034 409 
Q 2484 409 2743 651 
Q 3003 894 3003 1313 
Q 3003 1734 2745 1975 
Q 2488 2216 2034 2216 
z
M 1403 2484 
Q 997 2584 770 2862 
Q 544 3141 544 3541 
Q 544 4100 942 4425 
Q 1341 4750 2034 4750 
Q 2731 4750 3128 4425 
Q 3525 4100 3525 3541 
Q 3525 3141 3298 2862 
Q 3072 2584 2669 2484 
Q 3125 2378 3379 2068 
Q 3634 1759 3634 1313 
Q 3634 634 3220 271 
Q 2806 -91 2034 -91 
Q 1263 -91 848 271 
Q 434 634 434 1313 
Q 434 1759 690 2068 
Q 947 2378 1403 2484 
z
M 1172 3481 
Q 1172 3119 1398 2916 
Q 1625 2713 2034 2713 
Q 2441 2713 2670 2916 
Q 2900 3119 2900 3481 
Q 2900 3844 2670 4047 
Q 2441 4250 2034 4250 
Q 1625 4250 1398 4047 
Q 1172 3844 1172 3481 
z
" transform="scale(0.015625)"/>
       </defs>
       <use xlink:href="#DejaVuSans-38"/>
      </g>
     </g>
    </g>
    <g id="text_5">
     <!-- log10 of Df -->
     <g transform="translate(175.214063 339.313125) scale(0.2 -0.2)">
      <defs>
       <path id="DejaVuSans-6c" d="M 603 4863 
L 1178 4863 
L 1178 0 
L 603 0 
L 603 4863 
z
" transform="scale(0.015625)"/>
       <path id="DejaVuSans-6f" d="M 1959 3097 
Q 1497 3097 1228 2736 
Q 959 2375 959 1747 
Q 959 1119 1226 758 
Q 1494 397 1959 397 
Q 2419 397 2687 759 
Q 2956 1122 2956 1747 
Q 2956 2369 2687 2733 
Q 2419 3097 1959 3097 
z
M 1959 3584 
Q 2709 3584 3137 3096 
Q 3566 2609 3566 1747 
Q 3566 888 3137 398 
Q 2709 -91 1959 -91 
Q 1206 -91 779 398 
Q 353 888 353 1747 
Q 353 2609 779 3096 
Q 1206 3584 1959 3584 
z
" transform="scale(0.015625)"/>
       <path id="DejaVuSans-67" d="M 2906 1791 
Q 2906 2416 2648 2759 
Q 2391 3103 1925 3103 
Q 1463 3103 1205 2759 
Q 947 2416 947 1791 
Q 947 1169 1205 825 
Q 1463 481 1925 481 
Q 2391 481 2648 825 
Q 2906 1169 2906 1791 
z
M 3481 434 
Q 3481 -459 3084 -895 
Q 2688 -1331 1869 -1331 
Q 1566 -1331 1297 -1286 
Q 1028 -1241 775 -1147 
L 775 -588 
Q 1028 -725 1275 -790 
Q 1522 -856 1778 -856 
Q 2344 -856 2625 -561 
Q 2906 -266 2906 331 
L 2906 616 
Q 2728 306 2450 153 
Q 2172 0 1784 0 
Q 1141 0 747 490 
Q 353 981 353 1791 
Q 353 2603 747 3093 
Q 1141 3584 1784 3584 
Q 2172 3584 2450 3431 
Q 2728 3278 2906 2969 
L 2906 3500 
L 3481 3500 
L 3481 434 
z
" transform="scale(0.015625)"/>
       <path id="DejaVuSans-31" d="M 794 531 
L 1825 531 
L 1825 4091 
L 703 3866 
L 703 4441 
L 1819 4666 
L 2450 4666 
L 2450 531 
L 3481 531 
L 3481 0 
L 794 0 
L 794 531 
z
" transform="scale(0.015625)"/>
       <path id="DejaVuSans-20" transform="scale(0.015625)"/>
       <path id="DejaVuSans-66" d="M 2375 4863 
L 2375 4384 
L 1825 4384 
Q 1516 4384 1395 4259 
Q 1275 4134 1275 3809 
L 1275 3500 
L 2222 3500 
L 2222 3053 
L 1275 3053 
L 1275 0 
L 697 0 
L 697 3053 
L 147 3053 
L 147 3500 
L 697 3500 
L 697 3744 
Q 697 4328 969 4595 
Q 1241 4863 1831 4863 
L 2375 4863 
z
" transform="scale(0.015625)"/>
       <path id="DejaVuSans-44" d="M 1259 4147 
L 1259 519 
L 2022 519 
Q 2988 519 3436 956 
Q 3884 1394 3884 2338 
Q 3884 3275 3436 3711 
Q 2988 4147 2022 4147 
L 1259 4147 
z
M 628 4666 
L 1925 4666 
Q 3281 4666 3915 4102 
Q 4550 3538 4550 2338 
Q 4550 1131 3912 565 
Q 3275 0 1925 0 
L 628 0 
L 628 4666 
z
" transform="scale(0.015625)"/>
      </defs>
      <use xlink:href="#DejaVuSans-6c"/>
      <use xlink:href="#DejaVuSans-6f" x="27.783203"/>
      <use xlink:href="#DejaVuSans-67" x="88.964844"/>
      <use xlink:href="#DejaVuSans-31" x="152.441406"/>
      <use xlink:href="#DejaVuSans-30" x="216.064453"/>
      <use xlink:href="#DejaVuSans-20" x="279.6875"/>
      <use xlink:href="#DejaVuSans-6f" x="311.474609"/>
      <use xlink:href="#DejaVuSans-66" x="372.65625"/>
      <use xlink:href="#DejaVuSans-20" x="407.861328"/>
      <use xlink:href="#DejaVuSans-44" x="439.648438"/>
      <use xlink:href="#DejaVuSans-66" x="516.650391"/>
     </g>
    </g>
   </g>
   <g id="matplotlib.axis_2">
    <g id="ytick_1">
     <g id="line2d_9">
      <path d="M 0 293.76 
L 460.8 293.76 
" clip-path="url(#pde813909d6)" style="fill: none; stroke: #b0b0b0; stroke-width: 0.8; stroke-linecap: square"/>
     </g>
     <g id="line2d_10">
      <defs>
       <path id="m147b514a29" d="M 0 0 
L -3.5 0 
" style="stroke: #000000; stroke-width: 0.8"/>
      </defs>
      <g>
       <use xlink:href="#m147b514a29" x="0" y="293.76" style="stroke: #000000; stroke-width: 0.8"/>
      </g>
     </g>
    </g>
    <g id="ytick_2">
     <g id="line2d_11">
      <path d="M 0 236.274059 
L 460.8 236.274059 
" clip-path="url(#pde813909d6)" style="fill: none; stroke: #b0b0b0; stroke-width: 0.8; stroke-linecap: square"/>
     </g>
     <g id="line2d_12">
      <g>
       <use xlink:href="#m147b514a29" x="0" y="236.274059" style="stroke: #000000; stroke-width: 0.8"/>
      </g>
     </g>
    </g>
    <g id="ytick_3">
     <g id="line2d_13">
      <path d="M 0 178.788119 
L 460.8 178.788119 
" clip-path="url(#pde813909d6)" style="fill: none; stroke: #b0b0b0; stroke-width: 0.8; stroke-linecap: square"/>
     </g>
     <g id="line2d_14">
      <g>
       <use xlink:href="#m147b514a29" x="0" y="178.788119" style="stroke: #000000; stroke-width: 0.8"/>
      </g>
     </g>
    </g>
    <g id="ytick_4">
     <g id="line2d_15">
      <path d="M 0 121.302178 
L 460.8 121.302178 
" clip-path="url(#pde813909d6)" style="fill: none; stroke: #b0b0b0; stroke-width: 0.8; stroke-linecap: square"/>
     </g>
     <g id="line2d_16">
      <g>
       <use xlink:href="#m147b514a29" x="0" y="121.302178" style="stroke: #000000; stroke-width: 0.8"/>
      </g>
     </g>
    </g>
    <g id="ytick_5">
     <g id="line2d_17">
      <path d="M 0 63.816238 
L 460.8 63.816238 
" clip-path="url(#pde813909d6)" style="fill: none; stroke: #b0b0b0; stroke-width: 0.8; stroke-linecap: square"/>
     </g>
     <g id="line2d_18">
      <g>
       <use xlink:href="#m147b514a29" x="0" y="63.816238" style="stroke: #000000; stroke-width: 0.8"/>
      </g>
     </g>
    </g>
    <g id="ytick_6">
     <g id="line2d_19">
      <path d="M 0 6.330297 
L 460.8 6.330297 
" clip-path="url(#pde813909d6)" style="fill: none; stroke: #b0b0b0; stroke-width: 0.8; stroke-linecap: square"/>
     </g>
     <g id="line2d_20">
      <g>
       <use xlink:href="#m147b514a29" x="0" y="6.330297" style="stroke: #000000; stroke-width: 0.8"/>
      </g>
     </g>
    </g>
   </g>
   <g id="line2d_21">
    <path d="M 197.520574 293.76 
L 197.520574 281.783762 
L 231.57866 281.783762 
L 231.661508 280.186931 
L 232.234371 280.186931 
L 232.234371 279.388515 
L 233.178438 279.388515 
L 233.178438 278.590099 
L 233.709656 278.590099 
L 233.709656 277.791683 
L 234.294348 277.791683 
L 234.294348 276.993267 
L 235.034556 276.993267 
L 235.034556 276.194851 
L 235.232655 276.194851 
L 235.232655 275.396436 
L 235.855818 275.396436 
L 235.855818 274.59802 
L 236.099415 274.59802 
L 236.099415 273.799604 
L 236.47789 273.799604 
L 236.47789 273.001188 
L 236.950932 273.001188 
L 236.950932 272.202772 
L 237.647905 272.202772 
L 237.647905 271.404356 
L 237.894267 271.404356 
L 237.894267 270.605941 
L 239.054809 270.605941 
L 239.054809 269.807525 
L 241.754474 269.807525 
L 241.754474 269.009109 
L 242.147159 269.009109 
L 242.147159 268.210693 
L 242.999865 268.210693 
L 242.999865 267.412277 
L 243.415727 267.412277 
L 243.415727 266.613861 
L 244.013588 266.613861 
L 244.013588 265.815446 
L 244.728428 265.815446 
L 244.728428 265.01703 
L 245.038244 265.01703 
L 245.143378 263.420198 
L 245.232249 263.420198 
L 245.232249 262.621782 
L 245.343635 262.621782 
L 245.376569 261.02495 
L 247.12606 261.02495 
L 247.12606 260.226535 
L 248.418183 260.226535 
L 248.418183 259.428119 
L 249.035777 259.428119 
L 249.035777 258.629703 
L 250.55525 258.629703 
L 250.55525 257.831287 
L 252.976429 257.831287 
L 252.976429 257.032871 
L 253.418873 257.032871 
L 253.418873 256.234455 
L 253.874601 256.234455 
L 253.874601 255.43604 
L 254.320447 255.43604 
L 254.320447 254.637624 
L 254.542084 254.637624 
L 254.559171 253.040792 
L 255.099645 253.040792 
L 255.099645 252.242376 
L 255.414832 252.242376 
L 255.414832 251.44396 
L 255.836768 251.44396 
L 255.836768 250.645545 
L 256.108597 250.645545 
L 256.153373 249.048713 
L 256.356264 249.048713 
L 256.356264 248.250297 
L 256.54327 248.250297 
L 256.594737 246.653465 
L 257.292192 246.653465 
L 257.372118 245.056634 
L 257.485158 245.056634 
L 257.485158 244.258218 
L 257.622724 244.258218 
L 257.622724 243.459802 
L 257.836644 243.459802 
L 257.836644 242.661386 
L 257.988795 242.661386 
L 257.988795 241.86297 
L 258.105101 241.86297 
L 258.105101 241.064554 
L 258.388862 241.064554 
L 258.457556 238.669307 
L 258.564085 238.669307 
L 258.564085 237.870891 
L 258.80044 237.870891 
L 258.80044 237.072475 
L 259.155089 237.072475 
L 259.226826 235.475644 
L 259.282324 235.475644 
L 259.32449 233.878812 
L 259.567201 233.878812 
L 259.615102 232.28198 
L 259.830193 232.28198 
L 259.830193 231.483564 
L 260.671887 231.483564 
L 260.671887 230.685149 
L 261.26979 230.685149 
L 261.26979 229.886733 
L 261.479349 229.886733 
L 261.479349 229.088317 
L 262.444948 229.088317 
L 262.519391 226.693069 
L 262.709872 226.693069 
L 262.740709 225.096238 
L 263.003805 225.096238 
L 263.003805 224.297822 
L 263.195981 224.297822 
L 263.195981 223.499406 
L 263.436698 223.499406 
L 263.436698 222.70099 
L 263.694794 222.70099 
L 263.749025 220.305743 
L 263.895778 220.305743 
L 264.001606 214.716832 
L 264.047133 214.716832 
L 264.13022 212.321584 
L 264.193121 212.321584 
L 264.253566 209.127921 
L 264.316577 209.127921 
L 264.407267 205.934257 
L 264.50902 205.934257 
L 264.596232 203.53901 
L 264.629514 203.53901 
L 264.682495 200.345347 
L 264.767333 200.345347 
L 264.853466 198.748515 
L 264.944161 198.748515 
L 264.944161 197.950099 
L 265.249108 197.950099 
L 265.274397 196.353267 
L 265.75957 196.353267 
L 265.75957 195.554851 
L 266.721424 195.554851 
L 266.721424 194.756436 
L 267.052467 194.756436 
L 267.052467 193.95802 
L 267.729254 193.95802 
L 267.729254 193.159604 
L 268.080317 193.159604 
L 268.080317 192.361188 
L 268.619759 192.361188 
L 268.717135 190.764356 
L 268.898214 190.764356 
L 268.898214 189.965941 
L 269.0831 189.965941 
L 269.0831 189.167525 
L 269.42854 189.167525 
L 269.459864 176.392871 
L 269.657479 176.392871 
L 269.657479 175.594455 
L 271.102954 175.594455 
L 271.102954 174.79604 
L 271.454051 174.79604 
L 271.454051 173.997624 
L 276.111587 173.997624 
L 276.111587 173.199208 
L 277.009488 173.199208 
L 277.009488 172.400792 
L 277.979578 172.400792 
L 277.979578 171.602376 
L 278.271117 171.602376 
L 278.271117 170.80396 
L 278.426635 170.80396 
L 278.426635 170.005545 
L 278.660907 170.005545 
L 278.748866 168.408713 
L 278.920455 168.408713 
L 278.953156 166.811881 
L 279.078533 166.811881 
L 279.078533 166.013465 
L 279.1897 166.013465 
L 279.248808 164.416634 
L 279.50593 164.416634 
L 279.50593 163.618218 
L 279.741992 163.618218 
L 279.741992 162.819802 
L 279.919718 162.819802 
L 279.919718 162.021386 
L 280.037465 162.021386 
L 280.07076 160.424554 
L 280.152916 160.424554 
L 280.252672 158.029307 
L 280.289311 158.029307 
L 280.289311 157.230891 
L 280.564283 157.230891 
L 280.618621 155.634059 
L 280.742524 155.634059 
L 280.809018 153.238812 
L 281.078032 153.238812 
L 281.078032 152.440396 
L 281.28513 152.440396 
L 281.28513 151.64198 
L 281.547605 151.64198 
L 281.547605 150.843564 
L 281.933998 150.843564 
L 281.933998 150.045149 
L 282.535529 150.045149 
L 282.535529 149.246733 
L 284.09796 149.246733 
L 284.09796 148.448317 
L 284.666131 148.448317 
L 284.666131 147.649901 
L 284.870387 147.649901 
L 284.870387 146.851485 
L 285.585145 146.851485 
L 285.593795 145.254653 
L 286.102086 145.254653 
L 286.102086 144.456238 
L 286.273482 144.456238 
L 286.3071 142.859406 
L 286.554753 142.859406 
L 286.583791 141.262574 
L 286.725974 141.262574 
L 286.725974 140.464158 
L 287.205642 140.464158 
L 287.205642 139.665743 
L 288.012338 139.665743 
L 288.026394 138.068911 
L 288.140651 138.068911 
L 288.140651 137.270495 
L 288.306086 137.270495 
L 288.306086 136.472079 
L 288.487641 136.472079 
L 288.59387 131.681584 
L 288.609638 131.681584 
L 288.609638 130.883168 
L 288.723683 130.883168 
L 288.784421 129.286337 
L 289.124475 129.286337 
L 289.124475 128.487921 
L 289.279755 128.487921 
L 289.279755 127.689505 
L 289.484046 127.689505 
L 289.594679 124.495842 
L 289.740102 124.495842 
L 289.750642 122.89901 
L 289.860661 122.89901 
L 289.945457 121.302178 
L 289.99672 121.302178 
L 289.99672 120.503762 
L 290.139952 120.503762 
L 290.176542 118.108515 
L 290.263447 118.108515 
L 290.274315 116.511683 
L 290.721374 116.511683 
L 290.781658 114.914851 
L 290.837882 114.914851 
L 290.837882 114.116436 
L 291.060035 114.116436 
L 291.13679 111.721188 
L 291.47142 111.721188 
L 291.47142 110.922772 
L 292.018082 110.922772 
L 292.091342 109.325941 
L 292.140449 109.325941 
L 292.251495 107.729109 
L 292.264034 107.729109 
L 292.329068 106.132277 
L 292.660558 106.132277 
L 292.66542 104.535446 
L 292.823774 104.535446 
L 292.823774 103.73703 
L 292.941389 103.73703 
L 292.941389 102.938614 
L 294.035669 102.938614 
L 294.035669 102.140198 
L 294.61867 102.140198 
L 294.620282 100.543366 
L 295.094329 100.543366 
L 295.186387 98.946535 
L 295.386724 98.946535 
L 295.386724 98.148119 
L 296.49516 98.148119 
L 296.49516 97.349703 
L 298.815681 97.349703 
L 298.815681 96.551287 
L 300.373838 96.551287 
L 300.417916 94.954455 
L 301.026827 94.954455 
L 301.026827 94.15604 
L 301.317238 94.15604 
L 301.329513 92.559208 
L 301.475382 92.559208 
L 301.475382 91.760792 
L 301.645212 91.760792 
L 301.645212 90.962376 
L 301.872899 90.962376 
L 301.872899 90.16396 
L 302.458517 90.16396 
L 302.523688 88.567129 
L 302.797431 88.567129 
L 302.797431 87.768713 
L 303.468611 87.768713 
L 303.505866 86.171881 
L 303.758144 86.171881 
L 303.758144 85.373465 
L 304.224432 85.373465 
L 304.224432 84.57505 
L 305.416009 84.57505 
L 305.416009 83.776634 
L 307.464104 83.776634 
L 307.464104 82.978218 
L 307.610429 82.978218 
L 307.610429 82.179802 
L 317.728231 82.179802 
L 317.728231 81.381386 
L 321.156026 81.381386 
L 321.156026 80.58297 
L 327.459719 80.58297 
L 327.459719 68.606733 
L 328.24112 68.606733 
L 328.24112 67.808317 
L 330.23005 67.808317 
L 330.23005 67.009901 
L 331.546922 67.009901 
L 331.546922 66.211485 
L 334.278186 66.211485 
L 334.278186 65.413069 
L 336.282247 65.413069 
L 336.282247 64.614653 
L 339.703541 64.614653 
L 339.703541 63.816238 
L 340.774455 63.816238 
L 340.774455 63.017822 
L 341.02714 63.017822 
L 341.02714 62.219406 
L 341.320757 62.219406 
L 341.320757 61.42099 
L 341.71415 61.42099 
L 341.71415 60.622574 
L 342.860573 60.622574 
L 342.860573 59.824158 
L 343.039387 59.824158 
L 343.039387 59.025743 
L 343.67573 59.025743 
L 343.67573 58.227327 
L 343.971478 58.227327 
L 343.971478 57.428911 
L 344.316802 57.428911 
L 344.336146 55.832079 
L 345.03788 55.832079 
L 345.03788 55.033663 
L 345.47913 55.033663 
L 345.47913 54.235248 
L 350.286704 54.235248 
L 350.286704 53.436832 
L 352.067184 53.436832 
L 352.067184 52.638416 
L 353.264927 52.638416 
L 353.264927 51.84 
L 353.804312 51.84 
L 353.804312 51.041584 
L 358.25082 51.041584 
L 358.25082 50.243168 
L 358.813508 50.243168 
L 358.813508 49.444752 
L 360.175337 49.444752 
L 360.244093 47.847921 
L 360.676314 47.847921 
L 360.676314 47.049505 
L 360.870273 47.049505 
L 360.953751 45.452673 
L 362.294483 45.452673 
L 362.294483 44.654257 
L 364.806313 44.654257 
L 364.806313 43.855842 
L 364.978357 43.855842 
L 364.978357 43.057426 
L 367.519226 43.057426 
L 367.519226 42.25901 
L 372.892426 42.25901 
L 372.892426 41.460594 
L 375.798916 41.460594 
L 375.798916 40.662178 
L 377.968925 40.662178 
L 377.968925 39.863762 
L 381.810549 39.863762 
L 381.810549 39.065347 
L 382.53137 39.065347 
L 382.53137 38.266931 
L 383.575073 38.266931 
L 383.642383 36.670099 
L 384.040358 36.670099 
L 384.040358 35.871683 
L 384.292853 35.871683 
L 384.382586 34.274851 
L 386.105081 34.274851 
L 386.105081 33.476436 
L 386.427118 33.476436 
L 386.427118 32.67802 
L 386.883456 32.67802 
L 386.9228 31.081188 
L 387.522306 31.081188 
L 387.522306 30.282772 
L 388.038812 30.282772 
L 388.038812 29.484356 
L 388.169481 29.484356 
L 388.169481 28.685941 
L 388.324103 28.685941 
L 388.358519 27.089109 
L 389.098753 27.089109 
L 389.098753 26.290693 
L 390.206623 26.290693 
L 390.206623 25.492277 
L 390.640373 25.492277 
L 390.640373 24.693861 
L 392.127196 24.693861 
L 392.201758 23.09703 
L 392.419355 23.09703 
L 392.419355 22.298614 
L 392.56792 22.298614 
L 392.56792 21.500198 
L 392.713107 21.500198 
L 392.713107 20.701782 
L 393.796051 20.701782 
L 393.796051 19.903366 
L 394.670326 19.903366 
L 394.670326 19.10495 
L 398.430742 19.10495 
L 398.430742 18.306535 
L 422.768033 18.306535 
L 422.768033 17.508119 
L 426.168823 17.508119 
L 426.196315 15.911287 
L 430.041469 15.911287 
L 430.041469 15.112871 
L 432.206449 15.112871 
L 432.206449 14.314455 
L 432.949247 14.314455 
L 432.949247 13.51604 
L 434.009379 13.51604 
L 434.009379 12.717624 
L 434.631437 12.717624 
L 434.631437 11.919208 
L 435.464956 11.919208 
L 435.464956 11.120792 
L 436.038896 11.120792 
L 436.038896 10.322376 
L 436.471541 10.322376 
L 436.471541 9.52396 
L 439.474409 9.52396 
L 439.474409 8.725545 
L 441.005942 8.725545 
L 441.005942 7.927129 
L 441.381991 7.927129 
L 441.381991 7.128713 
L 448.079919 7.128713 
L 448.079919 6.330297 
L 448.079919 6.330297 
L 460.8 6.330297 
L 460.8 6.330297 
" clip-path="url(#pde813909d6)" style="fill: none; stroke: #ff0000; stroke-width: 3; stroke-linecap: square"/>
   </g>
   <g id="line2d_22">
    <path d="M 197.520574 293.76 
L 197.520574 281.783762 
L 233.178438 281.783762 
L 233.178438 280.985347 
L 233.90409 280.985347 
L 233.90409 280.186931 
L 234.294348 280.186931 
L 234.294348 279.388515 
L 235.232655 279.388515 
L 235.232655 278.590099 
L 236.097675 278.590099 
L 236.166358 276.194851 
L 236.47789 276.194851 
L 236.47789 275.396436 
L 236.950932 275.396436 
L 236.950932 274.59802 
L 238.348152 274.59802 
L 238.348152 273.799604 
L 238.786358 273.799604 
L 238.786358 273.001188 
L 239.054809 273.001188 
L 239.054809 272.202772 
L 240.016996 272.202772 
L 240.016996 271.404356 
L 240.300992 271.404356 
L 240.300992 270.605941 
L 241.454068 270.605941 
L 241.454068 269.807525 
L 241.754474 269.807525 
L 241.754474 269.009109 
L 242.147159 269.009109 
L 242.147159 268.210693 
L 244.576535 268.210693 
L 244.576535 267.412277 
L 244.728428 267.412277 
L 244.728428 266.613861 
L 245.038244 266.613861 
L 245.038244 265.815446 
L 245.343635 265.815446 
L 245.377639 264.218614 
L 245.567348 264.218614 
L 245.567348 263.420198 
L 247.326147 263.420198 
L 247.326147 262.621782 
L 247.441777 262.621782 
L 247.441777 261.823366 
L 249.035777 261.823366 
L 249.035777 261.02495 
L 250.238149 261.02495 
L 250.297171 259.428119 
L 250.538297 259.428119 
L 250.55525 257.831287 
L 253.826526 257.831287 
L 253.826526 257.032871 
L 254.320447 257.032871 
L 254.399029 255.43604 
L 255.099645 255.43604 
L 255.099645 254.637624 
L 255.414832 254.637624 
L 255.414832 253.839208 
L 256.356264 253.839208 
L 256.356264 253.040792 
L 256.594737 253.040792 
L 256.594737 252.242376 
L 256.857229 252.242376 
L 256.857229 251.44396 
L 257.485158 251.44396 
L 257.485158 250.645545 
L 257.730987 250.645545 
L 257.730987 249.847129 
L 258.023477 249.847129 
L 258.105101 248.250297 
L 258.564085 248.250297 
L 258.564085 247.451881 
L 258.725991 247.451881 
L 258.80044 245.056634 
L 258.944928 245.056634 
L 258.986731 243.459802 
L 259.128837 243.459802 
L 259.155089 241.86297 
L 259.282324 241.86297 
L 259.32449 240.266139 
L 259.503167 240.266139 
L 259.503167 239.467723 
L 259.830193 239.467723 
L 259.830193 238.669307 
L 260.060871 238.669307 
L 260.170765 237.072475 
L 260.206277 237.072475 
L 260.206277 236.274059 
L 260.671887 236.274059 
L 260.671887 235.475644 
L 260.78743 235.475644 
L 260.78743 234.677228 
L 261.542745 234.677228 
L 261.542745 233.878812 
L 261.904644 233.878812 
L 261.904644 233.080396 
L 262.495649 233.080396 
L 262.519391 230.685149 
L 262.687825 230.685149 
L 262.740709 228.289901 
L 262.99222 228.289901 
L 263.063118 226.693069 
L 263.195981 226.693069 
L 263.195981 225.894653 
L 263.749025 225.894653 
L 263.749025 225.096238 
L 263.895778 225.096238 
L 264.001606 221.902574 
L 264.047133 221.902574 
L 264.156892 218.708911 
L 264.196553 218.708911 
L 264.253566 216.313663 
L 264.316577 216.313663 
L 264.412146 212.321584 
L 264.453109 212.321584 
L 264.523541 209.127921 
L 264.596232 209.127921 
L 264.682495 205.135842 
L 264.816623 205.135842 
L 264.832214 203.53901 
L 264.935984 203.53901 
L 265.031058 201.143762 
L 265.274397 201.143762 
L 265.274397 200.345347 
L 265.486961 200.345347 
L 265.486961 199.546931 
L 265.75957 199.546931 
L 265.75957 198.748515 
L 266.623731 198.748515 
L 266.623731 197.950099 
L 266.853771 197.950099 
L 266.943674 196.353267 
L 267.382079 196.353267 
L 267.382079 195.554851 
L 268.015585 195.554851 
L 268.080317 193.159604 
L 268.619759 193.159604 
L 268.717135 191.562772 
L 268.898214 191.562772 
L 268.898214 190.764356 
L 269.42854 190.764356 
L 269.459864 177.989703 
L 269.657479 177.989703 
L 269.657479 177.191287 
L 270.121313 177.191287 
L 270.121313 176.392871 
L 271.102954 176.392871 
L 271.102954 175.594455 
L 271.454051 175.594455 
L 271.532539 173.997624 
L 278.748866 173.997624 
L 278.748866 173.199208 
L 279.248808 173.199208 
L 279.248808 172.400792 
L 279.50593 172.400792 
L 279.50593 171.602376 
L 279.727641 171.602376 
L 279.768892 170.005545 
L 280.060241 170.005545 
L 280.156484 166.811881 
L 280.188927 166.811881 
L 280.289311 164.416634 
L 280.454229 164.416634 
L 280.564283 162.819802 
L 280.618621 162.819802 
L 280.618621 162.021386 
L 280.742524 162.021386 
L 280.809018 159.626139 
L 281.078032 159.626139 
L 281.134266 156.432475 
L 281.28513 156.432475 
L 281.314871 154.037228 
L 281.462238 154.037228 
L 281.547605 152.440396 
L 281.809727 152.440396 
L 281.809727 151.64198 
L 281.933998 151.64198 
L 281.933998 150.843564 
L 282.159527 150.843564 
L 282.159527 150.045149 
L 282.535529 150.045149 
L 282.535529 149.246733 
L 284.09796 149.246733 
L 284.09796 148.448317 
L 284.666131 148.448317 
L 284.666131 147.649901 
L 284.870387 147.649901 
L 284.870387 146.851485 
L 285.585145 146.851485 
L 285.593795 145.254653 
L 286.273482 145.254653 
L 286.3071 143.657822 
L 287.205642 143.657822 
L 287.205642 142.859406 
L 288.012338 142.859406 
L 288.026394 141.262574 
L 288.140651 141.262574 
L 288.140651 140.464158 
L 288.306086 140.464158 
L 288.306086 139.665743 
L 288.492321 139.665743 
L 288.58942 136.472079 
L 288.609638 136.472079 
L 288.609638 135.673663 
L 288.723683 135.673663 
L 288.784421 134.076832 
L 289.124475 134.076832 
L 289.124475 133.278416 
L 289.484046 133.278416 
L 289.594679 131.681584 
L 289.750642 131.681584 
L 289.750642 130.883168 
L 289.945457 130.883168 
L 289.99672 129.286337 
L 290.139952 129.286337 
L 290.176542 126.891089 
L 290.263447 126.891089 
L 290.274315 125.294257 
L 290.379133 125.294257 
L 290.379133 124.495842 
L 290.837882 124.495842 
L 290.837882 123.697426 
L 291.060035 123.697426 
L 291.076977 122.100594 
L 291.192237 122.100594 
L 291.192237 121.302178 
L 291.360805 121.302178 
L 291.360805 120.503762 
L 291.572415 120.503762 
L 291.572415 119.705347 
L 292.018082 119.705347 
L 292.091342 118.108515 
L 292.140449 118.108515 
L 292.140449 117.310099 
L 292.264034 117.310099 
L 292.264034 116.511683 
L 292.575099 116.511683 
L 292.66542 114.116436 
L 292.704257 114.116436 
L 292.815129 112.519604 
L 292.901455 112.519604 
L 292.901455 111.721188 
L 293.096688 111.721188 
L 293.096688 110.922772 
L 293.334548 110.922772 
L 293.334548 110.124356 
L 293.676787 110.124356 
L 293.676787 109.325941 
L 294.461102 109.325941 
L 294.461102 108.527525 
L 294.61867 108.527525 
L 294.620282 106.930693 
L 294.875579 106.930693 
L 294.875579 106.132277 
L 295.094329 106.132277 
L 295.094329 105.333861 
L 295.386724 105.333861 
L 295.386724 104.535446 
L 296.340353 104.535446 
L 296.340353 103.73703 
L 296.585082 103.73703 
L 296.585082 102.938614 
L 298.340269 102.938614 
L 298.340269 102.140198 
L 298.633684 102.140198 
L 298.633684 101.341782 
L 298.815681 101.341782 
L 298.815681 100.543366 
L 300.191023 100.543366 
L 300.191023 99.74495 
L 300.373838 99.74495 
L 300.373838 98.946535 
L 301.026827 98.946535 
L 301.026827 98.148119 
L 301.329513 98.148119 
L 301.329513 97.349703 
L 301.475382 97.349703 
L 301.475382 96.551287 
L 301.645212 96.551287 
L 301.645212 95.752871 
L 301.872899 95.752871 
L 301.872899 94.954455 
L 302.153338 94.954455 
L 302.153338 94.15604 
L 302.523688 94.15604 
L 302.523688 93.357624 
L 302.745036 93.357624 
L 302.797431 91.760792 
L 303.554723 91.760792 
L 303.554723 90.962376 
L 303.758144 90.962376 
L 303.758144 90.16396 
L 304.117839 90.16396 
L 304.224432 88.567129 
L 307.464104 88.567129 
L 307.464104 87.768713 
L 309.204025 87.768713 
L 309.204025 86.970297 
L 327.459719 86.970297 
L 327.459719 74.994059 
L 328.24112 74.994059 
L 328.24112 74.195644 
L 330.23005 74.195644 
L 330.23005 73.397228 
L 330.682827 73.397228 
L 330.682827 72.598812 
L 331.546922 72.598812 
L 331.546922 71.800396 
L 336.282247 71.800396 
L 336.282247 71.00198 
L 339.703541 71.00198 
L 339.703541 70.203564 
L 340.774455 70.203564 
L 340.774455 69.405149 
L 341.02714 69.405149 
L 341.02714 68.606733 
L 341.320757 68.606733 
L 341.320757 67.808317 
L 341.71415 67.808317 
L 341.71415 67.009901 
L 342.262508 67.009901 
L 342.262508 66.211485 
L 342.860573 66.211485 
L 342.860573 65.413069 
L 343.039387 65.413069 
L 343.039387 64.614653 
L 343.67573 64.614653 
L 343.67573 63.816238 
L 343.79788 63.816238 
L 343.79788 63.017822 
L 344.316802 63.017822 
L 344.336146 61.42099 
L 345.03788 61.42099 
L 345.03788 60.622574 
L 345.47913 60.622574 
L 345.574974 59.025743 
L 350.125094 59.025743 
L 350.125094 58.227327 
L 350.286704 58.227327 
L 350.286704 57.428911 
L 352.067184 57.428911 
L 352.067184 56.630495 
L 354.790995 56.630495 
L 354.790995 55.832079 
L 355.114322 55.832079 
L 355.114322 55.033663 
L 355.557489 55.033663 
L 355.557489 54.235248 
L 358.25082 54.235248 
L 358.26281 52.638416 
L 359.105616 52.638416 
L 359.105616 51.84 
L 359.794882 51.84 
L 359.794882 51.041584 
L 360.244093 51.041584 
L 360.244093 50.243168 
L 360.730162 50.243168 
L 360.730162 49.444752 
L 360.870273 49.444752 
L 360.953751 47.847921 
L 361.745582 47.847921 
L 361.745582 47.049505 
L 364.978357 47.049505 
L 364.978357 46.251089 
L 366.477694 46.251089 
L 366.477694 45.452673 
L 367.635564 45.452673 
L 367.635564 44.654257 
L 368.44648 44.654257 
L 368.44648 43.855842 
L 370.895015 43.855842 
L 370.895015 43.057426 
L 372.892426 43.057426 
L 372.892426 42.25901 
L 381.223124 42.25901 
L 381.223124 41.460594 
L 381.810549 41.460594 
L 381.810549 40.662178 
L 382.53137 40.662178 
L 382.53137 39.863762 
L 383.575073 39.863762 
L 383.642383 38.266931 
L 384.382586 38.266931 
L 384.382586 37.468515 
L 386.105081 37.468515 
L 386.105081 36.670099 
L 387.313583 36.670099 
L 387.313583 35.871683 
L 387.522306 35.871683 
L 387.522306 35.073267 
L 388.169481 35.073267 
L 388.169481 34.274851 
L 388.324103 34.274851 
L 388.358519 32.67802 
L 391.533496 32.67802 
L 391.533496 31.879604 
L 392.127503 31.879604 
L 392.127503 31.081188 
L 392.579159 31.081188 
L 392.579159 30.282772 
L 393.359056 30.282772 
L 393.359056 29.484356 
L 393.796051 29.484356 
L 393.796051 28.685941 
L 394.337176 28.685941 
L 394.363127 27.089109 
L 394.64665 27.089109 
L 394.670326 25.492277 
L 396.537541 25.492277 
L 396.537541 24.693861 
L 398.604803 24.693861 
L 398.604803 23.895446 
L 400.406335 23.895446 
L 400.406335 23.09703 
L 401.765923 23.09703 
L 401.765923 22.298614 
L 402.365245 22.298614 
L 402.365245 21.500198 
L 402.547455 21.500198 
L 402.547455 20.701782 
L 403.895163 20.701782 
L 403.895163 19.903366 
L 405.52946 19.903366 
L 405.52946 19.10495 
L 408.623336 19.10495 
L 408.623336 18.306535 
L 422.768033 18.306535 
L 422.768033 17.508119 
L 426.168823 17.508119 
L 426.196315 15.911287 
L 431.137125 15.911287 
L 431.137125 15.112871 
L 432.206449 15.112871 
L 432.206449 14.314455 
L 432.949247 14.314455 
L 432.949247 13.51604 
L 434.631437 13.51604 
L 434.631437 12.717624 
L 435.487868 12.717624 
L 435.487868 11.919208 
L 436.471541 11.919208 
L 436.471541 11.120792 
L 438.715359 11.120792 
L 438.715359 10.322376 
L 439.474409 10.322376 
L 439.474409 9.52396 
L 441.914997 9.52396 
L 441.914997 8.725545 
L 442.218703 8.725545 
L 442.218703 7.927129 
L 444.177945 7.927129 
L 444.177945 7.128713 
L 448.262884 7.128713 
L 448.262884 6.330297 
L 448.262884 6.330297 
L 460.8 6.330297 
L 460.8 6.330297 
" clip-path="url(#pde813909d6)" style="fill: none; stroke: #00bfbf; stroke-width: 1.5; stroke-linecap: square"/>
   </g>
   <g id="line2d_23">
    <path d="M 197.520574 293.76 
L 197.520574 281.783762 
L 231.57866 281.783762 
L 231.57866 280.985347 
L 232.234371 280.985347 
L 232.234371 280.186931 
L 233.178438 280.186931 
L 233.178438 279.388515 
L 233.709656 279.388515 
L 233.709656 278.590099 
L 234.294348 278.590099 
L 234.294348 277.791683 
L 235.034556 277.791683 
L 235.034556 276.993267 
L 235.232655 276.993267 
L 235.232655 276.194851 
L 235.855818 276.194851 
L 235.855818 275.396436 
L 236.099415 275.396436 
L 236.099415 274.59802 
L 236.47789 274.59802 
L 236.47789 273.799604 
L 236.950932 273.799604 
L 236.950932 273.001188 
L 237.894267 273.001188 
L 237.894267 272.202772 
L 238.786358 272.202772 
L 238.786358 271.404356 
L 239.054809 271.404356 
L 239.054809 270.605941 
L 240.016996 270.605941 
L 240.016996 269.807525 
L 241.754474 269.807525 
L 241.754474 269.009109 
L 242.147159 269.009109 
L 242.147159 268.210693 
L 242.999865 268.210693 
L 242.999865 267.412277 
L 243.415727 267.412277 
L 243.415727 266.613861 
L 244.728428 266.613861 
L 244.728428 265.815446 
L 245.038244 265.815446 
L 245.038244 265.01703 
L 245.232249 265.01703 
L 245.232249 264.218614 
L 245.343635 264.218614 
L 245.377639 262.621782 
L 245.567348 262.621782 
L 245.567348 261.823366 
L 247.12606 261.823366 
L 247.12606 261.02495 
L 249.035777 261.02495 
L 249.035777 260.226535 
L 249.881833 260.226535 
L 249.881833 259.428119 
L 250.238149 259.428119 
L 250.238149 258.629703 
L 250.55525 258.629703 
L 250.55525 257.831287 
L 252.976429 257.831287 
L 252.976429 257.032871 
L 254.320447 257.032871 
L 254.399029 255.43604 
L 255.099645 255.43604 
L 255.099645 254.637624 
L 255.414832 254.637624 
L 255.414832 253.839208 
L 256.108597 253.839208 
L 256.108597 253.040792 
L 256.339079 253.040792 
L 256.356264 251.44396 
L 256.594737 251.44396 
L 256.594737 250.645545 
L 257.292192 250.645545 
L 257.372118 249.048713 
L 257.485158 249.048713 
L 257.485158 248.250297 
L 257.730987 248.250297 
L 257.836644 246.653465 
L 258.023477 246.653465 
L 258.105101 245.056634 
L 258.564085 245.056634 
L 258.564085 244.258218 
L 258.725991 244.258218 
L 258.80044 241.86297 
L 258.944928 241.86297 
L 258.986731 240.266139 
L 259.128837 240.266139 
L 259.155089 238.669307 
L 259.282324 238.669307 
L 259.32449 237.072475 
L 259.503167 237.072475 
L 259.567201 235.475644 
L 259.830193 235.475644 
L 259.830193 234.677228 
L 260.170765 234.677228 
L 260.206277 233.080396 
L 260.671887 233.080396 
L 260.671887 232.28198 
L 260.78743 232.28198 
L 260.78743 231.483564 
L 261.479349 231.483564 
L 261.50546 229.886733 
L 262.495649 229.886733 
L 262.519391 228.289901 
L 262.709872 228.289901 
L 262.740709 226.693069 
L 263.068787 226.693069 
L 263.068787 225.894653 
L 263.195981 225.894653 
L 263.195981 225.096238 
L 263.436698 225.096238 
L 263.436698 224.297822 
L 263.749025 224.297822 
L 263.749025 223.499406 
L 263.895778 223.499406 
L 264.001606 219.507327 
L 264.033686 219.507327 
L 264.13022 215.515248 
L 264.196553 215.515248 
L 264.253566 213.12 
L 264.316577 213.12 
L 264.412146 210.724752 
L 264.453109 210.724752 
L 264.523541 207.531089 
L 264.596232 207.531089 
L 264.682495 204.337426 
L 264.767333 204.337426 
L 264.853466 201.942178 
L 264.944161 201.942178 
L 265.031058 199.546931 
L 265.274397 199.546931 
L 265.274397 198.748515 
L 265.75957 198.748515 
L 265.75957 197.950099 
L 266.523139 197.950099 
L 266.623731 196.353267 
L 266.853771 196.353267 
L 266.853771 195.554851 
L 267.729254 195.554851 
L 267.729254 194.756436 
L 268.037788 194.756436 
L 268.080317 193.159604 
L 268.619759 193.159604 
L 268.717135 191.562772 
L 268.898214 191.562772 
L 268.898214 190.764356 
L 269.0831 190.764356 
L 269.0831 189.965941 
L 269.42854 189.965941 
L 269.459864 177.191287 
L 269.657479 177.191287 
L 269.657479 176.392871 
L 270.121313 176.392871 
L 270.121313 175.594455 
L 271.102954 175.594455 
L 271.102954 174.79604 
L 271.454051 174.79604 
L 271.454051 173.997624 
L 278.660907 173.997624 
L 278.748866 172.400792 
L 278.811352 172.400792 
L 278.811352 171.602376 
L 279.153738 171.602376 
L 279.248808 170.005545 
L 279.50593 170.005545 
L 279.50593 169.207129 
L 279.727641 169.207129 
L 279.768892 167.610297 
L 280.031225 167.610297 
L 280.116008 165.21505 
L 280.148302 165.21505 
L 280.252672 161.22297 
L 280.289311 161.22297 
L 280.289311 160.424554 
L 280.454229 160.424554 
L 280.564283 158.827723 
L 280.618621 158.827723 
L 280.708947 157.230891 
L 280.742524 157.230891 
L 280.809018 154.037228 
L 281.078032 154.037228 
L 281.078032 153.238812 
L 281.28513 153.238812 
L 281.28513 152.440396 
L 281.547605 152.440396 
L 281.614753 150.843564 
L 281.933998 150.843564 
L 281.933998 150.045149 
L 282.535529 150.045149 
L 282.535529 149.246733 
L 284.09796 149.246733 
L 284.09796 148.448317 
L 284.666131 148.448317 
L 284.666131 147.649901 
L 284.870387 147.649901 
L 284.870387 146.851485 
L 285.585145 146.851485 
L 285.593795 145.254653 
L 286.102086 145.254653 
L 286.102086 144.456238 
L 286.273482 144.456238 
L 286.3071 142.859406 
L 286.554753 142.859406 
L 286.554753 142.06099 
L 287.205642 142.06099 
L 287.205642 141.262574 
L 288.012338 141.262574 
L 288.026394 139.665743 
L 288.140651 139.665743 
L 288.140651 138.867327 
L 288.306086 138.867327 
L 288.306086 138.068911 
L 288.492321 138.068911 
L 288.58942 134.875248 
L 288.609638 134.875248 
L 288.609638 134.076832 
L 288.723683 134.076832 
L 288.784421 132.48 
L 288.926806 132.48 
L 288.926806 131.681584 
L 289.124475 131.681584 
L 289.124475 130.883168 
L 289.484046 130.883168 
L 289.594679 129.286337 
L 289.750642 129.286337 
L 289.860661 127.689505 
L 289.945457 127.689505 
L 289.99672 126.092673 
L 290.139952 126.092673 
L 290.205976 122.89901 
L 290.263447 122.89901 
L 290.274315 121.302178 
L 290.379133 121.302178 
L 290.379133 120.503762 
L 290.781658 120.503762 
L 290.837882 118.906931 
L 291.060035 118.906931 
L 291.076977 117.310099 
L 291.360805 117.310099 
L 291.47142 115.713267 
L 291.572415 115.713267 
L 291.572415 114.914851 
L 292.018082 114.914851 
L 292.091342 113.31802 
L 292.140449 113.31802 
L 292.251495 110.922772 
L 292.264034 110.922772 
L 292.264034 110.124356 
L 292.660558 110.124356 
L 292.66542 108.527525 
L 292.815129 108.527525 
L 292.815129 107.729109 
L 293.096688 107.729109 
L 293.096688 106.930693 
L 293.676787 106.930693 
L 293.676787 106.132277 
L 294.035669 106.132277 
L 294.035669 105.333861 
L 294.61867 105.333861 
L 294.620282 103.73703 
L 294.875579 103.73703 
L 294.875579 102.938614 
L 295.094329 102.938614 
L 295.094329 102.140198 
L 295.386724 102.140198 
L 295.386724 101.341782 
L 296.693716 101.341782 
L 296.693716 100.543366 
L 298.633684 100.543366 
L 298.633684 99.74495 
L 298.815681 99.74495 
L 298.815681 98.946535 
L 300.373838 98.946535 
L 300.417916 97.349703 
L 301.026827 97.349703 
L 301.026827 96.551287 
L 301.317238 96.551287 
L 301.329513 94.954455 
L 301.475382 94.954455 
L 301.475382 94.15604 
L 301.645212 94.15604 
L 301.645212 93.357624 
L 301.872899 93.357624 
L 301.872899 92.559208 
L 302.523688 92.559208 
L 302.523688 91.760792 
L 302.745036 91.760792 
L 302.797431 90.16396 
L 303.468611 90.16396 
L 303.554723 88.567129 
L 303.758144 88.567129 
L 303.758144 87.768713 
L 304.224432 87.768713 
L 304.224432 86.970297 
L 305.416009 86.970297 
L 305.416009 86.171881 
L 307.464104 86.171881 
L 307.464104 85.373465 
L 307.610429 85.373465 
L 307.610429 84.57505 
L 309.204025 84.57505 
L 309.204025 83.776634 
L 311.878298 83.776634 
L 311.878298 82.978218 
L 325.149863 82.978218 
L 325.149863 82.179802 
L 327.459719 82.179802 
L 327.459719 70.203564 
L 328.24112 70.203564 
L 328.24112 69.405149 
L 330.23005 69.405149 
L 330.23005 68.606733 
L 331.546922 68.606733 
L 331.546922 67.808317 
L 336.282247 67.808317 
L 336.282247 67.009901 
L 339.703541 67.009901 
L 339.703541 66.211485 
L 340.641346 66.211485 
L 340.641346 65.413069 
L 340.774455 65.413069 
L 340.774455 64.614653 
L 341.02714 64.614653 
L 341.02714 63.816238 
L 341.320757 63.816238 
L 341.320757 63.017822 
L 341.71415 63.017822 
L 341.71415 62.219406 
L 342.860573 62.219406 
L 342.860573 61.42099 
L 343.039387 61.42099 
L 343.039387 60.622574 
L 343.67573 60.622574 
L 343.67573 59.824158 
L 344.316802 59.824158 
L 344.336146 58.227327 
L 345.03788 58.227327 
L 345.03788 57.428911 
L 345.47913 57.428911 
L 345.47913 56.630495 
L 349.283388 56.630495 
L 349.283388 55.832079 
L 350.286704 55.832079 
L 350.286704 55.033663 
L 352.067184 55.033663 
L 352.067184 54.235248 
L 354.790995 54.235248 
L 354.790995 53.436832 
L 358.25082 53.436832 
L 358.26281 51.84 
L 358.862034 51.84 
L 358.862034 51.041584 
L 359.105616 51.041584 
L 359.105616 50.243168 
L 360.244093 50.243168 
L 360.244093 49.444752 
L 360.730162 49.444752 
L 360.730162 48.646337 
L 360.870273 48.646337 
L 360.953751 47.049505 
L 364.978357 47.049505 
L 364.978357 46.251089 
L 366.477694 46.251089 
L 366.477694 45.452673 
L 366.881027 45.452673 
L 366.881027 44.654257 
L 367.519226 44.654257 
L 367.519226 43.855842 
L 368.44648 43.855842 
L 368.44648 43.057426 
L 372.892426 43.057426 
L 372.892426 42.25901 
L 377.968925 42.25901 
L 377.968925 41.460594 
L 380.646779 41.460594 
L 380.646779 40.662178 
L 381.810549 40.662178 
L 381.810549 39.863762 
L 382.53137 39.863762 
L 382.53137 39.065347 
L 383.575073 39.065347 
L 383.642383 37.468515 
L 384.382586 37.468515 
L 384.382586 36.670099 
L 386.105081 36.670099 
L 386.105081 35.871683 
L 386.9228 35.871683 
L 386.9228 35.073267 
L 387.339253 35.073267 
L 387.339253 34.274851 
L 387.522306 34.274851 
L 387.522306 33.476436 
L 388.169481 33.476436 
L 388.169481 32.67802 
L 388.324103 32.67802 
L 388.358519 31.081188 
L 389.098753 31.081188 
L 389.098753 30.282772 
L 390.206623 30.282772 
L 390.206623 29.484356 
L 391.224847 29.484356 
L 391.224847 28.685941 
L 392.127503 28.685941 
L 392.127503 27.887525 
L 392.248746 27.887525 
L 392.248746 27.089109 
L 393.359056 27.089109 
L 393.359056 26.290693 
L 393.796051 26.290693 
L 393.796051 25.492277 
L 394.02158 25.492277 
L 394.02158 24.693861 
L 394.26698 24.693861 
L 394.26698 23.895446 
L 394.670326 23.895446 
L 394.670326 23.09703 
L 395.927662 23.09703 
L 395.927662 22.298614 
L 396.87988 22.298614 
L 396.930062 20.701782 
L 397.672291 20.701782 
L 397.745888 19.10495 
L 398.430742 19.10495 
L 398.430742 18.306535 
L 422.768033 18.306535 
L 422.768033 17.508119 
L 426.168823 17.508119 
L 426.196315 15.911287 
L 431.137125 15.911287 
L 431.137125 15.112871 
L 432.206449 15.112871 
L 432.206449 14.314455 
L 432.949247 14.314455 
L 432.949247 13.51604 
L 434.009379 13.51604 
L 434.009379 12.717624 
L 434.631437 12.717624 
L 434.631437 11.919208 
L 435.487868 11.919208 
L 435.487868 11.120792 
L 436.471541 11.120792 
L 436.471541 10.322376 
L 438.715359 10.322376 
L 438.715359 9.52396 
L 439.474409 9.52396 
L 439.474409 8.725545 
L 442.218703 8.725545 
L 442.218703 7.927129 
L 444.177945 7.927129 
L 444.177945 7.128713 
L 448.079919 7.128713 
L 448.079919 6.330297 
L 448.079919 6.330297 
L 460.8 6.330297 
L 460.8 6.330297 
" clip-path="url(#pde813909d6)" style="fill: none; stroke: #bf00bf; stroke-width: 1.5; stroke-linecap: square"/>
   </g>
   <g id="patch_3">
    <path d="M 0 293.76 
L 0 3.456 
" style="fill: none; stroke: #000000; stroke-width: 0.8; stroke-linejoin: miter; stroke-linecap: square"/>
   </g>
   <g id="patch_4">
    <path d="M 460.8 293.76 
L 460.8 3.456 
" style="fill: none; stroke: #000000; stroke-width: 0.8; stroke-linejoin: miter; stroke-linecap: square"/>
   </g>
   <g id="patch_5">
    <path d="M 0 293.76 
L 460.8 293.76 
" style="fill: none; stroke: #000000; stroke-width: 0.8; stroke-linejoin: miter; stroke-linecap: square"/>
   </g>
   <g id="patch_6">
    <path d="M 0 3.456 
L 460.8 3.456 
" style="fill: none; stroke: #000000; stroke-width: 0.8; stroke-linejoin: miter; stroke-linecap: square"/>
   </g>
   <g id="text_6">
    <!-- {f1-f24}, 20-D -->
    <g transform="translate(305.884 287.95392) scale(0.2 -0.2)">
     <defs>
      <path id="DejaVuSans-7b" d="M 3272 -594 
L 3272 -1044 
L 3078 -1044 
Q 2300 -1044 2036 -812 
Q 1772 -581 1772 109 
L 1772 856 
Q 1772 1328 1603 1509 
Q 1434 1691 991 1691 
L 800 1691 
L 800 2138 
L 991 2138 
Q 1438 2138 1605 2317 
Q 1772 2497 1772 2963 
L 1772 3713 
Q 1772 4403 2036 4633 
Q 2300 4863 3078 4863 
L 3272 4863 
L 3272 4416 
L 3059 4416 
Q 2619 4416 2484 4278 
Q 2350 4141 2350 3700 
L 2350 2925 
Q 2350 2434 2208 2212 
Q 2066 1991 1722 1913 
Q 2069 1828 2209 1606 
Q 2350 1384 2350 897 
L 2350 122 
Q 2350 -319 2484 -456 
Q 2619 -594 3059 -594 
L 3272 -594 
z
" transform="scale(0.015625)"/>
      <path id="DejaVuSans-32" d="M 1228 531 
L 3431 531 
L 3431 0 
L 469 0 
L 469 531 
Q 828 903 1448 1529 
Q 2069 2156 2228 2338 
Q 2531 2678 2651 2914 
Q 2772 3150 2772 3378 
Q 2772 3750 2511 3984 
Q 2250 4219 1831 4219 
Q 1534 4219 1204 4116 
Q 875 4013 500 3803 
L 500 4441 
Q 881 4594 1212 4672 
Q 1544 4750 1819 4750 
Q 2544 4750 2975 4387 
Q 3406 4025 3406 3419 
Q 3406 3131 3298 2873 
Q 3191 2616 2906 2266 
Q 2828 2175 2409 1742 
Q 1991 1309 1228 531 
z
" transform="scale(0.015625)"/>
      <path id="DejaVuSans-7d" d="M 800 -594 
L 1019 -594 
Q 1456 -594 1589 -459 
Q 1722 -325 1722 122 
L 1722 897 
Q 1722 1384 1862 1606 
Q 2003 1828 2350 1913 
Q 2003 1991 1862 2212 
Q 1722 2434 1722 2925 
L 1722 3700 
Q 1722 4144 1589 4280 
Q 1456 4416 1019 4416 
L 800 4416 
L 800 4863 
L 997 4863 
Q 1775 4863 2036 4633 
Q 2297 4403 2297 3713 
L 2297 2963 
Q 2297 2497 2465 2317 
Q 2634 2138 3078 2138 
L 3272 2138 
L 3272 1691 
L 3078 1691 
Q 2634 1691 2465 1509 
Q 2297 1328 2297 856 
L 2297 109 
Q 2297 -581 2036 -812 
Q 1775 -1044 997 -1044 
L 800 -1044 
L 800 -594 
z
" transform="scale(0.015625)"/>
      <path id="DejaVuSans-2c" d="M 750 794 
L 1409 794 
L 1409 256 
L 897 -744 
L 494 -744 
L 750 256 
L 750 794 
z
" transform="scale(0.015625)"/>
     </defs>
     <use xlink:href="#DejaVuSans-7b"/>
     <use xlink:href="#DejaVuSans-66" x="63.623047"/>
     <use xlink:href="#DejaVuSans-31" x="98.828125"/>
     <use xlink:href="#DejaVuSans-2d" x="162.451172"/>
     <use xlink:href="#DejaVuSans-66" x="198.535156"/>
     <use xlink:href="#DejaVuSans-32" x="233.740234"/>
     <use xlink:href="#DejaVuSans-34" x="297.363281"/>
     <use xlink:href="#DejaVuSans-7d" x="360.986328"/>
     <use xlink:href="#DejaVuSans-2c" x="424.609375"/>
     <use xlink:href="#DejaVuSans-20" x="456.396484"/>
     <use xlink:href="#DejaVuSans-32" x="488.183594"/>
     <use xlink:href="#DejaVuSans-30" x="551.806641"/>
     <use xlink:href="#DejaVuSans-2d" x="615.429688"/>
     <use xlink:href="#DejaVuSans-44" x="651.513672"/>
    </g>
   </g>
   <g id="text_7">
    <!-- v2.6.3 -->
    <g style="fill: #808080" transform="translate(214.71875 288.777272) scale(0.1 -0.1)">
     <defs>
      <path id="DejaVuSans-76" d="M 191 3500 
L 800 3500 
L 1894 563 
L 2988 3500 
L 3597 3500 
L 2284 0 
L 1503 0 
L 191 3500 
z
" transform="scale(0.015625)"/>
      <path id="DejaVuSans-2e" d="M 684 794 
L 1344 794 
L 1344 0 
L 684 0 
L 684 794 
z
" transform="scale(0.015625)"/>
      <path id="DejaVuSans-36" d="M 2113 2584 
Q 1688 2584 1439 2293 
Q 1191 2003 1191 1497 
Q 1191 994 1439 701 
Q 1688 409 2113 409 
Q 2538 409 2786 701 
Q 3034 994 3034 1497 
Q 3034 2003 2786 2293 
Q 2538 2584 2113 2584 
z
M 3366 4563 
L 3366 3988 
Q 3128 4100 2886 4159 
Q 2644 4219 2406 4219 
Q 1781 4219 1451 3797 
Q 1122 3375 1075 2522 
Q 1259 2794 1537 2939 
Q 1816 3084 2150 3084 
Q 2853 3084 3261 2657 
Q 3669 2231 3669 1497 
Q 3669 778 3244 343 
Q 2819 -91 2113 -91 
Q 1303 -91 875 529 
Q 447 1150 447 2328 
Q 447 3434 972 4092 
Q 1497 4750 2381 4750 
Q 2619 4750 2861 4703 
Q 3103 4656 3366 4563 
z
" transform="scale(0.015625)"/>
      <path id="DejaVuSans-33" d="M 2597 2516 
Q 3050 2419 3304 2112 
Q 3559 1806 3559 1356 
Q 3559 666 3084 287 
Q 2609 -91 1734 -91 
Q 1441 -91 1130 -33 
Q 819 25 488 141 
L 488 750 
Q 750 597 1062 519 
Q 1375 441 1716 441 
Q 2309 441 2620 675 
Q 2931 909 2931 1356 
Q 2931 1769 2642 2001 
Q 2353 2234 1838 2234 
L 1294 2234 
L 1294 2753 
L 1863 2753 
Q 2328 2753 2575 2939 
Q 2822 3125 2822 3475 
Q 2822 3834 2567 4026 
Q 2313 4219 1838 4219 
Q 1578 4219 1281 4162 
Q 984 4106 628 3988 
L 628 4550 
Q 988 4650 1302 4700 
Q 1616 4750 1894 4750 
Q 2613 4750 3031 4423 
Q 3450 4097 3450 3541 
Q 3450 3153 3228 2886 
Q 3006 2619 2597 2516 
z
" transform="scale(0.015625)"/>
     </defs>
     <use xlink:href="#DejaVuSans-76"/>
     <use xlink:href="#DejaVuSans-32" x="59.179688"/>
     <use xlink:href="#DejaVuSans-2e" x="122.802734"/>
     <use xlink:href="#DejaVuSans-36" x="154.589844"/>
     <use xlink:href="#DejaVuSans-2e" x="218.212891"/>
     <use xlink:href="#DejaVuSans-33" x="250"/>
    </g>
   </g>
  </g>
 </g>
 <defs>
  <clipPath id="pde813909d6">
   <rect x="0" y="3.456" width="460.8" height="290.304"/>
  </clipPath>
 </defs>
</svg>
