<?xml version="1.0" encoding="utf-8" standalone="no"?>
<!DOCTYPE svg PUBLIC "-//W3C//DTD SVG 1.1//EN"
  "http://www.w3.org/Graphics/SVG/1.1/DTD/svg11.dtd">
<svg xmlns:xlink="http://www.w3.org/1999/xlink" width="460.8pt" height="345.6pt" viewBox="0 0 460.8 345.6" xmlns="http://www.w3.org/2000/svg" version="1.1">
 <metadata>
  <rdf:RDF xmlns:dc="http://purl.org/dc/elements/1.1/" xmlns:cc="http://creativecommons.org/ns#" xmlns:rdf="http://www.w3.org/1999/02/22-rdf-syntax-ns#">
   <cc:Work>
    <dc:type rdf:resource="http://purl.org/dc/dcmitype/StillImage"/>
    <dc:date>2024-01-17T15:11:15.742159</dc:date>
    <dc:format>image/svg+xml</dc:format>
    <dc:creator>
     <cc:Agent>
      <dc:title>Matplotlib v3.8.2, https://matplotlib.org/</dc:title>
     </cc:Agent>
    </dc:creator>
   </cc:Work>
  </rdf:RDF>
 </metadata>
 <defs>
  <style type="text/css">*{stroke-linejoin: round; stroke-linecap: butt}</style>
 </defs>
 <g id="figure_1">
  <g id="patch_1">
   <path d="M 0 345.6 
L 460.8 345.6 
L 460.8 0 
L 0 0 
z
" style="fill: #ffffff"/>
  </g>
  <g id="axes_1">
   <g id="patch_2">
    <path d="M 0 293.76 
L 460.8 293.76 
L 460.8 3.456 
L 0 3.456 
z
" style="fill: #ffffff"/>
   </g>
   <g id="matplotlib.axis_1">
    <g id="xtick_1">
     <g id="line2d_1">
      <path d="M 106.735217 293.76 
L 106.735217 3.456 
" clip-path="url(#pe4a2dfd4d3)" style="fill: none; stroke: #b0b0b0; stroke-width: 0.8; stroke-linecap: square"/>
     </g>
     <g id="line2d_2">
      <defs>
       <path id="mc5d4c5a891" d="M 0 0 
L 0 3.5 
" style="stroke: #000000; stroke-width: 0.8"/>
      </defs>
      <g>
       <use xlink:href="#mc5d4c5a891" x="106.735217" y="293.76" style="stroke: #000000; stroke-width: 0.8"/>
      </g>
     </g>
     <g id="text_1">
      <!-- -4 -->
      <g transform="translate(96.764904 315.956875) scale(0.2 -0.2)">
       <defs>
        <path id="DejaVuSans-2d" d="M 313 2009 
L 1997 2009 
L 1997 1497 
L 313 1497 
L 313 2009 
z
" transform="scale(0.015625)"/>
        <path id="DejaVuSans-34" d="M 2419 4116 
L 825 1625 
L 2419 1625 
L 2419 4116 
z
M 2253 4666 
L 3047 4666 
L 3047 1625 
L 3713 1625 
L 3713 1100 
L 3047 1100 
L 3047 0 
L 2419 0 
L 2419 1100 
L 313 1100 
L 313 1709 
L 2253 4666 
z
" transform="scale(0.015625)"/>
       </defs>
       <use xlink:href="#DejaVuSans-2d"/>
       <use xlink:href="#DejaVuSans-34" x="36.083984"/>
      </g>
     </g>
    </g>
    <g id="xtick_2">
     <g id="line2d_3">
      <path d="M 213.585869 293.76 
L 213.585869 3.456 
" clip-path="url(#pe4a2dfd4d3)" style="fill: none; stroke: #b0b0b0; stroke-width: 0.8; stroke-linecap: square"/>
     </g>
     <g id="line2d_4">
      <g>
       <use xlink:href="#mc5d4c5a891" x="213.585869" y="293.76" style="stroke: #000000; stroke-width: 0.8"/>
      </g>
     </g>
     <g id="text_2">
      <!-- 0 -->
      <g transform="translate(207.223369 315.956875) scale(0.2 -0.2)">
       <defs>
        <path id="DejaVuSans-30" d="M 2034 4250 
Q 1547 4250 1301 3770 
Q 1056 3291 1056 2328 
Q 1056 1369 1301 889 
Q 1547 409 2034 409 
Q 2525 409 2770 889 
Q 3016 1369 3016 2328 
Q 3016 3291 2770 3770 
Q 2525 4250 2034 4250 
z
M 2034 4750 
Q 2819 4750 3233 4129 
Q 3647 3509 3647 2328 
Q 3647 1150 3233 529 
Q 2819 -91 2034 -91 
Q 1250 -91 836 529 
Q 422 1150 422 2328 
Q 422 3509 836 4129 
Q 1250 4750 2034 4750 
z
" transform="scale(0.015625)"/>
       </defs>
       <use xlink:href="#DejaVuSans-30"/>
      </g>
     </g>
    </g>
    <g id="xtick_3">
     <g id="line2d_5">
      <path d="M 320.436521 293.76 
L 320.436521 3.456 
" clip-path="url(#pe4a2dfd4d3)" style="fill: none; stroke: #b0b0b0; stroke-width: 0.8; stroke-linecap: square"/>
     </g>
     <g id="line2d_6">
      <g>
       <use xlink:href="#mc5d4c5a891" x="320.436521" y="293.76" style="stroke: #000000; stroke-width: 0.8"/>
      </g>
     </g>
     <g id="text_3">
      <!-- 4 -->
      <g transform="translate(314.074021 315.956875) scale(0.2 -0.2)">
       <use xlink:href="#DejaVuSans-34"/>
      </g>
     </g>
    </g>
    <g id="xtick_4">
     <g id="line2d_7">
      <path d="M 427.287174 293.76 
L 427.287174 3.456 
" clip-path="url(#pe4a2dfd4d3)" style="fill: none; stroke: #b0b0b0; stroke-width: 0.8; stroke-linecap: square"/>
     </g>
     <g id="line2d_8">
      <g>
       <use xlink:href="#mc5d4c5a891" x="427.287174" y="293.76" style="stroke: #000000; stroke-width: 0.8"/>
      </g>
     </g>
     <g id="text_4">
      <!-- 8 -->
      <g transform="translate(420.924674 315.956875) scale(0.2 -0.2)">
       <defs>
        <path id="DejaVuSans-38" d="M 2034 2216 
Q 1584 2216 1326 1975 
Q 1069 1734 1069 1313 
Q 1069 891 1326 650 
Q 1584 409 2034 409 
Q 2484 409 2743 651 
Q 3003 894 3003 1313 
Q 3003 1734 2745 1975 
Q 2488 2216 2034 2216 
z
M 1403 2484 
Q 997 2584 770 2862 
Q 544 3141 544 3541 
Q 544 4100 942 4425 
Q 1341 4750 2034 4750 
Q 2731 4750 3128 4425 
Q 3525 4100 3525 3541 
Q 3525 3141 3298 2862 
Q 3072 2584 2669 2484 
Q 3125 2378 3379 2068 
Q 3634 1759 3634 1313 
Q 3634 634 3220 271 
Q 2806 -91 2034 -91 
Q 1263 -91 848 271 
Q 434 634 434 1313 
Q 434 1759 690 2068 
Q 947 2378 1403 2484 
z
M 1172 3481 
Q 1172 3119 1398 2916 
Q 1625 2713 2034 2713 
Q 2441 2713 2670 2916 
Q 2900 3119 2900 3481 
Q 2900 3844 2670 4047 
Q 2441 4250 2034 4250 
Q 1625 4250 1398 4047 
Q 1172 3844 1172 3481 
z
" transform="scale(0.015625)"/>
       </defs>
       <use xlink:href="#DejaVuSans-38"/>
      </g>
     </g>
    </g>
    <g id="text_5">
     <!-- log10 of Df -->
     <g transform="translate(175.214063 339.313125) scale(0.2 -0.2)">
      <defs>
       <path id="DejaVuSans-6c" d="M 603 4863 
L 1178 4863 
L 1178 0 
L 603 0 
L 603 4863 
z
" transform="scale(0.015625)"/>
       <path id="DejaVuSans-6f" d="M 1959 3097 
Q 1497 3097 1228 2736 
Q 959 2375 959 1747 
Q 959 1119 1226 758 
Q 1494 397 1959 397 
Q 2419 397 2687 759 
Q 2956 1122 2956 1747 
Q 2956 2369 2687 2733 
Q 2419 3097 1959 3097 
z
M 1959 3584 
Q 2709 3584 3137 3096 
Q 3566 2609 3566 1747 
Q 3566 888 3137 398 
Q 2709 -91 1959 -91 
Q 1206 -91 779 398 
Q 353 888 353 1747 
Q 353 2609 779 3096 
Q 1206 3584 1959 3584 
z
" transform="scale(0.015625)"/>
       <path id="DejaVuSans-67" d="M 2906 1791 
Q 2906 2416 2648 2759 
Q 2391 3103 1925 3103 
Q 1463 3103 1205 2759 
Q 947 2416 947 1791 
Q 947 1169 1205 825 
Q 1463 481 1925 481 
Q 2391 481 2648 825 
Q 2906 1169 2906 1791 
z
M 3481 434 
Q 3481 -459 3084 -895 
Q 2688 -1331 1869 -1331 
Q 1566 -1331 1297 -1286 
Q 1028 -1241 775 -1147 
L 775 -588 
Q 1028 -725 1275 -790 
Q 1522 -856 1778 -856 
Q 2344 -856 2625 -561 
Q 2906 -266 2906 331 
L 2906 616 
Q 2728 306 2450 153 
Q 2172 0 1784 0 
Q 1141 0 747 490 
Q 353 981 353 1791 
Q 353 2603 747 3093 
Q 1141 3584 1784 3584 
Q 2172 3584 2450 3431 
Q 2728 3278 2906 2969 
L 2906 3500 
L 3481 3500 
L 3481 434 
z
" transform="scale(0.015625)"/>
       <path id="DejaVuSans-31" d="M 794 531 
L 1825 531 
L 1825 4091 
L 703 3866 
L 703 4441 
L 1819 4666 
L 2450 4666 
L 2450 531 
L 3481 531 
L 3481 0 
L 794 0 
L 794 531 
z
" transform="scale(0.015625)"/>
       <path id="DejaVuSans-20" transform="scale(0.015625)"/>
       <path id="DejaVuSans-66" d="M 2375 4863 
L 2375 4384 
L 1825 4384 
Q 1516 4384 1395 4259 
Q 1275 4134 1275 3809 
L 1275 3500 
L 2222 3500 
L 2222 3053 
L 1275 3053 
L 1275 0 
L 697 0 
L 697 3053 
L 147 3053 
L 147 3500 
L 697 3500 
L 697 3744 
Q 697 4328 969 4595 
Q 1241 4863 1831 4863 
L 2375 4863 
z
" transform="scale(0.015625)"/>
       <path id="DejaVuSans-44" d="M 1259 4147 
L 1259 519 
L 2022 519 
Q 2988 519 3436 956 
Q 3884 1394 3884 2338 
Q 3884 3275 3436 3711 
Q 2988 4147 2022 4147 
L 1259 4147 
z
M 628 4666 
L 1925 4666 
Q 3281 4666 3915 4102 
Q 4550 3538 4550 2338 
Q 4550 1131 3912 565 
Q 3275 0 1925 0 
L 628 0 
L 628 4666 
z
" transform="scale(0.015625)"/>
      </defs>
      <use xlink:href="#DejaVuSans-6c"/>
      <use xlink:href="#DejaVuSans-6f" x="27.783203"/>
      <use xlink:href="#DejaVuSans-67" x="88.964844"/>
      <use xlink:href="#DejaVuSans-31" x="152.441406"/>
      <use xlink:href="#DejaVuSans-30" x="216.064453"/>
      <use xlink:href="#DejaVuSans-20" x="279.6875"/>
      <use xlink:href="#DejaVuSans-6f" x="311.474609"/>
      <use xlink:href="#DejaVuSans-66" x="372.65625"/>
      <use xlink:href="#DejaVuSans-20" x="407.861328"/>
      <use xlink:href="#DejaVuSans-44" x="439.648438"/>
      <use xlink:href="#DejaVuSans-66" x="516.650391"/>
     </g>
    </g>
   </g>
   <g id="matplotlib.axis_2">
    <g id="ytick_1">
     <g id="line2d_9">
      <path d="M 0 293.76 
L 460.8 293.76 
" clip-path="url(#pe4a2dfd4d3)" style="fill: none; stroke: #b0b0b0; stroke-width: 0.8; stroke-linecap: square"/>
     </g>
     <g id="line2d_10">
      <defs>
       <path id="mace75ea90f" d="M 0 0 
L -3.5 0 
" style="stroke: #000000; stroke-width: 0.8"/>
      </defs>
      <g>
       <use xlink:href="#mace75ea90f" x="0" y="293.76" style="stroke: #000000; stroke-width: 0.8"/>
      </g>
     </g>
    </g>
    <g id="ytick_2">
     <g id="line2d_11">
      <path d="M 0 236.274059 
L 460.8 236.274059 
" clip-path="url(#pe4a2dfd4d3)" style="fill: none; stroke: #b0b0b0; stroke-width: 0.8; stroke-linecap: square"/>
     </g>
     <g id="line2d_12">
      <g>
       <use xlink:href="#mace75ea90f" x="0" y="236.274059" style="stroke: #000000; stroke-width: 0.8"/>
      </g>
     </g>
    </g>
    <g id="ytick_3">
     <g id="line2d_13">
      <path d="M 0 178.788119 
L 460.8 178.788119 
" clip-path="url(#pe4a2dfd4d3)" style="fill: none; stroke: #b0b0b0; stroke-width: 0.8; stroke-linecap: square"/>
     </g>
     <g id="line2d_14">
      <g>
       <use xlink:href="#mace75ea90f" x="0" y="178.788119" style="stroke: #000000; stroke-width: 0.8"/>
      </g>
     </g>
    </g>
    <g id="ytick_4">
     <g id="line2d_15">
      <path d="M 0 121.302178 
L 460.8 121.302178 
" clip-path="url(#pe4a2dfd4d3)" style="fill: none; stroke: #b0b0b0; stroke-width: 0.8; stroke-linecap: square"/>
     </g>
     <g id="line2d_16">
      <g>
       <use xlink:href="#mace75ea90f" x="0" y="121.302178" style="stroke: #000000; stroke-width: 0.8"/>
      </g>
     </g>
    </g>
    <g id="ytick_5">
     <g id="line2d_17">
      <path d="M 0 63.816238 
L 460.8 63.816238 
" clip-path="url(#pe4a2dfd4d3)" style="fill: none; stroke: #b0b0b0; stroke-width: 0.8; stroke-linecap: square"/>
     </g>
     <g id="line2d_18">
      <g>
       <use xlink:href="#mace75ea90f" x="0" y="63.816238" style="stroke: #000000; stroke-width: 0.8"/>
      </g>
     </g>
    </g>
    <g id="ytick_6">
     <g id="line2d_19">
      <path d="M 0 6.330297 
L 460.8 6.330297 
" clip-path="url(#pe4a2dfd4d3)" style="fill: none; stroke: #b0b0b0; stroke-width: 0.8; stroke-linecap: square"/>
     </g>
     <g id="line2d_20">
      <g>
       <use xlink:href="#mace75ea90f" x="0" y="6.330297" style="stroke: #000000; stroke-width: 0.8"/>
      </g>
     </g>
    </g>
   </g>
   <g id="line2d_21">
    <path d="M 250.55525 293.76 
L 250.55525 289.927604 
L 254.320447 289.927604 
L 254.320447 286.095208 
L 254.542084 286.095208 
L 254.559171 278.430416 
L 255.099645 278.430416 
L 255.099645 274.59802 
L 255.414832 274.59802 
L 255.414832 270.765624 
L 256.356264 270.765624 
L 256.356264 266.933228 
L 258.412099 266.933228 
L 258.412099 263.100832 
L 258.80044 263.100832 
L 258.80044 259.268436 
L 259.155089 259.268436 
L 259.155089 255.43604 
L 259.282324 255.43604 
L 259.282324 251.603644 
L 259.567201 251.603644 
L 259.567201 247.771248 
L 261.479349 247.771248 
L 261.479349 243.938851 
L 262.444948 243.938851 
L 262.444948 240.106455 
L 265.249108 240.106455 
L 265.249108 236.274059 
L 280.564283 236.274059 
L 280.564283 232.441663 
L 286.273482 232.441663 
L 286.273482 228.609267 
L 290.721374 228.609267 
L 290.721374 224.776871 
L 292.329068 224.776871 
L 292.329068 220.944475 
L 292.941389 220.944475 
L 292.941389 217.112079 
L 295.186387 217.112079 
L 295.186387 213.279683 
L 298.815681 213.279683 
L 298.815681 209.447287 
L 300.373838 209.447287 
L 300.417916 201.782495 
L 301.026827 201.782495 
L 301.026827 197.950099 
L 301.317238 197.950099 
L 301.329513 190.285307 
L 301.475382 190.285307 
L 301.475382 186.452911 
L 301.645212 186.452911 
L 301.645212 182.620515 
L 301.872899 182.620515 
L 301.872899 178.788119 
L 302.458517 178.788119 
L 302.523688 171.123327 
L 302.797431 171.123327 
L 302.797431 167.290931 
L 303.468611 167.290931 
L 303.505866 159.626139 
L 303.758144 159.626139 
L 303.758144 155.793743 
L 304.224432 155.793743 
L 304.224432 151.961347 
L 305.416009 151.961347 
L 305.416009 148.12895 
L 307.464104 148.12895 
L 307.464104 144.296554 
L 307.610429 144.296554 
L 307.610429 140.464158 
L 317.728231 140.464158 
L 317.728231 136.631762 
L 321.156026 136.631762 
L 321.156026 132.799366 
L 330.23005 132.799366 
L 330.23005 128.96697 
L 334.278186 128.96697 
L 334.278186 125.134574 
L 343.971478 125.134574 
L 343.971478 121.302178 
L 364.978357 121.302178 
L 364.978357 117.469782 
L 381.810549 117.469782 
L 381.810549 113.637386 
L 383.575073 113.637386 
L 383.642383 105.972594 
L 384.292853 105.972594 
L 384.292853 102.140198 
L 386.105081 102.140198 
L 386.105081 98.307802 
L 386.883456 98.307802 
L 386.883456 94.475406 
L 388.038812 94.475406 
L 388.038812 90.64301 
L 388.169481 90.64301 
L 388.169481 86.810614 
L 390.640373 86.810614 
L 390.640373 82.978218 
L 392.127196 82.978218 
L 392.201758 75.313426 
L 392.419355 75.313426 
L 392.419355 71.48103 
L 392.56792 71.48103 
L 392.56792 67.648634 
L 398.430742 67.648634 
L 398.430742 63.816238 
L 422.768033 63.816238 
L 422.768033 59.983842 
L 426.168823 59.983842 
L 426.196315 52.31905 
L 430.041469 52.31905 
L 430.041469 48.486653 
L 432.206449 48.486653 
L 432.206449 44.654257 
L 432.949247 44.654257 
L 432.949247 40.821861 
L 434.009379 40.821861 
L 434.009379 36.989465 
L 434.631437 36.989465 
L 434.631437 33.157069 
L 435.464956 33.157069 
L 435.464956 29.324673 
L 436.038896 29.324673 
L 436.038896 25.492277 
L 436.471541 25.492277 
L 436.471541 21.659881 
L 439.474409 21.659881 
L 439.474409 17.827485 
L 441.005942 17.827485 
L 441.005942 13.995089 
L 441.381991 13.995089 
L 441.381991 10.162693 
L 448.079919 10.162693 
L 448.079919 6.330297 
L 448.079919 6.330297 
L 460.8 6.330297 
L 460.8 6.330297 
" clip-path="url(#pe4a2dfd4d3)" style="fill: none; stroke: #ff0000; stroke-width: 3; stroke-linecap: square"/>
   </g>
   <g id="line2d_22">
    <path d="M 250.55525 293.76 
L 250.55525 289.927604 
L 254.320447 289.927604 
L 254.320447 286.095208 
L 255.099645 286.095208 
L 255.099645 282.262812 
L 255.414832 282.262812 
L 255.414832 278.430416 
L 256.356264 278.430416 
L 256.356264 274.59802 
L 258.79071 274.59802 
L 258.80044 266.933228 
L 259.128837 266.933228 
L 259.155089 259.268436 
L 259.282324 259.268436 
L 259.282324 255.43604 
L 260.78743 255.43604 
L 260.78743 251.603644 
L 262.99222 251.603644 
L 263.063118 243.938851 
L 265.486961 243.938851 
L 265.486961 240.106455 
L 266.943674 240.106455 
L 266.943674 236.274059 
L 280.564283 236.274059 
L 280.564283 232.441663 
L 286.273482 232.441663 
L 286.273482 228.609267 
L 298.815681 228.609267 
L 298.815681 224.776871 
L 300.373838 224.776871 
L 300.373838 220.944475 
L 301.026827 220.944475 
L 301.026827 217.112079 
L 301.329513 217.112079 
L 301.329513 213.279683 
L 301.475382 213.279683 
L 301.475382 209.447287 
L 301.645212 209.447287 
L 301.645212 205.614891 
L 301.872899 205.614891 
L 301.872899 201.782495 
L 302.153338 201.782495 
L 302.153338 197.950099 
L 302.523688 197.950099 
L 302.523688 194.117703 
L 302.745036 194.117703 
L 302.797431 186.452911 
L 303.554723 186.452911 
L 303.554723 182.620515 
L 303.758144 182.620515 
L 303.758144 178.788119 
L 304.117839 178.788119 
L 304.224432 171.123327 
L 307.464104 171.123327 
L 307.464104 167.290931 
L 309.204025 167.290931 
L 309.204025 163.458535 
L 330.23005 163.458535 
L 330.23005 159.626139 
L 330.682827 159.626139 
L 330.682827 155.793743 
L 342.262508 155.793743 
L 342.262508 151.961347 
L 343.79788 151.961347 
L 343.79788 148.12895 
L 345.574974 148.12895 
L 345.574974 144.296554 
L 350.125094 144.296554 
L 350.125094 140.464158 
L 355.114322 140.464158 
L 355.114322 136.631762 
L 355.557489 136.631762 
L 355.557489 132.799366 
L 358.26281 132.799366 
L 358.26281 128.96697 
L 359.794882 128.96697 
L 359.794882 125.134574 
L 364.978357 125.134574 
L 364.978357 121.302178 
L 381.223124 121.302178 
L 381.223124 117.469782 
L 381.810549 117.469782 
L 381.810549 113.637386 
L 383.575073 113.637386 
L 383.642383 105.972594 
L 386.105081 105.972594 
L 386.105081 102.140198 
L 388.169481 102.140198 
L 388.169481 98.307802 
L 392.127503 98.307802 
L 392.127503 94.475406 
L 393.359056 94.475406 
L 393.359056 90.64301 
L 394.337176 90.64301 
L 394.337176 86.810614 
L 394.64665 86.810614 
L 394.64665 82.978218 
L 396.537541 82.978218 
L 396.537541 79.145822 
L 401.765923 79.145822 
L 401.765923 75.313426 
L 402.365245 75.313426 
L 402.365245 71.48103 
L 405.52946 71.48103 
L 405.52946 67.648634 
L 408.623336 67.648634 
L 408.623336 63.816238 
L 422.768033 63.816238 
L 422.768033 59.983842 
L 426.168823 59.983842 
L 426.196315 52.31905 
L 431.137125 52.31905 
L 431.137125 48.486653 
L 432.206449 48.486653 
L 432.206449 44.654257 
L 432.949247 44.654257 
L 432.949247 40.821861 
L 434.631437 40.821861 
L 434.631437 36.989465 
L 435.487868 36.989465 
L 435.487868 33.157069 
L 436.471541 33.157069 
L 436.471541 29.324673 
L 438.715359 29.324673 
L 438.715359 25.492277 
L 439.474409 25.492277 
L 439.474409 21.659881 
L 441.914997 21.659881 
L 441.914997 17.827485 
L 442.218703 17.827485 
L 442.218703 13.995089 
L 444.177945 13.995089 
L 444.177945 10.162693 
L 448.262884 10.162693 
L 448.262884 6.330297 
L 448.262884 6.330297 
L 460.8 6.330297 
L 460.8 6.330297 
" clip-path="url(#pe4a2dfd4d3)" style="fill: none; stroke: #00bfbf; stroke-width: 1.5; stroke-linecap: square"/>
   </g>
   <g id="line2d_23">
    <path d="M 250.55525 293.76 
L 250.55525 289.927604 
L 254.320447 289.927604 
L 254.320447 286.095208 
L 255.099645 286.095208 
L 255.099645 282.262812 
L 255.414832 282.262812 
L 255.414832 278.430416 
L 256.356264 278.430416 
L 256.356264 274.59802 
L 258.79071 274.59802 
L 258.80044 266.933228 
L 259.128837 266.933228 
L 259.155089 259.268436 
L 259.282324 259.268436 
L 259.282324 255.43604 
L 259.567201 255.43604 
L 259.567201 251.603644 
L 260.78743 251.603644 
L 260.78743 247.771248 
L 261.479349 247.771248 
L 261.479349 243.938851 
L 263.068787 243.938851 
L 263.068787 240.106455 
L 266.523139 240.106455 
L 266.523139 236.274059 
L 280.564283 236.274059 
L 280.564283 232.441663 
L 286.273482 232.441663 
L 286.273482 228.609267 
L 296.693716 228.609267 
L 296.693716 224.776871 
L 298.815681 224.776871 
L 298.815681 220.944475 
L 300.373838 220.944475 
L 300.417916 213.279683 
L 301.026827 213.279683 
L 301.026827 209.447287 
L 301.317238 209.447287 
L 301.329513 201.782495 
L 301.475382 201.782495 
L 301.475382 197.950099 
L 301.645212 197.950099 
L 301.645212 194.117703 
L 301.872899 194.117703 
L 301.872899 190.285307 
L 302.523688 190.285307 
L 302.523688 186.452911 
L 302.745036 186.452911 
L 302.797431 178.788119 
L 303.468611 178.788119 
L 303.554723 171.123327 
L 303.758144 171.123327 
L 303.758144 167.290931 
L 304.224432 167.290931 
L 304.224432 163.458535 
L 305.416009 163.458535 
L 305.416009 159.626139 
L 307.464104 159.626139 
L 307.464104 155.793743 
L 307.610429 155.793743 
L 307.610429 151.961347 
L 309.204025 151.961347 
L 309.204025 148.12895 
L 311.878298 148.12895 
L 311.878298 144.296554 
L 325.149863 144.296554 
L 325.149863 140.464158 
L 330.23005 140.464158 
L 330.23005 136.631762 
L 340.641346 136.631762 
L 340.641346 132.799366 
L 349.283388 132.799366 
L 349.283388 128.96697 
L 358.26281 128.96697 
L 358.26281 125.134574 
L 364.978357 125.134574 
L 364.978357 121.302178 
L 380.646779 121.302178 
L 380.646779 117.469782 
L 381.810549 117.469782 
L 381.810549 113.637386 
L 383.575073 113.637386 
L 383.642383 105.972594 
L 386.105081 105.972594 
L 386.105081 102.140198 
L 388.169481 102.140198 
L 388.169481 98.307802 
L 391.224847 98.307802 
L 391.224847 94.475406 
L 392.127503 94.475406 
L 392.127503 90.64301 
L 392.248746 90.64301 
L 392.248746 86.810614 
L 393.359056 86.810614 
L 393.359056 82.978218 
L 394.02158 82.978218 
L 394.02158 79.145822 
L 396.87988 79.145822 
L 396.930062 71.48103 
L 397.745888 71.48103 
L 397.745888 67.648634 
L 398.430742 67.648634 
L 398.430742 63.816238 
L 422.768033 63.816238 
L 422.768033 59.983842 
L 426.168823 59.983842 
L 426.196315 52.31905 
L 431.137125 52.31905 
L 431.137125 48.486653 
L 432.206449 48.486653 
L 432.206449 44.654257 
L 432.949247 44.654257 
L 432.949247 40.821861 
L 434.009379 40.821861 
L 434.009379 36.989465 
L 434.631437 36.989465 
L 434.631437 33.157069 
L 435.487868 33.157069 
L 435.487868 29.324673 
L 436.471541 29.324673 
L 436.471541 25.492277 
L 438.715359 25.492277 
L 438.715359 21.659881 
L 439.474409 21.659881 
L 439.474409 17.827485 
L 442.218703 17.827485 
L 442.218703 13.995089 
L 444.177945 13.995089 
L 444.177945 10.162693 
L 448.079919 10.162693 
L 448.079919 6.330297 
L 448.079919 6.330297 
L 460.8 6.330297 
L 460.8 6.330297 
" clip-path="url(#pe4a2dfd4d3)" style="fill: none; stroke: #bf00bf; stroke-width: 1.5; stroke-linecap: square"/>
   </g>
   <g id="patch_3">
    <path d="M 0 293.76 
L 0 3.456 
" style="fill: none; stroke: #000000; stroke-width: 0.8; stroke-linejoin: miter; stroke-linecap: square"/>
   </g>
   <g id="patch_4">
    <path d="M 460.8 293.76 
L 460.8 3.456 
" style="fill: none; stroke: #000000; stroke-width: 0.8; stroke-linejoin: miter; stroke-linecap: square"/>
   </g>
   <g id="patch_5">
    <path d="M 0 293.76 
L 460.8 293.76 
" style="fill: none; stroke: #000000; stroke-width: 0.8; stroke-linejoin: miter; stroke-linecap: square"/>
   </g>
   <g id="patch_6">
    <path d="M 0 3.456 
L 460.8 3.456 
" style="fill: none; stroke: #000000; stroke-width: 0.8; stroke-linejoin: miter; stroke-linecap: square"/>
   </g>
   <g id="text_6">
    <!-- {f10-f14}, 20-D -->
    <g transform="translate(293.159 287.95392) scale(0.2 -0.2)">
     <defs>
      <path id="DejaVuSans-7b" d="M 3272 -594 
L 3272 -1044 
L 3078 -1044 
Q 2300 -1044 2036 -812 
Q 1772 -581 1772 109 
L 1772 856 
Q 1772 1328 1603 1509 
Q 1434 1691 991 1691 
L 800 1691 
L 800 2138 
L 991 2138 
Q 1438 2138 1605 2317 
Q 1772 2497 1772 2963 
L 1772 3713 
Q 1772 4403 2036 4633 
Q 2300 4863 3078 4863 
L 3272 4863 
L 3272 4416 
L 3059 4416 
Q 2619 4416 2484 4278 
Q 2350 4141 2350 3700 
L 2350 2925 
Q 2350 2434 2208 2212 
Q 2066 1991 1722 1913 
Q 2069 1828 2209 1606 
Q 2350 1384 2350 897 
L 2350 122 
Q 2350 -319 2484 -456 
Q 2619 -594 3059 -594 
L 3272 -594 
z
" transform="scale(0.015625)"/>
      <path id="DejaVuSans-7d" d="M 800 -594 
L 1019 -594 
Q 1456 -594 1589 -459 
Q 1722 -325 1722 122 
L 1722 897 
Q 1722 1384 1862 1606 
Q 2003 1828 2350 1913 
Q 2003 1991 1862 2212 
Q 1722 2434 1722 2925 
L 1722 3700 
Q 1722 4144 1589 4280 
Q 1456 4416 1019 4416 
L 800 4416 
L 800 4863 
L 997 4863 
Q 1775 4863 2036 4633 
Q 2297 4403 2297 3713 
L 2297 2963 
Q 2297 2497 2465 2317 
Q 2634 2138 3078 2138 
L 3272 2138 
L 3272 1691 
L 3078 1691 
Q 2634 1691 2465 1509 
Q 2297 1328 2297 856 
L 2297 109 
Q 2297 -581 2036 -812 
Q 1775 -1044 997 -1044 
L 800 -1044 
L 800 -594 
z
" transform="scale(0.015625)"/>
      <path id="DejaVuSans-2c" d="M 750 794 
L 1409 794 
L 1409 256 
L 897 -744 
L 494 -744 
L 750 256 
L 750 794 
z
" transform="scale(0.015625)"/>
      <path id="DejaVuSans-32" d="M 1228 531 
L 3431 531 
L 3431 0 
L 469 0 
L 469 531 
Q 828 903 1448 1529 
Q 2069 2156 2228 2338 
Q 2531 2678 2651 2914 
Q 2772 3150 2772 3378 
Q 2772 3750 2511 3984 
Q 2250 4219 1831 4219 
Q 1534 4219 1204 4116 
Q 875 4013 500 3803 
L 500 4441 
Q 881 4594 1212 4672 
Q 1544 4750 1819 4750 
Q 2544 4750 2975 4387 
Q 3406 4025 3406 3419 
Q 3406 3131 3298 2873 
Q 3191 2616 2906 2266 
Q 2828 2175 2409 1742 
Q 1991 1309 1228 531 
z
" transform="scale(0.015625)"/>
     </defs>
     <use xlink:href="#DejaVuSans-7b"/>
     <use xlink:href="#DejaVuSans-66" x="63.623047"/>
     <use xlink:href="#DejaVuSans-31" x="98.828125"/>
     <use xlink:href="#DejaVuSans-30" x="162.451172"/>
     <use xlink:href="#DejaVuSans-2d" x="226.074219"/>
     <use xlink:href="#DejaVuSans-66" x="262.158203"/>
     <use xlink:href="#DejaVuSans-31" x="297.363281"/>
     <use xlink:href="#DejaVuSans-34" x="360.986328"/>
     <use xlink:href="#DejaVuSans-7d" x="424.609375"/>
     <use xlink:href="#DejaVuSans-2c" x="488.232422"/>
     <use xlink:href="#DejaVuSans-20" x="520.019531"/>
     <use xlink:href="#DejaVuSans-32" x="551.806641"/>
     <use xlink:href="#DejaVuSans-30" x="615.429688"/>
     <use xlink:href="#DejaVuSans-2d" x="679.052734"/>
     <use xlink:href="#DejaVuSans-44" x="715.136719"/>
    </g>
   </g>
   <g id="text_7">
    <!-- v2.6.3 -->
    <g style="fill: #808080" transform="translate(214.71875 288.777272) scale(0.1 -0.1)">
     <defs>
      <path id="DejaVuSans-76" d="M 191 3500 
L 800 3500 
L 1894 563 
L 2988 3500 
L 3597 3500 
L 2284 0 
L 1503 0 
L 191 3500 
z
" transform="scale(0.015625)"/>
      <path id="DejaVuSans-2e" d="M 684 794 
L 1344 794 
L 1344 0 
L 684 0 
L 684 794 
z
" transform="scale(0.015625)"/>
      <path id="DejaVuSans-36" d="M 2113 2584 
Q 1688 2584 1439 2293 
Q 1191 2003 1191 1497 
Q 1191 994 1439 701 
Q 1688 409 2113 409 
Q 2538 409 2786 701 
Q 3034 994 3034 1497 
Q 3034 2003 2786 2293 
Q 2538 2584 2113 2584 
z
M 3366 4563 
L 3366 3988 
Q 3128 4100 2886 4159 
Q 2644 4219 2406 4219 
Q 1781 4219 1451 3797 
Q 1122 3375 1075 2522 
Q 1259 2794 1537 2939 
Q 1816 3084 2150 3084 
Q 2853 3084 3261 2657 
Q 3669 2231 3669 1497 
Q 3669 778 3244 343 
Q 2819 -91 2113 -91 
Q 1303 -91 875 529 
Q 447 1150 447 2328 
Q 447 3434 972 4092 
Q 1497 4750 2381 4750 
Q 2619 4750 2861 4703 
Q 3103 4656 3366 4563 
z
" transform="scale(0.015625)"/>
      <path id="DejaVuSans-33" d="M 2597 2516 
Q 3050 2419 3304 2112 
Q 3559 1806 3559 1356 
Q 3559 666 3084 287 
Q 2609 -91 1734 -91 
Q 1441 -91 1130 -33 
Q 819 25 488 141 
L 488 750 
Q 750 597 1062 519 
Q 1375 441 1716 441 
Q 2309 441 2620 675 
Q 2931 909 2931 1356 
Q 2931 1769 2642 2001 
Q 2353 2234 1838 2234 
L 1294 2234 
L 1294 2753 
L 1863 2753 
Q 2328 2753 2575 2939 
Q 2822 3125 2822 3475 
Q 2822 3834 2567 4026 
Q 2313 4219 1838 4219 
Q 1578 4219 1281 4162 
Q 984 4106 628 3988 
L 628 4550 
Q 988 4650 1302 4700 
Q 1616 4750 1894 4750 
Q 2613 4750 3031 4423 
Q 3450 4097 3450 3541 
Q 3450 3153 3228 2886 
Q 3006 2619 2597 2516 
z
" transform="scale(0.015625)"/>
     </defs>
     <use xlink:href="#DejaVuSans-76"/>
     <use xlink:href="#DejaVuSans-32" x="59.179688"/>
     <use xlink:href="#DejaVuSans-2e" x="122.802734"/>
     <use xlink:href="#DejaVuSans-36" x="154.589844"/>
     <use xlink:href="#DejaVuSans-2e" x="218.212891"/>
     <use xlink:href="#DejaVuSans-33" x="250"/>
    </g>
   </g>
  </g>
 </g>
 <defs>
  <clipPath id="pe4a2dfd4d3">
   <rect x="0" y="3.456" width="460.8" height="290.304"/>
  </clipPath>
 </defs>
</svg>
