<?xml version="1.0" encoding="utf-8" standalone="no"?>
<!DOCTYPE svg PUBLIC "-//W3C//DTD SVG 1.1//EN"
  "http://www.w3.org/Graphics/SVG/1.1/DTD/svg11.dtd">
<svg xmlns:xlink="http://www.w3.org/1999/xlink" width="460.8pt" height="345.6pt" viewBox="0 0 460.8 345.6" xmlns="http://www.w3.org/2000/svg" version="1.1">
 <metadata>
  <rdf:RDF xmlns:dc="http://purl.org/dc/elements/1.1/" xmlns:cc="http://creativecommons.org/ns#" xmlns:rdf="http://www.w3.org/1999/02/22-rdf-syntax-ns#">
   <cc:Work>
    <dc:type rdf:resource="http://purl.org/dc/dcmitype/StillImage"/>
    <dc:date>2024-01-25T17:47:09.459415</dc:date>
    <dc:format>image/svg+xml</dc:format>
    <dc:creator>
     <cc:Agent>
      <dc:title>Matplotlib v3.8.2, https://matplotlib.org/</dc:title>
     </cc:Agent>
    </dc:creator>
   </cc:Work>
  </rdf:RDF>
 </metadata>
 <defs>
  <style type="text/css">*{stroke-linejoin: round; stroke-linecap: butt}</style>
 </defs>
 <g id="figure_1">
  <g id="patch_1">
   <path d="M 0 345.6 
L 460.8 345.6 
L 460.8 0 
L 0 0 
z
" style="fill: #ffffff"/>
  </g>
  <g id="axes_1">
   <g id="patch_2">
    <path d="M 0 293.76 
L 460.8 293.76 
L 460.8 3.456 
L 0 3.456 
z
" style="fill: #ffffff"/>
   </g>
   <g id="matplotlib.axis_1">
    <g id="xtick_1">
     <g id="line2d_1">
      <path d="M 102.674388 293.76 
L 102.674388 3.456 
" clip-path="url(#pea0dc0da15)" style="fill: none; stroke: #b0b0b0; stroke-width: 0.8; stroke-linecap: square"/>
     </g>
     <g id="line2d_2">
      <defs>
       <path id="m4392d0a5ba" d="M 0 0 
L 0 3.5 
" style="stroke: #000000; stroke-width: 0.8"/>
      </defs>
      <g>
       <use xlink:href="#m4392d0a5ba" x="102.674388" y="293.76" style="stroke: #000000; stroke-width: 0.8"/>
      </g>
     </g>
     <g id="text_1">
      <!-- -4 -->
      <g transform="translate(92.704075 315.956875) scale(0.2 -0.2)">
       <defs>
        <path id="DejaVuSans-2d" d="M 313 2009 
L 1997 2009 
L 1997 1497 
L 313 1497 
L 313 2009 
z
" transform="scale(0.015625)"/>
        <path id="DejaVuSans-34" d="M 2419 4116 
L 825 1625 
L 2419 1625 
L 2419 4116 
z
M 2253 4666 
L 3047 4666 
L 3047 1625 
L 3713 1625 
L 3713 1100 
L 3047 1100 
L 3047 0 
L 2419 0 
L 2419 1100 
L 313 1100 
L 313 1709 
L 2253 4666 
z
" transform="scale(0.015625)"/>
       </defs>
       <use xlink:href="#DejaVuSans-2d"/>
       <use xlink:href="#DejaVuSans-34" x="36.083984"/>
      </g>
     </g>
    </g>
    <g id="xtick_2">
     <g id="line2d_3">
      <path d="M 205.459819 293.76 
L 205.459819 3.456 
" clip-path="url(#pea0dc0da15)" style="fill: none; stroke: #b0b0b0; stroke-width: 0.8; stroke-linecap: square"/>
     </g>
     <g id="line2d_4">
      <g>
       <use xlink:href="#m4392d0a5ba" x="205.459819" y="293.76" style="stroke: #000000; stroke-width: 0.8"/>
      </g>
     </g>
     <g id="text_2">
      <!-- 0 -->
      <g transform="translate(199.097319 315.956875) scale(0.2 -0.2)">
       <defs>
        <path id="DejaVuSans-30" d="M 2034 4250 
Q 1547 4250 1301 3770 
Q 1056 3291 1056 2328 
Q 1056 1369 1301 889 
Q 1547 409 2034 409 
Q 2525 409 2770 889 
Q 3016 1369 3016 2328 
Q 3016 3291 2770 3770 
Q 2525 4250 2034 4250 
z
M 2034 4750 
Q 2819 4750 3233 4129 
Q 3647 3509 3647 2328 
Q 3647 1150 3233 529 
Q 2819 -91 2034 -91 
Q 1250 -91 836 529 
Q 422 1150 422 2328 
Q 422 3509 836 4129 
Q 1250 4750 2034 4750 
z
" transform="scale(0.015625)"/>
       </defs>
       <use xlink:href="#DejaVuSans-30"/>
      </g>
     </g>
    </g>
    <g id="xtick_3">
     <g id="line2d_5">
      <path d="M 308.24525 293.76 
L 308.24525 3.456 
" clip-path="url(#pea0dc0da15)" style="fill: none; stroke: #b0b0b0; stroke-width: 0.8; stroke-linecap: square"/>
     </g>
     <g id="line2d_6">
      <g>
       <use xlink:href="#m4392d0a5ba" x="308.24525" y="293.76" style="stroke: #000000; stroke-width: 0.8"/>
      </g>
     </g>
     <g id="text_3">
      <!-- 4 -->
      <g transform="translate(301.88275 315.956875) scale(0.2 -0.2)">
       <use xlink:href="#DejaVuSans-34"/>
      </g>
     </g>
    </g>
    <g id="xtick_4">
     <g id="line2d_7">
      <path d="M 411.030681 293.76 
L 411.030681 3.456 
" clip-path="url(#pea0dc0da15)" style="fill: none; stroke: #b0b0b0; stroke-width: 0.8; stroke-linecap: square"/>
     </g>
     <g id="line2d_8">
      <g>
       <use xlink:href="#m4392d0a5ba" x="411.030681" y="293.76" style="stroke: #000000; stroke-width: 0.8"/>
      </g>
     </g>
     <g id="text_4">
      <!-- 8 -->
      <g transform="translate(404.668181 315.956875) scale(0.2 -0.2)">
       <defs>
        <path id="DejaVuSans-38" d="M 2034 2216 
Q 1584 2216 1326 1975 
Q 1069 1734 1069 1313 
Q 1069 891 1326 650 
Q 1584 409 2034 409 
Q 2484 409 2743 651 
Q 3003 894 3003 1313 
Q 3003 1734 2745 1975 
Q 2488 2216 2034 2216 
z
M 1403 2484 
Q 997 2584 770 2862 
Q 544 3141 544 3541 
Q 544 4100 942 4425 
Q 1341 4750 2034 4750 
Q 2731 4750 3128 4425 
Q 3525 4100 3525 3541 
Q 3525 3141 3298 2862 
Q 3072 2584 2669 2484 
Q 3125 2378 3379 2068 
Q 3634 1759 3634 1313 
Q 3634 634 3220 271 
Q 2806 -91 2034 -91 
Q 1263 -91 848 271 
Q 434 634 434 1313 
Q 434 1759 690 2068 
Q 947 2378 1403 2484 
z
M 1172 3481 
Q 1172 3119 1398 2916 
Q 1625 2713 2034 2713 
Q 2441 2713 2670 2916 
Q 2900 3119 2900 3481 
Q 2900 3844 2670 4047 
Q 2441 4250 2034 4250 
Q 1625 4250 1398 4047 
Q 1172 3844 1172 3481 
z
" transform="scale(0.015625)"/>
       </defs>
       <use xlink:href="#DejaVuSans-38"/>
      </g>
     </g>
    </g>
    <g id="text_5">
     <!-- log10 of Df -->
     <g transform="translate(175.214063 339.313125) scale(0.2 -0.2)">
      <defs>
       <path id="DejaVuSans-6c" d="M 603 4863 
L 1178 4863 
L 1178 0 
L 603 0 
L 603 4863 
z
" transform="scale(0.015625)"/>
       <path id="DejaVuSans-6f" d="M 1959 3097 
Q 1497 3097 1228 2736 
Q 959 2375 959 1747 
Q 959 1119 1226 758 
Q 1494 397 1959 397 
Q 2419 397 2687 759 
Q 2956 1122 2956 1747 
Q 2956 2369 2687 2733 
Q 2419 3097 1959 3097 
z
M 1959 3584 
Q 2709 3584 3137 3096 
Q 3566 2609 3566 1747 
Q 3566 888 3137 398 
Q 2709 -91 1959 -91 
Q 1206 -91 779 398 
Q 353 888 353 1747 
Q 353 2609 779 3096 
Q 1206 3584 1959 3584 
z
" transform="scale(0.015625)"/>
       <path id="DejaVuSans-67" d="M 2906 1791 
Q 2906 2416 2648 2759 
Q 2391 3103 1925 3103 
Q 1463 3103 1205 2759 
Q 947 2416 947 1791 
Q 947 1169 1205 825 
Q 1463 481 1925 481 
Q 2391 481 2648 825 
Q 2906 1169 2906 1791 
z
M 3481 434 
Q 3481 -459 3084 -895 
Q 2688 -1331 1869 -1331 
Q 1566 -1331 1297 -1286 
Q 1028 -1241 775 -1147 
L 775 -588 
Q 1028 -725 1275 -790 
Q 1522 -856 1778 -856 
Q 2344 -856 2625 -561 
Q 2906 -266 2906 331 
L 2906 616 
Q 2728 306 2450 153 
Q 2172 0 1784 0 
Q 1141 0 747 490 
Q 353 981 353 1791 
Q 353 2603 747 3093 
Q 1141 3584 1784 3584 
Q 2172 3584 2450 3431 
Q 2728 3278 2906 2969 
L 2906 3500 
L 3481 3500 
L 3481 434 
z
" transform="scale(0.015625)"/>
       <path id="DejaVuSans-31" d="M 794 531 
L 1825 531 
L 1825 4091 
L 703 3866 
L 703 4441 
L 1819 4666 
L 2450 4666 
L 2450 531 
L 3481 531 
L 3481 0 
L 794 0 
L 794 531 
z
" transform="scale(0.015625)"/>
       <path id="DejaVuSans-20" transform="scale(0.015625)"/>
       <path id="DejaVuSans-66" d="M 2375 4863 
L 2375 4384 
L 1825 4384 
Q 1516 4384 1395 4259 
Q 1275 4134 1275 3809 
L 1275 3500 
L 2222 3500 
L 2222 3053 
L 1275 3053 
L 1275 0 
L 697 0 
L 697 3053 
L 147 3053 
L 147 3500 
L 697 3500 
L 697 3744 
Q 697 4328 969 4595 
Q 1241 4863 1831 4863 
L 2375 4863 
z
" transform="scale(0.015625)"/>
       <path id="DejaVuSans-44" d="M 1259 4147 
L 1259 519 
L 2022 519 
Q 2988 519 3436 956 
Q 3884 1394 3884 2338 
Q 3884 3275 3436 3711 
Q 2988 4147 2022 4147 
L 1259 4147 
z
M 628 4666 
L 1925 4666 
Q 3281 4666 3915 4102 
Q 4550 3538 4550 2338 
Q 4550 1131 3912 565 
Q 3275 0 1925 0 
L 628 0 
L 628 4666 
z
" transform="scale(0.015625)"/>
      </defs>
      <use xlink:href="#DejaVuSans-6c"/>
      <use xlink:href="#DejaVuSans-6f" x="27.783203"/>
      <use xlink:href="#DejaVuSans-67" x="88.964844"/>
      <use xlink:href="#DejaVuSans-31" x="152.441406"/>
      <use xlink:href="#DejaVuSans-30" x="216.064453"/>
      <use xlink:href="#DejaVuSans-20" x="279.6875"/>
      <use xlink:href="#DejaVuSans-6f" x="311.474609"/>
      <use xlink:href="#DejaVuSans-66" x="372.65625"/>
      <use xlink:href="#DejaVuSans-20" x="407.861328"/>
      <use xlink:href="#DejaVuSans-44" x="439.648438"/>
      <use xlink:href="#DejaVuSans-66" x="516.650391"/>
     </g>
    </g>
   </g>
   <g id="matplotlib.axis_2">
    <g id="ytick_1">
     <g id="line2d_9">
      <path d="M 0 293.76 
L 460.8 293.76 
" clip-path="url(#pea0dc0da15)" style="fill: none; stroke: #b0b0b0; stroke-width: 0.8; stroke-linecap: square"/>
     </g>
     <g id="line2d_10">
      <defs>
       <path id="m4d05fd3aff" d="M 0 0 
L -3.5 0 
" style="stroke: #000000; stroke-width: 0.8"/>
      </defs>
      <g>
       <use xlink:href="#m4d05fd3aff" x="0" y="293.76" style="stroke: #000000; stroke-width: 0.8"/>
      </g>
     </g>
    </g>
    <g id="ytick_2">
     <g id="line2d_11">
      <path d="M 0 236.274059 
L 460.8 236.274059 
" clip-path="url(#pea0dc0da15)" style="fill: none; stroke: #b0b0b0; stroke-width: 0.8; stroke-linecap: square"/>
     </g>
     <g id="line2d_12">
      <g>
       <use xlink:href="#m4d05fd3aff" x="0" y="236.274059" style="stroke: #000000; stroke-width: 0.8"/>
      </g>
     </g>
    </g>
    <g id="ytick_3">
     <g id="line2d_13">
      <path d="M 0 178.788119 
L 460.8 178.788119 
" clip-path="url(#pea0dc0da15)" style="fill: none; stroke: #b0b0b0; stroke-width: 0.8; stroke-linecap: square"/>
     </g>
     <g id="line2d_14">
      <g>
       <use xlink:href="#m4d05fd3aff" x="0" y="178.788119" style="stroke: #000000; stroke-width: 0.8"/>
      </g>
     </g>
    </g>
    <g id="ytick_4">
     <g id="line2d_15">
      <path d="M 0 121.302178 
L 460.8 121.302178 
" clip-path="url(#pea0dc0da15)" style="fill: none; stroke: #b0b0b0; stroke-width: 0.8; stroke-linecap: square"/>
     </g>
     <g id="line2d_16">
      <g>
       <use xlink:href="#m4d05fd3aff" x="0" y="121.302178" style="stroke: #000000; stroke-width: 0.8"/>
      </g>
     </g>
    </g>
    <g id="ytick_5">
     <g id="line2d_17">
      <path d="M 0 63.816238 
L 460.8 63.816238 
" clip-path="url(#pea0dc0da15)" style="fill: none; stroke: #b0b0b0; stroke-width: 0.8; stroke-linecap: square"/>
     </g>
     <g id="line2d_18">
      <g>
       <use xlink:href="#m4d05fd3aff" x="0" y="63.816238" style="stroke: #000000; stroke-width: 0.8"/>
      </g>
     </g>
    </g>
    <g id="ytick_6">
     <g id="line2d_19">
      <path d="M 0 6.330297 
L 460.8 6.330297 
" clip-path="url(#pea0dc0da15)" style="fill: none; stroke: #b0b0b0; stroke-width: 0.8; stroke-linecap: square"/>
     </g>
     <g id="line2d_20">
      <g>
       <use xlink:href="#m4d05fd3aff" x="0" y="6.330297" style="stroke: #000000; stroke-width: 0.8"/>
      </g>
     </g>
    </g>
   </g>
   <g id="line2d_21">
    <path d="M -1 263.100832 
L -0.111044 263.100832 
L -0.111044 232.441663 
L 214.257923 232.441663 
L 214.257923 228.609267 
L 221.852075 228.609267 
L 221.852075 224.776871 
L 228.166149 224.776871 
L 228.166149 220.944475 
L 229.099366 220.944475 
L 229.099366 217.112079 
L 230.237779 217.112079 
L 230.237779 213.279683 
L 234.027695 213.279683 
L 234.027695 209.447287 
L 236.067933 209.447287 
L 236.067933 205.614891 
L 236.233907 205.614891 
L 236.233907 201.782495 
L 238.860248 201.782495 
L 238.860248 197.950099 
L 239.75042 197.950099 
L 239.75042 194.117703 
L 242.768915 194.117703 
L 242.768915 190.285307 
L 242.981678 190.285307 
L 242.981678 186.452911 
L 244.080202 186.452911 
L 244.080202 182.620515 
L 245.757761 182.620515 
L 245.757761 178.788119 
L 246.410189 178.788119 
L 246.410189 174.955723 
L 248.319458 174.955723 
L 248.319458 171.123327 
L 248.680114 171.123327 
L 248.680114 167.290931 
L 249.48643 167.290931 
L 249.48643 163.458535 
L 249.710957 163.458535 
L 249.710957 159.626139 
L 251.3392 159.626139 
L 251.3392 155.793743 
L 251.714056 155.793743 
L 251.714056 151.961347 
L 252.326759 151.961347 
L 252.326759 148.12895 
L 253.865213 148.12895 
L 253.879274 140.464158 
L 254.170658 140.464158 
L 254.270256 132.799366 
L 254.305725 132.799366 
L 254.305725 125.134574 
L 254.911561 125.134574 
L 254.911561 121.302178 
L 255.242761 121.302178 
L 255.242761 117.469782 
L 256.140718 117.469782 
L 256.140718 113.637386 
L 256.68382 113.637386 
L 256.68382 109.80499 
L 256.795981 109.80499 
L 256.795981 105.972594 
L 257.960464 105.972594 
L 257.960464 102.140198 
L 258.104827 102.140198 
L 258.104827 98.307802 
L 258.565537 98.307802 
L 258.565537 94.475406 
L 258.737161 94.475406 
L 258.826832 86.810614 
L 259.375025 86.810614 
L 259.375025 82.978218 
L 260.709117 82.978218 
L 260.709117 79.145822 
L 260.942504 79.145822 
L 260.942504 75.313426 
L 261.149996 75.313426 
L 261.24618 67.648634 
L 261.829799 67.648634 
L 261.829799 63.816238 
L 264.723691 63.816238 
L 264.723691 59.983842 
L 265.124807 59.983842 
L 265.124807 56.151446 
L 265.678223 56.151446 
L 265.678223 52.31905 
L 265.994114 52.31905 
L 265.994114 48.486653 
L 266.409984 48.486653 
L 266.409984 44.654257 
L 267.67122 44.654257 
L 267.694078 36.989465 
L 267.953623 36.989465 
L 268.014323 29.324673 
L 271.112592 29.324673 
L 271.112592 25.492277 
L 271.581182 25.492277 
L 271.581182 21.659881 
L 277.401862 21.659881 
L 277.401862 17.827485 
L 277.953708 17.827485 
L 277.953708 13.995089 
L 278.808735 13.995089 
L 278.808735 10.162693 
L 279.49783 10.162693 
L 279.49783 6.330297 
L 279.49783 6.330297 
L 460.8 6.330297 
L 460.8 6.330297 
" clip-path="url(#pea0dc0da15)" style="fill: none; stroke: #ff0000; stroke-width: 3; stroke-linecap: square"/>
   </g>
   <g id="line2d_22">
    <path d="M 220.826745 293.76 
L 220.826745 289.927604 
L 233.931966 289.927604 
L 233.931966 286.095208 
L 237.68188 286.095208 
L 237.68188 282.262812 
L 240.190009 282.262812 
L 240.190009 278.430416 
L 241.606179 278.430416 
L 241.606179 274.59802 
L 242.646848 274.59802 
L 242.646848 270.765624 
L 243.301945 270.765624 
L 243.301945 266.933228 
L 243.779412 266.933228 
L 243.779412 263.100832 
L 244.630612 263.100832 
L 244.630612 259.268436 
L 244.75901 259.268436 
L 244.75901 255.43604 
L 244.886742 255.43604 
L 244.886742 251.603644 
L 245.372641 251.603644 
L 245.372641 247.771248 
L 246.106331 247.771248 
L 246.106331 243.938851 
L 246.441425 243.938851 
L 246.441425 240.106455 
L 249.976466 240.106455 
L 249.976466 236.274059 
L 255.272934 236.274059 
L 255.272934 232.441663 
L 255.455787 232.441663 
L 255.455787 228.609267 
L 256.068806 228.609267 
L 256.068806 224.776871 
L 257.227655 224.776871 
L 257.227655 220.944475 
L 257.692773 220.944475 
L 257.692773 163.458535 
L 258.717686 163.458535 
L 258.717686 159.626139 
L 259.092212 159.626139 
L 259.092212 155.793743 
L 259.527544 155.793743 
L 259.527544 151.961347 
L 259.816255 151.961347 
L 259.816255 148.12895 
L 261.594476 148.12895 
L 261.594476 144.296554 
L 261.979712 144.296554 
L 261.979712 140.464158 
L 262.284288 140.464158 
L 262.284288 136.631762 
L 262.970583 136.631762 
L 262.970583 132.799366 
L 263.8216 132.799366 
L 263.878984 125.134574 
L 263.93364 125.134574 
L 263.93364 121.302178 
L 264.125602 121.302178 
L 264.125602 117.469782 
L 264.697704 117.469782 
L 264.717492 109.80499 
L 266.386846 109.80499 
L 266.413474 102.140198 
L 266.746287 102.140198 
L 266.746287 98.307802 
L 266.885377 98.307802 
L 266.885377 94.475406 
L 267.088991 94.475406 
L 267.088991 90.64301 
L 267.396112 90.64301 
L 267.471761 75.313426 
L 267.937801 75.313426 
L 267.937801 71.48103 
L 268.680736 71.48103 
L 268.680736 67.648634 
L 273.135242 67.648634 
L 273.135242 63.816238 
L 311.838235 63.816238 
L 311.838235 59.983842 
L 334.801705 59.983842 
L 334.801705 56.151446 
L 339.97525 56.151446 
L 339.97525 52.31905 
L 348.51816 52.31905 
L 348.51816 48.486653 
L 357.011789 48.486653 
L 357.011789 44.654257 
L 358.799849 44.654257 
L 358.799849 40.821861 
L 373.493241 40.821861 
L 373.493241 36.989465 
L 373.754113 36.989465 
L 373.754113 33.157069 
L 374.161932 33.157069 
L 374.161932 29.324673 
L 379.104085 29.324673 
L 379.104085 25.492277 
L 381.685628 25.492277 
L 381.685628 21.659881 
L 384.073303 21.659881 
L 384.073303 17.827485 
L 384.444988 17.827485 
L 384.444988 13.995089 
L 385.681888 13.995089 
L 385.681888 10.162693 
L 386.859168 10.162693 
L 386.859168 6.330297 
L 386.859168 6.330297 
L 460.8 6.330297 
L 460.8 6.330297 
" clip-path="url(#pea0dc0da15)" style="fill: none; stroke: #00bfbf; stroke-width: 1.5; stroke-linecap: square"/>
   </g>
   <g id="line2d_23">
    <path d="M 219.704059 293.76 
L 219.704059 289.927604 
L 233.600513 289.927604 
L 233.600513 286.095208 
L 237.499558 286.095208 
L 237.499558 282.262812 
L 239.934748 282.262812 
L 239.934748 278.430416 
L 241.311864 278.430416 
L 241.311864 274.59802 
L 242.516416 274.59802 
L 242.516416 270.765624 
L 243.301945 270.765624 
L 243.301945 266.933228 
L 243.519714 266.933228 
L 243.519714 263.100832 
L 244.364854 263.100832 
L 244.364854 259.268436 
L 244.638062 259.268436 
L 244.672967 251.603644 
L 245.171467 251.603644 
L 245.171467 247.771248 
L 246.097371 247.771248 
L 246.097371 243.938851 
L 246.224443 243.938851 
L 246.224443 240.106455 
L 249.815962 240.106455 
L 249.815962 236.274059 
L 254.170658 236.274059 
L 254.270256 228.609267 
L 254.77047 228.609267 
L 254.77047 224.776871 
L 256.140718 224.776871 
L 256.140718 220.944475 
L 257.634416 220.944475 
L 257.692773 163.458535 
L 258.002719 163.458535 
L 258.002719 159.626139 
L 258.194588 159.626139 
L 258.194588 155.793743 
L 258.798425 155.793743 
L 258.798425 151.961347 
L 259.34631 151.961347 
L 259.34631 148.12895 
L 260.745209 148.12895 
L 260.745209 144.296554 
L 261.665274 144.296554 
L 261.665274 140.464158 
L 261.8324 140.464158 
L 261.8324 136.631762 
L 262.303498 136.631762 
L 262.303498 132.799366 
L 262.897678 132.799366 
L 262.897678 128.96697 
L 263.350756 128.96697 
L 263.391046 121.302178 
L 263.6207 121.302178 
L 263.6207 117.469782 
L 264.281206 117.469782 
L 264.355582 109.80499 
L 265.956442 109.80499 
L 266.026411 102.140198 
L 266.32869 102.140198 
L 266.32869 98.307802 
L 266.525069 98.307802 
L 266.525069 94.475406 
L 266.676571 94.475406 
L 266.676571 90.64301 
L 266.843596 90.64301 
L 266.843596 86.810614 
L 266.988823 86.810614 
L 267.006344 79.145822 
L 267.203509 79.145822 
L 267.215387 71.48103 
L 268.477219 71.48103 
L 268.477219 67.648634 
L 272.930865 67.648634 
L 272.930865 63.816238 
L 311.550194 63.816238 
L 311.550194 59.983842 
L 334.800169 59.983842 
L 334.800169 56.151446 
L 339.975248 56.151446 
L 339.975248 52.31905 
L 348.517858 52.31905 
L 348.517858 48.486653 
L 357.007183 48.486653 
L 357.007183 44.654257 
L 358.530707 44.654257 
L 358.530707 40.821861 
L 373.493241 40.821861 
L 373.493241 36.989465 
L 373.753103 36.989465 
L 373.753103 33.157069 
L 374.125344 33.157069 
L 374.125344 29.324673 
L 379.104083 29.324673 
L 379.104083 25.492277 
L 381.672283 25.492277 
L 381.672283 21.659881 
L 384.073303 21.659881 
L 384.073303 17.827485 
L 384.444567 17.827485 
L 384.444567 13.995089 
L 385.659524 13.995089 
L 385.659524 10.162693 
L 386.858834 10.162693 
L 386.858834 6.330297 
L 386.858834 6.330297 
L 460.8 6.330297 
L 460.8 6.330297 
" clip-path="url(#pea0dc0da15)" style="fill: none; stroke: #bf00bf; stroke-width: 1.5; stroke-linecap: square"/>
   </g>
   <g id="line2d_24">
    <path d="M -0.111044 293.76 
L -0.111044 263.100832 
L 179.327496 263.100832 
L 179.327496 259.268436 
L 190.336575 259.268436 
L 190.336575 255.43604 
L 207.189552 255.43604 
L 207.189552 251.603644 
L 215.183388 251.603644 
L 215.183388 247.771248 
L 215.423116 247.771248 
L 215.423116 243.938851 
L 220.410387 243.938851 
L 220.410387 240.106455 
L 220.749848 240.106455 
L 220.83459 232.441663 
L 227.363855 232.441663 
L 227.363855 228.609267 
L 230.237779 228.609267 
L 230.237779 224.776871 
L 239.75042 224.776871 
L 239.75042 220.944475 
L 240.475802 220.944475 
L 240.475802 217.112079 
L 240.763928 217.112079 
L 240.763928 213.279683 
L 241.49191 213.279683 
L 241.49191 209.447287 
L 243.301945 209.447287 
L 243.301945 205.614891 
L 244.672967 205.614891 
L 244.672967 201.782495 
L 245.8918 201.782495 
L 245.8918 197.950099 
L 246.097371 197.950099 
L 246.097371 194.117703 
L 254.108337 194.117703 
L 254.170658 186.452911 
L 254.270256 186.452911 
L 254.270256 182.620515 
L 254.77047 182.620515 
L 254.77047 178.788119 
L 254.920065 178.788119 
L 255.027529 171.123327 
L 256.140718 171.123327 
L 256.201717 163.458535 
L 257.293448 163.458535 
L 257.293448 159.626139 
L 257.588786 159.626139 
L 257.588786 155.793743 
L 258.013185 155.793743 
L 258.057834 148.12895 
L 258.194588 148.12895 
L 258.194588 144.296554 
L 259.028631 144.296554 
L 259.028631 140.464158 
L 259.733257 140.464158 
L 259.733257 136.631762 
L 260.375249 136.631762 
L 260.375249 132.799366 
L 260.65123 132.799366 
L 260.65123 128.96697 
L 261.149996 128.96697 
L 261.149996 125.134574 
L 261.511723 125.134574 
L 261.511723 121.302178 
L 261.967639 121.302178 
L 261.967639 117.469782 
L 262.179102 117.469782 
L 262.252259 109.80499 
L 262.374168 109.80499 
L 262.374168 105.972594 
L 262.882441 105.972594 
L 262.882441 102.140198 
L 263.814677 102.140198 
L 263.814677 98.307802 
L 264.039584 98.307802 
L 264.039584 94.475406 
L 265.67604 94.475406 
L 265.679094 86.810614 
L 265.802347 86.810614 
L 265.85006 79.145822 
L 266.096723 79.145822 
L 266.096723 75.313426 
L 266.67262 75.313426 
L 266.67262 71.48103 
L 266.988823 71.48103 
L 266.988823 67.648634 
L 268.394382 67.648634 
L 268.394382 63.816238 
L 304.76331 63.816238 
L 304.76331 59.983842 
L 330.054399 59.983842 
L 330.054399 56.151446 
L 331.432976 56.151446 
L 331.432976 52.31905 
L 332.178615 52.31905 
L 332.178615 48.486653 
L 336.604851 48.486653 
L 336.604851 44.654257 
L 338.957935 44.654257 
L 338.957935 40.821861 
L 340.145189 40.821861 
L 340.145189 36.989465 
L 342.047047 36.989465 
L 342.047047 33.157069 
L 344.199609 33.157069 
L 344.199609 29.324673 
L 345.312781 29.324673 
L 345.312781 25.492277 
L 346.997922 25.492277 
L 346.997922 21.659881 
L 348.46941 21.659881 
L 348.46941 17.827485 
L 349.135214 17.827485 
L 349.135214 13.995089 
L 356.434485 13.995089 
L 356.434485 10.162693 
L 358.926381 10.162693 
L 358.926381 6.330297 
L 358.926381 6.330297 
L 460.8 6.330297 
L 460.8 6.330297 
" clip-path="url(#pea0dc0da15)" style="fill: none; stroke: #000000; stroke-width: 1.5; stroke-linecap: square"/>
   </g>
   <g id="line2d_25">
    <path d="M -0.111044 293.76 
L -0.111044 263.100832 
L 59.689815 263.100832 
L 59.689815 259.268436 
L 83.055262 259.268436 
L 83.055262 255.43604 
L 91.268936 255.43604 
L 91.342257 247.771248 
L 92.633153 247.771248 
L 92.633153 243.938851 
L 93.687543 243.938851 
L 93.687543 240.106455 
L 95.902297 240.106455 
L 95.902297 236.274059 
L 107.246142 236.274059 
L 107.246142 232.441663 
L 215.16962 232.441663 
L 215.16962 228.609267 
L 230.237779 228.609267 
L 230.237779 224.776871 
L 238.930135 224.776871 
L 238.930135 220.944475 
L 239.75042 220.944475 
L 239.75042 217.112079 
L 240.463733 217.112079 
L 240.463733 213.279683 
L 241.490015 213.279683 
L 241.490015 209.447287 
L 243.301945 209.447287 
L 243.301945 205.614891 
L 243.797274 205.614891 
L 243.797274 201.782495 
L 244.672967 201.782495 
L 244.672967 197.950099 
L 245.8918 197.950099 
L 245.8918 194.117703 
L 251.22021 194.117703 
L 251.22021 190.285307 
L 252.354368 190.285307 
L 252.354368 186.452911 
L 254.108337 186.452911 
L 254.170658 178.788119 
L 254.270256 178.788119 
L 254.375859 167.290931 
L 254.593698 167.290931 
L 254.593698 163.458535 
L 254.77047 163.458535 
L 254.83828 155.793743 
L 256.140718 155.793743 
L 256.140718 151.961347 
L 256.817572 151.961347 
L 256.817572 148.12895 
L 257.588786 148.12895 
L 257.588786 144.296554 
L 258.013185 144.296554 
L 258.077915 136.631762 
L 258.194588 136.631762 
L 258.194588 132.799366 
L 259.002581 132.799366 
L 259.002581 128.96697 
L 259.14959 128.96697 
L 259.14959 125.134574 
L 259.911317 125.134574 
L 259.911317 121.302178 
L 260.609906 121.302178 
L 260.609906 117.469782 
L 260.942659 117.469782 
L 260.972341 109.80499 
L 261.149996 109.80499 
L 261.149996 105.972594 
L 261.511723 105.972594 
L 261.511723 102.140198 
L 261.651787 102.140198 
L 261.651787 98.307802 
L 263.299205 98.307802 
L 263.299205 94.475406 
L 263.589921 94.475406 
L 263.589921 90.64301 
L 263.814677 90.64301 
L 263.814677 86.810614 
L 264.099083 86.810614 
L 264.099083 82.978218 
L 264.386807 82.978218 
L 264.386807 79.145822 
L 264.970013 79.145822 
L 264.970013 75.313426 
L 265.510044 75.313426 
L 265.510044 71.48103 
L 266.988823 71.48103 
L 266.988823 67.648634 
L 268.177522 67.648634 
L 268.177522 63.816238 
L 276.17443 63.816238 
L 276.17443 59.983842 
L 292.632401 59.983842 
L 292.632401 56.151446 
L 304.372305 56.151446 
L 304.372305 52.31905 
L 306.452842 52.31905 
L 306.452842 48.486653 
L 311.362513 48.486653 
L 311.362513 44.654257 
L 314.267118 44.654257 
L 314.267118 40.821861 
L 314.517277 40.821861 
L 314.517277 36.989465 
L 315.448262 36.989465 
L 315.448262 33.157069 
L 323.088083 33.157069 
L 323.088083 29.324673 
L 326.756669 29.324673 
L 326.756669 25.492277 
L 328.629455 25.492277 
L 328.629455 21.659881 
L 328.930889 21.659881 
L 328.930889 17.827485 
L 329.225982 17.827485 
L 329.317395 10.162693 
L 330.653693 10.162693 
L 330.653693 6.330297 
L 330.653693 6.330297 
L 460.8 6.330297 
L 460.8 6.330297 
" clip-path="url(#pea0dc0da15)" style="fill: none; stroke: #00bfbf; stroke-width: 1.5; stroke-linecap: square"/>
   </g>
   <g id="line2d_26">
    <path d="M -1 263.100832 
L -0.111044 263.100832 
L -0.111044 232.441663 
L 215.153125 232.441663 
L 215.153125 228.609267 
L 229.099366 228.609267 
L 229.099366 224.776871 
L 230.237779 224.776871 
L 230.237779 220.944475 
L 234.027695 220.944475 
L 234.027695 217.112079 
L 237.445112 217.112079 
L 237.445112 213.279683 
L 238.414798 213.279683 
L 238.414798 209.447287 
L 238.860248 209.447287 
L 238.930135 201.782495 
L 239.75042 201.782495 
L 239.75042 197.950099 
L 240.262298 197.950099 
L 240.262298 194.117703 
L 244.174825 194.117703 
L 244.174825 190.285307 
L 245.757761 190.285307 
L 245.757761 186.452911 
L 248.93129 186.452911 
L 248.93129 182.620515 
L 249.701283 182.620515 
L 249.796318 171.123327 
L 251.209222 171.123327 
L 251.209222 167.290931 
L 251.714056 167.290931 
L 251.714056 163.458535 
L 252.326759 163.458535 
L 252.326759 159.626139 
L 253.402889 159.626139 
L 253.402889 155.793743 
L 254.170658 155.793743 
L 254.270256 148.12895 
L 254.305725 148.12895 
L 254.305725 140.464158 
L 254.77047 140.464158 
L 254.77047 136.631762 
L 256.122692 136.631762 
L 256.140718 128.96697 
L 256.683825 128.96697 
L 256.683825 125.134574 
L 257.017004 125.134574 
L 257.017004 121.302178 
L 257.960464 121.302178 
L 258.013185 113.637386 
L 258.565537 113.637386 
L 258.565537 109.80499 
L 258.737161 109.80499 
L 258.737161 105.972594 
L 259.375025 105.972594 
L 259.375025 102.140198 
L 260.309074 102.140198 
L 260.309074 98.307802 
L 260.709034 98.307802 
L 260.709117 90.64301 
L 260.942504 90.64301 
L 261.015407 82.978218 
L 261.149996 82.978218 
L 261.149996 79.145822 
L 262.179849 79.145822 
L 262.179849 75.313426 
L 262.730664 75.313426 
L 262.730664 71.48103 
L 263.814677 71.48103 
L 263.814677 67.648634 
L 265.338217 67.648634 
L 265.338217 63.816238 
L 265.678223 63.816238 
L 265.678223 59.983842 
L 266.84142 59.983842 
L 266.84142 56.151446 
L 267.671515 56.151446 
L 267.671515 52.31905 
L 268.070253 52.31905 
L 268.132807 44.654257 
L 272.014384 44.654257 
L 272.014384 40.821861 
L 272.167722 40.821861 
L 272.167722 36.989465 
L 272.465015 36.989465 
L 272.465015 33.157069 
L 273.453778 33.157069 
L 273.453778 29.324673 
L 274.115322 29.324673 
L 274.115322 25.492277 
L 278.868695 25.492277 
L 278.868695 21.659881 
L 282.355089 21.659881 
L 282.355089 17.827485 
L 290.038457 17.827485 
L 290.038457 13.995089 
L 291.403674 13.995089 
L 291.403674 10.162693 
L 291.990684 10.162693 
L 291.990684 6.330297 
L 291.990684 6.330297 
L 460.8 6.330297 
L 460.8 6.330297 
" clip-path="url(#pea0dc0da15)" style="fill: none; stroke: #bf00bf; stroke-width: 1.5; stroke-linecap: square"/>
   </g>
   <g id="patch_3">
    <path d="M 0 293.76 
L 0 3.456 
" style="fill: none; stroke: #000000; stroke-width: 0.8; stroke-linejoin: miter; stroke-linecap: square"/>
   </g>
   <g id="patch_4">
    <path d="M 460.8 293.76 
L 460.8 3.456 
" style="fill: none; stroke: #000000; stroke-width: 0.8; stroke-linejoin: miter; stroke-linecap: square"/>
   </g>
   <g id="patch_5">
    <path d="M 0 293.76 
L 460.8 293.76 
" style="fill: none; stroke: #000000; stroke-width: 0.8; stroke-linejoin: miter; stroke-linecap: square"/>
   </g>
   <g id="patch_6">
    <path d="M 0 3.456 
L 460.8 3.456 
" style="fill: none; stroke: #000000; stroke-width: 0.8; stroke-linejoin: miter; stroke-linecap: square"/>
   </g>
   <g id="text_6">
    <!-- {f1-f5}, 5-D -->
    <g transform="translate(331.334 287.95392) scale(0.2 -0.2)">
     <defs>
      <path id="DejaVuSans-7b" d="M 3272 -594 
L 3272 -1044 
L 3078 -1044 
Q 2300 -1044 2036 -812 
Q 1772 -581 1772 109 
L 1772 856 
Q 1772 1328 1603 1509 
Q 1434 1691 991 1691 
L 800 1691 
L 800 2138 
L 991 2138 
Q 1438 2138 1605 2317 
Q 1772 2497 1772 2963 
L 1772 3713 
Q 1772 4403 2036 4633 
Q 2300 4863 3078 4863 
L 3272 4863 
L 3272 4416 
L 3059 4416 
Q 2619 4416 2484 4278 
Q 2350 4141 2350 3700 
L 2350 2925 
Q 2350 2434 2208 2212 
Q 2066 1991 1722 1913 
Q 2069 1828 2209 1606 
Q 2350 1384 2350 897 
L 2350 122 
Q 2350 -319 2484 -456 
Q 2619 -594 3059 -594 
L 3272 -594 
z
" transform="scale(0.015625)"/>
      <path id="DejaVuSans-35" d="M 691 4666 
L 3169 4666 
L 3169 4134 
L 1269 4134 
L 1269 2991 
Q 1406 3038 1543 3061 
Q 1681 3084 1819 3084 
Q 2600 3084 3056 2656 
Q 3513 2228 3513 1497 
Q 3513 744 3044 326 
Q 2575 -91 1722 -91 
Q 1428 -91 1123 -41 
Q 819 9 494 109 
L 494 744 
Q 775 591 1075 516 
Q 1375 441 1709 441 
Q 2250 441 2565 725 
Q 2881 1009 2881 1497 
Q 2881 1984 2565 2268 
Q 2250 2553 1709 2553 
Q 1456 2553 1204 2497 
Q 953 2441 691 2322 
L 691 4666 
z
" transform="scale(0.015625)"/>
      <path id="DejaVuSans-7d" d="M 800 -594 
L 1019 -594 
Q 1456 -594 1589 -459 
Q 1722 -325 1722 122 
L 1722 897 
Q 1722 1384 1862 1606 
Q 2003 1828 2350 1913 
Q 2003 1991 1862 2212 
Q 1722 2434 1722 2925 
L 1722 3700 
Q 1722 4144 1589 4280 
Q 1456 4416 1019 4416 
L 800 4416 
L 800 4863 
L 997 4863 
Q 1775 4863 2036 4633 
Q 2297 4403 2297 3713 
L 2297 2963 
Q 2297 2497 2465 2317 
Q 2634 2138 3078 2138 
L 3272 2138 
L 3272 1691 
L 3078 1691 
Q 2634 1691 2465 1509 
Q 2297 1328 2297 856 
L 2297 109 
Q 2297 -581 2036 -812 
Q 1775 -1044 997 -1044 
L 800 -1044 
L 800 -594 
z
" transform="scale(0.015625)"/>
      <path id="DejaVuSans-2c" d="M 750 794 
L 1409 794 
L 1409 256 
L 897 -744 
L 494 -744 
L 750 256 
L 750 794 
z
" transform="scale(0.015625)"/>
     </defs>
     <use xlink:href="#DejaVuSans-7b"/>
     <use xlink:href="#DejaVuSans-66" x="63.623047"/>
     <use xlink:href="#DejaVuSans-31" x="98.828125"/>
     <use xlink:href="#DejaVuSans-2d" x="162.451172"/>
     <use xlink:href="#DejaVuSans-66" x="198.535156"/>
     <use xlink:href="#DejaVuSans-35" x="233.740234"/>
     <use xlink:href="#DejaVuSans-7d" x="297.363281"/>
     <use xlink:href="#DejaVuSans-2c" x="360.986328"/>
     <use xlink:href="#DejaVuSans-20" x="392.773438"/>
     <use xlink:href="#DejaVuSans-35" x="424.560547"/>
     <use xlink:href="#DejaVuSans-2d" x="488.183594"/>
     <use xlink:href="#DejaVuSans-44" x="524.267578"/>
    </g>
   </g>
   <g id="text_7">
    <!-- v2.6.3 -->
    <g style="fill: #808080" transform="translate(214.71875 288.777272) scale(0.1 -0.1)">
     <defs>
      <path id="DejaVuSans-76" d="M 191 3500 
L 800 3500 
L 1894 563 
L 2988 3500 
L 3597 3500 
L 2284 0 
L 1503 0 
L 191 3500 
z
" transform="scale(0.015625)"/>
      <path id="DejaVuSans-32" d="M 1228 531 
L 3431 531 
L 3431 0 
L 469 0 
L 469 531 
Q 828 903 1448 1529 
Q 2069 2156 2228 2338 
Q 2531 2678 2651 2914 
Q 2772 3150 2772 3378 
Q 2772 3750 2511 3984 
Q 2250 4219 1831 4219 
Q 1534 4219 1204 4116 
Q 875 4013 500 3803 
L 500 4441 
Q 881 4594 1212 4672 
Q 1544 4750 1819 4750 
Q 2544 4750 2975 4387 
Q 3406 4025 3406 3419 
Q 3406 3131 3298 2873 
Q 3191 2616 2906 2266 
Q 2828 2175 2409 1742 
Q 1991 1309 1228 531 
z
" transform="scale(0.015625)"/>
      <path id="DejaVuSans-2e" d="M 684 794 
L 1344 794 
L 1344 0 
L 684 0 
L 684 794 
z
" transform="scale(0.015625)"/>
      <path id="DejaVuSans-36" d="M 2113 2584 
Q 1688 2584 1439 2293 
Q 1191 2003 1191 1497 
Q 1191 994 1439 701 
Q 1688 409 2113 409 
Q 2538 409 2786 701 
Q 3034 994 3034 1497 
Q 3034 2003 2786 2293 
Q 2538 2584 2113 2584 
z
M 3366 4563 
L 3366 3988 
Q 3128 4100 2886 4159 
Q 2644 4219 2406 4219 
Q 1781 4219 1451 3797 
Q 1122 3375 1075 2522 
Q 1259 2794 1537 2939 
Q 1816 3084 2150 3084 
Q 2853 3084 3261 2657 
Q 3669 2231 3669 1497 
Q 3669 778 3244 343 
Q 2819 -91 2113 -91 
Q 1303 -91 875 529 
Q 447 1150 447 2328 
Q 447 3434 972 4092 
Q 1497 4750 2381 4750 
Q 2619 4750 2861 4703 
Q 3103 4656 3366 4563 
z
" transform="scale(0.015625)"/>
      <path id="DejaVuSans-33" d="M 2597 2516 
Q 3050 2419 3304 2112 
Q 3559 1806 3559 1356 
Q 3559 666 3084 287 
Q 2609 -91 1734 -91 
Q 1441 -91 1130 -33 
Q 819 25 488 141 
L 488 750 
Q 750 597 1062 519 
Q 1375 441 1716 441 
Q 2309 441 2620 675 
Q 2931 909 2931 1356 
Q 2931 1769 2642 2001 
Q 2353 2234 1838 2234 
L 1294 2234 
L 1294 2753 
L 1863 2753 
Q 2328 2753 2575 2939 
Q 2822 3125 2822 3475 
Q 2822 3834 2567 4026 
Q 2313 4219 1838 4219 
Q 1578 4219 1281 4162 
Q 984 4106 628 3988 
L 628 4550 
Q 988 4650 1302 4700 
Q 1616 4750 1894 4750 
Q 2613 4750 3031 4423 
Q 3450 4097 3450 3541 
Q 3450 3153 3228 2886 
Q 3006 2619 2597 2516 
z
" transform="scale(0.015625)"/>
     </defs>
     <use xlink:href="#DejaVuSans-76"/>
     <use xlink:href="#DejaVuSans-32" x="59.179688"/>
     <use xlink:href="#DejaVuSans-2e" x="122.802734"/>
     <use xlink:href="#DejaVuSans-36" x="154.589844"/>
     <use xlink:href="#DejaVuSans-2e" x="218.212891"/>
     <use xlink:href="#DejaVuSans-33" x="250"/>
    </g>
   </g>
  </g>
 </g>
 <defs>
  <clipPath id="pea0dc0da15">
   <rect x="0" y="3.456" width="460.8" height="290.304"/>
  </clipPath>
 </defs>
</svg>
