<?xml version="1.0" encoding="utf-8" standalone="no"?>
<!DOCTYPE svg PUBLIC "-//W3C//DTD SVG 1.1//EN"
  "http://www.w3.org/Graphics/SVG/1.1/DTD/svg11.dtd">
<svg xmlns:xlink="http://www.w3.org/1999/xlink" width="460.8pt" height="345.6pt" viewBox="0 0 460.8 345.6" xmlns="http://www.w3.org/2000/svg" version="1.1">
 <metadata>
  <rdf:RDF xmlns:dc="http://purl.org/dc/elements/1.1/" xmlns:cc="http://creativecommons.org/ns#" xmlns:rdf="http://www.w3.org/1999/02/22-rdf-syntax-ns#">
   <cc:Work>
    <dc:type rdf:resource="http://purl.org/dc/dcmitype/StillImage"/>
    <dc:date>2024-01-25T17:47:04.812857</dc:date>
    <dc:format>image/svg+xml</dc:format>
    <dc:creator>
     <cc:Agent>
      <dc:title>Matplotlib v3.8.2, https://matplotlib.org/</dc:title>
     </cc:Agent>
    </dc:creator>
   </cc:Work>
  </rdf:RDF>
 </metadata>
 <defs>
  <style type="text/css">*{stroke-linejoin: round; stroke-linecap: butt}</style>
 </defs>
 <g id="figure_1">
  <g id="patch_1">
   <path d="M 0 345.6 
L 460.8 345.6 
L 460.8 0 
L 0 0 
z
" style="fill: #ffffff"/>
  </g>
  <g id="axes_1">
   <g id="patch_2">
    <path d="M 62.208 293.76 
L 460.8 293.76 
L 460.8 3.456 
L 62.208 3.456 
z
" style="fill: #ffffff"/>
   </g>
   <g id="line2d_1">
    <path d="M 375.490073 293.76 
L 375.490073 292.163168 
L 375.955807 292.163168 
L 375.955807 289.767921 
L 376.187596 289.767921 
L 376.187596 288.171089 
L 376.878711 288.171089 
L 376.878711 287.372673 
L 378.914749 287.372673 
L 378.914749 285.775842 
L 380.24212 285.775842 
L 380.24212 284.977426 
L 380.897124 284.977426 
L 380.897124 284.17901 
L 383.251151 284.17901 
L 383.251151 283.380594 
L 385.941409 283.380594 
L 385.941409 282.582178 
L 388.144957 282.582178 
L 388.144957 281.783762 
L 391.805343 281.783762 
L 391.805343 280.985347 
L 398.803029 280.985347 
L 398.803029 280.186931 
L 400.998032 280.186931 
L 400.998032 279.388515 
L 403.614495 279.388515 
L 403.614495 278.590099 
L 403.935245 278.590099 
L 403.935245 277.791683 
L 404.57267 277.791683 
L 404.57267 276.993267 
L 404.889369 276.993267 
L 404.889369 276.194851 
L 406.607768 276.194851 
L 406.607768 275.396436 
L 407.069687 275.396436 
L 407.069687 273.799604 
L 407.376066 273.799604 
L 407.376066 273.001188 
L 408.136595 273.001188 
L 408.136595 272.202772 
L 408.287783 272.202772 
L 408.287783 271.404356 
L 409.188581 271.404356 
L 409.188581 269.807525 
L 410.226055 269.807525 
L 410.226055 269.009109 
L 410.666344 269.009109 
L 410.666344 267.412277 
L 411.68377 267.412277 
L 411.68377 266.613861 
L 413.255286 266.613861 
L 413.255286 265.815446 
L 417.113349 265.815446 
L 417.113349 265.01703 
L 422.302698 265.01703 
L 422.302698 264.218614 
L 429.926 264.218614 
L 429.926 263.420198 
L 430.152213 263.420198 
L 430.152213 262.621782 
L 430.602608 262.621782 
L 430.602608 261.02495 
L 431.827466 261.02495 
L 431.827466 260.226535 
L 432.04804 260.226535 
L 432.04804 259.428119 
L 434.85815 259.428119 
L 434.85815 258.629703 
L 437.259411 258.629703 
L 437.259411 257.831287 
L 441.552915 257.831287 
L 441.552915 257.032871 
L 442.325355 257.032871 
L 442.325355 256.234455 
L 442.994794 256.234455 
L 442.994794 255.43604 
L 444.875285 255.43604 
L 444.968087 253.839208 
L 445.245807 253.839208 
L 445.245807 253.040792 
L 446.255429 253.040792 
L 446.255429 252.242376 
L 447.700193 252.242376 
L 447.700193 251.44396 
L 448.14605 251.44396 
L 448.14605 250.645545 
L 448.589279 250.645545 
L 448.589279 249.847129 
L 449.117729 249.847129 
L 449.205444 248.250297 
L 449.380568 248.250297 
L 449.380568 246.653465 
L 449.642492 246.653465 
L 449.642492 245.85505 
L 450.852886 245.85505 
L 450.938602 244.258218 
L 451.280492 244.258218 
L 451.280492 243.459802 
L 451.875086 243.459802 
L 451.875086 241.86297 
L 452.967014 241.86297 
L 452.967014 241.064554 
L 453.713784 241.064554 
L 453.713784 240.266139 
L 453.878731 240.266139 
L 453.878731 239.467723 
L 454.371412 239.467723 
L 454.371412 238.669307 
L 455.266364 238.669307 
L 455.266364 237.870891 
L 455.669667 237.870891 
L 455.750068 234.677228 
L 456.230682 234.677228 
L 456.230682 233.080396 
L 458.123001 233.080396 
L 458.123001 232.28198 
L 459.435161 232.28198 
L 459.435161 231.483564 
L 459.588039 231.483564 
L 459.588039 230.685149 
L 460.272168 230.685149 
L 460.272168 229.886733 
L 461.398735 229.886733 
L 461.398735 229.088317 
L 461.8 229.088317 
L 461.8 229.088317 
" clip-path="url(#p5197220353)" style="fill: none; stroke: #f5deb3; stroke-width: 1.5; stroke-linecap: square"/>
   </g>
   <g id="line2d_2">
    <path d="M 308.416472 293.76 
L 308.416472 291.364752 
L 308.416472 291.364752 
L 308.416472 288.969505 
L 308.98414 288.969505 
L 308.98414 286.574257 
L 308.98414 286.574257 
L 308.98414 284.17901 
L 308.98414 284.17901 
L 308.98414 281.783762 
L 461.8 281.783762 
" clip-path="url(#p5197220353)" style="fill: none; stroke: #f5deb3; stroke-width: 1.5; stroke-linecap: square"/>
   </g>
   <g id="line2d_3">
    <path d="M 173.647971 293.76 
L 173.647971 278.590099 
L 176.991443 278.590099 
L 176.991443 276.194851 
L 180.192595 276.194851 
L 180.192595 274.59802 
L 183.263052 274.59802 
L 183.263052 272.202772 
L 186.213066 272.202772 
L 186.213066 271.404356 
L 189.051733 271.404356 
L 189.051733 270.605941 
L 201.830813 270.605941 
L 201.830813 269.807525 
L 260.70663 269.807525 
L 260.70663 269.009109 
L 262.825523 269.009109 
L 262.825523 268.210693 
L 282.07574 268.210693 
L 282.07574 267.412277 
L 282.880194 267.412277 
L 282.880194 266.613861 
L 317.528435 266.613861 
L 317.528435 265.815446 
L 326.555653 265.815446 
L 326.555653 265.01703 
L 354.00742 265.01703 
L 354.00742 264.218614 
L 354.317589 264.218614 
L 354.317589 263.420198 
L 355.84953 263.420198 
L 355.84953 262.621782 
L 359.692427 262.621782 
L 359.692427 261.823366 
L 362.242357 261.823366 
L 362.242357 261.02495 
L 364.977776 261.02495 
L 364.977776 260.226535 
L 368.134144 260.226535 
L 368.134144 259.428119 
L 369.915988 259.428119 
L 369.915988 258.629703 
L 370.417428 258.629703 
L 370.417428 257.831287 
L 370.915547 257.831287 
L 370.915547 257.032871 
L 372.875677 257.032871 
L 372.875677 256.234455 
L 374.075315 256.234455 
L 374.075315 255.43604 
L 376.878711 255.43604 
L 376.878711 254.637624 
L 379.359814 254.637624 
L 379.359814 253.040792 
L 385.533734 253.040792 
L 385.533734 252.242376 
L 385.941409 252.242376 
L 385.941409 251.44396 
L 387.947281 251.44396 
L 387.947281 250.645545 
L 390.859221 250.645545 
L 390.859221 249.847129 
L 393.845846 249.847129 
L 393.845846 249.048713 
L 397.594024 249.048713 
L 397.594024 248.250297 
L 400.497148 248.250297 
L 400.497148 247.451881 
L 402.15395 247.451881 
L 402.15395 246.653465 
L 402.643956 246.653465 
L 402.643956 245.85505 
L 402.968863 245.85505 
L 402.968863 244.258218 
L 403.935245 244.258218 
L 403.935245 243.459802 
L 404.889369 243.459802 
L 404.889369 242.661386 
L 406.762056 242.661386 
L 406.762056 241.86297 
L 417.648695 241.86297 
L 417.648695 241.064554 
L 418.83947 241.064554 
L 418.83947 240.266139 
L 425.373155 240.266139 
L 425.373155 239.467723 
L 430.826798 239.467723 
L 430.826798 238.669307 
L 431.273184 238.669307 
L 431.273184 237.870891 
L 432.04804 237.870891 
L 432.04804 237.072475 
L 437.669307 237.072475 
L 437.669307 236.274059 
L 438.279993 236.274059 
L 438.279993 235.475644 
L 438.583487 235.475644 
L 438.583487 234.677228 
L 441.552915 234.677228 
L 441.552915 233.878812 
L 442.612987 233.878812 
L 442.612987 233.080396 
L 444.875285 233.080396 
L 444.875285 232.28198 
L 445.88986 232.28198 
L 445.88986 231.483564 
L 446.61923 231.483564 
L 446.61923 230.685149 
L 447.071521 230.685149 
L 447.071521 229.886733 
L 449.380568 229.886733 
L 449.380568 229.088317 
L 451.280492 229.088317 
L 451.280492 228.289901 
L 451.875086 228.289901 
L 451.875086 227.491485 
L 452.632721 227.491485 
L 452.632721 226.693069 
L 461.8 226.693069 
L 461.8 226.693069 
" clip-path="url(#p5197220353)" style="fill: none; stroke: #f5deb3; stroke-width: 1.5; stroke-linecap: square"/>
   </g>
   <g id="line2d_4">
    <path d="M 128.057022 293.76 
L 128.057022 292.961584 
L 158.554377 292.961584 
L 158.554377 292.163168 
L 176.991443 292.163168 
L 176.991443 291.364752 
L 180.192595 291.364752 
L 180.192595 290.566337 
L 189.051733 290.566337 
L 189.051733 289.767921 
L 196.976501 289.767921 
L 196.976501 288.969505 
L 201.830813 288.969505 
L 201.830813 288.171089 
L 204.145326 288.171089 
L 204.145326 285.775842 
L 210.68995 285.775842 
L 210.68995 284.977426 
L 216.710421 284.977426 
L 216.710421 284.17901 
L 218.614719 284.17901 
L 218.614719 283.380594 
L 224.05437 283.380594 
L 224.05437 282.582178 
L 235.398624 282.582178 
L 235.398624 281.783762 
L 374.075315 281.783762 
L 374.075315 280.985347 
L 375.7233 280.985347 
L 375.7233 280.186931 
L 388.342115 280.186931 
L 388.342115 279.388515 
L 392.553765 279.388515 
L 392.553765 278.590099 
L 395.116106 278.590099 
L 395.116106 277.791683 
L 396.010477 277.791683 
L 396.010477 276.993267 
L 396.188082 276.993267 
L 396.188082 276.194851 
L 396.718395 276.194851 
L 396.718395 275.396436 
L 397.069871 275.396436 
L 397.069871 274.59802 
L 398.114551 274.59802 
L 398.114551 273.799604 
L 398.459577 273.799604 
L 398.459577 273.001188 
L 399.144919 273.001188 
L 399.144919 272.202772 
L 400.831441 272.202772 
L 400.831441 271.404356 
L 404.57267 271.404356 
L 404.57267 270.605941 
L 404.889369 270.605941 
L 404.889369 269.807525 
L 406.142993 269.807525 
L 406.142993 269.009109 
L 410.226055 269.009109 
L 410.226055 268.210693 
L 414.794639 268.210693 
L 414.794639 267.412277 
L 414.93303 267.412277 
L 414.93303 266.613861 
L 420.269717 266.613861 
L 420.269717 265.815446 
L 453.133605 265.815446 
L 453.133605 265.01703 
L 455.266364 265.01703 
L 455.266364 264.218614 
L 461.8 264.218614 
L 461.8 264.218614 
" clip-path="url(#p5197220353)" style="fill: none; stroke: #f5deb3; stroke-width: 1.5; stroke-linecap: square"/>
   </g>
   <g id="line2d_5">
    <path d="M 397.244995 293.76 
L 397.244995 292.961584 
L 414.238512 292.961584 
L 414.238512 292.163168 
L 416.709324 292.163168 
L 416.709324 291.364752 
L 420.140813 291.364752 
L 420.140813 290.566337 
L 422.05156 290.566337 
L 422.05156 289.767921 
L 432.377693 289.767921 
L 432.377693 288.969505 
L 443.089943 288.969505 
L 443.089943 288.171089 
L 443.184973 288.171089 
L 443.184973 287.372673 
L 445.88986 287.372673 
L 445.88986 286.574257 
L 450.077015 286.574257 
L 450.077015 285.775842 
L 461.8 285.775842 
" clip-path="url(#p5197220353)" style="fill: none; stroke: #f5deb3; stroke-width: 1.5; stroke-linecap: square"/>
   </g>
   <g id="line2d_6"/>
   <g id="line2d_7">
    <path d="M 303.10492 293.76 
L 303.10492 292.961584 
L 305.512029 292.961584 
L 305.512029 292.163168 
L 311.212918 292.163168 
L 311.212918 291.364752 
L 313.909111 291.364752 
L 313.909111 290.566337 
L 315.481622 290.566337 
L 315.481622 289.767921 
L 319.027802 289.767921 
L 319.027802 288.171089 
L 320.011028 288.171089 
L 320.011028 287.372673 
L 320.497863 287.372673 
L 320.497863 286.574257 
L 321.462181 286.574257 
L 321.462181 285.775842 
L 324.283101 285.775842 
L 324.283101 284.977426 
L 326.106602 284.977426 
L 326.106602 284.17901 
L 326.555653 284.17901 
L 326.555653 283.380594 
L 327.886939 283.380594 
L 327.886939 282.582178 
L 332.988266 282.582178 
L 332.988266 281.783762 
L 421.293076 281.783762 
L 421.293076 280.985347 
L 434.4326 280.985347 
L 434.4326 280.186931 
L 437.567043 280.186931 
L 437.567043 279.388515 
L 438.279993 279.388515 
L 438.279993 278.590099 
L 442.517232 278.590099 
L 442.517232 277.791683 
L 443.846838 277.791683 
L 443.846838 276.993267 
L 444.316058 276.993267 
L 444.316058 276.194851 
L 445.245807 276.194851 
L 445.245807 275.396436 
L 445.706407 275.396436 
L 445.706407 273.799604 
L 446.255429 273.799604 
L 446.255429 273.001188 
L 446.61923 273.001188 
L 446.61923 272.202772 
L 447.341596 272.202772 
L 447.341596 271.404356 
L 448.05709 271.404356 
L 448.05709 270.605941 
L 448.765841 270.605941 
L 448.765841 269.807525 
L 449.380568 269.807525 
L 449.380568 269.009109 
L 449.642492 269.009109 
L 449.642492 268.210693 
L 452.04411 268.210693 
L 452.04411 267.412277 
L 452.465016 267.412277 
L 452.465016 266.613861 
L 453.216762 266.613861 
L 453.216762 265.815446 
L 455.990759 265.815446 
L 455.990759 265.01703 
L 457.810902 265.01703 
L 457.810902 264.218614 
L 461.8 264.218614 
L 461.8 264.218614 
" clip-path="url(#p5197220353)" style="fill: none; stroke: #f5deb3; stroke-width: 1.5; stroke-linecap: square"/>
   </g>
   <g id="line2d_8">
    <path d="M 0 0 
" clip-path="url(#p5197220353)" style="fill: none; stroke: #f5deb3; stroke-width: 1.5; stroke-linecap: square"/>
   </g>
   <g id="line2d_9">
    <path d="M 208.571057 293.76 
L 208.571057 292.961584 
L 216.710421 292.961584 
L 216.710421 292.163168 
L 222.284507 292.163168 
L 222.284507 291.364752 
L 230.744621 291.364752 
L 230.744621 290.566337 
L 232.328168 290.566337 
L 232.328168 289.767921 
L 250.355337 289.767921 
L 250.355337 288.969505 
L 255.132545 288.969505 
L 255.132545 288.171089 
L 265.89598 288.171089 
L 265.89598 286.574257 
L 270.750292 286.574257 
L 270.750292 284.977426 
L 275.310217 284.977426 
L 275.310217 284.17901 
L 276.189943 284.17901 
L 276.189943 283.380594 
L 277.059499 283.380594 
L 277.059499 282.582178 
L 277.919117 282.582178 
L 277.919117 281.783762 
L 388.342115 281.783762 
L 388.342115 280.985347 
L 403.453606 280.985347 
L 403.453606 280.186931 
L 412.545029 280.186931 
L 412.545029 279.388515 
L 421.673274 279.388515 
L 421.673274 278.590099 
L 428.091379 278.590099 
L 428.091379 277.791683 
L 428.438797 277.791683 
L 428.438797 276.993267 
L 430.602608 276.993267 
L 430.602608 276.194851 
L 432.814995 276.194851 
L 432.814995 275.396436 
L 433.682045 275.396436 
L 433.682045 274.59802 
L 433.897255 274.59802 
L 433.897255 273.799604 
L 435.17574 273.799604 
L 435.17574 273.001188 
L 435.911609 273.001188 
L 435.911609 272.202772 
L 436.224791 272.202772 
L 436.224791 271.404356 
L 436.847269 271.404356 
L 436.847269 270.605941 
L 438.076982 270.605941 
L 438.076982 269.807525 
L 438.381294 269.807525 
L 438.381294 269.009109 
L 438.785138 269.009109 
L 438.785138 268.210693 
L 440.082853 268.210693 
L 440.082853 267.412277 
L 440.772459 267.412277 
L 440.772459 266.613861 
L 444.875285 266.613861 
L 444.968087 265.01703 
L 445.614512 265.01703 
L 445.614512 264.218614 
L 461.8 264.218614 
L 461.8 264.218614 
" clip-path="url(#p5197220353)" style="fill: none; stroke: #f5deb3; stroke-width: 1.5; stroke-linecap: square"/>
   </g>
   <g id="line2d_10">
    <path d="M 288.282619 293.76 
L 288.282619 292.961584 
L 301.871847 292.961584 
L 301.871847 292.163168 
L 302.49091 292.163168 
L 302.49091 289.767921 
L 304.917435 289.767921 
L 304.917435 288.969505 
L 306.687298 288.969505 
L 306.687298 288.171089 
L 314.436943 288.171089 
L 314.436943 287.372673 
L 315.481622 287.372673 
L 315.481622 286.574257 
L 325.654855 286.574257 
L 325.654855 285.775842 
L 330.904594 285.775842 
L 330.904594 284.977426 
L 343.339558 284.977426 
L 343.339558 284.17901 
L 343.696878 284.17901 
L 343.696878 283.380594 
L 356.15221 283.380594 
L 356.15221 282.582178 
L 357.647602 282.582178 
L 357.647602 281.783762 
L 461.8 281.783762 
L 461.8 281.783762 
" clip-path="url(#p5197220353)" style="fill: none; stroke: #f5deb3; stroke-width: 1.5; stroke-linecap: square"/>
   </g>
   <g id="line2d_11">
    <path d="M 144.840928 293.76 
L 144.840928 292.961584 
L 166.479146 292.961584 
L 166.479146 292.163168 
L 170.148934 292.163168 
L 170.148934 289.767921 
L 173.647971 289.767921 
L 173.647971 288.171089 
L 176.991443 288.171089 
L 176.991443 286.574257 
L 189.051733 286.574257 
L 189.051733 284.977426 
L 204.145326 284.977426 
L 204.145326 283.380594 
L 212.750784 283.380594 
L 212.750784 282.582178 
L 214.756656 282.582178 
L 214.756656 281.783762 
L 377.107678 281.783762 
L 377.107678 280.985347 
L 383.040167 280.985347 
L 383.040167 279.388515 
L 383.671352 279.388515 
L 383.671352 278.590099 
L 385.123838 278.590099 
L 385.123838 277.791683 
L 386.346885 277.791683 
L 386.346885 276.993267 
L 386.548807 276.993267 
L 386.548807 276.194851 
L 387.947281 276.194851 
L 387.947281 275.396436 
L 388.342115 275.396436 
L 388.342115 274.59802 
L 390.859221 274.59802 
L 390.859221 273.799604 
L 391.993148 273.799604 
L 391.993148 272.202772 
L 393.478939 272.202772 
L 393.478939 271.404356 
L 393.845846 271.404356 
L 393.845846 270.605941 
L 397.069871 270.605941 
L 397.069871 269.807525 
L 397.594024 269.807525 
L 397.594024 269.009109 
L 457.732675 269.009109 
L 457.732675 268.210693 
L 461.622038 268.210693 
L 461.622038 267.412277 
L 461.8 267.412277 
L 461.8 267.412277 
" clip-path="url(#p5197220353)" style="fill: none; stroke: #f5deb3; stroke-width: 1.5; stroke-linecap: square"/>
   </g>
   <g id="line2d_12">
    <path d="M 134.077493 293.76 
L 134.077493 281.783762 
L 162.621083 281.783762 
L 162.621083 280.186931 
L 183.263052 280.186931 
L 183.263052 279.388515 
L 199.442812 279.388515 
L 199.442812 273.001188 
L 212.750784 273.001188 
L 212.750784 270.605941 
L 224.05437 270.605941 
L 224.05437 269.807525 
L 365.779372 269.807525 
L 365.779372 269.009109 
L 374.78602 269.009109 
L 374.78602 268.210693 
L 377.563532 268.210693 
L 377.563532 267.412277 
L 378.914749 267.412277 
L 378.914749 265.815446 
L 384.089218 265.815446 
L 384.089218 265.01703 
L 386.548807 265.01703 
L 386.548807 263.420198 
L 387.749084 263.420198 
L 387.749084 262.621782 
L 391.239099 262.621782 
L 391.239099 261.823366 
L 392.367356 261.823366 
L 392.367356 261.02495 
L 394.574333 261.02495 
L 394.574333 259.428119 
L 404.731186 259.428119 
L 404.731186 258.629703 
L 405.675329 258.629703 
L 405.675329 257.032871 
L 406.607768 257.032871 
L 406.607768 256.234455 
L 410.226055 256.234455 
L 410.226055 253.839208 
L 411.10407 253.839208 
L 411.10407 253.040792 
L 411.971954 253.040792 
L 411.971954 252.242376 
L 412.829937 252.242376 
L 412.829937 251.44396 
L 413.678244 251.44396 
L 413.678244 250.645545 
L 414.51709 250.645545 
L 414.51709 249.847129 
L 415.346683 249.847129 
L 415.346683 249.048713 
L 416.978915 249.048713 
L 416.978915 248.250297 
L 417.781938 248.250297 
L 417.781938 247.451881 
L 420.140813 247.451881 
L 420.140813 246.653465 
L 422.427954 246.653465 
L 422.427954 245.85505 
L 424.647595 245.85505 
L 424.647595 245.056634 
L 427.50876 245.056634 
L 427.50876 244.258218 
L 428.899538 244.258218 
L 428.899538 243.459802 
L 433.466218 243.459802 
L 433.466218 242.661386 
L 434.218919 242.661386 
L 434.218919 241.064554 
L 437.362095 241.064554 
L 437.362095 240.266139 
L 442.132987 240.266139 
L 442.132987 238.669307 
L 443.846838 238.669307 
L 443.846838 237.870891 
L 444.316058 237.870891 
L 444.316058 237.072475 
L 447.161654 237.072475 
L 447.161654 234.677228 
L 447.700193 234.677228 
L 447.700193 233.080396 
L 448.234905 233.080396 
L 448.234905 232.28198 
L 455.347198 232.28198 
L 455.347198 231.483564 
L 455.830384 231.483564 
L 455.830384 230.685149 
L 456.310486 230.685149 
L 456.310486 229.886733 
L 461.8 229.886733 
L 461.8 229.886733 
" clip-path="url(#p5197220353)" style="fill: none; stroke: #f5deb3; stroke-width: 1.5; stroke-linecap: square"/>
   </g>
   <g id="line2d_13">
    <path d="M 379.581363 293.76 
L 379.581363 291.364752 
L 385.941409 291.364752 
L 385.941409 288.969505 
L 386.548807 288.969505 
L 386.548807 286.574257 
L 399.992907 286.574257 
L 399.992907 284.17901 
L 408.438667 284.17901 
L 408.438667 281.783762 
L 461.8 281.783762 
L 461.8 281.783762 
" clip-path="url(#p5197220353)" style="fill: none; stroke: #f5deb3; stroke-width: 1.5; stroke-linecap: square"/>
   </g>
   <g id="line2d_14">
    <path d="M 208.571057 293.76 
L 208.571057 292.163168 
L 210.68995 292.163168 
L 210.68995 291.364752 
L 214.756656 291.364752 
L 214.756656 290.566337 
L 220.471992 290.566337 
L 220.471992 288.171089 
L 225.783544 288.171089 
L 225.783544 287.372673 
L 229.127016 287.372673 
L 229.127016 281.783762 
L 320.981567 281.783762 
L 320.981567 280.985347 
L 326.106602 280.985347 
L 326.106602 280.186931 
L 330.480842 280.186931 
L 330.480842 279.388515 
L 332.988266 279.388515 
L 332.988266 277.791683 
L 334.614615 277.791683 
L 334.614615 276.993267 
L 335.41479 276.993267 
L 335.41479 276.194851 
L 336.206542 276.194851 
L 336.206542 275.396436 
L 339.292748 275.396436 
L 339.292748 274.59802 
L 340.789628 274.59802 
L 340.789628 273.799604 
L 341.893057 273.799604 
L 341.893057 273.001188 
L 344.052509 273.001188 
L 344.052509 272.202772 
L 345.109422 272.202772 
L 345.109422 271.404356 
L 347.519285 271.404356 
L 347.519285 269.807525 
L 359.403691 269.807525 
L 359.403691 269.009109 
L 363.073479 269.009109 
L 363.073479 268.210693 
L 424.282174 268.210693 
L 424.282174 267.412277 
L 431.606243 267.412277 
L 431.606243 266.613861 
L 452.800053 266.613861 
L 452.800053 265.815446 
L 458.897629 265.815446 
L 458.897629 265.01703 
L 461.8 265.01703 
L 461.8 265.01703 
" clip-path="url(#p5197220353)" style="fill: none; stroke: #f5deb3; stroke-width: 1.5; stroke-linecap: square"/>
   </g>
   <g id="line2d_15">
    <path d="M 0 0 
" clip-path="url(#p5197220353)" style="fill: none; stroke: #f5deb3; stroke-width: 1.5; stroke-linecap: square"/>
   </g>
   <g id="line2d_16">
    <path d="M 411.10407 293.76 
L 411.10407 292.961584 
L 418.708089 292.961584 
L 418.708089 291.364752 
L 426.210888 291.364752 
L 426.210888 290.566337 
L 430.938643 290.566337 
L 430.938643 289.767921 
L 433.032697 289.767921 
L 433.141311 287.372673 
L 433.249769 287.372673 
L 433.358071 285.775842 
L 433.897255 285.775842 
L 433.897255 284.977426 
L 436.224791 284.977426 
L 436.224791 284.17901 
L 436.432857 284.17901 
L 436.432857 283.380594 
L 441.74677 283.380594 
L 441.74677 282.582178 
L 449.729597 282.582178 
L 449.729597 281.783762 
L 461.8 281.783762 
L 461.8 281.783762 
" clip-path="url(#p5197220353)" style="fill: none; stroke: #f5deb3; stroke-width: 1.5; stroke-linecap: square"/>
   </g>
   <g id="line2d_17">
    <path d="M 302.49091 293.76 
L 302.49091 292.961584 
L 310.661884 292.961584 
L 310.661884 292.163168 
L 328.325516 292.163168 
L 328.325516 291.364752 
L 344.052509 291.364752 
L 344.052509 290.566337 
L 346.495926 290.566337 
L 346.495926 289.767921 
L 367.617195 289.767921 
L 367.617195 288.969505 
L 374.075315 288.969505 
L 374.075315 288.171089 
L 374.312964 288.171089 
L 374.312964 287.372673 
L 378.691226 287.372673 
L 378.691226 286.574257 
L 399.144919 286.574257 
L 399.144919 285.775842 
L 415.071167 285.775842 
L 415.071167 284.977426 
L 416.03109 284.977426 
L 416.03109 284.17901 
L 416.709324 284.17901 
L 416.709324 283.380594 
L 458.666077 283.380594 
L 458.666077 282.582178 
L 459.20526 282.582178 
L 459.20526 281.783762 
L 461.8 281.783762 
L 461.8 281.783762 
" clip-path="url(#p5197220353)" style="fill: none; stroke: #f5deb3; stroke-width: 1.5; stroke-linecap: square"/>
   </g>
   <g id="line2d_18">
    <path d="M 128.057022 293.76 
L 128.057022 281.783762 
L 134.077493 281.783762 
L 134.077493 277.791683 
L 139.651579 277.791683 
L 139.651579 276.993267 
L 144.840928 276.993267 
L 144.840928 276.194851 
L 149.69524 276.194851 
L 149.69524 274.59802 
L 154.255166 274.59802 
L 154.255166 271.404356 
L 158.554377 271.404356 
L 158.554377 270.605941 
L 170.148934 270.605941 
L 170.148934 269.807525 
L 361.119713 269.807525 
L 361.119713 269.009109 
L 372.390412 269.009109 
L 372.390412 268.210693 
L 374.075315 268.210693 
L 374.075315 267.412277 
L 374.312964 267.412277 
L 374.312964 266.613861 
L 376.878711 266.613861 
L 376.878711 265.815446 
L 380.679422 265.815446 
L 380.679422 265.01703 
L 384.711696 265.01703 
L 384.711696 264.218614 
L 385.533734 264.218614 
L 385.533734 263.420198 
L 386.548807 263.420198 
L 386.548807 262.621782 
L 388.342115 262.621782 
L 388.342115 261.823366 
L 390.285782 261.823366 
L 390.285782 261.02495 
L 391.993148 261.02495 
L 391.993148 260.226535 
L 394.210971 260.226535 
L 394.210971 259.428119 
L 394.574333 259.428119 
L 394.574333 258.629703 
L 396.718395 258.629703 
L 396.718395 257.831287 
L 398.287262 257.831287 
L 398.287262 257.032871 
L 399.315283 257.032871 
L 399.315283 256.234455 
L 399.654858 256.234455 
L 399.654858 255.43604 
L 402.968863 255.43604 
L 402.968863 253.839208 
L 404.889369 253.839208 
L 404.889369 253.040792 
L 406.762056 253.040792 
L 406.762056 252.242376 
L 410.519867 252.242376 
L 410.519867 251.44396 
L 411.539264 251.44396 
L 411.539264 250.645545 
L 413.678244 250.645545 
L 413.678244 249.847129 
L 414.655992 249.847129 
L 414.655992 249.048713 
L 415.346683 249.048713 
L 415.346683 248.250297 
L 421.799581 248.250297 
L 421.799581 247.451881 
L 424.890227 247.451881 
L 424.890227 246.653465 
L 427.274443 246.653465 
L 427.274443 245.85505 
L 433.466218 245.85505 
L 433.466218 245.056634 
L 438.279993 245.056634 
L 438.279993 244.258218 
L 439.884656 244.258218 
L 439.884656 243.459802 
L 441.358559 243.459802 
L 441.358559 242.661386 
L 443.563894 242.661386 
L 443.563894 241.86297 
L 445.430385 241.86297 
L 445.430385 241.064554 
L 452.381023 241.064554 
L 452.381023 240.266139 
L 455.104436 240.266139 
L 455.104436 239.467723 
L 455.347198 239.467723 
L 455.347198 238.669307 
L 460.57424 238.669307 
L 460.57424 237.870891 
L 460.950131 237.870891 
L 460.950131 237.072475 
L 461.174768 237.072475 
L 461.174768 236.274059 
L 461.8 236.274059 
L 461.8 236.274059 
" clip-path="url(#p5197220353)" style="fill: none; stroke: #f5deb3; stroke-width: 1.5; stroke-linecap: square"/>
   </g>
   <g id="line2d_19">
    <path d="M 436.328896 293.76 
L 436.328896 292.94652 
L 449.467977 292.94652 
L 449.467977 292.133039 
L 461.8 292.133039 
L 461.8 292.133039 
" clip-path="url(#p5197220353)" style="fill: none; stroke: #f5deb3; stroke-width: 1.5; stroke-linecap: square"/>
   </g>
   <g id="line2d_20">
    <path d="M 144.840928 293.76 
L 144.840928 292.961584 
L 154.255166 292.961584 
L 154.255166 292.163168 
L 158.554377 292.163168 
L 158.554377 290.566337 
L 170.148934 290.566337 
L 170.148934 289.767921 
L 176.991443 289.767921 
L 176.991443 288.969505 
L 180.192595 288.969505 
L 180.192595 288.171089 
L 186.213066 288.171089 
L 186.213066 287.372673 
L 189.051733 287.372673 
L 189.051733 285.775842 
L 191.787152 285.775842 
L 191.787152 284.977426 
L 196.976501 284.977426 
L 196.976501 284.17901 
L 201.830813 284.17901 
L 201.830813 283.380594 
L 204.145326 283.380594 
L 204.145326 282.582178 
L 210.68995 282.582178 
L 210.68995 281.783762 
L 336.599314 281.783762 
L 336.599314 280.985347 
L 343.339558 280.985347 
L 343.339558 280.186931 
L 343.696878 280.186931 
L 343.696878 279.388515 
L 344.758765 279.388515 
L 344.758765 278.590099 
L 346.151689 278.590099 
L 346.151689 277.791683 
L 347.857334 277.791683 
L 347.857334 276.993267 
L 349.194538 276.993267 
L 349.194538 276.194851 
L 350.182067 276.194851 
L 350.182067 275.396436 
L 352.11906 275.396436 
L 352.11906 273.799604 
L 353.069166 273.799604 
L 353.069166 273.001188 
L 353.695968 273.001188 
L 353.695968 272.202772 
L 357.053008 272.202772 
L 357.053008 271.404356 
L 358.822871 271.404356 
L 358.822871 270.605941 
L 359.980059 270.605941 
L 359.980059 269.807525 
L 361.963263 269.807525 
L 361.963263 269.009109 
L 364.167545 269.009109 
L 364.167545 268.210693 
L 366.044684 268.210693 
L 366.044684 267.412277 
L 366.309063 267.412277 
L 366.309063 266.613861 
L 388.930507 266.613861 
L 388.930507 265.815446 
L 396.718395 265.815446 
L 396.718395 265.01703 
L 399.992907 265.01703 
L 399.992907 264.218614 
L 405.047219 264.218614 
L 405.047219 263.420198 
L 408.287783 263.420198 
L 408.287783 262.621782 
L 411.828 262.621782 
L 411.828 261.823366 
L 414.655992 261.823366 
L 414.655992 261.02495 
L 414.794639 261.02495 
L 414.794639 260.226535 
L 416.303118 260.226535 
L 416.303118 259.428119 
L 417.247543 259.428119 
L 417.247543 258.629703 
L 419.362712 258.629703 
L 419.362712 257.032871 
L 419.882339 257.032871 
L 419.882339 256.234455 
L 420.398401 256.234455 
L 420.398401 255.43604 
L 421.165915 255.43604 
L 421.165915 254.637624 
L 421.799581 254.637624 
L 421.799581 253.839208 
L 422.177234 253.839208 
L 422.177234 253.040792 
L 422.553001 253.040792 
L 422.553001 252.242376 
L 423.298948 252.242376 
L 423.298948 251.44396 
L 423.792167 251.44396 
L 423.792167 250.645545 
L 424.404178 250.645545 
L 424.404178 249.847129 
L 424.525985 249.847129 
L 424.525985 248.250297 
L 425.01125 248.250297 
L 425.01125 247.451881 
L 425.373155 247.451881 
L 425.373155 246.653465 
L 426.448537 246.653465 
L 426.448537 245.85505 
L 427.625646 245.85505 
L 427.625646 245.056634 
L 427.975216 245.056634 
L 427.975216 244.258218 
L 428.438797 244.258218 
L 428.438797 243.459802 
L 431.937834 243.459802 
L 431.937834 242.661386 
L 432.814995 242.661386 
L 432.814995 241.86297 
L 434.4326 241.86297 
L 434.4326 240.266139 
L 434.645676 240.266139 
L 434.645676 239.467723 
L 435.597118 239.467723 
L 435.597118 237.870891 
L 436.432857 237.870891 
L 436.432857 237.072475 
L 437.362095 237.072475 
L 437.362095 236.274059 
L 438.178556 236.274059 
L 438.178556 235.475644 
L 438.986249 235.475644 
L 439.086604 233.878812 
L 440.28053 233.878812 
L 440.28053 233.080396 
L 440.477688 233.080396 
L 440.576073 231.483564 
L 441.649905 231.483564 
L 441.649905 230.685149 
L 445.153347 230.685149 
L 445.153347 229.886733 
L 446.346544 229.886733 
L 446.346544 229.088317 
L 447.071521 229.088317 
L 447.071521 227.491485 
L 447.700193 227.491485 
L 447.700193 226.693069 
L 448.765841 226.693069 
L 448.765841 225.894653 
L 449.205444 225.894653 
L 449.205444 225.096238 
L 449.555285 225.096238 
L 449.555285 224.297822 
L 449.903507 224.297822 
L 449.903507 223.499406 
L 450.852886 223.499406 
L 450.852886 222.70099 
L 451.705681 222.70099 
L 451.705681 221.902574 
L 454.616548 221.902574 
L 454.698083 220.305743 
L 455.910614 220.305743 
L 455.910614 219.507327 
L 457.340312 219.507327 
L 457.340312 218.708911 
L 457.654366 218.708911 
L 457.654366 217.910495 
L 458.820524 217.910495 
L 458.820524 217.112079 
L 461.398735 217.112079 
L 461.398735 216.313663 
L 461.8 216.313663 
L 461.8 216.313663 
" clip-path="url(#p5197220353)" style="fill: none; stroke: #f5deb3; stroke-width: 1.5; stroke-linecap: square"/>
   </g>
   <g id="line2d_21">
    <path d="M 0 0 
" clip-path="url(#p5197220353)" style="fill: none; stroke: #f5deb3; stroke-width: 1.5; stroke-linecap: square"/>
   </g>
   <g id="line2d_22">
    <path d="M 158.554377 293.76 
L 158.554377 292.163168 
L 170.148934 292.163168 
L 170.148934 291.364752 
L 173.647971 291.364752 
L 173.647971 290.566337 
L 183.263052 290.566337 
L 183.263052 288.171089 
L 191.787152 288.171089 
L 191.787152 287.372673 
L 210.68995 287.372673 
L 210.68995 286.574257 
L 220.471992 286.574257 
L 220.471992 285.775842 
L 222.284507 285.775842 
L 222.284507 284.977426 
L 230.744621 284.977426 
L 230.744621 284.17901 
L 233.879063 284.17901 
L 233.879063 283.380594 
L 294.703022 283.380594 
L 294.703022 282.582178 
L 307.268118 282.582178 
L 307.268118 281.783762 
L 324.283101 281.783762 
L 324.283101 280.985347 
L 335.811708 280.985347 
L 335.811708 280.186931 
L 342.257299 280.186931 
L 342.257299 279.388515 
L 343.696878 279.388515 
L 343.696878 278.590099 
L 344.758765 278.590099 
L 344.758765 277.791683 
L 346.838595 277.791683 
L 346.838595 276.993267 
L 348.528908 276.993267 
L 348.528908 276.194851 
L 349.854329 276.194851 
L 349.854329 275.396436 
L 350.182067 275.396436 
L 350.182067 274.59802 
L 350.83329 274.59802 
L 350.83329 273.001188 
L 351.156799 273.001188 
L 351.156799 272.202772 
L 352.753796 272.202772 
L 352.753796 271.404356 
L 354.317589 271.404356 
L 354.317589 270.605941 
L 354.934115 270.605941 
L 354.934115 269.807525 
L 357.053008 269.807525 
L 357.053008 269.009109 
L 357.350892 269.009109 
L 357.350892 268.210693 
L 359.692427 268.210693 
L 359.692427 267.412277 
L 364.167545 267.412277 
L 364.167545 266.613861 
L 364.438593 266.613861 
L 364.438593 265.815446 
L 370.417428 265.815446 
L 370.417428 265.01703 
L 390.477414 265.01703 
L 390.477414 264.218614 
L 395.475131 264.218614 
L 395.475131 263.420198 
L 395.832451 263.420198 
L 395.832451 262.621782 
L 397.419712 262.621782 
L 397.419712 261.823366 
L 401.164255 261.823366 
L 401.164255 261.02495 
L 403.292372 261.02495 
L 403.292372 260.226535 
L 409.039195 260.226535 
L 409.039195 259.428119 
L 409.931091 259.428119 
L 409.931091 258.629703 
L 411.10407 258.629703 
L 411.10407 257.831287 
L 411.394479 257.831287 
L 411.394479 257.032871 
L 411.68377 257.032871 
L 411.68377 256.234455 
L 412.115632 256.234455 
L 412.115632 255.43604 
L 412.259037 255.43604 
L 412.259037 254.637624 
L 412.971988 254.637624 
L 412.971988 253.839208 
L 413.11377 253.839208 
L 413.11377 252.242376 
L 413.9589 252.242376 
L 413.9589 251.44396 
L 414.794639 251.44396 
L 414.794639 250.645545 
L 416.438764 250.645545 
L 416.438764 249.847129 
L 416.709324 249.847129 
L 416.709324 249.048713 
L 419.362712 249.048713 
L 419.362712 247.451881 
L 421.038539 247.451881 
L 421.038539 246.653465 
L 421.420022 246.653465 
L 421.420022 245.85505 
L 423.545962 245.85505 
L 423.545962 245.056634 
L 423.792167 245.056634 
L 423.792167 244.258218 
L 424.03757 244.258218 
L 424.03757 243.459802 
L 424.890227 243.459802 
L 424.890227 242.661386 
L 425.132078 242.661386 
L 425.132078 241.86297 
L 425.493404 241.86297 
L 425.493404 240.266139 
L 425.613461 240.266139 
L 425.613461 239.467723 
L 429.5854 239.467723 
L 429.5854 238.669307 
L 429.699105 238.669307 
L 429.699105 237.870891 
L 431.606243 237.870891 
L 431.606243 237.072475 
L 432.705908 237.072475 
L 432.705908 236.274059 
L 433.032697 236.274059 
L 433.032697 233.878812 
L 434.751988 233.878812 
L 434.751988 233.080396 
L 443.279882 233.080396 
L 443.279882 231.483564 
L 446.709906 231.483564 
L 446.709906 230.685149 
L 447.700193 230.685149 
L 447.700193 229.886733 
L 448.677612 229.886733 
L 448.677612 229.088317 
L 449.555285 229.088317 
L 449.555285 228.289901 
L 450.59515 228.289901 
L 450.59515 227.491485 
L 450.938602 227.491485 
L 450.938602 226.693069 
L 452.465016 226.693069 
L 452.465016 225.096238 
L 455.02334 225.096238 
L 455.104436 222.70099 
L 455.589179 222.70099 
L 455.589179 221.902574 
L 455.990759 221.902574 
L 455.990759 221.104158 
L 456.150792 221.104158 
L 456.150792 220.305743 
L 456.62886 220.305743 
L 456.62886 219.507327 
L 458.356228 219.507327 
L 458.356228 218.708911 
L 459.511639 218.708911 
L 459.511639 217.910495 
L 461.324154 217.910495 
L 461.324154 217.112079 
L 461.8 217.112079 
L 461.8 217.112079 
" clip-path="url(#p5197220353)" style="fill: none; stroke: #f5deb3; stroke-width: 1.5; stroke-linecap: square"/>
   </g>
   <g id="line2d_23">
    <path d="M 271.684661 293.76 
L 271.684661 292.961584 
L 298.697717 292.961584 
L 298.697717 292.163168 
L 301.871847 292.163168 
L 301.871847 291.364752 
L 303.713957 291.364752 
L 303.713957 290.566337 
L 313.377549 290.566337 
L 313.377549 288.969505 
L 321.462181 288.969505 
L 321.462181 288.171089 
L 321.939742 288.171089 
L 321.939742 287.372673 
L 323.820234 287.372673 
L 323.820234 286.574257 
L 324.283101 286.574257 
L 324.283101 285.775842 
L 324.743138 285.775842 
L 324.743138 284.977426 
L 337.378759 284.977426 
L 337.378759 284.17901 
L 345.805869 284.17901 
L 345.805869 283.380594 
L 351.478922 283.380594 
L 351.478922 282.582178 
L 365.245925 282.582178 
L 365.245925 281.783762 
L 461.8 281.783762 
L 461.8 281.783762 
" clip-path="url(#p5197220353)" style="fill: none; stroke: #f5deb3; stroke-width: 1.5; stroke-linecap: square"/>
   </g>
   <g id="line2d_24">
    <path d="M 340.789628 293.76 
L 340.789628 292.163168 
L 341.159239 292.163168 
L 341.159239 291.364752 
L 355.545628 291.364752 
L 355.545628 289.767921 
L 355.84953 289.767921 
L 355.84953 288.969505 
L 369.157503 288.969505 
L 369.157503 287.372673 
L 369.411182 287.372673 
L 369.411182 286.574257 
L 369.664008 286.574257 
L 369.664008 285.775842 
L 380.679422 285.775842 
L 380.679422 284.17901 
L 380.897124 284.17901 
L 380.897124 283.380594 
L 381.114197 283.380594 
L 381.114197 282.582178 
L 399.485262 282.582178 
L 399.485262 281.783762 
L 435.17574 281.783762 
L 435.17574 280.985347 
L 439.785362 280.985347 
L 439.785362 280.186931 
L 441.358559 280.186931 
L 441.358559 279.388515 
L 455.830384 279.388515 
L 455.830384 278.590099 
L 455.990759 278.590099 
L 455.990759 277.791683 
L 461.025085 277.791683 
L 461.025085 276.993267 
L 461.8 276.993267 
L 461.8 276.993267 
" clip-path="url(#p5197220353)" style="fill: none; stroke: #f5deb3; stroke-width: 1.5; stroke-linecap: square"/>
   </g>
   <g id="line2d_25">
    <path d="M 289.757484 293.76 
L 289.757484 292.961584 
L 302.49091 292.961584 
L 302.49091 292.163168 
L 305.512029 292.163168 
L 305.512029 291.364752 
L 312.842203 291.364752 
L 312.842203 290.566337 
L 314.436943 290.566337 
L 314.436943 289.767921 
L 323.820234 289.767921 
L 323.820234 288.969505 
L 324.283101 288.969505 
L 324.283101 288.171089 
L 325.200377 288.171089 
L 325.200377 286.574257 
L 326.555653 286.574257 
L 326.555653 285.775842 
L 329.626109 285.775842 
L 329.626109 284.977426 
L 331.325972 284.977426 
L 331.325972 284.17901 
L 348.19387 284.17901 
L 348.19387 283.380594 
L 349.194538 283.380594 
L 349.194538 282.582178 
L 350.508383 282.582178 
L 350.508383 281.783762 
L 461.8 281.783762 
L 461.8 281.783762 
" clip-path="url(#p5197220353)" style="fill: none; stroke: #f5deb3; stroke-width: 1.5; stroke-linecap: square"/>
   </g>
   <g id="line2d_26">
    <path d="M 425.733326 293.76 
L 425.733326 292.961584 
L 426.210888 292.961584 
L 426.210888 292.163168 
L 426.56708 292.163168 
L 426.56708 291.364752 
L 429.926 291.364752 
L 429.926 290.566337 
L 432.705908 290.566337 
L 432.705908 289.767921 
L 433.141311 289.767921 
L 433.141311 288.969505 
L 433.358071 288.969505 
L 433.466218 286.574257 
L 436.536674 286.574257 
L 436.536674 285.775842 
L 437.259411 285.775842 
L 437.259411 284.977426 
L 440.082853 284.977426 
L 440.082853 284.17901 
L 440.67433 284.17901 
L 440.67433 283.380594 
L 442.325355 283.380594 
L 442.325355 282.582178 
L 442.612987 282.582178 
L 442.612987 281.783762 
L 461.8 281.783762 
L 461.8 281.783762 
" clip-path="url(#p5197220353)" style="fill: none; stroke: #f5deb3; stroke-width: 1.5; stroke-linecap: square"/>
   </g>
   <g id="line2d_27">
    <path d="M 317.528435 293.76 
L 317.528435 292.961584 
L 333.805836 292.961584 
L 333.805836 292.163168 
L 334.614615 292.163168 
L 334.614615 291.364752 
L 337.378759 291.364752 
L 337.378759 290.566337 
L 345.805869 290.566337 
L 345.805869 288.969505 
L 346.838595 288.969505 
L 346.838595 288.171089 
L 352.11906 288.171089 
L 352.11906 287.372673 
L 365.245925 287.372673 
L 365.245925 286.574257 
L 369.157503 286.574257 
L 369.157503 285.775842 
L 375.25612 285.775842 
L 375.25612 284.977426 
L 378.914749 284.977426 
L 378.914749 284.17901 
L 381.114197 284.17901 
L 381.114197 283.380594 
L 394.02863 283.380594 
L 394.02863 282.582178 
L 394.392872 282.582178 
L 394.392872 281.783762 
L 412.115632 281.783762 
L 412.115632 280.985347 
L 413.9589 280.985347 
L 413.9589 280.186931 
L 417.914945 280.186931 
L 417.914945 279.388515 
L 419.232242 279.388515 
L 419.232242 277.791683 
L 420.526865 277.791683 
L 420.526865 276.993267 
L 422.302698 276.993267 
L 422.302698 276.194851 
L 424.159971 276.194851 
L 424.159971 275.396436 
L 425.252713 275.396436 
L 425.252713 274.59802 
L 425.613461 274.59802 
L 425.613461 273.799604 
L 426.091782 273.799604 
L 426.091782 273.001188 
L 427.975216 273.001188 
L 427.975216 271.404356 
L 429.5854 271.404356 
L 429.5854 270.605941 
L 431.050322 270.605941 
L 431.050322 269.807525 
L 431.937834 269.807525 
L 431.937834 269.009109 
L 439.785362 269.009109 
L 439.785362 268.210693 
L 461.8 268.210693 
L 461.8 268.210693 
" clip-path="url(#p5197220353)" style="fill: none; stroke: #f5deb3; stroke-width: 1.5; stroke-linecap: square"/>
   </g>
   <g id="line2d_28">
    <path d="M 227.473856 293.76 
L 227.473856 292.961584 
L 256.280899 292.961584 
L 256.280899 292.163168 
L 276.189943 292.163168 
L 276.189943 290.566337 
L 277.919117 290.566337 
L 277.919117 289.767921 
L 286.014636 289.767921 
L 286.014636 288.969505 
L 292.623192 288.969505 
L 292.623192 287.372673 
L 293.322878 287.372673 
L 293.322878 286.574257 
L 306.101959 286.574257 
L 306.101959 285.775842 
L 306.687298 285.775842 
L 306.687298 284.17901 
L 318.031553 284.17901 
L 318.031553 283.380594 
L 335.015767 283.380594 
L 335.015767 282.582178 
L 344.406466 282.582178 
L 344.406466 281.783762 
L 412.545029 281.783762 
L 412.545029 280.985347 
L 415.346683 280.985347 
L 415.346683 280.186931 
L 424.159971 280.186931 
L 424.159971 279.388515 
L 425.132078 279.388515 
L 425.132078 278.590099 
L 426.329806 278.590099 
L 426.329806 277.791683 
L 437.362095 277.791683 
L 437.362095 276.993267 
L 442.036619 276.993267 
L 442.036619 276.194851 
L 453.548475 276.194851 
L 453.548475 275.396436 
L 454.207544 275.396436 
L 454.207544 274.59802 
L 454.779529 274.59802 
L 454.779529 273.799604 
L 455.185443 273.799604 
L 455.185443 273.001188 
L 455.669667 273.001188 
L 455.669667 272.202772 
L 457.810902 272.202772 
L 457.810902 271.404356 
L 458.123001 271.404356 
L 458.123001 270.605941 
L 458.666077 270.605941 
L 458.666077 269.807525 
L 459.588039 269.807525 
L 459.588039 269.009109 
L 459.968878 269.009109 
L 459.968878 268.210693 
L 460.120676 268.210693 
L 460.120676 267.412277 
L 461.8 267.412277 
L 461.8 267.412277 
" clip-path="url(#p5197220353)" style="fill: none; stroke: #f5deb3; stroke-width: 1.5; stroke-linecap: square"/>
   </g>
   <g id="line2d_29">
    <path d="M 114.343573 293.76 
L 114.343573 281.783762 
L 149.69524 281.783762 
L 149.69524 279.388515 
L 154.255166 279.388515 
L 154.255166 274.59802 
L 241.187306 274.59802 
L 241.187306 272.202772 
L 242.567449 272.202772 
L 242.567449 269.807525 
L 348.862459 269.807525 
L 348.862459 267.412277 
L 377.563532 267.412277 
L 377.563532 265.01703 
L 380.24212 265.01703 
L 380.24212 262.621782 
L 380.897124 262.621782 
L 380.897124 260.226535 
L 385.123838 260.226535 
L 385.123838 257.831287 
L 391.993148 257.831287 
L 391.993148 255.43604 
L 392.553765 255.43604 
L 392.553765 253.040792 
L 395.475131 253.040792 
L 395.475131 250.645545 
L 414.93303 250.645545 
L 414.93303 248.250297 
L 417.515215 248.250297 
L 417.515215 245.85505 
L 440.28053 245.85505 
L 440.28053 243.459802 
L 453.961069 243.459802 
L 453.961069 241.064554 
L 461.8 241.064554 
L 461.8 241.064554 
" clip-path="url(#p5197220353)" style="fill: none; stroke: #f5deb3; stroke-width: 1.5; stroke-linecap: square"/>
   </g>
   <g id="line2d_30">
    <path d="M 220.471992 293.76 
L 220.471992 292.961584 
L 227.473856 292.961584 
L 227.473856 292.163168 
L 260.70663 292.163168 
L 260.70663 291.364752 
L 261.773538 291.364752 
L 261.773538 290.566337 
L 267.875455 290.566337 
L 267.875455 289.767921 
L 271.684661 289.767921 
L 271.684661 288.969505 
L 273.519282 288.969505 
L 273.519282 288.171089 
L 273.519282 288.171089 
L 273.519282 287.372673 
L 274.42008 287.372673 
L 274.42008 286.574257 
L 274.42008 286.574257 
L 274.42008 285.775842 
L 274.42008 285.775842 
L 274.42008 284.977426 
L 277.919117 284.977426 
L 277.919117 284.17901 
L 278.769021 284.17901 
L 278.769021 283.380594 
L 279.609429 283.380594 
L 279.609429 282.582178 
L 279.609429 282.582178 
L 279.609429 281.783762 
L 279.609429 281.783762 
L 279.609429 280.985347 
L 280.440551 280.985347 
L 280.440551 280.186931 
L 281.262589 280.186931 
L 281.262589 279.388515 
L 281.262589 279.388515 
L 281.262589 278.590099 
L 282.07574 278.590099 
L 282.07574 277.791683 
L 283.676135 277.791683 
L 283.676135 276.993267 
L 284.463741 276.993267 
L 284.463741 276.194851 
L 285.243186 276.194851 
L 285.243186 275.396436 
L 289.023667 275.396436 
L 289.023667 274.59802 
L 290.484212 274.59802 
L 290.484212 273.799604 
L 291.916936 273.799604 
L 291.916936 273.001188 
L 291.916936 273.001188 
L 291.916936 272.202772 
L 293.322878 272.202772 
L 293.322878 271.404356 
L 294.016116 271.404356 
L 294.016116 270.605941 
L 300.618223 270.605941 
L 300.618223 269.807525 
L 313.909111 269.807525 
L 313.909111 269.009109 
L 313.909111 269.009109 
L 313.909111 268.210693 
L 313.909111 268.210693 
L 313.909111 267.412277 
L 313.909111 267.412277 
L 313.909111 266.613861 
L 313.909111 266.613861 
L 313.909111 265.815446 
L 313.909111 265.815446 
L 313.909111 265.01703 
L 313.909111 265.01703 
L 313.909111 264.218614 
L 313.909111 264.218614 
L 313.909111 263.420198 
L 313.909111 263.420198 
L 313.909111 262.621782 
L 313.909111 262.621782 
L 313.909111 261.823366 
L 313.909111 261.823366 
L 313.909111 261.02495 
L 313.909111 261.02495 
L 313.909111 260.226535 
L 313.909111 260.226535 
L 313.909111 259.428119 
L 313.909111 259.428119 
L 313.909111 258.629703 
L 313.909111 258.629703 
L 313.909111 257.831287 
L 461.8 257.831287 
" clip-path="url(#p5197220353)" style="fill: none; stroke: #f5deb3; stroke-width: 1.5; stroke-linecap: square"/>
   </g>
   <g id="matplotlib.axis_1">
    <g id="xtick_1">
     <g id="line2d_31">
      <path d="M 62.208 293.76 
L 62.208 3.456 
" clip-path="url(#p5197220353)" style="fill: none; stroke: #b0b0b0; stroke-width: 0.8; stroke-linecap: square"/>
     </g>
     <g id="line2d_32">
      <defs>
       <path id="m633637fd63" d="M 0 0 
L 0 3.5 
" style="stroke: #000000; stroke-width: 0.8"/>
      </defs>
      <g>
       <use xlink:href="#m633637fd63" x="62.208" y="293.76" style="stroke: #000000; stroke-width: 0.8"/>
      </g>
     </g>
     <g id="text_1">
      <!-- 0 -->
      <g transform="translate(55.8455 315.956875) scale(0.2 -0.2)">
       <defs>
        <path id="DejaVuSans-30" d="M 2034 4250 
Q 1547 4250 1301 3770 
Q 1056 3291 1056 2328 
Q 1056 1369 1301 889 
Q 1547 409 2034 409 
Q 2525 409 2770 889 
Q 3016 1369 3016 2328 
Q 3016 3291 2770 3770 
Q 2525 4250 2034 4250 
z
M 2034 4750 
Q 2819 4750 3233 4129 
Q 3647 3509 3647 2328 
Q 3647 1150 3233 529 
Q 2819 -91 2034 -91 
Q 1250 -91 836 529 
Q 422 1150 422 2328 
Q 422 3509 836 4129 
Q 1250 4750 2034 4750 
z
" transform="scale(0.015625)"/>
       </defs>
       <use xlink:href="#DejaVuSans-30"/>
      </g>
     </g>
    </g>
    <g id="xtick_2">
     <g id="line2d_33">
      <path d="M 408.589249 293.76 
L 408.589249 3.456 
" clip-path="url(#p5197220353)" style="fill: none; stroke: #b0b0b0; stroke-width: 0.8; stroke-linecap: square"/>
     </g>
     <g id="line2d_34">
      <g>
       <use xlink:href="#m633637fd63" x="408.589249" y="293.76" style="stroke: #000000; stroke-width: 0.8"/>
      </g>
     </g>
     <g id="text_2">
      <!-- 2 -->
      <g transform="translate(402.226749 315.956875) scale(0.2 -0.2)">
       <defs>
        <path id="DejaVuSans-32" d="M 1228 531 
L 3431 531 
L 3431 0 
L 469 0 
L 469 531 
Q 828 903 1448 1529 
Q 2069 2156 2228 2338 
Q 2531 2678 2651 2914 
Q 2772 3150 2772 3378 
Q 2772 3750 2511 3984 
Q 2250 4219 1831 4219 
Q 1534 4219 1204 4116 
Q 875 4013 500 3803 
L 500 4441 
Q 881 4594 1212 4672 
Q 1544 4750 1819 4750 
Q 2544 4750 2975 4387 
Q 3406 4025 3406 3419 
Q 3406 3131 3298 2873 
Q 3191 2616 2906 2266 
Q 2828 2175 2409 1742 
Q 1991 1309 1228 531 
z
" transform="scale(0.015625)"/>
       </defs>
       <use xlink:href="#DejaVuSans-32"/>
      </g>
     </g>
    </g>
    <g id="xtick_3">
     <g id="line2d_35">
      <path d="M 114.343573 293.76 
L 114.343573 3.456 
" clip-path="url(#p5197220353)" style="fill: none; stroke: #b0b0b0; stroke-width: 0.8; stroke-linecap: square"/>
     </g>
     <g id="line2d_36">
      <defs>
       <path id="md4d18ec3fa" d="M 0 0 
L 0 2 
" style="stroke: #000000; stroke-width: 0.6"/>
      </defs>
      <g>
       <use xlink:href="#md4d18ec3fa" x="114.343573" y="293.76" style="stroke: #000000; stroke-width: 0.6"/>
      </g>
     </g>
    </g>
    <g id="xtick_4">
     <g id="line2d_37">
      <path d="M 144.840928 293.76 
L 144.840928 3.456 
" clip-path="url(#p5197220353)" style="fill: none; stroke: #b0b0b0; stroke-width: 0.8; stroke-linecap: square"/>
     </g>
     <g id="line2d_38">
      <g>
       <use xlink:href="#md4d18ec3fa" x="144.840928" y="293.76" style="stroke: #000000; stroke-width: 0.6"/>
      </g>
     </g>
    </g>
    <g id="xtick_5">
     <g id="line2d_39">
      <path d="M 166.479146 293.76 
L 166.479146 3.456 
" clip-path="url(#p5197220353)" style="fill: none; stroke: #b0b0b0; stroke-width: 0.8; stroke-linecap: square"/>
     </g>
     <g id="line2d_40">
      <g>
       <use xlink:href="#md4d18ec3fa" x="166.479146" y="293.76" style="stroke: #000000; stroke-width: 0.6"/>
      </g>
     </g>
    </g>
    <g id="xtick_6">
     <g id="line2d_41">
      <path d="M 183.263052 293.76 
L 183.263052 3.456 
" clip-path="url(#p5197220353)" style="fill: none; stroke: #b0b0b0; stroke-width: 0.8; stroke-linecap: square"/>
     </g>
     <g id="line2d_42">
      <g>
       <use xlink:href="#md4d18ec3fa" x="183.263052" y="293.76" style="stroke: #000000; stroke-width: 0.6"/>
      </g>
     </g>
    </g>
    <g id="xtick_7">
     <g id="line2d_43">
      <path d="M 196.976501 293.76 
L 196.976501 3.456 
" clip-path="url(#p5197220353)" style="fill: none; stroke: #b0b0b0; stroke-width: 0.8; stroke-linecap: square"/>
     </g>
     <g id="line2d_44">
      <g>
       <use xlink:href="#md4d18ec3fa" x="196.976501" y="293.76" style="stroke: #000000; stroke-width: 0.6"/>
      </g>
     </g>
    </g>
    <g id="xtick_8">
     <g id="line2d_45">
      <path d="M 208.571057 293.76 
L 208.571057 3.456 
" clip-path="url(#p5197220353)" style="fill: none; stroke: #b0b0b0; stroke-width: 0.8; stroke-linecap: square"/>
     </g>
     <g id="line2d_46">
      <g>
       <use xlink:href="#md4d18ec3fa" x="208.571057" y="293.76" style="stroke: #000000; stroke-width: 0.6"/>
      </g>
     </g>
    </g>
    <g id="xtick_9">
     <g id="line2d_47">
      <path d="M 218.614719 293.76 
L 218.614719 3.456 
" clip-path="url(#p5197220353)" style="fill: none; stroke: #b0b0b0; stroke-width: 0.8; stroke-linecap: square"/>
     </g>
     <g id="line2d_48">
      <g>
       <use xlink:href="#md4d18ec3fa" x="218.614719" y="293.76" style="stroke: #000000; stroke-width: 0.6"/>
      </g>
     </g>
    </g>
    <g id="xtick_10">
     <g id="line2d_49">
      <path d="M 227.473856 293.76 
L 227.473856 3.456 
" clip-path="url(#p5197220353)" style="fill: none; stroke: #b0b0b0; stroke-width: 0.8; stroke-linecap: square"/>
     </g>
     <g id="line2d_50">
      <g>
       <use xlink:href="#md4d18ec3fa" x="227.473856" y="293.76" style="stroke: #000000; stroke-width: 0.6"/>
      </g>
     </g>
    </g>
    <g id="xtick_11">
     <g id="line2d_51">
      <path d="M 287.534197 293.76 
L 287.534197 3.456 
" clip-path="url(#p5197220353)" style="fill: none; stroke: #b0b0b0; stroke-width: 0.8; stroke-linecap: square"/>
     </g>
     <g id="line2d_52">
      <g>
       <use xlink:href="#md4d18ec3fa" x="287.534197" y="293.76" style="stroke: #000000; stroke-width: 0.6"/>
      </g>
     </g>
    </g>
    <g id="xtick_12">
     <g id="line2d_53">
      <path d="M 318.031553 293.76 
L 318.031553 3.456 
" clip-path="url(#p5197220353)" style="fill: none; stroke: #b0b0b0; stroke-width: 0.8; stroke-linecap: square"/>
     </g>
     <g id="line2d_54">
      <g>
       <use xlink:href="#md4d18ec3fa" x="318.031553" y="293.76" style="stroke: #000000; stroke-width: 0.6"/>
      </g>
     </g>
    </g>
    <g id="xtick_13">
     <g id="line2d_55">
      <path d="M 339.66977 293.76 
L 339.66977 3.456 
" clip-path="url(#p5197220353)" style="fill: none; stroke: #b0b0b0; stroke-width: 0.8; stroke-linecap: square"/>
     </g>
     <g id="line2d_56">
      <g>
       <use xlink:href="#md4d18ec3fa" x="339.66977" y="293.76" style="stroke: #000000; stroke-width: 0.6"/>
      </g>
     </g>
    </g>
    <g id="xtick_14">
     <g id="line2d_57">
      <path d="M 356.453676 293.76 
L 356.453676 3.456 
" clip-path="url(#p5197220353)" style="fill: none; stroke: #b0b0b0; stroke-width: 0.8; stroke-linecap: square"/>
     </g>
     <g id="line2d_58">
      <g>
       <use xlink:href="#md4d18ec3fa" x="356.453676" y="293.76" style="stroke: #000000; stroke-width: 0.6"/>
      </g>
     </g>
    </g>
    <g id="xtick_15">
     <g id="line2d_59">
      <path d="M 370.167125 293.76 
L 370.167125 3.456 
" clip-path="url(#p5197220353)" style="fill: none; stroke: #b0b0b0; stroke-width: 0.8; stroke-linecap: square"/>
     </g>
     <g id="line2d_60">
      <g>
       <use xlink:href="#md4d18ec3fa" x="370.167125" y="293.76" style="stroke: #000000; stroke-width: 0.6"/>
      </g>
     </g>
    </g>
    <g id="xtick_16">
     <g id="line2d_61">
      <path d="M 381.761682 293.76 
L 381.761682 3.456 
" clip-path="url(#p5197220353)" style="fill: none; stroke: #b0b0b0; stroke-width: 0.8; stroke-linecap: square"/>
     </g>
     <g id="line2d_62">
      <g>
       <use xlink:href="#md4d18ec3fa" x="381.761682" y="293.76" style="stroke: #000000; stroke-width: 0.6"/>
      </g>
     </g>
    </g>
    <g id="xtick_17">
     <g id="line2d_63">
      <path d="M 391.805343 293.76 
L 391.805343 3.456 
" clip-path="url(#p5197220353)" style="fill: none; stroke: #b0b0b0; stroke-width: 0.8; stroke-linecap: square"/>
     </g>
     <g id="line2d_64">
      <g>
       <use xlink:href="#md4d18ec3fa" x="391.805343" y="293.76" style="stroke: #000000; stroke-width: 0.6"/>
      </g>
     </g>
    </g>
    <g id="xtick_18">
     <g id="line2d_65">
      <path d="M 400.664481 293.76 
L 400.664481 3.456 
" clip-path="url(#p5197220353)" style="fill: none; stroke: #b0b0b0; stroke-width: 0.8; stroke-linecap: square"/>
     </g>
     <g id="line2d_66">
      <g>
       <use xlink:href="#md4d18ec3fa" x="400.664481" y="293.76" style="stroke: #000000; stroke-width: 0.6"/>
      </g>
     </g>
    </g>
    <g id="xtick_19">
     <g id="line2d_67">
      <path d="M 460.724822 293.76 
L 460.724822 3.456 
" clip-path="url(#p5197220353)" style="fill: none; stroke: #b0b0b0; stroke-width: 0.8; stroke-linecap: square"/>
     </g>
     <g id="line2d_68">
      <g>
       <use xlink:href="#md4d18ec3fa" x="460.724822" y="293.76" style="stroke: #000000; stroke-width: 0.6"/>
      </g>
     </g>
    </g>
    <g id="text_3">
     <!-- log10 of FEvals / DIM -->
     <g transform="translate(156.430563 339.313125) scale(0.2 -0.2)">
      <defs>
       <path id="DejaVuSans-6c" d="M 603 4863 
L 1178 4863 
L 1178 0 
L 603 0 
L 603 4863 
z
" transform="scale(0.015625)"/>
       <path id="DejaVuSans-6f" d="M 1959 3097 
Q 1497 3097 1228 2736 
Q 959 2375 959 1747 
Q 959 1119 1226 758 
Q 1494 397 1959 397 
Q 2419 397 2687 759 
Q 2956 1122 2956 1747 
Q 2956 2369 2687 2733 
Q 2419 3097 1959 3097 
z
M 1959 3584 
Q 2709 3584 3137 3096 
Q 3566 2609 3566 1747 
Q 3566 888 3137 398 
Q 2709 -91 1959 -91 
Q 1206 -91 779 398 
Q 353 888 353 1747 
Q 353 2609 779 3096 
Q 1206 3584 1959 3584 
z
" transform="scale(0.015625)"/>
       <path id="DejaVuSans-67" d="M 2906 1791 
Q 2906 2416 2648 2759 
Q 2391 3103 1925 3103 
Q 1463 3103 1205 2759 
Q 947 2416 947 1791 
Q 947 1169 1205 825 
Q 1463 481 1925 481 
Q 2391 481 2648 825 
Q 2906 1169 2906 1791 
z
M 3481 434 
Q 3481 -459 3084 -895 
Q 2688 -1331 1869 -1331 
Q 1566 -1331 1297 -1286 
Q 1028 -1241 775 -1147 
L 775 -588 
Q 1028 -725 1275 -790 
Q 1522 -856 1778 -856 
Q 2344 -856 2625 -561 
Q 2906 -266 2906 331 
L 2906 616 
Q 2728 306 2450 153 
Q 2172 0 1784 0 
Q 1141 0 747 490 
Q 353 981 353 1791 
Q 353 2603 747 3093 
Q 1141 3584 1784 3584 
Q 2172 3584 2450 3431 
Q 2728 3278 2906 2969 
L 2906 3500 
L 3481 3500 
L 3481 434 
z
" transform="scale(0.015625)"/>
       <path id="DejaVuSans-31" d="M 794 531 
L 1825 531 
L 1825 4091 
L 703 3866 
L 703 4441 
L 1819 4666 
L 2450 4666 
L 2450 531 
L 3481 531 
L 3481 0 
L 794 0 
L 794 531 
z
" transform="scale(0.015625)"/>
       <path id="DejaVuSans-20" transform="scale(0.015625)"/>
       <path id="DejaVuSans-66" d="M 2375 4863 
L 2375 4384 
L 1825 4384 
Q 1516 4384 1395 4259 
Q 1275 4134 1275 3809 
L 1275 3500 
L 2222 3500 
L 2222 3053 
L 1275 3053 
L 1275 0 
L 697 0 
L 697 3053 
L 147 3053 
L 147 3500 
L 697 3500 
L 697 3744 
Q 697 4328 969 4595 
Q 1241 4863 1831 4863 
L 2375 4863 
z
" transform="scale(0.015625)"/>
       <path id="DejaVuSans-46" d="M 628 4666 
L 3309 4666 
L 3309 4134 
L 1259 4134 
L 1259 2759 
L 3109 2759 
L 3109 2228 
L 1259 2228 
L 1259 0 
L 628 0 
L 628 4666 
z
" transform="scale(0.015625)"/>
       <path id="DejaVuSans-45" d="M 628 4666 
L 3578 4666 
L 3578 4134 
L 1259 4134 
L 1259 2753 
L 3481 2753 
L 3481 2222 
L 1259 2222 
L 1259 531 
L 3634 531 
L 3634 0 
L 628 0 
L 628 4666 
z
" transform="scale(0.015625)"/>
       <path id="DejaVuSans-76" d="M 191 3500 
L 800 3500 
L 1894 563 
L 2988 3500 
L 3597 3500 
L 2284 0 
L 1503 0 
L 191 3500 
z
" transform="scale(0.015625)"/>
       <path id="DejaVuSans-61" d="M 2194 1759 
Q 1497 1759 1228 1600 
Q 959 1441 959 1056 
Q 959 750 1161 570 
Q 1363 391 1709 391 
Q 2188 391 2477 730 
Q 2766 1069 2766 1631 
L 2766 1759 
L 2194 1759 
z
M 3341 1997 
L 3341 0 
L 2766 0 
L 2766 531 
Q 2569 213 2275 61 
Q 1981 -91 1556 -91 
Q 1019 -91 701 211 
Q 384 513 384 1019 
Q 384 1609 779 1909 
Q 1175 2209 1959 2209 
L 2766 2209 
L 2766 2266 
Q 2766 2663 2505 2880 
Q 2244 3097 1772 3097 
Q 1472 3097 1187 3025 
Q 903 2953 641 2809 
L 641 3341 
Q 956 3463 1253 3523 
Q 1550 3584 1831 3584 
Q 2591 3584 2966 3190 
Q 3341 2797 3341 1997 
z
" transform="scale(0.015625)"/>
       <path id="DejaVuSans-73" d="M 2834 3397 
L 2834 2853 
Q 2591 2978 2328 3040 
Q 2066 3103 1784 3103 
Q 1356 3103 1142 2972 
Q 928 2841 928 2578 
Q 928 2378 1081 2264 
Q 1234 2150 1697 2047 
L 1894 2003 
Q 2506 1872 2764 1633 
Q 3022 1394 3022 966 
Q 3022 478 2636 193 
Q 2250 -91 1575 -91 
Q 1294 -91 989 -36 
Q 684 19 347 128 
L 347 722 
Q 666 556 975 473 
Q 1284 391 1588 391 
Q 1994 391 2212 530 
Q 2431 669 2431 922 
Q 2431 1156 2273 1281 
Q 2116 1406 1581 1522 
L 1381 1569 
Q 847 1681 609 1914 
Q 372 2147 372 2553 
Q 372 3047 722 3315 
Q 1072 3584 1716 3584 
Q 2034 3584 2315 3537 
Q 2597 3491 2834 3397 
z
" transform="scale(0.015625)"/>
       <path id="DejaVuSans-2f" d="M 1625 4666 
L 2156 4666 
L 531 -594 
L 0 -594 
L 1625 4666 
z
" transform="scale(0.015625)"/>
       <path id="DejaVuSans-44" d="M 1259 4147 
L 1259 519 
L 2022 519 
Q 2988 519 3436 956 
Q 3884 1394 3884 2338 
Q 3884 3275 3436 3711 
Q 2988 4147 2022 4147 
L 1259 4147 
z
M 628 4666 
L 1925 4666 
Q 3281 4666 3915 4102 
Q 4550 3538 4550 2338 
Q 4550 1131 3912 565 
Q 3275 0 1925 0 
L 628 0 
L 628 4666 
z
" transform="scale(0.015625)"/>
       <path id="DejaVuSans-49" d="M 628 4666 
L 1259 4666 
L 1259 0 
L 628 0 
L 628 4666 
z
" transform="scale(0.015625)"/>
       <path id="DejaVuSans-4d" d="M 628 4666 
L 1569 4666 
L 2759 1491 
L 3956 4666 
L 4897 4666 
L 4897 0 
L 4281 0 
L 4281 4097 
L 3078 897 
L 2444 897 
L 1241 4097 
L 1241 0 
L 628 0 
L 628 4666 
z
" transform="scale(0.015625)"/>
      </defs>
      <use xlink:href="#DejaVuSans-6c"/>
      <use xlink:href="#DejaVuSans-6f" x="27.783203"/>
      <use xlink:href="#DejaVuSans-67" x="88.964844"/>
      <use xlink:href="#DejaVuSans-31" x="152.441406"/>
      <use xlink:href="#DejaVuSans-30" x="216.064453"/>
      <use xlink:href="#DejaVuSans-20" x="279.6875"/>
      <use xlink:href="#DejaVuSans-6f" x="311.474609"/>
      <use xlink:href="#DejaVuSans-66" x="372.65625"/>
      <use xlink:href="#DejaVuSans-20" x="407.861328"/>
      <use xlink:href="#DejaVuSans-46" x="439.648438"/>
      <use xlink:href="#DejaVuSans-45" x="497.167969"/>
      <use xlink:href="#DejaVuSans-76" x="560.351562"/>
      <use xlink:href="#DejaVuSans-61" x="619.53125"/>
      <use xlink:href="#DejaVuSans-6c" x="680.810547"/>
      <use xlink:href="#DejaVuSans-73" x="708.59375"/>
      <use xlink:href="#DejaVuSans-20" x="760.693359"/>
      <use xlink:href="#DejaVuSans-2f" x="792.480469"/>
      <use xlink:href="#DejaVuSans-20" x="826.171875"/>
      <use xlink:href="#DejaVuSans-44" x="857.958984"/>
      <use xlink:href="#DejaVuSans-49" x="934.960938"/>
      <use xlink:href="#DejaVuSans-4d" x="964.453125"/>
     </g>
    </g>
   </g>
   <g id="matplotlib.axis_2">
    <g id="ytick_1">
     <g id="line2d_69">
      <path d="M 62.208 293.76 
L 460.8 293.76 
" clip-path="url(#p5197220353)" style="fill: none; stroke: #b0b0b0; stroke-width: 0.8; stroke-linecap: square"/>
     </g>
     <g id="line2d_70">
      <defs>
       <path id="ma4988b7805" d="M 0 0 
L -3.5 0 
" style="stroke: #000000; stroke-width: 0.8"/>
      </defs>
      <g>
       <use xlink:href="#ma4988b7805" x="62.208" y="293.76" style="stroke: #000000; stroke-width: 0.8"/>
      </g>
     </g>
     <g id="text_4">
      <!-- 0.0 -->
      <g transform="translate(29.763 299.83875) scale(0.16 -0.16)">
       <defs>
        <path id="DejaVuSans-2e" d="M 684 794 
L 1344 794 
L 1344 0 
L 684 0 
L 684 794 
z
" transform="scale(0.015625)"/>
       </defs>
       <use xlink:href="#DejaVuSans-30"/>
       <use xlink:href="#DejaVuSans-2e" x="63.623047"/>
       <use xlink:href="#DejaVuSans-30" x="95.410156"/>
      </g>
     </g>
    </g>
    <g id="ytick_2">
     <g id="line2d_71">
      <path d="M 62.208 236.274059 
L 460.8 236.274059 
" clip-path="url(#p5197220353)" style="fill: none; stroke: #b0b0b0; stroke-width: 0.8; stroke-linecap: square"/>
     </g>
     <g id="line2d_72">
      <g>
       <use xlink:href="#ma4988b7805" x="62.208" y="236.274059" style="stroke: #000000; stroke-width: 0.8"/>
      </g>
     </g>
     <g id="text_5">
      <!-- 0.2 -->
      <g transform="translate(29.763 242.352809) scale(0.16 -0.16)">
       <use xlink:href="#DejaVuSans-30"/>
       <use xlink:href="#DejaVuSans-2e" x="63.623047"/>
       <use xlink:href="#DejaVuSans-32" x="95.410156"/>
      </g>
     </g>
    </g>
    <g id="ytick_3">
     <g id="line2d_73">
      <path d="M 62.208 178.788119 
L 460.8 178.788119 
" clip-path="url(#p5197220353)" style="fill: none; stroke: #b0b0b0; stroke-width: 0.8; stroke-linecap: square"/>
     </g>
     <g id="line2d_74">
      <g>
       <use xlink:href="#ma4988b7805" x="62.208" y="178.788119" style="stroke: #000000; stroke-width: 0.8"/>
      </g>
     </g>
     <g id="text_6">
      <!-- 0.4 -->
      <g transform="translate(29.763 184.866869) scale(0.16 -0.16)">
       <defs>
        <path id="DejaVuSans-34" d="M 2419 4116 
L 825 1625 
L 2419 1625 
L 2419 4116 
z
M 2253 4666 
L 3047 4666 
L 3047 1625 
L 3713 1625 
L 3713 1100 
L 3047 1100 
L 3047 0 
L 2419 0 
L 2419 1100 
L 313 1100 
L 313 1709 
L 2253 4666 
z
" transform="scale(0.015625)"/>
       </defs>
       <use xlink:href="#DejaVuSans-30"/>
       <use xlink:href="#DejaVuSans-2e" x="63.623047"/>
       <use xlink:href="#DejaVuSans-34" x="95.410156"/>
      </g>
     </g>
    </g>
    <g id="ytick_4">
     <g id="line2d_75">
      <path d="M 62.208 121.302178 
L 460.8 121.302178 
" clip-path="url(#p5197220353)" style="fill: none; stroke: #b0b0b0; stroke-width: 0.8; stroke-linecap: square"/>
     </g>
     <g id="line2d_76">
      <g>
       <use xlink:href="#ma4988b7805" x="62.208" y="121.302178" style="stroke: #000000; stroke-width: 0.8"/>
      </g>
     </g>
     <g id="text_7">
      <!-- 0.6 -->
      <g transform="translate(29.763 127.380928) scale(0.16 -0.16)">
       <defs>
        <path id="DejaVuSans-36" d="M 2113 2584 
Q 1688 2584 1439 2293 
Q 1191 2003 1191 1497 
Q 1191 994 1439 701 
Q 1688 409 2113 409 
Q 2538 409 2786 701 
Q 3034 994 3034 1497 
Q 3034 2003 2786 2293 
Q 2538 2584 2113 2584 
z
M 3366 4563 
L 3366 3988 
Q 3128 4100 2886 4159 
Q 2644 4219 2406 4219 
Q 1781 4219 1451 3797 
Q 1122 3375 1075 2522 
Q 1259 2794 1537 2939 
Q 1816 3084 2150 3084 
Q 2853 3084 3261 2657 
Q 3669 2231 3669 1497 
Q 3669 778 3244 343 
Q 2819 -91 2113 -91 
Q 1303 -91 875 529 
Q 447 1150 447 2328 
Q 447 3434 972 4092 
Q 1497 4750 2381 4750 
Q 2619 4750 2861 4703 
Q 3103 4656 3366 4563 
z
" transform="scale(0.015625)"/>
       </defs>
       <use xlink:href="#DejaVuSans-30"/>
       <use xlink:href="#DejaVuSans-2e" x="63.623047"/>
       <use xlink:href="#DejaVuSans-36" x="95.410156"/>
      </g>
     </g>
    </g>
    <g id="ytick_5">
     <g id="line2d_77">
      <path d="M 62.208 63.816238 
L 460.8 63.816238 
" clip-path="url(#p5197220353)" style="fill: none; stroke: #b0b0b0; stroke-width: 0.8; stroke-linecap: square"/>
     </g>
     <g id="line2d_78">
      <g>
       <use xlink:href="#ma4988b7805" x="62.208" y="63.816238" style="stroke: #000000; stroke-width: 0.8"/>
      </g>
     </g>
     <g id="text_8">
      <!-- 0.8 -->
      <g transform="translate(29.763 69.894988) scale(0.16 -0.16)">
       <defs>
        <path id="DejaVuSans-38" d="M 2034 2216 
Q 1584 2216 1326 1975 
Q 1069 1734 1069 1313 
Q 1069 891 1326 650 
Q 1584 409 2034 409 
Q 2484 409 2743 651 
Q 3003 894 3003 1313 
Q 3003 1734 2745 1975 
Q 2488 2216 2034 2216 
z
M 1403 2484 
Q 997 2584 770 2862 
Q 544 3141 544 3541 
Q 544 4100 942 4425 
Q 1341 4750 2034 4750 
Q 2731 4750 3128 4425 
Q 3525 4100 3525 3541 
Q 3525 3141 3298 2862 
Q 3072 2584 2669 2484 
Q 3125 2378 3379 2068 
Q 3634 1759 3634 1313 
Q 3634 634 3220 271 
Q 2806 -91 2034 -91 
Q 1263 -91 848 271 
Q 434 634 434 1313 
Q 434 1759 690 2068 
Q 947 2378 1403 2484 
z
M 1172 3481 
Q 1172 3119 1398 2916 
Q 1625 2713 2034 2713 
Q 2441 2713 2670 2916 
Q 2900 3119 2900 3481 
Q 2900 3844 2670 4047 
Q 2441 4250 2034 4250 
Q 1625 4250 1398 4047 
Q 1172 3844 1172 3481 
z
" transform="scale(0.015625)"/>
       </defs>
       <use xlink:href="#DejaVuSans-30"/>
       <use xlink:href="#DejaVuSans-2e" x="63.623047"/>
       <use xlink:href="#DejaVuSans-38" x="95.410156"/>
      </g>
     </g>
    </g>
    <g id="ytick_6">
     <g id="line2d_79">
      <path d="M 62.208 6.330297 
L 460.8 6.330297 
" clip-path="url(#p5197220353)" style="fill: none; stroke: #b0b0b0; stroke-width: 0.8; stroke-linecap: square"/>
     </g>
     <g id="line2d_80">
      <g>
       <use xlink:href="#ma4988b7805" x="62.208" y="6.330297" style="stroke: #000000; stroke-width: 0.8"/>
      </g>
     </g>
     <g id="text_9">
      <!-- 1.0 -->
      <g transform="translate(29.763 12.409047) scale(0.16 -0.16)">
       <use xlink:href="#DejaVuSans-31"/>
       <use xlink:href="#DejaVuSans-2e" x="63.623047"/>
       <use xlink:href="#DejaVuSans-30" x="95.410156"/>
      </g>
     </g>
    </g>
    <g id="text_10">
     <!-- proportion of trials -->
     <g transform="translate(21.603625 241.61425) rotate(-90) scale(0.2 -0.2)">
      <defs>
       <path id="DejaVuSans-70" d="M 1159 525 
L 1159 -1331 
L 581 -1331 
L 581 3500 
L 1159 3500 
L 1159 2969 
Q 1341 3281 1617 3432 
Q 1894 3584 2278 3584 
Q 2916 3584 3314 3078 
Q 3713 2572 3713 1747 
Q 3713 922 3314 415 
Q 2916 -91 2278 -91 
Q 1894 -91 1617 61 
Q 1341 213 1159 525 
z
M 3116 1747 
Q 3116 2381 2855 2742 
Q 2594 3103 2138 3103 
Q 1681 3103 1420 2742 
Q 1159 2381 1159 1747 
Q 1159 1113 1420 752 
Q 1681 391 2138 391 
Q 2594 391 2855 752 
Q 3116 1113 3116 1747 
z
" transform="scale(0.015625)"/>
       <path id="DejaVuSans-72" d="M 2631 2963 
Q 2534 3019 2420 3045 
Q 2306 3072 2169 3072 
Q 1681 3072 1420 2755 
Q 1159 2438 1159 1844 
L 1159 0 
L 581 0 
L 581 3500 
L 1159 3500 
L 1159 2956 
Q 1341 3275 1631 3429 
Q 1922 3584 2338 3584 
Q 2397 3584 2469 3576 
Q 2541 3569 2628 3553 
L 2631 2963 
z
" transform="scale(0.015625)"/>
       <path id="DejaVuSans-74" d="M 1172 4494 
L 1172 3500 
L 2356 3500 
L 2356 3053 
L 1172 3053 
L 1172 1153 
Q 1172 725 1289 603 
Q 1406 481 1766 481 
L 2356 481 
L 2356 0 
L 1766 0 
Q 1100 0 847 248 
Q 594 497 594 1153 
L 594 3053 
L 172 3053 
L 172 3500 
L 594 3500 
L 594 4494 
L 1172 4494 
z
" transform="scale(0.015625)"/>
       <path id="DejaVuSans-69" d="M 603 3500 
L 1178 3500 
L 1178 0 
L 603 0 
L 603 3500 
z
M 603 4863 
L 1178 4863 
L 1178 4134 
L 603 4134 
L 603 4863 
z
" transform="scale(0.015625)"/>
       <path id="DejaVuSans-6e" d="M 3513 2113 
L 3513 0 
L 2938 0 
L 2938 2094 
Q 2938 2591 2744 2837 
Q 2550 3084 2163 3084 
Q 1697 3084 1428 2787 
Q 1159 2491 1159 1978 
L 1159 0 
L 581 0 
L 581 3500 
L 1159 3500 
L 1159 2956 
Q 1366 3272 1645 3428 
Q 1925 3584 2291 3584 
Q 2894 3584 3203 3211 
Q 3513 2838 3513 2113 
z
" transform="scale(0.015625)"/>
      </defs>
      <use xlink:href="#DejaVuSans-70"/>
      <use xlink:href="#DejaVuSans-72" x="63.476562"/>
      <use xlink:href="#DejaVuSans-6f" x="102.339844"/>
      <use xlink:href="#DejaVuSans-70" x="163.521484"/>
      <use xlink:href="#DejaVuSans-6f" x="226.998047"/>
      <use xlink:href="#DejaVuSans-72" x="288.179688"/>
      <use xlink:href="#DejaVuSans-74" x="329.292969"/>
      <use xlink:href="#DejaVuSans-69" x="368.501953"/>
      <use xlink:href="#DejaVuSans-6f" x="396.285156"/>
      <use xlink:href="#DejaVuSans-6e" x="457.466797"/>
      <use xlink:href="#DejaVuSans-20" x="520.845703"/>
      <use xlink:href="#DejaVuSans-6f" x="552.632812"/>
      <use xlink:href="#DejaVuSans-66" x="613.814453"/>
      <use xlink:href="#DejaVuSans-20" x="649.019531"/>
      <use xlink:href="#DejaVuSans-74" x="680.806641"/>
      <use xlink:href="#DejaVuSans-72" x="720.015625"/>
      <use xlink:href="#DejaVuSans-69" x="761.128906"/>
      <use xlink:href="#DejaVuSans-61" x="788.912109"/>
      <use xlink:href="#DejaVuSans-6c" x="850.191406"/>
      <use xlink:href="#DejaVuSans-73" x="877.974609"/>
     </g>
    </g>
   </g>
   <g id="line2d_81">
    <path d="M -1 273.001188 
L 23.785877 273.001188 
L 23.785877 272.202772 
L 45.424094 272.202772 
L 45.424094 269.807525 
L 62.208 269.807525 
L 62.208 266.613861 
L 75.921449 266.613861 
L 75.921449 265.815446 
L 87.516006 265.815446 
L 87.516006 265.01703 
L 97.559667 265.01703 
L 97.559667 264.218614 
L 106.418805 264.218614 
L 106.418805 261.823366 
L 114.343573 261.823366 
L 114.343573 253.040792 
L 121.512398 253.040792 
L 121.512398 250.645545 
L 128.057022 250.645545 
L 128.057022 243.459802 
L 134.077493 243.459802 
L 134.077493 241.064554 
L 139.651579 241.064554 
L 139.651579 239.467723 
L 144.840928 239.467723 
L 144.840928 237.870891 
L 149.69524 237.870891 
L 149.69524 235.475644 
L 154.255166 235.475644 
L 154.255166 233.080396 
L 162.621083 233.080396 
L 162.621083 230.685149 
L 166.479146 230.685149 
L 166.479146 229.886733 
L 173.647971 229.886733 
L 173.647971 228.289901 
L 176.991443 228.289901 
L 176.991443 227.491485 
L 186.213066 227.491485 
L 186.213066 225.894653 
L 189.051733 225.894653 
L 189.051733 224.297822 
L 194.426571 224.297822 
L 194.426571 223.499406 
L 199.442812 223.499406 
L 199.442812 222.70099 
L 201.830813 222.70099 
L 201.830813 221.104158 
L 210.68995 221.104158 
L 210.68995 220.305743 
L 214.756656 220.305743 
L 214.756656 219.507327 
L 220.471992 219.507327 
L 220.471992 218.708911 
L 222.284507 218.708911 
L 222.284507 217.910495 
L 224.05437 217.910495 
L 224.05437 217.112079 
L 225.783544 217.112079 
L 225.783544 216.313663 
L 229.127016 216.313663 
L 229.127016 214.716832 
L 230.744621 214.716832 
L 230.744621 213.918416 
L 232.328168 213.918416 
L 232.328168 213.12 
L 233.879063 213.12 
L 233.879063 212.321584 
L 238.348639 212.321584 
L 238.348639 211.523168 
L 239.781363 211.523168 
L 239.781363 210.724752 
L 246.562144 210.724752 
L 246.562144 209.127921 
L 247.847914 209.127921 
L 247.847914 208.329505 
L 250.355337 208.329505 
L 250.355337 207.531089 
L 251.578384 207.531089 
L 251.578384 206.732673 
L 252.781862 206.732673 
L 252.781862 205.934257 
L 253.966386 205.934257 
L 253.966386 204.337426 
L 256.280899 204.337426 
L 256.280899 202.740594 
L 258.526311 202.740594 
L 258.526311 201.942178 
L 259.624371 201.942178 
L 259.624371 200.345347 
L 260.70663 200.345347 
L 260.70663 199.546931 
L 262.825523 199.546931 
L 262.825523 197.950099 
L 263.862998 197.950099 
L 263.862998 196.353267 
L 264.886357 196.353267 
L 264.886357 195.554851 
L 265.89598 195.554851 
L 265.89598 194.756436 
L 268.845994 194.756436 
L 268.845994 193.159604 
L 275.310217 193.159604 
L 275.310217 192.361188 
L 276.189943 192.361188 
L 276.189943 191.562772 
L 288.282619 191.562772 
L 288.282619 190.764356 
L 292.623192 190.764356 
L 292.623192 189.965941 
L 294.703022 189.965941 
L 294.703022 189.167525 
L 298.046494 189.167525 
L 298.046494 188.369109 
L 314.961096 188.369109 
L 314.961096 187.570693 
L 315.998571 187.570693 
L 315.998571 186.772277 
L 320.011028 186.772277 
L 320.011028 185.973861 
L 330.05469 185.973861 
L 330.05469 185.175446 
L 345.805869 185.175446 
L 345.805869 184.37703 
L 356.453676 184.37703 
L 356.453676 183.578614 
L 358.822871 183.578614 
L 358.822871 182.780198 
L 361.119713 182.780198 
L 361.119713 181.981782 
L 366.572516 181.981782 
L 366.572516 181.183366 
L 366.835049 181.183366 
L 366.835049 180.38495 
L 381.976277 180.38495 
L 381.976277 179.586535 
L 386.750188 179.586535 
L 386.750188 178.788119 
L 387.947281 178.788119 
L 387.947281 177.989703 
L 394.02863 177.989703 
L 394.02863 177.191287 
L 397.941442 177.191287 
L 397.941442 176.392871 
L 408.889512 176.392871 
L 408.889512 175.594455 
L 412.829937 175.594455 
L 412.829937 174.79604 
L 419.622974 174.79604 
L 419.622974 173.997624 
L 419.752768 173.997624 
L 419.752768 173.199208 
L 425.132078 173.199208 
L 425.132078 172.400792 
L 425.613461 172.400792 
L 425.613461 171.602376 
L 427.74235 171.602376 
L 427.74235 170.80396 
L 430.377748 170.80396 
L 430.377748 170.005545 
L 430.490262 170.005545 
L 430.490262 169.207129 
L 433.682045 169.207129 
L 433.682045 168.408713 
L 441.261192 168.408713 
L 441.261192 167.610297 
L 449.467977 167.610297 
L 449.467977 166.811881 
L 451.365722 166.811881 
L 451.365722 166.013465 
L 452.632721 166.013465 
L 452.632721 165.21505 
L 452.632721 165.21505 
L 460.8 165.21505 
L 460.8 165.21505 
" clip-path="url(#p5197220353)" style="fill: none; stroke: #000000; stroke-width: 1.5; stroke-linecap: square"/>
   </g>
   <g id="line2d_82">
    <path clip-path="url(#p5197220353)" style="fill: none; stroke: #000000; stroke-width: 1.5; stroke-linecap: square"/>
   </g>
   <g id="line2d_83">
    <path d="M 128.057022 293.76 
L 128.057022 292.961584 
L 128.057022 292.961584 
L 128.057022 292.163168 
L 128.057022 292.163168 
L 128.057022 291.364752 
L 128.057022 291.364752 
L 128.057022 290.566337 
L 128.057022 290.566337 
L 128.057022 289.767921 
L 128.057022 289.767921 
L 128.057022 288.969505 
L 128.057022 288.969505 
L 128.057022 288.171089 
L 128.057022 288.171089 
L 128.057022 287.372673 
L 144.840928 287.372673 
L 144.840928 286.574257 
L 162.621083 286.574257 
L 162.621083 285.775842 
L 170.148934 285.775842 
L 170.148934 284.977426 
L 173.647971 284.977426 
L 173.647971 284.17901 
L 173.647971 284.17901 
L 173.647971 283.380594 
L 180.192595 283.380594 
L 180.192595 282.582178 
L 183.263052 282.582178 
L 183.263052 281.783762 
L 186.213066 281.783762 
L 186.213066 280.985347 
L 186.213066 280.985347 
L 186.213066 280.186931 
L 186.213066 280.186931 
L 186.213066 279.388515 
L 186.213066 279.388515 
L 186.213066 278.590099 
L 189.051733 278.590099 
L 189.051733 277.791683 
L 189.051733 277.791683 
L 189.051733 276.993267 
L 196.976501 276.993267 
L 196.976501 276.194851 
L 196.976501 276.194851 
L 196.976501 275.396436 
L 199.442812 275.396436 
L 199.442812 274.59802 
L 199.442812 274.59802 
L 199.442812 273.799604 
L 210.68995 273.799604 
L 210.68995 273.001188 
L 210.68995 273.001188 
L 210.68995 272.202772 
L 214.756656 272.202772 
L 214.756656 271.404356 
L 216.710421 271.404356 
L 216.710421 270.605941 
L 258.526311 270.605941 
L 258.526311 269.807525 
L 266.892229 269.807525 
L 266.892229 269.009109 
L 268.845994 269.009109 
L 268.845994 268.210693 
L 275.310217 268.210693 
L 275.310217 267.412277 
L 349.194538 267.412277 
L 349.194538 266.613861 
L 369.915988 266.613861 
L 369.915988 265.815446 
L 396.188082 265.815446 
L 396.188082 265.01703 
L 404.731186 265.01703 
L 404.731186 264.218614 
L 421.420022 264.218614 
L 421.420022 263.420198 
L 434.218919 263.420198 
L 434.218919 262.621782 
L 434.218919 262.621782 
L 434.218919 262.621782 
L 460.8 262.621782 
" clip-path="url(#p5197220353)" style="fill: none; stroke: #00bfbf; stroke-width: 1.5; stroke-linecap: square"/>
   </g>
   <g id="line2d_84">
    <path clip-path="url(#p5197220353)" style="fill: none; stroke: #00bfbf; stroke-width: 1.5; stroke-linecap: square"/>
   </g>
   <g id="line2d_85">
    <path d="M 128.057022 293.76 
L 128.057022 292.961584 
L 128.057022 292.961584 
L 128.057022 292.163168 
L 128.057022 292.163168 
L 128.057022 291.364752 
L 128.057022 291.364752 
L 128.057022 290.566337 
L 128.057022 290.566337 
L 128.057022 289.767921 
L 128.057022 289.767921 
L 128.057022 288.969505 
L 128.057022 288.969505 
L 128.057022 288.171089 
L 128.057022 288.171089 
L 128.057022 287.372673 
L 214.756656 287.372673 
L 214.756656 286.574257 
L 224.05437 286.574257 
L 224.05437 285.775842 
L 229.127016 285.775842 
L 229.127016 284.977426 
L 229.127016 284.977426 
L 229.127016 284.17901 
L 230.744621 284.17901 
L 230.744621 283.380594 
L 230.744621 283.380594 
L 230.744621 282.582178 
L 232.328168 282.582178 
L 232.328168 281.783762 
L 239.781363 281.783762 
L 239.781363 280.985347 
L 320.497863 280.985347 
L 320.497863 280.186931 
L 437.464639 280.186931 
L 437.464639 279.388515 
L 437.464639 279.388515 
L 437.464639 279.388515 
L 460.8 279.388515 
" clip-path="url(#p5197220353)" style="fill: none; stroke: #bf00bf; stroke-width: 1.5; stroke-linecap: square"/>
   </g>
   <g id="line2d_86">
    <path clip-path="url(#p5197220353)" style="fill: none; stroke: #bf00bf; stroke-width: 1.5; stroke-linecap: square"/>
   </g>
   <g id="line2d_87">
    <path d="M 128.057022 293.76 
L 128.057022 292.961584 
L 128.057022 292.961584 
L 128.057022 292.163168 
L 128.057022 292.163168 
L 128.057022 291.364752 
L 128.057022 291.364752 
L 128.057022 290.566337 
L 128.057022 290.566337 
L 128.057022 289.767921 
L 128.057022 289.767921 
L 128.057022 288.969505 
L 128.057022 288.969505 
L 128.057022 288.171089 
L 128.057022 288.171089 
L 128.057022 287.372673 
L 258.526311 287.372673 
L 258.526311 286.574257 
L 262.825523 286.574257 
L 262.825523 285.775842 
L 263.862998 285.775842 
L 263.862998 284.977426 
L 263.862998 284.977426 
L 263.862998 284.17901 
L 266.892229 284.17901 
L 266.892229 283.380594 
L 267.875455 283.380594 
L 267.875455 282.582178 
L 269.804169 282.582178 
L 269.804169 281.783762 
L 273.519282 281.783762 
L 273.519282 280.985347 
L 367.096669 280.985347 
L 367.096669 280.186931 
L 367.096669 280.186931 
L 367.096669 280.186931 
L 460.8 280.186931 
" clip-path="url(#p5197220353)" style="fill: none; stroke: #ff0000; stroke-width: 3; stroke-linecap: square"/>
   </g>
   <g id="line2d_88">
    <path clip-path="url(#p5197220353)" style="fill: none; stroke: #ff0000; stroke-width: 3; stroke-linecap: square"/>
   </g>
   <g id="line2d_89">
    <path d="M 460.8 293.76 
L 460.8 3.456 
" clip-path="url(#p5197220353)" style="fill: none; stroke: #000000; stroke-width: 1.5; stroke-linecap: square"/>
   </g>
   <g id="patch_3">
    <path d="M 62.208 293.76 
L 62.208 3.456 
" style="fill: none; stroke: #000000; stroke-width: 0.8; stroke-linejoin: miter; stroke-linecap: square"/>
   </g>
   <g id="patch_4">
    <path d="M 460.8 293.76 
L 460.8 3.456 
" style="fill: none; stroke: #000000; stroke-width: 0.8; stroke-linejoin: miter; stroke-linecap: square"/>
   </g>
   <g id="patch_5">
    <path d="M 62.208 293.76 
L 460.8 293.76 
" style="fill: none; stroke: #000000; stroke-width: 0.8; stroke-linejoin: miter; stroke-linecap: square"/>
   </g>
   <g id="patch_6">
    <path d="M 62.208 3.456 
L 460.8 3.456 
" style="fill: none; stroke: #000000; stroke-width: 0.8; stroke-linejoin: miter; stroke-linecap: square"/>
   </g>
   <g id="text_11">
    <!-- {f1-f24}, 5-D -->
    <g transform="translate(195.0165 24.458955) scale(0.2 -0.2)">
     <defs>
      <path id="DejaVuSans-7b" d="M 3272 -594 
L 3272 -1044 
L 3078 -1044 
Q 2300 -1044 2036 -812 
Q 1772 -581 1772 109 
L 1772 856 
Q 1772 1328 1603 1509 
Q 1434 1691 991 1691 
L 800 1691 
L 800 2138 
L 991 2138 
Q 1438 2138 1605 2317 
Q 1772 2497 1772 2963 
L 1772 3713 
Q 1772 4403 2036 4633 
Q 2300 4863 3078 4863 
L 3272 4863 
L 3272 4416 
L 3059 4416 
Q 2619 4416 2484 4278 
Q 2350 4141 2350 3700 
L 2350 2925 
Q 2350 2434 2208 2212 
Q 2066 1991 1722 1913 
Q 2069 1828 2209 1606 
Q 2350 1384 2350 897 
L 2350 122 
Q 2350 -319 2484 -456 
Q 2619 -594 3059 -594 
L 3272 -594 
z
" transform="scale(0.015625)"/>
      <path id="DejaVuSans-2d" d="M 313 2009 
L 1997 2009 
L 1997 1497 
L 313 1497 
L 313 2009 
z
" transform="scale(0.015625)"/>
      <path id="DejaVuSans-7d" d="M 800 -594 
L 1019 -594 
Q 1456 -594 1589 -459 
Q 1722 -325 1722 122 
L 1722 897 
Q 1722 1384 1862 1606 
Q 2003 1828 2350 1913 
Q 2003 1991 1862 2212 
Q 1722 2434 1722 2925 
L 1722 3700 
Q 1722 4144 1589 4280 
Q 1456 4416 1019 4416 
L 800 4416 
L 800 4863 
L 997 4863 
Q 1775 4863 2036 4633 
Q 2297 4403 2297 3713 
L 2297 2963 
Q 2297 2497 2465 2317 
Q 2634 2138 3078 2138 
L 3272 2138 
L 3272 1691 
L 3078 1691 
Q 2634 1691 2465 1509 
Q 2297 1328 2297 856 
L 2297 109 
Q 2297 -581 2036 -812 
Q 1775 -1044 997 -1044 
L 800 -1044 
L 800 -594 
z
" transform="scale(0.015625)"/>
      <path id="DejaVuSans-2c" d="M 750 794 
L 1409 794 
L 1409 256 
L 897 -744 
L 494 -744 
L 750 256 
L 750 794 
z
" transform="scale(0.015625)"/>
      <path id="DejaVuSans-35" d="M 691 4666 
L 3169 4666 
L 3169 4134 
L 1269 4134 
L 1269 2991 
Q 1406 3038 1543 3061 
Q 1681 3084 1819 3084 
Q 2600 3084 3056 2656 
Q 3513 2228 3513 1497 
Q 3513 744 3044 326 
Q 2575 -91 1722 -91 
Q 1428 -91 1123 -41 
Q 819 9 494 109 
L 494 744 
Q 775 591 1075 516 
Q 1375 441 1709 441 
Q 2250 441 2565 725 
Q 2881 1009 2881 1497 
Q 2881 1984 2565 2268 
Q 2250 2553 1709 2553 
Q 1456 2553 1204 2497 
Q 953 2441 691 2322 
L 691 4666 
z
" transform="scale(0.015625)"/>
     </defs>
     <use xlink:href="#DejaVuSans-7b"/>
     <use xlink:href="#DejaVuSans-66" x="63.623047"/>
     <use xlink:href="#DejaVuSans-31" x="98.828125"/>
     <use xlink:href="#DejaVuSans-2d" x="162.451172"/>
     <use xlink:href="#DejaVuSans-66" x="198.535156"/>
     <use xlink:href="#DejaVuSans-32" x="233.740234"/>
     <use xlink:href="#DejaVuSans-34" x="297.363281"/>
     <use xlink:href="#DejaVuSans-7d" x="360.986328"/>
     <use xlink:href="#DejaVuSans-2c" x="424.609375"/>
     <use xlink:href="#DejaVuSans-20" x="456.396484"/>
     <use xlink:href="#DejaVuSans-35" x="488.183594"/>
     <use xlink:href="#DejaVuSans-2d" x="551.806641"/>
     <use xlink:href="#DejaVuSans-44" x="587.890625"/>
    </g>
   </g>
   <g id="text_12">
    <!-- absolute targets -->
    <g transform="translate(62.208 609.174178) scale(0.14 -0.14)">
     <defs>
      <path id="DejaVuSans-62" d="M 3116 1747 
Q 3116 2381 2855 2742 
Q 2594 3103 2138 3103 
Q 1681 3103 1420 2742 
Q 1159 2381 1159 1747 
Q 1159 1113 1420 752 
Q 1681 391 2138 391 
Q 2594 391 2855 752 
Q 3116 1113 3116 1747 
z
M 1159 2969 
Q 1341 3281 1617 3432 
Q 1894 3584 2278 3584 
Q 2916 3584 3314 3078 
Q 3713 2572 3713 1747 
Q 3713 922 3314 415 
Q 2916 -91 2278 -91 
Q 1894 -91 1617 61 
Q 1341 213 1159 525 
L 1159 0 
L 581 0 
L 581 4863 
L 1159 4863 
L 1159 2969 
z
" transform="scale(0.015625)"/>
      <path id="DejaVuSans-75" d="M 544 1381 
L 544 3500 
L 1119 3500 
L 1119 1403 
Q 1119 906 1312 657 
Q 1506 409 1894 409 
Q 2359 409 2629 706 
Q 2900 1003 2900 1516 
L 2900 3500 
L 3475 3500 
L 3475 0 
L 2900 0 
L 2900 538 
Q 2691 219 2414 64 
Q 2138 -91 1772 -91 
Q 1169 -91 856 284 
Q 544 659 544 1381 
z
M 1991 3584 
L 1991 3584 
z
" transform="scale(0.015625)"/>
      <path id="DejaVuSans-65" d="M 3597 1894 
L 3597 1613 
L 953 1613 
Q 991 1019 1311 708 
Q 1631 397 2203 397 
Q 2534 397 2845 478 
Q 3156 559 3463 722 
L 3463 178 
Q 3153 47 2828 -22 
Q 2503 -91 2169 -91 
Q 1331 -91 842 396 
Q 353 884 353 1716 
Q 353 2575 817 3079 
Q 1281 3584 2069 3584 
Q 2775 3584 3186 3129 
Q 3597 2675 3597 1894 
z
M 3022 2063 
Q 3016 2534 2758 2815 
Q 2500 3097 2075 3097 
Q 1594 3097 1305 2825 
Q 1016 2553 972 2059 
L 3022 2063 
z
" transform="scale(0.015625)"/>
     </defs>
     <use xlink:href="#DejaVuSans-61"/>
     <use xlink:href="#DejaVuSans-62" x="61.279297"/>
     <use xlink:href="#DejaVuSans-73" x="124.755859"/>
     <use xlink:href="#DejaVuSans-6f" x="176.855469"/>
     <use xlink:href="#DejaVuSans-6c" x="238.037109"/>
     <use xlink:href="#DejaVuSans-75" x="265.820312"/>
     <use xlink:href="#DejaVuSans-74" x="329.199219"/>
     <use xlink:href="#DejaVuSans-65" x="368.408203"/>
     <use xlink:href="#DejaVuSans-20" x="429.931641"/>
     <use xlink:href="#DejaVuSans-74" x="461.71875"/>
     <use xlink:href="#DejaVuSans-61" x="500.927734"/>
     <use xlink:href="#DejaVuSans-72" x="562.207031"/>
     <use xlink:href="#DejaVuSans-67" x="601.570312"/>
     <use xlink:href="#DejaVuSans-65" x="665.046875"/>
     <use xlink:href="#DejaVuSans-74" x="726.570312"/>
     <use xlink:href="#DejaVuSans-73" x="765.779297"/>
    </g>
   </g>
   <g id="text_13">
    <!-- v2.6.3 -->
    <g style="fill: #808080" transform="translate(245.82275 288.777272) scale(0.1 -0.1)">
     <defs>
      <path id="DejaVuSans-33" d="M 2597 2516 
Q 3050 2419 3304 2112 
Q 3559 1806 3559 1356 
Q 3559 666 3084 287 
Q 2609 -91 1734 -91 
Q 1441 -91 1130 -33 
Q 819 25 488 141 
L 488 750 
Q 750 597 1062 519 
Q 1375 441 1716 441 
Q 2309 441 2620 675 
Q 2931 909 2931 1356 
Q 2931 1769 2642 2001 
Q 2353 2234 1838 2234 
L 1294 2234 
L 1294 2753 
L 1863 2753 
Q 2328 2753 2575 2939 
Q 2822 3125 2822 3475 
Q 2822 3834 2567 4026 
Q 2313 4219 1838 4219 
Q 1578 4219 1281 4162 
Q 984 4106 628 3988 
L 628 4550 
Q 988 4650 1302 4700 
Q 1616 4750 1894 4750 
Q 2613 4750 3031 4423 
Q 3450 4097 3450 3541 
Q 3450 3153 3228 2886 
Q 3006 2619 2597 2516 
z
" transform="scale(0.015625)"/>
     </defs>
     <use xlink:href="#DejaVuSans-76"/>
     <use xlink:href="#DejaVuSans-32" x="59.179688"/>
     <use xlink:href="#DejaVuSans-2e" x="122.802734"/>
     <use xlink:href="#DejaVuSans-36" x="154.589844"/>
     <use xlink:href="#DejaVuSans-2e" x="218.212891"/>
     <use xlink:href="#DejaVuSans-33" x="250"/>
    </g>
   </g>
   <g id="legend_1">
    <g id="patch_7">
     <path d="M 299.34375 136.881 
L 446.8 136.881 
Q 450.8 136.881 450.8 132.881 
L 450.8 17.456 
Q 450.8 13.456 446.8 13.456 
L 299.34375 13.456 
Q 295.34375 13.456 295.34375 17.456 
L 295.34375 132.881 
Q 295.34375 136.881 299.34375 136.881 
z
" style="fill: #ffffff; opacity: 0.2; stroke: #cccccc; stroke-linejoin: miter"/>
    </g>
    <g id="line2d_90">
     <path d="M 303.34375 29.652875 
L 303.34375 29.652875 
L 323.34375 29.652875 
L 323.34375 29.652875 
L 343.34375 29.652875 
" style="fill: none; stroke: #000000; stroke-width: 1.5; stroke-linecap: square"/>
    </g>
    <g id="text_14">
     <!-- 1: 18/24 -->
     <g transform="translate(359.34375 36.652875) scale(0.2 -0.2)">
      <defs>
       <path id="DejaVuSans-3a" d="M 750 794 
L 1409 794 
L 1409 0 
L 750 0 
L 750 794 
z
M 750 3309 
L 1409 3309 
L 1409 2516 
L 750 2516 
L 750 3309 
z
" transform="scale(0.015625)"/>
      </defs>
      <use xlink:href="#DejaVuSans-31"/>
      <use xlink:href="#DejaVuSans-3a" x="63.623047"/>
      <use xlink:href="#DejaVuSans-20" x="97.314453"/>
      <use xlink:href="#DejaVuSans-31" x="129.101562"/>
      <use xlink:href="#DejaVuSans-38" x="192.724609"/>
      <use xlink:href="#DejaVuSans-2f" x="256.347656"/>
      <use xlink:href="#DejaVuSans-32" x="290.039062"/>
      <use xlink:href="#DejaVuSans-34" x="353.662109"/>
     </g>
    </g>
    <g id="line2d_91">
     <path d="M 303.34375 59.009125 
L 303.34375 59.009125 
L 323.34375 59.009125 
L 323.34375 59.009125 
L 343.34375 59.009125 
" style="fill: none; stroke: #00bfbf; stroke-width: 1.5; stroke-linecap: square"/>
    </g>
    <g id="text_15">
     <!-- -1: 9/24 -->
     <g transform="translate(359.34375 66.009125) scale(0.2 -0.2)">
      <defs>
       <path id="DejaVuSans-39" d="M 703 97 
L 703 672 
Q 941 559 1184 500 
Q 1428 441 1663 441 
Q 2288 441 2617 861 
Q 2947 1281 2994 2138 
Q 2813 1869 2534 1725 
Q 2256 1581 1919 1581 
Q 1219 1581 811 2004 
Q 403 2428 403 3163 
Q 403 3881 828 4315 
Q 1253 4750 1959 4750 
Q 2769 4750 3195 4129 
Q 3622 3509 3622 2328 
Q 3622 1225 3098 567 
Q 2575 -91 1691 -91 
Q 1453 -91 1209 -44 
Q 966 3 703 97 
z
M 1959 2075 
Q 2384 2075 2632 2365 
Q 2881 2656 2881 3163 
Q 2881 3666 2632 3958 
Q 2384 4250 1959 4250 
Q 1534 4250 1286 3958 
Q 1038 3666 1038 3163 
Q 1038 2656 1286 2365 
Q 1534 2075 1959 2075 
z
" transform="scale(0.015625)"/>
      </defs>
      <use xlink:href="#DejaVuSans-2d"/>
      <use xlink:href="#DejaVuSans-31" x="36.083984"/>
      <use xlink:href="#DejaVuSans-3a" x="99.707031"/>
      <use xlink:href="#DejaVuSans-20" x="133.398438"/>
      <use xlink:href="#DejaVuSans-39" x="165.185547"/>
      <use xlink:href="#DejaVuSans-2f" x="228.808594"/>
      <use xlink:href="#DejaVuSans-32" x="262.5"/>
      <use xlink:href="#DejaVuSans-34" x="326.123047"/>
     </g>
    </g>
    <g id="line2d_92">
     <path d="M 303.34375 88.365375 
L 303.34375 88.365375 
L 323.34375 88.365375 
L 323.34375 88.365375 
L 343.34375 88.365375 
" style="fill: none; stroke: #bf00bf; stroke-width: 1.5; stroke-linecap: square"/>
    </g>
    <g id="text_16">
     <!-- -4: 4/24 -->
     <g transform="translate(359.34375 95.365375) scale(0.2 -0.2)">
      <use xlink:href="#DejaVuSans-2d"/>
      <use xlink:href="#DejaVuSans-34" x="36.083984"/>
      <use xlink:href="#DejaVuSans-3a" x="99.707031"/>
      <use xlink:href="#DejaVuSans-20" x="133.398438"/>
      <use xlink:href="#DejaVuSans-34" x="165.185547"/>
      <use xlink:href="#DejaVuSans-2f" x="228.808594"/>
      <use xlink:href="#DejaVuSans-32" x="262.5"/>
      <use xlink:href="#DejaVuSans-34" x="326.123047"/>
     </g>
    </g>
    <g id="line2d_93">
     <path d="M 303.34375 117.721625 
L 303.34375 117.721625 
L 323.34375 117.721625 
L 323.34375 117.721625 
L 343.34375 117.721625 
" style="fill: none; stroke: #ff0000; stroke-width: 3; stroke-linecap: square"/>
    </g>
    <g id="text_17">
     <!-- -8: 3/24 -->
     <g transform="translate(359.34375 124.721625) scale(0.2 -0.2)">
      <use xlink:href="#DejaVuSans-2d"/>
      <use xlink:href="#DejaVuSans-38" x="36.083984"/>
      <use xlink:href="#DejaVuSans-3a" x="99.707031"/>
      <use xlink:href="#DejaVuSans-20" x="133.398438"/>
      <use xlink:href="#DejaVuSans-33" x="165.185547"/>
      <use xlink:href="#DejaVuSans-2f" x="228.808594"/>
      <use xlink:href="#DejaVuSans-32" x="262.5"/>
      <use xlink:href="#DejaVuSans-34" x="326.123047"/>
     </g>
    </g>
   </g>
  </g>
 </g>
 <defs>
  <clipPath id="p5197220353">
   <rect x="62.208" y="3.456" width="398.592" height="290.304"/>
  </clipPath>
 </defs>
</svg>
