<?xml version="1.0" encoding="utf-8" standalone="no"?>
<!DOCTYPE svg PUBLIC "-//W3C//DTD SVG 1.1//EN"
  "http://www.w3.org/Graphics/SVG/1.1/DTD/svg11.dtd">
<svg xmlns:xlink="http://www.w3.org/1999/xlink" width="460.8pt" height="345.6pt" viewBox="0 0 460.8 345.6" xmlns="http://www.w3.org/2000/svg" version="1.1">
 <metadata>
  <rdf:RDF xmlns:dc="http://purl.org/dc/elements/1.1/" xmlns:cc="http://creativecommons.org/ns#" xmlns:rdf="http://www.w3.org/1999/02/22-rdf-syntax-ns#">
   <cc:Work>
    <dc:type rdf:resource="http://purl.org/dc/dcmitype/StillImage"/>
    <dc:date>2024-01-17T14:59:41.907670</dc:date>
    <dc:format>image/svg+xml</dc:format>
    <dc:creator>
     <cc:Agent>
      <dc:title>Matplotlib v3.8.2, https://matplotlib.org/</dc:title>
     </cc:Agent>
    </dc:creator>
   </cc:Work>
  </rdf:RDF>
 </metadata>
 <defs>
  <style type="text/css">*{stroke-linejoin: round; stroke-linecap: butt}</style>
 </defs>
 <g id="figure_1">
  <g id="patch_1">
   <path d="M 0 345.6 
L 460.8 345.6 
L 460.8 0 
L 0 0 
z
" style="fill: #ffffff"/>
  </g>
  <g id="axes_1">
   <g id="patch_2">
    <path d="M 0 293.76 
L 460.8 293.76 
L 460.8 3.456 
L 0 3.456 
z
" style="fill: #ffffff"/>
   </g>
   <g id="matplotlib.axis_1">
    <g id="xtick_1">
     <g id="line2d_1">
      <path d="M 104.132958 293.76 
L 104.132958 3.456 
" clip-path="url(#pab0d0db087)" style="fill: none; stroke: #b0b0b0; stroke-width: 0.8; stroke-linecap: square"/>
     </g>
     <g id="line2d_2">
      <defs>
       <path id="m1a003bc264" d="M 0 0 
L 0 3.5 
" style="stroke: #000000; stroke-width: 0.8"/>
      </defs>
      <g>
       <use xlink:href="#m1a003bc264" x="104.132958" y="293.76" style="stroke: #000000; stroke-width: 0.8"/>
      </g>
     </g>
     <g id="text_1">
      <!-- -4 -->
      <g transform="translate(94.162645 315.956875) scale(0.2 -0.2)">
       <defs>
        <path id="DejaVuSans-2d" d="M 313 2009 
L 1997 2009 
L 1997 1497 
L 313 1497 
L 313 2009 
z
" transform="scale(0.015625)"/>
        <path id="DejaVuSans-34" d="M 2419 4116 
L 825 1625 
L 2419 1625 
L 2419 4116 
z
M 2253 4666 
L 3047 4666 
L 3047 1625 
L 3713 1625 
L 3713 1100 
L 3047 1100 
L 3047 0 
L 2419 0 
L 2419 1100 
L 313 1100 
L 313 1709 
L 2253 4666 
z
" transform="scale(0.015625)"/>
       </defs>
       <use xlink:href="#DejaVuSans-2d"/>
       <use xlink:href="#DejaVuSans-34" x="36.083984"/>
      </g>
     </g>
    </g>
    <g id="xtick_2">
     <g id="line2d_3">
      <path d="M 208.378536 293.76 
L 208.378536 3.456 
" clip-path="url(#pab0d0db087)" style="fill: none; stroke: #b0b0b0; stroke-width: 0.8; stroke-linecap: square"/>
     </g>
     <g id="line2d_4">
      <g>
       <use xlink:href="#m1a003bc264" x="208.378536" y="293.76" style="stroke: #000000; stroke-width: 0.8"/>
      </g>
     </g>
     <g id="text_2">
      <!-- 0 -->
      <g transform="translate(202.016036 315.956875) scale(0.2 -0.2)">
       <defs>
        <path id="DejaVuSans-30" d="M 2034 4250 
Q 1547 4250 1301 3770 
Q 1056 3291 1056 2328 
Q 1056 1369 1301 889 
Q 1547 409 2034 409 
Q 2525 409 2770 889 
Q 3016 1369 3016 2328 
Q 3016 3291 2770 3770 
Q 2525 4250 2034 4250 
z
M 2034 4750 
Q 2819 4750 3233 4129 
Q 3647 3509 3647 2328 
Q 3647 1150 3233 529 
Q 2819 -91 2034 -91 
Q 1250 -91 836 529 
Q 422 1150 422 2328 
Q 422 3509 836 4129 
Q 1250 4750 2034 4750 
z
" transform="scale(0.015625)"/>
       </defs>
       <use xlink:href="#DejaVuSans-30"/>
      </g>
     </g>
    </g>
    <g id="xtick_3">
     <g id="line2d_5">
      <path d="M 312.624115 293.76 
L 312.624115 3.456 
" clip-path="url(#pab0d0db087)" style="fill: none; stroke: #b0b0b0; stroke-width: 0.8; stroke-linecap: square"/>
     </g>
     <g id="line2d_6">
      <g>
       <use xlink:href="#m1a003bc264" x="312.624115" y="293.76" style="stroke: #000000; stroke-width: 0.8"/>
      </g>
     </g>
     <g id="text_3">
      <!-- 4 -->
      <g transform="translate(306.261615 315.956875) scale(0.2 -0.2)">
       <use xlink:href="#DejaVuSans-34"/>
      </g>
     </g>
    </g>
    <g id="xtick_4">
     <g id="line2d_7">
      <path d="M 416.869693 293.76 
L 416.869693 3.456 
" clip-path="url(#pab0d0db087)" style="fill: none; stroke: #b0b0b0; stroke-width: 0.8; stroke-linecap: square"/>
     </g>
     <g id="line2d_8">
      <g>
       <use xlink:href="#m1a003bc264" x="416.869693" y="293.76" style="stroke: #000000; stroke-width: 0.8"/>
      </g>
     </g>
     <g id="text_4">
      <!-- 8 -->
      <g transform="translate(410.507193 315.956875) scale(0.2 -0.2)">
       <defs>
        <path id="DejaVuSans-38" d="M 2034 2216 
Q 1584 2216 1326 1975 
Q 1069 1734 1069 1313 
Q 1069 891 1326 650 
Q 1584 409 2034 409 
Q 2484 409 2743 651 
Q 3003 894 3003 1313 
Q 3003 1734 2745 1975 
Q 2488 2216 2034 2216 
z
M 1403 2484 
Q 997 2584 770 2862 
Q 544 3141 544 3541 
Q 544 4100 942 4425 
Q 1341 4750 2034 4750 
Q 2731 4750 3128 4425 
Q 3525 4100 3525 3541 
Q 3525 3141 3298 2862 
Q 3072 2584 2669 2484 
Q 3125 2378 3379 2068 
Q 3634 1759 3634 1313 
Q 3634 634 3220 271 
Q 2806 -91 2034 -91 
Q 1263 -91 848 271 
Q 434 634 434 1313 
Q 434 1759 690 2068 
Q 947 2378 1403 2484 
z
M 1172 3481 
Q 1172 3119 1398 2916 
Q 1625 2713 2034 2713 
Q 2441 2713 2670 2916 
Q 2900 3119 2900 3481 
Q 2900 3844 2670 4047 
Q 2441 4250 2034 4250 
Q 1625 4250 1398 4047 
Q 1172 3844 1172 3481 
z
" transform="scale(0.015625)"/>
       </defs>
       <use xlink:href="#DejaVuSans-38"/>
      </g>
     </g>
    </g>
    <g id="text_5">
     <!-- log10 of Df -->
     <g transform="translate(175.214063 339.313125) scale(0.2 -0.2)">
      <defs>
       <path id="DejaVuSans-6c" d="M 603 4863 
L 1178 4863 
L 1178 0 
L 603 0 
L 603 4863 
z
" transform="scale(0.015625)"/>
       <path id="DejaVuSans-6f" d="M 1959 3097 
Q 1497 3097 1228 2736 
Q 959 2375 959 1747 
Q 959 1119 1226 758 
Q 1494 397 1959 397 
Q 2419 397 2687 759 
Q 2956 1122 2956 1747 
Q 2956 2369 2687 2733 
Q 2419 3097 1959 3097 
z
M 1959 3584 
Q 2709 3584 3137 3096 
Q 3566 2609 3566 1747 
Q 3566 888 3137 398 
Q 2709 -91 1959 -91 
Q 1206 -91 779 398 
Q 353 888 353 1747 
Q 353 2609 779 3096 
Q 1206 3584 1959 3584 
z
" transform="scale(0.015625)"/>
       <path id="DejaVuSans-67" d="M 2906 1791 
Q 2906 2416 2648 2759 
Q 2391 3103 1925 3103 
Q 1463 3103 1205 2759 
Q 947 2416 947 1791 
Q 947 1169 1205 825 
Q 1463 481 1925 481 
Q 2391 481 2648 825 
Q 2906 1169 2906 1791 
z
M 3481 434 
Q 3481 -459 3084 -895 
Q 2688 -1331 1869 -1331 
Q 1566 -1331 1297 -1286 
Q 1028 -1241 775 -1147 
L 775 -588 
Q 1028 -725 1275 -790 
Q 1522 -856 1778 -856 
Q 2344 -856 2625 -561 
Q 2906 -266 2906 331 
L 2906 616 
Q 2728 306 2450 153 
Q 2172 0 1784 0 
Q 1141 0 747 490 
Q 353 981 353 1791 
Q 353 2603 747 3093 
Q 1141 3584 1784 3584 
Q 2172 3584 2450 3431 
Q 2728 3278 2906 2969 
L 2906 3500 
L 3481 3500 
L 3481 434 
z
" transform="scale(0.015625)"/>
       <path id="DejaVuSans-31" d="M 794 531 
L 1825 531 
L 1825 4091 
L 703 3866 
L 703 4441 
L 1819 4666 
L 2450 4666 
L 2450 531 
L 3481 531 
L 3481 0 
L 794 0 
L 794 531 
z
" transform="scale(0.015625)"/>
       <path id="DejaVuSans-20" transform="scale(0.015625)"/>
       <path id="DejaVuSans-66" d="M 2375 4863 
L 2375 4384 
L 1825 4384 
Q 1516 4384 1395 4259 
Q 1275 4134 1275 3809 
L 1275 3500 
L 2222 3500 
L 2222 3053 
L 1275 3053 
L 1275 0 
L 697 0 
L 697 3053 
L 147 3053 
L 147 3500 
L 697 3500 
L 697 3744 
Q 697 4328 969 4595 
Q 1241 4863 1831 4863 
L 2375 4863 
z
" transform="scale(0.015625)"/>
       <path id="DejaVuSans-44" d="M 1259 4147 
L 1259 519 
L 2022 519 
Q 2988 519 3436 956 
Q 3884 1394 3884 2338 
Q 3884 3275 3436 3711 
Q 2988 4147 2022 4147 
L 1259 4147 
z
M 628 4666 
L 1925 4666 
Q 3281 4666 3915 4102 
Q 4550 3538 4550 2338 
Q 4550 1131 3912 565 
Q 3275 0 1925 0 
L 628 0 
L 628 4666 
z
" transform="scale(0.015625)"/>
      </defs>
      <use xlink:href="#DejaVuSans-6c"/>
      <use xlink:href="#DejaVuSans-6f" x="27.783203"/>
      <use xlink:href="#DejaVuSans-67" x="88.964844"/>
      <use xlink:href="#DejaVuSans-31" x="152.441406"/>
      <use xlink:href="#DejaVuSans-30" x="216.064453"/>
      <use xlink:href="#DejaVuSans-20" x="279.6875"/>
      <use xlink:href="#DejaVuSans-6f" x="311.474609"/>
      <use xlink:href="#DejaVuSans-66" x="372.65625"/>
      <use xlink:href="#DejaVuSans-20" x="407.861328"/>
      <use xlink:href="#DejaVuSans-44" x="439.648438"/>
      <use xlink:href="#DejaVuSans-66" x="516.650391"/>
     </g>
    </g>
   </g>
   <g id="matplotlib.axis_2">
    <g id="ytick_1">
     <g id="line2d_9">
      <path d="M 0 293.76 
L 460.8 293.76 
" clip-path="url(#pab0d0db087)" style="fill: none; stroke: #b0b0b0; stroke-width: 0.8; stroke-linecap: square"/>
     </g>
     <g id="line2d_10">
      <defs>
       <path id="m29fd3db5da" d="M 0 0 
L -3.5 0 
" style="stroke: #000000; stroke-width: 0.8"/>
      </defs>
      <g>
       <use xlink:href="#m29fd3db5da" x="0" y="293.76" style="stroke: #000000; stroke-width: 0.8"/>
      </g>
     </g>
    </g>
    <g id="ytick_2">
     <g id="line2d_11">
      <path d="M 0 236.274059 
L 460.8 236.274059 
" clip-path="url(#pab0d0db087)" style="fill: none; stroke: #b0b0b0; stroke-width: 0.8; stroke-linecap: square"/>
     </g>
     <g id="line2d_12">
      <g>
       <use xlink:href="#m29fd3db5da" x="0" y="236.274059" style="stroke: #000000; stroke-width: 0.8"/>
      </g>
     </g>
    </g>
    <g id="ytick_3">
     <g id="line2d_13">
      <path d="M 0 178.788119 
L 460.8 178.788119 
" clip-path="url(#pab0d0db087)" style="fill: none; stroke: #b0b0b0; stroke-width: 0.8; stroke-linecap: square"/>
     </g>
     <g id="line2d_14">
      <g>
       <use xlink:href="#m29fd3db5da" x="0" y="178.788119" style="stroke: #000000; stroke-width: 0.8"/>
      </g>
     </g>
    </g>
    <g id="ytick_4">
     <g id="line2d_15">
      <path d="M 0 121.302178 
L 460.8 121.302178 
" clip-path="url(#pab0d0db087)" style="fill: none; stroke: #b0b0b0; stroke-width: 0.8; stroke-linecap: square"/>
     </g>
     <g id="line2d_16">
      <g>
       <use xlink:href="#m29fd3db5da" x="0" y="121.302178" style="stroke: #000000; stroke-width: 0.8"/>
      </g>
     </g>
    </g>
    <g id="ytick_5">
     <g id="line2d_17">
      <path d="M 0 63.816238 
L 460.8 63.816238 
" clip-path="url(#pab0d0db087)" style="fill: none; stroke: #b0b0b0; stroke-width: 0.8; stroke-linecap: square"/>
     </g>
     <g id="line2d_18">
      <g>
       <use xlink:href="#m29fd3db5da" x="0" y="63.816238" style="stroke: #000000; stroke-width: 0.8"/>
      </g>
     </g>
    </g>
    <g id="ytick_6">
     <g id="line2d_19">
      <path d="M 0 6.330297 
L 460.8 6.330297 
" clip-path="url(#pab0d0db087)" style="fill: none; stroke: #b0b0b0; stroke-width: 0.8; stroke-linecap: square"/>
     </g>
     <g id="line2d_20">
      <g>
       <use xlink:href="#m29fd3db5da" x="0" y="6.330297" style="stroke: #000000; stroke-width: 0.8"/>
      </g>
     </g>
    </g>
   </g>
   <g id="line2d_21">
    <path d="M 161.368588 293.76 
L 161.390702 236.274059 
L 220.726418 236.274059 
L 220.726418 232.441663 
L 222.234585 232.441663 
L 222.234585 228.609267 
L 223.421759 228.609267 
L 223.421759 224.776871 
L 223.680893 224.776871 
L 223.680893 220.944475 
L 224.793519 220.944475 
L 224.793519 217.112079 
L 225.448014 217.112079 
L 225.448014 213.279683 
L 227.631175 213.279683 
L 227.631175 209.447287 
L 228.653039 209.447287 
L 228.653039 205.614891 
L 228.843553 205.614891 
L 228.843553 201.782495 
L 229.408585 201.782495 
L 229.408585 197.950099 
L 230.109618 197.950099 
L 230.109618 194.117703 
L 232.470074 194.117703 
L 232.470074 190.285307 
L 233.962525 190.285307 
L 233.962525 186.452911 
L 234.538494 186.452911 
L 234.538494 182.620515 
L 235.781825 182.620515 
L 235.781825 178.788119 
L 238.371395 178.788119 
L 238.371395 174.955723 
L 239.078174 174.955723 
L 239.078174 171.123327 
L 239.352248 171.123327 
L 239.352248 167.290931 
L 240.27422 167.290931 
L 240.27422 163.458535 
L 241.813072 163.458535 
L 241.813072 159.626139 
L 242.839109 159.626139 
L 242.839109 155.793743 
L 245.653891 155.793743 
L 245.653891 151.961347 
L 245.782111 151.961347 
L 245.782111 148.12895 
L 246.109781 148.12895 
L 246.109781 144.296554 
L 246.751429 144.296554 
L 246.751429 140.464158 
L 246.87486 140.464158 
L 246.87486 136.631762 
L 248.657481 136.631762 
L 248.657481 132.799366 
L 249.278253 132.799366 
L 249.278253 128.96697 
L 251.19646 128.96697 
L 251.19646 125.134574 
L 251.413299 125.134574 
L 251.413299 121.302178 
L 252.307567 121.302178 
L 252.307567 117.469782 
L 254.902902 117.469782 
L 254.902902 113.637386 
L 255.407278 113.637386 
L 255.407278 109.80499 
L 255.741074 109.80499 
L 255.741074 105.972594 
L 256.972538 105.972594 
L 256.980051 98.307802 
L 257.208727 98.307802 
L 257.208727 94.475406 
L 257.425309 94.475406 
L 257.425309 90.64301 
L 257.630817 90.64301 
L 257.630817 86.810614 
L 258.736943 86.810614 
L 258.79895 79.145822 
L 260.330214 79.145822 
L 260.409058 71.48103 
L 260.556577 71.48103 
L 260.556577 67.648634 
L 260.927109 67.648634 
L 260.927109 63.816238 
L 261.705598 63.816238 
L 261.705598 59.983842 
L 262.025695 59.983842 
L 262.025695 56.151446 
L 262.384327 56.151446 
L 262.384327 52.31905 
L 263.006107 52.31905 
L 263.006107 48.486653 
L 263.470474 48.486653 
L 263.470474 44.654257 
L 263.840688 44.654257 
L 263.840688 40.821861 
L 264.034768 40.821861 
L 264.034768 36.989465 
L 264.171026 36.989465 
L 264.171026 33.157069 
L 264.601003 33.157069 
L 264.601003 29.324673 
L 265.404601 29.324673 
L 265.404601 25.492277 
L 266.843779 25.492277 
L 266.843779 21.659881 
L 267.063319 21.659881 
L 267.063319 17.827485 
L 268.101874 17.827485 
L 268.101874 13.995089 
L 270.196436 13.995089 
L 270.196436 10.162693 
L 271.32097 10.162693 
L 271.32097 6.330297 
L 271.32097 6.330297 
L 460.8 6.330297 
L 460.8 6.330297 
" clip-path="url(#pab0d0db087)" style="fill: none; stroke: #ff0000; stroke-width: 3; stroke-linecap: square"/>
   </g>
   <g id="line2d_22">
    <path d="M 192.399043 293.76 
L 192.504953 270.765624 
L 192.540929 270.765624 
L 192.585652 263.100832 
L 192.653295 263.100832 
L 192.704921 236.274059 
L 228.089663 236.274059 
L 228.089663 232.441663 
L 229.920999 232.441663 
L 229.920999 228.609267 
L 231.26518 228.609267 
L 231.26518 224.776871 
L 233.810374 224.776871 
L 233.810374 220.944475 
L 234.717094 220.944475 
L 234.717094 217.112079 
L 235.075879 217.112079 
L 235.075879 213.279683 
L 235.264262 213.279683 
L 235.264262 209.447287 
L 237.150167 209.447287 
L 237.150167 205.614891 
L 237.488906 205.614891 
L 237.488906 201.782495 
L 238.550196 201.782495 
L 238.550196 197.950099 
L 240.07418 197.950099 
L 240.07418 194.117703 
L 240.371627 194.117703 
L 240.371627 190.285307 
L 245.471412 190.285307 
L 245.549957 182.620515 
L 247.379433 182.620515 
L 247.379433 178.788119 
L 247.495319 178.788119 
L 247.495319 174.955723 
L 248.421995 174.955723 
L 248.421995 171.123327 
L 248.819159 171.123327 
L 248.819159 167.290931 
L 250.884286 167.290931 
L 250.884286 163.458535 
L 254.432203 163.458535 
L 254.432203 159.626139 
L 255.197775 159.626139 
L 255.197775 155.793743 
L 255.54271 155.793743 
L 255.54271 151.961347 
L 256.299468 151.961347 
L 256.299468 148.12895 
L 257.132052 148.12895 
L 257.20359 140.464158 
L 257.305129 140.464158 
L 257.305129 136.631762 
L 257.540719 136.631762 
L 257.624729 125.134574 
L 257.914219 125.134574 
L 257.935965 117.469782 
L 258.924978 117.469782 
L 258.924978 113.637386 
L 259.167163 113.637386 
L 259.167163 109.80499 
L 259.859555 109.80499 
L 259.885121 102.140198 
L 260.561705 102.140198 
L 260.561705 98.307802 
L 260.960188 98.307802 
L 260.960188 94.475406 
L 261.7979 94.475406 
L 261.831027 86.810614 
L 262.297101 86.810614 
L 262.297101 82.978218 
L 262.618298 82.978218 
L 262.618298 79.145822 
L 263.207377 79.145822 
L 263.207377 75.313426 
L 263.765712 75.313426 
L 263.765712 71.48103 
L 264.05571 71.48103 
L 264.150892 63.816238 
L 264.48149 63.816238 
L 264.583953 52.31905 
L 264.802628 52.31905 
L 264.802628 48.486653 
L 265.171022 48.486653 
L 265.171022 44.654257 
L 267.428618 44.654257 
L 267.428618 40.821861 
L 267.718941 40.821861 
L 267.718941 36.989465 
L 268.222128 36.989465 
L 268.222128 33.157069 
L 268.640104 33.157069 
L 268.640104 29.324673 
L 269.033747 29.324673 
L 269.033747 25.492277 
L 269.347711 25.492277 
L 269.448589 17.827485 
L 273.698062 17.827485 
L 273.698062 13.995089 
L 275.71004 13.995089 
L 275.71004 10.162693 
L 277.091184 10.162693 
L 277.091184 6.330297 
L 277.091184 6.330297 
L 460.8 6.330297 
L 460.8 6.330297 
" clip-path="url(#pab0d0db087)" style="fill: none; stroke: #00bfbf; stroke-width: 1.5; stroke-linecap: square"/>
   </g>
   <g id="line2d_23">
    <path d="M 192.329999 293.76 
L 192.43879 274.59802 
L 192.442749 274.59802 
L 192.543328 240.106455 
L 192.704921 240.106455 
L 192.704921 236.274059 
L 228.07396 236.274059 
L 228.07396 232.441663 
L 229.918485 232.441663 
L 229.918485 228.609267 
L 231.261821 228.609267 
L 231.261821 224.776871 
L 233.805353 224.776871 
L 233.805353 220.944475 
L 234.71613 220.944475 
L 234.71613 217.112079 
L 235.073848 217.112079 
L 235.073848 213.279683 
L 235.262617 213.279683 
L 235.262617 209.447287 
L 237.150167 209.447287 
L 237.150167 205.614891 
L 237.488906 205.614891 
L 237.488906 201.782495 
L 238.520865 201.782495 
L 238.520865 197.950099 
L 240.07279 197.950099 
L 240.07279 194.117703 
L 240.364798 194.117703 
L 240.364798 190.285307 
L 245.466519 190.285307 
L 245.547434 182.620515 
L 247.379433 182.620515 
L 247.379433 178.788119 
L 247.495319 178.788119 
L 247.495319 174.955723 
L 248.421995 174.955723 
L 248.421995 171.123327 
L 248.812046 171.123327 
L 248.812046 167.290931 
L 250.877174 167.290931 
L 250.877174 163.458535 
L 254.415381 163.458535 
L 254.415381 159.626139 
L 255.087667 159.626139 
L 255.087667 155.793743 
L 255.54271 155.793743 
L 255.54271 151.961347 
L 256.29739 151.961347 
L 256.29739 148.12895 
L 257.123362 148.12895 
L 257.20359 140.464158 
L 257.247695 140.464158 
L 257.247695 136.631762 
L 257.523142 136.631762 
L 257.624395 125.134574 
L 257.909334 125.134574 
L 257.914219 117.469782 
L 258.916999 117.469782 
L 258.916999 113.637386 
L 259.164039 113.637386 
L 259.164039 109.80499 
L 259.853208 109.80499 
L 259.881681 102.140198 
L 260.543906 102.140198 
L 260.543906 98.307802 
L 260.960188 98.307802 
L 260.960188 94.475406 
L 261.792768 94.475406 
L 261.831027 86.810614 
L 262.293339 86.810614 
L 262.293339 82.978218 
L 262.504967 82.978218 
L 262.504967 79.145822 
L 263.101755 79.145822 
L 263.101755 75.313426 
L 263.758213 75.313426 
L 263.758213 71.48103 
L 264.033293 71.48103 
L 264.129647 63.816238 
L 264.481218 63.816238 
L 264.581982 52.31905 
L 264.802628 52.31905 
L 264.802628 48.486653 
L 265.171022 48.486653 
L 265.171022 44.654257 
L 267.427064 44.654257 
L 267.427064 40.821861 
L 267.718741 40.821861 
L 267.718741 36.989465 
L 268.222128 36.989465 
L 268.222128 33.157069 
L 268.639482 33.157069 
L 268.639482 29.324673 
L 269.033747 29.324673 
L 269.033747 25.492277 
L 269.345909 25.492277 
L 269.447163 17.827485 
L 273.691443 17.827485 
L 273.691443 13.995089 
L 275.70767 13.995089 
L 275.70767 10.162693 
L 277.088021 10.162693 
L 277.088021 6.330297 
L 277.088021 6.330297 
L 460.8 6.330297 
L 460.8 6.330297 
" clip-path="url(#pab0d0db087)" style="fill: none; stroke: #bf00bf; stroke-width: 1.5; stroke-linecap: square"/>
   </g>
   <g id="line2d_24">
    <path d="M 190.31369 293.76 
L 190.31369 289.927604 
L 190.524161 289.927604 
L 190.59162 282.262812 
L 190.661704 282.262812 
L 190.672695 274.59802 
L 190.804928 274.59802 
L 190.858312 266.933228 
L 190.983173 266.933228 
L 191.016369 247.771248 
L 191.09966 247.771248 
L 191.145448 240.106455 
L 192.339161 240.106455 
L 192.339161 236.274059 
L 228.014423 236.274059 
L 228.014423 232.441663 
L 229.783007 232.441663 
L 229.783007 228.609267 
L 231.203105 228.609267 
L 231.203105 224.776871 
L 233.76579 224.776871 
L 233.76579 220.944475 
L 234.702394 220.944475 
L 234.702394 217.112079 
L 235.047111 217.112079 
L 235.047111 213.279683 
L 235.243844 213.279683 
L 235.243844 209.447287 
L 237.135133 209.447287 
L 237.135133 205.614891 
L 237.467042 205.614891 
L 237.467042 201.782495 
L 238.393 201.782495 
L 238.393 197.950099 
L 240.056647 197.950099 
L 240.056647 194.117703 
L 240.342391 194.117703 
L 240.342391 190.285307 
L 245.438097 190.285307 
L 245.472598 182.620515 
L 247.297974 182.620515 
L 247.297974 178.788119 
L 247.412773 178.788119 
L 247.412773 174.955723 
L 248.389623 174.955723 
L 248.389623 171.123327 
L 248.771318 171.123327 
L 248.771318 167.290931 
L 250.820632 167.290931 
L 250.820632 163.458535 
L 254.309819 163.458535 
L 254.309819 159.626139 
L 254.924286 159.626139 
L 254.924286 155.793743 
L 255.54271 155.793743 
L 255.54271 151.961347 
L 256.25289 151.961347 
L 256.25289 148.12895 
L 257.1083 148.12895 
L 257.119433 140.464158 
L 257.247695 140.464158 
L 257.247695 136.631762 
L 257.469488 136.631762 
L 257.515229 128.96697 
L 257.606782 128.96697 
L 257.682711 121.302178 
L 257.890338 121.302178 
L 257.890338 117.469782 
L 258.88223 117.469782 
L 258.88223 113.637386 
L 259.135772 113.637386 
L 259.135772 109.80499 
L 259.79475 109.80499 
L 259.845733 102.140198 
L 260.432178 102.140198 
L 260.432178 98.307802 
L 260.960188 98.307802 
L 260.960188 94.475406 
L 261.766453 94.475406 
L 261.77965 86.810614 
L 262.250015 86.810614 
L 262.250015 82.978218 
L 262.443307 82.978218 
L 262.443307 79.145822 
L 263.077988 79.145822 
L 263.077988 75.313426 
L 263.684258 75.313426 
L 263.684258 71.48103 
L 263.837581 71.48103 
L 263.837581 67.648634 
L 264.08264 67.648634 
L 264.08264 63.816238 
L 264.463535 63.816238 
L 264.533588 52.31905 
L 264.787127 52.31905 
L 264.787127 48.486653 
L 265.145706 48.486653 
L 265.145706 44.654257 
L 267.417075 44.654257 
L 267.417075 40.821861 
L 267.714468 40.821861 
L 267.714468 36.989465 
L 268.208898 36.989465 
L 268.208898 33.157069 
L 268.622351 33.157069 
L 268.622351 29.324673 
L 269.018886 29.324673 
L 269.018886 25.492277 
L 269.33074 25.492277 
L 269.33074 21.659881 
L 269.443234 21.659881 
L 269.443234 17.827485 
L 273.671593 17.827485 
L 273.671593 13.995089 
L 275.700481 13.995089 
L 275.700481 10.162693 
L 277.068543 10.162693 
L 277.068543 6.330297 
L 277.068543 6.330297 
L 460.8 6.330297 
L 460.8 6.330297 
" clip-path="url(#pab0d0db087)" style="fill: none; stroke: #000000; stroke-width: 1.5; stroke-linecap: square"/>
   </g>
   <g id="line2d_25">
    <path d="M 162.427872 293.76 
L 162.427872 289.927604 
L 166.012517 289.927604 
L 166.012517 286.095208 
L 166.638597 286.095208 
L 166.638597 282.262812 
L 167.566754 282.262812 
L 167.566754 278.430416 
L 168.284594 278.430416 
L 168.284594 274.59802 
L 169.937404 274.59802 
L 169.937404 270.765624 
L 170.188349 270.765624 
L 170.188349 266.933228 
L 170.876092 266.933228 
L 170.876092 263.100832 
L 173.52466 263.100832 
L 173.52466 259.268436 
L 176.498867 259.268436 
L 176.498867 255.43604 
L 178.428076 255.43604 
L 178.428076 251.603644 
L 182.004698 251.603644 
L 182.004698 247.771248 
L 182.471532 247.771248 
L 182.471532 243.938851 
L 183.134453 243.938851 
L 183.134453 240.106455 
L 184.443897 240.106455 
L 184.443897 236.274059 
L 224.478513 236.274059 
L 224.478513 232.441663 
L 225.858556 232.441663 
L 225.858556 228.609267 
L 229.77112 228.609267 
L 229.77112 224.776871 
L 232.140239 224.776871 
L 232.140239 220.944475 
L 232.725336 220.944475 
L 232.725336 217.112079 
L 232.874009 217.112079 
L 232.874009 213.279683 
L 234.540178 213.279683 
L 234.600148 205.614891 
L 235.211366 205.614891 
L 235.211366 201.782495 
L 236.35 201.782495 
L 236.35 197.950099 
L 236.499774 197.950099 
L 236.499774 194.117703 
L 238.027452 194.117703 
L 238.027452 190.285307 
L 238.544656 190.285307 
L 238.544656 186.452911 
L 242.218043 186.452911 
L 242.218043 182.620515 
L 242.625751 182.620515 
L 242.625751 178.788119 
L 244.278316 178.788119 
L 244.278316 174.955723 
L 245.486805 174.955723 
L 245.486805 171.123327 
L 245.713184 171.123327 
L 245.713184 167.290931 
L 247.796638 167.290931 
L 247.828752 159.626139 
L 248.818911 159.626139 
L 248.818911 155.793743 
L 252.895724 155.793743 
L 252.895724 151.961347 
L 253.616889 151.961347 
L 253.616889 148.12895 
L 253.841738 148.12895 
L 253.92867 140.464158 
L 254.052726 140.464158 
L 254.052726 136.631762 
L 254.907657 136.631762 
L 254.907657 132.799366 
L 255.130366 132.799366 
L 255.130366 128.96697 
L 255.253252 128.96697 
L 255.268526 121.302178 
L 255.43464 121.302178 
L 255.43464 117.469782 
L 257.003549 117.469782 
L 257.020387 109.80499 
L 257.227039 109.80499 
L 257.227039 105.972594 
L 257.440492 105.972594 
L 257.440492 102.140198 
L 257.657321 102.140198 
L 257.657321 98.307802 
L 258.147086 98.307802 
L 258.147086 94.475406 
L 258.487682 94.475406 
L 258.487682 90.64301 
L 259.446911 90.64301 
L 259.446911 86.810614 
L 260.4163 86.810614 
L 260.4163 82.978218 
L 260.943212 82.978218 
L 260.943212 79.145822 
L 261.555211 79.145822 
L 261.555211 75.313426 
L 261.723865 75.313426 
L 261.723865 71.48103 
L 262.418463 71.48103 
L 262.418463 67.648634 
L 263.042023 67.648634 
L 263.042023 63.816238 
L 263.417471 63.816238 
L 263.486153 56.151446 
L 263.96978 56.151446 
L 264.042617 44.654257 
L 266.430155 44.654257 
L 266.430155 40.821861 
L 267.074012 40.821861 
L 267.076662 33.157069 
L 267.281655 33.157069 
L 267.281655 29.324673 
L 268.099496 29.324673 
L 268.122174 21.659881 
L 268.283784 21.659881 
L 268.283784 17.827485 
L 272.112626 17.827485 
L 272.112626 13.995089 
L 274.62527 13.995089 
L 274.62527 10.162693 
L 275.069737 10.162693 
L 275.069737 6.330297 
L 275.069737 6.330297 
L 460.8 6.330297 
L 460.8 6.330297 
" clip-path="url(#pab0d0db087)" style="fill: none; stroke: #00bfbf; stroke-width: 1.5; stroke-linecap: square"/>
   </g>
   <g id="line2d_26">
    <path d="M 161.368588 293.76 
L 161.390702 236.274059 
L 220.726418 236.274059 
L 220.726418 232.441663 
L 222.234585 232.441663 
L 222.234585 228.609267 
L 223.47935 228.609267 
L 223.47935 224.776871 
L 223.680893 224.776871 
L 223.680893 220.944475 
L 224.793519 220.944475 
L 224.793519 217.112079 
L 227.631175 217.112079 
L 227.631175 213.279683 
L 227.863368 213.279683 
L 227.863368 209.447287 
L 228.653039 209.447287 
L 228.653039 205.614891 
L 228.872174 205.614891 
L 228.872174 201.782495 
L 229.602485 201.782495 
L 229.602485 197.950099 
L 230.109618 197.950099 
L 230.109618 194.117703 
L 232.806878 194.117703 
L 232.806878 190.285307 
L 234.086699 190.285307 
L 234.086699 186.452911 
L 234.538494 186.452911 
L 234.538494 182.620515 
L 235.781825 182.620515 
L 235.781825 178.788119 
L 238.371927 178.788119 
L 238.371927 174.955723 
L 239.078174 174.955723 
L 239.078174 171.123327 
L 239.352248 171.123327 
L 239.352248 167.290931 
L 240.274224 167.290931 
L 240.274224 163.458535 
L 241.813072 163.458535 
L 241.813072 159.626139 
L 242.839109 159.626139 
L 242.839109 155.793743 
L 245.653891 155.793743 
L 245.653891 151.961347 
L 245.782114 151.961347 
L 245.782114 148.12895 
L 246.109781 148.12895 
L 246.109781 144.296554 
L 246.751462 144.296554 
L 246.751462 140.464158 
L 246.878311 140.464158 
L 246.878311 136.631762 
L 248.657646 136.631762 
L 248.657646 132.799366 
L 249.278332 132.799366 
L 249.278332 128.96697 
L 251.19646 128.96697 
L 251.19646 125.134574 
L 251.905785 125.134574 
L 251.905785 121.302178 
L 252.307567 121.302178 
L 252.307567 117.469782 
L 254.902902 117.469782 
L 254.902902 113.637386 
L 255.407278 113.637386 
L 255.407278 109.80499 
L 255.763903 109.80499 
L 255.763903 105.972594 
L 256.972538 105.972594 
L 256.980051 98.307802 
L 257.208727 98.307802 
L 257.208727 94.475406 
L 257.425309 94.475406 
L 257.425309 90.64301 
L 257.630817 90.64301 
L 257.630817 86.810614 
L 258.799786 86.810614 
L 258.842524 79.145822 
L 260.409058 79.145822 
L 260.409058 75.313426 
L 260.699568 75.313426 
L 260.699568 71.48103 
L 260.927109 71.48103 
L 260.927109 67.648634 
L 261.705598 67.648634 
L 261.705598 63.816238 
L 262.083834 63.816238 
L 262.083834 59.983842 
L 262.384327 59.983842 
L 262.384327 56.151446 
L 262.591169 56.151446 
L 262.591169 52.31905 
L 263.006107 52.31905 
L 263.006107 48.486653 
L 263.470474 48.486653 
L 263.470474 44.654257 
L 263.840688 44.654257 
L 263.840688 40.821861 
L 264.034768 40.821861 
L 264.034768 36.989465 
L 264.246084 36.989465 
L 264.246084 33.157069 
L 264.601183 33.157069 
L 264.601183 29.324673 
L 265.404824 29.324673 
L 265.404824 25.492277 
L 266.843779 25.492277 
L 266.843779 21.659881 
L 267.066539 21.659881 
L 267.066539 17.827485 
L 268.101874 17.827485 
L 268.101874 13.995089 
L 270.215884 13.995089 
L 270.215884 10.162693 
L 271.32097 10.162693 
L 271.32097 6.330297 
L 271.32097 6.330297 
L 460.8 6.330297 
L 460.8 6.330297 
" clip-path="url(#pab0d0db087)" style="fill: none; stroke: #bf00bf; stroke-width: 1.5; stroke-linecap: square"/>
   </g>
   <g id="patch_3">
    <path d="M 0 293.76 
L 0 3.456 
" style="fill: none; stroke: #000000; stroke-width: 0.8; stroke-linejoin: miter; stroke-linecap: square"/>
   </g>
   <g id="patch_4">
    <path d="M 460.8 293.76 
L 460.8 3.456 
" style="fill: none; stroke: #000000; stroke-width: 0.8; stroke-linejoin: miter; stroke-linecap: square"/>
   </g>
   <g id="patch_5">
    <path d="M 0 293.76 
L 460.8 293.76 
" style="fill: none; stroke: #000000; stroke-width: 0.8; stroke-linejoin: miter; stroke-linecap: square"/>
   </g>
   <g id="patch_6">
    <path d="M 0 3.456 
L 460.8 3.456 
" style="fill: none; stroke: #000000; stroke-width: 0.8; stroke-linejoin: miter; stroke-linecap: square"/>
   </g>
   <g id="text_6">
    <!-- {f15-f19}, 5-D -->
    <g transform="translate(305.884 287.95392) scale(0.2 -0.2)">
     <defs>
      <path id="DejaVuSans-7b" d="M 3272 -594 
L 3272 -1044 
L 3078 -1044 
Q 2300 -1044 2036 -812 
Q 1772 -581 1772 109 
L 1772 856 
Q 1772 1328 1603 1509 
Q 1434 1691 991 1691 
L 800 1691 
L 800 2138 
L 991 2138 
Q 1438 2138 1605 2317 
Q 1772 2497 1772 2963 
L 1772 3713 
Q 1772 4403 2036 4633 
Q 2300 4863 3078 4863 
L 3272 4863 
L 3272 4416 
L 3059 4416 
Q 2619 4416 2484 4278 
Q 2350 4141 2350 3700 
L 2350 2925 
Q 2350 2434 2208 2212 
Q 2066 1991 1722 1913 
Q 2069 1828 2209 1606 
Q 2350 1384 2350 897 
L 2350 122 
Q 2350 -319 2484 -456 
Q 2619 -594 3059 -594 
L 3272 -594 
z
" transform="scale(0.015625)"/>
      <path id="DejaVuSans-35" d="M 691 4666 
L 3169 4666 
L 3169 4134 
L 1269 4134 
L 1269 2991 
Q 1406 3038 1543 3061 
Q 1681 3084 1819 3084 
Q 2600 3084 3056 2656 
Q 3513 2228 3513 1497 
Q 3513 744 3044 326 
Q 2575 -91 1722 -91 
Q 1428 -91 1123 -41 
Q 819 9 494 109 
L 494 744 
Q 775 591 1075 516 
Q 1375 441 1709 441 
Q 2250 441 2565 725 
Q 2881 1009 2881 1497 
Q 2881 1984 2565 2268 
Q 2250 2553 1709 2553 
Q 1456 2553 1204 2497 
Q 953 2441 691 2322 
L 691 4666 
z
" transform="scale(0.015625)"/>
      <path id="DejaVuSans-39" d="M 703 97 
L 703 672 
Q 941 559 1184 500 
Q 1428 441 1663 441 
Q 2288 441 2617 861 
Q 2947 1281 2994 2138 
Q 2813 1869 2534 1725 
Q 2256 1581 1919 1581 
Q 1219 1581 811 2004 
Q 403 2428 403 3163 
Q 403 3881 828 4315 
Q 1253 4750 1959 4750 
Q 2769 4750 3195 4129 
Q 3622 3509 3622 2328 
Q 3622 1225 3098 567 
Q 2575 -91 1691 -91 
Q 1453 -91 1209 -44 
Q 966 3 703 97 
z
M 1959 2075 
Q 2384 2075 2632 2365 
Q 2881 2656 2881 3163 
Q 2881 3666 2632 3958 
Q 2384 4250 1959 4250 
Q 1534 4250 1286 3958 
Q 1038 3666 1038 3163 
Q 1038 2656 1286 2365 
Q 1534 2075 1959 2075 
z
" transform="scale(0.015625)"/>
      <path id="DejaVuSans-7d" d="M 800 -594 
L 1019 -594 
Q 1456 -594 1589 -459 
Q 1722 -325 1722 122 
L 1722 897 
Q 1722 1384 1862 1606 
Q 2003 1828 2350 1913 
Q 2003 1991 1862 2212 
Q 1722 2434 1722 2925 
L 1722 3700 
Q 1722 4144 1589 4280 
Q 1456 4416 1019 4416 
L 800 4416 
L 800 4863 
L 997 4863 
Q 1775 4863 2036 4633 
Q 2297 4403 2297 3713 
L 2297 2963 
Q 2297 2497 2465 2317 
Q 2634 2138 3078 2138 
L 3272 2138 
L 3272 1691 
L 3078 1691 
Q 2634 1691 2465 1509 
Q 2297 1328 2297 856 
L 2297 109 
Q 2297 -581 2036 -812 
Q 1775 -1044 997 -1044 
L 800 -1044 
L 800 -594 
z
" transform="scale(0.015625)"/>
      <path id="DejaVuSans-2c" d="M 750 794 
L 1409 794 
L 1409 256 
L 897 -744 
L 494 -744 
L 750 256 
L 750 794 
z
" transform="scale(0.015625)"/>
     </defs>
     <use xlink:href="#DejaVuSans-7b"/>
     <use xlink:href="#DejaVuSans-66" x="63.623047"/>
     <use xlink:href="#DejaVuSans-31" x="98.828125"/>
     <use xlink:href="#DejaVuSans-35" x="162.451172"/>
     <use xlink:href="#DejaVuSans-2d" x="226.074219"/>
     <use xlink:href="#DejaVuSans-66" x="262.158203"/>
     <use xlink:href="#DejaVuSans-31" x="297.363281"/>
     <use xlink:href="#DejaVuSans-39" x="360.986328"/>
     <use xlink:href="#DejaVuSans-7d" x="424.609375"/>
     <use xlink:href="#DejaVuSans-2c" x="488.232422"/>
     <use xlink:href="#DejaVuSans-20" x="520.019531"/>
     <use xlink:href="#DejaVuSans-35" x="551.806641"/>
     <use xlink:href="#DejaVuSans-2d" x="615.429688"/>
     <use xlink:href="#DejaVuSans-44" x="651.513672"/>
    </g>
   </g>
   <g id="text_7">
    <!-- v2.6.3 -->
    <g style="fill: #808080" transform="translate(214.71875 288.777272) scale(0.1 -0.1)">
     <defs>
      <path id="DejaVuSans-76" d="M 191 3500 
L 800 3500 
L 1894 563 
L 2988 3500 
L 3597 3500 
L 2284 0 
L 1503 0 
L 191 3500 
z
" transform="scale(0.015625)"/>
      <path id="DejaVuSans-32" d="M 1228 531 
L 3431 531 
L 3431 0 
L 469 0 
L 469 531 
Q 828 903 1448 1529 
Q 2069 2156 2228 2338 
Q 2531 2678 2651 2914 
Q 2772 3150 2772 3378 
Q 2772 3750 2511 3984 
Q 2250 4219 1831 4219 
Q 1534 4219 1204 4116 
Q 875 4013 500 3803 
L 500 4441 
Q 881 4594 1212 4672 
Q 1544 4750 1819 4750 
Q 2544 4750 2975 4387 
Q 3406 4025 3406 3419 
Q 3406 3131 3298 2873 
Q 3191 2616 2906 2266 
Q 2828 2175 2409 1742 
Q 1991 1309 1228 531 
z
" transform="scale(0.015625)"/>
      <path id="DejaVuSans-2e" d="M 684 794 
L 1344 794 
L 1344 0 
L 684 0 
L 684 794 
z
" transform="scale(0.015625)"/>
      <path id="DejaVuSans-36" d="M 2113 2584 
Q 1688 2584 1439 2293 
Q 1191 2003 1191 1497 
Q 1191 994 1439 701 
Q 1688 409 2113 409 
Q 2538 409 2786 701 
Q 3034 994 3034 1497 
Q 3034 2003 2786 2293 
Q 2538 2584 2113 2584 
z
M 3366 4563 
L 3366 3988 
Q 3128 4100 2886 4159 
Q 2644 4219 2406 4219 
Q 1781 4219 1451 3797 
Q 1122 3375 1075 2522 
Q 1259 2794 1537 2939 
Q 1816 3084 2150 3084 
Q 2853 3084 3261 2657 
Q 3669 2231 3669 1497 
Q 3669 778 3244 343 
Q 2819 -91 2113 -91 
Q 1303 -91 875 529 
Q 447 1150 447 2328 
Q 447 3434 972 4092 
Q 1497 4750 2381 4750 
Q 2619 4750 2861 4703 
Q 3103 4656 3366 4563 
z
" transform="scale(0.015625)"/>
      <path id="DejaVuSans-33" d="M 2597 2516 
Q 3050 2419 3304 2112 
Q 3559 1806 3559 1356 
Q 3559 666 3084 287 
Q 2609 -91 1734 -91 
Q 1441 -91 1130 -33 
Q 819 25 488 141 
L 488 750 
Q 750 597 1062 519 
Q 1375 441 1716 441 
Q 2309 441 2620 675 
Q 2931 909 2931 1356 
Q 2931 1769 2642 2001 
Q 2353 2234 1838 2234 
L 1294 2234 
L 1294 2753 
L 1863 2753 
Q 2328 2753 2575 2939 
Q 2822 3125 2822 3475 
Q 2822 3834 2567 4026 
Q 2313 4219 1838 4219 
Q 1578 4219 1281 4162 
Q 984 4106 628 3988 
L 628 4550 
Q 988 4650 1302 4700 
Q 1616 4750 1894 4750 
Q 2613 4750 3031 4423 
Q 3450 4097 3450 3541 
Q 3450 3153 3228 2886 
Q 3006 2619 2597 2516 
z
" transform="scale(0.015625)"/>
     </defs>
     <use xlink:href="#DejaVuSans-76"/>
     <use xlink:href="#DejaVuSans-32" x="59.179688"/>
     <use xlink:href="#DejaVuSans-2e" x="122.802734"/>
     <use xlink:href="#DejaVuSans-36" x="154.589844"/>
     <use xlink:href="#DejaVuSans-2e" x="218.212891"/>
     <use xlink:href="#DejaVuSans-33" x="250"/>
    </g>
   </g>
  </g>
 </g>
 <defs>
  <clipPath id="pab0d0db087">
   <rect x="0" y="3.456" width="460.8" height="290.304"/>
  </clipPath>
 </defs>
</svg>
