<?xml version="1.0" encoding="utf-8" standalone="no"?>
<!DOCTYPE svg PUBLIC "-//W3C//DTD SVG 1.1//EN"
  "http://www.w3.org/Graphics/SVG/1.1/DTD/svg11.dtd">
<svg xmlns:xlink="http://www.w3.org/1999/xlink" width="460.8pt" height="345.6pt" viewBox="0 0 460.8 345.6" xmlns="http://www.w3.org/2000/svg" version="1.1">
 <metadata>
  <rdf:RDF xmlns:dc="http://purl.org/dc/elements/1.1/" xmlns:cc="http://creativecommons.org/ns#" xmlns:rdf="http://www.w3.org/1999/02/22-rdf-syntax-ns#">
   <cc:Work>
    <dc:type rdf:resource="http://purl.org/dc/dcmitype/StillImage"/>
    <dc:date>2024-01-17T14:59:42.637317</dc:date>
    <dc:format>image/svg+xml</dc:format>
    <dc:creator>
     <cc:Agent>
      <dc:title>Matplotlib v3.8.2, https://matplotlib.org/</dc:title>
     </cc:Agent>
    </dc:creator>
   </cc:Work>
  </rdf:RDF>
 </metadata>
 <defs>
  <style type="text/css">*{stroke-linejoin: round; stroke-linecap: butt}</style>
 </defs>
 <g id="figure_1">
  <g id="patch_1">
   <path d="M 0 345.6 
L 460.8 345.6 
L 460.8 0 
L 0 0 
z
" style="fill: #ffffff"/>
  </g>
  <g id="axes_1">
   <g id="patch_2">
    <path d="M 0 293.76 
L 460.8 293.76 
L 460.8 3.456 
L 0 3.456 
z
" style="fill: #ffffff"/>
   </g>
   <g id="matplotlib.axis_1">
    <g id="xtick_1">
     <g id="line2d_1">
      <path d="M 104.132958 293.76 
L 104.132958 3.456 
" clip-path="url(#p44289a08f2)" style="fill: none; stroke: #b0b0b0; stroke-width: 0.8; stroke-linecap: square"/>
     </g>
     <g id="line2d_2">
      <defs>
       <path id="m5cd0002fcd" d="M 0 0 
L 0 3.5 
" style="stroke: #000000; stroke-width: 0.8"/>
      </defs>
      <g>
       <use xlink:href="#m5cd0002fcd" x="104.132958" y="293.76" style="stroke: #000000; stroke-width: 0.8"/>
      </g>
     </g>
     <g id="text_1">
      <!-- -4 -->
      <g transform="translate(94.162645 315.956875) scale(0.2 -0.2)">
       <defs>
        <path id="DejaVuSans-2d" d="M 313 2009 
L 1997 2009 
L 1997 1497 
L 313 1497 
L 313 2009 
z
" transform="scale(0.015625)"/>
        <path id="DejaVuSans-34" d="M 2419 4116 
L 825 1625 
L 2419 1625 
L 2419 4116 
z
M 2253 4666 
L 3047 4666 
L 3047 1625 
L 3713 1625 
L 3713 1100 
L 3047 1100 
L 3047 0 
L 2419 0 
L 2419 1100 
L 313 1100 
L 313 1709 
L 2253 4666 
z
" transform="scale(0.015625)"/>
       </defs>
       <use xlink:href="#DejaVuSans-2d"/>
       <use xlink:href="#DejaVuSans-34" x="36.083984"/>
      </g>
     </g>
    </g>
    <g id="xtick_2">
     <g id="line2d_3">
      <path d="M 208.378536 293.76 
L 208.378536 3.456 
" clip-path="url(#p44289a08f2)" style="fill: none; stroke: #b0b0b0; stroke-width: 0.8; stroke-linecap: square"/>
     </g>
     <g id="line2d_4">
      <g>
       <use xlink:href="#m5cd0002fcd" x="208.378536" y="293.76" style="stroke: #000000; stroke-width: 0.8"/>
      </g>
     </g>
     <g id="text_2">
      <!-- 0 -->
      <g transform="translate(202.016036 315.956875) scale(0.2 -0.2)">
       <defs>
        <path id="DejaVuSans-30" d="M 2034 4250 
Q 1547 4250 1301 3770 
Q 1056 3291 1056 2328 
Q 1056 1369 1301 889 
Q 1547 409 2034 409 
Q 2525 409 2770 889 
Q 3016 1369 3016 2328 
Q 3016 3291 2770 3770 
Q 2525 4250 2034 4250 
z
M 2034 4750 
Q 2819 4750 3233 4129 
Q 3647 3509 3647 2328 
Q 3647 1150 3233 529 
Q 2819 -91 2034 -91 
Q 1250 -91 836 529 
Q 422 1150 422 2328 
Q 422 3509 836 4129 
Q 1250 4750 2034 4750 
z
" transform="scale(0.015625)"/>
       </defs>
       <use xlink:href="#DejaVuSans-30"/>
      </g>
     </g>
    </g>
    <g id="xtick_3">
     <g id="line2d_5">
      <path d="M 312.624115 293.76 
L 312.624115 3.456 
" clip-path="url(#p44289a08f2)" style="fill: none; stroke: #b0b0b0; stroke-width: 0.8; stroke-linecap: square"/>
     </g>
     <g id="line2d_6">
      <g>
       <use xlink:href="#m5cd0002fcd" x="312.624115" y="293.76" style="stroke: #000000; stroke-width: 0.8"/>
      </g>
     </g>
     <g id="text_3">
      <!-- 4 -->
      <g transform="translate(306.261615 315.956875) scale(0.2 -0.2)">
       <use xlink:href="#DejaVuSans-34"/>
      </g>
     </g>
    </g>
    <g id="xtick_4">
     <g id="line2d_7">
      <path d="M 416.869693 293.76 
L 416.869693 3.456 
" clip-path="url(#p44289a08f2)" style="fill: none; stroke: #b0b0b0; stroke-width: 0.8; stroke-linecap: square"/>
     </g>
     <g id="line2d_8">
      <g>
       <use xlink:href="#m5cd0002fcd" x="416.869693" y="293.76" style="stroke: #000000; stroke-width: 0.8"/>
      </g>
     </g>
     <g id="text_4">
      <!-- 8 -->
      <g transform="translate(410.507193 315.956875) scale(0.2 -0.2)">
       <defs>
        <path id="DejaVuSans-38" d="M 2034 2216 
Q 1584 2216 1326 1975 
Q 1069 1734 1069 1313 
Q 1069 891 1326 650 
Q 1584 409 2034 409 
Q 2484 409 2743 651 
Q 3003 894 3003 1313 
Q 3003 1734 2745 1975 
Q 2488 2216 2034 2216 
z
M 1403 2484 
Q 997 2584 770 2862 
Q 544 3141 544 3541 
Q 544 4100 942 4425 
Q 1341 4750 2034 4750 
Q 2731 4750 3128 4425 
Q 3525 4100 3525 3541 
Q 3525 3141 3298 2862 
Q 3072 2584 2669 2484 
Q 3125 2378 3379 2068 
Q 3634 1759 3634 1313 
Q 3634 634 3220 271 
Q 2806 -91 2034 -91 
Q 1263 -91 848 271 
Q 434 634 434 1313 
Q 434 1759 690 2068 
Q 947 2378 1403 2484 
z
M 1172 3481 
Q 1172 3119 1398 2916 
Q 1625 2713 2034 2713 
Q 2441 2713 2670 2916 
Q 2900 3119 2900 3481 
Q 2900 3844 2670 4047 
Q 2441 4250 2034 4250 
Q 1625 4250 1398 4047 
Q 1172 3844 1172 3481 
z
" transform="scale(0.015625)"/>
       </defs>
       <use xlink:href="#DejaVuSans-38"/>
      </g>
     </g>
    </g>
    <g id="text_5">
     <!-- log10 of Df -->
     <g transform="translate(175.214063 339.313125) scale(0.2 -0.2)">
      <defs>
       <path id="DejaVuSans-6c" d="M 603 4863 
L 1178 4863 
L 1178 0 
L 603 0 
L 603 4863 
z
" transform="scale(0.015625)"/>
       <path id="DejaVuSans-6f" d="M 1959 3097 
Q 1497 3097 1228 2736 
Q 959 2375 959 1747 
Q 959 1119 1226 758 
Q 1494 397 1959 397 
Q 2419 397 2687 759 
Q 2956 1122 2956 1747 
Q 2956 2369 2687 2733 
Q 2419 3097 1959 3097 
z
M 1959 3584 
Q 2709 3584 3137 3096 
Q 3566 2609 3566 1747 
Q 3566 888 3137 398 
Q 2709 -91 1959 -91 
Q 1206 -91 779 398 
Q 353 888 353 1747 
Q 353 2609 779 3096 
Q 1206 3584 1959 3584 
z
" transform="scale(0.015625)"/>
       <path id="DejaVuSans-67" d="M 2906 1791 
Q 2906 2416 2648 2759 
Q 2391 3103 1925 3103 
Q 1463 3103 1205 2759 
Q 947 2416 947 1791 
Q 947 1169 1205 825 
Q 1463 481 1925 481 
Q 2391 481 2648 825 
Q 2906 1169 2906 1791 
z
M 3481 434 
Q 3481 -459 3084 -895 
Q 2688 -1331 1869 -1331 
Q 1566 -1331 1297 -1286 
Q 1028 -1241 775 -1147 
L 775 -588 
Q 1028 -725 1275 -790 
Q 1522 -856 1778 -856 
Q 2344 -856 2625 -561 
Q 2906 -266 2906 331 
L 2906 616 
Q 2728 306 2450 153 
Q 2172 0 1784 0 
Q 1141 0 747 490 
Q 353 981 353 1791 
Q 353 2603 747 3093 
Q 1141 3584 1784 3584 
Q 2172 3584 2450 3431 
Q 2728 3278 2906 2969 
L 2906 3500 
L 3481 3500 
L 3481 434 
z
" transform="scale(0.015625)"/>
       <path id="DejaVuSans-31" d="M 794 531 
L 1825 531 
L 1825 4091 
L 703 3866 
L 703 4441 
L 1819 4666 
L 2450 4666 
L 2450 531 
L 3481 531 
L 3481 0 
L 794 0 
L 794 531 
z
" transform="scale(0.015625)"/>
       <path id="DejaVuSans-20" transform="scale(0.015625)"/>
       <path id="DejaVuSans-66" d="M 2375 4863 
L 2375 4384 
L 1825 4384 
Q 1516 4384 1395 4259 
Q 1275 4134 1275 3809 
L 1275 3500 
L 2222 3500 
L 2222 3053 
L 1275 3053 
L 1275 0 
L 697 0 
L 697 3053 
L 147 3053 
L 147 3500 
L 697 3500 
L 697 3744 
Q 697 4328 969 4595 
Q 1241 4863 1831 4863 
L 2375 4863 
z
" transform="scale(0.015625)"/>
       <path id="DejaVuSans-44" d="M 1259 4147 
L 1259 519 
L 2022 519 
Q 2988 519 3436 956 
Q 3884 1394 3884 2338 
Q 3884 3275 3436 3711 
Q 2988 4147 2022 4147 
L 1259 4147 
z
M 628 4666 
L 1925 4666 
Q 3281 4666 3915 4102 
Q 4550 3538 4550 2338 
Q 4550 1131 3912 565 
Q 3275 0 1925 0 
L 628 0 
L 628 4666 
z
" transform="scale(0.015625)"/>
      </defs>
      <use xlink:href="#DejaVuSans-6c"/>
      <use xlink:href="#DejaVuSans-6f" x="27.783203"/>
      <use xlink:href="#DejaVuSans-67" x="88.964844"/>
      <use xlink:href="#DejaVuSans-31" x="152.441406"/>
      <use xlink:href="#DejaVuSans-30" x="216.064453"/>
      <use xlink:href="#DejaVuSans-20" x="279.6875"/>
      <use xlink:href="#DejaVuSans-6f" x="311.474609"/>
      <use xlink:href="#DejaVuSans-66" x="372.65625"/>
      <use xlink:href="#DejaVuSans-20" x="407.861328"/>
      <use xlink:href="#DejaVuSans-44" x="439.648438"/>
      <use xlink:href="#DejaVuSans-66" x="516.650391"/>
     </g>
    </g>
   </g>
   <g id="matplotlib.axis_2">
    <g id="ytick_1">
     <g id="line2d_9">
      <path d="M 0 293.76 
L 460.8 293.76 
" clip-path="url(#p44289a08f2)" style="fill: none; stroke: #b0b0b0; stroke-width: 0.8; stroke-linecap: square"/>
     </g>
     <g id="line2d_10">
      <defs>
       <path id="m59d795f013" d="M 0 0 
L -3.5 0 
" style="stroke: #000000; stroke-width: 0.8"/>
      </defs>
      <g>
       <use xlink:href="#m59d795f013" x="0" y="293.76" style="stroke: #000000; stroke-width: 0.8"/>
      </g>
     </g>
    </g>
    <g id="ytick_2">
     <g id="line2d_11">
      <path d="M 0 236.274059 
L 460.8 236.274059 
" clip-path="url(#p44289a08f2)" style="fill: none; stroke: #b0b0b0; stroke-width: 0.8; stroke-linecap: square"/>
     </g>
     <g id="line2d_12">
      <g>
       <use xlink:href="#m59d795f013" x="0" y="236.274059" style="stroke: #000000; stroke-width: 0.8"/>
      </g>
     </g>
    </g>
    <g id="ytick_3">
     <g id="line2d_13">
      <path d="M 0 178.788119 
L 460.8 178.788119 
" clip-path="url(#p44289a08f2)" style="fill: none; stroke: #b0b0b0; stroke-width: 0.8; stroke-linecap: square"/>
     </g>
     <g id="line2d_14">
      <g>
       <use xlink:href="#m59d795f013" x="0" y="178.788119" style="stroke: #000000; stroke-width: 0.8"/>
      </g>
     </g>
    </g>
    <g id="ytick_4">
     <g id="line2d_15">
      <path d="M 0 121.302178 
L 460.8 121.302178 
" clip-path="url(#p44289a08f2)" style="fill: none; stroke: #b0b0b0; stroke-width: 0.8; stroke-linecap: square"/>
     </g>
     <g id="line2d_16">
      <g>
       <use xlink:href="#m59d795f013" x="0" y="121.302178" style="stroke: #000000; stroke-width: 0.8"/>
      </g>
     </g>
    </g>
    <g id="ytick_5">
     <g id="line2d_17">
      <path d="M 0 63.816238 
L 460.8 63.816238 
" clip-path="url(#p44289a08f2)" style="fill: none; stroke: #b0b0b0; stroke-width: 0.8; stroke-linecap: square"/>
     </g>
     <g id="line2d_18">
      <g>
       <use xlink:href="#m59d795f013" x="0" y="63.816238" style="stroke: #000000; stroke-width: 0.8"/>
      </g>
     </g>
    </g>
    <g id="ytick_6">
     <g id="line2d_19">
      <path d="M 0 6.330297 
L 460.8 6.330297 
" clip-path="url(#p44289a08f2)" style="fill: none; stroke: #b0b0b0; stroke-width: 0.8; stroke-linecap: square"/>
     </g>
     <g id="line2d_20">
      <g>
       <use xlink:href="#m59d795f013" x="0" y="6.330297" style="stroke: #000000; stroke-width: 0.8"/>
      </g>
     </g>
    </g>
   </g>
   <g id="line2d_21">
    <path d="M -1 289.927604 
L -0.112621 289.927604 
L -0.112621 259.268436 
L 29.109733 259.268436 
L 29.109733 255.43604 
L 59.257458 255.43604 
L 59.257458 251.603644 
L 71.788795 251.603644 
L 71.788795 247.771248 
L 108.943071 247.771248 
L 108.943071 243.938851 
L 121.37256 243.938851 
L 121.37256 240.106455 
L 156.541817 240.106455 
L 156.541817 236.274059 
L 162.861736 236.274059 
L 162.861736 232.441663 
L 174.411609 232.441663 
L 174.411609 228.609267 
L 178.870942 228.609267 
L 178.870942 224.776871 
L 182.27066 224.776871 
L 182.27066 220.944475 
L 209.36327 220.944475 
L 209.36327 217.112079 
L 219.806034 217.112079 
L 219.806034 213.279683 
L 223.858141 213.279683 
L 223.858141 209.447287 
L 230.862579 209.447287 
L 230.862579 205.614891 
L 233.075392 205.614891 
L 233.075392 201.782495 
L 235.697591 201.782495 
L 235.697591 197.950099 
L 237.603348 197.950099 
L 237.603348 190.285307 
L 238.297788 190.285307 
L 238.297788 182.620515 
L 243.042169 182.620515 
L 243.042169 178.788119 
L 243.701233 178.788119 
L 243.701233 174.955723 
L 245.201878 174.955723 
L 245.201878 171.123327 
L 248.52405 171.123327 
L 248.52405 167.290931 
L 249.197804 167.290931 
L 249.197804 163.458535 
L 251.898452 163.458535 
L 251.898452 159.626139 
L 252.598782 159.626139 
L 252.598782 155.793743 
L 254.84933 155.793743 
L 254.84933 151.961347 
L 257.127674 151.961347 
L 257.127674 148.12895 
L 257.638101 148.12895 
L 257.638101 144.296554 
L 258.197837 144.296554 
L 258.197837 140.464158 
L 258.867761 140.464158 
L 258.867761 136.631762 
L 259.863335 136.631762 
L 259.967417 128.96697 
L 260.79264 128.96697 
L 260.79264 125.134574 
L 261.827281 125.134574 
L 261.827281 121.302178 
L 262.119787 121.302178 
L 262.119787 117.469782 
L 262.507817 117.469782 
L 262.601435 109.80499 
L 262.694475 109.80499 
L 262.694475 105.972594 
L 262.845644 105.972594 
L 262.845644 102.140198 
L 264.142608 102.140198 
L 264.142608 98.307802 
L 264.810494 98.307802 
L 264.886441 90.64301 
L 265.75734 90.64301 
L 265.75734 86.810614 
L 266.042626 86.810614 
L 266.042626 82.978218 
L 266.515991 82.978218 
L 266.515991 79.145822 
L 266.842055 79.145822 
L 266.842055 75.313426 
L 267.269979 75.313426 
L 267.322382 67.648634 
L 267.528283 67.648634 
L 267.528283 63.816238 
L 268.104273 63.816238 
L 268.104273 59.983842 
L 268.401602 59.983842 
L 268.401602 56.151446 
L 268.732909 56.151446 
L 268.735451 48.486653 
L 271.473697 48.486653 
L 271.473697 44.654257 
L 275.500538 44.654257 
L 275.500538 40.821861 
L 275.69617 40.821861 
L 275.69617 36.989465 
L 276.198521 36.989465 
L 276.198521 33.157069 
L 277.222826 33.157069 
L 277.222826 29.324673 
L 278.257338 29.324673 
L 278.257338 25.492277 
L 285.987773 25.492277 
L 285.987773 21.659881 
L 294.769602 21.659881 
L 294.769602 17.827485 
L 297.984199 17.827485 
L 298.08679 10.162693 
L 312.162401 10.162693 
L 312.162401 6.330297 
L 312.162401 6.330297 
L 460.8 6.330297 
L 460.8 6.330297 
" clip-path="url(#p44289a08f2)" style="fill: none; stroke: #ff0000; stroke-width: 3; stroke-linecap: square"/>
   </g>
   <g id="line2d_22">
    <path d="M 223.963761 293.76 
L 223.963761 289.927604 
L 237.255041 289.927604 
L 237.255041 286.095208 
L 241.058337 286.095208 
L 241.058337 282.262812 
L 243.602038 282.262812 
L 243.602038 278.430416 
L 245.037636 278.430416 
L 245.037636 274.59802 
L 246.093497 274.59802 
L 246.093497 270.765624 
L 246.75824 270.765624 
L 246.75824 266.933228 
L 247.24183 266.933228 
L 247.24183 263.100832 
L 248.105603 263.100832 
L 248.105603 259.268436 
L 248.23569 259.268436 
L 248.23569 255.43604 
L 248.365549 255.43604 
L 248.365549 251.603644 
L 248.857838 251.603644 
L 248.857838 247.771248 
L 249.602464 247.771248 
L 249.602464 243.938851 
L 249.942305 243.938851 
L 249.942305 240.106455 
L 253.527577 240.106455 
L 253.527577 236.274059 
L 258.898276 236.274059 
L 258.898276 232.441663 
L 259.084736 232.441663 
L 259.084736 228.609267 
L 259.706463 228.609267 
L 259.706463 224.776871 
L 260.881775 224.776871 
L 260.881775 220.944475 
L 261.353474 220.944475 
L 261.3535 163.458535 
L 262.391649 163.458535 
L 262.391649 159.626139 
L 262.772819 159.626139 
L 262.772819 155.793743 
L 263.214336 155.793743 
L 263.214336 151.961347 
L 263.505647 151.961347 
L 263.505647 148.12895 
L 265.310205 148.12895 
L 265.310205 144.296554 
L 265.700928 144.296554 
L 265.700928 140.464158 
L 266.010241 140.464158 
L 266.010241 136.631762 
L 266.706285 136.631762 
L 266.706285 132.799366 
L 267.569392 132.799366 
L 267.627181 125.134574 
L 267.682554 125.134574 
L 267.682554 121.302178 
L 267.876955 121.302178 
L 267.876955 117.469782 
L 268.457282 117.469782 
L 268.478011 109.80499 
L 270.171079 109.80499 
L 270.198086 102.140198 
L 270.535627 102.140198 
L 270.535627 98.307802 
L 270.676201 98.307802 
L 270.676201 94.475406 
L 270.882618 94.475406 
L 270.882618 90.64301 
L 271.194164 90.64301 
L 271.27071 75.313426 
L 271.743732 75.313426 
L 271.743732 71.48103 
L 272.497249 71.48103 
L 272.497249 67.648634 
L 277.015342 67.648634 
L 277.015342 63.816238 
L 316.268141 63.816238 
L 316.268141 59.983842 
L 339.557825 59.983842 
L 339.557825 56.151446 
L 344.804864 56.151446 
L 344.804864 52.31905 
L 353.469133 52.31905 
L 353.469133 48.486653 
L 362.08342 48.486653 
L 362.08342 44.654257 
L 363.896882 44.654257 
L 363.896882 40.821861 
L 378.799004 40.821861 
L 378.799004 36.989465 
L 379.063583 36.989465 
L 379.063583 33.157069 
L 379.477195 33.157069 
L 379.477195 29.324673 
L 384.489554 29.324673 
L 384.489554 25.492277 
L 387.107771 25.492277 
L 387.107771 21.659881 
L 389.529365 21.659881 
L 389.529365 17.827485 
L 389.90633 17.827485 
L 389.90633 13.995089 
L 391.160801 13.995089 
L 391.160801 10.162693 
L 392.354805 10.162693 
L 392.354805 6.330297 
L 392.354805 6.330297 
L 460.8 6.330297 
L 460.8 6.330297 
" clip-path="url(#p44289a08f2)" style="fill: none; stroke: #00bfbf; stroke-width: 1.5; stroke-linecap: square"/>
   </g>
   <g id="line2d_23">
    <path d="M 223.960982 293.76 
L 223.960982 289.927604 
L 237.254303 289.927604 
L 237.254303 286.095208 
L 241.057723 286.095208 
L 241.057723 282.262812 
L 243.601443 282.262812 
L 243.601443 278.430416 
L 245.037636 278.430416 
L 245.037636 274.59802 
L 246.093497 274.59802 
L 246.093497 270.765624 
L 246.75824 270.765624 
L 246.75824 266.933228 
L 247.24183 266.933228 
L 247.24183 263.100832 
L 248.105106 263.100832 
L 248.105106 259.268436 
L 248.23569 259.268436 
L 248.23569 255.43604 
L 248.365004 255.43604 
L 248.365004 251.603644 
L 248.857838 251.603644 
L 248.857838 247.771248 
L 249.602434 247.771248 
L 249.602434 243.938851 
L 249.941767 243.938851 
L 249.941767 240.106455 
L 253.527168 240.106455 
L 253.527168 236.274059 
L 258.896031 236.274059 
L 258.896031 232.441663 
L 259.082295 232.441663 
L 259.082295 228.609267 
L 259.703433 228.609267 
L 259.703433 224.776871 
L 260.879692 224.776871 
L 260.879692 220.944475 
L 261.353237 220.944475 
L 261.353417 163.458535 
L 262.389644 163.458535 
L 262.389644 159.626139 
L 262.769817 159.626139 
L 262.769817 155.793743 
L 263.21124 155.793743 
L 263.21124 151.961347 
L 263.504716 151.961347 
L 263.504716 148.12895 
L 265.310099 148.12895 
L 265.310099 144.296554 
L 265.697565 144.296554 
L 265.697565 140.464158 
L 266.007824 140.464158 
L 266.007824 136.631762 
L 266.704122 136.631762 
L 266.704122 132.799366 
L 267.567776 132.799366 
L 267.627008 125.134574 
L 267.681848 125.134574 
L 267.681848 121.302178 
L 267.876922 121.302178 
L 267.876922 117.469782 
L 268.456724 117.469782 
L 268.475747 109.80499 
L 270.168462 109.80499 
L 270.196805 102.140198 
L 270.533092 102.140198 
L 270.533092 98.307802 
L 270.674017 98.307802 
L 270.674017 94.475406 
L 270.882618 94.475406 
L 270.882618 90.64301 
L 271.193726 90.64301 
L 271.270242 75.313426 
L 271.742062 75.313426 
L 271.742062 71.48103 
L 272.494279 71.48103 
L 272.494279 67.648634 
L 277.014139 67.648634 
L 277.014139 63.816238 
L 316.267425 63.816238 
L 316.267425 59.983842 
L 339.55782 59.983842 
L 339.55782 56.151446 
L 344.804864 56.151446 
L 344.804864 52.31905 
L 353.469133 52.31905 
L 353.469133 48.486653 
L 362.083408 48.486653 
L 362.083408 44.654257 
L 363.896194 44.654257 
L 363.896194 40.821861 
L 378.799004 40.821861 
L 378.799004 36.989465 
L 379.06358 36.989465 
L 379.06358 33.157069 
L 379.475096 33.157069 
L 379.475096 29.324673 
L 384.487434 29.324673 
L 384.487434 25.492277 
L 387.107737 25.492277 
L 387.107737 21.659881 
L 389.529365 21.659881 
L 389.529365 17.827485 
L 389.906329 17.827485 
L 389.906329 13.995089 
L 391.158866 13.995089 
L 391.158866 10.162693 
L 392.354804 10.162693 
L 392.354804 6.330297 
L 392.354804 6.330297 
L 460.8 6.330297 
L 460.8 6.330297 
" clip-path="url(#p44289a08f2)" style="fill: none; stroke: #bf00bf; stroke-width: 1.5; stroke-linecap: square"/>
   </g>
   <g id="line2d_24">
    <path d="M 223.956025 293.76 
L 223.956025 289.927604 
L 237.248211 289.927604 
L 237.248211 286.095208 
L 241.050627 286.095208 
L 241.050627 282.262812 
L 243.596787 282.262812 
L 243.596787 278.430416 
L 245.034198 278.430416 
L 245.034198 274.59802 
L 246.088473 274.59802 
L 246.088473 270.765624 
L 246.756128 270.765624 
L 246.756128 266.933228 
L 247.238163 266.933228 
L 247.238163 263.100832 
L 248.101129 263.100832 
L 248.101129 259.268436 
L 248.231552 259.268436 
L 248.231552 255.43604 
L 248.359846 255.43604 
L 248.359846 251.603644 
L 248.854347 251.603644 
L 248.854347 247.771248 
L 249.600045 247.771248 
L 249.600045 243.938851 
L 249.938403 243.938851 
L 249.938403 240.106455 
L 253.524504 240.106455 
L 253.524504 236.274059 
L 258.887589 236.274059 
L 258.887589 232.441663 
L 259.074066 232.441663 
L 259.074066 228.609267 
L 259.687179 228.609267 
L 259.687179 224.776871 
L 260.864949 224.776871 
L 260.864949 220.944475 
L 261.35166 220.944475 
L 261.352348 163.458535 
L 262.375203 163.458535 
L 262.375203 159.626139 
L 262.753936 159.626139 
L 262.753936 155.793743 
L 263.20022 155.793743 
L 263.20022 151.961347 
L 263.489386 151.961347 
L 263.489386 148.12895 
L 265.298829 148.12895 
L 265.298829 144.296554 
L 265.678428 144.296554 
L 265.678428 140.464158 
L 265.986353 140.464158 
L 265.986353 136.631762 
L 266.691208 136.631762 
L 266.691208 132.799366 
L 267.556493 132.799366 
L 267.667579 121.302178 
L 267.865222 121.302178 
L 267.865222 117.469782 
L 268.447108 117.469782 
L 268.464552 109.80499 
L 270.158954 109.80499 
L 270.17088 102.140198 
L 270.525555 102.140198 
L 270.525555 98.307802 
L 270.655984 98.307802 
L 270.655984 94.475406 
L 270.854361 94.475406 
L 270.854361 90.64301 
L 271.188208 90.64301 
L 271.248088 75.313426 
L 271.729945 75.313426 
L 271.729945 71.48103 
L 272.479163 71.48103 
L 272.479163 67.648634 
L 277.00532 67.648634 
L 277.00532 63.816238 
L 316.210698 63.816238 
L 316.210698 59.983842 
L 339.541133 59.983842 
L 339.541133 56.151446 
L 344.746219 56.151446 
L 344.746219 52.31905 
L 353.449068 52.31905 
L 353.449068 48.486653 
L 362.04001 48.486653 
L 362.04001 44.654257 
L 363.870394 44.654257 
L 363.870394 40.821861 
L 378.774284 40.821861 
L 378.774284 36.989465 
L 379.041858 36.989465 
L 379.041858 33.157069 
L 379.47132 33.157069 
L 379.47132 29.324673 
L 384.483685 29.324673 
L 384.483685 25.492277 
L 387.099592 25.492277 
L 387.099592 21.659881 
L 389.521977 21.659881 
L 389.521977 17.827485 
L 389.898767 17.827485 
L 389.898767 13.995089 
L 391.155405 13.995089 
L 391.155405 10.162693 
L 392.345109 10.162693 
L 392.345109 6.330297 
L 392.345109 6.330297 
L 460.8 6.330297 
L 460.8 6.330297 
" clip-path="url(#p44289a08f2)" style="fill: none; stroke: #000000; stroke-width: 1.5; stroke-linecap: square"/>
   </g>
   <g id="line2d_25">
    <path d="M 223.028027 293.76 
L 223.028027 289.927604 
L 236.339196 289.927604 
L 236.339196 286.095208 
L 240.40191 286.095208 
L 240.40191 282.262812 
L 242.930804 282.262812 
L 242.930804 278.430416 
L 244.487871 278.430416 
L 244.487871 274.59802 
L 245.630658 274.59802 
L 245.630658 270.765624 
L 246.436488 270.765624 
L 246.436488 266.933228 
L 246.709845 266.933228 
L 246.709845 263.100832 
L 247.503237 263.100832 
L 247.503237 259.268436 
L 247.781245 259.268436 
L 247.870802 251.603644 
L 248.453903 251.603644 
L 248.453903 247.771248 
L 249.277742 247.771248 
L 249.277742 243.938851 
L 249.465405 243.938851 
L 249.465405 240.106455 
L 253.221195 240.106455 
L 253.221195 236.274059 
L 257.809689 236.274059 
L 257.809689 232.441663 
L 258.445426 232.441663 
L 258.445426 228.609267 
L 258.583232 228.609267 
L 258.583232 224.776871 
L 260.622091 224.776871 
L 260.622091 220.944475 
L 261.16401 220.944475 
L 261.211068 159.626139 
L 261.4762 159.626139 
L 261.4762 155.793743 
L 261.879824 155.793743 
L 261.911606 148.12895 
L 263.998229 148.12895 
L 263.998229 144.296554 
L 264.149775 144.296554 
L 264.149775 140.464158 
L 264.345615 140.464158 
L 264.345615 136.631762 
L 264.721268 136.631762 
L 264.721268 132.799366 
L 265.434745 132.799366 
L 265.434745 128.96697 
L 265.831446 128.96697 
L 265.831446 125.134574 
L 266.229979 125.134574 
L 266.229979 121.302178 
L 267.329482 121.302178 
L 267.329482 117.469782 
L 267.441888 117.469782 
L 267.441888 113.637386 
L 267.685962 113.637386 
L 267.685962 109.80499 
L 268.975121 109.80499 
L 268.995729 102.140198 
L 269.579191 102.140198 
L 269.579191 98.307802 
L 269.770548 98.307802 
L 269.770548 94.475406 
L 270.017997 94.475406 
L 270.017997 90.64301 
L 270.184134 90.64301 
L 270.184134 86.810614 
L 270.307813 86.810614 
L 270.307813 82.978218 
L 270.536805 82.978218 
L 270.613803 75.313426 
L 271.281111 75.313426 
L 271.281111 71.48103 
L 272.33266 71.48103 
L 272.33266 67.648634 
L 276.91785 67.648634 
L 276.91785 63.816238 
L 312.484093 63.816238 
L 312.484093 59.983842 
L 337.632284 59.983842 
L 337.632284 56.151446 
L 340.337916 56.151446 
L 340.337916 52.31905 
L 351.033281 52.31905 
L 351.033281 48.486653 
L 359.312371 48.486653 
L 359.312371 44.654257 
L 362.474079 44.654257 
L 362.474079 40.821861 
L 376.528307 40.821861 
L 376.528307 36.989465 
L 377.162604 36.989465 
L 377.162604 33.157069 
L 378.76589 33.157069 
L 378.76589 29.324673 
L 383.772955 29.324673 
L 383.772955 25.492277 
L 386.192143 25.492277 
L 386.192143 21.659881 
L 388.863032 21.659881 
L 388.863032 17.827485 
L 389.225269 17.827485 
L 389.225269 13.995089 
L 390.492611 13.995089 
L 390.492611 10.162693 
L 391.440924 10.162693 
L 391.440924 6.330297 
L 391.440924 6.330297 
L 460.8 6.330297 
L 460.8 6.330297 
" clip-path="url(#p44289a08f2)" style="fill: none; stroke: #00bfbf; stroke-width: 1.5; stroke-linecap: square"/>
   </g>
   <g id="line2d_26">
    <path d="M -0.112621 293.76 
L -0.112621 263.100832 
L 193.084201 263.100832 
L 193.084201 259.268436 
L 199.059501 259.268436 
L 199.059501 255.43604 
L 205.201414 255.43604 
L 205.201414 251.603644 
L 209.153012 251.603644 
L 209.153012 247.771248 
L 209.487571 247.771248 
L 209.487571 243.938851 
L 210.171491 243.938851 
L 210.171491 240.106455 
L 214.106929 240.106455 
L 214.106929 236.274059 
L 214.606404 236.274059 
L 214.606404 232.441663 
L 217.92804 232.441663 
L 217.92804 228.609267 
L 219.647582 228.609267 
L 219.647582 224.776871 
L 220.072847 224.776871 
L 220.072847 220.944475 
L 224.712379 220.944475 
L 224.712379 217.112079 
L 234.813899 217.112079 
L 234.813899 213.279683 
L 235.726622 213.279683 
L 235.726622 209.447287 
L 237.055505 209.447287 
L 237.055505 205.614891 
L 237.603348 205.614891 
L 237.603348 197.950099 
L 241.244863 197.950099 
L 241.244863 194.117703 
L 241.680782 194.117703 
L 241.680782 190.285307 
L 243.042169 190.285307 
L 243.125695 178.788119 
L 245.20874 178.788119 
L 245.20874 174.955723 
L 249.197804 174.955723 
L 249.197804 171.123327 
L 251.920211 171.123327 
L 251.920211 167.290931 
L 253.639364 167.290931 
L 253.639364 163.458535 
L 255.600563 163.458535 
L 255.600563 159.626139 
L 257.160403 159.626139 
L 257.160403 155.793743 
L 257.639754 155.793743 
L 257.639754 151.961347 
L 258.197842 151.961347 
L 258.197842 148.12895 
L 259.863646 148.12895 
L 259.863646 144.296554 
L 260.455343 144.296554 
L 260.455343 140.464158 
L 260.794363 140.464158 
L 260.794363 136.631762 
L 262.119787 136.631762 
L 262.178462 128.96697 
L 262.507817 128.96697 
L 262.507817 125.134574 
L 262.845645 125.134574 
L 262.845645 121.302178 
L 263.449968 121.302178 
L 263.449968 117.469782 
L 264.142658 117.469782 
L 264.142658 113.637386 
L 264.621959 113.637386 
L 264.621959 109.80499 
L 264.810494 109.80499 
L 264.888988 102.140198 
L 266.53153 102.140198 
L 266.53153 98.307802 
L 267.002868 98.307802 
L 267.002868 94.475406 
L 267.322382 94.475406 
L 267.355212 86.810614 
L 267.692435 86.810614 
L 267.745701 79.145822 
L 267.829566 79.145822 
L 267.829566 75.313426 
L 268.104291 75.313426 
L 268.104291 71.48103 
L 268.409431 71.48103 
L 268.409431 67.648634 
L 268.732925 67.648634 
L 268.735451 59.983842 
L 271.558134 59.983842 
L 271.558134 56.151446 
L 275.500538 56.151446 
L 275.500538 52.31905 
L 277.222826 52.31905 
L 277.222826 48.486653 
L 293.508295 48.486653 
L 293.508295 44.654257 
L 294.769602 44.654257 
L 294.769602 40.821861 
L 298.087543 40.821861 
L 298.087543 36.989465 
L 307.116397 36.989465 
L 307.116397 33.157069 
L 311.311278 33.157069 
L 311.311278 29.324673 
L 312.162401 29.324673 
L 312.162401 25.492277 
L 316.279506 25.492277 
L 316.279506 21.659881 
L 318.123937 21.659881 
L 318.123937 17.827485 
L 319.022304 17.827485 
L 319.022304 13.995089 
L 328.431747 13.995089 
L 328.431747 10.162693 
L 330.029407 10.162693 
L 330.029407 6.330297 
L 330.029407 6.330297 
L 460.8 6.330297 
L 460.8 6.330297 
" clip-path="url(#p44289a08f2)" style="fill: none; stroke: #bf00bf; stroke-width: 1.5; stroke-linecap: square"/>
   </g>
   <g id="patch_3">
    <path d="M 0 293.76 
L 0 3.456 
" style="fill: none; stroke: #000000; stroke-width: 0.8; stroke-linejoin: miter; stroke-linecap: square"/>
   </g>
   <g id="patch_4">
    <path d="M 460.8 293.76 
L 460.8 3.456 
" style="fill: none; stroke: #000000; stroke-width: 0.8; stroke-linejoin: miter; stroke-linecap: square"/>
   </g>
   <g id="patch_5">
    <path d="M 0 293.76 
L 460.8 293.76 
" style="fill: none; stroke: #000000; stroke-width: 0.8; stroke-linejoin: miter; stroke-linecap: square"/>
   </g>
   <g id="patch_6">
    <path d="M 0 3.456 
L 460.8 3.456 
" style="fill: none; stroke: #000000; stroke-width: 0.8; stroke-linejoin: miter; stroke-linecap: square"/>
   </g>
   <g id="text_6">
    <!-- {f1-f5}, 5-D -->
    <g transform="translate(331.334 287.95392) scale(0.2 -0.2)">
     <defs>
      <path id="DejaVuSans-7b" d="M 3272 -594 
L 3272 -1044 
L 3078 -1044 
Q 2300 -1044 2036 -812 
Q 1772 -581 1772 109 
L 1772 856 
Q 1772 1328 1603 1509 
Q 1434 1691 991 1691 
L 800 1691 
L 800 2138 
L 991 2138 
Q 1438 2138 1605 2317 
Q 1772 2497 1772 2963 
L 1772 3713 
Q 1772 4403 2036 4633 
Q 2300 4863 3078 4863 
L 3272 4863 
L 3272 4416 
L 3059 4416 
Q 2619 4416 2484 4278 
Q 2350 4141 2350 3700 
L 2350 2925 
Q 2350 2434 2208 2212 
Q 2066 1991 1722 1913 
Q 2069 1828 2209 1606 
Q 2350 1384 2350 897 
L 2350 122 
Q 2350 -319 2484 -456 
Q 2619 -594 3059 -594 
L 3272 -594 
z
" transform="scale(0.015625)"/>
      <path id="DejaVuSans-35" d="M 691 4666 
L 3169 4666 
L 3169 4134 
L 1269 4134 
L 1269 2991 
Q 1406 3038 1543 3061 
Q 1681 3084 1819 3084 
Q 2600 3084 3056 2656 
Q 3513 2228 3513 1497 
Q 3513 744 3044 326 
Q 2575 -91 1722 -91 
Q 1428 -91 1123 -41 
Q 819 9 494 109 
L 494 744 
Q 775 591 1075 516 
Q 1375 441 1709 441 
Q 2250 441 2565 725 
Q 2881 1009 2881 1497 
Q 2881 1984 2565 2268 
Q 2250 2553 1709 2553 
Q 1456 2553 1204 2497 
Q 953 2441 691 2322 
L 691 4666 
z
" transform="scale(0.015625)"/>
      <path id="DejaVuSans-7d" d="M 800 -594 
L 1019 -594 
Q 1456 -594 1589 -459 
Q 1722 -325 1722 122 
L 1722 897 
Q 1722 1384 1862 1606 
Q 2003 1828 2350 1913 
Q 2003 1991 1862 2212 
Q 1722 2434 1722 2925 
L 1722 3700 
Q 1722 4144 1589 4280 
Q 1456 4416 1019 4416 
L 800 4416 
L 800 4863 
L 997 4863 
Q 1775 4863 2036 4633 
Q 2297 4403 2297 3713 
L 2297 2963 
Q 2297 2497 2465 2317 
Q 2634 2138 3078 2138 
L 3272 2138 
L 3272 1691 
L 3078 1691 
Q 2634 1691 2465 1509 
Q 2297 1328 2297 856 
L 2297 109 
Q 2297 -581 2036 -812 
Q 1775 -1044 997 -1044 
L 800 -1044 
L 800 -594 
z
" transform="scale(0.015625)"/>
      <path id="DejaVuSans-2c" d="M 750 794 
L 1409 794 
L 1409 256 
L 897 -744 
L 494 -744 
L 750 256 
L 750 794 
z
" transform="scale(0.015625)"/>
     </defs>
     <use xlink:href="#DejaVuSans-7b"/>
     <use xlink:href="#DejaVuSans-66" x="63.623047"/>
     <use xlink:href="#DejaVuSans-31" x="98.828125"/>
     <use xlink:href="#DejaVuSans-2d" x="162.451172"/>
     <use xlink:href="#DejaVuSans-66" x="198.535156"/>
     <use xlink:href="#DejaVuSans-35" x="233.740234"/>
     <use xlink:href="#DejaVuSans-7d" x="297.363281"/>
     <use xlink:href="#DejaVuSans-2c" x="360.986328"/>
     <use xlink:href="#DejaVuSans-20" x="392.773438"/>
     <use xlink:href="#DejaVuSans-35" x="424.560547"/>
     <use xlink:href="#DejaVuSans-2d" x="488.183594"/>
     <use xlink:href="#DejaVuSans-44" x="524.267578"/>
    </g>
   </g>
   <g id="text_7">
    <!-- v2.6.3 -->
    <g style="fill: #808080" transform="translate(214.71875 288.777272) scale(0.1 -0.1)">
     <defs>
      <path id="DejaVuSans-76" d="M 191 3500 
L 800 3500 
L 1894 563 
L 2988 3500 
L 3597 3500 
L 2284 0 
L 1503 0 
L 191 3500 
z
" transform="scale(0.015625)"/>
      <path id="DejaVuSans-32" d="M 1228 531 
L 3431 531 
L 3431 0 
L 469 0 
L 469 531 
Q 828 903 1448 1529 
Q 2069 2156 2228 2338 
Q 2531 2678 2651 2914 
Q 2772 3150 2772 3378 
Q 2772 3750 2511 3984 
Q 2250 4219 1831 4219 
Q 1534 4219 1204 4116 
Q 875 4013 500 3803 
L 500 4441 
Q 881 4594 1212 4672 
Q 1544 4750 1819 4750 
Q 2544 4750 2975 4387 
Q 3406 4025 3406 3419 
Q 3406 3131 3298 2873 
Q 3191 2616 2906 2266 
Q 2828 2175 2409 1742 
Q 1991 1309 1228 531 
z
" transform="scale(0.015625)"/>
      <path id="DejaVuSans-2e" d="M 684 794 
L 1344 794 
L 1344 0 
L 684 0 
L 684 794 
z
" transform="scale(0.015625)"/>
      <path id="DejaVuSans-36" d="M 2113 2584 
Q 1688 2584 1439 2293 
Q 1191 2003 1191 1497 
Q 1191 994 1439 701 
Q 1688 409 2113 409 
Q 2538 409 2786 701 
Q 3034 994 3034 1497 
Q 3034 2003 2786 2293 
Q 2538 2584 2113 2584 
z
M 3366 4563 
L 3366 3988 
Q 3128 4100 2886 4159 
Q 2644 4219 2406 4219 
Q 1781 4219 1451 3797 
Q 1122 3375 1075 2522 
Q 1259 2794 1537 2939 
Q 1816 3084 2150 3084 
Q 2853 3084 3261 2657 
Q 3669 2231 3669 1497 
Q 3669 778 3244 343 
Q 2819 -91 2113 -91 
Q 1303 -91 875 529 
Q 447 1150 447 2328 
Q 447 3434 972 4092 
Q 1497 4750 2381 4750 
Q 2619 4750 2861 4703 
Q 3103 4656 3366 4563 
z
" transform="scale(0.015625)"/>
      <path id="DejaVuSans-33" d="M 2597 2516 
Q 3050 2419 3304 2112 
Q 3559 1806 3559 1356 
Q 3559 666 3084 287 
Q 2609 -91 1734 -91 
Q 1441 -91 1130 -33 
Q 819 25 488 141 
L 488 750 
Q 750 597 1062 519 
Q 1375 441 1716 441 
Q 2309 441 2620 675 
Q 2931 909 2931 1356 
Q 2931 1769 2642 2001 
Q 2353 2234 1838 2234 
L 1294 2234 
L 1294 2753 
L 1863 2753 
Q 2328 2753 2575 2939 
Q 2822 3125 2822 3475 
Q 2822 3834 2567 4026 
Q 2313 4219 1838 4219 
Q 1578 4219 1281 4162 
Q 984 4106 628 3988 
L 628 4550 
Q 988 4650 1302 4700 
Q 1616 4750 1894 4750 
Q 2613 4750 3031 4423 
Q 3450 4097 3450 3541 
Q 3450 3153 3228 2886 
Q 3006 2619 2597 2516 
z
" transform="scale(0.015625)"/>
     </defs>
     <use xlink:href="#DejaVuSans-76"/>
     <use xlink:href="#DejaVuSans-32" x="59.179688"/>
     <use xlink:href="#DejaVuSans-2e" x="122.802734"/>
     <use xlink:href="#DejaVuSans-36" x="154.589844"/>
     <use xlink:href="#DejaVuSans-2e" x="218.212891"/>
     <use xlink:href="#DejaVuSans-33" x="250"/>
    </g>
   </g>
  </g>
 </g>
 <defs>
  <clipPath id="p44289a08f2">
   <rect x="0" y="3.456" width="460.8" height="290.304"/>
  </clipPath>
 </defs>
</svg>
