<?xml version="1.0" encoding="utf-8" standalone="no"?>
<!DOCTYPE svg PUBLIC "-//W3C//DTD SVG 1.1//EN"
  "http://www.w3.org/Graphics/SVG/1.1/DTD/svg11.dtd">
<svg xmlns:xlink="http://www.w3.org/1999/xlink" width="460.8pt" height="345.6pt" viewBox="0 0 460.8 345.6" xmlns="http://www.w3.org/2000/svg" version="1.1">
 <metadata>
  <rdf:RDF xmlns:dc="http://purl.org/dc/elements/1.1/" xmlns:cc="http://creativecommons.org/ns#" xmlns:rdf="http://www.w3.org/1999/02/22-rdf-syntax-ns#">
   <cc:Work>
    <dc:type rdf:resource="http://purl.org/dc/dcmitype/StillImage"/>
    <dc:date>2024-01-17T14:59:46.772568</dc:date>
    <dc:format>image/svg+xml</dc:format>
    <dc:creator>
     <cc:Agent>
      <dc:title>Matplotlib v3.8.2, https://matplotlib.org/</dc:title>
     </cc:Agent>
    </dc:creator>
   </cc:Work>
  </rdf:RDF>
 </metadata>
 <defs>
  <style type="text/css">*{stroke-linejoin: round; stroke-linecap: butt}</style>
 </defs>
 <g id="figure_1">
  <g id="patch_1">
   <path d="M 0 345.6 
L 460.8 345.6 
L 460.8 0 
L 0 0 
z
" style="fill: #ffffff"/>
  </g>
  <g id="axes_1">
   <g id="patch_2">
    <path d="M 0 293.76 
L 460.8 293.76 
L 460.8 3.456 
L 0 3.456 
z
" style="fill: #ffffff"/>
   </g>
   <g id="matplotlib.axis_1">
    <g id="xtick_1">
     <g id="line2d_1">
      <path d="M 106.339834 293.76 
L 106.339834 3.456 
" clip-path="url(#pa6d15b49e8)" style="fill: none; stroke: #b0b0b0; stroke-width: 0.8; stroke-linecap: square"/>
     </g>
     <g id="line2d_2">
      <defs>
       <path id="m1e832d08fe" d="M 0 0 
L 0 3.5 
" style="stroke: #000000; stroke-width: 0.8"/>
      </defs>
      <g>
       <use xlink:href="#m1e832d08fe" x="106.339834" y="293.76" style="stroke: #000000; stroke-width: 0.8"/>
      </g>
     </g>
     <g id="text_1">
      <!-- -4 -->
      <g transform="translate(96.369522 315.956875) scale(0.2 -0.2)">
       <defs>
        <path id="DejaVuSans-2d" d="M 313 2009 
L 1997 2009 
L 1997 1497 
L 313 1497 
L 313 2009 
z
" transform="scale(0.015625)"/>
        <path id="DejaVuSans-34" d="M 2419 4116 
L 825 1625 
L 2419 1625 
L 2419 4116 
z
M 2253 4666 
L 3047 4666 
L 3047 1625 
L 3713 1625 
L 3713 1100 
L 3047 1100 
L 3047 0 
L 2419 0 
L 2419 1100 
L 313 1100 
L 313 1709 
L 2253 4666 
z
" transform="scale(0.015625)"/>
       </defs>
       <use xlink:href="#DejaVuSans-2d"/>
       <use xlink:href="#DejaVuSans-34" x="36.083984"/>
      </g>
     </g>
    </g>
    <g id="xtick_2">
     <g id="line2d_3">
      <path d="M 212.794676 293.76 
L 212.794676 3.456 
" clip-path="url(#pa6d15b49e8)" style="fill: none; stroke: #b0b0b0; stroke-width: 0.8; stroke-linecap: square"/>
     </g>
     <g id="line2d_4">
      <g>
       <use xlink:href="#m1e832d08fe" x="212.794676" y="293.76" style="stroke: #000000; stroke-width: 0.8"/>
      </g>
     </g>
     <g id="text_2">
      <!-- 0 -->
      <g transform="translate(206.432176 315.956875) scale(0.2 -0.2)">
       <defs>
        <path id="DejaVuSans-30" d="M 2034 4250 
Q 1547 4250 1301 3770 
Q 1056 3291 1056 2328 
Q 1056 1369 1301 889 
Q 1547 409 2034 409 
Q 2525 409 2770 889 
Q 3016 1369 3016 2328 
Q 3016 3291 2770 3770 
Q 2525 4250 2034 4250 
z
M 2034 4750 
Q 2819 4750 3233 4129 
Q 3647 3509 3647 2328 
Q 3647 1150 3233 529 
Q 2819 -91 2034 -91 
Q 1250 -91 836 529 
Q 422 1150 422 2328 
Q 422 3509 836 4129 
Q 1250 4750 2034 4750 
z
" transform="scale(0.015625)"/>
       </defs>
       <use xlink:href="#DejaVuSans-30"/>
      </g>
     </g>
    </g>
    <g id="xtick_3">
     <g id="line2d_5">
      <path d="M 319.249518 293.76 
L 319.249518 3.456 
" clip-path="url(#pa6d15b49e8)" style="fill: none; stroke: #b0b0b0; stroke-width: 0.8; stroke-linecap: square"/>
     </g>
     <g id="line2d_6">
      <g>
       <use xlink:href="#m1e832d08fe" x="319.249518" y="293.76" style="stroke: #000000; stroke-width: 0.8"/>
      </g>
     </g>
     <g id="text_3">
      <!-- 4 -->
      <g transform="translate(312.887018 315.956875) scale(0.2 -0.2)">
       <use xlink:href="#DejaVuSans-34"/>
      </g>
     </g>
    </g>
    <g id="xtick_4">
     <g id="line2d_7">
      <path d="M 425.70436 293.76 
L 425.70436 3.456 
" clip-path="url(#pa6d15b49e8)" style="fill: none; stroke: #b0b0b0; stroke-width: 0.8; stroke-linecap: square"/>
     </g>
     <g id="line2d_8">
      <g>
       <use xlink:href="#m1e832d08fe" x="425.70436" y="293.76" style="stroke: #000000; stroke-width: 0.8"/>
      </g>
     </g>
     <g id="text_4">
      <!-- 8 -->
      <g transform="translate(419.34186 315.956875) scale(0.2 -0.2)">
       <defs>
        <path id="DejaVuSans-38" d="M 2034 2216 
Q 1584 2216 1326 1975 
Q 1069 1734 1069 1313 
Q 1069 891 1326 650 
Q 1584 409 2034 409 
Q 2484 409 2743 651 
Q 3003 894 3003 1313 
Q 3003 1734 2745 1975 
Q 2488 2216 2034 2216 
z
M 1403 2484 
Q 997 2584 770 2862 
Q 544 3141 544 3541 
Q 544 4100 942 4425 
Q 1341 4750 2034 4750 
Q 2731 4750 3128 4425 
Q 3525 4100 3525 3541 
Q 3525 3141 3298 2862 
Q 3072 2584 2669 2484 
Q 3125 2378 3379 2068 
Q 3634 1759 3634 1313 
Q 3634 634 3220 271 
Q 2806 -91 2034 -91 
Q 1263 -91 848 271 
Q 434 634 434 1313 
Q 434 1759 690 2068 
Q 947 2378 1403 2484 
z
M 1172 3481 
Q 1172 3119 1398 2916 
Q 1625 2713 2034 2713 
Q 2441 2713 2670 2916 
Q 2900 3119 2900 3481 
Q 2900 3844 2670 4047 
Q 2441 4250 2034 4250 
Q 1625 4250 1398 4047 
Q 1172 3844 1172 3481 
z
" transform="scale(0.015625)"/>
       </defs>
       <use xlink:href="#DejaVuSans-38"/>
      </g>
     </g>
    </g>
    <g id="text_5">
     <!-- log10 of Df -->
     <g transform="translate(175.214063 339.313125) scale(0.2 -0.2)">
      <defs>
       <path id="DejaVuSans-6c" d="M 603 4863 
L 1178 4863 
L 1178 0 
L 603 0 
L 603 4863 
z
" transform="scale(0.015625)"/>
       <path id="DejaVuSans-6f" d="M 1959 3097 
Q 1497 3097 1228 2736 
Q 959 2375 959 1747 
Q 959 1119 1226 758 
Q 1494 397 1959 397 
Q 2419 397 2687 759 
Q 2956 1122 2956 1747 
Q 2956 2369 2687 2733 
Q 2419 3097 1959 3097 
z
M 1959 3584 
Q 2709 3584 3137 3096 
Q 3566 2609 3566 1747 
Q 3566 888 3137 398 
Q 2709 -91 1959 -91 
Q 1206 -91 779 398 
Q 353 888 353 1747 
Q 353 2609 779 3096 
Q 1206 3584 1959 3584 
z
" transform="scale(0.015625)"/>
       <path id="DejaVuSans-67" d="M 2906 1791 
Q 2906 2416 2648 2759 
Q 2391 3103 1925 3103 
Q 1463 3103 1205 2759 
Q 947 2416 947 1791 
Q 947 1169 1205 825 
Q 1463 481 1925 481 
Q 2391 481 2648 825 
Q 2906 1169 2906 1791 
z
M 3481 434 
Q 3481 -459 3084 -895 
Q 2688 -1331 1869 -1331 
Q 1566 -1331 1297 -1286 
Q 1028 -1241 775 -1147 
L 775 -588 
Q 1028 -725 1275 -790 
Q 1522 -856 1778 -856 
Q 2344 -856 2625 -561 
Q 2906 -266 2906 331 
L 2906 616 
Q 2728 306 2450 153 
Q 2172 0 1784 0 
Q 1141 0 747 490 
Q 353 981 353 1791 
Q 353 2603 747 3093 
Q 1141 3584 1784 3584 
Q 2172 3584 2450 3431 
Q 2728 3278 2906 2969 
L 2906 3500 
L 3481 3500 
L 3481 434 
z
" transform="scale(0.015625)"/>
       <path id="DejaVuSans-31" d="M 794 531 
L 1825 531 
L 1825 4091 
L 703 3866 
L 703 4441 
L 1819 4666 
L 2450 4666 
L 2450 531 
L 3481 531 
L 3481 0 
L 794 0 
L 794 531 
z
" transform="scale(0.015625)"/>
       <path id="DejaVuSans-20" transform="scale(0.015625)"/>
       <path id="DejaVuSans-66" d="M 2375 4863 
L 2375 4384 
L 1825 4384 
Q 1516 4384 1395 4259 
Q 1275 4134 1275 3809 
L 1275 3500 
L 2222 3500 
L 2222 3053 
L 1275 3053 
L 1275 0 
L 697 0 
L 697 3053 
L 147 3053 
L 147 3500 
L 697 3500 
L 697 3744 
Q 697 4328 969 4595 
Q 1241 4863 1831 4863 
L 2375 4863 
z
" transform="scale(0.015625)"/>
       <path id="DejaVuSans-44" d="M 1259 4147 
L 1259 519 
L 2022 519 
Q 2988 519 3436 956 
Q 3884 1394 3884 2338 
Q 3884 3275 3436 3711 
Q 2988 4147 2022 4147 
L 1259 4147 
z
M 628 4666 
L 1925 4666 
Q 3281 4666 3915 4102 
Q 4550 3538 4550 2338 
Q 4550 1131 3912 565 
Q 3275 0 1925 0 
L 628 0 
L 628 4666 
z
" transform="scale(0.015625)"/>
      </defs>
      <use xlink:href="#DejaVuSans-6c"/>
      <use xlink:href="#DejaVuSans-6f" x="27.783203"/>
      <use xlink:href="#DejaVuSans-67" x="88.964844"/>
      <use xlink:href="#DejaVuSans-31" x="152.441406"/>
      <use xlink:href="#DejaVuSans-30" x="216.064453"/>
      <use xlink:href="#DejaVuSans-20" x="279.6875"/>
      <use xlink:href="#DejaVuSans-6f" x="311.474609"/>
      <use xlink:href="#DejaVuSans-66" x="372.65625"/>
      <use xlink:href="#DejaVuSans-20" x="407.861328"/>
      <use xlink:href="#DejaVuSans-44" x="439.648438"/>
      <use xlink:href="#DejaVuSans-66" x="516.650391"/>
     </g>
    </g>
   </g>
   <g id="matplotlib.axis_2">
    <g id="ytick_1">
     <g id="line2d_9">
      <path d="M 0 293.76 
L 460.8 293.76 
" clip-path="url(#pa6d15b49e8)" style="fill: none; stroke: #b0b0b0; stroke-width: 0.8; stroke-linecap: square"/>
     </g>
     <g id="line2d_10">
      <defs>
       <path id="mfd36145a84" d="M 0 0 
L -3.5 0 
" style="stroke: #000000; stroke-width: 0.8"/>
      </defs>
      <g>
       <use xlink:href="#mfd36145a84" x="0" y="293.76" style="stroke: #000000; stroke-width: 0.8"/>
      </g>
     </g>
    </g>
    <g id="ytick_2">
     <g id="line2d_11">
      <path d="M 0 236.274059 
L 460.8 236.274059 
" clip-path="url(#pa6d15b49e8)" style="fill: none; stroke: #b0b0b0; stroke-width: 0.8; stroke-linecap: square"/>
     </g>
     <g id="line2d_12">
      <g>
       <use xlink:href="#mfd36145a84" x="0" y="236.274059" style="stroke: #000000; stroke-width: 0.8"/>
      </g>
     </g>
    </g>
    <g id="ytick_3">
     <g id="line2d_13">
      <path d="M 0 178.788119 
L 460.8 178.788119 
" clip-path="url(#pa6d15b49e8)" style="fill: none; stroke: #b0b0b0; stroke-width: 0.8; stroke-linecap: square"/>
     </g>
     <g id="line2d_14">
      <g>
       <use xlink:href="#mfd36145a84" x="0" y="178.788119" style="stroke: #000000; stroke-width: 0.8"/>
      </g>
     </g>
    </g>
    <g id="ytick_4">
     <g id="line2d_15">
      <path d="M 0 121.302178 
L 460.8 121.302178 
" clip-path="url(#pa6d15b49e8)" style="fill: none; stroke: #b0b0b0; stroke-width: 0.8; stroke-linecap: square"/>
     </g>
     <g id="line2d_16">
      <g>
       <use xlink:href="#mfd36145a84" x="0" y="121.302178" style="stroke: #000000; stroke-width: 0.8"/>
      </g>
     </g>
    </g>
    <g id="ytick_5">
     <g id="line2d_17">
      <path d="M 0 63.816238 
L 460.8 63.816238 
" clip-path="url(#pa6d15b49e8)" style="fill: none; stroke: #b0b0b0; stroke-width: 0.8; stroke-linecap: square"/>
     </g>
     <g id="line2d_18">
      <g>
       <use xlink:href="#mfd36145a84" x="0" y="63.816238" style="stroke: #000000; stroke-width: 0.8"/>
      </g>
     </g>
    </g>
    <g id="ytick_6">
     <g id="line2d_19">
      <path d="M 0 6.330297 
L 460.8 6.330297 
" clip-path="url(#pa6d15b49e8)" style="fill: none; stroke: #b0b0b0; stroke-width: 0.8; stroke-linecap: square"/>
     </g>
     <g id="line2d_20">
      <g>
       <use xlink:href="#mfd36145a84" x="0" y="6.330297" style="stroke: #000000; stroke-width: 0.8"/>
      </g>
     </g>
    </g>
   </g>
   <g id="line2d_21">
    <path d="M 253.192708 293.76 
L 253.192708 289.927604 
L 254.469871 289.927604 
L 254.469871 286.095208 
L 256.045245 286.095208 
L 256.045245 282.262812 
L 256.472264 282.262812 
L 256.472264 278.430416 
L 256.95622 278.430416 
L 256.95622 274.59802 
L 257.884255 274.59802 
L 257.901881 266.933228 
L 258.412412 266.933228 
L 258.412412 263.100832 
L 259.514788 263.100832 
L 259.514788 259.268436 
L 260.334487 259.268436 
L 260.334487 255.43604 
L 261.106453 255.43604 
L 261.106453 251.603644 
L 261.957381 251.603644 
L 261.957381 247.771248 
L 262.670533 247.771248 
L 262.670533 243.938851 
L 263.152873 243.938851 
L 263.152873 240.106455 
L 264.370266 240.106455 
L 264.370266 236.274059 
L 267.914505 236.274059 
L 267.914505 232.441663 
L 269.457327 232.441663 
L 269.457327 228.609267 
L 269.982086 228.609267 
L 269.982086 224.776871 
L 270.117693 224.776871 
L 270.117693 220.944475 
L 270.468762 220.944475 
L 270.552946 213.279683 
L 271.477064 213.279683 
L 271.477064 209.447287 
L 271.711537 209.447287 
L 271.711537 205.614891 
L 273.431395 205.614891 
L 273.431395 201.782495 
L 273.633354 201.782495 
L 273.633354 197.950099 
L 275.574208 197.950099 
L 275.574208 194.117703 
L 275.977539 194.117703 
L 275.977539 190.285307 
L 276.179741 190.285307 
L 276.179741 186.452911 
L 276.601615 186.452911 
L 276.601615 182.620515 
L 277.58667 182.620515 
L 277.58667 178.788119 
L 279.081685 178.788119 
L 279.081685 174.955723 
L 279.335033 174.955723 
L 279.335033 171.123327 
L 279.960759 171.123327 
L 279.960759 167.290931 
L 280.490182 167.290931 
L 280.490182 163.458535 
L 282.243017 163.458535 
L 282.243017 159.626139 
L 282.854732 159.626139 
L 282.854732 155.793743 
L 283.064408 155.793743 
L 283.064408 151.961347 
L 283.558108 151.961347 
L 283.558108 148.12895 
L 284.061944 148.12895 
L 284.061944 144.296554 
L 284.344296 144.296554 
L 284.407532 136.631762 
L 284.620724 136.631762 
L 284.620724 132.799366 
L 284.957665 132.799366 
L 285.033824 125.134574 
L 285.283348 125.134574 
L 285.283348 121.302178 
L 285.659235 121.302178 
L 285.659235 117.469782 
L 285.89723 117.469782 
L 285.89723 113.637386 
L 286.367055 113.637386 
L 286.367055 109.80499 
L 286.491877 109.80499 
L 286.491877 105.972594 
L 286.656536 105.972594 
L 286.656536 102.140198 
L 286.883075 102.140198 
L 286.883075 98.307802 
L 287.012799 98.307802 
L 287.012799 94.475406 
L 287.605764 94.475406 
L 287.605764 90.64301 
L 287.759531 90.64301 
L 287.759531 86.810614 
L 288.265036 86.810614 
L 288.265036 82.978218 
L 288.642134 82.978218 
L 288.642134 79.145822 
L 289.009597 79.145822 
L 289.009597 75.313426 
L 289.725634 75.313426 
L 289.730112 67.648634 
L 290.419005 67.648634 
L 290.419005 63.816238 
L 341.959205 63.816238 
L 341.959205 59.983842 
L 349.121343 59.983842 
L 349.121343 56.151446 
L 354.245455 56.151446 
L 354.245455 52.31905 
L 355.997661 52.31905 
L 355.997661 48.486653 
L 361.045906 48.486653 
L 361.045906 44.654257 
L 362.996597 44.654257 
L 362.996597 40.821861 
L 366.712015 40.821861 
L 366.712015 36.989465 
L 366.839191 36.989465 
L 366.890417 29.324673 
L 369.15769 29.324673 
L 369.15769 25.492277 
L 369.715622 25.492277 
L 369.715622 21.659881 
L 370.917586 21.659881 
L 370.917586 17.827485 
L 374.674903 17.827485 
L 374.674903 13.995089 
L 377.194084 13.995089 
L 377.194084 10.162693 
L 378.609528 10.162693 
L 378.609528 6.330297 
L 378.609528 6.330297 
L 460.8 6.330297 
L 460.8 6.330297 
" clip-path="url(#pa6d15b49e8)" style="fill: none; stroke: #ff0000; stroke-width: 3; stroke-linecap: square"/>
   </g>
   <g id="line2d_22">
    <path d="M 261.736517 293.76 
L 261.736517 289.927604 
L 262.220725 289.927604 
L 262.220725 286.095208 
L 264.291602 286.095208 
L 264.291602 282.262812 
L 264.774984 282.262812 
L 264.774984 278.430416 
L 265.865152 278.430416 
L 265.865152 274.59802 
L 267.022558 274.59802 
L 267.087084 263.100832 
L 267.624508 263.100832 
L 267.72156 255.43604 
L 267.90193 255.43604 
L 267.90193 251.603644 
L 268.430336 251.603644 
L 268.430336 247.771248 
L 270.098568 247.771248 
L 270.098568 243.938851 
L 270.448341 243.938851 
L 270.526545 236.274059 
L 282.024192 236.274059 
L 282.024198 178.788119 
L 283.044878 178.788119 
L 283.044878 174.955723 
L 283.611094 174.955723 
L 283.611094 171.123327 
L 283.814665 171.123327 
L 283.814665 167.290931 
L 284.5266 167.290931 
L 284.5266 163.458535 
L 286.141438 163.458535 
L 286.141438 159.626139 
L 286.959084 159.626139 
L 286.959084 155.793743 
L 287.072652 155.793743 
L 287.072652 151.961347 
L 287.237523 151.961347 
L 287.237523 148.12895 
L 287.423299 148.12895 
L 287.471839 136.631762 
L 287.540099 136.631762 
L 287.540099 132.799366 
L 287.714345 132.799366 
L 287.714345 128.96697 
L 288.053028 128.96697 
L 288.053028 125.134574 
L 288.411336 125.134574 
L 288.521452 117.469782 
L 288.676747 117.469782 
L 288.676747 113.637386 
L 288.871048 113.637386 
L 288.921978 105.972594 
L 289.069614 105.972594 
L 289.069614 102.140198 
L 289.198555 102.140198 
L 289.303281 94.475406 
L 289.760127 94.475406 
L 289.760127 90.64301 
L 289.98157 90.64301 
L 289.98157 86.810614 
L 291.009204 86.810614 
L 291.009204 82.978218 
L 291.491058 82.978218 
L 291.576321 75.313426 
L 291.619703 75.313426 
L 291.619703 71.48103 
L 292.010544 71.48103 
L 292.010544 67.648634 
L 292.588541 67.648634 
L 292.588541 63.816238 
L 386.086794 63.816238 
L 386.086794 59.983842 
L 392.830865 59.983842 
L 392.830865 56.151446 
L 393.208335 56.151446 
L 393.208335 52.31905 
L 394.689112 52.31905 
L 394.689112 48.486653 
L 395.30637 48.486653 
L 395.30637 44.654257 
L 397.128238 44.654257 
L 397.128238 40.821861 
L 397.820291 40.821861 
L 397.820291 36.989465 
L 398.923097 36.989465 
L 398.923097 33.157069 
L 400.202176 33.157069 
L 400.202176 29.324673 
L 400.61357 29.324673 
L 400.61357 25.492277 
L 401.112044 25.492277 
L 401.112044 21.659881 
L 402.296405 21.659881 
L 402.296405 17.827485 
L 404.152218 17.827485 
L 404.152218 13.995089 
L 404.910361 13.995089 
L 404.910361 10.162693 
L 407.119923 10.162693 
L 407.119923 6.330297 
L 407.119923 6.330297 
L 460.8 6.330297 
L 460.8 6.330297 
" clip-path="url(#pa6d15b49e8)" style="fill: none; stroke: #00bfbf; stroke-width: 1.5; stroke-linecap: square"/>
   </g>
   <g id="line2d_23">
    <path d="M 261.736384 293.76 
L 261.736384 289.927604 
L 262.220725 289.927604 
L 262.220725 286.095208 
L 264.291406 286.095208 
L 264.291406 282.262812 
L 264.774837 282.262812 
L 264.774837 278.430416 
L 265.865152 278.430416 
L 265.865152 274.59802 
L 267.022488 274.59802 
L 267.086976 263.100832 
L 267.624409 263.100832 
L 267.721535 255.43604 
L 267.901891 255.43604 
L 267.901891 251.603644 
L 268.430236 251.603644 
L 268.430236 247.771248 
L 270.098538 247.771248 
L 270.098538 243.938851 
L 270.448341 243.938851 
L 270.526545 236.274059 
L 282.02412 236.274059 
L 282.024172 178.788119 
L 283.044136 178.788119 
L 283.044136 174.955723 
L 283.610018 174.955723 
L 283.610018 171.123327 
L 283.813895 171.123327 
L 283.813895 167.290931 
L 284.52593 167.290931 
L 284.52593 163.458535 
L 286.140738 163.458535 
L 286.140738 159.626139 
L 286.958391 159.626139 
L 286.958391 155.793743 
L 287.072132 155.793743 
L 287.072132 151.961347 
L 287.236636 151.961347 
L 287.236636 148.12895 
L 287.422923 148.12895 
L 287.471083 136.631762 
L 287.539764 136.631762 
L 287.539764 132.799366 
L 287.713581 132.799366 
L 287.713581 128.96697 
L 288.052115 128.96697 
L 288.052115 125.134574 
L 288.410619 125.134574 
L 288.520604 117.469782 
L 288.675146 117.469782 
L 288.675146 113.637386 
L 288.870762 113.637386 
L 288.921496 105.972594 
L 289.069337 105.972594 
L 289.069337 102.140198 
L 289.198516 102.140198 
L 289.301671 94.475406 
L 289.759427 94.475406 
L 289.759427 90.64301 
L 289.980972 90.64301 
L 289.980972 86.810614 
L 291.008296 86.810614 
L 291.008296 82.978218 
L 291.490143 82.978218 
L 291.575697 75.313426 
L 291.619041 75.313426 
L 291.619041 71.48103 
L 292.010282 71.48103 
L 292.010282 67.648634 
L 292.588273 67.648634 
L 292.588273 63.816238 
L 386.085315 63.816238 
L 386.085315 59.983842 
L 392.830422 59.983842 
L 392.830422 56.151446 
L 393.20744 56.151446 
L 393.20744 52.31905 
L 394.687664 52.31905 
L 394.687664 48.486653 
L 395.304987 48.486653 
L 395.304987 44.654257 
L 397.126278 44.654257 
L 397.126278 40.821861 
L 397.819697 40.821861 
L 397.819697 36.989465 
L 398.921216 36.989465 
L 398.921216 33.157069 
L 400.201428 33.157069 
L 400.201428 29.324673 
L 400.612715 29.324673 
L 400.612715 25.492277 
L 401.110488 25.492277 
L 401.110488 21.659881 
L 402.295574 21.659881 
L 402.295574 17.827485 
L 404.150598 17.827485 
L 404.150598 13.995089 
L 404.909149 13.995089 
L 404.909149 10.162693 
L 407.118637 10.162693 
L 407.118637 6.330297 
L 407.118637 6.330297 
L 460.8 6.330297 
L 460.8 6.330297 
" clip-path="url(#pa6d15b49e8)" style="fill: none; stroke: #bf00bf; stroke-width: 1.5; stroke-linecap: square"/>
   </g>
   <g id="line2d_24">
    <path d="M 261.73495 293.76 
L 261.73495 289.927604 
L 262.219431 289.927604 
L 262.219431 286.095208 
L 264.290038 286.095208 
L 264.290038 282.262812 
L 264.773491 282.262812 
L 264.773491 278.430416 
L 265.86428 278.430416 
L 265.86428 274.59802 
L 267.021555 274.59802 
L 267.085722 263.100832 
L 267.623304 263.100832 
L 267.720468 255.43604 
L 267.900847 255.43604 
L 267.900847 251.603644 
L 268.429112 251.603644 
L 268.429112 247.771248 
L 270.097571 247.771248 
L 270.097571 243.938851 
L 270.447385 243.938851 
L 270.52566 236.274059 
L 282.023762 236.274059 
L 282.023891 178.788119 
L 283.040348 178.788119 
L 283.040348 174.955723 
L 283.603577 174.955723 
L 283.603577 171.123327 
L 283.809196 171.123327 
L 283.809196 167.290931 
L 284.519924 167.290931 
L 284.519924 163.458535 
L 286.13649 163.458535 
L 286.13649 159.626139 
L 286.955121 159.626139 
L 286.955121 155.793743 
L 287.067609 155.793743 
L 287.067609 151.961347 
L 287.232696 151.961347 
L 287.232696 148.12895 
L 287.420145 148.12895 
L 287.467779 136.631762 
L 287.536382 136.631762 
L 287.536382 132.799366 
L 287.711018 132.799366 
L 287.711018 128.96697 
L 288.047999 128.96697 
L 288.047999 125.134574 
L 288.406478 125.134574 
L 288.516887 117.469782 
L 288.669172 117.469782 
L 288.669172 113.637386 
L 288.868262 113.637386 
L 288.918297 105.972594 
L 289.06702 105.972594 
L 289.06702 102.140198 
L 289.195672 102.140198 
L 289.296191 94.475406 
L 289.75706 94.475406 
L 289.75706 90.64301 
L 289.978002 90.64301 
L 289.978002 86.810614 
L 291.005806 86.810614 
L 291.005806 82.978218 
L 291.48677 82.978218 
L 291.573485 75.313426 
L 291.616551 75.313426 
L 291.616551 71.48103 
L 292.007622 71.48103 
L 292.007622 67.648634 
L 292.585311 67.648634 
L 292.585311 63.816238 
L 386.084054 63.816238 
L 386.084054 59.983842 
L 392.829558 59.983842 
L 392.829558 56.151446 
L 393.206365 56.151446 
L 393.206365 52.31905 
L 394.686374 52.31905 
L 394.686374 48.486653 
L 395.303642 48.486653 
L 395.303642 44.654257 
L 397.1229 44.654257 
L 397.1229 40.821861 
L 397.818574 40.821861 
L 397.818574 36.989465 
L 398.918 36.989465 
L 398.918 33.157069 
L 400.199467 33.157069 
L 400.199467 29.324673 
L 400.611683 29.324673 
L 400.611683 25.492277 
L 401.109128 25.492277 
L 401.109128 21.659881 
L 402.293991 21.659881 
L 402.293991 17.827485 
L 404.147794 17.827485 
L 404.147794 13.995089 
L 404.908063 13.995089 
L 404.908063 10.162693 
L 407.116335 10.162693 
L 407.116335 6.330297 
L 407.116335 6.330297 
L 460.8 6.330297 
L 460.8 6.330297 
" clip-path="url(#pa6d15b49e8)" style="fill: none; stroke: #000000; stroke-width: 1.5; stroke-linecap: square"/>
   </g>
   <g id="line2d_25">
    <path d="M 261.704653 293.76 
L 261.704653 289.927604 
L 262.191069 289.927604 
L 262.191069 286.095208 
L 264.262379 286.095208 
L 264.262379 282.262812 
L 264.745477 282.262812 
L 264.745477 278.430416 
L 265.845504 278.430416 
L 265.845504 274.59802 
L 266.996382 274.59802 
L 267.061053 263.100832 
L 267.60044 263.100832 
L 267.697104 255.43604 
L 267.878532 255.43604 
L 267.878532 251.603644 
L 268.40619 251.603644 
L 268.40619 247.771248 
L 270.074705 247.771248 
L 270.074705 243.938851 
L 270.425206 243.938851 
L 270.506421 236.274059 
L 282.016339 236.274059 
L 282.018372 178.788119 
L 282.934413 178.788119 
L 282.934413 174.955723 
L 283.478543 174.955723 
L 283.478543 171.123327 
L 283.713394 171.123327 
L 283.713394 167.290931 
L 284.40045 167.290931 
L 284.40045 163.458535 
L 286.043293 163.458535 
L 286.043293 159.626139 
L 286.884632 159.626139 
L 286.977046 151.961347 
L 287.124807 151.961347 
L 287.124807 148.12895 
L 287.356374 148.12895 
L 287.464076 132.799366 
L 287.63727 132.799366 
L 287.63727 128.96697 
L 287.958691 128.96697 
L 287.958691 125.134574 
L 288.30861 125.134574 
L 288.410863 117.469782 
L 288.501941 117.469782 
L 288.501941 113.637386 
L 288.815344 113.637386 
L 288.852515 105.972594 
L 289.021591 105.972594 
L 289.021591 102.140198 
L 289.134774 102.140198 
L 289.175221 94.475406 
L 289.682401 94.475406 
L 289.682401 90.64301 
L 289.901669 90.64301 
L 289.901669 86.810614 
L 290.933249 86.810614 
L 290.933249 82.978218 
L 291.40573 82.978218 
L 291.512915 75.313426 
L 291.544361 75.313426 
L 291.544361 71.48103 
L 291.949986 71.48103 
L 291.949986 67.648634 
L 292.51814 67.648634 
L 292.51814 63.816238 
L 386.035171 63.816238 
L 386.035171 59.983842 
L 392.800696 59.983842 
L 392.800696 56.151446 
L 393.172239 56.151446 
L 393.172239 52.31905 
L 394.636577 52.31905 
L 394.636577 48.486653 
L 395.257856 48.486653 
L 395.257856 44.654257 
L 397.005016 44.654257 
L 397.005016 40.821861 
L 397.789206 40.821861 
L 397.789206 36.989465 
L 398.826903 36.989465 
L 398.826903 33.157069 
L 400.154012 33.157069 
L 400.154012 29.324673 
L 400.568673 29.324673 
L 400.568673 25.492277 
L 401.058684 25.492277 
L 401.058684 21.659881 
L 402.239136 21.659881 
L 402.239136 17.827485 
L 404.067451 17.827485 
L 404.067451 13.995089 
L 404.870183 13.995089 
L 404.870183 10.162693 
L 407.052533 10.162693 
L 407.052533 6.330297 
L 407.052533 6.330297 
L 460.8 6.330297 
L 460.8 6.330297 
" clip-path="url(#pa6d15b49e8)" style="fill: none; stroke: #00bfbf; stroke-width: 1.5; stroke-linecap: square"/>
   </g>
   <g id="line2d_26">
    <path d="M 255.668186 293.76 
L 255.668186 289.927604 
L 256.496321 289.927604 
L 256.496321 286.095208 
L 257.48157 286.095208 
L 257.48157 282.262812 
L 258.274144 282.262812 
L 258.274144 278.430416 
L 258.731996 278.430416 
L 258.731996 274.59802 
L 259.125116 274.59802 
L 259.125116 270.765624 
L 259.535445 270.765624 
L 259.535445 266.933228 
L 260.68067 266.933228 
L 260.729101 259.268436 
L 261.433392 259.268436 
L 261.433392 255.43604 
L 262.017284 255.43604 
L 262.017284 251.603644 
L 263.153008 251.603644 
L 263.153008 247.771248 
L 263.682009 247.771248 
L 263.682009 243.938851 
L 265.446898 243.938851 
L 265.513103 236.274059 
L 268.344862 236.274059 
L 268.344862 232.441663 
L 270.464084 232.441663 
L 270.547496 220.944475 
L 270.843791 220.944475 
L 270.843791 217.112079 
L 271.477068 217.112079 
L 271.477068 213.279683 
L 271.785836 213.279683 
L 271.785836 209.447287 
L 272.201964 209.447287 
L 272.201964 205.614891 
L 273.633361 205.614891 
L 273.633361 201.782495 
L 275.086191 201.782495 
L 275.086191 197.950099 
L 275.97101 197.950099 
L 275.978451 190.285307 
L 276.179741 190.285307 
L 276.179741 186.452911 
L 276.601615 186.452911 
L 276.601615 182.620515 
L 277.627959 182.620515 
L 277.627959 178.788119 
L 279.318232 178.788119 
L 279.318232 174.955723 
L 279.699037 174.955723 
L 279.699037 171.123327 
L 280.835546 171.123327 
L 280.835546 167.290931 
L 281.086464 167.290931 
L 281.086464 163.458535 
L 283.133306 163.458535 
L 283.133306 159.626139 
L 283.468686 159.626139 
L 283.567105 151.961347 
L 283.791498 151.961347 
L 283.791498 148.12895 
L 284.393528 148.12895 
L 284.393528 144.296554 
L 284.670747 144.296554 
L 284.761265 136.631762 
L 285.075095 136.631762 
L 285.075095 132.799366 
L 285.394274 132.799366 
L 285.394274 128.96697 
L 285.796859 128.96697 
L 285.796859 125.134574 
L 285.998183 125.134574 
L 286.005538 117.469782 
L 286.470199 117.469782 
L 286.557329 109.80499 
L 286.794732 109.80499 
L 286.794732 105.972594 
L 287.076739 105.972594 
L 287.076739 102.140198 
L 287.756459 102.140198 
L 287.84462 94.475406 
L 288.064352 94.475406 
L 288.109784 86.810614 
L 288.835598 86.810614 
L 288.835598 82.978218 
L 288.966399 82.978218 
L 288.966399 79.145822 
L 289.412223 79.145822 
L 289.412223 75.313426 
L 289.822831 75.313426 
L 289.822831 71.48103 
L 290.327966 71.48103 
L 290.327966 67.648634 
L 290.844493 67.648634 
L 290.844493 63.816238 
L 350.278828 63.816238 
L 350.278828 59.983842 
L 357.879157 59.983842 
L 357.879157 56.151446 
L 361.09024 56.151446 
L 361.09024 52.31905 
L 366.177944 52.31905 
L 366.177944 48.486653 
L 369.140904 48.486653 
L 369.140904 44.654257 
L 372.898002 44.654257 
L 372.898002 40.821861 
L 373.206077 40.821861 
L 373.206077 36.989465 
L 375.709593 36.989465 
L 375.709593 33.157069 
L 381.181337 33.157069 
L 381.181337 29.324673 
L 381.927021 29.324673 
L 381.927021 25.492277 
L 382.27737 25.492277 
L 382.27737 21.659881 
L 382.949738 21.659881 
L 383.060153 13.995089 
L 383.914434 13.995089 
L 383.914434 10.162693 
L 384.843394 10.162693 
L 384.843394 6.330297 
L 384.843394 6.330297 
L 460.8 6.330297 
L 460.8 6.330297 
" clip-path="url(#pa6d15b49e8)" style="fill: none; stroke: #bf00bf; stroke-width: 1.5; stroke-linecap: square"/>
   </g>
   <g id="patch_3">
    <path d="M 0 293.76 
L 0 3.456 
" style="fill: none; stroke: #000000; stroke-width: 0.8; stroke-linejoin: miter; stroke-linecap: square"/>
   </g>
   <g id="patch_4">
    <path d="M 460.8 293.76 
L 460.8 3.456 
" style="fill: none; stroke: #000000; stroke-width: 0.8; stroke-linejoin: miter; stroke-linecap: square"/>
   </g>
   <g id="patch_5">
    <path d="M 0 293.76 
L 460.8 293.76 
" style="fill: none; stroke: #000000; stroke-width: 0.8; stroke-linejoin: miter; stroke-linecap: square"/>
   </g>
   <g id="patch_6">
    <path d="M 0 3.456 
L 460.8 3.456 
" style="fill: none; stroke: #000000; stroke-width: 0.8; stroke-linejoin: miter; stroke-linecap: square"/>
   </g>
   <g id="text_6">
    <!-- {f1-f5}, 20-D -->
    <g transform="translate(318.609 287.95392) scale(0.2 -0.2)">
     <defs>
      <path id="DejaVuSans-7b" d="M 3272 -594 
L 3272 -1044 
L 3078 -1044 
Q 2300 -1044 2036 -812 
Q 1772 -581 1772 109 
L 1772 856 
Q 1772 1328 1603 1509 
Q 1434 1691 991 1691 
L 800 1691 
L 800 2138 
L 991 2138 
Q 1438 2138 1605 2317 
Q 1772 2497 1772 2963 
L 1772 3713 
Q 1772 4403 2036 4633 
Q 2300 4863 3078 4863 
L 3272 4863 
L 3272 4416 
L 3059 4416 
Q 2619 4416 2484 4278 
Q 2350 4141 2350 3700 
L 2350 2925 
Q 2350 2434 2208 2212 
Q 2066 1991 1722 1913 
Q 2069 1828 2209 1606 
Q 2350 1384 2350 897 
L 2350 122 
Q 2350 -319 2484 -456 
Q 2619 -594 3059 -594 
L 3272 -594 
z
" transform="scale(0.015625)"/>
      <path id="DejaVuSans-35" d="M 691 4666 
L 3169 4666 
L 3169 4134 
L 1269 4134 
L 1269 2991 
Q 1406 3038 1543 3061 
Q 1681 3084 1819 3084 
Q 2600 3084 3056 2656 
Q 3513 2228 3513 1497 
Q 3513 744 3044 326 
Q 2575 -91 1722 -91 
Q 1428 -91 1123 -41 
Q 819 9 494 109 
L 494 744 
Q 775 591 1075 516 
Q 1375 441 1709 441 
Q 2250 441 2565 725 
Q 2881 1009 2881 1497 
Q 2881 1984 2565 2268 
Q 2250 2553 1709 2553 
Q 1456 2553 1204 2497 
Q 953 2441 691 2322 
L 691 4666 
z
" transform="scale(0.015625)"/>
      <path id="DejaVuSans-7d" d="M 800 -594 
L 1019 -594 
Q 1456 -594 1589 -459 
Q 1722 -325 1722 122 
L 1722 897 
Q 1722 1384 1862 1606 
Q 2003 1828 2350 1913 
Q 2003 1991 1862 2212 
Q 1722 2434 1722 2925 
L 1722 3700 
Q 1722 4144 1589 4280 
Q 1456 4416 1019 4416 
L 800 4416 
L 800 4863 
L 997 4863 
Q 1775 4863 2036 4633 
Q 2297 4403 2297 3713 
L 2297 2963 
Q 2297 2497 2465 2317 
Q 2634 2138 3078 2138 
L 3272 2138 
L 3272 1691 
L 3078 1691 
Q 2634 1691 2465 1509 
Q 2297 1328 2297 856 
L 2297 109 
Q 2297 -581 2036 -812 
Q 1775 -1044 997 -1044 
L 800 -1044 
L 800 -594 
z
" transform="scale(0.015625)"/>
      <path id="DejaVuSans-2c" d="M 750 794 
L 1409 794 
L 1409 256 
L 897 -744 
L 494 -744 
L 750 256 
L 750 794 
z
" transform="scale(0.015625)"/>
      <path id="DejaVuSans-32" d="M 1228 531 
L 3431 531 
L 3431 0 
L 469 0 
L 469 531 
Q 828 903 1448 1529 
Q 2069 2156 2228 2338 
Q 2531 2678 2651 2914 
Q 2772 3150 2772 3378 
Q 2772 3750 2511 3984 
Q 2250 4219 1831 4219 
Q 1534 4219 1204 4116 
Q 875 4013 500 3803 
L 500 4441 
Q 881 4594 1212 4672 
Q 1544 4750 1819 4750 
Q 2544 4750 2975 4387 
Q 3406 4025 3406 3419 
Q 3406 3131 3298 2873 
Q 3191 2616 2906 2266 
Q 2828 2175 2409 1742 
Q 1991 1309 1228 531 
z
" transform="scale(0.015625)"/>
     </defs>
     <use xlink:href="#DejaVuSans-7b"/>
     <use xlink:href="#DejaVuSans-66" x="63.623047"/>
     <use xlink:href="#DejaVuSans-31" x="98.828125"/>
     <use xlink:href="#DejaVuSans-2d" x="162.451172"/>
     <use xlink:href="#DejaVuSans-66" x="198.535156"/>
     <use xlink:href="#DejaVuSans-35" x="233.740234"/>
     <use xlink:href="#DejaVuSans-7d" x="297.363281"/>
     <use xlink:href="#DejaVuSans-2c" x="360.986328"/>
     <use xlink:href="#DejaVuSans-20" x="392.773438"/>
     <use xlink:href="#DejaVuSans-32" x="424.560547"/>
     <use xlink:href="#DejaVuSans-30" x="488.183594"/>
     <use xlink:href="#DejaVuSans-2d" x="551.806641"/>
     <use xlink:href="#DejaVuSans-44" x="587.890625"/>
    </g>
   </g>
   <g id="text_7">
    <!-- v2.6.3 -->
    <g style="fill: #808080" transform="translate(214.71875 288.777272) scale(0.1 -0.1)">
     <defs>
      <path id="DejaVuSans-76" d="M 191 3500 
L 800 3500 
L 1894 563 
L 2988 3500 
L 3597 3500 
L 2284 0 
L 1503 0 
L 191 3500 
z
" transform="scale(0.015625)"/>
      <path id="DejaVuSans-2e" d="M 684 794 
L 1344 794 
L 1344 0 
L 684 0 
L 684 794 
z
" transform="scale(0.015625)"/>
      <path id="DejaVuSans-36" d="M 2113 2584 
Q 1688 2584 1439 2293 
Q 1191 2003 1191 1497 
Q 1191 994 1439 701 
Q 1688 409 2113 409 
Q 2538 409 2786 701 
Q 3034 994 3034 1497 
Q 3034 2003 2786 2293 
Q 2538 2584 2113 2584 
z
M 3366 4563 
L 3366 3988 
Q 3128 4100 2886 4159 
Q 2644 4219 2406 4219 
Q 1781 4219 1451 3797 
Q 1122 3375 1075 2522 
Q 1259 2794 1537 2939 
Q 1816 3084 2150 3084 
Q 2853 3084 3261 2657 
Q 3669 2231 3669 1497 
Q 3669 778 3244 343 
Q 2819 -91 2113 -91 
Q 1303 -91 875 529 
Q 447 1150 447 2328 
Q 447 3434 972 4092 
Q 1497 4750 2381 4750 
Q 2619 4750 2861 4703 
Q 3103 4656 3366 4563 
z
" transform="scale(0.015625)"/>
      <path id="DejaVuSans-33" d="M 2597 2516 
Q 3050 2419 3304 2112 
Q 3559 1806 3559 1356 
Q 3559 666 3084 287 
Q 2609 -91 1734 -91 
Q 1441 -91 1130 -33 
Q 819 25 488 141 
L 488 750 
Q 750 597 1062 519 
Q 1375 441 1716 441 
Q 2309 441 2620 675 
Q 2931 909 2931 1356 
Q 2931 1769 2642 2001 
Q 2353 2234 1838 2234 
L 1294 2234 
L 1294 2753 
L 1863 2753 
Q 2328 2753 2575 2939 
Q 2822 3125 2822 3475 
Q 2822 3834 2567 4026 
Q 2313 4219 1838 4219 
Q 1578 4219 1281 4162 
Q 984 4106 628 3988 
L 628 4550 
Q 988 4650 1302 4700 
Q 1616 4750 1894 4750 
Q 2613 4750 3031 4423 
Q 3450 4097 3450 3541 
Q 3450 3153 3228 2886 
Q 3006 2619 2597 2516 
z
" transform="scale(0.015625)"/>
     </defs>
     <use xlink:href="#DejaVuSans-76"/>
     <use xlink:href="#DejaVuSans-32" x="59.179688"/>
     <use xlink:href="#DejaVuSans-2e" x="122.802734"/>
     <use xlink:href="#DejaVuSans-36" x="154.589844"/>
     <use xlink:href="#DejaVuSans-2e" x="218.212891"/>
     <use xlink:href="#DejaVuSans-33" x="250"/>
    </g>
   </g>
  </g>
 </g>
 <defs>
  <clipPath id="pa6d15b49e8">
   <rect x="0" y="3.456" width="460.8" height="290.304"/>
  </clipPath>
 </defs>
</svg>
