<?xml version="1.0" encoding="utf-8" standalone="no"?>
<!DOCTYPE svg PUBLIC "-//W3C//DTD SVG 1.1//EN"
  "http://www.w3.org/Graphics/SVG/1.1/DTD/svg11.dtd">
<svg xmlns:xlink="http://www.w3.org/1999/xlink" width="460.8pt" height="345.6pt" viewBox="0 0 460.8 345.6" xmlns="http://www.w3.org/2000/svg" version="1.1">
 <metadata>
  <rdf:RDF xmlns:dc="http://purl.org/dc/elements/1.1/" xmlns:cc="http://creativecommons.org/ns#" xmlns:rdf="http://www.w3.org/1999/02/22-rdf-syntax-ns#">
   <cc:Work>
    <dc:type rdf:resource="http://purl.org/dc/dcmitype/StillImage"/>
    <dc:date>2024-01-17T14:59:39.002575</dc:date>
    <dc:format>image/svg+xml</dc:format>
    <dc:creator>
     <cc:Agent>
      <dc:title>Matplotlib v3.8.2, https://matplotlib.org/</dc:title>
     </cc:Agent>
    </dc:creator>
   </cc:Work>
  </rdf:RDF>
 </metadata>
 <defs>
  <style type="text/css">*{stroke-linejoin: round; stroke-linecap: butt}</style>
 </defs>
 <g id="figure_1">
  <g id="patch_1">
   <path d="M 0 345.6 
L 460.8 345.6 
L 460.8 0 
L 0 0 
z
" style="fill: #ffffff"/>
  </g>
  <g id="axes_1">
   <g id="patch_2">
    <path d="M 0 293.76 
L 460.8 293.76 
L 460.8 3.456 
L 0 3.456 
z
" style="fill: #ffffff"/>
   </g>
   <g id="matplotlib.axis_1">
    <g id="xtick_1">
     <g id="line2d_1">
      <path d="M 104.132958 293.76 
L 104.132958 3.456 
" clip-path="url(#p5e241cc773)" style="fill: none; stroke: #b0b0b0; stroke-width: 0.8; stroke-linecap: square"/>
     </g>
     <g id="line2d_2">
      <defs>
       <path id="m453001f10e" d="M 0 0 
L 0 3.5 
" style="stroke: #000000; stroke-width: 0.8"/>
      </defs>
      <g>
       <use xlink:href="#m453001f10e" x="104.132958" y="293.76" style="stroke: #000000; stroke-width: 0.8"/>
      </g>
     </g>
     <g id="text_1">
      <!-- -4 -->
      <g transform="translate(94.162645 315.956875) scale(0.2 -0.2)">
       <defs>
        <path id="DejaVuSans-2d" d="M 313 2009 
L 1997 2009 
L 1997 1497 
L 313 1497 
L 313 2009 
z
" transform="scale(0.015625)"/>
        <path id="DejaVuSans-34" d="M 2419 4116 
L 825 1625 
L 2419 1625 
L 2419 4116 
z
M 2253 4666 
L 3047 4666 
L 3047 1625 
L 3713 1625 
L 3713 1100 
L 3047 1100 
L 3047 0 
L 2419 0 
L 2419 1100 
L 313 1100 
L 313 1709 
L 2253 4666 
z
" transform="scale(0.015625)"/>
       </defs>
       <use xlink:href="#DejaVuSans-2d"/>
       <use xlink:href="#DejaVuSans-34" x="36.083984"/>
      </g>
     </g>
    </g>
    <g id="xtick_2">
     <g id="line2d_3">
      <path d="M 208.378536 293.76 
L 208.378536 3.456 
" clip-path="url(#p5e241cc773)" style="fill: none; stroke: #b0b0b0; stroke-width: 0.8; stroke-linecap: square"/>
     </g>
     <g id="line2d_4">
      <g>
       <use xlink:href="#m453001f10e" x="208.378536" y="293.76" style="stroke: #000000; stroke-width: 0.8"/>
      </g>
     </g>
     <g id="text_2">
      <!-- 0 -->
      <g transform="translate(202.016036 315.956875) scale(0.2 -0.2)">
       <defs>
        <path id="DejaVuSans-30" d="M 2034 4250 
Q 1547 4250 1301 3770 
Q 1056 3291 1056 2328 
Q 1056 1369 1301 889 
Q 1547 409 2034 409 
Q 2525 409 2770 889 
Q 3016 1369 3016 2328 
Q 3016 3291 2770 3770 
Q 2525 4250 2034 4250 
z
M 2034 4750 
Q 2819 4750 3233 4129 
Q 3647 3509 3647 2328 
Q 3647 1150 3233 529 
Q 2819 -91 2034 -91 
Q 1250 -91 836 529 
Q 422 1150 422 2328 
Q 422 3509 836 4129 
Q 1250 4750 2034 4750 
z
" transform="scale(0.015625)"/>
       </defs>
       <use xlink:href="#DejaVuSans-30"/>
      </g>
     </g>
    </g>
    <g id="xtick_3">
     <g id="line2d_5">
      <path d="M 312.624115 293.76 
L 312.624115 3.456 
" clip-path="url(#p5e241cc773)" style="fill: none; stroke: #b0b0b0; stroke-width: 0.8; stroke-linecap: square"/>
     </g>
     <g id="line2d_6">
      <g>
       <use xlink:href="#m453001f10e" x="312.624115" y="293.76" style="stroke: #000000; stroke-width: 0.8"/>
      </g>
     </g>
     <g id="text_3">
      <!-- 4 -->
      <g transform="translate(306.261615 315.956875) scale(0.2 -0.2)">
       <use xlink:href="#DejaVuSans-34"/>
      </g>
     </g>
    </g>
    <g id="xtick_4">
     <g id="line2d_7">
      <path d="M 416.869693 293.76 
L 416.869693 3.456 
" clip-path="url(#p5e241cc773)" style="fill: none; stroke: #b0b0b0; stroke-width: 0.8; stroke-linecap: square"/>
     </g>
     <g id="line2d_8">
      <g>
       <use xlink:href="#m453001f10e" x="416.869693" y="293.76" style="stroke: #000000; stroke-width: 0.8"/>
      </g>
     </g>
     <g id="text_4">
      <!-- 8 -->
      <g transform="translate(410.507193 315.956875) scale(0.2 -0.2)">
       <defs>
        <path id="DejaVuSans-38" d="M 2034 2216 
Q 1584 2216 1326 1975 
Q 1069 1734 1069 1313 
Q 1069 891 1326 650 
Q 1584 409 2034 409 
Q 2484 409 2743 651 
Q 3003 894 3003 1313 
Q 3003 1734 2745 1975 
Q 2488 2216 2034 2216 
z
M 1403 2484 
Q 997 2584 770 2862 
Q 544 3141 544 3541 
Q 544 4100 942 4425 
Q 1341 4750 2034 4750 
Q 2731 4750 3128 4425 
Q 3525 4100 3525 3541 
Q 3525 3141 3298 2862 
Q 3072 2584 2669 2484 
Q 3125 2378 3379 2068 
Q 3634 1759 3634 1313 
Q 3634 634 3220 271 
Q 2806 -91 2034 -91 
Q 1263 -91 848 271 
Q 434 634 434 1313 
Q 434 1759 690 2068 
Q 947 2378 1403 2484 
z
M 1172 3481 
Q 1172 3119 1398 2916 
Q 1625 2713 2034 2713 
Q 2441 2713 2670 2916 
Q 2900 3119 2900 3481 
Q 2900 3844 2670 4047 
Q 2441 4250 2034 4250 
Q 1625 4250 1398 4047 
Q 1172 3844 1172 3481 
z
" transform="scale(0.015625)"/>
       </defs>
       <use xlink:href="#DejaVuSans-38"/>
      </g>
     </g>
    </g>
    <g id="text_5">
     <!-- log10 of Df -->
     <g transform="translate(175.214063 339.313125) scale(0.2 -0.2)">
      <defs>
       <path id="DejaVuSans-6c" d="M 603 4863 
L 1178 4863 
L 1178 0 
L 603 0 
L 603 4863 
z
" transform="scale(0.015625)"/>
       <path id="DejaVuSans-6f" d="M 1959 3097 
Q 1497 3097 1228 2736 
Q 959 2375 959 1747 
Q 959 1119 1226 758 
Q 1494 397 1959 397 
Q 2419 397 2687 759 
Q 2956 1122 2956 1747 
Q 2956 2369 2687 2733 
Q 2419 3097 1959 3097 
z
M 1959 3584 
Q 2709 3584 3137 3096 
Q 3566 2609 3566 1747 
Q 3566 888 3137 398 
Q 2709 -91 1959 -91 
Q 1206 -91 779 398 
Q 353 888 353 1747 
Q 353 2609 779 3096 
Q 1206 3584 1959 3584 
z
" transform="scale(0.015625)"/>
       <path id="DejaVuSans-67" d="M 2906 1791 
Q 2906 2416 2648 2759 
Q 2391 3103 1925 3103 
Q 1463 3103 1205 2759 
Q 947 2416 947 1791 
Q 947 1169 1205 825 
Q 1463 481 1925 481 
Q 2391 481 2648 825 
Q 2906 1169 2906 1791 
z
M 3481 434 
Q 3481 -459 3084 -895 
Q 2688 -1331 1869 -1331 
Q 1566 -1331 1297 -1286 
Q 1028 -1241 775 -1147 
L 775 -588 
Q 1028 -725 1275 -790 
Q 1522 -856 1778 -856 
Q 2344 -856 2625 -561 
Q 2906 -266 2906 331 
L 2906 616 
Q 2728 306 2450 153 
Q 2172 0 1784 0 
Q 1141 0 747 490 
Q 353 981 353 1791 
Q 353 2603 747 3093 
Q 1141 3584 1784 3584 
Q 2172 3584 2450 3431 
Q 2728 3278 2906 2969 
L 2906 3500 
L 3481 3500 
L 3481 434 
z
" transform="scale(0.015625)"/>
       <path id="DejaVuSans-31" d="M 794 531 
L 1825 531 
L 1825 4091 
L 703 3866 
L 703 4441 
L 1819 4666 
L 2450 4666 
L 2450 531 
L 3481 531 
L 3481 0 
L 794 0 
L 794 531 
z
" transform="scale(0.015625)"/>
       <path id="DejaVuSans-20" transform="scale(0.015625)"/>
       <path id="DejaVuSans-66" d="M 2375 4863 
L 2375 4384 
L 1825 4384 
Q 1516 4384 1395 4259 
Q 1275 4134 1275 3809 
L 1275 3500 
L 2222 3500 
L 2222 3053 
L 1275 3053 
L 1275 0 
L 697 0 
L 697 3053 
L 147 3053 
L 147 3500 
L 697 3500 
L 697 3744 
Q 697 4328 969 4595 
Q 1241 4863 1831 4863 
L 2375 4863 
z
" transform="scale(0.015625)"/>
       <path id="DejaVuSans-44" d="M 1259 4147 
L 1259 519 
L 2022 519 
Q 2988 519 3436 956 
Q 3884 1394 3884 2338 
Q 3884 3275 3436 3711 
Q 2988 4147 2022 4147 
L 1259 4147 
z
M 628 4666 
L 1925 4666 
Q 3281 4666 3915 4102 
Q 4550 3538 4550 2338 
Q 4550 1131 3912 565 
Q 3275 0 1925 0 
L 628 0 
L 628 4666 
z
" transform="scale(0.015625)"/>
      </defs>
      <use xlink:href="#DejaVuSans-6c"/>
      <use xlink:href="#DejaVuSans-6f" x="27.783203"/>
      <use xlink:href="#DejaVuSans-67" x="88.964844"/>
      <use xlink:href="#DejaVuSans-31" x="152.441406"/>
      <use xlink:href="#DejaVuSans-30" x="216.064453"/>
      <use xlink:href="#DejaVuSans-20" x="279.6875"/>
      <use xlink:href="#DejaVuSans-6f" x="311.474609"/>
      <use xlink:href="#DejaVuSans-66" x="372.65625"/>
      <use xlink:href="#DejaVuSans-20" x="407.861328"/>
      <use xlink:href="#DejaVuSans-44" x="439.648438"/>
      <use xlink:href="#DejaVuSans-66" x="516.650391"/>
     </g>
    </g>
   </g>
   <g id="matplotlib.axis_2">
    <g id="ytick_1">
     <g id="line2d_9">
      <path d="M 0 293.76 
L 460.8 293.76 
" clip-path="url(#p5e241cc773)" style="fill: none; stroke: #b0b0b0; stroke-width: 0.8; stroke-linecap: square"/>
     </g>
     <g id="line2d_10">
      <defs>
       <path id="m9e08f1d34d" d="M 0 0 
L -3.5 0 
" style="stroke: #000000; stroke-width: 0.8"/>
      </defs>
      <g>
       <use xlink:href="#m9e08f1d34d" x="0" y="293.76" style="stroke: #000000; stroke-width: 0.8"/>
      </g>
     </g>
    </g>
    <g id="ytick_2">
     <g id="line2d_11">
      <path d="M 0 236.274059 
L 460.8 236.274059 
" clip-path="url(#p5e241cc773)" style="fill: none; stroke: #b0b0b0; stroke-width: 0.8; stroke-linecap: square"/>
     </g>
     <g id="line2d_12">
      <g>
       <use xlink:href="#m9e08f1d34d" x="0" y="236.274059" style="stroke: #000000; stroke-width: 0.8"/>
      </g>
     </g>
    </g>
    <g id="ytick_3">
     <g id="line2d_13">
      <path d="M 0 178.788119 
L 460.8 178.788119 
" clip-path="url(#p5e241cc773)" style="fill: none; stroke: #b0b0b0; stroke-width: 0.8; stroke-linecap: square"/>
     </g>
     <g id="line2d_14">
      <g>
       <use xlink:href="#m9e08f1d34d" x="0" y="178.788119" style="stroke: #000000; stroke-width: 0.8"/>
      </g>
     </g>
    </g>
    <g id="ytick_4">
     <g id="line2d_15">
      <path d="M 0 121.302178 
L 460.8 121.302178 
" clip-path="url(#p5e241cc773)" style="fill: none; stroke: #b0b0b0; stroke-width: 0.8; stroke-linecap: square"/>
     </g>
     <g id="line2d_16">
      <g>
       <use xlink:href="#m9e08f1d34d" x="0" y="121.302178" style="stroke: #000000; stroke-width: 0.8"/>
      </g>
     </g>
    </g>
    <g id="ytick_5">
     <g id="line2d_17">
      <path d="M 0 63.816238 
L 460.8 63.816238 
" clip-path="url(#p5e241cc773)" style="fill: none; stroke: #b0b0b0; stroke-width: 0.8; stroke-linecap: square"/>
     </g>
     <g id="line2d_18">
      <g>
       <use xlink:href="#m9e08f1d34d" x="0" y="63.816238" style="stroke: #000000; stroke-width: 0.8"/>
      </g>
     </g>
    </g>
    <g id="ytick_6">
     <g id="line2d_19">
      <path d="M 0 6.330297 
L 460.8 6.330297 
" clip-path="url(#p5e241cc773)" style="fill: none; stroke: #b0b0b0; stroke-width: 0.8; stroke-linecap: square"/>
     </g>
     <g id="line2d_20">
      <g>
       <use xlink:href="#m9e08f1d34d" x="0" y="6.330297" style="stroke: #000000; stroke-width: 0.8"/>
      </g>
     </g>
    </g>
   </g>
   <g id="line2d_21">
    <path d="M -1 287.372673 
L -0.112621 287.372673 
L -0.112621 279.388515 
L 29.109733 279.388515 
L 29.109733 278.590099 
L 43.325035 278.590099 
L 43.325035 277.791683 
L 59.257458 277.791683 
L 59.257458 276.993267 
L 71.788795 276.993267 
L 71.788795 276.194851 
L 73.346563 276.194851 
L 73.346563 275.396436 
L 106.213858 275.396436 
L 106.213858 274.59802 
L 108.943071 274.59802 
L 108.943071 273.799604 
L 113.027942 273.799604 
L 113.027942 273.001188 
L 115.753674 273.001188 
L 115.753674 272.202772 
L 121.37256 272.202772 
L 121.37256 271.404356 
L 156.541817 271.404356 
L 156.541817 270.605941 
L 161.368588 270.605941 
L 161.390702 258.629703 
L 162.861736 258.629703 
L 162.861736 257.831287 
L 163.192541 257.831287 
L 163.192541 257.032871 
L 164.928935 257.032871 
L 164.928935 256.234455 
L 167.40872 256.234455 
L 167.40872 255.43604 
L 172.253147 255.43604 
L 172.275771 253.839208 
L 172.60681 253.839208 
L 172.60681 253.040792 
L 174.411609 253.040792 
L 174.411609 252.242376 
L 174.810204 252.242376 
L 174.810204 251.44396 
L 174.956349 251.44396 
L 174.956349 250.645545 
L 178.870942 250.645545 
L 178.870942 249.847129 
L 182.27066 249.847129 
L 182.27066 249.048713 
L 183.614943 249.048713 
L 183.614943 248.250297 
L 186.213905 248.250297 
L 186.213905 247.451881 
L 189.219427 247.451881 
L 189.219427 246.653465 
L 190.971663 246.653465 
L 190.971663 245.85505 
L 197.116646 245.85505 
L 197.116646 245.056634 
L 198.721742 245.056634 
L 198.721742 244.258218 
L 199.47733 244.258218 
L 199.47733 243.459802 
L 200.878618 243.459802 
L 200.878618 242.661386 
L 201.599386 242.661386 
L 201.599386 241.86297 
L 202.46412 241.86297 
L 202.46412 241.064554 
L 202.765912 241.064554 
L 202.765912 240.266139 
L 203.426685 240.266139 
L 203.426685 239.467723 
L 204.148641 239.467723 
L 204.209186 237.870891 
L 204.938249 237.870891 
L 204.938249 237.072475 
L 205.776057 237.072475 
L 205.776057 236.274059 
L 207.212692 236.274059 
L 207.212692 235.475644 
L 207.722456 235.475644 
L 207.722456 234.677228 
L 208.229665 234.677228 
L 208.229665 233.878812 
L 209.001894 233.878812 
L 209.001894 233.080396 
L 209.36327 233.080396 
L 209.36327 232.28198 
L 210.629999 232.28198 
L 210.629999 231.483564 
L 210.861105 231.483564 
L 210.861105 230.685149 
L 211.840066 230.685149 
L 211.840066 229.886733 
L 212.306128 229.886733 
L 212.306128 228.289901 
L 213.355477 228.289901 
L 213.433449 226.693069 
L 214.361576 226.693069 
L 214.361576 225.894653 
L 215.809874 225.894653 
L 215.809874 225.096238 
L 215.966328 225.096238 
L 216.013106 223.499406 
L 216.220316 223.499406 
L 216.290962 221.902574 
L 216.383425 221.902574 
L 216.387868 220.305743 
L 217.166758 220.305743 
L 217.166758 219.507327 
L 217.786171 219.507327 
L 217.786171 218.708911 
L 217.924355 218.708911 
L 217.988376 217.112079 
L 218.67834 217.112079 
L 218.67834 216.313663 
L 218.988811 216.313663 
L 218.988811 215.515248 
L 219.189102 215.515248 
L 219.189102 214.716832 
L 219.580783 214.716832 
L 219.591867 213.12 
L 219.806034 213.12 
L 219.806034 212.321584 
L 220.19532 212.321584 
L 220.215219 210.724752 
L 220.339526 210.724752 
L 220.386613 209.127921 
L 220.640591 209.127921 
L 220.726418 207.531089 
L 220.885533 207.531089 
L 220.885533 206.732673 
L 221.433816 206.732673 
L 221.433816 205.934257 
L 221.819966 205.934257 
L 221.868974 204.337426 
L 221.97795 204.337426 
L 221.97795 203.53901 
L 222.234585 203.53901 
L 222.234585 202.740594 
L 222.782051 202.740594 
L 222.782051 201.942178 
L 223.131683 201.942178 
L 223.213016 200.345347 
L 223.421759 200.345347 
L 223.421759 199.546931 
L 223.680893 199.546931 
L 223.680893 198.748515 
L 223.858141 198.748515 
L 223.858141 197.950099 
L 224.213737 197.950099 
L 224.30465 195.554851 
L 224.485968 195.554851 
L 224.485968 194.756436 
L 224.793519 194.756436 
L 224.793519 193.95802 
L 225.448014 193.95802 
L 225.448014 193.159604 
L 225.69784 193.159604 
L 225.69784 192.361188 
L 225.992232 192.361188 
L 225.992232 191.562772 
L 226.473526 191.562772 
L 226.571586 189.965941 
L 227.285874 189.965941 
L 227.285874 189.167525 
L 227.631175 189.167525 
L 227.631175 188.369109 
L 228.595457 188.369109 
L 228.653039 186.772277 
L 228.843553 186.772277 
L 228.843553 185.973861 
L 229.408585 185.973861 
L 229.453596 184.37703 
L 230.109618 184.37703 
L 230.109618 183.578614 
L 230.42102 183.578614 
L 230.508363 181.981782 
L 230.862579 181.981782 
L 230.867059 180.38495 
L 231.354873 180.38495 
L 231.354873 179.586535 
L 231.499376 179.586535 
L 231.514315 177.989703 
L 231.945403 177.989703 
L 231.945403 177.191287 
L 232.470074 177.191287 
L 232.470074 176.392871 
L 232.602798 176.392871 
L 232.602798 175.594455 
L 232.859133 175.594455 
L 232.859133 174.79604 
L 233.022023 174.79604 
L 233.075392 173.199208 
L 233.374702 173.199208 
L 233.374702 172.400792 
L 233.798452 172.400792 
L 233.798452 171.602376 
L 233.962525 171.602376 
L 233.962525 170.80396 
L 234.164487 170.80396 
L 234.167496 169.207129 
L 234.538494 169.207129 
L 234.629169 167.610297 
L 234.931533 167.610297 
L 234.956438 166.013465 
L 235.574497 166.013465 
L 235.574497 165.21505 
L 235.697591 165.21505 
L 235.781825 163.618218 
L 235.921725 163.618218 
L 235.921725 162.819802 
L 236.135131 162.819802 
L 236.135131 162.021386 
L 236.471748 162.021386 
L 236.570647 160.424554 
L 237.059887 160.424554 
L 237.059887 159.626139 
L 237.393924 159.626139 
L 237.393924 158.827723 
L 237.509257 158.827723 
L 237.603348 156.432475 
L 237.676645 156.432475 
L 237.676645 155.634059 
L 238.297788 155.634059 
L 238.371395 153.238812 
L 238.711438 153.238812 
L 238.711438 152.440396 
L 239.078174 152.440396 
L 239.135872 150.843564 
L 239.352248 150.843564 
L 239.352248 150.045149 
L 240.27422 150.045149 
L 240.27422 149.246733 
L 241.199479 149.246733 
L 241.199479 148.448317 
L 241.776073 148.448317 
L 241.813072 146.851485 
L 242.102516 146.851485 
L 242.102516 146.053069 
L 242.578692 146.053069 
L 242.578692 145.254653 
L 242.839109 145.254653 
L 242.93667 143.657822 
L 243.042169 143.657822 
L 243.042169 142.859406 
L 243.286347 142.859406 
L 243.323765 141.262574 
L 243.701233 141.262574 
L 243.701233 140.464158 
L 244.645863 140.464158 
L 244.727288 138.867327 
L 244.886331 138.867327 
L 244.923925 137.270495 
L 245.201878 137.270495 
L 245.285953 135.673663 
L 245.573668 135.673663 
L 245.653891 134.076832 
L 245.782111 134.076832 
L 245.782111 133.278416 
L 246.109781 133.278416 
L 246.18549 131.681584 
L 246.401455 131.681584 
L 246.485319 130.084752 
L 246.751429 130.084752 
L 246.772658 127.689505 
L 246.87486 127.689505 
L 246.887218 126.092673 
L 247.027928 126.092673 
L 247.13123 122.100594 
L 247.185712 122.100594 
L 247.292856 119.705347 
L 247.297432 119.705347 
L 247.298471 118.108515 
L 247.601857 118.108515 
L 247.601857 117.310099 
L 247.845046 117.310099 
L 247.845046 116.511683 
L 248.236058 116.511683 
L 248.27836 114.914851 
L 248.52405 114.914851 
L 248.52405 114.116436 
L 248.657481 114.116436 
L 248.657481 113.31802 
L 248.813396 113.31802 
L 248.813396 112.519604 
L 249.045672 112.519604 
L 249.045672 111.721188 
L 249.197804 111.721188 
L 249.278253 109.325941 
L 249.328616 109.325941 
L 249.342572 107.729109 
L 249.969192 107.729109 
L 249.969192 106.930693 
L 250.355579 106.930693 
L 250.411955 105.333861 
L 250.823416 105.333861 
L 250.823416 104.535446 
L 251.04805 104.535446 
L 251.04805 103.73703 
L 251.19646 103.73703 
L 251.274919 102.140198 
L 251.346651 102.140198 
L 251.413299 100.543366 
L 251.724452 100.543366 
L 251.724452 99.74495 
L 251.898452 99.74495 
L 251.898452 98.946535 
L 252.307567 98.946535 
L 252.307567 98.148119 
L 252.425654 98.148119 
L 252.425654 97.349703 
L 252.598782 97.349703 
L 252.693023 95.752871 
L 252.949275 95.752871 
L 252.949275 94.954455 
L 254.84933 94.954455 
L 254.902902 93.357624 
L 255.009077 93.357624 
L 255.009077 92.559208 
L 255.189815 92.559208 
L 255.189815 91.760792 
L 255.407278 91.760792 
L 255.407278 90.962376 
L 255.676958 90.962376 
L 255.741074 89.365545 
L 255.923011 89.365545 
L 255.923011 88.567129 
L 256.65081 88.567129 
L 256.65081 87.768713 
L 256.972538 87.768713 
L 256.980051 86.171881 
L 257.127674 86.171881 
L 257.208727 84.57505 
L 257.425309 84.57505 
L 257.505744 82.978218 
L 257.592198 82.978218 
L 257.638101 80.58297 
L 258.155943 80.58297 
L 258.197837 78.986139 
L 258.313164 78.986139 
L 258.313164 78.187723 
L 258.478875 78.187723 
L 258.558092 76.590891 
L 258.597135 76.590891 
L 258.597135 75.792475 
L 258.736943 75.792475 
L 258.79895 74.195644 
L 258.867761 74.195644 
L 258.867761 73.397228 
L 259.241586 73.397228 
L 259.241586 72.598812 
L 259.863335 72.598812 
L 259.967417 71.00198 
L 260.037405 71.00198 
L 260.037405 70.203564 
L 260.313582 70.203564 
L 260.409058 67.808317 
L 260.556577 67.808317 
L 260.556577 67.009901 
L 260.79264 67.009901 
L 260.79264 66.211485 
L 260.927109 66.211485 
L 260.927109 65.413069 
L 261.200779 65.413069 
L 261.200779 64.614653 
L 261.705598 64.614653 
L 261.705598 63.816238 
L 261.827281 63.816238 
L 261.827281 63.017822 
L 262.025695 63.017822 
L 262.119787 60.622574 
L 262.384327 60.622574 
L 262.384327 59.824158 
L 262.507817 59.824158 
L 262.601435 58.227327 
L 262.694475 58.227327 
L 262.694475 57.428911 
L 262.845644 57.428911 
L 262.845644 56.630495 
L 263.006107 56.630495 
L 263.006107 55.832079 
L 263.470474 55.832079 
L 263.50086 54.235248 
L 263.734869 54.235248 
L 263.840688 52.638416 
L 264.034768 52.638416 
L 264.142608 51.041584 
L 264.171026 51.041584 
L 264.171026 50.243168 
L 264.601003 50.243168 
L 264.601003 49.444752 
L 264.810494 49.444752 
L 264.886441 47.847921 
L 265.404601 47.847921 
L 265.472077 46.251089 
L 265.664964 46.251089 
L 265.75734 44.654257 
L 266.042626 44.654257 
L 266.042626 43.855842 
L 266.515991 43.855842 
L 266.515991 43.057426 
L 266.842055 43.057426 
L 266.843779 41.460594 
L 267.063319 41.460594 
L 267.063319 40.662178 
L 267.269979 40.662178 
L 267.322382 39.065347 
L 267.528283 39.065347 
L 267.528283 38.266931 
L 268.101874 38.266931 
L 268.170382 35.871683 
L 268.401602 35.871683 
L 268.401602 35.073267 
L 268.732909 35.073267 
L 268.735451 33.476436 
L 268.973086 33.476436 
L 268.973086 32.67802 
L 270.196436 32.67802 
L 270.196436 31.879604 
L 271.32097 31.879604 
L 271.32097 31.081188 
L 271.473697 31.081188 
L 271.473697 30.282772 
L 272.916256 30.282772 
L 272.916256 29.484356 
L 274.321955 29.484356 
L 274.321955 28.685941 
L 275.195991 28.685941 
L 275.282304 27.089109 
L 275.500538 27.089109 
L 275.500538 26.290693 
L 275.649103 26.290693 
L 275.69617 24.693861 
L 276.198521 24.693861 
L 276.198521 23.895446 
L 276.691885 23.895446 
L 276.691885 23.09703 
L 277.066624 23.09703 
L 277.066624 22.298614 
L 277.222826 22.298614 
L 277.222826 21.500198 
L 277.810335 21.500198 
L 277.882804 19.903366 
L 278.257338 19.903366 
L 278.358105 18.306535 
L 278.542261 18.306535 
L 278.542261 17.508119 
L 279.300301 17.508119 
L 279.322208 15.911287 
L 279.539752 15.911287 
L 279.539752 15.112871 
L 280.633813 15.112871 
L 280.633813 14.314455 
L 283.047112 14.314455 
L 283.047112 13.51604 
L 285.987773 13.51604 
L 285.987773 12.717624 
L 286.398899 12.717624 
L 286.398899 11.919208 
L 291.200311 11.919208 
L 291.200311 11.120792 
L 294.769602 11.120792 
L 294.769602 10.322376 
L 297.984199 10.322376 
L 298.08679 8.725545 
L 312.162401 8.725545 
L 312.162401 7.927129 
L 321.933046 7.927129 
L 321.933046 7.128713 
L 349.607875 7.128713 
L 349.607875 6.330297 
L 349.607875 6.330297 
L 460.8 6.330297 
L 460.8 6.330297 
" clip-path="url(#p5e241cc773)" style="fill: none; stroke: #ff0000; stroke-width: 3; stroke-linecap: square"/>
   </g>
   <g id="line2d_22">
    <path d="M 192.399043 293.76 
L 192.504953 288.969505 
L 192.540929 288.969505 
L 192.585652 287.372673 
L 192.653295 287.372673 
L 192.704921 281.783762 
L 220.922072 281.783762 
L 220.922072 280.985347 
L 223.963761 280.985347 
L 223.963761 280.186931 
L 225.220185 280.186931 
L 225.220185 279.388515 
L 227.940201 279.388515 
L 227.940201 278.590099 
L 228.089663 278.590099 
L 228.089663 277.791683 
L 228.255345 277.791683 
L 228.255345 276.993267 
L 229.920999 276.993267 
L 229.935777 275.396436 
L 231.26518 275.396436 
L 231.26518 274.59802 
L 232.026824 274.59802 
L 232.026824 273.799604 
L 233.810374 273.799604 
L 233.810374 273.001188 
L 234.717094 273.001188 
L 234.717094 272.202772 
L 234.97724 272.202772 
L 235.075879 270.605941 
L 235.123792 270.605941 
L 235.123792 269.807525 
L 235.264262 269.807525 
L 235.264262 269.009109 
L 237.150167 269.009109 
L 237.255041 267.412277 
L 237.488906 267.412277 
L 237.509257 265.815446 
L 238.550196 265.815446 
L 238.550196 265.01703 
L 239.469111 265.01703 
L 239.507644 263.420198 
L 239.771773 263.420198 
L 239.771773 262.621782 
L 240.07418 262.621782 
L 240.07418 261.823366 
L 240.371627 261.823366 
L 240.371627 261.02495 
L 241.035613 261.02495 
L 241.110788 258.629703 
L 241.581001 258.629703 
L 241.581001 257.831287 
L 242.392419 257.831287 
L 242.41275 256.234455 
L 242.863885 256.234455 
L 242.863885 255.43604 
L 243.440875 255.43604 
L 243.440875 254.637624 
L 243.602038 254.637624 
L 243.655701 253.040792 
L 244.158108 253.040792 
L 244.158108 252.242376 
L 244.455833 252.242376 
L 244.455833 251.44396 
L 245.037636 251.44396 
L 245.081815 249.847129 
L 245.248059 249.847129 
L 245.300799 236.274059 
L 245.471412 236.274059 
L 245.549957 234.677228 
L 246.093497 234.677228 
L 246.093497 233.878812 
L 246.626059 233.878812 
L 246.626059 233.080396 
L 246.75824 233.080396 
L 246.75824 232.28198 
L 247.24183 232.28198 
L 247.24183 231.483564 
L 247.379433 231.483564 
L 247.379433 230.685149 
L 247.495319 230.685149 
L 247.495319 229.886733 
L 247.845046 229.886733 
L 247.845046 229.088317 
L 248.026436 229.088317 
L 248.105603 227.491485 
L 248.23569 227.491485 
L 248.23569 226.693069 
L 248.365549 226.693069 
L 248.470925 224.297822 
L 248.602039 224.297822 
L 248.602039 223.499406 
L 248.819159 223.499406 
L 248.87345 221.104158 
L 249.602464 221.104158 
L 249.602464 220.305743 
L 249.942305 220.305743 
L 249.942305 219.507327 
L 250.73838 219.507327 
L 250.832709 217.910495 
L 250.884286 217.910495 
L 250.884286 217.112079 
L 251.20086 217.112079 
L 251.287847 215.515248 
L 251.724452 215.515248 
L 251.724452 214.716832 
L 251.858793 214.716832 
L 251.903023 213.12 
L 252.14914 213.12 
L 252.206105 211.523168 
L 252.773681 211.523168 
L 252.773681 210.724752 
L 253.527577 210.724752 
L 253.527577 209.926337 
L 253.649999 209.926337 
L 253.747885 208.329505 
L 253.81484 208.329505 
L 253.893134 206.732673 
L 254.150259 206.732673 
L 254.150259 205.934257 
L 254.265696 205.934257 
L 254.265696 205.135842 
L 254.388454 205.135842 
L 254.454846 202.740594 
L 254.562682 202.740594 
L 254.562682 201.942178 
L 254.849206 201.942178 
L 254.849206 201.143762 
L 255.197775 201.143762 
L 255.23568 199.546931 
L 255.389245 199.546931 
L 255.389245 198.748515 
L 255.54271 198.748515 
L 255.57793 197.151683 
L 255.691944 197.151683 
L 255.691944 196.353267 
L 255.830033 196.353267 
L 255.937727 192.361188 
L 256.058338 192.361188 
L 256.058338 191.562772 
L 256.230504 191.562772 
L 256.299468 189.965941 
L 256.367324 189.965941 
L 256.382189 188.369109 
L 256.761833 188.369109 
L 256.823649 186.772277 
L 256.938734 186.772277 
L 257.037153 185.175446 
L 257.050825 185.175446 
L 257.132052 183.578614 
L 257.20359 183.578614 
L 257.312158 181.183366 
L 257.540719 181.183366 
L 257.624729 178.788119 
L 257.875391 178.788119 
L 257.935965 175.594455 
L 258.056311 175.594455 
L 258.056311 174.79604 
L 258.898276 174.79604 
L 258.924978 173.199208 
L 259.084736 173.199208 
L 259.167163 171.602376 
L 259.360387 171.602376 
L 259.360387 170.80396 
L 259.592016 170.80396 
L 259.592016 170.005545 
L 259.706463 170.005545 
L 259.706463 169.207129 
L 259.841265 169.207129 
L 259.924296 166.013465 
L 260.037405 166.013465 
L 260.071443 164.416634 
L 260.259013 164.416634 
L 260.313582 162.819802 
L 260.561705 162.819802 
L 260.561705 162.021386 
L 260.881775 162.021386 
L 260.960188 160.424554 
L 261.353474 160.424554 
L 261.3535 148.448317 
L 261.7979 148.448317 
L 261.831027 146.851485 
L 262.03914 146.851485 
L 262.03914 146.053069 
L 262.297101 146.053069 
L 262.391649 144.456238 
L 262.618298 144.456238 
L 262.618298 143.657822 
L 262.772819 143.657822 
L 262.772819 142.859406 
L 263.207377 142.859406 
L 263.214336 141.262574 
L 263.505647 141.262574 
L 263.505647 140.464158 
L 263.765712 140.464158 
L 263.765712 139.665743 
L 264.05571 139.665743 
L 264.150892 138.068911 
L 264.48149 138.068911 
L 264.583953 135.673663 
L 264.802628 135.673663 
L 264.802628 134.875248 
L 265.171022 134.875248 
L 265.171022 134.076832 
L 265.310205 134.076832 
L 265.310205 133.278416 
L 265.472077 133.278416 
L 265.472077 132.48 
L 265.664964 132.48 
L 265.700928 130.883168 
L 266.010241 130.883168 
L 266.010241 130.084752 
L 266.706285 130.084752 
L 266.706285 129.286337 
L 266.884105 129.286337 
L 266.884105 128.487921 
L 267.428618 128.487921 
L 267.428618 127.689505 
L 267.569392 127.689505 
L 267.627181 126.092673 
L 267.682554 126.092673 
L 267.718941 124.495842 
L 267.876955 124.495842 
L 267.876955 123.697426 
L 268.222128 123.697426 
L 268.222128 122.89901 
L 268.457282 122.89901 
L 268.478011 121.302178 
L 268.640104 121.302178 
L 268.640104 120.503762 
L 269.033747 120.503762 
L 269.033747 119.705347 
L 269.347711 119.705347 
L 269.448589 118.108515 
L 270.171079 118.108515 
L 270.198086 116.511683 
L 270.535627 116.511683 
L 270.535627 115.713267 
L 270.676201 115.713267 
L 270.676201 114.914851 
L 270.882618 114.914851 
L 270.882618 114.116436 
L 271.194164 114.116436 
L 271.27071 110.922772 
L 271.743732 110.922772 
L 271.743732 110.124356 
L 272.497249 110.124356 
L 272.497249 109.325941 
L 273.698062 109.325941 
L 273.698062 108.527525 
L 275.649103 108.527525 
L 275.71004 106.930693 
L 277.015342 106.930693 
L 277.091184 105.333861 
L 277.882804 105.333861 
L 277.882804 104.535446 
L 278.358105 104.535446 
L 278.358105 103.73703 
L 279.300301 103.73703 
L 279.322208 102.140198 
L 279.785368 102.140198 
L 279.785368 101.341782 
L 282.216176 101.341782 
L 282.216176 100.543366 
L 282.48975 100.543366 
L 282.48975 99.74495 
L 283.047112 99.74495 
L 283.047112 98.946535 
L 283.817061 98.946535 
L 283.817061 98.148119 
L 284.191829 98.148119 
L 284.201132 96.551287 
L 285.371402 96.551287 
L 285.371402 95.752871 
L 285.801466 95.752871 
L 285.801466 94.954455 
L 287.094489 94.954455 
L 287.094489 94.15604 
L 288.1264 94.15604 
L 288.1264 93.357624 
L 288.407689 93.357624 
L 288.407689 92.559208 
L 288.864289 92.559208 
L 288.864289 91.760792 
L 289.080004 91.760792 
L 289.080004 90.962376 
L 289.244856 90.962376 
L 289.244856 90.16396 
L 289.505445 90.16396 
L 289.505445 89.365545 
L 289.765165 89.365545 
L 289.765165 88.567129 
L 290.392008 88.567129 
L 290.392008 87.768713 
L 293.541034 87.768713 
L 293.541034 86.970297 
L 293.913198 86.970297 
L 293.913198 86.171881 
L 296.543317 86.171881 
L 296.543317 85.373465 
L 297.927519 85.373465 
L 297.927519 84.57505 
L 307.908574 84.57505 
L 307.908574 72.598812 
L 310.565543 72.598812 
L 310.565543 71.800396 
L 314.176216 71.800396 
L 314.176216 71.00198 
L 316.268141 71.00198 
L 316.268141 70.203564 
L 316.818587 70.203564 
L 316.818587 69.405149 
L 317.86469 69.405149 
L 317.86469 68.606733 
L 319.437309 68.606733 
L 319.437309 67.808317 
L 319.688458 67.808317 
L 319.688458 67.009901 
L 321.790778 67.009901 
L 321.790778 66.211485 
L 322.636854 66.211485 
L 322.636854 65.413069 
L 323.368122 65.413069 
L 323.368122 64.614653 
L 324.719233 64.614653 
L 324.719233 63.816238 
L 326.857482 63.816238 
L 326.857482 63.017822 
L 328.503217 63.017822 
L 328.503217 62.219406 
L 328.798244 62.219406 
L 328.798244 61.42099 
L 329.379786 61.42099 
L 329.379786 60.622574 
L 331.932573 60.622574 
L 331.932573 59.824158 
L 333.080593 59.824158 
L 333.080593 59.025743 
L 333.411316 59.025743 
L 333.411316 58.227327 
L 333.579483 58.227327 
L 333.579483 57.428911 
L 337.831592 57.428911 
L 337.831592 56.630495 
L 338.41228 56.630495 
L 338.41228 55.832079 
L 339.557825 55.832079 
L 339.557825 55.033663 
L 340.458955 55.033663 
L 340.458955 54.235248 
L 341.302874 54.235248 
L 341.302874 53.436832 
L 344.108506 53.436832 
L 344.108506 52.638416 
L 344.804864 52.638416 
L 344.804864 51.84 
L 352.26276 51.84 
L 352.26276 51.041584 
L 352.942834 51.041584 
L 352.942834 50.243168 
L 353.469133 50.243168 
L 353.469133 49.444752 
L 353.85009 49.444752 
L 353.85009 48.646337 
L 355.331616 48.646337 
L 355.331616 47.847921 
L 358.144049 47.847921 
L 358.144049 47.049505 
L 358.555422 47.049505 
L 358.62898 45.452673 
L 362.08342 45.452673 
L 362.08342 44.654257 
L 363.896882 44.654257 
L 363.896882 43.855842 
L 372.597366 43.855842 
L 372.597366 43.057426 
L 372.957719 43.057426 
L 372.957719 42.25901 
L 374.23714 42.25901 
L 374.23714 41.460594 
L 374.42578 41.460594 
L 374.42578 40.662178 
L 375.684122 40.662178 
L 375.684122 39.863762 
L 378.639915 39.863762 
L 378.639915 39.065347 
L 378.799004 39.065347 
L 378.812239 37.468515 
L 379.063583 37.468515 
L 379.063583 36.670099 
L 379.324107 36.670099 
L 379.324107 35.871683 
L 379.477195 35.871683 
L 379.477195 35.073267 
L 381.467699 35.073267 
L 381.467699 34.274851 
L 383.236796 34.274851 
L 383.236796 33.476436 
L 383.741185 33.476436 
L 383.741185 32.67802 
L 383.929469 32.67802 
L 383.929469 31.879604 
L 384.489554 31.879604 
L 384.489554 31.081188 
L 384.86813 31.081188 
L 384.86813 30.282772 
L 385.096044 30.282772 
L 385.096044 29.484356 
L 385.237715 29.484356 
L 385.240518 27.887525 
L 385.791613 27.887525 
L 385.791613 27.089109 
L 386.132182 27.089109 
L 386.132182 26.290693 
L 386.342743 26.290693 
L 386.342743 25.492277 
L 387.107771 25.492277 
L 387.107771 24.693861 
L 387.501428 24.693861 
L 387.501428 23.895446 
L 389.529365 23.895446 
L 389.529365 23.09703 
L 389.90633 23.09703 
L 389.90633 22.298614 
L 391.160801 22.298614 
L 391.160801 21.500198 
L 391.367292 21.500198 
L 391.367292 20.701782 
L 391.749041 20.701782 
L 391.749041 19.903366 
L 392.354805 19.903366 
L 392.354805 19.10495 
L 393.170562 19.10495 
L 393.170562 18.306535 
L 393.753419 18.306535 
L 393.753419 17.508119 
L 396.450097 17.508119 
L 396.450097 16.709703 
L 396.831035 16.709703 
L 396.831035 15.911287 
L 398.114327 15.911287 
L 398.114327 15.112871 
L 401.838678 15.112871 
L 401.838678 14.314455 
L 404.238275 14.314455 
L 404.238275 13.51604 
L 406.976525 13.51604 
L 406.976525 12.717624 
L 407.127987 12.717624 
L 407.158532 11.120792 
L 407.682728 11.120792 
L 407.682728 10.322376 
L 411.054397 10.322376 
L 411.054397 9.52396 
L 421.628488 9.52396 
L 421.628488 8.725545 
L 422.480647 8.725545 
L 422.480647 7.927129 
L 431.117248 7.927129 
L 431.117248 7.128713 
L 437.829338 7.128713 
L 437.829338 6.330297 
L 437.829338 6.330297 
L 460.8 6.330297 
L 460.8 6.330297 
" clip-path="url(#p5e241cc773)" style="fill: none; stroke: #00bfbf; stroke-width: 1.5; stroke-linecap: square"/>
   </g>
   <g id="line2d_23">
    <path d="M 192.329999 293.76 
L 192.43879 289.767921 
L 192.442749 289.767921 
L 192.543328 282.582178 
L 192.704921 282.582178 
L 192.704921 281.783762 
L 220.921117 281.783762 
L 220.921117 280.985347 
L 223.960982 280.985347 
L 223.960982 280.186931 
L 225.219214 280.186931 
L 225.219214 279.388515 
L 227.940201 279.388515 
L 227.940201 278.590099 
L 228.07396 278.590099 
L 228.07396 277.791683 
L 228.254516 277.791683 
L 228.254516 276.993267 
L 229.912823 276.993267 
L 229.918485 275.396436 
L 231.261821 275.396436 
L 231.261821 274.59802 
L 231.919789 274.59802 
L 231.919789 273.799604 
L 233.805353 273.799604 
L 233.805353 273.001188 
L 234.71613 273.001188 
L 234.71613 272.202772 
L 234.859109 272.202772 
L 234.859109 271.404356 
L 235.073848 271.404356 
L 235.123792 269.807525 
L 235.262617 269.807525 
L 235.262617 269.009109 
L 237.150167 269.009109 
L 237.254303 267.412277 
L 237.488906 267.412277 
L 237.509257 265.815446 
L 238.520865 265.815446 
L 238.520865 265.01703 
L 238.900134 265.01703 
L 238.900134 264.218614 
L 239.263174 264.218614 
L 239.263174 263.420198 
L 239.755495 263.420198 
L 239.755495 262.621782 
L 240.07279 262.621782 
L 240.07279 261.823366 
L 240.364798 261.823366 
L 240.364798 261.02495 
L 241.035613 261.02495 
L 241.102003 258.629703 
L 241.454261 258.629703 
L 241.454261 257.831287 
L 242.342523 257.831287 
L 242.39176 256.234455 
L 242.82122 256.234455 
L 242.82122 255.43604 
L 243.311699 255.43604 
L 243.311699 254.637624 
L 243.601443 254.637624 
L 243.655215 253.040792 
L 244.157853 253.040792 
L 244.157853 252.242376 
L 244.337296 252.242376 
L 244.337296 251.44396 
L 245.037636 251.44396 
L 245.080925 249.048713 
L 245.248059 249.048713 
L 245.294293 236.274059 
L 245.466519 236.274059 
L 245.547434 234.677228 
L 246.093497 234.677228 
L 246.093497 233.878812 
L 246.482921 233.878812 
L 246.482921 233.080396 
L 246.75824 233.080396 
L 246.75824 232.28198 
L 247.24183 232.28198 
L 247.24183 231.483564 
L 247.379433 231.483564 
L 247.379433 230.685149 
L 247.495319 230.685149 
L 247.495319 229.886733 
L 247.845046 229.886733 
L 247.845046 229.088317 
L 248.024622 229.088317 
L 248.105106 227.491485 
L 248.23569 227.491485 
L 248.23569 226.693069 
L 248.365004 226.693069 
L 248.469542 224.297822 
L 248.59741 224.297822 
L 248.59741 223.499406 
L 248.812046 223.499406 
L 248.872333 221.104158 
L 249.602434 221.104158 
L 249.602434 220.305743 
L 249.941767 220.305743 
L 249.941767 219.507327 
L 250.737365 219.507327 
L 250.831685 217.910495 
L 250.877174 217.910495 
L 250.877174 217.112079 
L 251.179171 217.112079 
L 251.287847 215.515248 
L 251.724452 215.515248 
L 251.724452 214.716832 
L 251.857225 214.716832 
L 251.901944 213.12 
L 252.14914 213.12 
L 252.206105 211.523168 
L 252.77227 211.523168 
L 252.77227 210.724752 
L 253.527168 210.724752 
L 253.527168 209.926337 
L 253.649227 209.926337 
L 253.718811 208.329505 
L 253.81406 208.329505 
L 253.892975 206.732673 
L 254.148748 206.732673 
L 254.148748 205.934257 
L 254.264883 205.934257 
L 254.264883 205.135842 
L 254.388454 205.135842 
L 254.444705 202.740594 
L 254.562682 202.740594 
L 254.562682 201.942178 
L 254.845967 201.942178 
L 254.845967 201.143762 
L 255.087667 201.143762 
L 255.087667 200.345347 
L 255.235438 200.345347 
L 255.235438 199.546931 
L 255.387901 199.546931 
L 255.387901 198.748515 
L 255.54271 198.748515 
L 255.576288 197.151683 
L 255.691944 197.151683 
L 255.691944 196.353267 
L 255.829677 196.353267 
L 255.929484 192.361188 
L 256.05755 192.361188 
L 256.05755 191.562772 
L 256.230504 191.562772 
L 256.29739 189.965941 
L 256.367324 189.965941 
L 256.382189 188.369109 
L 256.756578 188.369109 
L 256.797093 186.772277 
L 256.938734 186.772277 
L 257.037153 185.175446 
L 257.050749 185.175446 
L 257.123362 183.578614 
L 257.20359 183.578614 
L 257.312041 181.183366 
L 257.523142 181.183366 
L 257.624395 178.788119 
L 257.850266 178.788119 
L 257.914219 175.594455 
L 258.056291 175.594455 
L 258.056291 174.79604 
L 258.896031 174.79604 
L 258.916999 173.199208 
L 259.082295 173.199208 
L 259.164039 171.602376 
L 259.324306 171.602376 
L 259.324306 170.80396 
L 259.592016 170.80396 
L 259.592016 170.005545 
L 259.703433 170.005545 
L 259.703433 169.207129 
L 259.839867 169.207129 
L 259.916897 166.013465 
L 260.037405 166.013465 
L 260.056962 164.416634 
L 260.259013 164.416634 
L 260.313582 162.819802 
L 260.543906 162.819802 
L 260.543906 162.021386 
L 260.879692 162.021386 
L 260.960188 160.424554 
L 261.353237 160.424554 
L 261.353417 148.448317 
L 261.792768 148.448317 
L 261.831027 146.851485 
L 262.03914 146.851485 
L 262.03914 146.053069 
L 262.293339 146.053069 
L 262.389644 144.456238 
L 262.504967 144.456238 
L 262.504967 143.657822 
L 262.769817 143.657822 
L 262.769817 142.859406 
L 263.101755 142.859406 
L 263.21124 141.262574 
L 263.504716 141.262574 
L 263.504716 140.464158 
L 263.758213 140.464158 
L 263.758213 139.665743 
L 264.033293 139.665743 
L 264.129647 138.068911 
L 264.481218 138.068911 
L 264.581982 135.673663 
L 264.802628 135.673663 
L 264.802628 134.875248 
L 265.171022 134.875248 
L 265.171022 134.076832 
L 265.310099 134.076832 
L 265.310099 133.278416 
L 265.472077 133.278416 
L 265.472077 132.48 
L 265.664964 132.48 
L 265.697565 130.883168 
L 266.007824 130.883168 
L 266.007824 130.084752 
L 266.704122 130.084752 
L 266.704122 129.286337 
L 266.884105 129.286337 
L 266.884105 128.487921 
L 267.427064 128.487921 
L 267.427064 127.689505 
L 267.567776 127.689505 
L 267.627008 126.092673 
L 267.681848 126.092673 
L 267.718741 124.495842 
L 267.876922 124.495842 
L 267.876922 123.697426 
L 268.222128 123.697426 
L 268.222128 122.89901 
L 268.456724 122.89901 
L 268.475747 121.302178 
L 268.639482 121.302178 
L 268.639482 120.503762 
L 269.033747 120.503762 
L 269.033747 119.705347 
L 269.345909 119.705347 
L 269.447163 118.108515 
L 270.168462 118.108515 
L 270.196805 116.511683 
L 270.533092 116.511683 
L 270.533092 115.713267 
L 270.674017 115.713267 
L 270.674017 114.914851 
L 270.882618 114.914851 
L 270.882618 114.116436 
L 271.193726 114.116436 
L 271.270242 110.922772 
L 271.742062 110.922772 
L 271.742062 110.124356 
L 272.494279 110.124356 
L 272.494279 109.325941 
L 273.691443 109.325941 
L 273.691443 108.527525 
L 275.649103 108.527525 
L 275.70767 106.930693 
L 277.014139 106.930693 
L 277.088021 105.333861 
L 277.882804 105.333861 
L 277.882804 104.535446 
L 278.358105 104.535446 
L 278.358105 103.73703 
L 279.300301 103.73703 
L 279.322208 102.140198 
L 279.785275 102.140198 
L 279.785275 101.341782 
L 282.215617 101.341782 
L 282.215617 100.543366 
L 282.489194 100.543366 
L 282.489194 99.74495 
L 283.047112 99.74495 
L 283.047112 98.946535 
L 283.816448 98.946535 
L 283.816448 98.148119 
L 284.191829 98.148119 
L 284.201132 96.551287 
L 285.371242 96.551287 
L 285.371242 95.752871 
L 285.801466 95.752871 
L 285.801466 94.954455 
L 287.094435 94.954455 
L 287.094435 94.15604 
L 288.126137 94.15604 
L 288.126137 93.357624 
L 288.407689 93.357624 
L 288.407689 92.559208 
L 288.862628 92.559208 
L 288.862628 91.760792 
L 289.079573 91.760792 
L 289.079573 90.962376 
L 289.244856 90.962376 
L 289.244856 90.16396 
L 289.505164 90.16396 
L 289.505164 89.365545 
L 289.765165 89.365545 
L 289.765165 88.567129 
L 290.3915 88.567129 
L 290.3915 87.768713 
L 293.540808 87.768713 
L 293.540808 86.970297 
L 293.913122 86.970297 
L 293.913122 86.171881 
L 296.542843 86.171881 
L 296.542843 85.373465 
L 297.926923 85.373465 
L 297.926923 84.57505 
L 307.904547 84.57505 
L 307.908574 72.598812 
L 310.565016 72.598812 
L 310.565016 71.800396 
L 314.175699 71.800396 
L 314.175699 71.00198 
L 316.267425 71.00198 
L 316.267425 70.203564 
L 316.818185 70.203564 
L 316.818185 69.405149 
L 317.864198 69.405149 
L 317.864198 68.606733 
L 319.436844 68.606733 
L 319.436844 67.808317 
L 319.688362 67.808317 
L 319.688362 67.009901 
L 321.786716 67.009901 
L 321.786716 66.211485 
L 322.636499 66.211485 
L 322.636499 65.413069 
L 323.367991 65.413069 
L 323.367991 64.614653 
L 324.719233 64.614653 
L 324.719233 63.816238 
L 326.857245 63.816238 
L 326.857245 63.017822 
L 328.48556 63.017822 
L 328.48556 62.219406 
L 328.797171 62.219406 
L 328.797171 61.42099 
L 329.379786 61.42099 
L 329.379786 60.622574 
L 331.931259 60.622574 
L 331.931259 59.824158 
L 333.079336 59.824158 
L 333.079336 59.025743 
L 333.411249 59.025743 
L 333.411249 58.227327 
L 333.579209 58.227327 
L 333.579209 57.428911 
L 337.830399 57.428911 
L 337.830399 56.630495 
L 338.395602 56.630495 
L 338.395602 55.832079 
L 339.55782 55.832079 
L 339.55782 55.033663 
L 340.458955 55.033663 
L 340.458955 54.235248 
L 341.302624 54.235248 
L 341.302624 53.436832 
L 344.107724 53.436832 
L 344.107724 52.638416 
L 344.804864 52.638416 
L 344.804864 51.84 
L 352.26276 51.84 
L 352.26276 51.041584 
L 352.942834 51.041584 
L 352.942834 50.243168 
L 353.469133 50.243168 
L 353.469133 49.444752 
L 353.845217 49.444752 
L 353.845217 48.646337 
L 355.331616 48.646337 
L 355.331616 47.847921 
L 358.143635 47.847921 
L 358.143635 47.049505 
L 358.555397 47.049505 
L 358.628898 45.452673 
L 362.083408 45.452673 
L 362.083408 44.654257 
L 363.896194 44.654257 
L 363.896194 43.855842 
L 372.596837 43.855842 
L 372.596837 43.057426 
L 372.957524 43.057426 
L 372.957524 42.25901 
L 374.234268 42.25901 
L 374.234268 41.460594 
L 374.42578 41.460594 
L 374.42578 40.662178 
L 375.684122 40.662178 
L 375.684122 39.863762 
L 378.639915 39.863762 
L 378.639915 39.065347 
L 378.799004 39.065347 
L 378.809202 37.468515 
L 379.06358 37.468515 
L 379.06358 36.670099 
L 379.323456 36.670099 
L 379.323456 35.871683 
L 379.475096 35.871683 
L 379.475096 35.073267 
L 381.466793 35.073267 
L 381.466793 34.274851 
L 383.236348 34.274851 
L 383.236348 33.476436 
L 383.738502 33.476436 
L 383.738502 32.67802 
L 383.928414 32.67802 
L 383.928414 31.879604 
L 384.487434 31.879604 
L 384.487434 31.081188 
L 384.8662 31.081188 
L 384.8662 30.282772 
L 385.094859 30.282772 
L 385.094859 29.484356 
L 385.237093 29.484356 
L 385.239972 27.887525 
L 385.791613 27.887525 
L 385.791613 27.089109 
L 386.130718 27.089109 
L 386.130718 26.290693 
L 386.341252 26.290693 
L 386.341252 25.492277 
L 387.107737 25.492277 
L 387.107737 24.693861 
L 387.50095 24.693861 
L 387.50095 23.895446 
L 389.529365 23.895446 
L 389.529365 23.09703 
L 389.906329 23.09703 
L 389.906329 22.298614 
L 391.158866 22.298614 
L 391.158866 21.500198 
L 391.366341 21.500198 
L 391.366341 20.701782 
L 391.748436 20.701782 
L 391.748436 19.903366 
L 392.354804 19.903366 
L 392.354804 19.10495 
L 393.169843 19.10495 
L 393.169843 18.306535 
L 393.753353 18.306535 
L 393.753353 17.508119 
L 396.448817 17.508119 
L 396.448817 16.709703 
L 396.83028 16.709703 
L 396.83028 15.911287 
L 398.113347 15.911287 
L 398.113347 15.112871 
L 401.83865 15.112871 
L 401.83865 14.314455 
L 404.237532 14.314455 
L 404.237532 13.51604 
L 406.975151 13.51604 
L 406.975151 12.717624 
L 407.127777 12.717624 
L 407.156302 11.120792 
L 407.681449 11.120792 
L 407.681449 10.322376 
L 411.052522 10.322376 
L 411.052522 9.52396 
L 421.628488 9.52396 
L 421.628488 8.725545 
L 422.479753 8.725545 
L 422.479753 7.927129 
L 431.115168 7.927129 
L 431.115168 7.128713 
L 437.827109 7.128713 
L 437.827109 6.330297 
L 437.827109 6.330297 
L 460.8 6.330297 
L 460.8 6.330297 
" clip-path="url(#p5e241cc773)" style="fill: none; stroke: #bf00bf; stroke-width: 1.5; stroke-linecap: square"/>
   </g>
   <g id="line2d_24">
    <path d="M 190.31369 293.76 
L 190.31369 292.961584 
L 190.524161 292.961584 
L 190.59162 291.364752 
L 190.661704 291.364752 
L 190.672695 289.767921 
L 190.804928 289.767921 
L 190.858312 288.171089 
L 190.983173 288.171089 
L 191.016369 284.17901 
L 191.09966 284.17901 
L 191.145448 282.582178 
L 192.339161 282.582178 
L 192.339161 281.783762 
L 220.915018 281.783762 
L 220.915018 280.985347 
L 223.956025 280.985347 
L 223.956025 280.186931 
L 225.21039 280.186931 
L 225.21039 279.388515 
L 227.938268 279.388515 
L 228.014423 277.791683 
L 228.24052 277.791683 
L 228.270901 276.194851 
L 229.783007 276.194851 
L 229.783007 275.396436 
L 230.796583 275.396436 
L 230.796583 274.59802 
L 231.203105 274.59802 
L 231.203105 273.799604 
L 232.150988 273.799604 
L 232.150988 273.001188 
L 233.76579 273.001188 
L 233.76579 272.202772 
L 234.458219 272.202772 
L 234.458219 271.404356 
L 234.702394 271.404356 
L 234.702394 270.605941 
L 235.047111 270.605941 
L 235.047111 269.807525 
L 235.243844 269.807525 
L 235.243844 269.009109 
L 237.135133 269.009109 
L 237.226897 267.412277 
L 237.248211 267.412277 
L 237.248211 266.613861 
L 237.467042 266.613861 
L 237.567237 264.218614 
L 238.393 264.218614 
L 238.393 263.420198 
L 238.506282 263.420198 
L 238.506282 262.621782 
L 240.056647 262.621782 
L 240.056647 261.823366 
L 240.342391 261.823366 
L 240.342391 261.02495 
L 240.746774 261.02495 
L 240.746774 260.226535 
L 241.022252 260.226535 
L 241.105623 257.831287 
L 241.632162 257.831287 
L 241.632162 257.032871 
L 242.385895 257.032871 
L 242.385895 256.234455 
L 242.535008 256.234455 
L 242.608254 254.637624 
L 243.596787 254.637624 
L 243.649585 253.040792 
L 243.926642 253.040792 
L 243.926642 252.242376 
L 244.051133 252.242376 
L 244.145035 250.645545 
L 245.034198 250.645545 
L 245.071944 249.048713 
L 245.211217 249.048713 
L 245.28879 236.274059 
L 245.438097 236.274059 
L 245.472598 234.677228 
L 246.088473 234.677228 
L 246.192367 233.080396 
L 246.756128 233.080396 
L 246.756128 232.28198 
L 247.238163 232.28198 
L 247.297974 230.685149 
L 247.412773 230.685149 
L 247.412773 229.886733 
L 247.845046 229.886733 
L 247.845046 229.088317 
L 248.017429 229.088317 
L 248.101129 227.491485 
L 248.231552 227.491485 
L 248.231552 226.693069 
L 248.359846 226.693069 
L 248.457149 224.297822 
L 248.565009 224.297822 
L 248.565009 223.499406 
L 248.771318 223.499406 
L 248.865792 221.104158 
L 249.600045 221.104158 
L 249.600045 220.305743 
L 249.938403 220.305743 
L 249.938403 219.507327 
L 250.732491 219.507327 
L 250.823788 217.112079 
L 250.909146 217.112079 
L 250.909146 216.313663 
L 251.280422 216.313663 
L 251.280422 215.515248 
L 251.724452 215.515248 
L 251.724452 214.716832 
L 251.85189 214.716832 
L 251.888305 213.12 
L 252.143488 213.12 
L 252.194717 211.523168 
L 252.759459 211.523168 
L 252.759459 210.724752 
L 253.524504 210.724752 
L 253.56016 209.127921 
L 253.644119 209.127921 
L 253.644119 208.329505 
L 253.808005 208.329505 
L 253.889677 206.732673 
L 254.14317 206.732673 
L 254.14317 205.934257 
L 254.259984 205.934257 
L 254.309819 203.53901 
L 254.385014 203.53901 
L 254.435869 201.942178 
L 254.655427 201.942178 
L 254.655427 201.143762 
L 254.924286 201.143762 
L 254.924286 200.345347 
L 255.233493 200.345347 
L 255.233493 199.546931 
L 255.381755 199.546931 
L 255.381755 198.748515 
L 255.54271 198.748515 
L 255.566188 197.151683 
L 255.687532 197.151683 
L 255.687532 196.353267 
L 255.800113 196.353267 
L 255.828913 193.95802 
L 255.913049 193.95802 
L 255.923011 192.361188 
L 256.030288 192.361188 
L 256.054347 190.764356 
L 256.245009 190.764356 
L 256.25289 189.167525 
L 256.364172 189.167525 
L 256.364172 188.369109 
L 256.560946 188.369109 
L 256.649214 186.772277 
L 256.935991 186.772277 
L 257.035982 185.175446 
L 257.049936 185.175446 
L 257.119433 182.780198 
L 257.247695 182.780198 
L 257.310479 181.183366 
L 257.469488 181.183366 
L 257.515229 179.586535 
L 257.606782 179.586535 
L 257.682711 177.191287 
L 257.874353 177.191287 
L 257.890338 175.594455 
L 258.055622 175.594455 
L 258.055622 174.79604 
L 258.88223 174.79604 
L 258.887589 173.199208 
L 259.074066 173.199208 
L 259.135772 171.602376 
L 259.228774 171.602376 
L 259.228774 170.80396 
L 259.451696 170.80396 
L 259.451696 170.005545 
L 259.687179 170.005545 
L 259.79475 168.408713 
L 259.834204 168.408713 
L 259.863806 166.013465 
L 259.948635 166.013465 
L 260.037405 164.416634 
L 260.25316 164.416634 
L 260.313582 162.819802 
L 260.432178 162.819802 
L 260.432178 162.021386 
L 260.864949 162.021386 
L 260.960188 160.424554 
L 261.35166 160.424554 
L 261.352348 148.448317 
L 261.766453 148.448317 
L 261.77965 146.851485 
L 262.03914 146.851485 
L 262.03914 146.053069 
L 262.250015 146.053069 
L 262.250015 145.254653 
L 262.375203 145.254653 
L 262.443307 143.657822 
L 262.753936 143.657822 
L 262.753936 142.859406 
L 263.077988 142.859406 
L 263.077988 142.06099 
L 263.20022 142.06099 
L 263.20022 141.262574 
L 263.489386 141.262574 
L 263.489386 140.464158 
L 263.684258 140.464158 
L 263.684258 139.665743 
L 263.837581 139.665743 
L 263.837581 138.867327 
L 264.08264 138.867327 
L 264.08264 138.068911 
L 264.463535 138.068911 
L 264.533588 135.673663 
L 264.787127 135.673663 
L 264.787127 134.875248 
L 265.145706 134.875248 
L 265.145706 134.076832 
L 265.298829 134.076832 
L 265.298829 133.278416 
L 265.472077 133.278416 
L 265.472077 132.48 
L 265.664964 132.48 
L 265.678428 130.883168 
L 265.986353 130.883168 
L 265.986353 130.084752 
L 266.691208 130.084752 
L 266.691208 129.286337 
L 266.861987 129.286337 
L 266.861987 128.487921 
L 267.417075 128.487921 
L 267.417075 127.689505 
L 267.556493 127.689505 
L 267.667579 125.294257 
L 267.714468 125.294257 
L 267.714468 124.495842 
L 267.865222 124.495842 
L 267.865222 123.697426 
L 268.208898 123.697426 
L 268.208898 122.89901 
L 268.447108 122.89901 
L 268.464552 121.302178 
L 268.622351 121.302178 
L 268.622351 120.503762 
L 269.018886 120.503762 
L 269.018886 119.705347 
L 269.33074 119.705347 
L 269.33074 118.906931 
L 269.443234 118.906931 
L 269.443234 118.108515 
L 270.158954 118.108515 
L 270.17088 116.511683 
L 270.525555 116.511683 
L 270.525555 115.713267 
L 270.655984 115.713267 
L 270.655984 114.914851 
L 270.854361 114.914851 
L 270.854361 114.116436 
L 271.188208 114.116436 
L 271.248088 110.922772 
L 271.729945 110.922772 
L 271.729945 110.124356 
L 272.479163 110.124356 
L 272.479163 109.325941 
L 273.671593 109.325941 
L 273.671593 108.527525 
L 275.649103 108.527525 
L 275.700481 106.930693 
L 277.00532 106.930693 
L 277.068543 105.333861 
L 277.882804 105.333861 
L 277.882804 104.535446 
L 278.358105 104.535446 
L 278.358105 103.73703 
L 279.300301 103.73703 
L 279.322208 102.140198 
L 279.781484 102.140198 
L 279.781484 101.341782 
L 282.212297 101.341782 
L 282.212297 100.543366 
L 282.486349 100.543366 
L 282.486349 99.74495 
L 283.047112 99.74495 
L 283.047112 98.946535 
L 283.29133 98.946535 
L 283.29133 98.148119 
L 283.813378 98.148119 
L 283.813378 97.349703 
L 284.189894 97.349703 
L 284.189894 96.551287 
L 285.36915 96.551287 
L 285.36915 95.752871 
L 285.799385 95.752871 
L 285.799385 94.954455 
L 287.091705 94.954455 
L 287.091705 94.15604 
L 288.122914 94.15604 
L 288.122914 93.357624 
L 288.406034 93.357624 
L 288.406034 92.559208 
L 288.852009 92.559208 
L 288.852009 91.760792 
L 289.059756 91.760792 
L 289.059756 90.962376 
L 289.243067 90.962376 
L 289.243067 90.16396 
L 289.502848 90.16396 
L 289.502848 89.365545 
L 289.760357 89.365545 
L 289.760357 88.567129 
L 290.390046 88.567129 
L 290.390046 87.768713 
L 293.539421 87.768713 
L 293.539421 86.970297 
L 293.9116 86.970297 
L 293.9116 86.171881 
L 296.514027 86.171881 
L 296.514027 85.373465 
L 297.916321 85.373465 
L 297.916321 84.57505 
L 307.886229 84.57505 
L 307.893637 72.598812 
L 310.555539 72.598812 
L 310.555539 71.800396 
L 314.157719 71.800396 
L 314.157719 71.00198 
L 316.210698 71.00198 
L 316.210698 70.203564 
L 316.803728 70.203564 
L 316.803728 69.405149 
L 317.848446 69.405149 
L 317.848446 68.606733 
L 319.427784 68.606733 
L 319.427784 67.808317 
L 319.672056 67.808317 
L 319.672056 67.009901 
L 321.77764 67.009901 
L 321.77764 66.211485 
L 322.621813 66.211485 
L 322.621813 65.413069 
L 323.352562 65.413069 
L 323.352562 64.614653 
L 324.659654 64.614653 
L 324.659654 63.816238 
L 326.845962 63.816238 
L 326.845962 63.017822 
L 328.363456 63.017822 
L 328.363456 62.219406 
L 328.787073 62.219406 
L 328.787073 61.42099 
L 329.359669 61.42099 
L 329.359669 60.622574 
L 331.918933 60.622574 
L 331.918933 59.824158 
L 333.071872 59.824158 
L 333.071872 59.025743 
L 333.409857 59.025743 
L 333.409857 58.227327 
L 333.577889 58.227327 
L 333.577889 57.428911 
L 337.821028 57.428911 
L 337.821028 56.630495 
L 338.353295 56.630495 
L 338.353295 55.832079 
L 339.541133 55.832079 
L 339.541133 55.033663 
L 340.420494 55.033663 
L 340.420494 54.235248 
L 341.298532 54.235248 
L 341.298532 53.436832 
L 344.102446 53.436832 
L 344.102446 52.638416 
L 344.746219 52.638416 
L 344.746219 51.84 
L 352.240608 51.84 
L 352.240608 51.041584 
L 352.93889 51.041584 
L 352.93889 50.243168 
L 353.449068 50.243168 
L 353.449068 49.444752 
L 353.809046 49.444752 
L 353.809046 48.646337 
L 355.325215 48.646337 
L 355.325215 47.847921 
L 358.141568 47.847921 
L 358.141568 47.049505 
L 358.55485 47.049505 
L 358.628193 45.452673 
L 362.04001 45.452673 
L 362.04001 44.654257 
L 363.870394 44.654257 
L 363.870394 43.855842 
L 372.594815 43.855842 
L 372.594815 43.057426 
L 372.951776 43.057426 
L 372.951776 42.25901 
L 374.224848 42.25901 
L 374.224848 41.460594 
L 374.406289 41.460594 
L 374.406289 40.662178 
L 375.677193 40.662178 
L 375.677193 39.863762 
L 378.63611 39.863762 
L 378.63611 39.065347 
L 378.774284 39.065347 
L 378.796856 37.468515 
L 379.041858 37.468515 
L 379.041858 36.670099 
L 379.317003 36.670099 
L 379.317003 35.871683 
L 379.47132 35.871683 
L 379.47132 35.073267 
L 381.461817 35.073267 
L 381.461817 34.274851 
L 383.229293 34.274851 
L 383.229293 33.476436 
L 383.727681 33.476436 
L 383.727681 32.67802 
L 383.915833 32.67802 
L 383.915833 31.879604 
L 384.483685 31.879604 
L 384.483685 31.081188 
L 384.85956 31.081188 
L 384.85956 30.282772 
L 385.080067 30.282772 
L 385.080067 29.484356 
L 385.229396 29.484356 
L 385.231444 27.887525 
L 385.786165 27.887525 
L 385.786165 27.089109 
L 386.122408 27.089109 
L 386.122408 26.290693 
L 386.334839 26.290693 
L 386.334839 25.492277 
L 387.099592 25.492277 
L 387.099592 24.693861 
L 387.494836 24.693861 
L 387.494836 23.895446 
L 389.521977 23.895446 
L 389.521977 23.09703 
L 389.898767 23.09703 
L 389.898767 22.298614 
L 391.155405 22.298614 
L 391.155405 21.500198 
L 391.359494 21.500198 
L 391.359494 20.701782 
L 391.742252 20.701782 
L 391.742252 19.903366 
L 392.345109 19.903366 
L 392.345109 19.10495 
L 393.161299 19.10495 
L 393.161299 18.306535 
L 393.746273 18.306535 
L 393.746273 17.508119 
L 396.443605 17.508119 
L 396.443605 16.709703 
L 396.824153 16.709703 
L 396.824153 15.911287 
L 398.108551 15.911287 
L 398.108551 15.112871 
L 401.835417 15.112871 
L 401.835417 14.314455 
L 404.233188 14.314455 
L 404.233188 13.51604 
L 406.96654 13.51604 
L 406.96654 12.717624 
L 407.124901 12.717624 
L 407.150171 11.120792 
L 407.677661 11.120792 
L 407.677661 10.322376 
L 411.044829 10.322376 
L 411.044829 9.52396 
L 421.619797 9.52396 
L 421.619797 8.725545 
L 422.470225 8.725545 
L 422.470225 7.927129 
L 431.10118 7.927129 
L 431.10118 7.128713 
L 437.817087 7.128713 
L 437.817087 6.330297 
L 437.817087 6.330297 
L 460.8 6.330297 
L 460.8 6.330297 
" clip-path="url(#p5e241cc773)" style="fill: none; stroke: #000000; stroke-width: 1.5; stroke-linecap: square"/>
   </g>
   <g id="line2d_25">
    <path d="M 162.427872 293.76 
L 162.427872 292.961584 
L 166.012517 292.961584 
L 166.012517 292.163168 
L 166.638597 292.163168 
L 166.638597 291.364752 
L 167.566754 291.364752 
L 167.566754 290.566337 
L 168.284594 290.566337 
L 168.284594 289.767921 
L 169.937404 289.767921 
L 169.937404 288.969505 
L 170.188349 288.969505 
L 170.188349 288.171089 
L 170.876092 288.171089 
L 170.876092 287.372673 
L 173.52466 287.372673 
L 173.52466 286.574257 
L 176.498867 286.574257 
L 176.498867 285.775842 
L 178.428076 285.775842 
L 178.428076 284.977426 
L 182.004698 284.977426 
L 182.004698 284.17901 
L 182.471532 284.17901 
L 182.471532 283.380594 
L 183.134453 283.380594 
L 183.134453 282.582178 
L 184.443897 282.582178 
L 184.443897 281.783762 
L 220.086899 281.783762 
L 220.086899 280.985347 
L 221.677691 280.985347 
L 221.677691 280.186931 
L 223.028027 280.186931 
L 223.028027 279.388515 
L 223.946983 279.388515 
L 223.946983 278.590099 
L 224.122397 278.590099 
L 224.122397 277.791683 
L 224.478513 277.791683 
L 224.478513 276.993267 
L 225.858556 276.993267 
L 225.858556 276.194851 
L 226.548631 276.194851 
L 226.548631 275.396436 
L 227.342429 275.396436 
L 227.342429 274.59802 
L 227.659529 274.59802 
L 227.659529 273.799604 
L 229.354096 273.799604 
L 229.354096 273.001188 
L 229.77112 273.001188 
L 229.77112 272.202772 
L 230.620154 272.202772 
L 230.620154 271.404356 
L 232.140239 271.404356 
L 232.140239 270.605941 
L 232.725336 270.605941 
L 232.813011 269.009109 
L 232.874009 269.009109 
L 232.874009 268.210693 
L 233.935221 268.210693 
L 233.935221 267.412277 
L 234.540178 267.412277 
L 234.600148 265.815446 
L 235.206357 265.815446 
L 235.211366 264.218614 
L 235.668198 264.218614 
L 235.668198 263.420198 
L 236.066862 263.420198 
L 236.066862 262.621782 
L 236.339196 262.621782 
L 236.35 261.02495 
L 236.499774 261.02495 
L 236.499774 260.226535 
L 237.509257 260.226535 
L 237.523788 258.629703 
L 238.027452 258.629703 
L 238.027452 257.831287 
L 238.544656 257.831287 
L 238.544656 257.032871 
L 239.249153 257.032871 
L 239.249153 256.234455 
L 239.667269 256.234455 
L 239.733399 254.637624 
L 240.358288 254.637624 
L 240.40191 253.040792 
L 240.851282 253.040792 
L 240.851282 252.242376 
L 241.530269 252.242376 
L 241.607567 249.847129 
L 241.748051 249.847129 
L 241.748051 249.048713 
L 241.869589 249.048713 
L 241.945893 245.056634 
L 242.119008 245.056634 
L 242.218043 241.86297 
L 242.506653 241.86297 
L 242.506653 241.064554 
L 242.625751 241.064554 
L 242.699518 238.669307 
L 242.871262 238.669307 
L 242.930804 236.274059 
L 243.949068 236.274059 
L 243.949068 235.475644 
L 244.278316 235.475644 
L 244.278316 234.677228 
L 244.487871 234.677228 
L 244.487871 233.878812 
L 244.788553 233.878812 
L 244.788553 233.080396 
L 245.066155 233.080396 
L 245.066155 232.28198 
L 245.486805 232.28198 
L 245.486805 231.483564 
L 245.630658 231.483564 
L 245.713184 229.886733 
L 245.930011 229.886733 
L 245.930011 229.088317 
L 246.436488 229.088317 
L 246.436488 228.289901 
L 246.709845 228.289901 
L 246.790362 226.693069 
L 247.167774 226.693069 
L 247.167774 225.894653 
L 247.503237 225.894653 
L 247.503237 225.096238 
L 247.781245 225.096238 
L 247.870802 221.104158 
L 247.987697 221.104158 
L 248.042528 219.507327 
L 248.453903 219.507327 
L 248.453903 218.708911 
L 248.818911 218.708911 
L 248.818911 217.910495 
L 249.277742 217.910495 
L 249.277742 217.112079 
L 249.465405 217.112079 
L 249.554577 215.515248 
L 249.885038 215.515248 
L 249.924772 213.918416 
L 250.150577 213.918416 
L 250.150577 213.12 
L 250.402569 213.12 
L 250.470219 211.523168 
L 250.95795 211.523168 
L 250.95795 210.724752 
L 251.205072 210.724752 
L 251.205072 209.926337 
L 251.389406 209.926337 
L 251.389406 209.127921 
L 251.724452 209.127921 
L 251.724452 208.329505 
L 252.345005 208.329505 
L 252.345005 207.531089 
L 252.895724 207.531089 
L 252.98897 205.135842 
L 253.010669 205.135842 
L 253.069667 203.53901 
L 253.132193 203.53901 
L 253.221195 201.143762 
L 253.338624 201.143762 
L 253.426591 199.546931 
L 253.616889 199.546931 
L 253.682486 196.353267 
L 253.740099 196.353267 
L 253.841738 194.756436 
L 253.92867 194.756436 
L 253.980684 193.159604 
L 254.052726 193.159604 
L 254.052726 192.361188 
L 254.562624 192.361188 
L 254.562624 191.562772 
L 254.907657 191.562772 
L 254.952274 189.965941 
L 255.019976 189.965941 
L 255.130366 186.772277 
L 255.152408 186.772277 
L 255.253252 184.37703 
L 255.268526 184.37703 
L 255.312815 182.780198 
L 255.43464 182.780198 
L 255.476321 181.183366 
L 255.623301 181.183366 
L 255.623301 180.38495 
L 255.811152 180.38495 
L 255.883191 178.788119 
L 255.923011 178.788119 
L 255.964626 177.191287 
L 256.570571 177.191287 
L 256.570571 176.392871 
L 256.863366 176.392871 
L 256.965002 173.997624 
L 257.003549 173.997624 
L 257.020387 172.400792 
L 257.157019 172.400792 
L 257.227039 170.80396 
L 257.440492 170.80396 
L 257.440492 170.005545 
L 257.657321 170.005545 
L 257.657321 169.207129 
L 257.778136 169.207129 
L 257.809689 167.610297 
L 257.958972 167.610297 
L 257.958972 166.811881 
L 258.147086 166.811881 
L 258.147086 166.013465 
L 258.445426 166.013465 
L 258.487682 164.416634 
L 258.583232 164.416634 
L 258.583232 163.618218 
L 258.852091 163.618218 
L 258.86503 162.021386 
L 259.255488 162.021386 
L 259.255488 161.22297 
L 259.446911 161.22297 
L 259.446911 160.424554 
L 260.037405 160.424554 
L 260.037405 159.626139 
L 260.313582 159.626139 
L 260.4163 158.029307 
L 260.622091 158.029307 
L 260.622091 157.230891 
L 260.943212 157.230891 
L 260.943212 156.432475 
L 261.16401 156.432475 
L 261.211068 143.657822 
L 261.4762 143.657822 
L 261.555211 142.06099 
L 261.723865 142.06099 
L 261.723865 141.262574 
L 261.879824 141.262574 
L 261.911606 139.665743 
L 262.03914 139.665743 
L 262.03914 138.867327 
L 262.418463 138.867327 
L 262.418463 138.068911 
L 263.042023 138.068911 
L 263.042023 137.270495 
L 263.417471 137.270495 
L 263.486153 135.673663 
L 263.588799 135.673663 
L 263.588799 134.875248 
L 263.96978 134.875248 
L 264.042617 131.681584 
L 264.149775 131.681584 
L 264.149775 130.883168 
L 264.345615 130.883168 
L 264.345615 130.084752 
L 264.721268 130.084752 
L 264.721268 129.286337 
L 265.434745 129.286337 
L 265.472077 127.689505 
L 265.664964 127.689505 
L 265.664964 126.891089 
L 265.831446 126.891089 
L 265.831446 126.092673 
L 266.229979 126.092673 
L 266.229979 125.294257 
L 266.430155 125.294257 
L 266.430155 124.495842 
L 267.074012 124.495842 
L 267.076662 122.89901 
L 267.281655 122.89901 
L 267.329482 121.302178 
L 267.441888 121.302178 
L 267.441888 120.503762 
L 267.685962 120.503762 
L 267.685962 119.705347 
L 268.099496 119.705347 
L 268.122174 118.108515 
L 268.283784 118.108515 
L 268.283784 117.310099 
L 268.975121 117.310099 
L 268.995729 115.713267 
L 269.579191 115.713267 
L 269.579191 114.914851 
L 269.770548 114.914851 
L 269.770548 114.116436 
L 270.017997 114.116436 
L 270.017997 113.31802 
L 270.184134 113.31802 
L 270.184134 112.519604 
L 270.307813 112.519604 
L 270.307813 111.721188 
L 270.536805 111.721188 
L 270.613803 110.124356 
L 271.281111 110.124356 
L 271.281111 109.325941 
L 272.112626 109.325941 
L 272.112626 108.527525 
L 272.33266 108.527525 
L 272.33266 107.729109 
L 274.62527 107.729109 
L 274.62527 106.930693 
L 275.069737 106.930693 
L 275.069737 106.132277 
L 275.649103 106.132277 
L 275.649103 105.333861 
L 276.91785 105.333861 
L 276.91785 104.535446 
L 277.882804 104.535446 
L 277.882804 103.73703 
L 278.358105 103.73703 
L 278.358105 102.938614 
L 279.270441 102.938614 
L 279.322208 100.543366 
L 281.705647 100.543366 
L 281.705647 99.74495 
L 282.077379 99.74495 
L 282.077379 98.946535 
L 283.047112 98.946535 
L 283.047112 98.148119 
L 283.381658 98.148119 
L 283.381658 97.349703 
L 283.932963 97.349703 
L 283.932963 96.551287 
L 285.145115 96.551287 
L 285.145115 95.752871 
L 285.487706 95.752871 
L 285.487706 94.954455 
L 286.714205 94.954455 
L 286.714205 94.15604 
L 287.254766 94.15604 
L 287.308799 92.559208 
L 287.806157 92.559208 
L 287.806157 91.760792 
L 288.20427 91.760792 
L 288.20427 90.962376 
L 288.997379 90.962376 
L 289.017642 89.365545 
L 289.234828 89.365545 
L 289.234828 88.567129 
L 290.14387 88.567129 
L 290.14387 87.768713 
L 293.303721 87.768713 
L 293.303721 86.970297 
L 293.623225 86.970297 
L 293.697111 85.373465 
L 296.440946 85.373465 
L 296.440946 84.57505 
L 304.687014 84.57505 
L 304.76535 82.179802 
L 305.160501 82.179802 
L 305.160631 80.58297 
L 305.497238 80.58297 
L 305.497238 79.784554 
L 305.675499 79.784554 
L 305.675499 78.986139 
L 305.923761 78.986139 
L 305.930976 75.792475 
L 306.1551 75.792475 
L 306.246516 71.800396 
L 309.242286 71.800396 
L 309.242286 71.00198 
L 312.453832 71.00198 
L 312.484093 69.405149 
L 315.467366 69.405149 
L 315.467366 68.606733 
L 316.344331 68.606733 
L 316.344331 67.808317 
L 318.094594 67.808317 
L 318.159398 66.211485 
L 319.956149 66.211485 
L 319.956149 65.413069 
L 320.510387 65.413069 
L 320.510387 64.614653 
L 321.241311 64.614653 
L 321.241311 63.816238 
L 321.846616 63.816238 
L 321.846616 63.017822 
L 325.839795 63.017822 
L 325.839795 62.219406 
L 327.214561 62.219406 
L 327.214561 61.42099 
L 327.480846 61.42099 
L 327.480846 60.622574 
L 329.599908 60.622574 
L 329.663872 58.227327 
L 330.989154 58.227327 
L 330.989154 57.428911 
L 333.066014 57.428911 
L 333.066014 56.630495 
L 333.357128 56.630495 
L 333.357128 55.832079 
L 336.34325 55.832079 
L 336.34325 55.033663 
L 337.632284 55.033663 
L 337.632284 54.235248 
L 340.337916 54.235248 
L 340.337916 53.436832 
L 340.793005 53.436832 
L 340.793005 52.638416 
L 343.410788 52.638416 
L 343.410788 51.84 
L 348.845058 51.84 
L 348.845058 51.041584 
L 350.340378 51.041584 
L 350.340378 50.243168 
L 351.033281 50.243168 
L 351.033281 49.444752 
L 352.425655 49.444752 
L 352.425655 48.646337 
L 354.717121 48.646337 
L 354.717121 47.847921 
L 357.671181 47.847921 
L 357.671181 47.049505 
L 358.45094 47.049505 
L 358.547993 45.452673 
L 359.312371 45.452673 
L 359.312371 44.654257 
L 362.474079 44.654257 
L 362.474079 43.855842 
L 372.037925 43.855842 
L 372.037925 43.057426 
L 372.196493 43.057426 
L 372.196493 42.25901 
L 372.536202 42.25901 
L 372.545426 40.662178 
L 375.112494 40.662178 
L 375.112494 39.863762 
L 376.528307 39.863762 
L 376.528307 39.065347 
L 376.739984 39.065347 
L 376.739984 38.266931 
L 377.162604 38.266931 
L 377.162604 37.468515 
L 377.932315 37.468515 
L 377.932315 36.670099 
L 378.311075 36.670099 
L 378.311075 35.871683 
L 378.76589 35.871683 
L 378.76589 35.073267 
L 380.750613 35.073267 
L 380.750613 34.274851 
L 381.638647 34.274851 
L 381.638647 33.476436 
L 382.116816 33.476436 
L 382.116816 32.67802 
L 382.240891 32.67802 
L 382.240891 31.879604 
L 383.47114 31.879604 
L 383.47114 31.081188 
L 383.760664 31.081188 
L 383.772955 29.484356 
L 384.259912 29.484356 
L 384.259912 28.685941 
L 384.406153 28.685941 
L 384.406153 27.887525 
L 384.685033 27.887525 
L 384.685033 27.089109 
L 385.192865 27.089109 
L 385.206516 25.492277 
L 386.192143 25.492277 
L 386.192143 24.693861 
L 386.478283 24.693861 
L 386.478283 23.895446 
L 388.863032 23.895446 
L 388.863032 23.09703 
L 389.225269 23.09703 
L 389.225269 22.298614 
L 390.379844 22.298614 
L 390.379844 21.500198 
L 390.492611 21.500198 
L 390.492611 20.701782 
L 390.923619 20.701782 
L 390.923619 19.903366 
L 391.440924 19.903366 
L 391.440924 19.10495 
L 392.315199 19.10495 
L 392.315199 18.306535 
L 393.041541 18.306535 
L 393.041541 17.508119 
L 395.661677 17.508119 
L 395.661677 16.709703 
L 396.178442 16.709703 
L 396.178442 15.911287 
L 397.410906 15.911287 
L 397.410906 15.112871 
L 401.531948 15.112871 
L 401.531948 14.314455 
L 403.726186 14.314455 
L 403.726186 13.51604 
L 405.761335 13.51604 
L 405.761335 12.717624 
L 406.028322 12.717624 
L 406.028322 11.919208 
L 406.719265 11.919208 
L 406.719265 11.120792 
L 407.044692 11.120792 
L 407.044692 10.322376 
L 409.983626 10.322376 
L 409.983626 9.52396 
L 420.460386 9.52396 
L 420.460386 8.725545 
L 421.131107 8.725545 
L 421.131107 7.927129 
L 429.216065 7.927129 
L 429.216065 7.128713 
L 436.342659 7.128713 
L 436.342659 6.330297 
L 436.342659 6.330297 
L 460.8 6.330297 
L 460.8 6.330297 
" clip-path="url(#p5e241cc773)" style="fill: none; stroke: #00bfbf; stroke-width: 1.5; stroke-linecap: square"/>
   </g>
   <g id="line2d_26">
    <path d="M -0.112621 293.76 
L -0.112621 287.372673 
L 161.368588 287.372673 
L 161.390702 275.396436 
L 167.322211 275.396436 
L 167.322211 274.59802 
L 174.812765 274.59802 
L 174.812765 273.799604 
L 180.760622 273.799604 
L 180.760622 273.001188 
L 190.074023 273.001188 
L 190.074023 272.202772 
L 193.084201 272.202772 
L 193.084201 271.404356 
L 195.113669 271.404356 
L 195.113669 270.605941 
L 197.118963 270.605941 
L 197.118963 269.807525 
L 197.308046 269.807525 
L 197.308046 269.009109 
L 199.059501 269.009109 
L 199.059501 268.210693 
L 200.379499 268.210693 
L 200.379499 267.412277 
L 203.610858 267.412277 
L 203.610858 266.613861 
L 203.755335 266.613861 
L 203.755335 265.815446 
L 203.954518 265.815446 
L 203.954518 265.01703 
L 204.148642 265.01703 
L 204.148642 264.218614 
L 204.403842 264.218614 
L 204.403842 263.420198 
L 204.736567 263.420198 
L 204.736567 262.621782 
L 204.940972 262.621782 
L 204.940972 261.823366 
L 205.201414 261.823366 
L 205.201414 261.02495 
L 207.212757 261.02495 
L 207.212757 260.226535 
L 207.34627 260.226535 
L 207.34627 259.428119 
L 207.722462 259.428119 
L 207.722462 258.629703 
L 208.072071 258.629703 
L 208.072071 257.831287 
L 208.382511 257.831287 
L 208.382511 257.032871 
L 209.001894 257.032871 
L 209.001894 256.234455 
L 209.153012 256.234455 
L 209.153012 255.43604 
L 209.487571 255.43604 
L 209.487571 254.637624 
L 210.171491 254.637624 
L 210.171491 253.839208 
L 210.616058 253.839208 
L 210.616058 253.040792 
L 211.097407 253.040792 
L 211.166492 251.44396 
L 212.359 251.44396 
L 212.359 249.847129 
L 212.859488 249.847129 
L 212.859488 249.048713 
L 214.106929 249.048713 
L 214.106929 248.250297 
L 214.606404 248.250297 
L 214.606404 247.451881 
L 214.749409 247.451881 
L 214.749409 246.653465 
L 214.948077 246.653465 
L 214.948077 245.85505 
L 215.809874 245.85505 
L 215.813306 244.258218 
L 216.342916 244.258218 
L 216.42346 240.266139 
L 216.872854 240.266139 
L 216.872854 239.467723 
L 217.786821 239.467723 
L 217.786821 238.669307 
L 217.924355 238.669307 
L 217.92804 237.072475 
L 218.67834 237.072475 
L 218.67834 236.274059 
L 218.95823 236.274059 
L 219.0004 234.677228 
L 219.580797 234.677228 
L 219.647582 233.080396 
L 220.072847 233.080396 
L 220.072847 232.28198 
L 220.19532 232.28198 
L 220.260233 230.685149 
L 220.339526 230.685149 
L 220.339526 229.886733 
L 220.640591 229.886733 
L 220.726418 228.289901 
L 220.885533 228.289901 
L 220.885533 227.491485 
L 221.281122 227.491485 
L 221.289649 225.096238 
L 221.868974 225.096238 
L 221.977961 223.499406 
L 222.116434 223.499406 
L 222.116434 222.70099 
L 222.234585 222.70099 
L 222.234585 221.902574 
L 222.771817 221.902574 
L 222.771817 221.104158 
L 223.213016 221.104158 
L 223.213016 220.305743 
L 223.47935 220.305743 
L 223.47935 219.507327 
L 223.680893 219.507327 
L 223.685839 217.910495 
L 224.233839 217.910495 
L 224.233839 217.112079 
L 224.649993 217.112079 
L 224.712379 215.515248 
L 224.793519 215.515248 
L 224.793519 214.716832 
L 225.573877 214.716832 
L 225.573877 213.918416 
L 225.992232 213.918416 
L 225.992232 213.12 
L 226.473526 213.12 
L 226.473526 212.321584 
L 227.233973 212.321584 
L 227.285874 210.724752 
L 227.623712 210.724752 
L 227.631175 209.127921 
L 227.863368 209.127921 
L 227.863368 208.329505 
L 228.653039 208.329505 
L 228.653039 207.531089 
L 228.872174 207.531089 
L 228.88105 205.934257 
L 229.527613 205.934257 
L 229.602485 204.337426 
L 230.109618 204.337426 
L 230.109618 203.53901 
L 230.356935 203.53901 
L 230.356935 202.740594 
L 230.508363 202.740594 
L 230.508363 201.942178 
L 230.867442 201.942178 
L 230.867442 201.143762 
L 231.160864 201.143762 
L 231.160864 200.345347 
L 231.514315 200.345347 
L 231.514315 199.546931 
L 232.806878 199.546931 
L 232.806878 198.748515 
L 233.34407 198.748515 
L 233.374702 197.151683 
L 233.798452 197.151683 
L 233.798452 196.353267 
L 234.086699 196.353267 
L 234.164487 194.756436 
L 234.538494 194.756436 
L 234.629169 193.159604 
L 234.813899 193.159604 
L 234.813899 192.361188 
L 234.956438 192.361188 
L 234.956438 191.562772 
L 235.726622 191.562772 
L 235.781825 189.965941 
L 235.921725 189.965941 
L 235.921725 189.167525 
L 236.070096 189.167525 
L 236.135131 187.570693 
L 236.570647 187.570693 
L 236.570647 186.772277 
L 237.055505 186.772277 
L 237.061143 185.175446 
L 237.496598 185.175446 
L 237.603348 181.981782 
L 237.676645 181.981782 
L 237.676645 181.183366 
L 238.371927 181.183366 
L 238.371927 180.38495 
L 238.677636 180.38495 
L 238.677636 179.586535 
L 239.078174 179.586535 
L 239.135872 177.989703 
L 239.352248 177.989703 
L 239.352248 177.191287 
L 239.911865 177.191287 
L 239.911865 176.392871 
L 240.274224 176.392871 
L 240.274224 175.594455 
L 241.244863 175.594455 
L 241.244863 174.79604 
L 241.419636 174.79604 
L 241.419636 173.997624 
L 241.680782 173.997624 
L 241.776073 172.400792 
L 241.813072 172.400792 
L 241.813072 171.602376 
L 242.102516 171.602376 
L 242.102516 170.80396 
L 242.273323 170.80396 
L 242.273323 170.005545 
L 242.442564 170.005545 
L 242.442564 169.207129 
L 242.578692 169.207129 
L 242.578692 168.408713 
L 242.839109 168.408713 
L 242.839109 167.610297 
L 243.042169 167.610297 
L 243.125695 165.21505 
L 243.323765 165.21505 
L 243.323765 164.416634 
L 243.937163 164.416634 
L 243.937163 163.618218 
L 244.161626 163.618218 
L 244.161626 162.819802 
L 244.402613 162.819802 
L 244.402613 162.021386 
L 244.659321 162.021386 
L 244.727288 160.424554 
L 244.886331 160.424554 
L 244.923925 158.827723 
L 245.20874 158.827723 
L 245.20874 158.029307 
L 245.653891 158.029307 
L 245.653891 157.230891 
L 245.782114 157.230891 
L 245.820057 155.634059 
L 246.109781 155.634059 
L 246.18549 154.037228 
L 246.434691 154.037228 
L 246.49217 152.440396 
L 246.751462 152.440396 
L 246.752602 150.843564 
L 246.878311 150.843564 
L 246.945436 148.448317 
L 247.027928 148.448317 
L 247.13123 145.254653 
L 247.185712 145.254653 
L 247.196673 143.657822 
L 247.297447 143.657822 
L 247.366186 141.262574 
L 247.69315 141.262574 
L 247.69315 140.464158 
L 247.845046 140.464158 
L 247.845046 139.665743 
L 248.236058 139.665743 
L 248.27836 138.068911 
L 248.385937 138.068911 
L 248.385937 137.270495 
L 248.657646 137.270495 
L 248.657646 136.472079 
L 248.907489 136.472079 
L 248.907489 135.673663 
L 249.059191 135.673663 
L 249.059191 134.875248 
L 249.197804 134.875248 
L 249.278332 132.48 
L 249.33323 132.48 
L 249.33323 131.681584 
L 250.411955 131.681584 
L 250.460191 130.084752 
L 250.573113 130.084752 
L 250.573113 129.286337 
L 251.00721 129.286337 
L 251.04805 127.689505 
L 251.128187 127.689505 
L 251.19646 126.092673 
L 251.346651 126.092673 
L 251.346651 125.294257 
L 251.724452 125.294257 
L 251.724452 124.495842 
L 251.905785 124.495842 
L 251.920211 122.89901 
L 252.307567 122.89901 
L 252.307567 122.100594 
L 252.949275 122.100594 
L 253.004833 120.503762 
L 253.639364 120.503762 
L 253.68139 118.906931 
L 253.858575 118.906931 
L 253.858575 118.108515 
L 254.292769 118.108515 
L 254.292769 117.310099 
L 254.902902 117.310099 
L 254.902902 116.511683 
L 255.189817 116.511683 
L 255.189817 115.713267 
L 255.407278 115.713267 
L 255.407278 114.914851 
L 255.590372 114.914851 
L 255.600563 113.31802 
L 255.73149 113.31802 
L 255.763903 111.721188 
L 255.923011 111.721188 
L 255.923011 110.922772 
L 256.128812 110.922772 
L 256.128812 110.124356 
L 256.972538 110.124356 
L 256.980051 108.527525 
L 257.160403 108.527525 
L 257.208727 106.930693 
L 257.425309 106.930693 
L 257.425309 106.132277 
L 257.630817 106.132277 
L 257.639754 104.535446 
L 257.778385 104.535446 
L 257.778385 103.73703 
L 258.003702 103.73703 
L 258.003702 102.938614 
L 258.155943 102.938614 
L 258.197842 101.341782 
L 258.284949 101.341782 
L 258.284949 100.543366 
L 258.799786 100.543366 
L 258.842524 98.946535 
L 259.121014 98.946535 
L 259.121014 98.148119 
L 259.70239 98.148119 
L 259.70239 97.349703 
L 259.863646 97.349703 
L 259.863646 96.551287 
L 260.037405 96.551287 
L 260.037405 95.752871 
L 260.313582 95.752871 
L 260.409058 93.357624 
L 260.455343 93.357624 
L 260.455343 92.559208 
L 260.691478 92.559208 
L 260.794363 90.16396 
L 260.927109 90.16396 
L 260.927109 89.365545 
L 261.705598 89.365545 
L 261.705598 88.567129 
L 262.03914 88.567129 
L 262.119787 86.171881 
L 262.178462 86.171881 
L 262.178462 85.373465 
L 262.384327 85.373465 
L 262.384327 84.57505 
L 262.507817 84.57505 
L 262.591169 82.978218 
L 262.845645 82.978218 
L 262.845645 82.179802 
L 263.006107 82.179802 
L 263.006107 81.381386 
L 263.449968 81.381386 
L 263.470474 79.784554 
L 263.840688 79.784554 
L 263.922884 78.187723 
L 264.034768 78.187723 
L 264.142658 76.590891 
L 264.246084 76.590891 
L 264.246084 75.792475 
L 264.485411 75.792475 
L 264.485411 74.994059 
L 264.601183 74.994059 
L 264.621959 73.397228 
L 264.810494 73.397228 
L 264.888988 71.800396 
L 265.404824 71.800396 
L 265.472077 70.203564 
L 265.664964 70.203564 
L 265.664964 69.405149 
L 265.95119 69.405149 
L 265.95119 68.606733 
L 266.53153 68.606733 
L 266.53153 67.808317 
L 266.843779 67.808317 
L 266.843779 67.009901 
L 267.002868 67.009901 
L 267.066539 65.413069 
L 267.322382 65.413069 
L 267.355212 63.816238 
L 267.692435 63.816238 
L 267.745701 62.219406 
L 267.829566 62.219406 
L 267.829566 61.42099 
L 268.101874 61.42099 
L 268.104291 59.824158 
L 268.409431 59.824158 
L 268.409431 59.025743 
L 268.732925 59.025743 
L 268.735451 57.428911 
L 269.130853 57.428911 
L 269.130853 56.630495 
L 270.215884 56.630495 
L 270.215884 55.832079 
L 271.00342 55.832079 
L 271.00342 55.033663 
L 271.32097 55.033663 
L 271.32097 54.235248 
L 271.558134 54.235248 
L 271.558134 53.436832 
L 272.13161 53.436832 
L 272.13161 52.638416 
L 272.367021 52.638416 
L 272.367021 51.84 
L 272.679455 51.84 
L 272.679455 51.041584 
L 273.62079 51.041584 
L 273.62079 50.243168 
L 274.257117 50.243168 
L 274.321957 48.646337 
L 275.144805 48.646337 
L 275.144805 47.847921 
L 275.421152 47.847921 
L 275.500538 46.251089 
L 275.649103 46.251089 
L 275.649103 45.452673 
L 275.913733 45.452673 
L 275.913733 44.654257 
L 276.234516 44.654257 
L 276.234516 43.855842 
L 277.189758 43.855842 
L 277.222826 42.25901 
L 277.882804 42.25901 
L 277.882804 41.460594 
L 278.106287 41.460594 
L 278.106287 40.662178 
L 278.358105 40.662178 
L 278.358105 39.863762 
L 279.300301 39.863762 
L 279.322208 38.266931 
L 282.08193 38.266931 
L 282.094826 36.670099 
L 283.047112 36.670099 
L 283.047112 35.871683 
L 283.266113 35.871683 
L 283.266113 35.073267 
L 283.756667 35.073267 
L 283.756667 34.274851 
L 287.425376 34.274851 
L 287.425376 33.476436 
L 288.385627 33.476436 
L 288.385627 32.67802 
L 290.458478 32.67802 
L 290.458478 31.879604 
L 293.192908 31.879604 
L 293.192908 31.081188 
L 293.508295 31.081188 
L 293.508295 30.282772 
L 294.449183 30.282772 
L 294.449183 29.484356 
L 294.769602 29.484356 
L 294.769602 28.685941 
L 296.402217 28.685941 
L 296.402217 27.887525 
L 298.087543 27.887525 
L 298.087543 27.089109 
L 303.318751 27.089109 
L 303.318751 26.290693 
L 307.116397 26.290693 
L 307.116397 25.492277 
L 310.345294 25.492277 
L 310.345294 24.693861 
L 311.311278 24.693861 
L 311.311278 23.895446 
L 312.162401 23.895446 
L 312.162401 23.09703 
L 313.405355 23.09703 
L 313.405355 22.298614 
L 314.97647 22.298614 
L 314.97647 21.500198 
L 316.279506 21.500198 
L 316.279506 20.701782 
L 318.123937 20.701782 
L 318.123937 19.903366 
L 319.022304 19.903366 
L 319.022304 19.10495 
L 321.933046 19.10495 
L 321.933046 18.306535 
L 326.267075 18.306535 
L 326.267075 17.508119 
L 328.431747 17.508119 
L 328.431747 16.709703 
L 330.029407 16.709703 
L 330.029407 15.911287 
L 334.032808 15.911287 
L 334.032808 15.112871 
L 334.686896 15.112871 
L 334.686896 14.314455 
L 342.992133 14.314455 
L 342.992133 13.51604 
L 344.917568 13.51604 
L 344.917568 12.717624 
L 347.315764 12.717624 
L 347.315764 11.919208 
L 354.606241 11.919208 
L 354.606241 11.120792 
L 360.352075 11.120792 
L 360.352075 10.322376 
L 373.932918 10.322376 
L 373.932918 9.52396 
L 374.377291 9.52396 
L 374.377291 8.725545 
L 374.966747 8.725545 
L 374.966747 7.927129 
L 389.856864 7.927129 
L 389.856864 7.128713 
L 395.941134 7.128713 
L 395.941134 6.330297 
L 395.941134 6.330297 
L 460.8 6.330297 
L 460.8 6.330297 
" clip-path="url(#p5e241cc773)" style="fill: none; stroke: #bf00bf; stroke-width: 1.5; stroke-linecap: square"/>
   </g>
   <g id="patch_3">
    <path d="M 0 293.76 
L 0 3.456 
" style="fill: none; stroke: #000000; stroke-width: 0.8; stroke-linejoin: miter; stroke-linecap: square"/>
   </g>
   <g id="patch_4">
    <path d="M 460.8 293.76 
L 460.8 3.456 
" style="fill: none; stroke: #000000; stroke-width: 0.8; stroke-linejoin: miter; stroke-linecap: square"/>
   </g>
   <g id="patch_5">
    <path d="M 0 293.76 
L 460.8 293.76 
" style="fill: none; stroke: #000000; stroke-width: 0.8; stroke-linejoin: miter; stroke-linecap: square"/>
   </g>
   <g id="patch_6">
    <path d="M 0 3.456 
L 460.8 3.456 
" style="fill: none; stroke: #000000; stroke-width: 0.8; stroke-linejoin: miter; stroke-linecap: square"/>
   </g>
   <g id="text_6">
    <!-- {f1-f24}, 5-D -->
    <g transform="translate(318.609 287.95392) scale(0.2 -0.2)">
     <defs>
      <path id="DejaVuSans-7b" d="M 3272 -594 
L 3272 -1044 
L 3078 -1044 
Q 2300 -1044 2036 -812 
Q 1772 -581 1772 109 
L 1772 856 
Q 1772 1328 1603 1509 
Q 1434 1691 991 1691 
L 800 1691 
L 800 2138 
L 991 2138 
Q 1438 2138 1605 2317 
Q 1772 2497 1772 2963 
L 1772 3713 
Q 1772 4403 2036 4633 
Q 2300 4863 3078 4863 
L 3272 4863 
L 3272 4416 
L 3059 4416 
Q 2619 4416 2484 4278 
Q 2350 4141 2350 3700 
L 2350 2925 
Q 2350 2434 2208 2212 
Q 2066 1991 1722 1913 
Q 2069 1828 2209 1606 
Q 2350 1384 2350 897 
L 2350 122 
Q 2350 -319 2484 -456 
Q 2619 -594 3059 -594 
L 3272 -594 
z
" transform="scale(0.015625)"/>
      <path id="DejaVuSans-32" d="M 1228 531 
L 3431 531 
L 3431 0 
L 469 0 
L 469 531 
Q 828 903 1448 1529 
Q 2069 2156 2228 2338 
Q 2531 2678 2651 2914 
Q 2772 3150 2772 3378 
Q 2772 3750 2511 3984 
Q 2250 4219 1831 4219 
Q 1534 4219 1204 4116 
Q 875 4013 500 3803 
L 500 4441 
Q 881 4594 1212 4672 
Q 1544 4750 1819 4750 
Q 2544 4750 2975 4387 
Q 3406 4025 3406 3419 
Q 3406 3131 3298 2873 
Q 3191 2616 2906 2266 
Q 2828 2175 2409 1742 
Q 1991 1309 1228 531 
z
" transform="scale(0.015625)"/>
      <path id="DejaVuSans-7d" d="M 800 -594 
L 1019 -594 
Q 1456 -594 1589 -459 
Q 1722 -325 1722 122 
L 1722 897 
Q 1722 1384 1862 1606 
Q 2003 1828 2350 1913 
Q 2003 1991 1862 2212 
Q 1722 2434 1722 2925 
L 1722 3700 
Q 1722 4144 1589 4280 
Q 1456 4416 1019 4416 
L 800 4416 
L 800 4863 
L 997 4863 
Q 1775 4863 2036 4633 
Q 2297 4403 2297 3713 
L 2297 2963 
Q 2297 2497 2465 2317 
Q 2634 2138 3078 2138 
L 3272 2138 
L 3272 1691 
L 3078 1691 
Q 2634 1691 2465 1509 
Q 2297 1328 2297 856 
L 2297 109 
Q 2297 -581 2036 -812 
Q 1775 -1044 997 -1044 
L 800 -1044 
L 800 -594 
z
" transform="scale(0.015625)"/>
      <path id="DejaVuSans-2c" d="M 750 794 
L 1409 794 
L 1409 256 
L 897 -744 
L 494 -744 
L 750 256 
L 750 794 
z
" transform="scale(0.015625)"/>
      <path id="DejaVuSans-35" d="M 691 4666 
L 3169 4666 
L 3169 4134 
L 1269 4134 
L 1269 2991 
Q 1406 3038 1543 3061 
Q 1681 3084 1819 3084 
Q 2600 3084 3056 2656 
Q 3513 2228 3513 1497 
Q 3513 744 3044 326 
Q 2575 -91 1722 -91 
Q 1428 -91 1123 -41 
Q 819 9 494 109 
L 494 744 
Q 775 591 1075 516 
Q 1375 441 1709 441 
Q 2250 441 2565 725 
Q 2881 1009 2881 1497 
Q 2881 1984 2565 2268 
Q 2250 2553 1709 2553 
Q 1456 2553 1204 2497 
Q 953 2441 691 2322 
L 691 4666 
z
" transform="scale(0.015625)"/>
     </defs>
     <use xlink:href="#DejaVuSans-7b"/>
     <use xlink:href="#DejaVuSans-66" x="63.623047"/>
     <use xlink:href="#DejaVuSans-31" x="98.828125"/>
     <use xlink:href="#DejaVuSans-2d" x="162.451172"/>
     <use xlink:href="#DejaVuSans-66" x="198.535156"/>
     <use xlink:href="#DejaVuSans-32" x="233.740234"/>
     <use xlink:href="#DejaVuSans-34" x="297.363281"/>
     <use xlink:href="#DejaVuSans-7d" x="360.986328"/>
     <use xlink:href="#DejaVuSans-2c" x="424.609375"/>
     <use xlink:href="#DejaVuSans-20" x="456.396484"/>
     <use xlink:href="#DejaVuSans-35" x="488.183594"/>
     <use xlink:href="#DejaVuSans-2d" x="551.806641"/>
     <use xlink:href="#DejaVuSans-44" x="587.890625"/>
    </g>
   </g>
   <g id="text_7">
    <!-- v2.6.3 -->
    <g style="fill: #808080" transform="translate(214.71875 288.777272) scale(0.1 -0.1)">
     <defs>
      <path id="DejaVuSans-76" d="M 191 3500 
L 800 3500 
L 1894 563 
L 2988 3500 
L 3597 3500 
L 2284 0 
L 1503 0 
L 191 3500 
z
" transform="scale(0.015625)"/>
      <path id="DejaVuSans-2e" d="M 684 794 
L 1344 794 
L 1344 0 
L 684 0 
L 684 794 
z
" transform="scale(0.015625)"/>
      <path id="DejaVuSans-36" d="M 2113 2584 
Q 1688 2584 1439 2293 
Q 1191 2003 1191 1497 
Q 1191 994 1439 701 
Q 1688 409 2113 409 
Q 2538 409 2786 701 
Q 3034 994 3034 1497 
Q 3034 2003 2786 2293 
Q 2538 2584 2113 2584 
z
M 3366 4563 
L 3366 3988 
Q 3128 4100 2886 4159 
Q 2644 4219 2406 4219 
Q 1781 4219 1451 3797 
Q 1122 3375 1075 2522 
Q 1259 2794 1537 2939 
Q 1816 3084 2150 3084 
Q 2853 3084 3261 2657 
Q 3669 2231 3669 1497 
Q 3669 778 3244 343 
Q 2819 -91 2113 -91 
Q 1303 -91 875 529 
Q 447 1150 447 2328 
Q 447 3434 972 4092 
Q 1497 4750 2381 4750 
Q 2619 4750 2861 4703 
Q 3103 4656 3366 4563 
z
" transform="scale(0.015625)"/>
      <path id="DejaVuSans-33" d="M 2597 2516 
Q 3050 2419 3304 2112 
Q 3559 1806 3559 1356 
Q 3559 666 3084 287 
Q 2609 -91 1734 -91 
Q 1441 -91 1130 -33 
Q 819 25 488 141 
L 488 750 
Q 750 597 1062 519 
Q 1375 441 1716 441 
Q 2309 441 2620 675 
Q 2931 909 2931 1356 
Q 2931 1769 2642 2001 
Q 2353 2234 1838 2234 
L 1294 2234 
L 1294 2753 
L 1863 2753 
Q 2328 2753 2575 2939 
Q 2822 3125 2822 3475 
Q 2822 3834 2567 4026 
Q 2313 4219 1838 4219 
Q 1578 4219 1281 4162 
Q 984 4106 628 3988 
L 628 4550 
Q 988 4650 1302 4700 
Q 1616 4750 1894 4750 
Q 2613 4750 3031 4423 
Q 3450 4097 3450 3541 
Q 3450 3153 3228 2886 
Q 3006 2619 2597 2516 
z
" transform="scale(0.015625)"/>
     </defs>
     <use xlink:href="#DejaVuSans-76"/>
     <use xlink:href="#DejaVuSans-32" x="59.179688"/>
     <use xlink:href="#DejaVuSans-2e" x="122.802734"/>
     <use xlink:href="#DejaVuSans-36" x="154.589844"/>
     <use xlink:href="#DejaVuSans-2e" x="218.212891"/>
     <use xlink:href="#DejaVuSans-33" x="250"/>
    </g>
   </g>
  </g>
 </g>
 <defs>
  <clipPath id="p5e241cc773">
   <rect x="0" y="3.456" width="460.8" height="290.304"/>
  </clipPath>
 </defs>
</svg>
