<?xml version="1.0" encoding="utf-8" standalone="no"?>
<!DOCTYPE svg PUBLIC "-//W3C//DTD SVG 1.1//EN"
  "http://www.w3.org/Graphics/SVG/1.1/DTD/svg11.dtd">
<svg xmlns:xlink="http://www.w3.org/1999/xlink" width="460.8pt" height="345.6pt" viewBox="0 0 460.8 345.6" xmlns="http://www.w3.org/2000/svg" version="1.1">
 <metadata>
  <rdf:RDF xmlns:dc="http://purl.org/dc/elements/1.1/" xmlns:cc="http://creativecommons.org/ns#" xmlns:rdf="http://www.w3.org/1999/02/22-rdf-syntax-ns#">
   <cc:Work>
    <dc:type rdf:resource="http://purl.org/dc/dcmitype/StillImage"/>
    <dc:date>2024-01-17T14:59:44.746633</dc:date>
    <dc:format>image/svg+xml</dc:format>
    <dc:creator>
     <cc:Agent>
      <dc:title>Matplotlib v3.8.2, https://matplotlib.org/</dc:title>
     </cc:Agent>
    </dc:creator>
   </cc:Work>
  </rdf:RDF>
 </metadata>
 <defs>
  <style type="text/css">*{stroke-linejoin: round; stroke-linecap: butt}</style>
 </defs>
 <g id="figure_1">
  <g id="patch_1">
   <path d="M 0 345.6 
L 460.8 345.6 
L 460.8 0 
L 0 0 
z
" style="fill: #ffffff"/>
  </g>
  <g id="axes_1">
   <g id="patch_2">
    <path d="M 0 293.76 
L 460.8 293.76 
L 460.8 3.456 
L 0 3.456 
z
" style="fill: #ffffff"/>
   </g>
   <g id="matplotlib.axis_1">
    <g id="xtick_1">
     <g id="line2d_1">
      <path d="M 106.339834 293.76 
L 106.339834 3.456 
" clip-path="url(#p6e25ddd695)" style="fill: none; stroke: #b0b0b0; stroke-width: 0.8; stroke-linecap: square"/>
     </g>
     <g id="line2d_2">
      <defs>
       <path id="m350b5a0e3a" d="M 0 0 
L 0 3.5 
" style="stroke: #000000; stroke-width: 0.8"/>
      </defs>
      <g>
       <use xlink:href="#m350b5a0e3a" x="106.339834" y="293.76" style="stroke: #000000; stroke-width: 0.8"/>
      </g>
     </g>
     <g id="text_1">
      <!-- -4 -->
      <g transform="translate(96.369522 315.956875) scale(0.2 -0.2)">
       <defs>
        <path id="DejaVuSans-2d" d="M 313 2009 
L 1997 2009 
L 1997 1497 
L 313 1497 
L 313 2009 
z
" transform="scale(0.015625)"/>
        <path id="DejaVuSans-34" d="M 2419 4116 
L 825 1625 
L 2419 1625 
L 2419 4116 
z
M 2253 4666 
L 3047 4666 
L 3047 1625 
L 3713 1625 
L 3713 1100 
L 3047 1100 
L 3047 0 
L 2419 0 
L 2419 1100 
L 313 1100 
L 313 1709 
L 2253 4666 
z
" transform="scale(0.015625)"/>
       </defs>
       <use xlink:href="#DejaVuSans-2d"/>
       <use xlink:href="#DejaVuSans-34" x="36.083984"/>
      </g>
     </g>
    </g>
    <g id="xtick_2">
     <g id="line2d_3">
      <path d="M 212.794676 293.76 
L 212.794676 3.456 
" clip-path="url(#p6e25ddd695)" style="fill: none; stroke: #b0b0b0; stroke-width: 0.8; stroke-linecap: square"/>
     </g>
     <g id="line2d_4">
      <g>
       <use xlink:href="#m350b5a0e3a" x="212.794676" y="293.76" style="stroke: #000000; stroke-width: 0.8"/>
      </g>
     </g>
     <g id="text_2">
      <!-- 0 -->
      <g transform="translate(206.432176 315.956875) scale(0.2 -0.2)">
       <defs>
        <path id="DejaVuSans-30" d="M 2034 4250 
Q 1547 4250 1301 3770 
Q 1056 3291 1056 2328 
Q 1056 1369 1301 889 
Q 1547 409 2034 409 
Q 2525 409 2770 889 
Q 3016 1369 3016 2328 
Q 3016 3291 2770 3770 
Q 2525 4250 2034 4250 
z
M 2034 4750 
Q 2819 4750 3233 4129 
Q 3647 3509 3647 2328 
Q 3647 1150 3233 529 
Q 2819 -91 2034 -91 
Q 1250 -91 836 529 
Q 422 1150 422 2328 
Q 422 3509 836 4129 
Q 1250 4750 2034 4750 
z
" transform="scale(0.015625)"/>
       </defs>
       <use xlink:href="#DejaVuSans-30"/>
      </g>
     </g>
    </g>
    <g id="xtick_3">
     <g id="line2d_5">
      <path d="M 319.249518 293.76 
L 319.249518 3.456 
" clip-path="url(#p6e25ddd695)" style="fill: none; stroke: #b0b0b0; stroke-width: 0.8; stroke-linecap: square"/>
     </g>
     <g id="line2d_6">
      <g>
       <use xlink:href="#m350b5a0e3a" x="319.249518" y="293.76" style="stroke: #000000; stroke-width: 0.8"/>
      </g>
     </g>
     <g id="text_3">
      <!-- 4 -->
      <g transform="translate(312.887018 315.956875) scale(0.2 -0.2)">
       <use xlink:href="#DejaVuSans-34"/>
      </g>
     </g>
    </g>
    <g id="xtick_4">
     <g id="line2d_7">
      <path d="M 425.70436 293.76 
L 425.70436 3.456 
" clip-path="url(#p6e25ddd695)" style="fill: none; stroke: #b0b0b0; stroke-width: 0.8; stroke-linecap: square"/>
     </g>
     <g id="line2d_8">
      <g>
       <use xlink:href="#m350b5a0e3a" x="425.70436" y="293.76" style="stroke: #000000; stroke-width: 0.8"/>
      </g>
     </g>
     <g id="text_4">
      <!-- 8 -->
      <g transform="translate(419.34186 315.956875) scale(0.2 -0.2)">
       <defs>
        <path id="DejaVuSans-38" d="M 2034 2216 
Q 1584 2216 1326 1975 
Q 1069 1734 1069 1313 
Q 1069 891 1326 650 
Q 1584 409 2034 409 
Q 2484 409 2743 651 
Q 3003 894 3003 1313 
Q 3003 1734 2745 1975 
Q 2488 2216 2034 2216 
z
M 1403 2484 
Q 997 2584 770 2862 
Q 544 3141 544 3541 
Q 544 4100 942 4425 
Q 1341 4750 2034 4750 
Q 2731 4750 3128 4425 
Q 3525 4100 3525 3541 
Q 3525 3141 3298 2862 
Q 3072 2584 2669 2484 
Q 3125 2378 3379 2068 
Q 3634 1759 3634 1313 
Q 3634 634 3220 271 
Q 2806 -91 2034 -91 
Q 1263 -91 848 271 
Q 434 634 434 1313 
Q 434 1759 690 2068 
Q 947 2378 1403 2484 
z
M 1172 3481 
Q 1172 3119 1398 2916 
Q 1625 2713 2034 2713 
Q 2441 2713 2670 2916 
Q 2900 3119 2900 3481 
Q 2900 3844 2670 4047 
Q 2441 4250 2034 4250 
Q 1625 4250 1398 4047 
Q 1172 3844 1172 3481 
z
" transform="scale(0.015625)"/>
       </defs>
       <use xlink:href="#DejaVuSans-38"/>
      </g>
     </g>
    </g>
    <g id="text_5">
     <!-- log10 of Df -->
     <g transform="translate(175.214063 339.313125) scale(0.2 -0.2)">
      <defs>
       <path id="DejaVuSans-6c" d="M 603 4863 
L 1178 4863 
L 1178 0 
L 603 0 
L 603 4863 
z
" transform="scale(0.015625)"/>
       <path id="DejaVuSans-6f" d="M 1959 3097 
Q 1497 3097 1228 2736 
Q 959 2375 959 1747 
Q 959 1119 1226 758 
Q 1494 397 1959 397 
Q 2419 397 2687 759 
Q 2956 1122 2956 1747 
Q 2956 2369 2687 2733 
Q 2419 3097 1959 3097 
z
M 1959 3584 
Q 2709 3584 3137 3096 
Q 3566 2609 3566 1747 
Q 3566 888 3137 398 
Q 2709 -91 1959 -91 
Q 1206 -91 779 398 
Q 353 888 353 1747 
Q 353 2609 779 3096 
Q 1206 3584 1959 3584 
z
" transform="scale(0.015625)"/>
       <path id="DejaVuSans-67" d="M 2906 1791 
Q 2906 2416 2648 2759 
Q 2391 3103 1925 3103 
Q 1463 3103 1205 2759 
Q 947 2416 947 1791 
Q 947 1169 1205 825 
Q 1463 481 1925 481 
Q 2391 481 2648 825 
Q 2906 1169 2906 1791 
z
M 3481 434 
Q 3481 -459 3084 -895 
Q 2688 -1331 1869 -1331 
Q 1566 -1331 1297 -1286 
Q 1028 -1241 775 -1147 
L 775 -588 
Q 1028 -725 1275 -790 
Q 1522 -856 1778 -856 
Q 2344 -856 2625 -561 
Q 2906 -266 2906 331 
L 2906 616 
Q 2728 306 2450 153 
Q 2172 0 1784 0 
Q 1141 0 747 490 
Q 353 981 353 1791 
Q 353 2603 747 3093 
Q 1141 3584 1784 3584 
Q 2172 3584 2450 3431 
Q 2728 3278 2906 2969 
L 2906 3500 
L 3481 3500 
L 3481 434 
z
" transform="scale(0.015625)"/>
       <path id="DejaVuSans-31" d="M 794 531 
L 1825 531 
L 1825 4091 
L 703 3866 
L 703 4441 
L 1819 4666 
L 2450 4666 
L 2450 531 
L 3481 531 
L 3481 0 
L 794 0 
L 794 531 
z
" transform="scale(0.015625)"/>
       <path id="DejaVuSans-20" transform="scale(0.015625)"/>
       <path id="DejaVuSans-66" d="M 2375 4863 
L 2375 4384 
L 1825 4384 
Q 1516 4384 1395 4259 
Q 1275 4134 1275 3809 
L 1275 3500 
L 2222 3500 
L 2222 3053 
L 1275 3053 
L 1275 0 
L 697 0 
L 697 3053 
L 147 3053 
L 147 3500 
L 697 3500 
L 697 3744 
Q 697 4328 969 4595 
Q 1241 4863 1831 4863 
L 2375 4863 
z
" transform="scale(0.015625)"/>
       <path id="DejaVuSans-44" d="M 1259 4147 
L 1259 519 
L 2022 519 
Q 2988 519 3436 956 
Q 3884 1394 3884 2338 
Q 3884 3275 3436 3711 
Q 2988 4147 2022 4147 
L 1259 4147 
z
M 628 4666 
L 1925 4666 
Q 3281 4666 3915 4102 
Q 4550 3538 4550 2338 
Q 4550 1131 3912 565 
Q 3275 0 1925 0 
L 628 0 
L 628 4666 
z
" transform="scale(0.015625)"/>
      </defs>
      <use xlink:href="#DejaVuSans-6c"/>
      <use xlink:href="#DejaVuSans-6f" x="27.783203"/>
      <use xlink:href="#DejaVuSans-67" x="88.964844"/>
      <use xlink:href="#DejaVuSans-31" x="152.441406"/>
      <use xlink:href="#DejaVuSans-30" x="216.064453"/>
      <use xlink:href="#DejaVuSans-20" x="279.6875"/>
      <use xlink:href="#DejaVuSans-6f" x="311.474609"/>
      <use xlink:href="#DejaVuSans-66" x="372.65625"/>
      <use xlink:href="#DejaVuSans-20" x="407.861328"/>
      <use xlink:href="#DejaVuSans-44" x="439.648438"/>
      <use xlink:href="#DejaVuSans-66" x="516.650391"/>
     </g>
    </g>
   </g>
   <g id="matplotlib.axis_2">
    <g id="ytick_1">
     <g id="line2d_9">
      <path d="M 0 293.76 
L 460.8 293.76 
" clip-path="url(#p6e25ddd695)" style="fill: none; stroke: #b0b0b0; stroke-width: 0.8; stroke-linecap: square"/>
     </g>
     <g id="line2d_10">
      <defs>
       <path id="m66c088f9e9" d="M 0 0 
L -3.5 0 
" style="stroke: #000000; stroke-width: 0.8"/>
      </defs>
      <g>
       <use xlink:href="#m66c088f9e9" x="0" y="293.76" style="stroke: #000000; stroke-width: 0.8"/>
      </g>
     </g>
    </g>
    <g id="ytick_2">
     <g id="line2d_11">
      <path d="M 0 236.274059 
L 460.8 236.274059 
" clip-path="url(#p6e25ddd695)" style="fill: none; stroke: #b0b0b0; stroke-width: 0.8; stroke-linecap: square"/>
     </g>
     <g id="line2d_12">
      <g>
       <use xlink:href="#m66c088f9e9" x="0" y="236.274059" style="stroke: #000000; stroke-width: 0.8"/>
      </g>
     </g>
    </g>
    <g id="ytick_3">
     <g id="line2d_13">
      <path d="M 0 178.788119 
L 460.8 178.788119 
" clip-path="url(#p6e25ddd695)" style="fill: none; stroke: #b0b0b0; stroke-width: 0.8; stroke-linecap: square"/>
     </g>
     <g id="line2d_14">
      <g>
       <use xlink:href="#m66c088f9e9" x="0" y="178.788119" style="stroke: #000000; stroke-width: 0.8"/>
      </g>
     </g>
    </g>
    <g id="ytick_4">
     <g id="line2d_15">
      <path d="M 0 121.302178 
L 460.8 121.302178 
" clip-path="url(#p6e25ddd695)" style="fill: none; stroke: #b0b0b0; stroke-width: 0.8; stroke-linecap: square"/>
     </g>
     <g id="line2d_16">
      <g>
       <use xlink:href="#m66c088f9e9" x="0" y="121.302178" style="stroke: #000000; stroke-width: 0.8"/>
      </g>
     </g>
    </g>
    <g id="ytick_5">
     <g id="line2d_17">
      <path d="M 0 63.816238 
L 460.8 63.816238 
" clip-path="url(#p6e25ddd695)" style="fill: none; stroke: #b0b0b0; stroke-width: 0.8; stroke-linecap: square"/>
     </g>
     <g id="line2d_18">
      <g>
       <use xlink:href="#m66c088f9e9" x="0" y="63.816238" style="stroke: #000000; stroke-width: 0.8"/>
      </g>
     </g>
    </g>
    <g id="ytick_6">
     <g id="line2d_19">
      <path d="M 0 6.330297 
L 460.8 6.330297 
" clip-path="url(#p6e25ddd695)" style="fill: none; stroke: #b0b0b0; stroke-width: 0.8; stroke-linecap: square"/>
     </g>
     <g id="line2d_20">
      <g>
       <use xlink:href="#m66c088f9e9" x="0" y="6.330297" style="stroke: #000000; stroke-width: 0.8"/>
      </g>
     </g>
    </g>
   </g>
   <g id="line2d_21">
    <path d="M 260.532345 293.76 
L 260.532345 288.969505 
L 260.739931 288.969505 
L 260.739931 284.17901 
L 261.843921 284.17901 
L 261.843921 279.388515 
L 262.342419 279.388515 
L 262.342419 274.59802 
L 262.596698 274.59802 
L 262.596698 269.807525 
L 263.756031 269.807525 
L 263.756031 265.01703 
L 263.856882 265.01703 
L 263.856882 260.226535 
L 264.275652 260.226535 
L 264.275652 255.43604 
L 265.166228 255.43604 
L 265.166228 250.645545 
L 265.392654 250.645545 
L 265.392654 245.85505 
L 265.450072 245.85505 
L 265.450072 241.064554 
L 265.573398 241.064554 
L 265.573398 236.274059 
L 266.020038 236.274059 
L 266.020038 231.483564 
L 266.305412 231.483564 
L 266.305412 226.693069 
L 266.343558 226.693069 
L 266.343558 221.902574 
L 274.912598 221.902574 
L 274.912598 217.112079 
L 281.196261 217.112079 
L 281.196261 212.321584 
L 289.065177 212.321584 
L 289.065177 207.531089 
L 289.998731 207.531089 
L 289.998731 202.740594 
L 290.287028 202.740594 
L 290.287028 197.950099 
L 290.492334 197.950099 
L 290.492334 193.159604 
L 291.730445 193.159604 
L 291.730445 188.369109 
L 293.52891 188.369109 
L 293.52891 183.578614 
L 294.384162 183.578614 
L 294.384162 178.788119 
L 294.727584 178.788119 
L 294.727584 173.997624 
L 296.129425 173.997624 
L 296.129425 169.207129 
L 296.809178 169.207129 
L 296.809178 164.416634 
L 296.963167 164.416634 
L 296.963167 159.626139 
L 299.079016 159.626139 
L 299.079016 154.835644 
L 299.147294 154.835644 
L 299.147294 150.045149 
L 302.118959 150.045149 
L 302.118959 145.254653 
L 302.332011 145.254653 
L 302.332011 140.464158 
L 302.986575 140.464158 
L 302.986575 135.673663 
L 303.914087 135.673663 
L 303.914087 130.883168 
L 307.341864 130.883168 
L 307.341864 126.092673 
L 317.310891 126.092673 
L 317.310891 121.302178 
L 317.335866 121.302178 
L 317.335866 116.511683 
L 318.592555 116.511683 
L 318.592555 111.721188 
L 320.621668 111.721188 
L 320.621668 106.930693 
L 324.310284 106.930693 
L 324.310284 102.140198 
L 324.634608 102.140198 
L 324.634608 97.349703 
L 324.832595 97.349703 
L 324.832595 92.559208 
L 324.890968 92.559208 
L 324.890968 87.768713 
L 325.696368 87.768713 
L 325.696368 82.978218 
L 326.445405 82.978218 
L 326.445405 78.187723 
L 326.537132 78.187723 
L 326.537132 73.397228 
L 328.587863 73.397228 
L 328.587863 68.606733 
L 329.532364 68.606733 
L 329.532364 63.816238 
L 330.747592 63.816238 
L 330.747592 59.025743 
L 332.974383 59.025743 
L 332.974383 54.235248 
L 335.163833 54.235248 
L 335.163833 49.444752 
L 335.920367 49.444752 
L 335.920367 44.654257 
L 340.936051 44.654257 
L 340.936051 39.863762 
L 342.672063 39.863762 
L 342.672063 35.073267 
L 345.988554 35.073267 
L 345.988554 30.282772 
L 346.917465 30.282772 
L 346.917465 25.492277 
L 348.027672 25.492277 
L 348.027672 20.701782 
L 349.40193 20.701782 
L 349.40193 15.911287 
L 351.708254 15.911287 
L 351.708254 11.120792 
L 357.757814 11.120792 
L 357.757814 6.330297 
L 357.757814 6.330297 
L 357.757814 6.330297 
L 460.8 6.330297 
" clip-path="url(#p6e25ddd695)" style="fill: none; stroke: #ff0000; stroke-width: 3; stroke-linecap: square"/>
   </g>
   <g id="line2d_22">
    <path d="M 268.46075 293.76 
L 268.46075 288.969505 
L 268.460784 288.969505 
L 268.460784 284.17901 
L 268.460849 284.17901 
L 268.460849 279.388515 
L 268.460872 279.388515 
L 268.460872 274.59802 
L 268.460928 274.59802 
L 268.460928 269.807525 
L 268.460937 269.807525 
L 268.460937 265.01703 
L 268.460944 265.01703 
L 268.460944 260.226535 
L 268.460946 260.226535 
L 268.460946 255.43604 
L 268.461115 255.43604 
L 268.461115 250.645545 
L 268.461161 250.645545 
L 268.461161 245.85505 
L 268.461263 245.85505 
L 268.461263 241.064554 
L 268.46129 241.064554 
L 268.46129 236.274059 
L 268.461405 236.274059 
L 268.461405 231.483564 
L 268.46142 231.483564 
L 268.46142 226.693069 
L 268.461528 226.693069 
L 268.461528 221.902574 
L 289.065177 221.902574 
L 289.065177 217.112079 
L 289.998731 217.112079 
L 289.998731 212.321584 
L 290.287028 212.321584 
L 290.287028 207.531089 
L 290.492334 207.531089 
L 290.492334 202.740594 
L 291.730445 202.740594 
L 291.730445 197.950099 
L 293.52891 197.950099 
L 293.52891 193.159604 
L 294.727584 193.159604 
L 294.727584 188.369109 
L 296.129425 188.369109 
L 296.129425 183.578614 
L 296.809178 183.578614 
L 296.809178 178.788119 
L 296.963167 178.788119 
L 296.963167 173.997624 
L 299.079016 173.997624 
L 299.079016 169.207129 
L 299.147294 169.207129 
L 299.147294 164.416634 
L 302.332011 164.416634 
L 302.332011 159.626139 
L 302.986575 159.626139 
L 302.986575 154.835644 
L 303.914087 154.835644 
L 303.914087 150.045149 
L 327.024965 150.045149 
L 327.024965 145.254653 
L 330.318701 145.254653 
L 330.318701 140.464158 
L 335.036137 140.464158 
L 335.036137 135.673663 
L 338.445013 135.673663 
L 338.445013 130.883168 
L 339.512088 130.883168 
L 339.512088 126.092673 
L 339.763725 126.092673 
L 339.763725 121.302178 
L 340.056297 121.302178 
L 340.056297 116.511683 
L 340.448202 116.511683 
L 340.448202 111.721188 
L 341.59042 111.721188 
L 341.59042 106.930693 
L 341.768534 106.930693 
L 341.768534 102.140198 
L 342.402515 102.140198 
L 342.402515 97.349703 
L 343.041226 97.349703 
L 343.041226 92.559208 
L 343.060509 92.559208 
L 343.060509 87.768713 
L 343.759674 87.768713 
L 343.759674 82.978218 
L 344.199219 82.978218 
L 344.199219 78.187723 
L 348.988589 78.187723 
L 348.988589 73.397228 
L 353.476438 73.397228 
L 353.476438 68.606733 
L 356.923422 68.606733 
L 356.923422 63.816238 
L 357.774856 63.816238 
L 357.774856 59.025743 
L 359.393648 59.025743 
L 359.393648 54.235248 
L 359.533359 54.235248 
L 359.533359 49.444752 
L 359.616525 49.444752 
L 359.616525 44.654257 
L 360.405104 44.654257 
L 360.405104 39.863762 
L 361.223447 39.863762 
L 361.223447 35.073267 
L 361.475752 35.073267 
L 361.475752 30.282772 
L 365.119629 30.282772 
L 365.119629 25.492277 
L 366.273658 25.492277 
L 366.273658 20.701782 
L 367.081307 20.701782 
L 367.081307 15.911287 
L 369.520768 15.911287 
L 369.520768 11.120792 
L 372.486747 11.120792 
L 372.486747 6.330297 
L 372.486747 6.330297 
L 372.486747 6.330297 
L 460.8 6.330297 
" clip-path="url(#p6e25ddd695)" style="fill: none; stroke: #00bfbf; stroke-width: 1.5; stroke-linecap: square"/>
   </g>
   <g id="line2d_23">
    <path d="M 268.460661 293.76 
L 268.460661 288.969505 
L 268.460697 288.969505 
L 268.460697 284.17901 
L 268.460744 284.17901 
L 268.460744 279.388515 
L 268.460745 279.388515 
L 268.460745 274.59802 
L 268.46075 274.59802 
L 268.46075 269.807525 
L 268.460784 269.807525 
L 268.460784 265.01703 
L 268.460791 265.01703 
L 268.460791 260.226535 
L 268.460815 260.226535 
L 268.460815 255.43604 
L 268.460889 255.43604 
L 268.460889 250.645545 
L 268.460902 250.645545 
L 268.460902 245.85505 
L 268.460928 245.85505 
L 268.460928 241.064554 
L 268.460937 241.064554 
L 268.460937 236.274059 
L 268.460937 236.274059 
L 268.460937 231.483564 
L 268.461061 231.483564 
L 268.461061 226.693069 
L 268.461137 226.693069 
L 268.461137 221.902574 
L 289.065177 221.902574 
L 289.065177 217.112079 
L 289.998731 217.112079 
L 289.998731 212.321584 
L 290.287028 212.321584 
L 290.287028 207.531089 
L 290.492334 207.531089 
L 290.492334 202.740594 
L 291.730445 202.740594 
L 291.730445 197.950099 
L 293.52891 197.950099 
L 293.52891 193.159604 
L 294.727584 193.159604 
L 294.727584 188.369109 
L 296.129425 188.369109 
L 296.129425 183.578614 
L 296.809178 183.578614 
L 296.809178 178.788119 
L 296.963167 178.788119 
L 296.963167 173.997624 
L 299.079016 173.997624 
L 299.079016 169.207129 
L 299.147294 169.207129 
L 299.147294 164.416634 
L 302.332011 164.416634 
L 302.332011 159.626139 
L 302.986575 159.626139 
L 302.986575 154.835644 
L 303.914087 154.835644 
L 303.914087 150.045149 
L 327.023999 150.045149 
L 327.023999 145.254653 
L 330.316899 145.254653 
L 330.316899 140.464158 
L 335.035604 140.464158 
L 335.035604 135.673663 
L 338.444446 135.673663 
L 338.444446 130.883168 
L 339.511479 130.883168 
L 339.511479 126.092673 
L 339.76304 126.092673 
L 339.76304 121.302178 
L 340.055637 121.302178 
L 340.055637 116.511683 
L 340.44737 116.511683 
L 340.44737 111.721188 
L 341.589834 111.721188 
L 341.589834 106.930693 
L 341.767762 106.930693 
L 341.767762 102.140198 
L 342.401814 102.140198 
L 342.401814 97.349703 
L 343.040702 97.349703 
L 343.040702 92.559208 
L 343.060042 92.559208 
L 343.060042 87.768713 
L 343.759303 87.768713 
L 343.759303 82.978218 
L 344.198711 82.978218 
L 344.198711 78.187723 
L 348.987923 78.187723 
L 348.987923 73.397228 
L 353.476248 73.397228 
L 353.476248 68.606733 
L 356.923049 68.606733 
L 356.923049 63.816238 
L 357.774856 63.816238 
L 357.774856 59.025743 
L 359.393587 59.025743 
L 359.393587 54.235248 
L 359.533103 54.235248 
L 359.533103 49.444752 
L 359.616311 49.444752 
L 359.616311 44.654257 
L 360.405104 44.654257 
L 360.405104 39.863762 
L 361.223447 39.863762 
L 361.223447 35.073267 
L 361.47552 35.073267 
L 361.47552 30.282772 
L 365.119629 30.282772 
L 365.119629 25.492277 
L 366.273649 25.492277 
L 366.273649 20.701782 
L 367.081248 20.701782 
L 367.081248 15.911287 
L 369.520599 15.911287 
L 369.520599 11.120792 
L 372.486694 11.120792 
L 372.486694 6.330297 
L 372.486694 6.330297 
L 372.486694 6.330297 
L 460.8 6.330297 
" clip-path="url(#p6e25ddd695)" style="fill: none; stroke: #bf00bf; stroke-width: 1.5; stroke-linecap: square"/>
   </g>
   <g id="line2d_24">
    <path d="M 268.457173 293.76 
L 268.457173 288.969505 
L 268.457207 288.969505 
L 268.457207 284.17901 
L 268.457245 284.17901 
L 268.457245 279.388515 
L 268.457415 279.388515 
L 268.457415 274.59802 
L 268.457466 274.59802 
L 268.457466 269.807525 
L 268.457585 269.807525 
L 268.457585 265.01703 
L 268.457642 265.01703 
L 268.457642 260.226535 
L 268.457691 260.226535 
L 268.457691 255.43604 
L 268.457723 255.43604 
L 268.457723 250.645545 
L 268.457761 250.645545 
L 268.457761 245.85505 
L 268.457844 245.85505 
L 268.457844 241.064554 
L 268.457873 241.064554 
L 268.457873 236.274059 
L 268.45788 236.274059 
L 268.45788 231.483564 
L 268.457945 231.483564 
L 268.457945 226.693069 
L 268.458596 226.693069 
L 268.458596 221.902574 
L 289.065177 221.902574 
L 289.065177 217.112079 
L 289.998731 217.112079 
L 289.998731 212.321584 
L 290.287028 212.321584 
L 290.287028 207.531089 
L 290.492334 207.531089 
L 290.492334 202.740594 
L 291.730445 202.740594 
L 291.730445 197.950099 
L 293.52891 197.950099 
L 293.52891 193.159604 
L 294.727584 193.159604 
L 294.727584 188.369109 
L 296.129425 188.369109 
L 296.129425 183.578614 
L 296.809178 183.578614 
L 296.809178 178.788119 
L 296.963167 178.788119 
L 296.963167 173.997624 
L 299.079016 173.997624 
L 299.079016 169.207129 
L 299.147294 169.207129 
L 299.147294 164.416634 
L 302.332011 164.416634 
L 302.332011 159.626139 
L 302.986575 159.626139 
L 302.986575 154.835644 
L 303.914087 154.835644 
L 303.914087 150.045149 
L 327.019766 150.045149 
L 327.019766 145.254653 
L 330.313544 145.254653 
L 330.313544 140.464158 
L 335.03276 140.464158 
L 335.03276 135.673663 
L 338.442009 135.673663 
L 338.442009 130.883168 
L 339.508952 130.883168 
L 339.508952 126.092673 
L 339.760313 126.092673 
L 339.760313 121.302178 
L 340.053014 121.302178 
L 340.053014 116.511683 
L 340.444231 116.511683 
L 340.444231 111.721188 
L 341.587504 111.721188 
L 341.587504 106.930693 
L 341.76471 106.930693 
L 341.76471 102.140198 
L 342.398994 102.140198 
L 342.398994 97.349703 
L 343.038541 97.349703 
L 343.038541 92.559208 
L 343.057993 92.559208 
L 343.057993 87.768713 
L 343.757283 87.768713 
L 343.757283 82.978218 
L 344.196313 82.978218 
L 344.196313 78.187723 
L 348.984665 78.187723 
L 348.984665 73.397228 
L 353.474126 73.397228 
L 353.474126 68.606733 
L 356.920988 68.606733 
L 356.920988 63.816238 
L 357.772753 63.816238 
L 357.772753 59.025743 
L 359.392718 59.025743 
L 359.392718 54.235248 
L 359.532258 54.235248 
L 359.532258 49.444752 
L 359.615118 49.444752 
L 359.615118 44.654257 
L 360.403035 44.654257 
L 360.403035 39.863762 
L 361.221721 39.863762 
L 361.221721 35.073267 
L 361.472757 35.073267 
L 361.472757 30.282772 
L 365.118412 30.282772 
L 365.118412 25.492277 
L 366.273325 25.492277 
L 366.273325 20.701782 
L 367.079622 20.701782 
L 367.079622 15.911287 
L 369.51813 15.911287 
L 369.51813 11.120792 
L 372.485337 11.120792 
L 372.485337 6.330297 
L 372.485337 6.330297 
L 372.485337 6.330297 
L 460.8 6.330297 
" clip-path="url(#p6e25ddd695)" style="fill: none; stroke: #000000; stroke-width: 1.5; stroke-linecap: square"/>
   </g>
   <g id="line2d_25">
    <path d="M 268.376542 293.76 
L 268.376542 288.969505 
L 268.377333 288.969505 
L 268.377333 284.17901 
L 268.381284 284.17901 
L 268.381284 279.388515 
L 268.382689 279.388515 
L 268.382689 274.59802 
L 268.385151 274.59802 
L 268.385151 269.807525 
L 268.386845 269.807525 
L 268.386845 265.01703 
L 268.390437 265.01703 
L 268.390437 260.226535 
L 268.390548 260.226535 
L 268.390548 255.43604 
L 268.390832 255.43604 
L 268.390832 250.645545 
L 268.391848 250.645545 
L 268.391848 245.85505 
L 268.391908 245.85505 
L 268.391908 241.064554 
L 268.392299 241.064554 
L 268.392299 236.274059 
L 268.39387 236.274059 
L 268.39387 231.483564 
L 268.394193 231.483564 
L 268.394193 226.693069 
L 268.394982 226.693069 
L 268.394982 221.902574 
L 289.065177 221.902574 
L 289.065177 217.112079 
L 289.998731 217.112079 
L 289.998731 212.321584 
L 290.287028 212.321584 
L 290.287028 207.531089 
L 290.492334 207.531089 
L 290.492334 202.740594 
L 291.730445 202.740594 
L 291.730445 197.950099 
L 293.52891 197.950099 
L 293.52891 193.159604 
L 294.727584 193.159604 
L 294.727584 188.369109 
L 296.129425 188.369109 
L 296.129425 183.578614 
L 296.809178 183.578614 
L 296.809178 178.788119 
L 296.963167 178.788119 
L 296.963167 173.997624 
L 299.079016 173.997624 
L 299.079016 169.207129 
L 299.147294 169.207129 
L 299.147294 164.416634 
L 302.332011 164.416634 
L 302.332011 159.626139 
L 302.986575 159.626139 
L 302.986575 154.835644 
L 303.914087 154.835644 
L 303.914087 150.045149 
L 326.921551 150.045149 
L 326.921551 145.254653 
L 330.193479 145.254653 
L 330.193479 140.464158 
L 334.955071 140.464158 
L 334.955071 135.673663 
L 338.372406 135.673663 
L 338.372406 130.883168 
L 339.433876 130.883168 
L 339.433876 126.092673 
L 339.684426 126.092673 
L 339.684426 121.302178 
L 339.983008 121.302178 
L 339.983008 116.511683 
L 340.375097 116.511683 
L 340.375097 111.721188 
L 341.531644 111.721188 
L 341.531644 106.930693 
L 341.696098 106.930693 
L 341.696098 102.140198 
L 342.336154 102.140198 
L 342.336154 97.349703 
L 342.973529 97.349703 
L 342.973529 92.559208 
L 342.999147 92.559208 
L 342.999147 87.768713 
L 343.700035 87.768713 
L 343.700035 82.978218 
L 344.141432 82.978218 
L 344.141432 78.187723 
L 348.914418 78.187723 
L 348.914418 73.397228 
L 353.430384 73.397228 
L 353.430384 68.606733 
L 356.861403 68.606733 
L 356.861403 63.816238 
L 357.726022 63.816238 
L 357.726022 59.025743 
L 359.367535 59.025743 
L 359.367535 54.235248 
L 359.510643 54.235248 
L 359.510643 49.444752 
L 359.59089 49.444752 
L 359.59089 44.654257 
L 360.361098 44.654257 
L 360.361098 39.863762 
L 361.169579 39.863762 
L 361.169579 35.073267 
L 361.416197 35.073267 
L 361.416197 30.282772 
L 365.082082 30.282772 
L 365.082082 25.492277 
L 366.264978 25.492277 
L 366.264978 20.701782 
L 367.045958 20.701782 
L 367.045958 15.911287 
L 369.466706 15.911287 
L 369.466706 11.120792 
L 372.456865 11.120792 
L 372.456865 6.330297 
L 372.456865 6.330297 
L 372.456865 6.330297 
L 460.8 6.330297 
" clip-path="url(#p6e25ddd695)" style="fill: none; stroke: #00bfbf; stroke-width: 1.5; stroke-linecap: square"/>
   </g>
   <g id="line2d_26">
    <path d="M 263.096777 293.76 
L 263.096777 288.969505 
L 263.135478 288.969505 
L 263.135478 284.17901 
L 263.889874 284.17901 
L 263.889874 279.388515 
L 265.012548 279.388515 
L 265.012548 274.59802 
L 265.291127 274.59802 
L 265.291127 269.807525 
L 265.601392 269.807525 
L 265.601392 265.01703 
L 265.842278 265.01703 
L 265.842278 260.226535 
L 265.909517 260.226535 
L 265.909517 255.43604 
L 265.93891 255.43604 
L 265.93891 250.645545 
L 266.367583 250.645545 
L 266.367583 245.85505 
L 266.371281 245.85505 
L 266.371281 241.064554 
L 266.508557 241.064554 
L 266.508557 236.274059 
L 266.535608 236.274059 
L 266.535608 231.483564 
L 266.789525 231.483564 
L 266.789525 226.693069 
L 267.168883 226.693069 
L 267.168883 221.902574 
L 284.509791 221.902574 
L 284.509791 217.112079 
L 289.065177 217.112079 
L 289.065177 212.321584 
L 289.998731 212.321584 
L 289.998731 207.531089 
L 290.287028 207.531089 
L 290.287028 202.740594 
L 290.492334 202.740594 
L 290.492334 197.950099 
L 291.730445 197.950099 
L 291.730445 193.159604 
L 293.52891 193.159604 
L 293.52891 188.369109 
L 294.727584 188.369109 
L 294.727584 183.578614 
L 296.129425 183.578614 
L 296.129425 178.788119 
L 296.809178 178.788119 
L 296.809178 173.997624 
L 296.963167 173.997624 
L 296.963167 169.207129 
L 299.079016 169.207129 
L 299.079016 164.416634 
L 299.147294 164.416634 
L 299.147294 159.626139 
L 302.332011 159.626139 
L 302.332011 154.835644 
L 302.986575 154.835644 
L 302.986575 150.045149 
L 303.914087 150.045149 
L 303.914087 145.254653 
L 313.355518 145.254653 
L 313.355518 140.464158 
L 314.47522 140.464158 
L 314.47522 135.673663 
L 318.149988 135.673663 
L 318.149988 130.883168 
L 321.761251 130.883168 
L 321.761251 126.092673 
L 323.354447 126.092673 
L 323.354447 121.302178 
L 327.014546 121.302178 
L 327.014546 116.511683 
L 327.447614 116.511683 
L 327.447614 111.721188 
L 327.472007 111.721188 
L 327.472007 106.930693 
L 327.59983 106.930693 
L 327.59983 102.140198 
L 328.017995 102.140198 
L 328.017995 97.349703 
L 328.204507 97.349703 
L 328.204507 92.559208 
L 328.430815 92.559208 
L 328.430815 87.768713 
L 330.046324 87.768713 
L 330.046324 82.978218 
L 332.741728 82.978218 
L 332.741728 78.187723 
L 333.48564 78.187723 
L 333.48564 73.397228 
L 334.413985 73.397228 
L 334.413985 68.606733 
L 341.231681 68.606733 
L 341.231681 63.816238 
L 341.466383 63.816238 
L 341.466383 59.025743 
L 344.117864 59.025743 
L 344.117864 54.235248 
L 346.414741 54.235248 
L 346.414741 49.444752 
L 346.995692 49.444752 
L 346.995692 44.654257 
L 347.70552 44.654257 
L 347.70552 39.863762 
L 347.748758 39.863762 
L 347.748758 35.073267 
L 348.524013 35.073267 
L 348.524013 30.282772 
L 349.2262 30.282772 
L 349.2262 25.492277 
L 351.529756 25.492277 
L 351.529756 20.701782 
L 351.659521 20.701782 
L 351.659521 15.911287 
L 355.451829 15.911287 
L 355.451829 11.120792 
L 358.581319 11.120792 
L 358.581319 6.330297 
L 358.581319 6.330297 
L 358.581319 6.330297 
L 460.8 6.330297 
" clip-path="url(#p6e25ddd695)" style="fill: none; stroke: #bf00bf; stroke-width: 1.5; stroke-linecap: square"/>
   </g>
   <g id="patch_3">
    <path d="M 0 293.76 
L 0 3.456 
" style="fill: none; stroke: #000000; stroke-width: 0.8; stroke-linejoin: miter; stroke-linecap: square"/>
   </g>
   <g id="patch_4">
    <path d="M 460.8 293.76 
L 460.8 3.456 
" style="fill: none; stroke: #000000; stroke-width: 0.8; stroke-linejoin: miter; stroke-linecap: square"/>
   </g>
   <g id="patch_5">
    <path d="M 0 293.76 
L 460.8 293.76 
" style="fill: none; stroke: #000000; stroke-width: 0.8; stroke-linejoin: miter; stroke-linecap: square"/>
   </g>
   <g id="patch_6">
    <path d="M 0 3.456 
L 460.8 3.456 
" style="fill: none; stroke: #000000; stroke-width: 0.8; stroke-linejoin: miter; stroke-linecap: square"/>
   </g>
   <g id="text_6">
    <!-- {f6-f9}, 20-D -->
    <g transform="translate(318.609 287.95392) scale(0.2 -0.2)">
     <defs>
      <path id="DejaVuSans-7b" d="M 3272 -594 
L 3272 -1044 
L 3078 -1044 
Q 2300 -1044 2036 -812 
Q 1772 -581 1772 109 
L 1772 856 
Q 1772 1328 1603 1509 
Q 1434 1691 991 1691 
L 800 1691 
L 800 2138 
L 991 2138 
Q 1438 2138 1605 2317 
Q 1772 2497 1772 2963 
L 1772 3713 
Q 1772 4403 2036 4633 
Q 2300 4863 3078 4863 
L 3272 4863 
L 3272 4416 
L 3059 4416 
Q 2619 4416 2484 4278 
Q 2350 4141 2350 3700 
L 2350 2925 
Q 2350 2434 2208 2212 
Q 2066 1991 1722 1913 
Q 2069 1828 2209 1606 
Q 2350 1384 2350 897 
L 2350 122 
Q 2350 -319 2484 -456 
Q 2619 -594 3059 -594 
L 3272 -594 
z
" transform="scale(0.015625)"/>
      <path id="DejaVuSans-36" d="M 2113 2584 
Q 1688 2584 1439 2293 
Q 1191 2003 1191 1497 
Q 1191 994 1439 701 
Q 1688 409 2113 409 
Q 2538 409 2786 701 
Q 3034 994 3034 1497 
Q 3034 2003 2786 2293 
Q 2538 2584 2113 2584 
z
M 3366 4563 
L 3366 3988 
Q 3128 4100 2886 4159 
Q 2644 4219 2406 4219 
Q 1781 4219 1451 3797 
Q 1122 3375 1075 2522 
Q 1259 2794 1537 2939 
Q 1816 3084 2150 3084 
Q 2853 3084 3261 2657 
Q 3669 2231 3669 1497 
Q 3669 778 3244 343 
Q 2819 -91 2113 -91 
Q 1303 -91 875 529 
Q 447 1150 447 2328 
Q 447 3434 972 4092 
Q 1497 4750 2381 4750 
Q 2619 4750 2861 4703 
Q 3103 4656 3366 4563 
z
" transform="scale(0.015625)"/>
      <path id="DejaVuSans-39" d="M 703 97 
L 703 672 
Q 941 559 1184 500 
Q 1428 441 1663 441 
Q 2288 441 2617 861 
Q 2947 1281 2994 2138 
Q 2813 1869 2534 1725 
Q 2256 1581 1919 1581 
Q 1219 1581 811 2004 
Q 403 2428 403 3163 
Q 403 3881 828 4315 
Q 1253 4750 1959 4750 
Q 2769 4750 3195 4129 
Q 3622 3509 3622 2328 
Q 3622 1225 3098 567 
Q 2575 -91 1691 -91 
Q 1453 -91 1209 -44 
Q 966 3 703 97 
z
M 1959 2075 
Q 2384 2075 2632 2365 
Q 2881 2656 2881 3163 
Q 2881 3666 2632 3958 
Q 2384 4250 1959 4250 
Q 1534 4250 1286 3958 
Q 1038 3666 1038 3163 
Q 1038 2656 1286 2365 
Q 1534 2075 1959 2075 
z
" transform="scale(0.015625)"/>
      <path id="DejaVuSans-7d" d="M 800 -594 
L 1019 -594 
Q 1456 -594 1589 -459 
Q 1722 -325 1722 122 
L 1722 897 
Q 1722 1384 1862 1606 
Q 2003 1828 2350 1913 
Q 2003 1991 1862 2212 
Q 1722 2434 1722 2925 
L 1722 3700 
Q 1722 4144 1589 4280 
Q 1456 4416 1019 4416 
L 800 4416 
L 800 4863 
L 997 4863 
Q 1775 4863 2036 4633 
Q 2297 4403 2297 3713 
L 2297 2963 
Q 2297 2497 2465 2317 
Q 2634 2138 3078 2138 
L 3272 2138 
L 3272 1691 
L 3078 1691 
Q 2634 1691 2465 1509 
Q 2297 1328 2297 856 
L 2297 109 
Q 2297 -581 2036 -812 
Q 1775 -1044 997 -1044 
L 800 -1044 
L 800 -594 
z
" transform="scale(0.015625)"/>
      <path id="DejaVuSans-2c" d="M 750 794 
L 1409 794 
L 1409 256 
L 897 -744 
L 494 -744 
L 750 256 
L 750 794 
z
" transform="scale(0.015625)"/>
      <path id="DejaVuSans-32" d="M 1228 531 
L 3431 531 
L 3431 0 
L 469 0 
L 469 531 
Q 828 903 1448 1529 
Q 2069 2156 2228 2338 
Q 2531 2678 2651 2914 
Q 2772 3150 2772 3378 
Q 2772 3750 2511 3984 
Q 2250 4219 1831 4219 
Q 1534 4219 1204 4116 
Q 875 4013 500 3803 
L 500 4441 
Q 881 4594 1212 4672 
Q 1544 4750 1819 4750 
Q 2544 4750 2975 4387 
Q 3406 4025 3406 3419 
Q 3406 3131 3298 2873 
Q 3191 2616 2906 2266 
Q 2828 2175 2409 1742 
Q 1991 1309 1228 531 
z
" transform="scale(0.015625)"/>
     </defs>
     <use xlink:href="#DejaVuSans-7b"/>
     <use xlink:href="#DejaVuSans-66" x="63.623047"/>
     <use xlink:href="#DejaVuSans-36" x="98.828125"/>
     <use xlink:href="#DejaVuSans-2d" x="162.451172"/>
     <use xlink:href="#DejaVuSans-66" x="198.535156"/>
     <use xlink:href="#DejaVuSans-39" x="233.740234"/>
     <use xlink:href="#DejaVuSans-7d" x="297.363281"/>
     <use xlink:href="#DejaVuSans-2c" x="360.986328"/>
     <use xlink:href="#DejaVuSans-20" x="392.773438"/>
     <use xlink:href="#DejaVuSans-32" x="424.560547"/>
     <use xlink:href="#DejaVuSans-30" x="488.183594"/>
     <use xlink:href="#DejaVuSans-2d" x="551.806641"/>
     <use xlink:href="#DejaVuSans-44" x="587.890625"/>
    </g>
   </g>
   <g id="text_7">
    <!-- v2.6.3 -->
    <g style="fill: #808080" transform="translate(214.71875 288.777272) scale(0.1 -0.1)">
     <defs>
      <path id="DejaVuSans-76" d="M 191 3500 
L 800 3500 
L 1894 563 
L 2988 3500 
L 3597 3500 
L 2284 0 
L 1503 0 
L 191 3500 
z
" transform="scale(0.015625)"/>
      <path id="DejaVuSans-2e" d="M 684 794 
L 1344 794 
L 1344 0 
L 684 0 
L 684 794 
z
" transform="scale(0.015625)"/>
      <path id="DejaVuSans-33" d="M 2597 2516 
Q 3050 2419 3304 2112 
Q 3559 1806 3559 1356 
Q 3559 666 3084 287 
Q 2609 -91 1734 -91 
Q 1441 -91 1130 -33 
Q 819 25 488 141 
L 488 750 
Q 750 597 1062 519 
Q 1375 441 1716 441 
Q 2309 441 2620 675 
Q 2931 909 2931 1356 
Q 2931 1769 2642 2001 
Q 2353 2234 1838 2234 
L 1294 2234 
L 1294 2753 
L 1863 2753 
Q 2328 2753 2575 2939 
Q 2822 3125 2822 3475 
Q 2822 3834 2567 4026 
Q 2313 4219 1838 4219 
Q 1578 4219 1281 4162 
Q 984 4106 628 3988 
L 628 4550 
Q 988 4650 1302 4700 
Q 1616 4750 1894 4750 
Q 2613 4750 3031 4423 
Q 3450 4097 3450 3541 
Q 3450 3153 3228 2886 
Q 3006 2619 2597 2516 
z
" transform="scale(0.015625)"/>
     </defs>
     <use xlink:href="#DejaVuSans-76"/>
     <use xlink:href="#DejaVuSans-32" x="59.179688"/>
     <use xlink:href="#DejaVuSans-2e" x="122.802734"/>
     <use xlink:href="#DejaVuSans-36" x="154.589844"/>
     <use xlink:href="#DejaVuSans-2e" x="218.212891"/>
     <use xlink:href="#DejaVuSans-33" x="250"/>
    </g>
   </g>
  </g>
 </g>
 <defs>
  <clipPath id="p6e25ddd695">
   <rect x="0" y="3.456" width="460.8" height="290.304"/>
  </clipPath>
 </defs>
</svg>
