<?xml version="1.0" encoding="utf-8" standalone="no"?>
<!DOCTYPE svg PUBLIC "-//W3C//DTD SVG 1.1//EN"
  "http://www.w3.org/Graphics/SVG/1.1/DTD/svg11.dtd">
<svg xmlns:xlink="http://www.w3.org/1999/xlink" width="460.8pt" height="345.6pt" viewBox="0 0 460.8 345.6" xmlns="http://www.w3.org/2000/svg" version="1.1">
 <metadata>
  <rdf:RDF xmlns:dc="http://purl.org/dc/elements/1.1/" xmlns:cc="http://creativecommons.org/ns#" xmlns:rdf="http://www.w3.org/1999/02/22-rdf-syntax-ns#">
   <cc:Work>
    <dc:type rdf:resource="http://purl.org/dc/dcmitype/StillImage"/>
    <dc:date>2024-01-17T14:59:40.503882</dc:date>
    <dc:format>image/svg+xml</dc:format>
    <dc:creator>
     <cc:Agent>
      <dc:title>Matplotlib v3.8.2, https://matplotlib.org/</dc:title>
     </cc:Agent>
    </dc:creator>
   </cc:Work>
  </rdf:RDF>
 </metadata>
 <defs>
  <style type="text/css">*{stroke-linejoin: round; stroke-linecap: butt}</style>
 </defs>
 <g id="figure_1">
  <g id="patch_1">
   <path d="M 0 345.6 
L 460.8 345.6 
L 460.8 0 
L 0 0 
z
" style="fill: #ffffff"/>
  </g>
  <g id="axes_1">
   <g id="patch_2">
    <path d="M 0 293.76 
L 460.8 293.76 
L 460.8 3.456 
L 0 3.456 
z
" style="fill: #ffffff"/>
   </g>
   <g id="matplotlib.axis_1">
    <g id="xtick_1">
     <g id="line2d_1">
      <path d="M 104.132958 293.76 
L 104.132958 3.456 
" clip-path="url(#pc38ccb6056)" style="fill: none; stroke: #b0b0b0; stroke-width: 0.8; stroke-linecap: square"/>
     </g>
     <g id="line2d_2">
      <defs>
       <path id="mee968da635" d="M 0 0 
L 0 3.5 
" style="stroke: #000000; stroke-width: 0.8"/>
      </defs>
      <g>
       <use xlink:href="#mee968da635" x="104.132958" y="293.76" style="stroke: #000000; stroke-width: 0.8"/>
      </g>
     </g>
     <g id="text_1">
      <!-- -4 -->
      <g transform="translate(94.162645 315.956875) scale(0.2 -0.2)">
       <defs>
        <path id="DejaVuSans-2d" d="M 313 2009 
L 1997 2009 
L 1997 1497 
L 313 1497 
L 313 2009 
z
" transform="scale(0.015625)"/>
        <path id="DejaVuSans-34" d="M 2419 4116 
L 825 1625 
L 2419 1625 
L 2419 4116 
z
M 2253 4666 
L 3047 4666 
L 3047 1625 
L 3713 1625 
L 3713 1100 
L 3047 1100 
L 3047 0 
L 2419 0 
L 2419 1100 
L 313 1100 
L 313 1709 
L 2253 4666 
z
" transform="scale(0.015625)"/>
       </defs>
       <use xlink:href="#DejaVuSans-2d"/>
       <use xlink:href="#DejaVuSans-34" x="36.083984"/>
      </g>
     </g>
    </g>
    <g id="xtick_2">
     <g id="line2d_3">
      <path d="M 208.378536 293.76 
L 208.378536 3.456 
" clip-path="url(#pc38ccb6056)" style="fill: none; stroke: #b0b0b0; stroke-width: 0.8; stroke-linecap: square"/>
     </g>
     <g id="line2d_4">
      <g>
       <use xlink:href="#mee968da635" x="208.378536" y="293.76" style="stroke: #000000; stroke-width: 0.8"/>
      </g>
     </g>
     <g id="text_2">
      <!-- 0 -->
      <g transform="translate(202.016036 315.956875) scale(0.2 -0.2)">
       <defs>
        <path id="DejaVuSans-30" d="M 2034 4250 
Q 1547 4250 1301 3770 
Q 1056 3291 1056 2328 
Q 1056 1369 1301 889 
Q 1547 409 2034 409 
Q 2525 409 2770 889 
Q 3016 1369 3016 2328 
Q 3016 3291 2770 3770 
Q 2525 4250 2034 4250 
z
M 2034 4750 
Q 2819 4750 3233 4129 
Q 3647 3509 3647 2328 
Q 3647 1150 3233 529 
Q 2819 -91 2034 -91 
Q 1250 -91 836 529 
Q 422 1150 422 2328 
Q 422 3509 836 4129 
Q 1250 4750 2034 4750 
z
" transform="scale(0.015625)"/>
       </defs>
       <use xlink:href="#DejaVuSans-30"/>
      </g>
     </g>
    </g>
    <g id="xtick_3">
     <g id="line2d_5">
      <path d="M 312.624115 293.76 
L 312.624115 3.456 
" clip-path="url(#pc38ccb6056)" style="fill: none; stroke: #b0b0b0; stroke-width: 0.8; stroke-linecap: square"/>
     </g>
     <g id="line2d_6">
      <g>
       <use xlink:href="#mee968da635" x="312.624115" y="293.76" style="stroke: #000000; stroke-width: 0.8"/>
      </g>
     </g>
     <g id="text_3">
      <!-- 4 -->
      <g transform="translate(306.261615 315.956875) scale(0.2 -0.2)">
       <use xlink:href="#DejaVuSans-34"/>
      </g>
     </g>
    </g>
    <g id="xtick_4">
     <g id="line2d_7">
      <path d="M 416.869693 293.76 
L 416.869693 3.456 
" clip-path="url(#pc38ccb6056)" style="fill: none; stroke: #b0b0b0; stroke-width: 0.8; stroke-linecap: square"/>
     </g>
     <g id="line2d_8">
      <g>
       <use xlink:href="#mee968da635" x="416.869693" y="293.76" style="stroke: #000000; stroke-width: 0.8"/>
      </g>
     </g>
     <g id="text_4">
      <!-- 8 -->
      <g transform="translate(410.507193 315.956875) scale(0.2 -0.2)">
       <defs>
        <path id="DejaVuSans-38" d="M 2034 2216 
Q 1584 2216 1326 1975 
Q 1069 1734 1069 1313 
Q 1069 891 1326 650 
Q 1584 409 2034 409 
Q 2484 409 2743 651 
Q 3003 894 3003 1313 
Q 3003 1734 2745 1975 
Q 2488 2216 2034 2216 
z
M 1403 2484 
Q 997 2584 770 2862 
Q 544 3141 544 3541 
Q 544 4100 942 4425 
Q 1341 4750 2034 4750 
Q 2731 4750 3128 4425 
Q 3525 4100 3525 3541 
Q 3525 3141 3298 2862 
Q 3072 2584 2669 2484 
Q 3125 2378 3379 2068 
Q 3634 1759 3634 1313 
Q 3634 634 3220 271 
Q 2806 -91 2034 -91 
Q 1263 -91 848 271 
Q 434 634 434 1313 
Q 434 1759 690 2068 
Q 947 2378 1403 2484 
z
M 1172 3481 
Q 1172 3119 1398 2916 
Q 1625 2713 2034 2713 
Q 2441 2713 2670 2916 
Q 2900 3119 2900 3481 
Q 2900 3844 2670 4047 
Q 2441 4250 2034 4250 
Q 1625 4250 1398 4047 
Q 1172 3844 1172 3481 
z
" transform="scale(0.015625)"/>
       </defs>
       <use xlink:href="#DejaVuSans-38"/>
      </g>
     </g>
    </g>
    <g id="text_5">
     <!-- log10 of Df -->
     <g transform="translate(175.214063 339.313125) scale(0.2 -0.2)">
      <defs>
       <path id="DejaVuSans-6c" d="M 603 4863 
L 1178 4863 
L 1178 0 
L 603 0 
L 603 4863 
z
" transform="scale(0.015625)"/>
       <path id="DejaVuSans-6f" d="M 1959 3097 
Q 1497 3097 1228 2736 
Q 959 2375 959 1747 
Q 959 1119 1226 758 
Q 1494 397 1959 397 
Q 2419 397 2687 759 
Q 2956 1122 2956 1747 
Q 2956 2369 2687 2733 
Q 2419 3097 1959 3097 
z
M 1959 3584 
Q 2709 3584 3137 3096 
Q 3566 2609 3566 1747 
Q 3566 888 3137 398 
Q 2709 -91 1959 -91 
Q 1206 -91 779 398 
Q 353 888 353 1747 
Q 353 2609 779 3096 
Q 1206 3584 1959 3584 
z
" transform="scale(0.015625)"/>
       <path id="DejaVuSans-67" d="M 2906 1791 
Q 2906 2416 2648 2759 
Q 2391 3103 1925 3103 
Q 1463 3103 1205 2759 
Q 947 2416 947 1791 
Q 947 1169 1205 825 
Q 1463 481 1925 481 
Q 2391 481 2648 825 
Q 2906 1169 2906 1791 
z
M 3481 434 
Q 3481 -459 3084 -895 
Q 2688 -1331 1869 -1331 
Q 1566 -1331 1297 -1286 
Q 1028 -1241 775 -1147 
L 775 -588 
Q 1028 -725 1275 -790 
Q 1522 -856 1778 -856 
Q 2344 -856 2625 -561 
Q 2906 -266 2906 331 
L 2906 616 
Q 2728 306 2450 153 
Q 2172 0 1784 0 
Q 1141 0 747 490 
Q 353 981 353 1791 
Q 353 2603 747 3093 
Q 1141 3584 1784 3584 
Q 2172 3584 2450 3431 
Q 2728 3278 2906 2969 
L 2906 3500 
L 3481 3500 
L 3481 434 
z
" transform="scale(0.015625)"/>
       <path id="DejaVuSans-31" d="M 794 531 
L 1825 531 
L 1825 4091 
L 703 3866 
L 703 4441 
L 1819 4666 
L 2450 4666 
L 2450 531 
L 3481 531 
L 3481 0 
L 794 0 
L 794 531 
z
" transform="scale(0.015625)"/>
       <path id="DejaVuSans-20" transform="scale(0.015625)"/>
       <path id="DejaVuSans-66" d="M 2375 4863 
L 2375 4384 
L 1825 4384 
Q 1516 4384 1395 4259 
Q 1275 4134 1275 3809 
L 1275 3500 
L 2222 3500 
L 2222 3053 
L 1275 3053 
L 1275 0 
L 697 0 
L 697 3053 
L 147 3053 
L 147 3500 
L 697 3500 
L 697 3744 
Q 697 4328 969 4595 
Q 1241 4863 1831 4863 
L 2375 4863 
z
" transform="scale(0.015625)"/>
       <path id="DejaVuSans-44" d="M 1259 4147 
L 1259 519 
L 2022 519 
Q 2988 519 3436 956 
Q 3884 1394 3884 2338 
Q 3884 3275 3436 3711 
Q 2988 4147 2022 4147 
L 1259 4147 
z
M 628 4666 
L 1925 4666 
Q 3281 4666 3915 4102 
Q 4550 3538 4550 2338 
Q 4550 1131 3912 565 
Q 3275 0 1925 0 
L 628 0 
L 628 4666 
z
" transform="scale(0.015625)"/>
      </defs>
      <use xlink:href="#DejaVuSans-6c"/>
      <use xlink:href="#DejaVuSans-6f" x="27.783203"/>
      <use xlink:href="#DejaVuSans-67" x="88.964844"/>
      <use xlink:href="#DejaVuSans-31" x="152.441406"/>
      <use xlink:href="#DejaVuSans-30" x="216.064453"/>
      <use xlink:href="#DejaVuSans-20" x="279.6875"/>
      <use xlink:href="#DejaVuSans-6f" x="311.474609"/>
      <use xlink:href="#DejaVuSans-66" x="372.65625"/>
      <use xlink:href="#DejaVuSans-20" x="407.861328"/>
      <use xlink:href="#DejaVuSans-44" x="439.648438"/>
      <use xlink:href="#DejaVuSans-66" x="516.650391"/>
     </g>
    </g>
   </g>
   <g id="matplotlib.axis_2">
    <g id="ytick_1">
     <g id="line2d_9">
      <path d="M 0 293.76 
L 460.8 293.76 
" clip-path="url(#pc38ccb6056)" style="fill: none; stroke: #b0b0b0; stroke-width: 0.8; stroke-linecap: square"/>
     </g>
     <g id="line2d_10">
      <defs>
       <path id="m5807d484d7" d="M 0 0 
L -3.5 0 
" style="stroke: #000000; stroke-width: 0.8"/>
      </defs>
      <g>
       <use xlink:href="#m5807d484d7" x="0" y="293.76" style="stroke: #000000; stroke-width: 0.8"/>
      </g>
     </g>
    </g>
    <g id="ytick_2">
     <g id="line2d_11">
      <path d="M 0 236.274059 
L 460.8 236.274059 
" clip-path="url(#pc38ccb6056)" style="fill: none; stroke: #b0b0b0; stroke-width: 0.8; stroke-linecap: square"/>
     </g>
     <g id="line2d_12">
      <g>
       <use xlink:href="#m5807d484d7" x="0" y="236.274059" style="stroke: #000000; stroke-width: 0.8"/>
      </g>
     </g>
    </g>
    <g id="ytick_3">
     <g id="line2d_13">
      <path d="M 0 178.788119 
L 460.8 178.788119 
" clip-path="url(#pc38ccb6056)" style="fill: none; stroke: #b0b0b0; stroke-width: 0.8; stroke-linecap: square"/>
     </g>
     <g id="line2d_14">
      <g>
       <use xlink:href="#m5807d484d7" x="0" y="178.788119" style="stroke: #000000; stroke-width: 0.8"/>
      </g>
     </g>
    </g>
    <g id="ytick_4">
     <g id="line2d_15">
      <path d="M 0 121.302178 
L 460.8 121.302178 
" clip-path="url(#pc38ccb6056)" style="fill: none; stroke: #b0b0b0; stroke-width: 0.8; stroke-linecap: square"/>
     </g>
     <g id="line2d_16">
      <g>
       <use xlink:href="#m5807d484d7" x="0" y="121.302178" style="stroke: #000000; stroke-width: 0.8"/>
      </g>
     </g>
    </g>
    <g id="ytick_5">
     <g id="line2d_17">
      <path d="M 0 63.816238 
L 460.8 63.816238 
" clip-path="url(#pc38ccb6056)" style="fill: none; stroke: #b0b0b0; stroke-width: 0.8; stroke-linecap: square"/>
     </g>
     <g id="line2d_18">
      <g>
       <use xlink:href="#m5807d484d7" x="0" y="63.816238" style="stroke: #000000; stroke-width: 0.8"/>
      </g>
     </g>
    </g>
    <g id="ytick_6">
     <g id="line2d_19">
      <path d="M 0 6.330297 
L 460.8 6.330297 
" clip-path="url(#pc38ccb6056)" style="fill: none; stroke: #b0b0b0; stroke-width: 0.8; stroke-linecap: square"/>
     </g>
     <g id="line2d_20">
      <g>
       <use xlink:href="#m5807d484d7" x="0" y="6.330297" style="stroke: #000000; stroke-width: 0.8"/>
      </g>
     </g>
    </g>
   </g>
   <g id="line2d_21">
    <path d="M -1 260.226535 
L 43.325035 260.226535 
L 43.325035 255.43604 
L 163.192541 255.43604 
L 163.192541 250.645545 
L 167.40872 250.645545 
L 167.40872 245.85505 
L 197.116646 245.85505 
L 197.116646 241.064554 
L 198.721742 241.064554 
L 198.721742 236.274059 
L 199.47733 236.274059 
L 199.47733 231.483564 
L 204.938249 231.483564 
L 204.938249 226.693069 
L 205.776057 226.693069 
L 205.776057 221.902574 
L 207.212692 221.902574 
L 207.212692 217.112079 
L 207.722456 217.112079 
L 207.722456 212.321584 
L 209.001894 212.321584 
L 209.001894 207.531089 
L 219.580783 207.531089 
L 219.580783 202.740594 
L 220.386613 202.740594 
L 220.386613 197.950099 
L 220.885533 197.950099 
L 220.885533 193.159604 
L 221.819966 193.159604 
L 221.819966 188.369109 
L 224.213737 188.369109 
L 224.213737 183.578614 
L 224.233839 183.578614 
L 224.233839 178.788119 
L 224.30465 178.788119 
L 224.30465 173.997624 
L 224.485968 173.997624 
L 224.485968 169.207129 
L 225.69784 169.207129 
L 225.69784 164.416634 
L 228.595457 164.416634 
L 228.595457 159.626139 
L 233.022023 159.626139 
L 233.022023 154.835644 
L 237.509257 154.835644 
L 237.509257 150.045149 
L 244.923925 150.045149 
L 244.923925 145.254653 
L 247.845046 145.254653 
L 247.845046 140.464158 
L 248.813396 140.464158 
L 248.813396 135.673663 
L 249.246857 135.673663 
L 249.246857 130.883168 
L 249.328616 130.883168 
L 249.328616 126.092673 
L 249.969192 126.092673 
L 249.969192 121.302178 
L 250.355579 121.302178 
L 250.355579 116.511683 
L 250.823416 116.511683 
L 250.823416 111.721188 
L 251.04805 111.721188 
L 251.04805 106.930693 
L 251.724452 106.930693 
L 251.724452 102.140198 
L 255.009077 102.140198 
L 255.009077 97.349703 
L 255.189815 97.349703 
L 255.189815 92.559208 
L 255.676958 92.559208 
L 255.676958 87.768713 
L 255.923011 87.768713 
L 255.923011 82.978218 
L 258.155943 82.978218 
L 258.155943 78.187723 
L 258.478875 78.187723 
L 258.478875 73.397228 
L 260.037405 73.397228 
L 260.037405 68.606733 
L 260.313582 68.606733 
L 260.313582 63.816238 
L 262.03914 63.816238 
L 262.03914 59.025743 
L 265.472077 59.025743 
L 265.472077 54.235248 
L 265.664964 54.235248 
L 265.664964 49.444752 
L 275.649103 49.444752 
L 275.649103 44.654257 
L 277.810335 44.654257 
L 277.810335 39.863762 
L 277.882804 39.863762 
L 277.882804 35.073267 
L 278.358105 35.073267 
L 278.358105 30.282772 
L 278.542261 30.282772 
L 278.542261 25.492277 
L 279.300301 25.492277 
L 279.300301 20.701782 
L 279.322208 20.701782 
L 279.322208 15.911287 
L 280.633813 15.911287 
L 280.633813 11.120792 
L 283.047112 11.120792 
L 283.047112 6.330297 
L 283.047112 6.330297 
L 283.047112 6.330297 
L 460.8 6.330297 
" clip-path="url(#pc38ccb6056)" style="fill: none; stroke: #ff0000; stroke-width: 3; stroke-linecap: square"/>
   </g>
   <g id="line2d_22">
    <path d="M 237.509257 293.76 
L 237.509257 288.969505 
L 245.248059 288.969505 
L 245.248059 284.17901 
L 245.250094 284.17901 
L 245.250094 279.388515 
L 245.250851 279.388515 
L 245.250851 274.59802 
L 245.251106 274.59802 
L 245.251106 269.807525 
L 245.25346 269.807525 
L 245.25346 265.01703 
L 245.254488 265.01703 
L 245.254488 260.226535 
L 245.254715 260.226535 
L 245.254715 255.43604 
L 245.254715 255.43604 
L 245.254715 250.645545 
L 245.254715 250.645545 
L 245.254715 245.85505 
L 245.254715 245.85505 
L 245.254715 241.064554 
L 245.254715 241.064554 
L 245.254715 236.274059 
L 245.254715 236.274059 
L 245.254715 231.483564 
L 245.254715 231.483564 
L 245.254715 226.693069 
L 245.254715 226.693069 
L 245.254715 221.902574 
L 245.254715 221.902574 
L 245.254715 217.112079 
L 247.845046 217.112079 
L 247.845046 212.321584 
L 251.724452 212.321584 
L 251.724452 207.531089 
L 255.923011 207.531089 
L 255.923011 202.740594 
L 260.037405 202.740594 
L 260.037405 197.950099 
L 260.313582 197.950099 
L 260.313582 193.159604 
L 262.03914 193.159604 
L 262.03914 188.369109 
L 265.472077 188.369109 
L 265.472077 183.578614 
L 265.664964 183.578614 
L 265.664964 178.788119 
L 266.884105 178.788119 
L 266.884105 173.997624 
L 275.649103 173.997624 
L 275.649103 169.207129 
L 277.882804 169.207129 
L 277.882804 164.416634 
L 278.358105 164.416634 
L 278.358105 159.626139 
L 279.300301 159.626139 
L 279.300301 154.835644 
L 279.322208 154.835644 
L 279.322208 150.045149 
L 283.047112 150.045149 
L 283.047112 145.254653 
L 288.864289 145.254653 
L 288.864289 140.464158 
L 289.080004 140.464158 
L 289.080004 135.673663 
L 289.765165 135.673663 
L 289.765165 130.883168 
L 296.543317 130.883168 
L 296.543317 126.092673 
L 297.927519 126.092673 
L 297.927519 121.302178 
L 310.565543 121.302178 
L 310.565543 116.511683 
L 314.176216 116.511683 
L 314.176216 111.721188 
L 316.818587 111.721188 
L 316.818587 106.930693 
L 317.86469 106.930693 
L 317.86469 102.140198 
L 319.437309 102.140198 
L 319.437309 97.349703 
L 319.688458 97.349703 
L 319.688458 92.559208 
L 321.790778 92.559208 
L 321.790778 87.768713 
L 322.636854 87.768713 
L 322.636854 82.978218 
L 323.368122 82.978218 
L 323.368122 78.187723 
L 326.857482 78.187723 
L 326.857482 73.397228 
L 328.798244 73.397228 
L 328.798244 68.606733 
L 329.379786 68.606733 
L 329.379786 63.816238 
L 331.932573 63.816238 
L 331.932573 59.025743 
L 333.080593 59.025743 
L 333.080593 54.235248 
L 333.411316 54.235248 
L 333.411316 49.444752 
L 333.579483 49.444752 
L 333.579483 44.654257 
L 337.831592 44.654257 
L 337.831592 39.863762 
L 341.302874 39.863762 
L 341.302874 35.073267 
L 344.108506 35.073267 
L 344.108506 30.282772 
L 352.942834 30.282772 
L 352.942834 25.492277 
L 355.331616 25.492277 
L 355.331616 20.701782 
L 358.144049 20.701782 
L 358.144049 15.911287 
L 358.555422 15.911287 
L 358.555422 11.120792 
L 358.62898 11.120792 
L 358.62898 6.330297 
L 358.62898 6.330297 
L 358.62898 6.330297 
L 460.8 6.330297 
" clip-path="url(#pc38ccb6056)" style="fill: none; stroke: #00bfbf; stroke-width: 1.5; stroke-linecap: square"/>
   </g>
   <g id="line2d_23">
    <path d="M 237.509257 293.76 
L 237.509257 288.969505 
L 245.248059 288.969505 
L 245.248059 284.17901 
L 245.248146 284.17901 
L 245.248146 279.388515 
L 245.248244 279.388515 
L 245.248244 274.59802 
L 245.249097 274.59802 
L 245.249097 269.807525 
L 245.249202 269.807525 
L 245.249202 265.01703 
L 245.249399 265.01703 
L 245.249399 260.226535 
L 245.249439 260.226535 
L 245.249439 255.43604 
L 245.249658 255.43604 
L 245.249658 250.645545 
L 245.249762 250.645545 
L 245.249762 245.85505 
L 245.249847 245.85505 
L 245.249847 241.064554 
L 245.250837 241.064554 
L 245.250837 236.274059 
L 245.25085 236.274059 
L 245.25085 231.483564 
L 245.251018 231.483564 
L 245.251018 226.693069 
L 245.251607 226.693069 
L 245.251607 221.902574 
L 245.252149 221.902574 
L 245.252149 217.112079 
L 247.845046 217.112079 
L 247.845046 212.321584 
L 251.724452 212.321584 
L 251.724452 207.531089 
L 255.923011 207.531089 
L 255.923011 202.740594 
L 260.037405 202.740594 
L 260.037405 197.950099 
L 260.313582 197.950099 
L 260.313582 193.159604 
L 262.03914 193.159604 
L 262.03914 188.369109 
L 265.472077 188.369109 
L 265.472077 183.578614 
L 265.664964 183.578614 
L 265.664964 178.788119 
L 266.884105 178.788119 
L 266.884105 173.997624 
L 275.649103 173.997624 
L 275.649103 169.207129 
L 277.882804 169.207129 
L 277.882804 164.416634 
L 278.358105 164.416634 
L 278.358105 159.626139 
L 279.300301 159.626139 
L 279.300301 154.835644 
L 279.322208 154.835644 
L 279.322208 150.045149 
L 283.047112 150.045149 
L 283.047112 145.254653 
L 288.862628 145.254653 
L 288.862628 140.464158 
L 289.079573 140.464158 
L 289.079573 135.673663 
L 289.765165 135.673663 
L 289.765165 130.883168 
L 296.542843 130.883168 
L 296.542843 126.092673 
L 297.926923 126.092673 
L 297.926923 121.302178 
L 310.565016 121.302178 
L 310.565016 116.511683 
L 314.175699 116.511683 
L 314.175699 111.721188 
L 316.818185 111.721188 
L 316.818185 106.930693 
L 317.864198 106.930693 
L 317.864198 102.140198 
L 319.436844 102.140198 
L 319.436844 97.349703 
L 319.688362 97.349703 
L 319.688362 92.559208 
L 321.786716 92.559208 
L 321.786716 87.768713 
L 322.636499 87.768713 
L 322.636499 82.978218 
L 323.367991 82.978218 
L 323.367991 78.187723 
L 326.857245 78.187723 
L 326.857245 73.397228 
L 328.797171 73.397228 
L 328.797171 68.606733 
L 329.379786 68.606733 
L 329.379786 63.816238 
L 331.931259 63.816238 
L 331.931259 59.025743 
L 333.079336 59.025743 
L 333.079336 54.235248 
L 333.411249 54.235248 
L 333.411249 49.444752 
L 333.579209 49.444752 
L 333.579209 44.654257 
L 337.830399 44.654257 
L 337.830399 39.863762 
L 341.302624 39.863762 
L 341.302624 35.073267 
L 344.107724 35.073267 
L 344.107724 30.282772 
L 352.942834 30.282772 
L 352.942834 25.492277 
L 355.331616 25.492277 
L 355.331616 20.701782 
L 358.143635 20.701782 
L 358.143635 15.911287 
L 358.555397 15.911287 
L 358.555397 11.120792 
L 358.628898 11.120792 
L 358.628898 6.330297 
L 358.628898 6.330297 
L 358.628898 6.330297 
L 460.8 6.330297 
" clip-path="url(#pc38ccb6056)" style="fill: none; stroke: #bf00bf; stroke-width: 1.5; stroke-linecap: square"/>
   </g>
   <g id="line2d_24">
    <path d="M 237.509257 293.76 
L 237.509257 288.969505 
L 245.211217 288.969505 
L 245.211217 284.17901 
L 245.211265 284.17901 
L 245.211265 279.388515 
L 245.211688 279.388515 
L 245.211688 274.59802 
L 245.213387 274.59802 
L 245.213387 269.807525 
L 245.21645 269.807525 
L 245.21645 265.01703 
L 245.218861 265.01703 
L 245.218861 260.226535 
L 245.219306 260.226535 
L 245.219306 255.43604 
L 245.219515 255.43604 
L 245.219515 250.645545 
L 245.219611 250.645545 
L 245.219611 245.85505 
L 245.220503 245.85505 
L 245.220503 241.064554 
L 245.220832 241.064554 
L 245.220832 236.274059 
L 245.223129 236.274059 
L 245.223129 231.483564 
L 245.225474 231.483564 
L 245.225474 226.693069 
L 245.22607 226.693069 
L 245.22607 221.902574 
L 245.226612 221.902574 
L 245.226612 217.112079 
L 247.845046 217.112079 
L 247.845046 212.321584 
L 251.724452 212.321584 
L 251.724452 207.531089 
L 255.923011 207.531089 
L 255.923011 202.740594 
L 260.037405 202.740594 
L 260.037405 197.950099 
L 260.313582 197.950099 
L 260.313582 193.159604 
L 262.03914 193.159604 
L 262.03914 188.369109 
L 265.472077 188.369109 
L 265.472077 183.578614 
L 265.664964 183.578614 
L 265.664964 178.788119 
L 266.861987 178.788119 
L 266.861987 173.997624 
L 275.649103 173.997624 
L 275.649103 169.207129 
L 277.882804 169.207129 
L 277.882804 164.416634 
L 278.358105 164.416634 
L 278.358105 159.626139 
L 279.300301 159.626139 
L 279.300301 154.835644 
L 279.322208 154.835644 
L 279.322208 150.045149 
L 283.047112 150.045149 
L 283.047112 145.254653 
L 288.852009 145.254653 
L 288.852009 140.464158 
L 289.059756 140.464158 
L 289.059756 135.673663 
L 289.760357 135.673663 
L 289.760357 130.883168 
L 296.514027 130.883168 
L 296.514027 126.092673 
L 297.916321 126.092673 
L 297.916321 121.302178 
L 310.555539 121.302178 
L 310.555539 116.511683 
L 314.157719 116.511683 
L 314.157719 111.721188 
L 316.803728 111.721188 
L 316.803728 106.930693 
L 317.848446 106.930693 
L 317.848446 102.140198 
L 319.427784 102.140198 
L 319.427784 97.349703 
L 319.672056 97.349703 
L 319.672056 92.559208 
L 321.77764 92.559208 
L 321.77764 87.768713 
L 322.621813 87.768713 
L 322.621813 82.978218 
L 323.352562 82.978218 
L 323.352562 78.187723 
L 326.845962 78.187723 
L 326.845962 73.397228 
L 328.787073 73.397228 
L 328.787073 68.606733 
L 329.359669 68.606733 
L 329.359669 63.816238 
L 331.918933 63.816238 
L 331.918933 59.025743 
L 333.071872 59.025743 
L 333.071872 54.235248 
L 333.409857 54.235248 
L 333.409857 49.444752 
L 333.577889 49.444752 
L 333.577889 44.654257 
L 337.821028 44.654257 
L 337.821028 39.863762 
L 341.298532 39.863762 
L 341.298532 35.073267 
L 344.102446 35.073267 
L 344.102446 30.282772 
L 352.93889 30.282772 
L 352.93889 25.492277 
L 355.325215 25.492277 
L 355.325215 20.701782 
L 358.141568 20.701782 
L 358.141568 15.911287 
L 358.55485 15.911287 
L 358.55485 11.120792 
L 358.628193 11.120792 
L 358.628193 6.330297 
L 358.628193 6.330297 
L 358.628193 6.330297 
L 460.8 6.330297 
" clip-path="url(#pc38ccb6056)" style="fill: none; stroke: #000000; stroke-width: 1.5; stroke-linecap: square"/>
   </g>
   <g id="line2d_25">
    <path d="M 237.509257 293.76 
L 237.509257 288.969505 
L 239.733399 288.969505 
L 239.733399 284.17901 
L 240.358288 284.17901 
L 240.358288 279.388515 
L 240.851282 279.388515 
L 240.851282 274.59802 
L 241.530269 274.59802 
L 241.530269 269.807525 
L 241.607567 269.807525 
L 241.607567 265.01703 
L 241.748051 265.01703 
L 241.748051 260.226535 
L 241.90215 260.226535 
L 241.90215 255.43604 
L 241.905269 255.43604 
L 241.905269 250.645545 
L 241.945893 250.645545 
L 241.945893 245.85505 
L 242.119008 245.85505 
L 242.119008 241.064554 
L 242.123384 241.064554 
L 242.123384 236.274059 
L 242.201545 236.274059 
L 242.201545 231.483564 
L 242.506653 231.483564 
L 242.506653 226.693069 
L 242.646192 226.693069 
L 242.646192 221.902574 
L 242.699518 221.902574 
L 242.699518 217.112079 
L 247.845046 217.112079 
L 247.845046 212.321584 
L 251.724452 212.321584 
L 251.724452 207.531089 
L 255.923011 207.531089 
L 255.923011 202.740594 
L 260.037405 202.740594 
L 260.037405 197.950099 
L 260.313582 197.950099 
L 260.313582 193.159604 
L 262.03914 193.159604 
L 262.03914 188.369109 
L 263.588799 188.369109 
L 263.588799 183.578614 
L 265.472077 183.578614 
L 265.472077 178.788119 
L 265.664964 178.788119 
L 265.664964 173.997624 
L 275.649103 173.997624 
L 275.649103 169.207129 
L 277.882804 169.207129 
L 277.882804 164.416634 
L 278.358105 164.416634 
L 278.358105 159.626139 
L 279.300301 159.626139 
L 279.300301 154.835644 
L 279.322208 154.835644 
L 279.322208 150.045149 
L 283.047112 150.045149 
L 283.047112 145.254653 
L 287.254766 145.254653 
L 287.254766 140.464158 
L 287.308799 140.464158 
L 287.308799 135.673663 
L 289.017642 135.673663 
L 289.017642 130.883168 
L 293.623225 130.883168 
L 293.623225 126.092673 
L 296.440946 126.092673 
L 296.440946 121.302178 
L 309.242286 121.302178 
L 309.242286 116.511683 
L 312.453832 116.511683 
L 312.453832 111.721188 
L 315.467366 111.721188 
L 315.467366 106.930693 
L 316.344331 106.930693 
L 316.344331 102.140198 
L 318.094594 102.140198 
L 318.094594 97.349703 
L 318.159398 97.349703 
L 318.159398 92.559208 
L 320.510387 92.559208 
L 320.510387 87.768713 
L 321.241311 87.768713 
L 321.241311 82.978218 
L 321.846616 82.978218 
L 321.846616 78.187723 
L 325.839795 78.187723 
L 325.839795 73.397228 
L 327.214561 73.397228 
L 327.214561 68.606733 
L 327.480846 68.606733 
L 327.480846 63.816238 
L 329.660256 63.816238 
L 329.660256 59.025743 
L 330.989154 59.025743 
L 330.989154 54.235248 
L 333.066014 54.235248 
L 333.066014 49.444752 
L 333.357128 49.444752 
L 333.357128 44.654257 
L 336.34325 44.654257 
L 336.34325 39.863762 
L 340.793005 39.863762 
L 340.793005 35.073267 
L 343.410788 35.073267 
L 343.410788 30.282772 
L 352.425655 30.282772 
L 352.425655 25.492277 
L 354.717121 25.492277 
L 354.717121 20.701782 
L 357.671181 20.701782 
L 357.671181 15.911287 
L 358.45094 15.911287 
L 358.45094 11.120792 
L 358.547993 11.120792 
L 358.547993 6.330297 
L 358.547993 6.330297 
L 358.547993 6.330297 
L 460.8 6.330297 
" clip-path="url(#pc38ccb6056)" style="fill: none; stroke: #00bfbf; stroke-width: 1.5; stroke-linecap: square"/>
   </g>
   <g id="line2d_26">
    <path d="M 167.322211 293.76 
L 167.322211 288.969505 
L 197.118963 288.969505 
L 197.118963 284.17901 
L 197.308046 284.17901 
L 197.308046 279.388515 
L 200.379499 279.388515 
L 200.379499 274.59802 
L 203.755335 274.59802 
L 203.755335 269.807525 
L 204.940972 269.807525 
L 204.940972 265.01703 
L 207.212757 265.01703 
L 207.212757 260.226535 
L 207.34627 260.226535 
L 207.34627 255.43604 
L 207.722462 255.43604 
L 207.722462 250.645545 
L 208.072071 250.645545 
L 208.072071 245.85505 
L 208.382511 245.85505 
L 208.382511 241.064554 
L 209.001894 241.064554 
L 209.001894 236.274059 
L 212.859488 236.274059 
L 212.859488 231.483564 
L 214.948077 231.483564 
L 214.948077 226.693069 
L 218.95823 226.693069 
L 218.95823 221.902574 
L 219.580797 221.902574 
L 219.580797 217.112079 
L 220.885533 217.112079 
L 220.885533 212.321584 
L 224.233839 212.321584 
L 224.233839 207.531089 
L 228.88105 207.531089 
L 228.88105 202.740594 
L 229.527613 202.740594 
L 229.527613 197.950099 
L 230.356935 197.950099 
L 230.356935 193.159604 
L 237.061143 193.159604 
L 237.061143 188.369109 
L 237.509257 188.369109 
L 237.509257 183.578614 
L 242.442564 183.578614 
L 242.442564 178.788119 
L 244.923925 178.788119 
L 244.923925 173.997624 
L 247.845046 173.997624 
L 247.845046 169.207129 
L 249.246857 169.207129 
L 249.246857 164.416634 
L 249.33323 164.416634 
L 249.33323 159.626139 
L 250.460191 159.626139 
L 250.460191 154.835644 
L 251.00721 154.835644 
L 251.00721 150.045149 
L 251.04805 150.045149 
L 251.04805 145.254653 
L 251.724452 145.254653 
L 251.724452 140.464158 
L 253.858575 140.464158 
L 253.858575 135.673663 
L 255.189817 135.673663 
L 255.189817 130.883168 
L 255.590372 130.883168 
L 255.590372 126.092673 
L 255.73149 126.092673 
L 255.73149 121.302178 
L 255.923011 121.302178 
L 255.923011 116.511683 
L 256.128812 116.511683 
L 256.128812 111.721188 
L 258.155943 111.721188 
L 258.155943 106.930693 
L 259.121014 106.930693 
L 259.121014 102.140198 
L 259.70239 102.140198 
L 259.70239 97.349703 
L 260.037405 97.349703 
L 260.037405 92.559208 
L 260.313582 92.559208 
L 260.313582 87.768713 
L 262.03914 87.768713 
L 262.03914 82.978218 
L 263.922884 82.978218 
L 263.922884 78.187723 
L 265.472077 78.187723 
L 265.472077 73.397228 
L 265.664964 73.397228 
L 265.664964 68.606733 
L 271.00342 68.606733 
L 271.00342 63.816238 
L 272.13161 63.816238 
L 272.13161 59.025743 
L 275.649103 59.025743 
L 275.649103 54.235248 
L 277.882804 54.235248 
L 277.882804 49.444752 
L 278.106287 49.444752 
L 278.106287 44.654257 
L 278.358105 44.654257 
L 278.358105 39.863762 
L 279.300301 39.863762 
L 279.300301 35.073267 
L 279.322208 35.073267 
L 279.322208 30.282772 
L 282.08193 30.282772 
L 282.08193 25.492277 
L 283.047112 25.492277 
L 283.047112 20.701782 
L 283.266113 20.701782 
L 283.266113 15.911287 
L 288.385627 15.911287 
L 288.385627 11.120792 
L 326.267075 11.120792 
L 326.267075 6.330297 
L 326.267075 6.330297 
L 326.267075 6.330297 
L 460.8 6.330297 
" clip-path="url(#pc38ccb6056)" style="fill: none; stroke: #bf00bf; stroke-width: 1.5; stroke-linecap: square"/>
   </g>
   <g id="patch_3">
    <path d="M 0 293.76 
L 0 3.456 
" style="fill: none; stroke: #000000; stroke-width: 0.8; stroke-linejoin: miter; stroke-linecap: square"/>
   </g>
   <g id="patch_4">
    <path d="M 460.8 293.76 
L 460.8 3.456 
" style="fill: none; stroke: #000000; stroke-width: 0.8; stroke-linejoin: miter; stroke-linecap: square"/>
   </g>
   <g id="patch_5">
    <path d="M 0 293.76 
L 460.8 293.76 
" style="fill: none; stroke: #000000; stroke-width: 0.8; stroke-linejoin: miter; stroke-linecap: square"/>
   </g>
   <g id="patch_6">
    <path d="M 0 3.456 
L 460.8 3.456 
" style="fill: none; stroke: #000000; stroke-width: 0.8; stroke-linejoin: miter; stroke-linecap: square"/>
   </g>
   <g id="text_6">
    <!-- {f6-f9}, 5-D -->
    <g transform="translate(331.334 287.95392) scale(0.2 -0.2)">
     <defs>
      <path id="DejaVuSans-7b" d="M 3272 -594 
L 3272 -1044 
L 3078 -1044 
Q 2300 -1044 2036 -812 
Q 1772 -581 1772 109 
L 1772 856 
Q 1772 1328 1603 1509 
Q 1434 1691 991 1691 
L 800 1691 
L 800 2138 
L 991 2138 
Q 1438 2138 1605 2317 
Q 1772 2497 1772 2963 
L 1772 3713 
Q 1772 4403 2036 4633 
Q 2300 4863 3078 4863 
L 3272 4863 
L 3272 4416 
L 3059 4416 
Q 2619 4416 2484 4278 
Q 2350 4141 2350 3700 
L 2350 2925 
Q 2350 2434 2208 2212 
Q 2066 1991 1722 1913 
Q 2069 1828 2209 1606 
Q 2350 1384 2350 897 
L 2350 122 
Q 2350 -319 2484 -456 
Q 2619 -594 3059 -594 
L 3272 -594 
z
" transform="scale(0.015625)"/>
      <path id="DejaVuSans-36" d="M 2113 2584 
Q 1688 2584 1439 2293 
Q 1191 2003 1191 1497 
Q 1191 994 1439 701 
Q 1688 409 2113 409 
Q 2538 409 2786 701 
Q 3034 994 3034 1497 
Q 3034 2003 2786 2293 
Q 2538 2584 2113 2584 
z
M 3366 4563 
L 3366 3988 
Q 3128 4100 2886 4159 
Q 2644 4219 2406 4219 
Q 1781 4219 1451 3797 
Q 1122 3375 1075 2522 
Q 1259 2794 1537 2939 
Q 1816 3084 2150 3084 
Q 2853 3084 3261 2657 
Q 3669 2231 3669 1497 
Q 3669 778 3244 343 
Q 2819 -91 2113 -91 
Q 1303 -91 875 529 
Q 447 1150 447 2328 
Q 447 3434 972 4092 
Q 1497 4750 2381 4750 
Q 2619 4750 2861 4703 
Q 3103 4656 3366 4563 
z
" transform="scale(0.015625)"/>
      <path id="DejaVuSans-39" d="M 703 97 
L 703 672 
Q 941 559 1184 500 
Q 1428 441 1663 441 
Q 2288 441 2617 861 
Q 2947 1281 2994 2138 
Q 2813 1869 2534 1725 
Q 2256 1581 1919 1581 
Q 1219 1581 811 2004 
Q 403 2428 403 3163 
Q 403 3881 828 4315 
Q 1253 4750 1959 4750 
Q 2769 4750 3195 4129 
Q 3622 3509 3622 2328 
Q 3622 1225 3098 567 
Q 2575 -91 1691 -91 
Q 1453 -91 1209 -44 
Q 966 3 703 97 
z
M 1959 2075 
Q 2384 2075 2632 2365 
Q 2881 2656 2881 3163 
Q 2881 3666 2632 3958 
Q 2384 4250 1959 4250 
Q 1534 4250 1286 3958 
Q 1038 3666 1038 3163 
Q 1038 2656 1286 2365 
Q 1534 2075 1959 2075 
z
" transform="scale(0.015625)"/>
      <path id="DejaVuSans-7d" d="M 800 -594 
L 1019 -594 
Q 1456 -594 1589 -459 
Q 1722 -325 1722 122 
L 1722 897 
Q 1722 1384 1862 1606 
Q 2003 1828 2350 1913 
Q 2003 1991 1862 2212 
Q 1722 2434 1722 2925 
L 1722 3700 
Q 1722 4144 1589 4280 
Q 1456 4416 1019 4416 
L 800 4416 
L 800 4863 
L 997 4863 
Q 1775 4863 2036 4633 
Q 2297 4403 2297 3713 
L 2297 2963 
Q 2297 2497 2465 2317 
Q 2634 2138 3078 2138 
L 3272 2138 
L 3272 1691 
L 3078 1691 
Q 2634 1691 2465 1509 
Q 2297 1328 2297 856 
L 2297 109 
Q 2297 -581 2036 -812 
Q 1775 -1044 997 -1044 
L 800 -1044 
L 800 -594 
z
" transform="scale(0.015625)"/>
      <path id="DejaVuSans-2c" d="M 750 794 
L 1409 794 
L 1409 256 
L 897 -744 
L 494 -744 
L 750 256 
L 750 794 
z
" transform="scale(0.015625)"/>
      <path id="DejaVuSans-35" d="M 691 4666 
L 3169 4666 
L 3169 4134 
L 1269 4134 
L 1269 2991 
Q 1406 3038 1543 3061 
Q 1681 3084 1819 3084 
Q 2600 3084 3056 2656 
Q 3513 2228 3513 1497 
Q 3513 744 3044 326 
Q 2575 -91 1722 -91 
Q 1428 -91 1123 -41 
Q 819 9 494 109 
L 494 744 
Q 775 591 1075 516 
Q 1375 441 1709 441 
Q 2250 441 2565 725 
Q 2881 1009 2881 1497 
Q 2881 1984 2565 2268 
Q 2250 2553 1709 2553 
Q 1456 2553 1204 2497 
Q 953 2441 691 2322 
L 691 4666 
z
" transform="scale(0.015625)"/>
     </defs>
     <use xlink:href="#DejaVuSans-7b"/>
     <use xlink:href="#DejaVuSans-66" x="63.623047"/>
     <use xlink:href="#DejaVuSans-36" x="98.828125"/>
     <use xlink:href="#DejaVuSans-2d" x="162.451172"/>
     <use xlink:href="#DejaVuSans-66" x="198.535156"/>
     <use xlink:href="#DejaVuSans-39" x="233.740234"/>
     <use xlink:href="#DejaVuSans-7d" x="297.363281"/>
     <use xlink:href="#DejaVuSans-2c" x="360.986328"/>
     <use xlink:href="#DejaVuSans-20" x="392.773438"/>
     <use xlink:href="#DejaVuSans-35" x="424.560547"/>
     <use xlink:href="#DejaVuSans-2d" x="488.183594"/>
     <use xlink:href="#DejaVuSans-44" x="524.267578"/>
    </g>
   </g>
   <g id="text_7">
    <!-- v2.6.3 -->
    <g style="fill: #808080" transform="translate(214.71875 288.777272) scale(0.1 -0.1)">
     <defs>
      <path id="DejaVuSans-76" d="M 191 3500 
L 800 3500 
L 1894 563 
L 2988 3500 
L 3597 3500 
L 2284 0 
L 1503 0 
L 191 3500 
z
" transform="scale(0.015625)"/>
      <path id="DejaVuSans-32" d="M 1228 531 
L 3431 531 
L 3431 0 
L 469 0 
L 469 531 
Q 828 903 1448 1529 
Q 2069 2156 2228 2338 
Q 2531 2678 2651 2914 
Q 2772 3150 2772 3378 
Q 2772 3750 2511 3984 
Q 2250 4219 1831 4219 
Q 1534 4219 1204 4116 
Q 875 4013 500 3803 
L 500 4441 
Q 881 4594 1212 4672 
Q 1544 4750 1819 4750 
Q 2544 4750 2975 4387 
Q 3406 4025 3406 3419 
Q 3406 3131 3298 2873 
Q 3191 2616 2906 2266 
Q 2828 2175 2409 1742 
Q 1991 1309 1228 531 
z
" transform="scale(0.015625)"/>
      <path id="DejaVuSans-2e" d="M 684 794 
L 1344 794 
L 1344 0 
L 684 0 
L 684 794 
z
" transform="scale(0.015625)"/>
      <path id="DejaVuSans-33" d="M 2597 2516 
Q 3050 2419 3304 2112 
Q 3559 1806 3559 1356 
Q 3559 666 3084 287 
Q 2609 -91 1734 -91 
Q 1441 -91 1130 -33 
Q 819 25 488 141 
L 488 750 
Q 750 597 1062 519 
Q 1375 441 1716 441 
Q 2309 441 2620 675 
Q 2931 909 2931 1356 
Q 2931 1769 2642 2001 
Q 2353 2234 1838 2234 
L 1294 2234 
L 1294 2753 
L 1863 2753 
Q 2328 2753 2575 2939 
Q 2822 3125 2822 3475 
Q 2822 3834 2567 4026 
Q 2313 4219 1838 4219 
Q 1578 4219 1281 4162 
Q 984 4106 628 3988 
L 628 4550 
Q 988 4650 1302 4700 
Q 1616 4750 1894 4750 
Q 2613 4750 3031 4423 
Q 3450 4097 3450 3541 
Q 3450 3153 3228 2886 
Q 3006 2619 2597 2516 
z
" transform="scale(0.015625)"/>
     </defs>
     <use xlink:href="#DejaVuSans-76"/>
     <use xlink:href="#DejaVuSans-32" x="59.179688"/>
     <use xlink:href="#DejaVuSans-2e" x="122.802734"/>
     <use xlink:href="#DejaVuSans-36" x="154.589844"/>
     <use xlink:href="#DejaVuSans-2e" x="218.212891"/>
     <use xlink:href="#DejaVuSans-33" x="250"/>
    </g>
   </g>
  </g>
 </g>
 <defs>
  <clipPath id="pc38ccb6056">
   <rect x="0" y="3.456" width="460.8" height="290.304"/>
  </clipPath>
 </defs>
</svg>
