<?xml version="1.0" encoding="utf-8" standalone="no"?>
<!DOCTYPE svg PUBLIC "-//W3C//DTD SVG 1.1//EN"
  "http://www.w3.org/Graphics/SVG/1.1/DTD/svg11.dtd">
<svg xmlns:xlink="http://www.w3.org/1999/xlink" width="460.8pt" height="345.6pt" viewBox="0 0 460.8 345.6" xmlns="http://www.w3.org/2000/svg" version="1.1">
 <metadata>
  <rdf:RDF xmlns:dc="http://purl.org/dc/elements/1.1/" xmlns:cc="http://creativecommons.org/ns#" xmlns:rdf="http://www.w3.org/1999/02/22-rdf-syntax-ns#">
   <cc:Work>
    <dc:type rdf:resource="http://purl.org/dc/dcmitype/StillImage"/>
    <dc:date>2024-01-17T14:59:41.236069</dc:date>
    <dc:format>image/svg+xml</dc:format>
    <dc:creator>
     <cc:Agent>
      <dc:title>Matplotlib v3.8.2, https://matplotlib.org/</dc:title>
     </cc:Agent>
    </dc:creator>
   </cc:Work>
  </rdf:RDF>
 </metadata>
 <defs>
  <style type="text/css">*{stroke-linejoin: round; stroke-linecap: butt}</style>
 </defs>
 <g id="figure_1">
  <g id="patch_1">
   <path d="M 0 345.6 
L 460.8 345.6 
L 460.8 0 
L 0 0 
z
" style="fill: #ffffff"/>
  </g>
  <g id="axes_1">
   <g id="patch_2">
    <path d="M 0 293.76 
L 460.8 293.76 
L 460.8 3.456 
L 0 3.456 
z
" style="fill: #ffffff"/>
   </g>
   <g id="matplotlib.axis_1">
    <g id="xtick_1">
     <g id="line2d_1">
      <path d="M 104.132958 293.76 
L 104.132958 3.456 
" clip-path="url(#p76b59d6dc5)" style="fill: none; stroke: #b0b0b0; stroke-width: 0.8; stroke-linecap: square"/>
     </g>
     <g id="line2d_2">
      <defs>
       <path id="mfe0b5df825" d="M 0 0 
L 0 3.5 
" style="stroke: #000000; stroke-width: 0.8"/>
      </defs>
      <g>
       <use xlink:href="#mfe0b5df825" x="104.132958" y="293.76" style="stroke: #000000; stroke-width: 0.8"/>
      </g>
     </g>
     <g id="text_1">
      <!-- -4 -->
      <g transform="translate(94.162645 315.956875) scale(0.2 -0.2)">
       <defs>
        <path id="DejaVuSans-2d" d="M 313 2009 
L 1997 2009 
L 1997 1497 
L 313 1497 
L 313 2009 
z
" transform="scale(0.015625)"/>
        <path id="DejaVuSans-34" d="M 2419 4116 
L 825 1625 
L 2419 1625 
L 2419 4116 
z
M 2253 4666 
L 3047 4666 
L 3047 1625 
L 3713 1625 
L 3713 1100 
L 3047 1100 
L 3047 0 
L 2419 0 
L 2419 1100 
L 313 1100 
L 313 1709 
L 2253 4666 
z
" transform="scale(0.015625)"/>
       </defs>
       <use xlink:href="#DejaVuSans-2d"/>
       <use xlink:href="#DejaVuSans-34" x="36.083984"/>
      </g>
     </g>
    </g>
    <g id="xtick_2">
     <g id="line2d_3">
      <path d="M 208.378536 293.76 
L 208.378536 3.456 
" clip-path="url(#p76b59d6dc5)" style="fill: none; stroke: #b0b0b0; stroke-width: 0.8; stroke-linecap: square"/>
     </g>
     <g id="line2d_4">
      <g>
       <use xlink:href="#mfe0b5df825" x="208.378536" y="293.76" style="stroke: #000000; stroke-width: 0.8"/>
      </g>
     </g>
     <g id="text_2">
      <!-- 0 -->
      <g transform="translate(202.016036 315.956875) scale(0.2 -0.2)">
       <defs>
        <path id="DejaVuSans-30" d="M 2034 4250 
Q 1547 4250 1301 3770 
Q 1056 3291 1056 2328 
Q 1056 1369 1301 889 
Q 1547 409 2034 409 
Q 2525 409 2770 889 
Q 3016 1369 3016 2328 
Q 3016 3291 2770 3770 
Q 2525 4250 2034 4250 
z
M 2034 4750 
Q 2819 4750 3233 4129 
Q 3647 3509 3647 2328 
Q 3647 1150 3233 529 
Q 2819 -91 2034 -91 
Q 1250 -91 836 529 
Q 422 1150 422 2328 
Q 422 3509 836 4129 
Q 1250 4750 2034 4750 
z
" transform="scale(0.015625)"/>
       </defs>
       <use xlink:href="#DejaVuSans-30"/>
      </g>
     </g>
    </g>
    <g id="xtick_3">
     <g id="line2d_5">
      <path d="M 312.624115 293.76 
L 312.624115 3.456 
" clip-path="url(#p76b59d6dc5)" style="fill: none; stroke: #b0b0b0; stroke-width: 0.8; stroke-linecap: square"/>
     </g>
     <g id="line2d_6">
      <g>
       <use xlink:href="#mfe0b5df825" x="312.624115" y="293.76" style="stroke: #000000; stroke-width: 0.8"/>
      </g>
     </g>
     <g id="text_3">
      <!-- 4 -->
      <g transform="translate(306.261615 315.956875) scale(0.2 -0.2)">
       <use xlink:href="#DejaVuSans-34"/>
      </g>
     </g>
    </g>
    <g id="xtick_4">
     <g id="line2d_7">
      <path d="M 416.869693 293.76 
L 416.869693 3.456 
" clip-path="url(#p76b59d6dc5)" style="fill: none; stroke: #b0b0b0; stroke-width: 0.8; stroke-linecap: square"/>
     </g>
     <g id="line2d_8">
      <g>
       <use xlink:href="#mfe0b5df825" x="416.869693" y="293.76" style="stroke: #000000; stroke-width: 0.8"/>
      </g>
     </g>
     <g id="text_4">
      <!-- 8 -->
      <g transform="translate(410.507193 315.956875) scale(0.2 -0.2)">
       <defs>
        <path id="DejaVuSans-38" d="M 2034 2216 
Q 1584 2216 1326 1975 
Q 1069 1734 1069 1313 
Q 1069 891 1326 650 
Q 1584 409 2034 409 
Q 2484 409 2743 651 
Q 3003 894 3003 1313 
Q 3003 1734 2745 1975 
Q 2488 2216 2034 2216 
z
M 1403 2484 
Q 997 2584 770 2862 
Q 544 3141 544 3541 
Q 544 4100 942 4425 
Q 1341 4750 2034 4750 
Q 2731 4750 3128 4425 
Q 3525 4100 3525 3541 
Q 3525 3141 3298 2862 
Q 3072 2584 2669 2484 
Q 3125 2378 3379 2068 
Q 3634 1759 3634 1313 
Q 3634 634 3220 271 
Q 2806 -91 2034 -91 
Q 1263 -91 848 271 
Q 434 634 434 1313 
Q 434 1759 690 2068 
Q 947 2378 1403 2484 
z
M 1172 3481 
Q 1172 3119 1398 2916 
Q 1625 2713 2034 2713 
Q 2441 2713 2670 2916 
Q 2900 3119 2900 3481 
Q 2900 3844 2670 4047 
Q 2441 4250 2034 4250 
Q 1625 4250 1398 4047 
Q 1172 3844 1172 3481 
z
" transform="scale(0.015625)"/>
       </defs>
       <use xlink:href="#DejaVuSans-38"/>
      </g>
     </g>
    </g>
    <g id="text_5">
     <!-- log10 of Df -->
     <g transform="translate(175.214063 339.313125) scale(0.2 -0.2)">
      <defs>
       <path id="DejaVuSans-6c" d="M 603 4863 
L 1178 4863 
L 1178 0 
L 603 0 
L 603 4863 
z
" transform="scale(0.015625)"/>
       <path id="DejaVuSans-6f" d="M 1959 3097 
Q 1497 3097 1228 2736 
Q 959 2375 959 1747 
Q 959 1119 1226 758 
Q 1494 397 1959 397 
Q 2419 397 2687 759 
Q 2956 1122 2956 1747 
Q 2956 2369 2687 2733 
Q 2419 3097 1959 3097 
z
M 1959 3584 
Q 2709 3584 3137 3096 
Q 3566 2609 3566 1747 
Q 3566 888 3137 398 
Q 2709 -91 1959 -91 
Q 1206 -91 779 398 
Q 353 888 353 1747 
Q 353 2609 779 3096 
Q 1206 3584 1959 3584 
z
" transform="scale(0.015625)"/>
       <path id="DejaVuSans-67" d="M 2906 1791 
Q 2906 2416 2648 2759 
Q 2391 3103 1925 3103 
Q 1463 3103 1205 2759 
Q 947 2416 947 1791 
Q 947 1169 1205 825 
Q 1463 481 1925 481 
Q 2391 481 2648 825 
Q 2906 1169 2906 1791 
z
M 3481 434 
Q 3481 -459 3084 -895 
Q 2688 -1331 1869 -1331 
Q 1566 -1331 1297 -1286 
Q 1028 -1241 775 -1147 
L 775 -588 
Q 1028 -725 1275 -790 
Q 1522 -856 1778 -856 
Q 2344 -856 2625 -561 
Q 2906 -266 2906 331 
L 2906 616 
Q 2728 306 2450 153 
Q 2172 0 1784 0 
Q 1141 0 747 490 
Q 353 981 353 1791 
Q 353 2603 747 3093 
Q 1141 3584 1784 3584 
Q 2172 3584 2450 3431 
Q 2728 3278 2906 2969 
L 2906 3500 
L 3481 3500 
L 3481 434 
z
" transform="scale(0.015625)"/>
       <path id="DejaVuSans-31" d="M 794 531 
L 1825 531 
L 1825 4091 
L 703 3866 
L 703 4441 
L 1819 4666 
L 2450 4666 
L 2450 531 
L 3481 531 
L 3481 0 
L 794 0 
L 794 531 
z
" transform="scale(0.015625)"/>
       <path id="DejaVuSans-20" transform="scale(0.015625)"/>
       <path id="DejaVuSans-66" d="M 2375 4863 
L 2375 4384 
L 1825 4384 
Q 1516 4384 1395 4259 
Q 1275 4134 1275 3809 
L 1275 3500 
L 2222 3500 
L 2222 3053 
L 1275 3053 
L 1275 0 
L 697 0 
L 697 3053 
L 147 3053 
L 147 3500 
L 697 3500 
L 697 3744 
Q 697 4328 969 4595 
Q 1241 4863 1831 4863 
L 2375 4863 
z
" transform="scale(0.015625)"/>
       <path id="DejaVuSans-44" d="M 1259 4147 
L 1259 519 
L 2022 519 
Q 2988 519 3436 956 
Q 3884 1394 3884 2338 
Q 3884 3275 3436 3711 
Q 2988 4147 2022 4147 
L 1259 4147 
z
M 628 4666 
L 1925 4666 
Q 3281 4666 3915 4102 
Q 4550 3538 4550 2338 
Q 4550 1131 3912 565 
Q 3275 0 1925 0 
L 628 0 
L 628 4666 
z
" transform="scale(0.015625)"/>
      </defs>
      <use xlink:href="#DejaVuSans-6c"/>
      <use xlink:href="#DejaVuSans-6f" x="27.783203"/>
      <use xlink:href="#DejaVuSans-67" x="88.964844"/>
      <use xlink:href="#DejaVuSans-31" x="152.441406"/>
      <use xlink:href="#DejaVuSans-30" x="216.064453"/>
      <use xlink:href="#DejaVuSans-20" x="279.6875"/>
      <use xlink:href="#DejaVuSans-6f" x="311.474609"/>
      <use xlink:href="#DejaVuSans-66" x="372.65625"/>
      <use xlink:href="#DejaVuSans-20" x="407.861328"/>
      <use xlink:href="#DejaVuSans-44" x="439.648438"/>
      <use xlink:href="#DejaVuSans-66" x="516.650391"/>
     </g>
    </g>
   </g>
   <g id="matplotlib.axis_2">
    <g id="ytick_1">
     <g id="line2d_9">
      <path d="M 0 293.76 
L 460.8 293.76 
" clip-path="url(#p76b59d6dc5)" style="fill: none; stroke: #b0b0b0; stroke-width: 0.8; stroke-linecap: square"/>
     </g>
     <g id="line2d_10">
      <defs>
       <path id="m93851fcb9e" d="M 0 0 
L -3.5 0 
" style="stroke: #000000; stroke-width: 0.8"/>
      </defs>
      <g>
       <use xlink:href="#m93851fcb9e" x="0" y="293.76" style="stroke: #000000; stroke-width: 0.8"/>
      </g>
     </g>
    </g>
    <g id="ytick_2">
     <g id="line2d_11">
      <path d="M 0 236.274059 
L 460.8 236.274059 
" clip-path="url(#p76b59d6dc5)" style="fill: none; stroke: #b0b0b0; stroke-width: 0.8; stroke-linecap: square"/>
     </g>
     <g id="line2d_12">
      <g>
       <use xlink:href="#m93851fcb9e" x="0" y="236.274059" style="stroke: #000000; stroke-width: 0.8"/>
      </g>
     </g>
    </g>
    <g id="ytick_3">
     <g id="line2d_13">
      <path d="M 0 178.788119 
L 460.8 178.788119 
" clip-path="url(#p76b59d6dc5)" style="fill: none; stroke: #b0b0b0; stroke-width: 0.8; stroke-linecap: square"/>
     </g>
     <g id="line2d_14">
      <g>
       <use xlink:href="#m93851fcb9e" x="0" y="178.788119" style="stroke: #000000; stroke-width: 0.8"/>
      </g>
     </g>
    </g>
    <g id="ytick_4">
     <g id="line2d_15">
      <path d="M 0 121.302178 
L 460.8 121.302178 
" clip-path="url(#p76b59d6dc5)" style="fill: none; stroke: #b0b0b0; stroke-width: 0.8; stroke-linecap: square"/>
     </g>
     <g id="line2d_16">
      <g>
       <use xlink:href="#m93851fcb9e" x="0" y="121.302178" style="stroke: #000000; stroke-width: 0.8"/>
      </g>
     </g>
    </g>
    <g id="ytick_5">
     <g id="line2d_17">
      <path d="M 0 63.816238 
L 460.8 63.816238 
" clip-path="url(#p76b59d6dc5)" style="fill: none; stroke: #b0b0b0; stroke-width: 0.8; stroke-linecap: square"/>
     </g>
     <g id="line2d_18">
      <g>
       <use xlink:href="#m93851fcb9e" x="0" y="63.816238" style="stroke: #000000; stroke-width: 0.8"/>
      </g>
     </g>
    </g>
    <g id="ytick_6">
     <g id="line2d_19">
      <path d="M 0 6.330297 
L 460.8 6.330297 
" clip-path="url(#p76b59d6dc5)" style="fill: none; stroke: #b0b0b0; stroke-width: 0.8; stroke-linecap: square"/>
     </g>
     <g id="line2d_20">
      <g>
       <use xlink:href="#m93851fcb9e" x="0" y="6.330297" style="stroke: #000000; stroke-width: 0.8"/>
      </g>
     </g>
    </g>
   </g>
   <g id="line2d_21">
    <path d="M -0.112621 293.76 
L -0.112621 286.095208 
L 73.346563 286.095208 
L 73.346563 282.262812 
L 186.213905 282.262812 
L 186.213905 278.430416 
L 204.209186 278.430416 
L 204.209186 274.59802 
L 210.861105 274.59802 
L 210.861105 270.765624 
L 212.306128 270.765624 
L 212.306128 263.100832 
L 213.433449 263.100832 
L 213.433449 259.268436 
L 214.361576 259.268436 
L 214.361576 255.43604 
L 215.809874 255.43604 
L 215.809874 251.603644 
L 215.966328 251.603644 
L 215.966328 247.771248 
L 216.220316 247.771248 
L 216.290962 240.106455 
L 216.383425 240.106455 
L 216.387868 232.441663 
L 217.166758 232.441663 
L 217.166758 228.609267 
L 217.786171 228.609267 
L 217.786171 224.776871 
L 217.924355 224.776871 
L 217.988376 217.112079 
L 218.67834 217.112079 
L 218.67834 213.279683 
L 218.988811 213.279683 
L 218.988811 209.447287 
L 219.189102 209.447287 
L 219.189102 205.614891 
L 219.591867 205.614891 
L 219.591867 201.782495 
L 220.19532 201.782495 
L 220.19532 197.950099 
L 220.339526 197.950099 
L 220.339526 194.117703 
L 220.640591 194.117703 
L 220.640591 190.285307 
L 221.868974 190.285307 
L 221.97795 182.620515 
L 223.131683 182.620515 
L 223.213016 174.955723 
L 225.992232 174.955723 
L 225.992232 171.123327 
L 226.571586 171.123327 
L 226.571586 167.290931 
L 227.285874 167.290931 
L 227.285874 163.458535 
L 229.453596 163.458535 
L 229.453596 159.626139 
L 230.42102 159.626139 
L 230.508363 151.961347 
L 230.867059 151.961347 
L 230.867059 148.12895 
L 231.499376 148.12895 
L 231.514315 140.464158 
L 232.602798 140.464158 
L 232.602798 136.631762 
L 233.798452 136.631762 
L 233.798452 132.799366 
L 234.164487 132.799366 
L 234.167496 125.134574 
L 234.931533 125.134574 
L 234.956438 117.469782 
L 235.921725 117.469782 
L 235.921725 113.637386 
L 236.135131 113.637386 
L 236.135131 109.80499 
L 236.471748 109.80499 
L 236.471748 105.972594 
L 238.711438 105.972594 
L 238.711438 102.140198 
L 239.135872 102.140198 
L 239.135872 98.307802 
L 241.199479 98.307802 
L 241.199479 94.475406 
L 241.776073 94.475406 
L 241.776073 90.64301 
L 242.93667 90.64301 
L 242.93667 86.810614 
L 243.286347 86.810614 
L 243.286347 82.978218 
L 244.645863 82.978218 
L 244.727288 75.313426 
L 245.573668 75.313426 
L 245.573668 71.48103 
L 246.18549 71.48103 
L 246.18549 67.648634 
L 246.485319 67.648634 
L 246.485319 63.816238 
L 246.752602 63.816238 
L 246.772658 56.151446 
L 247.027928 56.151446 
L 247.13123 36.989465 
L 247.196673 36.989465 
L 247.298471 21.659881 
L 248.236058 21.659881 
L 248.236058 17.827485 
L 249.045672 17.827485 
L 249.045672 13.995089 
L 252.425654 13.995089 
L 252.425654 10.162693 
L 252.693023 10.162693 
L 252.693023 6.330297 
L 252.693023 6.330297 
L 460.8 6.330297 
L 460.8 6.330297 
" clip-path="url(#p76b59d6dc5)" style="fill: none; stroke: #ff0000; stroke-width: 3; stroke-linecap: square"/>
   </g>
   <g id="line2d_22">
    <path d="M 229.935777 293.76 
L 229.935777 289.927604 
L 232.026824 289.927604 
L 232.026824 286.095208 
L 234.97724 286.095208 
L 234.97724 282.262812 
L 235.123792 282.262812 
L 235.123792 278.430416 
L 239.469111 278.430416 
L 239.507644 270.765624 
L 239.771773 270.765624 
L 239.771773 266.933228 
L 241.110788 266.933228 
L 241.110788 263.100832 
L 241.581001 263.100832 
L 241.581001 259.268436 
L 242.392419 259.268436 
L 242.41275 251.603644 
L 242.863885 251.603644 
L 242.863885 247.771248 
L 243.440875 247.771248 
L 243.440875 243.938851 
L 244.158108 243.938851 
L 244.158108 240.106455 
L 244.455833 240.106455 
L 244.455833 236.274059 
L 245.300799 236.274059 
L 245.300799 232.441663 
L 246.626059 232.441663 
L 246.626059 228.609267 
L 248.026436 228.609267 
L 248.026436 224.776871 
L 248.470925 224.776871 
L 248.470925 220.944475 
L 248.602039 220.944475 
L 248.602039 217.112079 
L 250.832709 217.112079 
L 250.832709 213.279683 
L 251.20086 213.279683 
L 251.287847 205.614891 
L 251.903023 205.614891 
L 251.903023 201.782495 
L 252.14914 201.782495 
L 252.206105 194.117703 
L 252.773681 194.117703 
L 252.773681 190.285307 
L 253.747885 190.285307 
L 253.81484 182.620515 
L 253.893134 182.620515 
L 253.893134 178.788119 
L 254.150259 178.788119 
L 254.150259 174.955723 
L 254.265696 174.955723 
L 254.265696 171.123327 
L 254.388454 171.123327 
L 254.454846 163.458535 
L 254.562682 163.458535 
L 254.562682 159.626139 
L 254.849206 159.626139 
L 254.849206 155.793743 
L 255.23568 155.793743 
L 255.23568 151.961347 
L 255.57793 151.961347 
L 255.57793 148.12895 
L 255.691944 148.12895 
L 255.691944 144.296554 
L 255.830033 144.296554 
L 255.937727 128.96697 
L 256.058338 128.96697 
L 256.058338 125.134574 
L 256.230504 125.134574 
L 256.230504 121.302178 
L 256.367324 121.302178 
L 256.382189 113.637386 
L 256.761833 113.637386 
L 256.823649 105.972594 
L 256.938734 105.972594 
L 257.037153 98.307802 
L 257.050825 98.307802 
L 257.050825 94.475406 
L 257.312158 94.475406 
L 257.312158 90.64301 
L 257.875391 90.64301 
L 257.912402 82.978218 
L 258.056311 82.978218 
L 258.056311 79.145822 
L 259.360387 79.145822 
L 259.360387 75.313426 
L 259.592016 75.313426 
L 259.592016 71.48103 
L 259.924296 71.48103 
L 259.924296 67.648634 
L 260.071443 67.648634 
L 260.071443 63.816238 
L 307.908574 63.816238 
L 307.908574 6.330297 
L 307.908574 6.330297 
L 460.8 6.330297 
L 460.8 6.330297 
" clip-path="url(#p76b59d6dc5)" style="fill: none; stroke: #00bfbf; stroke-width: 1.5; stroke-linecap: square"/>
   </g>
   <g id="line2d_23">
    <path d="M 229.912823 293.76 
L 229.912823 289.927604 
L 231.919789 289.927604 
L 231.919789 286.095208 
L 234.859109 286.095208 
L 234.859109 282.262812 
L 235.123792 282.262812 
L 235.123792 278.430416 
L 238.900134 278.430416 
L 238.900134 274.59802 
L 239.263174 274.59802 
L 239.263174 270.765624 
L 239.755495 270.765624 
L 239.755495 266.933228 
L 241.102003 266.933228 
L 241.102003 263.100832 
L 241.454261 263.100832 
L 241.454261 259.268436 
L 242.342523 259.268436 
L 242.39176 251.603644 
L 242.82122 251.603644 
L 242.82122 247.771248 
L 243.311699 247.771248 
L 243.311699 243.938851 
L 244.157853 243.938851 
L 244.157853 240.106455 
L 244.337296 240.106455 
L 244.337296 236.274059 
L 245.075035 236.274059 
L 245.075035 232.441663 
L 246.482921 232.441663 
L 246.482921 228.609267 
L 248.024622 228.609267 
L 248.024622 224.776871 
L 248.469542 224.776871 
L 248.469542 220.944475 
L 248.59741 220.944475 
L 248.59741 217.112079 
L 250.831685 217.112079 
L 250.831685 213.279683 
L 251.179171 213.279683 
L 251.287847 205.614891 
L 251.901944 205.614891 
L 251.901944 201.782495 
L 252.14914 201.782495 
L 252.206105 194.117703 
L 252.77227 194.117703 
L 252.77227 190.285307 
L 253.718811 190.285307 
L 253.81406 182.620515 
L 253.892975 182.620515 
L 253.892975 178.788119 
L 254.148748 178.788119 
L 254.148748 174.955723 
L 254.264883 174.955723 
L 254.264883 171.123327 
L 254.388454 171.123327 
L 254.444705 163.458535 
L 254.562682 163.458535 
L 254.562682 159.626139 
L 254.845967 159.626139 
L 254.845967 155.793743 
L 255.235438 155.793743 
L 255.235438 151.961347 
L 255.576288 151.961347 
L 255.576288 148.12895 
L 255.691944 148.12895 
L 255.691944 144.296554 
L 255.829677 144.296554 
L 255.929484 128.96697 
L 256.05755 128.96697 
L 256.05755 125.134574 
L 256.230504 125.134574 
L 256.230504 121.302178 
L 256.367324 121.302178 
L 256.382189 113.637386 
L 256.756578 113.637386 
L 256.797093 105.972594 
L 256.938734 105.972594 
L 257.037153 98.307802 
L 257.050749 98.307802 
L 257.050749 94.475406 
L 257.312041 94.475406 
L 257.312041 90.64301 
L 257.850266 90.64301 
L 257.875391 82.978218 
L 258.056291 82.978218 
L 258.056291 79.145822 
L 259.324306 79.145822 
L 259.324306 75.313426 
L 259.592016 75.313426 
L 259.592016 71.48103 
L 259.916897 71.48103 
L 259.916897 67.648634 
L 260.056962 67.648634 
L 260.056962 63.816238 
L 307.904547 63.816238 
L 307.908574 6.330297 
L 307.908574 6.330297 
L 460.8 6.330297 
L 460.8 6.330297 
" clip-path="url(#p76b59d6dc5)" style="fill: none; stroke: #bf00bf; stroke-width: 1.5; stroke-linecap: square"/>
   </g>
   <g id="line2d_24">
    <path d="M 228.270901 293.76 
L 228.270901 289.927604 
L 230.796583 289.927604 
L 230.796583 286.095208 
L 232.150988 286.095208 
L 232.150988 282.262812 
L 234.458219 282.262812 
L 234.458219 278.430416 
L 237.226897 278.430416 
L 237.226897 274.59802 
L 237.567237 274.59802 
L 237.567237 270.765624 
L 238.506282 270.765624 
L 238.506282 266.933228 
L 240.746774 266.933228 
L 240.746774 263.100832 
L 241.105623 263.100832 
L 241.105623 259.268436 
L 241.632162 259.268436 
L 241.632162 255.43604 
L 242.385895 255.43604 
L 242.385895 251.603644 
L 242.535008 251.603644 
L 242.608254 243.938851 
L 243.926642 243.938851 
L 243.926642 240.106455 
L 244.051133 240.106455 
L 244.145035 232.441663 
L 246.192367 232.441663 
L 246.192367 228.609267 
L 248.017429 228.609267 
L 248.017429 224.776871 
L 248.457149 224.776871 
L 248.565009 217.112079 
L 250.823788 217.112079 
L 250.909146 209.447287 
L 251.280422 209.447287 
L 251.280422 205.614891 
L 251.888305 205.614891 
L 251.888305 201.782495 
L 252.143488 201.782495 
L 252.194717 194.117703 
L 252.759459 194.117703 
L 252.759459 190.285307 
L 253.56016 190.285307 
L 253.56016 186.452911 
L 253.808005 186.452911 
L 253.889677 178.788119 
L 254.14317 178.788119 
L 254.14317 174.955723 
L 254.259984 174.955723 
L 254.309529 167.290931 
L 254.385014 167.290931 
L 254.435869 159.626139 
L 254.655427 159.626139 
L 254.655427 155.793743 
L 255.233493 155.793743 
L 255.233493 151.961347 
L 255.566188 151.961347 
L 255.566188 148.12895 
L 255.687532 148.12895 
L 255.687532 144.296554 
L 255.800113 144.296554 
L 255.828913 132.799366 
L 255.913049 132.799366 
L 255.913049 128.96697 
L 256.030288 128.96697 
L 256.054347 121.302178 
L 256.245009 121.302178 
L 256.245009 117.469782 
L 256.364172 117.469782 
L 256.364172 113.637386 
L 256.560946 113.637386 
L 256.649214 105.972594 
L 256.935991 105.972594 
L 257.035982 98.307802 
L 257.049936 98.307802 
L 257.049936 94.475406 
L 257.310479 94.475406 
L 257.310479 90.64301 
L 257.619809 90.64301 
L 257.619809 86.810614 
L 257.874353 86.810614 
L 257.874353 82.978218 
L 258.055622 82.978218 
L 258.055622 79.145822 
L 259.228774 79.145822 
L 259.228774 75.313426 
L 259.451696 75.313426 
L 259.451696 71.48103 
L 259.863806 71.48103 
L 259.948635 63.816238 
L 307.886229 63.816238 
L 307.893637 6.330297 
L 307.893637 6.330297 
L 460.8 6.330297 
L 460.8 6.330297 
" clip-path="url(#p76b59d6dc5)" style="fill: none; stroke: #000000; stroke-width: 1.5; stroke-linecap: square"/>
   </g>
   <g id="line2d_25">
    <path d="M 221.677691 293.76 
L 221.677691 289.927604 
L 223.946983 289.927604 
L 223.946983 286.095208 
L 227.342429 286.095208 
L 227.342429 282.262812 
L 229.354096 282.262812 
L 229.354096 278.430416 
L 230.620154 278.430416 
L 230.620154 274.59802 
L 232.813011 274.59802 
L 232.813011 270.765624 
L 233.935221 270.765624 
L 233.935221 266.933228 
L 235.206357 266.933228 
L 235.206357 263.100832 
L 235.668198 263.100832 
L 235.668198 259.268436 
L 236.066862 259.268436 
L 236.066862 255.43604 
L 237.523788 255.43604 
L 237.523788 251.603644 
L 239.249153 251.603644 
L 239.249153 247.771248 
L 241.603305 247.771248 
L 241.603305 243.938851 
L 241.869589 243.938851 
L 241.933511 236.274059 
L 242.92025 236.274059 
L 242.92025 232.441663 
L 245.066155 232.441663 
L 245.066155 228.609267 
L 245.930011 228.609267 
L 245.930011 224.776871 
L 246.790362 224.776871 
L 246.790362 220.944475 
L 247.167774 220.944475 
L 247.167774 217.112079 
L 249.554577 217.112079 
L 249.554577 213.279683 
L 249.924772 213.279683 
L 249.924772 209.447287 
L 250.150577 209.447287 
L 250.150577 205.614891 
L 250.402569 205.614891 
L 250.470219 197.950099 
L 251.205072 197.950099 
L 251.205072 194.117703 
L 251.389406 194.117703 
L 251.389406 190.285307 
L 252.345005 190.285307 
L 252.345005 186.452911 
L 252.928083 186.452911 
L 252.98897 178.788119 
L 253.069667 178.788119 
L 253.132193 171.123327 
L 253.207705 171.123327 
L 253.207705 167.290931 
L 253.338624 167.290931 
L 253.426591 159.626139 
L 253.618229 159.626139 
L 253.682486 148.12895 
L 253.740099 148.12895 
L 253.740099 144.296554 
L 253.980684 144.296554 
L 253.980684 140.464158 
L 254.952274 140.464158 
L 255.055462 128.96697 
L 255.090093 128.96697 
L 255.171609 117.469782 
L 255.312815 117.469782 
L 255.312815 113.637386 
L 255.476321 113.637386 
L 255.476321 109.80499 
L 255.623301 109.80499 
L 255.623301 105.972594 
L 255.811152 105.972594 
L 255.883191 98.307802 
L 255.964626 98.307802 
L 255.964626 94.475406 
L 256.570571 94.475406 
L 256.570571 90.64301 
L 256.863366 90.64301 
L 256.965002 79.145822 
L 257.157019 79.145822 
L 257.157019 75.313426 
L 257.778136 75.313426 
L 257.778136 71.48103 
L 257.958972 71.48103 
L 257.958972 67.648634 
L 258.86503 67.648634 
L 258.86503 63.816238 
L 304.687014 63.816238 
L 304.76535 52.31905 
L 305.160501 52.31905 
L 305.160631 44.654257 
L 305.497238 44.654257 
L 305.497238 40.821861 
L 305.923761 40.821861 
L 305.930976 25.492277 
L 306.1551 25.492277 
L 306.246516 6.330297 
L 306.246516 6.330297 
L 460.8 6.330297 
L 460.8 6.330297 
" clip-path="url(#p76b59d6dc5)" style="fill: none; stroke: #00bfbf; stroke-width: 1.5; stroke-linecap: square"/>
   </g>
   <g id="line2d_26">
    <path d="M 190.074023 293.76 
L 190.074023 289.927604 
L 195.113669 289.927604 
L 195.113669 286.095208 
L 211.166492 286.095208 
L 211.166492 282.262812 
L 212.359 282.262812 
L 212.359 274.59802 
L 215.809874 274.59802 
L 215.809874 270.765624 
L 216.352845 270.765624 
L 216.42346 255.43604 
L 216.872854 255.43604 
L 216.872854 251.603644 
L 217.786821 251.603644 
L 217.786821 247.771248 
L 217.924355 247.771248 
L 217.924355 243.938851 
L 218.67834 243.938851 
L 218.67834 240.106455 
L 219.0004 240.106455 
L 219.0004 236.274059 
L 220.19532 236.274059 
L 220.260233 228.609267 
L 220.339526 228.609267 
L 220.339526 224.776871 
L 220.640591 224.776871 
L 220.640591 220.944475 
L 221.281122 220.944475 
L 221.28652 213.279683 
L 221.868974 213.279683 
L 221.977961 205.614891 
L 222.116434 205.614891 
L 222.116434 201.782495 
L 222.771817 201.782495 
L 222.771817 197.950099 
L 223.213016 197.950099 
L 223.213016 194.117703 
L 223.685839 194.117703 
L 223.685839 190.285307 
L 225.992232 190.285307 
L 225.992232 186.452911 
L 227.233973 186.452911 
L 227.285874 178.788119 
L 227.623712 178.788119 
L 227.623712 174.955723 
L 230.508363 174.955723 
L 230.508363 171.123327 
L 230.867442 171.123327 
L 230.867442 167.290931 
L 231.160864 167.290931 
L 231.160864 163.458535 
L 231.514315 163.458535 
L 231.514315 159.626139 
L 233.34407 159.626139 
L 233.34407 155.793743 
L 233.798452 155.793743 
L 233.798452 151.961347 
L 234.164487 151.961347 
L 234.164487 148.12895 
L 234.956438 148.12895 
L 234.956438 144.296554 
L 235.921725 144.296554 
L 235.921725 140.464158 
L 236.070096 140.464158 
L 236.135131 132.799366 
L 237.496598 132.799366 
L 237.496598 128.96697 
L 239.135872 128.96697 
L 239.135872 125.134574 
L 239.911865 125.134574 
L 239.911865 121.302178 
L 241.419636 121.302178 
L 241.419636 117.469782 
L 241.776073 117.469782 
L 241.776073 113.637386 
L 242.273323 113.637386 
L 242.273323 109.80499 
L 243.937163 109.80499 
L 243.937163 105.972594 
L 244.161626 105.972594 
L 244.161626 102.140198 
L 244.402613 102.140198 
L 244.402613 98.307802 
L 244.659321 98.307802 
L 244.727288 90.64301 
L 245.820057 90.64301 
L 245.820057 86.810614 
L 246.18549 86.810614 
L 246.18549 82.978218 
L 246.49217 82.978218 
L 246.49217 79.145822 
L 246.752602 79.145822 
L 246.752602 75.313426 
L 246.945436 75.313426 
L 247.027928 67.648634 
L 247.125562 67.648634 
L 247.196673 52.31905 
L 247.297447 52.31905 
L 247.366186 40.821861 
L 247.69315 40.821861 
L 247.69315 36.989465 
L 248.236058 36.989465 
L 248.236058 33.157069 
L 248.385937 33.157069 
L 248.385937 29.324673 
L 248.907489 29.324673 
L 248.907489 25.492277 
L 249.059191 25.492277 
L 249.059191 21.659881 
L 250.573113 21.659881 
L 250.573113 17.827485 
L 251.128187 17.827485 
L 251.128187 13.995089 
L 253.004833 13.995089 
L 253.004833 10.162693 
L 254.292769 10.162693 
L 254.292769 6.330297 
L 254.292769 6.330297 
L 460.8 6.330297 
L 460.8 6.330297 
" clip-path="url(#p76b59d6dc5)" style="fill: none; stroke: #bf00bf; stroke-width: 1.5; stroke-linecap: square"/>
   </g>
   <g id="patch_3">
    <path d="M 0 293.76 
L 0 3.456 
" style="fill: none; stroke: #000000; stroke-width: 0.8; stroke-linejoin: miter; stroke-linecap: square"/>
   </g>
   <g id="patch_4">
    <path d="M 460.8 293.76 
L 460.8 3.456 
" style="fill: none; stroke: #000000; stroke-width: 0.8; stroke-linejoin: miter; stroke-linecap: square"/>
   </g>
   <g id="patch_5">
    <path d="M 0 293.76 
L 460.8 293.76 
" style="fill: none; stroke: #000000; stroke-width: 0.8; stroke-linejoin: miter; stroke-linecap: square"/>
   </g>
   <g id="patch_6">
    <path d="M 0 3.456 
L 460.8 3.456 
" style="fill: none; stroke: #000000; stroke-width: 0.8; stroke-linejoin: miter; stroke-linecap: square"/>
   </g>
   <g id="text_6">
    <!-- {f20-f24}, 5-D -->
    <g transform="translate(305.884 287.95392) scale(0.2 -0.2)">
     <defs>
      <path id="DejaVuSans-7b" d="M 3272 -594 
L 3272 -1044 
L 3078 -1044 
Q 2300 -1044 2036 -812 
Q 1772 -581 1772 109 
L 1772 856 
Q 1772 1328 1603 1509 
Q 1434 1691 991 1691 
L 800 1691 
L 800 2138 
L 991 2138 
Q 1438 2138 1605 2317 
Q 1772 2497 1772 2963 
L 1772 3713 
Q 1772 4403 2036 4633 
Q 2300 4863 3078 4863 
L 3272 4863 
L 3272 4416 
L 3059 4416 
Q 2619 4416 2484 4278 
Q 2350 4141 2350 3700 
L 2350 2925 
Q 2350 2434 2208 2212 
Q 2066 1991 1722 1913 
Q 2069 1828 2209 1606 
Q 2350 1384 2350 897 
L 2350 122 
Q 2350 -319 2484 -456 
Q 2619 -594 3059 -594 
L 3272 -594 
z
" transform="scale(0.015625)"/>
      <path id="DejaVuSans-32" d="M 1228 531 
L 3431 531 
L 3431 0 
L 469 0 
L 469 531 
Q 828 903 1448 1529 
Q 2069 2156 2228 2338 
Q 2531 2678 2651 2914 
Q 2772 3150 2772 3378 
Q 2772 3750 2511 3984 
Q 2250 4219 1831 4219 
Q 1534 4219 1204 4116 
Q 875 4013 500 3803 
L 500 4441 
Q 881 4594 1212 4672 
Q 1544 4750 1819 4750 
Q 2544 4750 2975 4387 
Q 3406 4025 3406 3419 
Q 3406 3131 3298 2873 
Q 3191 2616 2906 2266 
Q 2828 2175 2409 1742 
Q 1991 1309 1228 531 
z
" transform="scale(0.015625)"/>
      <path id="DejaVuSans-7d" d="M 800 -594 
L 1019 -594 
Q 1456 -594 1589 -459 
Q 1722 -325 1722 122 
L 1722 897 
Q 1722 1384 1862 1606 
Q 2003 1828 2350 1913 
Q 2003 1991 1862 2212 
Q 1722 2434 1722 2925 
L 1722 3700 
Q 1722 4144 1589 4280 
Q 1456 4416 1019 4416 
L 800 4416 
L 800 4863 
L 997 4863 
Q 1775 4863 2036 4633 
Q 2297 4403 2297 3713 
L 2297 2963 
Q 2297 2497 2465 2317 
Q 2634 2138 3078 2138 
L 3272 2138 
L 3272 1691 
L 3078 1691 
Q 2634 1691 2465 1509 
Q 2297 1328 2297 856 
L 2297 109 
Q 2297 -581 2036 -812 
Q 1775 -1044 997 -1044 
L 800 -1044 
L 800 -594 
z
" transform="scale(0.015625)"/>
      <path id="DejaVuSans-2c" d="M 750 794 
L 1409 794 
L 1409 256 
L 897 -744 
L 494 -744 
L 750 256 
L 750 794 
z
" transform="scale(0.015625)"/>
      <path id="DejaVuSans-35" d="M 691 4666 
L 3169 4666 
L 3169 4134 
L 1269 4134 
L 1269 2991 
Q 1406 3038 1543 3061 
Q 1681 3084 1819 3084 
Q 2600 3084 3056 2656 
Q 3513 2228 3513 1497 
Q 3513 744 3044 326 
Q 2575 -91 1722 -91 
Q 1428 -91 1123 -41 
Q 819 9 494 109 
L 494 744 
Q 775 591 1075 516 
Q 1375 441 1709 441 
Q 2250 441 2565 725 
Q 2881 1009 2881 1497 
Q 2881 1984 2565 2268 
Q 2250 2553 1709 2553 
Q 1456 2553 1204 2497 
Q 953 2441 691 2322 
L 691 4666 
z
" transform="scale(0.015625)"/>
     </defs>
     <use xlink:href="#DejaVuSans-7b"/>
     <use xlink:href="#DejaVuSans-66" x="63.623047"/>
     <use xlink:href="#DejaVuSans-32" x="98.828125"/>
     <use xlink:href="#DejaVuSans-30" x="162.451172"/>
     <use xlink:href="#DejaVuSans-2d" x="226.074219"/>
     <use xlink:href="#DejaVuSans-66" x="262.158203"/>
     <use xlink:href="#DejaVuSans-32" x="297.363281"/>
     <use xlink:href="#DejaVuSans-34" x="360.986328"/>
     <use xlink:href="#DejaVuSans-7d" x="424.609375"/>
     <use xlink:href="#DejaVuSans-2c" x="488.232422"/>
     <use xlink:href="#DejaVuSans-20" x="520.019531"/>
     <use xlink:href="#DejaVuSans-35" x="551.806641"/>
     <use xlink:href="#DejaVuSans-2d" x="615.429688"/>
     <use xlink:href="#DejaVuSans-44" x="651.513672"/>
    </g>
   </g>
   <g id="text_7">
    <!-- v2.6.3 -->
    <g style="fill: #808080" transform="translate(214.71875 288.777272) scale(0.1 -0.1)">
     <defs>
      <path id="DejaVuSans-76" d="M 191 3500 
L 800 3500 
L 1894 563 
L 2988 3500 
L 3597 3500 
L 2284 0 
L 1503 0 
L 191 3500 
z
" transform="scale(0.015625)"/>
      <path id="DejaVuSans-2e" d="M 684 794 
L 1344 794 
L 1344 0 
L 684 0 
L 684 794 
z
" transform="scale(0.015625)"/>
      <path id="DejaVuSans-36" d="M 2113 2584 
Q 1688 2584 1439 2293 
Q 1191 2003 1191 1497 
Q 1191 994 1439 701 
Q 1688 409 2113 409 
Q 2538 409 2786 701 
Q 3034 994 3034 1497 
Q 3034 2003 2786 2293 
Q 2538 2584 2113 2584 
z
M 3366 4563 
L 3366 3988 
Q 3128 4100 2886 4159 
Q 2644 4219 2406 4219 
Q 1781 4219 1451 3797 
Q 1122 3375 1075 2522 
Q 1259 2794 1537 2939 
Q 1816 3084 2150 3084 
Q 2853 3084 3261 2657 
Q 3669 2231 3669 1497 
Q 3669 778 3244 343 
Q 2819 -91 2113 -91 
Q 1303 -91 875 529 
Q 447 1150 447 2328 
Q 447 3434 972 4092 
Q 1497 4750 2381 4750 
Q 2619 4750 2861 4703 
Q 3103 4656 3366 4563 
z
" transform="scale(0.015625)"/>
      <path id="DejaVuSans-33" d="M 2597 2516 
Q 3050 2419 3304 2112 
Q 3559 1806 3559 1356 
Q 3559 666 3084 287 
Q 2609 -91 1734 -91 
Q 1441 -91 1130 -33 
Q 819 25 488 141 
L 488 750 
Q 750 597 1062 519 
Q 1375 441 1716 441 
Q 2309 441 2620 675 
Q 2931 909 2931 1356 
Q 2931 1769 2642 2001 
Q 2353 2234 1838 2234 
L 1294 2234 
L 1294 2753 
L 1863 2753 
Q 2328 2753 2575 2939 
Q 2822 3125 2822 3475 
Q 2822 3834 2567 4026 
Q 2313 4219 1838 4219 
Q 1578 4219 1281 4162 
Q 984 4106 628 3988 
L 628 4550 
Q 988 4650 1302 4700 
Q 1616 4750 1894 4750 
Q 2613 4750 3031 4423 
Q 3450 4097 3450 3541 
Q 3450 3153 3228 2886 
Q 3006 2619 2597 2516 
z
" transform="scale(0.015625)"/>
     </defs>
     <use xlink:href="#DejaVuSans-76"/>
     <use xlink:href="#DejaVuSans-32" x="59.179688"/>
     <use xlink:href="#DejaVuSans-2e" x="122.802734"/>
     <use xlink:href="#DejaVuSans-36" x="154.589844"/>
     <use xlink:href="#DejaVuSans-2e" x="218.212891"/>
     <use xlink:href="#DejaVuSans-33" x="250"/>
    </g>
   </g>
  </g>
 </g>
 <defs>
  <clipPath id="p76b59d6dc5">
   <rect x="0" y="3.456" width="460.8" height="290.304"/>
  </clipPath>
 </defs>
</svg>
