<?xml version="1.0" encoding="utf-8" standalone="no"?>
<!DOCTYPE svg PUBLIC "-//W3C//DTD SVG 1.1//EN"
  "http://www.w3.org/Graphics/SVG/1.1/DTD/svg11.dtd">
<svg xmlns:xlink="http://www.w3.org/1999/xlink" width="460.8pt" height="345.6pt" viewBox="0 0 460.8 345.6" xmlns="http://www.w3.org/2000/svg" version="1.1">
 <metadata>
  <rdf:RDF xmlns:dc="http://purl.org/dc/elements/1.1/" xmlns:cc="http://creativecommons.org/ns#" xmlns:rdf="http://www.w3.org/1999/02/22-rdf-syntax-ns#">
   <cc:Work>
    <dc:type rdf:resource="http://purl.org/dc/dcmitype/StillImage"/>
    <dc:date>2024-01-17T14:59:46.101768</dc:date>
    <dc:format>image/svg+xml</dc:format>
    <dc:creator>
     <cc:Agent>
      <dc:title>Matplotlib v3.8.2, https://matplotlib.org/</dc:title>
     </cc:Agent>
    </dc:creator>
   </cc:Work>
  </rdf:RDF>
 </metadata>
 <defs>
  <style type="text/css">*{stroke-linejoin: round; stroke-linecap: butt}</style>
 </defs>
 <g id="figure_1">
  <g id="patch_1">
   <path d="M 0 345.6 
L 460.8 345.6 
L 460.8 0 
L 0 0 
z
" style="fill: #ffffff"/>
  </g>
  <g id="axes_1">
   <g id="patch_2">
    <path d="M 0 293.76 
L 460.8 293.76 
L 460.8 3.456 
L 0 3.456 
z
" style="fill: #ffffff"/>
   </g>
   <g id="matplotlib.axis_1">
    <g id="xtick_1">
     <g id="line2d_1">
      <path d="M 106.339834 293.76 
L 106.339834 3.456 
" clip-path="url(#p2acc8bece5)" style="fill: none; stroke: #b0b0b0; stroke-width: 0.8; stroke-linecap: square"/>
     </g>
     <g id="line2d_2">
      <defs>
       <path id="mb3c32c9f2c" d="M 0 0 
L 0 3.5 
" style="stroke: #000000; stroke-width: 0.8"/>
      </defs>
      <g>
       <use xlink:href="#mb3c32c9f2c" x="106.339834" y="293.76" style="stroke: #000000; stroke-width: 0.8"/>
      </g>
     </g>
     <g id="text_1">
      <!-- -4 -->
      <g transform="translate(96.369522 315.956875) scale(0.2 -0.2)">
       <defs>
        <path id="DejaVuSans-2d" d="M 313 2009 
L 1997 2009 
L 1997 1497 
L 313 1497 
L 313 2009 
z
" transform="scale(0.015625)"/>
        <path id="DejaVuSans-34" d="M 2419 4116 
L 825 1625 
L 2419 1625 
L 2419 4116 
z
M 2253 4666 
L 3047 4666 
L 3047 1625 
L 3713 1625 
L 3713 1100 
L 3047 1100 
L 3047 0 
L 2419 0 
L 2419 1100 
L 313 1100 
L 313 1709 
L 2253 4666 
z
" transform="scale(0.015625)"/>
       </defs>
       <use xlink:href="#DejaVuSans-2d"/>
       <use xlink:href="#DejaVuSans-34" x="36.083984"/>
      </g>
     </g>
    </g>
    <g id="xtick_2">
     <g id="line2d_3">
      <path d="M 212.794676 293.76 
L 212.794676 3.456 
" clip-path="url(#p2acc8bece5)" style="fill: none; stroke: #b0b0b0; stroke-width: 0.8; stroke-linecap: square"/>
     </g>
     <g id="line2d_4">
      <g>
       <use xlink:href="#mb3c32c9f2c" x="212.794676" y="293.76" style="stroke: #000000; stroke-width: 0.8"/>
      </g>
     </g>
     <g id="text_2">
      <!-- 0 -->
      <g transform="translate(206.432176 315.956875) scale(0.2 -0.2)">
       <defs>
        <path id="DejaVuSans-30" d="M 2034 4250 
Q 1547 4250 1301 3770 
Q 1056 3291 1056 2328 
Q 1056 1369 1301 889 
Q 1547 409 2034 409 
Q 2525 409 2770 889 
Q 3016 1369 3016 2328 
Q 3016 3291 2770 3770 
Q 2525 4250 2034 4250 
z
M 2034 4750 
Q 2819 4750 3233 4129 
Q 3647 3509 3647 2328 
Q 3647 1150 3233 529 
Q 2819 -91 2034 -91 
Q 1250 -91 836 529 
Q 422 1150 422 2328 
Q 422 3509 836 4129 
Q 1250 4750 2034 4750 
z
" transform="scale(0.015625)"/>
       </defs>
       <use xlink:href="#DejaVuSans-30"/>
      </g>
     </g>
    </g>
    <g id="xtick_3">
     <g id="line2d_5">
      <path d="M 319.249518 293.76 
L 319.249518 3.456 
" clip-path="url(#p2acc8bece5)" style="fill: none; stroke: #b0b0b0; stroke-width: 0.8; stroke-linecap: square"/>
     </g>
     <g id="line2d_6">
      <g>
       <use xlink:href="#mb3c32c9f2c" x="319.249518" y="293.76" style="stroke: #000000; stroke-width: 0.8"/>
      </g>
     </g>
     <g id="text_3">
      <!-- 4 -->
      <g transform="translate(312.887018 315.956875) scale(0.2 -0.2)">
       <use xlink:href="#DejaVuSans-34"/>
      </g>
     </g>
    </g>
    <g id="xtick_4">
     <g id="line2d_7">
      <path d="M 425.70436 293.76 
L 425.70436 3.456 
" clip-path="url(#p2acc8bece5)" style="fill: none; stroke: #b0b0b0; stroke-width: 0.8; stroke-linecap: square"/>
     </g>
     <g id="line2d_8">
      <g>
       <use xlink:href="#mb3c32c9f2c" x="425.70436" y="293.76" style="stroke: #000000; stroke-width: 0.8"/>
      </g>
     </g>
     <g id="text_4">
      <!-- 8 -->
      <g transform="translate(419.34186 315.956875) scale(0.2 -0.2)">
       <defs>
        <path id="DejaVuSans-38" d="M 2034 2216 
Q 1584 2216 1326 1975 
Q 1069 1734 1069 1313 
Q 1069 891 1326 650 
Q 1584 409 2034 409 
Q 2484 409 2743 651 
Q 3003 894 3003 1313 
Q 3003 1734 2745 1975 
Q 2488 2216 2034 2216 
z
M 1403 2484 
Q 997 2584 770 2862 
Q 544 3141 544 3541 
Q 544 4100 942 4425 
Q 1341 4750 2034 4750 
Q 2731 4750 3128 4425 
Q 3525 4100 3525 3541 
Q 3525 3141 3298 2862 
Q 3072 2584 2669 2484 
Q 3125 2378 3379 2068 
Q 3634 1759 3634 1313 
Q 3634 634 3220 271 
Q 2806 -91 2034 -91 
Q 1263 -91 848 271 
Q 434 634 434 1313 
Q 434 1759 690 2068 
Q 947 2378 1403 2484 
z
M 1172 3481 
Q 1172 3119 1398 2916 
Q 1625 2713 2034 2713 
Q 2441 2713 2670 2916 
Q 2900 3119 2900 3481 
Q 2900 3844 2670 4047 
Q 2441 4250 2034 4250 
Q 1625 4250 1398 4047 
Q 1172 3844 1172 3481 
z
" transform="scale(0.015625)"/>
       </defs>
       <use xlink:href="#DejaVuSans-38"/>
      </g>
     </g>
    </g>
    <g id="text_5">
     <!-- log10 of Df -->
     <g transform="translate(175.214063 339.313125) scale(0.2 -0.2)">
      <defs>
       <path id="DejaVuSans-6c" d="M 603 4863 
L 1178 4863 
L 1178 0 
L 603 0 
L 603 4863 
z
" transform="scale(0.015625)"/>
       <path id="DejaVuSans-6f" d="M 1959 3097 
Q 1497 3097 1228 2736 
Q 959 2375 959 1747 
Q 959 1119 1226 758 
Q 1494 397 1959 397 
Q 2419 397 2687 759 
Q 2956 1122 2956 1747 
Q 2956 2369 2687 2733 
Q 2419 3097 1959 3097 
z
M 1959 3584 
Q 2709 3584 3137 3096 
Q 3566 2609 3566 1747 
Q 3566 888 3137 398 
Q 2709 -91 1959 -91 
Q 1206 -91 779 398 
Q 353 888 353 1747 
Q 353 2609 779 3096 
Q 1206 3584 1959 3584 
z
" transform="scale(0.015625)"/>
       <path id="DejaVuSans-67" d="M 2906 1791 
Q 2906 2416 2648 2759 
Q 2391 3103 1925 3103 
Q 1463 3103 1205 2759 
Q 947 2416 947 1791 
Q 947 1169 1205 825 
Q 1463 481 1925 481 
Q 2391 481 2648 825 
Q 2906 1169 2906 1791 
z
M 3481 434 
Q 3481 -459 3084 -895 
Q 2688 -1331 1869 -1331 
Q 1566 -1331 1297 -1286 
Q 1028 -1241 775 -1147 
L 775 -588 
Q 1028 -725 1275 -790 
Q 1522 -856 1778 -856 
Q 2344 -856 2625 -561 
Q 2906 -266 2906 331 
L 2906 616 
Q 2728 306 2450 153 
Q 2172 0 1784 0 
Q 1141 0 747 490 
Q 353 981 353 1791 
Q 353 2603 747 3093 
Q 1141 3584 1784 3584 
Q 2172 3584 2450 3431 
Q 2728 3278 2906 2969 
L 2906 3500 
L 3481 3500 
L 3481 434 
z
" transform="scale(0.015625)"/>
       <path id="DejaVuSans-31" d="M 794 531 
L 1825 531 
L 1825 4091 
L 703 3866 
L 703 4441 
L 1819 4666 
L 2450 4666 
L 2450 531 
L 3481 531 
L 3481 0 
L 794 0 
L 794 531 
z
" transform="scale(0.015625)"/>
       <path id="DejaVuSans-20" transform="scale(0.015625)"/>
       <path id="DejaVuSans-66" d="M 2375 4863 
L 2375 4384 
L 1825 4384 
Q 1516 4384 1395 4259 
Q 1275 4134 1275 3809 
L 1275 3500 
L 2222 3500 
L 2222 3053 
L 1275 3053 
L 1275 0 
L 697 0 
L 697 3053 
L 147 3053 
L 147 3500 
L 697 3500 
L 697 3744 
Q 697 4328 969 4595 
Q 1241 4863 1831 4863 
L 2375 4863 
z
" transform="scale(0.015625)"/>
       <path id="DejaVuSans-44" d="M 1259 4147 
L 1259 519 
L 2022 519 
Q 2988 519 3436 956 
Q 3884 1394 3884 2338 
Q 3884 3275 3436 3711 
Q 2988 4147 2022 4147 
L 1259 4147 
z
M 628 4666 
L 1925 4666 
Q 3281 4666 3915 4102 
Q 4550 3538 4550 2338 
Q 4550 1131 3912 565 
Q 3275 0 1925 0 
L 628 0 
L 628 4666 
z
" transform="scale(0.015625)"/>
      </defs>
      <use xlink:href="#DejaVuSans-6c"/>
      <use xlink:href="#DejaVuSans-6f" x="27.783203"/>
      <use xlink:href="#DejaVuSans-67" x="88.964844"/>
      <use xlink:href="#DejaVuSans-31" x="152.441406"/>
      <use xlink:href="#DejaVuSans-30" x="216.064453"/>
      <use xlink:href="#DejaVuSans-20" x="279.6875"/>
      <use xlink:href="#DejaVuSans-6f" x="311.474609"/>
      <use xlink:href="#DejaVuSans-66" x="372.65625"/>
      <use xlink:href="#DejaVuSans-20" x="407.861328"/>
      <use xlink:href="#DejaVuSans-44" x="439.648438"/>
      <use xlink:href="#DejaVuSans-66" x="516.650391"/>
     </g>
    </g>
   </g>
   <g id="matplotlib.axis_2">
    <g id="ytick_1">
     <g id="line2d_9">
      <path d="M 0 293.76 
L 460.8 293.76 
" clip-path="url(#p2acc8bece5)" style="fill: none; stroke: #b0b0b0; stroke-width: 0.8; stroke-linecap: square"/>
     </g>
     <g id="line2d_10">
      <defs>
       <path id="ma511bbcdaf" d="M 0 0 
L -3.5 0 
" style="stroke: #000000; stroke-width: 0.8"/>
      </defs>
      <g>
       <use xlink:href="#ma511bbcdaf" x="0" y="293.76" style="stroke: #000000; stroke-width: 0.8"/>
      </g>
     </g>
    </g>
    <g id="ytick_2">
     <g id="line2d_11">
      <path d="M 0 236.274059 
L 460.8 236.274059 
" clip-path="url(#p2acc8bece5)" style="fill: none; stroke: #b0b0b0; stroke-width: 0.8; stroke-linecap: square"/>
     </g>
     <g id="line2d_12">
      <g>
       <use xlink:href="#ma511bbcdaf" x="0" y="236.274059" style="stroke: #000000; stroke-width: 0.8"/>
      </g>
     </g>
    </g>
    <g id="ytick_3">
     <g id="line2d_13">
      <path d="M 0 178.788119 
L 460.8 178.788119 
" clip-path="url(#p2acc8bece5)" style="fill: none; stroke: #b0b0b0; stroke-width: 0.8; stroke-linecap: square"/>
     </g>
     <g id="line2d_14">
      <g>
       <use xlink:href="#ma511bbcdaf" x="0" y="178.788119" style="stroke: #000000; stroke-width: 0.8"/>
      </g>
     </g>
    </g>
    <g id="ytick_4">
     <g id="line2d_15">
      <path d="M 0 121.302178 
L 460.8 121.302178 
" clip-path="url(#p2acc8bece5)" style="fill: none; stroke: #b0b0b0; stroke-width: 0.8; stroke-linecap: square"/>
     </g>
     <g id="line2d_16">
      <g>
       <use xlink:href="#ma511bbcdaf" x="0" y="121.302178" style="stroke: #000000; stroke-width: 0.8"/>
      </g>
     </g>
    </g>
    <g id="ytick_5">
     <g id="line2d_17">
      <path d="M 0 63.816238 
L 460.8 63.816238 
" clip-path="url(#p2acc8bece5)" style="fill: none; stroke: #b0b0b0; stroke-width: 0.8; stroke-linecap: square"/>
     </g>
     <g id="line2d_18">
      <g>
       <use xlink:href="#ma511bbcdaf" x="0" y="63.816238" style="stroke: #000000; stroke-width: 0.8"/>
      </g>
     </g>
    </g>
    <g id="ytick_6">
     <g id="line2d_19">
      <path d="M 0 6.330297 
L 460.8 6.330297 
" clip-path="url(#p2acc8bece5)" style="fill: none; stroke: #b0b0b0; stroke-width: 0.8; stroke-linecap: square"/>
     </g>
     <g id="line2d_20">
      <g>
       <use xlink:href="#ma511bbcdaf" x="0" y="6.330297" style="stroke: #000000; stroke-width: 0.8"/>
      </g>
     </g>
    </g>
   </g>
   <g id="line2d_21">
    <path d="M 164.822945 293.76 
L 164.918781 282.262812 
L 164.934816 282.262812 
L 165.010437 274.59802 
L 165.230919 274.59802 
L 165.316318 266.933228 
L 165.418117 266.933228 
L 165.418117 263.100832 
L 165.877293 263.100832 
L 165.954102 255.43604 
L 166.353781 255.43604 
L 166.353781 251.603644 
L 167.026155 251.603644 
L 167.026155 247.771248 
L 167.644074 247.771248 
L 167.644074 243.938851 
L 167.938074 243.938851 
L 167.938074 240.106455 
L 168.830789 240.106455 
L 168.830789 236.274059 
L 233.631621 236.274059 
L 233.631621 232.441663 
L 235.414759 232.441663 
L 235.414759 228.609267 
L 235.613193 228.609267 
L 235.66311 220.944475 
L 235.724553 220.944475 
L 235.724553 217.112079 
L 236.098674 217.112079 
L 236.098674 213.279683 
L 238.395338 213.279683 
L 238.395338 209.447287 
L 240.495673 209.447287 
L 240.495673 205.614891 
L 241.583731 205.614891 
L 241.648891 197.950099 
L 242.885534 197.950099 
L 242.885534 194.117703 
L 243.889975 194.117703 
L 243.889975 190.285307 
L 244.246824 190.285307 
L 244.246824 186.452911 
L 249.407715 186.452911 
L 249.407715 182.620515 
L 249.562607 182.620515 
L 249.562607 178.788119 
L 250.608833 178.788119 
L 250.608833 174.955723 
L 252.165326 174.955723 
L 252.165326 171.123327 
L 252.822603 171.123327 
L 252.913511 163.458535 
L 253.157779 163.458535 
L 253.22869 155.793743 
L 253.605859 155.793743 
L 253.605859 151.961347 
L 255.79965 151.961347 
L 255.79965 148.12895 
L 256.53097 148.12895 
L 256.53097 144.296554 
L 257.130519 144.296554 
L 257.130519 140.464158 
L 258.188711 140.464158 
L 258.188711 136.631762 
L 258.465764 136.631762 
L 258.465764 132.799366 
L 260.258663 132.799366 
L 260.258663 128.96697 
L 260.623322 128.96697 
L 260.709534 121.302178 
L 260.750175 121.302178 
L 260.788386 113.637386 
L 261.642445 113.637386 
L 261.750885 105.972594 
L 261.793178 105.972594 
L 261.793178 102.140198 
L 262.193074 102.140198 
L 262.255857 94.475406 
L 262.381577 94.475406 
L 262.381577 90.64301 
L 263.081264 90.64301 
L 263.081264 86.810614 
L 263.27439 86.810614 
L 263.368762 79.145822 
L 263.520292 79.145822 
L 263.520292 75.313426 
L 266.476363 75.313426 
L 266.476363 71.48103 
L 266.959803 71.48103 
L 266.959803 67.648634 
L 267.675583 67.648634 
L 267.675583 63.816238 
L 279.952014 63.816238 
L 279.952014 59.983842 
L 280.786422 59.983842 
L 280.786422 56.151446 
L 283.412112 56.151446 
L 283.412112 52.31905 
L 284.653475 52.31905 
L 284.653475 48.486653 
L 285.160587 48.486653 
L 285.160587 44.654257 
L 285.300105 44.654257 
L 285.300105 40.821861 
L 285.671696 40.821861 
L 285.671696 36.989465 
L 287.179502 36.989465 
L 287.179502 33.157069 
L 287.77625 33.157069 
L 287.77625 29.324673 
L 288.036687 29.324673 
L 288.036687 25.492277 
L 289.05335 25.492277 
L 289.05335 21.659881 
L 289.187284 21.659881 
L 289.187284 17.827485 
L 289.620942 17.827485 
L 289.620942 13.995089 
L 290.053906 13.995089 
L 290.053906 10.162693 
L 292.956059 10.162693 
L 292.956059 6.330297 
L 292.956059 6.330297 
L 460.8 6.330297 
L 460.8 6.330297 
" clip-path="url(#p2acc8bece5)" style="fill: none; stroke: #ff0000; stroke-width: 3; stroke-linecap: square"/>
   </g>
   <g id="line2d_22">
    <path d="M 196.738909 293.76 
L 196.787582 236.274059 
L 240.858087 236.274059 
L 240.858087 232.441663 
L 243.669701 232.441663 
L 243.669701 228.609267 
L 244.127909 228.609267 
L 244.127909 224.776871 
L 244.433804 224.776871 
L 244.467271 217.112079 
L 244.656417 217.112079 
L 244.656417 213.279683 
L 246.408847 213.279683 
L 246.408847 209.447287 
L 246.523868 209.447287 
L 246.523868 205.614891 
L 247.073902 205.614891 
L 247.073902 201.782495 
L 248.291362 201.782495 
L 248.291362 197.950099 
L 249.571608 197.950099 
L 249.673761 186.452911 
L 254.117902 186.452911 
L 254.117902 182.620515 
L 254.551886 182.620515 
L 254.551886 178.788119 
L 256.774958 178.788119 
L 256.774958 174.955723 
L 257.065315 174.955723 
L 257.065315 171.123327 
L 257.297461 171.123327 
L 257.297461 167.290931 
L 258.361042 167.290931 
L 258.361042 163.458535 
L 258.864164 163.458535 
L 258.864164 159.626139 
L 259.205202 159.626139 
L 259.240988 151.961347 
L 259.703954 151.961347 
L 259.703954 148.12895 
L 260.685501 148.12895 
L 260.685501 144.296554 
L 260.975144 144.296554 
L 261.033011 136.631762 
L 261.521314 136.631762 
L 261.521314 132.799366 
L 261.7169 132.799366 
L 261.7169 128.96697 
L 261.851231 128.96697 
L 261.936285 121.302178 
L 262.22998 121.302178 
L 262.22998 117.469782 
L 262.451957 117.469782 
L 262.457367 109.80499 
L 263.277184 109.80499 
L 263.358762 102.140198 
L 263.519028 102.140198 
L 263.605007 90.64301 
L 265.444769 90.64301 
L 265.444769 86.810614 
L 265.634619 86.810614 
L 265.634619 82.978218 
L 266.73124 82.978218 
L 266.73124 79.145822 
L 267.047664 79.145822 
L 267.047664 75.313426 
L 268.04343 75.313426 
L 268.04343 71.48103 
L 271.320355 71.48103 
L 271.320355 67.648634 
L 275.01417 67.648634 
L 275.01417 63.816238 
L 284.534549 63.816238 
L 284.534549 59.983842 
L 285.246264 59.983842 
L 285.246264 56.151446 
L 286.944239 56.151446 
L 286.944239 52.31905 
L 287.519614 52.31905 
L 287.519614 48.486653 
L 287.653686 48.486653 
L 287.653686 44.654257 
L 289.101304 44.654257 
L 289.188214 36.989465 
L 290.280662 36.989465 
L 290.280662 33.157069 
L 290.935492 33.157069 
L 290.935492 29.324673 
L 291.181177 29.324673 
L 291.181177 25.492277 
L 291.580799 25.492277 
L 291.580799 21.659881 
L 291.816116 21.659881 
L 291.816116 17.827485 
L 292.247482 17.827485 
L 292.247482 13.995089 
L 293.526886 13.995089 
L 293.526886 10.162693 
L 295.009101 10.162693 
L 295.009101 6.330297 
L 295.009101 6.330297 
L 460.8 6.330297 
L 460.8 6.330297 
" clip-path="url(#p2acc8bece5)" style="fill: none; stroke: #00bfbf; stroke-width: 1.5; stroke-linecap: square"/>
   </g>
   <g id="line2d_23">
    <path d="M 196.728885 293.76 
L 196.763142 236.274059 
L 240.856444 236.274059 
L 240.856444 232.441663 
L 243.668781 232.441663 
L 243.668781 228.609267 
L 244.127909 228.609267 
L 244.127909 224.776871 
L 244.433029 224.776871 
L 244.467222 217.112079 
L 244.655671 217.112079 
L 244.655671 213.279683 
L 246.408174 213.279683 
L 246.408174 209.447287 
L 246.523868 209.447287 
L 246.523868 205.614891 
L 247.072923 205.614891 
L 247.072923 201.782495 
L 248.290846 201.782495 
L 248.290846 197.950099 
L 249.569017 197.950099 
L 249.672858 186.452911 
L 254.115003 186.452911 
L 254.115003 182.620515 
L 254.551824 182.620515 
L 254.551824 178.788119 
L 256.773829 178.788119 
L 256.773829 174.955723 
L 257.063886 174.955723 
L 257.063886 171.123327 
L 257.278702 171.123327 
L 257.278702 167.290931 
L 258.357 167.290931 
L 258.357 163.458535 
L 258.864164 163.458535 
L 258.864164 159.626139 
L 259.205178 159.626139 
L 259.239402 151.961347 
L 259.701924 151.961347 
L 259.701924 148.12895 
L 260.671522 148.12895 
L 260.671522 144.296554 
L 260.961758 144.296554 
L 261.025058 136.631762 
L 261.519718 136.631762 
L 261.519718 132.799366 
L 261.7169 132.799366 
L 261.7169 128.96697 
L 261.842277 128.96697 
L 261.936285 121.302178 
L 262.22998 121.302178 
L 262.22998 117.469782 
L 262.429139 117.469782 
L 262.451555 109.80499 
L 263.254555 109.80499 
L 263.353859 102.140198 
L 263.5183 102.140198 
L 263.584617 90.64301 
L 265.444236 90.64301 
L 265.444236 86.810614 
L 265.634579 86.810614 
L 265.634579 82.978218 
L 266.730033 82.978218 
L 266.730033 79.145822 
L 267.032187 79.145822 
L 267.032187 75.313426 
L 268.04343 75.313426 
L 268.04343 71.48103 
L 271.318887 71.48103 
L 271.318887 67.648634 
L 275.012785 67.648634 
L 275.012785 63.816238 
L 284.53422 63.816238 
L 284.53422 59.983842 
L 285.245814 59.983842 
L 285.245814 56.151446 
L 286.944239 56.151446 
L 286.944239 52.31905 
L 287.519483 52.31905 
L 287.519483 48.486653 
L 287.653524 48.486653 
L 287.653524 44.654257 
L 289.100461 44.654257 
L 289.187488 36.989465 
L 290.280396 36.989465 
L 290.280396 33.157069 
L 290.935492 33.157069 
L 290.935492 29.324673 
L 291.18079 29.324673 
L 291.18079 25.492277 
L 291.57989 25.492277 
L 291.57989 21.659881 
L 291.815876 21.659881 
L 291.815876 17.827485 
L 292.246743 17.827485 
L 292.246743 13.995089 
L 293.526755 13.995089 
L 293.526755 10.162693 
L 295.00872 10.162693 
L 295.00872 6.330297 
L 295.00872 6.330297 
L 460.8 6.330297 
L 460.8 6.330297 
" clip-path="url(#p2acc8bece5)" style="fill: none; stroke: #bf00bf; stroke-width: 1.5; stroke-linecap: square"/>
   </g>
   <g id="line2d_24">
    <path d="M 196.548495 293.76 
L 196.620578 236.274059 
L 240.847655 236.274059 
L 240.847655 232.441663 
L 243.660715 232.441663 
L 243.660715 228.609267 
L 244.121338 228.609267 
L 244.121338 224.776871 
L 244.428341 224.776871 
L 244.458282 217.112079 
L 244.649668 217.112079 
L 244.649668 213.279683 
L 246.40286 213.279683 
L 246.40286 209.447287 
L 246.516842 209.447287 
L 246.516842 205.614891 
L 247.067617 205.614891 
L 247.067617 201.782495 
L 248.28288 201.782495 
L 248.28288 197.950099 
L 249.558235 197.950099 
L 249.668797 186.452911 
L 254.082121 186.452911 
L 254.082121 182.620515 
L 254.54748 182.620515 
L 254.54748 178.788119 
L 256.762626 178.788119 
L 256.762626 174.955723 
L 257.04309 174.955723 
L 257.04309 171.123327 
L 257.233396 171.123327 
L 257.233396 167.290931 
L 258.32987 167.290931 
L 258.32987 163.458535 
L 258.854306 163.458535 
L 258.854306 159.626139 
L 259.196994 159.626139 
L 259.23079 151.961347 
L 259.68585 151.961347 
L 259.68585 148.12895 
L 260.668153 148.12895 
L 260.668153 144.296554 
L 260.930312 144.296554 
L 260.989312 136.631762 
L 261.504402 136.631762 
L 261.504402 132.799366 
L 261.682421 132.799366 
L 261.785231 125.134574 
L 261.903581 125.134574 
L 261.903581 121.302178 
L 262.22998 121.302178 
L 262.337307 113.637386 
L 262.438783 113.637386 
L 262.438783 109.80499 
L 263.232703 109.80499 
L 263.232703 105.972594 
L 263.345173 105.972594 
L 263.345173 102.140198 
L 263.478902 102.140198 
L 263.584617 90.64301 
L 265.437012 90.64301 
L 265.437012 86.810614 
L 265.625721 86.810614 
L 265.625721 82.978218 
L 266.718832 82.978218 
L 266.718832 79.145822 
L 267.010375 79.145822 
L 267.010375 75.313426 
L 268.029644 75.313426 
L 268.029644 71.48103 
L 271.31028 71.48103 
L 271.31028 67.648634 
L 274.977887 67.648634 
L 274.977887 63.816238 
L 284.527697 63.816238 
L 284.527697 59.983842 
L 285.242042 59.983842 
L 285.242042 56.151446 
L 286.939944 56.151446 
L 286.939944 52.31905 
L 287.514633 52.31905 
L 287.514633 48.486653 
L 287.65048 48.486653 
L 287.65048 44.654257 
L 289.096921 44.654257 
L 289.182908 36.989465 
L 290.27702 36.989465 
L 290.27702 33.157069 
L 290.932686 33.157069 
L 290.932686 29.324673 
L 291.178137 29.324673 
L 291.178137 25.492277 
L 291.575734 25.492277 
L 291.575734 21.659881 
L 291.813958 21.659881 
L 291.813958 17.827485 
L 292.241855 17.827485 
L 292.241855 13.995089 
L 293.524524 13.995089 
L 293.524524 10.162693 
L 295.003655 10.162693 
L 295.003655 6.330297 
L 295.003655 6.330297 
L 460.8 6.330297 
L 460.8 6.330297 
" clip-path="url(#p2acc8bece5)" style="fill: none; stroke: #000000; stroke-width: 1.5; stroke-linecap: square"/>
   </g>
   <g id="line2d_25">
    <path d="M 195.197265 293.76 
L 195.222194 286.095208 
L 195.338484 286.095208 
L 195.449155 266.933228 
L 195.452139 266.933228 
L 195.527672 247.771248 
L 195.629061 247.771248 
L 195.721984 240.106455 
L 195.765921 240.106455 
L 195.765921 236.274059 
L 240.618517 236.274059 
L 240.618517 232.441663 
L 243.515132 232.441663 
L 243.515132 228.609267 
L 243.933638 228.609267 
L 243.933638 224.776871 
L 244.287819 224.776871 
L 244.304423 217.112079 
L 244.483305 217.112079 
L 244.483305 213.279683 
L 246.272397 213.279683 
L 246.272397 209.447287 
L 246.384414 209.447287 
L 246.384414 205.614891 
L 246.91951 205.614891 
L 246.91951 201.782495 
L 248.125776 201.782495 
L 248.125776 197.950099 
L 249.267032 197.950099 
L 249.286024 190.285307 
L 249.538486 190.285307 
L 249.538486 186.452911 
L 253.456492 186.452911 
L 253.456492 182.620515 
L 254.44078 182.620515 
L 254.44078 178.788119 
L 256.493113 178.788119 
L 256.525005 171.123327 
L 257.152706 171.123327 
L 257.152706 167.290931 
L 258.106558 167.290931 
L 258.106558 163.458535 
L 258.551861 163.458535 
L 258.551861 159.626139 
L 258.962259 159.626139 
L 259.028645 151.961347 
L 259.402488 151.961347 
L 259.402488 148.12895 
L 260.634158 148.12895 
L 260.634158 144.296554 
L 260.78485 144.296554 
L 260.816147 136.631762 
L 261.223849 136.631762 
L 261.223849 132.799366 
L 261.66385 132.799366 
L 261.76553 125.134574 
L 261.81432 125.134574 
L 261.81432 121.302178 
L 262.207647 121.302178 
L 262.277099 113.637386 
L 262.40172 113.637386 
L 262.40172 109.80499 
L 262.874656 109.80499 
L 262.874656 105.972594 
L 263.101702 105.972594 
L 263.101702 102.140198 
L 263.293725 102.140198 
L 263.293725 98.307802 
L 263.422585 98.307802 
L 263.422585 94.475406 
L 263.53929 94.475406 
L 263.53929 90.64301 
L 265.233171 90.64301 
L 265.233171 86.810614 
L 265.440481 86.810614 
L 265.440481 82.978218 
L 266.48916 82.978218 
L 266.48916 79.145822 
L 266.977232 79.145822 
L 266.977232 75.313426 
L 267.735965 75.313426 
L 267.735965 71.48103 
L 271.16035 71.48103 
L 271.16035 67.648634 
L 274.282337 67.648634 
L 274.282337 63.816238 
L 284.401856 63.816238 
L 284.401856 59.983842 
L 285.165517 59.983842 
L 285.165517 56.151446 
L 286.848457 56.151446 
L 286.848457 52.31905 
L 287.420612 52.31905 
L 287.420612 48.486653 
L 287.587771 48.486653 
L 287.587771 44.654257 
L 289.003466 44.654257 
L 289.090075 36.989465 
L 290.185509 36.989465 
L 290.185509 33.157069 
L 290.845049 33.157069 
L 290.845049 29.324673 
L 291.11385 29.324673 
L 291.11385 25.492277 
L 291.465176 25.492277 
L 291.465176 21.659881 
L 291.758256 21.659881 
L 291.758256 17.827485 
L 292.135778 17.827485 
L 292.135778 13.995089 
L 293.477672 13.995089 
L 293.477672 10.162693 
L 294.901476 10.162693 
L 294.901476 6.330297 
L 294.901476 6.330297 
L 460.8 6.330297 
L 460.8 6.330297 
" clip-path="url(#p2acc8bece5)" style="fill: none; stroke: #00bfbf; stroke-width: 1.5; stroke-linecap: square"/>
   </g>
   <g id="line2d_26">
    <path d="M 165.501173 293.76 
L 165.501173 289.927604 
L 166.083431 289.927604 
L 166.083431 286.095208 
L 166.593171 286.095208 
L 166.593171 282.262812 
L 167.859371 282.262812 
L 167.859371 278.430416 
L 169.566264 278.430416 
L 169.566264 274.59802 
L 171.491247 274.59802 
L 171.491247 270.765624 
L 172.17535 270.765624 
L 172.17535 266.933228 
L 173.179227 266.933228 
L 173.179227 263.100832 
L 174.712074 263.100832 
L 174.712074 259.268436 
L 175.171773 259.268436 
L 175.171773 255.43604 
L 175.310704 255.43604 
L 175.310704 251.603644 
L 176.193855 251.603644 
L 176.193855 247.771248 
L 179.544873 247.771248 
L 179.544873 243.938851 
L 182.604283 243.938851 
L 182.604283 240.106455 
L 185.2626 240.106455 
L 185.2626 236.274059 
L 234.451652 236.274059 
L 234.451652 232.441663 
L 235.956276 232.441663 
L 235.956276 228.609267 
L 236.220351 228.609267 
L 236.220351 224.776871 
L 236.527044 224.776871 
L 236.527044 220.944475 
L 236.938529 220.944475 
L 236.938529 217.112079 
L 237.217699 217.112079 
L 237.217699 213.279683 
L 241.589349 213.279683 
L 241.589349 209.447287 
L 242.098819 209.447287 
L 242.161491 201.782495 
L 242.407909 201.782495 
L 242.407909 197.950099 
L 243.306639 197.950099 
L 243.306639 194.117703 
L 244.836973 194.117703 
L 244.836973 190.285307 
L 246.083201 190.285307 
L 246.083201 186.452911 
L 249.991979 186.452911 
L 249.991979 182.620515 
L 250.929101 182.620515 
L 250.929101 178.788119 
L 251.21262 178.788119 
L 251.21262 174.955723 
L 252.409966 174.955723 
L 252.409966 171.123327 
L 253.656752 171.123327 
L 253.728112 163.458535 
L 253.823389 163.458535 
L 253.823389 159.626139 
L 254.365886 159.626139 
L 254.365886 155.793743 
L 254.635536 155.793743 
L 254.635536 151.961347 
L 256.49734 151.961347 
L 256.49734 148.12895 
L 256.812437 148.12895 
L 256.812437 144.296554 
L 257.130519 144.296554 
L 257.130519 140.464158 
L 259.374577 140.464158 
L 259.374577 136.631762 
L 259.551835 136.631762 
L 259.551835 132.799366 
L 260.623322 132.799366 
L 260.623322 128.96697 
L 260.750175 128.96697 
L 260.788386 121.302178 
L 261.344847 121.302178 
L 261.344847 117.469782 
L 261.642445 117.469782 
L 261.750885 109.80499 
L 261.793178 109.80499 
L 261.793178 105.972594 
L 262.193074 105.972594 
L 262.255857 98.307802 
L 262.381577 98.307802 
L 262.381577 94.475406 
L 263.081264 94.475406 
L 263.081264 90.64301 
L 263.275183 90.64301 
L 263.368945 82.978218 
L 263.521065 82.978218 
L 263.521065 79.145822 
L 264.570917 79.145822 
L 264.570917 75.313426 
L 266.961005 75.313426 
L 266.961005 71.48103 
L 268.008814 71.48103 
L 268.008814 67.648634 
L 268.52347 67.648634 
L 268.52347 63.816238 
L 280.412092 63.816238 
L 280.412092 59.983842 
L 281.573953 59.983842 
L 281.573953 56.151446 
L 283.664199 56.151446 
L 283.664199 52.31905 
L 284.817693 52.31905 
L 284.817693 48.486653 
L 285.436032 48.486653 
L 285.436032 44.654257 
L 285.597513 44.654257 
L 285.597513 40.821861 
L 286.008903 40.821861 
L 286.008903 36.989465 
L 288.296393 36.989465 
L 288.319426 29.324673 
L 289.184195 29.324673 
L 289.184195 25.492277 
L 289.330353 25.492277 
L 289.330353 21.659881 
L 289.692798 21.659881 
L 289.743156 13.995089 
L 290.16854 13.995089 
L 290.16854 10.162693 
L 293.140053 10.162693 
L 293.140053 6.330297 
L 293.140053 6.330297 
L 460.8 6.330297 
L 460.8 6.330297 
" clip-path="url(#p2acc8bece5)" style="fill: none; stroke: #bf00bf; stroke-width: 1.5; stroke-linecap: square"/>
   </g>
   <g id="patch_3">
    <path d="M 0 293.76 
L 0 3.456 
" style="fill: none; stroke: #000000; stroke-width: 0.8; stroke-linejoin: miter; stroke-linecap: square"/>
   </g>
   <g id="patch_4">
    <path d="M 460.8 293.76 
L 460.8 3.456 
" style="fill: none; stroke: #000000; stroke-width: 0.8; stroke-linejoin: miter; stroke-linecap: square"/>
   </g>
   <g id="patch_5">
    <path d="M 0 293.76 
L 460.8 293.76 
" style="fill: none; stroke: #000000; stroke-width: 0.8; stroke-linejoin: miter; stroke-linecap: square"/>
   </g>
   <g id="patch_6">
    <path d="M 0 3.456 
L 460.8 3.456 
" style="fill: none; stroke: #000000; stroke-width: 0.8; stroke-linejoin: miter; stroke-linecap: square"/>
   </g>
   <g id="text_6">
    <!-- {f15-f19}, 20-D -->
    <g transform="translate(293.159 287.95392) scale(0.2 -0.2)">
     <defs>
      <path id="DejaVuSans-7b" d="M 3272 -594 
L 3272 -1044 
L 3078 -1044 
Q 2300 -1044 2036 -812 
Q 1772 -581 1772 109 
L 1772 856 
Q 1772 1328 1603 1509 
Q 1434 1691 991 1691 
L 800 1691 
L 800 2138 
L 991 2138 
Q 1438 2138 1605 2317 
Q 1772 2497 1772 2963 
L 1772 3713 
Q 1772 4403 2036 4633 
Q 2300 4863 3078 4863 
L 3272 4863 
L 3272 4416 
L 3059 4416 
Q 2619 4416 2484 4278 
Q 2350 4141 2350 3700 
L 2350 2925 
Q 2350 2434 2208 2212 
Q 2066 1991 1722 1913 
Q 2069 1828 2209 1606 
Q 2350 1384 2350 897 
L 2350 122 
Q 2350 -319 2484 -456 
Q 2619 -594 3059 -594 
L 3272 -594 
z
" transform="scale(0.015625)"/>
      <path id="DejaVuSans-35" d="M 691 4666 
L 3169 4666 
L 3169 4134 
L 1269 4134 
L 1269 2991 
Q 1406 3038 1543 3061 
Q 1681 3084 1819 3084 
Q 2600 3084 3056 2656 
Q 3513 2228 3513 1497 
Q 3513 744 3044 326 
Q 2575 -91 1722 -91 
Q 1428 -91 1123 -41 
Q 819 9 494 109 
L 494 744 
Q 775 591 1075 516 
Q 1375 441 1709 441 
Q 2250 441 2565 725 
Q 2881 1009 2881 1497 
Q 2881 1984 2565 2268 
Q 2250 2553 1709 2553 
Q 1456 2553 1204 2497 
Q 953 2441 691 2322 
L 691 4666 
z
" transform="scale(0.015625)"/>
      <path id="DejaVuSans-39" d="M 703 97 
L 703 672 
Q 941 559 1184 500 
Q 1428 441 1663 441 
Q 2288 441 2617 861 
Q 2947 1281 2994 2138 
Q 2813 1869 2534 1725 
Q 2256 1581 1919 1581 
Q 1219 1581 811 2004 
Q 403 2428 403 3163 
Q 403 3881 828 4315 
Q 1253 4750 1959 4750 
Q 2769 4750 3195 4129 
Q 3622 3509 3622 2328 
Q 3622 1225 3098 567 
Q 2575 -91 1691 -91 
Q 1453 -91 1209 -44 
Q 966 3 703 97 
z
M 1959 2075 
Q 2384 2075 2632 2365 
Q 2881 2656 2881 3163 
Q 2881 3666 2632 3958 
Q 2384 4250 1959 4250 
Q 1534 4250 1286 3958 
Q 1038 3666 1038 3163 
Q 1038 2656 1286 2365 
Q 1534 2075 1959 2075 
z
" transform="scale(0.015625)"/>
      <path id="DejaVuSans-7d" d="M 800 -594 
L 1019 -594 
Q 1456 -594 1589 -459 
Q 1722 -325 1722 122 
L 1722 897 
Q 1722 1384 1862 1606 
Q 2003 1828 2350 1913 
Q 2003 1991 1862 2212 
Q 1722 2434 1722 2925 
L 1722 3700 
Q 1722 4144 1589 4280 
Q 1456 4416 1019 4416 
L 800 4416 
L 800 4863 
L 997 4863 
Q 1775 4863 2036 4633 
Q 2297 4403 2297 3713 
L 2297 2963 
Q 2297 2497 2465 2317 
Q 2634 2138 3078 2138 
L 3272 2138 
L 3272 1691 
L 3078 1691 
Q 2634 1691 2465 1509 
Q 2297 1328 2297 856 
L 2297 109 
Q 2297 -581 2036 -812 
Q 1775 -1044 997 -1044 
L 800 -1044 
L 800 -594 
z
" transform="scale(0.015625)"/>
      <path id="DejaVuSans-2c" d="M 750 794 
L 1409 794 
L 1409 256 
L 897 -744 
L 494 -744 
L 750 256 
L 750 794 
z
" transform="scale(0.015625)"/>
      <path id="DejaVuSans-32" d="M 1228 531 
L 3431 531 
L 3431 0 
L 469 0 
L 469 531 
Q 828 903 1448 1529 
Q 2069 2156 2228 2338 
Q 2531 2678 2651 2914 
Q 2772 3150 2772 3378 
Q 2772 3750 2511 3984 
Q 2250 4219 1831 4219 
Q 1534 4219 1204 4116 
Q 875 4013 500 3803 
L 500 4441 
Q 881 4594 1212 4672 
Q 1544 4750 1819 4750 
Q 2544 4750 2975 4387 
Q 3406 4025 3406 3419 
Q 3406 3131 3298 2873 
Q 3191 2616 2906 2266 
Q 2828 2175 2409 1742 
Q 1991 1309 1228 531 
z
" transform="scale(0.015625)"/>
     </defs>
     <use xlink:href="#DejaVuSans-7b"/>
     <use xlink:href="#DejaVuSans-66" x="63.623047"/>
     <use xlink:href="#DejaVuSans-31" x="98.828125"/>
     <use xlink:href="#DejaVuSans-35" x="162.451172"/>
     <use xlink:href="#DejaVuSans-2d" x="226.074219"/>
     <use xlink:href="#DejaVuSans-66" x="262.158203"/>
     <use xlink:href="#DejaVuSans-31" x="297.363281"/>
     <use xlink:href="#DejaVuSans-39" x="360.986328"/>
     <use xlink:href="#DejaVuSans-7d" x="424.609375"/>
     <use xlink:href="#DejaVuSans-2c" x="488.232422"/>
     <use xlink:href="#DejaVuSans-20" x="520.019531"/>
     <use xlink:href="#DejaVuSans-32" x="551.806641"/>
     <use xlink:href="#DejaVuSans-30" x="615.429688"/>
     <use xlink:href="#DejaVuSans-2d" x="679.052734"/>
     <use xlink:href="#DejaVuSans-44" x="715.136719"/>
    </g>
   </g>
   <g id="text_7">
    <!-- v2.6.3 -->
    <g style="fill: #808080" transform="translate(214.71875 288.777272) scale(0.1 -0.1)">
     <defs>
      <path id="DejaVuSans-76" d="M 191 3500 
L 800 3500 
L 1894 563 
L 2988 3500 
L 3597 3500 
L 2284 0 
L 1503 0 
L 191 3500 
z
" transform="scale(0.015625)"/>
      <path id="DejaVuSans-2e" d="M 684 794 
L 1344 794 
L 1344 0 
L 684 0 
L 684 794 
z
" transform="scale(0.015625)"/>
      <path id="DejaVuSans-36" d="M 2113 2584 
Q 1688 2584 1439 2293 
Q 1191 2003 1191 1497 
Q 1191 994 1439 701 
Q 1688 409 2113 409 
Q 2538 409 2786 701 
Q 3034 994 3034 1497 
Q 3034 2003 2786 2293 
Q 2538 2584 2113 2584 
z
M 3366 4563 
L 3366 3988 
Q 3128 4100 2886 4159 
Q 2644 4219 2406 4219 
Q 1781 4219 1451 3797 
Q 1122 3375 1075 2522 
Q 1259 2794 1537 2939 
Q 1816 3084 2150 3084 
Q 2853 3084 3261 2657 
Q 3669 2231 3669 1497 
Q 3669 778 3244 343 
Q 2819 -91 2113 -91 
Q 1303 -91 875 529 
Q 447 1150 447 2328 
Q 447 3434 972 4092 
Q 1497 4750 2381 4750 
Q 2619 4750 2861 4703 
Q 3103 4656 3366 4563 
z
" transform="scale(0.015625)"/>
      <path id="DejaVuSans-33" d="M 2597 2516 
Q 3050 2419 3304 2112 
Q 3559 1806 3559 1356 
Q 3559 666 3084 287 
Q 2609 -91 1734 -91 
Q 1441 -91 1130 -33 
Q 819 25 488 141 
L 488 750 
Q 750 597 1062 519 
Q 1375 441 1716 441 
Q 2309 441 2620 675 
Q 2931 909 2931 1356 
Q 2931 1769 2642 2001 
Q 2353 2234 1838 2234 
L 1294 2234 
L 1294 2753 
L 1863 2753 
Q 2328 2753 2575 2939 
Q 2822 3125 2822 3475 
Q 2822 3834 2567 4026 
Q 2313 4219 1838 4219 
Q 1578 4219 1281 4162 
Q 984 4106 628 3988 
L 628 4550 
Q 988 4650 1302 4700 
Q 1616 4750 1894 4750 
Q 2613 4750 3031 4423 
Q 3450 4097 3450 3541 
Q 3450 3153 3228 2886 
Q 3006 2619 2597 2516 
z
" transform="scale(0.015625)"/>
     </defs>
     <use xlink:href="#DejaVuSans-76"/>
     <use xlink:href="#DejaVuSans-32" x="59.179688"/>
     <use xlink:href="#DejaVuSans-2e" x="122.802734"/>
     <use xlink:href="#DejaVuSans-36" x="154.589844"/>
     <use xlink:href="#DejaVuSans-2e" x="218.212891"/>
     <use xlink:href="#DejaVuSans-33" x="250"/>
    </g>
   </g>
  </g>
 </g>
 <defs>
  <clipPath id="p2acc8bece5">
   <rect x="0" y="3.456" width="460.8" height="290.304"/>
  </clipPath>
 </defs>
</svg>
