<?xml version="1.0" encoding="utf-8" standalone="no"?>
<!DOCTYPE svg PUBLIC "-//W3C//DTD SVG 1.1//EN"
  "http://www.w3.org/Graphics/SVG/1.1/DTD/svg11.dtd">
<svg xmlns:xlink="http://www.w3.org/1999/xlink" width="460.8pt" height="345.6pt" viewBox="0 0 460.8 345.6" xmlns="http://www.w3.org/2000/svg" version="1.1">
 <metadata>
  <rdf:RDF xmlns:dc="http://purl.org/dc/elements/1.1/" xmlns:cc="http://creativecommons.org/ns#" xmlns:rdf="http://www.w3.org/1999/02/22-rdf-syntax-ns#">
   <cc:Work>
    <dc:type rdf:resource="http://purl.org/dc/dcmitype/StillImage"/>
    <dc:date>2024-01-17T14:59:39.792171</dc:date>
    <dc:format>image/svg+xml</dc:format>
    <dc:creator>
     <cc:Agent>
      <dc:title>Matplotlib v3.8.2, https://matplotlib.org/</dc:title>
     </cc:Agent>
    </dc:creator>
   </cc:Work>
  </rdf:RDF>
 </metadata>
 <defs>
  <style type="text/css">*{stroke-linejoin: round; stroke-linecap: butt}</style>
 </defs>
 <g id="figure_1">
  <g id="patch_1">
   <path d="M 0 345.6 
L 460.8 345.6 
L 460.8 0 
L 0 0 
z
" style="fill: #ffffff"/>
  </g>
  <g id="axes_1">
   <g id="patch_2">
    <path d="M 0 293.76 
L 460.8 293.76 
L 460.8 3.456 
L 0 3.456 
z
" style="fill: #ffffff"/>
   </g>
   <g id="matplotlib.axis_1">
    <g id="xtick_1">
     <g id="line2d_1">
      <path d="M 104.132958 293.76 
L 104.132958 3.456 
" clip-path="url(#p19640c2041)" style="fill: none; stroke: #b0b0b0; stroke-width: 0.8; stroke-linecap: square"/>
     </g>
     <g id="line2d_2">
      <defs>
       <path id="md3a4dabf41" d="M 0 0 
L 0 3.5 
" style="stroke: #000000; stroke-width: 0.8"/>
      </defs>
      <g>
       <use xlink:href="#md3a4dabf41" x="104.132958" y="293.76" style="stroke: #000000; stroke-width: 0.8"/>
      </g>
     </g>
     <g id="text_1">
      <!-- -4 -->
      <g transform="translate(94.162645 315.956875) scale(0.2 -0.2)">
       <defs>
        <path id="DejaVuSans-2d" d="M 313 2009 
L 1997 2009 
L 1997 1497 
L 313 1497 
L 313 2009 
z
" transform="scale(0.015625)"/>
        <path id="DejaVuSans-34" d="M 2419 4116 
L 825 1625 
L 2419 1625 
L 2419 4116 
z
M 2253 4666 
L 3047 4666 
L 3047 1625 
L 3713 1625 
L 3713 1100 
L 3047 1100 
L 3047 0 
L 2419 0 
L 2419 1100 
L 313 1100 
L 313 1709 
L 2253 4666 
z
" transform="scale(0.015625)"/>
       </defs>
       <use xlink:href="#DejaVuSans-2d"/>
       <use xlink:href="#DejaVuSans-34" x="36.083984"/>
      </g>
     </g>
    </g>
    <g id="xtick_2">
     <g id="line2d_3">
      <path d="M 208.378536 293.76 
L 208.378536 3.456 
" clip-path="url(#p19640c2041)" style="fill: none; stroke: #b0b0b0; stroke-width: 0.8; stroke-linecap: square"/>
     </g>
     <g id="line2d_4">
      <g>
       <use xlink:href="#md3a4dabf41" x="208.378536" y="293.76" style="stroke: #000000; stroke-width: 0.8"/>
      </g>
     </g>
     <g id="text_2">
      <!-- 0 -->
      <g transform="translate(202.016036 315.956875) scale(0.2 -0.2)">
       <defs>
        <path id="DejaVuSans-30" d="M 2034 4250 
Q 1547 4250 1301 3770 
Q 1056 3291 1056 2328 
Q 1056 1369 1301 889 
Q 1547 409 2034 409 
Q 2525 409 2770 889 
Q 3016 1369 3016 2328 
Q 3016 3291 2770 3770 
Q 2525 4250 2034 4250 
z
M 2034 4750 
Q 2819 4750 3233 4129 
Q 3647 3509 3647 2328 
Q 3647 1150 3233 529 
Q 2819 -91 2034 -91 
Q 1250 -91 836 529 
Q 422 1150 422 2328 
Q 422 3509 836 4129 
Q 1250 4750 2034 4750 
z
" transform="scale(0.015625)"/>
       </defs>
       <use xlink:href="#DejaVuSans-30"/>
      </g>
     </g>
    </g>
    <g id="xtick_3">
     <g id="line2d_5">
      <path d="M 312.624115 293.76 
L 312.624115 3.456 
" clip-path="url(#p19640c2041)" style="fill: none; stroke: #b0b0b0; stroke-width: 0.8; stroke-linecap: square"/>
     </g>
     <g id="line2d_6">
      <g>
       <use xlink:href="#md3a4dabf41" x="312.624115" y="293.76" style="stroke: #000000; stroke-width: 0.8"/>
      </g>
     </g>
     <g id="text_3">
      <!-- 4 -->
      <g transform="translate(306.261615 315.956875) scale(0.2 -0.2)">
       <use xlink:href="#DejaVuSans-34"/>
      </g>
     </g>
    </g>
    <g id="xtick_4">
     <g id="line2d_7">
      <path d="M 416.869693 293.76 
L 416.869693 3.456 
" clip-path="url(#p19640c2041)" style="fill: none; stroke: #b0b0b0; stroke-width: 0.8; stroke-linecap: square"/>
     </g>
     <g id="line2d_8">
      <g>
       <use xlink:href="#md3a4dabf41" x="416.869693" y="293.76" style="stroke: #000000; stroke-width: 0.8"/>
      </g>
     </g>
     <g id="text_4">
      <!-- 8 -->
      <g transform="translate(410.507193 315.956875) scale(0.2 -0.2)">
       <defs>
        <path id="DejaVuSans-38" d="M 2034 2216 
Q 1584 2216 1326 1975 
Q 1069 1734 1069 1313 
Q 1069 891 1326 650 
Q 1584 409 2034 409 
Q 2484 409 2743 651 
Q 3003 894 3003 1313 
Q 3003 1734 2745 1975 
Q 2488 2216 2034 2216 
z
M 1403 2484 
Q 997 2584 770 2862 
Q 544 3141 544 3541 
Q 544 4100 942 4425 
Q 1341 4750 2034 4750 
Q 2731 4750 3128 4425 
Q 3525 4100 3525 3541 
Q 3525 3141 3298 2862 
Q 3072 2584 2669 2484 
Q 3125 2378 3379 2068 
Q 3634 1759 3634 1313 
Q 3634 634 3220 271 
Q 2806 -91 2034 -91 
Q 1263 -91 848 271 
Q 434 634 434 1313 
Q 434 1759 690 2068 
Q 947 2378 1403 2484 
z
M 1172 3481 
Q 1172 3119 1398 2916 
Q 1625 2713 2034 2713 
Q 2441 2713 2670 2916 
Q 2900 3119 2900 3481 
Q 2900 3844 2670 4047 
Q 2441 4250 2034 4250 
Q 1625 4250 1398 4047 
Q 1172 3844 1172 3481 
z
" transform="scale(0.015625)"/>
       </defs>
       <use xlink:href="#DejaVuSans-38"/>
      </g>
     </g>
    </g>
    <g id="text_5">
     <!-- log10 of Df -->
     <g transform="translate(175.214063 339.313125) scale(0.2 -0.2)">
      <defs>
       <path id="DejaVuSans-6c" d="M 603 4863 
L 1178 4863 
L 1178 0 
L 603 0 
L 603 4863 
z
" transform="scale(0.015625)"/>
       <path id="DejaVuSans-6f" d="M 1959 3097 
Q 1497 3097 1228 2736 
Q 959 2375 959 1747 
Q 959 1119 1226 758 
Q 1494 397 1959 397 
Q 2419 397 2687 759 
Q 2956 1122 2956 1747 
Q 2956 2369 2687 2733 
Q 2419 3097 1959 3097 
z
M 1959 3584 
Q 2709 3584 3137 3096 
Q 3566 2609 3566 1747 
Q 3566 888 3137 398 
Q 2709 -91 1959 -91 
Q 1206 -91 779 398 
Q 353 888 353 1747 
Q 353 2609 779 3096 
Q 1206 3584 1959 3584 
z
" transform="scale(0.015625)"/>
       <path id="DejaVuSans-67" d="M 2906 1791 
Q 2906 2416 2648 2759 
Q 2391 3103 1925 3103 
Q 1463 3103 1205 2759 
Q 947 2416 947 1791 
Q 947 1169 1205 825 
Q 1463 481 1925 481 
Q 2391 481 2648 825 
Q 2906 1169 2906 1791 
z
M 3481 434 
Q 3481 -459 3084 -895 
Q 2688 -1331 1869 -1331 
Q 1566 -1331 1297 -1286 
Q 1028 -1241 775 -1147 
L 775 -588 
Q 1028 -725 1275 -790 
Q 1522 -856 1778 -856 
Q 2344 -856 2625 -561 
Q 2906 -266 2906 331 
L 2906 616 
Q 2728 306 2450 153 
Q 2172 0 1784 0 
Q 1141 0 747 490 
Q 353 981 353 1791 
Q 353 2603 747 3093 
Q 1141 3584 1784 3584 
Q 2172 3584 2450 3431 
Q 2728 3278 2906 2969 
L 2906 3500 
L 3481 3500 
L 3481 434 
z
" transform="scale(0.015625)"/>
       <path id="DejaVuSans-31" d="M 794 531 
L 1825 531 
L 1825 4091 
L 703 3866 
L 703 4441 
L 1819 4666 
L 2450 4666 
L 2450 531 
L 3481 531 
L 3481 0 
L 794 0 
L 794 531 
z
" transform="scale(0.015625)"/>
       <path id="DejaVuSans-20" transform="scale(0.015625)"/>
       <path id="DejaVuSans-66" d="M 2375 4863 
L 2375 4384 
L 1825 4384 
Q 1516 4384 1395 4259 
Q 1275 4134 1275 3809 
L 1275 3500 
L 2222 3500 
L 2222 3053 
L 1275 3053 
L 1275 0 
L 697 0 
L 697 3053 
L 147 3053 
L 147 3500 
L 697 3500 
L 697 3744 
Q 697 4328 969 4595 
Q 1241 4863 1831 4863 
L 2375 4863 
z
" transform="scale(0.015625)"/>
       <path id="DejaVuSans-44" d="M 1259 4147 
L 1259 519 
L 2022 519 
Q 2988 519 3436 956 
Q 3884 1394 3884 2338 
Q 3884 3275 3436 3711 
Q 2988 4147 2022 4147 
L 1259 4147 
z
M 628 4666 
L 1925 4666 
Q 3281 4666 3915 4102 
Q 4550 3538 4550 2338 
Q 4550 1131 3912 565 
Q 3275 0 1925 0 
L 628 0 
L 628 4666 
z
" transform="scale(0.015625)"/>
      </defs>
      <use xlink:href="#DejaVuSans-6c"/>
      <use xlink:href="#DejaVuSans-6f" x="27.783203"/>
      <use xlink:href="#DejaVuSans-67" x="88.964844"/>
      <use xlink:href="#DejaVuSans-31" x="152.441406"/>
      <use xlink:href="#DejaVuSans-30" x="216.064453"/>
      <use xlink:href="#DejaVuSans-20" x="279.6875"/>
      <use xlink:href="#DejaVuSans-6f" x="311.474609"/>
      <use xlink:href="#DejaVuSans-66" x="372.65625"/>
      <use xlink:href="#DejaVuSans-20" x="407.861328"/>
      <use xlink:href="#DejaVuSans-44" x="439.648438"/>
      <use xlink:href="#DejaVuSans-66" x="516.650391"/>
     </g>
    </g>
   </g>
   <g id="matplotlib.axis_2">
    <g id="ytick_1">
     <g id="line2d_9">
      <path d="M 0 293.76 
L 460.8 293.76 
" clip-path="url(#p19640c2041)" style="fill: none; stroke: #b0b0b0; stroke-width: 0.8; stroke-linecap: square"/>
     </g>
     <g id="line2d_10">
      <defs>
       <path id="mda5ed0e97a" d="M 0 0 
L -3.5 0 
" style="stroke: #000000; stroke-width: 0.8"/>
      </defs>
      <g>
       <use xlink:href="#mda5ed0e97a" x="0" y="293.76" style="stroke: #000000; stroke-width: 0.8"/>
      </g>
     </g>
    </g>
    <g id="ytick_2">
     <g id="line2d_11">
      <path d="M 0 236.274059 
L 460.8 236.274059 
" clip-path="url(#p19640c2041)" style="fill: none; stroke: #b0b0b0; stroke-width: 0.8; stroke-linecap: square"/>
     </g>
     <g id="line2d_12">
      <g>
       <use xlink:href="#mda5ed0e97a" x="0" y="236.274059" style="stroke: #000000; stroke-width: 0.8"/>
      </g>
     </g>
    </g>
    <g id="ytick_3">
     <g id="line2d_13">
      <path d="M 0 178.788119 
L 460.8 178.788119 
" clip-path="url(#p19640c2041)" style="fill: none; stroke: #b0b0b0; stroke-width: 0.8; stroke-linecap: square"/>
     </g>
     <g id="line2d_14">
      <g>
       <use xlink:href="#mda5ed0e97a" x="0" y="178.788119" style="stroke: #000000; stroke-width: 0.8"/>
      </g>
     </g>
    </g>
    <g id="ytick_4">
     <g id="line2d_15">
      <path d="M 0 121.302178 
L 460.8 121.302178 
" clip-path="url(#p19640c2041)" style="fill: none; stroke: #b0b0b0; stroke-width: 0.8; stroke-linecap: square"/>
     </g>
     <g id="line2d_16">
      <g>
       <use xlink:href="#mda5ed0e97a" x="0" y="121.302178" style="stroke: #000000; stroke-width: 0.8"/>
      </g>
     </g>
    </g>
    <g id="ytick_5">
     <g id="line2d_17">
      <path d="M 0 63.816238 
L 460.8 63.816238 
" clip-path="url(#p19640c2041)" style="fill: none; stroke: #b0b0b0; stroke-width: 0.8; stroke-linecap: square"/>
     </g>
     <g id="line2d_18">
      <g>
       <use xlink:href="#mda5ed0e97a" x="0" y="63.816238" style="stroke: #000000; stroke-width: 0.8"/>
      </g>
     </g>
    </g>
    <g id="ytick_6">
     <g id="line2d_19">
      <path d="M 0 6.330297 
L 460.8 6.330297 
" clip-path="url(#p19640c2041)" style="fill: none; stroke: #b0b0b0; stroke-width: 0.8; stroke-linecap: square"/>
     </g>
     <g id="line2d_20">
      <g>
       <use xlink:href="#mda5ed0e97a" x="0" y="6.330297" style="stroke: #000000; stroke-width: 0.8"/>
      </g>
     </g>
    </g>
   </g>
   <g id="line2d_21">
    <path d="M 106.213858 293.76 
L 106.213858 289.927604 
L 113.027942 289.927604 
L 113.027942 286.095208 
L 115.753674 286.095208 
L 115.753674 282.262812 
L 164.928935 282.262812 
L 164.928935 278.430416 
L 172.253147 278.430416 
L 172.275771 270.765624 
L 172.60681 270.765624 
L 172.60681 266.933228 
L 174.810204 266.933228 
L 174.810204 263.100832 
L 174.956349 263.100832 
L 174.956349 259.268436 
L 183.614943 259.268436 
L 183.614943 255.43604 
L 189.219427 255.43604 
L 189.219427 251.603644 
L 190.971663 251.603644 
L 190.971663 247.771248 
L 200.878618 247.771248 
L 200.878618 243.938851 
L 201.599386 243.938851 
L 201.599386 240.106455 
L 202.46412 240.106455 
L 202.46412 236.274059 
L 202.765912 236.274059 
L 202.765912 232.441663 
L 203.426685 232.441663 
L 203.426685 228.609267 
L 204.148641 228.609267 
L 204.148641 224.776871 
L 208.229665 224.776871 
L 208.229665 220.944475 
L 210.629999 220.944475 
L 210.629999 217.112079 
L 211.840066 217.112079 
L 211.840066 213.279683 
L 213.355477 213.279683 
L 213.355477 209.447287 
L 216.013106 209.447287 
L 216.013106 205.614891 
L 220.215219 205.614891 
L 220.215219 201.782495 
L 221.433816 201.782495 
L 221.433816 197.950099 
L 222.782051 197.950099 
L 222.782051 194.117703 
L 226.473526 194.117703 
L 226.473526 190.285307 
L 231.354873 190.285307 
L 231.354873 186.452911 
L 231.945403 186.452911 
L 231.945403 182.620515 
L 232.859133 182.620515 
L 232.859133 178.788119 
L 233.374702 178.788119 
L 233.374702 174.955723 
L 234.629169 174.955723 
L 234.629169 171.123327 
L 235.574497 171.123327 
L 235.574497 167.290931 
L 236.570647 167.290931 
L 236.570647 163.458535 
L 237.059887 163.458535 
L 237.059887 159.626139 
L 237.393924 159.626139 
L 237.393924 155.793743 
L 237.676645 155.793743 
L 237.676645 151.961347 
L 242.102516 151.961347 
L 242.102516 148.12895 
L 242.578692 148.12895 
L 242.578692 144.296554 
L 243.323765 144.296554 
L 243.323765 140.464158 
L 244.886331 140.464158 
L 244.886331 136.631762 
L 245.285953 136.631762 
L 245.285953 132.799366 
L 246.401455 132.799366 
L 246.401455 128.96697 
L 246.887218 128.96697 
L 246.887218 125.134574 
L 247.185712 125.134574 
L 247.185712 121.302178 
L 247.601857 121.302178 
L 247.601857 117.469782 
L 248.27836 117.469782 
L 248.27836 113.637386 
L 249.342572 113.637386 
L 249.342572 109.80499 
L 250.411955 109.80499 
L 250.411955 105.972594 
L 251.274919 105.972594 
L 251.346651 98.307802 
L 252.949275 98.307802 
L 252.949275 94.475406 
L 256.65081 94.475406 
L 256.65081 90.64301 
L 257.505744 90.64301 
L 257.592198 82.978218 
L 258.313164 82.978218 
L 258.313164 79.145822 
L 258.558092 79.145822 
L 258.597135 71.48103 
L 259.241586 71.48103 
L 259.241586 67.648634 
L 261.200779 67.648634 
L 261.200779 63.816238 
L 263.50086 63.816238 
L 263.50086 59.983842 
L 263.734869 59.983842 
L 263.734869 56.151446 
L 268.170382 56.151446 
L 268.170382 52.31905 
L 268.973086 52.31905 
L 268.973086 48.486653 
L 272.916256 48.486653 
L 272.916256 44.654257 
L 274.321955 44.654257 
L 274.321955 40.821861 
L 275.195991 40.821861 
L 275.282304 33.157069 
L 276.691885 33.157069 
L 276.691885 29.324673 
L 277.066624 29.324673 
L 277.066624 25.492277 
L 279.539752 25.492277 
L 279.539752 21.659881 
L 286.398899 21.659881 
L 286.398899 17.827485 
L 291.200311 17.827485 
L 291.200311 13.995089 
L 321.933046 13.995089 
L 321.933046 10.162693 
L 349.607875 10.162693 
L 349.607875 6.330297 
L 349.607875 6.330297 
L 460.8 6.330297 
L 460.8 6.330297 
" clip-path="url(#p19640c2041)" style="fill: none; stroke: #ff0000; stroke-width: 3; stroke-linecap: square"/>
   </g>
   <g id="line2d_22">
    <path d="M 220.922072 293.76 
L 220.922072 289.927604 
L 225.220185 289.927604 
L 225.220185 286.095208 
L 227.940201 286.095208 
L 227.940201 282.262812 
L 228.255345 282.262812 
L 228.255345 278.430416 
L 241.035613 278.430416 
L 241.035613 274.59802 
L 243.655701 274.59802 
L 243.655701 270.765624 
L 245.081815 270.765624 
L 245.081815 266.933228 
L 245.294352 266.933228 
L 245.294352 263.100832 
L 248.87345 263.100832 
L 248.87345 259.268436 
L 250.73838 259.268436 
L 250.73838 255.43604 
L 251.858793 255.43604 
L 251.858793 251.603644 
L 253.649999 251.603644 
L 253.649999 247.771248 
L 255.389245 247.771248 
L 255.389245 243.938851 
L 259.841265 243.938851 
L 259.841265 240.106455 
L 260.259013 240.106455 
L 260.259013 236.274059 
L 279.785368 236.274059 
L 279.785368 232.441663 
L 282.216176 232.441663 
L 282.216176 228.609267 
L 282.48975 228.609267 
L 282.48975 224.776871 
L 283.817061 224.776871 
L 283.817061 220.944475 
L 284.191829 220.944475 
L 284.201132 213.279683 
L 285.371402 213.279683 
L 285.371402 209.447287 
L 285.801466 209.447287 
L 285.801466 205.614891 
L 287.094489 205.614891 
L 287.094489 201.782495 
L 288.1264 201.782495 
L 288.1264 197.950099 
L 288.407689 197.950099 
L 288.407689 194.117703 
L 289.244856 194.117703 
L 289.244856 190.285307 
L 289.505445 190.285307 
L 289.505445 186.452911 
L 290.392008 186.452911 
L 290.392008 182.620515 
L 293.541034 182.620515 
L 293.541034 178.788119 
L 293.913198 178.788119 
L 293.913198 174.955723 
L 324.719233 174.955723 
L 324.719233 171.123327 
L 328.503217 171.123327 
L 328.503217 167.290931 
L 338.41228 167.290931 
L 338.41228 163.458535 
L 340.458955 163.458535 
L 340.458955 159.626139 
L 352.26276 159.626139 
L 352.26276 155.793743 
L 353.85009 155.793743 
L 353.85009 151.961347 
L 372.597366 151.961347 
L 372.597366 148.12895 
L 372.957719 148.12895 
L 372.957719 144.296554 
L 374.23714 144.296554 
L 374.23714 140.464158 
L 374.42578 140.464158 
L 374.42578 136.631762 
L 375.684122 136.631762 
L 375.684122 132.799366 
L 378.639915 132.799366 
L 378.639915 128.96697 
L 378.812239 128.96697 
L 378.812239 125.134574 
L 379.324107 125.134574 
L 379.324107 121.302178 
L 381.467699 121.302178 
L 381.467699 117.469782 
L 383.236796 117.469782 
L 383.236796 113.637386 
L 383.741185 113.637386 
L 383.741185 109.80499 
L 383.929469 109.80499 
L 383.929469 105.972594 
L 384.86813 105.972594 
L 384.86813 102.140198 
L 385.096044 102.140198 
L 385.096044 98.307802 
L 385.237715 98.307802 
L 385.240518 90.64301 
L 385.791613 90.64301 
L 385.791613 86.810614 
L 386.132182 86.810614 
L 386.132182 82.978218 
L 386.342743 82.978218 
L 386.342743 79.145822 
L 387.501428 79.145822 
L 387.501428 75.313426 
L 391.367292 75.313426 
L 391.367292 71.48103 
L 391.749041 71.48103 
L 391.749041 67.648634 
L 393.170562 67.648634 
L 393.170562 63.816238 
L 393.753419 63.816238 
L 393.753419 59.983842 
L 396.450097 59.983842 
L 396.450097 56.151446 
L 396.831035 56.151446 
L 396.831035 52.31905 
L 398.114327 52.31905 
L 398.114327 48.486653 
L 401.838678 48.486653 
L 401.838678 44.654257 
L 404.238275 44.654257 
L 404.238275 40.821861 
L 406.976525 40.821861 
L 406.976525 36.989465 
L 407.127987 36.989465 
L 407.158532 29.324673 
L 407.682728 29.324673 
L 407.682728 25.492277 
L 411.054397 25.492277 
L 411.054397 21.659881 
L 421.628488 21.659881 
L 421.628488 17.827485 
L 422.480647 17.827485 
L 422.480647 13.995089 
L 431.117248 13.995089 
L 431.117248 10.162693 
L 437.829338 10.162693 
L 437.829338 6.330297 
L 437.829338 6.330297 
L 460.8 6.330297 
L 460.8 6.330297 
" clip-path="url(#p19640c2041)" style="fill: none; stroke: #00bfbf; stroke-width: 1.5; stroke-linecap: square"/>
   </g>
   <g id="line2d_23">
    <path d="M 220.921117 293.76 
L 220.921117 289.927604 
L 225.219214 289.927604 
L 225.219214 286.095208 
L 227.940201 286.095208 
L 227.940201 282.262812 
L 228.254516 282.262812 
L 228.254516 278.430416 
L 241.035613 278.430416 
L 241.035613 274.59802 
L 243.655215 274.59802 
L 243.655215 270.765624 
L 245.080925 270.765624 
L 245.080925 266.933228 
L 245.294293 266.933228 
L 245.294293 263.100832 
L 248.872333 263.100832 
L 248.872333 259.268436 
L 250.737365 259.268436 
L 250.737365 255.43604 
L 251.857225 255.43604 
L 251.857225 251.603644 
L 253.649227 251.603644 
L 253.649227 247.771248 
L 255.387901 247.771248 
L 255.387901 243.938851 
L 259.839867 243.938851 
L 259.839867 240.106455 
L 260.259013 240.106455 
L 260.259013 236.274059 
L 279.785275 236.274059 
L 279.785275 232.441663 
L 282.215617 232.441663 
L 282.215617 228.609267 
L 282.489194 228.609267 
L 282.489194 224.776871 
L 283.816448 224.776871 
L 283.816448 220.944475 
L 284.191829 220.944475 
L 284.201132 213.279683 
L 285.371242 213.279683 
L 285.371242 209.447287 
L 285.801466 209.447287 
L 285.801466 205.614891 
L 287.094435 205.614891 
L 287.094435 201.782495 
L 288.126137 201.782495 
L 288.126137 197.950099 
L 288.407689 197.950099 
L 288.407689 194.117703 
L 289.244856 194.117703 
L 289.244856 190.285307 
L 289.505164 190.285307 
L 289.505164 186.452911 
L 290.3915 186.452911 
L 290.3915 182.620515 
L 293.540808 182.620515 
L 293.540808 178.788119 
L 293.913122 178.788119 
L 293.913122 174.955723 
L 324.719233 174.955723 
L 324.719233 171.123327 
L 328.48556 171.123327 
L 328.48556 167.290931 
L 338.395602 167.290931 
L 338.395602 163.458535 
L 340.458955 163.458535 
L 340.458955 159.626139 
L 352.26276 159.626139 
L 352.26276 155.793743 
L 353.845217 155.793743 
L 353.845217 151.961347 
L 372.596837 151.961347 
L 372.596837 148.12895 
L 372.957524 148.12895 
L 372.957524 144.296554 
L 374.234268 144.296554 
L 374.234268 140.464158 
L 374.42578 140.464158 
L 374.42578 136.631762 
L 375.684122 136.631762 
L 375.684122 132.799366 
L 378.639915 132.799366 
L 378.639915 128.96697 
L 378.809202 128.96697 
L 378.809202 125.134574 
L 379.323456 125.134574 
L 379.323456 121.302178 
L 381.466793 121.302178 
L 381.466793 117.469782 
L 383.236348 117.469782 
L 383.236348 113.637386 
L 383.738502 113.637386 
L 383.738502 109.80499 
L 383.928414 109.80499 
L 383.928414 105.972594 
L 384.8662 105.972594 
L 384.8662 102.140198 
L 385.094859 102.140198 
L 385.094859 98.307802 
L 385.237093 98.307802 
L 385.239972 90.64301 
L 385.791613 90.64301 
L 385.791613 86.810614 
L 386.130718 86.810614 
L 386.130718 82.978218 
L 386.341252 82.978218 
L 386.341252 79.145822 
L 387.50095 79.145822 
L 387.50095 75.313426 
L 391.366341 75.313426 
L 391.366341 71.48103 
L 391.748436 71.48103 
L 391.748436 67.648634 
L 393.169843 67.648634 
L 393.169843 63.816238 
L 393.753353 63.816238 
L 393.753353 59.983842 
L 396.448817 59.983842 
L 396.448817 56.151446 
L 396.83028 56.151446 
L 396.83028 52.31905 
L 398.113347 52.31905 
L 398.113347 48.486653 
L 401.83865 48.486653 
L 401.83865 44.654257 
L 404.237532 44.654257 
L 404.237532 40.821861 
L 406.975151 40.821861 
L 406.975151 36.989465 
L 407.127777 36.989465 
L 407.156302 29.324673 
L 407.681449 29.324673 
L 407.681449 25.492277 
L 411.052522 25.492277 
L 411.052522 21.659881 
L 421.628488 21.659881 
L 421.628488 17.827485 
L 422.479753 17.827485 
L 422.479753 13.995089 
L 431.115168 13.995089 
L 431.115168 10.162693 
L 437.827109 10.162693 
L 437.827109 6.330297 
L 437.827109 6.330297 
L 460.8 6.330297 
L 460.8 6.330297 
" clip-path="url(#p19640c2041)" style="fill: none; stroke: #bf00bf; stroke-width: 1.5; stroke-linecap: square"/>
   </g>
   <g id="line2d_24">
    <path d="M 220.915018 293.76 
L 220.915018 289.927604 
L 225.21039 289.927604 
L 225.21039 286.095208 
L 227.938268 286.095208 
L 227.938268 282.262812 
L 228.24052 282.262812 
L 228.24052 278.430416 
L 241.022252 278.430416 
L 241.022252 274.59802 
L 243.649585 274.59802 
L 243.649585 270.765624 
L 245.071944 270.765624 
L 245.071944 266.933228 
L 245.28879 266.933228 
L 245.28879 263.100832 
L 248.865792 263.100832 
L 248.865792 259.268436 
L 250.732491 259.268436 
L 250.732491 255.43604 
L 251.85189 255.43604 
L 251.85189 251.603644 
L 253.644119 251.603644 
L 253.644119 247.771248 
L 255.381755 247.771248 
L 255.381755 243.938851 
L 259.834204 243.938851 
L 259.834204 240.106455 
L 260.25316 240.106455 
L 260.25316 236.274059 
L 279.781484 236.274059 
L 279.781484 232.441663 
L 282.212297 232.441663 
L 282.212297 228.609267 
L 282.486349 228.609267 
L 282.486349 224.776871 
L 283.29133 224.776871 
L 283.29133 220.944475 
L 283.813378 220.944475 
L 283.813378 217.112079 
L 284.189894 217.112079 
L 284.189894 213.279683 
L 285.36915 213.279683 
L 285.36915 209.447287 
L 285.799385 209.447287 
L 285.799385 205.614891 
L 287.091705 205.614891 
L 287.091705 201.782495 
L 288.122914 201.782495 
L 288.122914 197.950099 
L 288.406034 197.950099 
L 288.406034 194.117703 
L 289.243067 194.117703 
L 289.243067 190.285307 
L 289.502848 190.285307 
L 289.502848 186.452911 
L 290.390046 186.452911 
L 290.390046 182.620515 
L 293.539421 182.620515 
L 293.539421 178.788119 
L 293.9116 178.788119 
L 293.9116 174.955723 
L 324.659654 174.955723 
L 324.659654 171.123327 
L 328.363456 171.123327 
L 328.363456 167.290931 
L 338.353295 167.290931 
L 338.353295 163.458535 
L 340.420494 163.458535 
L 340.420494 159.626139 
L 352.240608 159.626139 
L 352.240608 155.793743 
L 353.809046 155.793743 
L 353.809046 151.961347 
L 372.594815 151.961347 
L 372.594815 148.12895 
L 372.951776 148.12895 
L 372.951776 144.296554 
L 374.224848 144.296554 
L 374.224848 140.464158 
L 374.406289 140.464158 
L 374.406289 136.631762 
L 375.677193 136.631762 
L 375.677193 132.799366 
L 378.63611 132.799366 
L 378.63611 128.96697 
L 378.796856 128.96697 
L 378.796856 125.134574 
L 379.317003 125.134574 
L 379.317003 121.302178 
L 381.461817 121.302178 
L 381.461817 117.469782 
L 383.229293 117.469782 
L 383.229293 113.637386 
L 383.727681 113.637386 
L 383.727681 109.80499 
L 383.915833 109.80499 
L 383.915833 105.972594 
L 384.85956 105.972594 
L 384.85956 102.140198 
L 385.080067 102.140198 
L 385.080067 98.307802 
L 385.229396 98.307802 
L 385.231444 90.64301 
L 385.786165 90.64301 
L 385.786165 86.810614 
L 386.122408 86.810614 
L 386.122408 82.978218 
L 386.334839 82.978218 
L 386.334839 79.145822 
L 387.494836 79.145822 
L 387.494836 75.313426 
L 391.359494 75.313426 
L 391.359494 71.48103 
L 391.742252 71.48103 
L 391.742252 67.648634 
L 393.161299 67.648634 
L 393.161299 63.816238 
L 393.746273 63.816238 
L 393.746273 59.983842 
L 396.443605 59.983842 
L 396.443605 56.151446 
L 396.824153 56.151446 
L 396.824153 52.31905 
L 398.108551 52.31905 
L 398.108551 48.486653 
L 401.835417 48.486653 
L 401.835417 44.654257 
L 404.233188 44.654257 
L 404.233188 40.821861 
L 406.96654 40.821861 
L 406.96654 36.989465 
L 407.124901 36.989465 
L 407.150171 29.324673 
L 407.677661 29.324673 
L 407.677661 25.492277 
L 411.044829 25.492277 
L 411.044829 21.659881 
L 421.619797 21.659881 
L 421.619797 17.827485 
L 422.470225 17.827485 
L 422.470225 13.995089 
L 431.10118 13.995089 
L 431.10118 10.162693 
L 437.817087 10.162693 
L 437.817087 6.330297 
L 437.817087 6.330297 
L 460.8 6.330297 
L 460.8 6.330297 
" clip-path="url(#p19640c2041)" style="fill: none; stroke: #000000; stroke-width: 1.5; stroke-linecap: square"/>
   </g>
   <g id="line2d_25">
    <path d="M 220.086899 293.76 
L 220.086899 289.927604 
L 224.122397 289.927604 
L 224.122397 286.095208 
L 226.548631 286.095208 
L 226.548631 282.262812 
L 227.659529 282.262812 
L 227.659529 278.430416 
L 239.667269 278.430416 
L 239.667269 274.59802 
L 242.871262 274.59802 
L 242.871262 270.765624 
L 243.949068 270.765624 
L 243.949068 266.933228 
L 244.788553 266.933228 
L 244.788553 263.100832 
L 247.987697 263.100832 
L 248.042528 255.43604 
L 249.885038 255.43604 
L 249.885038 251.603644 
L 250.95795 251.603644 
L 250.95795 247.771248 
L 253.010669 247.771248 
L 253.010669 243.938851 
L 254.562624 243.938851 
L 254.562624 240.106455 
L 258.852091 240.106455 
L 258.852091 236.274059 
L 259.255488 236.274059 
L 259.255488 232.441663 
L 279.270441 232.441663 
L 279.270441 228.609267 
L 281.705647 228.609267 
L 281.705647 224.776871 
L 282.077379 224.776871 
L 282.077379 220.944475 
L 283.381658 220.944475 
L 283.381658 217.112079 
L 283.932963 217.112079 
L 283.932963 213.279683 
L 285.145115 213.279683 
L 285.145115 209.447287 
L 285.487706 209.447287 
L 285.487706 205.614891 
L 286.714205 205.614891 
L 286.714205 201.782495 
L 287.806157 201.782495 
L 287.806157 197.950099 
L 288.20427 197.950099 
L 288.20427 194.117703 
L 288.997379 194.117703 
L 288.997379 190.285307 
L 289.234828 190.285307 
L 289.234828 186.452911 
L 290.14387 186.452911 
L 290.14387 182.620515 
L 293.303721 182.620515 
L 293.303721 178.788119 
L 293.697111 178.788119 
L 293.697111 174.955723 
L 305.675499 174.955723 
L 305.675499 171.123327 
L 319.956149 171.123327 
L 319.956149 167.290931 
L 329.599908 167.290931 
L 329.663872 159.626139 
L 348.845058 159.626139 
L 348.845058 155.793743 
L 350.340378 155.793743 
L 350.340378 151.961347 
L 372.037925 151.961347 
L 372.037925 148.12895 
L 372.196493 148.12895 
L 372.196493 144.296554 
L 372.536202 144.296554 
L 372.545426 136.631762 
L 375.112494 136.631762 
L 375.112494 132.799366 
L 376.739984 132.799366 
L 376.739984 128.96697 
L 377.932315 128.96697 
L 377.932315 125.134574 
L 378.311075 125.134574 
L 378.311075 121.302178 
L 380.750613 121.302178 
L 380.750613 117.469782 
L 381.638647 117.469782 
L 381.638647 113.637386 
L 382.116816 113.637386 
L 382.116816 109.80499 
L 382.240891 109.80499 
L 382.240891 105.972594 
L 383.47114 105.972594 
L 383.47114 102.140198 
L 383.760664 102.140198 
L 383.760664 98.307802 
L 384.259912 98.307802 
L 384.259912 94.475406 
L 384.406153 94.475406 
L 384.406153 90.64301 
L 384.685033 90.64301 
L 384.685033 86.810614 
L 385.192865 86.810614 
L 385.206516 79.145822 
L 386.478283 79.145822 
L 386.478283 75.313426 
L 390.379844 75.313426 
L 390.379844 71.48103 
L 390.923619 71.48103 
L 390.923619 67.648634 
L 392.315199 67.648634 
L 392.315199 63.816238 
L 393.041541 63.816238 
L 393.041541 59.983842 
L 395.661677 59.983842 
L 395.661677 56.151446 
L 396.178442 56.151446 
L 396.178442 52.31905 
L 397.410906 52.31905 
L 397.410906 48.486653 
L 401.531948 48.486653 
L 401.531948 44.654257 
L 403.726186 44.654257 
L 403.726186 40.821861 
L 405.761335 40.821861 
L 405.761335 36.989465 
L 406.028322 36.989465 
L 406.028322 33.157069 
L 406.719265 33.157069 
L 406.719265 29.324673 
L 407.044692 29.324673 
L 407.044692 25.492277 
L 409.983626 25.492277 
L 409.983626 21.659881 
L 420.460386 21.659881 
L 420.460386 17.827485 
L 421.131107 17.827485 
L 421.131107 13.995089 
L 429.216065 13.995089 
L 429.216065 10.162693 
L 436.342659 10.162693 
L 436.342659 6.330297 
L 436.342659 6.330297 
L 460.8 6.330297 
L 460.8 6.330297 
" clip-path="url(#p19640c2041)" style="fill: none; stroke: #00bfbf; stroke-width: 1.5; stroke-linecap: square"/>
   </g>
   <g id="line2d_26">
    <path d="M 174.812765 293.76 
L 174.812765 289.927604 
L 180.760622 289.927604 
L 180.760622 286.095208 
L 203.610858 286.095208 
L 203.610858 282.262812 
L 203.954518 282.262812 
L 203.954518 278.430416 
L 204.148642 278.430416 
L 204.148642 274.59802 
L 204.403842 274.59802 
L 204.403842 270.765624 
L 204.736567 270.765624 
L 204.736567 266.933228 
L 210.616058 266.933228 
L 210.616058 263.100832 
L 211.097407 263.100832 
L 211.097407 259.268436 
L 214.749409 259.268436 
L 214.749409 255.43604 
L 215.813306 255.43604 
L 215.813306 251.603644 
L 216.342916 251.603644 
L 216.342916 247.771248 
L 221.289649 247.771248 
L 221.289649 243.938851 
L 224.649993 243.938851 
L 224.649993 240.106455 
L 225.573877 240.106455 
L 225.573877 236.274059 
L 226.473526 236.274059 
L 226.473526 232.441663 
L 233.374702 232.441663 
L 233.374702 228.609267 
L 234.629169 228.609267 
L 234.629169 224.776871 
L 236.570647 224.776871 
L 236.570647 220.944475 
L 237.676645 220.944475 
L 237.676645 217.112079 
L 238.677636 217.112079 
L 238.677636 213.279683 
L 242.102516 213.279683 
L 242.102516 209.447287 
L 242.578692 209.447287 
L 242.578692 205.614891 
L 243.323765 205.614891 
L 243.323765 201.782495 
L 244.886331 201.782495 
L 244.886331 197.950099 
L 246.434691 197.950099 
L 246.434691 194.117703 
L 246.887218 194.117703 
L 246.887218 190.285307 
L 247.185712 190.285307 
L 247.185712 186.452911 
L 248.27836 186.452911 
L 248.27836 182.620515 
L 250.411955 182.620515 
L 250.411955 178.788119 
L 251.346651 178.788119 
L 251.346651 174.955723 
L 252.949275 174.955723 
L 252.949275 171.123327 
L 253.68139 171.123327 
L 253.68139 167.290931 
L 257.778385 167.290931 
L 257.778385 163.458535 
L 258.003702 163.458535 
L 258.003702 159.626139 
L 258.284949 159.626139 
L 258.284949 155.793743 
L 260.401114 155.793743 
L 260.401114 151.961347 
L 260.691478 151.961347 
L 260.691478 148.12895 
L 264.485411 148.12895 
L 264.485411 144.296554 
L 265.95119 144.296554 
L 265.95119 140.464158 
L 269.130853 140.464158 
L 269.130853 136.631762 
L 272.367021 136.631762 
L 272.367021 132.799366 
L 272.679455 132.799366 
L 272.679455 128.96697 
L 273.62079 128.96697 
L 273.62079 125.134574 
L 274.257117 125.134574 
L 274.321957 117.469782 
L 275.144805 117.469782 
L 275.144805 113.637386 
L 275.421152 113.637386 
L 275.421152 109.80499 
L 275.913733 109.80499 
L 275.913733 105.972594 
L 276.234516 105.972594 
L 276.234516 102.140198 
L 277.189758 102.140198 
L 277.189758 98.307802 
L 282.094826 98.307802 
L 282.094826 94.475406 
L 283.756667 94.475406 
L 283.756667 90.64301 
L 287.425376 90.64301 
L 287.425376 86.810614 
L 290.458478 86.810614 
L 290.458478 82.978218 
L 293.192908 82.978218 
L 293.192908 79.145822 
L 294.449183 79.145822 
L 294.449183 75.313426 
L 296.402217 75.313426 
L 296.402217 71.48103 
L 303.318751 71.48103 
L 303.318751 67.648634 
L 310.345294 67.648634 
L 310.345294 63.816238 
L 313.405355 63.816238 
L 313.405355 59.983842 
L 314.97647 59.983842 
L 314.97647 56.151446 
L 321.933046 56.151446 
L 321.933046 52.31905 
L 334.032808 52.31905 
L 334.032808 48.486653 
L 334.686896 48.486653 
L 334.686896 44.654257 
L 342.992133 44.654257 
L 342.992133 40.821861 
L 344.917568 40.821861 
L 344.917568 36.989465 
L 347.315764 36.989465 
L 347.315764 33.157069 
L 354.606241 33.157069 
L 354.606241 29.324673 
L 360.352075 29.324673 
L 360.352075 25.492277 
L 373.932918 25.492277 
L 373.932918 21.659881 
L 374.377291 21.659881 
L 374.377291 17.827485 
L 374.966747 17.827485 
L 374.966747 13.995089 
L 389.856864 13.995089 
L 389.856864 10.162693 
L 395.941134 10.162693 
L 395.941134 6.330297 
L 395.941134 6.330297 
L 460.8 6.330297 
L 460.8 6.330297 
" clip-path="url(#p19640c2041)" style="fill: none; stroke: #bf00bf; stroke-width: 1.5; stroke-linecap: square"/>
   </g>
   <g id="patch_3">
    <path d="M 0 293.76 
L 0 3.456 
" style="fill: none; stroke: #000000; stroke-width: 0.8; stroke-linejoin: miter; stroke-linecap: square"/>
   </g>
   <g id="patch_4">
    <path d="M 460.8 293.76 
L 460.8 3.456 
" style="fill: none; stroke: #000000; stroke-width: 0.8; stroke-linejoin: miter; stroke-linecap: square"/>
   </g>
   <g id="patch_5">
    <path d="M 0 293.76 
L 460.8 293.76 
" style="fill: none; stroke: #000000; stroke-width: 0.8; stroke-linejoin: miter; stroke-linecap: square"/>
   </g>
   <g id="patch_6">
    <path d="M 0 3.456 
L 460.8 3.456 
" style="fill: none; stroke: #000000; stroke-width: 0.8; stroke-linejoin: miter; stroke-linecap: square"/>
   </g>
   <g id="text_6">
    <!-- {f10-f14}, 5-D -->
    <g transform="translate(305.884 287.95392) scale(0.2 -0.2)">
     <defs>
      <path id="DejaVuSans-7b" d="M 3272 -594 
L 3272 -1044 
L 3078 -1044 
Q 2300 -1044 2036 -812 
Q 1772 -581 1772 109 
L 1772 856 
Q 1772 1328 1603 1509 
Q 1434 1691 991 1691 
L 800 1691 
L 800 2138 
L 991 2138 
Q 1438 2138 1605 2317 
Q 1772 2497 1772 2963 
L 1772 3713 
Q 1772 4403 2036 4633 
Q 2300 4863 3078 4863 
L 3272 4863 
L 3272 4416 
L 3059 4416 
Q 2619 4416 2484 4278 
Q 2350 4141 2350 3700 
L 2350 2925 
Q 2350 2434 2208 2212 
Q 2066 1991 1722 1913 
Q 2069 1828 2209 1606 
Q 2350 1384 2350 897 
L 2350 122 
Q 2350 -319 2484 -456 
Q 2619 -594 3059 -594 
L 3272 -594 
z
" transform="scale(0.015625)"/>
      <path id="DejaVuSans-7d" d="M 800 -594 
L 1019 -594 
Q 1456 -594 1589 -459 
Q 1722 -325 1722 122 
L 1722 897 
Q 1722 1384 1862 1606 
Q 2003 1828 2350 1913 
Q 2003 1991 1862 2212 
Q 1722 2434 1722 2925 
L 1722 3700 
Q 1722 4144 1589 4280 
Q 1456 4416 1019 4416 
L 800 4416 
L 800 4863 
L 997 4863 
Q 1775 4863 2036 4633 
Q 2297 4403 2297 3713 
L 2297 2963 
Q 2297 2497 2465 2317 
Q 2634 2138 3078 2138 
L 3272 2138 
L 3272 1691 
L 3078 1691 
Q 2634 1691 2465 1509 
Q 2297 1328 2297 856 
L 2297 109 
Q 2297 -581 2036 -812 
Q 1775 -1044 997 -1044 
L 800 -1044 
L 800 -594 
z
" transform="scale(0.015625)"/>
      <path id="DejaVuSans-2c" d="M 750 794 
L 1409 794 
L 1409 256 
L 897 -744 
L 494 -744 
L 750 256 
L 750 794 
z
" transform="scale(0.015625)"/>
      <path id="DejaVuSans-35" d="M 691 4666 
L 3169 4666 
L 3169 4134 
L 1269 4134 
L 1269 2991 
Q 1406 3038 1543 3061 
Q 1681 3084 1819 3084 
Q 2600 3084 3056 2656 
Q 3513 2228 3513 1497 
Q 3513 744 3044 326 
Q 2575 -91 1722 -91 
Q 1428 -91 1123 -41 
Q 819 9 494 109 
L 494 744 
Q 775 591 1075 516 
Q 1375 441 1709 441 
Q 2250 441 2565 725 
Q 2881 1009 2881 1497 
Q 2881 1984 2565 2268 
Q 2250 2553 1709 2553 
Q 1456 2553 1204 2497 
Q 953 2441 691 2322 
L 691 4666 
z
" transform="scale(0.015625)"/>
     </defs>
     <use xlink:href="#DejaVuSans-7b"/>
     <use xlink:href="#DejaVuSans-66" x="63.623047"/>
     <use xlink:href="#DejaVuSans-31" x="98.828125"/>
     <use xlink:href="#DejaVuSans-30" x="162.451172"/>
     <use xlink:href="#DejaVuSans-2d" x="226.074219"/>
     <use xlink:href="#DejaVuSans-66" x="262.158203"/>
     <use xlink:href="#DejaVuSans-31" x="297.363281"/>
     <use xlink:href="#DejaVuSans-34" x="360.986328"/>
     <use xlink:href="#DejaVuSans-7d" x="424.609375"/>
     <use xlink:href="#DejaVuSans-2c" x="488.232422"/>
     <use xlink:href="#DejaVuSans-20" x="520.019531"/>
     <use xlink:href="#DejaVuSans-35" x="551.806641"/>
     <use xlink:href="#DejaVuSans-2d" x="615.429688"/>
     <use xlink:href="#DejaVuSans-44" x="651.513672"/>
    </g>
   </g>
   <g id="text_7">
    <!-- v2.6.3 -->
    <g style="fill: #808080" transform="translate(214.71875 288.777272) scale(0.1 -0.1)">
     <defs>
      <path id="DejaVuSans-76" d="M 191 3500 
L 800 3500 
L 1894 563 
L 2988 3500 
L 3597 3500 
L 2284 0 
L 1503 0 
L 191 3500 
z
" transform="scale(0.015625)"/>
      <path id="DejaVuSans-32" d="M 1228 531 
L 3431 531 
L 3431 0 
L 469 0 
L 469 531 
Q 828 903 1448 1529 
Q 2069 2156 2228 2338 
Q 2531 2678 2651 2914 
Q 2772 3150 2772 3378 
Q 2772 3750 2511 3984 
Q 2250 4219 1831 4219 
Q 1534 4219 1204 4116 
Q 875 4013 500 3803 
L 500 4441 
Q 881 4594 1212 4672 
Q 1544 4750 1819 4750 
Q 2544 4750 2975 4387 
Q 3406 4025 3406 3419 
Q 3406 3131 3298 2873 
Q 3191 2616 2906 2266 
Q 2828 2175 2409 1742 
Q 1991 1309 1228 531 
z
" transform="scale(0.015625)"/>
      <path id="DejaVuSans-2e" d="M 684 794 
L 1344 794 
L 1344 0 
L 684 0 
L 684 794 
z
" transform="scale(0.015625)"/>
      <path id="DejaVuSans-36" d="M 2113 2584 
Q 1688 2584 1439 2293 
Q 1191 2003 1191 1497 
Q 1191 994 1439 701 
Q 1688 409 2113 409 
Q 2538 409 2786 701 
Q 3034 994 3034 1497 
Q 3034 2003 2786 2293 
Q 2538 2584 2113 2584 
z
M 3366 4563 
L 3366 3988 
Q 3128 4100 2886 4159 
Q 2644 4219 2406 4219 
Q 1781 4219 1451 3797 
Q 1122 3375 1075 2522 
Q 1259 2794 1537 2939 
Q 1816 3084 2150 3084 
Q 2853 3084 3261 2657 
Q 3669 2231 3669 1497 
Q 3669 778 3244 343 
Q 2819 -91 2113 -91 
Q 1303 -91 875 529 
Q 447 1150 447 2328 
Q 447 3434 972 4092 
Q 1497 4750 2381 4750 
Q 2619 4750 2861 4703 
Q 3103 4656 3366 4563 
z
" transform="scale(0.015625)"/>
      <path id="DejaVuSans-33" d="M 2597 2516 
Q 3050 2419 3304 2112 
Q 3559 1806 3559 1356 
Q 3559 666 3084 287 
Q 2609 -91 1734 -91 
Q 1441 -91 1130 -33 
Q 819 25 488 141 
L 488 750 
Q 750 597 1062 519 
Q 1375 441 1716 441 
Q 2309 441 2620 675 
Q 2931 909 2931 1356 
Q 2931 1769 2642 2001 
Q 2353 2234 1838 2234 
L 1294 2234 
L 1294 2753 
L 1863 2753 
Q 2328 2753 2575 2939 
Q 2822 3125 2822 3475 
Q 2822 3834 2567 4026 
Q 2313 4219 1838 4219 
Q 1578 4219 1281 4162 
Q 984 4106 628 3988 
L 628 4550 
Q 988 4650 1302 4700 
Q 1616 4750 1894 4750 
Q 2613 4750 3031 4423 
Q 3450 4097 3450 3541 
Q 3450 3153 3228 2886 
Q 3006 2619 2597 2516 
z
" transform="scale(0.015625)"/>
     </defs>
     <use xlink:href="#DejaVuSans-76"/>
     <use xlink:href="#DejaVuSans-32" x="59.179688"/>
     <use xlink:href="#DejaVuSans-2e" x="122.802734"/>
     <use xlink:href="#DejaVuSans-36" x="154.589844"/>
     <use xlink:href="#DejaVuSans-2e" x="218.212891"/>
     <use xlink:href="#DejaVuSans-33" x="250"/>
    </g>
   </g>
  </g>
 </g>
 <defs>
  <clipPath id="p19640c2041">
   <rect x="0" y="3.456" width="460.8" height="290.304"/>
  </clipPath>
 </defs>
</svg>
