<?xml version="1.0" encoding="utf-8" standalone="no"?>
<!DOCTYPE svg PUBLIC "-//W3C//DTD SVG 1.1//EN"
  "http://www.w3.org/Graphics/SVG/1.1/DTD/svg11.dtd">
<svg xmlns:xlink="http://www.w3.org/1999/xlink" width="460.8pt" height="345.6pt" viewBox="0 0 460.8 345.6" xmlns="http://www.w3.org/2000/svg" version="1.1">
 <metadata>
  <rdf:RDF xmlns:dc="http://purl.org/dc/elements/1.1/" xmlns:cc="http://creativecommons.org/ns#" xmlns:rdf="http://www.w3.org/1999/02/22-rdf-syntax-ns#">
   <cc:Work>
    <dc:type rdf:resource="http://purl.org/dc/dcmitype/StillImage"/>
    <dc:date>2024-01-17T14:59:43.351825</dc:date>
    <dc:format>image/svg+xml</dc:format>
    <dc:creator>
     <cc:Agent>
      <dc:title>Matplotlib v3.8.2, https://matplotlib.org/</dc:title>
     </cc:Agent>
    </dc:creator>
   </cc:Work>
  </rdf:RDF>
 </metadata>
 <defs>
  <style type="text/css">*{stroke-linejoin: round; stroke-linecap: butt}</style>
 </defs>
 <g id="figure_1">
  <g id="patch_1">
   <path d="M 0 345.6 
L 460.8 345.6 
L 460.8 0 
L 0 0 
z
" style="fill: #ffffff"/>
  </g>
  <g id="axes_1">
   <g id="patch_2">
    <path d="M 0 293.76 
L 460.8 293.76 
L 460.8 3.456 
L 0 3.456 
z
" style="fill: #ffffff"/>
   </g>
   <g id="matplotlib.axis_1">
    <g id="xtick_1">
     <g id="line2d_1">
      <path d="M 106.339834 293.76 
L 106.339834 3.456 
" clip-path="url(#pd0712597ae)" style="fill: none; stroke: #b0b0b0; stroke-width: 0.8; stroke-linecap: square"/>
     </g>
     <g id="line2d_2">
      <defs>
       <path id="m0943ae5411" d="M 0 0 
L 0 3.5 
" style="stroke: #000000; stroke-width: 0.8"/>
      </defs>
      <g>
       <use xlink:href="#m0943ae5411" x="106.339834" y="293.76" style="stroke: #000000; stroke-width: 0.8"/>
      </g>
     </g>
     <g id="text_1">
      <!-- -4 -->
      <g transform="translate(96.369522 315.956875) scale(0.2 -0.2)">
       <defs>
        <path id="DejaVuSans-2d" d="M 313 2009 
L 1997 2009 
L 1997 1497 
L 313 1497 
L 313 2009 
z
" transform="scale(0.015625)"/>
        <path id="DejaVuSans-34" d="M 2419 4116 
L 825 1625 
L 2419 1625 
L 2419 4116 
z
M 2253 4666 
L 3047 4666 
L 3047 1625 
L 3713 1625 
L 3713 1100 
L 3047 1100 
L 3047 0 
L 2419 0 
L 2419 1100 
L 313 1100 
L 313 1709 
L 2253 4666 
z
" transform="scale(0.015625)"/>
       </defs>
       <use xlink:href="#DejaVuSans-2d"/>
       <use xlink:href="#DejaVuSans-34" x="36.083984"/>
      </g>
     </g>
    </g>
    <g id="xtick_2">
     <g id="line2d_3">
      <path d="M 212.794676 293.76 
L 212.794676 3.456 
" clip-path="url(#pd0712597ae)" style="fill: none; stroke: #b0b0b0; stroke-width: 0.8; stroke-linecap: square"/>
     </g>
     <g id="line2d_4">
      <g>
       <use xlink:href="#m0943ae5411" x="212.794676" y="293.76" style="stroke: #000000; stroke-width: 0.8"/>
      </g>
     </g>
     <g id="text_2">
      <!-- 0 -->
      <g transform="translate(206.432176 315.956875) scale(0.2 -0.2)">
       <defs>
        <path id="DejaVuSans-30" d="M 2034 4250 
Q 1547 4250 1301 3770 
Q 1056 3291 1056 2328 
Q 1056 1369 1301 889 
Q 1547 409 2034 409 
Q 2525 409 2770 889 
Q 3016 1369 3016 2328 
Q 3016 3291 2770 3770 
Q 2525 4250 2034 4250 
z
M 2034 4750 
Q 2819 4750 3233 4129 
Q 3647 3509 3647 2328 
Q 3647 1150 3233 529 
Q 2819 -91 2034 -91 
Q 1250 -91 836 529 
Q 422 1150 422 2328 
Q 422 3509 836 4129 
Q 1250 4750 2034 4750 
z
" transform="scale(0.015625)"/>
       </defs>
       <use xlink:href="#DejaVuSans-30"/>
      </g>
     </g>
    </g>
    <g id="xtick_3">
     <g id="line2d_5">
      <path d="M 319.249518 293.76 
L 319.249518 3.456 
" clip-path="url(#pd0712597ae)" style="fill: none; stroke: #b0b0b0; stroke-width: 0.8; stroke-linecap: square"/>
     </g>
     <g id="line2d_6">
      <g>
       <use xlink:href="#m0943ae5411" x="319.249518" y="293.76" style="stroke: #000000; stroke-width: 0.8"/>
      </g>
     </g>
     <g id="text_3">
      <!-- 4 -->
      <g transform="translate(312.887018 315.956875) scale(0.2 -0.2)">
       <use xlink:href="#DejaVuSans-34"/>
      </g>
     </g>
    </g>
    <g id="xtick_4">
     <g id="line2d_7">
      <path d="M 425.70436 293.76 
L 425.70436 3.456 
" clip-path="url(#pd0712597ae)" style="fill: none; stroke: #b0b0b0; stroke-width: 0.8; stroke-linecap: square"/>
     </g>
     <g id="line2d_8">
      <g>
       <use xlink:href="#m0943ae5411" x="425.70436" y="293.76" style="stroke: #000000; stroke-width: 0.8"/>
      </g>
     </g>
     <g id="text_4">
      <!-- 8 -->
      <g transform="translate(419.34186 315.956875) scale(0.2 -0.2)">
       <defs>
        <path id="DejaVuSans-38" d="M 2034 2216 
Q 1584 2216 1326 1975 
Q 1069 1734 1069 1313 
Q 1069 891 1326 650 
Q 1584 409 2034 409 
Q 2484 409 2743 651 
Q 3003 894 3003 1313 
Q 3003 1734 2745 1975 
Q 2488 2216 2034 2216 
z
M 1403 2484 
Q 997 2584 770 2862 
Q 544 3141 544 3541 
Q 544 4100 942 4425 
Q 1341 4750 2034 4750 
Q 2731 4750 3128 4425 
Q 3525 4100 3525 3541 
Q 3525 3141 3298 2862 
Q 3072 2584 2669 2484 
Q 3125 2378 3379 2068 
Q 3634 1759 3634 1313 
Q 3634 634 3220 271 
Q 2806 -91 2034 -91 
Q 1263 -91 848 271 
Q 434 634 434 1313 
Q 434 1759 690 2068 
Q 947 2378 1403 2484 
z
M 1172 3481 
Q 1172 3119 1398 2916 
Q 1625 2713 2034 2713 
Q 2441 2713 2670 2916 
Q 2900 3119 2900 3481 
Q 2900 3844 2670 4047 
Q 2441 4250 2034 4250 
Q 1625 4250 1398 4047 
Q 1172 3844 1172 3481 
z
" transform="scale(0.015625)"/>
       </defs>
       <use xlink:href="#DejaVuSans-38"/>
      </g>
     </g>
    </g>
    <g id="text_5">
     <!-- log10 of Df -->
     <g transform="translate(175.214063 339.313125) scale(0.2 -0.2)">
      <defs>
       <path id="DejaVuSans-6c" d="M 603 4863 
L 1178 4863 
L 1178 0 
L 603 0 
L 603 4863 
z
" transform="scale(0.015625)"/>
       <path id="DejaVuSans-6f" d="M 1959 3097 
Q 1497 3097 1228 2736 
Q 959 2375 959 1747 
Q 959 1119 1226 758 
Q 1494 397 1959 397 
Q 2419 397 2687 759 
Q 2956 1122 2956 1747 
Q 2956 2369 2687 2733 
Q 2419 3097 1959 3097 
z
M 1959 3584 
Q 2709 3584 3137 3096 
Q 3566 2609 3566 1747 
Q 3566 888 3137 398 
Q 2709 -91 1959 -91 
Q 1206 -91 779 398 
Q 353 888 353 1747 
Q 353 2609 779 3096 
Q 1206 3584 1959 3584 
z
" transform="scale(0.015625)"/>
       <path id="DejaVuSans-67" d="M 2906 1791 
Q 2906 2416 2648 2759 
Q 2391 3103 1925 3103 
Q 1463 3103 1205 2759 
Q 947 2416 947 1791 
Q 947 1169 1205 825 
Q 1463 481 1925 481 
Q 2391 481 2648 825 
Q 2906 1169 2906 1791 
z
M 3481 434 
Q 3481 -459 3084 -895 
Q 2688 -1331 1869 -1331 
Q 1566 -1331 1297 -1286 
Q 1028 -1241 775 -1147 
L 775 -588 
Q 1028 -725 1275 -790 
Q 1522 -856 1778 -856 
Q 2344 -856 2625 -561 
Q 2906 -266 2906 331 
L 2906 616 
Q 2728 306 2450 153 
Q 2172 0 1784 0 
Q 1141 0 747 490 
Q 353 981 353 1791 
Q 353 2603 747 3093 
Q 1141 3584 1784 3584 
Q 2172 3584 2450 3431 
Q 2728 3278 2906 2969 
L 2906 3500 
L 3481 3500 
L 3481 434 
z
" transform="scale(0.015625)"/>
       <path id="DejaVuSans-31" d="M 794 531 
L 1825 531 
L 1825 4091 
L 703 3866 
L 703 4441 
L 1819 4666 
L 2450 4666 
L 2450 531 
L 3481 531 
L 3481 0 
L 794 0 
L 794 531 
z
" transform="scale(0.015625)"/>
       <path id="DejaVuSans-20" transform="scale(0.015625)"/>
       <path id="DejaVuSans-66" d="M 2375 4863 
L 2375 4384 
L 1825 4384 
Q 1516 4384 1395 4259 
Q 1275 4134 1275 3809 
L 1275 3500 
L 2222 3500 
L 2222 3053 
L 1275 3053 
L 1275 0 
L 697 0 
L 697 3053 
L 147 3053 
L 147 3500 
L 697 3500 
L 697 3744 
Q 697 4328 969 4595 
Q 1241 4863 1831 4863 
L 2375 4863 
z
" transform="scale(0.015625)"/>
       <path id="DejaVuSans-44" d="M 1259 4147 
L 1259 519 
L 2022 519 
Q 2988 519 3436 956 
Q 3884 1394 3884 2338 
Q 3884 3275 3436 3711 
Q 2988 4147 2022 4147 
L 1259 4147 
z
M 628 4666 
L 1925 4666 
Q 3281 4666 3915 4102 
Q 4550 3538 4550 2338 
Q 4550 1131 3912 565 
Q 3275 0 1925 0 
L 628 0 
L 628 4666 
z
" transform="scale(0.015625)"/>
      </defs>
      <use xlink:href="#DejaVuSans-6c"/>
      <use xlink:href="#DejaVuSans-6f" x="27.783203"/>
      <use xlink:href="#DejaVuSans-67" x="88.964844"/>
      <use xlink:href="#DejaVuSans-31" x="152.441406"/>
      <use xlink:href="#DejaVuSans-30" x="216.064453"/>
      <use xlink:href="#DejaVuSans-20" x="279.6875"/>
      <use xlink:href="#DejaVuSans-6f" x="311.474609"/>
      <use xlink:href="#DejaVuSans-66" x="372.65625"/>
      <use xlink:href="#DejaVuSans-20" x="407.861328"/>
      <use xlink:href="#DejaVuSans-44" x="439.648438"/>
      <use xlink:href="#DejaVuSans-66" x="516.650391"/>
     </g>
    </g>
   </g>
   <g id="matplotlib.axis_2">
    <g id="ytick_1">
     <g id="line2d_9">
      <path d="M 0 293.76 
L 460.8 293.76 
" clip-path="url(#pd0712597ae)" style="fill: none; stroke: #b0b0b0; stroke-width: 0.8; stroke-linecap: square"/>
     </g>
     <g id="line2d_10">
      <defs>
       <path id="m3c3cd74ec5" d="M 0 0 
L -3.5 0 
" style="stroke: #000000; stroke-width: 0.8"/>
      </defs>
      <g>
       <use xlink:href="#m3c3cd74ec5" x="0" y="293.76" style="stroke: #000000; stroke-width: 0.8"/>
      </g>
     </g>
    </g>
    <g id="ytick_2">
     <g id="line2d_11">
      <path d="M 0 236.274059 
L 460.8 236.274059 
" clip-path="url(#pd0712597ae)" style="fill: none; stroke: #b0b0b0; stroke-width: 0.8; stroke-linecap: square"/>
     </g>
     <g id="line2d_12">
      <g>
       <use xlink:href="#m3c3cd74ec5" x="0" y="236.274059" style="stroke: #000000; stroke-width: 0.8"/>
      </g>
     </g>
    </g>
    <g id="ytick_3">
     <g id="line2d_13">
      <path d="M 0 178.788119 
L 460.8 178.788119 
" clip-path="url(#pd0712597ae)" style="fill: none; stroke: #b0b0b0; stroke-width: 0.8; stroke-linecap: square"/>
     </g>
     <g id="line2d_14">
      <g>
       <use xlink:href="#m3c3cd74ec5" x="0" y="178.788119" style="stroke: #000000; stroke-width: 0.8"/>
      </g>
     </g>
    </g>
    <g id="ytick_4">
     <g id="line2d_15">
      <path d="M 0 121.302178 
L 460.8 121.302178 
" clip-path="url(#pd0712597ae)" style="fill: none; stroke: #b0b0b0; stroke-width: 0.8; stroke-linecap: square"/>
     </g>
     <g id="line2d_16">
      <g>
       <use xlink:href="#m3c3cd74ec5" x="0" y="121.302178" style="stroke: #000000; stroke-width: 0.8"/>
      </g>
     </g>
    </g>
    <g id="ytick_5">
     <g id="line2d_17">
      <path d="M 0 63.816238 
L 460.8 63.816238 
" clip-path="url(#pd0712597ae)" style="fill: none; stroke: #b0b0b0; stroke-width: 0.8; stroke-linecap: square"/>
     </g>
     <g id="line2d_18">
      <g>
       <use xlink:href="#m3c3cd74ec5" x="0" y="63.816238" style="stroke: #000000; stroke-width: 0.8"/>
      </g>
     </g>
    </g>
    <g id="ytick_6">
     <g id="line2d_19">
      <path d="M 0 6.330297 
L 460.8 6.330297 
" clip-path="url(#pd0712597ae)" style="fill: none; stroke: #b0b0b0; stroke-width: 0.8; stroke-linecap: square"/>
     </g>
     <g id="line2d_20">
      <g>
       <use xlink:href="#m3c3cd74ec5" x="0" y="6.330297" style="stroke: #000000; stroke-width: 0.8"/>
      </g>
     </g>
    </g>
   </g>
   <g id="line2d_21">
    <path d="M 164.822945 293.76 
L 164.918781 291.364752 
L 164.934816 291.364752 
L 165.010437 289.767921 
L 165.230919 289.767921 
L 165.316318 288.171089 
L 165.418117 288.171089 
L 165.418117 287.372673 
L 165.877293 287.372673 
L 165.954102 285.775842 
L 166.353781 285.775842 
L 166.353781 284.977426 
L 167.026155 284.977426 
L 167.026155 284.17901 
L 167.644074 284.17901 
L 167.644074 283.380594 
L 167.938074 283.380594 
L 167.938074 282.582178 
L 168.830789 282.582178 
L 168.830789 281.783762 
L 227.374182 281.783762 
L 227.374182 280.985347 
L 227.662853 280.985347 
L 227.662853 280.186931 
L 228.182961 280.186931 
L 228.182961 279.388515 
L 228.903729 279.388515 
L 228.903729 278.590099 
L 229.031336 278.590099 
L 229.031336 277.791683 
L 230.85443 277.791683 
L 230.919295 276.194851 
L 231.79938 276.194851 
L 231.79938 275.396436 
L 232.201213 275.396436 
L 232.201213 274.59802 
L 232.670849 274.59802 
L 232.670849 273.799604 
L 233.631621 273.799604 
L 233.631621 273.001188 
L 235.414759 273.001188 
L 235.414759 272.202772 
L 235.613193 272.202772 
L 235.66311 270.605941 
L 235.724553 270.605941 
L 235.724553 269.807525 
L 236.098674 269.807525 
L 236.098674 269.009109 
L 236.504205 269.009109 
L 236.504205 268.210693 
L 237.205893 268.210693 
L 237.205893 267.412277 
L 237.765145 267.412277 
L 237.765145 266.613861 
L 238.395338 266.613861 
L 238.451776 265.01703 
L 238.790171 265.01703 
L 238.790171 264.218614 
L 239.336494 264.218614 
L 239.336494 263.420198 
L 240.495673 263.420198 
L 240.495673 262.621782 
L 240.687488 262.621782 
L 240.770318 261.02495 
L 241.016092 261.02495 
L 241.016092 260.226535 
L 241.583731 260.226535 
L 241.648891 258.629703 
L 241.775962 258.629703 
L 241.775962 257.831287 
L 242.630754 257.831287 
L 242.694215 256.234455 
L 242.885534 256.234455 
L 242.922747 254.637624 
L 243.45066 254.637624 
L 243.45066 253.839208 
L 243.889975 253.839208 
L 243.889975 253.040792 
L 244.012987 253.040792 
L 244.012987 252.242376 
L 244.246824 252.242376 
L 244.246824 251.44396 
L 244.439071 251.44396 
L 244.439071 250.645545 
L 244.558327 250.645545 
L 244.558327 249.847129 
L 244.77237 249.847129 
L 244.77237 249.048713 
L 244.96604 249.048713 
L 244.96604 248.250297 
L 245.354624 248.250297 
L 245.354624 247.451881 
L 245.502415 247.451881 
L 245.502415 246.653465 
L 245.939005 246.653465 
L 245.939005 245.85505 
L 246.551609 245.85505 
L 246.551609 245.056634 
L 246.960909 245.056634 
L 246.960909 244.258218 
L 247.151727 244.258218 
L 247.151727 243.459802 
L 248.619738 243.459802 
L 248.619738 242.661386 
L 248.918133 242.661386 
L 248.918133 241.86297 
L 249.407715 241.86297 
L 249.407715 241.064554 
L 249.562607 241.064554 
L 249.562607 240.266139 
L 250.608833 240.266139 
L 250.608833 239.467723 
L 251.316293 239.467723 
L 251.316293 238.669307 
L 252.165326 238.669307 
L 252.176098 237.072475 
L 252.280822 237.072475 
L 252.280822 236.274059 
L 252.822603 236.274059 
L 252.913511 234.677228 
L 253.157779 234.677228 
L 253.22869 232.28198 
L 253.605859 232.28198 
L 253.605859 231.483564 
L 254.469871 231.483564 
L 254.469871 230.685149 
L 254.658495 230.685149 
L 254.658495 229.886733 
L 255.79965 229.886733 
L 255.79965 229.088317 
L 256.045245 229.088317 
L 256.045245 228.289901 
L 256.472264 228.289901 
L 256.56796 225.894653 
L 256.95622 225.894653 
L 256.95622 225.096238 
L 257.130519 225.096238 
L 257.130519 224.297822 
L 257.884255 224.297822 
L 257.901881 222.70099 
L 258.188711 222.70099 
L 258.188711 221.902574 
L 258.378409 221.902574 
L 258.465764 219.507327 
L 258.789751 219.507327 
L 258.862739 217.112079 
L 258.932774 217.112079 
L 258.981982 215.515248 
L 259.104388 215.515248 
L 259.104388 214.716832 
L 259.440682 214.716832 
L 259.514788 213.12 
L 259.747847 213.12 
L 259.747847 212.321584 
L 259.966763 212.321584 
L 259.966763 211.523168 
L 260.207195 211.523168 
L 260.258663 209.926337 
L 260.334487 209.926337 
L 260.334487 209.127921 
L 260.532345 209.127921 
L 260.623322 206.732673 
L 260.709534 206.732673 
L 260.788386 203.53901 
L 260.919707 203.53901 
L 260.92684 201.942178 
L 261.106453 201.942178 
L 261.213355 200.345347 
L 261.443659 200.345347 
L 261.509518 198.748515 
L 261.595927 198.748515 
L 261.642445 195.554851 
L 261.750885 195.554851 
L 261.843921 192.361188 
L 261.957381 192.361188 
L 262.05388 190.764356 
L 262.081511 190.764356 
L 262.081511 189.965941 
L 262.193074 189.965941 
L 262.299529 187.570693 
L 262.342419 187.570693 
L 262.381577 185.973861 
L 262.534096 185.973861 
L 262.596698 184.37703 
L 262.670533 184.37703 
L 262.670533 183.578614 
L 262.857135 183.578614 
L 262.877077 181.981782 
L 263.081264 181.981782 
L 263.152873 180.38495 
L 263.27439 180.38495 
L 263.368762 178.788119 
L 263.520292 178.788119 
L 263.520292 177.989703 
L 263.756031 177.989703 
L 263.856882 175.594455 
L 264.275652 175.594455 
L 264.370266 173.997624 
L 264.739789 173.997624 
L 264.842492 172.400792 
L 264.860799 172.400792 
L 264.860799 171.602376 
L 265.166228 171.602376 
L 265.166228 170.80396 
L 265.392654 170.80396 
L 265.450072 169.207129 
L 265.573398 169.207129 
L 265.573398 168.408713 
L 266.020038 168.408713 
L 266.020038 167.610297 
L 266.272121 167.610297 
L 266.343558 165.21505 
L 266.476363 165.21505 
L 266.476363 164.416634 
L 266.959803 164.416634 
L 266.959803 163.618218 
L 267.100208 163.618218 
L 267.100208 162.819802 
L 267.675583 162.819802 
L 267.675583 162.021386 
L 267.914505 162.021386 
L 267.983945 160.424554 
L 268.970669 160.424554 
L 268.970669 159.626139 
L 269.122988 159.626139 
L 269.181444 158.029307 
L 269.311162 158.029307 
L 269.311162 157.230891 
L 269.457327 157.230891 
L 269.463718 155.634059 
L 269.588213 155.634059 
L 269.588213 154.835644 
L 269.982086 154.835644 
L 269.982086 154.037228 
L 270.117693 154.037228 
L 270.220686 150.843564 
L 270.258836 150.843564 
L 270.325382 149.246733 
L 270.468762 149.246733 
L 270.552946 147.649901 
L 270.641076 147.649901 
L 270.703445 145.254653 
L 270.888243 145.254653 
L 270.948412 142.859406 
L 271.044805 142.859406 
L 271.119138 141.262574 
L 271.477064 141.262574 
L 271.544613 139.665743 
L 271.702572 139.665743 
L 271.711537 138.068911 
L 271.851344 138.068911 
L 271.851344 137.270495 
L 272.405044 137.270495 
L 272.405044 136.472079 
L 273.431395 136.472079 
L 273.431395 135.673663 
L 273.633354 135.673663 
L 273.633354 134.875248 
L 274.912598 134.875248 
L 274.912598 134.076832 
L 275.574208 134.076832 
L 275.574208 133.278416 
L 275.977539 133.278416 
L 275.977539 132.48 
L 276.179741 132.48 
L 276.179741 131.681584 
L 276.601615 131.681584 
L 276.601615 130.883168 
L 277.522093 130.883168 
L 277.58667 129.286337 
L 279.081685 129.286337 
L 279.081685 128.487921 
L 279.335033 128.487921 
L 279.335033 127.689505 
L 279.952014 127.689505 
L 279.960759 126.092673 
L 280.490182 126.092673 
L 280.490182 125.294257 
L 280.786422 125.294257 
L 280.786422 124.495842 
L 281.196261 124.495842 
L 281.196261 123.697426 
L 281.826142 123.697426 
L 281.826142 122.89901 
L 282.243017 122.89901 
L 282.243017 122.100594 
L 282.799067 122.100594 
L 282.854732 120.503762 
L 283.064408 120.503762 
L 283.064408 119.705347 
L 283.412112 119.705347 
L 283.412112 118.906931 
L 283.558108 118.906931 
L 283.558108 118.108515 
L 284.061944 118.108515 
L 284.061944 117.310099 
L 284.344296 117.310099 
L 284.407532 115.713267 
L 284.620724 115.713267 
L 284.653475 114.116436 
L 284.957665 114.116436 
L 285.033824 112.519604 
L 285.160587 112.519604 
L 285.160587 111.721188 
L 285.283348 111.721188 
L 285.300105 110.124356 
L 285.659235 110.124356 
L 285.671696 108.527525 
L 285.89723 108.527525 
L 285.89723 107.729109 
L 286.367055 107.729109 
L 286.367055 106.930693 
L 286.491877 106.930693 
L 286.491877 106.132277 
L 286.656536 106.132277 
L 286.656536 105.333861 
L 286.883075 105.333861 
L 286.883075 104.535446 
L 287.012799 104.535446 
L 287.012799 103.73703 
L 287.179502 103.73703 
L 287.179502 102.938614 
L 287.605764 102.938614 
L 287.605764 102.140198 
L 287.759531 102.140198 
L 287.77625 100.543366 
L 288.036687 100.543366 
L 288.036687 99.74495 
L 288.265036 99.74495 
L 288.265036 98.946535 
L 288.642134 98.946535 
L 288.642134 98.148119 
L 289.009597 98.148119 
L 289.065177 95.752871 
L 289.187284 95.752871 
L 289.187284 94.954455 
L 289.620942 94.954455 
L 289.730112 92.559208 
L 289.998731 92.559208 
L 290.053906 90.962376 
L 290.251981 90.962376 
L 290.287028 89.365545 
L 290.419005 89.365545 
L 290.492334 87.768713 
L 291.730445 87.768713 
L 291.730445 86.970297 
L 292.621856 86.970297 
L 292.621856 86.171881 
L 292.956059 86.171881 
L 292.956059 85.373465 
L 293.208812 85.373465 
L 293.208812 84.57505 
L 293.52891 84.57505 
L 293.52891 83.776634 
L 293.875147 83.776634 
L 293.875147 82.978218 
L 294.216224 82.978218 
L 294.216224 82.179802 
L 294.384162 82.179802 
L 294.473524 79.784554 
L 294.727584 79.784554 
L 294.727584 78.986139 
L 295.310178 78.986139 
L 295.310178 78.187723 
L 295.873484 78.187723 
L 295.884897 76.590891 
L 296.129425 76.590891 
L 296.216311 74.195644 
L 296.709346 74.195644 
L 296.809178 71.800396 
L 296.963167 71.800396 
L 296.963167 71.00198 
L 297.394874 71.00198 
L 297.394874 70.203564 
L 297.922404 70.203564 
L 297.922404 69.405149 
L 298.082276 69.405149 
L 298.082276 68.606733 
L 298.645667 68.606733 
L 298.645667 67.808317 
L 299.079016 67.808317 
L 299.147294 66.211485 
L 302.118959 66.211485 
L 302.118959 65.413069 
L 302.332011 65.413069 
L 302.332011 64.614653 
L 302.986575 64.614653 
L 302.986575 63.816238 
L 303.914087 63.816238 
L 303.914087 63.017822 
L 307.341864 63.017822 
L 307.341864 62.219406 
L 317.310891 62.219406 
L 317.335866 60.622574 
L 318.592555 60.622574 
L 318.592555 59.824158 
L 320.621668 59.824158 
L 320.621668 59.025743 
L 324.310284 59.025743 
L 324.310284 58.227327 
L 324.634608 58.227327 
L 324.634608 57.428911 
L 324.832595 57.428911 
L 324.890968 55.832079 
L 325.696368 55.832079 
L 325.696368 55.033663 
L 326.445405 55.033663 
L 326.537132 53.436832 
L 328.587863 53.436832 
L 328.587863 52.638416 
L 329.532364 52.638416 
L 329.532364 51.84 
L 330.747592 51.84 
L 330.747592 51.041584 
L 332.974383 51.041584 
L 332.974383 50.243168 
L 335.163833 50.243168 
L 335.163833 49.444752 
L 335.920367 49.444752 
L 335.920367 48.646337 
L 340.936051 48.646337 
L 340.936051 47.847921 
L 341.959205 47.847921 
L 341.959205 47.049505 
L 342.672063 47.049505 
L 342.672063 46.251089 
L 342.948484 46.251089 
L 342.948484 45.452673 
L 345.769741 45.452673 
L 345.769741 44.654257 
L 345.988554 44.654257 
L 345.988554 43.855842 
L 346.917465 43.855842 
L 346.917465 43.057426 
L 348.027672 43.057426 
L 348.027672 42.25901 
L 349.121343 42.25901 
L 349.121343 41.460594 
L 349.40193 41.460594 
L 349.40193 40.662178 
L 351.708254 40.662178 
L 351.708254 39.863762 
L 354.245455 39.863762 
L 354.245455 39.065347 
L 355.997661 39.065347 
L 355.997661 38.266931 
L 356.711923 38.266931 
L 356.711923 37.468515 
L 357.092178 37.468515 
L 357.092178 36.670099 
L 357.757814 36.670099 
L 357.757814 35.871683 
L 360.880731 35.871683 
L 360.906428 34.274851 
L 361.045906 34.274851 
L 361.045906 33.476436 
L 362.996597 33.476436 
L 362.996597 32.67802 
L 363.185729 32.67802 
L 363.289421 31.081188 
L 363.408122 31.081188 
L 363.408122 30.282772 
L 366.148241 30.282772 
L 366.148241 29.484356 
L 366.712015 29.484356 
L 366.712015 28.685941 
L 366.839191 28.685941 
L 366.890417 27.089109 
L 368.536227 27.089109 
L 368.536227 26.290693 
L 369.15769 26.290693 
L 369.15769 25.492277 
L 369.715622 25.492277 
L 369.785317 23.895446 
L 370.917586 23.895446 
L 370.917586 23.09703 
L 372.399006 23.09703 
L 372.399006 22.298614 
L 372.925897 22.298614 
L 372.925897 21.500198 
L 374.386545 21.500198 
L 374.386545 20.701782 
L 374.674903 20.701782 
L 374.674903 19.903366 
L 377.194084 19.903366 
L 377.194084 19.10495 
L 378.609528 19.10495 
L 378.609528 18.306535 
L 407.470216 18.306535 
L 407.470216 17.508119 
L 411.597604 17.508119 
L 411.597604 16.709703 
L 414.32011 16.709703 
L 414.32011 15.911287 
L 415.515626 15.911287 
L 415.515626 15.112871 
L 415.713081 15.112871 
L 415.713081 14.314455 
L 417.463245 14.314455 
L 417.463245 13.51604 
L 418.683012 13.51604 
L 418.683012 12.717624 
L 419.208068 12.717624 
L 419.221796 11.120792 
L 420.536144 11.120792 
L 420.593355 9.52396 
L 422.916313 9.52396 
L 422.916313 8.725545 
L 425.108093 8.725545 
L 425.108093 7.927129 
L 425.721302 7.927129 
L 425.813355 6.330297 
L 425.813355 6.330297 
L 460.8 6.330297 
L 460.8 6.330297 
" clip-path="url(#pd0712597ae)" style="fill: none; stroke: #ff0000; stroke-width: 3; stroke-linecap: square"/>
   </g>
   <g id="line2d_22">
    <path d="M 196.738909 293.76 
L 196.787582 281.783762 
L 235.121134 281.783762 
L 235.121134 280.985347 
L 238.492616 280.985347 
L 238.492616 280.186931 
L 238.614008 280.186931 
L 238.614008 279.388515 
L 239.039232 279.388515 
L 239.039232 278.590099 
L 240.692966 278.590099 
L 240.692966 277.791683 
L 240.858087 277.791683 
L 240.858087 276.993267 
L 243.543212 276.993267 
L 243.543212 276.194851 
L 243.669701 276.194851 
L 243.669701 275.396436 
L 244.127909 275.396436 
L 244.127909 274.59802 
L 244.433804 274.59802 
L 244.467271 272.202772 
L 244.656417 272.202772 
L 244.656417 271.404356 
L 245.253809 271.404356 
L 245.253809 270.605941 
L 246.258209 270.605941 
L 246.258209 269.807525 
L 246.408847 269.807525 
L 246.408847 269.009109 
L 246.523868 269.009109 
L 246.523868 268.210693 
L 247.073902 268.210693 
L 247.073902 267.412277 
L 247.467555 267.412277 
L 247.467555 266.613861 
L 248.291362 266.613861 
L 248.291362 265.815446 
L 248.419492 265.815446 
L 248.515976 263.420198 
L 249.571608 263.420198 
L 249.673761 260.226535 
L 251.471343 260.226535 
L 251.471343 259.428119 
L 253.00585 259.428119 
L 253.00585 258.629703 
L 253.378026 258.629703 
L 253.378026 257.831287 
L 254.117902 257.831287 
L 254.154323 256.234455 
L 254.468256 256.234455 
L 254.551886 254.637624 
L 256.774958 254.637624 
L 256.774958 253.839208 
L 257.065315 253.839208 
L 257.065315 253.040792 
L 257.297461 253.040792 
L 257.297461 252.242376 
L 257.841334 252.242376 
L 257.841334 251.44396 
L 258.168688 251.44396 
L 258.194231 249.847129 
L 258.321103 249.847129 
L 258.361042 248.250297 
L 258.864164 248.250297 
L 258.864164 247.451881 
L 259.205202 247.451881 
L 259.240988 245.85505 
L 259.703954 245.85505 
L 259.703954 245.056634 
L 260.685501 245.056634 
L 260.685501 244.258218 
L 260.826629 244.258218 
L 260.826629 243.459802 
L 260.975144 243.459802 
L 261.033011 241.86297 
L 261.521314 241.86297 
L 261.521314 241.064554 
L 261.7169 241.064554 
L 261.767365 238.669307 
L 261.851231 238.669307 
L 261.936285 237.072475 
L 262.017513 237.072475 
L 262.088239 235.475644 
L 262.220725 235.475644 
L 262.22998 233.878812 
L 262.390416 233.878812 
L 262.457367 231.483564 
L 262.77198 231.483564 
L 262.77198 230.685149 
L 262.918161 230.685149 
L 263.023601 227.491485 
L 263.068971 227.491485 
L 263.178334 224.297822 
L 263.217828 224.297822 
L 263.277184 221.902574 
L 263.353622 221.902574 
L 263.36853 218.708911 
L 263.473415 218.708911 
L 263.551591 214.716832 
L 263.596643 214.716832 
L 263.666321 208.329505 
L 263.720077 208.329505 
L 263.720077 207.531089 
L 263.843823 207.531089 
L 263.954553 205.135842 
L 263.96268 205.135842 
L 263.96268 204.337426 
L 264.281364 204.337426 
L 264.291602 202.740594 
L 264.774984 202.740594 
L 264.774984 201.942178 
L 265.444769 201.942178 
L 265.444769 201.143762 
L 265.634619 201.143762 
L 265.634619 200.345347 
L 265.865152 200.345347 
L 265.865152 199.546931 
L 266.73124 199.546931 
L 266.73124 198.748515 
L 267.022558 198.748515 
L 267.087084 195.554851 
L 267.537328 195.554851 
L 267.624508 193.95802 
L 267.679133 193.95802 
L 267.72156 192.361188 
L 267.90193 192.361188 
L 267.90193 191.562772 
L 268.04343 191.562772 
L 268.04343 190.764356 
L 268.430336 190.764356 
L 268.461528 177.989703 
L 270.098568 177.989703 
L 270.098568 177.191287 
L 270.448341 177.191287 
L 270.526545 175.594455 
L 271.320355 175.594455 
L 271.320355 174.79604 
L 275.01417 174.79604 
L 275.01417 173.997624 
L 277.709053 173.997624 
L 277.709053 173.199208 
L 278.464701 173.199208 
L 278.464701 172.400792 
L 279.022865 172.400792 
L 279.022865 171.602376 
L 279.14728 171.602376 
L 279.245869 169.207129 
L 279.4489 169.207129 
L 279.4489 168.408713 
L 279.572342 168.408713 
L 279.572342 167.610297 
L 279.69596 167.610297 
L 279.76669 165.21505 
L 280.031581 165.21505 
L 280.031581 164.416634 
L 280.239977 164.416634 
L 280.239977 163.618218 
L 280.497886 163.618218 
L 280.497886 162.819802 
L 280.88621 162.819802 
L 280.88621 162.021386 
L 281.485865 162.021386 
L 281.485865 161.22297 
L 282.024192 161.22297 
L 282.024198 149.246733 
L 283.044878 149.246733 
L 283.044878 148.448317 
L 283.611094 148.448317 
L 283.611094 147.649901 
L 283.814665 147.649901 
L 283.814665 146.851485 
L 284.5266 146.851485 
L 284.534549 145.254653 
L 285.246264 145.254653 
L 285.246264 144.456238 
L 286.141438 144.456238 
L 286.141438 143.657822 
L 286.944239 143.657822 
L 286.959084 142.06099 
L 287.072652 142.06099 
L 287.072652 141.262574 
L 287.237523 141.262574 
L 287.237523 140.464158 
L 287.423299 140.464158 
L 287.519614 137.270495 
L 287.540099 137.270495 
L 287.540099 136.472079 
L 287.653686 136.472079 
L 287.714345 134.875248 
L 288.053028 134.875248 
L 288.053028 134.076832 
L 288.411336 134.076832 
L 288.521452 132.48 
L 288.676747 132.48 
L 288.676747 131.681584 
L 288.871048 131.681584 
L 288.921978 130.084752 
L 289.065177 130.084752 
L 289.101304 127.689505 
L 289.188214 127.689505 
L 289.198555 126.092673 
L 289.303281 126.092673 
L 289.303281 125.294257 
L 289.760127 125.294257 
L 289.760127 124.495842 
L 289.98157 124.495842 
L 289.998731 122.89901 
L 290.280662 122.89901 
L 290.287028 121.302178 
L 290.492334 121.302178 
L 290.492334 120.503762 
L 290.935492 120.503762 
L 291.009204 118.906931 
L 291.181177 118.906931 
L 291.181177 118.108515 
L 291.491058 118.108515 
L 291.580799 115.713267 
L 291.619703 115.713267 
L 291.730445 114.116436 
L 291.816116 114.116436 
L 291.816116 113.31802 
L 292.010544 113.31802 
L 292.010544 112.519604 
L 292.247482 112.519604 
L 292.247482 111.721188 
L 292.588541 111.721188 
L 292.588541 110.922772 
L 293.526886 110.922772 
L 293.52891 109.325941 
L 294.727584 109.325941 
L 294.727584 108.527525 
L 295.009101 108.527525 
L 295.009101 107.729109 
L 296.129425 107.729109 
L 296.129425 106.930693 
L 296.809178 106.930693 
L 296.809178 106.132277 
L 296.963167 106.132277 
L 296.963167 105.333861 
L 297.708623 105.333861 
L 297.708623 104.535446 
L 299.079016 104.535446 
L 299.147294 102.938614 
L 299.261074 102.938614 
L 299.261074 102.140198 
L 299.911625 102.140198 
L 299.911625 101.341782 
L 300.213219 101.341782 
L 300.213219 100.543366 
L 300.358485 100.543366 
L 300.358485 99.74495 
L 300.527709 99.74495 
L 300.527709 98.946535 
L 300.754557 98.946535 
L 300.754557 98.148119 
L 301.033965 98.148119 
L 301.033965 97.349703 
L 301.402932 97.349703 
L 301.402932 96.551287 
L 301.623475 96.551287 
L 301.675638 94.954455 
L 302.332011 94.954455 
L 302.430137 93.357624 
L 302.632809 93.357624 
L 302.632809 92.559208 
L 302.986575 92.559208 
L 303.097381 90.16396 
L 303.914087 90.16396 
L 303.914087 89.365545 
L 326.246698 89.365545 
L 326.246699 77.389307 
L 327.024965 77.389307 
L 327.024965 76.590891 
L 328.987994 76.590891 
L 328.987994 75.792475 
L 330.318701 75.792475 
L 330.318701 74.994059 
L 335.036137 74.994059 
L 335.036137 74.195644 
L 338.445013 74.195644 
L 338.445013 73.397228 
L 339.512088 73.397228 
L 339.512088 72.598812 
L 339.763725 72.598812 
L 339.763725 71.800396 
L 340.056297 71.800396 
L 340.056297 71.00198 
L 340.448202 71.00198 
L 340.448202 70.203564 
L 341.59042 70.203564 
L 341.59042 69.405149 
L 341.768534 69.405149 
L 341.768534 68.606733 
L 342.402515 68.606733 
L 342.402515 67.808317 
L 343.041226 67.808317 
L 343.060509 66.211485 
L 343.759674 66.211485 
L 343.759674 65.413069 
L 344.199219 65.413069 
L 344.199219 64.614653 
L 348.988589 64.614653 
L 348.988589 63.816238 
L 353.476438 63.816238 
L 353.476438 63.017822 
L 353.794803 63.017822 
L 353.794803 62.219406 
L 356.923422 62.219406 
L 356.923422 61.42099 
L 357.774856 61.42099 
L 357.81005 59.824158 
L 359.393648 59.824158 
L 359.393648 59.025743 
L 359.533359 59.025743 
L 359.616525 57.428911 
L 360.405104 57.428911 
L 360.405104 56.630495 
L 361.223447 56.630495 
L 361.223447 55.832079 
L 361.475752 55.832079 
L 361.475752 55.033663 
L 364.756612 55.033663 
L 364.756612 54.235248 
L 365.119629 54.235248 
L 365.119629 53.436832 
L 366.273658 53.436832 
L 366.273658 52.638416 
L 367.081307 52.638416 
L 367.081307 51.84 
L 369.520768 51.84 
L 369.520768 51.041584 
L 372.486747 51.041584 
L 372.486747 50.243168 
L 375.262495 50.243168 
L 375.262495 49.444752 
L 380.395414 49.444752 
L 380.395414 48.646337 
L 380.731443 48.646337 
L 380.731443 47.847921 
L 382.153796 47.847921 
L 382.153796 47.049505 
L 383.435107 47.049505 
L 383.435107 46.251089 
L 383.7937 46.251089 
L 383.7937 45.452673 
L 385.270412 45.452673 
L 385.270412 44.654257 
L 385.717323 44.654257 
L 385.717323 43.855842 
L 386.086794 43.855842 
L 386.086794 43.057426 
L 386.870679 43.057426 
L 386.870679 42.25901 
L 387.201678 42.25901 
L 387.201678 41.460594 
L 390.986241 41.460594 
L 390.986241 40.662178 
L 392.830865 40.662178 
L 392.830865 39.863762 
L 393.208335 39.863762 
L 393.208335 39.065347 
L 394.045385 39.065347 
L 394.045385 38.266931 
L 394.247873 38.266931 
L 394.247873 37.468515 
L 394.689112 37.468515 
L 394.689112 36.670099 
L 395.30637 36.670099 
L 395.30637 35.871683 
L 395.562064 35.871683 
L 395.618955 34.274851 
L 395.764016 34.274851 
L 395.764016 33.476436 
L 395.941386 33.476436 
L 395.941386 32.67802 
L 397.128238 32.67802 
L 397.128238 31.879604 
L 397.820291 31.879604 
L 397.820291 31.081188 
L 398.284247 31.081188 
L 398.284247 30.282772 
L 398.590536 30.282772 
L 398.590536 29.484356 
L 398.923097 29.484356 
L 398.923097 28.685941 
L 400.202176 28.685941 
L 400.277128 27.089109 
L 400.61357 27.089109 
L 400.61357 26.290693 
L 401.112044 26.290693 
L 401.112044 25.492277 
L 402.220196 25.492277 
L 402.296405 23.895446 
L 403.358858 23.895446 
L 403.358858 23.09703 
L 404.152218 23.09703 
L 404.152218 22.298614 
L 404.910361 22.298614 
L 404.910361 21.500198 
L 407.119923 21.500198 
L 407.172539 19.903366 
L 407.479716 19.903366 
L 407.479716 19.10495 
L 411.969797 19.10495 
L 411.969797 18.306535 
L 421.201714 18.306535 
L 421.201714 17.508119 
L 424.589938 17.508119 
L 424.617008 15.911287 
L 429.539234 15.911287 
L 429.539234 15.112871 
L 430.605055 15.112871 
L 430.605055 14.314455 
L 431.345204 14.314455 
L 431.345204 13.51604 
L 433.761789 13.51604 
L 433.761789 12.717624 
L 434.85431 12.717624 
L 434.85431 11.919208 
L 437.08957 11.919208 
L 437.08957 11.120792 
L 437.84624 11.120792 
L 437.84624 10.322376 
L 440.276815 10.322376 
L 440.276815 9.52396 
L 440.58015 9.52396 
L 440.58015 8.725545 
L 442.531507 8.725545 
L 442.531507 7.927129 
L 446.601573 7.927129 
L 446.705855 6.330297 
L 446.705855 6.330297 
L 460.8 6.330297 
L 460.8 6.330297 
" clip-path="url(#pd0712597ae)" style="fill: none; stroke: #00bfbf; stroke-width: 1.5; stroke-linecap: square"/>
   </g>
   <g id="line2d_23">
    <path d="M 196.728885 293.76 
L 196.763142 281.783762 
L 234.937237 281.783762 
L 234.937237 280.985347 
L 238.458878 280.985347 
L 238.458878 280.186931 
L 238.614008 280.186931 
L 238.614008 279.388515 
L 238.951165 279.388515 
L 238.951165 278.590099 
L 240.639996 278.590099 
L 240.639996 277.791683 
L 240.856444 277.791683 
L 240.856444 276.993267 
L 243.543212 276.993267 
L 243.543212 276.194851 
L 243.668781 276.194851 
L 243.668781 275.396436 
L 244.127909 275.396436 
L 244.127909 274.59802 
L 244.416846 274.59802 
L 244.467222 272.202772 
L 244.655671 272.202772 
L 244.655671 271.404356 
L 245.215677 271.404356 
L 245.215677 270.605941 
L 246.252228 270.605941 
L 246.252228 269.807525 
L 246.408174 269.807525 
L 246.408174 269.009109 
L 246.523868 269.009109 
L 246.523868 268.210693 
L 247.072923 268.210693 
L 247.072923 267.412277 
L 247.452557 267.412277 
L 247.452557 266.613861 
L 248.290846 266.613861 
L 248.336975 265.01703 
L 248.408758 265.01703 
L 248.482759 263.420198 
L 249.569017 263.420198 
L 249.672858 260.226535 
L 251.448563 260.226535 
L 251.448563 259.428119 
L 253.00585 259.428119 
L 253.00585 258.629703 
L 253.377583 258.629703 
L 253.377583 257.831287 
L 254.115003 257.831287 
L 254.15407 256.234455 
L 254.468041 256.234455 
L 254.551824 254.637624 
L 256.773829 254.637624 
L 256.773829 253.839208 
L 257.063886 253.839208 
L 257.063886 253.040792 
L 257.278702 253.040792 
L 257.278702 252.242376 
L 257.841018 252.242376 
L 257.841018 251.44396 
L 258.168478 251.44396 
L 258.194231 249.847129 
L 258.321103 249.847129 
L 258.357 248.250297 
L 258.864164 248.250297 
L 258.864164 247.451881 
L 259.205178 247.451881 
L 259.239402 245.85505 
L 259.701924 245.85505 
L 259.701924 245.056634 
L 260.671522 245.056634 
L 260.671522 244.258218 
L 260.82637 244.258218 
L 260.82637 243.459802 
L 260.961758 243.459802 
L 261.025058 241.86297 
L 261.519718 241.86297 
L 261.519718 241.064554 
L 261.7169 241.064554 
L 261.767254 238.669307 
L 261.842277 238.669307 
L 261.936285 237.072475 
L 262.017508 237.072475 
L 262.088114 235.475644 
L 262.220725 235.475644 
L 262.22998 233.878812 
L 262.389966 233.878812 
L 262.451555 231.483564 
L 262.771947 231.483564 
L 262.771947 230.685149 
L 262.918136 230.685149 
L 263.023565 227.491485 
L 263.068949 227.491485 
L 263.178285 224.297822 
L 263.217809 224.297822 
L 263.274589 221.902574 
L 263.353587 221.902574 
L 263.368517 218.708911 
L 263.473415 218.708911 
L 263.543597 214.716832 
L 263.584617 214.716832 
L 263.666305 208.329505 
L 263.72006 208.329505 
L 263.72006 207.531089 
L 263.843823 207.531089 
L 263.954553 205.135842 
L 263.962634 205.135842 
L 263.962634 204.337426 
L 264.281364 204.337426 
L 264.291406 202.740594 
L 264.774837 202.740594 
L 264.774837 201.942178 
L 265.444236 201.942178 
L 265.444236 201.143762 
L 265.634579 201.143762 
L 265.634579 200.345347 
L 265.865152 200.345347 
L 265.865152 199.546931 
L 266.730033 199.546931 
L 266.730033 198.748515 
L 267.022488 198.748515 
L 267.086976 195.554851 
L 267.536923 195.554851 
L 267.624409 193.95802 
L 267.679001 193.95802 
L 267.721535 192.361188 
L 267.901891 192.361188 
L 267.901891 191.562772 
L 268.04343 191.562772 
L 268.04343 190.764356 
L 268.430236 190.764356 
L 268.461137 177.989703 
L 270.098538 177.989703 
L 270.098538 177.191287 
L 270.448341 177.191287 
L 270.526545 175.594455 
L 271.318887 175.594455 
L 271.318887 174.79604 
L 275.012785 174.79604 
L 275.012785 173.997624 
L 277.705684 173.997624 
L 277.705684 173.199208 
L 278.463258 173.199208 
L 278.463258 172.400792 
L 279.022865 172.400792 
L 279.022865 171.602376 
L 279.144522 171.602376 
L 279.244952 169.207129 
L 279.377075 169.207129 
L 279.377075 168.408713 
L 279.567152 168.408713 
L 279.567152 167.610297 
L 279.69371 167.610297 
L 279.762924 165.21505 
L 280.026242 165.21505 
L 280.026242 164.416634 
L 280.23437 164.416634 
L 280.23437 163.618218 
L 280.495899 163.618218 
L 280.495899 162.819802 
L 280.879401 162.819802 
L 280.879401 162.021386 
L 281.484235 162.021386 
L 281.484235 161.22297 
L 282.02412 161.22297 
L 282.024172 149.246733 
L 283.044136 149.246733 
L 283.044136 148.448317 
L 283.610018 148.448317 
L 283.610018 147.649901 
L 283.813895 147.649901 
L 283.813895 146.851485 
L 284.52593 146.851485 
L 284.53422 145.254653 
L 285.245814 145.254653 
L 285.245814 144.456238 
L 286.140738 144.456238 
L 286.140738 143.657822 
L 286.944239 143.657822 
L 286.958391 142.06099 
L 287.072132 142.06099 
L 287.072132 141.262574 
L 287.236636 141.262574 
L 287.236636 140.464158 
L 287.422923 140.464158 
L 287.519483 137.270495 
L 287.539764 137.270495 
L 287.539764 136.472079 
L 287.653524 136.472079 
L 287.713581 134.875248 
L 288.052115 134.875248 
L 288.052115 134.076832 
L 288.410619 134.076832 
L 288.520604 132.48 
L 288.675146 132.48 
L 288.675146 131.681584 
L 288.870762 131.681584 
L 288.921496 130.084752 
L 289.065177 130.084752 
L 289.100461 127.689505 
L 289.187488 127.689505 
L 289.198516 126.092673 
L 289.301671 126.092673 
L 289.301671 125.294257 
L 289.759427 125.294257 
L 289.759427 124.495842 
L 289.980972 124.495842 
L 289.998731 122.89901 
L 290.280396 122.89901 
L 290.287028 121.302178 
L 290.492334 121.302178 
L 290.492334 120.503762 
L 290.935492 120.503762 
L 291.008296 118.906931 
L 291.18079 118.906931 
L 291.18079 118.108515 
L 291.490143 118.108515 
L 291.57989 115.713267 
L 291.619041 115.713267 
L 291.619041 114.914851 
L 291.730445 114.914851 
L 291.815876 113.31802 
L 292.010282 113.31802 
L 292.010282 112.519604 
L 292.246743 112.519604 
L 292.246743 111.721188 
L 292.588273 111.721188 
L 292.588273 110.922772 
L 293.526755 110.922772 
L 293.52891 109.325941 
L 294.727584 109.325941 
L 294.727584 108.527525 
L 295.00872 108.527525 
L 295.00872 107.729109 
L 296.129425 107.729109 
L 296.129425 106.930693 
L 296.809178 106.930693 
L 296.809178 106.132277 
L 296.963167 106.132277 
L 296.963167 105.333861 
L 297.708623 105.333861 
L 297.708623 104.535446 
L 299.079016 104.535446 
L 299.147294 102.938614 
L 299.260991 102.938614 
L 299.260991 102.140198 
L 299.911587 102.140198 
L 299.911587 101.341782 
L 300.213136 101.341782 
L 300.213136 100.543366 
L 300.358411 100.543366 
L 300.358411 99.74495 
L 300.527707 99.74495 
L 300.527707 98.946535 
L 300.754541 98.946535 
L 300.754541 98.148119 
L 301.03393 98.148119 
L 301.03393 97.349703 
L 301.402878 97.349703 
L 301.402878 96.551287 
L 301.623438 96.551287 
L 301.675638 94.954455 
L 302.332011 94.954455 
L 302.430098 93.357624 
L 302.632795 93.357624 
L 302.632795 92.559208 
L 302.986575 92.559208 
L 303.097381 90.16396 
L 303.914087 90.16396 
L 303.914087 89.365545 
L 326.244711 89.365545 
L 326.245451 77.389307 
L 327.023999 77.389307 
L 327.023999 76.590891 
L 328.98719 76.590891 
L 328.98719 75.792475 
L 330.316899 75.792475 
L 330.316899 74.994059 
L 335.035604 74.994059 
L 335.035604 74.195644 
L 338.444446 74.195644 
L 338.444446 73.397228 
L 339.511479 73.397228 
L 339.511479 72.598812 
L 339.76304 72.598812 
L 339.76304 71.800396 
L 340.055637 71.800396 
L 340.055637 71.00198 
L 340.44737 71.00198 
L 340.44737 70.203564 
L 341.589834 70.203564 
L 341.589834 69.405149 
L 341.767762 69.405149 
L 341.767762 68.606733 
L 342.401814 68.606733 
L 342.401814 67.808317 
L 343.040702 67.808317 
L 343.060042 66.211485 
L 343.759303 66.211485 
L 343.759303 65.413069 
L 344.198711 65.413069 
L 344.198711 64.614653 
L 348.987923 64.614653 
L 348.987923 63.816238 
L 353.476248 63.816238 
L 353.476248 63.017822 
L 353.7935 63.017822 
L 353.7935 62.219406 
L 356.923049 62.219406 
L 356.923049 61.42099 
L 357.774856 61.42099 
L 357.807719 59.824158 
L 359.393587 59.824158 
L 359.393587 59.025743 
L 359.533103 59.025743 
L 359.616311 57.428911 
L 360.405104 57.428911 
L 360.405104 56.630495 
L 361.223447 56.630495 
L 361.223447 55.832079 
L 361.47552 55.832079 
L 361.47552 55.033663 
L 364.752142 55.033663 
L 364.752142 54.235248 
L 365.119629 54.235248 
L 365.119629 53.436832 
L 366.273649 53.436832 
L 366.273649 52.638416 
L 367.081248 52.638416 
L 367.081248 51.84 
L 369.520599 51.84 
L 369.520599 51.041584 
L 372.486694 51.041584 
L 372.486694 50.243168 
L 375.261513 50.243168 
L 375.261513 49.444752 
L 380.394719 49.444752 
L 380.394719 48.646337 
L 380.731443 48.646337 
L 380.731443 47.847921 
L 382.153448 47.847921 
L 382.153448 47.049505 
L 383.434267 47.049505 
L 383.434267 46.251089 
L 383.793335 46.251089 
L 383.793335 45.452673 
L 385.270296 45.452673 
L 385.270296 44.654257 
L 385.71679 44.654257 
L 385.71679 43.855842 
L 386.085315 43.855842 
L 386.085315 43.057426 
L 386.869919 43.057426 
L 386.869919 42.25901 
L 387.201295 42.25901 
L 387.201295 41.460594 
L 390.985974 41.460594 
L 390.985974 40.662178 
L 392.830422 40.662178 
L 392.830422 39.863762 
L 393.20744 39.863762 
L 393.20744 39.065347 
L 394.044817 39.065347 
L 394.044817 38.266931 
L 394.247873 38.266931 
L 394.247873 37.468515 
L 394.687664 37.468515 
L 394.687664 36.670099 
L 395.304987 36.670099 
L 395.304987 35.871683 
L 395.56188 35.871683 
L 395.618866 34.274851 
L 395.763826 34.274851 
L 395.763826 33.476436 
L 395.940913 33.476436 
L 395.940913 32.67802 
L 397.126278 32.67802 
L 397.126278 31.879604 
L 397.819697 31.879604 
L 397.819697 31.081188 
L 398.28417 31.081188 
L 398.28417 30.282772 
L 398.590195 30.282772 
L 398.590195 29.484356 
L 398.921216 29.484356 
L 398.921216 28.685941 
L 400.201428 28.685941 
L 400.277128 27.089109 
L 400.612715 27.089109 
L 400.612715 26.290693 
L 401.110488 26.290693 
L 401.110488 25.492277 
L 402.220023 25.492277 
L 402.295574 23.895446 
L 403.358575 23.895446 
L 403.358575 23.09703 
L 404.150598 23.09703 
L 404.150598 22.298614 
L 404.909149 22.298614 
L 404.909149 21.500198 
L 407.118637 21.500198 
L 407.172224 19.903366 
L 407.47945 19.903366 
L 407.47945 19.10495 
L 411.969688 19.10495 
L 411.969688 18.306535 
L 421.201505 18.306535 
L 421.201505 17.508119 
L 424.589938 17.508119 
L 424.616838 15.911287 
L 429.539234 15.911287 
L 429.539234 15.112871 
L 430.604577 15.112871 
L 430.604577 14.314455 
L 431.344881 14.314455 
L 431.344881 13.51604 
L 433.76171 13.51604 
L 433.76171 12.717624 
L 434.854238 12.717624 
L 434.854238 11.919208 
L 437.08957 11.919208 
L 437.08957 11.120792 
L 437.845588 11.120792 
L 437.845588 10.322376 
L 440.276699 10.322376 
L 440.276699 9.52396 
L 440.580102 9.52396 
L 440.580102 8.725545 
L 442.531444 8.725545 
L 442.531444 7.927129 
L 446.601573 7.927129 
L 446.705855 6.330297 
L 446.705855 6.330297 
L 460.8 6.330297 
L 460.8 6.330297 
" clip-path="url(#pd0712597ae)" style="fill: none; stroke: #bf00bf; stroke-width: 1.5; stroke-linecap: square"/>
   </g>
   <g id="line2d_24">
    <path d="M 196.548495 293.76 
L 196.620578 281.783762 
L 234.778764 281.783762 
L 234.778764 280.985347 
L 237.936924 280.985347 
L 237.936924 280.186931 
L 238.292642 280.186931 
L 238.292642 279.388515 
L 238.52867 279.388515 
L 238.52867 278.590099 
L 240.400008 278.590099 
L 240.400008 277.791683 
L 240.847655 277.791683 
L 240.847655 276.993267 
L 243.339093 276.993267 
L 243.339093 276.194851 
L 243.660715 276.194851 
L 243.660715 275.396436 
L 244.121338 275.396436 
L 244.174409 273.799604 
L 244.428341 273.799604 
L 244.458282 272.202772 
L 244.649668 272.202772 
L 244.649668 271.404356 
L 244.973501 271.404356 
L 244.973501 270.605941 
L 245.980057 270.605941 
L 245.980057 269.807525 
L 246.40286 269.807525 
L 246.40286 269.009109 
L 246.516842 269.009109 
L 246.516842 268.210693 
L 247.067617 268.210693 
L 247.067617 267.412277 
L 247.314813 267.412277 
L 247.314813 266.613861 
L 248.161975 266.613861 
L 248.238838 264.218614 
L 248.28288 264.218614 
L 248.28288 263.420198 
L 249.558235 263.420198 
L 249.668797 260.226535 
L 251.239608 260.226535 
L 251.239608 259.428119 
L 252.822126 259.428119 
L 252.822126 258.629703 
L 253.375216 258.629703 
L 253.375216 257.831287 
L 254.082121 257.831287 
L 254.151418 256.234455 
L 254.46503 256.234455 
L 254.54748 254.637624 
L 256.762626 254.637624 
L 256.762626 253.839208 
L 257.04309 253.839208 
L 257.04309 253.040792 
L 257.233396 253.040792 
L 257.233396 252.242376 
L 257.838918 252.242376 
L 257.838918 251.44396 
L 258.166561 251.44396 
L 258.19253 249.847129 
L 258.319392 249.847129 
L 258.32987 248.250297 
L 258.854306 248.250297 
L 258.854306 247.451881 
L 259.196994 247.451881 
L 259.23079 245.85505 
L 259.68585 245.85505 
L 259.68585 245.056634 
L 260.668153 245.056634 
L 260.668153 244.258218 
L 260.824695 244.258218 
L 260.930312 242.661386 
L 260.989312 242.661386 
L 260.989312 241.86297 
L 261.504402 241.86297 
L 261.504402 241.064554 
L 261.682421 241.064554 
L 261.785231 237.870891 
L 261.903581 237.870891 
L 261.903581 237.072475 
L 262.01483 237.072475 
L 262.085369 235.475644 
L 262.219431 235.475644 
L 262.22998 233.878812 
L 262.337307 233.878812 
L 262.438783 231.483564 
L 262.771727 231.483564 
L 262.771727 230.685149 
L 262.917676 230.685149 
L 263.023284 227.491485 
L 263.068664 227.491485 
L 263.177867 224.297822 
L 263.217513 224.297822 
L 263.274333 221.902574 
L 263.345173 221.902574 
L 263.36819 218.708911 
L 263.473172 218.708911 
L 263.54332 214.716832 
L 263.584617 214.716832 
L 263.666068 208.329505 
L 263.719854 208.329505 
L 263.719854 207.531089 
L 263.843674 207.531089 
L 263.954448 205.135842 
L 263.962538 205.135842 
L 263.962538 204.337426 
L 264.278821 204.337426 
L 264.290038 202.740594 
L 264.773491 202.740594 
L 264.773491 201.942178 
L 265.437012 201.942178 
L 265.437012 201.143762 
L 265.625721 201.143762 
L 265.625721 200.345347 
L 265.86428 200.345347 
L 265.86428 199.546931 
L 266.718832 199.546931 
L 266.718832 198.748515 
L 267.010375 198.748515 
L 267.085722 195.554851 
L 267.533552 195.554851 
L 267.623304 193.95802 
L 267.67728 193.95802 
L 267.720468 192.361188 
L 267.900847 192.361188 
L 267.900847 191.562772 
L 268.029644 191.562772 
L 268.029644 190.764356 
L 268.429112 190.764356 
L 268.458596 177.989703 
L 270.097571 177.989703 
L 270.097571 177.191287 
L 270.447385 177.191287 
L 270.52566 175.594455 
L 271.31028 175.594455 
L 271.31028 174.79604 
L 274.977887 174.79604 
L 274.977887 173.997624 
L 277.677866 173.997624 
L 277.677866 173.199208 
L 278.423362 173.199208 
L 278.423362 172.400792 
L 278.741245 172.400792 
L 278.741245 171.602376 
L 278.977403 171.602376 
L 278.977403 170.80396 
L 279.109575 170.80396 
L 279.216376 168.408713 
L 279.527319 168.408713 
L 279.527319 167.610297 
L 279.654224 167.610297 
L 279.732605 165.21505 
L 279.999416 165.21505 
L 279.999416 164.416634 
L 280.208622 164.416634 
L 280.208622 163.618218 
L 280.459929 163.618218 
L 280.459929 162.819802 
L 280.849929 162.819802 
L 280.849929 162.021386 
L 281.459556 162.021386 
L 281.459556 161.22297 
L 282.023762 161.22297 
L 282.023891 149.246733 
L 283.040348 149.246733 
L 283.040348 148.448317 
L 283.603577 148.448317 
L 283.603577 147.649901 
L 283.809196 147.649901 
L 283.809196 146.851485 
L 284.519924 146.851485 
L 284.527697 145.254653 
L 285.242042 145.254653 
L 285.242042 144.456238 
L 286.13649 144.456238 
L 286.13649 143.657822 
L 286.939944 143.657822 
L 286.955121 142.06099 
L 287.067609 142.06099 
L 287.067609 141.262574 
L 287.232696 141.262574 
L 287.232696 140.464158 
L 287.420145 140.464158 
L 287.514633 137.270495 
L 287.536382 137.270495 
L 287.536382 136.472079 
L 287.65048 136.472079 
L 287.711018 134.875248 
L 288.047999 134.875248 
L 288.047999 134.076832 
L 288.406478 134.076832 
L 288.516887 132.48 
L 288.669172 132.48 
L 288.669172 131.681584 
L 288.868262 131.681584 
L 288.918297 130.084752 
L 289.065177 130.084752 
L 289.096921 127.689505 
L 289.182908 127.689505 
L 289.195672 126.092673 
L 289.296191 126.092673 
L 289.296191 125.294257 
L 289.75706 125.294257 
L 289.75706 124.495842 
L 289.978002 124.495842 
L 289.998731 122.89901 
L 290.27702 122.89901 
L 290.287028 121.302178 
L 290.492334 121.302178 
L 290.492334 120.503762 
L 290.932686 120.503762 
L 291.005806 118.906931 
L 291.178137 118.906931 
L 291.178137 118.108515 
L 291.48677 118.108515 
L 291.575734 115.713267 
L 291.616551 115.713267 
L 291.616551 114.914851 
L 291.730445 114.914851 
L 291.813958 113.31802 
L 292.007622 113.31802 
L 292.007622 112.519604 
L 292.241855 112.519604 
L 292.241855 111.721188 
L 292.585311 111.721188 
L 292.585311 110.922772 
L 293.524524 110.922772 
L 293.52891 109.325941 
L 294.727584 109.325941 
L 294.727584 108.527525 
L 295.003655 108.527525 
L 295.003655 107.729109 
L 296.129425 107.729109 
L 296.129425 106.930693 
L 296.809178 106.930693 
L 296.809178 106.132277 
L 296.963167 106.132277 
L 296.963167 105.333861 
L 297.707959 105.333861 
L 297.707959 104.535446 
L 299.079016 104.535446 
L 299.147294 102.938614 
L 299.260301 102.938614 
L 299.260301 102.140198 
L 299.910901 102.140198 
L 299.910901 101.341782 
L 300.212401 101.341782 
L 300.212401 100.543366 
L 300.35761 100.543366 
L 300.35761 99.74495 
L 300.527046 99.74495 
L 300.527046 98.946535 
L 300.753934 98.946535 
L 300.753934 98.148119 
L 301.033226 98.148119 
L 301.033226 97.349703 
L 301.402089 97.349703 
L 301.402089 96.551287 
L 301.622753 96.551287 
L 301.675037 94.954455 
L 302.332011 94.954455 
L 302.429355 93.357624 
L 302.632087 93.357624 
L 302.632087 92.559208 
L 302.986575 92.559208 
L 303.096888 90.16396 
L 303.914087 90.16396 
L 303.914087 89.365545 
L 326.23912 89.365545 
L 326.241797 77.389307 
L 327.019766 77.389307 
L 327.019766 76.590891 
L 328.904727 76.590891 
L 328.904727 75.792475 
L 330.313544 75.792475 
L 330.313544 74.994059 
L 335.03276 74.994059 
L 335.03276 74.195644 
L 338.442009 74.195644 
L 338.442009 73.397228 
L 339.508952 73.397228 
L 339.508952 72.598812 
L 339.760313 72.598812 
L 339.760313 71.800396 
L 340.053014 71.800396 
L 340.053014 71.00198 
L 340.444231 71.00198 
L 340.444231 70.203564 
L 341.587504 70.203564 
L 341.587504 69.405149 
L 341.76471 69.405149 
L 341.76471 68.606733 
L 342.398994 68.606733 
L 342.398994 67.808317 
L 343.038541 67.808317 
L 343.057993 66.211485 
L 343.757283 66.211485 
L 343.757283 65.413069 
L 344.196313 65.413069 
L 344.196313 64.614653 
L 348.984665 64.614653 
L 348.984665 63.816238 
L 353.474126 63.816238 
L 353.474126 63.017822 
L 353.771165 63.017822 
L 353.771165 62.219406 
L 356.920988 62.219406 
L 356.920988 61.42099 
L 357.772753 61.42099 
L 357.797336 59.824158 
L 359.392718 59.824158 
L 359.392718 59.025743 
L 359.532258 59.025743 
L 359.615118 57.428911 
L 360.403035 57.428911 
L 360.403035 56.630495 
L 361.221721 56.630495 
L 361.221721 55.832079 
L 361.472757 55.832079 
L 361.472757 55.033663 
L 364.735248 55.033663 
L 364.735248 54.235248 
L 365.118412 54.235248 
L 365.118412 53.436832 
L 366.273325 53.436832 
L 366.273325 52.638416 
L 367.079622 52.638416 
L 367.079622 51.84 
L 369.51813 51.84 
L 369.51813 51.041584 
L 372.485337 51.041584 
L 372.485337 50.243168 
L 375.248996 50.243168 
L 375.248996 49.444752 
L 380.388231 49.444752 
L 380.388231 48.646337 
L 380.729495 48.646337 
L 380.729495 47.847921 
L 382.15078 47.847921 
L 382.15078 47.049505 
L 383.427409 47.049505 
L 383.427409 46.251089 
L 383.786411 46.251089 
L 383.786411 45.452673 
L 385.264863 45.452673 
L 385.264863 44.654257 
L 385.708904 44.654257 
L 385.708904 43.855842 
L 386.084054 43.855842 
L 386.084054 43.057426 
L 386.859602 43.057426 
L 386.859602 42.25901 
L 387.197564 42.25901 
L 387.197564 41.460594 
L 390.984201 41.460594 
L 390.984201 40.662178 
L 392.829558 40.662178 
L 392.829558 39.863762 
L 393.206365 39.863762 
L 393.206365 39.065347 
L 394.041095 39.065347 
L 394.041095 38.266931 
L 394.244916 38.266931 
L 394.244916 37.468515 
L 394.686374 37.468515 
L 394.686374 36.670099 
L 395.303642 36.670099 
L 395.303642 35.871683 
L 395.558683 35.871683 
L 395.61718 34.274851 
L 395.759011 34.274851 
L 395.759011 33.476436 
L 395.936337 33.476436 
L 395.936337 32.67802 
L 397.1229 32.67802 
L 397.1229 31.879604 
L 397.818574 31.879604 
L 397.818574 31.081188 
L 398.282669 31.081188 
L 398.282669 30.282772 
L 398.586608 30.282772 
L 398.586608 29.484356 
L 398.918 29.484356 
L 398.918 28.685941 
L 400.199467 28.685941 
L 400.27478 27.089109 
L 400.611683 27.089109 
L 400.611683 26.290693 
L 401.109128 26.290693 
L 401.109128 25.492277 
L 402.21822 25.492277 
L 402.293991 23.895446 
L 403.355563 23.895446 
L 403.355563 23.09703 
L 404.147794 23.09703 
L 404.147794 22.298614 
L 404.908063 22.298614 
L 404.908063 21.500198 
L 407.116335 21.500198 
L 407.170187 19.903366 
L 407.477268 19.903366 
L 407.477268 19.10495 
L 411.967889 19.10495 
L 411.967889 18.306535 
L 421.199087 18.306535 
L 421.199087 17.508119 
L 424.588785 17.508119 
L 424.614364 15.911287 
L 429.535842 15.911287 
L 429.535842 15.112871 
L 430.602105 15.112871 
L 430.602105 14.314455 
L 431.341986 14.314455 
L 431.341986 13.51604 
L 433.759483 13.51604 
L 433.759483 12.717624 
L 434.85236 12.717624 
L 434.85236 11.919208 
L 437.086663 11.919208 
L 437.086663 11.120792 
L 437.842823 11.120792 
L 437.842823 10.322376 
L 440.270189 10.322376 
L 440.270189 9.52396 
L 440.577539 9.52396 
L 440.577539 8.725545 
L 442.526753 8.725545 
L 442.526753 7.927129 
L 446.598131 7.927129 
L 446.702561 6.330297 
L 446.702561 6.330297 
L 460.8 6.330297 
L 460.8 6.330297 
" clip-path="url(#pd0712597ae)" style="fill: none; stroke: #000000; stroke-width: 1.5; stroke-linecap: square"/>
   </g>
   <g id="line2d_25">
    <path d="M 195.197265 293.76 
L 195.222194 292.163168 
L 195.338484 292.163168 
L 195.449155 288.171089 
L 195.452139 288.171089 
L 195.527672 284.17901 
L 195.629061 284.17901 
L 195.721984 282.582178 
L 195.765921 282.582178 
L 195.765921 281.783762 
L 232.702629 281.783762 
L 232.702629 280.985347 
L 233.312423 280.985347 
L 233.312423 280.186931 
L 234.147072 280.186931 
L 234.147072 279.388515 
L 234.940835 279.388515 
L 234.9491 277.791683 
L 238.849294 277.791683 
L 238.849294 276.993267 
L 240.618517 276.993267 
L 240.618517 276.194851 
L 241.067361 276.194851 
L 241.067361 275.396436 
L 242.133379 275.396436 
L 242.150972 273.799604 
L 242.295537 273.799604 
L 242.295537 273.001188 
L 243.515132 273.001188 
L 243.515132 272.202772 
L 243.933638 272.202772 
L 243.933638 271.404356 
L 244.287819 271.404356 
L 244.304423 269.807525 
L 244.483305 269.807525 
L 244.483305 269.009109 
L 244.686385 269.009109 
L 244.686385 268.210693 
L 245.848536 268.210693 
L 245.848536 267.412277 
L 246.272397 267.412277 
L 246.272397 266.613861 
L 246.384414 266.613861 
L 246.384414 265.815446 
L 246.857266 265.815446 
L 246.91951 264.218614 
L 248.125776 264.218614 
L 248.125776 263.420198 
L 249.212326 263.420198 
L 249.286024 261.02495 
L 249.538486 261.02495 
L 249.561429 259.428119 
L 252.288952 259.428119 
L 252.288952 258.629703 
L 253.309191 258.629703 
L 253.309191 257.831287 
L 253.456492 257.831287 
L 253.456492 257.032871 
L 254.096537 257.032871 
L 254.096537 256.234455 
L 254.404555 256.234455 
L 254.44078 254.637624 
L 256.493113 254.637624 
L 256.525005 253.040792 
L 257.152706 253.040792 
L 257.152706 252.242376 
L 257.780559 252.242376 
L 257.780559 251.44396 
L 258.106558 251.44396 
L 258.140251 249.048713 
L 258.264384 249.048713 
L 258.264384 248.250297 
L 258.551861 248.250297 
L 258.551861 247.451881 
L 258.962259 247.451881 
L 259.028645 245.85505 
L 259.402488 245.85505 
L 259.402488 245.056634 
L 260.634158 245.056634 
L 260.634158 244.258218 
L 260.78485 244.258218 
L 260.816147 241.86297 
L 261.223849 241.86297 
L 261.223849 241.064554 
L 261.66385 241.064554 
L 261.76553 237.870891 
L 261.81432 237.870891 
L 261.81432 237.072475 
L 261.957499 237.072475 
L 262.029629 235.475644 
L 262.191069 235.475644 
L 262.277099 233.080396 
L 262.302671 233.080396 
L 262.40172 231.483564 
L 262.766387 231.483564 
L 262.874656 229.886733 
L 262.907717 229.886733 
L 263.016493 226.693069 
L 263.062725 226.693069 
L 263.170618 222.70099 
L 263.211597 222.70099 
L 263.293725 220.305743 
L 263.347249 220.305743 
L 263.422585 217.112079 
L 263.467304 217.112079 
L 263.53929 213.918416 
L 263.591651 213.918416 
L 263.66118 208.329505 
L 263.715781 208.329505 
L 263.715781 207.531089 
L 263.840616 207.531089 
L 263.847844 205.934257 
L 263.952171 205.934257 
L 263.958565 204.337426 
L 264.204616 204.337426 
L 264.262379 202.740594 
L 264.745477 202.740594 
L 264.745477 201.942178 
L 265.233171 201.942178 
L 265.233171 201.143762 
L 265.440481 201.143762 
L 265.440481 200.345347 
L 265.845504 200.345347 
L 265.845504 199.546931 
L 266.48916 199.546931 
L 266.48916 198.748515 
L 266.977232 198.748515 
L 267.061053 195.554851 
L 267.464893 195.554851 
L 267.464893 194.756436 
L 267.60044 194.756436 
L 267.697104 192.361188 
L 267.735965 192.361188 
L 267.735965 191.562772 
L 267.878532 191.562772 
L 267.878532 190.764356 
L 268.376542 190.764356 
L 268.40619 177.989703 
L 269.895539 177.989703 
L 269.895539 177.191287 
L 270.074705 177.191287 
L 270.074705 176.392871 
L 270.425206 176.392871 
L 270.506421 174.79604 
L 271.16035 174.79604 
L 271.16035 173.997624 
L 274.282337 173.997624 
L 274.282337 173.199208 
L 276.9039 173.199208 
L 276.9039 172.400792 
L 277.663621 172.400792 
L 277.663621 171.602376 
L 278.054473 171.602376 
L 278.054473 170.80396 
L 278.399331 170.80396 
L 278.492522 169.207129 
L 278.686968 169.207129 
L 278.726242 166.811881 
L 278.834535 166.811881 
L 278.834535 166.013465 
L 279.137541 166.013465 
L 279.137541 165.21505 
L 279.376151 165.21505 
L 279.376151 164.416634 
L 279.535953 164.416634 
L 279.535953 163.618218 
L 279.700429 163.618218 
L 279.700429 162.819802 
L 280.054789 162.819802 
L 280.054789 162.021386 
L 281.000698 162.021386 
L 281.000698 161.22297 
L 282.016339 161.22297 
L 282.018372 149.246733 
L 282.934413 149.246733 
L 282.934413 148.448317 
L 283.478543 148.448317 
L 283.478543 147.649901 
L 283.713394 147.649901 
L 283.713394 146.851485 
L 284.40045 146.851485 
L 284.401856 145.254653 
L 285.165517 145.254653 
L 285.165517 144.456238 
L 286.043293 144.456238 
L 286.043293 143.657822 
L 286.848457 143.657822 
L 286.884632 142.06099 
L 286.977046 142.06099 
L 286.977046 141.262574 
L 287.124807 141.262574 
L 287.124807 140.464158 
L 287.356374 140.464158 
L 287.464076 136.472079 
L 287.587771 136.472079 
L 287.63727 134.875248 
L 287.958691 134.875248 
L 287.958691 134.076832 
L 288.30861 134.076832 
L 288.410863 132.48 
L 288.501941 132.48 
L 288.501941 131.681584 
L 288.815344 131.681584 
L 288.852515 130.084752 
L 289.003466 130.084752 
L 289.090075 126.891089 
L 289.134774 126.891089 
L 289.175221 125.294257 
L 289.682401 125.294257 
L 289.682401 124.495842 
L 289.901669 124.495842 
L 289.998731 122.89901 
L 290.185509 122.89901 
L 290.287028 121.302178 
L 290.492334 121.302178 
L 290.492334 120.503762 
L 290.845049 120.503762 
L 290.933249 118.906931 
L 291.11385 118.906931 
L 291.11385 118.108515 
L 291.40573 118.108515 
L 291.512915 115.713267 
L 291.544361 115.713267 
L 291.544361 114.914851 
L 291.730445 114.914851 
L 291.758256 113.31802 
L 291.949986 113.31802 
L 291.949986 112.519604 
L 292.135778 112.519604 
L 292.135778 111.721188 
L 292.51814 111.721188 
L 292.51814 110.922772 
L 293.477672 110.922772 
L 293.52891 109.325941 
L 294.727584 109.325941 
L 294.727584 108.527525 
L 294.901476 108.527525 
L 294.901476 107.729109 
L 296.129425 107.729109 
L 296.129425 106.930693 
L 296.809178 106.930693 
L 296.809178 106.132277 
L 296.963167 106.132277 
L 296.963167 105.333861 
L 297.693685 105.333861 
L 297.693685 104.535446 
L 299.079016 104.535446 
L 299.147294 102.938614 
L 299.246893 102.938614 
L 299.246893 102.140198 
L 299.893734 102.140198 
L 299.893734 101.341782 
L 300.198168 101.341782 
L 300.198168 100.543366 
L 300.342928 100.543366 
L 300.342928 99.74495 
L 300.512834 99.74495 
L 300.512834 98.946535 
L 300.741259 98.946535 
L 300.741259 98.148119 
L 301.015838 98.148119 
L 301.015838 97.349703 
L 301.386189 97.349703 
L 301.386189 96.551287 
L 301.608641 96.551287 
L 301.6625 94.954455 
L 302.332011 94.954455 
L 302.414442 93.357624 
L 302.618112 93.357624 
L 302.618112 92.559208 
L 302.978975 92.559208 
L 303.087861 90.16396 
L 303.914087 90.16396 
L 303.914087 89.365545 
L 326.087937 89.365545 
L 326.144938 77.389307 
L 326.921551 77.389307 
L 326.921551 76.590891 
L 327.249886 76.590891 
L 327.249886 75.792475 
L 330.193479 75.792475 
L 330.193479 74.994059 
L 334.955071 74.994059 
L 334.955071 74.195644 
L 338.372406 74.195644 
L 338.372406 73.397228 
L 339.433876 73.397228 
L 339.433876 72.598812 
L 339.684426 72.598812 
L 339.684426 71.800396 
L 339.983008 71.800396 
L 339.983008 71.00198 
L 340.375097 71.00198 
L 340.375097 70.203564 
L 341.531644 70.203564 
L 341.531644 69.405149 
L 341.696098 69.405149 
L 341.696098 68.606733 
L 342.336154 68.606733 
L 342.336154 67.808317 
L 342.973529 67.808317 
L 342.999147 66.211485 
L 343.700035 66.211485 
L 343.700035 65.413069 
L 344.141432 65.413069 
L 344.141432 64.614653 
L 348.914418 64.614653 
L 348.914418 63.816238 
L 353.248908 63.816238 
L 353.248908 63.017822 
L 353.430384 63.017822 
L 353.430384 62.219406 
L 356.861403 62.219406 
L 356.861403 61.42099 
L 357.488091 61.42099 
L 357.488091 60.622574 
L 357.726022 60.622574 
L 357.726022 59.824158 
L 359.367535 59.824158 
L 359.367535 59.025743 
L 359.510643 59.025743 
L 359.59089 57.428911 
L 360.361098 57.428911 
L 360.361098 56.630495 
L 361.169579 56.630495 
L 361.169579 55.832079 
L 361.416197 55.832079 
L 361.416197 55.033663 
L 364.325055 55.033663 
L 364.325055 54.235248 
L 365.082082 54.235248 
L 365.082082 53.436832 
L 366.264978 53.436832 
L 366.264978 52.638416 
L 367.045958 52.638416 
L 367.045958 51.84 
L 369.466706 51.84 
L 369.466706 51.041584 
L 372.456865 51.041584 
L 372.456865 50.243168 
L 374.893215 50.243168 
L 374.893215 49.444752 
L 380.251341 49.444752 
L 380.251341 48.646337 
L 380.692261 48.646337 
L 380.692261 47.847921 
L 382.091997 47.847921 
L 382.091997 47.049505 
L 383.235853 47.049505 
L 383.235853 46.251089 
L 383.613543 46.251089 
L 383.613543 45.452673 
L 385.147216 45.452673 
L 385.147216 44.654257 
L 385.549329 44.654257 
L 385.549329 43.855842 
L 386.035171 43.855842 
L 386.035171 43.057426 
L 386.660862 43.057426 
L 386.660862 42.25901 
L 387.098628 42.25901 
L 387.098628 41.460594 
L 390.948815 41.460594 
L 390.948815 40.662178 
L 392.800696 40.662178 
L 392.800696 39.863762 
L 393.172239 39.863762 
L 393.172239 39.065347 
L 393.965023 39.065347 
L 393.965023 38.266931 
L 394.184627 38.266931 
L 394.184627 37.468515 
L 394.636577 37.468515 
L 394.636577 36.670099 
L 395.257856 36.670099 
L 395.257856 35.871683 
L 395.4993 35.871683 
L 395.584842 34.274851 
L 395.663745 34.274851 
L 395.663745 33.476436 
L 395.84278 33.476436 
L 395.84278 32.67802 
L 397.005016 32.67802 
L 397.005016 31.879604 
L 397.789206 31.879604 
L 397.789206 31.081188 
L 398.25234 31.081188 
L 398.25234 30.282772 
L 398.514259 30.282772 
L 398.514259 29.484356 
L 398.826903 29.484356 
L 398.826903 28.685941 
L 400.154012 28.685941 
L 400.224943 27.089109 
L 400.568673 27.089109 
L 400.568673 26.290693 
L 401.058684 26.290693 
L 401.058684 25.492277 
L 402.169242 25.492277 
L 402.239136 23.895446 
L 403.290645 23.895446 
L 403.290645 23.09703 
L 404.067451 23.09703 
L 404.067451 22.298614 
L 404.870183 22.298614 
L 404.870183 21.500198 
L 407.052533 21.500198 
L 407.114062 19.903366 
L 407.415448 19.903366 
L 407.415448 19.10495 
L 411.930353 19.10495 
L 411.930353 18.306535 
L 421.150168 18.306535 
L 421.150168 17.508119 
L 424.540581 17.508119 
L 424.561108 15.911287 
L 429.464608 15.911287 
L 429.464608 15.112871 
L 430.537822 15.112871 
L 430.537822 14.314455 
L 431.27971 14.314455 
L 431.27971 13.51604 
L 433.710122 13.51604 
L 433.710122 12.717624 
L 434.817351 12.717624 
L 434.817351 11.919208 
L 437.014481 11.919208 
L 437.014481 11.120792 
L 437.766186 11.120792 
L 437.766186 10.322376 
L 440.132841 10.322376 
L 440.132841 9.52396 
L 440.520985 9.52396 
L 440.520985 8.725545 
L 442.432803 8.725545 
L 442.432803 7.927129 
L 446.528329 7.927129 
L 446.602918 6.330297 
L 446.602918 6.330297 
L 460.8 6.330297 
L 460.8 6.330297 
" clip-path="url(#pd0712597ae)" style="fill: none; stroke: #00bfbf; stroke-width: 1.5; stroke-linecap: square"/>
   </g>
   <g id="line2d_26">
    <path d="M 165.501173 293.76 
L 165.501173 292.961584 
L 166.083431 292.961584 
L 166.083431 292.163168 
L 166.593171 292.163168 
L 166.593171 291.364752 
L 167.859371 291.364752 
L 167.859371 290.566337 
L 169.566264 290.566337 
L 169.566264 289.767921 
L 171.491247 289.767921 
L 171.491247 288.969505 
L 172.17535 288.969505 
L 172.17535 288.171089 
L 173.179227 288.171089 
L 173.179227 287.372673 
L 174.712074 287.372673 
L 174.712074 286.574257 
L 175.171773 286.574257 
L 175.171773 285.775842 
L 175.310704 285.775842 
L 175.310704 284.977426 
L 176.193855 284.977426 
L 176.193855 284.17901 
L 179.544873 284.17901 
L 179.544873 283.380594 
L 182.604283 283.380594 
L 182.604283 282.582178 
L 185.2626 282.582178 
L 185.2626 281.783762 
L 227.904572 281.783762 
L 227.904572 280.985347 
L 230.85443 280.985347 
L 230.919295 279.388515 
L 231.79938 279.388515 
L 231.79938 278.590099 
L 232.201213 278.590099 
L 232.201213 277.791683 
L 232.670849 277.791683 
L 232.670849 276.993267 
L 234.451652 276.993267 
L 234.451652 276.194851 
L 235.956276 276.194851 
L 235.956276 275.396436 
L 236.220351 275.396436 
L 236.220351 274.59802 
L 236.527044 274.59802 
L 236.527044 273.799604 
L 236.938529 273.799604 
L 236.938529 273.001188 
L 237.205893 273.001188 
L 237.217699 271.404356 
L 237.765145 271.404356 
L 237.765145 270.605941 
L 238.790171 270.605941 
L 238.790171 269.807525 
L 239.336494 269.807525 
L 239.336494 269.009109 
L 240.687488 269.009109 
L 240.770318 267.412277 
L 241.524523 267.412277 
L 241.589349 265.815446 
L 241.731896 265.815446 
L 241.731896 265.01703 
L 242.098819 265.01703 
L 242.161491 263.420198 
L 242.407909 263.420198 
L 242.407909 262.621782 
L 242.694215 262.621782 
L 242.694215 261.823366 
L 243.306639 261.823366 
L 243.306639 261.02495 
L 243.452209 261.02495 
L 243.452209 260.226535 
L 244.558327 260.226535 
L 244.558327 259.428119 
L 244.836973 259.428119 
L 244.836973 258.629703 
L 244.996285 258.629703 
L 244.996285 257.831287 
L 245.392894 257.831287 
L 245.392894 257.032871 
L 245.536422 257.032871 
L 245.536422 256.234455 
L 245.726805 256.234455 
L 245.726805 255.43604 
L 246.083201 255.43604 
L 246.083201 254.637624 
L 246.551609 254.637624 
L 246.635392 253.040792 
L 246.819269 253.040792 
L 246.819269 252.242376 
L 247.480621 252.242376 
L 247.480621 251.44396 
L 248.014474 251.44396 
L 248.014474 250.645545 
L 248.672334 250.645545 
L 248.672334 249.847129 
L 248.821246 249.847129 
L 248.918133 248.250297 
L 249.991979 248.250297 
L 249.991979 247.451881 
L 250.824997 247.451881 
L 250.929101 245.85505 
L 251.21262 245.85505 
L 251.21262 245.056634 
L 251.784346 245.056634 
L 251.784346 244.258218 
L 252.409966 244.258218 
L 252.409966 243.459802 
L 253.656752 243.459802 
L 253.728112 241.064554 
L 253.817837 241.064554 
L 253.823389 239.467723 
L 254.365886 239.467723 
L 254.365886 238.669307 
L 254.635536 238.669307 
L 254.635536 237.870891 
L 254.973498 237.870891 
L 254.973498 237.072475 
L 255.398959 237.072475 
L 255.398959 236.274059 
L 255.668186 236.274059 
L 255.668186 235.475644 
L 256.496321 235.475644 
L 256.49734 233.878812 
L 256.812437 233.878812 
L 256.812437 233.080396 
L 257.130519 233.080396 
L 257.130519 232.28198 
L 257.48157 232.28198 
L 257.48157 231.483564 
L 258.274144 231.483564 
L 258.274144 230.685149 
L 258.731996 230.685149 
L 258.731996 229.886733 
L 259.125116 229.886733 
L 259.125116 229.088317 
L 259.374577 229.088317 
L 259.374577 228.289901 
L 259.535445 228.289901 
L 259.609765 225.894653 
L 260.103064 225.894653 
L 260.155746 224.297822 
L 260.623322 224.297822 
L 260.729101 221.104158 
L 260.750175 221.104158 
L 260.809311 218.708911 
L 260.95889 218.708911 
L 261.068568 215.515248 
L 261.107645 215.515248 
L 261.107645 214.716832 
L 261.220718 214.716832 
L 261.220718 213.918416 
L 261.344847 213.918416 
L 261.433392 210.724752 
L 261.594079 210.724752 
L 261.703846 207.531089 
L 261.750885 207.531089 
L 261.793178 204.337426 
L 261.934398 204.337426 
L 262.043615 200.345347 
L 262.054961 200.345347 
L 262.054961 199.546931 
L 262.193074 199.546931 
L 262.255857 197.950099 
L 262.356987 197.950099 
L 262.381577 196.353267 
L 262.5715 196.353267 
L 262.656258 194.756436 
L 262.877077 194.756436 
L 262.931254 193.159604 
L 263.081264 193.159604 
L 263.153008 189.167525 
L 263.275183 189.167525 
L 263.368945 187.570693 
L 263.521065 187.570693 
L 263.521065 186.772277 
L 263.682009 186.772277 
L 263.682009 185.973861 
L 263.794503 185.973861 
L 263.889874 184.37703 
L 264.570917 184.37703 
L 264.570917 183.578614 
L 264.842492 183.578614 
L 264.860799 181.981782 
L 265.012548 181.981782 
L 265.012548 181.183366 
L 265.291127 181.183366 
L 265.291127 180.38495 
L 265.446898 180.38495 
L 265.513103 178.788119 
L 265.601392 178.788119 
L 265.601392 177.989703 
L 265.842278 177.989703 
L 265.93891 175.594455 
L 266.272121 175.594455 
L 266.371281 173.199208 
L 266.508557 173.199208 
L 266.535608 171.602376 
L 266.789525 171.602376 
L 266.789525 170.80396 
L 266.961005 170.80396 
L 266.961005 170.005545 
L 267.100208 170.005545 
L 267.168883 168.408713 
L 267.983945 168.408713 
L 268.008814 166.811881 
L 268.344862 166.811881 
L 268.344862 166.013465 
L 268.52347 166.013465 
L 268.52347 165.21505 
L 269.122988 165.21505 
L 269.181444 163.618218 
L 269.311162 163.618218 
L 269.410635 162.021386 
L 269.463718 162.021386 
L 269.463718 161.22297 
L 269.588213 161.22297 
L 269.588213 160.424554 
L 270.220686 160.424554 
L 270.220686 159.626139 
L 270.464084 159.626139 
L 270.547496 157.230891 
L 270.786838 157.230891 
L 270.888243 154.835644 
L 271.223087 154.835644 
L 271.223087 154.037228 
L 271.477068 154.037228 
L 271.477068 153.238812 
L 271.67779 153.238812 
L 271.785836 150.843564 
L 271.815651 150.843564 
L 271.815651 150.045149 
L 271.949611 150.045149 
L 271.970888 148.448317 
L 272.106434 148.448317 
L 272.201964 146.053069 
L 272.352293 146.053069 
L 272.362989 144.456238 
L 272.874492 144.456238 
L 272.874492 143.657822 
L 273.029961 143.657822 
L 273.029961 142.859406 
L 273.284858 142.859406 
L 273.299625 141.262574 
L 273.633361 141.262574 
L 273.633361 140.464158 
L 274.065743 140.464158 
L 274.065743 139.665743 
L 275.086191 139.665743 
L 275.086191 138.867327 
L 275.97101 138.867327 
L 275.978451 137.270495 
L 276.179741 137.270495 
L 276.179741 136.472079 
L 276.601615 136.472079 
L 276.601615 135.673663 
L 277.627959 135.673663 
L 277.627959 134.875248 
L 279.318232 134.875248 
L 279.318232 134.076832 
L 279.699037 134.076832 
L 279.699037 133.278416 
L 280.412092 133.278416 
L 280.412092 132.48 
L 280.835546 132.48 
L 280.835546 131.681584 
L 281.086464 131.681584 
L 281.086464 130.883168 
L 281.46106 130.883168 
L 281.46106 130.084752 
L 281.573953 130.084752 
L 281.573953 129.286337 
L 283.133306 129.286337 
L 283.133306 128.487921 
L 283.459304 128.487921 
L 283.567105 126.092673 
L 283.664199 126.092673 
L 283.664199 125.294257 
L 283.791498 125.294257 
L 283.791498 124.495842 
L 284.393528 124.495842 
L 284.393528 123.697426 
L 284.509791 123.697426 
L 284.509791 122.89901 
L 284.670747 122.89901 
L 284.761265 121.302178 
L 284.817693 121.302178 
L 284.817693 120.503762 
L 285.075095 120.503762 
L 285.075095 119.705347 
L 285.394274 119.705347 
L 285.436092 117.310099 
L 285.597513 117.310099 
L 285.597513 116.511683 
L 285.796859 116.511683 
L 285.796859 115.713267 
L 285.998183 115.713267 
L 286.008903 113.31802 
L 286.470199 113.31802 
L 286.557329 111.721188 
L 286.638468 111.721188 
L 286.638468 110.922772 
L 286.794732 110.922772 
L 286.794732 110.124356 
L 287.076739 110.124356 
L 287.076739 109.325941 
L 287.754643 109.325941 
L 287.84462 106.930693 
L 288.064352 106.930693 
L 288.109784 105.333861 
L 288.296393 105.333861 
L 288.319426 103.73703 
L 288.835598 103.73703 
L 288.835598 102.938614 
L 288.966399 102.938614 
L 289.065177 101.341782 
L 289.184195 101.341782 
L 289.184195 100.543366 
L 289.330353 100.543366 
L 289.412223 98.946535 
L 289.692798 98.946535 
L 289.743156 97.349703 
L 289.822831 97.349703 
L 289.822831 96.551287 
L 289.998731 96.551287 
L 289.998731 95.752871 
L 290.16854 95.752871 
L 290.16854 94.954455 
L 290.287028 94.954455 
L 290.327966 93.357624 
L 290.492334 93.357624 
L 290.492334 92.559208 
L 290.844493 92.559208 
L 290.844493 91.760792 
L 291.730445 91.760792 
L 291.730445 90.962376 
L 293.140053 90.962376 
L 293.140053 90.16396 
L 293.52891 90.16396 
L 293.52891 89.365545 
L 294.727584 89.365545 
L 294.727584 88.567129 
L 294.97315 88.567129 
L 294.97315 87.768713 
L 295.189033 87.768713 
L 295.226484 86.171881 
L 295.359674 86.171881 
L 295.359674 85.373465 
L 295.992484 85.373465 
L 295.992484 84.57505 
L 296.129425 84.57505 
L 296.129425 83.776634 
L 296.606044 83.776634 
L 296.699071 82.179802 
L 296.809178 82.179802 
L 296.825724 80.58297 
L 296.963167 80.58297 
L 296.963167 79.784554 
L 297.16857 79.784554 
L 297.16857 78.986139 
L 297.492763 78.986139 
L 297.555752 77.389307 
L 297.636007 77.389307 
L 297.636007 76.590891 
L 297.935756 76.590891 
L 298.014447 74.994059 
L 298.168302 74.994059 
L 298.168302 74.195644 
L 298.448323 74.195644 
L 298.448323 73.397228 
L 298.647045 73.397228 
L 298.647045 72.598812 
L 299.079016 72.598812 
L 299.147294 71.00198 
L 300.435647 71.00198 
L 300.536565 69.405149 
L 302.332011 69.405149 
L 302.332011 68.606733 
L 302.986575 68.606733 
L 302.986575 67.808317 
L 303.674786 67.808317 
L 303.736387 66.211485 
L 303.914087 66.211485 
L 303.914087 65.413069 
L 313.355518 65.413069 
L 313.355518 64.614653 
L 314.47522 64.614653 
L 314.47522 63.816238 
L 318.149988 63.816238 
L 318.149988 63.017822 
L 321.761251 63.017822 
L 321.761251 62.219406 
L 323.354447 62.219406 
L 323.354447 61.42099 
L 327.014546 61.42099 
L 327.014546 60.622574 
L 327.447614 60.622574 
L 327.472007 59.025743 
L 327.59983 59.025743 
L 327.59983 58.227327 
L 328.017995 58.227327 
L 328.017995 57.428911 
L 328.204507 57.428911 
L 328.204507 56.630495 
L 328.430815 56.630495 
L 328.430815 55.832079 
L 330.046324 55.832079 
L 330.046324 55.033663 
L 332.741728 55.033663 
L 332.741728 54.235248 
L 333.48564 54.235248 
L 333.48564 53.436832 
L 334.413985 53.436832 
L 334.413985 52.638416 
L 341.231681 52.638416 
L 341.231681 51.84 
L 341.466383 51.84 
L 341.466383 51.041584 
L 344.117864 51.041584 
L 344.117864 50.243168 
L 346.414741 50.243168 
L 346.414741 49.444752 
L 346.995692 49.444752 
L 346.995692 48.646337 
L 347.70552 48.646337 
L 347.748758 47.049505 
L 348.524013 47.049505 
L 348.524013 46.251089 
L 349.2262 46.251089 
L 349.2262 45.452673 
L 350.278828 45.452673 
L 350.278828 44.654257 
L 351.529756 44.654257 
L 351.529756 43.855842 
L 351.659521 43.855842 
L 351.659521 43.057426 
L 353.829338 43.057426 
L 353.829338 42.25901 
L 355.451829 42.25901 
L 355.451829 41.460594 
L 357.879157 41.460594 
L 357.879157 40.662178 
L 358.581319 40.662178 
L 358.581319 39.863762 
L 359.922718 39.863762 
L 359.922718 39.065347 
L 361.09024 39.065347 
L 361.09024 38.266931 
L 362.494807 38.266931 
L 362.494807 37.468515 
L 363.587115 37.468515 
L 363.587115 36.670099 
L 365.009981 36.670099 
L 365.046896 35.073267 
L 366.177944 35.073267 
L 366.177944 34.274851 
L 367.054232 34.274851 
L 367.054232 33.476436 
L 367.258282 33.476436 
L 367.258282 32.67802 
L 368.041801 32.67802 
L 368.041801 31.879604 
L 369.140904 31.879604 
L 369.140904 31.081188 
L 371.112388 31.081188 
L 371.112388 30.282772 
L 372.898002 30.282772 
L 372.898002 29.484356 
L 373.055021 29.484356 
L 373.055021 28.685941 
L 373.206077 28.685941 
L 373.206077 27.887525 
L 374.621123 27.887525 
L 374.621123 27.089109 
L 375.685218 27.089109 
L 375.709593 25.492277 
L 377.953241 25.492277 
L 377.953241 24.693861 
L 381.181337 24.693861 
L 381.181337 23.895446 
L 381.927021 23.895446 
L 381.927021 23.09703 
L 382.27737 23.09703 
L 382.27737 22.298614 
L 382.949738 22.298614 
L 383.060153 20.701782 
L 383.914434 20.701782 
L 383.976749 19.10495 
L 384.843394 19.10495 
L 384.843394 18.306535 
L 410.450538 18.306535 
L 410.450538 17.508119 
L 412.389976 17.508119 
L 412.389976 16.709703 
L 416.845486 16.709703 
L 416.845486 15.911287 
L 417.213807 15.911287 
L 417.213807 15.112871 
L 419.487621 15.112871 
L 419.487621 14.314455 
L 420.814368 14.314455 
L 420.825948 12.717624 
L 421.531635 12.717624 
L 421.531635 11.919208 
L 422.518573 11.919208 
L 422.518573 11.120792 
L 425.314159 11.120792 
L 425.314159 10.322376 
L 426.309856 10.322376 
L 426.309856 9.52396 
L 426.899882 9.52396 
L 426.899882 8.725545 
L 428.503848 8.725545 
L 428.503848 7.927129 
L 428.836328 7.927129 
L 428.836328 7.128713 
L 430.051406 7.128713 
L 430.051406 6.330297 
L 430.051406 6.330297 
L 460.8 6.330297 
L 460.8 6.330297 
" clip-path="url(#pd0712597ae)" style="fill: none; stroke: #bf00bf; stroke-width: 1.5; stroke-linecap: square"/>
   </g>
   <g id="patch_3">
    <path d="M 0 293.76 
L 0 3.456 
" style="fill: none; stroke: #000000; stroke-width: 0.8; stroke-linejoin: miter; stroke-linecap: square"/>
   </g>
   <g id="patch_4">
    <path d="M 460.8 293.76 
L 460.8 3.456 
" style="fill: none; stroke: #000000; stroke-width: 0.8; stroke-linejoin: miter; stroke-linecap: square"/>
   </g>
   <g id="patch_5">
    <path d="M 0 293.76 
L 460.8 293.76 
" style="fill: none; stroke: #000000; stroke-width: 0.8; stroke-linejoin: miter; stroke-linecap: square"/>
   </g>
   <g id="patch_6">
    <path d="M 0 3.456 
L 460.8 3.456 
" style="fill: none; stroke: #000000; stroke-width: 0.8; stroke-linejoin: miter; stroke-linecap: square"/>
   </g>
   <g id="text_6">
    <!-- {f1-f24}, 20-D -->
    <g transform="translate(305.884 287.95392) scale(0.2 -0.2)">
     <defs>
      <path id="DejaVuSans-7b" d="M 3272 -594 
L 3272 -1044 
L 3078 -1044 
Q 2300 -1044 2036 -812 
Q 1772 -581 1772 109 
L 1772 856 
Q 1772 1328 1603 1509 
Q 1434 1691 991 1691 
L 800 1691 
L 800 2138 
L 991 2138 
Q 1438 2138 1605 2317 
Q 1772 2497 1772 2963 
L 1772 3713 
Q 1772 4403 2036 4633 
Q 2300 4863 3078 4863 
L 3272 4863 
L 3272 4416 
L 3059 4416 
Q 2619 4416 2484 4278 
Q 2350 4141 2350 3700 
L 2350 2925 
Q 2350 2434 2208 2212 
Q 2066 1991 1722 1913 
Q 2069 1828 2209 1606 
Q 2350 1384 2350 897 
L 2350 122 
Q 2350 -319 2484 -456 
Q 2619 -594 3059 -594 
L 3272 -594 
z
" transform="scale(0.015625)"/>
      <path id="DejaVuSans-32" d="M 1228 531 
L 3431 531 
L 3431 0 
L 469 0 
L 469 531 
Q 828 903 1448 1529 
Q 2069 2156 2228 2338 
Q 2531 2678 2651 2914 
Q 2772 3150 2772 3378 
Q 2772 3750 2511 3984 
Q 2250 4219 1831 4219 
Q 1534 4219 1204 4116 
Q 875 4013 500 3803 
L 500 4441 
Q 881 4594 1212 4672 
Q 1544 4750 1819 4750 
Q 2544 4750 2975 4387 
Q 3406 4025 3406 3419 
Q 3406 3131 3298 2873 
Q 3191 2616 2906 2266 
Q 2828 2175 2409 1742 
Q 1991 1309 1228 531 
z
" transform="scale(0.015625)"/>
      <path id="DejaVuSans-7d" d="M 800 -594 
L 1019 -594 
Q 1456 -594 1589 -459 
Q 1722 -325 1722 122 
L 1722 897 
Q 1722 1384 1862 1606 
Q 2003 1828 2350 1913 
Q 2003 1991 1862 2212 
Q 1722 2434 1722 2925 
L 1722 3700 
Q 1722 4144 1589 4280 
Q 1456 4416 1019 4416 
L 800 4416 
L 800 4863 
L 997 4863 
Q 1775 4863 2036 4633 
Q 2297 4403 2297 3713 
L 2297 2963 
Q 2297 2497 2465 2317 
Q 2634 2138 3078 2138 
L 3272 2138 
L 3272 1691 
L 3078 1691 
Q 2634 1691 2465 1509 
Q 2297 1328 2297 856 
L 2297 109 
Q 2297 -581 2036 -812 
Q 1775 -1044 997 -1044 
L 800 -1044 
L 800 -594 
z
" transform="scale(0.015625)"/>
      <path id="DejaVuSans-2c" d="M 750 794 
L 1409 794 
L 1409 256 
L 897 -744 
L 494 -744 
L 750 256 
L 750 794 
z
" transform="scale(0.015625)"/>
     </defs>
     <use xlink:href="#DejaVuSans-7b"/>
     <use xlink:href="#DejaVuSans-66" x="63.623047"/>
     <use xlink:href="#DejaVuSans-31" x="98.828125"/>
     <use xlink:href="#DejaVuSans-2d" x="162.451172"/>
     <use xlink:href="#DejaVuSans-66" x="198.535156"/>
     <use xlink:href="#DejaVuSans-32" x="233.740234"/>
     <use xlink:href="#DejaVuSans-34" x="297.363281"/>
     <use xlink:href="#DejaVuSans-7d" x="360.986328"/>
     <use xlink:href="#DejaVuSans-2c" x="424.609375"/>
     <use xlink:href="#DejaVuSans-20" x="456.396484"/>
     <use xlink:href="#DejaVuSans-32" x="488.183594"/>
     <use xlink:href="#DejaVuSans-30" x="551.806641"/>
     <use xlink:href="#DejaVuSans-2d" x="615.429688"/>
     <use xlink:href="#DejaVuSans-44" x="651.513672"/>
    </g>
   </g>
   <g id="text_7">
    <!-- v2.6.3 -->
    <g style="fill: #808080" transform="translate(214.71875 288.777272) scale(0.1 -0.1)">
     <defs>
      <path id="DejaVuSans-76" d="M 191 3500 
L 800 3500 
L 1894 563 
L 2988 3500 
L 3597 3500 
L 2284 0 
L 1503 0 
L 191 3500 
z
" transform="scale(0.015625)"/>
      <path id="DejaVuSans-2e" d="M 684 794 
L 1344 794 
L 1344 0 
L 684 0 
L 684 794 
z
" transform="scale(0.015625)"/>
      <path id="DejaVuSans-36" d="M 2113 2584 
Q 1688 2584 1439 2293 
Q 1191 2003 1191 1497 
Q 1191 994 1439 701 
Q 1688 409 2113 409 
Q 2538 409 2786 701 
Q 3034 994 3034 1497 
Q 3034 2003 2786 2293 
Q 2538 2584 2113 2584 
z
M 3366 4563 
L 3366 3988 
Q 3128 4100 2886 4159 
Q 2644 4219 2406 4219 
Q 1781 4219 1451 3797 
Q 1122 3375 1075 2522 
Q 1259 2794 1537 2939 
Q 1816 3084 2150 3084 
Q 2853 3084 3261 2657 
Q 3669 2231 3669 1497 
Q 3669 778 3244 343 
Q 2819 -91 2113 -91 
Q 1303 -91 875 529 
Q 447 1150 447 2328 
Q 447 3434 972 4092 
Q 1497 4750 2381 4750 
Q 2619 4750 2861 4703 
Q 3103 4656 3366 4563 
z
" transform="scale(0.015625)"/>
      <path id="DejaVuSans-33" d="M 2597 2516 
Q 3050 2419 3304 2112 
Q 3559 1806 3559 1356 
Q 3559 666 3084 287 
Q 2609 -91 1734 -91 
Q 1441 -91 1130 -33 
Q 819 25 488 141 
L 488 750 
Q 750 597 1062 519 
Q 1375 441 1716 441 
Q 2309 441 2620 675 
Q 2931 909 2931 1356 
Q 2931 1769 2642 2001 
Q 2353 2234 1838 2234 
L 1294 2234 
L 1294 2753 
L 1863 2753 
Q 2328 2753 2575 2939 
Q 2822 3125 2822 3475 
Q 2822 3834 2567 4026 
Q 2313 4219 1838 4219 
Q 1578 4219 1281 4162 
Q 984 4106 628 3988 
L 628 4550 
Q 988 4650 1302 4700 
Q 1616 4750 1894 4750 
Q 2613 4750 3031 4423 
Q 3450 4097 3450 3541 
Q 3450 3153 3228 2886 
Q 3006 2619 2597 2516 
z
" transform="scale(0.015625)"/>
     </defs>
     <use xlink:href="#DejaVuSans-76"/>
     <use xlink:href="#DejaVuSans-32" x="59.179688"/>
     <use xlink:href="#DejaVuSans-2e" x="122.802734"/>
     <use xlink:href="#DejaVuSans-36" x="154.589844"/>
     <use xlink:href="#DejaVuSans-2e" x="218.212891"/>
     <use xlink:href="#DejaVuSans-33" x="250"/>
    </g>
   </g>
  </g>
 </g>
 <defs>
  <clipPath id="pd0712597ae">
   <rect x="0" y="3.456" width="460.8" height="290.304"/>
  </clipPath>
 </defs>
</svg>
