<?xml version="1.0" encoding="utf-8" standalone="no"?>
<!DOCTYPE svg PUBLIC "-//W3C//DTD SVG 1.1//EN"
  "http://www.w3.org/Graphics/SVG/1.1/DTD/svg11.dtd">
<svg xmlns:xlink="http://www.w3.org/1999/xlink" width="460.8pt" height="345.6pt" viewBox="0 0 460.8 345.6" xmlns="http://www.w3.org/2000/svg" version="1.1">
 <metadata>
  <rdf:RDF xmlns:dc="http://purl.org/dc/elements/1.1/" xmlns:cc="http://creativecommons.org/ns#" xmlns:rdf="http://www.w3.org/1999/02/22-rdf-syntax-ns#">
   <cc:Work>
    <dc:type rdf:resource="http://purl.org/dc/dcmitype/StillImage"/>
    <dc:date>2024-01-17T14:59:45.430283</dc:date>
    <dc:format>image/svg+xml</dc:format>
    <dc:creator>
     <cc:Agent>
      <dc:title>Matplotlib v3.8.2, https://matplotlib.org/</dc:title>
     </cc:Agent>
    </dc:creator>
   </cc:Work>
  </rdf:RDF>
 </metadata>
 <defs>
  <style type="text/css">*{stroke-linejoin: round; stroke-linecap: butt}</style>
 </defs>
 <g id="figure_1">
  <g id="patch_1">
   <path d="M 0 345.6 
L 460.8 345.6 
L 460.8 0 
L 0 0 
z
" style="fill: #ffffff"/>
  </g>
  <g id="axes_1">
   <g id="patch_2">
    <path d="M 0 293.76 
L 460.8 293.76 
L 460.8 3.456 
L 0 3.456 
z
" style="fill: #ffffff"/>
   </g>
   <g id="matplotlib.axis_1">
    <g id="xtick_1">
     <g id="line2d_1">
      <path d="M 106.339834 293.76 
L 106.339834 3.456 
" clip-path="url(#pbd2c796ae2)" style="fill: none; stroke: #b0b0b0; stroke-width: 0.8; stroke-linecap: square"/>
     </g>
     <g id="line2d_2">
      <defs>
       <path id="mf9af2ede51" d="M 0 0 
L 0 3.5 
" style="stroke: #000000; stroke-width: 0.8"/>
      </defs>
      <g>
       <use xlink:href="#mf9af2ede51" x="106.339834" y="293.76" style="stroke: #000000; stroke-width: 0.8"/>
      </g>
     </g>
     <g id="text_1">
      <!-- -4 -->
      <g transform="translate(96.369522 315.956875) scale(0.2 -0.2)">
       <defs>
        <path id="DejaVuSans-2d" d="M 313 2009 
L 1997 2009 
L 1997 1497 
L 313 1497 
L 313 2009 
z
" transform="scale(0.015625)"/>
        <path id="DejaVuSans-34" d="M 2419 4116 
L 825 1625 
L 2419 1625 
L 2419 4116 
z
M 2253 4666 
L 3047 4666 
L 3047 1625 
L 3713 1625 
L 3713 1100 
L 3047 1100 
L 3047 0 
L 2419 0 
L 2419 1100 
L 313 1100 
L 313 1709 
L 2253 4666 
z
" transform="scale(0.015625)"/>
       </defs>
       <use xlink:href="#DejaVuSans-2d"/>
       <use xlink:href="#DejaVuSans-34" x="36.083984"/>
      </g>
     </g>
    </g>
    <g id="xtick_2">
     <g id="line2d_3">
      <path d="M 212.794676 293.76 
L 212.794676 3.456 
" clip-path="url(#pbd2c796ae2)" style="fill: none; stroke: #b0b0b0; stroke-width: 0.8; stroke-linecap: square"/>
     </g>
     <g id="line2d_4">
      <g>
       <use xlink:href="#mf9af2ede51" x="212.794676" y="293.76" style="stroke: #000000; stroke-width: 0.8"/>
      </g>
     </g>
     <g id="text_2">
      <!-- 0 -->
      <g transform="translate(206.432176 315.956875) scale(0.2 -0.2)">
       <defs>
        <path id="DejaVuSans-30" d="M 2034 4250 
Q 1547 4250 1301 3770 
Q 1056 3291 1056 2328 
Q 1056 1369 1301 889 
Q 1547 409 2034 409 
Q 2525 409 2770 889 
Q 3016 1369 3016 2328 
Q 3016 3291 2770 3770 
Q 2525 4250 2034 4250 
z
M 2034 4750 
Q 2819 4750 3233 4129 
Q 3647 3509 3647 2328 
Q 3647 1150 3233 529 
Q 2819 -91 2034 -91 
Q 1250 -91 836 529 
Q 422 1150 422 2328 
Q 422 3509 836 4129 
Q 1250 4750 2034 4750 
z
" transform="scale(0.015625)"/>
       </defs>
       <use xlink:href="#DejaVuSans-30"/>
      </g>
     </g>
    </g>
    <g id="xtick_3">
     <g id="line2d_5">
      <path d="M 319.249518 293.76 
L 319.249518 3.456 
" clip-path="url(#pbd2c796ae2)" style="fill: none; stroke: #b0b0b0; stroke-width: 0.8; stroke-linecap: square"/>
     </g>
     <g id="line2d_6">
      <g>
       <use xlink:href="#mf9af2ede51" x="319.249518" y="293.76" style="stroke: #000000; stroke-width: 0.8"/>
      </g>
     </g>
     <g id="text_3">
      <!-- 4 -->
      <g transform="translate(312.887018 315.956875) scale(0.2 -0.2)">
       <use xlink:href="#DejaVuSans-34"/>
      </g>
     </g>
    </g>
    <g id="xtick_4">
     <g id="line2d_7">
      <path d="M 425.70436 293.76 
L 425.70436 3.456 
" clip-path="url(#pbd2c796ae2)" style="fill: none; stroke: #b0b0b0; stroke-width: 0.8; stroke-linecap: square"/>
     </g>
     <g id="line2d_8">
      <g>
       <use xlink:href="#mf9af2ede51" x="425.70436" y="293.76" style="stroke: #000000; stroke-width: 0.8"/>
      </g>
     </g>
     <g id="text_4">
      <!-- 8 -->
      <g transform="translate(419.34186 315.956875) scale(0.2 -0.2)">
       <defs>
        <path id="DejaVuSans-38" d="M 2034 2216 
Q 1584 2216 1326 1975 
Q 1069 1734 1069 1313 
Q 1069 891 1326 650 
Q 1584 409 2034 409 
Q 2484 409 2743 651 
Q 3003 894 3003 1313 
Q 3003 1734 2745 1975 
Q 2488 2216 2034 2216 
z
M 1403 2484 
Q 997 2584 770 2862 
Q 544 3141 544 3541 
Q 544 4100 942 4425 
Q 1341 4750 2034 4750 
Q 2731 4750 3128 4425 
Q 3525 4100 3525 3541 
Q 3525 3141 3298 2862 
Q 3072 2584 2669 2484 
Q 3125 2378 3379 2068 
Q 3634 1759 3634 1313 
Q 3634 634 3220 271 
Q 2806 -91 2034 -91 
Q 1263 -91 848 271 
Q 434 634 434 1313 
Q 434 1759 690 2068 
Q 947 2378 1403 2484 
z
M 1172 3481 
Q 1172 3119 1398 2916 
Q 1625 2713 2034 2713 
Q 2441 2713 2670 2916 
Q 2900 3119 2900 3481 
Q 2900 3844 2670 4047 
Q 2441 4250 2034 4250 
Q 1625 4250 1398 4047 
Q 1172 3844 1172 3481 
z
" transform="scale(0.015625)"/>
       </defs>
       <use xlink:href="#DejaVuSans-38"/>
      </g>
     </g>
    </g>
    <g id="text_5">
     <!-- log10 of Df -->
     <g transform="translate(175.214063 339.313125) scale(0.2 -0.2)">
      <defs>
       <path id="DejaVuSans-6c" d="M 603 4863 
L 1178 4863 
L 1178 0 
L 603 0 
L 603 4863 
z
" transform="scale(0.015625)"/>
       <path id="DejaVuSans-6f" d="M 1959 3097 
Q 1497 3097 1228 2736 
Q 959 2375 959 1747 
Q 959 1119 1226 758 
Q 1494 397 1959 397 
Q 2419 397 2687 759 
Q 2956 1122 2956 1747 
Q 2956 2369 2687 2733 
Q 2419 3097 1959 3097 
z
M 1959 3584 
Q 2709 3584 3137 3096 
Q 3566 2609 3566 1747 
Q 3566 888 3137 398 
Q 2709 -91 1959 -91 
Q 1206 -91 779 398 
Q 353 888 353 1747 
Q 353 2609 779 3096 
Q 1206 3584 1959 3584 
z
" transform="scale(0.015625)"/>
       <path id="DejaVuSans-67" d="M 2906 1791 
Q 2906 2416 2648 2759 
Q 2391 3103 1925 3103 
Q 1463 3103 1205 2759 
Q 947 2416 947 1791 
Q 947 1169 1205 825 
Q 1463 481 1925 481 
Q 2391 481 2648 825 
Q 2906 1169 2906 1791 
z
M 3481 434 
Q 3481 -459 3084 -895 
Q 2688 -1331 1869 -1331 
Q 1566 -1331 1297 -1286 
Q 1028 -1241 775 -1147 
L 775 -588 
Q 1028 -725 1275 -790 
Q 1522 -856 1778 -856 
Q 2344 -856 2625 -561 
Q 2906 -266 2906 331 
L 2906 616 
Q 2728 306 2450 153 
Q 2172 0 1784 0 
Q 1141 0 747 490 
Q 353 981 353 1791 
Q 353 2603 747 3093 
Q 1141 3584 1784 3584 
Q 2172 3584 2450 3431 
Q 2728 3278 2906 2969 
L 2906 3500 
L 3481 3500 
L 3481 434 
z
" transform="scale(0.015625)"/>
       <path id="DejaVuSans-31" d="M 794 531 
L 1825 531 
L 1825 4091 
L 703 3866 
L 703 4441 
L 1819 4666 
L 2450 4666 
L 2450 531 
L 3481 531 
L 3481 0 
L 794 0 
L 794 531 
z
" transform="scale(0.015625)"/>
       <path id="DejaVuSans-20" transform="scale(0.015625)"/>
       <path id="DejaVuSans-66" d="M 2375 4863 
L 2375 4384 
L 1825 4384 
Q 1516 4384 1395 4259 
Q 1275 4134 1275 3809 
L 1275 3500 
L 2222 3500 
L 2222 3053 
L 1275 3053 
L 1275 0 
L 697 0 
L 697 3053 
L 147 3053 
L 147 3500 
L 697 3500 
L 697 3744 
Q 697 4328 969 4595 
Q 1241 4863 1831 4863 
L 2375 4863 
z
" transform="scale(0.015625)"/>
       <path id="DejaVuSans-44" d="M 1259 4147 
L 1259 519 
L 2022 519 
Q 2988 519 3436 956 
Q 3884 1394 3884 2338 
Q 3884 3275 3436 3711 
Q 2988 4147 2022 4147 
L 1259 4147 
z
M 628 4666 
L 1925 4666 
Q 3281 4666 3915 4102 
Q 4550 3538 4550 2338 
Q 4550 1131 3912 565 
Q 3275 0 1925 0 
L 628 0 
L 628 4666 
z
" transform="scale(0.015625)"/>
      </defs>
      <use xlink:href="#DejaVuSans-6c"/>
      <use xlink:href="#DejaVuSans-6f" x="27.783203"/>
      <use xlink:href="#DejaVuSans-67" x="88.964844"/>
      <use xlink:href="#DejaVuSans-31" x="152.441406"/>
      <use xlink:href="#DejaVuSans-30" x="216.064453"/>
      <use xlink:href="#DejaVuSans-20" x="279.6875"/>
      <use xlink:href="#DejaVuSans-6f" x="311.474609"/>
      <use xlink:href="#DejaVuSans-66" x="372.65625"/>
      <use xlink:href="#DejaVuSans-20" x="407.861328"/>
      <use xlink:href="#DejaVuSans-44" x="439.648438"/>
      <use xlink:href="#DejaVuSans-66" x="516.650391"/>
     </g>
    </g>
   </g>
   <g id="matplotlib.axis_2">
    <g id="ytick_1">
     <g id="line2d_9">
      <path d="M 0 293.76 
L 460.8 293.76 
" clip-path="url(#pbd2c796ae2)" style="fill: none; stroke: #b0b0b0; stroke-width: 0.8; stroke-linecap: square"/>
     </g>
     <g id="line2d_10">
      <defs>
       <path id="m3552d08986" d="M 0 0 
L -3.5 0 
" style="stroke: #000000; stroke-width: 0.8"/>
      </defs>
      <g>
       <use xlink:href="#m3552d08986" x="0" y="293.76" style="stroke: #000000; stroke-width: 0.8"/>
      </g>
     </g>
    </g>
    <g id="ytick_2">
     <g id="line2d_11">
      <path d="M 0 236.274059 
L 460.8 236.274059 
" clip-path="url(#pbd2c796ae2)" style="fill: none; stroke: #b0b0b0; stroke-width: 0.8; stroke-linecap: square"/>
     </g>
     <g id="line2d_12">
      <g>
       <use xlink:href="#m3552d08986" x="0" y="236.274059" style="stroke: #000000; stroke-width: 0.8"/>
      </g>
     </g>
    </g>
    <g id="ytick_3">
     <g id="line2d_13">
      <path d="M 0 178.788119 
L 460.8 178.788119 
" clip-path="url(#pbd2c796ae2)" style="fill: none; stroke: #b0b0b0; stroke-width: 0.8; stroke-linecap: square"/>
     </g>
     <g id="line2d_14">
      <g>
       <use xlink:href="#m3552d08986" x="0" y="178.788119" style="stroke: #000000; stroke-width: 0.8"/>
      </g>
     </g>
    </g>
    <g id="ytick_4">
     <g id="line2d_15">
      <path d="M 0 121.302178 
L 460.8 121.302178 
" clip-path="url(#pbd2c796ae2)" style="fill: none; stroke: #b0b0b0; stroke-width: 0.8; stroke-linecap: square"/>
     </g>
     <g id="line2d_16">
      <g>
       <use xlink:href="#m3552d08986" x="0" y="121.302178" style="stroke: #000000; stroke-width: 0.8"/>
      </g>
     </g>
    </g>
    <g id="ytick_5">
     <g id="line2d_17">
      <path d="M 0 63.816238 
L 460.8 63.816238 
" clip-path="url(#pbd2c796ae2)" style="fill: none; stroke: #b0b0b0; stroke-width: 0.8; stroke-linecap: square"/>
     </g>
     <g id="line2d_18">
      <g>
       <use xlink:href="#m3552d08986" x="0" y="63.816238" style="stroke: #000000; stroke-width: 0.8"/>
      </g>
     </g>
    </g>
    <g id="ytick_6">
     <g id="line2d_19">
      <path d="M 0 6.330297 
L 460.8 6.330297 
" clip-path="url(#pbd2c796ae2)" style="fill: none; stroke: #b0b0b0; stroke-width: 0.8; stroke-linecap: square"/>
     </g>
     <g id="line2d_20">
      <g>
       <use xlink:href="#m3552d08986" x="0" y="6.330297" style="stroke: #000000; stroke-width: 0.8"/>
      </g>
     </g>
    </g>
   </g>
   <g id="line2d_21">
    <path d="M 227.374182 293.76 
L 227.374182 289.927604 
L 227.662853 289.927604 
L 227.662853 286.095208 
L 228.182961 286.095208 
L 228.182961 282.262812 
L 228.903729 282.262812 
L 228.903729 278.430416 
L 229.031336 278.430416 
L 229.031336 274.59802 
L 230.85443 274.59802 
L 230.919295 266.933228 
L 231.79938 266.933228 
L 231.79938 263.100832 
L 232.201213 263.100832 
L 232.201213 259.268436 
L 232.670849 259.268436 
L 232.670849 255.43604 
L 237.205893 255.43604 
L 237.205893 251.603644 
L 237.765145 251.603644 
L 237.765145 247.771248 
L 238.790171 247.771248 
L 238.790171 243.938851 
L 239.336494 243.938851 
L 239.336494 240.106455 
L 240.687488 240.106455 
L 240.770318 232.441663 
L 242.694215 232.441663 
L 242.694215 228.609267 
L 244.558327 228.609267 
L 244.558327 224.776871 
L 245.502415 224.776871 
L 245.502415 220.944475 
L 246.551609 220.944475 
L 246.551609 217.112079 
L 247.151727 217.112079 
L 247.151727 213.279683 
L 248.619738 213.279683 
L 248.619738 209.447287 
L 248.918133 209.447287 
L 248.918133 205.614891 
L 252.176098 205.614891 
L 252.280822 197.950099 
L 254.658495 197.950099 
L 254.658495 194.117703 
L 256.56796 194.117703 
L 256.56796 190.285307 
L 258.378409 190.285307 
L 258.378409 186.452911 
L 258.789751 186.452911 
L 258.862739 174.955723 
L 258.932774 174.955723 
L 258.981982 167.290931 
L 259.104388 167.290931 
L 259.104388 163.458535 
L 259.440682 163.458535 
L 259.440682 159.626139 
L 259.747847 159.626139 
L 259.747847 155.793743 
L 259.966763 155.793743 
L 259.966763 151.961347 
L 260.207195 151.961347 
L 260.207195 148.12895 
L 260.60491 148.12895 
L 260.60491 144.296554 
L 260.919707 144.296554 
L 260.92684 136.631762 
L 261.213355 136.631762 
L 261.213355 132.799366 
L 261.443659 132.799366 
L 261.509518 125.134574 
L 261.595927 125.134574 
L 261.629066 113.637386 
L 261.76979 113.637386 
L 261.76979 109.80499 
L 262.081511 109.80499 
L 262.081511 105.972594 
L 262.299529 105.972594 
L 262.299529 102.140198 
L 262.534096 102.140198 
L 262.534096 98.307802 
L 262.857135 98.307802 
L 262.857135 94.475406 
L 264.739789 94.475406 
L 264.739789 90.64301 
L 268.970669 90.64301 
L 268.970669 86.810614 
L 270.129089 86.810614 
L 270.191957 79.145822 
L 270.258836 79.145822 
L 270.325382 71.48103 
L 270.641076 71.48103 
L 270.703445 59.983842 
L 270.944674 59.983842 
L 271.044805 48.486653 
L 271.119138 48.486653 
L 271.119138 44.654257 
L 271.544613 44.654257 
L 271.544613 40.821861 
L 271.702572 40.821861 
L 271.702572 36.989465 
L 271.851344 36.989465 
L 271.851344 33.157069 
L 272.405044 33.157069 
L 272.405044 29.324673 
L 277.522093 29.324673 
L 277.522093 25.492277 
L 281.826142 25.492277 
L 281.826142 21.659881 
L 282.799067 21.659881 
L 282.799067 17.827485 
L 290.251981 17.827485 
L 290.251981 13.995089 
L 292.621856 13.995089 
L 292.621856 10.162693 
L 298.645667 10.162693 
L 298.645667 6.330297 
L 298.645667 6.330297 
L 460.8 6.330297 
L 460.8 6.330297 
" clip-path="url(#pbd2c796ae2)" style="fill: none; stroke: #ff0000; stroke-width: 3; stroke-linecap: square"/>
   </g>
   <g id="line2d_22">
    <path d="M 235.121134 293.76 
L 235.121134 289.927604 
L 238.492616 289.927604 
L 238.492616 286.095208 
L 238.614008 286.095208 
L 238.614008 282.262812 
L 239.039232 282.262812 
L 239.039232 278.430416 
L 240.692966 278.430416 
L 240.692966 274.59802 
L 243.543212 274.59802 
L 243.543212 270.765624 
L 244.439182 270.765624 
L 244.439182 266.933228 
L 245.253809 266.933228 
L 245.253809 263.100832 
L 246.258209 263.100832 
L 246.258209 259.268436 
L 247.467555 259.268436 
L 247.467555 255.43604 
L 248.419492 255.43604 
L 248.515976 243.938851 
L 251.471343 243.938851 
L 251.471343 240.106455 
L 253.00585 240.106455 
L 253.00585 236.274059 
L 261.767365 236.274059 
L 261.767365 232.441663 
L 262.77198 232.441663 
L 262.77198 228.609267 
L 262.918161 228.609267 
L 263.023601 213.279683 
L 263.068971 213.279683 
L 263.178334 197.950099 
L 263.217828 197.950099 
L 263.274631 190.285307 
L 263.353622 190.285307 
L 263.36853 178.788119 
L 263.473415 178.788119 
L 263.543623 167.290931 
L 263.596643 167.290931 
L 263.666321 140.464158 
L 263.720077 140.464158 
L 263.720077 136.631762 
L 263.843823 136.631762 
L 263.954553 125.134574 
L 263.96268 125.134574 
L 263.96268 121.302178 
L 277.709053 121.302178 
L 277.709053 117.469782 
L 278.464701 117.469782 
L 278.464701 113.637386 
L 279.022865 113.637386 
L 279.022865 109.80499 
L 279.14728 109.80499 
L 279.245869 98.307802 
L 279.572342 98.307802 
L 279.572342 94.475406 
L 279.69596 94.475406 
L 279.76669 82.978218 
L 280.031581 82.978218 
L 280.031581 79.145822 
L 280.239977 79.145822 
L 280.239977 75.313426 
L 280.497886 75.313426 
L 280.497886 71.48103 
L 280.88621 71.48103 
L 280.88621 67.648634 
L 281.485865 67.648634 
L 281.485865 63.816238 
L 326.246698 63.816238 
L 326.246699 6.330297 
L 326.246699 6.330297 
L 460.8 6.330297 
L 460.8 6.330297 
" clip-path="url(#pbd2c796ae2)" style="fill: none; stroke: #00bfbf; stroke-width: 1.5; stroke-linecap: square"/>
   </g>
   <g id="line2d_23">
    <path d="M 234.937237 293.76 
L 234.937237 289.927604 
L 238.458878 289.927604 
L 238.458878 286.095208 
L 238.614008 286.095208 
L 238.614008 282.262812 
L 238.951165 282.262812 
L 238.951165 278.430416 
L 240.639996 278.430416 
L 240.639996 274.59802 
L 243.543212 274.59802 
L 243.543212 270.765624 
L 244.416846 270.765624 
L 244.416846 266.933228 
L 245.215677 266.933228 
L 245.215677 263.100832 
L 246.252228 263.100832 
L 246.252228 259.268436 
L 247.452557 259.268436 
L 247.452557 255.43604 
L 248.336975 255.43604 
L 248.408758 247.771248 
L 248.482759 247.771248 
L 248.482759 243.938851 
L 251.448563 243.938851 
L 251.448563 240.106455 
L 253.00585 240.106455 
L 253.00585 236.274059 
L 261.767254 236.274059 
L 261.767254 232.441663 
L 262.771947 232.441663 
L 262.771947 228.609267 
L 262.918136 228.609267 
L 263.023565 213.279683 
L 263.068949 213.279683 
L 263.178285 197.950099 
L 263.217809 197.950099 
L 263.274589 190.285307 
L 263.353587 190.285307 
L 263.368517 178.788119 
L 263.473415 178.788119 
L 263.543597 167.290931 
L 263.596635 167.290931 
L 263.666305 140.464158 
L 263.72006 140.464158 
L 263.72006 136.631762 
L 263.843823 136.631762 
L 263.954553 125.134574 
L 263.962634 125.134574 
L 263.962634 121.302178 
L 277.705684 121.302178 
L 277.705684 117.469782 
L 278.463258 117.469782 
L 278.463258 113.637386 
L 279.022865 113.637386 
L 279.022865 109.80499 
L 279.144522 109.80499 
L 279.244952 98.307802 
L 279.567152 98.307802 
L 279.567152 94.475406 
L 279.69371 94.475406 
L 279.762924 82.978218 
L 280.026242 82.978218 
L 280.026242 79.145822 
L 280.23437 79.145822 
L 280.23437 75.313426 
L 280.495899 75.313426 
L 280.495899 71.48103 
L 280.879401 71.48103 
L 280.879401 67.648634 
L 281.484235 67.648634 
L 281.484235 63.816238 
L 326.244711 63.816238 
L 326.245451 6.330297 
L 326.245451 6.330297 
L 460.8 6.330297 
L 460.8 6.330297 
" clip-path="url(#pbd2c796ae2)" style="fill: none; stroke: #bf00bf; stroke-width: 1.5; stroke-linecap: square"/>
   </g>
   <g id="line2d_24">
    <path d="M 234.778764 293.76 
L 234.778764 289.927604 
L 237.936924 289.927604 
L 237.936924 286.095208 
L 238.292642 286.095208 
L 238.292642 282.262812 
L 238.52867 282.262812 
L 238.52867 278.430416 
L 240.400008 278.430416 
L 240.400008 274.59802 
L 243.339093 274.59802 
L 243.339093 270.765624 
L 244.174409 270.765624 
L 244.174409 266.933228 
L 244.973501 266.933228 
L 244.973501 263.100832 
L 245.980057 263.100832 
L 245.980057 259.268436 
L 247.314813 259.268436 
L 247.314813 255.43604 
L 248.161975 255.43604 
L 248.238838 243.938851 
L 251.239608 243.938851 
L 251.239608 240.106455 
L 252.822126 240.106455 
L 252.822126 236.274059 
L 261.766579 236.274059 
L 261.766579 232.441663 
L 262.771727 232.441663 
L 262.771727 228.609267 
L 262.917676 228.609267 
L 263.023284 213.279683 
L 263.068664 213.279683 
L 263.177867 197.950099 
L 263.217513 197.950099 
L 263.274333 190.285307 
L 263.353366 190.285307 
L 263.36819 178.788119 
L 263.473172 178.788119 
L 263.54332 167.290931 
L 263.596412 167.290931 
L 263.666068 140.464158 
L 263.719854 140.464158 
L 263.719854 136.631762 
L 263.843674 136.631762 
L 263.954448 125.134574 
L 263.962538 125.134574 
L 263.962538 121.302178 
L 277.677866 121.302178 
L 277.677866 117.469782 
L 278.423362 117.469782 
L 278.423362 113.637386 
L 278.977403 113.637386 
L 278.977403 109.80499 
L 279.109575 109.80499 
L 279.216376 98.307802 
L 279.527319 98.307802 
L 279.527319 94.475406 
L 279.654224 94.475406 
L 279.732605 82.978218 
L 279.999416 82.978218 
L 279.999416 79.145822 
L 280.208622 79.145822 
L 280.208622 75.313426 
L 280.459929 75.313426 
L 280.459929 71.48103 
L 280.849929 71.48103 
L 280.849929 67.648634 
L 281.459556 67.648634 
L 281.459556 63.816238 
L 326.23912 63.816238 
L 326.241797 6.330297 
L 326.241797 6.330297 
L 460.8 6.330297 
L 460.8 6.330297 
" clip-path="url(#pbd2c796ae2)" style="fill: none; stroke: #000000; stroke-width: 1.5; stroke-linecap: square"/>
   </g>
   <g id="line2d_25">
    <path d="M 232.702629 293.76 
L 232.702629 289.927604 
L 233.312423 289.927604 
L 233.312423 286.095208 
L 234.147072 286.095208 
L 234.147072 282.262812 
L 234.940835 282.262812 
L 234.9491 274.59802 
L 238.849294 274.59802 
L 238.849294 270.765624 
L 241.067361 270.765624 
L 241.067361 266.933228 
L 242.133379 266.933228 
L 242.150972 259.268436 
L 242.295537 259.268436 
L 242.295537 255.43604 
L 244.686385 255.43604 
L 244.686385 251.603644 
L 245.848536 251.603644 
L 245.848536 247.771248 
L 246.857266 247.771248 
L 246.857266 243.938851 
L 249.212326 243.938851 
L 249.212326 240.106455 
L 252.288952 240.106455 
L 252.288952 236.274059 
L 261.75284 236.274059 
L 261.75284 232.441663 
L 262.766387 232.441663 
L 262.766387 228.609267 
L 262.907717 228.609267 
L 263.016493 213.279683 
L 263.062725 213.279683 
L 263.170618 197.950099 
L 263.211597 197.950099 
L 263.268262 190.285307 
L 263.347249 190.285307 
L 263.36163 178.788119 
L 263.467304 178.788119 
L 263.537875 167.290931 
L 263.591651 167.290931 
L 263.66118 140.464158 
L 263.715781 140.464158 
L 263.715781 136.631762 
L 263.840616 136.631762 
L 263.847844 128.96697 
L 263.952171 128.96697 
L 263.958565 121.302178 
L 276.9039 121.302178 
L 276.9039 117.469782 
L 277.663621 117.469782 
L 277.663621 113.637386 
L 278.054473 113.637386 
L 278.054473 109.80499 
L 278.399331 109.80499 
L 278.492522 102.140198 
L 278.686968 102.140198 
L 278.726242 90.64301 
L 278.834535 90.64301 
L 278.834535 86.810614 
L 279.137541 86.810614 
L 279.137541 82.978218 
L 279.376151 82.978218 
L 279.376151 79.145822 
L 279.535953 79.145822 
L 279.535953 75.313426 
L 279.700429 75.313426 
L 279.700429 71.48103 
L 280.054789 71.48103 
L 280.054789 67.648634 
L 281.000698 67.648634 
L 281.000698 63.816238 
L 326.087937 63.816238 
L 326.144938 6.330297 
L 326.144938 6.330297 
L 460.8 6.330297 
L 460.8 6.330297 
" clip-path="url(#pbd2c796ae2)" style="fill: none; stroke: #00bfbf; stroke-width: 1.5; stroke-linecap: square"/>
   </g>
   <g id="line2d_26">
    <path d="M 227.904572 293.76 
L 227.904572 289.927604 
L 230.85443 289.927604 
L 230.919295 282.262812 
L 231.79938 282.262812 
L 231.79938 278.430416 
L 232.201213 278.430416 
L 232.201213 274.59802 
L 232.670849 274.59802 
L 232.670849 270.765624 
L 237.205893 270.765624 
L 237.205893 266.933228 
L 237.765145 266.933228 
L 237.765145 263.100832 
L 238.790171 263.100832 
L 238.790171 259.268436 
L 239.336494 259.268436 
L 239.336494 255.43604 
L 240.687488 255.43604 
L 240.770318 247.771248 
L 242.694215 247.771248 
L 242.694215 243.938851 
L 244.558327 243.938851 
L 244.558327 240.106455 
L 246.551609 240.106455 
L 246.551609 236.274059 
L 248.918133 236.274059 
L 248.918133 232.441663 
L 251.784346 232.441663 
L 251.784346 228.609267 
L 253.702795 228.609267 
L 253.702795 224.776871 
L 254.973498 224.776871 
L 254.973498 220.944475 
L 255.398959 220.944475 
L 255.398959 217.112079 
L 259.609765 217.112079 
L 259.609765 213.279683 
L 260.103064 213.279683 
L 260.155746 205.614891 
L 260.654631 205.614891 
L 260.654631 201.782495 
L 260.809311 201.782495 
L 260.809311 197.950099 
L 260.95889 197.950099 
L 261.068568 182.620515 
L 261.107645 182.620515 
L 261.107645 178.788119 
L 261.220718 178.788119 
L 261.220718 174.955723 
L 261.419008 174.955723 
L 261.433063 167.290931 
L 261.594079 167.290931 
L 261.703846 155.793743 
L 261.769179 155.793743 
L 261.78338 148.12895 
L 261.934398 148.12895 
L 262.043615 132.799366 
L 262.054961 132.799366 
L 262.054961 128.96697 
L 262.356987 128.96697 
L 262.356987 125.134574 
L 262.5715 125.134574 
L 262.656258 117.469782 
L 262.931254 117.469782 
L 262.931254 113.637386 
L 269.410635 113.637386 
L 269.410635 109.80499 
L 270.786838 109.80499 
L 270.786838 105.972594 
L 271.223087 105.972594 
L 271.223087 102.140198 
L 271.67779 102.140198 
L 271.767728 94.475406 
L 271.815651 94.475406 
L 271.815651 90.64301 
L 271.949611 90.64301 
L 271.970888 82.978218 
L 272.106434 82.978218 
L 272.184151 75.313426 
L 272.352293 75.313426 
L 272.362989 67.648634 
L 272.874492 67.648634 
L 272.874492 63.816238 
L 273.029961 63.816238 
L 273.029961 59.983842 
L 273.284858 59.983842 
L 273.299625 52.31905 
L 274.065743 52.31905 
L 274.065743 48.486653 
L 281.46106 48.486653 
L 281.46106 44.654257 
L 283.459304 44.654257 
L 283.459304 40.821861 
L 285.436092 40.821861 
L 285.436092 36.989465 
L 286.638468 36.989465 
L 286.638468 33.157069 
L 287.754643 33.157069 
L 287.754643 29.324673 
L 295.189033 29.324673 
L 295.189033 25.492277 
L 298.014447 25.492277 
L 298.014447 21.659881 
L 300.435647 21.659881 
L 300.536565 13.995089 
L 303.674786 13.995089 
L 303.736387 6.330297 
L 303.736387 6.330297 
L 460.8 6.330297 
L 460.8 6.330297 
" clip-path="url(#pbd2c796ae2)" style="fill: none; stroke: #bf00bf; stroke-width: 1.5; stroke-linecap: square"/>
   </g>
   <g id="patch_3">
    <path d="M 0 293.76 
L 0 3.456 
" style="fill: none; stroke: #000000; stroke-width: 0.8; stroke-linejoin: miter; stroke-linecap: square"/>
   </g>
   <g id="patch_4">
    <path d="M 460.8 293.76 
L 460.8 3.456 
" style="fill: none; stroke: #000000; stroke-width: 0.8; stroke-linejoin: miter; stroke-linecap: square"/>
   </g>
   <g id="patch_5">
    <path d="M 0 293.76 
L 460.8 293.76 
" style="fill: none; stroke: #000000; stroke-width: 0.8; stroke-linejoin: miter; stroke-linecap: square"/>
   </g>
   <g id="patch_6">
    <path d="M 0 3.456 
L 460.8 3.456 
" style="fill: none; stroke: #000000; stroke-width: 0.8; stroke-linejoin: miter; stroke-linecap: square"/>
   </g>
   <g id="text_6">
    <!-- {f20-f24}, 20-D -->
    <g transform="translate(293.159 287.95392) scale(0.2 -0.2)">
     <defs>
      <path id="DejaVuSans-7b" d="M 3272 -594 
L 3272 -1044 
L 3078 -1044 
Q 2300 -1044 2036 -812 
Q 1772 -581 1772 109 
L 1772 856 
Q 1772 1328 1603 1509 
Q 1434 1691 991 1691 
L 800 1691 
L 800 2138 
L 991 2138 
Q 1438 2138 1605 2317 
Q 1772 2497 1772 2963 
L 1772 3713 
Q 1772 4403 2036 4633 
Q 2300 4863 3078 4863 
L 3272 4863 
L 3272 4416 
L 3059 4416 
Q 2619 4416 2484 4278 
Q 2350 4141 2350 3700 
L 2350 2925 
Q 2350 2434 2208 2212 
Q 2066 1991 1722 1913 
Q 2069 1828 2209 1606 
Q 2350 1384 2350 897 
L 2350 122 
Q 2350 -319 2484 -456 
Q 2619 -594 3059 -594 
L 3272 -594 
z
" transform="scale(0.015625)"/>
      <path id="DejaVuSans-32" d="M 1228 531 
L 3431 531 
L 3431 0 
L 469 0 
L 469 531 
Q 828 903 1448 1529 
Q 2069 2156 2228 2338 
Q 2531 2678 2651 2914 
Q 2772 3150 2772 3378 
Q 2772 3750 2511 3984 
Q 2250 4219 1831 4219 
Q 1534 4219 1204 4116 
Q 875 4013 500 3803 
L 500 4441 
Q 881 4594 1212 4672 
Q 1544 4750 1819 4750 
Q 2544 4750 2975 4387 
Q 3406 4025 3406 3419 
Q 3406 3131 3298 2873 
Q 3191 2616 2906 2266 
Q 2828 2175 2409 1742 
Q 1991 1309 1228 531 
z
" transform="scale(0.015625)"/>
      <path id="DejaVuSans-7d" d="M 800 -594 
L 1019 -594 
Q 1456 -594 1589 -459 
Q 1722 -325 1722 122 
L 1722 897 
Q 1722 1384 1862 1606 
Q 2003 1828 2350 1913 
Q 2003 1991 1862 2212 
Q 1722 2434 1722 2925 
L 1722 3700 
Q 1722 4144 1589 4280 
Q 1456 4416 1019 4416 
L 800 4416 
L 800 4863 
L 997 4863 
Q 1775 4863 2036 4633 
Q 2297 4403 2297 3713 
L 2297 2963 
Q 2297 2497 2465 2317 
Q 2634 2138 3078 2138 
L 3272 2138 
L 3272 1691 
L 3078 1691 
Q 2634 1691 2465 1509 
Q 2297 1328 2297 856 
L 2297 109 
Q 2297 -581 2036 -812 
Q 1775 -1044 997 -1044 
L 800 -1044 
L 800 -594 
z
" transform="scale(0.015625)"/>
      <path id="DejaVuSans-2c" d="M 750 794 
L 1409 794 
L 1409 256 
L 897 -744 
L 494 -744 
L 750 256 
L 750 794 
z
" transform="scale(0.015625)"/>
     </defs>
     <use xlink:href="#DejaVuSans-7b"/>
     <use xlink:href="#DejaVuSans-66" x="63.623047"/>
     <use xlink:href="#DejaVuSans-32" x="98.828125"/>
     <use xlink:href="#DejaVuSans-30" x="162.451172"/>
     <use xlink:href="#DejaVuSans-2d" x="226.074219"/>
     <use xlink:href="#DejaVuSans-66" x="262.158203"/>
     <use xlink:href="#DejaVuSans-32" x="297.363281"/>
     <use xlink:href="#DejaVuSans-34" x="360.986328"/>
     <use xlink:href="#DejaVuSans-7d" x="424.609375"/>
     <use xlink:href="#DejaVuSans-2c" x="488.232422"/>
     <use xlink:href="#DejaVuSans-20" x="520.019531"/>
     <use xlink:href="#DejaVuSans-32" x="551.806641"/>
     <use xlink:href="#DejaVuSans-30" x="615.429688"/>
     <use xlink:href="#DejaVuSans-2d" x="679.052734"/>
     <use xlink:href="#DejaVuSans-44" x="715.136719"/>
    </g>
   </g>
   <g id="text_7">
    <!-- v2.6.3 -->
    <g style="fill: #808080" transform="translate(214.71875 288.777272) scale(0.1 -0.1)">
     <defs>
      <path id="DejaVuSans-76" d="M 191 3500 
L 800 3500 
L 1894 563 
L 2988 3500 
L 3597 3500 
L 2284 0 
L 1503 0 
L 191 3500 
z
" transform="scale(0.015625)"/>
      <path id="DejaVuSans-2e" d="M 684 794 
L 1344 794 
L 1344 0 
L 684 0 
L 684 794 
z
" transform="scale(0.015625)"/>
      <path id="DejaVuSans-36" d="M 2113 2584 
Q 1688 2584 1439 2293 
Q 1191 2003 1191 1497 
Q 1191 994 1439 701 
Q 1688 409 2113 409 
Q 2538 409 2786 701 
Q 3034 994 3034 1497 
Q 3034 2003 2786 2293 
Q 2538 2584 2113 2584 
z
M 3366 4563 
L 3366 3988 
Q 3128 4100 2886 4159 
Q 2644 4219 2406 4219 
Q 1781 4219 1451 3797 
Q 1122 3375 1075 2522 
Q 1259 2794 1537 2939 
Q 1816 3084 2150 3084 
Q 2853 3084 3261 2657 
Q 3669 2231 3669 1497 
Q 3669 778 3244 343 
Q 2819 -91 2113 -91 
Q 1303 -91 875 529 
Q 447 1150 447 2328 
Q 447 3434 972 4092 
Q 1497 4750 2381 4750 
Q 2619 4750 2861 4703 
Q 3103 4656 3366 4563 
z
" transform="scale(0.015625)"/>
      <path id="DejaVuSans-33" d="M 2597 2516 
Q 3050 2419 3304 2112 
Q 3559 1806 3559 1356 
Q 3559 666 3084 287 
Q 2609 -91 1734 -91 
Q 1441 -91 1130 -33 
Q 819 25 488 141 
L 488 750 
Q 750 597 1062 519 
Q 1375 441 1716 441 
Q 2309 441 2620 675 
Q 2931 909 2931 1356 
Q 2931 1769 2642 2001 
Q 2353 2234 1838 2234 
L 1294 2234 
L 1294 2753 
L 1863 2753 
Q 2328 2753 2575 2939 
Q 2822 3125 2822 3475 
Q 2822 3834 2567 4026 
Q 2313 4219 1838 4219 
Q 1578 4219 1281 4162 
Q 984 4106 628 3988 
L 628 4550 
Q 988 4650 1302 4700 
Q 1616 4750 1894 4750 
Q 2613 4750 3031 4423 
Q 3450 4097 3450 3541 
Q 3450 3153 3228 2886 
Q 3006 2619 2597 2516 
z
" transform="scale(0.015625)"/>
     </defs>
     <use xlink:href="#DejaVuSans-76"/>
     <use xlink:href="#DejaVuSans-32" x="59.179688"/>
     <use xlink:href="#DejaVuSans-2e" x="122.802734"/>
     <use xlink:href="#DejaVuSans-36" x="154.589844"/>
     <use xlink:href="#DejaVuSans-2e" x="218.212891"/>
     <use xlink:href="#DejaVuSans-33" x="250"/>
    </g>
   </g>
  </g>
 </g>
 <defs>
  <clipPath id="pbd2c796ae2">
   <rect x="0" y="3.456" width="460.8" height="290.304"/>
  </clipPath>
 </defs>
</svg>
