<?xml version="1.0" encoding="utf-8" standalone="no"?>
<!DOCTYPE svg PUBLIC "-//W3C//DTD SVG 1.1//EN"
  "http://www.w3.org/Graphics/SVG/1.1/DTD/svg11.dtd">
<svg xmlns:xlink="http://www.w3.org/1999/xlink" width="460.8pt" height="345.6pt" viewBox="0 0 460.8 345.6" xmlns="http://www.w3.org/2000/svg" version="1.1">
 <metadata>
  <rdf:RDF xmlns:dc="http://purl.org/dc/elements/1.1/" xmlns:cc="http://creativecommons.org/ns#" xmlns:rdf="http://www.w3.org/1999/02/22-rdf-syntax-ns#">
   <cc:Work>
    <dc:type rdf:resource="http://purl.org/dc/dcmitype/StillImage"/>
    <dc:date>2024-01-17T14:59:44.040457</dc:date>
    <dc:format>image/svg+xml</dc:format>
    <dc:creator>
     <cc:Agent>
      <dc:title>Matplotlib v3.8.2, https://matplotlib.org/</dc:title>
     </cc:Agent>
    </dc:creator>
   </cc:Work>
  </rdf:RDF>
 </metadata>
 <defs>
  <style type="text/css">*{stroke-linejoin: round; stroke-linecap: butt}</style>
 </defs>
 <g id="figure_1">
  <g id="patch_1">
   <path d="M 0 345.6 
L 460.8 345.6 
L 460.8 0 
L 0 0 
z
" style="fill: #ffffff"/>
  </g>
  <g id="axes_1">
   <g id="patch_2">
    <path d="M 0 293.76 
L 460.8 293.76 
L 460.8 3.456 
L 0 3.456 
z
" style="fill: #ffffff"/>
   </g>
   <g id="matplotlib.axis_1">
    <g id="xtick_1">
     <g id="line2d_1">
      <path d="M 106.339834 293.76 
L 106.339834 3.456 
" clip-path="url(#p52dae2f64f)" style="fill: none; stroke: #b0b0b0; stroke-width: 0.8; stroke-linecap: square"/>
     </g>
     <g id="line2d_2">
      <defs>
       <path id="m2bcab4d1f3" d="M 0 0 
L 0 3.5 
" style="stroke: #000000; stroke-width: 0.8"/>
      </defs>
      <g>
       <use xlink:href="#m2bcab4d1f3" x="106.339834" y="293.76" style="stroke: #000000; stroke-width: 0.8"/>
      </g>
     </g>
     <g id="text_1">
      <!-- -4 -->
      <g transform="translate(96.369522 315.956875) scale(0.2 -0.2)">
       <defs>
        <path id="DejaVuSans-2d" d="M 313 2009 
L 1997 2009 
L 1997 1497 
L 313 1497 
L 313 2009 
z
" transform="scale(0.015625)"/>
        <path id="DejaVuSans-34" d="M 2419 4116 
L 825 1625 
L 2419 1625 
L 2419 4116 
z
M 2253 4666 
L 3047 4666 
L 3047 1625 
L 3713 1625 
L 3713 1100 
L 3047 1100 
L 3047 0 
L 2419 0 
L 2419 1100 
L 313 1100 
L 313 1709 
L 2253 4666 
z
" transform="scale(0.015625)"/>
       </defs>
       <use xlink:href="#DejaVuSans-2d"/>
       <use xlink:href="#DejaVuSans-34" x="36.083984"/>
      </g>
     </g>
    </g>
    <g id="xtick_2">
     <g id="line2d_3">
      <path d="M 212.794676 293.76 
L 212.794676 3.456 
" clip-path="url(#p52dae2f64f)" style="fill: none; stroke: #b0b0b0; stroke-width: 0.8; stroke-linecap: square"/>
     </g>
     <g id="line2d_4">
      <g>
       <use xlink:href="#m2bcab4d1f3" x="212.794676" y="293.76" style="stroke: #000000; stroke-width: 0.8"/>
      </g>
     </g>
     <g id="text_2">
      <!-- 0 -->
      <g transform="translate(206.432176 315.956875) scale(0.2 -0.2)">
       <defs>
        <path id="DejaVuSans-30" d="M 2034 4250 
Q 1547 4250 1301 3770 
Q 1056 3291 1056 2328 
Q 1056 1369 1301 889 
Q 1547 409 2034 409 
Q 2525 409 2770 889 
Q 3016 1369 3016 2328 
Q 3016 3291 2770 3770 
Q 2525 4250 2034 4250 
z
M 2034 4750 
Q 2819 4750 3233 4129 
Q 3647 3509 3647 2328 
Q 3647 1150 3233 529 
Q 2819 -91 2034 -91 
Q 1250 -91 836 529 
Q 422 1150 422 2328 
Q 422 3509 836 4129 
Q 1250 4750 2034 4750 
z
" transform="scale(0.015625)"/>
       </defs>
       <use xlink:href="#DejaVuSans-30"/>
      </g>
     </g>
    </g>
    <g id="xtick_3">
     <g id="line2d_5">
      <path d="M 319.249518 293.76 
L 319.249518 3.456 
" clip-path="url(#p52dae2f64f)" style="fill: none; stroke: #b0b0b0; stroke-width: 0.8; stroke-linecap: square"/>
     </g>
     <g id="line2d_6">
      <g>
       <use xlink:href="#m2bcab4d1f3" x="319.249518" y="293.76" style="stroke: #000000; stroke-width: 0.8"/>
      </g>
     </g>
     <g id="text_3">
      <!-- 4 -->
      <g transform="translate(312.887018 315.956875) scale(0.2 -0.2)">
       <use xlink:href="#DejaVuSans-34"/>
      </g>
     </g>
    </g>
    <g id="xtick_4">
     <g id="line2d_7">
      <path d="M 425.70436 293.76 
L 425.70436 3.456 
" clip-path="url(#p52dae2f64f)" style="fill: none; stroke: #b0b0b0; stroke-width: 0.8; stroke-linecap: square"/>
     </g>
     <g id="line2d_8">
      <g>
       <use xlink:href="#m2bcab4d1f3" x="425.70436" y="293.76" style="stroke: #000000; stroke-width: 0.8"/>
      </g>
     </g>
     <g id="text_4">
      <!-- 8 -->
      <g transform="translate(419.34186 315.956875) scale(0.2 -0.2)">
       <defs>
        <path id="DejaVuSans-38" d="M 2034 2216 
Q 1584 2216 1326 1975 
Q 1069 1734 1069 1313 
Q 1069 891 1326 650 
Q 1584 409 2034 409 
Q 2484 409 2743 651 
Q 3003 894 3003 1313 
Q 3003 1734 2745 1975 
Q 2488 2216 2034 2216 
z
M 1403 2484 
Q 997 2584 770 2862 
Q 544 3141 544 3541 
Q 544 4100 942 4425 
Q 1341 4750 2034 4750 
Q 2731 4750 3128 4425 
Q 3525 4100 3525 3541 
Q 3525 3141 3298 2862 
Q 3072 2584 2669 2484 
Q 3125 2378 3379 2068 
Q 3634 1759 3634 1313 
Q 3634 634 3220 271 
Q 2806 -91 2034 -91 
Q 1263 -91 848 271 
Q 434 634 434 1313 
Q 434 1759 690 2068 
Q 947 2378 1403 2484 
z
M 1172 3481 
Q 1172 3119 1398 2916 
Q 1625 2713 2034 2713 
Q 2441 2713 2670 2916 
Q 2900 3119 2900 3481 
Q 2900 3844 2670 4047 
Q 2441 4250 2034 4250 
Q 1625 4250 1398 4047 
Q 1172 3844 1172 3481 
z
" transform="scale(0.015625)"/>
       </defs>
       <use xlink:href="#DejaVuSans-38"/>
      </g>
     </g>
    </g>
    <g id="text_5">
     <!-- log10 of Df -->
     <g transform="translate(175.214063 339.313125) scale(0.2 -0.2)">
      <defs>
       <path id="DejaVuSans-6c" d="M 603 4863 
L 1178 4863 
L 1178 0 
L 603 0 
L 603 4863 
z
" transform="scale(0.015625)"/>
       <path id="DejaVuSans-6f" d="M 1959 3097 
Q 1497 3097 1228 2736 
Q 959 2375 959 1747 
Q 959 1119 1226 758 
Q 1494 397 1959 397 
Q 2419 397 2687 759 
Q 2956 1122 2956 1747 
Q 2956 2369 2687 2733 
Q 2419 3097 1959 3097 
z
M 1959 3584 
Q 2709 3584 3137 3096 
Q 3566 2609 3566 1747 
Q 3566 888 3137 398 
Q 2709 -91 1959 -91 
Q 1206 -91 779 398 
Q 353 888 353 1747 
Q 353 2609 779 3096 
Q 1206 3584 1959 3584 
z
" transform="scale(0.015625)"/>
       <path id="DejaVuSans-67" d="M 2906 1791 
Q 2906 2416 2648 2759 
Q 2391 3103 1925 3103 
Q 1463 3103 1205 2759 
Q 947 2416 947 1791 
Q 947 1169 1205 825 
Q 1463 481 1925 481 
Q 2391 481 2648 825 
Q 2906 1169 2906 1791 
z
M 3481 434 
Q 3481 -459 3084 -895 
Q 2688 -1331 1869 -1331 
Q 1566 -1331 1297 -1286 
Q 1028 -1241 775 -1147 
L 775 -588 
Q 1028 -725 1275 -790 
Q 1522 -856 1778 -856 
Q 2344 -856 2625 -561 
Q 2906 -266 2906 331 
L 2906 616 
Q 2728 306 2450 153 
Q 2172 0 1784 0 
Q 1141 0 747 490 
Q 353 981 353 1791 
Q 353 2603 747 3093 
Q 1141 3584 1784 3584 
Q 2172 3584 2450 3431 
Q 2728 3278 2906 2969 
L 2906 3500 
L 3481 3500 
L 3481 434 
z
" transform="scale(0.015625)"/>
       <path id="DejaVuSans-31" d="M 794 531 
L 1825 531 
L 1825 4091 
L 703 3866 
L 703 4441 
L 1819 4666 
L 2450 4666 
L 2450 531 
L 3481 531 
L 3481 0 
L 794 0 
L 794 531 
z
" transform="scale(0.015625)"/>
       <path id="DejaVuSans-20" transform="scale(0.015625)"/>
       <path id="DejaVuSans-66" d="M 2375 4863 
L 2375 4384 
L 1825 4384 
Q 1516 4384 1395 4259 
Q 1275 4134 1275 3809 
L 1275 3500 
L 2222 3500 
L 2222 3053 
L 1275 3053 
L 1275 0 
L 697 0 
L 697 3053 
L 147 3053 
L 147 3500 
L 697 3500 
L 697 3744 
Q 697 4328 969 4595 
Q 1241 4863 1831 4863 
L 2375 4863 
z
" transform="scale(0.015625)"/>
       <path id="DejaVuSans-44" d="M 1259 4147 
L 1259 519 
L 2022 519 
Q 2988 519 3436 956 
Q 3884 1394 3884 2338 
Q 3884 3275 3436 3711 
Q 2988 4147 2022 4147 
L 1259 4147 
z
M 628 4666 
L 1925 4666 
Q 3281 4666 3915 4102 
Q 4550 3538 4550 2338 
Q 4550 1131 3912 565 
Q 3275 0 1925 0 
L 628 0 
L 628 4666 
z
" transform="scale(0.015625)"/>
      </defs>
      <use xlink:href="#DejaVuSans-6c"/>
      <use xlink:href="#DejaVuSans-6f" x="27.783203"/>
      <use xlink:href="#DejaVuSans-67" x="88.964844"/>
      <use xlink:href="#DejaVuSans-31" x="152.441406"/>
      <use xlink:href="#DejaVuSans-30" x="216.064453"/>
      <use xlink:href="#DejaVuSans-20" x="279.6875"/>
      <use xlink:href="#DejaVuSans-6f" x="311.474609"/>
      <use xlink:href="#DejaVuSans-66" x="372.65625"/>
      <use xlink:href="#DejaVuSans-20" x="407.861328"/>
      <use xlink:href="#DejaVuSans-44" x="439.648438"/>
      <use xlink:href="#DejaVuSans-66" x="516.650391"/>
     </g>
    </g>
   </g>
   <g id="matplotlib.axis_2">
    <g id="ytick_1">
     <g id="line2d_9">
      <path d="M 0 293.76 
L 460.8 293.76 
" clip-path="url(#p52dae2f64f)" style="fill: none; stroke: #b0b0b0; stroke-width: 0.8; stroke-linecap: square"/>
     </g>
     <g id="line2d_10">
      <defs>
       <path id="m8838183531" d="M 0 0 
L -3.5 0 
" style="stroke: #000000; stroke-width: 0.8"/>
      </defs>
      <g>
       <use xlink:href="#m8838183531" x="0" y="293.76" style="stroke: #000000; stroke-width: 0.8"/>
      </g>
     </g>
    </g>
    <g id="ytick_2">
     <g id="line2d_11">
      <path d="M 0 236.274059 
L 460.8 236.274059 
" clip-path="url(#p52dae2f64f)" style="fill: none; stroke: #b0b0b0; stroke-width: 0.8; stroke-linecap: square"/>
     </g>
     <g id="line2d_12">
      <g>
       <use xlink:href="#m8838183531" x="0" y="236.274059" style="stroke: #000000; stroke-width: 0.8"/>
      </g>
     </g>
    </g>
    <g id="ytick_3">
     <g id="line2d_13">
      <path d="M 0 178.788119 
L 460.8 178.788119 
" clip-path="url(#p52dae2f64f)" style="fill: none; stroke: #b0b0b0; stroke-width: 0.8; stroke-linecap: square"/>
     </g>
     <g id="line2d_14">
      <g>
       <use xlink:href="#m8838183531" x="0" y="178.788119" style="stroke: #000000; stroke-width: 0.8"/>
      </g>
     </g>
    </g>
    <g id="ytick_4">
     <g id="line2d_15">
      <path d="M 0 121.302178 
L 460.8 121.302178 
" clip-path="url(#p52dae2f64f)" style="fill: none; stroke: #b0b0b0; stroke-width: 0.8; stroke-linecap: square"/>
     </g>
     <g id="line2d_16">
      <g>
       <use xlink:href="#m8838183531" x="0" y="121.302178" style="stroke: #000000; stroke-width: 0.8"/>
      </g>
     </g>
    </g>
    <g id="ytick_5">
     <g id="line2d_17">
      <path d="M 0 63.816238 
L 460.8 63.816238 
" clip-path="url(#p52dae2f64f)" style="fill: none; stroke: #b0b0b0; stroke-width: 0.8; stroke-linecap: square"/>
     </g>
     <g id="line2d_18">
      <g>
       <use xlink:href="#m8838183531" x="0" y="63.816238" style="stroke: #000000; stroke-width: 0.8"/>
      </g>
     </g>
    </g>
    <g id="ytick_6">
     <g id="line2d_19">
      <path d="M 0 6.330297 
L 460.8 6.330297 
" clip-path="url(#p52dae2f64f)" style="fill: none; stroke: #b0b0b0; stroke-width: 0.8; stroke-linecap: square"/>
     </g>
     <g id="line2d_20">
      <g>
       <use xlink:href="#m8838183531" x="0" y="6.330297" style="stroke: #000000; stroke-width: 0.8"/>
      </g>
     </g>
    </g>
   </g>
   <g id="line2d_21">
    <path d="M 236.504205 293.76 
L 236.504205 289.927604 
L 238.451776 289.927604 
L 238.451776 286.095208 
L 241.016092 286.095208 
L 241.016092 282.262812 
L 241.775962 282.262812 
L 241.775962 278.430416 
L 242.630754 278.430416 
L 242.630754 274.59802 
L 242.922747 274.59802 
L 242.922747 270.765624 
L 243.45066 270.765624 
L 243.45066 266.933228 
L 244.012987 266.933228 
L 244.012987 263.100832 
L 244.439071 263.100832 
L 244.439071 259.268436 
L 244.77237 259.268436 
L 244.77237 255.43604 
L 244.96604 255.43604 
L 244.96604 251.603644 
L 245.354624 251.603644 
L 245.354624 247.771248 
L 245.939005 247.771248 
L 245.939005 243.938851 
L 246.960909 243.938851 
L 246.960909 240.106455 
L 251.316293 240.106455 
L 251.316293 236.274059 
L 262.05388 236.274059 
L 262.05388 232.441663 
L 262.877077 232.441663 
L 262.877077 228.609267 
L 263.794503 228.609267 
L 263.794503 224.776871 
L 264.842492 224.776871 
L 264.860799 217.112079 
L 266.272121 217.112079 
L 266.272121 213.279683 
L 267.100208 213.279683 
L 267.100208 209.447287 
L 267.983945 209.447287 
L 267.983945 205.614891 
L 269.122988 205.614891 
L 269.181444 197.950099 
L 269.311162 197.950099 
L 269.311162 194.117703 
L 269.463718 194.117703 
L 269.463718 190.285307 
L 269.588213 190.285307 
L 269.588213 186.452911 
L 270.220686 186.452911 
L 270.220686 182.620515 
L 270.888243 182.620515 
L 270.888243 178.788119 
L 293.208812 178.788119 
L 293.208812 174.955723 
L 293.875147 174.955723 
L 293.875147 171.123327 
L 294.216224 171.123327 
L 294.216224 167.290931 
L 294.427491 167.290931 
L 294.473524 159.626139 
L 295.310178 159.626139 
L 295.310178 155.793743 
L 295.873484 155.793743 
L 295.884897 148.12895 
L 296.154476 148.12895 
L 296.216311 140.464158 
L 296.709346 140.464158 
L 296.735557 132.799366 
L 297.394874 132.799366 
L 297.394874 128.96697 
L 297.922404 128.96697 
L 297.922404 125.134574 
L 298.082276 125.134574 
L 298.082276 121.302178 
L 342.948484 121.302178 
L 342.948484 117.469782 
L 345.769741 117.469782 
L 345.769741 113.637386 
L 356.711923 113.637386 
L 356.711923 109.80499 
L 357.092178 109.80499 
L 357.092178 105.972594 
L 360.880731 105.972594 
L 360.906428 98.307802 
L 363.185729 98.307802 
L 363.289421 90.64301 
L 363.408122 90.64301 
L 363.408122 86.810614 
L 366.148241 86.810614 
L 366.148241 82.978218 
L 368.536227 82.978218 
L 368.536227 79.145822 
L 369.785317 79.145822 
L 369.785317 75.313426 
L 372.399006 75.313426 
L 372.399006 71.48103 
L 372.925897 71.48103 
L 372.925897 67.648634 
L 374.386545 67.648634 
L 374.386545 63.816238 
L 407.470216 63.816238 
L 407.470216 59.983842 
L 411.597604 59.983842 
L 411.597604 56.151446 
L 414.32011 56.151446 
L 414.32011 52.31905 
L 415.515626 52.31905 
L 415.515626 48.486653 
L 415.713081 48.486653 
L 415.713081 44.654257 
L 417.463245 44.654257 
L 417.463245 40.821861 
L 418.683012 40.821861 
L 418.683012 36.989465 
L 419.208068 36.989465 
L 419.221796 29.324673 
L 420.536144 29.324673 
L 420.593355 21.659881 
L 422.916313 21.659881 
L 422.916313 17.827485 
L 425.108093 17.827485 
L 425.108093 13.995089 
L 425.721302 13.995089 
L 425.813355 6.330297 
L 425.813355 6.330297 
L 460.8 6.330297 
L 460.8 6.330297 
" clip-path="url(#p52dae2f64f)" style="fill: none; stroke: #ff0000; stroke-width: 3; stroke-linecap: square"/>
   </g>
   <g id="line2d_22">
    <path d="M 249.626641 293.76 
L 249.626641 289.927604 
L 253.378026 289.927604 
L 253.378026 286.095208 
L 254.154323 286.095208 
L 254.154323 282.262812 
L 254.468256 282.262812 
L 254.468256 278.430416 
L 257.841334 278.430416 
L 257.841334 274.59802 
L 258.168688 274.59802 
L 258.194231 266.933228 
L 258.321103 266.933228 
L 258.321103 263.100832 
L 260.826629 263.100832 
L 260.826629 259.268436 
L 262.017513 259.268436 
L 262.088239 251.603644 
L 262.390416 251.603644 
L 262.390416 247.771248 
L 264.281364 247.771248 
L 264.281364 243.938851 
L 267.537328 243.938851 
L 267.537328 240.106455 
L 267.679133 240.106455 
L 267.679133 236.274059 
L 279.4489 236.274059 
L 279.4489 232.441663 
L 297.708623 232.441663 
L 297.708623 228.609267 
L 299.261074 228.609267 
L 299.261074 224.776871 
L 299.911625 224.776871 
L 299.911625 220.944475 
L 300.213219 220.944475 
L 300.213219 217.112079 
L 300.358485 217.112079 
L 300.358485 213.279683 
L 300.527709 213.279683 
L 300.527709 209.447287 
L 300.754557 209.447287 
L 300.754557 205.614891 
L 301.033965 205.614891 
L 301.033965 201.782495 
L 301.402932 201.782495 
L 301.402932 197.950099 
L 301.623475 197.950099 
L 301.675638 190.285307 
L 302.430137 190.285307 
L 302.430137 186.452911 
L 302.632809 186.452911 
L 302.632809 182.620515 
L 302.991201 182.620515 
L 303.097381 174.955723 
L 328.987994 174.955723 
L 328.987994 171.123327 
L 353.794803 171.123327 
L 353.794803 167.290931 
L 357.81005 167.290931 
L 357.81005 163.458535 
L 364.756612 163.458535 
L 364.756612 159.626139 
L 375.262495 159.626139 
L 375.262495 155.793743 
L 380.395414 155.793743 
L 380.395414 151.961347 
L 380.731443 151.961347 
L 380.731443 148.12895 
L 382.153796 148.12895 
L 382.153796 144.296554 
L 383.435107 144.296554 
L 383.435107 140.464158 
L 383.7937 140.464158 
L 383.7937 136.631762 
L 385.270412 136.631762 
L 385.270412 132.799366 
L 385.717323 132.799366 
L 385.717323 128.96697 
L 386.870679 128.96697 
L 386.870679 125.134574 
L 387.201678 125.134574 
L 387.201678 121.302178 
L 390.986241 121.302178 
L 390.986241 117.469782 
L 394.045385 117.469782 
L 394.045385 113.637386 
L 394.247873 113.637386 
L 394.247873 109.80499 
L 395.562064 109.80499 
L 395.618955 102.140198 
L 395.764016 102.140198 
L 395.764016 98.307802 
L 395.941386 98.307802 
L 395.941386 94.475406 
L 398.284247 94.475406 
L 398.284247 90.64301 
L 398.590536 90.64301 
L 398.590536 86.810614 
L 400.277128 86.810614 
L 400.277128 82.978218 
L 402.220196 82.978218 
L 402.220196 79.145822 
L 403.358858 79.145822 
L 403.358858 75.313426 
L 407.172539 75.313426 
L 407.172539 71.48103 
L 407.479716 71.48103 
L 407.479716 67.648634 
L 411.969797 67.648634 
L 411.969797 63.816238 
L 421.201714 63.816238 
L 421.201714 59.983842 
L 424.589938 59.983842 
L 424.617008 52.31905 
L 429.539234 52.31905 
L 429.539234 48.486653 
L 430.605055 48.486653 
L 430.605055 44.654257 
L 431.345204 44.654257 
L 431.345204 40.821861 
L 433.761789 40.821861 
L 433.761789 36.989465 
L 434.85431 36.989465 
L 434.85431 33.157069 
L 437.08957 33.157069 
L 437.08957 29.324673 
L 437.84624 29.324673 
L 437.84624 25.492277 
L 440.276815 25.492277 
L 440.276815 21.659881 
L 440.58015 21.659881 
L 440.58015 17.827485 
L 442.531507 17.827485 
L 442.531507 13.995089 
L 446.601573 13.995089 
L 446.705855 6.330297 
L 446.705855 6.330297 
L 460.8 6.330297 
L 460.8 6.330297 
" clip-path="url(#p52dae2f64f)" style="fill: none; stroke: #00bfbf; stroke-width: 1.5; stroke-linecap: square"/>
   </g>
   <g id="line2d_23">
    <path d="M 249.626312 293.76 
L 249.626312 289.927604 
L 253.377583 289.927604 
L 253.377583 286.095208 
L 254.15407 286.095208 
L 254.15407 282.262812 
L 254.468041 282.262812 
L 254.468041 278.430416 
L 257.841018 278.430416 
L 257.841018 274.59802 
L 258.168478 274.59802 
L 258.194231 266.933228 
L 258.321103 266.933228 
L 258.321103 263.100832 
L 260.82637 263.100832 
L 260.82637 259.268436 
L 262.017508 259.268436 
L 262.088114 251.603644 
L 262.389966 251.603644 
L 262.389966 247.771248 
L 264.281364 247.771248 
L 264.281364 243.938851 
L 267.536923 243.938851 
L 267.536923 240.106455 
L 267.679001 240.106455 
L 267.679001 236.274059 
L 279.377075 236.274059 
L 279.377075 232.441663 
L 297.708623 232.441663 
L 297.708623 228.609267 
L 299.260991 228.609267 
L 299.260991 224.776871 
L 299.911587 224.776871 
L 299.911587 220.944475 
L 300.213136 220.944475 
L 300.213136 217.112079 
L 300.358411 217.112079 
L 300.358411 213.279683 
L 300.527707 213.279683 
L 300.527707 209.447287 
L 300.754541 209.447287 
L 300.754541 205.614891 
L 301.03393 205.614891 
L 301.03393 201.782495 
L 301.402878 201.782495 
L 301.402878 197.950099 
L 301.623438 197.950099 
L 301.675638 190.285307 
L 302.430098 190.285307 
L 302.430098 186.452911 
L 302.632795 186.452911 
L 302.632795 182.620515 
L 302.991164 182.620515 
L 303.097381 174.955723 
L 328.98719 174.955723 
L 328.98719 171.123327 
L 353.7935 171.123327 
L 353.7935 167.290931 
L 357.807719 167.290931 
L 357.807719 163.458535 
L 364.752142 163.458535 
L 364.752142 159.626139 
L 375.261513 159.626139 
L 375.261513 155.793743 
L 380.394719 155.793743 
L 380.394719 151.961347 
L 380.731443 151.961347 
L 380.731443 148.12895 
L 382.153448 148.12895 
L 382.153448 144.296554 
L 383.434267 144.296554 
L 383.434267 140.464158 
L 383.793335 140.464158 
L 383.793335 136.631762 
L 385.270296 136.631762 
L 385.270296 132.799366 
L 385.71679 132.799366 
L 385.71679 128.96697 
L 386.869919 128.96697 
L 386.869919 125.134574 
L 387.201295 125.134574 
L 387.201295 121.302178 
L 390.985974 121.302178 
L 390.985974 117.469782 
L 394.044817 117.469782 
L 394.044817 113.637386 
L 394.247873 113.637386 
L 394.247873 109.80499 
L 395.56188 109.80499 
L 395.618866 102.140198 
L 395.763826 102.140198 
L 395.763826 98.307802 
L 395.940913 98.307802 
L 395.940913 94.475406 
L 398.28417 94.475406 
L 398.28417 90.64301 
L 398.590195 90.64301 
L 398.590195 86.810614 
L 400.277128 86.810614 
L 400.277128 82.978218 
L 402.220023 82.978218 
L 402.220023 79.145822 
L 403.358575 79.145822 
L 403.358575 75.313426 
L 407.172224 75.313426 
L 407.172224 71.48103 
L 407.47945 71.48103 
L 407.47945 67.648634 
L 411.969688 67.648634 
L 411.969688 63.816238 
L 421.201505 63.816238 
L 421.201505 59.983842 
L 424.589938 59.983842 
L 424.616838 52.31905 
L 429.539234 52.31905 
L 429.539234 48.486653 
L 430.604577 48.486653 
L 430.604577 44.654257 
L 431.344881 44.654257 
L 431.344881 40.821861 
L 433.76171 40.821861 
L 433.76171 36.989465 
L 434.854238 36.989465 
L 434.854238 33.157069 
L 437.08957 33.157069 
L 437.08957 29.324673 
L 437.845588 29.324673 
L 437.845588 25.492277 
L 440.276699 25.492277 
L 440.276699 21.659881 
L 440.580102 21.659881 
L 440.580102 17.827485 
L 442.531444 17.827485 
L 442.531444 13.995089 
L 446.601573 13.995089 
L 446.705855 6.330297 
L 446.705855 6.330297 
L 460.8 6.330297 
L 460.8 6.330297 
" clip-path="url(#p52dae2f64f)" style="fill: none; stroke: #bf00bf; stroke-width: 1.5; stroke-linecap: square"/>
   </g>
   <g id="line2d_24">
    <path d="M 249.623325 293.76 
L 249.623325 289.927604 
L 253.375216 289.927604 
L 253.375216 286.095208 
L 254.151418 286.095208 
L 254.151418 282.262812 
L 254.46503 282.262812 
L 254.46503 278.430416 
L 257.838918 278.430416 
L 257.838918 274.59802 
L 258.166561 274.59802 
L 258.19253 266.933228 
L 258.319392 266.933228 
L 258.319392 263.100832 
L 260.824695 263.100832 
L 260.824695 259.268436 
L 262.01483 259.268436 
L 262.085369 251.603644 
L 262.386926 251.603644 
L 262.386926 247.771248 
L 264.278821 247.771248 
L 264.278821 243.938851 
L 267.533552 243.938851 
L 267.533552 240.106455 
L 267.67728 240.106455 
L 267.67728 236.274059 
L 278.741245 236.274059 
L 278.741245 232.441663 
L 297.707959 232.441663 
L 297.707959 228.609267 
L 299.260301 228.609267 
L 299.260301 224.776871 
L 299.910901 224.776871 
L 299.910901 220.944475 
L 300.212401 220.944475 
L 300.212401 217.112079 
L 300.35761 217.112079 
L 300.35761 213.279683 
L 300.527046 213.279683 
L 300.527046 209.447287 
L 300.753934 209.447287 
L 300.753934 205.614891 
L 301.033226 205.614891 
L 301.033226 201.782495 
L 301.402089 201.782495 
L 301.402089 197.950099 
L 301.622753 197.950099 
L 301.675037 190.285307 
L 302.429355 190.285307 
L 302.429355 186.452911 
L 302.632087 186.452911 
L 302.632087 182.620515 
L 302.990637 182.620515 
L 303.096888 174.955723 
L 328.904727 174.955723 
L 328.904727 171.123327 
L 353.771165 171.123327 
L 353.771165 167.290931 
L 357.797336 167.290931 
L 357.797336 163.458535 
L 364.735248 163.458535 
L 364.735248 159.626139 
L 375.248996 159.626139 
L 375.248996 155.793743 
L 380.388231 155.793743 
L 380.388231 151.961347 
L 380.729495 151.961347 
L 380.729495 148.12895 
L 382.15078 148.12895 
L 382.15078 144.296554 
L 383.427409 144.296554 
L 383.427409 140.464158 
L 383.786411 140.464158 
L 383.786411 136.631762 
L 385.264863 136.631762 
L 385.264863 132.799366 
L 385.708904 132.799366 
L 385.708904 128.96697 
L 386.859602 128.96697 
L 386.859602 125.134574 
L 387.197564 125.134574 
L 387.197564 121.302178 
L 390.984201 121.302178 
L 390.984201 117.469782 
L 394.041095 117.469782 
L 394.041095 113.637386 
L 394.244916 113.637386 
L 394.244916 109.80499 
L 395.558683 109.80499 
L 395.61718 102.140198 
L 395.759011 102.140198 
L 395.759011 98.307802 
L 395.936337 98.307802 
L 395.936337 94.475406 
L 398.282669 94.475406 
L 398.282669 90.64301 
L 398.586608 90.64301 
L 398.586608 86.810614 
L 400.27478 86.810614 
L 400.27478 82.978218 
L 402.21822 82.978218 
L 402.21822 79.145822 
L 403.355563 79.145822 
L 403.355563 75.313426 
L 407.170187 75.313426 
L 407.170187 71.48103 
L 407.477268 71.48103 
L 407.477268 67.648634 
L 411.967889 67.648634 
L 411.967889 63.816238 
L 421.199087 63.816238 
L 421.199087 59.983842 
L 424.588785 59.983842 
L 424.614364 52.31905 
L 429.535842 52.31905 
L 429.535842 48.486653 
L 430.602105 48.486653 
L 430.602105 44.654257 
L 431.341986 44.654257 
L 431.341986 40.821861 
L 433.759483 40.821861 
L 433.759483 36.989465 
L 434.85236 36.989465 
L 434.85236 33.157069 
L 437.086663 33.157069 
L 437.086663 29.324673 
L 437.842823 29.324673 
L 437.842823 25.492277 
L 440.270189 25.492277 
L 440.270189 21.659881 
L 440.577539 21.659881 
L 440.577539 17.827485 
L 442.526753 17.827485 
L 442.526753 13.995089 
L 446.598131 13.995089 
L 446.702561 6.330297 
L 446.702561 6.330297 
L 460.8 6.330297 
L 460.8 6.330297 
" clip-path="url(#p52dae2f64f)" style="fill: none; stroke: #000000; stroke-width: 1.5; stroke-linecap: square"/>
   </g>
   <g id="line2d_25">
    <path d="M 249.561429 293.76 
L 249.561429 289.927604 
L 253.309191 289.927604 
L 253.309191 286.095208 
L 254.096537 286.095208 
L 254.096537 282.262812 
L 254.404555 282.262812 
L 254.404555 278.430416 
L 257.780559 278.430416 
L 257.780559 274.59802 
L 258.12761 274.59802 
L 258.140251 266.933228 
L 258.264384 266.933228 
L 258.264384 263.100832 
L 260.789372 263.100832 
L 260.789372 259.268436 
L 261.957499 259.268436 
L 262.029629 251.603644 
L 262.302671 251.603644 
L 262.302671 247.771248 
L 264.204616 247.771248 
L 264.204616 243.938851 
L 267.464893 243.938851 
L 267.464893 240.106455 
L 267.6362 240.106455 
L 267.6362 236.274059 
L 269.895539 236.274059 
L 269.895539 232.441663 
L 297.693685 232.441663 
L 297.693685 228.609267 
L 299.246893 228.609267 
L 299.246893 224.776871 
L 299.893734 224.776871 
L 299.893734 220.944475 
L 300.198168 220.944475 
L 300.198168 217.112079 
L 300.342928 217.112079 
L 300.342928 213.279683 
L 300.512834 213.279683 
L 300.512834 209.447287 
L 300.741259 209.447287 
L 300.741259 205.614891 
L 301.015838 205.614891 
L 301.015838 201.782495 
L 301.386189 201.782495 
L 301.386189 197.950099 
L 301.608641 197.950099 
L 301.6625 190.285307 
L 302.414442 190.285307 
L 302.414442 186.452911 
L 302.618112 186.452911 
L 302.618112 182.620515 
L 302.978975 182.620515 
L 303.087861 174.955723 
L 327.249886 174.955723 
L 327.249886 171.123327 
L 353.248908 171.123327 
L 353.248908 167.290931 
L 357.488091 167.290931 
L 357.488091 163.458535 
L 364.325055 163.458535 
L 364.325055 159.626139 
L 374.893215 159.626139 
L 374.893215 155.793743 
L 380.251341 155.793743 
L 380.251341 151.961347 
L 380.692261 151.961347 
L 380.692261 148.12895 
L 382.091997 148.12895 
L 382.091997 144.296554 
L 383.235853 144.296554 
L 383.235853 140.464158 
L 383.613543 140.464158 
L 383.613543 136.631762 
L 385.147216 136.631762 
L 385.147216 132.799366 
L 385.549329 132.799366 
L 385.549329 128.96697 
L 386.660862 128.96697 
L 386.660862 125.134574 
L 387.098628 125.134574 
L 387.098628 121.302178 
L 390.948815 121.302178 
L 390.948815 117.469782 
L 393.965023 117.469782 
L 393.965023 113.637386 
L 394.184627 113.637386 
L 394.184627 109.80499 
L 395.4993 109.80499 
L 395.584842 102.140198 
L 395.663745 102.140198 
L 395.663745 98.307802 
L 395.84278 98.307802 
L 395.84278 94.475406 
L 398.25234 94.475406 
L 398.25234 90.64301 
L 398.514259 90.64301 
L 398.514259 86.810614 
L 400.224943 86.810614 
L 400.224943 82.978218 
L 402.169242 82.978218 
L 402.169242 79.145822 
L 403.290645 79.145822 
L 403.290645 75.313426 
L 407.114062 75.313426 
L 407.114062 71.48103 
L 407.415448 71.48103 
L 407.415448 67.648634 
L 411.930353 67.648634 
L 411.930353 63.816238 
L 421.150168 63.816238 
L 421.150168 59.983842 
L 424.540581 59.983842 
L 424.561108 52.31905 
L 429.464608 52.31905 
L 429.464608 48.486653 
L 430.537822 48.486653 
L 430.537822 44.654257 
L 431.27971 44.654257 
L 431.27971 40.821861 
L 433.710122 40.821861 
L 433.710122 36.989465 
L 434.817351 36.989465 
L 434.817351 33.157069 
L 437.014481 33.157069 
L 437.014481 29.324673 
L 437.766186 29.324673 
L 437.766186 25.492277 
L 440.132841 25.492277 
L 440.132841 21.659881 
L 440.520985 21.659881 
L 440.520985 17.827485 
L 442.432803 17.827485 
L 442.432803 13.995089 
L 446.528329 13.995089 
L 446.602918 6.330297 
L 446.602918 6.330297 
L 460.8 6.330297 
L 460.8 6.330297 
" clip-path="url(#p52dae2f64f)" style="fill: none; stroke: #00bfbf; stroke-width: 1.5; stroke-linecap: square"/>
   </g>
   <g id="line2d_26">
    <path d="M 241.524523 293.76 
L 241.524523 289.927604 
L 241.731896 289.927604 
L 241.731896 286.095208 
L 243.452209 286.095208 
L 243.452209 282.262812 
L 244.996285 282.262812 
L 244.996285 278.430416 
L 245.392894 278.430416 
L 245.392894 274.59802 
L 245.536422 274.59802 
L 245.536422 270.765624 
L 245.726805 270.765624 
L 245.726805 266.933228 
L 246.635392 266.933228 
L 246.635392 263.100832 
L 246.819269 263.100832 
L 246.819269 259.268436 
L 247.480621 259.268436 
L 247.480621 255.43604 
L 248.014474 255.43604 
L 248.014474 251.603644 
L 248.672334 251.603644 
L 248.672334 247.771248 
L 248.821246 247.771248 
L 248.821246 243.938851 
L 250.824997 243.938851 
L 250.824997 240.106455 
L 253.817837 240.106455 
L 253.817837 236.274059 
L 262.877077 236.274059 
L 262.877077 232.441663 
L 263.14366 232.441663 
L 263.14366 228.609267 
L 263.794503 228.609267 
L 263.794503 224.776871 
L 264.842492 224.776871 
L 264.860799 217.112079 
L 266.272121 217.112079 
L 266.272121 213.279683 
L 267.100208 213.279683 
L 267.100208 209.447287 
L 267.983945 209.447287 
L 267.983945 205.614891 
L 269.122988 205.614891 
L 269.181444 197.950099 
L 269.311162 197.950099 
L 269.311162 194.117703 
L 269.463718 194.117703 
L 269.463718 190.285307 
L 269.588213 190.285307 
L 269.588213 186.452911 
L 270.220686 186.452911 
L 270.220686 182.620515 
L 270.888243 182.620515 
L 270.888243 178.788119 
L 294.97315 178.788119 
L 294.97315 174.955723 
L 295.226484 174.955723 
L 295.226484 171.123327 
L 295.359674 171.123327 
L 295.359674 167.290931 
L 295.992484 167.290931 
L 295.992484 163.458535 
L 296.606044 163.458535 
L 296.699071 155.793743 
L 296.825724 155.793743 
L 296.825724 151.961347 
L 297.16857 151.961347 
L 297.16857 148.12895 
L 297.492763 148.12895 
L 297.555752 140.464158 
L 297.636007 140.464158 
L 297.636007 136.631762 
L 297.935756 136.631762 
L 297.935756 132.799366 
L 298.168302 132.799366 
L 298.168302 128.96697 
L 298.448323 128.96697 
L 298.448323 125.134574 
L 298.647045 125.134574 
L 298.647045 121.302178 
L 353.829338 121.302178 
L 353.829338 117.469782 
L 359.922718 117.469782 
L 359.922718 113.637386 
L 362.494807 113.637386 
L 362.494807 109.80499 
L 363.587115 109.80499 
L 363.587115 105.972594 
L 365.009981 105.972594 
L 365.046896 98.307802 
L 367.054232 98.307802 
L 367.054232 94.475406 
L 367.258282 94.475406 
L 367.258282 90.64301 
L 368.041801 90.64301 
L 368.041801 86.810614 
L 371.112388 86.810614 
L 371.112388 82.978218 
L 373.055021 82.978218 
L 373.055021 79.145822 
L 374.621123 79.145822 
L 374.621123 75.313426 
L 375.685218 75.313426 
L 375.685218 71.48103 
L 377.953241 71.48103 
L 377.953241 67.648634 
L 383.976749 67.648634 
L 383.976749 63.816238 
L 410.450538 63.816238 
L 410.450538 59.983842 
L 412.389976 59.983842 
L 412.389976 56.151446 
L 416.845486 56.151446 
L 416.845486 52.31905 
L 417.213807 52.31905 
L 417.213807 48.486653 
L 419.487621 48.486653 
L 419.487621 44.654257 
L 420.814368 44.654257 
L 420.825948 36.989465 
L 421.531635 36.989465 
L 421.531635 33.157069 
L 422.518573 33.157069 
L 422.518573 29.324673 
L 425.314159 29.324673 
L 425.314159 25.492277 
L 426.309856 25.492277 
L 426.309856 21.659881 
L 426.899882 21.659881 
L 426.899882 17.827485 
L 428.503848 17.827485 
L 428.503848 13.995089 
L 428.836328 13.995089 
L 428.836328 10.162693 
L 430.051406 10.162693 
L 430.051406 6.330297 
L 430.051406 6.330297 
L 460.8 6.330297 
L 460.8 6.330297 
" clip-path="url(#p52dae2f64f)" style="fill: none; stroke: #bf00bf; stroke-width: 1.5; stroke-linecap: square"/>
   </g>
   <g id="patch_3">
    <path d="M 0 293.76 
L 0 3.456 
" style="fill: none; stroke: #000000; stroke-width: 0.8; stroke-linejoin: miter; stroke-linecap: square"/>
   </g>
   <g id="patch_4">
    <path d="M 460.8 293.76 
L 460.8 3.456 
" style="fill: none; stroke: #000000; stroke-width: 0.8; stroke-linejoin: miter; stroke-linecap: square"/>
   </g>
   <g id="patch_5">
    <path d="M 0 293.76 
L 460.8 293.76 
" style="fill: none; stroke: #000000; stroke-width: 0.8; stroke-linejoin: miter; stroke-linecap: square"/>
   </g>
   <g id="patch_6">
    <path d="M 0 3.456 
L 460.8 3.456 
" style="fill: none; stroke: #000000; stroke-width: 0.8; stroke-linejoin: miter; stroke-linecap: square"/>
   </g>
   <g id="text_6">
    <!-- {f10-f14}, 20-D -->
    <g transform="translate(293.159 287.95392) scale(0.2 -0.2)">
     <defs>
      <path id="DejaVuSans-7b" d="M 3272 -594 
L 3272 -1044 
L 3078 -1044 
Q 2300 -1044 2036 -812 
Q 1772 -581 1772 109 
L 1772 856 
Q 1772 1328 1603 1509 
Q 1434 1691 991 1691 
L 800 1691 
L 800 2138 
L 991 2138 
Q 1438 2138 1605 2317 
Q 1772 2497 1772 2963 
L 1772 3713 
Q 1772 4403 2036 4633 
Q 2300 4863 3078 4863 
L 3272 4863 
L 3272 4416 
L 3059 4416 
Q 2619 4416 2484 4278 
Q 2350 4141 2350 3700 
L 2350 2925 
Q 2350 2434 2208 2212 
Q 2066 1991 1722 1913 
Q 2069 1828 2209 1606 
Q 2350 1384 2350 897 
L 2350 122 
Q 2350 -319 2484 -456 
Q 2619 -594 3059 -594 
L 3272 -594 
z
" transform="scale(0.015625)"/>
      <path id="DejaVuSans-7d" d="M 800 -594 
L 1019 -594 
Q 1456 -594 1589 -459 
Q 1722 -325 1722 122 
L 1722 897 
Q 1722 1384 1862 1606 
Q 2003 1828 2350 1913 
Q 2003 1991 1862 2212 
Q 1722 2434 1722 2925 
L 1722 3700 
Q 1722 4144 1589 4280 
Q 1456 4416 1019 4416 
L 800 4416 
L 800 4863 
L 997 4863 
Q 1775 4863 2036 4633 
Q 2297 4403 2297 3713 
L 2297 2963 
Q 2297 2497 2465 2317 
Q 2634 2138 3078 2138 
L 3272 2138 
L 3272 1691 
L 3078 1691 
Q 2634 1691 2465 1509 
Q 2297 1328 2297 856 
L 2297 109 
Q 2297 -581 2036 -812 
Q 1775 -1044 997 -1044 
L 800 -1044 
L 800 -594 
z
" transform="scale(0.015625)"/>
      <path id="DejaVuSans-2c" d="M 750 794 
L 1409 794 
L 1409 256 
L 897 -744 
L 494 -744 
L 750 256 
L 750 794 
z
" transform="scale(0.015625)"/>
      <path id="DejaVuSans-32" d="M 1228 531 
L 3431 531 
L 3431 0 
L 469 0 
L 469 531 
Q 828 903 1448 1529 
Q 2069 2156 2228 2338 
Q 2531 2678 2651 2914 
Q 2772 3150 2772 3378 
Q 2772 3750 2511 3984 
Q 2250 4219 1831 4219 
Q 1534 4219 1204 4116 
Q 875 4013 500 3803 
L 500 4441 
Q 881 4594 1212 4672 
Q 1544 4750 1819 4750 
Q 2544 4750 2975 4387 
Q 3406 4025 3406 3419 
Q 3406 3131 3298 2873 
Q 3191 2616 2906 2266 
Q 2828 2175 2409 1742 
Q 1991 1309 1228 531 
z
" transform="scale(0.015625)"/>
     </defs>
     <use xlink:href="#DejaVuSans-7b"/>
     <use xlink:href="#DejaVuSans-66" x="63.623047"/>
     <use xlink:href="#DejaVuSans-31" x="98.828125"/>
     <use xlink:href="#DejaVuSans-30" x="162.451172"/>
     <use xlink:href="#DejaVuSans-2d" x="226.074219"/>
     <use xlink:href="#DejaVuSans-66" x="262.158203"/>
     <use xlink:href="#DejaVuSans-31" x="297.363281"/>
     <use xlink:href="#DejaVuSans-34" x="360.986328"/>
     <use xlink:href="#DejaVuSans-7d" x="424.609375"/>
     <use xlink:href="#DejaVuSans-2c" x="488.232422"/>
     <use xlink:href="#DejaVuSans-20" x="520.019531"/>
     <use xlink:href="#DejaVuSans-32" x="551.806641"/>
     <use xlink:href="#DejaVuSans-30" x="615.429688"/>
     <use xlink:href="#DejaVuSans-2d" x="679.052734"/>
     <use xlink:href="#DejaVuSans-44" x="715.136719"/>
    </g>
   </g>
   <g id="text_7">
    <!-- v2.6.3 -->
    <g style="fill: #808080" transform="translate(214.71875 288.777272) scale(0.1 -0.1)">
     <defs>
      <path id="DejaVuSans-76" d="M 191 3500 
L 800 3500 
L 1894 563 
L 2988 3500 
L 3597 3500 
L 2284 0 
L 1503 0 
L 191 3500 
z
" transform="scale(0.015625)"/>
      <path id="DejaVuSans-2e" d="M 684 794 
L 1344 794 
L 1344 0 
L 684 0 
L 684 794 
z
" transform="scale(0.015625)"/>
      <path id="DejaVuSans-36" d="M 2113 2584 
Q 1688 2584 1439 2293 
Q 1191 2003 1191 1497 
Q 1191 994 1439 701 
Q 1688 409 2113 409 
Q 2538 409 2786 701 
Q 3034 994 3034 1497 
Q 3034 2003 2786 2293 
Q 2538 2584 2113 2584 
z
M 3366 4563 
L 3366 3988 
Q 3128 4100 2886 4159 
Q 2644 4219 2406 4219 
Q 1781 4219 1451 3797 
Q 1122 3375 1075 2522 
Q 1259 2794 1537 2939 
Q 1816 3084 2150 3084 
Q 2853 3084 3261 2657 
Q 3669 2231 3669 1497 
Q 3669 778 3244 343 
Q 2819 -91 2113 -91 
Q 1303 -91 875 529 
Q 447 1150 447 2328 
Q 447 3434 972 4092 
Q 1497 4750 2381 4750 
Q 2619 4750 2861 4703 
Q 3103 4656 3366 4563 
z
" transform="scale(0.015625)"/>
      <path id="DejaVuSans-33" d="M 2597 2516 
Q 3050 2419 3304 2112 
Q 3559 1806 3559 1356 
Q 3559 666 3084 287 
Q 2609 -91 1734 -91 
Q 1441 -91 1130 -33 
Q 819 25 488 141 
L 488 750 
Q 750 597 1062 519 
Q 1375 441 1716 441 
Q 2309 441 2620 675 
Q 2931 909 2931 1356 
Q 2931 1769 2642 2001 
Q 2353 2234 1838 2234 
L 1294 2234 
L 1294 2753 
L 1863 2753 
Q 2328 2753 2575 2939 
Q 2822 3125 2822 3475 
Q 2822 3834 2567 4026 
Q 2313 4219 1838 4219 
Q 1578 4219 1281 4162 
Q 984 4106 628 3988 
L 628 4550 
Q 988 4650 1302 4700 
Q 1616 4750 1894 4750 
Q 2613 4750 3031 4423 
Q 3450 4097 3450 3541 
Q 3450 3153 3228 2886 
Q 3006 2619 2597 2516 
z
" transform="scale(0.015625)"/>
     </defs>
     <use xlink:href="#DejaVuSans-76"/>
     <use xlink:href="#DejaVuSans-32" x="59.179688"/>
     <use xlink:href="#DejaVuSans-2e" x="122.802734"/>
     <use xlink:href="#DejaVuSans-36" x="154.589844"/>
     <use xlink:href="#DejaVuSans-2e" x="218.212891"/>
     <use xlink:href="#DejaVuSans-33" x="250"/>
    </g>
   </g>
  </g>
 </g>
 <defs>
  <clipPath id="p52dae2f64f">
   <rect x="0" y="3.456" width="460.8" height="290.304"/>
  </clipPath>
 </defs>
</svg>
