<?xml version="1.0" encoding="utf-8" standalone="no"?>
<!DOCTYPE svg PUBLIC "-//W3C//DTD SVG 1.1//EN"
  "http://www.w3.org/Graphics/SVG/1.1/DTD/svg11.dtd">
<svg xmlns:xlink="http://www.w3.org/1999/xlink" width="460.8pt" height="345.6pt" viewBox="0 0 460.8 345.6" xmlns="http://www.w3.org/2000/svg" version="1.1">
 <metadata>
  <rdf:RDF xmlns:dc="http://purl.org/dc/elements/1.1/" xmlns:cc="http://creativecommons.org/ns#" xmlns:rdf="http://www.w3.org/1999/02/22-rdf-syntax-ns#">
   <cc:Work>
    <dc:type rdf:resource="http://purl.org/dc/dcmitype/StillImage"/>
    <dc:date>2024-01-17T14:59:42.142482</dc:date>
    <dc:format>image/svg+xml</dc:format>
    <dc:creator>
     <cc:Agent>
      <dc:title>Matplotlib v3.8.2, https://matplotlib.org/</dc:title>
     </cc:Agent>
    </dc:creator>
   </cc:Work>
  </rdf:RDF>
 </metadata>
 <defs>
  <style type="text/css">*{stroke-linejoin: round; stroke-linecap: butt}</style>
 </defs>
 <g id="figure_1">
  <g id="patch_1">
   <path d="M 0 345.6 
L 460.8 345.6 
L 460.8 0 
L 0 0 
z
" style="fill: #ffffff"/>
  </g>
  <g id="axes_1">
   <g id="patch_2">
    <path d="M 62.208 293.76 
L 460.8 293.76 
L 460.8 3.456 
L 62.208 3.456 
z
" style="fill: #ffffff"/>
   </g>
   <g id="line2d_1">
    <path d="M 375.549172 293.76 
L 375.549172 289.927604 
L 375.549172 289.927604 
L 375.549172 286.095208 
L 376.014993 286.095208 
L 376.014993 282.262812 
L 376.014993 282.262812 
L 376.014993 278.430416 
L 376.014993 278.430416 
L 376.014993 274.59802 
L 376.246827 274.59802 
L 376.246827 270.765624 
L 376.246827 270.765624 
L 376.246827 266.933228 
L 376.938072 266.933228 
L 376.938072 263.100832 
L 378.974495 263.100832 
L 378.974495 259.268436 
L 378.974495 259.268436 
L 378.974495 255.43604 
L 380.302116 255.43604 
L 380.302116 251.603644 
L 380.957243 251.603644 
L 380.957243 247.771248 
L 383.311714 247.771248 
L 383.311714 243.938851 
L 386.002479 243.938851 
L 386.002479 240.106455 
L 388.206443 240.106455 
L 388.206443 236.274059 
L 404.954014 236.274059 
L 404.954014 232.441663 
L 406.672737 232.441663 
L 406.672737 228.609267 
L 407.134744 228.609267 
L 407.134744 224.776871 
L 407.134744 224.776871 
L 407.134744 220.944475 
L 407.44118 220.944475 
L 407.44118 217.112079 
L 408.201853 217.112079 
L 408.201853 213.279683 
L 408.353069 213.279683 
L 408.353069 209.447287 
L 409.254037 209.447287 
L 409.254037 205.614891 
L 409.254037 205.614891 
L 409.254037 201.782495 
L 410.291707 201.782495 
L 410.291707 197.950099 
L 410.732079 197.950099 
L 410.732079 194.117703 
L 410.732079 194.117703 
L 410.732079 190.285307 
L 411.749697 190.285307 
L 411.749697 186.452911 
L 430.221624 186.452911 
L 430.221624 182.620515 
L 430.672104 182.620515 
L 430.672104 178.788119 
L 441.624476 178.788119 
L 441.624476 174.955723 
L 443.066627 174.955723 
L 443.066627 171.123327 
L 446.327878 171.123327 
L 446.327878 167.290931 
L 448.218855 167.290931 
L 448.218855 163.458535 
L 449.278449 163.458535 
L 449.278449 159.626139 
L 449.453606 159.626139 
L 449.453606 155.793743 
L 450.926202 155.793743 
L 450.926202 151.961347 
L 456.305012 151.961347 
L 456.305012 148.12895 
L 461.8 148.12895 
" clip-path="url(#p430d0385e8)" style="fill: none; stroke: #f5deb3; stroke-width: 1.5; stroke-linecap: square"/>
   </g>
   <g id="line2d_2">
    <path d="M 308.462918 293.76 
L 308.462918 282.262812 
L 308.462918 282.262812 
L 308.462918 270.765624 
L 309.030693 270.765624 
L 309.030693 259.268436 
L 309.030693 259.268436 
L 309.030693 247.771248 
L 309.030693 247.771248 
L 309.030693 236.274059 
L 461.8 236.274059 
" clip-path="url(#p430d0385e8)" style="fill: none; stroke: #f5deb3; stroke-width: 1.5; stroke-linecap: square"/>
   </g>
   <g id="line2d_3">
    <path d="M 173.668993 293.76 
L 173.668993 289.927604 
L 173.668993 289.927604 
L 173.668993 286.095208 
L 173.668993 286.095208 
L 173.668993 282.262812 
L 173.668993 282.262812 
L 173.668993 278.430416 
L 173.668993 278.430416 
L 173.668993 274.59802 
L 173.668993 274.59802 
L 173.668993 270.765624 
L 173.668993 270.765624 
L 173.668993 266.933228 
L 173.668993 266.933228 
L 173.668993 263.100832 
L 173.668993 263.100832 
L 173.668993 259.268436 
L 173.668993 259.268436 
L 173.668993 255.43604 
L 173.668993 255.43604 
L 173.668993 251.603644 
L 173.668993 251.603644 
L 173.668993 247.771248 
L 173.668993 247.771248 
L 173.668993 243.938851 
L 173.668993 243.938851 
L 173.668993 240.106455 
L 173.668993 240.106455 
L 173.668993 236.274059 
L 173.668993 236.274059 
L 173.668993 232.441663 
L 173.668993 232.441663 
L 173.668993 228.609267 
L 173.668993 228.609267 
L 173.668993 224.776871 
L 173.668993 224.776871 
L 173.668993 220.944475 
L 177.013096 220.944475 
L 177.013096 217.112079 
L 177.013096 217.112079 
L 177.013096 213.279683 
L 177.013096 213.279683 
L 177.013096 209.447287 
L 180.214852 209.447287 
L 180.214852 205.614891 
L 180.214852 205.614891 
L 180.214852 201.782495 
L 183.285888 201.782495 
L 183.285888 197.950099 
L 183.285888 197.950099 
L 183.285888 194.117703 
L 183.285888 194.117703 
L 183.285888 190.285307 
L 186.236459 190.285307 
L 186.236459 186.452911 
L 189.075661 186.452911 
L 189.075661 182.620515 
L 201.857152 182.620515 
L 201.857152 178.788119 
L 461.8 178.788119 
" clip-path="url(#p430d0385e8)" style="fill: none; stroke: #f5deb3; stroke-width: 1.5; stroke-linecap: square"/>
   </g>
   <g id="line2d_4">
    <path d="M 128.069444 293.76 
L 128.069444 289.927604 
L 158.572553 289.927604 
L 158.572553 286.095208 
L 177.013096 286.095208 
L 177.013096 282.262812 
L 180.214852 282.262812 
L 180.214852 278.430416 
L 189.075661 278.430416 
L 189.075661 274.59802 
L 197.001924 274.59802 
L 197.001924 270.765624 
L 201.857152 270.765624 
L 201.857152 266.933228 
L 204.172102 266.933228 
L 204.172102 263.100832 
L 204.172102 263.100832 
L 204.172102 259.268436 
L 204.172102 259.268436 
L 204.172102 255.43604 
L 210.717961 255.43604 
L 210.717961 251.603644 
L 216.739567 251.603644 
L 216.739567 247.771248 
L 218.644224 247.771248 
L 218.644224 243.938851 
L 224.084902 243.938851 
L 224.084902 240.106455 
L 235.431296 240.106455 
L 235.431296 236.274059 
L 388.403638 236.274059 
L 388.403638 232.441663 
L 392.616083 232.441663 
L 392.616083 228.609267 
L 395.178907 228.609267 
L 395.178907 224.776871 
L 396.073447 224.776871 
L 396.073447 220.944475 
L 396.251085 220.944475 
L 396.251085 217.112079 
L 396.781498 217.112079 
L 396.781498 213.279683 
L 397.133041 213.279683 
L 397.133041 209.447287 
L 398.177918 209.447287 
L 398.177918 205.614891 
L 398.52301 205.614891 
L 398.52301 201.782495 
L 399.208481 201.782495 
L 399.208481 197.950099 
L 400.895321 197.950099 
L 400.895321 194.117703 
L 404.637256 194.117703 
L 404.637256 190.285307 
L 404.954014 190.285307 
L 404.954014 186.452911 
L 406.207875 186.452911 
L 406.207875 182.620515 
L 410.291707 182.620515 
L 410.291707 178.788119 
L 461.8 178.788119 
" clip-path="url(#p430d0385e8)" style="fill: none; stroke: #f5deb3; stroke-width: 1.5; stroke-linecap: square"/>
   </g>
   <g id="line2d_5">
    <path d="M 397.308198 293.76 
L 397.308198 289.927604 
L 414.304921 289.927604 
L 414.304921 286.095208 
L 416.776199 286.095208 
L 416.776199 282.262812 
L 420.208335 282.262812 
L 420.208335 278.430416 
L 422.119443 278.430416 
L 422.119443 274.59802 
L 432.447524 274.59802 
L 432.447524 270.765624 
L 443.161795 270.765624 
L 443.161795 266.933228 
L 443.256842 266.933228 
L 443.256842 263.100832 
L 445.962239 263.100832 
L 445.962239 259.268436 
L 450.150184 259.268436 
L 450.150184 255.43604 
L 461.8 255.43604 
" clip-path="url(#p430d0385e8)" style="fill: none; stroke: #f5deb3; stroke-width: 1.5; stroke-linecap: square"/>
   </g>
   <g id="line2d_6"/>
   <g id="line2d_7">
    <path d="M 303.150364 293.76 
L 303.150364 289.927604 
L 305.557927 289.927604 
L 305.557927 286.095208 
L 311.259891 286.095208 
L 311.259891 282.262812 
L 313.956593 282.262812 
L 313.956593 278.430416 
L 315.529401 278.430416 
L 315.529401 274.59802 
L 319.07625 274.59802 
L 319.07625 266.933228 
L 320.059661 266.933228 
L 320.059661 263.100832 
L 320.546588 263.100832 
L 320.546588 259.268436 
L 321.511087 259.268436 
L 321.511087 255.43604 
L 324.33254 255.43604 
L 324.33254 251.603644 
L 326.156385 251.603644 
L 326.156385 247.771248 
L 326.60552 247.771248 
L 326.60552 243.938851 
L 327.937058 243.938851 
L 327.937058 240.106455 
L 333.039347 240.106455 
L 333.039347 236.274059 
L 443.918832 236.274059 
L 443.918832 232.441663 
L 444.38814 232.441663 
L 444.38814 228.609267 
L 445.318065 228.609267 
L 445.318065 224.776871 
L 445.778752 224.776871 
L 445.778752 220.944475 
L 446.691747 220.944475 
L 446.691747 217.112079 
L 447.414249 217.112079 
L 447.414249 213.279683 
L 448.129878 213.279683 
L 448.129878 209.447287 
L 448.838764 209.447287 
L 448.838764 205.614891 
L 449.453606 205.614891 
L 449.453606 201.782495 
L 449.715579 201.782495 
L 449.715579 197.950099 
L 452.117651 197.950099 
L 452.117651 194.117703 
L 452.538636 194.117703 
L 452.538636 190.285307 
L 453.290524 190.285307 
L 453.290524 186.452911 
L 456.065044 186.452911 
L 456.065044 182.620515 
L 457.885531 182.620515 
L 457.885531 178.788119 
L 461.8 178.788119 
L 461.8 178.788119 
" clip-path="url(#p430d0385e8)" style="fill: none; stroke: #f5deb3; stroke-width: 1.5; stroke-linecap: square"/>
   </g>
   <g id="line2d_8">
    <path d="M 0 0 
" clip-path="url(#p430d0385e8)" style="fill: none; stroke: #f5deb3; stroke-width: 1.5; stroke-linecap: square"/>
   </g>
   <g id="line2d_9">
    <path d="M 208.598668 293.76 
L 208.598668 289.927604 
L 216.739567 289.927604 
L 216.739567 286.095208 
L 222.314704 286.095208 
L 222.314704 282.262812 
L 230.776414 282.262812 
L 230.776414 278.430416 
L 232.360261 278.430416 
L 232.360261 274.59802 
L 250.39083 274.59802 
L 250.39083 270.765624 
L 255.168939 270.765624 
L 255.168939 266.933228 
L 265.934404 266.933228 
L 265.934404 263.100832 
L 265.934404 263.100832 
L 265.934404 259.268436 
L 270.789632 259.268436 
L 270.789632 255.43604 
L 270.789632 255.43604 
L 270.789632 251.603644 
L 275.350418 251.603644 
L 275.350418 247.771248 
L 276.23031 247.771248 
L 276.23031 243.938851 
L 277.10003 243.938851 
L 277.10003 240.106455 
L 277.95981 240.106455 
L 277.95981 236.274059 
L 428.160401 236.274059 
L 428.160401 232.441663 
L 428.507884 232.441663 
L 428.507884 228.609267 
L 430.672104 228.609267 
L 430.672104 224.776871 
L 432.884908 224.776871 
L 432.884908 220.944475 
L 433.752122 220.944475 
L 433.752122 217.112079 
L 433.967372 217.112079 
L 433.967372 213.279683 
L 435.246098 213.279683 
L 435.246098 209.447287 
L 435.982106 209.447287 
L 435.982106 205.614891 
L 436.295347 205.614891 
L 436.295347 201.782495 
L 438.147887 201.782495 
L 438.147887 197.950099 
L 438.452257 197.950099 
L 438.452257 194.117703 
L 440.154138 194.117703 
L 440.154138 190.285307 
L 444.947473 190.285307 
L 444.947473 186.452911 
L 445.040293 186.452911 
L 445.040293 182.620515 
L 445.68684 182.620515 
L 445.68684 178.788119 
L 461.8 178.788119 
" clip-path="url(#p430d0385e8)" style="fill: none; stroke: #f5deb3; stroke-width: 1.5; stroke-linecap: square"/>
   </g>
   <g id="line2d_10">
    <path d="M 288.325267 293.76 
L 288.325267 289.927604 
L 301.917059 289.927604 
L 301.917059 286.095208 
L 302.536239 286.095208 
L 302.536239 274.59802 
L 304.963221 274.59802 
L 304.963221 270.765624 
L 306.733418 270.765624 
L 306.733418 266.933228 
L 314.484524 266.933228 
L 314.484524 263.100832 
L 315.529401 263.100832 
L 315.529401 259.268436 
L 325.704553 259.268436 
L 325.704553 255.43604 
L 330.955282 255.43604 
L 330.955282 251.603644 
L 343.392592 251.603644 
L 343.392592 247.771248 
L 343.74998 247.771248 
L 343.74998 243.938851 
L 356.207661 243.938851 
L 356.207661 240.106455 
L 357.703335 240.106455 
L 357.703335 236.274059 
L 461.8 236.274059 
L 461.8 236.274059 
" clip-path="url(#p430d0385e8)" style="fill: none; stroke: #f5deb3; stroke-width: 1.5; stroke-linecap: square"/>
   </g>
   <g id="line2d_11">
    <path d="M 144.856516 293.76 
L 144.856516 289.927604 
L 166.498816 289.927604 
L 166.498816 286.095208 
L 170.169296 286.095208 
L 170.169296 282.262812 
L 170.169296 282.262812 
L 170.169296 278.430416 
L 170.169296 278.430416 
L 170.169296 274.59802 
L 173.668993 274.59802 
L 173.668993 270.765624 
L 173.668993 270.765624 
L 173.668993 266.933228 
L 177.013096 266.933228 
L 177.013096 263.100832 
L 177.013096 263.100832 
L 177.013096 259.268436 
L 189.075661 259.268436 
L 189.075661 255.43604 
L 189.075661 255.43604 
L 189.075661 251.603644 
L 204.172102 251.603644 
L 204.172102 247.771248 
L 204.172102 247.771248 
L 204.172102 243.938851 
L 212.779183 243.938851 
L 212.779183 240.106455 
L 214.785434 240.106455 
L 214.785434 236.274059 
L 377.167082 236.274059 
L 377.167082 232.441663 
L 383.10069 232.441663 
L 383.10069 228.609267 
L 383.10069 228.609267 
L 383.10069 224.776871 
L 383.731994 224.776871 
L 383.731994 220.944475 
L 385.184755 220.944475 
L 385.184755 217.112079 
L 386.408033 217.112079 
L 386.408033 213.279683 
L 386.609992 213.279683 
L 386.609992 209.447287 
L 388.00873 209.447287 
L 388.00873 205.614891 
L 388.403638 205.614891 
L 388.403638 201.782495 
L 392.05536 201.782495 
L 392.05536 197.950099 
L 392.05536 197.950099 
L 392.05536 194.117703 
L 393.541432 194.117703 
L 393.541432 190.285307 
L 393.908408 190.285307 
L 393.908408 186.452911 
L 397.133041 186.452911 
L 397.133041 182.620515 
L 397.657293 182.620515 
L 397.657293 178.788119 
L 461.8 178.788119 
" clip-path="url(#p430d0385e8)" style="fill: none; stroke: #f5deb3; stroke-width: 1.5; stroke-linecap: square"/>
   </g>
   <g id="line2d_12">
    <path d="M 134.091051 293.76 
L 134.091051 289.927604 
L 134.091051 289.927604 
L 134.091051 286.095208 
L 134.091051 286.095208 
L 134.091051 282.262812 
L 134.091051 282.262812 
L 134.091051 278.430416 
L 134.091051 278.430416 
L 134.091051 274.59802 
L 134.091051 274.59802 
L 134.091051 270.765624 
L 134.091051 270.765624 
L 134.091051 266.933228 
L 134.091051 266.933228 
L 134.091051 263.100832 
L 134.091051 263.100832 
L 134.091051 259.268436 
L 134.091051 259.268436 
L 134.091051 255.43604 
L 134.091051 255.43604 
L 134.091051 251.603644 
L 134.091051 251.603644 
L 134.091051 247.771248 
L 134.091051 247.771248 
L 134.091051 243.938851 
L 134.091051 243.938851 
L 134.091051 240.106455 
L 134.091051 240.106455 
L 134.091051 236.274059 
L 162.640026 236.274059 
L 162.640026 232.441663 
L 162.640026 232.441663 
L 162.640026 228.609267 
L 183.285888 228.609267 
L 183.285888 224.776871 
L 199.4687 224.776871 
L 199.4687 220.944475 
L 199.4687 220.944475 
L 199.4687 217.112079 
L 199.4687 217.112079 
L 199.4687 213.279683 
L 199.4687 213.279683 
L 199.4687 209.447287 
L 199.4687 209.447287 
L 199.4687 205.614891 
L 199.4687 205.614891 
L 199.4687 201.782495 
L 199.4687 201.782495 
L 199.4687 197.950099 
L 199.4687 197.950099 
L 199.4687 194.117703 
L 212.779183 194.117703 
L 212.779183 190.285307 
L 212.779183 190.285307 
L 212.779183 186.452911 
L 212.779183 186.452911 
L 212.779183 182.620515 
L 224.084902 182.620515 
L 224.084902 178.788119 
L 410.291707 178.788119 
L 410.291707 174.955723 
L 412.037935 174.955723 
L 412.037935 171.123327 
L 413.744547 171.123327 
L 413.744547 167.290931 
L 414.583551 167.290931 
L 414.583551 163.458535 
L 417.849015 163.458535 
L 417.849015 159.626139 
L 427.577673 159.626139 
L 427.577673 155.793743 
L 428.968712 155.793743 
L 428.968712 151.961347 
L 433.536254 151.961347 
L 433.536254 148.12895 
L 434.289097 148.12895 
L 434.289097 144.296554 
L 434.289097 144.296554 
L 434.289097 140.464158 
L 442.204658 140.464158 
L 442.204658 136.631762 
L 443.918832 136.631762 
L 443.918832 132.799366 
L 444.38814 132.799366 
L 444.38814 128.96697 
L 455.904639 128.96697 
L 455.904639 125.134574 
L 456.384831 125.134574 
L 456.384831 121.302178 
L 456.384831 121.302178 
L 456.384831 121.302178 
L 460.8 121.302178 
" clip-path="url(#p430d0385e8)" style="fill: none; stroke: #f5deb3; stroke-width: 1.5; stroke-linecap: square"/>
   </g>
   <g id="line2d_13">
    <path d="M 379.641234 293.76 
L 379.641234 289.927604 
L 379.641234 289.927604 
L 379.641234 286.095208 
L 379.641234 286.095208 
L 379.641234 282.262812 
L 386.002479 282.262812 
L 386.002479 278.430416 
L 386.002479 278.430416 
L 386.002479 274.59802 
L 386.002479 274.59802 
L 386.002479 270.765624 
L 386.609992 270.765624 
L 386.609992 266.933228 
L 386.609992 266.933228 
L 386.609992 263.100832 
L 386.609992 263.100832 
L 386.609992 259.268436 
L 400.056628 259.268436 
L 400.056628 255.43604 
L 400.056628 255.43604 
L 400.056628 251.603644 
L 400.056628 251.603644 
L 400.056628 247.771248 
L 408.503981 247.771248 
L 408.503981 243.938851 
L 408.503981 243.938851 
L 408.503981 240.106455 
L 408.503981 240.106455 
L 408.503981 236.274059 
L 461.8 236.274059 
" clip-path="url(#p430d0385e8)" style="fill: none; stroke: #f5deb3; stroke-width: 1.5; stroke-linecap: square"/>
   </g>
   <g id="line2d_14">
    <path d="M 208.598668 293.76 
L 208.598668 289.927604 
L 208.598668 289.927604 
L 208.598668 286.095208 
L 210.717961 286.095208 
L 210.717961 282.262812 
L 214.785434 282.262812 
L 214.785434 278.430416 
L 220.501847 278.430416 
L 220.501847 274.59802 
L 220.501847 274.59802 
L 220.501847 270.765624 
L 220.501847 270.765624 
L 220.501847 266.933228 
L 225.814401 266.933228 
L 225.814401 263.100832 
L 229.158504 263.100832 
L 229.158504 259.268436 
L 229.158504 259.268436 
L 229.158504 255.43604 
L 229.158504 255.43604 
L 229.158504 251.603644 
L 229.158504 251.603644 
L 229.158504 247.771248 
L 229.158504 247.771248 
L 229.158504 243.938851 
L 229.158504 243.938851 
L 229.158504 240.106455 
L 229.158504 240.106455 
L 229.158504 236.274059 
L 321.030383 236.274059 
L 321.030383 232.441663 
L 326.156385 232.441663 
L 326.156385 228.609267 
L 330.531451 228.609267 
L 330.531451 224.776871 
L 333.039347 224.776871 
L 333.039347 220.944475 
L 333.039347 220.944475 
L 333.039347 217.112079 
L 334.666003 217.112079 
L 334.666003 213.279683 
L 335.466329 213.279683 
L 335.466329 209.447287 
L 336.25823 209.447287 
L 336.25823 205.614891 
L 339.345019 205.614891 
L 339.345019 201.782495 
L 340.842181 201.782495 
L 340.842181 197.950099 
L 344.105677 197.950099 
L 344.105677 194.117703 
L 345.16279 194.117703 
L 345.16279 190.285307 
L 347.573108 190.285307 
L 347.573108 186.452911 
L 347.573108 186.452911 
L 347.573108 182.620515 
L 359.459755 182.620515 
L 359.459755 178.788119 
L 461.8 178.788119 
" clip-path="url(#p430d0385e8)" style="fill: none; stroke: #f5deb3; stroke-width: 1.5; stroke-linecap: square"/>
   </g>
   <g id="line2d_15">
    <path clip-path="url(#p430d0385e8)" style="fill: none; stroke: #f5deb3; stroke-width: 1.5; stroke-linecap: square"/>
   </g>
   <g id="line2d_16">
    <path d="M 411.169888 293.76 
L 411.169888 289.927604 
L 418.77534 289.927604 
L 418.77534 282.262812 
L 426.279555 282.262812 
L 426.279555 278.430416 
L 431.008203 278.430416 
L 431.008203 274.59802 
L 433.102651 274.59802 
L 433.211286 263.100832 
L 433.319765 263.100832 
L 433.428087 255.43604 
L 433.967372 255.43604 
L 433.967372 251.603644 
L 436.295347 251.603644 
L 436.295347 247.771248 
L 436.503452 247.771248 
L 436.503452 243.938851 
L 441.818368 243.938851 
L 441.818368 240.106455 
L 449.802701 240.106455 
L 449.802701 236.274059 
L 461.8 236.274059 
L 461.8 236.274059 
" clip-path="url(#p430d0385e8)" style="fill: none; stroke: #f5deb3; stroke-width: 1.5; stroke-linecap: square"/>
   </g>
   <g id="line2d_17">
    <path d="M 302.536239 293.76 
L 302.536239 289.927604 
L 310.708754 289.927604 
L 310.708754 286.095208 
L 328.375718 286.095208 
L 328.375718 282.262812 
L 344.105677 282.262812 
L 344.105677 278.430416 
L 346.549556 278.430416 
L 346.549556 274.59802 
L 367.674809 274.59802 
L 367.674809 270.765624 
L 374.134147 270.765624 
L 374.134147 266.933228 
L 374.371841 266.933228 
L 374.371841 263.100832 
L 378.750928 263.100832 
L 378.750928 259.268436 
L 399.208481 259.268436 
L 399.208481 255.43604 
L 415.137733 255.43604 
L 415.137733 251.603644 
L 416.097836 251.603644 
L 416.097836 247.771248 
L 416.776199 247.771248 
L 416.776199 243.938851 
L 458.740867 243.938851 
L 458.740867 240.106455 
L 459.280152 240.106455 
L 459.280152 236.274059 
L 461.8 236.274059 
" clip-path="url(#p430d0385e8)" style="fill: none; stroke: #f5deb3; stroke-width: 1.5; stroke-linecap: square"/>
   </g>
   <g id="line2d_18">
    <path d="M 128.069444 293.76 
L 128.069444 289.927604 
L 128.069444 289.927604 
L 128.069444 286.095208 
L 128.069444 286.095208 
L 128.069444 282.262812 
L 128.069444 282.262812 
L 128.069444 278.430416 
L 128.069444 278.430416 
L 128.069444 274.59802 
L 128.069444 274.59802 
L 128.069444 270.765624 
L 128.069444 270.765624 
L 128.069444 266.933228 
L 128.069444 266.933228 
L 128.069444 263.100832 
L 128.069444 263.100832 
L 128.069444 259.268436 
L 128.069444 259.268436 
L 128.069444 255.43604 
L 128.069444 255.43604 
L 128.069444 251.603644 
L 128.069444 251.603644 
L 128.069444 247.771248 
L 128.069444 247.771248 
L 128.069444 243.938851 
L 128.069444 243.938851 
L 128.069444 240.106455 
L 128.069444 240.106455 
L 128.069444 236.274059 
L 134.091051 236.274059 
L 134.091051 232.441663 
L 134.091051 232.441663 
L 134.091051 228.609267 
L 134.091051 228.609267 
L 134.091051 224.776871 
L 134.091051 224.776871 
L 134.091051 220.944475 
L 134.091051 220.944475 
L 134.091051 217.112079 
L 139.666188 217.112079 
L 139.666188 213.279683 
L 144.856516 213.279683 
L 144.856516 209.447287 
L 149.711744 209.447287 
L 149.711744 205.614891 
L 149.711744 205.614891 
L 149.711744 201.782495 
L 154.27253 201.782495 
L 154.27253 197.950099 
L 154.27253 197.950099 
L 154.27253 194.117703 
L 154.27253 194.117703 
L 154.27253 190.285307 
L 154.27253 190.285307 
L 154.27253 186.452911 
L 158.572553 186.452911 
L 158.572553 182.620515 
L 170.169296 182.620515 
L 170.169296 178.788119 
L 461.8 178.788119 
" clip-path="url(#p430d0385e8)" style="fill: none; stroke: #f5deb3; stroke-width: 1.5; stroke-linecap: square"/>
   </g>
   <g id="line2d_19">
    <path d="M 436.399472 293.76 
L 436.399472 289.927604 
L 449.541032 289.927604 
L 449.541032 286.095208 
L 461.8 286.095208 
L 461.8 286.095208 
" clip-path="url(#p430d0385e8)" style="fill: none; stroke: #f5deb3; stroke-width: 1.5; stroke-linecap: square"/>
   </g>
   <g id="line2d_20">
    <path d="M 144.856516 293.76 
L 144.856516 289.927604 
L 154.27253 289.927604 
L 154.27253 286.095208 
L 158.572553 286.095208 
L 158.572553 282.262812 
L 158.572553 282.262812 
L 158.572553 278.430416 
L 170.169296 278.430416 
L 170.169296 274.59802 
L 177.013096 274.59802 
L 177.013096 270.765624 
L 180.214852 270.765624 
L 180.214852 266.933228 
L 186.236459 266.933228 
L 186.236459 263.100832 
L 189.075661 263.100832 
L 189.075661 259.268436 
L 189.075661 259.268436 
L 189.075661 255.43604 
L 191.811596 255.43604 
L 191.811596 251.603644 
L 197.001924 251.603644 
L 197.001924 247.771248 
L 201.857152 247.771248 
L 201.857152 243.938851 
L 204.172102 243.938851 
L 204.172102 240.106455 
L 210.717961 240.106455 
L 210.717961 236.274059 
L 336.651077 236.274059 
L 336.651077 232.441663 
L 343.392592 232.441663 
L 343.392592 228.609267 
L 343.74998 228.609267 
L 343.74998 224.776871 
L 344.812067 224.776871 
L 344.812067 220.944475 
L 346.205253 220.944475 
L 346.205253 217.112079 
L 347.91122 217.112079 
L 347.91122 213.279683 
L 349.248676 213.279683 
L 349.248676 209.447287 
L 350.236392 209.447287 
L 350.236392 205.614891 
L 353.124036 205.614891 
L 353.124036 201.782495 
L 353.750955 201.782495 
L 353.750955 197.950099 
L 357.108629 197.950099 
L 357.108629 194.117703 
L 358.878826 194.117703 
L 358.878826 190.285307 
L 362.01981 190.285307 
L 362.01981 186.452911 
L 366.102001 186.452911 
L 366.102001 182.620515 
L 366.36643 182.620515 
L 366.36643 178.788119 
L 396.781498 178.788119 
L 396.781498 174.955723 
L 417.314519 174.955723 
L 417.314519 171.123327 
L 422.245141 171.123327 
L 422.245141 167.290931 
L 425.079691 167.290931 
L 425.079691 163.458535 
L 435.667556 163.458535 
L 435.667556 159.626139 
L 436.503452 159.626139 
L 436.503452 155.793743 
L 440.64745 155.793743 
L 440.64745 151.961347 
L 449.278449 151.961347 
L 449.278449 148.12895 
L 451.779158 148.12895 
L 451.779158 144.296554 
L 461.8 144.296554 
" clip-path="url(#p430d0385e8)" style="fill: none; stroke: #f5deb3; stroke-width: 1.5; stroke-linecap: square"/>
   </g>
   <g id="line2d_21">
    <path d="M 0 0 
" clip-path="url(#p430d0385e8)" style="fill: none; stroke: #f5deb3; stroke-width: 1.5; stroke-linecap: square"/>
   </g>
   <g id="line2d_22">
    <path d="M 158.572553 293.76 
L 158.572553 289.927604 
L 158.572553 289.927604 
L 158.572553 286.095208 
L 170.169296 286.095208 
L 170.169296 282.262812 
L 173.668993 282.262812 
L 173.668993 278.430416 
L 183.285888 278.430416 
L 183.285888 274.59802 
L 183.285888 274.59802 
L 183.285888 270.765624 
L 183.285888 270.765624 
L 183.285888 266.933228 
L 191.811596 266.933228 
L 191.811596 263.100832 
L 210.717961 263.100832 
L 210.717961 259.268436 
L 220.501847 259.268436 
L 220.501847 255.43604 
L 222.314704 255.43604 
L 222.314704 251.603644 
L 230.776414 251.603644 
L 230.776414 247.771248 
L 233.911448 247.771248 
L 233.911448 243.938851 
L 294.746881 243.938851 
L 294.746881 240.106455 
L 307.314347 240.106455 
L 307.314347 236.274059 
L 342.310129 236.274059 
L 342.310129 232.441663 
L 343.74998 232.441663 
L 343.74998 228.609267 
L 344.812067 228.609267 
L 344.812067 224.776871 
L 346.892289 224.776871 
L 346.892289 220.944475 
L 348.582921 220.944475 
L 348.582921 217.112079 
L 349.908592 217.112079 
L 349.908592 213.279683 
L 350.236392 213.279683 
L 350.236392 209.447287 
L 350.887737 209.447287 
L 350.887737 205.614891 
L 351.211307 205.614891 
L 351.211307 201.782495 
L 354.372694 201.782495 
L 354.372694 197.950099 
L 354.989336 197.950099 
L 354.989336 194.117703 
L 357.108629 194.117703 
L 357.108629 190.285307 
L 357.406569 190.285307 
L 357.406569 186.452911 
L 359.748546 186.452911 
L 359.748546 182.620515 
L 364.495607 182.620515 
L 364.495607 178.788119 
L 413.179967 178.788119 
L 413.179967 174.955723 
L 421.10623 174.955723 
L 421.10623 171.123327 
L 424.105827 171.123327 
L 424.105827 167.290931 
L 425.561936 167.290931 
L 425.561936 163.458535 
L 429.654704 163.458535 
L 429.654704 159.626139 
L 433.102651 159.626139 
L 433.102651 155.793743 
L 443.35177 155.793743 
L 443.35177 151.961347 
L 449.628356 151.961347 
L 449.628356 148.12895 
L 450.668418 148.12895 
L 450.668418 144.296554 
L 452.538636 144.296554 
L 452.538636 140.464158 
L 455.097443 140.464158 
L 455.097443 136.631762 
L 455.097443 136.631762 
L 455.097443 132.799366 
L 456.225108 132.799366 
L 456.225108 128.96697 
L 456.703265 128.96697 
L 456.703265 125.134574 
L 461.8 125.134574 
" clip-path="url(#p430d0385e8)" style="fill: none; stroke: #f5deb3; stroke-width: 1.5; stroke-linecap: square"/>
   </g>
   <g id="line2d_23">
    <path d="M 271.724177 293.76 
L 271.724177 289.927604 
L 298.742329 289.927604 
L 298.742329 286.095208 
L 301.917059 286.095208 
L 301.917059 282.262812 
L 303.759516 282.262812 
L 303.759516 278.430416 
L 313.424931 278.430416 
L 313.424931 274.59802 
L 313.424931 274.59802 
L 313.424931 270.765624 
L 321.511087 270.765624 
L 321.511087 266.933228 
L 321.988739 266.933228 
L 321.988739 263.100832 
L 323.869585 263.100832 
L 323.869585 259.268436 
L 324.33254 259.268436 
L 324.33254 255.43604 
L 324.792663 255.43604 
L 324.792663 251.603644 
L 337.430668 251.603644 
L 337.430668 247.771248 
L 345.859368 247.771248 
L 345.859368 243.938851 
L 351.533492 243.938851 
L 351.533492 240.106455 
L 365.303092 240.106455 
L 365.303092 236.274059 
L 461.8 236.274059 
" clip-path="url(#p430d0385e8)" style="fill: none; stroke: #f5deb3; stroke-width: 1.5; stroke-linecap: square"/>
   </g>
   <g id="line2d_24">
    <path d="M 340.842181 293.76 
L 340.842181 289.927604 
L 340.842181 289.927604 
L 340.842181 286.095208 
L 341.211862 286.095208 
L 341.211862 282.262812 
L 355.600965 282.262812 
L 355.600965 278.430416 
L 355.600965 278.430416 
L 355.600965 274.59802 
L 355.904924 274.59802 
L 355.904924 270.765624 
L 369.215408 270.765624 
L 369.215408 266.933228 
L 369.215408 266.933228 
L 369.215408 263.100832 
L 369.469134 263.100832 
L 369.469134 259.268436 
L 369.722008 259.268436 
L 369.722008 255.43604 
L 380.7395 255.43604 
L 380.7395 251.603644 
L 380.7395 251.603644 
L 380.7395 247.771248 
L 380.957243 247.771248 
L 380.957243 243.938851 
L 381.174357 243.938851 
L 381.174357 240.106455 
L 399.548888 240.106455 
L 399.548888 236.274059 
L 461.8 236.274059 
" clip-path="url(#p430d0385e8)" style="fill: none; stroke: #f5deb3; stroke-width: 1.5; stroke-linecap: square"/>
   </g>
   <g id="line2d_25">
    <path d="M 289.80041 293.76 
L 289.80041 289.927604 
L 302.536239 289.927604 
L 302.536239 286.095208 
L 305.557927 286.095208 
L 305.557927 282.262812 
L 312.889484 282.262812 
L 312.889484 278.430416 
L 314.484524 278.430416 
L 314.484524 274.59802 
L 323.869585 274.59802 
L 323.869585 270.765624 
L 324.33254 270.765624 
L 324.33254 266.933228 
L 325.24999 266.933228 
L 325.24999 263.100832 
L 325.24999 263.100832 
L 325.24999 259.268436 
L 326.60552 259.268436 
L 326.60552 255.43604 
L 329.676556 255.43604 
L 329.676556 251.603644 
L 331.376739 251.603644 
L 331.376739 247.771248 
L 348.24782 247.771248 
L 348.24782 243.938851 
L 349.248676 243.938851 
L 349.248676 240.106455 
L 350.56277 240.106455 
L 350.56277 236.274059 
L 461.8 236.274059 
" clip-path="url(#p430d0385e8)" style="fill: none; stroke: #f5deb3; stroke-width: 1.5; stroke-linecap: square"/>
   </g>
   <g id="line2d_26">
    <path d="M 425.801904 293.76 
L 425.801904 289.927604 
L 426.279555 289.927604 
L 426.279555 286.095208 
L 426.635815 286.095208 
L 426.635815 282.262812 
L 429.995369 282.262812 
L 429.995369 278.430416 
L 432.7758 278.430416 
L 432.7758 274.59802 
L 433.211286 274.59802 
L 433.211286 270.765624 
L 433.428087 270.765624 
L 433.536254 259.268436 
L 436.607289 259.268436 
L 436.607289 255.43604 
L 437.330163 255.43604 
L 437.330163 251.603644 
L 440.154138 251.603644 
L 440.154138 247.771248 
L 440.745726 247.771248 
L 440.745726 243.938851 
L 442.397062 243.938851 
L 442.397062 240.106455 
L 442.684749 240.106455 
L 442.684749 236.274059 
L 461.8 236.274059 
L 461.8 236.274059 
" clip-path="url(#p430d0385e8)" style="fill: none; stroke: #f5deb3; stroke-width: 1.5; stroke-linecap: square"/>
   </g>
   <g id="line2d_27">
    <path d="M 317.5766 293.76 
L 317.5766 289.927604 
L 333.857071 289.927604 
L 333.857071 286.095208 
L 334.666003 286.095208 
L 334.666003 282.262812 
L 337.430668 282.262812 
L 337.430668 278.430416 
L 345.859368 278.430416 
L 345.859368 274.59802 
L 345.859368 274.59802 
L 345.859368 270.765624 
L 346.892289 270.765624 
L 346.892289 266.933228 
L 352.17375 266.933228 
L 352.17375 263.100832 
L 365.303092 263.100832 
L 365.303092 259.268436 
L 369.215408 259.268436 
L 369.215408 255.43604 
L 375.315175 255.43604 
L 375.315175 251.603644 
L 378.974495 251.603644 
L 378.974495 247.771248 
L 381.174357 247.771248 
L 381.174357 243.938851 
L 394.091226 243.938851 
L 394.091226 240.106455 
L 414.025256 240.106455 
L 414.025256 236.274059 
L 417.982047 236.274059 
L 417.982047 232.441663 
L 419.299593 232.441663 
L 419.299593 228.609267 
L 419.299593 228.609267 
L 419.299593 224.776871 
L 420.59446 224.776871 
L 420.59446 220.944475 
L 422.370628 220.944475 
L 422.370628 217.112079 
L 424.228252 217.112079 
L 424.228252 213.279683 
L 425.3212 213.279683 
L 425.3212 209.447287 
L 425.682015 209.447287 
L 425.682015 205.614891 
L 426.160427 205.614891 
L 426.160427 201.782495 
L 428.044216 201.782495 
L 428.044216 197.950099 
L 428.044216 197.950099 
L 428.044216 194.117703 
L 429.654704 194.117703 
L 429.654704 190.285307 
L 431.119903 190.285307 
L 431.119903 186.452911 
L 432.007582 186.452911 
L 432.007582 182.620515 
L 439.85659 182.620515 
L 439.85659 178.788119 
L 461.8 178.788119 
" clip-path="url(#p430d0385e8)" style="fill: none; stroke: #f5deb3; stroke-width: 1.5; stroke-linecap: square"/>
   </g>
   <g id="line2d_28">
    <path d="M 227.505033 293.76 
L 227.505033 289.927604 
L 256.31751 289.927604 
L 256.31751 286.095208 
L 276.23031 286.095208 
L 276.23031 282.262812 
L 276.23031 282.262812 
L 276.23031 278.430416 
L 277.95981 278.430416 
L 277.95981 274.59802 
L 286.056856 274.59802 
L 286.056856 270.765624 
L 292.666659 270.765624 
L 292.666659 266.933228 
L 292.666659 266.933228 
L 292.666659 263.100832 
L 293.366477 263.100832 
L 293.366477 259.268436 
L 306.147968 259.268436 
L 306.147968 255.43604 
L 306.733418 255.43604 
L 306.733418 251.603644 
L 306.733418 251.603644 
L 306.733418 247.771248 
L 318.079812 247.771248 
L 318.079812 243.938851 
L 335.06723 243.938851 
L 335.06723 240.106455 
L 344.459701 240.106455 
L 344.459701 236.274059 
L 453.622299 236.274059 
L 453.622299 232.441663 
L 454.281492 232.441663 
L 454.281492 228.609267 
L 454.853586 228.609267 
L 454.853586 224.776871 
L 455.259577 224.776871 
L 455.259577 220.944475 
L 455.743891 220.944475 
L 455.743891 217.112079 
L 457.885531 217.112079 
L 457.885531 213.279683 
L 458.197688 213.279683 
L 458.197688 209.447287 
L 458.740867 209.447287 
L 458.740867 205.614891 
L 459.663002 205.614891 
L 459.663002 201.782495 
L 460.19574 201.782495 
L 460.19574 197.950099 
L 461.8 197.950099 
" clip-path="url(#p430d0385e8)" style="fill: none; stroke: #f5deb3; stroke-width: 1.5; stroke-linecap: square"/>
   </g>
   <g id="line2d_29">
    <path d="M 114.353408 293.76 
L 114.353408 289.927604 
L 114.353408 289.927604 
L 114.353408 286.095208 
L 114.353408 286.095208 
L 114.353408 282.262812 
L 114.353408 282.262812 
L 114.353408 278.430416 
L 114.353408 278.430416 
L 114.353408 274.59802 
L 114.353408 274.59802 
L 114.353408 270.765624 
L 114.353408 270.765624 
L 114.353408 266.933228 
L 114.353408 266.933228 
L 114.353408 263.100832 
L 114.353408 263.100832 
L 114.353408 259.268436 
L 114.353408 259.268436 
L 114.353408 255.43604 
L 114.353408 255.43604 
L 114.353408 251.603644 
L 114.353408 251.603644 
L 114.353408 247.771248 
L 114.353408 247.771248 
L 114.353408 243.938851 
L 114.353408 243.938851 
L 114.353408 240.106455 
L 114.353408 240.106455 
L 114.353408 236.274059 
L 149.711744 236.274059 
L 149.711744 232.441663 
L 149.711744 232.441663 
L 149.711744 228.609267 
L 149.711744 228.609267 
L 149.711744 224.776871 
L 154.27253 224.776871 
L 154.27253 220.944475 
L 154.27253 220.944475 
L 154.27253 217.112079 
L 154.27253 217.112079 
L 154.27253 213.279683 
L 154.27253 213.279683 
L 154.27253 209.447287 
L 154.27253 209.447287 
L 154.27253 205.614891 
L 154.27253 205.614891 
L 154.27253 201.782495 
L 241.221069 201.782495 
L 241.221069 197.950099 
L 241.221069 197.950099 
L 241.221069 194.117703 
L 241.221069 194.117703 
L 241.221069 190.285307 
L 242.601473 190.285307 
L 242.601473 186.452911 
L 242.601473 186.452911 
L 242.601473 182.620515 
L 242.601473 182.620515 
L 242.601473 178.788119 
L 440.351851 178.788119 
L 440.351851 174.955723 
L 440.351851 174.955723 
L 440.351851 171.123327 
L 440.351851 171.123327 
L 440.351851 167.290931 
L 461.8 167.290931 
" clip-path="url(#p430d0385e8)" style="fill: none; stroke: #f5deb3; stroke-width: 1.5; stroke-linecap: square"/>
   </g>
   <g id="line2d_30">
    <path d="M 220.501847 293.76 
L 220.501847 289.927604 
L 227.505033 289.927604 
L 227.505033 286.095208 
L 260.744076 286.095208 
L 260.744076 282.262812 
L 261.811185 282.262812 
L 261.811185 278.430416 
L 267.914253 278.430416 
L 267.914253 274.59802 
L 271.724177 274.59802 
L 271.724177 270.765624 
L 273.559144 270.765624 
L 273.559144 266.933228 
L 273.559144 266.933228 
L 273.559144 263.100832 
L 274.460112 263.100832 
L 274.460112 259.268436 
L 274.460112 259.268436 
L 274.460112 255.43604 
L 274.460112 255.43604 
L 274.460112 251.603644 
L 277.95981 251.603644 
L 277.95981 247.771248 
L 278.809874 247.771248 
L 278.809874 243.938851 
L 279.650441 243.938851 
L 279.650441 240.106455 
L 279.650441 240.106455 
L 279.650441 236.274059 
L 279.650441 236.274059 
L 279.650441 232.441663 
L 280.481719 232.441663 
L 280.481719 228.609267 
L 281.303912 228.609267 
L 281.303912 224.776871 
L 281.303912 224.776871 
L 281.303912 220.944475 
L 282.117216 220.944475 
L 282.117216 217.112079 
L 283.717914 217.112079 
L 283.717914 213.279683 
L 284.505669 213.279683 
L 284.505669 209.447287 
L 285.28526 209.447287 
L 285.28526 205.614891 
L 289.066454 205.614891 
L 289.066454 201.782495 
L 290.527275 201.782495 
L 290.527275 197.950099 
L 291.960269 197.950099 
L 291.960269 194.117703 
L 291.960269 194.117703 
L 291.960269 190.285307 
L 293.366477 190.285307 
L 293.366477 186.452911 
L 294.059845 186.452911 
L 294.059845 182.620515 
L 300.663198 182.620515 
L 300.663198 178.788119 
L 313.956593 178.788119 
L 313.956593 174.955723 
L 313.956593 174.955723 
L 313.956593 171.123327 
L 313.956593 171.123327 
L 313.956593 167.290931 
L 313.956593 167.290931 
L 313.956593 163.458535 
L 313.956593 163.458535 
L 313.956593 159.626139 
L 313.956593 159.626139 
L 313.956593 155.793743 
L 313.956593 155.793743 
L 313.956593 151.961347 
L 313.956593 151.961347 
L 313.956593 148.12895 
L 313.956593 148.12895 
L 313.956593 144.296554 
L 313.956593 144.296554 
L 313.956593 140.464158 
L 313.956593 140.464158 
L 313.956593 136.631762 
L 313.956593 136.631762 
L 313.956593 132.799366 
L 313.956593 132.799366 
L 313.956593 128.96697 
L 313.956593 128.96697 
L 313.956593 125.134574 
L 313.956593 125.134574 
L 313.956593 121.302178 
L 313.956593 121.302178 
L 313.956593 121.302178 
L 460.8 121.302178 
" clip-path="url(#p430d0385e8)" style="fill: none; stroke: #f5deb3; stroke-width: 1.5; stroke-linecap: square"/>
   </g>
   <g id="matplotlib.axis_1">
    <g id="xtick_1">
     <g id="line2d_31">
      <path d="M 62.208 293.76 
L 62.208 3.456 
" clip-path="url(#p430d0385e8)" style="fill: none; stroke: #b0b0b0; stroke-width: 0.8; stroke-linecap: square"/>
     </g>
     <g id="line2d_32">
      <defs>
       <path id="mb1f3e03e58" d="M 0 0 
L 0 3.5 
" style="stroke: #000000; stroke-width: 0.8"/>
      </defs>
      <g>
       <use xlink:href="#mb1f3e03e58" x="62.208" y="293.76" style="stroke: #000000; stroke-width: 0.8"/>
      </g>
     </g>
     <g id="text_1">
      <!-- 0 -->
      <g transform="translate(55.8455 315.956875) scale(0.2 -0.2)">
       <defs>
        <path id="DejaVuSans-30" d="M 2034 4250 
Q 1547 4250 1301 3770 
Q 1056 3291 1056 2328 
Q 1056 1369 1301 889 
Q 1547 409 2034 409 
Q 2525 409 2770 889 
Q 3016 1369 3016 2328 
Q 3016 3291 2770 3770 
Q 2525 4250 2034 4250 
z
M 2034 4750 
Q 2819 4750 3233 4129 
Q 3647 3509 3647 2328 
Q 3647 1150 3233 529 
Q 2819 -91 2034 -91 
Q 1250 -91 836 529 
Q 422 1150 422 2328 
Q 422 3509 836 4129 
Q 1250 4750 2034 4750 
z
" transform="scale(0.015625)"/>
       </defs>
       <use xlink:href="#DejaVuSans-30"/>
      </g>
     </g>
    </g>
    <g id="xtick_2">
     <g id="line2d_33">
      <path d="M 408.654592 293.76 
L 408.654592 3.456 
" clip-path="url(#p430d0385e8)" style="fill: none; stroke: #b0b0b0; stroke-width: 0.8; stroke-linecap: square"/>
     </g>
     <g id="line2d_34">
      <g>
       <use xlink:href="#mb1f3e03e58" x="408.654592" y="293.76" style="stroke: #000000; stroke-width: 0.8"/>
      </g>
     </g>
     <g id="text_2">
      <!-- 2 -->
      <g transform="translate(402.292092 315.956875) scale(0.2 -0.2)">
       <defs>
        <path id="DejaVuSans-32" d="M 1228 531 
L 3431 531 
L 3431 0 
L 469 0 
L 469 531 
Q 828 903 1448 1529 
Q 2069 2156 2228 2338 
Q 2531 2678 2651 2914 
Q 2772 3150 2772 3378 
Q 2772 3750 2511 3984 
Q 2250 4219 1831 4219 
Q 1534 4219 1204 4116 
Q 875 4013 500 3803 
L 500 4441 
Q 881 4594 1212 4672 
Q 1544 4750 1819 4750 
Q 2544 4750 2975 4387 
Q 3406 4025 3406 3419 
Q 3406 3131 3298 2873 
Q 3191 2616 2906 2266 
Q 2828 2175 2409 1742 
Q 1991 1309 1228 531 
z
" transform="scale(0.015625)"/>
       </defs>
       <use xlink:href="#DejaVuSans-32"/>
      </g>
     </g>
    </g>
    <g id="xtick_3">
     <g id="line2d_35">
      <path d="M 114.353408 293.76 
L 114.353408 3.456 
" clip-path="url(#p430d0385e8)" style="fill: none; stroke: #b0b0b0; stroke-width: 0.8; stroke-linecap: square"/>
     </g>
     <g id="line2d_36">
      <defs>
       <path id="m2a9973add6" d="M 0 0 
L 0 2 
" style="stroke: #000000; stroke-width: 0.6"/>
      </defs>
      <g>
       <use xlink:href="#m2a9973add6" x="114.353408" y="293.76" style="stroke: #000000; stroke-width: 0.6"/>
      </g>
     </g>
    </g>
    <g id="xtick_4">
     <g id="line2d_37">
      <path d="M 144.856516 293.76 
L 144.856516 3.456 
" clip-path="url(#p430d0385e8)" style="fill: none; stroke: #b0b0b0; stroke-width: 0.8; stroke-linecap: square"/>
     </g>
     <g id="line2d_38">
      <g>
       <use xlink:href="#m2a9973add6" x="144.856516" y="293.76" style="stroke: #000000; stroke-width: 0.6"/>
      </g>
     </g>
    </g>
    <g id="xtick_5">
     <g id="line2d_39">
      <path d="M 166.498816 293.76 
L 166.498816 3.456 
" clip-path="url(#p430d0385e8)" style="fill: none; stroke: #b0b0b0; stroke-width: 0.8; stroke-linecap: square"/>
     </g>
     <g id="line2d_40">
      <g>
       <use xlink:href="#m2a9973add6" x="166.498816" y="293.76" style="stroke: #000000; stroke-width: 0.6"/>
      </g>
     </g>
    </g>
    <g id="xtick_6">
     <g id="line2d_41">
      <path d="M 183.285888 293.76 
L 183.285888 3.456 
" clip-path="url(#p430d0385e8)" style="fill: none; stroke: #b0b0b0; stroke-width: 0.8; stroke-linecap: square"/>
     </g>
     <g id="line2d_42">
      <g>
       <use xlink:href="#m2a9973add6" x="183.285888" y="293.76" style="stroke: #000000; stroke-width: 0.6"/>
      </g>
     </g>
    </g>
    <g id="xtick_7">
     <g id="line2d_43">
      <path d="M 197.001924 293.76 
L 197.001924 3.456 
" clip-path="url(#p430d0385e8)" style="fill: none; stroke: #b0b0b0; stroke-width: 0.8; stroke-linecap: square"/>
     </g>
     <g id="line2d_44">
      <g>
       <use xlink:href="#m2a9973add6" x="197.001924" y="293.76" style="stroke: #000000; stroke-width: 0.6"/>
      </g>
     </g>
    </g>
    <g id="xtick_8">
     <g id="line2d_45">
      <path d="M 208.598668 293.76 
L 208.598668 3.456 
" clip-path="url(#p430d0385e8)" style="fill: none; stroke: #b0b0b0; stroke-width: 0.8; stroke-linecap: square"/>
     </g>
     <g id="line2d_46">
      <g>
       <use xlink:href="#m2a9973add6" x="208.598668" y="293.76" style="stroke: #000000; stroke-width: 0.6"/>
      </g>
     </g>
    </g>
    <g id="xtick_9">
     <g id="line2d_47">
      <path d="M 218.644224 293.76 
L 218.644224 3.456 
" clip-path="url(#p430d0385e8)" style="fill: none; stroke: #b0b0b0; stroke-width: 0.8; stroke-linecap: square"/>
     </g>
     <g id="line2d_48">
      <g>
       <use xlink:href="#m2a9973add6" x="218.644224" y="293.76" style="stroke: #000000; stroke-width: 0.6"/>
      </g>
     </g>
    </g>
    <g id="xtick_10">
     <g id="line2d_49">
      <path d="M 227.505033 293.76 
L 227.505033 3.456 
" clip-path="url(#p430d0385e8)" style="fill: none; stroke: #b0b0b0; stroke-width: 0.8; stroke-linecap: square"/>
     </g>
     <g id="line2d_50">
      <g>
       <use xlink:href="#m2a9973add6" x="227.505033" y="293.76" style="stroke: #000000; stroke-width: 0.6"/>
      </g>
     </g>
    </g>
    <g id="xtick_11">
     <g id="line2d_51">
      <path d="M 287.576704 293.76 
L 287.576704 3.456 
" clip-path="url(#p430d0385e8)" style="fill: none; stroke: #b0b0b0; stroke-width: 0.8; stroke-linecap: square"/>
     </g>
     <g id="line2d_52">
      <g>
       <use xlink:href="#m2a9973add6" x="287.576704" y="293.76" style="stroke: #000000; stroke-width: 0.6"/>
      </g>
     </g>
    </g>
    <g id="xtick_12">
     <g id="line2d_53">
      <path d="M 318.079812 293.76 
L 318.079812 3.456 
" clip-path="url(#p430d0385e8)" style="fill: none; stroke: #b0b0b0; stroke-width: 0.8; stroke-linecap: square"/>
     </g>
     <g id="line2d_54">
      <g>
       <use xlink:href="#m2a9973add6" x="318.079812" y="293.76" style="stroke: #000000; stroke-width: 0.6"/>
      </g>
     </g>
    </g>
    <g id="xtick_13">
     <g id="line2d_55">
      <path d="M 339.722112 293.76 
L 339.722112 3.456 
" clip-path="url(#p430d0385e8)" style="fill: none; stroke: #b0b0b0; stroke-width: 0.8; stroke-linecap: square"/>
     </g>
     <g id="line2d_56">
      <g>
       <use xlink:href="#m2a9973add6" x="339.722112" y="293.76" style="stroke: #000000; stroke-width: 0.6"/>
      </g>
     </g>
    </g>
    <g id="xtick_14">
     <g id="line2d_57">
      <path d="M 356.509184 293.76 
L 356.509184 3.456 
" clip-path="url(#p430d0385e8)" style="fill: none; stroke: #b0b0b0; stroke-width: 0.8; stroke-linecap: square"/>
     </g>
     <g id="line2d_58">
      <g>
       <use xlink:href="#m2a9973add6" x="356.509184" y="293.76" style="stroke: #000000; stroke-width: 0.6"/>
      </g>
     </g>
    </g>
    <g id="xtick_15">
     <g id="line2d_59">
      <path d="M 370.22522 293.76 
L 370.22522 3.456 
" clip-path="url(#p430d0385e8)" style="fill: none; stroke: #b0b0b0; stroke-width: 0.8; stroke-linecap: square"/>
     </g>
     <g id="line2d_60">
      <g>
       <use xlink:href="#m2a9973add6" x="370.22522" y="293.76" style="stroke: #000000; stroke-width: 0.6"/>
      </g>
     </g>
    </g>
    <g id="xtick_16">
     <g id="line2d_61">
      <path d="M 381.821964 293.76 
L 381.821964 3.456 
" clip-path="url(#p430d0385e8)" style="fill: none; stroke: #b0b0b0; stroke-width: 0.8; stroke-linecap: square"/>
     </g>
     <g id="line2d_62">
      <g>
       <use xlink:href="#m2a9973add6" x="381.821964" y="293.76" style="stroke: #000000; stroke-width: 0.6"/>
      </g>
     </g>
    </g>
    <g id="xtick_17">
     <g id="line2d_63">
      <path d="M 391.86752 293.76 
L 391.86752 3.456 
" clip-path="url(#p430d0385e8)" style="fill: none; stroke: #b0b0b0; stroke-width: 0.8; stroke-linecap: square"/>
     </g>
     <g id="line2d_64">
      <g>
       <use xlink:href="#m2a9973add6" x="391.86752" y="293.76" style="stroke: #000000; stroke-width: 0.6"/>
      </g>
     </g>
    </g>
    <g id="xtick_18">
     <g id="line2d_65">
      <path d="M 400.728329 293.76 
L 400.728329 3.456 
" clip-path="url(#p430d0385e8)" style="fill: none; stroke: #b0b0b0; stroke-width: 0.8; stroke-linecap: square"/>
     </g>
     <g id="line2d_66">
      <g>
       <use xlink:href="#m2a9973add6" x="400.728329" y="293.76" style="stroke: #000000; stroke-width: 0.6"/>
      </g>
     </g>
    </g>
    <g id="xtick_19">
     <g id="line2d_67">
      <path d="M 460.8 293.76 
L 460.8 3.456 
" clip-path="url(#p430d0385e8)" style="fill: none; stroke: #b0b0b0; stroke-width: 0.8; stroke-linecap: square"/>
     </g>
     <g id="line2d_68">
      <g>
       <use xlink:href="#m2a9973add6" x="460.8" y="293.76" style="stroke: #000000; stroke-width: 0.6"/>
      </g>
     </g>
    </g>
    <g id="text_3">
     <!-- log10 of FEvals / DIM -->
     <g transform="translate(156.430563 339.313125) scale(0.2 -0.2)">
      <defs>
       <path id="DejaVuSans-6c" d="M 603 4863 
L 1178 4863 
L 1178 0 
L 603 0 
L 603 4863 
z
" transform="scale(0.015625)"/>
       <path id="DejaVuSans-6f" d="M 1959 3097 
Q 1497 3097 1228 2736 
Q 959 2375 959 1747 
Q 959 1119 1226 758 
Q 1494 397 1959 397 
Q 2419 397 2687 759 
Q 2956 1122 2956 1747 
Q 2956 2369 2687 2733 
Q 2419 3097 1959 3097 
z
M 1959 3584 
Q 2709 3584 3137 3096 
Q 3566 2609 3566 1747 
Q 3566 888 3137 398 
Q 2709 -91 1959 -91 
Q 1206 -91 779 398 
Q 353 888 353 1747 
Q 353 2609 779 3096 
Q 1206 3584 1959 3584 
z
" transform="scale(0.015625)"/>
       <path id="DejaVuSans-67" d="M 2906 1791 
Q 2906 2416 2648 2759 
Q 2391 3103 1925 3103 
Q 1463 3103 1205 2759 
Q 947 2416 947 1791 
Q 947 1169 1205 825 
Q 1463 481 1925 481 
Q 2391 481 2648 825 
Q 2906 1169 2906 1791 
z
M 3481 434 
Q 3481 -459 3084 -895 
Q 2688 -1331 1869 -1331 
Q 1566 -1331 1297 -1286 
Q 1028 -1241 775 -1147 
L 775 -588 
Q 1028 -725 1275 -790 
Q 1522 -856 1778 -856 
Q 2344 -856 2625 -561 
Q 2906 -266 2906 331 
L 2906 616 
Q 2728 306 2450 153 
Q 2172 0 1784 0 
Q 1141 0 747 490 
Q 353 981 353 1791 
Q 353 2603 747 3093 
Q 1141 3584 1784 3584 
Q 2172 3584 2450 3431 
Q 2728 3278 2906 2969 
L 2906 3500 
L 3481 3500 
L 3481 434 
z
" transform="scale(0.015625)"/>
       <path id="DejaVuSans-31" d="M 794 531 
L 1825 531 
L 1825 4091 
L 703 3866 
L 703 4441 
L 1819 4666 
L 2450 4666 
L 2450 531 
L 3481 531 
L 3481 0 
L 794 0 
L 794 531 
z
" transform="scale(0.015625)"/>
       <path id="DejaVuSans-20" transform="scale(0.015625)"/>
       <path id="DejaVuSans-66" d="M 2375 4863 
L 2375 4384 
L 1825 4384 
Q 1516 4384 1395 4259 
Q 1275 4134 1275 3809 
L 1275 3500 
L 2222 3500 
L 2222 3053 
L 1275 3053 
L 1275 0 
L 697 0 
L 697 3053 
L 147 3053 
L 147 3500 
L 697 3500 
L 697 3744 
Q 697 4328 969 4595 
Q 1241 4863 1831 4863 
L 2375 4863 
z
" transform="scale(0.015625)"/>
       <path id="DejaVuSans-46" d="M 628 4666 
L 3309 4666 
L 3309 4134 
L 1259 4134 
L 1259 2759 
L 3109 2759 
L 3109 2228 
L 1259 2228 
L 1259 0 
L 628 0 
L 628 4666 
z
" transform="scale(0.015625)"/>
       <path id="DejaVuSans-45" d="M 628 4666 
L 3578 4666 
L 3578 4134 
L 1259 4134 
L 1259 2753 
L 3481 2753 
L 3481 2222 
L 1259 2222 
L 1259 531 
L 3634 531 
L 3634 0 
L 628 0 
L 628 4666 
z
" transform="scale(0.015625)"/>
       <path id="DejaVuSans-76" d="M 191 3500 
L 800 3500 
L 1894 563 
L 2988 3500 
L 3597 3500 
L 2284 0 
L 1503 0 
L 191 3500 
z
" transform="scale(0.015625)"/>
       <path id="DejaVuSans-61" d="M 2194 1759 
Q 1497 1759 1228 1600 
Q 959 1441 959 1056 
Q 959 750 1161 570 
Q 1363 391 1709 391 
Q 2188 391 2477 730 
Q 2766 1069 2766 1631 
L 2766 1759 
L 2194 1759 
z
M 3341 1997 
L 3341 0 
L 2766 0 
L 2766 531 
Q 2569 213 2275 61 
Q 1981 -91 1556 -91 
Q 1019 -91 701 211 
Q 384 513 384 1019 
Q 384 1609 779 1909 
Q 1175 2209 1959 2209 
L 2766 2209 
L 2766 2266 
Q 2766 2663 2505 2880 
Q 2244 3097 1772 3097 
Q 1472 3097 1187 3025 
Q 903 2953 641 2809 
L 641 3341 
Q 956 3463 1253 3523 
Q 1550 3584 1831 3584 
Q 2591 3584 2966 3190 
Q 3341 2797 3341 1997 
z
" transform="scale(0.015625)"/>
       <path id="DejaVuSans-73" d="M 2834 3397 
L 2834 2853 
Q 2591 2978 2328 3040 
Q 2066 3103 1784 3103 
Q 1356 3103 1142 2972 
Q 928 2841 928 2578 
Q 928 2378 1081 2264 
Q 1234 2150 1697 2047 
L 1894 2003 
Q 2506 1872 2764 1633 
Q 3022 1394 3022 966 
Q 3022 478 2636 193 
Q 2250 -91 1575 -91 
Q 1294 -91 989 -36 
Q 684 19 347 128 
L 347 722 
Q 666 556 975 473 
Q 1284 391 1588 391 
Q 1994 391 2212 530 
Q 2431 669 2431 922 
Q 2431 1156 2273 1281 
Q 2116 1406 1581 1522 
L 1381 1569 
Q 847 1681 609 1914 
Q 372 2147 372 2553 
Q 372 3047 722 3315 
Q 1072 3584 1716 3584 
Q 2034 3584 2315 3537 
Q 2597 3491 2834 3397 
z
" transform="scale(0.015625)"/>
       <path id="DejaVuSans-2f" d="M 1625 4666 
L 2156 4666 
L 531 -594 
L 0 -594 
L 1625 4666 
z
" transform="scale(0.015625)"/>
       <path id="DejaVuSans-44" d="M 1259 4147 
L 1259 519 
L 2022 519 
Q 2988 519 3436 956 
Q 3884 1394 3884 2338 
Q 3884 3275 3436 3711 
Q 2988 4147 2022 4147 
L 1259 4147 
z
M 628 4666 
L 1925 4666 
Q 3281 4666 3915 4102 
Q 4550 3538 4550 2338 
Q 4550 1131 3912 565 
Q 3275 0 1925 0 
L 628 0 
L 628 4666 
z
" transform="scale(0.015625)"/>
       <path id="DejaVuSans-49" d="M 628 4666 
L 1259 4666 
L 1259 0 
L 628 0 
L 628 4666 
z
" transform="scale(0.015625)"/>
       <path id="DejaVuSans-4d" d="M 628 4666 
L 1569 4666 
L 2759 1491 
L 3956 4666 
L 4897 4666 
L 4897 0 
L 4281 0 
L 4281 4097 
L 3078 897 
L 2444 897 
L 1241 4097 
L 1241 0 
L 628 0 
L 628 4666 
z
" transform="scale(0.015625)"/>
      </defs>
      <use xlink:href="#DejaVuSans-6c"/>
      <use xlink:href="#DejaVuSans-6f" x="27.783203"/>
      <use xlink:href="#DejaVuSans-67" x="88.964844"/>
      <use xlink:href="#DejaVuSans-31" x="152.441406"/>
      <use xlink:href="#DejaVuSans-30" x="216.064453"/>
      <use xlink:href="#DejaVuSans-20" x="279.6875"/>
      <use xlink:href="#DejaVuSans-6f" x="311.474609"/>
      <use xlink:href="#DejaVuSans-66" x="372.65625"/>
      <use xlink:href="#DejaVuSans-20" x="407.861328"/>
      <use xlink:href="#DejaVuSans-46" x="439.648438"/>
      <use xlink:href="#DejaVuSans-45" x="497.167969"/>
      <use xlink:href="#DejaVuSans-76" x="560.351562"/>
      <use xlink:href="#DejaVuSans-61" x="619.53125"/>
      <use xlink:href="#DejaVuSans-6c" x="680.810547"/>
      <use xlink:href="#DejaVuSans-73" x="708.59375"/>
      <use xlink:href="#DejaVuSans-20" x="760.693359"/>
      <use xlink:href="#DejaVuSans-2f" x="792.480469"/>
      <use xlink:href="#DejaVuSans-20" x="826.171875"/>
      <use xlink:href="#DejaVuSans-44" x="857.958984"/>
      <use xlink:href="#DejaVuSans-49" x="934.960938"/>
      <use xlink:href="#DejaVuSans-4d" x="964.453125"/>
     </g>
    </g>
   </g>
   <g id="matplotlib.axis_2">
    <g id="ytick_1">
     <g id="line2d_69">
      <path d="M 62.208 293.76 
L 460.8 293.76 
" clip-path="url(#p430d0385e8)" style="fill: none; stroke: #b0b0b0; stroke-width: 0.8; stroke-linecap: square"/>
     </g>
     <g id="line2d_70">
      <defs>
       <path id="me3b6e271e2" d="M 0 0 
L -3.5 0 
" style="stroke: #000000; stroke-width: 0.8"/>
      </defs>
      <g>
       <use xlink:href="#me3b6e271e2" x="62.208" y="293.76" style="stroke: #000000; stroke-width: 0.8"/>
      </g>
     </g>
     <g id="text_4">
      <!-- 0.0 -->
      <g transform="translate(29.763 299.83875) scale(0.16 -0.16)">
       <defs>
        <path id="DejaVuSans-2e" d="M 684 794 
L 1344 794 
L 1344 0 
L 684 0 
L 684 794 
z
" transform="scale(0.015625)"/>
       </defs>
       <use xlink:href="#DejaVuSans-30"/>
       <use xlink:href="#DejaVuSans-2e" x="63.623047"/>
       <use xlink:href="#DejaVuSans-30" x="95.410156"/>
      </g>
     </g>
    </g>
    <g id="ytick_2">
     <g id="line2d_71">
      <path d="M 62.208 236.274059 
L 460.8 236.274059 
" clip-path="url(#p430d0385e8)" style="fill: none; stroke: #b0b0b0; stroke-width: 0.8; stroke-linecap: square"/>
     </g>
     <g id="line2d_72">
      <g>
       <use xlink:href="#me3b6e271e2" x="62.208" y="236.274059" style="stroke: #000000; stroke-width: 0.8"/>
      </g>
     </g>
     <g id="text_5">
      <!-- 0.2 -->
      <g transform="translate(29.763 242.352809) scale(0.16 -0.16)">
       <use xlink:href="#DejaVuSans-30"/>
       <use xlink:href="#DejaVuSans-2e" x="63.623047"/>
       <use xlink:href="#DejaVuSans-32" x="95.410156"/>
      </g>
     </g>
    </g>
    <g id="ytick_3">
     <g id="line2d_73">
      <path d="M 62.208 178.788119 
L 460.8 178.788119 
" clip-path="url(#p430d0385e8)" style="fill: none; stroke: #b0b0b0; stroke-width: 0.8; stroke-linecap: square"/>
     </g>
     <g id="line2d_74">
      <g>
       <use xlink:href="#me3b6e271e2" x="62.208" y="178.788119" style="stroke: #000000; stroke-width: 0.8"/>
      </g>
     </g>
     <g id="text_6">
      <!-- 0.4 -->
      <g transform="translate(29.763 184.866869) scale(0.16 -0.16)">
       <defs>
        <path id="DejaVuSans-34" d="M 2419 4116 
L 825 1625 
L 2419 1625 
L 2419 4116 
z
M 2253 4666 
L 3047 4666 
L 3047 1625 
L 3713 1625 
L 3713 1100 
L 3047 1100 
L 3047 0 
L 2419 0 
L 2419 1100 
L 313 1100 
L 313 1709 
L 2253 4666 
z
" transform="scale(0.015625)"/>
       </defs>
       <use xlink:href="#DejaVuSans-30"/>
       <use xlink:href="#DejaVuSans-2e" x="63.623047"/>
       <use xlink:href="#DejaVuSans-34" x="95.410156"/>
      </g>
     </g>
    </g>
    <g id="ytick_4">
     <g id="line2d_75">
      <path d="M 62.208 121.302178 
L 460.8 121.302178 
" clip-path="url(#p430d0385e8)" style="fill: none; stroke: #b0b0b0; stroke-width: 0.8; stroke-linecap: square"/>
     </g>
     <g id="line2d_76">
      <g>
       <use xlink:href="#me3b6e271e2" x="62.208" y="121.302178" style="stroke: #000000; stroke-width: 0.8"/>
      </g>
     </g>
     <g id="text_7">
      <!-- 0.6 -->
      <g transform="translate(29.763 127.380928) scale(0.16 -0.16)">
       <defs>
        <path id="DejaVuSans-36" d="M 2113 2584 
Q 1688 2584 1439 2293 
Q 1191 2003 1191 1497 
Q 1191 994 1439 701 
Q 1688 409 2113 409 
Q 2538 409 2786 701 
Q 3034 994 3034 1497 
Q 3034 2003 2786 2293 
Q 2538 2584 2113 2584 
z
M 3366 4563 
L 3366 3988 
Q 3128 4100 2886 4159 
Q 2644 4219 2406 4219 
Q 1781 4219 1451 3797 
Q 1122 3375 1075 2522 
Q 1259 2794 1537 2939 
Q 1816 3084 2150 3084 
Q 2853 3084 3261 2657 
Q 3669 2231 3669 1497 
Q 3669 778 3244 343 
Q 2819 -91 2113 -91 
Q 1303 -91 875 529 
Q 447 1150 447 2328 
Q 447 3434 972 4092 
Q 1497 4750 2381 4750 
Q 2619 4750 2861 4703 
Q 3103 4656 3366 4563 
z
" transform="scale(0.015625)"/>
       </defs>
       <use xlink:href="#DejaVuSans-30"/>
       <use xlink:href="#DejaVuSans-2e" x="63.623047"/>
       <use xlink:href="#DejaVuSans-36" x="95.410156"/>
      </g>
     </g>
    </g>
    <g id="ytick_5">
     <g id="line2d_77">
      <path d="M 62.208 63.816238 
L 460.8 63.816238 
" clip-path="url(#p430d0385e8)" style="fill: none; stroke: #b0b0b0; stroke-width: 0.8; stroke-linecap: square"/>
     </g>
     <g id="line2d_78">
      <g>
       <use xlink:href="#me3b6e271e2" x="62.208" y="63.816238" style="stroke: #000000; stroke-width: 0.8"/>
      </g>
     </g>
     <g id="text_8">
      <!-- 0.8 -->
      <g transform="translate(29.763 69.894988) scale(0.16 -0.16)">
       <defs>
        <path id="DejaVuSans-38" d="M 2034 2216 
Q 1584 2216 1326 1975 
Q 1069 1734 1069 1313 
Q 1069 891 1326 650 
Q 1584 409 2034 409 
Q 2484 409 2743 651 
Q 3003 894 3003 1313 
Q 3003 1734 2745 1975 
Q 2488 2216 2034 2216 
z
M 1403 2484 
Q 997 2584 770 2862 
Q 544 3141 544 3541 
Q 544 4100 942 4425 
Q 1341 4750 2034 4750 
Q 2731 4750 3128 4425 
Q 3525 4100 3525 3541 
Q 3525 3141 3298 2862 
Q 3072 2584 2669 2484 
Q 3125 2378 3379 2068 
Q 3634 1759 3634 1313 
Q 3634 634 3220 271 
Q 2806 -91 2034 -91 
Q 1263 -91 848 271 
Q 434 634 434 1313 
Q 434 1759 690 2068 
Q 947 2378 1403 2484 
z
M 1172 3481 
Q 1172 3119 1398 2916 
Q 1625 2713 2034 2713 
Q 2441 2713 2670 2916 
Q 2900 3119 2900 3481 
Q 2900 3844 2670 4047 
Q 2441 4250 2034 4250 
Q 1625 4250 1398 4047 
Q 1172 3844 1172 3481 
z
" transform="scale(0.015625)"/>
       </defs>
       <use xlink:href="#DejaVuSans-30"/>
       <use xlink:href="#DejaVuSans-2e" x="63.623047"/>
       <use xlink:href="#DejaVuSans-38" x="95.410156"/>
      </g>
     </g>
    </g>
    <g id="ytick_6">
     <g id="line2d_79">
      <path d="M 62.208 6.330297 
L 460.8 6.330297 
" clip-path="url(#p430d0385e8)" style="fill: none; stroke: #b0b0b0; stroke-width: 0.8; stroke-linecap: square"/>
     </g>
     <g id="line2d_80">
      <g>
       <use xlink:href="#me3b6e271e2" x="62.208" y="6.330297" style="stroke: #000000; stroke-width: 0.8"/>
      </g>
     </g>
     <g id="text_9">
      <!-- 1.0 -->
      <g transform="translate(29.763 12.409047) scale(0.16 -0.16)">
       <use xlink:href="#DejaVuSans-31"/>
       <use xlink:href="#DejaVuSans-2e" x="63.623047"/>
       <use xlink:href="#DejaVuSans-30" x="95.410156"/>
      </g>
     </g>
    </g>
    <g id="text_10">
     <!-- proportion of trials -->
     <g transform="translate(21.603625 241.61425) rotate(-90) scale(0.2 -0.2)">
      <defs>
       <path id="DejaVuSans-70" d="M 1159 525 
L 1159 -1331 
L 581 -1331 
L 581 3500 
L 1159 3500 
L 1159 2969 
Q 1341 3281 1617 3432 
Q 1894 3584 2278 3584 
Q 2916 3584 3314 3078 
Q 3713 2572 3713 1747 
Q 3713 922 3314 415 
Q 2916 -91 2278 -91 
Q 1894 -91 1617 61 
Q 1341 213 1159 525 
z
M 3116 1747 
Q 3116 2381 2855 2742 
Q 2594 3103 2138 3103 
Q 1681 3103 1420 2742 
Q 1159 2381 1159 1747 
Q 1159 1113 1420 752 
Q 1681 391 2138 391 
Q 2594 391 2855 752 
Q 3116 1113 3116 1747 
z
" transform="scale(0.015625)"/>
       <path id="DejaVuSans-72" d="M 2631 2963 
Q 2534 3019 2420 3045 
Q 2306 3072 2169 3072 
Q 1681 3072 1420 2755 
Q 1159 2438 1159 1844 
L 1159 0 
L 581 0 
L 581 3500 
L 1159 3500 
L 1159 2956 
Q 1341 3275 1631 3429 
Q 1922 3584 2338 3584 
Q 2397 3584 2469 3576 
Q 2541 3569 2628 3553 
L 2631 2963 
z
" transform="scale(0.015625)"/>
       <path id="DejaVuSans-74" d="M 1172 4494 
L 1172 3500 
L 2356 3500 
L 2356 3053 
L 1172 3053 
L 1172 1153 
Q 1172 725 1289 603 
Q 1406 481 1766 481 
L 2356 481 
L 2356 0 
L 1766 0 
Q 1100 0 847 248 
Q 594 497 594 1153 
L 594 3053 
L 172 3053 
L 172 3500 
L 594 3500 
L 594 4494 
L 1172 4494 
z
" transform="scale(0.015625)"/>
       <path id="DejaVuSans-69" d="M 603 3500 
L 1178 3500 
L 1178 0 
L 603 0 
L 603 3500 
z
M 603 4863 
L 1178 4863 
L 1178 4134 
L 603 4134 
L 603 4863 
z
" transform="scale(0.015625)"/>
       <path id="DejaVuSans-6e" d="M 3513 2113 
L 3513 0 
L 2938 0 
L 2938 2094 
Q 2938 2591 2744 2837 
Q 2550 3084 2163 3084 
Q 1697 3084 1428 2787 
Q 1159 2491 1159 1978 
L 1159 0 
L 581 0 
L 581 3500 
L 1159 3500 
L 1159 2956 
Q 1366 3272 1645 3428 
Q 1925 3584 2291 3584 
Q 2894 3584 3203 3211 
Q 3513 2838 3513 2113 
z
" transform="scale(0.015625)"/>
      </defs>
      <use xlink:href="#DejaVuSans-70"/>
      <use xlink:href="#DejaVuSans-72" x="63.476562"/>
      <use xlink:href="#DejaVuSans-6f" x="102.339844"/>
      <use xlink:href="#DejaVuSans-70" x="163.521484"/>
      <use xlink:href="#DejaVuSans-6f" x="226.998047"/>
      <use xlink:href="#DejaVuSans-72" x="288.179688"/>
      <use xlink:href="#DejaVuSans-74" x="329.292969"/>
      <use xlink:href="#DejaVuSans-69" x="368.501953"/>
      <use xlink:href="#DejaVuSans-6f" x="396.285156"/>
      <use xlink:href="#DejaVuSans-6e" x="457.466797"/>
      <use xlink:href="#DejaVuSans-20" x="520.845703"/>
      <use xlink:href="#DejaVuSans-6f" x="552.632812"/>
      <use xlink:href="#DejaVuSans-66" x="613.814453"/>
      <use xlink:href="#DejaVuSans-20" x="649.019531"/>
      <use xlink:href="#DejaVuSans-74" x="680.806641"/>
      <use xlink:href="#DejaVuSans-72" x="720.015625"/>
      <use xlink:href="#DejaVuSans-69" x="761.128906"/>
      <use xlink:href="#DejaVuSans-61" x="788.912109"/>
      <use xlink:href="#DejaVuSans-6c" x="850.191406"/>
      <use xlink:href="#DejaVuSans-73" x="877.974609"/>
     </g>
    </g>
   </g>
   <g id="line2d_81">
    <path d="M -1 289.927604 
L 249.147332 289.927604 
L 249.147332 286.095208 
L 256.31751 286.095208 
L 256.31751 282.262812 
L 261.811185 282.262812 
L 261.811185 278.430416 
L 262.863369 278.430416 
L 262.863369 274.59802 
L 264.924592 274.59802 
L 264.924592 270.765624 
L 264.924592 270.765624 
L 264.924592 266.933228 
L 264.924592 266.933228 
L 264.924592 263.100832 
L 265.934404 263.100832 
L 265.934404 259.268436 
L 265.934404 259.268436 
L 265.934404 255.43604 
L 266.930842 255.43604 
L 266.930842 251.603644 
L 267.914253 251.603644 
L 267.914253 247.771248 
L 274.460112 247.771248 
L 274.460112 243.938851 
L 277.95981 243.938851 
L 277.95981 240.106455 
L 277.95981 240.106455 
L 277.95981 236.274059 
L 277.95981 236.274059 
L 277.95981 232.441663 
L 288.325267 232.441663 
L 288.325267 228.609267 
L 334.666003 228.609267 
L 334.666003 224.776871 
L 341.579735 224.776871 
L 341.579735 220.944475 
L 341.579735 220.944475 
L 341.579735 217.112079 
L 419.949812 217.112079 
L 419.949812 213.279683 
L 441.430083 213.279683 
L 441.430083 209.447287 
L 457.257302 209.447287 
L 457.257302 205.614891 
L 460.724732 205.614891 
L 460.724732 201.782495 
L 460.724732 201.782495 
L 460.724732 201.782495 
L 460.8 201.782495 
" clip-path="url(#p430d0385e8)" style="fill: none; stroke: #000000; stroke-width: 1.5; stroke-linecap: square"/>
   </g>
   <g id="line2d_82">
    <path clip-path="url(#p430d0385e8)" style="fill: none; stroke: #000000; stroke-width: 1.5; stroke-linecap: square"/>
   </g>
   <g id="line2d_83">
    <path d="M 287.576704 293.76 
L 287.576704 289.927604 
L 288.325267 289.927604 
L 288.325267 286.095208 
L 288.325267 286.095208 
L 288.325267 282.262812 
L 291.247184 282.262812 
L 291.247184 278.430416 
L 292.666659 278.430416 
L 292.666659 274.59802 
L 337.430668 274.59802 
L 337.430668 270.765624 
L 382.889073 270.765624 
L 382.889073 266.933228 
L 382.889073 266.933228 
L 382.889073 263.100832 
L 413.603799 263.100832 
L 413.603799 259.268436 
L 421.741086 259.268436 
L 421.741086 255.43604 
L 430.672104 255.43604 
L 430.672104 251.603644 
L 442.588975 251.603644 
L 442.588975 247.771248 
L 448.485156 247.771248 
L 448.485156 243.938851 
L 452.706373 243.938851 
L 452.706373 240.106455 
L 453.124086 240.106455 
L 453.124086 236.274059 
L 456.145118 236.274059 
L 456.145118 232.441663 
L 458.818145 232.441663 
L 458.818145 228.609267 
L 460.422907 228.609267 
L 460.422907 224.776871 
L 460.649389 224.776871 
L 460.649389 220.944475 
L 460.649389 220.944475 
L 460.649389 220.944475 
L 460.8 220.944475 
" clip-path="url(#p430d0385e8)" style="fill: none; stroke: #00bfbf; stroke-width: 1.5; stroke-linecap: square"/>
   </g>
   <g id="line2d_84">
    <path clip-path="url(#p430d0385e8)" style="fill: none; stroke: #00bfbf; stroke-width: 1.5; stroke-linecap: square"/>
   </g>
   <g id="line2d_85">
    <path d="M 287.576704 293.76 
L 287.576704 289.927604 
L 288.325267 289.927604 
L 288.325267 286.095208 
L 288.325267 286.095208 
L 288.325267 282.262812 
L 291.247184 282.262812 
L 291.247184 278.430416 
L 292.666659 278.430416 
L 292.666659 274.59802 
L 337.430668 274.59802 
L 337.430668 270.765624 
L 382.889073 270.765624 
L 382.889073 266.933228 
L 382.889073 266.933228 
L 382.889073 263.100832 
L 451.609338 263.100832 
L 451.609338 259.268436 
L 455.340512 259.268436 
L 455.340512 255.43604 
L 458.197688 255.43604 
L 458.197688 251.603644 
L 458.353283 251.603644 
L 458.353283 247.771248 
L 458.353283 247.771248 
L 458.353283 247.771248 
L 460.8 247.771248 
" clip-path="url(#p430d0385e8)" style="fill: none; stroke: #bf00bf; stroke-width: 1.5; stroke-linecap: square"/>
   </g>
   <g id="line2d_86">
    <path clip-path="url(#p430d0385e8)" style="fill: none; stroke: #bf00bf; stroke-width: 1.5; stroke-linecap: square"/>
   </g>
   <g id="line2d_87">
    <path d="M 287.576704 293.76 
L 287.576704 289.927604 
L 288.325267 289.927604 
L 288.325267 286.095208 
L 288.325267 286.095208 
L 288.325267 282.262812 
L 291.247184 282.262812 
L 291.247184 278.430416 
L 292.666659 278.430416 
L 292.666659 274.59802 
L 337.430668 274.59802 
L 337.430668 270.765624 
L 382.889073 270.765624 
L 382.889073 266.933228 
L 382.889073 266.933228 
L 382.889073 263.100832 
L 458.66351 263.100832 
L 458.66351 259.268436 
L 458.66351 259.268436 
L 458.66351 259.268436 
L 460.8 259.268436 
" clip-path="url(#p430d0385e8)" style="fill: none; stroke: #ff0000; stroke-width: 3; stroke-linecap: square"/>
   </g>
   <g id="line2d_88">
    <path clip-path="url(#p430d0385e8)" style="fill: none; stroke: #ff0000; stroke-width: 3; stroke-linecap: square"/>
   </g>
   <g id="line2d_89">
    <path d="M 460.8 293.76 
L 460.8 3.456 
" clip-path="url(#p430d0385e8)" style="fill: none; stroke: #000000; stroke-width: 1.5; stroke-linecap: square"/>
   </g>
   <g id="patch_3">
    <path d="M 62.208 293.76 
L 62.208 3.456 
" style="fill: none; stroke: #000000; stroke-width: 0.8; stroke-linejoin: miter; stroke-linecap: square"/>
   </g>
   <g id="patch_4">
    <path d="M 460.8 293.76 
L 460.8 3.456 
" style="fill: none; stroke: #000000; stroke-width: 0.8; stroke-linejoin: miter; stroke-linecap: square"/>
   </g>
   <g id="patch_5">
    <path d="M 62.208 293.76 
L 460.8 293.76 
" style="fill: none; stroke: #000000; stroke-width: 0.8; stroke-linejoin: miter; stroke-linecap: square"/>
   </g>
   <g id="patch_6">
    <path d="M 62.208 3.456 
L 460.8 3.456 
" style="fill: none; stroke: #000000; stroke-width: 0.8; stroke-linejoin: miter; stroke-linecap: square"/>
   </g>
   <g id="text_11">
    <!-- {f1-f5}, 5-D -->
    <g transform="translate(201.379 24.458955) scale(0.2 -0.2)">
     <defs>
      <path id="DejaVuSans-7b" d="M 3272 -594 
L 3272 -1044 
L 3078 -1044 
Q 2300 -1044 2036 -812 
Q 1772 -581 1772 109 
L 1772 856 
Q 1772 1328 1603 1509 
Q 1434 1691 991 1691 
L 800 1691 
L 800 2138 
L 991 2138 
Q 1438 2138 1605 2317 
Q 1772 2497 1772 2963 
L 1772 3713 
Q 1772 4403 2036 4633 
Q 2300 4863 3078 4863 
L 3272 4863 
L 3272 4416 
L 3059 4416 
Q 2619 4416 2484 4278 
Q 2350 4141 2350 3700 
L 2350 2925 
Q 2350 2434 2208 2212 
Q 2066 1991 1722 1913 
Q 2069 1828 2209 1606 
Q 2350 1384 2350 897 
L 2350 122 
Q 2350 -319 2484 -456 
Q 2619 -594 3059 -594 
L 3272 -594 
z
" transform="scale(0.015625)"/>
      <path id="DejaVuSans-2d" d="M 313 2009 
L 1997 2009 
L 1997 1497 
L 313 1497 
L 313 2009 
z
" transform="scale(0.015625)"/>
      <path id="DejaVuSans-35" d="M 691 4666 
L 3169 4666 
L 3169 4134 
L 1269 4134 
L 1269 2991 
Q 1406 3038 1543 3061 
Q 1681 3084 1819 3084 
Q 2600 3084 3056 2656 
Q 3513 2228 3513 1497 
Q 3513 744 3044 326 
Q 2575 -91 1722 -91 
Q 1428 -91 1123 -41 
Q 819 9 494 109 
L 494 744 
Q 775 591 1075 516 
Q 1375 441 1709 441 
Q 2250 441 2565 725 
Q 2881 1009 2881 1497 
Q 2881 1984 2565 2268 
Q 2250 2553 1709 2553 
Q 1456 2553 1204 2497 
Q 953 2441 691 2322 
L 691 4666 
z
" transform="scale(0.015625)"/>
      <path id="DejaVuSans-7d" d="M 800 -594 
L 1019 -594 
Q 1456 -594 1589 -459 
Q 1722 -325 1722 122 
L 1722 897 
Q 1722 1384 1862 1606 
Q 2003 1828 2350 1913 
Q 2003 1991 1862 2212 
Q 1722 2434 1722 2925 
L 1722 3700 
Q 1722 4144 1589 4280 
Q 1456 4416 1019 4416 
L 800 4416 
L 800 4863 
L 997 4863 
Q 1775 4863 2036 4633 
Q 2297 4403 2297 3713 
L 2297 2963 
Q 2297 2497 2465 2317 
Q 2634 2138 3078 2138 
L 3272 2138 
L 3272 1691 
L 3078 1691 
Q 2634 1691 2465 1509 
Q 2297 1328 2297 856 
L 2297 109 
Q 2297 -581 2036 -812 
Q 1775 -1044 997 -1044 
L 800 -1044 
L 800 -594 
z
" transform="scale(0.015625)"/>
      <path id="DejaVuSans-2c" d="M 750 794 
L 1409 794 
L 1409 256 
L 897 -744 
L 494 -744 
L 750 256 
L 750 794 
z
" transform="scale(0.015625)"/>
     </defs>
     <use xlink:href="#DejaVuSans-7b"/>
     <use xlink:href="#DejaVuSans-66" x="63.623047"/>
     <use xlink:href="#DejaVuSans-31" x="98.828125"/>
     <use xlink:href="#DejaVuSans-2d" x="162.451172"/>
     <use xlink:href="#DejaVuSans-66" x="198.535156"/>
     <use xlink:href="#DejaVuSans-35" x="233.740234"/>
     <use xlink:href="#DejaVuSans-7d" x="297.363281"/>
     <use xlink:href="#DejaVuSans-2c" x="360.986328"/>
     <use xlink:href="#DejaVuSans-20" x="392.773438"/>
     <use xlink:href="#DejaVuSans-35" x="424.560547"/>
     <use xlink:href="#DejaVuSans-2d" x="488.183594"/>
     <use xlink:href="#DejaVuSans-44" x="524.267578"/>
    </g>
   </g>
   <g id="text_12">
    <!-- absolute targets -->
    <g transform="translate(62.208 609.932673) scale(0.14 -0.14)">
     <defs>
      <path id="DejaVuSans-62" d="M 3116 1747 
Q 3116 2381 2855 2742 
Q 2594 3103 2138 3103 
Q 1681 3103 1420 2742 
Q 1159 2381 1159 1747 
Q 1159 1113 1420 752 
Q 1681 391 2138 391 
Q 2594 391 2855 752 
Q 3116 1113 3116 1747 
z
M 1159 2969 
Q 1341 3281 1617 3432 
Q 1894 3584 2278 3584 
Q 2916 3584 3314 3078 
Q 3713 2572 3713 1747 
Q 3713 922 3314 415 
Q 2916 -91 2278 -91 
Q 1894 -91 1617 61 
Q 1341 213 1159 525 
L 1159 0 
L 581 0 
L 581 4863 
L 1159 4863 
L 1159 2969 
z
" transform="scale(0.015625)"/>
      <path id="DejaVuSans-75" d="M 544 1381 
L 544 3500 
L 1119 3500 
L 1119 1403 
Q 1119 906 1312 657 
Q 1506 409 1894 409 
Q 2359 409 2629 706 
Q 2900 1003 2900 1516 
L 2900 3500 
L 3475 3500 
L 3475 0 
L 2900 0 
L 2900 538 
Q 2691 219 2414 64 
Q 2138 -91 1772 -91 
Q 1169 -91 856 284 
Q 544 659 544 1381 
z
M 1991 3584 
L 1991 3584 
z
" transform="scale(0.015625)"/>
      <path id="DejaVuSans-65" d="M 3597 1894 
L 3597 1613 
L 953 1613 
Q 991 1019 1311 708 
Q 1631 397 2203 397 
Q 2534 397 2845 478 
Q 3156 559 3463 722 
L 3463 178 
Q 3153 47 2828 -22 
Q 2503 -91 2169 -91 
Q 1331 -91 842 396 
Q 353 884 353 1716 
Q 353 2575 817 3079 
Q 1281 3584 2069 3584 
Q 2775 3584 3186 3129 
Q 3597 2675 3597 1894 
z
M 3022 2063 
Q 3016 2534 2758 2815 
Q 2500 3097 2075 3097 
Q 1594 3097 1305 2825 
Q 1016 2553 972 2059 
L 3022 2063 
z
" transform="scale(0.015625)"/>
     </defs>
     <use xlink:href="#DejaVuSans-61"/>
     <use xlink:href="#DejaVuSans-62" x="61.279297"/>
     <use xlink:href="#DejaVuSans-73" x="124.755859"/>
     <use xlink:href="#DejaVuSans-6f" x="176.855469"/>
     <use xlink:href="#DejaVuSans-6c" x="238.037109"/>
     <use xlink:href="#DejaVuSans-75" x="265.820312"/>
     <use xlink:href="#DejaVuSans-74" x="329.199219"/>
     <use xlink:href="#DejaVuSans-65" x="368.408203"/>
     <use xlink:href="#DejaVuSans-20" x="429.931641"/>
     <use xlink:href="#DejaVuSans-74" x="461.71875"/>
     <use xlink:href="#DejaVuSans-61" x="500.927734"/>
     <use xlink:href="#DejaVuSans-72" x="562.207031"/>
     <use xlink:href="#DejaVuSans-67" x="601.570312"/>
     <use xlink:href="#DejaVuSans-65" x="665.046875"/>
     <use xlink:href="#DejaVuSans-74" x="726.570312"/>
     <use xlink:href="#DejaVuSans-73" x="765.779297"/>
    </g>
   </g>
   <g id="text_13">
    <!-- v2.6.3 -->
    <g style="fill: #808080" transform="translate(245.82275 288.777272) scale(0.1 -0.1)">
     <defs>
      <path id="DejaVuSans-33" d="M 2597 2516 
Q 3050 2419 3304 2112 
Q 3559 1806 3559 1356 
Q 3559 666 3084 287 
Q 2609 -91 1734 -91 
Q 1441 -91 1130 -33 
Q 819 25 488 141 
L 488 750 
Q 750 597 1062 519 
Q 1375 441 1716 441 
Q 2309 441 2620 675 
Q 2931 909 2931 1356 
Q 2931 1769 2642 2001 
Q 2353 2234 1838 2234 
L 1294 2234 
L 1294 2753 
L 1863 2753 
Q 2328 2753 2575 2939 
Q 2822 3125 2822 3475 
Q 2822 3834 2567 4026 
Q 2313 4219 1838 4219 
Q 1578 4219 1281 4162 
Q 984 4106 628 3988 
L 628 4550 
Q 988 4650 1302 4700 
Q 1616 4750 1894 4750 
Q 2613 4750 3031 4423 
Q 3450 4097 3450 3541 
Q 3450 3153 3228 2886 
Q 3006 2619 2597 2516 
z
" transform="scale(0.015625)"/>
     </defs>
     <use xlink:href="#DejaVuSans-76"/>
     <use xlink:href="#DejaVuSans-32" x="59.179688"/>
     <use xlink:href="#DejaVuSans-2e" x="122.802734"/>
     <use xlink:href="#DejaVuSans-36" x="154.589844"/>
     <use xlink:href="#DejaVuSans-2e" x="218.212891"/>
     <use xlink:href="#DejaVuSans-33" x="250"/>
    </g>
   </g>
   <g id="legend_1">
    <g id="patch_7">
     <path d="M 76.208 136.881 
L 205.429875 136.881 
Q 209.429875 136.881 209.429875 132.881 
L 209.429875 17.456 
Q 209.429875 13.456 205.429875 13.456 
L 76.208 13.456 
Q 72.208 13.456 72.208 17.456 
L 72.208 132.881 
Q 72.208 136.881 76.208 136.881 
z
" style="fill: #ffffff; opacity: 0.2; stroke: #cccccc; stroke-linejoin: miter"/>
    </g>
    <g id="line2d_90">
     <path d="M 80.208 29.652875 
L 80.208 29.652875 
L 100.208 29.652875 
L 100.208 29.652875 
L 120.208 29.652875 
" style="fill: none; stroke: #000000; stroke-width: 1.5; stroke-linecap: square"/>
    </g>
    <g id="text_14">
     <!-- 1: 2/5 -->
     <g transform="translate(136.208 36.652875) scale(0.2 -0.2)">
      <defs>
       <path id="DejaVuSans-3a" d="M 750 794 
L 1409 794 
L 1409 0 
L 750 0 
L 750 794 
z
M 750 3309 
L 1409 3309 
L 1409 2516 
L 750 2516 
L 750 3309 
z
" transform="scale(0.015625)"/>
      </defs>
      <use xlink:href="#DejaVuSans-31"/>
      <use xlink:href="#DejaVuSans-3a" x="63.623047"/>
      <use xlink:href="#DejaVuSans-20" x="97.314453"/>
      <use xlink:href="#DejaVuSans-32" x="129.101562"/>
      <use xlink:href="#DejaVuSans-2f" x="192.724609"/>
      <use xlink:href="#DejaVuSans-35" x="226.416016"/>
     </g>
    </g>
    <g id="line2d_91">
     <path d="M 80.208 59.009125 
L 80.208 59.009125 
L 100.208 59.009125 
L 100.208 59.009125 
L 120.208 59.009125 
" style="fill: none; stroke: #00bfbf; stroke-width: 1.5; stroke-linecap: square"/>
    </g>
    <g id="text_15">
     <!-- -1: 2/5 -->
     <g transform="translate(136.208 66.009125) scale(0.2 -0.2)">
      <use xlink:href="#DejaVuSans-2d"/>
      <use xlink:href="#DejaVuSans-31" x="36.083984"/>
      <use xlink:href="#DejaVuSans-3a" x="99.707031"/>
      <use xlink:href="#DejaVuSans-20" x="133.398438"/>
      <use xlink:href="#DejaVuSans-32" x="165.185547"/>
      <use xlink:href="#DejaVuSans-2f" x="228.808594"/>
      <use xlink:href="#DejaVuSans-35" x="262.5"/>
     </g>
    </g>
    <g id="line2d_92">
     <path d="M 80.208 88.365375 
L 80.208 88.365375 
L 100.208 88.365375 
L 100.208 88.365375 
L 120.208 88.365375 
" style="fill: none; stroke: #bf00bf; stroke-width: 1.5; stroke-linecap: square"/>
    </g>
    <g id="text_16">
     <!-- -4: 2/5 -->
     <g transform="translate(136.208 95.365375) scale(0.2 -0.2)">
      <use xlink:href="#DejaVuSans-2d"/>
      <use xlink:href="#DejaVuSans-34" x="36.083984"/>
      <use xlink:href="#DejaVuSans-3a" x="99.707031"/>
      <use xlink:href="#DejaVuSans-20" x="133.398438"/>
      <use xlink:href="#DejaVuSans-32" x="165.185547"/>
      <use xlink:href="#DejaVuSans-2f" x="228.808594"/>
      <use xlink:href="#DejaVuSans-35" x="262.5"/>
     </g>
    </g>
    <g id="line2d_93">
     <path d="M 80.208 117.721625 
L 80.208 117.721625 
L 100.208 117.721625 
L 100.208 117.721625 
L 120.208 117.721625 
" style="fill: none; stroke: #ff0000; stroke-width: 3; stroke-linecap: square"/>
    </g>
    <g id="text_17">
     <!-- -8: 2/5 -->
     <g transform="translate(136.208 124.721625) scale(0.2 -0.2)">
      <use xlink:href="#DejaVuSans-2d"/>
      <use xlink:href="#DejaVuSans-38" x="36.083984"/>
      <use xlink:href="#DejaVuSans-3a" x="99.707031"/>
      <use xlink:href="#DejaVuSans-20" x="133.398438"/>
      <use xlink:href="#DejaVuSans-32" x="165.185547"/>
      <use xlink:href="#DejaVuSans-2f" x="228.808594"/>
      <use xlink:href="#DejaVuSans-35" x="262.5"/>
     </g>
    </g>
   </g>
  </g>
 </g>
 <defs>
  <clipPath id="p430d0385e8">
   <rect x="62.208" y="3.456" width="398.592" height="290.304"/>
  </clipPath>
 </defs>
</svg>
