<?xml version="1.0" encoding="utf-8" standalone="no"?>
<!DOCTYPE svg PUBLIC "-//W3C//DTD SVG 1.1//EN"
  "http://www.w3.org/Graphics/SVG/1.1/DTD/svg11.dtd">
<svg xmlns:xlink="http://www.w3.org/1999/xlink" width="460.8pt" height="345.6pt" viewBox="0 0 460.8 345.6" xmlns="http://www.w3.org/2000/svg" version="1.1">
 <metadata>
  <rdf:RDF xmlns:dc="http://purl.org/dc/elements/1.1/" xmlns:cc="http://creativecommons.org/ns#" xmlns:rdf="http://www.w3.org/1999/02/22-rdf-syntax-ns#">
   <cc:Work>
    <dc:type rdf:resource="http://purl.org/dc/dcmitype/StillImage"/>
    <dc:date>2024-01-17T14:59:38.463860</dc:date>
    <dc:format>image/svg+xml</dc:format>
    <dc:creator>
     <cc:Agent>
      <dc:title>Matplotlib v3.8.2, https://matplotlib.org/</dc:title>
     </cc:Agent>
    </dc:creator>
   </cc:Work>
  </rdf:RDF>
 </metadata>
 <defs>
  <style type="text/css">*{stroke-linejoin: round; stroke-linecap: butt}</style>
 </defs>
 <g id="figure_1">
  <g id="patch_1">
   <path d="M 0 345.6 
L 460.8 345.6 
L 460.8 0 
L 0 0 
z
" style="fill: #ffffff"/>
  </g>
  <g id="axes_1">
   <g id="patch_2">
    <path d="M 62.208 293.76 
L 460.8 293.76 
L 460.8 3.456 
L 62.208 3.456 
z
" style="fill: #ffffff"/>
   </g>
   <g id="line2d_1">
    <path d="M 375.549172 293.76 
L 375.549172 292.163168 
L 376.014993 292.163168 
L 376.014993 289.767921 
L 376.246827 289.767921 
L 376.246827 288.171089 
L 376.938072 288.171089 
L 376.938072 287.372673 
L 378.974495 287.372673 
L 378.974495 285.775842 
L 380.302116 285.775842 
L 380.302116 284.977426 
L 380.957243 284.977426 
L 380.957243 284.17901 
L 383.311714 284.17901 
L 383.311714 283.380594 
L 386.002479 283.380594 
L 386.002479 282.582178 
L 388.206443 282.582178 
L 388.206443 281.783762 
L 391.86752 281.783762 
L 391.86752 280.985347 
L 398.866526 280.985347 
L 398.866526 280.186931 
L 401.061943 280.186931 
L 401.061943 279.388515 
L 403.6789 279.388515 
L 403.6789 278.590099 
L 403.99971 278.590099 
L 403.99971 277.791683 
L 404.637256 277.791683 
L 404.637256 276.993267 
L 404.954014 276.993267 
L 404.954014 276.194851 
L 406.672737 276.194851 
L 406.672737 275.396436 
L 407.134744 275.396436 
L 407.134744 273.799604 
L 407.44118 273.799604 
L 407.44118 273.001188 
L 408.201853 273.001188 
L 408.201853 272.202772 
L 408.353069 272.202772 
L 408.353069 271.404356 
L 409.254037 271.404356 
L 409.254037 269.807525 
L 410.291707 269.807525 
L 410.291707 269.009109 
L 410.732079 269.009109 
L 410.732079 267.412277 
L 411.749697 267.412277 
L 411.749697 266.613861 
L 413.32151 266.613861 
L 413.32151 265.815446 
L 417.1803 265.815446 
L 417.1803 265.01703 
L 422.370628 265.01703 
L 422.370628 264.218614 
L 429.995369 264.218614 
L 429.995369 263.420198 
L 430.221624 263.420198 
L 430.221624 262.621782 
L 430.672104 262.621782 
L 430.672104 261.02495 
L 431.897193 261.02495 
L 431.897193 260.226535 
L 432.117809 260.226535 
L 432.117809 259.428119 
L 434.928449 259.428119 
L 434.928449 258.629703 
L 437.330163 258.629703 
L 437.330163 257.831287 
L 441.624476 257.831287 
L 441.624476 257.032871 
L 442.397062 257.032871 
L 442.397062 256.234455 
L 443.066627 256.234455 
L 443.066627 255.43604 
L 444.947473 255.43604 
L 445.040293 253.839208 
L 445.318065 253.839208 
L 445.318065 253.040792 
L 446.327878 253.040792 
L 446.327878 252.242376 
L 447.772915 252.242376 
L 447.772915 251.44396 
L 448.218855 251.44396 
L 448.218855 250.645545 
L 448.662167 250.645545 
L 448.662167 249.847129 
L 449.190717 249.847129 
L 449.278449 248.250297 
L 449.453606 248.250297 
L 449.453606 246.653465 
L 449.715579 246.653465 
L 449.715579 245.85505 
L 450.926202 245.85505 
L 451.011934 244.258218 
L 451.353889 244.258218 
L 451.353889 243.459802 
L 451.948595 243.459802 
L 451.948595 241.86297 
L 453.040729 241.86297 
L 453.040729 241.064554 
L 453.78764 241.064554 
L 453.78764 240.266139 
L 453.952618 240.266139 
L 453.952618 239.467723 
L 454.445392 239.467723 
L 454.445392 238.669307 
L 455.340512 238.669307 
L 455.340512 237.870891 
L 455.743891 237.870891 
L 455.824308 234.677228 
L 456.305012 234.677228 
L 456.305012 233.080396 
L 458.197688 233.080396 
L 458.197688 232.28198 
L 459.510096 232.28198 
L 459.510096 231.483564 
L 459.663002 231.483564 
L 459.663002 230.685149 
L 460.347261 230.685149 
L 460.347261 229.886733 
L 461.474041 229.886733 
L 461.474041 229.088317 
L 461.8 229.088317 
L 461.8 229.088317 
" clip-path="url(#pc80e251e65)" style="fill: none; stroke: #f5deb3; stroke-width: 1.5; stroke-linecap: square"/>
   </g>
   <g id="line2d_2">
    <path d="M 308.462918 293.76 
L 308.462918 291.364752 
L 308.462918 291.364752 
L 308.462918 288.969505 
L 309.030693 288.969505 
L 309.030693 286.574257 
L 309.030693 286.574257 
L 309.030693 284.17901 
L 309.030693 284.17901 
L 309.030693 281.783762 
L 461.8 281.783762 
" clip-path="url(#pc80e251e65)" style="fill: none; stroke: #f5deb3; stroke-width: 1.5; stroke-linecap: square"/>
   </g>
   <g id="line2d_3">
    <path d="M 173.668993 293.76 
L 173.668993 278.590099 
L 177.013096 278.590099 
L 177.013096 276.194851 
L 180.214852 276.194851 
L 180.214852 274.59802 
L 183.285888 274.59802 
L 183.285888 272.202772 
L 186.236459 272.202772 
L 186.236459 271.404356 
L 189.075661 271.404356 
L 189.075661 270.605941 
L 201.857152 270.605941 
L 201.857152 269.807525 
L 260.744076 269.807525 
L 260.744076 269.009109 
L 262.863369 269.009109 
L 262.863369 268.210693 
L 282.117216 268.210693 
L 282.117216 267.412277 
L 282.921822 267.412277 
L 282.921822 266.613861 
L 317.5766 266.613861 
L 317.5766 265.815446 
L 326.60552 265.815446 
L 326.60552 265.01703 
L 354.062467 265.01703 
L 354.062467 264.218614 
L 354.372694 264.218614 
L 354.372694 263.420198 
L 355.904924 263.420198 
L 355.904924 262.621782 
L 359.748546 262.621782 
L 359.748546 261.823366 
L 362.298957 261.823366 
L 362.298957 261.02495 
L 365.034892 261.02495 
L 365.034892 260.226535 
L 368.191855 260.226535 
L 368.191855 259.428119 
L 369.974035 259.428119 
L 369.974035 258.629703 
L 370.47557 258.629703 
L 370.47557 257.831287 
L 370.973783 257.831287 
L 370.973783 257.032871 
L 372.934283 257.032871 
L 372.934283 256.234455 
L 374.134147 256.234455 
L 374.134147 255.43604 
L 376.938072 255.43604 
L 376.938072 254.637624 
L 379.419643 254.637624 
L 379.419643 253.040792 
L 385.594728 253.040792 
L 385.594728 252.242376 
L 386.002479 252.242376 
L 386.002479 251.44396 
L 388.00873 251.44396 
L 388.00873 250.645545 
L 390.921219 250.645545 
L 390.921219 249.847129 
L 393.908408 249.847129 
L 393.908408 249.048713 
L 397.657293 249.048713 
L 397.657293 248.250297 
L 400.560965 248.250297 
L 400.560965 247.451881 
L 402.218079 247.451881 
L 402.218079 246.653465 
L 402.708178 246.653465 
L 402.708178 245.85505 
L 403.033145 245.85505 
L 403.033145 244.258218 
L 403.99971 244.258218 
L 403.99971 243.459802 
L 404.954014 243.459802 
L 404.954014 242.661386 
L 406.827055 242.661386 
L 406.827055 241.86297 
L 417.715747 241.86297 
L 417.715747 241.064554 
L 418.906746 241.064554 
L 418.906746 240.266139 
L 425.441664 240.266139 
L 425.441664 239.467723 
L 430.896336 239.467723 
L 430.896336 238.669307 
L 431.342806 238.669307 
L 431.342806 237.870891 
L 432.117809 237.870891 
L 432.117809 237.072475 
L 437.740136 237.072475 
L 437.740136 236.274059 
L 438.350937 236.274059 
L 438.350937 235.475644 
L 438.654488 235.475644 
L 438.654488 234.677228 
L 441.624476 234.677228 
L 441.624476 233.878812 
L 442.684749 233.878812 
L 442.684749 233.080396 
L 444.947473 233.080396 
L 444.947473 232.28198 
L 445.962239 232.28198 
L 445.962239 231.483564 
L 446.691747 231.483564 
L 446.691747 230.685149 
L 447.144123 230.685149 
L 447.144123 229.886733 
L 449.453606 229.886733 
L 449.453606 229.088317 
L 451.353889 229.088317 
L 451.353889 228.289901 
L 451.948595 228.289901 
L 451.948595 227.491485 
L 452.706373 227.491485 
L 452.706373 226.693069 
L 461.8 226.693069 
L 461.8 226.693069 
" clip-path="url(#pc80e251e65)" style="fill: none; stroke: #f5deb3; stroke-width: 1.5; stroke-linecap: square"/>
   </g>
   <g id="line2d_4">
    <path d="M 128.069444 293.76 
L 128.069444 292.961584 
L 158.572553 292.961584 
L 158.572553 292.163168 
L 177.013096 292.163168 
L 177.013096 291.364752 
L 180.214852 291.364752 
L 180.214852 290.566337 
L 189.075661 290.566337 
L 189.075661 289.767921 
L 197.001924 289.767921 
L 197.001924 288.969505 
L 201.857152 288.969505 
L 201.857152 288.171089 
L 204.172102 288.171089 
L 204.172102 285.775842 
L 210.717961 285.775842 
L 210.717961 284.977426 
L 216.739567 284.977426 
L 216.739567 284.17901 
L 218.644224 284.17901 
L 218.644224 283.380594 
L 224.084902 283.380594 
L 224.084902 282.582178 
L 235.431296 282.582178 
L 235.431296 281.783762 
L 374.134147 281.783762 
L 374.134147 280.985347 
L 375.782443 280.985347 
L 375.782443 280.186931 
L 388.403638 280.186931 
L 388.403638 279.388515 
L 392.616083 279.388515 
L 392.616083 278.590099 
L 395.178907 278.590099 
L 395.178907 277.791683 
L 396.073447 277.791683 
L 396.073447 276.993267 
L 396.251085 276.993267 
L 396.251085 276.194851 
L 396.781498 276.194851 
L 396.781498 275.396436 
L 397.133041 275.396436 
L 397.133041 274.59802 
L 398.177918 274.59802 
L 398.177918 273.799604 
L 398.52301 273.799604 
L 398.52301 273.001188 
L 399.208481 273.001188 
L 399.208481 272.202772 
L 400.895321 272.202772 
L 400.895321 271.404356 
L 404.637256 271.404356 
L 404.637256 270.605941 
L 404.954014 270.605941 
L 404.954014 269.807525 
L 406.207875 269.807525 
L 406.207875 269.009109 
L 410.291707 269.009109 
L 410.291707 268.210693 
L 414.861152 268.210693 
L 414.861152 267.412277 
L 414.99957 267.412277 
L 414.99957 266.613861 
L 420.337263 266.613861 
L 420.337263 265.815446 
L 453.207351 265.815446 
L 453.207351 265.01703 
L 455.340512 265.01703 
L 455.340512 264.218614 
L 461.8 264.218614 
L 461.8 264.218614 
" clip-path="url(#pc80e251e65)" style="fill: none; stroke: #f5deb3; stroke-width: 1.5; stroke-linecap: square"/>
   </g>
   <g id="line2d_5">
    <path d="M 397.308198 293.76 
L 397.308198 292.961584 
L 414.304921 292.961584 
L 414.304921 292.163168 
L 416.776199 292.163168 
L 416.776199 291.364752 
L 420.208335 291.364752 
L 420.208335 290.566337 
L 422.119443 290.566337 
L 422.119443 289.767921 
L 432.447524 289.767921 
L 432.447524 288.969505 
L 443.161795 288.969505 
L 443.161795 288.171089 
L 443.256842 288.171089 
L 443.256842 287.372673 
L 445.962239 287.372673 
L 445.962239 286.574257 
L 450.150184 286.574257 
L 450.150184 285.775842 
L 461.8 285.775842 
" clip-path="url(#pc80e251e65)" style="fill: none; stroke: #f5deb3; stroke-width: 1.5; stroke-linecap: square"/>
   </g>
   <g id="line2d_6"/>
   <g id="line2d_7">
    <path d="M 303.150364 293.76 
L 303.150364 292.961584 
L 305.557927 292.961584 
L 305.557927 292.163168 
L 311.259891 292.163168 
L 311.259891 291.364752 
L 313.956593 291.364752 
L 313.956593 290.566337 
L 315.529401 290.566337 
L 315.529401 289.767921 
L 319.07625 289.767921 
L 319.07625 288.171089 
L 320.059661 288.171089 
L 320.059661 287.372673 
L 320.546588 287.372673 
L 320.546588 286.574257 
L 321.511087 286.574257 
L 321.511087 285.775842 
L 324.33254 285.775842 
L 324.33254 284.977426 
L 326.156385 284.977426 
L 326.156385 284.17901 
L 326.60552 284.17901 
L 326.60552 283.380594 
L 327.937058 283.380594 
L 327.937058 282.582178 
L 333.039347 282.582178 
L 333.039347 281.783762 
L 421.360816 281.783762 
L 421.360816 280.985347 
L 434.502818 280.985347 
L 434.502818 280.186931 
L 437.637852 280.186931 
L 437.637852 279.388515 
L 438.350937 279.388515 
L 438.350937 278.590099 
L 442.588975 278.590099 
L 442.588975 277.791683 
L 443.918832 277.791683 
L 443.918832 276.993267 
L 444.38814 276.993267 
L 444.38814 276.194851 
L 445.318065 276.194851 
L 445.318065 275.396436 
L 445.778752 275.396436 
L 445.778752 273.799604 
L 446.327878 273.799604 
L 446.327878 273.001188 
L 446.691747 273.001188 
L 446.691747 272.202772 
L 447.414249 272.202772 
L 447.414249 271.404356 
L 448.129878 271.404356 
L 448.129878 270.605941 
L 448.838764 270.605941 
L 448.838764 269.807525 
L 449.453606 269.807525 
L 449.453606 269.009109 
L 449.715579 269.009109 
L 449.715579 268.210693 
L 452.117651 268.210693 
L 452.117651 267.412277 
L 452.538636 267.412277 
L 452.538636 266.613861 
L 453.290524 266.613861 
L 453.290524 265.815446 
L 456.065044 265.815446 
L 456.065044 265.01703 
L 457.885531 265.01703 
L 457.885531 264.218614 
L 461.8 264.218614 
L 461.8 264.218614 
" clip-path="url(#pc80e251e65)" style="fill: none; stroke: #f5deb3; stroke-width: 1.5; stroke-linecap: square"/>
   </g>
   <g id="line2d_8">
    <path d="M 0 0 
" clip-path="url(#pc80e251e65)" style="fill: none; stroke: #f5deb3; stroke-width: 1.5; stroke-linecap: square"/>
   </g>
   <g id="line2d_9">
    <path d="M 208.598668 293.76 
L 208.598668 292.961584 
L 216.739567 292.961584 
L 216.739567 292.163168 
L 222.314704 292.163168 
L 222.314704 291.364752 
L 230.776414 291.364752 
L 230.776414 290.566337 
L 232.360261 290.566337 
L 232.360261 289.767921 
L 250.39083 289.767921 
L 250.39083 288.969505 
L 255.168939 288.969505 
L 255.168939 288.171089 
L 265.934404 288.171089 
L 265.934404 286.574257 
L 270.789632 286.574257 
L 270.789632 284.977426 
L 275.350418 284.977426 
L 275.350418 284.17901 
L 276.23031 284.17901 
L 276.23031 283.380594 
L 277.10003 283.380594 
L 277.10003 282.582178 
L 277.95981 282.582178 
L 277.95981 281.783762 
L 388.403638 281.783762 
L 388.403638 280.985347 
L 403.51798 280.985347 
L 403.51798 280.186931 
L 412.611118 280.186931 
L 412.611118 279.388515 
L 421.741086 279.388515 
L 421.741086 278.590099 
L 428.160401 278.590099 
L 428.160401 277.791683 
L 428.507884 277.791683 
L 428.507884 276.993267 
L 430.672104 276.993267 
L 430.672104 276.194851 
L 432.884908 276.194851 
L 432.884908 275.396436 
L 433.752122 275.396436 
L 433.752122 274.59802 
L 433.967372 274.59802 
L 433.967372 273.799604 
L 435.246098 273.799604 
L 435.246098 273.001188 
L 435.982106 273.001188 
L 435.982106 272.202772 
L 436.295347 272.202772 
L 436.295347 271.404356 
L 436.917943 271.404356 
L 436.917943 270.605941 
L 438.147887 270.605941 
L 438.147887 269.807525 
L 438.452257 269.807525 
L 438.452257 269.009109 
L 438.856177 269.009109 
L 438.856177 268.210693 
L 440.154138 268.210693 
L 440.154138 267.412277 
L 440.843873 267.412277 
L 440.843873 266.613861 
L 444.947473 266.613861 
L 445.040293 265.01703 
L 445.68684 265.01703 
L 445.68684 264.218614 
L 461.8 264.218614 
L 461.8 264.218614 
" clip-path="url(#pc80e251e65)" style="fill: none; stroke: #f5deb3; stroke-width: 1.5; stroke-linecap: square"/>
   </g>
   <g id="line2d_10">
    <path d="M 288.325267 293.76 
L 288.325267 292.961584 
L 301.917059 292.961584 
L 301.917059 292.163168 
L 302.536239 292.163168 
L 302.536239 289.767921 
L 304.963221 289.767921 
L 304.963221 288.969505 
L 306.733418 288.969505 
L 306.733418 288.171089 
L 314.484524 288.171089 
L 314.484524 287.372673 
L 315.529401 287.372673 
L 315.529401 286.574257 
L 325.704553 286.574257 
L 325.704553 285.775842 
L 330.955282 285.775842 
L 330.955282 284.977426 
L 343.392592 284.977426 
L 343.392592 284.17901 
L 343.74998 284.17901 
L 343.74998 283.380594 
L 356.207661 283.380594 
L 356.207661 282.582178 
L 357.703335 282.582178 
L 357.703335 281.783762 
L 461.8 281.783762 
L 461.8 281.783762 
" clip-path="url(#pc80e251e65)" style="fill: none; stroke: #f5deb3; stroke-width: 1.5; stroke-linecap: square"/>
   </g>
   <g id="line2d_11">
    <path d="M 144.856516 293.76 
L 144.856516 292.961584 
L 166.498816 292.961584 
L 166.498816 292.163168 
L 170.169296 292.163168 
L 170.169296 289.767921 
L 173.668993 289.767921 
L 173.668993 288.171089 
L 177.013096 288.171089 
L 177.013096 286.574257 
L 189.075661 286.574257 
L 189.075661 284.977426 
L 204.172102 284.977426 
L 204.172102 283.380594 
L 212.779183 283.380594 
L 212.779183 282.582178 
L 214.785434 282.582178 
L 214.785434 281.783762 
L 377.167082 281.783762 
L 377.167082 280.985347 
L 383.10069 280.985347 
L 383.10069 279.388515 
L 383.731994 279.388515 
L 383.731994 278.590099 
L 385.184755 278.590099 
L 385.184755 277.791683 
L 386.408033 277.791683 
L 386.408033 276.993267 
L 386.609992 276.993267 
L 386.609992 276.194851 
L 388.00873 276.194851 
L 388.00873 275.396436 
L 388.403638 275.396436 
L 388.403638 274.59802 
L 390.921219 274.59802 
L 390.921219 273.799604 
L 392.05536 273.799604 
L 392.05536 272.202772 
L 393.541432 272.202772 
L 393.541432 271.404356 
L 393.908408 271.404356 
L 393.908408 270.605941 
L 397.133041 270.605941 
L 397.133041 269.807525 
L 397.657293 269.807525 
L 397.657293 269.009109 
L 457.807288 269.009109 
L 457.807288 268.210693 
L 461.697385 268.210693 
L 461.697385 267.412277 
L 461.8 267.412277 
" clip-path="url(#pc80e251e65)" style="fill: none; stroke: #f5deb3; stroke-width: 1.5; stroke-linecap: square"/>
   </g>
   <g id="line2d_12">
    <path d="M 134.091051 293.76 
L 134.091051 281.783762 
L 162.640026 281.783762 
L 162.640026 280.186931 
L 183.285888 280.186931 
L 183.285888 279.388515 
L 199.4687 279.388515 
L 199.4687 273.001188 
L 212.779183 273.001188 
L 212.779183 270.605941 
L 224.084902 270.605941 
L 224.084902 269.807525 
L 365.836639 269.807525 
L 365.836639 269.009109 
L 374.844987 269.009109 
L 374.844987 268.210693 
L 377.623022 268.210693 
L 377.623022 267.412277 
L 378.974495 267.412277 
L 378.974495 265.815446 
L 384.149939 265.815446 
L 384.149939 265.01703 
L 386.609992 265.01703 
L 386.609992 263.420198 
L 387.810495 263.420198 
L 387.810495 262.621782 
L 391.301169 262.621782 
L 391.301169 261.823366 
L 392.429639 261.823366 
L 392.429639 261.02495 
L 394.637032 261.02495 
L 394.637032 259.428119 
L 404.795801 259.428119 
L 404.795801 258.629703 
L 405.740122 258.629703 
L 405.740122 257.032871 
L 406.672737 257.032871 
L 406.672737 256.234455 
L 410.291707 256.234455 
L 410.291707 253.839208 
L 411.169888 253.839208 
L 411.169888 253.040792 
L 412.037935 253.040792 
L 412.037935 252.242376 
L 412.89608 252.242376 
L 412.89608 251.44396 
L 413.744547 251.44396 
L 413.744547 250.645545 
L 414.583551 250.645545 
L 414.583551 249.847129 
L 415.413301 249.847129 
L 415.413301 249.048713 
L 417.045841 249.048713 
L 417.045841 248.250297 
L 417.849015 248.250297 
L 417.849015 247.451881 
L 420.208335 247.451881 
L 420.208335 246.653465 
L 422.495907 246.653465 
L 422.495907 245.85505 
L 424.715968 245.85505 
L 424.715968 245.056634 
L 427.577673 245.056634 
L 427.577673 244.258218 
L 428.968712 244.258218 
L 428.968712 243.459802 
L 433.536254 243.459802 
L 433.536254 242.661386 
L 434.289097 242.661386 
L 434.289097 241.064554 
L 437.432866 241.064554 
L 437.432866 240.266139 
L 442.204658 240.266139 
L 442.204658 238.669307 
L 443.918832 238.669307 
L 443.918832 237.870891 
L 444.38814 237.870891 
L 444.38814 237.072475 
L 447.234273 237.072475 
L 447.234273 234.677228 
L 447.772915 234.677228 
L 447.772915 233.080396 
L 448.307727 233.080396 
L 448.307727 232.28198 
L 455.421361 232.28198 
L 455.421361 231.483564 
L 455.904639 231.483564 
L 455.904639 230.685149 
L 456.384831 230.685149 
L 456.384831 229.886733 
L 461.8 229.886733 
L 461.8 229.886733 
" clip-path="url(#pc80e251e65)" style="fill: none; stroke: #f5deb3; stroke-width: 1.5; stroke-linecap: square"/>
   </g>
   <g id="line2d_13">
    <path d="M 379.641234 293.76 
L 379.641234 291.364752 
L 386.002479 291.364752 
L 386.002479 288.969505 
L 386.609992 288.969505 
L 386.609992 286.574257 
L 400.056628 286.574257 
L 400.056628 284.17901 
L 408.503981 284.17901 
L 408.503981 281.783762 
L 461.8 281.783762 
L 461.8 281.783762 
" clip-path="url(#pc80e251e65)" style="fill: none; stroke: #f5deb3; stroke-width: 1.5; stroke-linecap: square"/>
   </g>
   <g id="line2d_14">
    <path d="M 208.598668 293.76 
L 208.598668 292.163168 
L 210.717961 292.163168 
L 210.717961 291.364752 
L 214.785434 291.364752 
L 214.785434 290.566337 
L 220.501847 290.566337 
L 220.501847 288.171089 
L 225.814401 288.171089 
L 225.814401 287.372673 
L 229.158504 287.372673 
L 229.158504 281.783762 
L 321.030383 281.783762 
L 321.030383 280.985347 
L 326.156385 280.985347 
L 326.156385 280.186931 
L 330.531451 280.186931 
L 330.531451 279.388515 
L 333.039347 279.388515 
L 333.039347 277.791683 
L 334.666003 277.791683 
L 334.666003 276.993267 
L 335.466329 276.993267 
L 335.466329 276.194851 
L 336.25823 276.194851 
L 336.25823 275.396436 
L 339.345019 275.396436 
L 339.345019 274.59802 
L 340.842181 274.59802 
L 340.842181 273.799604 
L 341.945818 273.799604 
L 341.945818 273.001188 
L 344.105677 273.001188 
L 344.105677 272.202772 
L 345.16279 272.202772 
L 345.16279 271.404356 
L 347.573108 271.404356 
L 347.573108 269.807525 
L 359.459755 269.807525 
L 359.459755 269.009109 
L 363.130235 269.009109 
L 363.130235 268.210693 
L 424.350477 268.210693 
L 424.350477 267.412277 
L 431.675928 267.412277 
L 431.675928 266.613861 
L 452.873737 266.613861 
L 452.873737 265.815446 
L 458.972463 265.815446 
L 458.972463 265.01703 
L 461.8 265.01703 
L 461.8 265.01703 
" clip-path="url(#pc80e251e65)" style="fill: none; stroke: #f5deb3; stroke-width: 1.5; stroke-linecap: square"/>
   </g>
   <g id="line2d_15">
    <path d="M 0 0 
" clip-path="url(#pc80e251e65)" style="fill: none; stroke: #f5deb3; stroke-width: 1.5; stroke-linecap: square"/>
   </g>
   <g id="line2d_16">
    <path d="M 411.169888 293.76 
L 411.169888 292.961584 
L 418.77534 292.961584 
L 418.77534 291.364752 
L 426.279555 291.364752 
L 426.279555 290.566337 
L 431.008203 290.566337 
L 431.008203 289.767921 
L 433.102651 289.767921 
L 433.211286 287.372673 
L 433.319765 287.372673 
L 433.428087 285.775842 
L 433.967372 285.775842 
L 433.967372 284.977426 
L 436.295347 284.977426 
L 436.295347 284.17901 
L 436.503452 284.17901 
L 436.503452 283.380594 
L 441.818368 283.380594 
L 441.818368 282.582178 
L 449.802701 282.582178 
L 449.802701 281.783762 
L 461.8 281.783762 
L 461.8 281.783762 
" clip-path="url(#pc80e251e65)" style="fill: none; stroke: #f5deb3; stroke-width: 1.5; stroke-linecap: square"/>
   </g>
   <g id="line2d_17">
    <path d="M 302.536239 293.76 
L 302.536239 292.961584 
L 310.708754 292.961584 
L 310.708754 292.163168 
L 328.375718 292.163168 
L 328.375718 291.364752 
L 344.105677 291.364752 
L 344.105677 290.566337 
L 346.549556 290.566337 
L 346.549556 289.767921 
L 367.674809 289.767921 
L 367.674809 288.969505 
L 374.134147 288.969505 
L 374.134147 288.171089 
L 374.371841 288.171089 
L 374.371841 287.372673 
L 378.750928 287.372673 
L 378.750928 286.574257 
L 399.208481 286.574257 
L 399.208481 285.775842 
L 415.137733 285.775842 
L 415.137733 284.977426 
L 416.097836 284.977426 
L 416.097836 284.17901 
L 416.776199 284.17901 
L 416.776199 283.380594 
L 458.740867 283.380594 
L 458.740867 282.582178 
L 459.280152 282.582178 
L 459.280152 281.783762 
L 461.8 281.783762 
L 461.8 281.783762 
" clip-path="url(#pc80e251e65)" style="fill: none; stroke: #f5deb3; stroke-width: 1.5; stroke-linecap: square"/>
   </g>
   <g id="line2d_18">
    <path d="M 128.069444 293.76 
L 128.069444 281.783762 
L 134.091051 281.783762 
L 134.091051 277.791683 
L 139.666188 277.791683 
L 139.666188 276.993267 
L 144.856516 276.993267 
L 144.856516 276.194851 
L 149.711744 276.194851 
L 149.711744 274.59802 
L 154.27253 274.59802 
L 154.27253 271.404356 
L 158.572553 271.404356 
L 158.572553 270.605941 
L 170.169296 270.605941 
L 170.169296 269.807525 
L 361.176102 269.807525 
L 361.176102 269.009109 
L 372.448927 269.009109 
L 372.448927 268.210693 
L 374.134147 268.210693 
L 374.134147 267.412277 
L 374.371841 267.412277 
L 374.371841 266.613861 
L 376.938072 266.613861 
L 376.938072 265.815446 
L 380.7395 265.815446 
L 380.7395 265.01703 
L 384.772535 265.01703 
L 384.772535 264.218614 
L 385.594728 264.218614 
L 385.594728 263.420198 
L 386.609992 263.420198 
L 386.609992 262.621782 
L 388.403638 262.621782 
L 388.403638 261.823366 
L 390.347672 261.823366 
L 390.347672 261.02495 
L 392.05536 261.02495 
L 392.05536 260.226535 
L 394.273602 260.226535 
L 394.273602 259.428119 
L 394.637032 259.428119 
L 394.637032 258.629703 
L 396.781498 258.629703 
L 396.781498 257.831287 
L 398.350661 257.831287 
L 398.350661 257.032871 
L 399.378877 257.032871 
L 399.378877 256.234455 
L 399.718516 256.234455 
L 399.718516 255.43604 
L 403.033145 255.43604 
L 403.033145 253.839208 
L 404.954014 253.839208 
L 404.954014 253.040792 
L 406.827055 253.040792 
L 406.827055 252.242376 
L 410.585575 252.242376 
L 410.585575 251.44396 
L 411.605163 251.44396 
L 411.605163 250.645545 
L 413.744547 250.645545 
L 413.744547 249.847129 
L 414.72248 249.847129 
L 414.72248 249.048713 
L 415.413301 249.048713 
L 415.413301 248.250297 
L 421.867416 248.250297 
L 421.867416 247.451881 
L 424.958645 247.451881 
L 424.958645 246.653465 
L 427.343311 246.653465 
L 427.343311 245.85505 
L 433.536254 245.85505 
L 433.536254 245.056634 
L 438.350937 245.056634 
L 438.350937 244.258218 
L 439.955903 244.258218 
L 439.955903 243.459802 
L 441.430083 243.459802 
L 441.430083 242.661386 
L 443.635835 242.661386 
L 443.635835 241.86297 
L 445.502678 241.86297 
L 445.502678 241.064554 
L 452.454627 241.064554 
L 452.454627 240.266139 
L 455.178553 240.266139 
L 455.178553 239.467723 
L 455.421361 239.467723 
L 455.421361 238.669307 
L 460.649389 238.669307 
L 460.649389 237.870891 
L 461.025352 237.870891 
L 461.025352 237.072475 
L 461.250031 237.072475 
L 461.250031 236.274059 
L 461.8 236.274059 
L 461.8 236.274059 
" clip-path="url(#pc80e251e65)" style="fill: none; stroke: #f5deb3; stroke-width: 1.5; stroke-linecap: square"/>
   </g>
   <g id="line2d_19">
    <path d="M 436.399472 293.76 
L 436.399472 292.94652 
L 449.541032 292.94652 
L 449.541032 292.133039 
L 461.8 292.133039 
L 461.8 292.133039 
" clip-path="url(#pc80e251e65)" style="fill: none; stroke: #f5deb3; stroke-width: 1.5; stroke-linecap: square"/>
   </g>
   <g id="line2d_20">
    <path d="M 144.856516 293.76 
L 144.856516 292.961584 
L 154.27253 292.961584 
L 154.27253 292.163168 
L 158.572553 292.163168 
L 158.572553 290.566337 
L 170.169296 290.566337 
L 170.169296 289.767921 
L 177.013096 289.767921 
L 177.013096 288.969505 
L 180.214852 288.969505 
L 180.214852 288.171089 
L 186.236459 288.171089 
L 186.236459 287.372673 
L 189.075661 287.372673 
L 189.075661 285.775842 
L 191.811596 285.775842 
L 191.811596 284.977426 
L 197.001924 284.977426 
L 197.001924 284.17901 
L 201.857152 284.17901 
L 201.857152 283.380594 
L 204.172102 283.380594 
L 204.172102 282.582178 
L 210.717961 282.582178 
L 210.717961 281.783762 
L 336.651077 281.783762 
L 336.651077 280.985347 
L 343.392592 280.985347 
L 343.392592 280.186931 
L 343.74998 280.186931 
L 343.74998 279.388515 
L 344.812067 279.388515 
L 344.812067 278.590099 
L 346.205253 278.590099 
L 346.205253 277.791683 
L 347.91122 277.791683 
L 347.91122 276.993267 
L 349.248676 276.993267 
L 349.248676 276.194851 
L 350.236392 276.194851 
L 350.236392 275.396436 
L 352.17375 275.396436 
L 352.17375 273.799604 
L 353.124036 273.799604 
L 353.124036 273.001188 
L 353.750955 273.001188 
L 353.750955 272.202772 
L 357.108629 272.202772 
L 357.108629 271.404356 
L 358.878826 271.404356 
L 358.878826 270.605941 
L 360.036232 270.605941 
L 360.036232 269.807525 
L 362.01981 269.807525 
L 362.01981 269.009109 
L 364.224508 269.009109 
L 364.224508 268.210693 
L 366.102001 268.210693 
L 366.102001 267.412277 
L 366.36643 267.412277 
L 366.36643 266.613861 
L 388.992141 266.613861 
L 388.992141 265.815446 
L 396.781498 265.815446 
L 396.781498 265.01703 
L 400.056628 265.01703 
L 400.056628 264.218614 
L 405.111894 264.218614 
L 405.111894 263.420198 
L 408.353069 263.420198 
L 408.353069 262.621782 
L 411.893954 262.621782 
L 411.893954 261.823366 
L 414.72248 261.823366 
L 414.72248 261.02495 
L 414.861152 261.02495 
L 414.861152 260.226535 
L 416.369916 260.226535 
L 416.369916 259.428119 
L 417.314519 259.428119 
L 417.314519 258.629703 
L 419.430087 258.629703 
L 419.430087 257.032871 
L 419.949812 257.032871 
L 419.949812 256.234455 
L 420.465972 256.234455 
L 420.465972 255.43604 
L 421.233631 255.43604 
L 421.233631 254.637624 
L 421.867416 254.637624 
L 421.867416 253.839208 
L 422.245141 253.839208 
L 422.245141 253.040792 
L 422.620978 253.040792 
L 422.620978 252.242376 
L 423.367066 252.242376 
L 423.367066 251.44396 
L 423.860378 251.44396 
L 423.860378 250.645545 
L 424.472505 250.645545 
L 424.472505 249.847129 
L 424.594335 249.847129 
L 424.594335 248.250297 
L 425.079691 248.250297 
L 425.079691 247.451881 
L 425.441664 247.451881 
L 425.441664 246.653465 
L 426.517249 246.653465 
L 426.517249 245.85505 
L 427.69458 245.85505 
L 427.69458 245.056634 
L 428.044216 245.056634 
L 428.044216 244.258218 
L 428.507884 244.258218 
L 428.507884 243.459802 
L 432.007582 243.459802 
L 432.007582 242.661386 
L 432.884908 242.661386 
L 432.884908 241.86297 
L 434.502818 241.86297 
L 434.502818 240.266139 
L 434.715935 240.266139 
L 434.715935 239.467723 
L 435.667556 239.467723 
L 435.667556 237.870891 
L 436.503452 237.870891 
L 436.503452 237.072475 
L 437.432866 237.072475 
L 437.432866 236.274059 
L 438.249481 236.274059 
L 438.249481 235.475644 
L 439.057327 235.475644 
L 439.1577 233.878812 
L 440.351851 233.878812 
L 440.351851 233.080396 
L 440.549046 233.080396 
L 440.64745 231.483564 
L 441.721484 231.483564 
L 441.721484 230.685149 
L 445.225588 230.685149 
L 445.225588 229.886733 
L 446.41901 229.886733 
L 446.41901 229.088317 
L 447.144123 229.088317 
L 447.144123 227.491485 
L 447.772915 227.491485 
L 447.772915 226.693069 
L 448.838764 226.693069 
L 448.838764 225.894653 
L 449.278449 225.894653 
L 449.278449 225.096238 
L 449.628356 225.096238 
L 449.628356 224.297822 
L 449.976643 224.297822 
L 449.976643 223.499406 
L 450.926202 223.499406 
L 450.926202 222.70099 
L 451.779158 222.70099 
L 451.779158 221.902574 
L 454.690574 221.902574 
L 454.772124 220.305743 
L 455.984884 220.305743 
L 455.984884 219.507327 
L 457.414852 219.507327 
L 457.414852 218.708911 
L 457.728965 218.708911 
L 457.728965 217.910495 
L 458.895343 217.910495 
L 458.895343 217.112079 
L 461.474041 217.112079 
L 461.474041 216.313663 
L 461.8 216.313663 
L 461.8 216.313663 
" clip-path="url(#pc80e251e65)" style="fill: none; stroke: #f5deb3; stroke-width: 1.5; stroke-linecap: square"/>
   </g>
   <g id="line2d_21">
    <path d="M 0 0 
" clip-path="url(#pc80e251e65)" style="fill: none; stroke: #f5deb3; stroke-width: 1.5; stroke-linecap: square"/>
   </g>
   <g id="line2d_22">
    <path d="M 158.572553 293.76 
L 158.572553 292.163168 
L 170.169296 292.163168 
L 170.169296 291.364752 
L 173.668993 291.364752 
L 173.668993 290.566337 
L 183.285888 290.566337 
L 183.285888 288.171089 
L 191.811596 288.171089 
L 191.811596 287.372673 
L 210.717961 287.372673 
L 210.717961 286.574257 
L 220.501847 286.574257 
L 220.501847 285.775842 
L 222.314704 285.775842 
L 222.314704 284.977426 
L 230.776414 284.977426 
L 230.776414 284.17901 
L 233.911448 284.17901 
L 233.911448 283.380594 
L 294.746881 283.380594 
L 294.746881 282.582178 
L 307.314347 282.582178 
L 307.314347 281.783762 
L 324.33254 281.783762 
L 324.33254 280.985347 
L 335.863322 280.985347 
L 335.863322 280.186931 
L 342.310129 280.186931 
L 342.310129 279.388515 
L 343.74998 279.388515 
L 343.74998 278.590099 
L 344.812067 278.590099 
L 344.812067 277.791683 
L 346.892289 277.791683 
L 346.892289 276.993267 
L 348.582921 276.993267 
L 348.582921 276.194851 
L 349.908592 276.194851 
L 349.908592 275.396436 
L 350.236392 275.396436 
L 350.236392 274.59802 
L 350.887737 274.59802 
L 350.887737 273.001188 
L 351.211307 273.001188 
L 351.211307 272.202772 
L 352.808606 272.202772 
L 352.808606 271.404356 
L 354.372694 271.404356 
L 354.372694 270.605941 
L 354.989336 270.605941 
L 354.989336 269.807525 
L 357.108629 269.807525 
L 357.108629 269.009109 
L 357.406569 269.009109 
L 357.406569 268.210693 
L 359.748546 268.210693 
L 359.748546 267.412277 
L 364.224508 267.412277 
L 364.224508 266.613861 
L 364.495607 266.613861 
L 364.495607 265.815446 
L 370.47557 265.815446 
L 370.47557 265.01703 
L 390.539341 265.01703 
L 390.539341 264.218614 
L 395.538 264.218614 
L 395.538 263.420198 
L 395.895388 263.420198 
L 395.895388 262.621782 
L 397.482948 262.621782 
L 397.482948 261.823366 
L 401.228197 261.823366 
L 401.228197 261.02495 
L 403.356715 261.02495 
L 403.356715 260.226535 
L 409.104623 260.226535 
L 409.104623 259.428119 
L 409.996688 259.428119 
L 409.996688 258.629703 
L 411.169888 258.629703 
L 411.169888 257.831287 
L 411.460351 257.831287 
L 411.460351 257.032871 
L 411.749697 257.032871 
L 411.749697 256.234455 
L 412.18164 256.234455 
L 412.18164 255.43604 
L 412.325072 255.43604 
L 412.325072 254.637624 
L 413.038157 254.637624 
L 413.038157 253.839208 
L 413.179967 253.839208 
L 413.179967 252.242376 
L 414.025256 252.242376 
L 414.025256 251.44396 
L 414.861152 251.44396 
L 414.861152 250.645545 
L 416.505588 250.645545 
L 416.505588 249.847129 
L 416.776199 249.847129 
L 416.776199 249.048713 
L 419.430087 249.048713 
L 419.430087 247.451881 
L 421.10623 247.451881 
L 421.10623 246.653465 
L 421.487786 246.653465 
L 421.487786 245.85505 
L 423.614126 245.85505 
L 423.614126 245.056634 
L 423.860378 245.056634 
L 423.860378 244.258218 
L 424.105827 244.258218 
L 424.105827 243.459802 
L 424.958645 243.459802 
L 424.958645 242.661386 
L 425.200542 242.661386 
L 425.200542 241.86297 
L 425.561936 241.86297 
L 425.561936 240.266139 
L 425.682015 240.266139 
L 425.682015 239.467723 
L 429.654704 239.467723 
L 429.654704 238.669307 
L 429.76843 238.669307 
L 429.76843 237.870891 
L 431.675928 237.870891 
L 431.675928 237.072475 
L 432.7758 237.072475 
L 432.7758 236.274059 
L 433.102651 236.274059 
L 433.102651 233.878812 
L 434.822267 233.878812 
L 434.822267 233.080396 
L 443.35177 233.080396 
L 443.35177 231.483564 
L 446.78244 231.483564 
L 446.78244 230.685149 
L 447.772915 230.685149 
L 447.772915 229.886733 
L 448.750517 229.886733 
L 448.750517 229.088317 
L 449.628356 229.088317 
L 449.628356 228.289901 
L 450.668418 228.289901 
L 450.668418 227.491485 
L 451.011934 227.491485 
L 451.011934 226.693069 
L 452.538636 226.693069 
L 452.538636 225.096238 
L 455.097443 225.096238 
L 455.178553 222.70099 
L 455.663388 222.70099 
L 455.663388 221.902574 
L 456.065044 221.902574 
L 456.065044 221.104158 
L 456.225108 221.104158 
L 456.225108 220.305743 
L 456.703265 220.305743 
L 456.703265 219.507327 
L 458.43096 219.507327 
L 458.43096 218.708911 
L 459.586588 218.708911 
L 459.586588 217.910495 
L 461.399445 217.910495 
L 461.399445 217.112079 
L 461.8 217.112079 
L 461.8 217.112079 
" clip-path="url(#pc80e251e65)" style="fill: none; stroke: #f5deb3; stroke-width: 1.5; stroke-linecap: square"/>
   </g>
   <g id="line2d_23">
    <path d="M 271.724177 293.76 
L 271.724177 292.961584 
L 298.742329 292.961584 
L 298.742329 292.163168 
L 301.917059 292.163168 
L 301.917059 291.364752 
L 303.759516 291.364752 
L 303.759516 290.566337 
L 313.424931 290.566337 
L 313.424931 288.969505 
L 321.511087 288.969505 
L 321.511087 288.171089 
L 321.988739 288.171089 
L 321.988739 287.372673 
L 323.869585 287.372673 
L 323.869585 286.574257 
L 324.33254 286.574257 
L 324.33254 285.775842 
L 324.792663 285.775842 
L 324.792663 284.977426 
L 337.430668 284.977426 
L 337.430668 284.17901 
L 345.859368 284.17901 
L 345.859368 283.380594 
L 351.533492 283.380594 
L 351.533492 282.582178 
L 365.303092 282.582178 
L 365.303092 281.783762 
L 461.8 281.783762 
L 461.8 281.783762 
" clip-path="url(#pc80e251e65)" style="fill: none; stroke: #f5deb3; stroke-width: 1.5; stroke-linecap: square"/>
   </g>
   <g id="line2d_24">
    <path d="M 340.842181 293.76 
L 340.842181 292.163168 
L 341.211862 292.163168 
L 341.211862 291.364752 
L 355.600965 291.364752 
L 355.600965 289.767921 
L 355.904924 289.767921 
L 355.904924 288.969505 
L 369.215408 288.969505 
L 369.215408 287.372673 
L 369.469134 287.372673 
L 369.469134 286.574257 
L 369.722008 286.574257 
L 369.722008 285.775842 
L 380.7395 285.775842 
L 380.7395 284.17901 
L 380.957243 284.17901 
L 380.957243 283.380594 
L 381.174357 283.380594 
L 381.174357 282.582178 
L 399.548888 282.582178 
L 399.548888 281.783762 
L 435.246098 281.783762 
L 435.246098 280.985347 
L 439.85659 280.985347 
L 439.85659 280.186931 
L 441.430083 280.186931 
L 441.430083 279.388515 
L 455.904639 279.388515 
L 455.904639 278.590099 
L 456.065044 278.590099 
L 456.065044 277.791683 
L 461.100319 277.791683 
L 461.100319 276.993267 
L 461.8 276.993267 
L 461.8 276.993267 
" clip-path="url(#pc80e251e65)" style="fill: none; stroke: #f5deb3; stroke-width: 1.5; stroke-linecap: square"/>
   </g>
   <g id="line2d_25">
    <path d="M 289.80041 293.76 
L 289.80041 292.961584 
L 302.536239 292.961584 
L 302.536239 292.163168 
L 305.557927 292.163168 
L 305.557927 291.364752 
L 312.889484 291.364752 
L 312.889484 290.566337 
L 314.484524 290.566337 
L 314.484524 289.767921 
L 323.869585 289.767921 
L 323.869585 288.969505 
L 324.33254 288.969505 
L 324.33254 288.171089 
L 325.24999 288.171089 
L 325.24999 286.574257 
L 326.60552 286.574257 
L 326.60552 285.775842 
L 329.676556 285.775842 
L 329.676556 284.977426 
L 331.376739 284.977426 
L 331.376739 284.17901 
L 348.24782 284.17901 
L 348.24782 283.380594 
L 349.248676 283.380594 
L 349.248676 282.582178 
L 350.56277 282.582178 
L 350.56277 281.783762 
L 461.8 281.783762 
L 461.8 281.783762 
" clip-path="url(#pc80e251e65)" style="fill: none; stroke: #f5deb3; stroke-width: 1.5; stroke-linecap: square"/>
   </g>
   <g id="line2d_26">
    <path d="M 425.801904 293.76 
L 425.801904 292.961584 
L 426.279555 292.961584 
L 426.279555 292.163168 
L 426.635815 292.163168 
L 426.635815 291.364752 
L 429.995369 291.364752 
L 429.995369 290.566337 
L 432.7758 290.566337 
L 432.7758 289.767921 
L 433.211286 289.767921 
L 433.211286 288.969505 
L 433.428087 288.969505 
L 433.536254 286.574257 
L 436.607289 286.574257 
L 436.607289 285.775842 
L 437.330163 285.775842 
L 437.330163 284.977426 
L 440.154138 284.977426 
L 440.154138 284.17901 
L 440.745726 284.17901 
L 440.745726 283.380594 
L 442.397062 283.380594 
L 442.397062 282.582178 
L 442.684749 282.582178 
L 442.684749 281.783762 
L 461.8 281.783762 
L 461.8 281.783762 
" clip-path="url(#pc80e251e65)" style="fill: none; stroke: #f5deb3; stroke-width: 1.5; stroke-linecap: square"/>
   </g>
   <g id="line2d_27">
    <path d="M 317.5766 293.76 
L 317.5766 292.961584 
L 333.857071 292.961584 
L 333.857071 292.163168 
L 334.666003 292.163168 
L 334.666003 291.364752 
L 337.430668 291.364752 
L 337.430668 290.566337 
L 345.859368 290.566337 
L 345.859368 288.969505 
L 346.892289 288.969505 
L 346.892289 288.171089 
L 352.17375 288.171089 
L 352.17375 287.372673 
L 365.303092 287.372673 
L 365.303092 286.574257 
L 369.215408 286.574257 
L 369.215408 285.775842 
L 375.315175 285.775842 
L 375.315175 284.977426 
L 378.974495 284.977426 
L 378.974495 284.17901 
L 381.174357 284.17901 
L 381.174357 283.380594 
L 394.091226 283.380594 
L 394.091226 282.582178 
L 394.455537 282.582178 
L 394.455537 281.783762 
L 412.18164 281.783762 
L 412.18164 280.985347 
L 414.025256 280.985347 
L 414.025256 280.186931 
L 417.982047 280.186931 
L 417.982047 279.388515 
L 419.299593 279.388515 
L 419.299593 277.791683 
L 420.59446 277.791683 
L 420.59446 276.993267 
L 422.370628 276.993267 
L 422.370628 276.194851 
L 424.228252 276.194851 
L 424.228252 275.396436 
L 425.3212 275.396436 
L 425.3212 274.59802 
L 425.682015 274.59802 
L 425.682015 273.799604 
L 426.160427 273.799604 
L 426.160427 273.001188 
L 428.044216 273.001188 
L 428.044216 271.404356 
L 429.654704 271.404356 
L 429.654704 270.605941 
L 431.119903 270.605941 
L 431.119903 269.807525 
L 432.007582 269.807525 
L 432.007582 269.009109 
L 439.85659 269.009109 
L 439.85659 268.210693 
L 461.8 268.210693 
L 461.8 268.210693 
" clip-path="url(#pc80e251e65)" style="fill: none; stroke: #f5deb3; stroke-width: 1.5; stroke-linecap: square"/>
   </g>
   <g id="line2d_28">
    <path d="M 227.505033 293.76 
L 227.505033 292.961584 
L 256.31751 292.961584 
L 256.31751 292.163168 
L 276.23031 292.163168 
L 276.23031 290.566337 
L 277.95981 290.566337 
L 277.95981 289.767921 
L 286.056856 289.767921 
L 286.056856 288.969505 
L 292.666659 288.969505 
L 292.666659 287.372673 
L 293.366477 287.372673 
L 293.366477 286.574257 
L 306.147968 286.574257 
L 306.147968 285.775842 
L 306.733418 285.775842 
L 306.733418 284.17901 
L 318.079812 284.17901 
L 318.079812 283.380594 
L 335.06723 283.380594 
L 335.06723 282.582178 
L 344.459701 282.582178 
L 344.459701 281.783762 
L 412.611118 281.783762 
L 412.611118 280.985347 
L 415.413301 280.985347 
L 415.413301 280.186931 
L 424.228252 280.186931 
L 424.228252 279.388515 
L 425.200542 279.388515 
L 425.200542 278.590099 
L 426.398496 278.590099 
L 426.398496 277.791683 
L 437.432866 277.791683 
L 437.432866 276.993267 
L 442.108271 276.993267 
L 442.108271 276.194851 
L 453.622299 276.194851 
L 453.622299 275.396436 
L 454.281492 275.396436 
L 454.281492 274.59802 
L 454.853586 274.59802 
L 454.853586 273.799604 
L 455.259577 273.799604 
L 455.259577 273.001188 
L 455.743891 273.001188 
L 455.743891 272.202772 
L 457.885531 272.202772 
L 457.885531 271.404356 
L 458.197688 271.404356 
L 458.197688 270.605941 
L 458.740867 270.605941 
L 458.740867 269.807525 
L 459.663002 269.807525 
L 459.663002 269.009109 
L 460.043914 269.009109 
L 460.043914 268.210693 
L 460.19574 268.210693 
L 460.19574 267.412277 
L 461.8 267.412277 
L 461.8 267.412277 
" clip-path="url(#pc80e251e65)" style="fill: none; stroke: #f5deb3; stroke-width: 1.5; stroke-linecap: square"/>
   </g>
   <g id="line2d_29">
    <path d="M 114.353408 293.76 
L 114.353408 281.783762 
L 149.711744 281.783762 
L 149.711744 279.388515 
L 154.27253 279.388515 
L 154.27253 274.59802 
L 241.221069 274.59802 
L 241.221069 272.202772 
L 242.601473 272.202772 
L 242.601473 269.807525 
L 348.916535 269.807525 
L 348.916535 267.412277 
L 377.623022 267.412277 
L 377.623022 265.01703 
L 380.302116 265.01703 
L 380.302116 262.621782 
L 380.957243 262.621782 
L 380.957243 260.226535 
L 385.184755 260.226535 
L 385.184755 257.831287 
L 392.05536 257.831287 
L 392.05536 255.43604 
L 392.616083 255.43604 
L 392.616083 253.040792 
L 395.538 253.040792 
L 395.538 250.645545 
L 414.99957 250.645545 
L 414.99957 248.250297 
L 417.582242 248.250297 
L 417.582242 245.85505 
L 440.351851 245.85505 
L 440.351851 243.459802 
L 454.034971 243.459802 
L 454.034971 241.064554 
L 461.8 241.064554 
L 461.8 241.064554 
" clip-path="url(#pc80e251e65)" style="fill: none; stroke: #f5deb3; stroke-width: 1.5; stroke-linecap: square"/>
   </g>
   <g id="line2d_30">
    <path d="M 220.501847 293.76 
L 220.501847 292.961584 
L 227.505033 292.961584 
L 227.505033 292.163168 
L 260.744076 292.163168 
L 260.744076 291.364752 
L 261.811185 291.364752 
L 261.811185 290.566337 
L 267.914253 290.566337 
L 267.914253 289.767921 
L 271.724177 289.767921 
L 271.724177 288.969505 
L 273.559144 288.969505 
L 273.559144 288.171089 
L 273.559144 288.171089 
L 273.559144 287.372673 
L 274.460112 287.372673 
L 274.460112 286.574257 
L 274.460112 286.574257 
L 274.460112 285.775842 
L 274.460112 285.775842 
L 274.460112 284.977426 
L 277.95981 284.977426 
L 277.95981 284.17901 
L 278.809874 284.17901 
L 278.809874 283.380594 
L 279.650441 283.380594 
L 279.650441 282.582178 
L 279.650441 282.582178 
L 279.650441 281.783762 
L 279.650441 281.783762 
L 279.650441 280.985347 
L 280.481719 280.985347 
L 280.481719 280.186931 
L 281.303912 280.186931 
L 281.303912 279.388515 
L 281.303912 279.388515 
L 281.303912 278.590099 
L 282.117216 278.590099 
L 282.117216 277.791683 
L 283.717914 277.791683 
L 283.717914 276.993267 
L 284.505669 276.993267 
L 284.505669 276.194851 
L 285.28526 276.194851 
L 285.28526 275.396436 
L 289.066454 275.396436 
L 289.066454 274.59802 
L 290.527275 274.59802 
L 290.527275 273.799604 
L 291.960269 273.799604 
L 291.960269 273.001188 
L 291.960269 273.001188 
L 291.960269 272.202772 
L 293.366477 272.202772 
L 293.366477 271.404356 
L 294.059845 271.404356 
L 294.059845 270.605941 
L 300.663198 270.605941 
L 300.663198 269.807525 
L 313.956593 269.807525 
L 313.956593 269.009109 
L 313.956593 269.009109 
L 313.956593 268.210693 
L 313.956593 268.210693 
L 313.956593 267.412277 
L 313.956593 267.412277 
L 313.956593 266.613861 
L 313.956593 266.613861 
L 313.956593 265.815446 
L 313.956593 265.815446 
L 313.956593 265.01703 
L 313.956593 265.01703 
L 313.956593 264.218614 
L 313.956593 264.218614 
L 313.956593 263.420198 
L 313.956593 263.420198 
L 313.956593 262.621782 
L 313.956593 262.621782 
L 313.956593 261.823366 
L 313.956593 261.823366 
L 313.956593 261.02495 
L 313.956593 261.02495 
L 313.956593 260.226535 
L 313.956593 260.226535 
L 313.956593 259.428119 
L 313.956593 259.428119 
L 313.956593 258.629703 
L 313.956593 258.629703 
L 313.956593 257.831287 
L 461.8 257.831287 
" clip-path="url(#pc80e251e65)" style="fill: none; stroke: #f5deb3; stroke-width: 1.5; stroke-linecap: square"/>
   </g>
   <g id="matplotlib.axis_1">
    <g id="xtick_1">
     <g id="line2d_31">
      <path d="M 62.208 293.76 
L 62.208 3.456 
" clip-path="url(#pc80e251e65)" style="fill: none; stroke: #b0b0b0; stroke-width: 0.8; stroke-linecap: square"/>
     </g>
     <g id="line2d_32">
      <defs>
       <path id="ma2caec18eb" d="M 0 0 
L 0 3.5 
" style="stroke: #000000; stroke-width: 0.8"/>
      </defs>
      <g>
       <use xlink:href="#ma2caec18eb" x="62.208" y="293.76" style="stroke: #000000; stroke-width: 0.8"/>
      </g>
     </g>
     <g id="text_1">
      <!-- 0 -->
      <g transform="translate(55.8455 315.956875) scale(0.2 -0.2)">
       <defs>
        <path id="DejaVuSans-30" d="M 2034 4250 
Q 1547 4250 1301 3770 
Q 1056 3291 1056 2328 
Q 1056 1369 1301 889 
Q 1547 409 2034 409 
Q 2525 409 2770 889 
Q 3016 1369 3016 2328 
Q 3016 3291 2770 3770 
Q 2525 4250 2034 4250 
z
M 2034 4750 
Q 2819 4750 3233 4129 
Q 3647 3509 3647 2328 
Q 3647 1150 3233 529 
Q 2819 -91 2034 -91 
Q 1250 -91 836 529 
Q 422 1150 422 2328 
Q 422 3509 836 4129 
Q 1250 4750 2034 4750 
z
" transform="scale(0.015625)"/>
       </defs>
       <use xlink:href="#DejaVuSans-30"/>
      </g>
     </g>
    </g>
    <g id="xtick_2">
     <g id="line2d_33">
      <path d="M 408.654592 293.76 
L 408.654592 3.456 
" clip-path="url(#pc80e251e65)" style="fill: none; stroke: #b0b0b0; stroke-width: 0.8; stroke-linecap: square"/>
     </g>
     <g id="line2d_34">
      <g>
       <use xlink:href="#ma2caec18eb" x="408.654592" y="293.76" style="stroke: #000000; stroke-width: 0.8"/>
      </g>
     </g>
     <g id="text_2">
      <!-- 2 -->
      <g transform="translate(402.292092 315.956875) scale(0.2 -0.2)">
       <defs>
        <path id="DejaVuSans-32" d="M 1228 531 
L 3431 531 
L 3431 0 
L 469 0 
L 469 531 
Q 828 903 1448 1529 
Q 2069 2156 2228 2338 
Q 2531 2678 2651 2914 
Q 2772 3150 2772 3378 
Q 2772 3750 2511 3984 
Q 2250 4219 1831 4219 
Q 1534 4219 1204 4116 
Q 875 4013 500 3803 
L 500 4441 
Q 881 4594 1212 4672 
Q 1544 4750 1819 4750 
Q 2544 4750 2975 4387 
Q 3406 4025 3406 3419 
Q 3406 3131 3298 2873 
Q 3191 2616 2906 2266 
Q 2828 2175 2409 1742 
Q 1991 1309 1228 531 
z
" transform="scale(0.015625)"/>
       </defs>
       <use xlink:href="#DejaVuSans-32"/>
      </g>
     </g>
    </g>
    <g id="xtick_3">
     <g id="line2d_35">
      <path d="M 114.353408 293.76 
L 114.353408 3.456 
" clip-path="url(#pc80e251e65)" style="fill: none; stroke: #b0b0b0; stroke-width: 0.8; stroke-linecap: square"/>
     </g>
     <g id="line2d_36">
      <defs>
       <path id="me397e41d1b" d="M 0 0 
L 0 2 
" style="stroke: #000000; stroke-width: 0.6"/>
      </defs>
      <g>
       <use xlink:href="#me397e41d1b" x="114.353408" y="293.76" style="stroke: #000000; stroke-width: 0.6"/>
      </g>
     </g>
    </g>
    <g id="xtick_4">
     <g id="line2d_37">
      <path d="M 144.856516 293.76 
L 144.856516 3.456 
" clip-path="url(#pc80e251e65)" style="fill: none; stroke: #b0b0b0; stroke-width: 0.8; stroke-linecap: square"/>
     </g>
     <g id="line2d_38">
      <g>
       <use xlink:href="#me397e41d1b" x="144.856516" y="293.76" style="stroke: #000000; stroke-width: 0.6"/>
      </g>
     </g>
    </g>
    <g id="xtick_5">
     <g id="line2d_39">
      <path d="M 166.498816 293.76 
L 166.498816 3.456 
" clip-path="url(#pc80e251e65)" style="fill: none; stroke: #b0b0b0; stroke-width: 0.8; stroke-linecap: square"/>
     </g>
     <g id="line2d_40">
      <g>
       <use xlink:href="#me397e41d1b" x="166.498816" y="293.76" style="stroke: #000000; stroke-width: 0.6"/>
      </g>
     </g>
    </g>
    <g id="xtick_6">
     <g id="line2d_41">
      <path d="M 183.285888 293.76 
L 183.285888 3.456 
" clip-path="url(#pc80e251e65)" style="fill: none; stroke: #b0b0b0; stroke-width: 0.8; stroke-linecap: square"/>
     </g>
     <g id="line2d_42">
      <g>
       <use xlink:href="#me397e41d1b" x="183.285888" y="293.76" style="stroke: #000000; stroke-width: 0.6"/>
      </g>
     </g>
    </g>
    <g id="xtick_7">
     <g id="line2d_43">
      <path d="M 197.001924 293.76 
L 197.001924 3.456 
" clip-path="url(#pc80e251e65)" style="fill: none; stroke: #b0b0b0; stroke-width: 0.8; stroke-linecap: square"/>
     </g>
     <g id="line2d_44">
      <g>
       <use xlink:href="#me397e41d1b" x="197.001924" y="293.76" style="stroke: #000000; stroke-width: 0.6"/>
      </g>
     </g>
    </g>
    <g id="xtick_8">
     <g id="line2d_45">
      <path d="M 208.598668 293.76 
L 208.598668 3.456 
" clip-path="url(#pc80e251e65)" style="fill: none; stroke: #b0b0b0; stroke-width: 0.8; stroke-linecap: square"/>
     </g>
     <g id="line2d_46">
      <g>
       <use xlink:href="#me397e41d1b" x="208.598668" y="293.76" style="stroke: #000000; stroke-width: 0.6"/>
      </g>
     </g>
    </g>
    <g id="xtick_9">
     <g id="line2d_47">
      <path d="M 218.644224 293.76 
L 218.644224 3.456 
" clip-path="url(#pc80e251e65)" style="fill: none; stroke: #b0b0b0; stroke-width: 0.8; stroke-linecap: square"/>
     </g>
     <g id="line2d_48">
      <g>
       <use xlink:href="#me397e41d1b" x="218.644224" y="293.76" style="stroke: #000000; stroke-width: 0.6"/>
      </g>
     </g>
    </g>
    <g id="xtick_10">
     <g id="line2d_49">
      <path d="M 227.505033 293.76 
L 227.505033 3.456 
" clip-path="url(#pc80e251e65)" style="fill: none; stroke: #b0b0b0; stroke-width: 0.8; stroke-linecap: square"/>
     </g>
     <g id="line2d_50">
      <g>
       <use xlink:href="#me397e41d1b" x="227.505033" y="293.76" style="stroke: #000000; stroke-width: 0.6"/>
      </g>
     </g>
    </g>
    <g id="xtick_11">
     <g id="line2d_51">
      <path d="M 287.576704 293.76 
L 287.576704 3.456 
" clip-path="url(#pc80e251e65)" style="fill: none; stroke: #b0b0b0; stroke-width: 0.8; stroke-linecap: square"/>
     </g>
     <g id="line2d_52">
      <g>
       <use xlink:href="#me397e41d1b" x="287.576704" y="293.76" style="stroke: #000000; stroke-width: 0.6"/>
      </g>
     </g>
    </g>
    <g id="xtick_12">
     <g id="line2d_53">
      <path d="M 318.079812 293.76 
L 318.079812 3.456 
" clip-path="url(#pc80e251e65)" style="fill: none; stroke: #b0b0b0; stroke-width: 0.8; stroke-linecap: square"/>
     </g>
     <g id="line2d_54">
      <g>
       <use xlink:href="#me397e41d1b" x="318.079812" y="293.76" style="stroke: #000000; stroke-width: 0.6"/>
      </g>
     </g>
    </g>
    <g id="xtick_13">
     <g id="line2d_55">
      <path d="M 339.722112 293.76 
L 339.722112 3.456 
" clip-path="url(#pc80e251e65)" style="fill: none; stroke: #b0b0b0; stroke-width: 0.8; stroke-linecap: square"/>
     </g>
     <g id="line2d_56">
      <g>
       <use xlink:href="#me397e41d1b" x="339.722112" y="293.76" style="stroke: #000000; stroke-width: 0.6"/>
      </g>
     </g>
    </g>
    <g id="xtick_14">
     <g id="line2d_57">
      <path d="M 356.509184 293.76 
L 356.509184 3.456 
" clip-path="url(#pc80e251e65)" style="fill: none; stroke: #b0b0b0; stroke-width: 0.8; stroke-linecap: square"/>
     </g>
     <g id="line2d_58">
      <g>
       <use xlink:href="#me397e41d1b" x="356.509184" y="293.76" style="stroke: #000000; stroke-width: 0.6"/>
      </g>
     </g>
    </g>
    <g id="xtick_15">
     <g id="line2d_59">
      <path d="M 370.22522 293.76 
L 370.22522 3.456 
" clip-path="url(#pc80e251e65)" style="fill: none; stroke: #b0b0b0; stroke-width: 0.8; stroke-linecap: square"/>
     </g>
     <g id="line2d_60">
      <g>
       <use xlink:href="#me397e41d1b" x="370.22522" y="293.76" style="stroke: #000000; stroke-width: 0.6"/>
      </g>
     </g>
    </g>
    <g id="xtick_16">
     <g id="line2d_61">
      <path d="M 381.821964 293.76 
L 381.821964 3.456 
" clip-path="url(#pc80e251e65)" style="fill: none; stroke: #b0b0b0; stroke-width: 0.8; stroke-linecap: square"/>
     </g>
     <g id="line2d_62">
      <g>
       <use xlink:href="#me397e41d1b" x="381.821964" y="293.76" style="stroke: #000000; stroke-width: 0.6"/>
      </g>
     </g>
    </g>
    <g id="xtick_17">
     <g id="line2d_63">
      <path d="M 391.86752 293.76 
L 391.86752 3.456 
" clip-path="url(#pc80e251e65)" style="fill: none; stroke: #b0b0b0; stroke-width: 0.8; stroke-linecap: square"/>
     </g>
     <g id="line2d_64">
      <g>
       <use xlink:href="#me397e41d1b" x="391.86752" y="293.76" style="stroke: #000000; stroke-width: 0.6"/>
      </g>
     </g>
    </g>
    <g id="xtick_18">
     <g id="line2d_65">
      <path d="M 400.728329 293.76 
L 400.728329 3.456 
" clip-path="url(#pc80e251e65)" style="fill: none; stroke: #b0b0b0; stroke-width: 0.8; stroke-linecap: square"/>
     </g>
     <g id="line2d_66">
      <g>
       <use xlink:href="#me397e41d1b" x="400.728329" y="293.76" style="stroke: #000000; stroke-width: 0.6"/>
      </g>
     </g>
    </g>
    <g id="xtick_19">
     <g id="line2d_67">
      <path d="M 460.8 293.76 
L 460.8 3.456 
" clip-path="url(#pc80e251e65)" style="fill: none; stroke: #b0b0b0; stroke-width: 0.8; stroke-linecap: square"/>
     </g>
     <g id="line2d_68">
      <g>
       <use xlink:href="#me397e41d1b" x="460.8" y="293.76" style="stroke: #000000; stroke-width: 0.6"/>
      </g>
     </g>
    </g>
    <g id="text_3">
     <!-- log10 of FEvals / DIM -->
     <g transform="translate(156.430563 339.313125) scale(0.2 -0.2)">
      <defs>
       <path id="DejaVuSans-6c" d="M 603 4863 
L 1178 4863 
L 1178 0 
L 603 0 
L 603 4863 
z
" transform="scale(0.015625)"/>
       <path id="DejaVuSans-6f" d="M 1959 3097 
Q 1497 3097 1228 2736 
Q 959 2375 959 1747 
Q 959 1119 1226 758 
Q 1494 397 1959 397 
Q 2419 397 2687 759 
Q 2956 1122 2956 1747 
Q 2956 2369 2687 2733 
Q 2419 3097 1959 3097 
z
M 1959 3584 
Q 2709 3584 3137 3096 
Q 3566 2609 3566 1747 
Q 3566 888 3137 398 
Q 2709 -91 1959 -91 
Q 1206 -91 779 398 
Q 353 888 353 1747 
Q 353 2609 779 3096 
Q 1206 3584 1959 3584 
z
" transform="scale(0.015625)"/>
       <path id="DejaVuSans-67" d="M 2906 1791 
Q 2906 2416 2648 2759 
Q 2391 3103 1925 3103 
Q 1463 3103 1205 2759 
Q 947 2416 947 1791 
Q 947 1169 1205 825 
Q 1463 481 1925 481 
Q 2391 481 2648 825 
Q 2906 1169 2906 1791 
z
M 3481 434 
Q 3481 -459 3084 -895 
Q 2688 -1331 1869 -1331 
Q 1566 -1331 1297 -1286 
Q 1028 -1241 775 -1147 
L 775 -588 
Q 1028 -725 1275 -790 
Q 1522 -856 1778 -856 
Q 2344 -856 2625 -561 
Q 2906 -266 2906 331 
L 2906 616 
Q 2728 306 2450 153 
Q 2172 0 1784 0 
Q 1141 0 747 490 
Q 353 981 353 1791 
Q 353 2603 747 3093 
Q 1141 3584 1784 3584 
Q 2172 3584 2450 3431 
Q 2728 3278 2906 2969 
L 2906 3500 
L 3481 3500 
L 3481 434 
z
" transform="scale(0.015625)"/>
       <path id="DejaVuSans-31" d="M 794 531 
L 1825 531 
L 1825 4091 
L 703 3866 
L 703 4441 
L 1819 4666 
L 2450 4666 
L 2450 531 
L 3481 531 
L 3481 0 
L 794 0 
L 794 531 
z
" transform="scale(0.015625)"/>
       <path id="DejaVuSans-20" transform="scale(0.015625)"/>
       <path id="DejaVuSans-66" d="M 2375 4863 
L 2375 4384 
L 1825 4384 
Q 1516 4384 1395 4259 
Q 1275 4134 1275 3809 
L 1275 3500 
L 2222 3500 
L 2222 3053 
L 1275 3053 
L 1275 0 
L 697 0 
L 697 3053 
L 147 3053 
L 147 3500 
L 697 3500 
L 697 3744 
Q 697 4328 969 4595 
Q 1241 4863 1831 4863 
L 2375 4863 
z
" transform="scale(0.015625)"/>
       <path id="DejaVuSans-46" d="M 628 4666 
L 3309 4666 
L 3309 4134 
L 1259 4134 
L 1259 2759 
L 3109 2759 
L 3109 2228 
L 1259 2228 
L 1259 0 
L 628 0 
L 628 4666 
z
" transform="scale(0.015625)"/>
       <path id="DejaVuSans-45" d="M 628 4666 
L 3578 4666 
L 3578 4134 
L 1259 4134 
L 1259 2753 
L 3481 2753 
L 3481 2222 
L 1259 2222 
L 1259 531 
L 3634 531 
L 3634 0 
L 628 0 
L 628 4666 
z
" transform="scale(0.015625)"/>
       <path id="DejaVuSans-76" d="M 191 3500 
L 800 3500 
L 1894 563 
L 2988 3500 
L 3597 3500 
L 2284 0 
L 1503 0 
L 191 3500 
z
" transform="scale(0.015625)"/>
       <path id="DejaVuSans-61" d="M 2194 1759 
Q 1497 1759 1228 1600 
Q 959 1441 959 1056 
Q 959 750 1161 570 
Q 1363 391 1709 391 
Q 2188 391 2477 730 
Q 2766 1069 2766 1631 
L 2766 1759 
L 2194 1759 
z
M 3341 1997 
L 3341 0 
L 2766 0 
L 2766 531 
Q 2569 213 2275 61 
Q 1981 -91 1556 -91 
Q 1019 -91 701 211 
Q 384 513 384 1019 
Q 384 1609 779 1909 
Q 1175 2209 1959 2209 
L 2766 2209 
L 2766 2266 
Q 2766 2663 2505 2880 
Q 2244 3097 1772 3097 
Q 1472 3097 1187 3025 
Q 903 2953 641 2809 
L 641 3341 
Q 956 3463 1253 3523 
Q 1550 3584 1831 3584 
Q 2591 3584 2966 3190 
Q 3341 2797 3341 1997 
z
" transform="scale(0.015625)"/>
       <path id="DejaVuSans-73" d="M 2834 3397 
L 2834 2853 
Q 2591 2978 2328 3040 
Q 2066 3103 1784 3103 
Q 1356 3103 1142 2972 
Q 928 2841 928 2578 
Q 928 2378 1081 2264 
Q 1234 2150 1697 2047 
L 1894 2003 
Q 2506 1872 2764 1633 
Q 3022 1394 3022 966 
Q 3022 478 2636 193 
Q 2250 -91 1575 -91 
Q 1294 -91 989 -36 
Q 684 19 347 128 
L 347 722 
Q 666 556 975 473 
Q 1284 391 1588 391 
Q 1994 391 2212 530 
Q 2431 669 2431 922 
Q 2431 1156 2273 1281 
Q 2116 1406 1581 1522 
L 1381 1569 
Q 847 1681 609 1914 
Q 372 2147 372 2553 
Q 372 3047 722 3315 
Q 1072 3584 1716 3584 
Q 2034 3584 2315 3537 
Q 2597 3491 2834 3397 
z
" transform="scale(0.015625)"/>
       <path id="DejaVuSans-2f" d="M 1625 4666 
L 2156 4666 
L 531 -594 
L 0 -594 
L 1625 4666 
z
" transform="scale(0.015625)"/>
       <path id="DejaVuSans-44" d="M 1259 4147 
L 1259 519 
L 2022 519 
Q 2988 519 3436 956 
Q 3884 1394 3884 2338 
Q 3884 3275 3436 3711 
Q 2988 4147 2022 4147 
L 1259 4147 
z
M 628 4666 
L 1925 4666 
Q 3281 4666 3915 4102 
Q 4550 3538 4550 2338 
Q 4550 1131 3912 565 
Q 3275 0 1925 0 
L 628 0 
L 628 4666 
z
" transform="scale(0.015625)"/>
       <path id="DejaVuSans-49" d="M 628 4666 
L 1259 4666 
L 1259 0 
L 628 0 
L 628 4666 
z
" transform="scale(0.015625)"/>
       <path id="DejaVuSans-4d" d="M 628 4666 
L 1569 4666 
L 2759 1491 
L 3956 4666 
L 4897 4666 
L 4897 0 
L 4281 0 
L 4281 4097 
L 3078 897 
L 2444 897 
L 1241 4097 
L 1241 0 
L 628 0 
L 628 4666 
z
" transform="scale(0.015625)"/>
      </defs>
      <use xlink:href="#DejaVuSans-6c"/>
      <use xlink:href="#DejaVuSans-6f" x="27.783203"/>
      <use xlink:href="#DejaVuSans-67" x="88.964844"/>
      <use xlink:href="#DejaVuSans-31" x="152.441406"/>
      <use xlink:href="#DejaVuSans-30" x="216.064453"/>
      <use xlink:href="#DejaVuSans-20" x="279.6875"/>
      <use xlink:href="#DejaVuSans-6f" x="311.474609"/>
      <use xlink:href="#DejaVuSans-66" x="372.65625"/>
      <use xlink:href="#DejaVuSans-20" x="407.861328"/>
      <use xlink:href="#DejaVuSans-46" x="439.648438"/>
      <use xlink:href="#DejaVuSans-45" x="497.167969"/>
      <use xlink:href="#DejaVuSans-76" x="560.351562"/>
      <use xlink:href="#DejaVuSans-61" x="619.53125"/>
      <use xlink:href="#DejaVuSans-6c" x="680.810547"/>
      <use xlink:href="#DejaVuSans-73" x="708.59375"/>
      <use xlink:href="#DejaVuSans-20" x="760.693359"/>
      <use xlink:href="#DejaVuSans-2f" x="792.480469"/>
      <use xlink:href="#DejaVuSans-20" x="826.171875"/>
      <use xlink:href="#DejaVuSans-44" x="857.958984"/>
      <use xlink:href="#DejaVuSans-49" x="934.960938"/>
      <use xlink:href="#DejaVuSans-4d" x="964.453125"/>
     </g>
    </g>
   </g>
   <g id="matplotlib.axis_2">
    <g id="ytick_1">
     <g id="line2d_69">
      <path d="M 62.208 293.76 
L 460.8 293.76 
" clip-path="url(#pc80e251e65)" style="fill: none; stroke: #b0b0b0; stroke-width: 0.8; stroke-linecap: square"/>
     </g>
     <g id="line2d_70">
      <defs>
       <path id="m7945336352" d="M 0 0 
L -3.5 0 
" style="stroke: #000000; stroke-width: 0.8"/>
      </defs>
      <g>
       <use xlink:href="#m7945336352" x="62.208" y="293.76" style="stroke: #000000; stroke-width: 0.8"/>
      </g>
     </g>
     <g id="text_4">
      <!-- 0.0 -->
      <g transform="translate(29.763 299.83875) scale(0.16 -0.16)">
       <defs>
        <path id="DejaVuSans-2e" d="M 684 794 
L 1344 794 
L 1344 0 
L 684 0 
L 684 794 
z
" transform="scale(0.015625)"/>
       </defs>
       <use xlink:href="#DejaVuSans-30"/>
       <use xlink:href="#DejaVuSans-2e" x="63.623047"/>
       <use xlink:href="#DejaVuSans-30" x="95.410156"/>
      </g>
     </g>
    </g>
    <g id="ytick_2">
     <g id="line2d_71">
      <path d="M 62.208 236.274059 
L 460.8 236.274059 
" clip-path="url(#pc80e251e65)" style="fill: none; stroke: #b0b0b0; stroke-width: 0.8; stroke-linecap: square"/>
     </g>
     <g id="line2d_72">
      <g>
       <use xlink:href="#m7945336352" x="62.208" y="236.274059" style="stroke: #000000; stroke-width: 0.8"/>
      </g>
     </g>
     <g id="text_5">
      <!-- 0.2 -->
      <g transform="translate(29.763 242.352809) scale(0.16 -0.16)">
       <use xlink:href="#DejaVuSans-30"/>
       <use xlink:href="#DejaVuSans-2e" x="63.623047"/>
       <use xlink:href="#DejaVuSans-32" x="95.410156"/>
      </g>
     </g>
    </g>
    <g id="ytick_3">
     <g id="line2d_73">
      <path d="M 62.208 178.788119 
L 460.8 178.788119 
" clip-path="url(#pc80e251e65)" style="fill: none; stroke: #b0b0b0; stroke-width: 0.8; stroke-linecap: square"/>
     </g>
     <g id="line2d_74">
      <g>
       <use xlink:href="#m7945336352" x="62.208" y="178.788119" style="stroke: #000000; stroke-width: 0.8"/>
      </g>
     </g>
     <g id="text_6">
      <!-- 0.4 -->
      <g transform="translate(29.763 184.866869) scale(0.16 -0.16)">
       <defs>
        <path id="DejaVuSans-34" d="M 2419 4116 
L 825 1625 
L 2419 1625 
L 2419 4116 
z
M 2253 4666 
L 3047 4666 
L 3047 1625 
L 3713 1625 
L 3713 1100 
L 3047 1100 
L 3047 0 
L 2419 0 
L 2419 1100 
L 313 1100 
L 313 1709 
L 2253 4666 
z
" transform="scale(0.015625)"/>
       </defs>
       <use xlink:href="#DejaVuSans-30"/>
       <use xlink:href="#DejaVuSans-2e" x="63.623047"/>
       <use xlink:href="#DejaVuSans-34" x="95.410156"/>
      </g>
     </g>
    </g>
    <g id="ytick_4">
     <g id="line2d_75">
      <path d="M 62.208 121.302178 
L 460.8 121.302178 
" clip-path="url(#pc80e251e65)" style="fill: none; stroke: #b0b0b0; stroke-width: 0.8; stroke-linecap: square"/>
     </g>
     <g id="line2d_76">
      <g>
       <use xlink:href="#m7945336352" x="62.208" y="121.302178" style="stroke: #000000; stroke-width: 0.8"/>
      </g>
     </g>
     <g id="text_7">
      <!-- 0.6 -->
      <g transform="translate(29.763 127.380928) scale(0.16 -0.16)">
       <defs>
        <path id="DejaVuSans-36" d="M 2113 2584 
Q 1688 2584 1439 2293 
Q 1191 2003 1191 1497 
Q 1191 994 1439 701 
Q 1688 409 2113 409 
Q 2538 409 2786 701 
Q 3034 994 3034 1497 
Q 3034 2003 2786 2293 
Q 2538 2584 2113 2584 
z
M 3366 4563 
L 3366 3988 
Q 3128 4100 2886 4159 
Q 2644 4219 2406 4219 
Q 1781 4219 1451 3797 
Q 1122 3375 1075 2522 
Q 1259 2794 1537 2939 
Q 1816 3084 2150 3084 
Q 2853 3084 3261 2657 
Q 3669 2231 3669 1497 
Q 3669 778 3244 343 
Q 2819 -91 2113 -91 
Q 1303 -91 875 529 
Q 447 1150 447 2328 
Q 447 3434 972 4092 
Q 1497 4750 2381 4750 
Q 2619 4750 2861 4703 
Q 3103 4656 3366 4563 
z
" transform="scale(0.015625)"/>
       </defs>
       <use xlink:href="#DejaVuSans-30"/>
       <use xlink:href="#DejaVuSans-2e" x="63.623047"/>
       <use xlink:href="#DejaVuSans-36" x="95.410156"/>
      </g>
     </g>
    </g>
    <g id="ytick_5">
     <g id="line2d_77">
      <path d="M 62.208 63.816238 
L 460.8 63.816238 
" clip-path="url(#pc80e251e65)" style="fill: none; stroke: #b0b0b0; stroke-width: 0.8; stroke-linecap: square"/>
     </g>
     <g id="line2d_78">
      <g>
       <use xlink:href="#m7945336352" x="62.208" y="63.816238" style="stroke: #000000; stroke-width: 0.8"/>
      </g>
     </g>
     <g id="text_8">
      <!-- 0.8 -->
      <g transform="translate(29.763 69.894988) scale(0.16 -0.16)">
       <defs>
        <path id="DejaVuSans-38" d="M 2034 2216 
Q 1584 2216 1326 1975 
Q 1069 1734 1069 1313 
Q 1069 891 1326 650 
Q 1584 409 2034 409 
Q 2484 409 2743 651 
Q 3003 894 3003 1313 
Q 3003 1734 2745 1975 
Q 2488 2216 2034 2216 
z
M 1403 2484 
Q 997 2584 770 2862 
Q 544 3141 544 3541 
Q 544 4100 942 4425 
Q 1341 4750 2034 4750 
Q 2731 4750 3128 4425 
Q 3525 4100 3525 3541 
Q 3525 3141 3298 2862 
Q 3072 2584 2669 2484 
Q 3125 2378 3379 2068 
Q 3634 1759 3634 1313 
Q 3634 634 3220 271 
Q 2806 -91 2034 -91 
Q 1263 -91 848 271 
Q 434 634 434 1313 
Q 434 1759 690 2068 
Q 947 2378 1403 2484 
z
M 1172 3481 
Q 1172 3119 1398 2916 
Q 1625 2713 2034 2713 
Q 2441 2713 2670 2916 
Q 2900 3119 2900 3481 
Q 2900 3844 2670 4047 
Q 2441 4250 2034 4250 
Q 1625 4250 1398 4047 
Q 1172 3844 1172 3481 
z
" transform="scale(0.015625)"/>
       </defs>
       <use xlink:href="#DejaVuSans-30"/>
       <use xlink:href="#DejaVuSans-2e" x="63.623047"/>
       <use xlink:href="#DejaVuSans-38" x="95.410156"/>
      </g>
     </g>
    </g>
    <g id="ytick_6">
     <g id="line2d_79">
      <path d="M 62.208 6.330297 
L 460.8 6.330297 
" clip-path="url(#pc80e251e65)" style="fill: none; stroke: #b0b0b0; stroke-width: 0.8; stroke-linecap: square"/>
     </g>
     <g id="line2d_80">
      <g>
       <use xlink:href="#m7945336352" x="62.208" y="6.330297" style="stroke: #000000; stroke-width: 0.8"/>
      </g>
     </g>
     <g id="text_9">
      <!-- 1.0 -->
      <g transform="translate(29.763 12.409047) scale(0.16 -0.16)">
       <use xlink:href="#DejaVuSans-31"/>
       <use xlink:href="#DejaVuSans-2e" x="63.623047"/>
       <use xlink:href="#DejaVuSans-30" x="95.410156"/>
      </g>
     </g>
    </g>
    <g id="text_10">
     <!-- proportion of trials -->
     <g transform="translate(21.603625 241.61425) rotate(-90) scale(0.2 -0.2)">
      <defs>
       <path id="DejaVuSans-70" d="M 1159 525 
L 1159 -1331 
L 581 -1331 
L 581 3500 
L 1159 3500 
L 1159 2969 
Q 1341 3281 1617 3432 
Q 1894 3584 2278 3584 
Q 2916 3584 3314 3078 
Q 3713 2572 3713 1747 
Q 3713 922 3314 415 
Q 2916 -91 2278 -91 
Q 1894 -91 1617 61 
Q 1341 213 1159 525 
z
M 3116 1747 
Q 3116 2381 2855 2742 
Q 2594 3103 2138 3103 
Q 1681 3103 1420 2742 
Q 1159 2381 1159 1747 
Q 1159 1113 1420 752 
Q 1681 391 2138 391 
Q 2594 391 2855 752 
Q 3116 1113 3116 1747 
z
" transform="scale(0.015625)"/>
       <path id="DejaVuSans-72" d="M 2631 2963 
Q 2534 3019 2420 3045 
Q 2306 3072 2169 3072 
Q 1681 3072 1420 2755 
Q 1159 2438 1159 1844 
L 1159 0 
L 581 0 
L 581 3500 
L 1159 3500 
L 1159 2956 
Q 1341 3275 1631 3429 
Q 1922 3584 2338 3584 
Q 2397 3584 2469 3576 
Q 2541 3569 2628 3553 
L 2631 2963 
z
" transform="scale(0.015625)"/>
       <path id="DejaVuSans-74" d="M 1172 4494 
L 1172 3500 
L 2356 3500 
L 2356 3053 
L 1172 3053 
L 1172 1153 
Q 1172 725 1289 603 
Q 1406 481 1766 481 
L 2356 481 
L 2356 0 
L 1766 0 
Q 1100 0 847 248 
Q 594 497 594 1153 
L 594 3053 
L 172 3053 
L 172 3500 
L 594 3500 
L 594 4494 
L 1172 4494 
z
" transform="scale(0.015625)"/>
       <path id="DejaVuSans-69" d="M 603 3500 
L 1178 3500 
L 1178 0 
L 603 0 
L 603 3500 
z
M 603 4863 
L 1178 4863 
L 1178 4134 
L 603 4134 
L 603 4863 
z
" transform="scale(0.015625)"/>
       <path id="DejaVuSans-6e" d="M 3513 2113 
L 3513 0 
L 2938 0 
L 2938 2094 
Q 2938 2591 2744 2837 
Q 2550 3084 2163 3084 
Q 1697 3084 1428 2787 
Q 1159 2491 1159 1978 
L 1159 0 
L 581 0 
L 581 3500 
L 1159 3500 
L 1159 2956 
Q 1366 3272 1645 3428 
Q 1925 3584 2291 3584 
Q 2894 3584 3203 3211 
Q 3513 2838 3513 2113 
z
" transform="scale(0.015625)"/>
      </defs>
      <use xlink:href="#DejaVuSans-70"/>
      <use xlink:href="#DejaVuSans-72" x="63.476562"/>
      <use xlink:href="#DejaVuSans-6f" x="102.339844"/>
      <use xlink:href="#DejaVuSans-70" x="163.521484"/>
      <use xlink:href="#DejaVuSans-6f" x="226.998047"/>
      <use xlink:href="#DejaVuSans-72" x="288.179688"/>
      <use xlink:href="#DejaVuSans-74" x="329.292969"/>
      <use xlink:href="#DejaVuSans-69" x="368.501953"/>
      <use xlink:href="#DejaVuSans-6f" x="396.285156"/>
      <use xlink:href="#DejaVuSans-6e" x="457.466797"/>
      <use xlink:href="#DejaVuSans-20" x="520.845703"/>
      <use xlink:href="#DejaVuSans-6f" x="552.632812"/>
      <use xlink:href="#DejaVuSans-66" x="613.814453"/>
      <use xlink:href="#DejaVuSans-20" x="649.019531"/>
      <use xlink:href="#DejaVuSans-74" x="680.806641"/>
      <use xlink:href="#DejaVuSans-72" x="720.015625"/>
      <use xlink:href="#DejaVuSans-69" x="761.128906"/>
      <use xlink:href="#DejaVuSans-61" x="788.912109"/>
      <use xlink:href="#DejaVuSans-6c" x="850.191406"/>
      <use xlink:href="#DejaVuSans-73" x="877.974609"/>
     </g>
    </g>
   </g>
   <g id="line2d_81">
    <path d="M -1 273.001188 
L 97.566336 273.001188 
L 97.566336 272.202772 
L 149.711744 272.202772 
L 149.711744 271.404356 
L 194.451513 271.404356 
L 194.451513 270.605941 
L 201.857152 270.605941 
L 201.857152 269.807525 
L 210.717961 269.807525 
L 210.717961 269.009109 
L 214.785434 269.009109 
L 214.785434 268.210693 
L 218.644224 268.210693 
L 218.644224 267.412277 
L 242.601473 267.412277 
L 242.601473 265.815446 
L 243.957004 265.815446 
L 243.957004 264.218614 
L 249.147332 264.218614 
L 249.147332 263.420198 
L 250.39083 263.420198 
L 250.39083 261.823366 
L 251.614108 261.823366 
L 251.614108 261.02495 
L 256.31751 261.02495 
L 256.31751 260.226535 
L 257.448808 260.226535 
L 257.448808 257.831287 
L 259.661612 257.831287 
L 259.661612 255.43604 
L 260.744076 255.43604 
L 260.744076 254.637624 
L 261.811185 254.637624 
L 261.811185 251.44396 
L 262.863369 251.44396 
L 262.863369 249.048713 
L 263.901039 249.048713 
L 263.901039 248.250297 
L 264.924592 248.250297 
L 264.924592 245.056634 
L 265.934404 245.056634 
L 265.934404 242.661386 
L 266.930842 242.661386 
L 266.930842 241.064554 
L 267.914253 241.064554 
L 267.914253 240.266139 
L 268.884975 240.266139 
L 268.884975 239.467723 
L 274.460112 239.467723 
L 274.460112 238.669307 
L 277.95981 238.669307 
L 277.95981 236.274059 
L 282.117216 236.274059 
L 282.117216 235.475644 
L 287.576704 235.475644 
L 287.576704 233.878812 
L 288.325267 233.878812 
L 288.325267 233.080396 
L 292.666659 233.080396 
L 292.666659 232.28198 
L 294.746881 232.28198 
L 294.746881 231.483564 
L 299.388084 231.483564 
L 299.388084 230.685149 
L 303.759516 230.685149 
L 303.759516 229.886733 
L 307.314347 229.886733 
L 307.314347 229.088317 
L 307.890824 229.088317 
L 307.890824 228.289901 
L 309.030693 228.289901 
L 309.030693 227.491485 
L 315.008777 227.491485 
L 315.008777 226.693069 
L 315.529401 226.693069 
L 315.529401 225.894653 
L 316.046447 225.894653 
L 316.046447 225.096238 
L 317.07 225.096238 
L 317.07 224.297822 
L 319.569562 224.297822 
L 319.569562 223.499406 
L 321.030383 223.499406 
L 321.030383 222.70099 
L 321.988739 222.70099 
L 321.988739 221.902574 
L 324.33254 221.902574 
L 324.33254 221.104158 
L 327.495826 221.104158 
L 327.495826 220.305743 
L 327.937058 220.305743 
L 327.937058 219.507327 
L 330.531451 219.507327 
L 330.531451 218.708911 
L 332.212636 218.708911 
L 332.212636 217.910495 
L 333.44932 217.910495 
L 333.44932 217.112079 
L 333.857071 217.112079 
L 333.857071 216.313663 
L 334.666003 216.313663 
L 334.666003 215.515248 
L 335.863322 215.515248 
L 335.863322 214.716832 
L 338.966026 214.716832 
L 338.966026 213.12 
L 341.579735 213.12 
L 341.579735 211.523168 
L 347.91122 211.523168 
L 347.91122 210.724752 
L 348.582921 210.724752 
L 348.582921 209.926337 
L 352.491848 209.926337 
L 352.491848 209.127921 
L 353.438148 209.127921 
L 353.438148 208.329505 
L 355.904924 208.329505 
L 355.904924 207.531089 
L 357.406569 207.531089 
L 357.406569 206.732673 
L 364.765733 206.732673 
L 364.765733 205.934257 
L 371.221658 205.934257 
L 371.221658 205.135842 
L 378.301793 205.135842 
L 378.301793 204.337426 
L 380.7395 204.337426 
L 380.7395 203.53901 
L 382.889073 203.53901 
L 382.889073 202.740594 
L 383.941257 202.740594 
L 383.941257 201.942178 
L 389.381934 201.942178 
L 389.381934 201.143762 
L 390.730522 201.143762 
L 390.730522 200.345347 
L 390.921219 200.345347 
L 390.921219 199.546931 
L 394.455537 199.546931 
L 394.455537 197.950099 
L 404.319158 197.950099 
L 404.319158 197.151683 
L 405.426664 197.151683 
L 405.426664 196.353267 
L 406.672737 196.353267 
L 406.672737 195.554851 
L 406.981057 195.554851 
L 406.981057 194.756436 
L 412.468231 194.756436 
L 412.468231 193.95802 
L 414.583551 193.95802 
L 414.583551 193.159604 
L 414.72248 193.159604 
L 414.72248 192.361188 
L 414.99957 192.361188 
L 414.99957 191.562772 
L 415.413301 191.562772 
L 415.413301 190.764356 
L 415.961427 190.764356 
L 415.961427 189.965941 
L 418.511838 189.965941 
L 418.511838 189.167525 
L 419.037923 189.167525 
L 419.037923 188.369109 
L 419.949812 188.369109 
L 419.949812 187.570693 
L 421.487786 187.570693 
L 421.487786 186.772277 
L 421.867416 186.772277 
L 421.867416 185.973861 
L 423.24323 185.973861 
L 423.24323 185.175446 
L 425.441664 185.175446 
L 425.441664 184.37703 
L 426.872387 184.37703 
L 426.872387 183.578614 
L 428.738651 183.578614 
L 428.738651 182.780198 
L 429.540806 182.780198 
L 429.540806 181.981782 
L 431.342806 181.981782 
L 431.342806 181.183366 
L 432.7758 181.183366 
L 432.7758 180.38495 
L 433.102651 180.38495 
L 433.102651 179.586535 
L 435.562412 179.586535 
L 435.562412 178.788119 
L 439.25794 178.788119 
L 439.25794 177.989703 
L 441.430083 177.989703 
L 441.430083 176.392871 
L 441.915126 176.392871 
L 441.915126 175.594455 
L 443.256842 175.594455 
L 443.256842 174.79604 
L 443.918832 174.79604 
L 443.918832 173.997624 
L 451.609338 173.997624 
L 451.609338 173.199208 
L 453.124086 173.199208 
L 453.124086 172.400792 
L 457.257302 172.400792 
L 457.257302 171.602376 
L 459.663002 171.602376 
L 459.663002 170.80396 
L 460.724732 170.80396 
L 460.8 169.207129 
L 460.8 169.207129 
" clip-path="url(#pc80e251e65)" style="fill: none; stroke: #000000; stroke-width: 1.5; stroke-linecap: square"/>
   </g>
   <g id="line2d_82">
    <path clip-path="url(#pc80e251e65)" style="fill: none; stroke: #000000; stroke-width: 1.5; stroke-linecap: square"/>
   </g>
   <g id="line2d_83">
    <path d="M 183.285888 293.76 
L 183.285888 292.961584 
L 191.811596 292.961584 
L 191.811596 292.163168 
L 191.811596 292.163168 
L 191.811596 291.364752 
L 194.451513 291.364752 
L 194.451513 290.566337 
L 194.451513 290.566337 
L 194.451513 289.767921 
L 201.857152 289.767921 
L 201.857152 288.969505 
L 206.417938 288.969505 
L 206.417938 288.171089 
L 210.717961 288.171089 
L 210.717961 287.372673 
L 216.739567 287.372673 
L 216.739567 286.574257 
L 224.084902 286.574257 
L 224.084902 285.775842 
L 229.158504 285.775842 
L 229.158504 284.977426 
L 235.431296 284.977426 
L 235.431296 284.17901 
L 236.921046 284.17901 
L 236.921046 283.380594 
L 238.381867 283.380594 
L 238.381867 282.582178 
L 239.814861 282.582178 
L 239.814861 281.783762 
L 287.576704 281.783762 
L 287.576704 280.985347 
L 288.325267 280.985347 
L 288.325267 280.186931 
L 288.325267 280.186931 
L 288.325267 279.388515 
L 291.247184 279.388515 
L 291.247184 278.590099 
L 292.666659 278.590099 
L 292.666659 277.791683 
L 337.430668 277.791683 
L 337.430668 276.993267 
L 382.889073 276.993267 
L 382.889073 276.194851 
L 382.889073 276.194851 
L 382.889073 275.396436 
L 392.616083 275.396436 
L 392.616083 274.59802 
L 405.426664 274.59802 
L 405.426664 273.799604 
L 408.201853 273.799604 
L 408.201853 273.001188 
L 411.605163 273.001188 
L 411.605163 272.202772 
L 413.603799 272.202772 
L 413.603799 271.404356 
L 417.045841 271.404356 
L 417.045841 270.605941 
L 417.314519 270.605941 
L 417.314519 269.807525 
L 421.741086 269.807525 
L 421.741086 269.009109 
L 427.577673 269.009109 
L 427.577673 268.210693 
L 430.672104 268.210693 
L 430.672104 267.412277 
L 434.289097 267.412277 
L 434.289097 266.613861 
L 436.191078 266.613861 
L 436.191078 265.815446 
L 437.02121 265.815446 
L 437.02121 265.01703 
L 437.740136 265.01703 
L 437.740136 264.218614 
L 437.842281 264.218614 
L 437.842281 263.420198 
L 439.25794 263.420198 
L 439.25794 262.621782 
L 442.588975 262.621782 
L 442.588975 261.823366 
L 443.541266 261.823366 
L 443.541266 261.02495 
L 447.053866 261.02495 
L 447.053866 260.226535 
L 448.485156 260.226535 
L 448.485156 259.428119 
L 449.278449 259.428119 
L 449.278449 258.629703 
L 450.323326 258.629703 
L 450.323326 257.831287 
L 452.706373 257.831287 
L 452.706373 257.032871 
L 453.124086 257.032871 
L 453.124086 256.234455 
L 455.340512 256.234455 
L 455.340512 255.43604 
L 456.145118 255.43604 
L 456.145118 254.637624 
L 456.305012 254.637624 
L 456.305012 253.839208 
L 458.740867 253.839208 
L 458.740867 253.040792 
L 458.818145 253.040792 
L 458.818145 252.242376 
L 459.203347 252.242376 
L 459.203347 251.44396 
L 460.271539 251.44396 
L 460.271539 250.645545 
L 460.422907 250.645545 
L 460.422907 249.847129 
L 460.649389 249.847129 
L 460.649389 249.048713 
L 460.649389 249.048713 
L 460.649389 249.048713 
L 460.8 249.048713 
" clip-path="url(#pc80e251e65)" style="fill: none; stroke: #00bfbf; stroke-width: 1.5; stroke-linecap: square"/>
   </g>
   <g id="line2d_84">
    <path clip-path="url(#pc80e251e65)" style="fill: none; stroke: #00bfbf; stroke-width: 1.5; stroke-linecap: square"/>
   </g>
   <g id="line2d_85">
    <path d="M 287.576704 293.76 
L 287.576704 292.961584 
L 288.325267 292.961584 
L 288.325267 292.163168 
L 288.325267 292.163168 
L 288.325267 291.364752 
L 291.247184 291.364752 
L 291.247184 290.566337 
L 292.666659 290.566337 
L 292.666659 289.767921 
L 337.430668 289.767921 
L 337.430668 288.969505 
L 382.889073 288.969505 
L 382.889073 288.171089 
L 382.889073 288.171089 
L 382.889073 287.372673 
L 422.620978 287.372673 
L 422.620978 286.574257 
L 431.008203 286.574257 
L 431.008203 285.775842 
L 437.535429 285.775842 
L 437.535429 284.977426 
L 437.740136 284.977426 
L 437.740136 284.17901 
L 440.055086 284.17901 
L 440.055086 283.380594 
L 446.963499 283.380594 
L 446.963499 282.582178 
L 448.485156 282.582178 
L 448.485156 281.783762 
L 449.802701 281.783762 
L 449.802701 280.985347 
L 451.183105 280.985347 
L 451.183105 280.186931 
L 451.609338 280.186931 
L 451.609338 279.388515 
L 453.040729 279.388515 
L 453.040729 278.590099 
L 455.340512 278.590099 
L 455.340512 277.791683 
L 457.414852 277.791683 
L 457.414852 276.993267 
L 458.197688 276.993267 
L 458.197688 276.194851 
L 458.353283 276.194851 
L 458.353283 275.396436 
L 458.353283 275.396436 
L 458.353283 275.396436 
L 460.8 275.396436 
" clip-path="url(#pc80e251e65)" style="fill: none; stroke: #bf00bf; stroke-width: 1.5; stroke-linecap: square"/>
   </g>
   <g id="line2d_86">
    <path clip-path="url(#pc80e251e65)" style="fill: none; stroke: #bf00bf; stroke-width: 1.5; stroke-linecap: square"/>
   </g>
   <g id="line2d_87">
    <path d="M 287.576704 293.76 
L 287.576704 292.961584 
L 288.325267 292.961584 
L 288.325267 292.163168 
L 288.325267 292.163168 
L 288.325267 291.364752 
L 291.247184 291.364752 
L 291.247184 290.566337 
L 292.666659 290.566337 
L 292.666659 289.767921 
L 337.430668 289.767921 
L 337.430668 288.969505 
L 382.889073 288.969505 
L 382.889073 288.171089 
L 382.889073 288.171089 
L 382.889073 287.372673 
L 441.137549 287.372673 
L 441.137549 286.574257 
L 445.225588 286.574257 
L 445.225588 285.775842 
L 447.053866 285.775842 
L 447.053866 284.977426 
L 449.102883 284.977426 
L 449.102883 284.17901 
L 451.097568 284.17901 
L 451.097568 283.380594 
L 456.703265 283.380594 
L 456.703265 282.582178 
L 457.650559 282.582178 
L 457.650559 281.783762 
L 458.66351 281.783762 
L 458.66351 280.985347 
L 459.739339 280.985347 
L 459.739339 280.186931 
L 459.815598 280.186931 
L 459.815598 279.388515 
L 459.815598 279.388515 
L 459.815598 279.388515 
L 460.8 279.388515 
" clip-path="url(#pc80e251e65)" style="fill: none; stroke: #ff0000; stroke-width: 3; stroke-linecap: square"/>
   </g>
   <g id="line2d_88">
    <path clip-path="url(#pc80e251e65)" style="fill: none; stroke: #ff0000; stroke-width: 3; stroke-linecap: square"/>
   </g>
   <g id="line2d_89">
    <path d="M 460.8 293.76 
L 460.8 3.456 
" clip-path="url(#pc80e251e65)" style="fill: none; stroke: #000000; stroke-width: 1.5; stroke-linecap: square"/>
   </g>
   <g id="patch_3">
    <path d="M 62.208 293.76 
L 62.208 3.456 
" style="fill: none; stroke: #000000; stroke-width: 0.8; stroke-linejoin: miter; stroke-linecap: square"/>
   </g>
   <g id="patch_4">
    <path d="M 460.8 293.76 
L 460.8 3.456 
" style="fill: none; stroke: #000000; stroke-width: 0.8; stroke-linejoin: miter; stroke-linecap: square"/>
   </g>
   <g id="patch_5">
    <path d="M 62.208 293.76 
L 460.8 293.76 
" style="fill: none; stroke: #000000; stroke-width: 0.8; stroke-linejoin: miter; stroke-linecap: square"/>
   </g>
   <g id="patch_6">
    <path d="M 62.208 3.456 
L 460.8 3.456 
" style="fill: none; stroke: #000000; stroke-width: 0.8; stroke-linejoin: miter; stroke-linecap: square"/>
   </g>
   <g id="text_11">
    <!-- {f1-f24}, 5-D -->
    <g transform="translate(195.0165 24.458955) scale(0.2 -0.2)">
     <defs>
      <path id="DejaVuSans-7b" d="M 3272 -594 
L 3272 -1044 
L 3078 -1044 
Q 2300 -1044 2036 -812 
Q 1772 -581 1772 109 
L 1772 856 
Q 1772 1328 1603 1509 
Q 1434 1691 991 1691 
L 800 1691 
L 800 2138 
L 991 2138 
Q 1438 2138 1605 2317 
Q 1772 2497 1772 2963 
L 1772 3713 
Q 1772 4403 2036 4633 
Q 2300 4863 3078 4863 
L 3272 4863 
L 3272 4416 
L 3059 4416 
Q 2619 4416 2484 4278 
Q 2350 4141 2350 3700 
L 2350 2925 
Q 2350 2434 2208 2212 
Q 2066 1991 1722 1913 
Q 2069 1828 2209 1606 
Q 2350 1384 2350 897 
L 2350 122 
Q 2350 -319 2484 -456 
Q 2619 -594 3059 -594 
L 3272 -594 
z
" transform="scale(0.015625)"/>
      <path id="DejaVuSans-2d" d="M 313 2009 
L 1997 2009 
L 1997 1497 
L 313 1497 
L 313 2009 
z
" transform="scale(0.015625)"/>
      <path id="DejaVuSans-7d" d="M 800 -594 
L 1019 -594 
Q 1456 -594 1589 -459 
Q 1722 -325 1722 122 
L 1722 897 
Q 1722 1384 1862 1606 
Q 2003 1828 2350 1913 
Q 2003 1991 1862 2212 
Q 1722 2434 1722 2925 
L 1722 3700 
Q 1722 4144 1589 4280 
Q 1456 4416 1019 4416 
L 800 4416 
L 800 4863 
L 997 4863 
Q 1775 4863 2036 4633 
Q 2297 4403 2297 3713 
L 2297 2963 
Q 2297 2497 2465 2317 
Q 2634 2138 3078 2138 
L 3272 2138 
L 3272 1691 
L 3078 1691 
Q 2634 1691 2465 1509 
Q 2297 1328 2297 856 
L 2297 109 
Q 2297 -581 2036 -812 
Q 1775 -1044 997 -1044 
L 800 -1044 
L 800 -594 
z
" transform="scale(0.015625)"/>
      <path id="DejaVuSans-2c" d="M 750 794 
L 1409 794 
L 1409 256 
L 897 -744 
L 494 -744 
L 750 256 
L 750 794 
z
" transform="scale(0.015625)"/>
      <path id="DejaVuSans-35" d="M 691 4666 
L 3169 4666 
L 3169 4134 
L 1269 4134 
L 1269 2991 
Q 1406 3038 1543 3061 
Q 1681 3084 1819 3084 
Q 2600 3084 3056 2656 
Q 3513 2228 3513 1497 
Q 3513 744 3044 326 
Q 2575 -91 1722 -91 
Q 1428 -91 1123 -41 
Q 819 9 494 109 
L 494 744 
Q 775 591 1075 516 
Q 1375 441 1709 441 
Q 2250 441 2565 725 
Q 2881 1009 2881 1497 
Q 2881 1984 2565 2268 
Q 2250 2553 1709 2553 
Q 1456 2553 1204 2497 
Q 953 2441 691 2322 
L 691 4666 
z
" transform="scale(0.015625)"/>
     </defs>
     <use xlink:href="#DejaVuSans-7b"/>
     <use xlink:href="#DejaVuSans-66" x="63.623047"/>
     <use xlink:href="#DejaVuSans-31" x="98.828125"/>
     <use xlink:href="#DejaVuSans-2d" x="162.451172"/>
     <use xlink:href="#DejaVuSans-66" x="198.535156"/>
     <use xlink:href="#DejaVuSans-32" x="233.740234"/>
     <use xlink:href="#DejaVuSans-34" x="297.363281"/>
     <use xlink:href="#DejaVuSans-7d" x="360.986328"/>
     <use xlink:href="#DejaVuSans-2c" x="424.609375"/>
     <use xlink:href="#DejaVuSans-20" x="456.396484"/>
     <use xlink:href="#DejaVuSans-35" x="488.183594"/>
     <use xlink:href="#DejaVuSans-2d" x="551.806641"/>
     <use xlink:href="#DejaVuSans-44" x="587.890625"/>
    </g>
   </g>
   <g id="text_12">
    <!-- absolute targets -->
    <g transform="translate(62.208 609.174178) scale(0.14 -0.14)">
     <defs>
      <path id="DejaVuSans-62" d="M 3116 1747 
Q 3116 2381 2855 2742 
Q 2594 3103 2138 3103 
Q 1681 3103 1420 2742 
Q 1159 2381 1159 1747 
Q 1159 1113 1420 752 
Q 1681 391 2138 391 
Q 2594 391 2855 752 
Q 3116 1113 3116 1747 
z
M 1159 2969 
Q 1341 3281 1617 3432 
Q 1894 3584 2278 3584 
Q 2916 3584 3314 3078 
Q 3713 2572 3713 1747 
Q 3713 922 3314 415 
Q 2916 -91 2278 -91 
Q 1894 -91 1617 61 
Q 1341 213 1159 525 
L 1159 0 
L 581 0 
L 581 4863 
L 1159 4863 
L 1159 2969 
z
" transform="scale(0.015625)"/>
      <path id="DejaVuSans-75" d="M 544 1381 
L 544 3500 
L 1119 3500 
L 1119 1403 
Q 1119 906 1312 657 
Q 1506 409 1894 409 
Q 2359 409 2629 706 
Q 2900 1003 2900 1516 
L 2900 3500 
L 3475 3500 
L 3475 0 
L 2900 0 
L 2900 538 
Q 2691 219 2414 64 
Q 2138 -91 1772 -91 
Q 1169 -91 856 284 
Q 544 659 544 1381 
z
M 1991 3584 
L 1991 3584 
z
" transform="scale(0.015625)"/>
      <path id="DejaVuSans-65" d="M 3597 1894 
L 3597 1613 
L 953 1613 
Q 991 1019 1311 708 
Q 1631 397 2203 397 
Q 2534 397 2845 478 
Q 3156 559 3463 722 
L 3463 178 
Q 3153 47 2828 -22 
Q 2503 -91 2169 -91 
Q 1331 -91 842 396 
Q 353 884 353 1716 
Q 353 2575 817 3079 
Q 1281 3584 2069 3584 
Q 2775 3584 3186 3129 
Q 3597 2675 3597 1894 
z
M 3022 2063 
Q 3016 2534 2758 2815 
Q 2500 3097 2075 3097 
Q 1594 3097 1305 2825 
Q 1016 2553 972 2059 
L 3022 2063 
z
" transform="scale(0.015625)"/>
     </defs>
     <use xlink:href="#DejaVuSans-61"/>
     <use xlink:href="#DejaVuSans-62" x="61.279297"/>
     <use xlink:href="#DejaVuSans-73" x="124.755859"/>
     <use xlink:href="#DejaVuSans-6f" x="176.855469"/>
     <use xlink:href="#DejaVuSans-6c" x="238.037109"/>
     <use xlink:href="#DejaVuSans-75" x="265.820312"/>
     <use xlink:href="#DejaVuSans-74" x="329.199219"/>
     <use xlink:href="#DejaVuSans-65" x="368.408203"/>
     <use xlink:href="#DejaVuSans-20" x="429.931641"/>
     <use xlink:href="#DejaVuSans-74" x="461.71875"/>
     <use xlink:href="#DejaVuSans-61" x="500.927734"/>
     <use xlink:href="#DejaVuSans-72" x="562.207031"/>
     <use xlink:href="#DejaVuSans-67" x="601.570312"/>
     <use xlink:href="#DejaVuSans-65" x="665.046875"/>
     <use xlink:href="#DejaVuSans-74" x="726.570312"/>
     <use xlink:href="#DejaVuSans-73" x="765.779297"/>
    </g>
   </g>
   <g id="text_13">
    <!-- v2.6.3 -->
    <g style="fill: #808080" transform="translate(245.82275 288.777272) scale(0.1 -0.1)">
     <defs>
      <path id="DejaVuSans-33" d="M 2597 2516 
Q 3050 2419 3304 2112 
Q 3559 1806 3559 1356 
Q 3559 666 3084 287 
Q 2609 -91 1734 -91 
Q 1441 -91 1130 -33 
Q 819 25 488 141 
L 488 750 
Q 750 597 1062 519 
Q 1375 441 1716 441 
Q 2309 441 2620 675 
Q 2931 909 2931 1356 
Q 2931 1769 2642 2001 
Q 2353 2234 1838 2234 
L 1294 2234 
L 1294 2753 
L 1863 2753 
Q 2328 2753 2575 2939 
Q 2822 3125 2822 3475 
Q 2822 3834 2567 4026 
Q 2313 4219 1838 4219 
Q 1578 4219 1281 4162 
Q 984 4106 628 3988 
L 628 4550 
Q 988 4650 1302 4700 
Q 1616 4750 1894 4750 
Q 2613 4750 3031 4423 
Q 3450 4097 3450 3541 
Q 3450 3153 3228 2886 
Q 3006 2619 2597 2516 
z
" transform="scale(0.015625)"/>
     </defs>
     <use xlink:href="#DejaVuSans-76"/>
     <use xlink:href="#DejaVuSans-32" x="59.179688"/>
     <use xlink:href="#DejaVuSans-2e" x="122.802734"/>
     <use xlink:href="#DejaVuSans-36" x="154.589844"/>
     <use xlink:href="#DejaVuSans-2e" x="218.212891"/>
     <use xlink:href="#DejaVuSans-33" x="250"/>
    </g>
   </g>
   <g id="legend_1">
    <g id="patch_7">
     <path d="M 299.34375 136.881 
L 446.8 136.881 
Q 450.8 136.881 450.8 132.881 
L 450.8 17.456 
Q 450.8 13.456 446.8 13.456 
L 299.34375 13.456 
Q 295.34375 13.456 295.34375 17.456 
L 295.34375 132.881 
Q 295.34375 136.881 299.34375 136.881 
z
" style="fill: #ffffff; opacity: 0.2; stroke: #cccccc; stroke-linejoin: miter"/>
    </g>
    <g id="line2d_90">
     <path d="M 303.34375 29.652875 
L 303.34375 29.652875 
L 323.34375 29.652875 
L 323.34375 29.652875 
L 343.34375 29.652875 
" style="fill: none; stroke: #000000; stroke-width: 1.5; stroke-linecap: square"/>
    </g>
    <g id="text_14">
     <!-- 1: 16/24 -->
     <g transform="translate(359.34375 36.652875) scale(0.2 -0.2)">
      <defs>
       <path id="DejaVuSans-3a" d="M 750 794 
L 1409 794 
L 1409 0 
L 750 0 
L 750 794 
z
M 750 3309 
L 1409 3309 
L 1409 2516 
L 750 2516 
L 750 3309 
z
" transform="scale(0.015625)"/>
      </defs>
      <use xlink:href="#DejaVuSans-31"/>
      <use xlink:href="#DejaVuSans-3a" x="63.623047"/>
      <use xlink:href="#DejaVuSans-20" x="97.314453"/>
      <use xlink:href="#DejaVuSans-31" x="129.101562"/>
      <use xlink:href="#DejaVuSans-36" x="192.724609"/>
      <use xlink:href="#DejaVuSans-2f" x="256.347656"/>
      <use xlink:href="#DejaVuSans-32" x="290.039062"/>
      <use xlink:href="#DejaVuSans-34" x="353.662109"/>
     </g>
    </g>
    <g id="line2d_91">
     <path d="M 303.34375 59.009125 
L 303.34375 59.009125 
L 323.34375 59.009125 
L 323.34375 59.009125 
L 343.34375 59.009125 
" style="fill: none; stroke: #00bfbf; stroke-width: 1.5; stroke-linecap: square"/>
    </g>
    <g id="text_15">
     <!-- -1: 8/24 -->
     <g transform="translate(359.34375 66.009125) scale(0.2 -0.2)">
      <use xlink:href="#DejaVuSans-2d"/>
      <use xlink:href="#DejaVuSans-31" x="36.083984"/>
      <use xlink:href="#DejaVuSans-3a" x="99.707031"/>
      <use xlink:href="#DejaVuSans-20" x="133.398438"/>
      <use xlink:href="#DejaVuSans-38" x="165.185547"/>
      <use xlink:href="#DejaVuSans-2f" x="228.808594"/>
      <use xlink:href="#DejaVuSans-32" x="262.5"/>
      <use xlink:href="#DejaVuSans-34" x="326.123047"/>
     </g>
    </g>
    <g id="line2d_92">
     <path d="M 303.34375 88.365375 
L 303.34375 88.365375 
L 323.34375 88.365375 
L 323.34375 88.365375 
L 343.34375 88.365375 
" style="fill: none; stroke: #bf00bf; stroke-width: 1.5; stroke-linecap: square"/>
    </g>
    <g id="text_16">
     <!-- -4: 5/24 -->
     <g transform="translate(359.34375 95.365375) scale(0.2 -0.2)">
      <use xlink:href="#DejaVuSans-2d"/>
      <use xlink:href="#DejaVuSans-34" x="36.083984"/>
      <use xlink:href="#DejaVuSans-3a" x="99.707031"/>
      <use xlink:href="#DejaVuSans-20" x="133.398438"/>
      <use xlink:href="#DejaVuSans-35" x="165.185547"/>
      <use xlink:href="#DejaVuSans-2f" x="228.808594"/>
      <use xlink:href="#DejaVuSans-32" x="262.5"/>
      <use xlink:href="#DejaVuSans-34" x="326.123047"/>
     </g>
    </g>
    <g id="line2d_93">
     <path d="M 303.34375 117.721625 
L 303.34375 117.721625 
L 323.34375 117.721625 
L 323.34375 117.721625 
L 343.34375 117.721625 
" style="fill: none; stroke: #ff0000; stroke-width: 3; stroke-linecap: square"/>
    </g>
    <g id="text_17">
     <!-- -8: 4/24 -->
     <g transform="translate(359.34375 124.721625) scale(0.2 -0.2)">
      <use xlink:href="#DejaVuSans-2d"/>
      <use xlink:href="#DejaVuSans-38" x="36.083984"/>
      <use xlink:href="#DejaVuSans-3a" x="99.707031"/>
      <use xlink:href="#DejaVuSans-20" x="133.398438"/>
      <use xlink:href="#DejaVuSans-34" x="165.185547"/>
      <use xlink:href="#DejaVuSans-2f" x="228.808594"/>
      <use xlink:href="#DejaVuSans-32" x="262.5"/>
      <use xlink:href="#DejaVuSans-34" x="326.123047"/>
     </g>
    </g>
   </g>
  </g>
 </g>
 <defs>
  <clipPath id="pc80e251e65">
   <rect x="62.208" y="3.456" width="398.592" height="290.304"/>
  </clipPath>
 </defs>
</svg>
