<?xml version="1.0" encoding="utf-8" standalone="no"?>
<!DOCTYPE svg PUBLIC "-//W3C//DTD SVG 1.1//EN"
  "http://www.w3.org/Graphics/SVG/1.1/DTD/svg11.dtd">
<svg xmlns:xlink="http://www.w3.org/1999/xlink" width="460.8pt" height="345.6pt" viewBox="0 0 460.8 345.6" xmlns="http://www.w3.org/2000/svg" version="1.1">
 <metadata>
  <rdf:RDF xmlns:dc="http://purl.org/dc/elements/1.1/" xmlns:cc="http://creativecommons.org/ns#" xmlns:rdf="http://www.w3.org/1999/02/22-rdf-syntax-ns#">
   <cc:Work>
    <dc:type rdf:resource="http://purl.org/dc/dcmitype/StillImage"/>
    <dc:date>2024-01-17T15:45:35.917666</dc:date>
    <dc:format>image/svg+xml</dc:format>
    <dc:creator>
     <cc:Agent>
      <dc:title>Matplotlib v3.8.2, https://matplotlib.org/</dc:title>
     </cc:Agent>
    </dc:creator>
   </cc:Work>
  </rdf:RDF>
 </metadata>
 <defs>
  <style type="text/css">*{stroke-linejoin: round; stroke-linecap: butt}</style>
 </defs>
 <g id="figure_1">
  <g id="patch_1">
   <path d="M 0 345.6 
L 460.8 345.6 
L 460.8 0 
L 0 0 
z
" style="fill: #ffffff"/>
  </g>
  <g id="axes_1">
   <g id="patch_2">
    <path d="M 0 293.76 
L 460.8 293.76 
L 460.8 3.456 
L 0 3.456 
z
" style="fill: #ffffff"/>
   </g>
   <g id="matplotlib.axis_1">
    <g id="xtick_1">
     <g id="line2d_1">
      <path d="M 104.5682 293.76 
L 104.5682 3.456 
" clip-path="url(#p3f02d85fcd)" style="fill: none; stroke: #b0b0b0; stroke-width: 0.8; stroke-linecap: square"/>
     </g>
     <g id="line2d_2">
      <defs>
       <path id="mf28642054e" d="M 0 0 
L 0 3.5 
" style="stroke: #000000; stroke-width: 0.8"/>
      </defs>
      <g>
       <use xlink:href="#mf28642054e" x="104.5682" y="293.76" style="stroke: #000000; stroke-width: 0.8"/>
      </g>
     </g>
     <g id="text_1">
      <!-- -4 -->
      <g transform="translate(94.597887 315.956875) scale(0.2 -0.2)">
       <defs>
        <path id="DejaVuSans-2d" d="M 313 2009 
L 1997 2009 
L 1997 1497 
L 313 1497 
L 313 2009 
z
" transform="scale(0.015625)"/>
        <path id="DejaVuSans-34" d="M 2419 4116 
L 825 1625 
L 2419 1625 
L 2419 4116 
z
M 2253 4666 
L 3047 4666 
L 3047 1625 
L 3713 1625 
L 3713 1100 
L 3047 1100 
L 3047 0 
L 2419 0 
L 2419 1100 
L 313 1100 
L 313 1709 
L 2253 4666 
z
" transform="scale(0.015625)"/>
       </defs>
       <use xlink:href="#DejaVuSans-2d"/>
       <use xlink:href="#DejaVuSans-34" x="36.083984"/>
      </g>
     </g>
    </g>
    <g id="xtick_2">
     <g id="line2d_3">
      <path d="M 209.249491 293.76 
L 209.249491 3.456 
" clip-path="url(#p3f02d85fcd)" style="fill: none; stroke: #b0b0b0; stroke-width: 0.8; stroke-linecap: square"/>
     </g>
     <g id="line2d_4">
      <g>
       <use xlink:href="#mf28642054e" x="209.249491" y="293.76" style="stroke: #000000; stroke-width: 0.8"/>
      </g>
     </g>
     <g id="text_2">
      <!-- 0 -->
      <g transform="translate(202.886991 315.956875) scale(0.2 -0.2)">
       <defs>
        <path id="DejaVuSans-30" d="M 2034 4250 
Q 1547 4250 1301 3770 
Q 1056 3291 1056 2328 
Q 1056 1369 1301 889 
Q 1547 409 2034 409 
Q 2525 409 2770 889 
Q 3016 1369 3016 2328 
Q 3016 3291 2770 3770 
Q 2525 4250 2034 4250 
z
M 2034 4750 
Q 2819 4750 3233 4129 
Q 3647 3509 3647 2328 
Q 3647 1150 3233 529 
Q 2819 -91 2034 -91 
Q 1250 -91 836 529 
Q 422 1150 422 2328 
Q 422 3509 836 4129 
Q 1250 4750 2034 4750 
z
" transform="scale(0.015625)"/>
       </defs>
       <use xlink:href="#DejaVuSans-30"/>
      </g>
     </g>
    </g>
    <g id="xtick_3">
     <g id="line2d_5">
      <path d="M 313.930783 293.76 
L 313.930783 3.456 
" clip-path="url(#p3f02d85fcd)" style="fill: none; stroke: #b0b0b0; stroke-width: 0.8; stroke-linecap: square"/>
     </g>
     <g id="line2d_6">
      <g>
       <use xlink:href="#mf28642054e" x="313.930783" y="293.76" style="stroke: #000000; stroke-width: 0.8"/>
      </g>
     </g>
     <g id="text_3">
      <!-- 4 -->
      <g transform="translate(307.568283 315.956875) scale(0.2 -0.2)">
       <use xlink:href="#DejaVuSans-34"/>
      </g>
     </g>
    </g>
    <g id="xtick_4">
     <g id="line2d_7">
      <path d="M 418.612074 293.76 
L 418.612074 3.456 
" clip-path="url(#p3f02d85fcd)" style="fill: none; stroke: #b0b0b0; stroke-width: 0.8; stroke-linecap: square"/>
     </g>
     <g id="line2d_8">
      <g>
       <use xlink:href="#mf28642054e" x="418.612074" y="293.76" style="stroke: #000000; stroke-width: 0.8"/>
      </g>
     </g>
     <g id="text_4">
      <!-- 8 -->
      <g transform="translate(412.249574 315.956875) scale(0.2 -0.2)">
       <defs>
        <path id="DejaVuSans-38" d="M 2034 2216 
Q 1584 2216 1326 1975 
Q 1069 1734 1069 1313 
Q 1069 891 1326 650 
Q 1584 409 2034 409 
Q 2484 409 2743 651 
Q 3003 894 3003 1313 
Q 3003 1734 2745 1975 
Q 2488 2216 2034 2216 
z
M 1403 2484 
Q 997 2584 770 2862 
Q 544 3141 544 3541 
Q 544 4100 942 4425 
Q 1341 4750 2034 4750 
Q 2731 4750 3128 4425 
Q 3525 4100 3525 3541 
Q 3525 3141 3298 2862 
Q 3072 2584 2669 2484 
Q 3125 2378 3379 2068 
Q 3634 1759 3634 1313 
Q 3634 634 3220 271 
Q 2806 -91 2034 -91 
Q 1263 -91 848 271 
Q 434 634 434 1313 
Q 434 1759 690 2068 
Q 947 2378 1403 2484 
z
M 1172 3481 
Q 1172 3119 1398 2916 
Q 1625 2713 2034 2713 
Q 2441 2713 2670 2916 
Q 2900 3119 2900 3481 
Q 2900 3844 2670 4047 
Q 2441 4250 2034 4250 
Q 1625 4250 1398 4047 
Q 1172 3844 1172 3481 
z
" transform="scale(0.015625)"/>
       </defs>
       <use xlink:href="#DejaVuSans-38"/>
      </g>
     </g>
    </g>
    <g id="text_5">
     <!-- log10 of Df -->
     <g transform="translate(175.214063 339.313125) scale(0.2 -0.2)">
      <defs>
       <path id="DejaVuSans-6c" d="M 603 4863 
L 1178 4863 
L 1178 0 
L 603 0 
L 603 4863 
z
" transform="scale(0.015625)"/>
       <path id="DejaVuSans-6f" d="M 1959 3097 
Q 1497 3097 1228 2736 
Q 959 2375 959 1747 
Q 959 1119 1226 758 
Q 1494 397 1959 397 
Q 2419 397 2687 759 
Q 2956 1122 2956 1747 
Q 2956 2369 2687 2733 
Q 2419 3097 1959 3097 
z
M 1959 3584 
Q 2709 3584 3137 3096 
Q 3566 2609 3566 1747 
Q 3566 888 3137 398 
Q 2709 -91 1959 -91 
Q 1206 -91 779 398 
Q 353 888 353 1747 
Q 353 2609 779 3096 
Q 1206 3584 1959 3584 
z
" transform="scale(0.015625)"/>
       <path id="DejaVuSans-67" d="M 2906 1791 
Q 2906 2416 2648 2759 
Q 2391 3103 1925 3103 
Q 1463 3103 1205 2759 
Q 947 2416 947 1791 
Q 947 1169 1205 825 
Q 1463 481 1925 481 
Q 2391 481 2648 825 
Q 2906 1169 2906 1791 
z
M 3481 434 
Q 3481 -459 3084 -895 
Q 2688 -1331 1869 -1331 
Q 1566 -1331 1297 -1286 
Q 1028 -1241 775 -1147 
L 775 -588 
Q 1028 -725 1275 -790 
Q 1522 -856 1778 -856 
Q 2344 -856 2625 -561 
Q 2906 -266 2906 331 
L 2906 616 
Q 2728 306 2450 153 
Q 2172 0 1784 0 
Q 1141 0 747 490 
Q 353 981 353 1791 
Q 353 2603 747 3093 
Q 1141 3584 1784 3584 
Q 2172 3584 2450 3431 
Q 2728 3278 2906 2969 
L 2906 3500 
L 3481 3500 
L 3481 434 
z
" transform="scale(0.015625)"/>
       <path id="DejaVuSans-31" d="M 794 531 
L 1825 531 
L 1825 4091 
L 703 3866 
L 703 4441 
L 1819 4666 
L 2450 4666 
L 2450 531 
L 3481 531 
L 3481 0 
L 794 0 
L 794 531 
z
" transform="scale(0.015625)"/>
       <path id="DejaVuSans-20" transform="scale(0.015625)"/>
       <path id="DejaVuSans-66" d="M 2375 4863 
L 2375 4384 
L 1825 4384 
Q 1516 4384 1395 4259 
Q 1275 4134 1275 3809 
L 1275 3500 
L 2222 3500 
L 2222 3053 
L 1275 3053 
L 1275 0 
L 697 0 
L 697 3053 
L 147 3053 
L 147 3500 
L 697 3500 
L 697 3744 
Q 697 4328 969 4595 
Q 1241 4863 1831 4863 
L 2375 4863 
z
" transform="scale(0.015625)"/>
       <path id="DejaVuSans-44" d="M 1259 4147 
L 1259 519 
L 2022 519 
Q 2988 519 3436 956 
Q 3884 1394 3884 2338 
Q 3884 3275 3436 3711 
Q 2988 4147 2022 4147 
L 1259 4147 
z
M 628 4666 
L 1925 4666 
Q 3281 4666 3915 4102 
Q 4550 3538 4550 2338 
Q 4550 1131 3912 565 
Q 3275 0 1925 0 
L 628 0 
L 628 4666 
z
" transform="scale(0.015625)"/>
      </defs>
      <use xlink:href="#DejaVuSans-6c"/>
      <use xlink:href="#DejaVuSans-6f" x="27.783203"/>
      <use xlink:href="#DejaVuSans-67" x="88.964844"/>
      <use xlink:href="#DejaVuSans-31" x="152.441406"/>
      <use xlink:href="#DejaVuSans-30" x="216.064453"/>
      <use xlink:href="#DejaVuSans-20" x="279.6875"/>
      <use xlink:href="#DejaVuSans-6f" x="311.474609"/>
      <use xlink:href="#DejaVuSans-66" x="372.65625"/>
      <use xlink:href="#DejaVuSans-20" x="407.861328"/>
      <use xlink:href="#DejaVuSans-44" x="439.648438"/>
      <use xlink:href="#DejaVuSans-66" x="516.650391"/>
     </g>
    </g>
   </g>
   <g id="matplotlib.axis_2">
    <g id="ytick_1">
     <g id="line2d_9">
      <path d="M 0 293.76 
L 460.8 293.76 
" clip-path="url(#p3f02d85fcd)" style="fill: none; stroke: #b0b0b0; stroke-width: 0.8; stroke-linecap: square"/>
     </g>
     <g id="line2d_10">
      <defs>
       <path id="m137114885b" d="M 0 0 
L -3.5 0 
" style="stroke: #000000; stroke-width: 0.8"/>
      </defs>
      <g>
       <use xlink:href="#m137114885b" x="0" y="293.76" style="stroke: #000000; stroke-width: 0.8"/>
      </g>
     </g>
    </g>
    <g id="ytick_2">
     <g id="line2d_11">
      <path d="M 0 236.274059 
L 460.8 236.274059 
" clip-path="url(#p3f02d85fcd)" style="fill: none; stroke: #b0b0b0; stroke-width: 0.8; stroke-linecap: square"/>
     </g>
     <g id="line2d_12">
      <g>
       <use xlink:href="#m137114885b" x="0" y="236.274059" style="stroke: #000000; stroke-width: 0.8"/>
      </g>
     </g>
    </g>
    <g id="ytick_3">
     <g id="line2d_13">
      <path d="M 0 178.788119 
L 460.8 178.788119 
" clip-path="url(#p3f02d85fcd)" style="fill: none; stroke: #b0b0b0; stroke-width: 0.8; stroke-linecap: square"/>
     </g>
     <g id="line2d_14">
      <g>
       <use xlink:href="#m137114885b" x="0" y="178.788119" style="stroke: #000000; stroke-width: 0.8"/>
      </g>
     </g>
    </g>
    <g id="ytick_4">
     <g id="line2d_15">
      <path d="M 0 121.302178 
L 460.8 121.302178 
" clip-path="url(#p3f02d85fcd)" style="fill: none; stroke: #b0b0b0; stroke-width: 0.8; stroke-linecap: square"/>
     </g>
     <g id="line2d_16">
      <g>
       <use xlink:href="#m137114885b" x="0" y="121.302178" style="stroke: #000000; stroke-width: 0.8"/>
      </g>
     </g>
    </g>
    <g id="ytick_5">
     <g id="line2d_17">
      <path d="M 0 63.816238 
L 460.8 63.816238 
" clip-path="url(#p3f02d85fcd)" style="fill: none; stroke: #b0b0b0; stroke-width: 0.8; stroke-linecap: square"/>
     </g>
     <g id="line2d_18">
      <g>
       <use xlink:href="#m137114885b" x="0" y="63.816238" style="stroke: #000000; stroke-width: 0.8"/>
      </g>
     </g>
    </g>
    <g id="ytick_6">
     <g id="line2d_19">
      <path d="M 0 6.330297 
L 460.8 6.330297 
" clip-path="url(#p3f02d85fcd)" style="fill: none; stroke: #b0b0b0; stroke-width: 0.8; stroke-linecap: square"/>
     </g>
     <g id="line2d_20">
      <g>
       <use xlink:href="#m137114885b" x="0" y="6.330297" style="stroke: #000000; stroke-width: 0.8"/>
      </g>
     </g>
    </g>
   </g>
   <g id="line2d_21">
    <path d="M 188.453294 293.76 
L 188.453294 289.927604 
L 205.066428 289.927604 
L 205.066428 286.095208 
L 215.29219 286.095208 
L 215.29219 282.262812 
L 217.783643 282.262812 
L 217.783643 278.430416 
L 220.602214 278.430416 
L 220.602214 274.59802 
L 222.003101 274.59802 
L 222.003101 270.765624 
L 222.765096 270.765624 
L 222.765096 266.933228 
L 222.989162 266.933228 
L 222.989162 263.100832 
L 223.14658 263.100832 
L 223.14658 259.268436 
L 223.82145 259.268436 
L 223.899299 247.771248 
L 224.025153 247.771248 
L 224.025153 243.938851 
L 224.168112 243.938851 
L 224.241461 236.274059 
L 224.486605 236.274059 
L 224.486605 232.441663 
L 225.1867 232.441663 
L 225.1867 228.609267 
L 225.88071 228.609267 
L 225.88071 224.776871 
L 227.007319 224.776871 
L 227.007319 220.944475 
L 227.328448 220.944475 
L 227.328448 217.112079 
L 227.784405 217.112079 
L 227.784405 213.279683 
L 228.899245 213.279683 
L 228.899245 209.447287 
L 229.049425 209.447287 
L 229.088305 201.782495 
L 229.785179 201.782495 
L 229.844295 194.117703 
L 230.168492 194.117703 
L 230.168492 190.285307 
L 230.400303 190.285307 
L 230.400303 186.452911 
L 231.83412 186.452911 
L 231.83412 182.620515 
L 232.156763 182.620515 
L 232.156763 178.788119 
L 232.291727 178.788119 
L 232.291727 174.955723 
L 232.453028 174.955723 
L 232.453028 171.123327 
L 233.895171 171.123327 
L 233.895171 167.290931 
L 234.013973 167.290931 
L 234.071436 159.626139 
L 234.393514 159.626139 
L 234.393514 155.793743 
L 235.260798 155.793743 
L 235.341124 148.12895 
L 236.699716 148.12895 
L 236.699716 144.296554 
L 237.001719 144.296554 
L 237.001719 140.464158 
L 239.710019 140.464158 
L 239.710019 136.631762 
L 241.017276 136.631762 
L 241.017276 132.799366 
L 242.359588 132.799366 
L 242.359588 128.96697 
L 244.739184 128.96697 
L 244.739184 125.134574 
L 246.702422 125.134574 
L 246.702422 121.302178 
L 247.09881 121.302178 
L 247.09881 117.469782 
L 247.937649 117.469782 
L 247.937649 113.637386 
L 250.856038 113.637386 
L 250.856038 109.80499 
L 256.171894 109.80499 
L 256.171894 105.972594 
L 257.052022 105.972594 
L 257.052022 102.140198 
L 258.620277 102.140198 
L 258.66151 94.475406 
L 258.95205 94.475406 
L 258.95205 90.64301 
L 259.20566 90.64301 
L 259.248637 82.978218 
L 259.442891 82.978218 
L 259.5496 75.313426 
L 264.76427 75.313426 
L 264.76427 71.48103 
L 264.938159 71.48103 
L 265.02017 63.816238 
L 265.105481 63.816238 
L 265.129213 56.151446 
L 265.308186 56.151446 
L 265.308186 52.31905 
L 265.432413 52.31905 
L 265.512654 44.654257 
L 265.559852 44.654257 
L 265.559852 40.821861 
L 265.78125 40.821861 
L 265.810054 33.157069 
L 265.895708 33.157069 
L 265.895708 29.324673 
L 266.195467 29.324673 
L 266.195467 25.492277 
L 266.763264 25.492277 
L 266.763264 21.659881 
L 267.572258 21.659881 
L 267.572258 17.827485 
L 267.737085 17.827485 
L 267.737085 13.995089 
L 280.89311 13.995089 
L 280.89311 10.162693 
L 285.339073 10.162693 
L 285.339073 6.330297 
L 285.339073 6.330297 
L 460.8 6.330297 
L 460.8 6.330297 
" clip-path="url(#p3f02d85fcd)" style="fill: none; stroke: #ff0000; stroke-width: 3; stroke-linecap: square"/>
   </g>
   <g id="line2d_22">
    <path d="M 226.791018 293.76 
L 226.791018 289.927604 
L 229.049425 289.927604 
L 229.049425 286.095208 
L 229.866459 286.095208 
L 229.866459 282.262812 
L 232.833466 282.262812 
L 232.833466 278.430416 
L 234.04968 278.430416 
L 234.11355 270.765624 
L 234.630989 270.765624 
L 234.630989 266.933228 
L 236.666551 266.933228 
L 236.666551 263.100832 
L 237.072444 263.100832 
L 237.072444 259.268436 
L 237.365775 259.268436 
L 237.365775 255.43604 
L 238.092243 255.43604 
L 238.092243 251.603644 
L 238.306728 251.603644 
L 238.306728 247.771248 
L 238.71373 247.771248 
L 238.71373 243.938851 
L 238.927741 243.938851 
L 238.927741 240.106455 
L 239.963662 240.106455 
L 239.963662 236.274059 
L 257.392818 236.274059 
L 257.392818 232.441663 
L 258.38256 232.441663 
L 258.38256 228.609267 
L 258.515024 228.609267 
L 258.62602 213.279683 
L 258.669061 213.279683 
L 258.706074 201.782495 
L 258.788129 201.782495 
L 258.86856 190.285307 
L 258.953326 190.285307 
L 259.055834 174.955723 
L 259.111247 174.955723 
L 259.213592 155.793743 
L 259.2451 155.793743 
L 259.317456 136.631762 
L 259.437441 136.631762 
L 259.453584 128.96697 
L 259.5496 128.96697 
L 259.54961 121.302178 
L 271.787686 121.302178 
L 271.787686 117.469782 
L 272.464002 117.469782 
L 272.464002 113.637386 
L 272.74306 113.637386 
L 272.850322 105.972594 
L 272.901663 105.972594 
L 272.975004 98.307802 
L 273.154202 98.307802 
L 273.154202 94.475406 
L 273.373735 94.475406 
L 273.398852 82.978218 
L 274.035827 82.978218 
L 274.035827 79.145822 
L 274.272376 79.145822 
L 274.272376 75.313426 
L 274.635097 75.313426 
L 274.635097 71.48103 
L 274.785875 71.48103 
L 274.785875 67.648634 
L 275.222478 67.648634 
L 275.222478 63.816238 
L 320.811308 63.816238 
L 320.811374 6.330297 
L 320.811374 6.330297 
L 460.8 6.330297 
L 460.8 6.330297 
" clip-path="url(#p3f02d85fcd)" style="fill: none; stroke: #00bfbf; stroke-width: 1.5; stroke-linecap: square"/>
   </g>
   <g id="line2d_23">
    <path d="M 225.595664 293.76 
L 225.595664 289.927604 
L 226.791018 289.927604 
L 226.791018 286.095208 
L 227.007319 286.095208 
L 227.007319 282.262812 
L 229.049425 282.262812 
L 229.049425 278.430416 
L 229.785179 278.430416 
L 229.785179 274.59802 
L 231.433671 274.59802 
L 231.480685 266.933228 
L 232.833466 266.933228 
L 232.833466 263.100832 
L 233.347059 263.100832 
L 233.347059 259.268436 
L 233.502429 259.268436 
L 233.502429 255.43604 
L 233.955336 255.43604 
L 233.955336 251.603644 
L 234.074169 251.603644 
L 234.074169 247.771248 
L 236.261089 247.771248 
L 236.261089 243.938851 
L 237.365775 243.938851 
L 237.365775 240.106455 
L 238.092243 240.106455 
L 238.092243 236.274059 
L 257.336534 236.274059 
L 257.336534 232.441663 
L 258.380332 232.441663 
L 258.380332 228.609267 
L 258.505362 228.609267 
L 258.613612 217.112079 
L 258.620277 217.112079 
L 258.706074 201.782495 
L 258.773949 201.782495 
L 258.86856 190.285307 
L 258.945251 190.285307 
L 259.055834 174.955723 
L 259.100119 174.955723 
L 259.20566 159.626139 
L 259.211785 159.626139 
L 259.317456 136.631762 
L 259.437441 136.631762 
L 259.530528 125.134574 
L 259.5496 125.134574 
L 259.5496 121.302178 
L 271.373624 121.302178 
L 271.373624 117.469782 
L 271.655696 117.469782 
L 271.655696 113.637386 
L 271.787686 113.637386 
L 271.787686 109.80499 
L 271.988417 109.80499 
L 271.988417 105.972594 
L 272.403484 105.972594 
L 272.464002 98.307802 
L 272.74306 98.307802 
L 272.850322 90.64301 
L 272.975004 90.64301 
L 272.975004 86.810614 
L 273.096485 86.810614 
L 273.196437 79.145822 
L 273.238776 79.145822 
L 273.238776 75.313426 
L 273.373735 75.313426 
L 273.373735 71.48103 
L 274.09706 71.48103 
L 274.09706 67.648634 
L 274.337602 67.648634 
L 274.337602 63.816238 
L 320.196408 63.816238 
L 320.239247 21.659881 
L 320.317813 21.659881 
L 320.317813 10.162693 
L 320.51053 10.162693 
L 320.51053 6.330297 
L 320.51053 6.330297 
L 460.8 6.330297 
L 460.8 6.330297 
" clip-path="url(#p3f02d85fcd)" style="fill: none; stroke: #bf00bf; stroke-width: 1.5; stroke-linecap: square"/>
   </g>
   <g id="line2d_24">
    <path d="M 216.443166 293.76 
L 216.443166 289.927604 
L 216.691607 289.927604 
L 216.691607 286.095208 
L 222.362367 286.095208 
L 222.362367 282.262812 
L 222.954997 282.262812 
L 222.954997 278.430416 
L 224.465216 278.430416 
L 224.514742 270.765624 
L 227.007319 270.765624 
L 227.007319 266.933228 
L 229.049425 266.933228 
L 229.049425 263.100832 
L 229.37607 263.100832 
L 229.37607 259.268436 
L 229.785179 259.268436 
L 229.785179 255.43604 
L 231.480685 255.43604 
L 231.480685 251.603644 
L 232.453028 251.603644 
L 232.494253 243.938851 
L 232.833466 243.938851 
L 232.833466 240.106455 
L 233.347059 240.106455 
L 233.347059 236.274059 
L 233.502429 236.274059 
L 233.502429 232.441663 
L 234.393514 232.441663 
L 234.393514 228.609267 
L 235.260798 228.609267 
L 235.260798 224.776871 
L 236.261089 224.776871 
L 236.261089 220.944475 
L 237.883487 220.944475 
L 237.883487 217.112079 
L 238.092243 217.112079 
L 238.092243 213.279683 
L 238.753706 213.279683 
L 238.753706 209.447287 
L 241.450967 209.447287 
L 241.450967 205.614891 
L 242.891148 205.614891 
L 242.891148 201.782495 
L 245.261847 201.782495 
L 245.285855 194.117703 
L 245.920053 194.117703 
L 245.983975 186.452911 
L 247.09881 186.452911 
L 247.099735 178.788119 
L 247.245414 178.788119 
L 247.272083 171.123327 
L 247.696878 171.123327 
L 247.696878 167.290931 
L 249.90781 167.290931 
L 249.90781 163.458535 
L 252.031697 163.458535 
L 252.124034 155.793743 
L 254.433846 155.793743 
L 254.433846 151.961347 
L 257.196289 151.961347 
L 257.196289 148.12895 
L 258.620277 148.12895 
L 258.66151 140.464158 
L 258.95205 140.464158 
L 258.95205 136.631762 
L 259.20566 136.631762 
L 259.248637 125.134574 
L 259.442891 125.134574 
L 259.5496 117.469782 
L 267.761164 117.469782 
L 267.761164 113.637386 
L 268.128428 113.637386 
L 268.128428 109.80499 
L 268.628177 109.80499 
L 268.634524 102.140198 
L 268.89742 102.140198 
L 268.89742 98.307802 
L 269.212899 98.307802 
L 269.308125 90.64301 
L 269.395583 90.64301 
L 269.425061 82.978218 
L 269.511684 82.978218 
L 269.58343 75.313426 
L 269.732542 75.313426 
L 269.732542 71.48103 
L 269.88024 71.48103 
L 269.88024 67.648634 
L 270.325424 67.648634 
L 270.325424 63.816238 
L 271.021425 63.816238 
L 271.025938 56.151446 
L 271.275011 56.151446 
L 271.275011 52.31905 
L 273.151714 52.31905 
L 273.210978 44.654257 
L 275.592052 44.654257 
L 275.592052 40.821861 
L 277.567013 40.821861 
L 277.567013 36.989465 
L 278.159405 36.989465 
L 278.159405 33.157069 
L 278.5403 33.157069 
L 278.5403 29.324673 
L 281.033397 29.324673 
L 281.033397 25.492277 
L 282.465426 25.492277 
L 282.465426 21.659881 
L 282.592855 21.659881 
L 282.592855 17.827485 
L 283.123322 17.827485 
L 283.123322 13.995089 
L 284.147495 13.995089 
L 284.147495 10.162693 
L 287.404485 10.162693 
L 287.404485 6.330297 
L 287.404485 6.330297 
L 460.8 6.330297 
L 460.8 6.330297 
" clip-path="url(#p3f02d85fcd)" style="fill: none; stroke: #000000; stroke-width: 1.5; stroke-linecap: square"/>
   </g>
   <g id="line2d_25">
    <path d="M 188.901747 293.76 
L 188.901747 289.927604 
L 205.066594 289.927604 
L 205.066594 286.095208 
L 215.29219 286.095208 
L 215.29219 282.262812 
L 217.783678 282.262812 
L 217.783678 278.430416 
L 220.615501 278.430416 
L 220.615501 274.59802 
L 222.003101 274.59802 
L 222.003101 270.765624 
L 222.765096 270.765624 
L 222.765096 266.933228 
L 222.996703 266.933228 
L 222.996703 263.100832 
L 223.14658 263.100832 
L 223.14658 259.268436 
L 223.822757 259.268436 
L 223.900149 247.771248 
L 224.025153 247.771248 
L 224.025153 243.938851 
L 224.172194 243.938851 
L 224.241461 236.274059 
L 224.497268 236.274059 
L 224.497268 232.441663 
L 225.187706 232.441663 
L 225.187706 228.609267 
L 225.88071 228.609267 
L 225.88071 224.776871 
L 227.007319 224.776871 
L 227.007319 220.944475 
L 227.349036 220.944475 
L 227.349036 217.112079 
L 227.784405 217.112079 
L 227.784405 213.279683 
L 229.008504 213.279683 
L 229.088305 201.782495 
L 229.785179 201.782495 
L 229.844295 194.117703 
L 230.168492 194.117703 
L 230.168492 190.285307 
L 230.400303 190.285307 
L 230.400303 186.452911 
L 231.844068 186.452911 
L 231.844068 182.620515 
L 232.156763 182.620515 
L 232.156763 178.788119 
L 232.291753 178.788119 
L 232.291753 174.955723 
L 232.453028 174.955723 
L 232.453028 171.123327 
L 233.895729 171.123327 
L 233.895729 167.290931 
L 234.013973 167.290931 
L 234.071436 159.626139 
L 234.393514 159.626139 
L 234.393514 155.793743 
L 235.260798 155.793743 
L 235.341153 148.12895 
L 236.702413 148.12895 
L 236.702413 144.296554 
L 237.0053 144.296554 
L 237.0053 140.464158 
L 239.710086 140.464158 
L 239.710086 136.631762 
L 241.021619 136.631762 
L 241.021619 132.799366 
L 242.359588 132.799366 
L 242.359588 128.96697 
L 244.739184 128.96697 
L 244.739184 125.134574 
L 246.702422 125.134574 
L 246.702422 121.302178 
L 247.09881 121.302178 
L 247.09881 117.469782 
L 247.937667 117.469782 
L 247.937667 113.637386 
L 250.856038 113.637386 
L 250.856038 109.80499 
L 256.171894 109.80499 
L 256.171894 105.972594 
L 257.052022 105.972594 
L 257.052022 102.140198 
L 258.620277 102.140198 
L 258.66151 94.475406 
L 258.95205 94.475406 
L 258.95205 90.64301 
L 259.20566 90.64301 
L 259.248637 82.978218 
L 259.442891 82.978218 
L 259.5496 75.313426 
L 264.77983 75.313426 
L 264.77983 71.48103 
L 264.95799 71.48103 
L 265.020867 63.816238 
L 265.109285 63.816238 
L 265.139636 56.151446 
L 265.309826 56.151446 
L 265.309826 52.31905 
L 265.432413 52.31905 
L 265.514528 44.654257 
L 265.577134 44.654257 
L 265.577134 40.821861 
L 265.784266 40.821861 
L 265.810054 33.157069 
L 265.921418 33.157069 
L 265.921418 29.324673 
L 266.197236 29.324673 
L 266.197236 25.492277 
L 266.763984 25.492277 
L 266.763984 21.659881 
L 267.622252 21.659881 
L 267.622252 17.827485 
L 267.738059 17.827485 
L 267.738059 13.995089 
L 280.89311 13.995089 
L 280.89311 10.162693 
L 285.339073 10.162693 
L 285.339073 6.330297 
L 285.339073 6.330297 
L 460.8 6.330297 
L 460.8 6.330297 
" clip-path="url(#p3f02d85fcd)" style="fill: none; stroke: #00bfbf; stroke-width: 1.5; stroke-linecap: square"/>
   </g>
   <g id="patch_3">
    <path d="M 0 293.76 
L 0 3.456 
" style="fill: none; stroke: #000000; stroke-width: 0.8; stroke-linejoin: miter; stroke-linecap: square"/>
   </g>
   <g id="patch_4">
    <path d="M 460.8 293.76 
L 460.8 3.456 
" style="fill: none; stroke: #000000; stroke-width: 0.8; stroke-linejoin: miter; stroke-linecap: square"/>
   </g>
   <g id="patch_5">
    <path d="M 0 293.76 
L 460.8 293.76 
" style="fill: none; stroke: #000000; stroke-width: 0.8; stroke-linejoin: miter; stroke-linecap: square"/>
   </g>
   <g id="patch_6">
    <path d="M 0 3.456 
L 460.8 3.456 
" style="fill: none; stroke: #000000; stroke-width: 0.8; stroke-linejoin: miter; stroke-linecap: square"/>
   </g>
   <g id="text_6">
    <!-- {f20-f24}, 20-D -->
    <g transform="translate(293.159 287.95392) scale(0.2 -0.2)">
     <defs>
      <path id="DejaVuSans-7b" d="M 3272 -594 
L 3272 -1044 
L 3078 -1044 
Q 2300 -1044 2036 -812 
Q 1772 -581 1772 109 
L 1772 856 
Q 1772 1328 1603 1509 
Q 1434 1691 991 1691 
L 800 1691 
L 800 2138 
L 991 2138 
Q 1438 2138 1605 2317 
Q 1772 2497 1772 2963 
L 1772 3713 
Q 1772 4403 2036 4633 
Q 2300 4863 3078 4863 
L 3272 4863 
L 3272 4416 
L 3059 4416 
Q 2619 4416 2484 4278 
Q 2350 4141 2350 3700 
L 2350 2925 
Q 2350 2434 2208 2212 
Q 2066 1991 1722 1913 
Q 2069 1828 2209 1606 
Q 2350 1384 2350 897 
L 2350 122 
Q 2350 -319 2484 -456 
Q 2619 -594 3059 -594 
L 3272 -594 
z
" transform="scale(0.015625)"/>
      <path id="DejaVuSans-32" d="M 1228 531 
L 3431 531 
L 3431 0 
L 469 0 
L 469 531 
Q 828 903 1448 1529 
Q 2069 2156 2228 2338 
Q 2531 2678 2651 2914 
Q 2772 3150 2772 3378 
Q 2772 3750 2511 3984 
Q 2250 4219 1831 4219 
Q 1534 4219 1204 4116 
Q 875 4013 500 3803 
L 500 4441 
Q 881 4594 1212 4672 
Q 1544 4750 1819 4750 
Q 2544 4750 2975 4387 
Q 3406 4025 3406 3419 
Q 3406 3131 3298 2873 
Q 3191 2616 2906 2266 
Q 2828 2175 2409 1742 
Q 1991 1309 1228 531 
z
" transform="scale(0.015625)"/>
      <path id="DejaVuSans-7d" d="M 800 -594 
L 1019 -594 
Q 1456 -594 1589 -459 
Q 1722 -325 1722 122 
L 1722 897 
Q 1722 1384 1862 1606 
Q 2003 1828 2350 1913 
Q 2003 1991 1862 2212 
Q 1722 2434 1722 2925 
L 1722 3700 
Q 1722 4144 1589 4280 
Q 1456 4416 1019 4416 
L 800 4416 
L 800 4863 
L 997 4863 
Q 1775 4863 2036 4633 
Q 2297 4403 2297 3713 
L 2297 2963 
Q 2297 2497 2465 2317 
Q 2634 2138 3078 2138 
L 3272 2138 
L 3272 1691 
L 3078 1691 
Q 2634 1691 2465 1509 
Q 2297 1328 2297 856 
L 2297 109 
Q 2297 -581 2036 -812 
Q 1775 -1044 997 -1044 
L 800 -1044 
L 800 -594 
z
" transform="scale(0.015625)"/>
      <path id="DejaVuSans-2c" d="M 750 794 
L 1409 794 
L 1409 256 
L 897 -744 
L 494 -744 
L 750 256 
L 750 794 
z
" transform="scale(0.015625)"/>
     </defs>
     <use xlink:href="#DejaVuSans-7b"/>
     <use xlink:href="#DejaVuSans-66" x="63.623047"/>
     <use xlink:href="#DejaVuSans-32" x="98.828125"/>
     <use xlink:href="#DejaVuSans-30" x="162.451172"/>
     <use xlink:href="#DejaVuSans-2d" x="226.074219"/>
     <use xlink:href="#DejaVuSans-66" x="262.158203"/>
     <use xlink:href="#DejaVuSans-32" x="297.363281"/>
     <use xlink:href="#DejaVuSans-34" x="360.986328"/>
     <use xlink:href="#DejaVuSans-7d" x="424.609375"/>
     <use xlink:href="#DejaVuSans-2c" x="488.232422"/>
     <use xlink:href="#DejaVuSans-20" x="520.019531"/>
     <use xlink:href="#DejaVuSans-32" x="551.806641"/>
     <use xlink:href="#DejaVuSans-30" x="615.429688"/>
     <use xlink:href="#DejaVuSans-2d" x="679.052734"/>
     <use xlink:href="#DejaVuSans-44" x="715.136719"/>
    </g>
   </g>
   <g id="text_7">
    <!-- v2.6.3 -->
    <g style="fill: #808080" transform="translate(214.71875 288.777272) scale(0.1 -0.1)">
     <defs>
      <path id="DejaVuSans-76" d="M 191 3500 
L 800 3500 
L 1894 563 
L 2988 3500 
L 3597 3500 
L 2284 0 
L 1503 0 
L 191 3500 
z
" transform="scale(0.015625)"/>
      <path id="DejaVuSans-2e" d="M 684 794 
L 1344 794 
L 1344 0 
L 684 0 
L 684 794 
z
" transform="scale(0.015625)"/>
      <path id="DejaVuSans-36" d="M 2113 2584 
Q 1688 2584 1439 2293 
Q 1191 2003 1191 1497 
Q 1191 994 1439 701 
Q 1688 409 2113 409 
Q 2538 409 2786 701 
Q 3034 994 3034 1497 
Q 3034 2003 2786 2293 
Q 2538 2584 2113 2584 
z
M 3366 4563 
L 3366 3988 
Q 3128 4100 2886 4159 
Q 2644 4219 2406 4219 
Q 1781 4219 1451 3797 
Q 1122 3375 1075 2522 
Q 1259 2794 1537 2939 
Q 1816 3084 2150 3084 
Q 2853 3084 3261 2657 
Q 3669 2231 3669 1497 
Q 3669 778 3244 343 
Q 2819 -91 2113 -91 
Q 1303 -91 875 529 
Q 447 1150 447 2328 
Q 447 3434 972 4092 
Q 1497 4750 2381 4750 
Q 2619 4750 2861 4703 
Q 3103 4656 3366 4563 
z
" transform="scale(0.015625)"/>
      <path id="DejaVuSans-33" d="M 2597 2516 
Q 3050 2419 3304 2112 
Q 3559 1806 3559 1356 
Q 3559 666 3084 287 
Q 2609 -91 1734 -91 
Q 1441 -91 1130 -33 
Q 819 25 488 141 
L 488 750 
Q 750 597 1062 519 
Q 1375 441 1716 441 
Q 2309 441 2620 675 
Q 2931 909 2931 1356 
Q 2931 1769 2642 2001 
Q 2353 2234 1838 2234 
L 1294 2234 
L 1294 2753 
L 1863 2753 
Q 2328 2753 2575 2939 
Q 2822 3125 2822 3475 
Q 2822 3834 2567 4026 
Q 2313 4219 1838 4219 
Q 1578 4219 1281 4162 
Q 984 4106 628 3988 
L 628 4550 
Q 988 4650 1302 4700 
Q 1616 4750 1894 4750 
Q 2613 4750 3031 4423 
Q 3450 4097 3450 3541 
Q 3450 3153 3228 2886 
Q 3006 2619 2597 2516 
z
" transform="scale(0.015625)"/>
     </defs>
     <use xlink:href="#DejaVuSans-76"/>
     <use xlink:href="#DejaVuSans-32" x="59.179688"/>
     <use xlink:href="#DejaVuSans-2e" x="122.802734"/>
     <use xlink:href="#DejaVuSans-36" x="154.589844"/>
     <use xlink:href="#DejaVuSans-2e" x="218.212891"/>
     <use xlink:href="#DejaVuSans-33" x="250"/>
    </g>
   </g>
  </g>
 </g>
 <defs>
  <clipPath id="p3f02d85fcd">
   <rect x="0" y="3.456" width="460.8" height="290.304"/>
  </clipPath>
 </defs>
</svg>
