<?xml version="1.0" encoding="utf-8" standalone="no"?>
<!DOCTYPE svg PUBLIC "-//W3C//DTD SVG 1.1//EN"
  "http://www.w3.org/Graphics/SVG/1.1/DTD/svg11.dtd">
<svg xmlns:xlink="http://www.w3.org/1999/xlink" width="460.8pt" height="345.6pt" viewBox="0 0 460.8 345.6" xmlns="http://www.w3.org/2000/svg" version="1.1">
 <metadata>
  <rdf:RDF xmlns:dc="http://purl.org/dc/elements/1.1/" xmlns:cc="http://creativecommons.org/ns#" xmlns:rdf="http://www.w3.org/1999/02/22-rdf-syntax-ns#">
   <cc:Work>
    <dc:type rdf:resource="http://purl.org/dc/dcmitype/StillImage"/>
    <dc:date>2024-01-17T15:45:36.508807</dc:date>
    <dc:format>image/svg+xml</dc:format>
    <dc:creator>
     <cc:Agent>
      <dc:title>Matplotlib v3.8.2, https://matplotlib.org/</dc:title>
     </cc:Agent>
    </dc:creator>
   </cc:Work>
  </rdf:RDF>
 </metadata>
 <defs>
  <style type="text/css">*{stroke-linejoin: round; stroke-linecap: butt}</style>
 </defs>
 <g id="figure_1">
  <g id="patch_1">
   <path d="M 0 345.6 
L 460.8 345.6 
L 460.8 0 
L 0 0 
z
" style="fill: #ffffff"/>
  </g>
  <g id="axes_1">
   <g id="patch_2">
    <path d="M 0 293.76 
L 460.8 293.76 
L 460.8 3.456 
L 0 3.456 
z
" style="fill: #ffffff"/>
   </g>
   <g id="matplotlib.axis_1">
    <g id="xtick_1">
     <g id="line2d_1">
      <path d="M 104.5682 293.76 
L 104.5682 3.456 
" clip-path="url(#p01d7a053af)" style="fill: none; stroke: #b0b0b0; stroke-width: 0.8; stroke-linecap: square"/>
     </g>
     <g id="line2d_2">
      <defs>
       <path id="m5a78955a2e" d="M 0 0 
L 0 3.5 
" style="stroke: #000000; stroke-width: 0.8"/>
      </defs>
      <g>
       <use xlink:href="#m5a78955a2e" x="104.5682" y="293.76" style="stroke: #000000; stroke-width: 0.8"/>
      </g>
     </g>
     <g id="text_1">
      <!-- -4 -->
      <g transform="translate(94.597887 315.956875) scale(0.2 -0.2)">
       <defs>
        <path id="DejaVuSans-2d" d="M 313 2009 
L 1997 2009 
L 1997 1497 
L 313 1497 
L 313 2009 
z
" transform="scale(0.015625)"/>
        <path id="DejaVuSans-34" d="M 2419 4116 
L 825 1625 
L 2419 1625 
L 2419 4116 
z
M 2253 4666 
L 3047 4666 
L 3047 1625 
L 3713 1625 
L 3713 1100 
L 3047 1100 
L 3047 0 
L 2419 0 
L 2419 1100 
L 313 1100 
L 313 1709 
L 2253 4666 
z
" transform="scale(0.015625)"/>
       </defs>
       <use xlink:href="#DejaVuSans-2d"/>
       <use xlink:href="#DejaVuSans-34" x="36.083984"/>
      </g>
     </g>
    </g>
    <g id="xtick_2">
     <g id="line2d_3">
      <path d="M 209.249491 293.76 
L 209.249491 3.456 
" clip-path="url(#p01d7a053af)" style="fill: none; stroke: #b0b0b0; stroke-width: 0.8; stroke-linecap: square"/>
     </g>
     <g id="line2d_4">
      <g>
       <use xlink:href="#m5a78955a2e" x="209.249491" y="293.76" style="stroke: #000000; stroke-width: 0.8"/>
      </g>
     </g>
     <g id="text_2">
      <!-- 0 -->
      <g transform="translate(202.886991 315.956875) scale(0.2 -0.2)">
       <defs>
        <path id="DejaVuSans-30" d="M 2034 4250 
Q 1547 4250 1301 3770 
Q 1056 3291 1056 2328 
Q 1056 1369 1301 889 
Q 1547 409 2034 409 
Q 2525 409 2770 889 
Q 3016 1369 3016 2328 
Q 3016 3291 2770 3770 
Q 2525 4250 2034 4250 
z
M 2034 4750 
Q 2819 4750 3233 4129 
Q 3647 3509 3647 2328 
Q 3647 1150 3233 529 
Q 2819 -91 2034 -91 
Q 1250 -91 836 529 
Q 422 1150 422 2328 
Q 422 3509 836 4129 
Q 1250 4750 2034 4750 
z
" transform="scale(0.015625)"/>
       </defs>
       <use xlink:href="#DejaVuSans-30"/>
      </g>
     </g>
    </g>
    <g id="xtick_3">
     <g id="line2d_5">
      <path d="M 313.930783 293.76 
L 313.930783 3.456 
" clip-path="url(#p01d7a053af)" style="fill: none; stroke: #b0b0b0; stroke-width: 0.8; stroke-linecap: square"/>
     </g>
     <g id="line2d_6">
      <g>
       <use xlink:href="#m5a78955a2e" x="313.930783" y="293.76" style="stroke: #000000; stroke-width: 0.8"/>
      </g>
     </g>
     <g id="text_3">
      <!-- 4 -->
      <g transform="translate(307.568283 315.956875) scale(0.2 -0.2)">
       <use xlink:href="#DejaVuSans-34"/>
      </g>
     </g>
    </g>
    <g id="xtick_4">
     <g id="line2d_7">
      <path d="M 418.612074 293.76 
L 418.612074 3.456 
" clip-path="url(#p01d7a053af)" style="fill: none; stroke: #b0b0b0; stroke-width: 0.8; stroke-linecap: square"/>
     </g>
     <g id="line2d_8">
      <g>
       <use xlink:href="#m5a78955a2e" x="418.612074" y="293.76" style="stroke: #000000; stroke-width: 0.8"/>
      </g>
     </g>
     <g id="text_4">
      <!-- 8 -->
      <g transform="translate(412.249574 315.956875) scale(0.2 -0.2)">
       <defs>
        <path id="DejaVuSans-38" d="M 2034 2216 
Q 1584 2216 1326 1975 
Q 1069 1734 1069 1313 
Q 1069 891 1326 650 
Q 1584 409 2034 409 
Q 2484 409 2743 651 
Q 3003 894 3003 1313 
Q 3003 1734 2745 1975 
Q 2488 2216 2034 2216 
z
M 1403 2484 
Q 997 2584 770 2862 
Q 544 3141 544 3541 
Q 544 4100 942 4425 
Q 1341 4750 2034 4750 
Q 2731 4750 3128 4425 
Q 3525 4100 3525 3541 
Q 3525 3141 3298 2862 
Q 3072 2584 2669 2484 
Q 3125 2378 3379 2068 
Q 3634 1759 3634 1313 
Q 3634 634 3220 271 
Q 2806 -91 2034 -91 
Q 1263 -91 848 271 
Q 434 634 434 1313 
Q 434 1759 690 2068 
Q 947 2378 1403 2484 
z
M 1172 3481 
Q 1172 3119 1398 2916 
Q 1625 2713 2034 2713 
Q 2441 2713 2670 2916 
Q 2900 3119 2900 3481 
Q 2900 3844 2670 4047 
Q 2441 4250 2034 4250 
Q 1625 4250 1398 4047 
Q 1172 3844 1172 3481 
z
" transform="scale(0.015625)"/>
       </defs>
       <use xlink:href="#DejaVuSans-38"/>
      </g>
     </g>
    </g>
    <g id="text_5">
     <!-- log10 of Df -->
     <g transform="translate(175.214063 339.313125) scale(0.2 -0.2)">
      <defs>
       <path id="DejaVuSans-6c" d="M 603 4863 
L 1178 4863 
L 1178 0 
L 603 0 
L 603 4863 
z
" transform="scale(0.015625)"/>
       <path id="DejaVuSans-6f" d="M 1959 3097 
Q 1497 3097 1228 2736 
Q 959 2375 959 1747 
Q 959 1119 1226 758 
Q 1494 397 1959 397 
Q 2419 397 2687 759 
Q 2956 1122 2956 1747 
Q 2956 2369 2687 2733 
Q 2419 3097 1959 3097 
z
M 1959 3584 
Q 2709 3584 3137 3096 
Q 3566 2609 3566 1747 
Q 3566 888 3137 398 
Q 2709 -91 1959 -91 
Q 1206 -91 779 398 
Q 353 888 353 1747 
Q 353 2609 779 3096 
Q 1206 3584 1959 3584 
z
" transform="scale(0.015625)"/>
       <path id="DejaVuSans-67" d="M 2906 1791 
Q 2906 2416 2648 2759 
Q 2391 3103 1925 3103 
Q 1463 3103 1205 2759 
Q 947 2416 947 1791 
Q 947 1169 1205 825 
Q 1463 481 1925 481 
Q 2391 481 2648 825 
Q 2906 1169 2906 1791 
z
M 3481 434 
Q 3481 -459 3084 -895 
Q 2688 -1331 1869 -1331 
Q 1566 -1331 1297 -1286 
Q 1028 -1241 775 -1147 
L 775 -588 
Q 1028 -725 1275 -790 
Q 1522 -856 1778 -856 
Q 2344 -856 2625 -561 
Q 2906 -266 2906 331 
L 2906 616 
Q 2728 306 2450 153 
Q 2172 0 1784 0 
Q 1141 0 747 490 
Q 353 981 353 1791 
Q 353 2603 747 3093 
Q 1141 3584 1784 3584 
Q 2172 3584 2450 3431 
Q 2728 3278 2906 2969 
L 2906 3500 
L 3481 3500 
L 3481 434 
z
" transform="scale(0.015625)"/>
       <path id="DejaVuSans-31" d="M 794 531 
L 1825 531 
L 1825 4091 
L 703 3866 
L 703 4441 
L 1819 4666 
L 2450 4666 
L 2450 531 
L 3481 531 
L 3481 0 
L 794 0 
L 794 531 
z
" transform="scale(0.015625)"/>
       <path id="DejaVuSans-20" transform="scale(0.015625)"/>
       <path id="DejaVuSans-66" d="M 2375 4863 
L 2375 4384 
L 1825 4384 
Q 1516 4384 1395 4259 
Q 1275 4134 1275 3809 
L 1275 3500 
L 2222 3500 
L 2222 3053 
L 1275 3053 
L 1275 0 
L 697 0 
L 697 3053 
L 147 3053 
L 147 3500 
L 697 3500 
L 697 3744 
Q 697 4328 969 4595 
Q 1241 4863 1831 4863 
L 2375 4863 
z
" transform="scale(0.015625)"/>
       <path id="DejaVuSans-44" d="M 1259 4147 
L 1259 519 
L 2022 519 
Q 2988 519 3436 956 
Q 3884 1394 3884 2338 
Q 3884 3275 3436 3711 
Q 2988 4147 2022 4147 
L 1259 4147 
z
M 628 4666 
L 1925 4666 
Q 3281 4666 3915 4102 
Q 4550 3538 4550 2338 
Q 4550 1131 3912 565 
Q 3275 0 1925 0 
L 628 0 
L 628 4666 
z
" transform="scale(0.015625)"/>
      </defs>
      <use xlink:href="#DejaVuSans-6c"/>
      <use xlink:href="#DejaVuSans-6f" x="27.783203"/>
      <use xlink:href="#DejaVuSans-67" x="88.964844"/>
      <use xlink:href="#DejaVuSans-31" x="152.441406"/>
      <use xlink:href="#DejaVuSans-30" x="216.064453"/>
      <use xlink:href="#DejaVuSans-20" x="279.6875"/>
      <use xlink:href="#DejaVuSans-6f" x="311.474609"/>
      <use xlink:href="#DejaVuSans-66" x="372.65625"/>
      <use xlink:href="#DejaVuSans-20" x="407.861328"/>
      <use xlink:href="#DejaVuSans-44" x="439.648438"/>
      <use xlink:href="#DejaVuSans-66" x="516.650391"/>
     </g>
    </g>
   </g>
   <g id="matplotlib.axis_2">
    <g id="ytick_1">
     <g id="line2d_9">
      <path d="M 0 293.76 
L 460.8 293.76 
" clip-path="url(#p01d7a053af)" style="fill: none; stroke: #b0b0b0; stroke-width: 0.8; stroke-linecap: square"/>
     </g>
     <g id="line2d_10">
      <defs>
       <path id="m7681894f47" d="M 0 0 
L -3.5 0 
" style="stroke: #000000; stroke-width: 0.8"/>
      </defs>
      <g>
       <use xlink:href="#m7681894f47" x="0" y="293.76" style="stroke: #000000; stroke-width: 0.8"/>
      </g>
     </g>
    </g>
    <g id="ytick_2">
     <g id="line2d_11">
      <path d="M 0 236.274059 
L 460.8 236.274059 
" clip-path="url(#p01d7a053af)" style="fill: none; stroke: #b0b0b0; stroke-width: 0.8; stroke-linecap: square"/>
     </g>
     <g id="line2d_12">
      <g>
       <use xlink:href="#m7681894f47" x="0" y="236.274059" style="stroke: #000000; stroke-width: 0.8"/>
      </g>
     </g>
    </g>
    <g id="ytick_3">
     <g id="line2d_13">
      <path d="M 0 178.788119 
L 460.8 178.788119 
" clip-path="url(#p01d7a053af)" style="fill: none; stroke: #b0b0b0; stroke-width: 0.8; stroke-linecap: square"/>
     </g>
     <g id="line2d_14">
      <g>
       <use xlink:href="#m7681894f47" x="0" y="178.788119" style="stroke: #000000; stroke-width: 0.8"/>
      </g>
     </g>
    </g>
    <g id="ytick_4">
     <g id="line2d_15">
      <path d="M 0 121.302178 
L 460.8 121.302178 
" clip-path="url(#p01d7a053af)" style="fill: none; stroke: #b0b0b0; stroke-width: 0.8; stroke-linecap: square"/>
     </g>
     <g id="line2d_16">
      <g>
       <use xlink:href="#m7681894f47" x="0" y="121.302178" style="stroke: #000000; stroke-width: 0.8"/>
      </g>
     </g>
    </g>
    <g id="ytick_5">
     <g id="line2d_17">
      <path d="M 0 63.816238 
L 460.8 63.816238 
" clip-path="url(#p01d7a053af)" style="fill: none; stroke: #b0b0b0; stroke-width: 0.8; stroke-linecap: square"/>
     </g>
     <g id="line2d_18">
      <g>
       <use xlink:href="#m7681894f47" x="0" y="63.816238" style="stroke: #000000; stroke-width: 0.8"/>
      </g>
     </g>
    </g>
    <g id="ytick_6">
     <g id="line2d_19">
      <path d="M 0 6.330297 
L 460.8 6.330297 
" clip-path="url(#p01d7a053af)" style="fill: none; stroke: #b0b0b0; stroke-width: 0.8; stroke-linecap: square"/>
     </g>
     <g id="line2d_20">
      <g>
       <use xlink:href="#m7681894f47" x="0" y="6.330297" style="stroke: #000000; stroke-width: 0.8"/>
      </g>
     </g>
    </g>
   </g>
   <g id="line2d_21">
    <path d="M 189.144503 293.76 
L 189.150462 286.095208 
L 189.317511 286.095208 
L 189.370974 270.765624 
L 189.711548 270.765624 
L 189.711548 266.933228 
L 193.510365 266.933228 
L 193.510365 236.274059 
L 229.60669 236.274059 
L 229.60669 232.441663 
L 230.359822 232.441663 
L 230.359822 228.609267 
L 231.444772 228.609267 
L 231.444772 224.776871 
L 232.303573 224.776871 
L 232.303573 220.944475 
L 235.722426 220.944475 
L 235.722426 217.112079 
L 237.057104 217.112079 
L 237.057104 213.279683 
L 237.803287 213.279683 
L 237.803287 209.447287 
L 239.129552 209.447287 
L 239.129552 205.614891 
L 239.796985 205.614891 
L 239.796985 201.782495 
L 241.687159 201.782495 
L 241.687159 197.950099 
L 241.948482 197.950099 
L 241.948482 194.117703 
L 242.229884 194.117703 
L 242.229884 190.285307 
L 244.76855 190.285307 
L 244.76855 186.452911 
L 246.182954 186.452911 
L 246.182954 182.620515 
L 247.508388 182.620515 
L 247.508388 178.788119 
L 247.805656 178.788119 
L 247.86781 171.123327 
L 248.975232 171.123327 
L 248.975232 167.290931 
L 249.318864 167.290931 
L 249.318864 163.458535 
L 251.138424 163.458535 
L 251.212125 155.793743 
L 252.131127 155.793743 
L 252.131127 151.961347 
L 252.388095 151.961347 
L 252.388095 148.12895 
L 252.548113 148.12895 
L 252.548113 144.296554 
L 253.161832 144.296554 
L 253.161832 140.464158 
L 253.360032 140.464158 
L 253.360032 136.631762 
L 253.98993 136.631762 
L 253.98993 132.799366 
L 254.421423 132.799366 
L 254.47526 125.134574 
L 254.730162 125.134574 
L 254.730162 121.302178 
L 254.869596 121.302178 
L 254.869596 117.469782 
L 255.038545 117.469782 
L 255.038545 113.637386 
L 255.6733 113.637386 
L 255.6733 109.80499 
L 255.87931 109.80499 
L 255.87931 105.972594 
L 256.091156 105.972594 
L 256.091156 102.140198 
L 256.390836 102.140198 
L 256.390836 98.307802 
L 256.82038 98.307802 
L 256.82038 94.475406 
L 257.559956 94.475406 
L 257.559956 90.64301 
L 257.87857 90.64301 
L 257.87857 86.810614 
L 258.391452 86.810614 
L 258.391452 82.978218 
L 259.05729 82.978218 
L 259.05729 79.145822 
L 259.258114 79.145822 
L 259.258114 75.313426 
L 260.694824 75.313426 
L 260.694824 71.48103 
L 264.285796 71.48103 
L 264.285796 67.648634 
L 265.246131 67.648634 
L 265.246131 63.816238 
L 274.23381 63.816238 
L 274.23381 59.983842 
L 275.153721 59.983842 
L 275.153721 56.151446 
L 277.25113 56.151446 
L 277.25113 52.31905 
L 278.396552 52.31905 
L 278.396552 48.486653 
L 279.159048 48.486653 
L 279.247846 40.821861 
L 280.568347 40.821861 
L 280.568347 36.989465 
L 282.612554 36.989465 
L 282.696925 29.324673 
L 284.029406 29.324673 
L 284.029406 25.492277 
L 284.409962 25.492277 
L 284.432657 17.827485 
L 286.2864 17.827485 
L 286.368764 10.162693 
L 288.142258 10.162693 
L 288.142258 6.330297 
L 288.142258 6.330297 
L 460.8 6.330297 
L 460.8 6.330297 
" clip-path="url(#p01d7a053af)" style="fill: none; stroke: #ff0000; stroke-width: 3; stroke-linecap: square"/>
   </g>
   <g id="line2d_22">
    <path d="M 193.510365 293.76 
L 193.510365 236.274059 
L 236.562426 236.274059 
L 236.562426 232.441663 
L 239.35367 232.441663 
L 239.35367 228.609267 
L 239.583284 228.609267 
L 239.583284 224.776871 
L 239.798956 224.776871 
L 239.798956 220.944475 
L 240.019895 220.944475 
L 240.019895 217.112079 
L 240.131615 217.112079 
L 240.131615 213.279683 
L 241.756818 213.279683 
L 241.756818 209.447287 
L 241.869316 209.447287 
L 241.869316 205.614891 
L 242.528245 205.614891 
L 242.528245 201.782495 
L 243.596538 201.782495 
L 243.596538 197.950099 
L 244.586098 197.950099 
L 244.586098 194.117703 
L 245.131722 194.117703 
L 245.131722 190.285307 
L 245.278903 190.285307 
L 245.278903 186.452911 
L 248.690086 186.452911 
L 248.690086 182.620515 
L 249.991666 182.620515 
L 249.991666 178.788119 
L 251.872492 178.788119 
L 251.961026 167.290931 
L 253.357136 167.290931 
L 253.357136 163.458535 
L 253.953104 163.458535 
L 253.98993 155.793743 
L 254.562478 155.793743 
L 254.562478 151.961347 
L 254.730162 151.961347 
L 254.730162 148.12895 
L 255.038545 148.12895 
L 255.038545 144.296554 
L 255.310776 144.296554 
L 255.310776 140.464158 
L 255.800253 140.464158 
L 255.800253 136.631762 
L 256.091156 136.631762 
L 256.091156 132.799366 
L 256.417554 132.799366 
L 256.497063 125.134574 
L 256.566618 125.134574 
L 256.615363 117.469782 
L 256.82038 117.469782 
L 256.832689 109.80499 
L 257.623141 109.80499 
L 257.650599 102.140198 
L 257.78774 102.140198 
L 257.78774 98.307802 
L 258.420321 98.307802 
L 258.420321 94.475406 
L 258.780226 94.475406 
L 258.780226 90.64301 
L 259.05729 90.64301 
L 259.05729 86.810614 
L 260.372165 86.810614 
L 260.372165 82.978218 
L 260.676136 82.978218 
L 260.676136 79.145822 
L 261.776234 79.145822 
L 261.803279 71.48103 
L 266.343824 71.48103 
L 266.343824 67.648634 
L 268.058124 67.648634 
L 268.058124 63.816238 
L 279.643119 63.816238 
L 279.643119 59.983842 
L 280.333918 59.983842 
L 280.333918 56.151446 
L 281.759436 56.151446 
L 281.759436 52.31905 
L 282.430074 52.31905 
L 282.430074 48.486653 
L 282.659661 48.486653 
L 282.659661 44.654257 
L 284.161112 44.654257 
L 284.161112 40.821861 
L 284.360836 40.821861 
L 284.360836 36.989465 
L 285.158644 36.989465 
L 285.158644 33.157069 
L 285.776768 33.157069 
L 285.776768 29.324673 
L 286.319874 29.324673 
L 286.319874 25.492277 
L 286.550988 25.492277 
L 286.550988 21.659881 
L 286.827736 21.659881 
L 286.827736 17.827485 
L 287.176275 17.827485 
L 287.176275 13.995089 
L 288.387929 13.995089 
L 288.387929 10.162693 
L 289.854391 10.162693 
L 289.854391 6.330297 
L 289.854391 6.330297 
L 460.8 6.330297 
L 460.8 6.330297 
" clip-path="url(#p01d7a053af)" style="fill: none; stroke: #00bfbf; stroke-width: 1.5; stroke-linecap: square"/>
   </g>
   <g id="line2d_23">
    <path d="M 193.510365 293.76 
L 193.510365 236.274059 
L 235.722426 236.274059 
L 235.722426 232.441663 
L 239.08393 232.441663 
L 239.129552 224.776871 
L 239.611874 224.776871 
L 239.611874 220.944475 
L 239.773975 220.944475 
L 239.806366 213.279683 
L 241.687159 213.279683 
L 241.687159 209.447287 
L 241.869316 209.447287 
L 241.869316 205.614891 
L 242.229884 205.614891 
L 242.229884 201.782495 
L 243.138231 201.782495 
L 243.138231 197.950099 
L 244.586098 197.950099 
L 244.586098 194.117703 
L 244.76855 194.117703 
L 244.76855 190.285307 
L 245.127333 190.285307 
L 245.127333 186.452911 
L 248.051416 186.452911 
L 248.051416 182.620515 
L 249.991666 182.620515 
L 249.991666 178.788119 
L 251.212125 178.788119 
L 251.212125 174.955723 
L 251.725986 174.955723 
L 251.725986 171.123327 
L 251.886932 171.123327 
L 251.886932 167.290931 
L 252.352215 167.290931 
L 252.352215 163.458535 
L 253.390753 163.458535 
L 253.390753 159.626139 
L 253.98993 159.626139 
L 253.98993 155.793743 
L 254.279332 155.793743 
L 254.279332 151.961347 
L 254.528959 151.961347 
L 254.528959 148.12895 
L 254.730162 148.12895 
L 254.730162 144.296554 
L 255.038545 144.296554 
L 255.038545 140.464158 
L 255.6733 140.464158 
L 255.6733 136.631762 
L 255.843199 136.631762 
L 255.843199 132.799366 
L 255.982644 132.799366 
L 256.091156 125.134574 
L 256.331243 125.134574 
L 256.333721 117.469782 
L 256.497063 117.469782 
L 256.497063 113.637386 
L 256.82038 113.637386 
L 256.82038 109.80499 
L 257.623141 109.80499 
L 257.650599 102.140198 
L 257.78774 102.140198 
L 257.78774 98.307802 
L 257.990194 98.307802 
L 257.990194 94.475406 
L 258.684131 94.475406 
L 258.684131 90.64301 
L 259.05729 90.64301 
L 259.05729 86.810614 
L 260.372165 86.810614 
L 260.372165 82.978218 
L 260.665219 82.978218 
L 260.665219 79.145822 
L 261.422644 79.145822 
L 261.422644 75.313426 
L 261.776234 75.313426 
L 261.776234 71.48103 
L 266.343824 71.48103 
L 266.343824 67.648634 
L 268.058124 67.648634 
L 268.058124 63.816238 
L 279.300361 63.816238 
L 279.300361 59.983842 
L 280.289638 59.983842 
L 280.289638 56.151446 
L 281.759436 56.151446 
L 281.759436 52.31905 
L 282.430074 52.31905 
L 282.430074 48.486653 
L 282.617359 48.486653 
L 282.617359 44.654257 
L 284.032863 44.654257 
L 284.061061 36.989465 
L 285.158644 36.989465 
L 285.158644 33.157069 
L 285.776768 33.157069 
L 285.776768 29.324673 
L 286.223096 29.324673 
L 286.223096 25.492277 
L 286.368764 25.492277 
L 286.368764 21.659881 
L 286.827736 21.659881 
L 286.827736 17.827485 
L 286.999773 17.827485 
L 286.999773 13.995089 
L 288.387929 13.995089 
L 288.387929 10.162693 
L 289.854391 10.162693 
L 289.854391 6.330297 
L 289.854391 6.330297 
L 460.8 6.330297 
L 460.8 6.330297 
" clip-path="url(#p01d7a053af)" style="fill: none; stroke: #bf00bf; stroke-width: 1.5; stroke-linecap: square"/>
   </g>
   <g id="line2d_24">
    <path d="M 192.282732 293.76 
L 192.327669 286.095208 
L 192.45268 286.095208 
L 192.464159 278.430416 
L 192.627715 278.430416 
L 192.627715 274.59802 
L 192.758558 274.59802 
L 192.758558 270.765624 
L 192.902692 270.765624 
L 192.902692 266.933228 
L 193.510365 266.933228 
L 193.510365 236.274059 
L 234.303468 236.274059 
L 234.303468 232.441663 
L 234.762247 232.441663 
L 234.779952 224.776871 
L 235.722426 224.776871 
L 235.722426 220.944475 
L 236.228936 220.944475 
L 236.228936 217.112079 
L 239.129552 217.112079 
L 239.129552 213.279683 
L 239.52785 213.279683 
L 239.52785 209.447287 
L 239.742061 209.447287 
L 239.742061 205.614891 
L 241.387864 205.614891 
L 241.387864 201.782495 
L 241.687159 201.782495 
L 241.687159 197.950099 
L 242.229884 197.950099 
L 242.229884 194.117703 
L 243.723652 194.117703 
L 243.723652 190.285307 
L 244.76855 190.285307 
L 244.76855 186.452911 
L 246.821893 186.452911 
L 246.821893 182.620515 
L 248.878305 182.620515 
L 248.878305 178.788119 
L 249.149089 178.788119 
L 249.149089 174.955723 
L 250.478468 174.955723 
L 250.478468 171.123327 
L 251.055576 171.123327 
L 251.055576 167.290931 
L 251.195263 167.290931 
L 251.212125 159.626139 
L 251.535757 159.626139 
L 251.535757 155.793743 
L 252.227557 155.793743 
L 252.227557 151.961347 
L 252.52929 151.961347 
L 252.52929 148.12895 
L 253.345565 148.12895 
L 253.420985 140.464158 
L 253.98993 140.464158 
L 253.98993 136.631762 
L 254.450846 136.631762 
L 254.450846 132.799366 
L 254.730162 132.799366 
L 254.730162 128.96697 
L 255.038545 128.96697 
L 255.038545 125.134574 
L 255.164432 125.134574 
L 255.164432 121.302178 
L 255.6733 121.302178 
L 255.6733 117.469782 
L 255.929713 117.469782 
L 255.929713 113.637386 
L 256.091156 113.637386 
L 256.091156 109.80499 
L 256.44487 109.80499 
L 256.44487 105.972594 
L 256.82038 105.972594 
L 256.861014 98.307802 
L 257.607394 98.307802 
L 257.607394 94.475406 
L 257.896251 94.475406 
L 257.896251 90.64301 
L 258.339926 90.64301 
L 258.339926 86.810614 
L 259.05729 86.810614 
L 259.05729 82.978218 
L 259.290108 82.978218 
L 259.290108 79.145822 
L 259.902711 79.145822 
L 259.902711 75.313426 
L 261.213134 75.313426 
L 261.213134 71.48103 
L 265.438822 71.48103 
L 265.438822 67.648634 
L 267.358646 67.648634 
L 267.358646 63.816238 
L 277.406518 63.816238 
L 277.406518 59.983842 
L 277.662943 59.983842 
L 277.662943 56.151446 
L 280.143198 56.151446 
L 280.143198 52.31905 
L 280.591852 52.31905 
L 280.591852 48.486653 
L 280.87687 48.486653 
L 280.87687 44.654257 
L 281.201711 44.654257 
L 281.201711 40.821861 
L 281.658695 40.821861 
L 281.658695 36.989465 
L 283.701853 36.989465 
L 283.786576 29.324673 
L 284.811419 29.324673 
L 284.811419 25.492277 
L 285.08907 25.492277 
L 285.08907 21.659881 
L 285.307895 21.659881 
L 285.307895 17.827485 
L 286.368764 17.827485 
L 286.368764 13.995089 
L 287.181354 13.995089 
L 287.181354 10.162693 
L 289.026757 10.162693 
L 289.026757 6.330297 
L 289.026757 6.330297 
L 460.8 6.330297 
L 460.8 6.330297 
" clip-path="url(#p01d7a053af)" style="fill: none; stroke: #000000; stroke-width: 1.5; stroke-linecap: square"/>
   </g>
   <g id="line2d_25">
    <path d="M 189.146335 293.76 
L 189.150462 286.095208 
L 189.319397 286.095208 
L 189.378589 270.765624 
L 189.711548 270.765624 
L 189.711548 266.933228 
L 193.510365 266.933228 
L 193.510365 236.274059 
L 229.608673 236.274059 
L 229.608673 232.441663 
L 230.359822 232.441663 
L 230.359822 228.609267 
L 231.445405 228.609267 
L 231.445405 224.776871 
L 232.307335 224.776871 
L 232.307335 220.944475 
L 235.722426 220.944475 
L 235.722426 217.112079 
L 237.063732 217.112079 
L 237.063732 213.279683 
L 237.803287 213.279683 
L 237.803287 209.447287 
L 239.129552 209.447287 
L 239.129552 205.614891 
L 239.796985 205.614891 
L 239.796985 201.782495 
L 241.687159 201.782495 
L 241.687159 197.950099 
L 241.948482 197.950099 
L 241.948482 194.117703 
L 242.229884 194.117703 
L 242.229884 190.285307 
L 244.76855 190.285307 
L 244.76855 186.452911 
L 246.184262 186.452911 
L 246.184262 182.620515 
L 247.511271 182.620515 
L 247.511271 178.788119 
L 247.807845 178.788119 
L 247.868093 171.123327 
L 248.975497 171.123327 
L 248.975497 167.290931 
L 249.318898 167.290931 
L 249.318898 163.458535 
L 251.138424 163.458535 
L 251.212125 155.793743 
L 252.13113 155.793743 
L 252.13113 151.961347 
L 252.38813 151.961347 
L 252.38813 148.12895 
L 252.548113 148.12895 
L 252.548113 144.296554 
L 253.161865 144.296554 
L 253.161865 140.464158 
L 253.361769 140.464158 
L 253.361769 136.631762 
L 253.98993 136.631762 
L 253.98993 132.799366 
L 254.421423 132.799366 
L 254.501528 125.134574 
L 254.730162 125.134574 
L 254.730162 121.302178 
L 254.879076 121.302178 
L 254.879076 117.469782 
L 255.038545 117.469782 
L 255.038545 113.637386 
L 255.6733 113.637386 
L 255.6733 109.80499 
L 255.87931 109.80499 
L 255.87931 105.972594 
L 256.091156 105.972594 
L 256.091156 102.140198 
L 256.390843 102.140198 
L 256.390843 98.307802 
L 256.82038 98.307802 
L 256.82038 94.475406 
L 257.559966 94.475406 
L 257.559966 90.64301 
L 257.878576 90.64301 
L 257.878576 86.810614 
L 258.391452 86.810614 
L 258.391452 82.978218 
L 259.05729 82.978218 
L 259.05729 79.145822 
L 259.25813 79.145822 
L 259.25813 75.313426 
L 260.699399 75.313426 
L 260.699399 71.48103 
L 264.285937 71.48103 
L 264.285937 67.648634 
L 265.246278 67.648634 
L 265.246278 63.816238 
L 274.234546 63.816238 
L 274.234546 59.983842 
L 275.196618 59.983842 
L 275.196618 56.151446 
L 277.253861 56.151446 
L 277.253861 52.31905 
L 278.398376 52.31905 
L 278.398376 48.486653 
L 279.159574 48.486653 
L 279.248723 40.821861 
L 280.568347 40.821861 
L 280.568347 36.989465 
L 282.612554 36.989465 
L 282.696935 29.324673 
L 284.029868 29.324673 
L 284.029868 25.492277 
L 284.414334 25.492277 
L 284.432657 17.827485 
L 286.289143 17.827485 
L 286.368764 10.162693 
L 288.142743 10.162693 
L 288.142743 6.330297 
L 288.142743 6.330297 
L 460.8 6.330297 
L 460.8 6.330297 
" clip-path="url(#p01d7a053af)" style="fill: none; stroke: #00bfbf; stroke-width: 1.5; stroke-linecap: square"/>
   </g>
   <g id="patch_3">
    <path d="M 0 293.76 
L 0 3.456 
" style="fill: none; stroke: #000000; stroke-width: 0.8; stroke-linejoin: miter; stroke-linecap: square"/>
   </g>
   <g id="patch_4">
    <path d="M 460.8 293.76 
L 460.8 3.456 
" style="fill: none; stroke: #000000; stroke-width: 0.8; stroke-linejoin: miter; stroke-linecap: square"/>
   </g>
   <g id="patch_5">
    <path d="M 0 293.76 
L 460.8 293.76 
" style="fill: none; stroke: #000000; stroke-width: 0.8; stroke-linejoin: miter; stroke-linecap: square"/>
   </g>
   <g id="patch_6">
    <path d="M 0 3.456 
L 460.8 3.456 
" style="fill: none; stroke: #000000; stroke-width: 0.8; stroke-linejoin: miter; stroke-linecap: square"/>
   </g>
   <g id="text_6">
    <!-- {f15-f19}, 20-D -->
    <g transform="translate(293.159 287.95392) scale(0.2 -0.2)">
     <defs>
      <path id="DejaVuSans-7b" d="M 3272 -594 
L 3272 -1044 
L 3078 -1044 
Q 2300 -1044 2036 -812 
Q 1772 -581 1772 109 
L 1772 856 
Q 1772 1328 1603 1509 
Q 1434 1691 991 1691 
L 800 1691 
L 800 2138 
L 991 2138 
Q 1438 2138 1605 2317 
Q 1772 2497 1772 2963 
L 1772 3713 
Q 1772 4403 2036 4633 
Q 2300 4863 3078 4863 
L 3272 4863 
L 3272 4416 
L 3059 4416 
Q 2619 4416 2484 4278 
Q 2350 4141 2350 3700 
L 2350 2925 
Q 2350 2434 2208 2212 
Q 2066 1991 1722 1913 
Q 2069 1828 2209 1606 
Q 2350 1384 2350 897 
L 2350 122 
Q 2350 -319 2484 -456 
Q 2619 -594 3059 -594 
L 3272 -594 
z
" transform="scale(0.015625)"/>
      <path id="DejaVuSans-35" d="M 691 4666 
L 3169 4666 
L 3169 4134 
L 1269 4134 
L 1269 2991 
Q 1406 3038 1543 3061 
Q 1681 3084 1819 3084 
Q 2600 3084 3056 2656 
Q 3513 2228 3513 1497 
Q 3513 744 3044 326 
Q 2575 -91 1722 -91 
Q 1428 -91 1123 -41 
Q 819 9 494 109 
L 494 744 
Q 775 591 1075 516 
Q 1375 441 1709 441 
Q 2250 441 2565 725 
Q 2881 1009 2881 1497 
Q 2881 1984 2565 2268 
Q 2250 2553 1709 2553 
Q 1456 2553 1204 2497 
Q 953 2441 691 2322 
L 691 4666 
z
" transform="scale(0.015625)"/>
      <path id="DejaVuSans-39" d="M 703 97 
L 703 672 
Q 941 559 1184 500 
Q 1428 441 1663 441 
Q 2288 441 2617 861 
Q 2947 1281 2994 2138 
Q 2813 1869 2534 1725 
Q 2256 1581 1919 1581 
Q 1219 1581 811 2004 
Q 403 2428 403 3163 
Q 403 3881 828 4315 
Q 1253 4750 1959 4750 
Q 2769 4750 3195 4129 
Q 3622 3509 3622 2328 
Q 3622 1225 3098 567 
Q 2575 -91 1691 -91 
Q 1453 -91 1209 -44 
Q 966 3 703 97 
z
M 1959 2075 
Q 2384 2075 2632 2365 
Q 2881 2656 2881 3163 
Q 2881 3666 2632 3958 
Q 2384 4250 1959 4250 
Q 1534 4250 1286 3958 
Q 1038 3666 1038 3163 
Q 1038 2656 1286 2365 
Q 1534 2075 1959 2075 
z
" transform="scale(0.015625)"/>
      <path id="DejaVuSans-7d" d="M 800 -594 
L 1019 -594 
Q 1456 -594 1589 -459 
Q 1722 -325 1722 122 
L 1722 897 
Q 1722 1384 1862 1606 
Q 2003 1828 2350 1913 
Q 2003 1991 1862 2212 
Q 1722 2434 1722 2925 
L 1722 3700 
Q 1722 4144 1589 4280 
Q 1456 4416 1019 4416 
L 800 4416 
L 800 4863 
L 997 4863 
Q 1775 4863 2036 4633 
Q 2297 4403 2297 3713 
L 2297 2963 
Q 2297 2497 2465 2317 
Q 2634 2138 3078 2138 
L 3272 2138 
L 3272 1691 
L 3078 1691 
Q 2634 1691 2465 1509 
Q 2297 1328 2297 856 
L 2297 109 
Q 2297 -581 2036 -812 
Q 1775 -1044 997 -1044 
L 800 -1044 
L 800 -594 
z
" transform="scale(0.015625)"/>
      <path id="DejaVuSans-2c" d="M 750 794 
L 1409 794 
L 1409 256 
L 897 -744 
L 494 -744 
L 750 256 
L 750 794 
z
" transform="scale(0.015625)"/>
      <path id="DejaVuSans-32" d="M 1228 531 
L 3431 531 
L 3431 0 
L 469 0 
L 469 531 
Q 828 903 1448 1529 
Q 2069 2156 2228 2338 
Q 2531 2678 2651 2914 
Q 2772 3150 2772 3378 
Q 2772 3750 2511 3984 
Q 2250 4219 1831 4219 
Q 1534 4219 1204 4116 
Q 875 4013 500 3803 
L 500 4441 
Q 881 4594 1212 4672 
Q 1544 4750 1819 4750 
Q 2544 4750 2975 4387 
Q 3406 4025 3406 3419 
Q 3406 3131 3298 2873 
Q 3191 2616 2906 2266 
Q 2828 2175 2409 1742 
Q 1991 1309 1228 531 
z
" transform="scale(0.015625)"/>
     </defs>
     <use xlink:href="#DejaVuSans-7b"/>
     <use xlink:href="#DejaVuSans-66" x="63.623047"/>
     <use xlink:href="#DejaVuSans-31" x="98.828125"/>
     <use xlink:href="#DejaVuSans-35" x="162.451172"/>
     <use xlink:href="#DejaVuSans-2d" x="226.074219"/>
     <use xlink:href="#DejaVuSans-66" x="262.158203"/>
     <use xlink:href="#DejaVuSans-31" x="297.363281"/>
     <use xlink:href="#DejaVuSans-39" x="360.986328"/>
     <use xlink:href="#DejaVuSans-7d" x="424.609375"/>
     <use xlink:href="#DejaVuSans-2c" x="488.232422"/>
     <use xlink:href="#DejaVuSans-20" x="520.019531"/>
     <use xlink:href="#DejaVuSans-32" x="551.806641"/>
     <use xlink:href="#DejaVuSans-30" x="615.429688"/>
     <use xlink:href="#DejaVuSans-2d" x="679.052734"/>
     <use xlink:href="#DejaVuSans-44" x="715.136719"/>
    </g>
   </g>
   <g id="text_7">
    <!-- v2.6.3 -->
    <g style="fill: #808080" transform="translate(214.71875 288.777272) scale(0.1 -0.1)">
     <defs>
      <path id="DejaVuSans-76" d="M 191 3500 
L 800 3500 
L 1894 563 
L 2988 3500 
L 3597 3500 
L 2284 0 
L 1503 0 
L 191 3500 
z
" transform="scale(0.015625)"/>
      <path id="DejaVuSans-2e" d="M 684 794 
L 1344 794 
L 1344 0 
L 684 0 
L 684 794 
z
" transform="scale(0.015625)"/>
      <path id="DejaVuSans-36" d="M 2113 2584 
Q 1688 2584 1439 2293 
Q 1191 2003 1191 1497 
Q 1191 994 1439 701 
Q 1688 409 2113 409 
Q 2538 409 2786 701 
Q 3034 994 3034 1497 
Q 3034 2003 2786 2293 
Q 2538 2584 2113 2584 
z
M 3366 4563 
L 3366 3988 
Q 3128 4100 2886 4159 
Q 2644 4219 2406 4219 
Q 1781 4219 1451 3797 
Q 1122 3375 1075 2522 
Q 1259 2794 1537 2939 
Q 1816 3084 2150 3084 
Q 2853 3084 3261 2657 
Q 3669 2231 3669 1497 
Q 3669 778 3244 343 
Q 2819 -91 2113 -91 
Q 1303 -91 875 529 
Q 447 1150 447 2328 
Q 447 3434 972 4092 
Q 1497 4750 2381 4750 
Q 2619 4750 2861 4703 
Q 3103 4656 3366 4563 
z
" transform="scale(0.015625)"/>
      <path id="DejaVuSans-33" d="M 2597 2516 
Q 3050 2419 3304 2112 
Q 3559 1806 3559 1356 
Q 3559 666 3084 287 
Q 2609 -91 1734 -91 
Q 1441 -91 1130 -33 
Q 819 25 488 141 
L 488 750 
Q 750 597 1062 519 
Q 1375 441 1716 441 
Q 2309 441 2620 675 
Q 2931 909 2931 1356 
Q 2931 1769 2642 2001 
Q 2353 2234 1838 2234 
L 1294 2234 
L 1294 2753 
L 1863 2753 
Q 2328 2753 2575 2939 
Q 2822 3125 2822 3475 
Q 2822 3834 2567 4026 
Q 2313 4219 1838 4219 
Q 1578 4219 1281 4162 
Q 984 4106 628 3988 
L 628 4550 
Q 988 4650 1302 4700 
Q 1616 4750 1894 4750 
Q 2613 4750 3031 4423 
Q 3450 4097 3450 3541 
Q 3450 3153 3228 2886 
Q 3006 2619 2597 2516 
z
" transform="scale(0.015625)"/>
     </defs>
     <use xlink:href="#DejaVuSans-76"/>
     <use xlink:href="#DejaVuSans-32" x="59.179688"/>
     <use xlink:href="#DejaVuSans-2e" x="122.802734"/>
     <use xlink:href="#DejaVuSans-36" x="154.589844"/>
     <use xlink:href="#DejaVuSans-2e" x="218.212891"/>
     <use xlink:href="#DejaVuSans-33" x="250"/>
    </g>
   </g>
  </g>
 </g>
 <defs>
  <clipPath id="p01d7a053af">
   <rect x="0" y="3.456" width="460.8" height="290.304"/>
  </clipPath>
 </defs>
</svg>
