<?xml version="1.0" encoding="utf-8" standalone="no"?>
<!DOCTYPE svg PUBLIC "-//W3C//DTD SVG 1.1//EN"
  "http://www.w3.org/Graphics/SVG/1.1/DTD/svg11.dtd">
<svg xmlns:xlink="http://www.w3.org/1999/xlink" width="460.8pt" height="345.6pt" viewBox="0 0 460.8 345.6" xmlns="http://www.w3.org/2000/svg" version="1.1">
 <metadata>
  <rdf:RDF xmlns:dc="http://purl.org/dc/elements/1.1/" xmlns:cc="http://creativecommons.org/ns#" xmlns:rdf="http://www.w3.org/1999/02/22-rdf-syntax-ns#">
   <cc:Work>
    <dc:type rdf:resource="http://purl.org/dc/dcmitype/StillImage"/>
    <dc:date>2024-01-17T15:45:30.217119</dc:date>
    <dc:format>image/svg+xml</dc:format>
    <dc:creator>
     <cc:Agent>
      <dc:title>Matplotlib v3.8.2, https://matplotlib.org/</dc:title>
     </cc:Agent>
    </dc:creator>
   </cc:Work>
  </rdf:RDF>
 </metadata>
 <defs>
  <style type="text/css">*{stroke-linejoin: round; stroke-linecap: butt}</style>
 </defs>
 <g id="figure_1">
  <g id="patch_1">
   <path d="M 0 345.6 
L 460.8 345.6 
L 460.8 0 
L 0 0 
z
" style="fill: #ffffff"/>
  </g>
  <g id="axes_1">
   <g id="patch_2">
    <path d="M 0 293.76 
L 460.8 293.76 
L 460.8 3.456 
L 0 3.456 
z
" style="fill: #ffffff"/>
   </g>
   <g id="matplotlib.axis_1">
    <g id="xtick_1">
     <g id="line2d_1">
      <path d="M 104.376121 293.76 
L 104.376121 3.456 
" clip-path="url(#p6ae593342e)" style="fill: none; stroke: #b0b0b0; stroke-width: 0.8; stroke-linecap: square"/>
     </g>
     <g id="line2d_2">
      <defs>
       <path id="m22f0d80f36" d="M 0 0 
L 0 3.5 
" style="stroke: #000000; stroke-width: 0.8"/>
      </defs>
      <g>
       <use xlink:href="#m22f0d80f36" x="104.376121" y="293.76" style="stroke: #000000; stroke-width: 0.8"/>
      </g>
     </g>
     <g id="text_1">
      <!-- -4 -->
      <g transform="translate(94.405809 315.956875) scale(0.2 -0.2)">
       <defs>
        <path id="DejaVuSans-2d" d="M 313 2009 
L 1997 2009 
L 1997 1497 
L 313 1497 
L 313 2009 
z
" transform="scale(0.015625)"/>
        <path id="DejaVuSans-34" d="M 2419 4116 
L 825 1625 
L 2419 1625 
L 2419 4116 
z
M 2253 4666 
L 3047 4666 
L 3047 1625 
L 3713 1625 
L 3713 1100 
L 3047 1100 
L 3047 0 
L 2419 0 
L 2419 1100 
L 313 1100 
L 313 1709 
L 2253 4666 
z
" transform="scale(0.015625)"/>
       </defs>
       <use xlink:href="#DejaVuSans-2d"/>
       <use xlink:href="#DejaVuSans-34" x="36.083984"/>
      </g>
     </g>
    </g>
    <g id="xtick_2">
     <g id="line2d_3">
      <path d="M 208.865126 293.76 
L 208.865126 3.456 
" clip-path="url(#p6ae593342e)" style="fill: none; stroke: #b0b0b0; stroke-width: 0.8; stroke-linecap: square"/>
     </g>
     <g id="line2d_4">
      <g>
       <use xlink:href="#m22f0d80f36" x="208.865126" y="293.76" style="stroke: #000000; stroke-width: 0.8"/>
      </g>
     </g>
     <g id="text_2">
      <!-- 0 -->
      <g transform="translate(202.502626 315.956875) scale(0.2 -0.2)">
       <defs>
        <path id="DejaVuSans-30" d="M 2034 4250 
Q 1547 4250 1301 3770 
Q 1056 3291 1056 2328 
Q 1056 1369 1301 889 
Q 1547 409 2034 409 
Q 2525 409 2770 889 
Q 3016 1369 3016 2328 
Q 3016 3291 2770 3770 
Q 2525 4250 2034 4250 
z
M 2034 4750 
Q 2819 4750 3233 4129 
Q 3647 3509 3647 2328 
Q 3647 1150 3233 529 
Q 2819 -91 2034 -91 
Q 1250 -91 836 529 
Q 422 1150 422 2328 
Q 422 3509 836 4129 
Q 1250 4750 2034 4750 
z
" transform="scale(0.015625)"/>
       </defs>
       <use xlink:href="#DejaVuSans-30"/>
      </g>
     </g>
    </g>
    <g id="xtick_3">
     <g id="line2d_5">
      <path d="M 313.354131 293.76 
L 313.354131 3.456 
" clip-path="url(#p6ae593342e)" style="fill: none; stroke: #b0b0b0; stroke-width: 0.8; stroke-linecap: square"/>
     </g>
     <g id="line2d_6">
      <g>
       <use xlink:href="#m22f0d80f36" x="313.354131" y="293.76" style="stroke: #000000; stroke-width: 0.8"/>
      </g>
     </g>
     <g id="text_3">
      <!-- 4 -->
      <g transform="translate(306.991631 315.956875) scale(0.2 -0.2)">
       <use xlink:href="#DejaVuSans-34"/>
      </g>
     </g>
    </g>
    <g id="xtick_4">
     <g id="line2d_7">
      <path d="M 417.843137 293.76 
L 417.843137 3.456 
" clip-path="url(#p6ae593342e)" style="fill: none; stroke: #b0b0b0; stroke-width: 0.8; stroke-linecap: square"/>
     </g>
     <g id="line2d_8">
      <g>
       <use xlink:href="#m22f0d80f36" x="417.843137" y="293.76" style="stroke: #000000; stroke-width: 0.8"/>
      </g>
     </g>
     <g id="text_4">
      <!-- 8 -->
      <g transform="translate(411.480637 315.956875) scale(0.2 -0.2)">
       <defs>
        <path id="DejaVuSans-38" d="M 2034 2216 
Q 1584 2216 1326 1975 
Q 1069 1734 1069 1313 
Q 1069 891 1326 650 
Q 1584 409 2034 409 
Q 2484 409 2743 651 
Q 3003 894 3003 1313 
Q 3003 1734 2745 1975 
Q 2488 2216 2034 2216 
z
M 1403 2484 
Q 997 2584 770 2862 
Q 544 3141 544 3541 
Q 544 4100 942 4425 
Q 1341 4750 2034 4750 
Q 2731 4750 3128 4425 
Q 3525 4100 3525 3541 
Q 3525 3141 3298 2862 
Q 3072 2584 2669 2484 
Q 3125 2378 3379 2068 
Q 3634 1759 3634 1313 
Q 3634 634 3220 271 
Q 2806 -91 2034 -91 
Q 1263 -91 848 271 
Q 434 634 434 1313 
Q 434 1759 690 2068 
Q 947 2378 1403 2484 
z
M 1172 3481 
Q 1172 3119 1398 2916 
Q 1625 2713 2034 2713 
Q 2441 2713 2670 2916 
Q 2900 3119 2900 3481 
Q 2900 3844 2670 4047 
Q 2441 4250 2034 4250 
Q 1625 4250 1398 4047 
Q 1172 3844 1172 3481 
z
" transform="scale(0.015625)"/>
       </defs>
       <use xlink:href="#DejaVuSans-38"/>
      </g>
     </g>
    </g>
    <g id="text_5">
     <!-- log10 of Df -->
     <g transform="translate(175.214063 339.313125) scale(0.2 -0.2)">
      <defs>
       <path id="DejaVuSans-6c" d="M 603 4863 
L 1178 4863 
L 1178 0 
L 603 0 
L 603 4863 
z
" transform="scale(0.015625)"/>
       <path id="DejaVuSans-6f" d="M 1959 3097 
Q 1497 3097 1228 2736 
Q 959 2375 959 1747 
Q 959 1119 1226 758 
Q 1494 397 1959 397 
Q 2419 397 2687 759 
Q 2956 1122 2956 1747 
Q 2956 2369 2687 2733 
Q 2419 3097 1959 3097 
z
M 1959 3584 
Q 2709 3584 3137 3096 
Q 3566 2609 3566 1747 
Q 3566 888 3137 398 
Q 2709 -91 1959 -91 
Q 1206 -91 779 398 
Q 353 888 353 1747 
Q 353 2609 779 3096 
Q 1206 3584 1959 3584 
z
" transform="scale(0.015625)"/>
       <path id="DejaVuSans-67" d="M 2906 1791 
Q 2906 2416 2648 2759 
Q 2391 3103 1925 3103 
Q 1463 3103 1205 2759 
Q 947 2416 947 1791 
Q 947 1169 1205 825 
Q 1463 481 1925 481 
Q 2391 481 2648 825 
Q 2906 1169 2906 1791 
z
M 3481 434 
Q 3481 -459 3084 -895 
Q 2688 -1331 1869 -1331 
Q 1566 -1331 1297 -1286 
Q 1028 -1241 775 -1147 
L 775 -588 
Q 1028 -725 1275 -790 
Q 1522 -856 1778 -856 
Q 2344 -856 2625 -561 
Q 2906 -266 2906 331 
L 2906 616 
Q 2728 306 2450 153 
Q 2172 0 1784 0 
Q 1141 0 747 490 
Q 353 981 353 1791 
Q 353 2603 747 3093 
Q 1141 3584 1784 3584 
Q 2172 3584 2450 3431 
Q 2728 3278 2906 2969 
L 2906 3500 
L 3481 3500 
L 3481 434 
z
" transform="scale(0.015625)"/>
       <path id="DejaVuSans-31" d="M 794 531 
L 1825 531 
L 1825 4091 
L 703 3866 
L 703 4441 
L 1819 4666 
L 2450 4666 
L 2450 531 
L 3481 531 
L 3481 0 
L 794 0 
L 794 531 
z
" transform="scale(0.015625)"/>
       <path id="DejaVuSans-20" transform="scale(0.015625)"/>
       <path id="DejaVuSans-66" d="M 2375 4863 
L 2375 4384 
L 1825 4384 
Q 1516 4384 1395 4259 
Q 1275 4134 1275 3809 
L 1275 3500 
L 2222 3500 
L 2222 3053 
L 1275 3053 
L 1275 0 
L 697 0 
L 697 3053 
L 147 3053 
L 147 3500 
L 697 3500 
L 697 3744 
Q 697 4328 969 4595 
Q 1241 4863 1831 4863 
L 2375 4863 
z
" transform="scale(0.015625)"/>
       <path id="DejaVuSans-44" d="M 1259 4147 
L 1259 519 
L 2022 519 
Q 2988 519 3436 956 
Q 3884 1394 3884 2338 
Q 3884 3275 3436 3711 
Q 2988 4147 2022 4147 
L 1259 4147 
z
M 628 4666 
L 1925 4666 
Q 3281 4666 3915 4102 
Q 4550 3538 4550 2338 
Q 4550 1131 3912 565 
Q 3275 0 1925 0 
L 628 0 
L 628 4666 
z
" transform="scale(0.015625)"/>
      </defs>
      <use xlink:href="#DejaVuSans-6c"/>
      <use xlink:href="#DejaVuSans-6f" x="27.783203"/>
      <use xlink:href="#DejaVuSans-67" x="88.964844"/>
      <use xlink:href="#DejaVuSans-31" x="152.441406"/>
      <use xlink:href="#DejaVuSans-30" x="216.064453"/>
      <use xlink:href="#DejaVuSans-20" x="279.6875"/>
      <use xlink:href="#DejaVuSans-6f" x="311.474609"/>
      <use xlink:href="#DejaVuSans-66" x="372.65625"/>
      <use xlink:href="#DejaVuSans-20" x="407.861328"/>
      <use xlink:href="#DejaVuSans-44" x="439.648438"/>
      <use xlink:href="#DejaVuSans-66" x="516.650391"/>
     </g>
    </g>
   </g>
   <g id="matplotlib.axis_2">
    <g id="ytick_1">
     <g id="line2d_9">
      <path d="M 0 293.76 
L 460.8 293.76 
" clip-path="url(#p6ae593342e)" style="fill: none; stroke: #b0b0b0; stroke-width: 0.8; stroke-linecap: square"/>
     </g>
     <g id="line2d_10">
      <defs>
       <path id="m9273695d8f" d="M 0 0 
L -3.5 0 
" style="stroke: #000000; stroke-width: 0.8"/>
      </defs>
      <g>
       <use xlink:href="#m9273695d8f" x="0" y="293.76" style="stroke: #000000; stroke-width: 0.8"/>
      </g>
     </g>
    </g>
    <g id="ytick_2">
     <g id="line2d_11">
      <path d="M 0 236.274059 
L 460.8 236.274059 
" clip-path="url(#p6ae593342e)" style="fill: none; stroke: #b0b0b0; stroke-width: 0.8; stroke-linecap: square"/>
     </g>
     <g id="line2d_12">
      <g>
       <use xlink:href="#m9273695d8f" x="0" y="236.274059" style="stroke: #000000; stroke-width: 0.8"/>
      </g>
     </g>
    </g>
    <g id="ytick_3">
     <g id="line2d_13">
      <path d="M 0 178.788119 
L 460.8 178.788119 
" clip-path="url(#p6ae593342e)" style="fill: none; stroke: #b0b0b0; stroke-width: 0.8; stroke-linecap: square"/>
     </g>
     <g id="line2d_14">
      <g>
       <use xlink:href="#m9273695d8f" x="0" y="178.788119" style="stroke: #000000; stroke-width: 0.8"/>
      </g>
     </g>
    </g>
    <g id="ytick_4">
     <g id="line2d_15">
      <path d="M 0 121.302178 
L 460.8 121.302178 
" clip-path="url(#p6ae593342e)" style="fill: none; stroke: #b0b0b0; stroke-width: 0.8; stroke-linecap: square"/>
     </g>
     <g id="line2d_16">
      <g>
       <use xlink:href="#m9273695d8f" x="0" y="121.302178" style="stroke: #000000; stroke-width: 0.8"/>
      </g>
     </g>
    </g>
    <g id="ytick_5">
     <g id="line2d_17">
      <path d="M 0 63.816238 
L 460.8 63.816238 
" clip-path="url(#p6ae593342e)" style="fill: none; stroke: #b0b0b0; stroke-width: 0.8; stroke-linecap: square"/>
     </g>
     <g id="line2d_18">
      <g>
       <use xlink:href="#m9273695d8f" x="0" y="63.816238" style="stroke: #000000; stroke-width: 0.8"/>
      </g>
     </g>
    </g>
    <g id="ytick_6">
     <g id="line2d_19">
      <path d="M 0 6.330297 
L 460.8 6.330297 
" clip-path="url(#p6ae593342e)" style="fill: none; stroke: #b0b0b0; stroke-width: 0.8; stroke-linecap: square"/>
     </g>
     <g id="line2d_20">
      <g>
       <use xlink:href="#m9273695d8f" x="0" y="6.330297" style="stroke: #000000; stroke-width: 0.8"/>
      </g>
     </g>
    </g>
   </g>
   <g id="line2d_21">
    <path d="M 158.384052 293.76 
L 158.384052 289.927604 
L 159.243375 289.927604 
L 159.243375 286.095208 
L 160.53225 286.095208 
L 160.53225 282.262812 
L 165.230062 282.262812 
L 165.230062 278.430416 
L 165.502115 278.430416 
L 165.502115 274.59802 
L 167.127351 274.59802 
L 167.127351 270.765624 
L 205.794839 270.765624 
L 205.794839 266.933228 
L 221.08343 266.933228 
L 221.08343 263.100832 
L 222.697205 263.100832 
L 222.752293 255.43604 
L 229.01347 255.43604 
L 229.01347 251.603644 
L 233.963951 251.603644 
L 233.963951 247.771248 
L 234.875883 247.771248 
L 234.875883 243.938851 
L 235.572245 243.938851 
L 235.572245 240.106455 
L 237.306489 240.106455 
L 237.306489 236.274059 
L 238.369581 236.274059 
L 238.369581 232.441663 
L 238.661315 232.441663 
L 238.661315 228.609267 
L 239.66772 228.609267 
L 239.66772 224.776871 
L 239.917458 224.776871 
L 239.917458 220.944475 
L 242.934958 220.944475 
L 242.934958 217.112079 
L 243.144893 217.112079 
L 243.144893 213.279683 
L 245.299093 213.279683 
L 245.299093 209.447287 
L 245.654513 209.447287 
L 245.654513 205.614891 
L 246.397304 205.614891 
L 246.397304 201.782495 
L 246.714851 201.782495 
L 246.714851 197.950099 
L 247.037141 197.950099 
L 247.037141 194.117703 
L 247.188946 194.117703 
L 247.188946 190.285307 
L 247.865954 190.285307 
L 247.890411 182.620515 
L 247.985661 182.620515 
L 247.985661 178.788119 
L 249.062173 178.788119 
L 249.062173 174.955723 
L 249.795883 174.955723 
L 249.795883 171.123327 
L 251.004163 171.123327 
L 251.004163 167.290931 
L 251.124784 167.290931 
L 251.124784 163.458535 
L 251.45158 163.458535 
L 251.45158 159.626139 
L 253.584323 159.626139 
L 253.584323 155.793743 
L 258.269663 155.793743 
L 258.269663 151.961347 
L 261.44306 151.961347 
L 261.44306 148.12895 
L 267.541512 148.12895 
L 267.541512 144.296554 
L 268.198591 144.296554 
L 268.198591 140.464158 
L 269.499038 140.464158 
L 269.549263 132.799366 
L 272.782097 132.799366 
L 272.782097 128.96697 
L 276.484098 128.96697 
L 276.484098 125.134574 
L 278.783284 125.134574 
L 278.783284 121.302178 
L 280.827679 121.302178 
L 280.827679 117.469782 
L 281.074355 117.469782 
L 281.074355 113.637386 
L 281.216539 113.637386 
L 281.216539 109.80499 
L 281.772318 109.80499 
L 281.772318 105.972594 
L 282.196244 105.972594 
L 282.196244 102.140198 
L 285.667842 102.140198 
L 285.667842 98.307802 
L 286.380317 98.307802 
L 286.380317 94.475406 
L 286.908447 94.475406 
L 286.908447 90.64301 
L 287.187789 90.64301 
L 287.187789 86.810614 
L 290.444877 86.810614 
L 290.444877 82.978218 
L 294.102024 82.978218 
L 294.102024 79.145822 
L 296.118081 79.145822 
L 296.118081 75.313426 
L 302.509214 75.313426 
L 302.509214 71.48103 
L 302.654934 71.48103 
L 302.654934 67.648634 
L 303.173656 67.648634 
L 303.173656 63.816238 
L 311.13858 63.816238 
L 311.13858 59.983842 
L 311.555515 59.983842 
L 311.555515 56.151446 
L 313.735801 56.151446 
L 313.735801 52.31905 
L 314.343931 52.31905 
L 314.343931 48.486653 
L 316.149616 48.486653 
L 316.149616 44.654257 
L 316.521602 44.654257 
L 316.521602 40.821861 
L 321.356309 40.821861 
L 321.356309 36.989465 
L 327.792217 36.989465 
L 327.792217 33.157069 
L 331.971812 33.157069 
L 331.971812 29.324673 
L 335.027721 29.324673 
L 335.027721 25.492277 
L 335.156965 25.492277 
L 335.156965 21.659881 
L 336.132052 21.659881 
L 336.132052 17.827485 
L 339.542169 17.827485 
L 339.542169 13.995089 
L 341.164893 13.995089 
L 341.164893 10.162693 
L 342.102438 10.162693 
L 342.102438 6.330297 
L 342.102438 6.330297 
L 460.8 6.330297 
L 460.8 6.330297 
" clip-path="url(#p6ae593342e)" style="fill: none; stroke: #ff0000; stroke-width: 3; stroke-linecap: square"/>
   </g>
   <g id="line2d_22">
    <path d="M 221.437953 293.76 
L 221.437953 289.927604 
L 225.746928 289.927604 
L 225.746928 286.095208 
L 228.472821 286.095208 
L 228.472821 282.262812 
L 228.788582 282.262812 
L 228.788582 278.430416 
L 241.600283 278.430416 
L 241.600283 274.59802 
L 244.225324 274.59802 
L 244.225324 270.765624 
L 245.654112 270.765624 
L 245.654112 266.933228 
L 245.867642 266.933228 
L 245.867642 263.100832 
L 249.454601 263.100832 
L 249.454601 259.268436 
L 251.323886 259.268436 
L 251.323886 255.43604 
L 252.44708 255.43604 
L 252.44708 251.603644 
L 254.242444 251.603644 
L 254.242444 247.771248 
L 255.985611 247.771248 
L 255.985611 243.938851 
L 260.448027 243.938851 
L 260.448027 240.106455 
L 260.868332 240.106455 
L 260.868332 236.274059 
L 280.439231 236.274059 
L 280.439231 232.441663 
L 282.875366 232.441663 
L 282.875366 228.609267 
L 283.149399 228.609267 
L 283.149399 224.776871 
L 284.47981 224.776871 
L 284.47981 220.944475 
L 284.855636 220.944475 
L 284.855636 217.112079 
L 285.050519 217.112079 
L 285.050519 213.279683 
L 286.038083 213.279683 
L 286.038083 209.447287 
L 286.469307 209.447287 
L 286.469307 205.614891 
L 287.765023 205.614891 
L 287.765023 201.782495 
L 288.799211 201.782495 
L 288.799211 197.950099 
L 289.081597 197.950099 
L 289.081597 194.117703 
L 289.920598 194.117703 
L 289.920598 190.285307 
L 290.181634 190.285307 
L 290.181634 186.452911 
L 291.07011 186.452911 
L 291.07011 182.620515 
L 294.226489 182.620515 
L 294.226489 178.788119 
L 294.599522 178.788119 
L 294.599522 174.955723 
L 325.502436 174.955723 
L 325.502436 171.123327 
L 329.270313 171.123327 
L 329.270313 167.290931 
L 339.202813 167.290931 
L 339.202813 163.458535 
L 341.262167 163.458535 
L 341.262167 159.626139 
L 353.089673 159.626139 
L 353.089673 155.793743 
L 354.676375 155.793743 
L 354.676375 151.961347 
L 373.467428 151.961347 
L 373.467428 148.12895 
L 373.82911 148.12895 
L 373.82911 144.296554 
L 375.11151 144.296554 
L 375.11151 140.464158 
L 375.302872 140.464158 
L 375.302872 136.631762 
L 376.562833 136.631762 
L 376.562833 132.799366 
L 379.524087 132.799366 
L 379.524087 128.96697 
L 379.697938 128.96697 
L 379.697938 125.134574 
L 380.210897 125.134574 
L 380.210897 121.302178 
L 382.359075 121.302178 
L 382.359075 117.469782 
L 384.131703 117.469782 
L 384.131703 113.637386 
L 384.637644 113.637386 
L 384.637644 109.80499 
L 384.825993 109.80499 
L 384.825993 105.972594 
L 385.766846 105.972594 
L 385.766846 102.140198 
L 385.995292 102.140198 
L 385.995292 98.307802 
L 386.137481 98.307802 
L 386.140103 90.64301 
L 386.693917 90.64301 
L 386.693917 86.810614 
L 387.03385 86.810614 
L 387.03385 82.978218 
L 387.244902 82.978218 
L 387.244902 79.145822 
L 388.40672 79.145822 
L 388.40672 75.313426 
L 392.281184 75.313426 
L 392.281184 71.48103 
L 392.663824 71.48103 
L 392.663824 67.648634 
L 394.088979 67.648634 
L 394.088979 63.816238 
L 394.673946 63.816238 
L 394.673946 59.983842 
L 397.375858 59.983842 
L 397.375858 56.151446 
L 397.757901 56.151446 
L 397.757901 52.31905 
L 399.043974 52.31905 
L 399.043974 48.486653 
L 402.777022 48.486653 
L 402.777022 44.654257 
L 405.182222 44.654257 
L 405.182222 40.821861 
L 407.927271 40.821861 
L 407.927271 36.989465 
L 408.079031 36.989465 
L 408.109298 29.324673 
L 408.634719 29.324673 
L 408.634719 25.492277 
L 412.014261 25.492277 
L 412.014261 21.659881 
L 422.613894 21.659881 
L 422.613894 17.827485 
L 423.467192 17.827485 
L 423.467192 13.995089 
L 432.124351 13.995089 
L 432.124351 10.162693 
L 438.851767 10.162693 
L 438.851767 6.330297 
L 438.851767 6.330297 
L 460.8 6.330297 
L 460.8 6.330297 
" clip-path="url(#p6ae593342e)" style="fill: none; stroke: #00bfbf; stroke-width: 1.5; stroke-linecap: square"/>
   </g>
   <g id="line2d_23">
    <path d="M 221.08343 293.76 
L 221.08343 289.927604 
L 225.051636 289.927604 
L 225.051636 286.095208 
L 228.332665 286.095208 
L 228.381135 278.430416 
L 240.871615 278.430416 
L 240.871615 274.59802 
L 243.845928 274.59802 
L 243.845928 270.765624 
L 245.299093 270.765624 
L 245.299093 266.933228 
L 245.654513 266.933228 
L 245.654513 263.100832 
L 249.003071 263.100832 
L 249.003071 259.268436 
L 250.914094 259.268436 
L 250.914094 255.43604 
L 251.746743 255.43604 
L 251.746743 251.603644 
L 254.186317 251.603644 
L 254.186317 247.771248 
L 255.442323 247.771248 
L 255.442323 243.938851 
L 260.175324 243.938851 
L 260.229954 236.274059 
L 269.283856 236.274059 
L 269.283856 232.441663 
L 280.19203 232.441663 
L 280.19203 228.609267 
L 282.577959 228.609267 
L 282.577959 224.776871 
L 283.149399 224.776871 
L 283.149399 220.944475 
L 284.243059 220.944475 
L 284.243059 217.112079 
L 284.784837 217.112079 
L 284.784837 213.279683 
L 285.85281 213.279683 
L 285.85281 209.447287 
L 286.28681 209.447287 
L 286.28681 205.614891 
L 287.690952 205.614891 
L 287.690952 201.782495 
L 288.694248 201.782495 
L 288.694248 197.950099 
L 288.906872 197.950099 
L 288.906872 194.117703 
L 289.793199 194.117703 
L 289.793199 190.285307 
L 290.004843 190.285307 
L 290.004843 186.452911 
L 291.07011 186.452911 
L 291.07011 182.620515 
L 294.226489 182.620515 
L 294.226489 178.788119 
L 294.569348 178.788119 
L 294.569348 174.955723 
L 320.353225 174.955723 
L 320.353225 171.123327 
L 325.245309 171.123327 
L 325.245309 167.290931 
L 330.632773 167.290931 
L 330.632773 163.458535 
L 335.774343 163.458535 
L 335.774343 159.626139 
L 351.303955 159.626139 
L 351.303955 155.793743 
L 352.794215 155.793743 
L 352.794215 151.961347 
L 373.178869 151.961347 
L 373.178869 148.12895 
L 373.608477 148.12895 
L 373.608477 144.296554 
L 374.114935 144.296554 
L 374.11879 136.631762 
L 376.134569 136.631762 
L 376.134569 132.799366 
L 378.05019 132.799366 
L 378.05019 128.96697 
L 379.511769 128.96697 
L 379.524087 121.302178 
L 381.755898 121.302178 
L 381.755898 117.469782 
L 383.95247 117.469782 
L 383.95247 113.637386 
L 384.33105 113.637386 
L 384.389057 105.972594 
L 385.000984 105.972594 
L 385.000984 102.140198 
L 385.607871 102.140198 
L 385.607871 98.307802 
L 385.815264 98.307802 
L 385.921538 90.64301 
L 386.122841 90.64301 
L 386.122841 86.810614 
L 386.391319 86.810614 
L 386.391319 82.978218 
L 386.582463 82.978218 
L 386.582463 79.145822 
L 388.018832 79.145822 
L 388.018832 75.313426 
L 391.896591 75.313426 
L 391.896591 71.48103 
L 392.421431 71.48103 
L 392.421431 67.648634 
L 393.973585 67.648634 
L 393.973585 63.816238 
L 394.21585 63.816238 
L 394.21585 59.983842 
L 396.865782 59.983842 
L 396.865782 56.151446 
L 397.362309 56.151446 
L 397.362309 52.31905 
L 398.65012 52.31905 
L 398.65012 48.486653 
L 402.76585 48.486653 
L 402.76585 44.654257 
L 404.884111 44.654257 
L 404.884111 40.821861 
L 407.20909 40.821861 
L 407.213382 33.157069 
L 407.855131 33.157069 
L 407.855131 29.324673 
L 408.128279 29.324673 
L 408.128279 25.492277 
L 411.265206 25.492277 
L 411.265206 21.659881 
L 422.273121 21.659881 
L 422.273121 17.827485 
L 423.109889 17.827485 
L 423.109889 13.995089 
L 431.968943 13.995089 
L 431.968943 10.162693 
L 437.939152 10.162693 
L 437.939152 6.330297 
L 437.939152 6.330297 
L 460.8 6.330297 
L 460.8 6.330297 
" clip-path="url(#p6ae593342e)" style="fill: none; stroke: #bf00bf; stroke-width: 1.5; stroke-linecap: square"/>
   </g>
   <g id="line2d_24">
    <path d="M 218.175741 293.76 
L 218.175741 289.927604 
L 219.359188 289.927604 
L 219.359188 286.095208 
L 219.765139 286.095208 
L 219.765139 282.262812 
L 220.297357 282.262812 
L 220.297357 278.430416 
L 221.08343 278.430416 
L 221.08343 274.59802 
L 225.051636 274.59802 
L 225.051636 270.765624 
L 226.950101 270.765624 
L 226.950101 266.933228 
L 229.079142 266.933228 
L 229.079142 263.100832 
L 238.42787 263.100832 
L 238.42787 259.268436 
L 245.299093 259.268436 
L 245.299093 255.43604 
L 245.654513 255.43604 
L 245.654513 251.603644 
L 247.986411 251.603644 
L 247.986411 247.771248 
L 251.746743 247.771248 
L 251.746743 243.938851 
L 252.805338 243.938851 
L 252.805338 240.106455 
L 253.754053 240.106455 
L 253.754053 236.274059 
L 259.883219 236.274059 
L 259.883219 232.441663 
L 261.44306 232.441663 
L 261.44306 228.609267 
L 271.224292 228.609267 
L 271.224292 224.776871 
L 271.355458 224.776871 
L 271.355458 220.944475 
L 272.008753 220.944475 
L 272.008753 217.112079 
L 272.80279 217.112079 
L 272.80279 213.279683 
L 273.329348 213.279683 
L 273.329348 209.447287 
L 273.902884 209.447287 
L 273.902884 205.614891 
L 274.102752 205.614891 
L 274.102752 201.782495 
L 275.098806 201.782495 
L 275.098806 197.950099 
L 277.000962 197.950099 
L 277.000962 194.117703 
L 278.102627 194.117703 
L 278.102627 190.285307 
L 279.325546 190.285307 
L 279.325546 186.452911 
L 280.585399 186.452911 
L 280.631721 178.788119 
L 287.231917 178.788119 
L 287.231917 174.955723 
L 300.988603 174.955723 
L 300.988603 171.123327 
L 301.915609 171.123327 
L 301.915609 167.290931 
L 302.566387 167.290931 
L 302.566387 163.458535 
L 319.041649 163.458535 
L 319.041649 159.626139 
L 319.181399 159.626139 
L 319.181399 155.793743 
L 325.988586 155.793743 
L 325.988586 151.961347 
L 330.306025 151.961347 
L 330.306025 148.12895 
L 339.155217 148.12895 
L 339.155217 144.296554 
L 342.220183 144.296554 
L 342.220183 140.464158 
L 347.116909 140.464158 
L 347.116909 136.631762 
L 349.630192 136.631762 
L 349.630192 132.799366 
L 350.613426 132.799366 
L 350.613426 128.96697 
L 352.440896 128.96697 
L 352.440896 125.134574 
L 354.864664 125.134574 
L 354.864664 121.302178 
L 355.920235 121.302178 
L 355.920235 117.469782 
L 356.516021 117.469782 
L 356.516021 113.637386 
L 357.027146 113.637386 
L 357.027146 109.80499 
L 357.498847 109.80499 
L 357.498847 105.972594 
L 357.767121 105.972594 
L 357.820998 98.307802 
L 359.27942 98.307802 
L 359.27942 94.475406 
L 360.51048 94.475406 
L 360.51048 90.64301 
L 361.598195 90.64301 
L 361.598195 86.810614 
L 361.741821 86.810614 
L 361.741821 82.978218 
L 362.592151 82.978218 
L 362.592151 79.145822 
L 363.674048 79.145822 
L 363.674048 75.313426 
L 364.301789 75.313426 
L 364.301789 71.48103 
L 365.617271 71.48103 
L 365.617271 67.648634 
L 366.907273 67.648634 
L 366.907273 63.816238 
L 369.273926 63.816238 
L 369.273926 59.983842 
L 370.653578 59.983842 
L 370.653578 56.151446 
L 372.483744 56.151446 
L 372.483744 52.31905 
L 373.182689 52.31905 
L 373.182689 48.486653 
L 374.724539 48.486653 
L 374.724539 44.654257 
L 382.912356 44.654257 
L 382.912356 40.821861 
L 386.037928 40.821861 
L 386.062681 33.157069 
L 391.666278 33.157069 
L 391.666278 29.324673 
L 393.937201 29.324673 
L 393.937201 25.492277 
L 396.635781 25.492277 
L 396.635781 21.659881 
L 401.996117 21.659881 
L 401.996117 17.827485 
L 408.065883 17.827485 
L 408.065883 13.995089 
L 413.257589 13.995089 
L 413.257589 10.162693 
L 417.086294 10.162693 
L 417.086294 6.330297 
L 417.086294 6.330297 
L 460.8 6.330297 
L 460.8 6.330297 
" clip-path="url(#p6ae593342e)" style="fill: none; stroke: #000000; stroke-width: 1.5; stroke-linecap: square"/>
   </g>
   <g id="line2d_25">
    <path d="M 159.304837 293.76 
L 159.304837 289.927604 
L 161.469283 289.927604 
L 161.469283 286.095208 
L 164.114414 286.095208 
L 164.114414 282.262812 
L 165.338944 282.262812 
L 165.338944 278.430416 
L 165.502115 278.430416 
L 165.502115 274.59802 
L 167.674677 274.59802 
L 167.674677 270.765624 
L 210.985124 270.765624 
L 210.985124 266.933228 
L 221.08343 266.933228 
L 221.08343 263.100832 
L 222.697205 263.100832 
L 222.697205 259.268436 
L 223.540096 259.268436 
L 223.540096 255.43604 
L 229.698782 255.43604 
L 229.698782 251.603644 
L 233.963951 251.603644 
L 233.963951 247.771248 
L 234.875883 247.771248 
L 234.875883 243.938851 
L 235.572245 243.938851 
L 235.572245 240.106455 
L 237.306489 240.106455 
L 237.306489 236.274059 
L 238.369581 236.274059 
L 238.369581 232.441663 
L 238.661315 232.441663 
L 238.661315 228.609267 
L 239.66772 228.609267 
L 239.66772 224.776871 
L 239.917458 224.776871 
L 239.917458 220.944475 
L 243.144893 220.944475 
L 243.172794 213.279683 
L 245.299093 213.279683 
L 245.299093 209.447287 
L 245.654513 209.447287 
L 245.654513 205.614891 
L 246.397304 205.614891 
L 246.397304 201.782495 
L 247.057691 201.782495 
L 247.057691 197.950099 
L 247.188946 197.950099 
L 247.188946 194.117703 
L 247.865954 194.117703 
L 247.890428 186.452911 
L 247.985661 186.452911 
L 247.985661 182.620515 
L 249.284071 182.620515 
L 249.284071 178.788119 
L 249.603203 178.788119 
L 249.603203 174.955723 
L 250.205228 174.955723 
L 250.205228 171.123327 
L 251.004163 171.123327 
L 251.004163 167.290931 
L 251.124784 167.290931 
L 251.124784 163.458535 
L 253.584323 163.458535 
L 253.584323 159.626139 
L 253.857313 159.626139 
L 253.857313 155.793743 
L 258.269663 155.793743 
L 258.269663 151.961347 
L 261.44306 151.961347 
L 261.44306 148.12895 
L 268.789327 148.12895 
L 268.860062 140.464158 
L 270.266622 140.464158 
L 270.266622 136.631762 
L 272.782097 136.631762 
L 272.782097 132.799366 
L 274.756548 132.799366 
L 274.756548 128.96697 
L 276.484098 128.96697 
L 276.484098 125.134574 
L 280.827679 125.134574 
L 280.827679 121.302178 
L 281.226985 121.302178 
L 281.226985 117.469782 
L 281.772318 117.469782 
L 281.772318 113.637386 
L 282.196244 113.637386 
L 282.196244 109.80499 
L 285.393684 109.80499 
L 285.393684 105.972594 
L 286.177237 105.972594 
L 286.177237 102.140198 
L 286.380317 102.140198 
L 286.380317 98.307802 
L 286.908447 98.307802 
L 286.908447 94.475406 
L 287.187789 94.475406 
L 287.187789 90.64301 
L 288.10504 90.64301 
L 288.10504 86.810614 
L 295.704061 86.810614 
L 295.704061 82.978218 
L 296.233538 82.978218 
L 296.233538 79.145822 
L 300.649393 79.145822 
L 300.649393 75.313426 
L 302.510112 75.313426 
L 302.510112 71.48103 
L 302.681449 71.48103 
L 302.681449 67.648634 
L 311.13858 67.648634 
L 311.13858 63.816238 
L 311.570699 63.816238 
L 311.570699 59.983842 
L 312.002993 59.983842 
L 312.002993 56.151446 
L 313.794424 56.151446 
L 313.794424 52.31905 
L 314.45413 52.31905 
L 314.45413 48.486653 
L 316.555976 48.486653 
L 316.555976 44.654257 
L 316.735226 44.654257 
L 316.735226 40.821861 
L 321.356309 40.821861 
L 321.356309 36.989465 
L 328.287839 36.989465 
L 328.287839 33.157069 
L 335.063674 33.157069 
L 335.156965 25.492277 
L 336.167495 25.492277 
L 336.167495 21.659881 
L 338.21114 21.659881 
L 338.21114 17.827485 
L 339.734619 17.827485 
L 339.734619 13.995089 
L 341.164893 13.995089 
L 341.164893 10.162693 
L 342.102438 10.162693 
L 342.102438 6.330297 
L 342.102438 6.330297 
L 460.8 6.330297 
L 460.8 6.330297 
" clip-path="url(#p6ae593342e)" style="fill: none; stroke: #00bfbf; stroke-width: 1.5; stroke-linecap: square"/>
   </g>
   <g id="patch_3">
    <path d="M 0 293.76 
L 0 3.456 
" style="fill: none; stroke: #000000; stroke-width: 0.8; stroke-linejoin: miter; stroke-linecap: square"/>
   </g>
   <g id="patch_4">
    <path d="M 460.8 293.76 
L 460.8 3.456 
" style="fill: none; stroke: #000000; stroke-width: 0.8; stroke-linejoin: miter; stroke-linecap: square"/>
   </g>
   <g id="patch_5">
    <path d="M 0 293.76 
L 460.8 293.76 
" style="fill: none; stroke: #000000; stroke-width: 0.8; stroke-linejoin: miter; stroke-linecap: square"/>
   </g>
   <g id="patch_6">
    <path d="M 0 3.456 
L 460.8 3.456 
" style="fill: none; stroke: #000000; stroke-width: 0.8; stroke-linejoin: miter; stroke-linecap: square"/>
   </g>
   <g id="text_6">
    <!-- {f10-f14}, 5-D -->
    <g transform="translate(305.884 287.95392) scale(0.2 -0.2)">
     <defs>
      <path id="DejaVuSans-7b" d="M 3272 -594 
L 3272 -1044 
L 3078 -1044 
Q 2300 -1044 2036 -812 
Q 1772 -581 1772 109 
L 1772 856 
Q 1772 1328 1603 1509 
Q 1434 1691 991 1691 
L 800 1691 
L 800 2138 
L 991 2138 
Q 1438 2138 1605 2317 
Q 1772 2497 1772 2963 
L 1772 3713 
Q 1772 4403 2036 4633 
Q 2300 4863 3078 4863 
L 3272 4863 
L 3272 4416 
L 3059 4416 
Q 2619 4416 2484 4278 
Q 2350 4141 2350 3700 
L 2350 2925 
Q 2350 2434 2208 2212 
Q 2066 1991 1722 1913 
Q 2069 1828 2209 1606 
Q 2350 1384 2350 897 
L 2350 122 
Q 2350 -319 2484 -456 
Q 2619 -594 3059 -594 
L 3272 -594 
z
" transform="scale(0.015625)"/>
      <path id="DejaVuSans-7d" d="M 800 -594 
L 1019 -594 
Q 1456 -594 1589 -459 
Q 1722 -325 1722 122 
L 1722 897 
Q 1722 1384 1862 1606 
Q 2003 1828 2350 1913 
Q 2003 1991 1862 2212 
Q 1722 2434 1722 2925 
L 1722 3700 
Q 1722 4144 1589 4280 
Q 1456 4416 1019 4416 
L 800 4416 
L 800 4863 
L 997 4863 
Q 1775 4863 2036 4633 
Q 2297 4403 2297 3713 
L 2297 2963 
Q 2297 2497 2465 2317 
Q 2634 2138 3078 2138 
L 3272 2138 
L 3272 1691 
L 3078 1691 
Q 2634 1691 2465 1509 
Q 2297 1328 2297 856 
L 2297 109 
Q 2297 -581 2036 -812 
Q 1775 -1044 997 -1044 
L 800 -1044 
L 800 -594 
z
" transform="scale(0.015625)"/>
      <path id="DejaVuSans-2c" d="M 750 794 
L 1409 794 
L 1409 256 
L 897 -744 
L 494 -744 
L 750 256 
L 750 794 
z
" transform="scale(0.015625)"/>
      <path id="DejaVuSans-35" d="M 691 4666 
L 3169 4666 
L 3169 4134 
L 1269 4134 
L 1269 2991 
Q 1406 3038 1543 3061 
Q 1681 3084 1819 3084 
Q 2600 3084 3056 2656 
Q 3513 2228 3513 1497 
Q 3513 744 3044 326 
Q 2575 -91 1722 -91 
Q 1428 -91 1123 -41 
Q 819 9 494 109 
L 494 744 
Q 775 591 1075 516 
Q 1375 441 1709 441 
Q 2250 441 2565 725 
Q 2881 1009 2881 1497 
Q 2881 1984 2565 2268 
Q 2250 2553 1709 2553 
Q 1456 2553 1204 2497 
Q 953 2441 691 2322 
L 691 4666 
z
" transform="scale(0.015625)"/>
     </defs>
     <use xlink:href="#DejaVuSans-7b"/>
     <use xlink:href="#DejaVuSans-66" x="63.623047"/>
     <use xlink:href="#DejaVuSans-31" x="98.828125"/>
     <use xlink:href="#DejaVuSans-30" x="162.451172"/>
     <use xlink:href="#DejaVuSans-2d" x="226.074219"/>
     <use xlink:href="#DejaVuSans-66" x="262.158203"/>
     <use xlink:href="#DejaVuSans-31" x="297.363281"/>
     <use xlink:href="#DejaVuSans-34" x="360.986328"/>
     <use xlink:href="#DejaVuSans-7d" x="424.609375"/>
     <use xlink:href="#DejaVuSans-2c" x="488.232422"/>
     <use xlink:href="#DejaVuSans-20" x="520.019531"/>
     <use xlink:href="#DejaVuSans-35" x="551.806641"/>
     <use xlink:href="#DejaVuSans-2d" x="615.429688"/>
     <use xlink:href="#DejaVuSans-44" x="651.513672"/>
    </g>
   </g>
   <g id="text_7">
    <!-- v2.6.3 -->
    <g style="fill: #808080" transform="translate(214.71875 288.777272) scale(0.1 -0.1)">
     <defs>
      <path id="DejaVuSans-76" d="M 191 3500 
L 800 3500 
L 1894 563 
L 2988 3500 
L 3597 3500 
L 2284 0 
L 1503 0 
L 191 3500 
z
" transform="scale(0.015625)"/>
      <path id="DejaVuSans-32" d="M 1228 531 
L 3431 531 
L 3431 0 
L 469 0 
L 469 531 
Q 828 903 1448 1529 
Q 2069 2156 2228 2338 
Q 2531 2678 2651 2914 
Q 2772 3150 2772 3378 
Q 2772 3750 2511 3984 
Q 2250 4219 1831 4219 
Q 1534 4219 1204 4116 
Q 875 4013 500 3803 
L 500 4441 
Q 881 4594 1212 4672 
Q 1544 4750 1819 4750 
Q 2544 4750 2975 4387 
Q 3406 4025 3406 3419 
Q 3406 3131 3298 2873 
Q 3191 2616 2906 2266 
Q 2828 2175 2409 1742 
Q 1991 1309 1228 531 
z
" transform="scale(0.015625)"/>
      <path id="DejaVuSans-2e" d="M 684 794 
L 1344 794 
L 1344 0 
L 684 0 
L 684 794 
z
" transform="scale(0.015625)"/>
      <path id="DejaVuSans-36" d="M 2113 2584 
Q 1688 2584 1439 2293 
Q 1191 2003 1191 1497 
Q 1191 994 1439 701 
Q 1688 409 2113 409 
Q 2538 409 2786 701 
Q 3034 994 3034 1497 
Q 3034 2003 2786 2293 
Q 2538 2584 2113 2584 
z
M 3366 4563 
L 3366 3988 
Q 3128 4100 2886 4159 
Q 2644 4219 2406 4219 
Q 1781 4219 1451 3797 
Q 1122 3375 1075 2522 
Q 1259 2794 1537 2939 
Q 1816 3084 2150 3084 
Q 2853 3084 3261 2657 
Q 3669 2231 3669 1497 
Q 3669 778 3244 343 
Q 2819 -91 2113 -91 
Q 1303 -91 875 529 
Q 447 1150 447 2328 
Q 447 3434 972 4092 
Q 1497 4750 2381 4750 
Q 2619 4750 2861 4703 
Q 3103 4656 3366 4563 
z
" transform="scale(0.015625)"/>
      <path id="DejaVuSans-33" d="M 2597 2516 
Q 3050 2419 3304 2112 
Q 3559 1806 3559 1356 
Q 3559 666 3084 287 
Q 2609 -91 1734 -91 
Q 1441 -91 1130 -33 
Q 819 25 488 141 
L 488 750 
Q 750 597 1062 519 
Q 1375 441 1716 441 
Q 2309 441 2620 675 
Q 2931 909 2931 1356 
Q 2931 1769 2642 2001 
Q 2353 2234 1838 2234 
L 1294 2234 
L 1294 2753 
L 1863 2753 
Q 2328 2753 2575 2939 
Q 2822 3125 2822 3475 
Q 2822 3834 2567 4026 
Q 2313 4219 1838 4219 
Q 1578 4219 1281 4162 
Q 984 4106 628 3988 
L 628 4550 
Q 988 4650 1302 4700 
Q 1616 4750 1894 4750 
Q 2613 4750 3031 4423 
Q 3450 4097 3450 3541 
Q 3450 3153 3228 2886 
Q 3006 2619 2597 2516 
z
" transform="scale(0.015625)"/>
     </defs>
     <use xlink:href="#DejaVuSans-76"/>
     <use xlink:href="#DejaVuSans-32" x="59.179688"/>
     <use xlink:href="#DejaVuSans-2e" x="122.802734"/>
     <use xlink:href="#DejaVuSans-36" x="154.589844"/>
     <use xlink:href="#DejaVuSans-2e" x="218.212891"/>
     <use xlink:href="#DejaVuSans-33" x="250"/>
    </g>
   </g>
  </g>
 </g>
 <defs>
  <clipPath id="p6ae593342e">
   <rect x="0" y="3.456" width="460.8" height="290.304"/>
  </clipPath>
 </defs>
</svg>
