<?xml version="1.0" encoding="utf-8" standalone="no"?>
<!DOCTYPE svg PUBLIC "-//W3C//DTD SVG 1.1//EN"
  "http://www.w3.org/Graphics/SVG/1.1/DTD/svg11.dtd">
<svg xmlns:xlink="http://www.w3.org/1999/xlink" width="460.8pt" height="345.6pt" viewBox="0 0 460.8 345.6" xmlns="http://www.w3.org/2000/svg" version="1.1">
 <metadata>
  <rdf:RDF xmlns:dc="http://purl.org/dc/elements/1.1/" xmlns:cc="http://creativecommons.org/ns#" xmlns:rdf="http://www.w3.org/1999/02/22-rdf-syntax-ns#">
   <cc:Work>
    <dc:type rdf:resource="http://purl.org/dc/dcmitype/StillImage"/>
    <dc:date>2024-01-17T15:45:37.162244</dc:date>
    <dc:format>image/svg+xml</dc:format>
    <dc:creator>
     <cc:Agent>
      <dc:title>Matplotlib v3.8.2, https://matplotlib.org/</dc:title>
     </cc:Agent>
    </dc:creator>
   </cc:Work>
  </rdf:RDF>
 </metadata>
 <defs>
  <style type="text/css">*{stroke-linejoin: round; stroke-linecap: butt}</style>
 </defs>
 <g id="figure_1">
  <g id="patch_1">
   <path d="M 0 345.6 
L 460.8 345.6 
L 460.8 0 
L 0 0 
z
" style="fill: #ffffff"/>
  </g>
  <g id="axes_1">
   <g id="patch_2">
    <path d="M 0 293.76 
L 460.8 293.76 
L 460.8 3.456 
L 0 3.456 
z
" style="fill: #ffffff"/>
   </g>
   <g id="matplotlib.axis_1">
    <g id="xtick_1">
     <g id="line2d_1">
      <path d="M 104.5682 293.76 
L 104.5682 3.456 
" clip-path="url(#pf7ad840ab5)" style="fill: none; stroke: #b0b0b0; stroke-width: 0.8; stroke-linecap: square"/>
     </g>
     <g id="line2d_2">
      <defs>
       <path id="m866ab179f2" d="M 0 0 
L 0 3.5 
" style="stroke: #000000; stroke-width: 0.8"/>
      </defs>
      <g>
       <use xlink:href="#m866ab179f2" x="104.5682" y="293.76" style="stroke: #000000; stroke-width: 0.8"/>
      </g>
     </g>
     <g id="text_1">
      <!-- -4 -->
      <g transform="translate(94.597887 315.956875) scale(0.2 -0.2)">
       <defs>
        <path id="DejaVuSans-2d" d="M 313 2009 
L 1997 2009 
L 1997 1497 
L 313 1497 
L 313 2009 
z
" transform="scale(0.015625)"/>
        <path id="DejaVuSans-34" d="M 2419 4116 
L 825 1625 
L 2419 1625 
L 2419 4116 
z
M 2253 4666 
L 3047 4666 
L 3047 1625 
L 3713 1625 
L 3713 1100 
L 3047 1100 
L 3047 0 
L 2419 0 
L 2419 1100 
L 313 1100 
L 313 1709 
L 2253 4666 
z
" transform="scale(0.015625)"/>
       </defs>
       <use xlink:href="#DejaVuSans-2d"/>
       <use xlink:href="#DejaVuSans-34" x="36.083984"/>
      </g>
     </g>
    </g>
    <g id="xtick_2">
     <g id="line2d_3">
      <path d="M 209.249491 293.76 
L 209.249491 3.456 
" clip-path="url(#pf7ad840ab5)" style="fill: none; stroke: #b0b0b0; stroke-width: 0.8; stroke-linecap: square"/>
     </g>
     <g id="line2d_4">
      <g>
       <use xlink:href="#m866ab179f2" x="209.249491" y="293.76" style="stroke: #000000; stroke-width: 0.8"/>
      </g>
     </g>
     <g id="text_2">
      <!-- 0 -->
      <g transform="translate(202.886991 315.956875) scale(0.2 -0.2)">
       <defs>
        <path id="DejaVuSans-30" d="M 2034 4250 
Q 1547 4250 1301 3770 
Q 1056 3291 1056 2328 
Q 1056 1369 1301 889 
Q 1547 409 2034 409 
Q 2525 409 2770 889 
Q 3016 1369 3016 2328 
Q 3016 3291 2770 3770 
Q 2525 4250 2034 4250 
z
M 2034 4750 
Q 2819 4750 3233 4129 
Q 3647 3509 3647 2328 
Q 3647 1150 3233 529 
Q 2819 -91 2034 -91 
Q 1250 -91 836 529 
Q 422 1150 422 2328 
Q 422 3509 836 4129 
Q 1250 4750 2034 4750 
z
" transform="scale(0.015625)"/>
       </defs>
       <use xlink:href="#DejaVuSans-30"/>
      </g>
     </g>
    </g>
    <g id="xtick_3">
     <g id="line2d_5">
      <path d="M 313.930783 293.76 
L 313.930783 3.456 
" clip-path="url(#pf7ad840ab5)" style="fill: none; stroke: #b0b0b0; stroke-width: 0.8; stroke-linecap: square"/>
     </g>
     <g id="line2d_6">
      <g>
       <use xlink:href="#m866ab179f2" x="313.930783" y="293.76" style="stroke: #000000; stroke-width: 0.8"/>
      </g>
     </g>
     <g id="text_3">
      <!-- 4 -->
      <g transform="translate(307.568283 315.956875) scale(0.2 -0.2)">
       <use xlink:href="#DejaVuSans-34"/>
      </g>
     </g>
    </g>
    <g id="xtick_4">
     <g id="line2d_7">
      <path d="M 418.612074 293.76 
L 418.612074 3.456 
" clip-path="url(#pf7ad840ab5)" style="fill: none; stroke: #b0b0b0; stroke-width: 0.8; stroke-linecap: square"/>
     </g>
     <g id="line2d_8">
      <g>
       <use xlink:href="#m866ab179f2" x="418.612074" y="293.76" style="stroke: #000000; stroke-width: 0.8"/>
      </g>
     </g>
     <g id="text_4">
      <!-- 8 -->
      <g transform="translate(412.249574 315.956875) scale(0.2 -0.2)">
       <defs>
        <path id="DejaVuSans-38" d="M 2034 2216 
Q 1584 2216 1326 1975 
Q 1069 1734 1069 1313 
Q 1069 891 1326 650 
Q 1584 409 2034 409 
Q 2484 409 2743 651 
Q 3003 894 3003 1313 
Q 3003 1734 2745 1975 
Q 2488 2216 2034 2216 
z
M 1403 2484 
Q 997 2584 770 2862 
Q 544 3141 544 3541 
Q 544 4100 942 4425 
Q 1341 4750 2034 4750 
Q 2731 4750 3128 4425 
Q 3525 4100 3525 3541 
Q 3525 3141 3298 2862 
Q 3072 2584 2669 2484 
Q 3125 2378 3379 2068 
Q 3634 1759 3634 1313 
Q 3634 634 3220 271 
Q 2806 -91 2034 -91 
Q 1263 -91 848 271 
Q 434 634 434 1313 
Q 434 1759 690 2068 
Q 947 2378 1403 2484 
z
M 1172 3481 
Q 1172 3119 1398 2916 
Q 1625 2713 2034 2713 
Q 2441 2713 2670 2916 
Q 2900 3119 2900 3481 
Q 2900 3844 2670 4047 
Q 2441 4250 2034 4250 
Q 1625 4250 1398 4047 
Q 1172 3844 1172 3481 
z
" transform="scale(0.015625)"/>
       </defs>
       <use xlink:href="#DejaVuSans-38"/>
      </g>
     </g>
    </g>
    <g id="text_5">
     <!-- log10 of Df -->
     <g transform="translate(175.214063 339.313125) scale(0.2 -0.2)">
      <defs>
       <path id="DejaVuSans-6c" d="M 603 4863 
L 1178 4863 
L 1178 0 
L 603 0 
L 603 4863 
z
" transform="scale(0.015625)"/>
       <path id="DejaVuSans-6f" d="M 1959 3097 
Q 1497 3097 1228 2736 
Q 959 2375 959 1747 
Q 959 1119 1226 758 
Q 1494 397 1959 397 
Q 2419 397 2687 759 
Q 2956 1122 2956 1747 
Q 2956 2369 2687 2733 
Q 2419 3097 1959 3097 
z
M 1959 3584 
Q 2709 3584 3137 3096 
Q 3566 2609 3566 1747 
Q 3566 888 3137 398 
Q 2709 -91 1959 -91 
Q 1206 -91 779 398 
Q 353 888 353 1747 
Q 353 2609 779 3096 
Q 1206 3584 1959 3584 
z
" transform="scale(0.015625)"/>
       <path id="DejaVuSans-67" d="M 2906 1791 
Q 2906 2416 2648 2759 
Q 2391 3103 1925 3103 
Q 1463 3103 1205 2759 
Q 947 2416 947 1791 
Q 947 1169 1205 825 
Q 1463 481 1925 481 
Q 2391 481 2648 825 
Q 2906 1169 2906 1791 
z
M 3481 434 
Q 3481 -459 3084 -895 
Q 2688 -1331 1869 -1331 
Q 1566 -1331 1297 -1286 
Q 1028 -1241 775 -1147 
L 775 -588 
Q 1028 -725 1275 -790 
Q 1522 -856 1778 -856 
Q 2344 -856 2625 -561 
Q 2906 -266 2906 331 
L 2906 616 
Q 2728 306 2450 153 
Q 2172 0 1784 0 
Q 1141 0 747 490 
Q 353 981 353 1791 
Q 353 2603 747 3093 
Q 1141 3584 1784 3584 
Q 2172 3584 2450 3431 
Q 2728 3278 2906 2969 
L 2906 3500 
L 3481 3500 
L 3481 434 
z
" transform="scale(0.015625)"/>
       <path id="DejaVuSans-31" d="M 794 531 
L 1825 531 
L 1825 4091 
L 703 3866 
L 703 4441 
L 1819 4666 
L 2450 4666 
L 2450 531 
L 3481 531 
L 3481 0 
L 794 0 
L 794 531 
z
" transform="scale(0.015625)"/>
       <path id="DejaVuSans-20" transform="scale(0.015625)"/>
       <path id="DejaVuSans-66" d="M 2375 4863 
L 2375 4384 
L 1825 4384 
Q 1516 4384 1395 4259 
Q 1275 4134 1275 3809 
L 1275 3500 
L 2222 3500 
L 2222 3053 
L 1275 3053 
L 1275 0 
L 697 0 
L 697 3053 
L 147 3053 
L 147 3500 
L 697 3500 
L 697 3744 
Q 697 4328 969 4595 
Q 1241 4863 1831 4863 
L 2375 4863 
z
" transform="scale(0.015625)"/>
       <path id="DejaVuSans-44" d="M 1259 4147 
L 1259 519 
L 2022 519 
Q 2988 519 3436 956 
Q 3884 1394 3884 2338 
Q 3884 3275 3436 3711 
Q 2988 4147 2022 4147 
L 1259 4147 
z
M 628 4666 
L 1925 4666 
Q 3281 4666 3915 4102 
Q 4550 3538 4550 2338 
Q 4550 1131 3912 565 
Q 3275 0 1925 0 
L 628 0 
L 628 4666 
z
" transform="scale(0.015625)"/>
      </defs>
      <use xlink:href="#DejaVuSans-6c"/>
      <use xlink:href="#DejaVuSans-6f" x="27.783203"/>
      <use xlink:href="#DejaVuSans-67" x="88.964844"/>
      <use xlink:href="#DejaVuSans-31" x="152.441406"/>
      <use xlink:href="#DejaVuSans-30" x="216.064453"/>
      <use xlink:href="#DejaVuSans-20" x="279.6875"/>
      <use xlink:href="#DejaVuSans-6f" x="311.474609"/>
      <use xlink:href="#DejaVuSans-66" x="372.65625"/>
      <use xlink:href="#DejaVuSans-20" x="407.861328"/>
      <use xlink:href="#DejaVuSans-44" x="439.648438"/>
      <use xlink:href="#DejaVuSans-66" x="516.650391"/>
     </g>
    </g>
   </g>
   <g id="matplotlib.axis_2">
    <g id="ytick_1">
     <g id="line2d_9">
      <path d="M 0 293.76 
L 460.8 293.76 
" clip-path="url(#pf7ad840ab5)" style="fill: none; stroke: #b0b0b0; stroke-width: 0.8; stroke-linecap: square"/>
     </g>
     <g id="line2d_10">
      <defs>
       <path id="m542d4eb51a" d="M 0 0 
L -3.5 0 
" style="stroke: #000000; stroke-width: 0.8"/>
      </defs>
      <g>
       <use xlink:href="#m542d4eb51a" x="0" y="293.76" style="stroke: #000000; stroke-width: 0.8"/>
      </g>
     </g>
    </g>
    <g id="ytick_2">
     <g id="line2d_11">
      <path d="M 0 236.274059 
L 460.8 236.274059 
" clip-path="url(#pf7ad840ab5)" style="fill: none; stroke: #b0b0b0; stroke-width: 0.8; stroke-linecap: square"/>
     </g>
     <g id="line2d_12">
      <g>
       <use xlink:href="#m542d4eb51a" x="0" y="236.274059" style="stroke: #000000; stroke-width: 0.8"/>
      </g>
     </g>
    </g>
    <g id="ytick_3">
     <g id="line2d_13">
      <path d="M 0 178.788119 
L 460.8 178.788119 
" clip-path="url(#pf7ad840ab5)" style="fill: none; stroke: #b0b0b0; stroke-width: 0.8; stroke-linecap: square"/>
     </g>
     <g id="line2d_14">
      <g>
       <use xlink:href="#m542d4eb51a" x="0" y="178.788119" style="stroke: #000000; stroke-width: 0.8"/>
      </g>
     </g>
    </g>
    <g id="ytick_4">
     <g id="line2d_15">
      <path d="M 0 121.302178 
L 460.8 121.302178 
" clip-path="url(#pf7ad840ab5)" style="fill: none; stroke: #b0b0b0; stroke-width: 0.8; stroke-linecap: square"/>
     </g>
     <g id="line2d_16">
      <g>
       <use xlink:href="#m542d4eb51a" x="0" y="121.302178" style="stroke: #000000; stroke-width: 0.8"/>
      </g>
     </g>
    </g>
    <g id="ytick_5">
     <g id="line2d_17">
      <path d="M 0 63.816238 
L 460.8 63.816238 
" clip-path="url(#pf7ad840ab5)" style="fill: none; stroke: #b0b0b0; stroke-width: 0.8; stroke-linecap: square"/>
     </g>
     <g id="line2d_18">
      <g>
       <use xlink:href="#m542d4eb51a" x="0" y="63.816238" style="stroke: #000000; stroke-width: 0.8"/>
      </g>
     </g>
    </g>
    <g id="ytick_6">
     <g id="line2d_19">
      <path d="M 0 6.330297 
L 460.8 6.330297 
" clip-path="url(#pf7ad840ab5)" style="fill: none; stroke: #b0b0b0; stroke-width: 0.8; stroke-linecap: square"/>
     </g>
     <g id="line2d_20">
      <g>
       <use xlink:href="#m542d4eb51a" x="0" y="6.330297" style="stroke: #000000; stroke-width: 0.8"/>
      </g>
     </g>
    </g>
   </g>
   <g id="line2d_21">
    <path d="M -0.113092 293.76 
L -0.113092 263.100832 
L 53.884488 263.100832 
L 53.884488 259.268436 
L 72.235377 259.268436 
L 72.235377 255.43604 
L 73.351769 255.43604 
L 73.351769 251.603644 
L 75.61543 251.603644 
L 75.61543 247.771248 
L 84.217185 247.771248 
L 84.217185 243.938851 
L 89.076636 243.938851 
L 89.076636 240.106455 
L 89.645967 240.106455 
L 89.645967 236.274059 
L 129.364566 236.274059 
L 129.364566 232.441663 
L 219.142376 232.441663 
L 219.142376 228.609267 
L 234.484477 228.609267 
L 234.484477 224.776871 
L 244.172577 224.776871 
L 244.172577 220.944475 
L 244.906097 220.944475 
L 244.906097 217.112079 
L 245.203096 217.112079 
L 245.203096 213.279683 
L 245.947124 213.279683 
L 245.947124 209.447287 
L 250.427233 209.447287 
L 250.427233 205.614891 
L 258.795323 205.614891 
L 258.795323 201.782495 
L 259.622024 201.782495 
L 259.622024 197.950099 
L 261.396199 197.950099 
L 261.396199 194.117703 
L 262.039183 194.117703 
L 262.039183 190.285307 
L 262.556391 190.285307 
L 262.556391 186.452911 
L 263.885759 186.452911 
L 263.885759 182.620515 
L 273.423935 182.620515 
L 273.423935 178.788119 
L 273.842343 178.788119 
L 273.842343 174.955723 
L 274.612481 174.955723 
L 274.612481 171.123327 
L 274.757719 171.123327 
L 274.757719 167.290931 
L 276.50912 167.290931 
L 276.50912 163.458535 
L 277.622783 163.458535 
L 277.622783 159.626139 
L 277.822587 159.626139 
L 277.903607 151.961347 
L 278.096379 151.961347 
L 278.140234 144.296554 
L 278.324386 144.296554 
L 278.324386 140.464158 
L 278.834254 140.464158 
L 278.834254 136.631762 
L 279.294842 136.631762 
L 279.294842 132.799366 
L 279.59867 132.799366 
L 279.676686 125.134574 
L 280.177003 125.134574 
L 280.177003 121.302178 
L 280.318257 121.302178 
L 280.318257 117.469782 
L 280.468637 117.469782 
L 280.468637 113.637386 
L 280.901503 113.637386 
L 280.969691 105.972594 
L 281.154102 105.972594 
L 281.238529 98.307802 
L 281.928145 98.307802 
L 281.928145 94.475406 
L 282.481786 94.475406 
L 282.481786 90.64301 
L 282.600253 90.64301 
L 282.600253 86.810614 
L 282.947479 86.810614 
L 282.947479 82.978218 
L 283.286551 82.978218 
L 283.286551 79.145822 
L 284.176973 79.145822 
L 284.286447 71.48103 
L 285.286014 71.48103 
L 285.286014 67.648634 
L 285.845864 67.648634 
L 285.845864 63.816238 
L 334.654609 63.816238 
L 334.654609 59.983842 
L 336.666639 59.983842 
L 336.666639 56.151446 
L 339.171035 56.151446 
L 339.171035 52.31905 
L 339.61508 52.31905 
L 339.61508 48.486653 
L 341.052974 48.486653 
L 341.152204 40.821861 
L 342.104167 40.821861 
L 342.104167 36.989465 
L 344.148229 36.989465 
L 344.148229 33.157069 
L 344.401143 33.157069 
L 344.401143 29.324673 
L 345.17305 29.324673 
L 345.17305 25.492277 
L 348.046115 25.492277 
L 348.046115 21.659881 
L 349.390488 21.659881 
L 349.390488 17.827485 
L 349.855145 17.827485 
L 349.855145 13.995089 
L 351.491961 13.995089 
L 351.491961 10.162693 
L 354.563102 10.162693 
L 354.563102 6.330297 
L 354.563102 6.330297 
L 460.8 6.330297 
L 460.8 6.330297 
" clip-path="url(#pf7ad840ab5)" style="fill: none; stroke: #ff0000; stroke-width: 3; stroke-linecap: square"/>
   </g>
   <g id="line2d_22">
    <path d="M 257.302859 293.76 
L 257.302859 289.927604 
L 257.739248 289.927604 
L 257.739248 286.095208 
L 259.838442 286.095208 
L 259.838442 282.262812 
L 260.316311 282.262812 
L 260.316311 278.430416 
L 261.396199 278.430416 
L 261.396199 274.59802 
L 262.493072 274.59802 
L 262.570046 263.100832 
L 263.090844 263.100832 
L 263.200345 255.43604 
L 263.362557 255.43604 
L 263.362557 251.603644 
L 263.899748 251.603644 
L 263.899748 247.771248 
L 265.547991 247.771248 
L 265.547991 243.938851 
L 265.882875 243.938851 
L 265.962205 236.274059 
L 277.319004 236.274059 
L 277.321559 178.788119 
L 278.12834 178.788119 
L 278.12834 174.955723 
L 278.756572 174.955723 
L 278.756572 171.123327 
L 278.912449 171.123327 
L 278.912449 167.290931 
L 279.623184 167.290931 
L 279.623184 163.458535 
L 281.227702 163.458535 
L 281.227702 159.626139 
L 282.027884 159.626139 
L 282.027884 155.793743 
L 282.154049 155.793743 
L 282.257492 148.12895 
L 282.451949 148.12895 
L 282.52252 140.464158 
L 282.586201 140.464158 
L 282.620503 132.799366 
L 282.766665 132.799366 
L 282.766665 128.96697 
L 283.144357 128.96697 
L 283.144357 125.134574 
L 283.50357 125.134574 
L 283.50357 121.302178 
L 283.631252 121.302178 
L 283.631252 117.469782 
L 283.795101 117.469782 
L 283.795101 113.637386 
L 283.916576 113.637386 
L 283.927447 105.972594 
L 284.14965 105.972594 
L 284.246208 98.307802 
L 284.295198 98.307802 
L 284.295198 94.475406 
L 284.828635 94.475406 
L 284.828635 90.64301 
L 285.06055 90.64301 
L 285.06055 86.810614 
L 286.075926 86.810614 
L 286.075926 82.978218 
L 286.533366 82.978218 
L 286.533366 79.145822 
L 286.658156 79.145822 
L 286.660062 71.48103 
L 287.049924 71.48103 
L 287.049924 67.648634 
L 287.586751 67.648634 
L 287.586751 63.816238 
L 379.654386 63.816238 
L 379.654386 59.983842 
L 386.286239 59.983842 
L 386.286239 56.151446 
L 386.65732 56.151446 
L 386.65732 52.31905 
L 388.11346 52.31905 
L 388.11346 48.486653 
L 388.720452 48.486653 
L 388.720452 44.654257 
L 390.511971 44.654257 
L 390.511971 40.821861 
L 391.192507 40.821861 
L 391.192507 36.989465 
L 392.276976 36.989465 
L 392.276976 33.157069 
L 393.534731 33.157069 
L 393.534731 29.324673 
L 393.939299 29.324673 
L 393.939299 25.492277 
L 394.429419 25.492277 
L 394.429419 21.659881 
L 395.594097 21.659881 
L 395.594097 17.827485 
L 397.418973 17.827485 
L 397.418973 13.995089 
L 398.164494 13.995089 
L 398.164494 10.162693 
L 400.337188 10.162693 
L 400.337188 6.330297 
L 400.337188 6.330297 
L 460.8 6.330297 
L 460.8 6.330297 
" clip-path="url(#pf7ad840ab5)" style="fill: none; stroke: #00bfbf; stroke-width: 1.5; stroke-linecap: square"/>
   </g>
   <g id="line2d_23">
    <path d="M 257.262507 293.76 
L 257.262507 289.927604 
L 257.739248 289.927604 
L 257.739248 286.095208 
L 259.785152 286.095208 
L 259.785152 282.262812 
L 260.272472 282.262812 
L 260.272472 278.430416 
L 261.396199 278.430416 
L 261.396199 274.59802 
L 262.493072 274.59802 
L 262.556391 263.100832 
L 263.090844 263.100832 
L 263.199793 255.43604 
L 263.362557 255.43604 
L 263.362557 251.603644 
L 263.885759 251.603644 
L 263.885759 247.771248 
L 265.536367 247.771248 
L 265.536367 243.938851 
L 265.882875 243.938851 
L 265.962205 236.274059 
L 277.297153 236.274059 
L 277.311889 178.788119 
L 277.861951 178.788119 
L 277.861951 174.955723 
L 278.441402 174.955723 
L 278.441402 171.123327 
L 278.664992 171.123327 
L 278.664992 167.290931 
L 279.39674 167.290931 
L 279.39674 163.458535 
L 280.969691 163.458535 
L 280.969691 159.626139 
L 281.814347 159.626139 
L 281.814347 155.793743 
L 281.981958 155.793743 
L 281.981958 151.961347 
L 282.129144 151.961347 
L 282.129144 148.12895 
L 282.269253 148.12895 
L 282.344059 136.631762 
L 282.46848 136.631762 
L 282.46848 132.799366 
L 282.653064 132.799366 
L 282.653064 128.96697 
L 282.959311 128.96697 
L 282.959311 125.134574 
L 283.333579 125.134574 
L 283.415781 117.469782 
L 283.491556 117.469782 
L 283.491556 113.637386 
L 283.763091 113.637386 
L 283.861603 105.972594 
L 284.030058 105.972594 
L 284.075673 98.307802 
L 284.176973 98.307802 
L 284.176973 94.475406 
L 284.706199 94.475406 
L 284.706199 90.64301 
L 284.910728 90.64301 
L 284.910728 86.810614 
L 285.952245 86.810614 
L 285.952245 82.978218 
L 286.390156 82.978218 
L 286.390156 79.145822 
L 286.529103 79.145822 
L 286.529103 75.313426 
L 286.646187 75.313426 
L 286.646187 71.48103 
L 286.99595 71.48103 
L 286.99595 67.648634 
L 287.574301 67.648634 
L 287.574301 63.816238 
L 379.047248 63.816238 
L 379.047248 59.983842 
L 386.269976 59.983842 
L 386.301557 52.31905 
L 387.518401 52.31905 
L 387.518401 48.486653 
L 388.154774 48.486653 
L 388.154774 44.654257 
L 390.270569 44.654257 
L 390.270569 40.821861 
L 390.957831 40.821861 
L 390.957831 36.989465 
L 392.086263 36.989465 
L 392.086263 33.157069 
L 393.248163 33.157069 
L 393.248163 29.324673 
L 393.605316 29.324673 
L 393.605316 25.492277 
L 393.817896 25.492277 
L 393.817896 21.659881 
L 395.588103 21.659881 
L 395.588103 17.827485 
L 397.319791 17.827485 
L 397.319791 13.995089 
L 397.688507 13.995089 
L 397.688507 10.162693 
L 400.285622 10.162693 
L 400.285622 6.330297 
L 400.285622 6.330297 
L 460.8 6.330297 
L 460.8 6.330297 
" clip-path="url(#pf7ad840ab5)" style="fill: none; stroke: #bf00bf; stroke-width: 1.5; stroke-linecap: square"/>
   </g>
   <g id="line2d_24">
    <path d="M -0.113092 293.76 
L -0.113092 263.100832 
L 198.789325 263.100832 
L 198.789325 259.268436 
L 216.048255 259.268436 
L 216.048255 255.43604 
L 216.489697 255.43604 
L 216.489697 251.603644 
L 217.424518 251.603644 
L 217.424518 247.771248 
L 218.419716 247.771248 
L 218.419716 243.938851 
L 222.615247 243.938851 
L 222.615247 240.106455 
L 223.532479 240.106455 
L 223.532479 236.274059 
L 223.896566 236.274059 
L 223.896566 232.441663 
L 224.496153 232.441663 
L 224.496153 228.609267 
L 234.484477 228.609267 
L 234.484477 224.776871 
L 244.172577 224.776871 
L 244.172577 220.944475 
L 244.90732 220.944475 
L 244.90732 217.112079 
L 245.205828 217.112079 
L 245.205828 213.279683 
L 245.947314 213.279683 
L 245.947314 209.447287 
L 250.427233 209.447287 
L 250.427233 205.614891 
L 258.795323 205.614891 
L 258.795323 201.782495 
L 259.622024 201.782495 
L 259.622024 197.950099 
L 261.396199 197.950099 
L 261.396199 194.117703 
L 262.039183 194.117703 
L 262.039183 190.285307 
L 262.556391 190.285307 
L 262.556391 186.452911 
L 263.885759 186.452911 
L 263.885759 182.620515 
L 275.564212 182.620515 
L 275.564212 178.788119 
L 276.503264 178.788119 
L 276.539465 171.123327 
L 277.062978 171.123327 
L 277.062978 167.290931 
L 277.308111 167.290931 
L 277.308111 163.458535 
L 279.024939 163.458535 
L 279.024939 159.626139 
L 279.324753 159.626139 
L 279.324753 155.793743 
L 279.656083 155.793743 
L 279.656083 151.961347 
L 279.948481 151.961347 
L 279.955086 144.296554 
L 280.349868 144.296554 
L 280.380272 136.631762 
L 280.647765 136.631762 
L 280.647765 132.799366 
L 280.938745 132.799366 
L 280.969691 125.134574 
L 281.152042 125.134574 
L 281.152042 121.302178 
L 281.64656 121.302178 
L 281.64656 117.469782 
L 281.804381 117.469782 
L 281.892416 109.80499 
L 281.978963 109.80499 
L 281.978963 105.972594 
L 282.490938 105.972594 
L 282.490938 102.140198 
L 282.833166 102.140198 
L 282.857626 94.475406 
L 283.665729 94.475406 
L 283.755755 82.978218 
L 284.013581 82.978218 
L 284.013581 79.145822 
L 284.176973 79.145822 
L 284.176973 75.313426 
L 284.919278 75.313426 
L 284.919278 71.48103 
L 285.655487 71.48103 
L 285.655487 67.648634 
L 286.668636 67.648634 
L 286.668636 63.816238 
L 360.315314 63.816238 
L 360.315314 59.983842 
L 360.535317 59.983842 
L 360.535317 56.151446 
L 360.817221 56.151446 
L 360.817221 52.31905 
L 361.329985 52.31905 
L 361.329985 48.486653 
L 363.651055 48.486653 
L 363.651055 44.654257 
L 364.112198 44.654257 
L 364.112198 40.821861 
L 366.269492 40.821861 
L 366.269492 36.989465 
L 367.193779 36.989465 
L 367.193779 33.157069 
L 367.316574 33.157069 
L 367.316574 29.324673 
L 370.470764 29.324673 
L 370.470764 25.492277 
L 371.530162 25.492277 
L 371.530162 21.659881 
L 371.902215 21.659881 
L 371.902215 17.827485 
L 375.318231 17.827485 
L 375.318231 13.995089 
L 375.78967 13.995089 
L 375.78967 10.162693 
L 376.1736 10.162693 
L 376.1736 6.330297 
L 376.1736 6.330297 
L 460.8 6.330297 
L 460.8 6.330297 
" clip-path="url(#pf7ad840ab5)" style="fill: none; stroke: #000000; stroke-width: 1.5; stroke-linecap: square"/>
   </g>
   <g id="line2d_25">
    <path d="M -0.113092 293.76 
L -0.113092 263.100832 
L 54.356967 263.100832 
L 54.356967 259.268436 
L 73.137792 259.268436 
L 73.137792 255.43604 
L 75.340694 255.43604 
L 75.340694 251.603644 
L 77.116017 251.603644 
L 77.116017 247.771248 
L 84.384374 247.771248 
L 84.384374 243.938851 
L 91.144486 243.938851 
L 91.144486 240.106455 
L 91.705927 240.106455 
L 91.705927 236.274059 
L 129.666106 236.274059 
L 129.666106 232.441663 
L 219.142376 232.441663 
L 219.142376 228.609267 
L 234.484477 228.609267 
L 234.484477 224.776871 
L 244.172577 224.776871 
L 244.172577 220.944475 
L 244.906097 220.944475 
L 244.906097 217.112079 
L 245.203096 217.112079 
L 245.203096 213.279683 
L 245.947124 213.279683 
L 245.947124 209.447287 
L 250.427233 209.447287 
L 250.427233 205.614891 
L 258.795323 205.614891 
L 258.795323 201.782495 
L 259.622024 201.782495 
L 259.622024 197.950099 
L 261.396199 197.950099 
L 261.396199 194.117703 
L 262.039183 194.117703 
L 262.039183 190.285307 
L 262.556391 190.285307 
L 262.556391 186.452911 
L 263.885759 186.452911 
L 263.885759 182.620515 
L 273.431154 182.620515 
L 273.431154 178.788119 
L 273.844754 178.788119 
L 273.844754 174.955723 
L 274.613178 174.955723 
L 274.613178 171.123327 
L 274.757719 171.123327 
L 274.757719 167.290931 
L 276.50912 167.290931 
L 276.50912 163.458535 
L 277.630794 163.458535 
L 277.630794 159.626139 
L 277.826311 159.626139 
L 277.904261 151.961347 
L 278.096379 151.961347 
L 278.140234 144.296554 
L 278.326053 144.296554 
L 278.326053 140.464158 
L 278.834461 140.464158 
L 278.834461 136.631762 
L 279.296128 136.631762 
L 279.296128 132.799366 
L 279.603883 132.799366 
L 279.680983 125.134574 
L 280.177003 125.134574 
L 280.177003 121.302178 
L 280.318257 121.302178 
L 280.318257 117.469782 
L 280.468637 117.469782 
L 280.468637 113.637386 
L 280.909482 113.637386 
L 280.969691 105.972594 
L 281.155672 105.972594 
L 281.238529 98.307802 
L 281.929565 98.307802 
L 281.929565 94.475406 
L 282.483878 94.475406 
L 282.483878 90.64301 
L 282.601099 90.64301 
L 282.601099 86.810614 
L 282.953795 86.810614 
L 282.953795 82.978218 
L 283.286551 82.978218 
L 283.286551 79.145822 
L 284.176973 79.145822 
L 284.287958 71.48103 
L 285.286229 71.48103 
L 285.286229 67.648634 
L 285.848234 67.648634 
L 285.848234 63.816238 
L 334.654609 63.816238 
L 334.654609 59.983842 
L 336.666639 59.983842 
L 336.666639 56.151446 
L 339.295178 56.151446 
L 339.295178 52.31905 
L 339.643523 52.31905 
L 339.643523 48.486653 
L 341.052974 48.486653 
L 341.159535 40.821861 
L 342.104167 40.821861 
L 342.104167 36.989465 
L 344.151497 36.989465 
L 344.151497 33.157069 
L 344.415948 33.157069 
L 344.415948 29.324673 
L 345.197876 29.324673 
L 345.197876 25.492277 
L 348.765632 25.492277 
L 348.765632 21.659881 
L 349.45322 21.659881 
L 349.45322 17.827485 
L 350.02222 17.827485 
L 350.02222 13.995089 
L 351.921153 13.995089 
L 351.921153 10.162693 
L 354.575476 10.162693 
L 354.575476 6.330297 
L 354.575476 6.330297 
L 460.8 6.330297 
L 460.8 6.330297 
" clip-path="url(#pf7ad840ab5)" style="fill: none; stroke: #00bfbf; stroke-width: 1.5; stroke-linecap: square"/>
   </g>
   <g id="patch_3">
    <path d="M 0 293.76 
L 0 3.456 
" style="fill: none; stroke: #000000; stroke-width: 0.8; stroke-linejoin: miter; stroke-linecap: square"/>
   </g>
   <g id="patch_4">
    <path d="M 460.8 293.76 
L 460.8 3.456 
" style="fill: none; stroke: #000000; stroke-width: 0.8; stroke-linejoin: miter; stroke-linecap: square"/>
   </g>
   <g id="patch_5">
    <path d="M 0 293.76 
L 460.8 293.76 
" style="fill: none; stroke: #000000; stroke-width: 0.8; stroke-linejoin: miter; stroke-linecap: square"/>
   </g>
   <g id="patch_6">
    <path d="M 0 3.456 
L 460.8 3.456 
" style="fill: none; stroke: #000000; stroke-width: 0.8; stroke-linejoin: miter; stroke-linecap: square"/>
   </g>
   <g id="text_6">
    <!-- {f1-f5}, 20-D -->
    <g transform="translate(318.609 287.95392) scale(0.2 -0.2)">
     <defs>
      <path id="DejaVuSans-7b" d="M 3272 -594 
L 3272 -1044 
L 3078 -1044 
Q 2300 -1044 2036 -812 
Q 1772 -581 1772 109 
L 1772 856 
Q 1772 1328 1603 1509 
Q 1434 1691 991 1691 
L 800 1691 
L 800 2138 
L 991 2138 
Q 1438 2138 1605 2317 
Q 1772 2497 1772 2963 
L 1772 3713 
Q 1772 4403 2036 4633 
Q 2300 4863 3078 4863 
L 3272 4863 
L 3272 4416 
L 3059 4416 
Q 2619 4416 2484 4278 
Q 2350 4141 2350 3700 
L 2350 2925 
Q 2350 2434 2208 2212 
Q 2066 1991 1722 1913 
Q 2069 1828 2209 1606 
Q 2350 1384 2350 897 
L 2350 122 
Q 2350 -319 2484 -456 
Q 2619 -594 3059 -594 
L 3272 -594 
z
" transform="scale(0.015625)"/>
      <path id="DejaVuSans-35" d="M 691 4666 
L 3169 4666 
L 3169 4134 
L 1269 4134 
L 1269 2991 
Q 1406 3038 1543 3061 
Q 1681 3084 1819 3084 
Q 2600 3084 3056 2656 
Q 3513 2228 3513 1497 
Q 3513 744 3044 326 
Q 2575 -91 1722 -91 
Q 1428 -91 1123 -41 
Q 819 9 494 109 
L 494 744 
Q 775 591 1075 516 
Q 1375 441 1709 441 
Q 2250 441 2565 725 
Q 2881 1009 2881 1497 
Q 2881 1984 2565 2268 
Q 2250 2553 1709 2553 
Q 1456 2553 1204 2497 
Q 953 2441 691 2322 
L 691 4666 
z
" transform="scale(0.015625)"/>
      <path id="DejaVuSans-7d" d="M 800 -594 
L 1019 -594 
Q 1456 -594 1589 -459 
Q 1722 -325 1722 122 
L 1722 897 
Q 1722 1384 1862 1606 
Q 2003 1828 2350 1913 
Q 2003 1991 1862 2212 
Q 1722 2434 1722 2925 
L 1722 3700 
Q 1722 4144 1589 4280 
Q 1456 4416 1019 4416 
L 800 4416 
L 800 4863 
L 997 4863 
Q 1775 4863 2036 4633 
Q 2297 4403 2297 3713 
L 2297 2963 
Q 2297 2497 2465 2317 
Q 2634 2138 3078 2138 
L 3272 2138 
L 3272 1691 
L 3078 1691 
Q 2634 1691 2465 1509 
Q 2297 1328 2297 856 
L 2297 109 
Q 2297 -581 2036 -812 
Q 1775 -1044 997 -1044 
L 800 -1044 
L 800 -594 
z
" transform="scale(0.015625)"/>
      <path id="DejaVuSans-2c" d="M 750 794 
L 1409 794 
L 1409 256 
L 897 -744 
L 494 -744 
L 750 256 
L 750 794 
z
" transform="scale(0.015625)"/>
      <path id="DejaVuSans-32" d="M 1228 531 
L 3431 531 
L 3431 0 
L 469 0 
L 469 531 
Q 828 903 1448 1529 
Q 2069 2156 2228 2338 
Q 2531 2678 2651 2914 
Q 2772 3150 2772 3378 
Q 2772 3750 2511 3984 
Q 2250 4219 1831 4219 
Q 1534 4219 1204 4116 
Q 875 4013 500 3803 
L 500 4441 
Q 881 4594 1212 4672 
Q 1544 4750 1819 4750 
Q 2544 4750 2975 4387 
Q 3406 4025 3406 3419 
Q 3406 3131 3298 2873 
Q 3191 2616 2906 2266 
Q 2828 2175 2409 1742 
Q 1991 1309 1228 531 
z
" transform="scale(0.015625)"/>
     </defs>
     <use xlink:href="#DejaVuSans-7b"/>
     <use xlink:href="#DejaVuSans-66" x="63.623047"/>
     <use xlink:href="#DejaVuSans-31" x="98.828125"/>
     <use xlink:href="#DejaVuSans-2d" x="162.451172"/>
     <use xlink:href="#DejaVuSans-66" x="198.535156"/>
     <use xlink:href="#DejaVuSans-35" x="233.740234"/>
     <use xlink:href="#DejaVuSans-7d" x="297.363281"/>
     <use xlink:href="#DejaVuSans-2c" x="360.986328"/>
     <use xlink:href="#DejaVuSans-20" x="392.773438"/>
     <use xlink:href="#DejaVuSans-32" x="424.560547"/>
     <use xlink:href="#DejaVuSans-30" x="488.183594"/>
     <use xlink:href="#DejaVuSans-2d" x="551.806641"/>
     <use xlink:href="#DejaVuSans-44" x="587.890625"/>
    </g>
   </g>
   <g id="text_7">
    <!-- v2.6.3 -->
    <g style="fill: #808080" transform="translate(214.71875 288.777272) scale(0.1 -0.1)">
     <defs>
      <path id="DejaVuSans-76" d="M 191 3500 
L 800 3500 
L 1894 563 
L 2988 3500 
L 3597 3500 
L 2284 0 
L 1503 0 
L 191 3500 
z
" transform="scale(0.015625)"/>
      <path id="DejaVuSans-2e" d="M 684 794 
L 1344 794 
L 1344 0 
L 684 0 
L 684 794 
z
" transform="scale(0.015625)"/>
      <path id="DejaVuSans-36" d="M 2113 2584 
Q 1688 2584 1439 2293 
Q 1191 2003 1191 1497 
Q 1191 994 1439 701 
Q 1688 409 2113 409 
Q 2538 409 2786 701 
Q 3034 994 3034 1497 
Q 3034 2003 2786 2293 
Q 2538 2584 2113 2584 
z
M 3366 4563 
L 3366 3988 
Q 3128 4100 2886 4159 
Q 2644 4219 2406 4219 
Q 1781 4219 1451 3797 
Q 1122 3375 1075 2522 
Q 1259 2794 1537 2939 
Q 1816 3084 2150 3084 
Q 2853 3084 3261 2657 
Q 3669 2231 3669 1497 
Q 3669 778 3244 343 
Q 2819 -91 2113 -91 
Q 1303 -91 875 529 
Q 447 1150 447 2328 
Q 447 3434 972 4092 
Q 1497 4750 2381 4750 
Q 2619 4750 2861 4703 
Q 3103 4656 3366 4563 
z
" transform="scale(0.015625)"/>
      <path id="DejaVuSans-33" d="M 2597 2516 
Q 3050 2419 3304 2112 
Q 3559 1806 3559 1356 
Q 3559 666 3084 287 
Q 2609 -91 1734 -91 
Q 1441 -91 1130 -33 
Q 819 25 488 141 
L 488 750 
Q 750 597 1062 519 
Q 1375 441 1716 441 
Q 2309 441 2620 675 
Q 2931 909 2931 1356 
Q 2931 1769 2642 2001 
Q 2353 2234 1838 2234 
L 1294 2234 
L 1294 2753 
L 1863 2753 
Q 2328 2753 2575 2939 
Q 2822 3125 2822 3475 
Q 2822 3834 2567 4026 
Q 2313 4219 1838 4219 
Q 1578 4219 1281 4162 
Q 984 4106 628 3988 
L 628 4550 
Q 988 4650 1302 4700 
Q 1616 4750 1894 4750 
Q 2613 4750 3031 4423 
Q 3450 4097 3450 3541 
Q 3450 3153 3228 2886 
Q 3006 2619 2597 2516 
z
" transform="scale(0.015625)"/>
     </defs>
     <use xlink:href="#DejaVuSans-76"/>
     <use xlink:href="#DejaVuSans-32" x="59.179688"/>
     <use xlink:href="#DejaVuSans-2e" x="122.802734"/>
     <use xlink:href="#DejaVuSans-36" x="154.589844"/>
     <use xlink:href="#DejaVuSans-2e" x="218.212891"/>
     <use xlink:href="#DejaVuSans-33" x="250"/>
    </g>
   </g>
  </g>
 </g>
 <defs>
  <clipPath id="pf7ad840ab5">
   <rect x="0" y="3.456" width="460.8" height="290.304"/>
  </clipPath>
 </defs>
</svg>
