<?xml version="1.0" encoding="utf-8" standalone="no"?>
<!DOCTYPE svg PUBLIC "-//W3C//DTD SVG 1.1//EN"
  "http://www.w3.org/Graphics/SVG/1.1/DTD/svg11.dtd">
<svg xmlns:xlink="http://www.w3.org/1999/xlink" width="460.8pt" height="345.6pt" viewBox="0 0 460.8 345.6" xmlns="http://www.w3.org/2000/svg" version="1.1">
 <metadata>
  <rdf:RDF xmlns:dc="http://purl.org/dc/elements/1.1/" xmlns:cc="http://creativecommons.org/ns#" xmlns:rdf="http://www.w3.org/1999/02/22-rdf-syntax-ns#">
   <cc:Work>
    <dc:type rdf:resource="http://purl.org/dc/dcmitype/StillImage"/>
    <dc:date>2024-01-17T15:45:34.592350</dc:date>
    <dc:format>image/svg+xml</dc:format>
    <dc:creator>
     <cc:Agent>
      <dc:title>Matplotlib v3.8.2, https://matplotlib.org/</dc:title>
     </cc:Agent>
    </dc:creator>
   </cc:Work>
  </rdf:RDF>
 </metadata>
 <defs>
  <style type="text/css">*{stroke-linejoin: round; stroke-linecap: butt}</style>
 </defs>
 <g id="figure_1">
  <g id="patch_1">
   <path d="M 0 345.6 
L 460.8 345.6 
L 460.8 0 
L 0 0 
z
" style="fill: #ffffff"/>
  </g>
  <g id="axes_1">
   <g id="patch_2">
    <path d="M 0 293.76 
L 460.8 293.76 
L 460.8 3.456 
L 0 3.456 
z
" style="fill: #ffffff"/>
   </g>
   <g id="matplotlib.axis_1">
    <g id="xtick_1">
     <g id="line2d_1">
      <path d="M 104.5682 293.76 
L 104.5682 3.456 
" clip-path="url(#pb5bbc37549)" style="fill: none; stroke: #b0b0b0; stroke-width: 0.8; stroke-linecap: square"/>
     </g>
     <g id="line2d_2">
      <defs>
       <path id="m3111455e9a" d="M 0 0 
L 0 3.5 
" style="stroke: #000000; stroke-width: 0.8"/>
      </defs>
      <g>
       <use xlink:href="#m3111455e9a" x="104.5682" y="293.76" style="stroke: #000000; stroke-width: 0.8"/>
      </g>
     </g>
     <g id="text_1">
      <!-- -4 -->
      <g transform="translate(94.597887 315.956875) scale(0.2 -0.2)">
       <defs>
        <path id="DejaVuSans-2d" d="M 313 2009 
L 1997 2009 
L 1997 1497 
L 313 1497 
L 313 2009 
z
" transform="scale(0.015625)"/>
        <path id="DejaVuSans-34" d="M 2419 4116 
L 825 1625 
L 2419 1625 
L 2419 4116 
z
M 2253 4666 
L 3047 4666 
L 3047 1625 
L 3713 1625 
L 3713 1100 
L 3047 1100 
L 3047 0 
L 2419 0 
L 2419 1100 
L 313 1100 
L 313 1709 
L 2253 4666 
z
" transform="scale(0.015625)"/>
       </defs>
       <use xlink:href="#DejaVuSans-2d"/>
       <use xlink:href="#DejaVuSans-34" x="36.083984"/>
      </g>
     </g>
    </g>
    <g id="xtick_2">
     <g id="line2d_3">
      <path d="M 209.249491 293.76 
L 209.249491 3.456 
" clip-path="url(#pb5bbc37549)" style="fill: none; stroke: #b0b0b0; stroke-width: 0.8; stroke-linecap: square"/>
     </g>
     <g id="line2d_4">
      <g>
       <use xlink:href="#m3111455e9a" x="209.249491" y="293.76" style="stroke: #000000; stroke-width: 0.8"/>
      </g>
     </g>
     <g id="text_2">
      <!-- 0 -->
      <g transform="translate(202.886991 315.956875) scale(0.2 -0.2)">
       <defs>
        <path id="DejaVuSans-30" d="M 2034 4250 
Q 1547 4250 1301 3770 
Q 1056 3291 1056 2328 
Q 1056 1369 1301 889 
Q 1547 409 2034 409 
Q 2525 409 2770 889 
Q 3016 1369 3016 2328 
Q 3016 3291 2770 3770 
Q 2525 4250 2034 4250 
z
M 2034 4750 
Q 2819 4750 3233 4129 
Q 3647 3509 3647 2328 
Q 3647 1150 3233 529 
Q 2819 -91 2034 -91 
Q 1250 -91 836 529 
Q 422 1150 422 2328 
Q 422 3509 836 4129 
Q 1250 4750 2034 4750 
z
" transform="scale(0.015625)"/>
       </defs>
       <use xlink:href="#DejaVuSans-30"/>
      </g>
     </g>
    </g>
    <g id="xtick_3">
     <g id="line2d_5">
      <path d="M 313.930783 293.76 
L 313.930783 3.456 
" clip-path="url(#pb5bbc37549)" style="fill: none; stroke: #b0b0b0; stroke-width: 0.8; stroke-linecap: square"/>
     </g>
     <g id="line2d_6">
      <g>
       <use xlink:href="#m3111455e9a" x="313.930783" y="293.76" style="stroke: #000000; stroke-width: 0.8"/>
      </g>
     </g>
     <g id="text_3">
      <!-- 4 -->
      <g transform="translate(307.568283 315.956875) scale(0.2 -0.2)">
       <use xlink:href="#DejaVuSans-34"/>
      </g>
     </g>
    </g>
    <g id="xtick_4">
     <g id="line2d_7">
      <path d="M 418.612074 293.76 
L 418.612074 3.456 
" clip-path="url(#pb5bbc37549)" style="fill: none; stroke: #b0b0b0; stroke-width: 0.8; stroke-linecap: square"/>
     </g>
     <g id="line2d_8">
      <g>
       <use xlink:href="#m3111455e9a" x="418.612074" y="293.76" style="stroke: #000000; stroke-width: 0.8"/>
      </g>
     </g>
     <g id="text_4">
      <!-- 8 -->
      <g transform="translate(412.249574 315.956875) scale(0.2 -0.2)">
       <defs>
        <path id="DejaVuSans-38" d="M 2034 2216 
Q 1584 2216 1326 1975 
Q 1069 1734 1069 1313 
Q 1069 891 1326 650 
Q 1584 409 2034 409 
Q 2484 409 2743 651 
Q 3003 894 3003 1313 
Q 3003 1734 2745 1975 
Q 2488 2216 2034 2216 
z
M 1403 2484 
Q 997 2584 770 2862 
Q 544 3141 544 3541 
Q 544 4100 942 4425 
Q 1341 4750 2034 4750 
Q 2731 4750 3128 4425 
Q 3525 4100 3525 3541 
Q 3525 3141 3298 2862 
Q 3072 2584 2669 2484 
Q 3125 2378 3379 2068 
Q 3634 1759 3634 1313 
Q 3634 634 3220 271 
Q 2806 -91 2034 -91 
Q 1263 -91 848 271 
Q 434 634 434 1313 
Q 434 1759 690 2068 
Q 947 2378 1403 2484 
z
M 1172 3481 
Q 1172 3119 1398 2916 
Q 1625 2713 2034 2713 
Q 2441 2713 2670 2916 
Q 2900 3119 2900 3481 
Q 2900 3844 2670 4047 
Q 2441 4250 2034 4250 
Q 1625 4250 1398 4047 
Q 1172 3844 1172 3481 
z
" transform="scale(0.015625)"/>
       </defs>
       <use xlink:href="#DejaVuSans-38"/>
      </g>
     </g>
    </g>
    <g id="text_5">
     <!-- log10 of Df -->
     <g transform="translate(175.214063 339.313125) scale(0.2 -0.2)">
      <defs>
       <path id="DejaVuSans-6c" d="M 603 4863 
L 1178 4863 
L 1178 0 
L 603 0 
L 603 4863 
z
" transform="scale(0.015625)"/>
       <path id="DejaVuSans-6f" d="M 1959 3097 
Q 1497 3097 1228 2736 
Q 959 2375 959 1747 
Q 959 1119 1226 758 
Q 1494 397 1959 397 
Q 2419 397 2687 759 
Q 2956 1122 2956 1747 
Q 2956 2369 2687 2733 
Q 2419 3097 1959 3097 
z
M 1959 3584 
Q 2709 3584 3137 3096 
Q 3566 2609 3566 1747 
Q 3566 888 3137 398 
Q 2709 -91 1959 -91 
Q 1206 -91 779 398 
Q 353 888 353 1747 
Q 353 2609 779 3096 
Q 1206 3584 1959 3584 
z
" transform="scale(0.015625)"/>
       <path id="DejaVuSans-67" d="M 2906 1791 
Q 2906 2416 2648 2759 
Q 2391 3103 1925 3103 
Q 1463 3103 1205 2759 
Q 947 2416 947 1791 
Q 947 1169 1205 825 
Q 1463 481 1925 481 
Q 2391 481 2648 825 
Q 2906 1169 2906 1791 
z
M 3481 434 
Q 3481 -459 3084 -895 
Q 2688 -1331 1869 -1331 
Q 1566 -1331 1297 -1286 
Q 1028 -1241 775 -1147 
L 775 -588 
Q 1028 -725 1275 -790 
Q 1522 -856 1778 -856 
Q 2344 -856 2625 -561 
Q 2906 -266 2906 331 
L 2906 616 
Q 2728 306 2450 153 
Q 2172 0 1784 0 
Q 1141 0 747 490 
Q 353 981 353 1791 
Q 353 2603 747 3093 
Q 1141 3584 1784 3584 
Q 2172 3584 2450 3431 
Q 2728 3278 2906 2969 
L 2906 3500 
L 3481 3500 
L 3481 434 
z
" transform="scale(0.015625)"/>
       <path id="DejaVuSans-31" d="M 794 531 
L 1825 531 
L 1825 4091 
L 703 3866 
L 703 4441 
L 1819 4666 
L 2450 4666 
L 2450 531 
L 3481 531 
L 3481 0 
L 794 0 
L 794 531 
z
" transform="scale(0.015625)"/>
       <path id="DejaVuSans-20" transform="scale(0.015625)"/>
       <path id="DejaVuSans-66" d="M 2375 4863 
L 2375 4384 
L 1825 4384 
Q 1516 4384 1395 4259 
Q 1275 4134 1275 3809 
L 1275 3500 
L 2222 3500 
L 2222 3053 
L 1275 3053 
L 1275 0 
L 697 0 
L 697 3053 
L 147 3053 
L 147 3500 
L 697 3500 
L 697 3744 
Q 697 4328 969 4595 
Q 1241 4863 1831 4863 
L 2375 4863 
z
" transform="scale(0.015625)"/>
       <path id="DejaVuSans-44" d="M 1259 4147 
L 1259 519 
L 2022 519 
Q 2988 519 3436 956 
Q 3884 1394 3884 2338 
Q 3884 3275 3436 3711 
Q 2988 4147 2022 4147 
L 1259 4147 
z
M 628 4666 
L 1925 4666 
Q 3281 4666 3915 4102 
Q 4550 3538 4550 2338 
Q 4550 1131 3912 565 
Q 3275 0 1925 0 
L 628 0 
L 628 4666 
z
" transform="scale(0.015625)"/>
      </defs>
      <use xlink:href="#DejaVuSans-6c"/>
      <use xlink:href="#DejaVuSans-6f" x="27.783203"/>
      <use xlink:href="#DejaVuSans-67" x="88.964844"/>
      <use xlink:href="#DejaVuSans-31" x="152.441406"/>
      <use xlink:href="#DejaVuSans-30" x="216.064453"/>
      <use xlink:href="#DejaVuSans-20" x="279.6875"/>
      <use xlink:href="#DejaVuSans-6f" x="311.474609"/>
      <use xlink:href="#DejaVuSans-66" x="372.65625"/>
      <use xlink:href="#DejaVuSans-20" x="407.861328"/>
      <use xlink:href="#DejaVuSans-44" x="439.648438"/>
      <use xlink:href="#DejaVuSans-66" x="516.650391"/>
     </g>
    </g>
   </g>
   <g id="matplotlib.axis_2">
    <g id="ytick_1">
     <g id="line2d_9">
      <path d="M 0 293.76 
L 460.8 293.76 
" clip-path="url(#pb5bbc37549)" style="fill: none; stroke: #b0b0b0; stroke-width: 0.8; stroke-linecap: square"/>
     </g>
     <g id="line2d_10">
      <defs>
       <path id="m23297ab8da" d="M 0 0 
L -3.5 0 
" style="stroke: #000000; stroke-width: 0.8"/>
      </defs>
      <g>
       <use xlink:href="#m23297ab8da" x="0" y="293.76" style="stroke: #000000; stroke-width: 0.8"/>
      </g>
     </g>
    </g>
    <g id="ytick_2">
     <g id="line2d_11">
      <path d="M 0 236.274059 
L 460.8 236.274059 
" clip-path="url(#pb5bbc37549)" style="fill: none; stroke: #b0b0b0; stroke-width: 0.8; stroke-linecap: square"/>
     </g>
     <g id="line2d_12">
      <g>
       <use xlink:href="#m23297ab8da" x="0" y="236.274059" style="stroke: #000000; stroke-width: 0.8"/>
      </g>
     </g>
    </g>
    <g id="ytick_3">
     <g id="line2d_13">
      <path d="M 0 178.788119 
L 460.8 178.788119 
" clip-path="url(#pb5bbc37549)" style="fill: none; stroke: #b0b0b0; stroke-width: 0.8; stroke-linecap: square"/>
     </g>
     <g id="line2d_14">
      <g>
       <use xlink:href="#m23297ab8da" x="0" y="178.788119" style="stroke: #000000; stroke-width: 0.8"/>
      </g>
     </g>
    </g>
    <g id="ytick_4">
     <g id="line2d_15">
      <path d="M 0 121.302178 
L 460.8 121.302178 
" clip-path="url(#pb5bbc37549)" style="fill: none; stroke: #b0b0b0; stroke-width: 0.8; stroke-linecap: square"/>
     </g>
     <g id="line2d_16">
      <g>
       <use xlink:href="#m23297ab8da" x="0" y="121.302178" style="stroke: #000000; stroke-width: 0.8"/>
      </g>
     </g>
    </g>
    <g id="ytick_5">
     <g id="line2d_17">
      <path d="M 0 63.816238 
L 460.8 63.816238 
" clip-path="url(#pb5bbc37549)" style="fill: none; stroke: #b0b0b0; stroke-width: 0.8; stroke-linecap: square"/>
     </g>
     <g id="line2d_18">
      <g>
       <use xlink:href="#m23297ab8da" x="0" y="63.816238" style="stroke: #000000; stroke-width: 0.8"/>
      </g>
     </g>
    </g>
    <g id="ytick_6">
     <g id="line2d_19">
      <path d="M 0 6.330297 
L 460.8 6.330297 
" clip-path="url(#pb5bbc37549)" style="fill: none; stroke: #b0b0b0; stroke-width: 0.8; stroke-linecap: square"/>
     </g>
     <g id="line2d_20">
      <g>
       <use xlink:href="#m23297ab8da" x="0" y="6.330297" style="stroke: #000000; stroke-width: 0.8"/>
      </g>
     </g>
    </g>
   </g>
   <g id="line2d_21">
    <path d="M 173.332152 293.76 
L 173.332152 289.927604 
L 175.147076 289.927604 
L 175.147076 286.095208 
L 180.01183 286.095208 
L 180.01183 282.262812 
L 181.08672 282.262812 
L 181.08672 278.430416 
L 182.945755 278.430416 
L 182.945755 274.59802 
L 183.929071 274.59802 
L 183.929071 270.765624 
L 238.813841 270.765624 
L 238.813841 266.933228 
L 244.119836 266.933228 
L 244.119836 263.100832 
L 247.891547 263.100832 
L 247.891547 259.268436 
L 248.522176 259.268436 
L 248.522349 251.603644 
L 248.964252 251.603644 
L 248.964252 247.771248 
L 249.621008 247.771248 
L 249.621008 243.938851 
L 249.777218 243.938851 
L 249.777218 240.106455 
L 250.033027 240.106455 
L 250.033027 236.274059 
L 250.478453 236.274059 
L 250.478453 232.441663 
L 250.804559 232.441663 
L 250.804559 228.609267 
L 251.456271 228.609267 
L 251.456271 224.776871 
L 252.073853 224.776871 
L 252.073853 220.944475 
L 252.594817 220.944475 
L 252.594817 217.112079 
L 252.723806 217.112079 
L 252.723806 213.279683 
L 252.843334 213.279683 
L 252.843334 209.447287 
L 253.558792 209.447287 
L 253.558792 205.614891 
L 253.723799 205.614891 
L 253.723799 201.782495 
L 253.942203 201.782495 
L 253.942203 197.950099 
L 254.09429 197.950099 
L 254.09429 194.117703 
L 259.446337 194.117703 
L 259.446337 190.285307 
L 260.237611 190.285307 
L 260.237611 186.452911 
L 260.863423 186.452911 
L 260.863423 182.620515 
L 261.3803 182.620515 
L 261.3803 178.788119 
L 262.187424 178.788119 
L 262.187424 174.955723 
L 263.179607 174.955723 
L 263.272434 167.290931 
L 263.929408 167.290931 
L 263.929408 163.458535 
L 264.506903 163.458535 
L 264.506903 159.626139 
L 265.025122 159.626139 
L 265.025122 155.793743 
L 265.150729 155.793743 
L 265.150729 151.961347 
L 268.319909 151.961347 
L 268.319909 148.12895 
L 268.874438 148.12895 
L 268.874438 144.296554 
L 273.290377 144.296554 
L 273.290377 140.464158 
L 279.500353 140.464158 
L 279.500353 136.631762 
L 281.687041 136.631762 
L 281.687041 132.799366 
L 284.707036 132.799366 
L 284.707036 128.96697 
L 287.12562 128.96697 
L 287.12562 125.134574 
L 287.76046 125.134574 
L 287.760462 113.637386 
L 288.480341 113.637386 
L 288.480341 109.80499 
L 291.831312 109.80499 
L 291.831312 105.972594 
L 295.451739 105.972594 
L 295.451739 102.140198 
L 300.172155 102.140198 
L 300.172155 98.307802 
L 301.777653 98.307802 
L 301.777653 94.475406 
L 302.480396 94.475406 
L 302.480396 90.64301 
L 302.742849 90.64301 
L 302.742849 86.810614 
L 304.048256 86.810614 
L 304.048256 82.978218 
L 307.106815 82.978218 
L 307.106815 79.145822 
L 309.456546 79.145822 
L 309.456546 75.313426 
L 309.740025 75.313426 
L 309.740025 71.48103 
L 322.237555 71.48103 
L 322.237555 67.648634 
L 326.708498 67.648634 
L 326.708498 63.816238 
L 329.646604 63.816238 
L 329.646604 59.983842 
L 338.130758 59.983842 
L 338.130758 56.151446 
L 338.467674 56.151446 
L 338.508272 48.486653 
L 339.293213 48.486653 
L 339.293213 44.654257 
L 342.636996 44.654257 
L 342.636996 40.821861 
L 343.373132 40.821861 
L 343.373132 36.989465 
L 345.01934 36.989465 
L 345.01934 33.157069 
L 346.25353 33.157069 
L 346.25353 29.324673 
L 346.548563 29.324673 
L 346.548563 25.492277 
L 347.102412 25.492277 
L 347.102412 21.659881 
L 348.666633 21.659881 
L 348.666633 17.827485 
L 350.769119 17.827485 
L 350.769119 13.995089 
L 352.30333 13.995089 
L 352.30333 10.162693 
L 352.761302 10.162693 
L 352.761302 6.330297 
L 352.761302 6.330297 
L 460.8 6.330297 
L 460.8 6.330297 
" clip-path="url(#pb5bbc37549)" style="fill: none; stroke: #ff0000; stroke-width: 3; stroke-linecap: square"/>
   </g>
   <g id="line2d_22">
    <path d="M 245.289997 293.76 
L 245.289997 289.927604 
L 249.027149 289.927604 
L 249.027149 286.095208 
L 249.828775 286.095208 
L 249.828775 282.262812 
L 250.087374 282.262812 
L 250.087374 278.430416 
L 253.380575 278.430416 
L 253.380575 274.59802 
L 253.558792 274.59802 
L 253.558792 270.765624 
L 253.723799 270.765624 
L 253.771022 263.100832 
L 256.435557 263.100832 
L 256.435557 259.268436 
L 257.45863 259.268436 
L 257.562389 251.603644 
L 257.840601 251.603644 
L 257.840601 247.771248 
L 259.457086 247.771248 
L 259.457086 243.938851 
L 262.910352 243.938851 
L 262.910352 240.106455 
L 263.215429 240.106455 
L 263.215429 236.274059 
L 265.745843 236.274059 
L 265.745843 232.441663 
L 292.69215 232.441663 
L 292.69215 228.609267 
L 294.244907 228.609267 
L 294.244907 224.776871 
L 294.877176 224.776871 
L 294.877176 220.944475 
L 295.184834 220.944475 
L 295.184834 217.112079 
L 295.30324 217.112079 
L 295.30324 213.279683 
L 295.47873 213.279683 
L 295.47873 209.447287 
L 295.703607 209.447287 
L 295.703607 205.614891 
L 295.981372 205.614891 
L 295.981372 201.782495 
L 296.342063 201.782495 
L 296.342063 197.950099 
L 296.562366 197.950099 
L 296.598925 190.285307 
L 297.345506 190.285307 
L 297.345506 186.452911 
L 297.546581 186.452911 
L 297.546581 182.620515 
L 297.910535 182.620515 
L 298.00825 174.955723 
L 312.926166 174.955723 
L 312.926166 171.123327 
L 346.127323 171.123327 
L 346.127323 167.290931 
L 351.27495 167.290931 
L 351.27495 163.458535 
L 358.266875 163.458535 
L 358.266875 159.626139 
L 367.942923 159.626139 
L 367.942923 155.793743 
L 373.718305 155.793743 
L 373.718305 151.961347 
L 374.238462 151.961347 
L 374.238462 148.12895 
L 375.633286 148.12895 
L 375.633286 144.296554 
L 376.424469 144.296554 
L 376.424469 140.464158 
L 377.006046 140.464158 
L 377.006046 136.631762 
L 378.392807 136.631762 
L 378.392807 132.799366 
L 378.994488 132.799366 
L 378.994488 128.96697 
L 380.004768 128.96697 
L 380.004768 125.134574 
L 380.389419 125.134574 
L 380.389419 121.302178 
L 384.440321 121.302178 
L 384.440321 117.469782 
L 387.458165 117.469782 
L 387.500922 109.80499 
L 388.760974 109.80499 
L 388.84875 102.140198 
L 388.949671 102.140198 
L 388.949671 98.307802 
L 389.173582 98.307802 
L 389.173582 94.475406 
L 391.545326 94.475406 
L 391.545326 90.64301 
L 391.803263 90.64301 
L 391.803263 86.810614 
L 393.404433 86.810614 
L 393.404433 82.978218 
L 395.400878 82.978218 
L 395.400878 79.145822 
L 396.565681 79.145822 
L 396.565681 75.313426 
L 400.224183 75.313426 
L 400.224183 71.48103 
L 400.499509 71.48103 
L 400.499509 67.648634 
L 405.01321 67.648634 
L 405.01321 63.816238 
L 414.093435 63.816238 
L 414.093435 59.983842 
L 417.337401 59.983842 
L 417.433197 52.31905 
L 422.064218 52.31905 
L 422.064218 48.486653 
L 423.291677 48.486653 
L 423.291677 44.654257 
L 424.092088 44.654257 
L 424.092088 40.821861 
L 426.396336 40.821861 
L 426.396336 36.989465 
L 427.455773 36.989465 
L 427.455773 33.157069 
L 429.56218 33.157069 
L 429.56218 29.324673 
L 430.473256 29.324673 
L 430.473256 25.492277 
L 432.480298 25.492277 
L 432.480298 21.659881 
L 433.073698 21.659881 
L 433.073698 17.827485 
L 434.746188 17.827485 
L 434.746188 13.995089 
L 438.776591 13.995089 
L 438.851758 6.330297 
L 438.851758 6.330297 
L 460.8 6.330297 
L 460.8 6.330297 
" clip-path="url(#pb5bbc37549)" style="fill: none; stroke: #00bfbf; stroke-width: 1.5; stroke-linecap: square"/>
   </g>
   <g id="line2d_23">
    <path d="M 245.182266 293.76 
L 245.182266 289.927604 
L 248.964252 289.927604 
L 248.964252 286.095208 
L 249.777218 286.095208 
L 249.777218 282.262812 
L 250.033027 282.262812 
L 250.033027 278.430416 
L 253.380575 278.430416 
L 253.380575 274.59802 
L 253.558792 274.59802 
L 253.558792 270.765624 
L 253.710871 270.765624 
L 253.723799 263.100832 
L 256.36865 263.100832 
L 256.36865 259.268436 
L 257.45863 259.268436 
L 257.562389 251.603644 
L 257.66387 251.603644 
L 257.66387 247.771248 
L 259.457086 247.771248 
L 259.457086 243.938851 
L 262.845194 243.938851 
L 262.894746 236.274059 
L 265.745843 236.274059 
L 265.745843 232.441663 
L 292.69215 232.441663 
L 292.69215 228.609267 
L 294.230389 228.609267 
L 294.230389 224.776871 
L 294.870646 224.776871 
L 294.870646 220.944475 
L 295.154196 220.944475 
L 295.154196 217.112079 
L 295.30324 217.112079 
L 295.30324 213.279683 
L 295.47873 213.279683 
L 295.47873 209.447287 
L 295.703607 209.447287 
L 295.703607 205.614891 
L 295.967417 205.614891 
L 295.967417 201.782495 
L 296.339715 201.782495 
L 296.339715 197.950099 
L 296.561046 197.950099 
L 296.598925 190.285307 
L 297.341685 190.285307 
L 297.341685 186.452911 
L 297.546581 186.452911 
L 297.546581 182.620515 
L 297.90173 182.620515 
L 298.00825 174.955723 
L 312.341582 174.955723 
L 312.341582 171.123327 
L 346.03857 171.123327 
L 346.03857 167.290931 
L 350.29091 167.290931 
L 350.29091 163.458535 
L 357.084626 163.458535 
L 357.084626 159.626139 
L 367.789945 159.626139 
L 367.789945 155.793743 
L 373.558394 155.793743 
L 373.558394 151.961347 
L 374.238462 151.961347 
L 374.238462 148.12895 
L 375.497936 148.12895 
L 375.497936 144.296554 
L 376.424469 144.296554 
L 376.424469 140.464158 
L 376.877367 140.464158 
L 376.877367 136.631762 
L 378.388142 136.631762 
L 378.388142 132.799366 
L 378.684501 132.799366 
L 378.684501 128.96697 
L 379.908381 128.96697 
L 379.908381 125.134574 
L 380.389419 125.134574 
L 380.389419 121.302178 
L 384.338315 121.302178 
L 384.338315 117.469782 
L 387.287012 117.469782 
L 387.287012 113.637386 
L 387.455135 113.637386 
L 387.455135 109.80499 
L 388.752593 109.80499 
L 388.84875 102.140198 
L 388.949671 102.140198 
L 388.949671 98.307802 
L 389.173582 98.307802 
L 389.173582 94.475406 
L 391.517481 94.475406 
L 391.517481 90.64301 
L 391.725905 90.64301 
L 391.725905 86.810614 
L 393.404433 86.810614 
L 393.404433 82.978218 
L 395.400878 82.978218 
L 395.400878 79.145822 
L 396.498248 79.145822 
L 396.498248 75.313426 
L 400.220975 75.313426 
L 400.220975 71.48103 
L 400.499509 71.48103 
L 400.499509 67.648634 
L 405.01321 67.648634 
L 405.01321 63.816238 
L 414.093435 63.816238 
L 414.093435 59.983842 
L 417.337401 59.983842 
L 417.433197 52.31905 
L 422.064218 52.31905 
L 422.064218 48.486653 
L 423.279197 48.486653 
L 423.279197 44.654257 
L 423.965846 44.654257 
L 423.965846 40.821861 
L 426.383834 40.821861 
L 426.383834 36.989465 
L 427.455773 36.989465 
L 427.455773 33.157069 
L 429.56218 33.157069 
L 429.56218 29.324673 
L 430.266986 29.324673 
L 430.266986 25.492277 
L 432.480298 25.492277 
L 432.480298 21.659881 
L 433.073698 21.659881 
L 433.073698 17.827485 
L 434.746188 17.827485 
L 434.746188 13.995089 
L 438.723243 13.995089 
L 438.723243 10.162693 
L 438.851758 10.162693 
L 438.851758 6.330297 
L 438.851758 6.330297 
L 460.8 6.330297 
L 460.8 6.330297 
" clip-path="url(#pb5bbc37549)" style="fill: none; stroke: #bf00bf; stroke-width: 1.5; stroke-linecap: square"/>
   </g>
   <g id="line2d_24">
    <path d="M 229.013366 293.76 
L 229.013366 289.927604 
L 232.691749 289.927604 
L 232.691749 286.095208 
L 234.1413 286.095208 
L 234.1413 282.262812 
L 236.304104 282.262812 
L 236.304104 278.430416 
L 239.634789 278.430416 
L 239.634789 274.59802 
L 239.864183 274.59802 
L 239.864183 270.765624 
L 243.565177 270.765624 
L 243.565177 266.933228 
L 244.642193 266.933228 
L 244.642193 263.100832 
L 248.964252 263.100832 
L 248.964252 259.268436 
L 249.777218 259.268436 
L 249.777218 255.43604 
L 250.033027 255.43604 
L 250.033027 251.603644 
L 253.380575 251.603644 
L 253.380575 247.771248 
L 253.558792 247.771248 
L 253.558792 243.938851 
L 253.723799 243.938851 
L 253.723799 240.106455 
L 260.266907 240.106455 
L 260.266907 236.274059 
L 265.151913 236.274059 
L 265.151913 232.441663 
L 273.317757 232.441663 
L 273.317757 228.609267 
L 275.899495 228.609267 
L 275.899495 224.776871 
L 279.031529 224.776871 
L 279.031529 220.944475 
L 279.215116 220.944475 
L 279.215116 217.112079 
L 279.551032 217.112079 
L 279.557825 209.447287 
L 280.138381 209.447287 
L 280.148494 201.782495 
L 281.130917 201.782495 
L 281.130917 197.950099 
L 281.301502 197.950099 
L 281.301502 194.117703 
L 281.666727 194.117703 
L 281.666727 190.285307 
L 282.018567 190.285307 
L 282.018567 186.452911 
L 282.287961 186.452911 
L 282.287961 182.620515 
L 283.244346 182.620515 
L 283.244346 178.788119 
L 283.67208 178.788119 
L 283.67208 174.955723 
L 287.760491 174.955723 
L 287.760491 171.123327 
L 288.164056 171.123327 
L 288.164056 167.290931 
L 300.643878 167.290931 
L 300.643878 163.458535 
L 301.992501 163.458535 
L 301.992501 159.626139 
L 302.133903 159.626139 
L 302.133903 155.793743 
L 303.135001 155.793743 
L 303.135001 151.961347 
L 304.108133 151.961347 
L 304.108133 148.12895 
L 325.752173 148.12895 
L 325.752173 144.296554 
L 328.986318 144.296554 
L 328.986318 140.464158 
L 342.097653 140.464158 
L 342.097653 136.631762 
L 354.24708 136.631762 
L 354.24708 132.799366 
L 356.229294 132.799366 
L 356.229294 128.96697 
L 356.74326 128.96697 
L 356.74326 125.134574 
L 356.879038 125.134574 
L 356.879038 121.302178 
L 357.050915 121.302178 
L 357.050915 117.469782 
L 358.151191 117.469782 
L 358.151191 113.637386 
L 358.272555 113.637386 
L 358.272555 109.80499 
L 361.863921 109.80499 
L 361.863921 105.972594 
L 362.017817 105.972594 
L 362.017817 102.140198 
L 362.194227 102.140198 
L 362.194227 98.307802 
L 363.39003 98.307802 
L 363.394465 90.64301 
L 364.106575 90.64301 
L 364.106575 86.810614 
L 364.38334 86.810614 
L 364.38334 82.978218 
L 367.371459 82.978218 
L 367.371459 79.145822 
L 368.89761 79.145822 
L 368.89761 75.313426 
L 372.403527 75.313426 
L 372.403527 71.48103 
L 373.895542 71.48103 
L 373.895542 67.648634 
L 375.436312 67.648634 
L 375.436312 63.816238 
L 375.841444 63.816238 
L 375.841444 59.983842 
L 379.894804 59.983842 
L 379.894804 56.151446 
L 386.347834 56.151446 
L 386.347834 52.31905 
L 397.808149 52.31905 
L 397.808149 48.486653 
L 399.703083 48.486653 
L 399.703083 44.654257 
L 400.848331 44.654257 
L 400.848331 40.821861 
L 402.386753 40.821861 
L 402.386753 36.989465 
L 406.361638 36.989465 
L 406.361638 33.157069 
L 410.030632 33.157069 
L 410.030632 29.324673 
L 410.765316 29.324673 
L 410.765316 25.492277 
L 412.074572 25.492277 
L 412.074572 21.659881 
L 412.196684 21.659881 
L 412.196684 17.827485 
L 412.428214 17.827485 
L 412.428214 13.995089 
L 414.755639 13.995089 
L 414.755639 10.162693 
L 418.099554 10.162693 
L 418.099554 6.330297 
L 418.099554 6.330297 
L 460.8 6.330297 
L 460.8 6.330297 
" clip-path="url(#pb5bbc37549)" style="fill: none; stroke: #000000; stroke-width: 1.5; stroke-linecap: square"/>
   </g>
   <g id="line2d_25">
    <path d="M 173.332152 293.76 
L 173.332152 289.927604 
L 175.147076 289.927604 
L 175.147076 286.095208 
L 180.03761 286.095208 
L 180.03761 282.262812 
L 181.148332 282.262812 
L 181.148332 278.430416 
L 182.945755 278.430416 
L 182.945755 274.59802 
L 184.048633 274.59802 
L 184.048633 270.765624 
L 238.813841 270.765624 
L 238.813841 266.933228 
L 244.119836 266.933228 
L 244.119836 263.100832 
L 248.15551 263.100832 
L 248.15551 259.268436 
L 248.522349 259.268436 
L 248.522349 255.43604 
L 248.964252 255.43604 
L 248.964252 251.603644 
L 249.103098 251.603644 
L 249.103098 247.771248 
L 249.685117 247.771248 
L 249.777218 240.106455 
L 250.033027 240.106455 
L 250.033027 236.274059 
L 250.676265 236.274059 
L 250.676265 232.441663 
L 250.804559 232.441663 
L 250.804559 228.609267 
L 251.456271 228.609267 
L 251.456271 224.776871 
L 252.350984 224.776871 
L 252.350984 220.944475 
L 252.82303 220.944475 
L 252.880476 213.279683 
L 253.558792 213.279683 
L 253.568392 205.614891 
L 253.723799 205.614891 
L 253.723799 201.782495 
L 254.09429 201.782495 
L 254.156782 194.117703 
L 259.446337 194.117703 
L 259.446337 190.285307 
L 260.237611 190.285307 
L 260.237611 186.452911 
L 260.863602 186.452911 
L 260.863602 182.620515 
L 261.3803 182.620515 
L 261.3803 178.788119 
L 262.187428 178.788119 
L 262.187428 174.955723 
L 263.179607 174.955723 
L 263.272434 167.290931 
L 263.92986 167.290931 
L 263.92986 163.458535 
L 264.513249 163.458535 
L 264.513249 159.626139 
L 265.025125 159.626139 
L 265.025125 155.793743 
L 265.15088 155.793743 
L 265.15088 151.961347 
L 268.319909 151.961347 
L 268.319909 148.12895 
L 268.874438 148.12895 
L 268.874438 144.296554 
L 273.290377 144.296554 
L 273.290377 140.464158 
L 279.665364 140.464158 
L 279.665364 136.631762 
L 281.687041 136.631762 
L 281.687041 132.799366 
L 284.707036 132.799366 
L 284.707036 128.96697 
L 287.364935 128.96697 
L 287.364935 125.134574 
L 287.76046 125.134574 
L 287.760462 113.637386 
L 288.721932 113.637386 
L 288.721932 109.80499 
L 291.884567 109.80499 
L 291.884567 105.972594 
L 296.343183 105.972594 
L 296.343183 102.140198 
L 300.354436 102.140198 
L 300.354436 98.307802 
L 301.777653 98.307802 
L 301.777653 94.475406 
L 303.102068 94.475406 
L 303.102068 90.64301 
L 303.449892 90.64301 
L 303.449892 86.810614 
L 304.048256 86.810614 
L 304.048256 82.978218 
L 307.636169 82.978218 
L 307.636169 79.145822 
L 310.326501 79.145822 
L 310.326501 75.313426 
L 310.512306 75.313426 
L 310.512306 71.48103 
L 322.735881 71.48103 
L 322.735881 67.648634 
L 327.297537 67.648634 
L 327.297537 63.816238 
L 329.694162 63.816238 
L 329.694162 59.983842 
L 338.130758 59.983842 
L 338.130758 56.151446 
L 338.508272 56.151446 
L 338.518875 48.486653 
L 339.293213 48.486653 
L 339.293213 44.654257 
L 342.637469 44.654257 
L 342.637469 40.821861 
L 344.061637 40.821861 
L 344.061637 36.989465 
L 345.082625 36.989465 
L 345.082625 33.157069 
L 346.254022 33.157069 
L 346.254022 29.324673 
L 346.577737 29.324673 
L 346.577737 25.492277 
L 347.138296 25.492277 
L 347.138296 21.659881 
L 348.763918 21.659881 
L 348.763918 17.827485 
L 350.893573 17.827485 
L 350.893573 13.995089 
L 352.371314 13.995089 
L 352.371314 10.162693 
L 352.761302 10.162693 
L 352.761302 6.330297 
L 352.761302 6.330297 
L 460.8 6.330297 
L 460.8 6.330297 
" clip-path="url(#pb5bbc37549)" style="fill: none; stroke: #00bfbf; stroke-width: 1.5; stroke-linecap: square"/>
   </g>
   <g id="patch_3">
    <path d="M 0 293.76 
L 0 3.456 
" style="fill: none; stroke: #000000; stroke-width: 0.8; stroke-linejoin: miter; stroke-linecap: square"/>
   </g>
   <g id="patch_4">
    <path d="M 460.8 293.76 
L 460.8 3.456 
" style="fill: none; stroke: #000000; stroke-width: 0.8; stroke-linejoin: miter; stroke-linecap: square"/>
   </g>
   <g id="patch_5">
    <path d="M 0 293.76 
L 460.8 293.76 
" style="fill: none; stroke: #000000; stroke-width: 0.8; stroke-linejoin: miter; stroke-linecap: square"/>
   </g>
   <g id="patch_6">
    <path d="M 0 3.456 
L 460.8 3.456 
" style="fill: none; stroke: #000000; stroke-width: 0.8; stroke-linejoin: miter; stroke-linecap: square"/>
   </g>
   <g id="text_6">
    <!-- {f10-f14}, 20-D -->
    <g transform="translate(293.159 287.95392) scale(0.2 -0.2)">
     <defs>
      <path id="DejaVuSans-7b" d="M 3272 -594 
L 3272 -1044 
L 3078 -1044 
Q 2300 -1044 2036 -812 
Q 1772 -581 1772 109 
L 1772 856 
Q 1772 1328 1603 1509 
Q 1434 1691 991 1691 
L 800 1691 
L 800 2138 
L 991 2138 
Q 1438 2138 1605 2317 
Q 1772 2497 1772 2963 
L 1772 3713 
Q 1772 4403 2036 4633 
Q 2300 4863 3078 4863 
L 3272 4863 
L 3272 4416 
L 3059 4416 
Q 2619 4416 2484 4278 
Q 2350 4141 2350 3700 
L 2350 2925 
Q 2350 2434 2208 2212 
Q 2066 1991 1722 1913 
Q 2069 1828 2209 1606 
Q 2350 1384 2350 897 
L 2350 122 
Q 2350 -319 2484 -456 
Q 2619 -594 3059 -594 
L 3272 -594 
z
" transform="scale(0.015625)"/>
      <path id="DejaVuSans-7d" d="M 800 -594 
L 1019 -594 
Q 1456 -594 1589 -459 
Q 1722 -325 1722 122 
L 1722 897 
Q 1722 1384 1862 1606 
Q 2003 1828 2350 1913 
Q 2003 1991 1862 2212 
Q 1722 2434 1722 2925 
L 1722 3700 
Q 1722 4144 1589 4280 
Q 1456 4416 1019 4416 
L 800 4416 
L 800 4863 
L 997 4863 
Q 1775 4863 2036 4633 
Q 2297 4403 2297 3713 
L 2297 2963 
Q 2297 2497 2465 2317 
Q 2634 2138 3078 2138 
L 3272 2138 
L 3272 1691 
L 3078 1691 
Q 2634 1691 2465 1509 
Q 2297 1328 2297 856 
L 2297 109 
Q 2297 -581 2036 -812 
Q 1775 -1044 997 -1044 
L 800 -1044 
L 800 -594 
z
" transform="scale(0.015625)"/>
      <path id="DejaVuSans-2c" d="M 750 794 
L 1409 794 
L 1409 256 
L 897 -744 
L 494 -744 
L 750 256 
L 750 794 
z
" transform="scale(0.015625)"/>
      <path id="DejaVuSans-32" d="M 1228 531 
L 3431 531 
L 3431 0 
L 469 0 
L 469 531 
Q 828 903 1448 1529 
Q 2069 2156 2228 2338 
Q 2531 2678 2651 2914 
Q 2772 3150 2772 3378 
Q 2772 3750 2511 3984 
Q 2250 4219 1831 4219 
Q 1534 4219 1204 4116 
Q 875 4013 500 3803 
L 500 4441 
Q 881 4594 1212 4672 
Q 1544 4750 1819 4750 
Q 2544 4750 2975 4387 
Q 3406 4025 3406 3419 
Q 3406 3131 3298 2873 
Q 3191 2616 2906 2266 
Q 2828 2175 2409 1742 
Q 1991 1309 1228 531 
z
" transform="scale(0.015625)"/>
     </defs>
     <use xlink:href="#DejaVuSans-7b"/>
     <use xlink:href="#DejaVuSans-66" x="63.623047"/>
     <use xlink:href="#DejaVuSans-31" x="98.828125"/>
     <use xlink:href="#DejaVuSans-30" x="162.451172"/>
     <use xlink:href="#DejaVuSans-2d" x="226.074219"/>
     <use xlink:href="#DejaVuSans-66" x="262.158203"/>
     <use xlink:href="#DejaVuSans-31" x="297.363281"/>
     <use xlink:href="#DejaVuSans-34" x="360.986328"/>
     <use xlink:href="#DejaVuSans-7d" x="424.609375"/>
     <use xlink:href="#DejaVuSans-2c" x="488.232422"/>
     <use xlink:href="#DejaVuSans-20" x="520.019531"/>
     <use xlink:href="#DejaVuSans-32" x="551.806641"/>
     <use xlink:href="#DejaVuSans-30" x="615.429688"/>
     <use xlink:href="#DejaVuSans-2d" x="679.052734"/>
     <use xlink:href="#DejaVuSans-44" x="715.136719"/>
    </g>
   </g>
   <g id="text_7">
    <!-- v2.6.3 -->
    <g style="fill: #808080" transform="translate(214.71875 288.777272) scale(0.1 -0.1)">
     <defs>
      <path id="DejaVuSans-76" d="M 191 3500 
L 800 3500 
L 1894 563 
L 2988 3500 
L 3597 3500 
L 2284 0 
L 1503 0 
L 191 3500 
z
" transform="scale(0.015625)"/>
      <path id="DejaVuSans-2e" d="M 684 794 
L 1344 794 
L 1344 0 
L 684 0 
L 684 794 
z
" transform="scale(0.015625)"/>
      <path id="DejaVuSans-36" d="M 2113 2584 
Q 1688 2584 1439 2293 
Q 1191 2003 1191 1497 
Q 1191 994 1439 701 
Q 1688 409 2113 409 
Q 2538 409 2786 701 
Q 3034 994 3034 1497 
Q 3034 2003 2786 2293 
Q 2538 2584 2113 2584 
z
M 3366 4563 
L 3366 3988 
Q 3128 4100 2886 4159 
Q 2644 4219 2406 4219 
Q 1781 4219 1451 3797 
Q 1122 3375 1075 2522 
Q 1259 2794 1537 2939 
Q 1816 3084 2150 3084 
Q 2853 3084 3261 2657 
Q 3669 2231 3669 1497 
Q 3669 778 3244 343 
Q 2819 -91 2113 -91 
Q 1303 -91 875 529 
Q 447 1150 447 2328 
Q 447 3434 972 4092 
Q 1497 4750 2381 4750 
Q 2619 4750 2861 4703 
Q 3103 4656 3366 4563 
z
" transform="scale(0.015625)"/>
      <path id="DejaVuSans-33" d="M 2597 2516 
Q 3050 2419 3304 2112 
Q 3559 1806 3559 1356 
Q 3559 666 3084 287 
Q 2609 -91 1734 -91 
Q 1441 -91 1130 -33 
Q 819 25 488 141 
L 488 750 
Q 750 597 1062 519 
Q 1375 441 1716 441 
Q 2309 441 2620 675 
Q 2931 909 2931 1356 
Q 2931 1769 2642 2001 
Q 2353 2234 1838 2234 
L 1294 2234 
L 1294 2753 
L 1863 2753 
Q 2328 2753 2575 2939 
Q 2822 3125 2822 3475 
Q 2822 3834 2567 4026 
Q 2313 4219 1838 4219 
Q 1578 4219 1281 4162 
Q 984 4106 628 3988 
L 628 4550 
Q 988 4650 1302 4700 
Q 1616 4750 1894 4750 
Q 2613 4750 3031 4423 
Q 3450 4097 3450 3541 
Q 3450 3153 3228 2886 
Q 3006 2619 2597 2516 
z
" transform="scale(0.015625)"/>
     </defs>
     <use xlink:href="#DejaVuSans-76"/>
     <use xlink:href="#DejaVuSans-32" x="59.179688"/>
     <use xlink:href="#DejaVuSans-2e" x="122.802734"/>
     <use xlink:href="#DejaVuSans-36" x="154.589844"/>
     <use xlink:href="#DejaVuSans-2e" x="218.212891"/>
     <use xlink:href="#DejaVuSans-33" x="250"/>
    </g>
   </g>
  </g>
 </g>
 <defs>
  <clipPath id="pb5bbc37549">
   <rect x="0" y="3.456" width="460.8" height="290.304"/>
  </clipPath>
 </defs>
</svg>
