<?xml version="1.0" encoding="utf-8" standalone="no"?>
<!DOCTYPE svg PUBLIC "-//W3C//DTD SVG 1.1//EN"
  "http://www.w3.org/Graphics/SVG/1.1/DTD/svg11.dtd">
<svg xmlns:xlink="http://www.w3.org/1999/xlink" width="460.8pt" height="345.6pt" viewBox="0 0 460.8 345.6" xmlns="http://www.w3.org/2000/svg" version="1.1">
 <metadata>
  <rdf:RDF xmlns:dc="http://purl.org/dc/elements/1.1/" xmlns:cc="http://creativecommons.org/ns#" xmlns:rdf="http://www.w3.org/1999/02/22-rdf-syntax-ns#">
   <cc:Work>
    <dc:type rdf:resource="http://purl.org/dc/dcmitype/StillImage"/>
    <dc:date>2024-01-17T15:57:03.835234</dc:date>
    <dc:format>image/svg+xml</dc:format>
    <dc:creator>
     <cc:Agent>
      <dc:title>Matplotlib v3.8.2, https://matplotlib.org/</dc:title>
     </cc:Agent>
    </dc:creator>
   </cc:Work>
  </rdf:RDF>
 </metadata>
 <defs>
  <style type="text/css">*{stroke-linejoin: round; stroke-linecap: butt}</style>
 </defs>
 <g id="figure_1">
  <g id="patch_1">
   <path d="M 0 345.6 
L 460.8 345.6 
L 460.8 0 
L 0 0 
z
" style="fill: #ffffff"/>
  </g>
  <g id="axes_1">
   <g id="patch_2">
    <path d="M 0 293.76 
L 460.8 293.76 
L 460.8 3.456 
L 0 3.456 
z
" style="fill: #ffffff"/>
   </g>
   <g id="matplotlib.axis_1">
    <g id="xtick_1">
     <g id="line2d_1">
      <path d="M 104.376121 293.76 
L 104.376121 3.456 
" clip-path="url(#p8ce281a3a9)" style="fill: none; stroke: #b0b0b0; stroke-width: 0.8; stroke-linecap: square"/>
     </g>
     <g id="line2d_2">
      <defs>
       <path id="m8f0b2fc614" d="M 0 0 
L 0 3.5 
" style="stroke: #000000; stroke-width: 0.8"/>
      </defs>
      <g>
       <use xlink:href="#m8f0b2fc614" x="104.376121" y="293.76" style="stroke: #000000; stroke-width: 0.8"/>
      </g>
     </g>
     <g id="text_1">
      <!-- -4 -->
      <g transform="translate(94.405809 315.956875) scale(0.2 -0.2)">
       <defs>
        <path id="DejaVuSans-2d" d="M 313 2009 
L 1997 2009 
L 1997 1497 
L 313 1497 
L 313 2009 
z
" transform="scale(0.015625)"/>
        <path id="DejaVuSans-34" d="M 2419 4116 
L 825 1625 
L 2419 1625 
L 2419 4116 
z
M 2253 4666 
L 3047 4666 
L 3047 1625 
L 3713 1625 
L 3713 1100 
L 3047 1100 
L 3047 0 
L 2419 0 
L 2419 1100 
L 313 1100 
L 313 1709 
L 2253 4666 
z
" transform="scale(0.015625)"/>
       </defs>
       <use xlink:href="#DejaVuSans-2d"/>
       <use xlink:href="#DejaVuSans-34" x="36.083984"/>
      </g>
     </g>
    </g>
    <g id="xtick_2">
     <g id="line2d_3">
      <path d="M 208.865126 293.76 
L 208.865126 3.456 
" clip-path="url(#p8ce281a3a9)" style="fill: none; stroke: #b0b0b0; stroke-width: 0.8; stroke-linecap: square"/>
     </g>
     <g id="line2d_4">
      <g>
       <use xlink:href="#m8f0b2fc614" x="208.865126" y="293.76" style="stroke: #000000; stroke-width: 0.8"/>
      </g>
     </g>
     <g id="text_2">
      <!-- 0 -->
      <g transform="translate(202.502626 315.956875) scale(0.2 -0.2)">
       <defs>
        <path id="DejaVuSans-30" d="M 2034 4250 
Q 1547 4250 1301 3770 
Q 1056 3291 1056 2328 
Q 1056 1369 1301 889 
Q 1547 409 2034 409 
Q 2525 409 2770 889 
Q 3016 1369 3016 2328 
Q 3016 3291 2770 3770 
Q 2525 4250 2034 4250 
z
M 2034 4750 
Q 2819 4750 3233 4129 
Q 3647 3509 3647 2328 
Q 3647 1150 3233 529 
Q 2819 -91 2034 -91 
Q 1250 -91 836 529 
Q 422 1150 422 2328 
Q 422 3509 836 4129 
Q 1250 4750 2034 4750 
z
" transform="scale(0.015625)"/>
       </defs>
       <use xlink:href="#DejaVuSans-30"/>
      </g>
     </g>
    </g>
    <g id="xtick_3">
     <g id="line2d_5">
      <path d="M 313.354131 293.76 
L 313.354131 3.456 
" clip-path="url(#p8ce281a3a9)" style="fill: none; stroke: #b0b0b0; stroke-width: 0.8; stroke-linecap: square"/>
     </g>
     <g id="line2d_6">
      <g>
       <use xlink:href="#m8f0b2fc614" x="313.354131" y="293.76" style="stroke: #000000; stroke-width: 0.8"/>
      </g>
     </g>
     <g id="text_3">
      <!-- 4 -->
      <g transform="translate(306.991631 315.956875) scale(0.2 -0.2)">
       <use xlink:href="#DejaVuSans-34"/>
      </g>
     </g>
    </g>
    <g id="xtick_4">
     <g id="line2d_7">
      <path d="M 417.843137 293.76 
L 417.843137 3.456 
" clip-path="url(#p8ce281a3a9)" style="fill: none; stroke: #b0b0b0; stroke-width: 0.8; stroke-linecap: square"/>
     </g>
     <g id="line2d_8">
      <g>
       <use xlink:href="#m8f0b2fc614" x="417.843137" y="293.76" style="stroke: #000000; stroke-width: 0.8"/>
      </g>
     </g>
     <g id="text_4">
      <!-- 8 -->
      <g transform="translate(411.480637 315.956875) scale(0.2 -0.2)">
       <defs>
        <path id="DejaVuSans-38" d="M 2034 2216 
Q 1584 2216 1326 1975 
Q 1069 1734 1069 1313 
Q 1069 891 1326 650 
Q 1584 409 2034 409 
Q 2484 409 2743 651 
Q 3003 894 3003 1313 
Q 3003 1734 2745 1975 
Q 2488 2216 2034 2216 
z
M 1403 2484 
Q 997 2584 770 2862 
Q 544 3141 544 3541 
Q 544 4100 942 4425 
Q 1341 4750 2034 4750 
Q 2731 4750 3128 4425 
Q 3525 4100 3525 3541 
Q 3525 3141 3298 2862 
Q 3072 2584 2669 2484 
Q 3125 2378 3379 2068 
Q 3634 1759 3634 1313 
Q 3634 634 3220 271 
Q 2806 -91 2034 -91 
Q 1263 -91 848 271 
Q 434 634 434 1313 
Q 434 1759 690 2068 
Q 947 2378 1403 2484 
z
M 1172 3481 
Q 1172 3119 1398 2916 
Q 1625 2713 2034 2713 
Q 2441 2713 2670 2916 
Q 2900 3119 2900 3481 
Q 2900 3844 2670 4047 
Q 2441 4250 2034 4250 
Q 1625 4250 1398 4047 
Q 1172 3844 1172 3481 
z
" transform="scale(0.015625)"/>
       </defs>
       <use xlink:href="#DejaVuSans-38"/>
      </g>
     </g>
    </g>
    <g id="text_5">
     <!-- log10 of Df -->
     <g transform="translate(175.214063 339.313125) scale(0.2 -0.2)">
      <defs>
       <path id="DejaVuSans-6c" d="M 603 4863 
L 1178 4863 
L 1178 0 
L 603 0 
L 603 4863 
z
" transform="scale(0.015625)"/>
       <path id="DejaVuSans-6f" d="M 1959 3097 
Q 1497 3097 1228 2736 
Q 959 2375 959 1747 
Q 959 1119 1226 758 
Q 1494 397 1959 397 
Q 2419 397 2687 759 
Q 2956 1122 2956 1747 
Q 2956 2369 2687 2733 
Q 2419 3097 1959 3097 
z
M 1959 3584 
Q 2709 3584 3137 3096 
Q 3566 2609 3566 1747 
Q 3566 888 3137 398 
Q 2709 -91 1959 -91 
Q 1206 -91 779 398 
Q 353 888 353 1747 
Q 353 2609 779 3096 
Q 1206 3584 1959 3584 
z
" transform="scale(0.015625)"/>
       <path id="DejaVuSans-67" d="M 2906 1791 
Q 2906 2416 2648 2759 
Q 2391 3103 1925 3103 
Q 1463 3103 1205 2759 
Q 947 2416 947 1791 
Q 947 1169 1205 825 
Q 1463 481 1925 481 
Q 2391 481 2648 825 
Q 2906 1169 2906 1791 
z
M 3481 434 
Q 3481 -459 3084 -895 
Q 2688 -1331 1869 -1331 
Q 1566 -1331 1297 -1286 
Q 1028 -1241 775 -1147 
L 775 -588 
Q 1028 -725 1275 -790 
Q 1522 -856 1778 -856 
Q 2344 -856 2625 -561 
Q 2906 -266 2906 331 
L 2906 616 
Q 2728 306 2450 153 
Q 2172 0 1784 0 
Q 1141 0 747 490 
Q 353 981 353 1791 
Q 353 2603 747 3093 
Q 1141 3584 1784 3584 
Q 2172 3584 2450 3431 
Q 2728 3278 2906 2969 
L 2906 3500 
L 3481 3500 
L 3481 434 
z
" transform="scale(0.015625)"/>
       <path id="DejaVuSans-31" d="M 794 531 
L 1825 531 
L 1825 4091 
L 703 3866 
L 703 4441 
L 1819 4666 
L 2450 4666 
L 2450 531 
L 3481 531 
L 3481 0 
L 794 0 
L 794 531 
z
" transform="scale(0.015625)"/>
       <path id="DejaVuSans-20" transform="scale(0.015625)"/>
       <path id="DejaVuSans-66" d="M 2375 4863 
L 2375 4384 
L 1825 4384 
Q 1516 4384 1395 4259 
Q 1275 4134 1275 3809 
L 1275 3500 
L 2222 3500 
L 2222 3053 
L 1275 3053 
L 1275 0 
L 697 0 
L 697 3053 
L 147 3053 
L 147 3500 
L 697 3500 
L 697 3744 
Q 697 4328 969 4595 
Q 1241 4863 1831 4863 
L 2375 4863 
z
" transform="scale(0.015625)"/>
       <path id="DejaVuSans-44" d="M 1259 4147 
L 1259 519 
L 2022 519 
Q 2988 519 3436 956 
Q 3884 1394 3884 2338 
Q 3884 3275 3436 3711 
Q 2988 4147 2022 4147 
L 1259 4147 
z
M 628 4666 
L 1925 4666 
Q 3281 4666 3915 4102 
Q 4550 3538 4550 2338 
Q 4550 1131 3912 565 
Q 3275 0 1925 0 
L 628 0 
L 628 4666 
z
" transform="scale(0.015625)"/>
      </defs>
      <use xlink:href="#DejaVuSans-6c"/>
      <use xlink:href="#DejaVuSans-6f" x="27.783203"/>
      <use xlink:href="#DejaVuSans-67" x="88.964844"/>
      <use xlink:href="#DejaVuSans-31" x="152.441406"/>
      <use xlink:href="#DejaVuSans-30" x="216.064453"/>
      <use xlink:href="#DejaVuSans-20" x="279.6875"/>
      <use xlink:href="#DejaVuSans-6f" x="311.474609"/>
      <use xlink:href="#DejaVuSans-66" x="372.65625"/>
      <use xlink:href="#DejaVuSans-20" x="407.861328"/>
      <use xlink:href="#DejaVuSans-44" x="439.648438"/>
      <use xlink:href="#DejaVuSans-66" x="516.650391"/>
     </g>
    </g>
   </g>
   <g id="matplotlib.axis_2">
    <g id="ytick_1">
     <g id="line2d_9">
      <path d="M 0 293.76 
L 460.8 293.76 
" clip-path="url(#p8ce281a3a9)" style="fill: none; stroke: #b0b0b0; stroke-width: 0.8; stroke-linecap: square"/>
     </g>
     <g id="line2d_10">
      <defs>
       <path id="m8f11bfb383" d="M 0 0 
L -3.5 0 
" style="stroke: #000000; stroke-width: 0.8"/>
      </defs>
      <g>
       <use xlink:href="#m8f11bfb383" x="0" y="293.76" style="stroke: #000000; stroke-width: 0.8"/>
      </g>
     </g>
    </g>
    <g id="ytick_2">
     <g id="line2d_11">
      <path d="M 0 236.274059 
L 460.8 236.274059 
" clip-path="url(#p8ce281a3a9)" style="fill: none; stroke: #b0b0b0; stroke-width: 0.8; stroke-linecap: square"/>
     </g>
     <g id="line2d_12">
      <g>
       <use xlink:href="#m8f11bfb383" x="0" y="236.274059" style="stroke: #000000; stroke-width: 0.8"/>
      </g>
     </g>
    </g>
    <g id="ytick_3">
     <g id="line2d_13">
      <path d="M 0 178.788119 
L 460.8 178.788119 
" clip-path="url(#p8ce281a3a9)" style="fill: none; stroke: #b0b0b0; stroke-width: 0.8; stroke-linecap: square"/>
     </g>
     <g id="line2d_14">
      <g>
       <use xlink:href="#m8f11bfb383" x="0" y="178.788119" style="stroke: #000000; stroke-width: 0.8"/>
      </g>
     </g>
    </g>
    <g id="ytick_4">
     <g id="line2d_15">
      <path d="M 0 121.302178 
L 460.8 121.302178 
" clip-path="url(#p8ce281a3a9)" style="fill: none; stroke: #b0b0b0; stroke-width: 0.8; stroke-linecap: square"/>
     </g>
     <g id="line2d_16">
      <g>
       <use xlink:href="#m8f11bfb383" x="0" y="121.302178" style="stroke: #000000; stroke-width: 0.8"/>
      </g>
     </g>
    </g>
    <g id="ytick_5">
     <g id="line2d_17">
      <path d="M 0 63.816238 
L 460.8 63.816238 
" clip-path="url(#p8ce281a3a9)" style="fill: none; stroke: #b0b0b0; stroke-width: 0.8; stroke-linecap: square"/>
     </g>
     <g id="line2d_18">
      <g>
       <use xlink:href="#m8f11bfb383" x="0" y="63.816238" style="stroke: #000000; stroke-width: 0.8"/>
      </g>
     </g>
    </g>
    <g id="ytick_6">
     <g id="line2d_19">
      <path d="M 0 6.330297 
L 460.8 6.330297 
" clip-path="url(#p8ce281a3a9)" style="fill: none; stroke: #b0b0b0; stroke-width: 0.8; stroke-linecap: square"/>
     </g>
     <g id="line2d_20">
      <g>
       <use xlink:href="#m8f11bfb383" x="0" y="6.330297" style="stroke: #000000; stroke-width: 0.8"/>
      </g>
     </g>
    </g>
   </g>
   <g id="line2d_21">
    <path d="M -0.112884 293.76 
L -0.112884 263.100832 
L 161.374061 263.100832 
L 161.374061 259.268436 
L 170.970427 259.268436 
L 170.970427 255.43604 
L 174.866252 255.43604 
L 174.866252 251.603644 
L 178.94532 251.603644 
L 178.94532 247.771248 
L 179.374069 247.771248 
L 179.374069 243.938851 
L 180.426589 243.938851 
L 180.426589 240.106455 
L 184.915431 240.106455 
L 184.915431 236.274059 
L 195.214336 236.274059 
L 195.214336 232.441663 
L 218.735859 232.441663 
L 218.735859 228.609267 
L 234.053759 228.609267 
L 234.053759 224.776871 
L 243.724063 224.776871 
L 243.724063 220.944475 
L 244.449198 220.944475 
L 244.449198 217.112079 
L 244.751509 217.112079 
L 244.751509 213.279683 
L 245.494416 213.279683 
L 245.494416 209.447287 
L 247.334451 209.447287 
L 247.334451 205.614891 
L 248.728197 205.614891 
L 248.728197 201.782495 
L 249.96723 201.782495 
L 249.96723 197.950099 
L 250.176208 197.950099 
L 250.176208 194.117703 
L 257.217732 194.117703 
L 257.217732 190.285307 
L 258.319949 190.285307 
L 258.383303 182.620515 
L 258.484552 182.620515 
L 258.484552 178.788119 
L 258.986302 178.788119 
L 259.012975 167.290931 
L 259.145131 167.290931 
L 259.145131 163.458535 
L 260.179887 163.458535 
L 260.179887 159.626139 
L 260.386015 159.626139 
L 260.386015 155.793743 
L 261.690732 155.793743 
L 261.690732 151.961347 
L 261.858083 151.961347 
L 261.867562 144.296554 
L 262.289517 144.296554 
L 262.289517 140.464158 
L 262.473925 140.464158 
L 262.473925 136.631762 
L 262.972698 136.631762 
L 262.972698 132.799366 
L 264.350822 132.799366 
L 264.422235 121.302178 
L 265.323805 121.302178 
L 265.393011 113.637386 
L 265.438527 113.637386 
L 265.478317 105.972594 
L 265.846039 105.972594 
L 265.846039 102.140198 
L 266.127423 102.140198 
L 266.127423 98.307802 
L 268.187163 98.307802 
L 268.187163 94.475406 
L 269.122784 94.475406 
L 269.122784 90.64301 
L 269.449585 90.64301 
L 269.449585 86.810614 
L 269.593563 86.810614 
L 269.593563 82.978218 
L 269.855468 82.978218 
L 269.922198 75.313426 
L 270.596591 75.313426 
L 270.596591 71.48103 
L 271.413917 71.48103 
L 271.413917 67.648634 
L 272.714653 67.648634 
L 272.714653 63.816238 
L 306.076655 63.816238 
L 306.076655 59.983842 
L 308.132058 59.983842 
L 308.132058 56.151446 
L 311.679606 56.151446 
L 311.679606 52.31905 
L 328.407023 52.31905 
L 328.407023 48.486653 
L 334.380957 48.486653 
L 334.380957 44.654257 
L 334.746842 44.654257 
L 334.746842 40.821861 
L 335.254996 40.821861 
L 335.254996 36.989465 
L 335.919267 36.989465 
L 335.919267 33.157069 
L 337.076447 33.157069 
L 337.076447 29.324673 
L 343.955054 29.324673 
L 343.955054 25.492277 
L 347.558302 25.492277 
L 347.558302 21.659881 
L 348.998016 21.659881 
L 348.998016 17.827485 
L 350.206487 17.827485 
L 350.206487 13.995089 
L 351.676459 13.995089 
L 351.676459 10.162693 
L 355.872114 10.162693 
L 355.872114 6.330297 
L 355.872114 6.330297 
L 460.8 6.330297 
L 460.8 6.330297 
" clip-path="url(#p8ce281a3a9)" style="fill: none; stroke: #ff0000; stroke-width: 3; stroke-linecap: square"/>
   </g>
   <g id="line2d_22">
    <path d="M 224.486745 293.76 
L 224.486745 289.927604 
L 237.809173 289.927604 
L 237.809173 286.095208 
L 241.621238 286.095208 
L 241.621238 282.262812 
L 244.170937 282.262812 
L 244.170937 278.430416 
L 245.61058 278.430416 
L 245.61058 274.59802 
L 246.668496 274.59802 
L 246.668496 270.765624 
L 247.334451 270.765624 
L 247.334451 266.933228 
L 247.819832 266.933228 
L 247.819832 263.100832 
L 248.685139 263.100832 
L 248.685139 259.268436 
L 248.815665 259.268436 
L 248.815665 255.43604 
L 248.945514 255.43604 
L 248.945514 251.603644 
L 249.439467 251.603644 
L 249.439467 247.771248 
L 250.185317 247.771248 
L 250.185317 243.938851 
L 250.525965 243.938851 
L 250.525965 240.106455 
L 254.119596 240.106455 
L 254.119596 236.274059 
L 259.503848 236.274059 
L 259.503848 232.441663 
L 259.689732 232.441663 
L 259.689732 228.609267 
L 260.312911 228.609267 
L 260.312911 224.776871 
L 261.490967 224.776871 
L 261.490967 220.944475 
L 261.963793 220.944475 
L 261.963793 163.458535 
L 263.005694 163.458535 
L 263.005694 159.626139 
L 263.386427 159.626139 
L 263.386427 155.793743 
L 263.828975 155.793743 
L 263.828975 151.961347 
L 264.12247 151.961347 
L 264.12247 148.12895 
L 265.930164 148.12895 
L 265.930164 144.296554 
L 266.321784 144.296554 
L 266.321784 140.464158 
L 266.631408 140.464158 
L 266.631408 136.631762 
L 267.329078 136.631762 
L 267.329078 132.799366 
L 268.1942 132.799366 
L 268.252535 125.134574 
L 268.308097 125.134574 
L 268.308097 121.302178 
L 268.503241 121.302178 
L 268.503241 117.469782 
L 269.084825 117.469782 
L 269.104941 109.80499 
L 270.801963 109.80499 
L 270.829032 102.140198 
L 271.167362 102.140198 
L 271.167362 98.307802 
L 271.308756 98.307802 
L 271.308756 94.475406 
L 271.515745 94.475406 
L 271.515745 90.64301 
L 271.827956 90.64301 
L 271.90486 75.313426 
L 272.378624 75.313426 
L 272.378624 71.48103 
L 273.133872 71.48103 
L 273.133872 67.648634 
L 277.662207 67.648634 
L 277.662207 63.816238 
L 317.006667 63.816238 
L 317.006667 59.983842 
L 340.350736 59.983842 
L 340.350736 56.151446 
L 345.610027 56.151446 
L 345.610027 52.31905 
L 354.294528 52.31905 
L 354.294528 48.486653 
L 362.928931 48.486653 
L 362.928931 44.654257 
L 364.746627 44.654257 
L 364.746627 40.821861 
L 379.683548 40.821861 
L 379.683548 36.989465 
L 379.948744 36.989465 
L 379.948744 33.157069 
L 380.363322 33.157069 
L 380.363322 29.324673 
L 385.387386 29.324673 
L 385.387386 25.492277 
L 388.011717 25.492277 
L 388.011717 21.659881 
L 390.438965 21.659881 
L 390.438965 17.827485 
L 390.81681 17.827485 
L 390.81681 13.995089 
L 392.074211 13.995089 
L 392.074211 10.162693 
L 393.271003 10.162693 
L 393.271003 6.330297 
L 393.271003 6.330297 
L 460.8 6.330297 
L 460.8 6.330297 
" clip-path="url(#p8ce281a3a9)" style="fill: none; stroke: #00bfbf; stroke-width: 1.5; stroke-linecap: square"/>
   </g>
   <g id="line2d_23">
    <path d="M 223.345452 293.76 
L 223.345452 289.927604 
L 237.472227 289.927604 
L 237.472227 286.095208 
L 241.435895 286.095208 
L 241.435895 282.262812 
L 243.911445 282.262812 
L 243.911445 278.430416 
L 245.311386 278.430416 
L 245.311386 274.59802 
L 246.535902 274.59802 
L 246.535902 270.765624 
L 247.334451 270.765624 
L 247.334451 266.933228 
L 247.555829 266.933228 
L 247.555829 263.100832 
L 248.414976 263.100832 
L 248.414976 259.268436 
L 248.692713 259.268436 
L 248.728197 251.603644 
L 249.234958 251.603644 
L 249.234958 247.771248 
L 250.176208 247.771248 
L 250.176208 243.938851 
L 250.305387 243.938851 
L 250.305387 240.106455 
L 253.956432 240.106455 
L 253.956432 236.274059 
L 258.383303 236.274059 
L 258.484552 228.609267 
L 258.993056 228.609267 
L 258.993056 224.776871 
L 260.386015 224.776871 
L 260.386015 220.944475 
L 261.904469 220.944475 
L 261.963793 163.458535 
L 262.278877 163.458535 
L 262.278877 159.626139 
L 262.473925 159.626139 
L 262.473925 155.793743 
L 263.087771 155.793743 
L 263.087771 151.961347 
L 263.644737 151.961347 
L 263.644737 148.12895 
L 265.066821 148.12895 
L 265.066821 144.296554 
L 266.002135 144.296554 
L 266.002135 140.464158 
L 266.172031 140.464158 
L 266.172031 136.631762 
L 266.650937 136.631762 
L 266.650937 132.799366 
L 267.254965 132.799366 
L 267.254965 128.96697 
L 267.715553 128.96697 
L 267.756511 121.302178 
L 267.989971 121.302178 
L 267.989971 117.469782 
L 268.661424 117.469782 
L 268.737033 109.80499 
L 270.364425 109.80499 
L 270.435554 102.140198 
L 270.742843 102.140198 
L 270.742843 98.307802 
L 270.942477 98.307802 
L 270.942477 94.475406 
L 271.09649 94.475406 
L 271.09649 90.64301 
L 271.266283 90.64301 
L 271.266283 86.810614 
L 271.413917 86.810614 
L 271.431728 79.145822 
L 271.632162 79.145822 
L 271.644236 71.48103 
L 272.926982 71.48103 
L 272.926982 67.648634 
L 277.454443 67.648634 
L 277.454443 63.816238 
L 316.713852 63.816238 
L 316.713852 59.983842 
L 340.349174 59.983842 
L 340.349174 56.151446 
L 345.610025 56.151446 
L 345.610025 52.31905 
L 354.294221 52.31905 
L 354.294221 48.486653 
L 362.924249 48.486653 
L 362.924249 44.654257 
L 364.473023 44.654257 
L 364.473023 40.821861 
L 379.683548 40.821861 
L 379.683548 36.989465 
L 379.947717 36.989465 
L 379.947717 33.157069 
L 380.326128 33.157069 
L 380.326128 29.324673 
L 385.387385 29.324673 
L 385.387385 25.492277 
L 387.99815 25.492277 
L 387.99815 21.659881 
L 390.438965 21.659881 
L 390.438965 17.827485 
L 390.816382 17.827485 
L 390.816382 13.995089 
L 392.051476 13.995089 
L 392.051476 10.162693 
L 393.270663 10.162693 
L 393.270663 6.330297 
L 393.270663 6.330297 
L 460.8 6.330297 
L 460.8 6.330297 
" clip-path="url(#p8ce281a3a9)" style="fill: none; stroke: #bf00bf; stroke-width: 1.5; stroke-linecap: square"/>
   </g>
   <g id="line2d_24">
    <path d="M -0.112884 293.76 
L -0.112884 263.100832 
L 182.299684 263.100832 
L 182.299684 259.268436 
L 193.491228 259.268436 
L 193.491228 255.43604 
L 210.623528 255.43604 
L 210.623528 251.603644 
L 218.749855 251.603644 
L 218.749855 247.771248 
L 218.993556 247.771248 
L 218.993556 243.938851 
L 224.063487 243.938851 
L 224.063487 240.106455 
L 224.408574 240.106455 
L 224.49472 232.441663 
L 231.132201 232.441663 
L 231.132201 228.609267 
L 234.053759 228.609267 
L 234.053759 224.776871 
L 243.724063 224.776871 
L 243.724063 220.944475 
L 244.461467 220.944475 
L 244.461467 217.112079 
L 244.754368 217.112079 
L 244.754368 213.279683 
L 245.494416 213.279683 
L 245.494416 209.447287 
L 247.334451 209.447287 
L 247.334451 205.614891 
L 248.728197 205.614891 
L 248.728197 201.782495 
L 249.96723 201.782495 
L 249.96723 197.950099 
L 250.176208 197.950099 
L 250.176208 194.117703 
L 258.319949 194.117703 
L 258.383303 186.452911 
L 258.484552 186.452911 
L 258.484552 182.620515 
L 258.993056 182.620515 
L 258.993056 178.788119 
L 259.145131 178.788119 
L 259.254376 171.123327 
L 260.386015 171.123327 
L 260.448024 163.458535 
L 261.55785 163.458535 
L 261.55785 159.626139 
L 261.858083 159.626139 
L 261.858083 155.793743 
L 262.289517 155.793743 
L 262.334906 148.12895 
L 262.473925 148.12895 
L 262.473925 144.296554 
L 263.321792 144.296554 
L 263.321792 140.464158 
L 264.038097 140.464158 
L 264.038097 136.631762 
L 264.690729 136.631762 
L 264.690729 132.799366 
L 264.971284 132.799366 
L 264.971284 128.96697 
L 265.478317 128.96697 
L 265.478317 125.134574 
L 265.846039 125.134574 
L 265.846039 121.302178 
L 266.309512 121.302178 
L 266.309512 117.469782 
L 266.524479 117.469782 
L 266.598849 109.80499 
L 266.722778 109.80499 
L 266.722778 105.972594 
L 267.239476 105.972594 
L 267.239476 102.140198 
L 268.187163 102.140198 
L 268.187163 98.307802 
L 268.415797 98.307802 
L 268.415797 94.475406 
L 270.079376 94.475406 
L 270.082481 86.810614 
L 270.207776 86.810614 
L 270.25628 79.145822 
L 270.507031 79.145822 
L 270.507031 75.313426 
L 271.092473 75.313426 
L 271.092473 71.48103 
L 271.413917 71.48103 
L 271.413917 67.648634 
L 272.842772 67.648634 
L 272.842772 63.816238 
L 309.814482 63.816238 
L 309.814482 59.983842 
L 335.524747 59.983842 
L 335.524747 56.151446 
L 336.926172 56.151446 
L 336.926172 52.31905 
L 337.68417 52.31905 
L 337.68417 48.486653 
L 342.183767 48.486653 
L 342.183767 44.654257 
L 344.575851 44.654257 
L 344.575851 40.821861 
L 345.782783 40.821861 
L 345.782783 36.989465 
L 347.716163 36.989465 
L 347.716163 33.157069 
L 349.904401 33.157069 
L 349.904401 29.324673 
L 351.036023 29.324673 
L 351.036023 25.492277 
L 352.749093 25.492277 
L 352.749093 21.659881 
L 354.24497 21.659881 
L 354.24497 17.827485 
L 354.921809 17.827485 
L 354.921809 13.995089 
L 362.342059 13.995089 
L 362.342059 10.162693 
L 364.875255 10.162693 
L 364.875255 6.330297 
L 364.875255 6.330297 
L 460.8 6.330297 
L 460.8 6.330297 
" clip-path="url(#p8ce281a3a9)" style="fill: none; stroke: #000000; stroke-width: 1.5; stroke-linecap: square"/>
   </g>
   <g id="patch_3">
    <path d="M 0 293.76 
L 0 3.456 
" style="fill: none; stroke: #000000; stroke-width: 0.8; stroke-linejoin: miter; stroke-linecap: square"/>
   </g>
   <g id="patch_4">
    <path d="M 460.8 293.76 
L 460.8 3.456 
" style="fill: none; stroke: #000000; stroke-width: 0.8; stroke-linejoin: miter; stroke-linecap: square"/>
   </g>
   <g id="patch_5">
    <path d="M 0 293.76 
L 460.8 293.76 
" style="fill: none; stroke: #000000; stroke-width: 0.8; stroke-linejoin: miter; stroke-linecap: square"/>
   </g>
   <g id="patch_6">
    <path d="M 0 3.456 
L 460.8 3.456 
" style="fill: none; stroke: #000000; stroke-width: 0.8; stroke-linejoin: miter; stroke-linecap: square"/>
   </g>
   <g id="text_6">
    <!-- {f1-f5}, 5-D -->
    <g transform="translate(331.334 287.95392) scale(0.2 -0.2)">
     <defs>
      <path id="DejaVuSans-7b" d="M 3272 -594 
L 3272 -1044 
L 3078 -1044 
Q 2300 -1044 2036 -812 
Q 1772 -581 1772 109 
L 1772 856 
Q 1772 1328 1603 1509 
Q 1434 1691 991 1691 
L 800 1691 
L 800 2138 
L 991 2138 
Q 1438 2138 1605 2317 
Q 1772 2497 1772 2963 
L 1772 3713 
Q 1772 4403 2036 4633 
Q 2300 4863 3078 4863 
L 3272 4863 
L 3272 4416 
L 3059 4416 
Q 2619 4416 2484 4278 
Q 2350 4141 2350 3700 
L 2350 2925 
Q 2350 2434 2208 2212 
Q 2066 1991 1722 1913 
Q 2069 1828 2209 1606 
Q 2350 1384 2350 897 
L 2350 122 
Q 2350 -319 2484 -456 
Q 2619 -594 3059 -594 
L 3272 -594 
z
" transform="scale(0.015625)"/>
      <path id="DejaVuSans-35" d="M 691 4666 
L 3169 4666 
L 3169 4134 
L 1269 4134 
L 1269 2991 
Q 1406 3038 1543 3061 
Q 1681 3084 1819 3084 
Q 2600 3084 3056 2656 
Q 3513 2228 3513 1497 
Q 3513 744 3044 326 
Q 2575 -91 1722 -91 
Q 1428 -91 1123 -41 
Q 819 9 494 109 
L 494 744 
Q 775 591 1075 516 
Q 1375 441 1709 441 
Q 2250 441 2565 725 
Q 2881 1009 2881 1497 
Q 2881 1984 2565 2268 
Q 2250 2553 1709 2553 
Q 1456 2553 1204 2497 
Q 953 2441 691 2322 
L 691 4666 
z
" transform="scale(0.015625)"/>
      <path id="DejaVuSans-7d" d="M 800 -594 
L 1019 -594 
Q 1456 -594 1589 -459 
Q 1722 -325 1722 122 
L 1722 897 
Q 1722 1384 1862 1606 
Q 2003 1828 2350 1913 
Q 2003 1991 1862 2212 
Q 1722 2434 1722 2925 
L 1722 3700 
Q 1722 4144 1589 4280 
Q 1456 4416 1019 4416 
L 800 4416 
L 800 4863 
L 997 4863 
Q 1775 4863 2036 4633 
Q 2297 4403 2297 3713 
L 2297 2963 
Q 2297 2497 2465 2317 
Q 2634 2138 3078 2138 
L 3272 2138 
L 3272 1691 
L 3078 1691 
Q 2634 1691 2465 1509 
Q 2297 1328 2297 856 
L 2297 109 
Q 2297 -581 2036 -812 
Q 1775 -1044 997 -1044 
L 800 -1044 
L 800 -594 
z
" transform="scale(0.015625)"/>
      <path id="DejaVuSans-2c" d="M 750 794 
L 1409 794 
L 1409 256 
L 897 -744 
L 494 -744 
L 750 256 
L 750 794 
z
" transform="scale(0.015625)"/>
     </defs>
     <use xlink:href="#DejaVuSans-7b"/>
     <use xlink:href="#DejaVuSans-66" x="63.623047"/>
     <use xlink:href="#DejaVuSans-31" x="98.828125"/>
     <use xlink:href="#DejaVuSans-2d" x="162.451172"/>
     <use xlink:href="#DejaVuSans-66" x="198.535156"/>
     <use xlink:href="#DejaVuSans-35" x="233.740234"/>
     <use xlink:href="#DejaVuSans-7d" x="297.363281"/>
     <use xlink:href="#DejaVuSans-2c" x="360.986328"/>
     <use xlink:href="#DejaVuSans-20" x="392.773438"/>
     <use xlink:href="#DejaVuSans-35" x="424.560547"/>
     <use xlink:href="#DejaVuSans-2d" x="488.183594"/>
     <use xlink:href="#DejaVuSans-44" x="524.267578"/>
    </g>
   </g>
   <g id="text_7">
    <!-- v2.6.3 -->
    <g style="fill: #808080" transform="translate(214.71875 288.777272) scale(0.1 -0.1)">
     <defs>
      <path id="DejaVuSans-76" d="M 191 3500 
L 800 3500 
L 1894 563 
L 2988 3500 
L 3597 3500 
L 2284 0 
L 1503 0 
L 191 3500 
z
" transform="scale(0.015625)"/>
      <path id="DejaVuSans-32" d="M 1228 531 
L 3431 531 
L 3431 0 
L 469 0 
L 469 531 
Q 828 903 1448 1529 
Q 2069 2156 2228 2338 
Q 2531 2678 2651 2914 
Q 2772 3150 2772 3378 
Q 2772 3750 2511 3984 
Q 2250 4219 1831 4219 
Q 1534 4219 1204 4116 
Q 875 4013 500 3803 
L 500 4441 
Q 881 4594 1212 4672 
Q 1544 4750 1819 4750 
Q 2544 4750 2975 4387 
Q 3406 4025 3406 3419 
Q 3406 3131 3298 2873 
Q 3191 2616 2906 2266 
Q 2828 2175 2409 1742 
Q 1991 1309 1228 531 
z
" transform="scale(0.015625)"/>
      <path id="DejaVuSans-2e" d="M 684 794 
L 1344 794 
L 1344 0 
L 684 0 
L 684 794 
z
" transform="scale(0.015625)"/>
      <path id="DejaVuSans-36" d="M 2113 2584 
Q 1688 2584 1439 2293 
Q 1191 2003 1191 1497 
Q 1191 994 1439 701 
Q 1688 409 2113 409 
Q 2538 409 2786 701 
Q 3034 994 3034 1497 
Q 3034 2003 2786 2293 
Q 2538 2584 2113 2584 
z
M 3366 4563 
L 3366 3988 
Q 3128 4100 2886 4159 
Q 2644 4219 2406 4219 
Q 1781 4219 1451 3797 
Q 1122 3375 1075 2522 
Q 1259 2794 1537 2939 
Q 1816 3084 2150 3084 
Q 2853 3084 3261 2657 
Q 3669 2231 3669 1497 
Q 3669 778 3244 343 
Q 2819 -91 2113 -91 
Q 1303 -91 875 529 
Q 447 1150 447 2328 
Q 447 3434 972 4092 
Q 1497 4750 2381 4750 
Q 2619 4750 2861 4703 
Q 3103 4656 3366 4563 
z
" transform="scale(0.015625)"/>
      <path id="DejaVuSans-33" d="M 2597 2516 
Q 3050 2419 3304 2112 
Q 3559 1806 3559 1356 
Q 3559 666 3084 287 
Q 2609 -91 1734 -91 
Q 1441 -91 1130 -33 
Q 819 25 488 141 
L 488 750 
Q 750 597 1062 519 
Q 1375 441 1716 441 
Q 2309 441 2620 675 
Q 2931 909 2931 1356 
Q 2931 1769 2642 2001 
Q 2353 2234 1838 2234 
L 1294 2234 
L 1294 2753 
L 1863 2753 
Q 2328 2753 2575 2939 
Q 2822 3125 2822 3475 
Q 2822 3834 2567 4026 
Q 2313 4219 1838 4219 
Q 1578 4219 1281 4162 
Q 984 4106 628 3988 
L 628 4550 
Q 988 4650 1302 4700 
Q 1616 4750 1894 4750 
Q 2613 4750 3031 4423 
Q 3450 4097 3450 3541 
Q 3450 3153 3228 2886 
Q 3006 2619 2597 2516 
z
" transform="scale(0.015625)"/>
     </defs>
     <use xlink:href="#DejaVuSans-76"/>
     <use xlink:href="#DejaVuSans-32" x="59.179688"/>
     <use xlink:href="#DejaVuSans-2e" x="122.802734"/>
     <use xlink:href="#DejaVuSans-36" x="154.589844"/>
     <use xlink:href="#DejaVuSans-2e" x="218.212891"/>
     <use xlink:href="#DejaVuSans-33" x="250"/>
    </g>
   </g>
  </g>
 </g>
 <defs>
  <clipPath id="p8ce281a3a9">
   <rect x="0" y="3.456" width="460.8" height="290.304"/>
  </clipPath>
 </defs>
</svg>
