<?xml version="1.0" encoding="utf-8" standalone="no"?>
<!DOCTYPE svg PUBLIC "-//W3C//DTD SVG 1.1//EN"
  "http://www.w3.org/Graphics/SVG/1.1/DTD/svg11.dtd">
<svg xmlns:xlink="http://www.w3.org/1999/xlink" width="460.8pt" height="345.6pt" viewBox="0 0 460.8 345.6" xmlns="http://www.w3.org/2000/svg" version="1.1">
 <metadata>
  <rdf:RDF xmlns:dc="http://purl.org/dc/elements/1.1/" xmlns:cc="http://creativecommons.org/ns#" xmlns:rdf="http://www.w3.org/1999/02/22-rdf-syntax-ns#">
   <cc:Work>
    <dc:type rdf:resource="http://purl.org/dc/dcmitype/StillImage"/>
    <dc:date>2024-01-17T15:57:00.393856</dc:date>
    <dc:format>image/svg+xml</dc:format>
    <dc:creator>
     <cc:Agent>
      <dc:title>Matplotlib v3.8.2, https://matplotlib.org/</dc:title>
     </cc:Agent>
    </dc:creator>
   </cc:Work>
  </rdf:RDF>
 </metadata>
 <defs>
  <style type="text/css">*{stroke-linejoin: round; stroke-linecap: butt}</style>
 </defs>
 <g id="figure_1">
  <g id="patch_1">
   <path d="M 0 345.6 
L 460.8 345.6 
L 460.8 0 
L 0 0 
z
" style="fill: #ffffff"/>
  </g>
  <g id="axes_1">
   <g id="patch_2">
    <path d="M 0 293.76 
L 460.8 293.76 
L 460.8 3.456 
L 0 3.456 
z
" style="fill: #ffffff"/>
   </g>
   <g id="matplotlib.axis_1">
    <g id="xtick_1">
     <g id="line2d_1">
      <path d="M 104.376121 293.76 
L 104.376121 3.456 
" clip-path="url(#pb2a0a2f8d2)" style="fill: none; stroke: #b0b0b0; stroke-width: 0.8; stroke-linecap: square"/>
     </g>
     <g id="line2d_2">
      <defs>
       <path id="m97b81c4272" d="M 0 0 
L 0 3.5 
" style="stroke: #000000; stroke-width: 0.8"/>
      </defs>
      <g>
       <use xlink:href="#m97b81c4272" x="104.376121" y="293.76" style="stroke: #000000; stroke-width: 0.8"/>
      </g>
     </g>
     <g id="text_1">
      <!-- -4 -->
      <g transform="translate(94.405809 315.956875) scale(0.2 -0.2)">
       <defs>
        <path id="DejaVuSans-2d" d="M 313 2009 
L 1997 2009 
L 1997 1497 
L 313 1497 
L 313 2009 
z
" transform="scale(0.015625)"/>
        <path id="DejaVuSans-34" d="M 2419 4116 
L 825 1625 
L 2419 1625 
L 2419 4116 
z
M 2253 4666 
L 3047 4666 
L 3047 1625 
L 3713 1625 
L 3713 1100 
L 3047 1100 
L 3047 0 
L 2419 0 
L 2419 1100 
L 313 1100 
L 313 1709 
L 2253 4666 
z
" transform="scale(0.015625)"/>
       </defs>
       <use xlink:href="#DejaVuSans-2d"/>
       <use xlink:href="#DejaVuSans-34" x="36.083984"/>
      </g>
     </g>
    </g>
    <g id="xtick_2">
     <g id="line2d_3">
      <path d="M 208.865126 293.76 
L 208.865126 3.456 
" clip-path="url(#pb2a0a2f8d2)" style="fill: none; stroke: #b0b0b0; stroke-width: 0.8; stroke-linecap: square"/>
     </g>
     <g id="line2d_4">
      <g>
       <use xlink:href="#m97b81c4272" x="208.865126" y="293.76" style="stroke: #000000; stroke-width: 0.8"/>
      </g>
     </g>
     <g id="text_2">
      <!-- 0 -->
      <g transform="translate(202.502626 315.956875) scale(0.2 -0.2)">
       <defs>
        <path id="DejaVuSans-30" d="M 2034 4250 
Q 1547 4250 1301 3770 
Q 1056 3291 1056 2328 
Q 1056 1369 1301 889 
Q 1547 409 2034 409 
Q 2525 409 2770 889 
Q 3016 1369 3016 2328 
Q 3016 3291 2770 3770 
Q 2525 4250 2034 4250 
z
M 2034 4750 
Q 2819 4750 3233 4129 
Q 3647 3509 3647 2328 
Q 3647 1150 3233 529 
Q 2819 -91 2034 -91 
Q 1250 -91 836 529 
Q 422 1150 422 2328 
Q 422 3509 836 4129 
Q 1250 4750 2034 4750 
z
" transform="scale(0.015625)"/>
       </defs>
       <use xlink:href="#DejaVuSans-30"/>
      </g>
     </g>
    </g>
    <g id="xtick_3">
     <g id="line2d_5">
      <path d="M 313.354131 293.76 
L 313.354131 3.456 
" clip-path="url(#pb2a0a2f8d2)" style="fill: none; stroke: #b0b0b0; stroke-width: 0.8; stroke-linecap: square"/>
     </g>
     <g id="line2d_6">
      <g>
       <use xlink:href="#m97b81c4272" x="313.354131" y="293.76" style="stroke: #000000; stroke-width: 0.8"/>
      </g>
     </g>
     <g id="text_3">
      <!-- 4 -->
      <g transform="translate(306.991631 315.956875) scale(0.2 -0.2)">
       <use xlink:href="#DejaVuSans-34"/>
      </g>
     </g>
    </g>
    <g id="xtick_4">
     <g id="line2d_7">
      <path d="M 417.843137 293.76 
L 417.843137 3.456 
" clip-path="url(#pb2a0a2f8d2)" style="fill: none; stroke: #b0b0b0; stroke-width: 0.8; stroke-linecap: square"/>
     </g>
     <g id="line2d_8">
      <g>
       <use xlink:href="#m97b81c4272" x="417.843137" y="293.76" style="stroke: #000000; stroke-width: 0.8"/>
      </g>
     </g>
     <g id="text_4">
      <!-- 8 -->
      <g transform="translate(411.480637 315.956875) scale(0.2 -0.2)">
       <defs>
        <path id="DejaVuSans-38" d="M 2034 2216 
Q 1584 2216 1326 1975 
Q 1069 1734 1069 1313 
Q 1069 891 1326 650 
Q 1584 409 2034 409 
Q 2484 409 2743 651 
Q 3003 894 3003 1313 
Q 3003 1734 2745 1975 
Q 2488 2216 2034 2216 
z
M 1403 2484 
Q 997 2584 770 2862 
Q 544 3141 544 3541 
Q 544 4100 942 4425 
Q 1341 4750 2034 4750 
Q 2731 4750 3128 4425 
Q 3525 4100 3525 3541 
Q 3525 3141 3298 2862 
Q 3072 2584 2669 2484 
Q 3125 2378 3379 2068 
Q 3634 1759 3634 1313 
Q 3634 634 3220 271 
Q 2806 -91 2034 -91 
Q 1263 -91 848 271 
Q 434 634 434 1313 
Q 434 1759 690 2068 
Q 947 2378 1403 2484 
z
M 1172 3481 
Q 1172 3119 1398 2916 
Q 1625 2713 2034 2713 
Q 2441 2713 2670 2916 
Q 2900 3119 2900 3481 
Q 2900 3844 2670 4047 
Q 2441 4250 2034 4250 
Q 1625 4250 1398 4047 
Q 1172 3844 1172 3481 
z
" transform="scale(0.015625)"/>
       </defs>
       <use xlink:href="#DejaVuSans-38"/>
      </g>
     </g>
    </g>
    <g id="text_5">
     <!-- log10 of Df -->
     <g transform="translate(175.214063 339.313125) scale(0.2 -0.2)">
      <defs>
       <path id="DejaVuSans-6c" d="M 603 4863 
L 1178 4863 
L 1178 0 
L 603 0 
L 603 4863 
z
" transform="scale(0.015625)"/>
       <path id="DejaVuSans-6f" d="M 1959 3097 
Q 1497 3097 1228 2736 
Q 959 2375 959 1747 
Q 959 1119 1226 758 
Q 1494 397 1959 397 
Q 2419 397 2687 759 
Q 2956 1122 2956 1747 
Q 2956 2369 2687 2733 
Q 2419 3097 1959 3097 
z
M 1959 3584 
Q 2709 3584 3137 3096 
Q 3566 2609 3566 1747 
Q 3566 888 3137 398 
Q 2709 -91 1959 -91 
Q 1206 -91 779 398 
Q 353 888 353 1747 
Q 353 2609 779 3096 
Q 1206 3584 1959 3584 
z
" transform="scale(0.015625)"/>
       <path id="DejaVuSans-67" d="M 2906 1791 
Q 2906 2416 2648 2759 
Q 2391 3103 1925 3103 
Q 1463 3103 1205 2759 
Q 947 2416 947 1791 
Q 947 1169 1205 825 
Q 1463 481 1925 481 
Q 2391 481 2648 825 
Q 2906 1169 2906 1791 
z
M 3481 434 
Q 3481 -459 3084 -895 
Q 2688 -1331 1869 -1331 
Q 1566 -1331 1297 -1286 
Q 1028 -1241 775 -1147 
L 775 -588 
Q 1028 -725 1275 -790 
Q 1522 -856 1778 -856 
Q 2344 -856 2625 -561 
Q 2906 -266 2906 331 
L 2906 616 
Q 2728 306 2450 153 
Q 2172 0 1784 0 
Q 1141 0 747 490 
Q 353 981 353 1791 
Q 353 2603 747 3093 
Q 1141 3584 1784 3584 
Q 2172 3584 2450 3431 
Q 2728 3278 2906 2969 
L 2906 3500 
L 3481 3500 
L 3481 434 
z
" transform="scale(0.015625)"/>
       <path id="DejaVuSans-31" d="M 794 531 
L 1825 531 
L 1825 4091 
L 703 3866 
L 703 4441 
L 1819 4666 
L 2450 4666 
L 2450 531 
L 3481 531 
L 3481 0 
L 794 0 
L 794 531 
z
" transform="scale(0.015625)"/>
       <path id="DejaVuSans-20" transform="scale(0.015625)"/>
       <path id="DejaVuSans-66" d="M 2375 4863 
L 2375 4384 
L 1825 4384 
Q 1516 4384 1395 4259 
Q 1275 4134 1275 3809 
L 1275 3500 
L 2222 3500 
L 2222 3053 
L 1275 3053 
L 1275 0 
L 697 0 
L 697 3053 
L 147 3053 
L 147 3500 
L 697 3500 
L 697 3744 
Q 697 4328 969 4595 
Q 1241 4863 1831 4863 
L 2375 4863 
z
" transform="scale(0.015625)"/>
       <path id="DejaVuSans-44" d="M 1259 4147 
L 1259 519 
L 2022 519 
Q 2988 519 3436 956 
Q 3884 1394 3884 2338 
Q 3884 3275 3436 3711 
Q 2988 4147 2022 4147 
L 1259 4147 
z
M 628 4666 
L 1925 4666 
Q 3281 4666 3915 4102 
Q 4550 3538 4550 2338 
Q 4550 1131 3912 565 
Q 3275 0 1925 0 
L 628 0 
L 628 4666 
z
" transform="scale(0.015625)"/>
      </defs>
      <use xlink:href="#DejaVuSans-6c"/>
      <use xlink:href="#DejaVuSans-6f" x="27.783203"/>
      <use xlink:href="#DejaVuSans-67" x="88.964844"/>
      <use xlink:href="#DejaVuSans-31" x="152.441406"/>
      <use xlink:href="#DejaVuSans-30" x="216.064453"/>
      <use xlink:href="#DejaVuSans-20" x="279.6875"/>
      <use xlink:href="#DejaVuSans-6f" x="311.474609"/>
      <use xlink:href="#DejaVuSans-66" x="372.65625"/>
      <use xlink:href="#DejaVuSans-20" x="407.861328"/>
      <use xlink:href="#DejaVuSans-44" x="439.648438"/>
      <use xlink:href="#DejaVuSans-66" x="516.650391"/>
     </g>
    </g>
   </g>
   <g id="matplotlib.axis_2">
    <g id="ytick_1">
     <g id="line2d_9">
      <path d="M 0 293.76 
L 460.8 293.76 
" clip-path="url(#pb2a0a2f8d2)" style="fill: none; stroke: #b0b0b0; stroke-width: 0.8; stroke-linecap: square"/>
     </g>
     <g id="line2d_10">
      <defs>
       <path id="m0614a9933c" d="M 0 0 
L -3.5 0 
" style="stroke: #000000; stroke-width: 0.8"/>
      </defs>
      <g>
       <use xlink:href="#m0614a9933c" x="0" y="293.76" style="stroke: #000000; stroke-width: 0.8"/>
      </g>
     </g>
    </g>
    <g id="ytick_2">
     <g id="line2d_11">
      <path d="M 0 236.274059 
L 460.8 236.274059 
" clip-path="url(#pb2a0a2f8d2)" style="fill: none; stroke: #b0b0b0; stroke-width: 0.8; stroke-linecap: square"/>
     </g>
     <g id="line2d_12">
      <g>
       <use xlink:href="#m0614a9933c" x="0" y="236.274059" style="stroke: #000000; stroke-width: 0.8"/>
      </g>
     </g>
    </g>
    <g id="ytick_3">
     <g id="line2d_13">
      <path d="M 0 178.788119 
L 460.8 178.788119 
" clip-path="url(#pb2a0a2f8d2)" style="fill: none; stroke: #b0b0b0; stroke-width: 0.8; stroke-linecap: square"/>
     </g>
     <g id="line2d_14">
      <g>
       <use xlink:href="#m0614a9933c" x="0" y="178.788119" style="stroke: #000000; stroke-width: 0.8"/>
      </g>
     </g>
    </g>
    <g id="ytick_4">
     <g id="line2d_15">
      <path d="M 0 121.302178 
L 460.8 121.302178 
" clip-path="url(#pb2a0a2f8d2)" style="fill: none; stroke: #b0b0b0; stroke-width: 0.8; stroke-linecap: square"/>
     </g>
     <g id="line2d_16">
      <g>
       <use xlink:href="#m0614a9933c" x="0" y="121.302178" style="stroke: #000000; stroke-width: 0.8"/>
      </g>
     </g>
    </g>
    <g id="ytick_5">
     <g id="line2d_17">
      <path d="M 0 63.816238 
L 460.8 63.816238 
" clip-path="url(#pb2a0a2f8d2)" style="fill: none; stroke: #b0b0b0; stroke-width: 0.8; stroke-linecap: square"/>
     </g>
     <g id="line2d_18">
      <g>
       <use xlink:href="#m0614a9933c" x="0" y="63.816238" style="stroke: #000000; stroke-width: 0.8"/>
      </g>
     </g>
    </g>
    <g id="ytick_6">
     <g id="line2d_19">
      <path d="M 0 6.330297 
L 460.8 6.330297 
" clip-path="url(#pb2a0a2f8d2)" style="fill: none; stroke: #b0b0b0; stroke-width: 0.8; stroke-linecap: square"/>
     </g>
     <g id="line2d_20">
      <g>
       <use xlink:href="#m0614a9933c" x="0" y="6.330297" style="stroke: #000000; stroke-width: 0.8"/>
      </g>
     </g>
    </g>
   </g>
   <g id="line2d_21">
    <path d="M -0.112884 293.76 
L -0.112884 287.372673 
L 161.374061 287.372673 
L 161.374061 286.574257 
L 170.970427 286.574257 
L 170.970427 285.775842 
L 174.424785 285.775842 
L 174.424785 284.977426 
L 174.866252 284.977426 
L 174.866252 284.17901 
L 178.33609 284.17901 
L 178.33609 283.380594 
L 178.731717 283.380594 
L 178.731717 282.582178 
L 178.94532 282.582178 
L 178.94532 281.783762 
L 179.374069 281.783762 
L 179.374069 280.985347 
L 180.426589 280.985347 
L 180.426589 280.186931 
L 180.607768 280.186931 
L 180.607768 279.388515 
L 181.831974 279.388515 
L 181.831974 278.590099 
L 183.481046 278.590099 
L 183.481046 277.791683 
L 184.357579 277.791683 
L 184.357579 276.993267 
L 184.915431 276.993267 
L 184.915431 276.194851 
L 193.154911 276.194851 
L 193.154911 269.807525 
L 195.093338 269.807525 
L 195.093338 269.009109 
L 195.214336 269.009109 
L 195.214336 268.210693 
L 195.567324 268.210693 
L 195.567324 267.412277 
L 196.772699 267.412277 
L 196.772699 266.613861 
L 202.213214 266.613861 
L 202.213214 265.815446 
L 202.77999 265.815446 
L 202.77999 265.01703 
L 205.566346 265.01703 
L 205.566346 264.218614 
L 207.371609 264.218614 
L 207.371609 263.420198 
L 209.177963 263.420198 
L 209.177963 262.621782 
L 211.387272 262.621782 
L 211.387272 261.823366 
L 212.231326 261.823366 
L 212.231326 261.02495 
L 212.713075 261.02495 
L 212.713075 260.226535 
L 214.086605 260.226535 
L 214.086605 259.428119 
L 215.089084 259.428119 
L 215.089084 258.629703 
L 216.685182 258.629703 
L 216.685182 257.831287 
L 218.682294 257.831287 
L 218.735859 256.234455 
L 219.656375 256.234455 
L 219.656375 255.43604 
L 220.723608 255.43604 
L 220.761912 253.839208 
L 221.071248 253.839208 
L 221.08343 252.242376 
L 222.073722 252.242376 
L 222.073722 251.44396 
L 222.691652 251.44396 
L 222.717957 249.847129 
L 222.988543 249.847129 
L 222.988543 249.048713 
L 223.468529 249.048713 
L 223.468529 248.250297 
L 224.102479 248.250297 
L 224.102479 247.451881 
L 224.417019 247.451881 
L 224.454938 245.85505 
L 225.051636 245.85505 
L 225.051636 245.056634 
L 226.029627 245.056634 
L 226.029627 244.258218 
L 226.16181 244.258218 
L 226.16181 243.459802 
L 226.942326 243.459802 
L 226.978152 241.064554 
L 228.089355 241.064554 
L 228.200316 239.467723 
L 228.551308 239.467723 
L 228.551308 238.669307 
L 229.582499 238.669307 
L 229.582499 237.870891 
L 229.976567 237.870891 
L 229.976567 237.072475 
L 230.152066 237.072475 
L 230.152066 236.274059 
L 230.568769 236.274059 
L 230.568769 235.475644 
L 230.860207 235.475644 
L 230.955127 233.878812 
L 231.038154 233.878812 
L 231.143655 232.28198 
L 231.448337 232.28198 
L 231.54286 230.685149 
L 233.347429 230.685149 
L 233.347429 229.886733 
L 233.647939 229.886733 
L 233.647939 229.088317 
L 234.053759 229.088317 
L 234.053759 228.289901 
L 234.17761 228.289901 
L 234.17761 227.491485 
L 234.470478 227.491485 
L 234.470478 226.693069 
L 234.619382 226.693069 
L 234.619382 225.894653 
L 235.278911 225.894653 
L 235.382315 224.297822 
L 235.672836 224.297822 
L 235.672836 223.499406 
L 236.115629 223.499406 
L 236.115629 222.70099 
L 236.268565 222.70099 
L 236.268565 221.902574 
L 236.390236 221.902574 
L 236.390236 221.104158 
L 236.517925 221.104158 
L 236.517925 220.305743 
L 237.036829 220.305743 
L 237.105235 218.708911 
L 237.300135 218.708911 
L 237.300135 217.910495 
L 238.369581 217.910495 
L 238.369581 217.112079 
L 238.834669 217.112079 
L 238.834669 216.313663 
L 239.088596 216.313663 
L 239.088596 215.515248 
L 239.346347 215.515248 
L 239.436642 213.918416 
L 239.766717 213.918416 
L 239.766717 213.12 
L 240.062358 213.12 
L 240.062358 212.321584 
L 240.349699 212.321584 
L 240.349699 211.523168 
L 242.881442 211.523168 
L 242.881442 210.724752 
L 243.023787 210.724752 
L 243.023787 209.926337 
L 243.228126 209.926337 
L 243.228126 209.127921 
L 243.701576 209.127921 
L 243.747853 206.732673 
L 243.842497 206.732673 
L 243.842497 205.934257 
L 244.173548 205.934257 
L 244.246194 204.337426 
L 244.449198 204.337426 
L 244.558574 202.740594 
L 244.70219 202.740594 
L 244.751509 201.143762 
L 244.924639 201.143762 
L 244.924639 200.345347 
L 245.299093 200.345347 
L 245.325171 197.950099 
L 245.412834 197.950099 
L 245.494416 196.353267 
L 245.597806 196.353267 
L 245.654513 193.95802 
L 246.129355 193.95802 
L 246.129355 193.159604 
L 246.31658 193.159604 
L 246.31658 192.361188 
L 246.648588 192.361188 
L 246.648588 191.562772 
L 247.061253 191.562772 
L 247.162198 189.965941 
L 247.334451 189.965941 
L 247.334451 189.167525 
L 247.531167 189.167525 
L 247.531167 188.369109 
L 247.657909 188.369109 
L 247.657909 187.570693 
L 247.890694 187.570693 
L 247.890694 186.772277 
L 248.265817 186.772277 
L 248.265817 185.973861 
L 248.492295 185.973861 
L 248.492295 185.175446 
L 248.666622 185.175446 
L 248.728197 183.578614 
L 248.809509 183.578614 
L 248.809509 182.780198 
L 249.248007 182.780198 
L 249.248007 181.981782 
L 249.363973 181.981782 
L 249.434431 180.38495 
L 249.60411 180.38495 
L 249.60411 179.586535 
L 249.937622 179.586535 
L 249.96723 177.191287 
L 250.176208 177.191287 
L 250.176208 176.392871 
L 250.418599 176.392871 
L 250.418599 175.594455 
L 250.738961 175.594455 
L 250.738961 174.79604 
L 251.024309 174.79604 
L 251.024309 173.997624 
L 251.356036 173.997624 
L 251.356036 173.199208 
L 251.746743 173.199208 
L 251.746743 172.400792 
L 251.930413 172.400792 
L 252.006731 170.80396 
L 252.092819 170.80396 
L 252.10392 169.207129 
L 252.31226 169.207129 
L 252.331839 167.610297 
L 252.558006 167.610297 
L 252.558006 166.811881 
L 252.731752 166.811881 
L 252.805338 164.416634 
L 253.04674 164.416634 
L 253.04674 163.618218 
L 253.242768 163.618218 
L 253.325889 160.424554 
L 253.405645 160.424554 
L 253.418855 158.029307 
L 253.529268 158.029307 
L 253.628546 156.432475 
L 253.652084 156.432475 
L 253.652084 155.634059 
L 253.831713 155.634059 
L 253.885759 154.037228 
L 254.087132 154.037228 
L 254.130554 152.440396 
L 254.440142 152.440396 
L 254.440142 151.64198 
L 254.626166 151.64198 
L 254.654221 150.045149 
L 254.74486 150.045149 
L 254.74486 149.246733 
L 255.02231 149.246733 
L 255.07128 146.851485 
L 255.272182 146.851485 
L 255.272182 146.053069 
L 255.465222 146.053069 
L 255.465222 145.254653 
L 255.629337 145.254653 
L 255.629337 144.456238 
L 255.792582 144.456238 
L 255.792582 143.657822 
L 255.993502 143.657822 
L 256.067133 142.06099 
L 256.277793 142.06099 
L 256.277793 141.262574 
L 256.404224 141.262574 
L 256.404224 140.464158 
L 256.791962 140.464158 
L 256.847345 138.867327 
L 257.217732 138.867327 
L 257.301 137.270495 
L 257.384641 137.270495 
L 257.384641 136.472079 
L 257.614688 136.472079 
L 257.614688 135.673663 
L 258.319949 135.673663 
L 258.383303 134.076832 
L 258.450492 134.076832 
L 258.484552 131.681584 
L 258.737097 131.681584 
L 258.737097 130.883168 
L 258.986302 130.883168 
L 259.012975 128.487921 
L 259.128412 128.487921 
L 259.145131 126.891089 
L 259.447323 126.891089 
L 259.531928 125.294257 
L 259.707407 125.294257 
L 259.707407 124.495842 
L 259.883219 124.495842 
L 259.883219 123.697426 
L 260.179887 123.697426 
L 260.179887 122.89901 
L 260.386015 122.89901 
L 260.386015 122.100594 
L 260.509855 122.100594 
L 260.509855 121.302178 
L 260.661748 121.302178 
L 260.661748 120.503762 
L 260.921447 120.503762 
L 260.921447 119.705347 
L 261.161372 119.705347 
L 261.161372 118.906931 
L 261.356902 118.906931 
L 261.44306 117.310099 
L 261.690732 117.310099 
L 261.690732 116.511683 
L 261.858083 116.511683 
L 261.867562 114.914851 
L 262.264326 114.914851 
L 262.370091 112.519604 
L 262.473925 112.519604 
L 262.473925 111.721188 
L 262.639358 111.721188 
L 262.723058 109.325941 
L 262.952604 109.325941 
L 262.972698 107.729109 
L 263.535662 107.729109 
L 263.535662 106.930693 
L 264.350822 106.930693 
L 264.456579 103.73703 
L 264.501789 103.73703 
L 264.501789 102.938614 
L 264.648561 102.938614 
L 264.688744 101.341782 
L 265.323805 101.341782 
L 265.393011 99.74495 
L 265.438527 99.74495 
L 265.478317 97.349703 
L 265.806116 97.349703 
L 265.846039 95.752871 
L 266.082053 95.752871 
L 266.154011 93.357624 
L 266.391038 93.357624 
L 266.391038 92.559208 
L 266.917094 92.559208 
L 266.917094 91.760792 
L 267.116259 91.760792 
L 267.116259 90.962376 
L 268.016034 90.962376 
L 268.016034 90.16396 
L 268.187163 90.16396 
L 268.187163 89.365545 
L 268.344099 89.365545 
L 268.442758 87.768713 
L 268.60556 87.768713 
L 268.60556 86.970297 
L 268.779325 86.970297 
L 268.779325 86.171881 
L 268.9892 86.171881 
L 268.9892 85.373465 
L 269.122784 85.373465 
L 269.122784 84.57505 
L 269.449585 84.57505 
L 269.449585 83.776634 
L 269.593563 83.776634 
L 269.593563 82.978218 
L 269.710858 82.978218 
L 269.779585 81.381386 
L 269.855468 81.381386 
L 269.922198 79.784554 
L 270.023949 79.784554 
L 270.023949 78.986139 
L 270.431899 78.986139 
L 270.431899 78.187723 
L 270.596591 78.187723 
L 270.596591 77.389307 
L 271.130752 77.389307 
L 271.130752 76.590891 
L 271.413917 76.590891 
L 271.413917 75.792475 
L 272.025909 75.792475 
L 272.076521 74.195644 
L 272.714653 74.195644 
L 272.782097 72.598812 
L 273.372326 72.598812 
L 273.372326 71.800396 
L 273.627122 71.800396 
L 273.627122 71.00198 
L 275.693227 71.00198 
L 275.767589 69.405149 
L 276.484098 69.405149 
L 276.484098 68.606733 
L 276.894306 68.606733 
L 276.894306 67.808317 
L 277.736785 67.808317 
L 277.814352 66.211485 
L 278.475076 66.211485 
L 278.531696 64.614653 
L 279.263934 64.614653 
L 279.263934 63.816238 
L 280.368511 63.816238 
L 280.368511 63.017822 
L 281.710884 63.017822 
L 281.710884 62.219406 
L 282.792644 62.219406 
L 282.792644 61.42099 
L 284.137591 61.42099 
L 284.137591 60.622574 
L 284.806618 60.622574 
L 284.806618 59.824158 
L 285.494144 59.824158 
L 285.494144 59.025743 
L 286.380317 59.025743 
L 286.380317 58.227327 
L 287.23188 58.227327 
L 287.23188 57.428911 
L 287.597879 57.428911 
L 287.597879 56.630495 
L 287.757372 56.630495 
L 287.757372 55.832079 
L 292.594534 55.832079 
L 292.594534 55.033663 
L 296.85255 55.033663 
L 296.85255 54.235248 
L 298.91149 54.235248 
L 298.91149 53.436832 
L 299.156153 53.436832 
L 299.156153 52.638416 
L 306.076655 52.638416 
L 306.076655 51.84 
L 306.583467 51.84 
L 306.583467 51.041584 
L 308.132058 51.041584 
L 308.132058 50.243168 
L 309.246851 50.243168 
L 309.246851 49.444752 
L 310.654224 49.444752 
L 310.72786 47.847921 
L 310.868143 47.847921 
L 310.868143 47.049505 
L 311.679606 47.049505 
L 311.679606 46.251089 
L 311.835857 46.251089 
L 311.835857 45.452673 
L 313.083161 45.452673 
L 313.083161 44.654257 
L 313.320914 44.654257 
L 313.320914 43.855842 
L 317.310696 43.855842 
L 317.310696 43.057426 
L 317.719267 43.057426 
L 317.805725 41.460594 
L 318.505339 41.460594 
L 318.563445 39.065347 
L 319.448695 39.065347 
L 319.448695 38.266931 
L 319.813798 38.266931 
L 319.813798 37.468515 
L 321.216983 37.468515 
L 321.216983 36.670099 
L 322.875054 36.670099 
L 322.875054 35.871683 
L 325.80829 35.871683 
L 325.80829 35.073267 
L 326.957871 35.073267 
L 327.013899 33.476436 
L 327.964195 33.476436 
L 327.964195 32.67802 
L 328.407023 32.67802 
L 328.407023 31.879604 
L 332.92055 31.879604 
L 332.92055 31.081188 
L 334.380957 31.081188 
L 334.380957 30.282772 
L 334.746842 30.282772 
L 334.746842 29.484356 
L 335.254996 29.484356 
L 335.254996 28.685941 
L 335.919267 28.685941 
L 335.997259 27.089109 
L 337.076447 27.089109 
L 337.076447 26.290693 
L 337.615121 26.290693 
L 337.615121 25.492277 
L 343.955054 25.492277 
L 344.017966 23.895446 
L 344.771527 23.895446 
L 344.771527 23.09703 
L 345.6961 23.09703 
L 345.6961 22.298614 
L 346.043064 22.298614 
L 346.043064 21.500198 
L 346.699176 21.500198 
L 346.699176 20.701782 
L 346.937723 20.701782 
L 346.937723 19.903366 
L 347.558302 19.903366 
L 347.558302 19.10495 
L 348.998016 19.10495 
L 348.998016 18.306535 
L 349.456664 18.306535 
L 349.50474 16.709703 
L 350.206487 16.709703 
L 350.206487 15.911287 
L 350.403985 15.911287 
L 350.403985 15.112871 
L 351.60612 15.112871 
L 351.676459 13.51604 
L 354.108877 13.51604 
L 354.108877 12.717624 
L 355.872114 12.717624 
L 355.872114 11.919208 
L 358.999787 11.919208 
L 359.060122 10.322376 
L 369.086713 10.322376 
L 369.086713 9.52396 
L 383.977378 9.52396 
L 383.977378 8.725545 
L 388.345034 8.725545 
L 388.345034 7.927129 
L 390.718624 7.927129 
L 390.718624 7.128713 
L 393.466568 7.128713 
L 393.466568 6.330297 
L 393.466568 6.330297 
L 460.8 6.330297 
L 460.8 6.330297 
" clip-path="url(#pb2a0a2f8d2)" style="fill: none; stroke: #ff0000; stroke-width: 3; stroke-linecap: square"/>
   </g>
   <g id="line2d_22">
    <path d="M 193.154911 293.76 
L 193.154911 281.783762 
L 221.437953 281.783762 
L 221.437953 280.985347 
L 224.486745 280.985347 
L 224.486745 280.186931 
L 225.746928 280.186931 
L 225.746928 279.388515 
L 228.472821 279.388515 
L 228.472821 278.590099 
L 228.62696 278.590099 
L 228.62696 277.791683 
L 228.788582 277.791683 
L 228.788582 276.993267 
L 230.459167 276.993267 
L 230.472706 275.396436 
L 231.805214 275.396436 
L 231.805214 274.59802 
L 232.568636 274.59802 
L 232.568636 273.799604 
L 234.358893 273.799604 
L 234.358893 273.001188 
L 235.266266 273.001188 
L 235.266266 272.202772 
L 235.624381 272.202772 
L 235.672836 269.807525 
L 235.813634 269.807525 
L 235.813634 269.009109 
L 237.703943 269.009109 
L 237.809173 267.412277 
L 238.046578 267.412277 
L 238.063872 265.815446 
L 239.118982 265.815446 
L 239.118982 265.01703 
L 240.028302 265.01703 
L 240.066925 263.420198 
L 240.331671 263.420198 
L 240.331671 262.621782 
L 240.635344 262.621782 
L 240.635344 261.823366 
L 240.932925 261.823366 
L 240.932925 261.02495 
L 241.600283 261.02495 
L 241.621238 259.428119 
L 241.717013 259.428119 
L 241.717013 258.629703 
L 242.152029 258.629703 
L 242.152029 257.831287 
L 242.958436 257.831287 
L 243.018495 256.234455 
L 243.461779 256.234455 
L 243.461779 255.43604 
L 244.00934 255.43604 
L 244.00934 254.637624 
L 244.170937 254.637624 
L 244.225324 253.040792 
L 244.729403 253.040792 
L 244.729403 252.242376 
L 245.026668 252.242376 
L 245.026668 251.44396 
L 245.61058 251.44396 
L 245.654112 249.847129 
L 245.827416 249.847129 
L 245.873607 236.274059 
L 246.044619 236.274059 
L 246.123347 234.677228 
L 246.668496 234.677228 
L 246.668496 233.878812 
L 247.201962 233.878812 
L 247.201962 233.080396 
L 247.334451 233.080396 
L 247.334451 232.28198 
L 247.819832 232.28198 
L 247.819832 231.483564 
L 247.964184 231.483564 
L 248.073252 229.886733 
L 248.423796 229.886733 
L 248.423796 229.088317 
L 248.605609 229.088317 
L 248.685139 227.491485 
L 248.815665 227.491485 
L 248.815665 226.693069 
L 248.945514 226.693069 
L 249.051136 224.297822 
L 249.184127 224.297822 
L 249.184127 223.499406 
L 249.400183 223.499406 
L 249.454601 221.104158 
L 250.185317 221.104158 
L 250.185317 220.305743 
L 250.525965 220.305743 
L 250.525965 219.507327 
L 251.323886 219.507327 
L 251.418435 217.910495 
L 251.470133 217.910495 
L 251.470133 217.112079 
L 251.787446 217.112079 
L 251.876374 215.515248 
L 252.31226 215.515248 
L 252.31226 214.716832 
L 252.44708 214.716832 
L 252.491451 213.12 
L 252.73794 213.12 
L 252.798153 211.523168 
L 253.36394 211.523168 
L 253.36394 210.724752 
L 254.119596 210.724752 
L 254.119596 209.926337 
L 254.242444 209.926337 
L 254.340419 208.329505 
L 254.40753 208.329505 
L 254.486007 206.732673 
L 254.743731 206.732673 
L 254.743731 205.934257 
L 254.859464 205.934257 
L 254.859464 205.135842 
L 254.983366 205.135842 
L 255.057356 202.740594 
L 255.15755 202.740594 
L 255.15755 201.942178 
L 255.482536 201.942178 
L 255.482536 201.143762 
L 255.793694 201.143762 
L 255.831688 199.546931 
L 255.985611 199.546931 
L 255.985611 198.748515 
L 256.174737 198.748515 
L 256.218917 197.151683 
L 256.289732 197.151683 
L 256.289732 196.353267 
L 256.427428 196.353267 
L 256.535374 192.361188 
L 256.656267 192.361188 
L 256.656267 191.562772 
L 256.876113 191.562772 
L 256.966761 189.167525 
L 256.988344 189.167525 
L 256.988344 188.369109 
L 257.361405 188.369109 
L 257.425996 186.772277 
L 257.539211 186.772277 
L 257.637427 185.175446 
L 257.651071 185.175446 
L 257.732488 183.578614 
L 257.804192 183.578614 
L 257.913015 181.183366 
L 258.143037 181.183366 
L 258.246053 178.788119 
L 258.477563 178.788119 
L 258.538278 175.594455 
L 258.658905 175.594455 
L 258.658905 174.79604 
L 259.503848 174.79604 
L 259.530602 173.199208 
L 259.689732 173.199208 
L 259.772402 171.602376 
L 259.966026 171.602376 
L 259.966026 170.80396 
L 260.209741 170.80396 
L 260.312911 169.207129 
L 260.448027 169.207129 
L 260.532877 166.013465 
L 260.644625 166.013465 
L 260.682115 164.416634 
L 260.868332 164.416634 
L 260.921447 162.819802 
L 261.17015 162.819802 
L 261.17015 162.021386 
L 261.490967 162.021386 
L 261.591312 160.424554 
L 261.963793 160.424554 
L 261.963793 148.448317 
L 262.409862 148.448317 
L 262.512699 146.851485 
L 262.651035 146.851485 
L 262.651035 146.053069 
L 262.909958 146.053069 
L 263.005694 144.456238 
L 263.231545 144.456238 
L 263.231545 143.657822 
L 263.386427 143.657822 
L 263.386427 142.859406 
L 263.821999 142.859406 
L 263.828975 141.262574 
L 264.12247 141.262574 
L 264.12247 140.464158 
L 264.381638 140.464158 
L 264.381638 139.665743 
L 264.703537 139.665743 
L 264.767718 138.068911 
L 265.099088 138.068911 
L 265.202746 135.673663 
L 265.423126 135.673663 
L 265.423126 134.875248 
L 265.793639 134.875248 
L 265.793639 134.076832 
L 265.930164 134.076832 
L 265.930164 133.278416 
L 266.091988 133.278416 
L 266.091988 132.48 
L 266.285325 132.48 
L 266.321784 130.883168 
L 266.631408 130.883168 
L 266.631408 130.084752 
L 267.329078 130.084752 
L 267.329078 129.286337 
L 267.512667 129.286337 
L 267.512667 128.487921 
L 268.05323 128.487921 
L 268.05323 127.689505 
L 268.1942 127.689505 
L 268.252535 126.092673 
L 268.308097 126.092673 
L 268.344099 124.495842 
L 268.503241 124.495842 
L 268.503241 123.697426 
L 268.918973 123.697426 
L 268.918973 122.89901 
L 269.084825 122.89901 
L 269.104941 121.302178 
L 269.270092 121.302178 
L 269.270092 120.503762 
L 269.664893 120.503762 
L 269.664893 119.705347 
L 269.976672 119.705347 
L 270.07784 118.108515 
L 270.801963 118.108515 
L 270.829032 116.511683 
L 271.167362 116.511683 
L 271.167362 115.713267 
L 271.308756 115.713267 
L 271.308756 114.914851 
L 271.515745 114.914851 
L 271.515745 114.116436 
L 271.827956 114.116436 
L 271.90486 110.922772 
L 272.378624 110.922772 
L 272.378624 110.124356 
L 273.133872 110.124356 
L 273.133872 109.325941 
L 274.337182 109.325941 
L 274.337182 108.527525 
L 276.292778 108.527525 
L 276.353858 106.930693 
L 277.662207 106.930693 
L 277.738227 105.333861 
L 278.531696 105.333861 
L 278.531696 104.535446 
L 279.008106 104.535446 
L 279.008106 103.73703 
L 279.952503 103.73703 
L 279.974461 102.140198 
L 280.439231 102.140198 
L 280.439231 101.341782 
L 282.875366 101.341782 
L 282.875366 100.543366 
L 283.149399 100.543366 
L 283.149399 99.74495 
L 283.708063 99.74495 
L 283.708063 98.946535 
L 284.47981 98.946535 
L 284.47981 98.148119 
L 284.855636 98.148119 
L 284.855636 97.349703 
L 285.050519 97.349703 
L 285.050519 96.551287 
L 286.038083 96.551287 
L 286.038083 95.752871 
L 286.469307 95.752871 
L 286.469307 94.954455 
L 287.765023 94.954455 
L 287.765023 94.15604 
L 288.799211 94.15604 
L 288.799211 93.357624 
L 289.081597 93.357624 
L 289.081597 92.559208 
L 289.539408 92.559208 
L 289.539408 91.760792 
L 289.755043 91.760792 
L 289.755043 90.962376 
L 289.920598 90.962376 
L 289.920598 90.16396 
L 290.181634 90.16396 
L 290.181634 89.365545 
L 290.442035 89.365545 
L 290.442035 88.567129 
L 291.07011 88.567129 
L 291.07011 87.768713 
L 294.226489 87.768713 
L 294.226489 86.970297 
L 294.599522 86.970297 
L 294.599522 86.171881 
L 297.236294 86.171881 
L 297.236294 85.373465 
L 298.623217 85.373465 
L 298.623217 84.57505 
L 308.62758 84.57505 
L 308.62758 72.598812 
L 311.290752 72.598812 
L 311.290752 71.800396 
L 314.909861 71.800396 
L 314.909861 71.00198 
L 317.006667 71.00198 
L 317.006667 70.203564 
L 317.558398 70.203564 
L 317.558398 69.405149 
L 318.606944 69.405149 
L 318.606944 68.606733 
L 320.183236 68.606733 
L 320.183236 67.808317 
L 320.434971 67.808317 
L 320.434971 67.009901 
L 322.542696 67.009901 
L 322.542696 66.211485 
L 323.390251 66.211485 
L 323.390251 65.413069 
L 324.123438 65.413069 
L 324.123438 64.614653 
L 325.502436 64.614653 
L 325.502436 63.816238 
L 327.620735 63.816238 
L 327.620735 63.017822 
L 329.270313 63.017822 
L 329.270313 62.219406 
L 329.566029 62.219406 
L 329.566029 61.42099 
L 330.148929 61.42099 
L 330.148929 60.622574 
L 332.707677 60.622574 
L 332.707677 59.824158 
L 333.858378 59.824158 
L 333.858378 59.025743 
L 334.189873 59.025743 
L 334.189873 58.227327 
L 334.35855 58.227327 
L 334.35855 57.428911 
L 338.621342 57.428911 
L 338.621342 56.630495 
L 339.202813 56.630495 
L 339.202813 55.832079 
L 340.350736 55.832079 
L 340.350736 55.033663 
L 341.262167 55.033663 
L 341.262167 54.235248 
L 342.09986 54.235248 
L 342.09986 53.436832 
L 344.912042 53.436832 
L 344.912042 52.638416 
L 345.610027 52.638416 
L 345.610027 51.84 
L 353.089673 51.84 
L 353.089673 51.041584 
L 353.767885 51.041584 
L 353.767885 50.243168 
L 354.294528 50.243168 
L 354.294528 49.444752 
L 354.676375 49.444752 
L 354.676375 48.646337 
L 356.16136 48.646337 
L 356.16136 47.847921 
L 358.98036 47.847921 
L 358.98036 47.049505 
L 359.392695 47.049505 
L 359.466424 45.452673 
L 362.928931 45.452673 
L 362.928931 44.654257 
L 364.746627 44.654257 
L 364.746627 43.855842 
L 373.467428 43.855842 
L 373.467428 43.057426 
L 373.82911 43.057426 
L 373.82911 42.25901 
L 375.11151 42.25901 
L 375.11151 41.460594 
L 375.302872 41.460594 
L 375.302872 40.662178 
L 376.562833 40.662178 
L 376.562833 39.863762 
L 379.524087 39.863762 
L 379.524087 39.065347 
L 379.683548 39.065347 
L 379.697938 37.468515 
L 379.948744 37.468515 
L 379.948744 36.670099 
L 380.210897 36.670099 
L 380.210897 35.871683 
L 380.363322 35.871683 
L 380.363322 35.073267 
L 382.359075 35.073267 
L 382.359075 34.274851 
L 384.131703 34.274851 
L 384.131703 33.476436 
L 384.637644 33.476436 
L 384.637644 32.67802 
L 384.825993 32.67802 
L 384.825993 31.879604 
L 385.387386 31.879604 
L 385.387386 31.081188 
L 385.766846 31.081188 
L 385.766846 30.282772 
L 385.995292 30.282772 
L 385.995292 29.484356 
L 386.137481 29.484356 
L 386.140103 27.887525 
L 386.693917 27.887525 
L 386.693917 27.089109 
L 387.03385 27.089109 
L 387.03385 26.290693 
L 387.244902 26.290693 
L 387.244902 25.492277 
L 388.011717 25.492277 
L 388.011717 24.693861 
L 388.40672 24.693861 
L 388.40672 23.895446 
L 390.438965 23.895446 
L 390.438965 23.09703 
L 390.81681 23.09703 
L 390.81681 22.298614 
L 392.074211 22.298614 
L 392.074211 21.500198 
L 392.281184 21.500198 
L 392.281184 20.701782 
L 392.663824 20.701782 
L 392.663824 19.903366 
L 393.271003 19.903366 
L 393.271003 19.10495 
L 394.088979 19.10495 
L 394.088979 18.306535 
L 394.673946 18.306535 
L 394.673946 17.508119 
L 397.375858 17.508119 
L 397.375858 16.709703 
L 397.757901 16.709703 
L 397.757901 15.911287 
L 399.043974 15.911287 
L 399.043974 15.112871 
L 402.777022 15.112871 
L 402.777022 14.314455 
L 405.182222 14.314455 
L 405.182222 13.51604 
L 407.927271 13.51604 
L 407.927271 12.717624 
L 408.079031 12.717624 
L 408.109298 11.120792 
L 408.634719 11.120792 
L 408.634719 10.322376 
L 412.014261 10.322376 
L 412.014261 9.52396 
L 422.613894 9.52396 
L 422.613894 8.725545 
L 423.467192 8.725545 
L 423.467192 7.927129 
L 432.124351 7.927129 
L 432.124351 7.128713 
L 438.851767 7.128713 
L 438.851767 6.330297 
L 438.851767 6.330297 
L 460.8 6.330297 
L 460.8 6.330297 
" clip-path="url(#pb2a0a2f8d2)" style="fill: none; stroke: #00bfbf; stroke-width: 1.5; stroke-linecap: square"/>
   </g>
   <g id="line2d_23">
    <path d="M 193.154911 293.76 
L 193.154911 281.783762 
L 221.08343 281.783762 
L 221.08343 280.985347 
L 223.345452 280.985347 
L 223.345452 280.186931 
L 225.051636 280.186931 
L 225.051636 279.388515 
L 226.151172 279.388515 
L 226.151172 278.590099 
L 226.583366 278.590099 
L 226.583366 277.791683 
L 228.332665 277.791683 
L 228.381135 276.194851 
L 228.551308 276.194851 
L 228.551308 275.396436 
L 230.433358 275.396436 
L 230.472706 273.799604 
L 230.955127 273.799604 
L 230.955127 273.001188 
L 231.470477 273.001188 
L 231.470477 272.202772 
L 232.122525 272.202772 
L 232.122525 271.404356 
L 232.862309 271.404356 
L 232.862309 270.605941 
L 233.647939 270.605941 
L 233.647939 269.807525 
L 233.901392 269.807525 
L 233.901392 269.009109 
L 234.128364 269.009109 
L 234.128364 268.210693 
L 234.470478 268.210693 
L 234.498835 266.613861 
L 234.691471 266.613861 
L 234.691471 265.815446 
L 235.278911 265.815446 
L 235.382315 264.218614 
L 235.672836 264.218614 
L 235.672836 263.420198 
L 236.517925 263.420198 
L 236.517925 262.621782 
L 237.098924 262.621782 
L 237.183374 261.02495 
L 237.300135 261.02495 
L 237.300135 260.226535 
L 237.472227 260.226535 
L 237.481314 258.629703 
L 238.834669 258.629703 
L 238.834669 257.831287 
L 239.587123 257.831287 
L 239.587123 257.032871 
L 239.766717 257.032871 
L 239.766717 256.234455 
L 240.578159 256.234455 
L 240.578159 255.43604 
L 240.871615 255.43604 
L 240.932925 253.839208 
L 241.435895 253.839208 
L 241.435895 253.040792 
L 242.73083 253.040792 
L 242.73083 252.242376 
L 243.538616 252.242376 
L 243.571852 250.645545 
L 243.701576 250.645545 
L 243.79714 247.451881 
L 243.842497 247.451881 
L 243.911445 244.258218 
L 244.173548 244.258218 
L 244.273427 241.86297 
L 244.356657 241.86297 
L 244.361641 240.266139 
L 244.505429 240.266139 
L 244.558574 238.669307 
L 244.825692 238.669307 
L 244.825692 237.870891 
L 245.299093 237.870891 
L 245.311386 236.274059 
L 245.526871 236.274059 
L 245.526871 235.475644 
L 245.654513 235.475644 
L 245.704719 233.878812 
L 245.827416 233.878812 
L 245.84888 231.483564 
L 246.37626 231.483564 
L 246.37626 230.685149 
L 246.535902 230.685149 
L 246.535902 229.886733 
L 246.897794 229.886733 
L 246.897794 229.088317 
L 247.334451 229.088317 
L 247.334451 228.289901 
L 247.531167 228.289901 
L 247.555829 226.693069 
L 247.985396 226.693069 
L 247.985396 225.894653 
L 248.414976 225.894653 
L 248.511934 224.297822 
L 248.593677 224.297822 
L 248.692713 222.70099 
L 248.728197 222.70099 
L 248.728197 221.902574 
L 249.003071 221.902574 
L 249.003071 221.104158 
L 249.234958 221.104158 
L 249.234958 220.305743 
L 250.176208 220.305743 
L 250.176208 219.507327 
L 250.305387 219.507327 
L 250.305387 218.708911 
L 250.424758 218.708911 
L 250.424758 217.910495 
L 250.914094 217.910495 
L 251.017369 216.313663 
L 251.167831 216.313663 
L 251.167831 215.515248 
L 251.451979 215.515248 
L 251.451979 214.716832 
L 251.746743 214.716832 
L 251.787446 213.12 
L 252.096579 213.12 
L 252.096579 212.321584 
L 252.31226 212.321584 
L 252.31226 211.523168 
L 252.73794 211.523168 
L 252.822353 209.926337 
L 253.053614 209.926337 
L 253.053614 209.127921 
L 253.30996 209.127921 
L 253.411812 205.934257 
L 253.691902 205.934257 
L 253.691902 205.135842 
L 253.831713 205.135842 
L 253.885759 202.740594 
L 253.956432 202.740594 
L 254.006417 201.143762 
L 254.087132 201.143762 
L 254.186317 198.748515 
L 254.467291 198.748515 
L 254.575738 195.554851 
L 254.610675 195.554851 
L 254.610675 194.756436 
L 254.789826 194.756436 
L 254.879229 191.562772 
L 255.065694 191.562772 
L 255.07128 189.965941 
L 255.247296 189.965941 
L 255.247296 189.167525 
L 255.442323 189.167525 
L 255.472326 187.570693 
L 255.629337 187.570693 
L 255.721579 185.175446 
L 255.993502 185.175446 
L 256.068901 181.981782 
L 256.184388 181.981782 
L 256.277793 180.38495 
L 256.307057 180.38495 
L 256.377122 178.788119 
L 256.524088 178.788119 
L 256.632233 177.191287 
L 256.69136 177.191287 
L 256.69136 176.392871 
L 256.913986 176.392871 
L 256.913986 175.594455 
L 257.340309 175.594455 
L 257.340309 174.79604 
L 257.614688 174.79604 
L 257.621741 173.199208 
L 257.825085 173.199208 
L 257.86678 171.602376 
L 257.96575 171.602376 
L 257.96575 170.80396 
L 258.283932 170.80396 
L 258.383303 169.207129 
L 258.450492 169.207129 
L 258.51466 166.013465 
L 258.651662 166.013465 
L 258.651662 165.21505 
L 258.935447 165.21505 
L 258.993056 163.618218 
L 259.600517 163.618218 
L 259.600517 162.819802 
L 260.003694 162.819802 
L 260.003694 162.021386 
L 260.175324 162.021386 
L 260.229954 160.424554 
L 260.386015 160.424554 
L 260.408056 158.827723 
L 260.921447 158.827723 
L 260.921447 158.029307 
L 261.084593 158.029307 
L 261.161372 156.432475 
L 261.262147 156.432475 
L 261.262147 155.634059 
L 261.64411 155.634059 
L 261.64411 154.835644 
L 261.76525 154.835644 
L 261.76525 154.037228 
L 261.904469 154.037228 
L 261.963793 142.06099 
L 262.278877 142.06099 
L 262.278877 141.262574 
L 262.473925 141.262574 
L 262.473925 140.464158 
L 262.651035 140.464158 
L 262.754842 138.867327 
L 263.087771 138.867327 
L 263.087771 138.068911 
L 263.644737 138.068911 
L 263.644737 137.270495 
L 263.962673 137.270495 
L 263.979458 135.673663 
L 264.456579 135.673663 
L 264.456579 134.875248 
L 265.066821 134.875248 
L 265.101704 132.48 
L 265.232326 132.48 
L 265.232326 131.681584 
L 265.671321 131.681584 
L 265.671321 130.883168 
L 266.002135 130.883168 
L 266.091988 129.286337 
L 266.172031 129.286337 
L 266.172031 128.487921 
L 266.650937 128.487921 
L 266.650937 127.689505 
L 267.254965 127.689505 
L 267.254965 126.891089 
L 267.663205 126.891089 
L 267.756511 124.495842 
L 267.989971 124.495842 
L 267.989971 123.697426 
L 268.344099 123.697426 
L 268.442758 122.100594 
L 268.661424 122.100594 
L 268.737033 120.503762 
L 268.779325 120.503762 
L 268.779325 119.705347 
L 269.283856 119.705347 
L 269.283856 118.906931 
L 269.729136 118.906931 
L 269.7989 117.310099 
L 270.364425 117.310099 
L 270.435554 115.713267 
L 270.742843 115.713267 
L 270.742843 114.914851 
L 270.942477 114.914851 
L 270.942477 114.116436 
L 271.09649 114.116436 
L 271.09649 113.31802 
L 271.266283 113.31802 
L 271.266283 112.519604 
L 271.413917 112.519604 
L 271.431728 110.922772 
L 271.632162 110.922772 
L 271.644236 109.325941 
L 272.076521 109.325941 
L 272.076521 108.527525 
L 272.926982 108.527525 
L 272.926982 107.729109 
L 275.596656 107.729109 
L 275.596656 106.930693 
L 275.764143 106.930693 
L 275.764143 106.132277 
L 276.159663 106.132277 
L 276.159663 105.333861 
L 277.454443 105.333861 
L 277.454443 104.535446 
L 277.736785 104.535446 
L 277.814352 102.938614 
L 278.475076 102.938614 
L 278.531696 101.341782 
L 280.19203 101.341782 
L 280.19203 100.543366 
L 281.710884 100.543366 
L 281.710884 99.74495 
L 282.577959 99.74495 
L 282.577959 98.946535 
L 283.149399 98.946535 
L 283.149399 98.148119 
L 284.243059 98.148119 
L 284.243059 97.349703 
L 284.784837 97.349703 
L 284.784837 96.551287 
L 285.85281 96.551287 
L 285.85281 95.752871 
L 286.28681 95.752871 
L 286.28681 94.954455 
L 287.690952 94.954455 
L 287.690952 94.15604 
L 288.694248 94.15604 
L 288.697885 92.559208 
L 288.906872 92.559208 
L 288.906872 91.760792 
L 289.6237 91.760792 
L 289.6237 90.962376 
L 289.793199 90.962376 
L 289.793199 90.16396 
L 290.004843 90.16396 
L 290.004843 89.365545 
L 290.386587 89.365545 
L 290.386587 88.567129 
L 291.07011 88.567129 
L 291.07011 87.768713 
L 294.226489 87.768713 
L 294.226489 86.970297 
L 294.569348 86.970297 
L 294.569348 86.171881 
L 296.847908 86.171881 
L 296.847908 85.373465 
L 298.381124 85.373465 
L 298.381124 84.57505 
L 307.69876 84.57505 
L 307.69876 78.986139 
L 308.493928 78.986139 
L 308.493928 76.590891 
L 308.625355 76.590891 
L 308.62758 72.598812 
L 311.085396 72.598812 
L 311.085396 71.800396 
L 314.909861 71.800396 
L 314.909861 71.00198 
L 316.713852 71.00198 
L 316.713852 70.203564 
L 317.519395 70.203564 
L 317.519395 69.405149 
L 318.41623 69.405149 
L 318.41623 68.606733 
L 320.005799 68.606733 
L 320.005799 67.808317 
L 320.353225 67.808317 
L 320.396752 66.211485 
L 321.064554 66.211485 
L 321.064554 65.413069 
L 323.248065 65.413069 
L 323.248065 64.614653 
L 324.046653 64.614653 
L 324.046653 63.816238 
L 325.245309 63.816238 
L 325.245309 63.017822 
L 327.528089 63.017822 
L 327.528089 62.219406 
L 329.491324 62.219406 
L 329.491324 61.42099 
L 330.148929 61.42099 
L 330.148929 60.622574 
L 330.632773 60.622574 
L 330.632773 59.824158 
L 332.160706 59.824158 
L 332.160706 59.025743 
L 333.124719 59.025743 
L 333.124719 58.227327 
L 334.164748 58.227327 
L 334.222339 56.630495 
L 335.774343 56.630495 
L 335.774343 55.832079 
L 338.1898 55.832079 
L 338.1898 55.033663 
L 340.349174 55.033663 
L 340.349174 54.235248 
L 342.007184 54.235248 
L 342.007184 53.436832 
L 344.592011 53.436832 
L 344.592011 52.638416 
L 345.610025 52.638416 
L 345.610025 51.84 
L 351.303955 51.84 
L 351.303955 51.041584 
L 352.794215 51.041584 
L 352.794215 50.243168 
L 353.438032 50.243168 
L 353.438032 49.444752 
L 354.294221 49.444752 
L 354.294221 48.646337 
L 356.16136 48.646337 
L 356.16136 47.847921 
L 358.939151 47.847921 
L 358.939151 47.049505 
L 359.382439 47.049505 
L 359.436712 45.452673 
L 362.924249 45.452673 
L 362.924249 44.654257 
L 364.473023 44.654257 
L 364.473023 43.855842 
L 373.178869 43.855842 
L 373.178869 43.057426 
L 373.608477 43.057426 
L 373.608477 42.25901 
L 374.114935 42.25901 
L 374.11879 40.662178 
L 376.134569 40.662178 
L 376.134569 39.863762 
L 378.05019 39.863762 
L 378.05019 39.065347 
L 379.511769 39.065347 
L 379.524087 37.468515 
L 379.683548 37.468515 
L 379.683548 36.670099 
L 379.947717 36.670099 
L 379.947717 35.871683 
L 380.326128 35.871683 
L 380.326128 35.073267 
L 381.755898 35.073267 
L 381.755898 34.274851 
L 383.95247 34.274851 
L 383.95247 33.476436 
L 384.33105 33.476436 
L 384.389057 31.879604 
L 385.000984 31.879604 
L 385.000984 31.081188 
L 385.387385 31.081188 
L 385.387385 30.282772 
L 385.607871 30.282772 
L 385.607871 29.484356 
L 385.815264 29.484356 
L 385.921538 27.887525 
L 386.122841 27.887525 
L 386.122841 27.089109 
L 386.391319 27.089109 
L 386.391319 26.290693 
L 386.582463 26.290693 
L 386.582463 25.492277 
L 387.99815 25.492277 
L 388.018832 23.895446 
L 390.438965 23.895446 
L 390.438965 23.09703 
L 390.816382 23.09703 
L 390.816382 22.298614 
L 391.896591 22.298614 
L 391.896591 21.500198 
L 392.051476 21.500198 
L 392.051476 20.701782 
L 392.421431 20.701782 
L 392.421431 19.903366 
L 393.270663 19.903366 
L 393.270663 19.10495 
L 393.973585 19.10495 
L 393.973585 18.306535 
L 394.21585 18.306535 
L 394.21585 17.508119 
L 396.865782 17.508119 
L 396.865782 16.709703 
L 397.362309 16.709703 
L 397.362309 15.911287 
L 398.65012 15.911287 
L 398.65012 15.112871 
L 402.76585 15.112871 
L 402.76585 14.314455 
L 404.884111 14.314455 
L 404.884111 13.51604 
L 407.20909 13.51604 
L 407.213382 11.919208 
L 407.855131 11.919208 
L 407.855131 11.120792 
L 408.128279 11.120792 
L 408.128279 10.322376 
L 411.265206 10.322376 
L 411.265206 9.52396 
L 422.273121 9.52396 
L 422.273121 8.725545 
L 423.109889 8.725545 
L 423.109889 7.927129 
L 431.968943 7.927129 
L 431.968943 7.128713 
L 437.939152 7.128713 
L 437.939152 6.330297 
L 437.939152 6.330297 
L 460.8 6.330297 
L 460.8 6.330297 
" clip-path="url(#pb2a0a2f8d2)" style="fill: none; stroke: #bf00bf; stroke-width: 1.5; stroke-linecap: square"/>
   </g>
   <g id="line2d_24">
    <path d="M -0.112884 293.76 
L -0.112884 287.372673 
L 182.299684 287.372673 
L 182.299684 286.574257 
L 188.022532 286.574257 
L 188.022532 285.775842 
L 188.658445 285.775842 
L 188.658445 284.977426 
L 189.089755 284.977426 
L 189.089755 284.17901 
L 189.204724 284.17901 
L 189.204724 283.380594 
L 190.820398 283.380594 
L 190.820398 282.582178 
L 192.145914 282.582178 
L 192.145914 281.783762 
L 193.154911 281.783762 
L 193.154911 274.59802 
L 193.491228 274.59802 
L 193.491228 273.799604 
L 207.78255 273.799604 
L 207.78255 273.001188 
L 210.623528 273.001188 
L 210.623528 272.202772 
L 215.562689 272.202772 
L 215.562689 271.404356 
L 218.175741 271.404356 
L 218.175741 270.605941 
L 218.749855 270.605941 
L 218.749855 269.807525 
L 218.993556 269.807525 
L 218.993556 269.009109 
L 219.359188 269.009109 
L 219.359188 268.210693 
L 219.765139 268.210693 
L 219.765139 267.412277 
L 220.297357 267.412277 
L 220.297357 266.613861 
L 221.022102 266.613861 
L 221.08343 265.01703 
L 223.154645 265.01703 
L 223.154645 264.218614 
L 224.063487 264.218614 
L 224.063487 263.420198 
L 224.408574 263.420198 
L 224.49472 261.823366 
L 224.535851 261.823366 
L 224.643929 260.226535 
L 225.051636 260.226535 
L 225.051636 259.428119 
L 226.578361 259.428119 
L 226.578361 258.629703 
L 226.950101 258.629703 
L 226.97581 257.032871 
L 227.30183 257.032871 
L 227.30183 256.234455 
L 228.50499 256.234455 
L 228.551308 254.637624 
L 228.900024 254.637624 
L 229.002663 252.242376 
L 229.079142 252.242376 
L 229.094289 250.645545 
L 229.771374 250.645545 
L 229.771374 249.847129 
L 230.347548 249.847129 
L 230.402943 248.250297 
L 230.955127 248.250297 
L 230.955127 247.451881 
L 231.132201 247.451881 
L 231.132201 246.653465 
L 231.375037 246.653465 
L 231.375037 245.85505 
L 231.641128 245.85505 
L 231.641128 245.056634 
L 232.00585 245.056634 
L 232.00585 244.258218 
L 232.137448 244.258218 
L 232.137448 243.459802 
L 232.620331 243.459802 
L 232.620331 242.661386 
L 232.970834 242.661386 
L 232.970834 241.86297 
L 233.647939 241.86297 
L 233.647939 241.064554 
L 234.053759 241.064554 
L 234.053759 240.266139 
L 234.17761 240.266139 
L 234.17761 239.467723 
L 234.390716 239.467723 
L 234.470478 237.870891 
L 235.169416 237.870891 
L 235.278911 236.274059 
L 235.382315 236.274059 
L 235.487508 234.677228 
L 235.672836 234.677228 
L 235.672836 233.878812 
L 236.236129 233.878812 
L 236.26895 231.483564 
L 236.517925 231.483564 
L 236.517925 230.685149 
L 236.928847 230.685149 
L 237.036829 229.088317 
L 237.069211 229.088317 
L 237.069211 228.289901 
L 237.300135 228.289901 
L 237.300135 227.491485 
L 238.42787 227.491485 
L 238.42787 226.693069 
L 238.545386 226.693069 
L 238.545386 225.894653 
L 238.834669 225.894653 
L 238.834669 225.096238 
L 238.98812 225.096238 
L 238.98812 224.297822 
L 239.541949 224.297822 
L 239.541949 223.499406 
L 239.766717 223.499406 
L 239.766717 222.70099 
L 240.051165 222.70099 
L 240.051165 221.902574 
L 240.537091 221.902574 
L 240.537091 221.104158 
L 242.496676 221.104158 
L 242.496676 220.305743 
L 243.228126 220.305743 
L 243.228126 219.507327 
L 243.701576 219.507327 
L 243.747853 216.313663 
L 243.842497 216.313663 
L 243.842497 215.515248 
L 244.173548 215.515248 
L 244.173548 214.716832 
L 244.304276 214.716832 
L 244.304276 213.918416 
L 244.461467 213.918416 
L 244.558574 212.321584 
L 244.754368 212.321584 
L 244.754368 211.523168 
L 245.299093 211.523168 
L 245.299093 210.724752 
L 245.494416 210.724752 
L 245.494416 209.926337 
L 245.654513 209.926337 
L 245.654513 209.127921 
L 245.783199 209.127921 
L 245.783199 208.329505 
L 245.971035 208.329505 
L 245.971035 207.531089 
L 246.129355 207.531089 
L 246.129355 206.732673 
L 246.66392 206.732673 
L 246.712828 205.135842 
L 247.334451 205.135842 
L 247.334451 204.337426 
L 247.531167 204.337426 
L 247.615638 202.740594 
L 247.838605 202.740594 
L 247.838605 201.942178 
L 247.986411 201.942178 
L 248.069124 200.345347 
L 248.173116 200.345347 
L 248.173116 199.546931 
L 248.594915 199.546931 
L 248.594915 198.748515 
L 248.728197 198.748515 
L 248.728197 197.950099 
L 249.265535 197.950099 
L 249.303163 196.353267 
L 249.629906 196.353267 
L 249.629906 195.554851 
L 249.747116 195.554851 
L 249.747116 194.756436 
L 249.910247 194.756436 
L 249.96723 192.361188 
L 250.176208 192.361188 
L 250.176208 191.562772 
L 250.452219 191.562772 
L 250.452219 190.764356 
L 250.624223 190.764356 
L 250.624223 189.965941 
L 250.846068 189.965941 
L 250.935371 188.369109 
L 251.016814 188.369109 
L 251.016814 187.570693 
L 251.467343 187.570693 
L 251.467343 186.772277 
L 251.746743 186.772277 
L 251.832517 185.175446 
L 252.006731 185.175446 
L 252.006731 184.37703 
L 252.13317 184.37703 
L 252.238131 181.981782 
L 252.31226 181.981782 
L 252.31226 181.183366 
L 252.558006 181.183366 
L 252.558006 180.38495 
L 252.76411 180.38495 
L 252.805338 177.989703 
L 253.336529 177.989703 
L 253.432847 174.79604 
L 253.600775 174.79604 
L 253.612708 173.199208 
L 253.754053 173.199208 
L 253.831713 170.80396 
L 253.885759 170.80396 
L 253.885759 170.005545 
L 254.0019 170.005545 
L 254.087132 168.408713 
L 254.233838 168.408713 
L 254.233838 167.610297 
L 254.40901 167.610297 
L 254.509819 166.013465 
L 254.603111 166.013465 
L 254.626166 164.416634 
L 254.857476 164.416634 
L 254.857476 163.618218 
L 255.009493 163.618218 
L 255.07128 162.021386 
L 255.272182 162.021386 
L 255.272182 161.22297 
L 255.444917 161.22297 
L 255.465222 159.626139 
L 255.629337 159.626139 
L 255.724098 158.029307 
L 255.993502 158.029307 
L 256.067133 156.432475 
L 256.277793 156.432475 
L 256.277793 155.634059 
L 256.96425 155.634059 
L 257.059504 154.037228 
L 257.100135 154.037228 
L 257.100135 153.238812 
L 257.409777 153.238812 
L 257.409777 152.440396 
L 257.614688 152.440396 
L 257.614688 151.64198 
L 257.945535 151.64198 
L 257.945535 150.843564 
L 258.319949 150.843564 
L 258.383303 149.246733 
L 258.450492 149.246733 
L 258.484552 146.851485 
L 258.993056 146.851485 
L 258.993056 146.053069 
L 259.145131 146.053069 
L 259.254376 144.456238 
L 259.306339 144.456238 
L 259.327343 142.859406 
L 259.447323 142.859406 
L 259.447323 142.06099 
L 259.883219 142.06099 
L 259.883219 141.262574 
L 260.026507 141.262574 
L 260.026507 140.464158 
L 260.386015 140.464158 
L 260.448024 138.867327 
L 260.921447 138.867327 
L 260.921447 138.068911 
L 261.161372 138.068911 
L 261.20892 136.472079 
L 261.291377 136.472079 
L 261.291377 135.673663 
L 261.44306 135.673663 
L 261.44306 134.875248 
L 261.55785 134.875248 
L 261.55785 134.076832 
L 261.858083 134.076832 
L 261.858083 133.278416 
L 262.063941 133.278416 
L 262.063941 132.48 
L 262.289517 132.48 
L 262.334906 130.883168 
L 262.473925 130.883168 
L 262.473925 130.084752 
L 262.651035 130.084752 
L 262.651035 129.286337 
L 263.321792 129.286337 
L 263.321792 128.487921 
L 263.745216 128.487921 
L 263.745216 127.689505 
L 264.038097 127.689505 
L 264.038097 126.891089 
L 264.276135 126.891089 
L 264.276135 126.092673 
L 264.456579 126.092673 
L 264.456579 125.294257 
L 264.690729 125.294257 
L 264.749749 123.697426 
L 264.971284 123.697426 
L 264.971284 122.89901 
L 265.348261 122.89901 
L 265.348261 122.100594 
L 265.478317 122.100594 
L 265.478317 121.302178 
L 265.846039 121.302178 
L 265.846039 120.503762 
L 266.082053 120.503762 
L 266.082053 119.705347 
L 266.309512 119.705347 
L 266.309512 118.906931 
L 266.524479 118.906931 
L 266.598849 117.310099 
L 266.722778 117.310099 
L 266.722778 116.511683 
L 267.239476 116.511683 
L 267.239476 115.713267 
L 267.498814 115.713267 
L 267.498814 114.914851 
L 268.090453 114.914851 
L 268.187163 113.31802 
L 268.265057 113.31802 
L 268.344099 111.721188 
L 268.415797 111.721188 
L 268.442758 110.124356 
L 268.779325 110.124356 
L 268.779325 109.325941 
L 268.9892 109.325941 
L 268.9892 108.527525 
L 270.079376 108.527525 
L 270.082481 106.930693 
L 270.207776 106.930693 
L 270.25628 105.333861 
L 270.507031 105.333861 
L 270.507031 104.535446 
L 271.092473 104.535446 
L 271.092473 103.73703 
L 271.224292 103.73703 
L 271.224292 102.938614 
L 271.355458 102.938614 
L 271.413917 100.543366 
L 271.778065 100.543366 
L 271.778065 99.74495 
L 272.008753 99.74495 
L 272.076521 98.148119 
L 272.80279 98.148119 
L 272.842772 96.551287 
L 273.329348 96.551287 
L 273.329348 95.752871 
L 273.902884 95.752871 
L 273.920516 94.15604 
L 274.102752 94.15604 
L 274.102752 93.357624 
L 275.098806 93.357624 
L 275.098806 92.559208 
L 276.116374 92.559208 
L 276.116374 91.760792 
L 276.354701 91.760792 
L 276.405134 90.16396 
L 276.879412 90.16396 
L 276.879412 89.365545 
L 277.000962 89.365545 
L 277.000962 88.567129 
L 277.128979 88.567129 
L 277.128979 87.768713 
L 277.494842 87.768713 
L 277.494842 86.970297 
L 277.736785 86.970297 
L 277.814352 85.373465 
L 278.102627 85.373465 
L 278.161382 83.776634 
L 278.475076 83.776634 
L 278.531696 82.179802 
L 279.007334 82.179802 
L 279.007334 81.381386 
L 279.325546 81.381386 
L 279.325546 80.58297 
L 279.515316 80.58297 
L 279.515316 79.784554 
L 280.585399 79.784554 
L 280.631721 78.187723 
L 281.122868 78.187723 
L 281.122868 77.389307 
L 281.491221 77.389307 
L 281.491221 76.590891 
L 281.710884 76.590891 
L 281.710884 75.792475 
L 282.696004 75.792475 
L 282.696004 74.994059 
L 286.777578 74.994059 
L 286.777578 74.195644 
L 287.231917 74.195644 
L 287.231917 73.397228 
L 288.897704 73.397228 
L 288.897704 72.598812 
L 289.412005 72.598812 
L 289.412005 71.800396 
L 290.287311 71.800396 
L 290.287311 71.00198 
L 291.45591 71.00198 
L 291.45591 70.203564 
L 294.827111 70.203564 
L 294.827111 69.405149 
L 295.262389 69.405149 
L 295.262389 68.606733 
L 300.153664 68.606733 
L 300.153664 67.808317 
L 300.497893 67.808317 
L 300.497893 67.009901 
L 300.859923 67.009901 
L 300.859923 66.211485 
L 300.988603 66.211485 
L 300.988603 65.413069 
L 301.915609 65.413069 
L 301.915609 64.614653 
L 302.045712 64.614653 
L 302.045712 63.816238 
L 302.341609 63.816238 
L 302.394341 62.219406 
L 302.566387 62.219406 
L 302.566387 61.42099 
L 304.443905 61.42099 
L 304.443905 60.622574 
L 305.135338 60.622574 
L 305.135338 59.824158 
L 306.844715 59.824158 
L 306.844715 59.025743 
L 309.297864 59.025743 
L 309.297864 58.227327 
L 309.814482 58.227327 
L 309.814482 57.428911 
L 313.004898 57.428911 
L 313.004898 56.630495 
L 319.041649 56.630495 
L 319.041649 55.832079 
L 319.181399 55.832079 
L 319.181399 55.033663 
L 320.926201 55.033663 
L 320.926201 54.235248 
L 325.988586 54.235248 
L 325.988586 53.436832 
L 327.105271 53.436832 
L 327.105271 52.638416 
L 330.306025 52.638416 
L 330.306025 51.84 
L 332.472097 51.84 
L 332.472097 51.041584 
L 334.181269 51.041584 
L 334.181269 50.243168 
L 334.366035 50.243168 
L 334.366035 49.444752 
L 335.524747 49.444752 
L 335.524747 48.646337 
L 336.926172 48.646337 
L 336.926172 47.847921 
L 337.68417 47.847921 
L 337.68417 47.049505 
L 338.967711 47.049505 
L 338.967711 46.251089 
L 339.155217 46.251089 
L 339.155217 45.452673 
L 342.183767 45.452673 
L 342.220183 43.855842 
L 343.941777 43.855842 
L 343.941777 43.057426 
L 344.575851 43.057426 
L 344.575851 42.25901 
L 345.782783 42.25901 
L 345.782783 41.460594 
L 347.116909 41.460594 
L 347.116909 40.662178 
L 347.716163 40.662178 
L 347.716163 39.863762 
L 349.630192 39.863762 
L 349.630192 39.065347 
L 349.904401 39.065347 
L 349.904401 38.266931 
L 350.469815 38.266931 
L 350.469815 37.468515 
L 350.613426 37.468515 
L 350.613426 36.670099 
L 351.036023 36.670099 
L 351.036023 35.871683 
L 352.440896 35.871683 
L 352.440896 35.073267 
L 352.749093 35.073267 
L 352.749093 34.274851 
L 354.24497 34.274851 
L 354.24497 33.476436 
L 354.864664 33.476436 
L 354.921809 31.879604 
L 355.920235 31.879604 
L 355.920235 31.081188 
L 356.516021 31.081188 
L 356.516021 30.282772 
L 357.027146 30.282772 
L 357.027146 29.484356 
L 357.498847 29.484356 
L 357.498847 28.685941 
L 357.767121 28.685941 
L 357.820998 27.089109 
L 359.27942 27.089109 
L 359.27942 26.290693 
L 360.51048 26.290693 
L 360.51048 25.492277 
L 361.598195 25.492277 
L 361.598195 24.693861 
L 361.741821 24.693861 
L 361.741821 23.895446 
L 362.342059 23.895446 
L 362.342059 23.09703 
L 362.592151 23.09703 
L 362.592151 22.298614 
L 363.674048 22.298614 
L 363.674048 21.500198 
L 364.301789 21.500198 
L 364.301789 20.701782 
L 364.875255 20.701782 
L 364.875255 19.903366 
L 365.617271 19.903366 
L 365.617271 19.10495 
L 366.907273 19.10495 
L 366.907273 18.306535 
L 369.273926 18.306535 
L 369.273926 17.508119 
L 370.653578 17.508119 
L 370.653578 16.709703 
L 372.483744 16.709703 
L 372.483744 15.911287 
L 373.182689 15.911287 
L 373.182689 15.112871 
L 374.724539 15.112871 
L 374.724539 14.314455 
L 382.912356 14.314455 
L 382.912356 13.51604 
L 386.037928 13.51604 
L 386.062681 11.919208 
L 391.666278 11.919208 
L 391.666278 11.120792 
L 393.937201 11.120792 
L 393.937201 10.322376 
L 396.635781 10.322376 
L 396.635781 9.52396 
L 401.996117 9.52396 
L 401.996117 8.725545 
L 408.065883 8.725545 
L 408.065883 7.927129 
L 413.257589 7.927129 
L 413.257589 7.128713 
L 417.086294 7.128713 
L 417.086294 6.330297 
L 417.086294 6.330297 
L 460.8 6.330297 
L 460.8 6.330297 
" clip-path="url(#pb2a0a2f8d2)" style="fill: none; stroke: #000000; stroke-width: 1.5; stroke-linecap: square"/>
   </g>
   <g id="patch_3">
    <path d="M 0 293.76 
L 0 3.456 
" style="fill: none; stroke: #000000; stroke-width: 0.8; stroke-linejoin: miter; stroke-linecap: square"/>
   </g>
   <g id="patch_4">
    <path d="M 460.8 293.76 
L 460.8 3.456 
" style="fill: none; stroke: #000000; stroke-width: 0.8; stroke-linejoin: miter; stroke-linecap: square"/>
   </g>
   <g id="patch_5">
    <path d="M 0 293.76 
L 460.8 293.76 
" style="fill: none; stroke: #000000; stroke-width: 0.8; stroke-linejoin: miter; stroke-linecap: square"/>
   </g>
   <g id="patch_6">
    <path d="M 0 3.456 
L 460.8 3.456 
" style="fill: none; stroke: #000000; stroke-width: 0.8; stroke-linejoin: miter; stroke-linecap: square"/>
   </g>
   <g id="text_6">
    <!-- {f1-f24}, 5-D -->
    <g transform="translate(318.609 287.95392) scale(0.2 -0.2)">
     <defs>
      <path id="DejaVuSans-7b" d="M 3272 -594 
L 3272 -1044 
L 3078 -1044 
Q 2300 -1044 2036 -812 
Q 1772 -581 1772 109 
L 1772 856 
Q 1772 1328 1603 1509 
Q 1434 1691 991 1691 
L 800 1691 
L 800 2138 
L 991 2138 
Q 1438 2138 1605 2317 
Q 1772 2497 1772 2963 
L 1772 3713 
Q 1772 4403 2036 4633 
Q 2300 4863 3078 4863 
L 3272 4863 
L 3272 4416 
L 3059 4416 
Q 2619 4416 2484 4278 
Q 2350 4141 2350 3700 
L 2350 2925 
Q 2350 2434 2208 2212 
Q 2066 1991 1722 1913 
Q 2069 1828 2209 1606 
Q 2350 1384 2350 897 
L 2350 122 
Q 2350 -319 2484 -456 
Q 2619 -594 3059 -594 
L 3272 -594 
z
" transform="scale(0.015625)"/>
      <path id="DejaVuSans-32" d="M 1228 531 
L 3431 531 
L 3431 0 
L 469 0 
L 469 531 
Q 828 903 1448 1529 
Q 2069 2156 2228 2338 
Q 2531 2678 2651 2914 
Q 2772 3150 2772 3378 
Q 2772 3750 2511 3984 
Q 2250 4219 1831 4219 
Q 1534 4219 1204 4116 
Q 875 4013 500 3803 
L 500 4441 
Q 881 4594 1212 4672 
Q 1544 4750 1819 4750 
Q 2544 4750 2975 4387 
Q 3406 4025 3406 3419 
Q 3406 3131 3298 2873 
Q 3191 2616 2906 2266 
Q 2828 2175 2409 1742 
Q 1991 1309 1228 531 
z
" transform="scale(0.015625)"/>
      <path id="DejaVuSans-7d" d="M 800 -594 
L 1019 -594 
Q 1456 -594 1589 -459 
Q 1722 -325 1722 122 
L 1722 897 
Q 1722 1384 1862 1606 
Q 2003 1828 2350 1913 
Q 2003 1991 1862 2212 
Q 1722 2434 1722 2925 
L 1722 3700 
Q 1722 4144 1589 4280 
Q 1456 4416 1019 4416 
L 800 4416 
L 800 4863 
L 997 4863 
Q 1775 4863 2036 4633 
Q 2297 4403 2297 3713 
L 2297 2963 
Q 2297 2497 2465 2317 
Q 2634 2138 3078 2138 
L 3272 2138 
L 3272 1691 
L 3078 1691 
Q 2634 1691 2465 1509 
Q 2297 1328 2297 856 
L 2297 109 
Q 2297 -581 2036 -812 
Q 1775 -1044 997 -1044 
L 800 -1044 
L 800 -594 
z
" transform="scale(0.015625)"/>
      <path id="DejaVuSans-2c" d="M 750 794 
L 1409 794 
L 1409 256 
L 897 -744 
L 494 -744 
L 750 256 
L 750 794 
z
" transform="scale(0.015625)"/>
      <path id="DejaVuSans-35" d="M 691 4666 
L 3169 4666 
L 3169 4134 
L 1269 4134 
L 1269 2991 
Q 1406 3038 1543 3061 
Q 1681 3084 1819 3084 
Q 2600 3084 3056 2656 
Q 3513 2228 3513 1497 
Q 3513 744 3044 326 
Q 2575 -91 1722 -91 
Q 1428 -91 1123 -41 
Q 819 9 494 109 
L 494 744 
Q 775 591 1075 516 
Q 1375 441 1709 441 
Q 2250 441 2565 725 
Q 2881 1009 2881 1497 
Q 2881 1984 2565 2268 
Q 2250 2553 1709 2553 
Q 1456 2553 1204 2497 
Q 953 2441 691 2322 
L 691 4666 
z
" transform="scale(0.015625)"/>
     </defs>
     <use xlink:href="#DejaVuSans-7b"/>
     <use xlink:href="#DejaVuSans-66" x="63.623047"/>
     <use xlink:href="#DejaVuSans-31" x="98.828125"/>
     <use xlink:href="#DejaVuSans-2d" x="162.451172"/>
     <use xlink:href="#DejaVuSans-66" x="198.535156"/>
     <use xlink:href="#DejaVuSans-32" x="233.740234"/>
     <use xlink:href="#DejaVuSans-34" x="297.363281"/>
     <use xlink:href="#DejaVuSans-7d" x="360.986328"/>
     <use xlink:href="#DejaVuSans-2c" x="424.609375"/>
     <use xlink:href="#DejaVuSans-20" x="456.396484"/>
     <use xlink:href="#DejaVuSans-35" x="488.183594"/>
     <use xlink:href="#DejaVuSans-2d" x="551.806641"/>
     <use xlink:href="#DejaVuSans-44" x="587.890625"/>
    </g>
   </g>
   <g id="text_7">
    <!-- v2.6.3 -->
    <g style="fill: #808080" transform="translate(214.71875 288.777272) scale(0.1 -0.1)">
     <defs>
      <path id="DejaVuSans-76" d="M 191 3500 
L 800 3500 
L 1894 563 
L 2988 3500 
L 3597 3500 
L 2284 0 
L 1503 0 
L 191 3500 
z
" transform="scale(0.015625)"/>
      <path id="DejaVuSans-2e" d="M 684 794 
L 1344 794 
L 1344 0 
L 684 0 
L 684 794 
z
" transform="scale(0.015625)"/>
      <path id="DejaVuSans-36" d="M 2113 2584 
Q 1688 2584 1439 2293 
Q 1191 2003 1191 1497 
Q 1191 994 1439 701 
Q 1688 409 2113 409 
Q 2538 409 2786 701 
Q 3034 994 3034 1497 
Q 3034 2003 2786 2293 
Q 2538 2584 2113 2584 
z
M 3366 4563 
L 3366 3988 
Q 3128 4100 2886 4159 
Q 2644 4219 2406 4219 
Q 1781 4219 1451 3797 
Q 1122 3375 1075 2522 
Q 1259 2794 1537 2939 
Q 1816 3084 2150 3084 
Q 2853 3084 3261 2657 
Q 3669 2231 3669 1497 
Q 3669 778 3244 343 
Q 2819 -91 2113 -91 
Q 1303 -91 875 529 
Q 447 1150 447 2328 
Q 447 3434 972 4092 
Q 1497 4750 2381 4750 
Q 2619 4750 2861 4703 
Q 3103 4656 3366 4563 
z
" transform="scale(0.015625)"/>
      <path id="DejaVuSans-33" d="M 2597 2516 
Q 3050 2419 3304 2112 
Q 3559 1806 3559 1356 
Q 3559 666 3084 287 
Q 2609 -91 1734 -91 
Q 1441 -91 1130 -33 
Q 819 25 488 141 
L 488 750 
Q 750 597 1062 519 
Q 1375 441 1716 441 
Q 2309 441 2620 675 
Q 2931 909 2931 1356 
Q 2931 1769 2642 2001 
Q 2353 2234 1838 2234 
L 1294 2234 
L 1294 2753 
L 1863 2753 
Q 2328 2753 2575 2939 
Q 2822 3125 2822 3475 
Q 2822 3834 2567 4026 
Q 2313 4219 1838 4219 
Q 1578 4219 1281 4162 
Q 984 4106 628 3988 
L 628 4550 
Q 988 4650 1302 4700 
Q 1616 4750 1894 4750 
Q 2613 4750 3031 4423 
Q 3450 4097 3450 3541 
Q 3450 3153 3228 2886 
Q 3006 2619 2597 2516 
z
" transform="scale(0.015625)"/>
     </defs>
     <use xlink:href="#DejaVuSans-76"/>
     <use xlink:href="#DejaVuSans-32" x="59.179688"/>
     <use xlink:href="#DejaVuSans-2e" x="122.802734"/>
     <use xlink:href="#DejaVuSans-36" x="154.589844"/>
     <use xlink:href="#DejaVuSans-2e" x="218.212891"/>
     <use xlink:href="#DejaVuSans-33" x="250"/>
    </g>
   </g>
  </g>
 </g>
 <defs>
  <clipPath id="pb2a0a2f8d2">
   <rect x="0" y="3.456" width="460.8" height="290.304"/>
  </clipPath>
 </defs>
</svg>
