<?xml version="1.0" encoding="utf-8" standalone="no"?>
<!DOCTYPE svg PUBLIC "-//W3C//DTD SVG 1.1//EN"
  "http://www.w3.org/Graphics/SVG/1.1/DTD/svg11.dtd">
<svg xmlns:xlink="http://www.w3.org/1999/xlink" width="460.8pt" height="345.6pt" viewBox="0 0 460.8 345.6" xmlns="http://www.w3.org/2000/svg" version="1.1">
 <metadata>
  <rdf:RDF xmlns:dc="http://purl.org/dc/elements/1.1/" xmlns:cc="http://creativecommons.org/ns#" xmlns:rdf="http://www.w3.org/1999/02/22-rdf-syntax-ns#">
   <cc:Work>
    <dc:type rdf:resource="http://purl.org/dc/dcmitype/StillImage"/>
    <dc:date>2024-01-17T15:57:04.532575</dc:date>
    <dc:format>image/svg+xml</dc:format>
    <dc:creator>
     <cc:Agent>
      <dc:title>Matplotlib v3.8.2, https://matplotlib.org/</dc:title>
     </cc:Agent>
    </dc:creator>
   </cc:Work>
  </rdf:RDF>
 </metadata>
 <defs>
  <style type="text/css">*{stroke-linejoin: round; stroke-linecap: butt}</style>
 </defs>
 <g id="figure_1">
  <g id="patch_1">
   <path d="M 0 345.6 
L 460.8 345.6 
L 460.8 0 
L 0 0 
z
" style="fill: #ffffff"/>
  </g>
  <g id="axes_1">
   <g id="patch_2">
    <path d="M 0 293.76 
L 460.8 293.76 
L 460.8 3.456 
L 0 3.456 
z
" style="fill: #ffffff"/>
   </g>
   <g id="matplotlib.axis_1">
    <g id="xtick_1">
     <g id="line2d_1">
      <path d="M 104.5682 293.76 
L 104.5682 3.456 
" clip-path="url(#pef6d8ecd58)" style="fill: none; stroke: #b0b0b0; stroke-width: 0.8; stroke-linecap: square"/>
     </g>
     <g id="line2d_2">
      <defs>
       <path id="mdca3820333" d="M 0 0 
L 0 3.5 
" style="stroke: #000000; stroke-width: 0.8"/>
      </defs>
      <g>
       <use xlink:href="#mdca3820333" x="104.5682" y="293.76" style="stroke: #000000; stroke-width: 0.8"/>
      </g>
     </g>
     <g id="text_1">
      <!-- -4 -->
      <g transform="translate(94.597887 315.956875) scale(0.2 -0.2)">
       <defs>
        <path id="DejaVuSans-2d" d="M 313 2009 
L 1997 2009 
L 1997 1497 
L 313 1497 
L 313 2009 
z
" transform="scale(0.015625)"/>
        <path id="DejaVuSans-34" d="M 2419 4116 
L 825 1625 
L 2419 1625 
L 2419 4116 
z
M 2253 4666 
L 3047 4666 
L 3047 1625 
L 3713 1625 
L 3713 1100 
L 3047 1100 
L 3047 0 
L 2419 0 
L 2419 1100 
L 313 1100 
L 313 1709 
L 2253 4666 
z
" transform="scale(0.015625)"/>
       </defs>
       <use xlink:href="#DejaVuSans-2d"/>
       <use xlink:href="#DejaVuSans-34" x="36.083984"/>
      </g>
     </g>
    </g>
    <g id="xtick_2">
     <g id="line2d_3">
      <path d="M 209.249491 293.76 
L 209.249491 3.456 
" clip-path="url(#pef6d8ecd58)" style="fill: none; stroke: #b0b0b0; stroke-width: 0.8; stroke-linecap: square"/>
     </g>
     <g id="line2d_4">
      <g>
       <use xlink:href="#mdca3820333" x="209.249491" y="293.76" style="stroke: #000000; stroke-width: 0.8"/>
      </g>
     </g>
     <g id="text_2">
      <!-- 0 -->
      <g transform="translate(202.886991 315.956875) scale(0.2 -0.2)">
       <defs>
        <path id="DejaVuSans-30" d="M 2034 4250 
Q 1547 4250 1301 3770 
Q 1056 3291 1056 2328 
Q 1056 1369 1301 889 
Q 1547 409 2034 409 
Q 2525 409 2770 889 
Q 3016 1369 3016 2328 
Q 3016 3291 2770 3770 
Q 2525 4250 2034 4250 
z
M 2034 4750 
Q 2819 4750 3233 4129 
Q 3647 3509 3647 2328 
Q 3647 1150 3233 529 
Q 2819 -91 2034 -91 
Q 1250 -91 836 529 
Q 422 1150 422 2328 
Q 422 3509 836 4129 
Q 1250 4750 2034 4750 
z
" transform="scale(0.015625)"/>
       </defs>
       <use xlink:href="#DejaVuSans-30"/>
      </g>
     </g>
    </g>
    <g id="xtick_3">
     <g id="line2d_5">
      <path d="M 313.930783 293.76 
L 313.930783 3.456 
" clip-path="url(#pef6d8ecd58)" style="fill: none; stroke: #b0b0b0; stroke-width: 0.8; stroke-linecap: square"/>
     </g>
     <g id="line2d_6">
      <g>
       <use xlink:href="#mdca3820333" x="313.930783" y="293.76" style="stroke: #000000; stroke-width: 0.8"/>
      </g>
     </g>
     <g id="text_3">
      <!-- 4 -->
      <g transform="translate(307.568283 315.956875) scale(0.2 -0.2)">
       <use xlink:href="#DejaVuSans-34"/>
      </g>
     </g>
    </g>
    <g id="xtick_4">
     <g id="line2d_7">
      <path d="M 418.612074 293.76 
L 418.612074 3.456 
" clip-path="url(#pef6d8ecd58)" style="fill: none; stroke: #b0b0b0; stroke-width: 0.8; stroke-linecap: square"/>
     </g>
     <g id="line2d_8">
      <g>
       <use xlink:href="#mdca3820333" x="418.612074" y="293.76" style="stroke: #000000; stroke-width: 0.8"/>
      </g>
     </g>
     <g id="text_4">
      <!-- 8 -->
      <g transform="translate(412.249574 315.956875) scale(0.2 -0.2)">
       <defs>
        <path id="DejaVuSans-38" d="M 2034 2216 
Q 1584 2216 1326 1975 
Q 1069 1734 1069 1313 
Q 1069 891 1326 650 
Q 1584 409 2034 409 
Q 2484 409 2743 651 
Q 3003 894 3003 1313 
Q 3003 1734 2745 1975 
Q 2488 2216 2034 2216 
z
M 1403 2484 
Q 997 2584 770 2862 
Q 544 3141 544 3541 
Q 544 4100 942 4425 
Q 1341 4750 2034 4750 
Q 2731 4750 3128 4425 
Q 3525 4100 3525 3541 
Q 3525 3141 3298 2862 
Q 3072 2584 2669 2484 
Q 3125 2378 3379 2068 
Q 3634 1759 3634 1313 
Q 3634 634 3220 271 
Q 2806 -91 2034 -91 
Q 1263 -91 848 271 
Q 434 634 434 1313 
Q 434 1759 690 2068 
Q 947 2378 1403 2484 
z
M 1172 3481 
Q 1172 3119 1398 2916 
Q 1625 2713 2034 2713 
Q 2441 2713 2670 2916 
Q 2900 3119 2900 3481 
Q 2900 3844 2670 4047 
Q 2441 4250 2034 4250 
Q 1625 4250 1398 4047 
Q 1172 3844 1172 3481 
z
" transform="scale(0.015625)"/>
       </defs>
       <use xlink:href="#DejaVuSans-38"/>
      </g>
     </g>
    </g>
    <g id="text_5">
     <!-- log10 of Df -->
     <g transform="translate(175.214063 339.313125) scale(0.2 -0.2)">
      <defs>
       <path id="DejaVuSans-6c" d="M 603 4863 
L 1178 4863 
L 1178 0 
L 603 0 
L 603 4863 
z
" transform="scale(0.015625)"/>
       <path id="DejaVuSans-6f" d="M 1959 3097 
Q 1497 3097 1228 2736 
Q 959 2375 959 1747 
Q 959 1119 1226 758 
Q 1494 397 1959 397 
Q 2419 397 2687 759 
Q 2956 1122 2956 1747 
Q 2956 2369 2687 2733 
Q 2419 3097 1959 3097 
z
M 1959 3584 
Q 2709 3584 3137 3096 
Q 3566 2609 3566 1747 
Q 3566 888 3137 398 
Q 2709 -91 1959 -91 
Q 1206 -91 779 398 
Q 353 888 353 1747 
Q 353 2609 779 3096 
Q 1206 3584 1959 3584 
z
" transform="scale(0.015625)"/>
       <path id="DejaVuSans-67" d="M 2906 1791 
Q 2906 2416 2648 2759 
Q 2391 3103 1925 3103 
Q 1463 3103 1205 2759 
Q 947 2416 947 1791 
Q 947 1169 1205 825 
Q 1463 481 1925 481 
Q 2391 481 2648 825 
Q 2906 1169 2906 1791 
z
M 3481 434 
Q 3481 -459 3084 -895 
Q 2688 -1331 1869 -1331 
Q 1566 -1331 1297 -1286 
Q 1028 -1241 775 -1147 
L 775 -588 
Q 1028 -725 1275 -790 
Q 1522 -856 1778 -856 
Q 2344 -856 2625 -561 
Q 2906 -266 2906 331 
L 2906 616 
Q 2728 306 2450 153 
Q 2172 0 1784 0 
Q 1141 0 747 490 
Q 353 981 353 1791 
Q 353 2603 747 3093 
Q 1141 3584 1784 3584 
Q 2172 3584 2450 3431 
Q 2728 3278 2906 2969 
L 2906 3500 
L 3481 3500 
L 3481 434 
z
" transform="scale(0.015625)"/>
       <path id="DejaVuSans-31" d="M 794 531 
L 1825 531 
L 1825 4091 
L 703 3866 
L 703 4441 
L 1819 4666 
L 2450 4666 
L 2450 531 
L 3481 531 
L 3481 0 
L 794 0 
L 794 531 
z
" transform="scale(0.015625)"/>
       <path id="DejaVuSans-20" transform="scale(0.015625)"/>
       <path id="DejaVuSans-66" d="M 2375 4863 
L 2375 4384 
L 1825 4384 
Q 1516 4384 1395 4259 
Q 1275 4134 1275 3809 
L 1275 3500 
L 2222 3500 
L 2222 3053 
L 1275 3053 
L 1275 0 
L 697 0 
L 697 3053 
L 147 3053 
L 147 3500 
L 697 3500 
L 697 3744 
Q 697 4328 969 4595 
Q 1241 4863 1831 4863 
L 2375 4863 
z
" transform="scale(0.015625)"/>
       <path id="DejaVuSans-44" d="M 1259 4147 
L 1259 519 
L 2022 519 
Q 2988 519 3436 956 
Q 3884 1394 3884 2338 
Q 3884 3275 3436 3711 
Q 2988 4147 2022 4147 
L 1259 4147 
z
M 628 4666 
L 1925 4666 
Q 3281 4666 3915 4102 
Q 4550 3538 4550 2338 
Q 4550 1131 3912 565 
Q 3275 0 1925 0 
L 628 0 
L 628 4666 
z
" transform="scale(0.015625)"/>
      </defs>
      <use xlink:href="#DejaVuSans-6c"/>
      <use xlink:href="#DejaVuSans-6f" x="27.783203"/>
      <use xlink:href="#DejaVuSans-67" x="88.964844"/>
      <use xlink:href="#DejaVuSans-31" x="152.441406"/>
      <use xlink:href="#DejaVuSans-30" x="216.064453"/>
      <use xlink:href="#DejaVuSans-20" x="279.6875"/>
      <use xlink:href="#DejaVuSans-6f" x="311.474609"/>
      <use xlink:href="#DejaVuSans-66" x="372.65625"/>
      <use xlink:href="#DejaVuSans-20" x="407.861328"/>
      <use xlink:href="#DejaVuSans-44" x="439.648438"/>
      <use xlink:href="#DejaVuSans-66" x="516.650391"/>
     </g>
    </g>
   </g>
   <g id="matplotlib.axis_2">
    <g id="ytick_1">
     <g id="line2d_9">
      <path d="M 0 293.76 
L 460.8 293.76 
" clip-path="url(#pef6d8ecd58)" style="fill: none; stroke: #b0b0b0; stroke-width: 0.8; stroke-linecap: square"/>
     </g>
     <g id="line2d_10">
      <defs>
       <path id="m16b76725b9" d="M 0 0 
L -3.5 0 
" style="stroke: #000000; stroke-width: 0.8"/>
      </defs>
      <g>
       <use xlink:href="#m16b76725b9" x="0" y="293.76" style="stroke: #000000; stroke-width: 0.8"/>
      </g>
     </g>
    </g>
    <g id="ytick_2">
     <g id="line2d_11">
      <path d="M 0 236.274059 
L 460.8 236.274059 
" clip-path="url(#pef6d8ecd58)" style="fill: none; stroke: #b0b0b0; stroke-width: 0.8; stroke-linecap: square"/>
     </g>
     <g id="line2d_12">
      <g>
       <use xlink:href="#m16b76725b9" x="0" y="236.274059" style="stroke: #000000; stroke-width: 0.8"/>
      </g>
     </g>
    </g>
    <g id="ytick_3">
     <g id="line2d_13">
      <path d="M 0 178.788119 
L 460.8 178.788119 
" clip-path="url(#pef6d8ecd58)" style="fill: none; stroke: #b0b0b0; stroke-width: 0.8; stroke-linecap: square"/>
     </g>
     <g id="line2d_14">
      <g>
       <use xlink:href="#m16b76725b9" x="0" y="178.788119" style="stroke: #000000; stroke-width: 0.8"/>
      </g>
     </g>
    </g>
    <g id="ytick_4">
     <g id="line2d_15">
      <path d="M 0 121.302178 
L 460.8 121.302178 
" clip-path="url(#pef6d8ecd58)" style="fill: none; stroke: #b0b0b0; stroke-width: 0.8; stroke-linecap: square"/>
     </g>
     <g id="line2d_16">
      <g>
       <use xlink:href="#m16b76725b9" x="0" y="121.302178" style="stroke: #000000; stroke-width: 0.8"/>
      </g>
     </g>
    </g>
    <g id="ytick_5">
     <g id="line2d_17">
      <path d="M 0 63.816238 
L 460.8 63.816238 
" clip-path="url(#pef6d8ecd58)" style="fill: none; stroke: #b0b0b0; stroke-width: 0.8; stroke-linecap: square"/>
     </g>
     <g id="line2d_18">
      <g>
       <use xlink:href="#m16b76725b9" x="0" y="63.816238" style="stroke: #000000; stroke-width: 0.8"/>
      </g>
     </g>
    </g>
    <g id="ytick_6">
     <g id="line2d_19">
      <path d="M 0 6.330297 
L 460.8 6.330297 
" clip-path="url(#pef6d8ecd58)" style="fill: none; stroke: #b0b0b0; stroke-width: 0.8; stroke-linecap: square"/>
     </g>
     <g id="line2d_20">
      <g>
       <use xlink:href="#m16b76725b9" x="0" y="6.330297" style="stroke: #000000; stroke-width: 0.8"/>
      </g>
     </g>
    </g>
   </g>
   <g id="line2d_21">
    <path d="M -0.113092 293.76 
L -0.113092 287.372673 
L 164.176037 287.372673 
L 164.176037 286.574257 
L 171.59448 286.574257 
L 171.59448 285.775842 
L 175.388528 285.775842 
L 175.388528 284.977426 
L 176.732256 284.977426 
L 176.732256 284.17901 
L 183.654925 284.17901 
L 183.654925 283.380594 
L 184.876868 283.380594 
L 184.876868 282.582178 
L 186.104147 282.582178 
L 186.104147 281.783762 
L 191.304188 281.783762 
L 191.358022 279.388515 
L 191.449486 279.388515 
L 191.512351 277.791683 
L 191.706839 277.791683 
L 191.706839 276.993267 
L 191.863135 276.993267 
L 191.863135 276.194851 
L 193.510365 276.194851 
L 193.510365 269.807525 
L 194.15532 269.807525 
L 194.15532 269.009109 
L 201.561005 269.009109 
L 201.561005 268.210693 
L 206.876193 268.210693 
L 206.876193 267.412277 
L 209.277874 267.412277 
L 209.277874 266.613861 
L 215.331183 266.613861 
L 215.331183 265.815446 
L 218.242352 265.815446 
L 218.242352 265.01703 
L 219.116832 265.01703 
L 219.152288 263.420198 
L 222.605777 263.420198 
L 222.605777 262.621782 
L 223.152169 262.621782 
L 223.177006 261.02495 
L 224.190008 261.02495 
L 224.243672 258.629703 
L 225.014694 258.629703 
L 225.014694 257.831287 
L 226.690135 257.831287 
L 226.690135 257.032871 
L 227.002658 257.032871 
L 227.007319 255.43604 
L 227.556976 255.43604 
L 227.556976 254.637624 
L 229.049425 254.637624 
L 229.049425 253.839208 
L 229.452608 253.839208 
L 229.452608 253.040792 
L 229.785179 253.040792 
L 229.785179 252.242376 
L 230.370989 252.242376 
L 230.370989 251.44396 
L 231.462323 251.44396 
L 231.480685 249.847129 
L 231.949263 249.847129 
L 231.949263 249.048713 
L 232.082217 249.048713 
L 232.082217 248.250297 
L 232.363833 248.250297 
L 232.453028 245.85505 
L 232.833466 245.85505 
L 232.833466 245.056634 
L 233.071448 245.056634 
L 233.110233 243.459802 
L 233.19148 243.459802 
L 233.294306 241.86297 
L 233.347059 241.86297 
L 233.347059 241.064554 
L 233.502429 241.064554 
L 233.502429 240.266139 
L 234.011934 240.266139 
L 234.011934 239.467723 
L 234.153589 239.467723 
L 234.153589 238.669307 
L 234.393514 238.669307 
L 234.484477 237.072475 
L 234.93839 237.072475 
L 234.93839 236.274059 
L 235.260798 236.274059 
L 235.260798 235.475644 
L 235.54358 235.475644 
L 235.54358 234.677228 
L 235.722426 234.677228 
L 235.722426 233.878812 
L 236.261089 233.878812 
L 236.261089 233.080396 
L 236.84496 233.080396 
L 236.84496 232.28198 
L 237.735518 232.28198 
L 237.735518 231.483564 
L 238.092243 231.483564 
L 238.092243 230.685149 
L 238.237328 230.685149 
L 238.237328 229.886733 
L 238.41302 229.886733 
L 238.41302 229.088317 
L 238.813841 229.088317 
L 238.848655 227.491485 
L 239.129552 227.491485 
L 239.129552 226.693069 
L 239.817544 226.693069 
L 239.817544 225.894653 
L 240.075255 225.894653 
L 240.075255 225.096238 
L 240.734643 225.096238 
L 240.734643 224.297822 
L 241.687159 224.297822 
L 241.687159 223.499406 
L 242.229884 223.499406 
L 242.229884 222.70099 
L 242.440174 222.70099 
L 242.440174 221.902574 
L 243.744082 221.902574 
L 243.744082 221.104158 
L 244.119836 221.104158 
L 244.172577 219.507327 
L 244.76855 219.507327 
L 244.76855 218.708911 
L 244.906098 218.708911 
L 244.906098 217.910495 
L 245.203096 217.910495 
L 245.203096 217.112079 
L 245.947124 217.112079 
L 245.947124 216.313663 
L 246.475493 216.313663 
L 246.475493 215.515248 
L 247.09881 215.515248 
L 247.118024 213.918416 
L 247.587794 213.918416 
L 247.587794 213.12 
L 248.05064 213.12 
L 248.05064 212.321584 
L 248.294481 212.321584 
L 248.294481 211.523168 
L 248.492737 211.523168 
L 248.492737 210.724752 
L 248.672477 210.724752 
L 248.672477 209.926337 
L 248.836948 209.926337 
L 248.836948 209.127921 
L 248.964252 209.127921 
L 248.964252 208.329505 
L 249.497431 208.329505 
L 249.497431 207.531089 
L 249.73467 207.531089 
L 249.777218 205.934257 
L 249.922698 205.934257 
L 250.033027 204.337426 
L 250.169616 204.337426 
L 250.169616 203.53901 
L 250.427233 203.53901 
L 250.427233 202.740594 
L 251.15004 202.740594 
L 251.212125 201.143762 
L 252.142606 201.143762 
L 252.142606 200.345347 
L 252.396965 200.345347 
L 252.396965 199.546931 
L 253.172418 199.546931 
L 253.236863 197.950099 
L 253.368702 197.950099 
L 253.380575 195.554851 
L 253.558792 195.554851 
L 253.558792 194.756436 
L 253.723799 194.756436 
L 253.774015 193.159604 
L 253.98993 193.159604 
L 253.98993 192.361188 
L 254.331022 192.361188 
L 254.429175 190.764356 
L 255.038545 190.764356 
L 255.038545 189.965941 
L 255.672125 189.965941 
L 255.6733 188.369109 
L 255.88769 188.369109 
L 255.88769 187.570693 
L 256.091156 187.570693 
L 256.091156 186.772277 
L 256.398477 186.772277 
L 256.491544 185.175446 
L 256.775037 185.175446 
L 256.82038 183.578614 
L 257.57055 183.578614 
L 257.57055 182.780198 
L 257.887916 182.780198 
L 257.92009 181.183366 
L 258.620277 181.183366 
L 258.66151 179.586535 
L 258.795323 179.586535 
L 258.795323 178.788119 
L 258.95205 178.788119 
L 259.05729 177.191287 
L 259.20566 177.191287 
L 259.269376 172.400792 
L 259.427792 172.400792 
L 259.442891 170.80396 
L 259.5496 170.80396 
L 259.622024 169.207129 
L 259.669332 169.207129 
L 259.735668 166.811881 
L 259.790091 166.811881 
L 259.790091 166.013465 
L 260.0502 166.013465 
L 260.106459 163.618218 
L 260.266907 163.618218 
L 260.314329 162.021386 
L 260.415363 162.021386 
L 260.45161 160.424554 
L 260.927357 160.424554 
L 260.927357 159.626139 
L 261.096445 159.626139 
L 261.096445 158.827723 
L 261.396199 158.827723 
L 261.396199 158.029307 
L 262.039183 158.029307 
L 262.039183 157.230891 
L 262.26304 157.230891 
L 262.26304 156.432475 
L 262.556391 156.432475 
L 262.556391 155.634059 
L 263.426446 155.634059 
L 263.426446 154.835644 
L 263.586967 154.835644 
L 263.586967 154.037228 
L 263.863358 154.037228 
L 263.924936 151.64198 
L 264.920993 151.64198 
L 264.920993 150.843564 
L 265.093319 150.843564 
L 265.151495 149.246733 
L 265.472168 149.246733 
L 265.472168 148.448317 
L 265.812465 148.448317 
L 265.812465 147.649901 
L 266.028512 147.649901 
L 266.057074 146.053069 
L 266.304858 146.053069 
L 266.304858 145.254653 
L 266.433184 145.254653 
L 266.433184 144.456238 
L 266.683955 144.456238 
L 266.683955 143.657822 
L 266.893019 143.657822 
L 266.963351 142.06099 
L 267.148416 142.06099 
L 267.148416 141.262574 
L 267.539519 141.262574 
L 267.539519 140.464158 
L 267.75644 140.464158 
L 267.81464 138.068911 
L 267.918285 138.068911 
L 267.957978 136.472079 
L 268.403774 136.472079 
L 268.403774 135.673663 
L 268.538192 135.673663 
L 268.550159 134.076832 
L 268.699012 134.076832 
L 268.699012 133.278416 
L 269.064234 133.278416 
L 269.064234 132.48 
L 269.452853 132.48 
L 269.452853 131.681584 
L 269.630669 131.681584 
L 269.630669 130.883168 
L 269.87806 130.883168 
L 269.87806 130.084752 
L 270.208893 130.084752 
L 270.208893 129.286337 
L 270.695978 129.286337 
L 270.732695 127.689505 
L 270.9081 127.689505 
L 270.9081 126.891089 
L 272.970675 126.891089 
L 272.970675 126.092673 
L 273.315795 126.092673 
L 273.315795 125.294257 
L 273.690809 125.294257 
L 273.690809 124.495842 
L 273.843626 124.495842 
L 273.843626 123.697426 
L 274.606181 123.697426 
L 274.606181 122.89901 
L 274.917498 122.89901 
L 274.939795 121.302178 
L 275.426866 121.302178 
L 275.426866 120.503762 
L 275.720234 120.503762 
L 275.741946 118.906931 
L 276.182662 118.906931 
L 276.182662 118.108515 
L 277.165413 118.108515 
L 277.165413 117.310099 
L 277.783985 117.310099 
L 277.783985 116.511683 
L 278.1905 116.511683 
L 278.1905 115.713267 
L 278.491775 115.713267 
L 278.559725 112.519604 
L 278.673553 112.519604 
L 278.673553 111.721188 
L 278.983472 111.721188 
L 279.08366 110.124356 
L 279.25163 110.124356 
L 279.278291 107.729109 
L 279.375733 107.729109 
L 279.375733 106.930693 
L 279.566002 106.930693 
L 279.658092 104.535446 
L 280.132586 104.535446 
L 280.132586 103.73703 
L 280.407178 103.73703 
L 280.407178 102.938614 
L 280.582798 102.938614 
L 280.685793 100.543366 
L 280.893112 100.543366 
L 280.969691 98.946535 
L 281.023463 98.946535 
L 281.129604 96.551287 
L 281.282782 96.551287 
L 281.282782 95.752871 
L 281.709395 95.752871 
L 281.709395 94.954455 
L 281.912858 94.954455 
L 281.983363 93.357624 
L 282.055397 93.357624 
L 282.055397 92.559208 
L 282.389565 92.559208 
L 282.389565 91.760792 
L 282.755008 91.760792 
L 282.755008 90.962376 
L 282.892293 90.962376 
L 282.926856 89.365545 
L 283.028973 89.365545 
L 283.028973 88.567129 
L 283.443457 88.567129 
L 283.495817 86.970297 
L 284.131061 86.970297 
L 284.176973 85.373465 
L 284.312368 85.373465 
L 284.312368 84.57505 
L 284.500066 84.57505 
L 284.500066 83.776634 
L 284.698432 83.776634 
L 284.770566 82.179802 
L 284.870001 82.179802 
L 284.870001 81.381386 
L 285.040055 81.381386 
L 285.128676 79.784554 
L 285.339073 79.784554 
L 285.339073 78.986139 
L 285.481417 78.986139 
L 285.485096 77.389307 
L 285.91196 77.389307 
L 285.91196 76.590891 
L 286.174746 76.590891 
L 286.174746 75.792475 
L 286.368764 75.792475 
L 286.368764 74.994059 
L 286.592845 74.994059 
L 286.592845 74.195644 
L 286.759476 74.195644 
L 286.790597 71.800396 
L 287.154394 71.800396 
L 287.154394 71.00198 
L 287.375914 71.00198 
L 287.375914 70.203564 
L 287.76046 70.203564 
L 287.808247 68.606733 
L 287.941347 68.606733 
L 287.941347 67.808317 
L 288.125419 67.808317 
L 288.125419 67.009901 
L 288.389431 67.009901 
L 288.389431 66.211485 
L 288.533335 66.211485 
L 288.533335 65.413069 
L 288.685449 65.413069 
L 288.685449 64.614653 
L 290.44428 64.614653 
L 290.44428 63.816238 
L 290.596707 63.816238 
L 290.622684 62.219406 
L 291.020573 62.219406 
L 291.020573 61.42099 
L 292.005995 61.42099 
L 292.005995 60.622574 
L 293.050445 60.622574 
L 293.050445 59.824158 
L 293.737102 59.824158 
L 293.737102 59.025743 
L 295.160543 59.025743 
L 295.160543 58.227327 
L 295.427837 58.227327 
L 295.427837 57.428911 
L 297.089159 57.428911 
L 297.089159 56.630495 
L 297.402714 56.630495 
L 297.471129 55.033663 
L 298.827056 55.033663 
L 298.827056 54.235248 
L 301.565127 54.235248 
L 301.565127 53.436832 
L 301.985785 53.436832 
L 301.985785 52.638416 
L 303.54409 52.638416 
L 303.619727 51.041584 
L 308.437721 51.041584 
L 308.437721 50.243168 
L 312.148311 50.243168 
L 312.148311 49.444752 
L 313.624908 49.444752 
L 313.624908 48.646337 
L 316.521831 48.646337 
L 316.521831 47.847921 
L 316.778209 47.847921 
L 316.778209 47.049505 
L 317.116822 47.049505 
L 317.116822 46.251089 
L 321.137033 46.251089 
L 321.137033 45.452673 
L 324.617948 45.452673 
L 324.709116 43.855842 
L 327.985926 43.855842 
L 327.985926 43.057426 
L 339.033829 43.057426 
L 339.033829 42.25901 
L 340.113066 42.25901 
L 340.113066 41.460594 
L 340.587169 41.460594 
L 340.587169 40.662178 
L 344.654338 40.662178 
L 344.654338 39.863762 
L 346.933349 39.863762 
L 346.933349 39.065347 
L 350.532485 39.065347 
L 350.532485 38.266931 
L 351.524179 38.266931 
L 351.524179 37.468515 
L 352.563599 37.468515 
L 352.563599 36.670099 
L 352.707784 36.670099 
L 352.707784 35.871683 
L 353.044999 35.871683 
L 353.044999 35.073267 
L 353.486437 35.073267 
L 353.486437 34.274851 
L 353.771858 34.274851 
L 353.771858 33.476436 
L 353.964683 33.476436 
L 353.964683 32.67802 
L 354.926028 32.67802 
L 354.926028 31.879604 
L 355.40015 31.879604 
L 355.40015 31.081188 
L 356.341506 31.081188 
L 356.341506 30.282772 
L 356.479053 30.282772 
L 356.479053 29.484356 
L 357.386098 29.484356 
L 357.386098 28.685941 
L 357.532151 28.685941 
L 357.588113 27.089109 
L 358.054696 27.089109 
L 358.054696 26.290693 
L 358.246799 26.290693 
L 358.246799 25.492277 
L 358.443072 25.492277 
L 358.443072 24.693861 
L 358.570794 24.693861 
L 358.570794 23.895446 
L 359.352598 23.895446 
L 359.352598 23.09703 
L 359.939989 23.09703 
L 359.939989 22.298614 
L 360.161676 22.298614 
L 360.161676 21.500198 
L 361.068448 21.500198 
L 361.068448 20.701782 
L 361.797193 20.701782 
L 361.863382 19.10495 
L 362.197857 19.10495 
L 362.197857 18.306535 
L 362.337808 18.306535 
L 362.337808 17.508119 
L 366.105594 17.508119 
L 366.105594 16.709703 
L 366.343667 16.709703 
L 366.343667 15.911287 
L 366.908663 15.911287 
L 366.908663 15.112871 
L 367.971489 15.112871 
L 367.971489 14.314455 
L 369.281276 14.314455 
L 369.281276 13.51604 
L 370.087049 13.51604 
L 370.087049 12.717624 
L 372.719067 12.717624 
L 372.719067 11.919208 
L 376.914271 11.919208 
L 376.914271 11.120792 
L 377.231712 11.120792 
L 377.231712 10.322376 
L 377.959163 10.322376 
L 378.057021 8.725545 
L 383.062465 8.725545 
L 383.062465 7.927129 
L 395.750058 7.927129 
L 395.750058 7.128713 
L 399.951355 7.128713 
L 399.951355 6.330297 
L 399.951355 6.330297 
L 460.8 6.330297 
L 460.8 6.330297 
" clip-path="url(#pef6d8ecd58)" style="fill: none; stroke: #ff0000; stroke-width: 3; stroke-linecap: square"/>
   </g>
   <g id="line2d_22">
    <path d="M 193.510365 293.76 
L 193.510365 281.783762 
L 226.791018 281.783762 
L 226.791018 280.985347 
L 229.049425 280.985347 
L 229.049425 280.186931 
L 229.866459 280.186931 
L 229.866459 279.388515 
L 232.833466 279.388515 
L 232.833466 278.590099 
L 234.04968 278.590099 
L 234.11355 276.993267 
L 234.630989 276.993267 
L 234.630989 276.194851 
L 236.562426 276.194851 
L 236.666551 274.59802 
L 237.072444 274.59802 
L 237.072444 273.799604 
L 237.365775 273.799604 
L 237.365775 273.001188 
L 238.092243 273.001188 
L 238.092243 272.202772 
L 238.306728 272.202772 
L 238.306728 271.404356 
L 238.71373 271.404356 
L 238.71373 270.605941 
L 238.927741 270.605941 
L 238.927741 269.807525 
L 239.35367 269.807525 
L 239.35367 269.009109 
L 239.583284 269.009109 
L 239.583284 268.210693 
L 239.798956 268.210693 
L 239.798956 267.412277 
L 239.963662 267.412277 
L 240.019895 265.815446 
L 240.131615 265.815446 
L 240.131615 265.01703 
L 241.756818 265.01703 
L 241.756818 264.218614 
L 241.869316 264.218614 
L 241.869316 263.420198 
L 242.528245 263.420198 
L 242.528245 262.621782 
L 243.596538 262.621782 
L 243.596538 261.823366 
L 244.586098 261.823366 
L 244.586098 261.02495 
L 245.131722 261.02495 
L 245.131722 260.226535 
L 245.278903 260.226535 
L 245.289997 258.629703 
L 248.690086 258.629703 
L 248.690086 257.831287 
L 249.027149 257.831287 
L 249.027149 257.032871 
L 249.828775 257.032871 
L 249.828775 256.234455 
L 249.991666 256.234455 
L 250.087374 254.637624 
L 251.872492 254.637624 
L 251.961026 252.242376 
L 253.357136 252.242376 
L 253.380575 250.645545 
L 253.558792 250.645545 
L 253.558792 249.847129 
L 253.723799 249.847129 
L 253.771022 248.250297 
L 253.953104 248.250297 
L 253.98993 246.653465 
L 254.562478 246.653465 
L 254.562478 245.85505 
L 254.730162 245.85505 
L 254.730162 245.056634 
L 255.038545 245.056634 
L 255.038545 244.258218 
L 255.310776 244.258218 
L 255.310776 243.459802 
L 255.800253 243.459802 
L 255.800253 242.661386 
L 256.091156 242.661386 
L 256.091156 241.86297 
L 256.417554 241.86297 
L 256.497063 239.467723 
L 256.566618 239.467723 
L 256.615363 237.870891 
L 256.82038 237.870891 
L 256.832689 236.274059 
L 257.302859 236.274059 
L 257.392818 234.677228 
L 257.45863 234.677228 
L 257.562389 233.080396 
L 257.623141 233.080396 
L 257.650599 231.483564 
L 257.739248 231.483564 
L 257.840601 229.088317 
L 258.38256 229.088317 
L 258.420321 227.491485 
L 258.515024 227.491485 
L 258.62602 224.297822 
L 258.669061 224.297822 
L 258.706074 221.902574 
L 258.780226 221.902574 
L 258.86856 218.708911 
L 258.953326 218.708911 
L 259.05729 214.716832 
L 259.111247 214.716832 
L 259.213592 210.724752 
L 259.2451 210.724752 
L 259.317456 206.732673 
L 259.437441 206.732673 
L 259.457086 204.337426 
L 259.5496 204.337426 
L 259.54961 202.740594 
L 259.838442 202.740594 
L 259.838442 201.942178 
L 260.316311 201.942178 
L 260.372165 200.345347 
L 260.676136 200.345347 
L 260.676136 199.546931 
L 261.396199 199.546931 
L 261.396199 198.748515 
L 261.776234 198.748515 
L 261.803279 197.151683 
L 262.493072 197.151683 
L 262.570046 194.756436 
L 262.910352 194.756436 
L 262.910352 193.95802 
L 263.090844 193.95802 
L 263.200345 192.361188 
L 263.215429 192.361188 
L 263.215429 191.562772 
L 263.362557 191.562772 
L 263.362557 190.764356 
L 263.660839 190.764356 
L 263.757605 188.369109 
L 263.775932 188.369109 
L 263.881373 182.780198 
L 263.899748 182.780198 
L 263.989091 177.989703 
L 265.547991 177.989703 
L 265.547991 177.191287 
L 265.745843 177.191287 
L 265.745843 176.392871 
L 265.882875 176.392871 
L 265.962205 174.79604 
L 266.343824 174.79604 
L 266.343824 173.997624 
L 268.058124 173.997624 
L 268.058124 173.199208 
L 271.787686 173.199208 
L 271.787686 172.400792 
L 272.464002 172.400792 
L 272.464002 171.602376 
L 272.74306 171.602376 
L 272.850322 170.005545 
L 272.901663 170.005545 
L 272.975004 168.408713 
L 273.154202 168.408713 
L 273.154202 167.610297 
L 273.373735 167.610297 
L 273.398852 165.21505 
L 274.035827 165.21505 
L 274.035827 164.416634 
L 274.272376 164.416634 
L 274.272376 163.618218 
L 274.635097 163.618218 
L 274.635097 162.819802 
L 274.785875 162.819802 
L 274.785875 162.021386 
L 275.222478 162.021386 
L 275.222478 161.22297 
L 277.319004 161.22297 
L 277.321559 149.246733 
L 278.12834 149.246733 
L 278.12834 148.448317 
L 278.756572 148.448317 
L 278.756572 147.649901 
L 278.912449 147.649901 
L 278.912449 146.851485 
L 279.623184 146.851485 
L 279.643119 145.254653 
L 280.333918 145.254653 
L 280.333918 144.456238 
L 281.227702 144.456238 
L 281.227702 143.657822 
L 281.759436 143.657822 
L 281.759436 142.859406 
L 282.027884 142.859406 
L 282.027884 142.06099 
L 282.154049 142.06099 
L 282.257492 140.464158 
L 282.430074 140.464158 
L 282.52252 138.068911 
L 282.586201 138.068911 
L 282.659661 135.673663 
L 282.766665 135.673663 
L 282.766665 134.875248 
L 283.144357 134.875248 
L 283.144357 134.076832 
L 283.50357 134.076832 
L 283.50357 133.278416 
L 283.631252 133.278416 
L 283.631252 132.48 
L 283.795101 132.48 
L 283.795101 131.681584 
L 283.916576 131.681584 
L 283.927447 130.084752 
L 284.14965 130.084752 
L 284.246208 126.891089 
L 284.295198 126.891089 
L 284.360836 125.294257 
L 284.828635 125.294257 
L 284.870001 123.697426 
L 285.06055 123.697426 
L 285.158644 121.302178 
L 285.506764 121.302178 
L 285.506764 120.503762 
L 285.776768 120.503762 
L 285.776768 119.705347 
L 285.91196 119.705347 
L 285.91196 118.906931 
L 286.075926 118.906931 
L 286.075926 118.108515 
L 286.319874 118.108515 
L 286.319874 117.310099 
L 286.533366 117.310099 
L 286.550988 115.713267 
L 286.658156 115.713267 
L 286.660062 114.116436 
L 286.827736 114.116436 
L 286.827736 113.31802 
L 287.049924 113.31802 
L 287.049924 112.519604 
L 287.176275 112.519604 
L 287.176275 111.721188 
L 287.586751 111.721188 
L 287.586751 110.922772 
L 287.843685 110.922772 
L 287.843685 110.124356 
L 288.387929 110.124356 
L 288.387929 109.325941 
L 288.568066 109.325941 
L 288.568066 108.527525 
L 289.854391 108.527525 
L 289.854391 107.729109 
L 291.167404 107.729109 
L 291.167404 106.930693 
L 291.32234 106.930693 
L 291.32234 106.132277 
L 292.005995 106.132277 
L 292.005995 105.333861 
L 292.69215 105.333861 
L 292.69215 104.535446 
L 293.748954 104.535446 
L 293.748954 103.73703 
L 293.970591 103.73703 
L 293.970591 102.938614 
L 294.244907 102.938614 
L 294.244907 102.140198 
L 294.877176 102.140198 
L 294.877176 101.341782 
L 295.184834 101.341782 
L 295.184834 100.543366 
L 295.30324 100.543366 
L 295.30324 99.74495 
L 295.47873 99.74495 
L 295.47873 98.946535 
L 295.703607 98.946535 
L 295.703607 98.148119 
L 295.981372 98.148119 
L 295.981372 97.349703 
L 296.342063 97.349703 
L 296.342063 96.551287 
L 296.562366 96.551287 
L 296.598925 94.954455 
L 297.159161 94.954455 
L 297.159161 94.15604 
L 297.345506 94.15604 
L 297.345506 93.357624 
L 297.546581 93.357624 
L 297.546581 92.559208 
L 297.910535 92.559208 
L 298.00825 90.16396 
L 298.832105 90.16396 
L 298.832105 89.365545 
L 312.926166 89.365545 
L 312.926166 88.567129 
L 320.811308 88.567129 
L 320.811374 76.590891 
L 321.484835 76.590891 
L 321.484835 75.792475 
L 324.81279 75.792475 
L 324.81279 74.994059 
L 329.300588 74.994059 
L 329.300588 74.195644 
L 332.748808 74.195644 
L 332.748808 73.397228 
L 333.846803 73.397228 
L 333.846803 72.598812 
L 334.049925 72.598812 
L 334.049925 71.800396 
L 334.355542 71.800396 
L 334.355542 71.00198 
L 334.727141 71.00198 
L 334.727141 70.203564 
L 335.867365 70.203564 
L 335.867365 69.405149 
L 336.028324 69.405149 
L 336.028324 68.606733 
L 336.64954 68.606733 
L 336.64954 67.808317 
L 337.282375 67.808317 
L 337.30675 66.211485 
L 338.005344 66.211485 
L 338.005344 65.413069 
L 338.43482 65.413069 
L 338.43482 64.614653 
L 343.019916 64.614653 
L 343.019916 63.816238 
L 346.127323 63.816238 
L 346.127323 63.017822 
L 347.474835 63.017822 
L 347.474835 62.219406 
L 350.853268 62.219406 
L 350.853268 61.42099 
L 351.27495 61.42099 
L 351.27495 60.622574 
L 351.605938 60.622574 
L 351.605938 59.824158 
L 353.313098 59.824158 
L 353.313098 59.025743 
L 353.494382 59.025743 
L 353.574461 57.428911 
L 354.229804 57.428911 
L 354.229804 56.630495 
L 354.94424 56.630495 
L 354.94424 55.832079 
L 355.330734 55.832079 
L 355.330734 55.033663 
L 358.266875 55.033663 
L 358.266875 54.235248 
L 358.981499 54.235248 
L 358.981499 53.436832 
L 360.149257 53.436832 
L 360.149257 52.638416 
L 360.84419 52.638416 
L 360.84419 51.84 
L 363.236897 51.84 
L 363.236897 51.041584 
L 366.181669 51.041584 
L 366.181669 50.243168 
L 367.942923 50.243168 
L 367.942923 49.444752 
L 373.718305 49.444752 
L 373.718305 48.646337 
L 374.238462 48.646337 
L 374.238462 47.847921 
L 375.633286 47.847921 
L 375.633286 47.049505 
L 376.424469 47.049505 
L 376.424469 46.251089 
L 377.006046 46.251089 
L 377.006046 45.452673 
L 378.392807 45.452673 
L 378.392807 44.654257 
L 378.994488 44.654257 
L 378.994488 43.855842 
L 379.654386 43.855842 
L 379.654386 43.057426 
L 380.004768 43.057426 
L 380.004768 42.25901 
L 380.389419 42.25901 
L 380.389419 41.460594 
L 384.440321 41.460594 
L 384.440321 40.662178 
L 386.286239 40.662178 
L 386.286239 39.863762 
L 386.65732 39.863762 
L 386.65732 39.065347 
L 387.458165 39.065347 
L 387.500922 37.468515 
L 388.11346 37.468515 
L 388.11346 36.670099 
L 388.720452 36.670099 
L 388.760974 35.073267 
L 388.84875 35.073267 
L 388.949671 33.476436 
L 389.173582 33.476436 
L 389.173582 32.67802 
L 390.511971 32.67802 
L 390.511971 31.879604 
L 391.192507 31.879604 
L 391.192507 31.081188 
L 391.545326 31.081188 
L 391.545326 30.282772 
L 391.803263 30.282772 
L 391.803263 29.484356 
L 392.276976 29.484356 
L 392.276976 28.685941 
L 393.404433 28.685941 
L 393.404433 27.887525 
L 393.534731 27.887525 
L 393.534731 27.089109 
L 393.939299 27.089109 
L 393.939299 26.290693 
L 394.429419 26.290693 
L 394.429419 25.492277 
L 395.400878 25.492277 
L 395.400878 24.693861 
L 395.594097 24.693861 
L 395.594097 23.895446 
L 396.565681 23.895446 
L 396.565681 23.09703 
L 397.418973 23.09703 
L 397.418973 22.298614 
L 398.164494 22.298614 
L 398.164494 21.500198 
L 400.224183 21.500198 
L 400.224183 20.701782 
L 400.337188 20.701782 
L 400.337188 19.903366 
L 400.499509 19.903366 
L 400.499509 19.10495 
L 405.01321 19.10495 
L 405.01321 18.306535 
L 414.093435 18.306535 
L 414.093435 17.508119 
L 417.337401 17.508119 
L 417.433197 15.911287 
L 422.064218 15.911287 
L 422.064218 15.112871 
L 423.291677 15.112871 
L 423.291677 14.314455 
L 424.092088 14.314455 
L 424.092088 13.51604 
L 426.396336 13.51604 
L 426.396336 12.717624 
L 427.455773 12.717624 
L 427.455773 11.919208 
L 429.56218 11.919208 
L 429.56218 11.120792 
L 430.473256 11.120792 
L 430.473256 10.322376 
L 432.480298 10.322376 
L 432.480298 9.52396 
L 433.073698 9.52396 
L 433.073698 8.725545 
L 434.746188 8.725545 
L 434.746188 7.927129 
L 438.776591 7.927129 
L 438.851758 6.330297 
L 438.851758 6.330297 
L 460.8 6.330297 
L 460.8 6.330297 
" clip-path="url(#pef6d8ecd58)" style="fill: none; stroke: #00bfbf; stroke-width: 1.5; stroke-linecap: square"/>
   </g>
   <g id="line2d_23">
    <path d="M 193.510365 293.76 
L 193.510365 281.783762 
L 225.595664 281.783762 
L 225.595664 280.985347 
L 226.791018 280.985347 
L 226.791018 280.186931 
L 227.007319 280.186931 
L 227.007319 279.388515 
L 229.049425 279.388515 
L 229.049425 278.590099 
L 229.785179 278.590099 
L 229.785179 277.791683 
L 231.433671 277.791683 
L 231.480685 276.194851 
L 232.833466 276.194851 
L 232.833466 275.396436 
L 233.347059 275.396436 
L 233.347059 274.59802 
L 233.502429 274.59802 
L 233.502429 273.799604 
L 233.955336 273.799604 
L 233.955336 273.001188 
L 234.074169 273.001188 
L 234.074169 272.202772 
L 235.722426 272.202772 
L 235.722426 271.404356 
L 236.261089 271.404356 
L 236.261089 270.605941 
L 237.365775 270.605941 
L 237.365775 269.807525 
L 238.092243 269.807525 
L 238.092243 269.009109 
L 239.08393 269.009109 
L 239.129552 267.412277 
L 239.611874 267.412277 
L 239.611874 266.613861 
L 239.773975 266.613861 
L 239.806366 265.01703 
L 241.687159 265.01703 
L 241.687159 264.218614 
L 241.869316 264.218614 
L 241.869316 263.420198 
L 242.229884 263.420198 
L 242.229884 262.621782 
L 243.138231 262.621782 
L 243.138231 261.823366 
L 244.586098 261.823366 
L 244.586098 261.02495 
L 244.76855 261.02495 
L 244.76855 260.226535 
L 245.127333 260.226535 
L 245.182266 258.629703 
L 248.051416 258.629703 
L 248.051416 257.831287 
L 248.964252 257.831287 
L 248.964252 257.032871 
L 249.777218 257.032871 
L 249.777218 256.234455 
L 249.991666 256.234455 
L 250.033027 254.637624 
L 251.212125 254.637624 
L 251.212125 253.839208 
L 251.725986 253.839208 
L 251.725986 253.040792 
L 251.886932 253.040792 
L 251.886932 252.242376 
L 252.352215 252.242376 
L 252.352215 251.44396 
L 253.380575 251.44396 
L 253.390753 249.847129 
L 253.558792 249.847129 
L 253.558792 249.048713 
L 253.710871 249.048713 
L 253.723799 247.451881 
L 253.98993 247.451881 
L 253.98993 246.653465 
L 254.279332 246.653465 
L 254.279332 245.85505 
L 254.528959 245.85505 
L 254.528959 245.056634 
L 254.730162 245.056634 
L 254.730162 244.258218 
L 255.038545 244.258218 
L 255.038545 243.459802 
L 255.6733 243.459802 
L 255.6733 242.661386 
L 255.843199 242.661386 
L 255.843199 241.86297 
L 255.982644 241.86297 
L 256.091156 240.266139 
L 256.331243 240.266139 
L 256.36865 237.870891 
L 256.497063 237.870891 
L 256.497063 237.072475 
L 256.82038 237.072475 
L 256.82038 236.274059 
L 257.262507 236.274059 
L 257.336534 234.677228 
L 257.45863 234.677228 
L 257.562389 233.080396 
L 257.623141 233.080396 
L 257.66387 230.685149 
L 257.739248 230.685149 
L 257.78774 229.088317 
L 257.990194 229.088317 
L 257.990194 228.289901 
L 258.380332 228.289901 
L 258.380332 227.491485 
L 258.505362 227.491485 
L 258.613612 225.096238 
L 258.620277 225.096238 
L 258.706074 221.104158 
L 258.773949 221.104158 
L 258.86856 218.708911 
L 258.945251 218.708911 
L 259.055834 215.515248 
L 259.05729 215.515248 
L 259.139664 213.12 
L 259.19271 213.12 
L 259.262495 207.531089 
L 259.317456 207.531089 
L 259.317456 206.732673 
L 259.437441 206.732673 
L 259.530528 203.53901 
L 259.5496 203.53901 
L 259.5496 202.740594 
L 259.785152 202.740594 
L 259.785152 201.942178 
L 260.272472 201.942178 
L 260.372165 200.345347 
L 260.665219 200.345347 
L 260.665219 199.546931 
L 261.396199 199.546931 
L 261.422644 197.950099 
L 261.776234 197.950099 
L 261.776234 197.151683 
L 262.493072 197.151683 
L 262.556391 194.756436 
L 262.845194 194.756436 
L 262.894746 193.159604 
L 263.090844 193.159604 
L 263.199793 191.562772 
L 263.362557 191.562772 
L 263.362557 190.764356 
L 263.660839 190.764356 
L 263.757605 186.772277 
L 263.775932 186.772277 
L 263.885759 178.788119 
L 263.96525 178.788119 
L 263.96525 177.989703 
L 265.536367 177.989703 
L 265.536367 177.191287 
L 265.745843 177.191287 
L 265.745843 176.392871 
L 265.882875 176.392871 
L 265.962205 174.79604 
L 266.343824 174.79604 
L 266.343824 173.997624 
L 268.058124 173.997624 
L 268.058124 173.199208 
L 271.373624 173.199208 
L 271.373624 172.400792 
L 271.655696 172.400792 
L 271.655696 171.602376 
L 271.787686 171.602376 
L 271.787686 170.80396 
L 271.988417 170.80396 
L 271.988417 170.005545 
L 272.403484 170.005545 
L 272.464002 168.408713 
L 272.74306 168.408713 
L 272.850322 166.811881 
L 272.975004 166.811881 
L 272.975004 166.013465 
L 273.096485 166.013465 
L 273.196437 164.416634 
L 273.238776 164.416634 
L 273.238776 163.618218 
L 273.373735 163.618218 
L 273.373735 162.819802 
L 274.09706 162.819802 
L 274.09706 162.021386 
L 274.337602 162.021386 
L 274.337602 161.22297 
L 277.297153 161.22297 
L 277.311889 149.246733 
L 277.861951 149.246733 
L 277.861951 148.448317 
L 278.441402 148.448317 
L 278.441402 147.649901 
L 278.664992 147.649901 
L 278.664992 146.851485 
L 279.300361 146.851485 
L 279.39674 145.254653 
L 280.289638 145.254653 
L 280.289638 144.456238 
L 280.969691 144.456238 
L 280.969691 143.657822 
L 281.759436 143.657822 
L 281.814347 142.06099 
L 281.981958 142.06099 
L 281.981958 141.262574 
L 282.129144 141.262574 
L 282.129144 140.464158 
L 282.269253 140.464158 
L 282.344059 138.068911 
L 282.430074 138.068911 
L 282.46848 136.472079 
L 282.617359 136.472079 
L 282.653064 134.875248 
L 282.959311 134.875248 
L 282.959311 134.076832 
L 283.333579 134.076832 
L 283.415781 132.48 
L 283.491556 132.48 
L 283.491556 131.681584 
L 283.763091 131.681584 
L 283.861603 130.084752 
L 284.030058 130.084752 
L 284.075673 126.891089 
L 284.176973 126.891089 
L 284.180134 125.294257 
L 284.706199 125.294257 
L 284.706199 124.495842 
L 284.870001 124.495842 
L 284.910728 122.89901 
L 285.128676 122.89901 
L 285.158644 121.302178 
L 285.481417 121.302178 
L 285.481417 120.503762 
L 285.776768 120.503762 
L 285.776768 119.705347 
L 285.91196 119.705347 
L 285.952245 118.108515 
L 286.223096 118.108515 
L 286.223096 117.310099 
L 286.368764 117.310099 
L 286.390156 115.713267 
L 286.529103 115.713267 
L 286.529103 114.914851 
L 286.646187 114.914851 
L 286.646187 114.116436 
L 286.827736 114.116436 
L 286.827736 113.31802 
L 286.99595 113.31802 
L 286.999773 111.721188 
L 287.574301 111.721188 
L 287.679158 110.124356 
L 288.387929 110.124356 
L 288.387929 109.325941 
L 288.568066 109.325941 
L 288.568066 108.527525 
L 289.854391 108.527525 
L 289.854391 107.729109 
L 291.126431 107.729109 
L 291.126431 106.930693 
L 291.32234 106.930693 
L 291.32234 106.132277 
L 292.005995 106.132277 
L 292.005995 105.333861 
L 292.69215 105.333861 
L 292.69215 104.535446 
L 293.748954 104.535446 
L 293.855251 102.938614 
L 294.230389 102.938614 
L 294.230389 102.140198 
L 294.870646 102.140198 
L 294.870646 101.341782 
L 295.154196 101.341782 
L 295.154196 100.543366 
L 295.30324 100.543366 
L 295.30324 99.74495 
L 295.47873 99.74495 
L 295.47873 98.946535 
L 295.703607 98.946535 
L 295.703607 98.148119 
L 295.967417 98.148119 
L 295.967417 97.349703 
L 296.339715 97.349703 
L 296.339715 96.551287 
L 296.561046 96.551287 
L 296.598925 94.954455 
L 297.089159 94.954455 
L 297.089159 94.15604 
L 297.341685 94.15604 
L 297.341685 93.357624 
L 297.546581 93.357624 
L 297.546581 92.559208 
L 297.90173 92.559208 
L 298.00825 90.16396 
L 298.827056 90.16396 
L 298.827056 89.365545 
L 312.341582 89.365545 
L 312.341582 88.567129 
L 320.196408 88.567129 
L 320.239247 79.784554 
L 320.317813 79.784554 
L 320.317813 77.389307 
L 320.51053 77.389307 
L 320.51053 76.590891 
L 321.484835 76.590891 
L 321.484835 75.792475 
L 324.761469 75.792475 
L 324.761469 74.994059 
L 329.300588 74.994059 
L 329.300588 74.195644 
L 332.734066 74.195644 
L 332.734066 73.397228 
L 333.793074 73.397228 
L 333.793074 72.598812 
L 333.997912 72.598812 
L 333.997912 71.800396 
L 334.355542 71.800396 
L 334.355542 71.00198 
L 334.711488 71.00198 
L 334.711488 70.203564 
L 335.843473 70.203564 
L 335.843473 69.405149 
L 336.028324 69.405149 
L 336.028324 68.606733 
L 336.64954 68.606733 
L 336.64954 67.808317 
L 337.282375 67.808317 
L 337.304801 66.211485 
L 338.001099 66.211485 
L 338.001099 65.413069 
L 338.411526 65.413069 
L 338.411526 64.614653 
L 342.971366 64.614653 
L 342.971366 63.816238 
L 346.03857 63.816238 
L 346.03857 63.017822 
L 347.474835 63.017822 
L 347.474835 62.219406 
L 350.29091 62.219406 
L 350.29091 61.42099 
L 350.80788 61.42099 
L 350.80788 60.622574 
L 351.605938 60.622574 
L 351.605938 59.824158 
L 353.313098 59.824158 
L 353.401176 58.227327 
L 353.496462 58.227327 
L 353.496462 57.428911 
L 354.229804 57.428911 
L 354.229804 56.630495 
L 354.94424 56.630495 
L 354.94424 55.832079 
L 355.273125 55.832079 
L 355.273125 55.033663 
L 357.084626 55.033663 
L 357.084626 54.235248 
L 358.82704 54.235248 
L 358.82704 53.436832 
L 360.149257 53.436832 
L 360.149257 52.638416 
L 360.84419 52.638416 
L 360.84419 51.84 
L 363.186305 51.84 
L 363.186305 51.041584 
L 366.181669 51.041584 
L 366.181669 50.243168 
L 367.789945 50.243168 
L 367.789945 49.444752 
L 373.558394 49.444752 
L 373.558394 48.646337 
L 374.238462 48.646337 
L 374.238462 47.847921 
L 375.497936 47.847921 
L 375.497936 47.049505 
L 376.424469 47.049505 
L 376.424469 46.251089 
L 376.877367 46.251089 
L 376.877367 45.452673 
L 378.388142 45.452673 
L 378.388142 44.654257 
L 378.684501 44.654257 
L 378.684501 43.855842 
L 379.047248 43.855842 
L 379.047248 43.057426 
L 379.908381 43.057426 
L 379.908381 42.25901 
L 380.389419 42.25901 
L 380.389419 41.460594 
L 384.338315 41.460594 
L 384.338315 40.662178 
L 386.269976 40.662178 
L 386.301557 39.065347 
L 387.287012 39.065347 
L 387.287012 38.266931 
L 387.455135 38.266931 
L 387.518401 36.670099 
L 388.154774 36.670099 
L 388.154774 35.871683 
L 388.752593 35.871683 
L 388.84875 34.274851 
L 388.949671 34.274851 
L 388.949671 33.476436 
L 389.173582 33.476436 
L 389.173582 32.67802 
L 390.270569 32.67802 
L 390.270569 31.879604 
L 390.957831 31.879604 
L 390.957831 31.081188 
L 391.517481 31.081188 
L 391.517481 30.282772 
L 391.725905 30.282772 
L 391.725905 29.484356 
L 392.086263 29.484356 
L 392.086263 28.685941 
L 393.248163 28.685941 
L 393.248163 27.887525 
L 393.404433 27.887525 
L 393.404433 27.089109 
L 393.605316 27.089109 
L 393.605316 26.290693 
L 393.817896 26.290693 
L 393.817896 25.492277 
L 395.400878 25.492277 
L 395.400878 24.693861 
L 395.588103 24.693861 
L 395.588103 23.895446 
L 396.498248 23.895446 
L 396.498248 23.09703 
L 397.319791 23.09703 
L 397.319791 22.298614 
L 397.688507 22.298614 
L 397.688507 21.500198 
L 400.220975 21.500198 
L 400.285622 19.903366 
L 400.499509 19.903366 
L 400.499509 19.10495 
L 405.01321 19.10495 
L 405.01321 18.306535 
L 414.093435 18.306535 
L 414.093435 17.508119 
L 417.337401 17.508119 
L 417.433197 15.911287 
L 422.064218 15.911287 
L 422.064218 15.112871 
L 423.279197 15.112871 
L 423.279197 14.314455 
L 423.965846 14.314455 
L 423.965846 13.51604 
L 426.383834 13.51604 
L 426.383834 12.717624 
L 427.455773 12.717624 
L 427.455773 11.919208 
L 429.56218 11.919208 
L 429.56218 11.120792 
L 430.266986 11.120792 
L 430.266986 10.322376 
L 432.480298 10.322376 
L 432.480298 9.52396 
L 433.073698 9.52396 
L 433.073698 8.725545 
L 434.746188 8.725545 
L 434.746188 7.927129 
L 438.723243 7.927129 
L 438.723243 7.128713 
L 438.851758 7.128713 
L 438.851758 6.330297 
L 438.851758 6.330297 
L 460.8 6.330297 
L 460.8 6.330297 
" clip-path="url(#pef6d8ecd58)" style="fill: none; stroke: #bf00bf; stroke-width: 1.5; stroke-linecap: square"/>
   </g>
   <g id="line2d_24">
    <path d="M -0.113092 293.76 
L -0.113092 287.372673 
L 192.282732 287.372673 
L 192.327669 285.775842 
L 192.45268 285.775842 
L 192.464159 284.17901 
L 192.627715 284.17901 
L 192.627715 283.380594 
L 192.758558 283.380594 
L 192.758558 282.582178 
L 192.902692 282.582178 
L 192.902692 281.783762 
L 193.510365 281.783762 
L 193.510365 275.396436 
L 198.789325 275.396436 
L 198.789325 274.59802 
L 216.048255 274.59802 
L 216.048255 273.799604 
L 216.443166 273.799604 
L 216.489697 272.202772 
L 216.691607 272.202772 
L 216.691607 271.404356 
L 217.424518 271.404356 
L 217.424518 270.605941 
L 218.419716 270.605941 
L 218.419716 269.807525 
L 222.362367 269.807525 
L 222.362367 269.009109 
L 222.615247 269.009109 
L 222.615247 268.210693 
L 222.954997 268.210693 
L 222.954997 267.412277 
L 223.532479 267.412277 
L 223.532479 266.613861 
L 223.896566 266.613861 
L 223.896566 265.815446 
L 224.465216 265.815446 
L 224.514742 263.420198 
L 227.007319 263.420198 
L 227.007319 262.621782 
L 229.013366 262.621782 
L 229.049425 261.02495 
L 229.37607 261.02495 
L 229.37607 260.226535 
L 229.785179 260.226535 
L 229.785179 259.428119 
L 231.480685 259.428119 
L 231.480685 258.629703 
L 232.453028 258.629703 
L 232.494253 257.032871 
L 232.691749 257.032871 
L 232.691749 256.234455 
L 232.833466 256.234455 
L 232.833466 255.43604 
L 233.347059 255.43604 
L 233.347059 254.637624 
L 233.502429 254.637624 
L 233.502429 253.839208 
L 234.1413 253.839208 
L 234.1413 253.040792 
L 234.303468 253.040792 
L 234.393514 251.44396 
L 234.484477 251.44396 
L 234.484477 250.645545 
L 234.762247 250.645545 
L 234.779952 249.048713 
L 235.260798 249.048713 
L 235.260798 248.250297 
L 235.722426 248.250297 
L 235.722426 247.451881 
L 236.228936 247.451881 
L 236.304104 245.056634 
L 237.883487 245.056634 
L 237.883487 244.258218 
L 238.092243 244.258218 
L 238.092243 243.459802 
L 238.753706 243.459802 
L 238.753706 242.661386 
L 239.129552 242.661386 
L 239.129552 241.86297 
L 239.52785 241.86297 
L 239.634789 240.266139 
L 239.742061 240.266139 
L 239.742061 239.467723 
L 239.864183 239.467723 
L 239.864183 238.669307 
L 241.387864 238.669307 
L 241.450967 237.072475 
L 241.687159 237.072475 
L 241.687159 236.274059 
L 242.229884 236.274059 
L 242.229884 235.475644 
L 242.891148 235.475644 
L 242.891148 234.677228 
L 243.565177 234.677228 
L 243.565177 233.878812 
L 243.723652 233.878812 
L 243.723652 233.080396 
L 244.172577 233.080396 
L 244.172577 232.28198 
L 244.642193 232.28198 
L 244.642193 231.483564 
L 244.76855 231.483564 
L 244.76855 230.685149 
L 244.90732 230.685149 
L 244.90732 229.886733 
L 245.205828 229.886733 
L 245.285855 227.491485 
L 245.920053 227.491485 
L 245.983975 225.096238 
L 246.821893 225.096238 
L 246.821893 224.297822 
L 247.09881 224.297822 
L 247.099735 222.70099 
L 247.245414 222.70099 
L 247.272083 221.104158 
L 247.696878 221.104158 
L 247.696878 220.305743 
L 248.878305 220.305743 
L 248.964252 218.708911 
L 249.149089 218.708911 
L 249.149089 217.910495 
L 249.777218 217.910495 
L 249.777218 217.112079 
L 249.90781 217.112079 
L 249.90781 216.313663 
L 250.033027 216.313663 
L 250.033027 215.515248 
L 250.427233 215.515248 
L 250.478468 213.918416 
L 251.055576 213.918416 
L 251.055576 213.12 
L 251.195263 213.12 
L 251.212125 211.523168 
L 251.535757 211.523168 
L 251.535757 210.724752 
L 252.031697 210.724752 
L 252.124034 209.127921 
L 252.227557 209.127921 
L 252.227557 208.329505 
L 252.52929 208.329505 
L 252.52929 207.531089 
L 253.345565 207.531089 
L 253.420985 205.135842 
L 253.558792 205.135842 
L 253.558792 204.337426 
L 253.723799 204.337426 
L 253.723799 203.53901 
L 253.98993 203.53901 
L 253.98993 202.740594 
L 254.433846 202.740594 
L 254.450846 201.143762 
L 254.730162 201.143762 
L 254.730162 200.345347 
L 255.038545 200.345347 
L 255.038545 199.546931 
L 255.164432 199.546931 
L 255.164432 198.748515 
L 255.6733 198.748515 
L 255.6733 197.950099 
L 255.929713 197.950099 
L 255.929713 197.151683 
L 256.091156 197.151683 
L 256.091156 196.353267 
L 256.44487 196.353267 
L 256.44487 195.554851 
L 256.82038 195.554851 
L 256.861014 193.95802 
L 257.196289 193.95802 
L 257.196289 193.159604 
L 257.607394 193.159604 
L 257.607394 192.361188 
L 257.896251 192.361188 
L 257.896251 191.562772 
L 258.339926 191.562772 
L 258.339926 190.764356 
L 258.620277 190.764356 
L 258.66151 189.167525 
L 258.795323 189.167525 
L 258.795323 188.369109 
L 258.95205 188.369109 
L 259.05729 186.772277 
L 259.20566 186.772277 
L 259.290108 183.578614 
L 259.442891 183.578614 
L 259.5496 181.981782 
L 259.622024 181.981782 
L 259.622024 181.183366 
L 259.902711 181.183366 
L 259.902711 180.38495 
L 260.266907 180.38495 
L 260.266907 179.586535 
L 261.213134 179.586535 
L 261.213134 178.788119 
L 261.396199 178.788119 
L 261.498592 177.191287 
L 261.694024 177.191287 
L 261.694024 176.392871 
L 261.829937 176.392871 
L 261.93665 173.199208 
L 262.039183 173.199208 
L 262.039183 172.400792 
L 262.152867 172.400792 
L 262.197929 170.005545 
L 262.270617 170.005545 
L 262.368074 166.811881 
L 262.516958 166.811881 
L 262.556391 165.21505 
L 263.863358 165.21505 
L 263.885759 163.618218 
L 265.151913 163.618218 
L 265.151913 162.819802 
L 265.438822 162.819802 
L 265.438822 162.021386 
L 267.358646 162.021386 
L 267.358646 161.22297 
L 267.761164 161.22297 
L 267.761164 160.424554 
L 268.128428 160.424554 
L 268.128428 159.626139 
L 268.628177 159.626139 
L 268.634524 158.029307 
L 268.89742 158.029307 
L 268.89742 157.230891 
L 269.212899 157.230891 
L 269.308125 155.634059 
L 269.395583 155.634059 
L 269.425061 154.037228 
L 269.511684 154.037228 
L 269.58343 152.440396 
L 269.732542 152.440396 
L 269.732542 151.64198 
L 269.88024 151.64198 
L 269.88024 150.843564 
L 270.325424 150.843564 
L 270.325424 150.045149 
L 271.021425 150.045149 
L 271.025938 148.448317 
L 271.275011 148.448317 
L 271.275011 147.649901 
L 273.151714 147.649901 
L 273.210978 146.053069 
L 273.317757 146.053069 
L 273.317757 145.254653 
L 275.564212 145.254653 
L 275.592052 143.657822 
L 275.899495 143.657822 
L 275.899495 142.859406 
L 276.503264 142.859406 
L 276.539465 141.262574 
L 277.062978 141.262574 
L 277.062978 140.464158 
L 277.243412 140.464158 
L 277.243412 139.665743 
L 277.406518 139.665743 
L 277.406518 138.867327 
L 277.567013 138.867327 
L 277.662943 137.270495 
L 278.159405 137.270495 
L 278.159405 136.472079 
L 278.5403 136.472079 
L 278.5403 135.673663 
L 279.024939 135.673663 
L 279.031529 134.076832 
L 279.215116 134.076832 
L 279.324753 132.48 
L 279.551032 132.48 
L 279.656083 130.084752 
L 279.948481 130.084752 
L 279.955086 128.487921 
L 280.138381 128.487921 
L 280.148494 126.092673 
L 280.349868 126.092673 
L 280.380272 124.495842 
L 280.591852 124.495842 
L 280.647765 122.89901 
L 280.87687 122.89901 
L 280.969691 120.503762 
L 281.033397 120.503762 
L 281.130917 118.906931 
L 281.152042 118.906931 
L 281.201711 117.310099 
L 281.301502 117.310099 
L 281.301502 116.511683 
L 281.64656 116.511683 
L 281.666727 114.116436 
L 281.804381 114.116436 
L 281.892416 112.519604 
L 281.978963 112.519604 
L 282.018567 110.922772 
L 282.287961 110.922772 
L 282.287961 110.124356 
L 282.465426 110.124356 
L 282.490938 108.527525 
L 282.592855 108.527525 
L 282.592855 107.729109 
L 282.833166 107.729109 
L 282.857626 106.132277 
L 283.123322 106.132277 
L 283.123322 105.333861 
L 283.244346 105.333861 
L 283.244346 104.535446 
L 283.665729 104.535446 
L 283.755755 100.543366 
L 283.786576 100.543366 
L 283.786576 99.74495 
L 284.013581 99.74495 
L 284.013581 98.946535 
L 284.131061 98.946535 
L 284.176973 96.551287 
L 284.811419 96.551287 
L 284.919278 94.15604 
L 285.08907 94.15604 
L 285.128676 92.559208 
L 285.307895 92.559208 
L 285.307895 91.760792 
L 285.481417 91.760792 
L 285.481417 90.962376 
L 285.655487 90.962376 
L 285.655487 90.16396 
L 285.91196 90.16396 
L 285.91196 89.365545 
L 286.368764 89.365545 
L 286.368764 88.567129 
L 286.668636 88.567129 
L 286.668636 87.768713 
L 287.154394 87.768713 
L 287.181354 86.171881 
L 287.404485 86.171881 
L 287.404485 85.373465 
L 287.760491 85.373465 
L 287.760491 84.57505 
L 288.164056 84.57505 
L 288.164056 83.776634 
L 288.533335 83.776634 
L 288.53554 82.179802 
L 289.026757 82.179802 
L 289.026757 81.381386 
L 290.596707 81.381386 
L 290.596707 80.58297 
L 291.32234 80.58297 
L 291.32234 79.784554 
L 292.005995 79.784554 
L 292.005995 78.986139 
L 293.737102 78.986139 
L 293.748954 77.389307 
L 293.971552 77.389307 
L 293.971552 76.590891 
L 295.613967 76.590891 
L 295.613967 75.792475 
L 297.089159 75.792475 
L 297.089159 74.994059 
L 297.927018 74.994059 
L 297.927018 74.195644 
L 298.358102 74.195644 
L 298.358102 73.397228 
L 298.687476 73.397228 
L 298.794804 71.800396 
L 298.827056 71.800396 
L 298.827056 71.00198 
L 300.245832 71.00198 
L 300.245832 70.203564 
L 300.643878 70.203564 
L 300.643878 69.405149 
L 301.947627 69.405149 
L 301.992501 66.211485 
L 302.111139 66.211485 
L 302.133903 64.614653 
L 303.07972 64.614653 
L 303.135001 63.017822 
L 303.462648 63.017822 
L 303.462648 62.219406 
L 304.108133 62.219406 
L 304.108133 61.42099 
L 304.720837 61.42099 
L 304.720837 60.622574 
L 307.077955 60.622574 
L 307.077955 59.824158 
L 307.361593 59.824158 
L 307.361593 59.025743 
L 307.804283 59.025743 
L 307.804283 58.227327 
L 321.281849 58.227327 
L 321.281849 57.428911 
L 325.752173 57.428911 
L 325.752173 56.630495 
L 327.408613 56.630495 
L 327.408613 55.832079 
L 327.559541 55.832079 
L 327.559541 55.033663 
L 327.671899 55.033663 
L 327.671899 54.235248 
L 327.820757 54.235248 
L 327.820757 53.436832 
L 328.06264 53.436832 
L 328.129894 51.84 
L 328.813036 51.84 
L 328.813036 51.041584 
L 328.986318 51.041584 
L 328.986318 50.243168 
L 334.051989 50.243168 
L 334.051989 49.444752 
L 335.283845 49.444752 
L 335.283845 48.646337 
L 341.538839 48.646337 
L 341.538839 47.847921 
L 342.097653 47.847921 
L 342.097653 47.049505 
L 350.554577 47.049505 
L 350.554577 46.251089 
L 353.212772 46.251089 
L 353.212772 45.452673 
L 354.24708 45.452673 
L 354.24708 44.654257 
L 356.229294 44.654257 
L 356.229294 43.855842 
L 356.74326 43.855842 
L 356.74326 43.057426 
L 356.879038 43.057426 
L 356.879038 42.25901 
L 357.050915 42.25901 
L 357.050915 41.460594 
L 358.151191 41.460594 
L 358.151191 40.662178 
L 358.272555 40.662178 
L 358.272555 39.863762 
L 360.315314 39.863762 
L 360.315314 39.065347 
L 360.535317 39.065347 
L 360.535317 38.266931 
L 360.817221 38.266931 
L 360.817221 37.468515 
L 361.329985 37.468515 
L 361.329985 36.670099 
L 361.863921 36.670099 
L 361.863921 35.871683 
L 362.017817 35.871683 
L 362.017817 35.073267 
L 362.194227 35.073267 
L 362.194227 34.274851 
L 363.39003 34.274851 
L 363.394465 32.67802 
L 363.651055 32.67802 
L 363.651055 31.879604 
L 364.106575 31.879604 
L 364.112198 30.282772 
L 364.38334 30.282772 
L 364.38334 29.484356 
L 366.269492 29.484356 
L 366.269492 28.685941 
L 367.193779 28.685941 
L 367.193779 27.887525 
L 367.316574 27.887525 
L 367.371459 26.290693 
L 368.89761 26.290693 
L 368.89761 25.492277 
L 370.470764 25.492277 
L 370.470764 24.693861 
L 371.530162 24.693861 
L 371.530162 23.895446 
L 371.902215 23.895446 
L 371.902215 23.09703 
L 372.403527 23.09703 
L 372.403527 22.298614 
L 373.895542 22.298614 
L 373.895542 21.500198 
L 375.318231 21.500198 
L 375.318231 20.701782 
L 375.436312 20.701782 
L 375.436312 19.903366 
L 375.78967 19.903366 
L 375.841444 18.306535 
L 376.1736 18.306535 
L 376.1736 17.508119 
L 379.894804 17.508119 
L 379.894804 16.709703 
L 386.347834 16.709703 
L 386.347834 15.911287 
L 397.808149 15.911287 
L 397.808149 15.112871 
L 399.703083 15.112871 
L 399.703083 14.314455 
L 400.848331 14.314455 
L 400.848331 13.51604 
L 402.386753 13.51604 
L 402.386753 12.717624 
L 406.361638 12.717624 
L 406.361638 11.919208 
L 410.030632 11.919208 
L 410.030632 11.120792 
L 410.765316 11.120792 
L 410.765316 10.322376 
L 412.074572 10.322376 
L 412.074572 9.52396 
L 412.196684 9.52396 
L 412.196684 8.725545 
L 412.428214 8.725545 
L 412.428214 7.927129 
L 414.755639 7.927129 
L 414.755639 7.128713 
L 418.099554 7.128713 
L 418.099554 6.330297 
L 418.099554 6.330297 
L 460.8 6.330297 
L 460.8 6.330297 
" clip-path="url(#pef6d8ecd58)" style="fill: none; stroke: #000000; stroke-width: 1.5; stroke-linecap: square"/>
   </g>
   <g id="patch_3">
    <path d="M 0 293.76 
L 0 3.456 
" style="fill: none; stroke: #000000; stroke-width: 0.8; stroke-linejoin: miter; stroke-linecap: square"/>
   </g>
   <g id="patch_4">
    <path d="M 460.8 293.76 
L 460.8 3.456 
" style="fill: none; stroke: #000000; stroke-width: 0.8; stroke-linejoin: miter; stroke-linecap: square"/>
   </g>
   <g id="patch_5">
    <path d="M 0 293.76 
L 460.8 293.76 
" style="fill: none; stroke: #000000; stroke-width: 0.8; stroke-linejoin: miter; stroke-linecap: square"/>
   </g>
   <g id="patch_6">
    <path d="M 0 3.456 
L 460.8 3.456 
" style="fill: none; stroke: #000000; stroke-width: 0.8; stroke-linejoin: miter; stroke-linecap: square"/>
   </g>
   <g id="text_6">
    <!-- {f1-f24}, 20-D -->
    <g transform="translate(305.884 287.95392) scale(0.2 -0.2)">
     <defs>
      <path id="DejaVuSans-7b" d="M 3272 -594 
L 3272 -1044 
L 3078 -1044 
Q 2300 -1044 2036 -812 
Q 1772 -581 1772 109 
L 1772 856 
Q 1772 1328 1603 1509 
Q 1434 1691 991 1691 
L 800 1691 
L 800 2138 
L 991 2138 
Q 1438 2138 1605 2317 
Q 1772 2497 1772 2963 
L 1772 3713 
Q 1772 4403 2036 4633 
Q 2300 4863 3078 4863 
L 3272 4863 
L 3272 4416 
L 3059 4416 
Q 2619 4416 2484 4278 
Q 2350 4141 2350 3700 
L 2350 2925 
Q 2350 2434 2208 2212 
Q 2066 1991 1722 1913 
Q 2069 1828 2209 1606 
Q 2350 1384 2350 897 
L 2350 122 
Q 2350 -319 2484 -456 
Q 2619 -594 3059 -594 
L 3272 -594 
z
" transform="scale(0.015625)"/>
      <path id="DejaVuSans-32" d="M 1228 531 
L 3431 531 
L 3431 0 
L 469 0 
L 469 531 
Q 828 903 1448 1529 
Q 2069 2156 2228 2338 
Q 2531 2678 2651 2914 
Q 2772 3150 2772 3378 
Q 2772 3750 2511 3984 
Q 2250 4219 1831 4219 
Q 1534 4219 1204 4116 
Q 875 4013 500 3803 
L 500 4441 
Q 881 4594 1212 4672 
Q 1544 4750 1819 4750 
Q 2544 4750 2975 4387 
Q 3406 4025 3406 3419 
Q 3406 3131 3298 2873 
Q 3191 2616 2906 2266 
Q 2828 2175 2409 1742 
Q 1991 1309 1228 531 
z
" transform="scale(0.015625)"/>
      <path id="DejaVuSans-7d" d="M 800 -594 
L 1019 -594 
Q 1456 -594 1589 -459 
Q 1722 -325 1722 122 
L 1722 897 
Q 1722 1384 1862 1606 
Q 2003 1828 2350 1913 
Q 2003 1991 1862 2212 
Q 1722 2434 1722 2925 
L 1722 3700 
Q 1722 4144 1589 4280 
Q 1456 4416 1019 4416 
L 800 4416 
L 800 4863 
L 997 4863 
Q 1775 4863 2036 4633 
Q 2297 4403 2297 3713 
L 2297 2963 
Q 2297 2497 2465 2317 
Q 2634 2138 3078 2138 
L 3272 2138 
L 3272 1691 
L 3078 1691 
Q 2634 1691 2465 1509 
Q 2297 1328 2297 856 
L 2297 109 
Q 2297 -581 2036 -812 
Q 1775 -1044 997 -1044 
L 800 -1044 
L 800 -594 
z
" transform="scale(0.015625)"/>
      <path id="DejaVuSans-2c" d="M 750 794 
L 1409 794 
L 1409 256 
L 897 -744 
L 494 -744 
L 750 256 
L 750 794 
z
" transform="scale(0.015625)"/>
     </defs>
     <use xlink:href="#DejaVuSans-7b"/>
     <use xlink:href="#DejaVuSans-66" x="63.623047"/>
     <use xlink:href="#DejaVuSans-31" x="98.828125"/>
     <use xlink:href="#DejaVuSans-2d" x="162.451172"/>
     <use xlink:href="#DejaVuSans-66" x="198.535156"/>
     <use xlink:href="#DejaVuSans-32" x="233.740234"/>
     <use xlink:href="#DejaVuSans-34" x="297.363281"/>
     <use xlink:href="#DejaVuSans-7d" x="360.986328"/>
     <use xlink:href="#DejaVuSans-2c" x="424.609375"/>
     <use xlink:href="#DejaVuSans-20" x="456.396484"/>
     <use xlink:href="#DejaVuSans-32" x="488.183594"/>
     <use xlink:href="#DejaVuSans-30" x="551.806641"/>
     <use xlink:href="#DejaVuSans-2d" x="615.429688"/>
     <use xlink:href="#DejaVuSans-44" x="651.513672"/>
    </g>
   </g>
   <g id="text_7">
    <!-- v2.6.3 -->
    <g style="fill: #808080" transform="translate(214.71875 288.777272) scale(0.1 -0.1)">
     <defs>
      <path id="DejaVuSans-76" d="M 191 3500 
L 800 3500 
L 1894 563 
L 2988 3500 
L 3597 3500 
L 2284 0 
L 1503 0 
L 191 3500 
z
" transform="scale(0.015625)"/>
      <path id="DejaVuSans-2e" d="M 684 794 
L 1344 794 
L 1344 0 
L 684 0 
L 684 794 
z
" transform="scale(0.015625)"/>
      <path id="DejaVuSans-36" d="M 2113 2584 
Q 1688 2584 1439 2293 
Q 1191 2003 1191 1497 
Q 1191 994 1439 701 
Q 1688 409 2113 409 
Q 2538 409 2786 701 
Q 3034 994 3034 1497 
Q 3034 2003 2786 2293 
Q 2538 2584 2113 2584 
z
M 3366 4563 
L 3366 3988 
Q 3128 4100 2886 4159 
Q 2644 4219 2406 4219 
Q 1781 4219 1451 3797 
Q 1122 3375 1075 2522 
Q 1259 2794 1537 2939 
Q 1816 3084 2150 3084 
Q 2853 3084 3261 2657 
Q 3669 2231 3669 1497 
Q 3669 778 3244 343 
Q 2819 -91 2113 -91 
Q 1303 -91 875 529 
Q 447 1150 447 2328 
Q 447 3434 972 4092 
Q 1497 4750 2381 4750 
Q 2619 4750 2861 4703 
Q 3103 4656 3366 4563 
z
" transform="scale(0.015625)"/>
      <path id="DejaVuSans-33" d="M 2597 2516 
Q 3050 2419 3304 2112 
Q 3559 1806 3559 1356 
Q 3559 666 3084 287 
Q 2609 -91 1734 -91 
Q 1441 -91 1130 -33 
Q 819 25 488 141 
L 488 750 
Q 750 597 1062 519 
Q 1375 441 1716 441 
Q 2309 441 2620 675 
Q 2931 909 2931 1356 
Q 2931 1769 2642 2001 
Q 2353 2234 1838 2234 
L 1294 2234 
L 1294 2753 
L 1863 2753 
Q 2328 2753 2575 2939 
Q 2822 3125 2822 3475 
Q 2822 3834 2567 4026 
Q 2313 4219 1838 4219 
Q 1578 4219 1281 4162 
Q 984 4106 628 3988 
L 628 4550 
Q 988 4650 1302 4700 
Q 1616 4750 1894 4750 
Q 2613 4750 3031 4423 
Q 3450 4097 3450 3541 
Q 3450 3153 3228 2886 
Q 3006 2619 2597 2516 
z
" transform="scale(0.015625)"/>
     </defs>
     <use xlink:href="#DejaVuSans-76"/>
     <use xlink:href="#DejaVuSans-32" x="59.179688"/>
     <use xlink:href="#DejaVuSans-2e" x="122.802734"/>
     <use xlink:href="#DejaVuSans-36" x="154.589844"/>
     <use xlink:href="#DejaVuSans-2e" x="218.212891"/>
     <use xlink:href="#DejaVuSans-33" x="250"/>
    </g>
   </g>
  </g>
 </g>
 <defs>
  <clipPath id="pef6d8ecd58">
   <rect x="0" y="3.456" width="460.8" height="290.304"/>
  </clipPath>
 </defs>
</svg>
