<?xml version="1.0" encoding="utf-8" standalone="no"?>
<!DOCTYPE svg PUBLIC "-//W3C//DTD SVG 1.1//EN"
  "http://www.w3.org/Graphics/SVG/1.1/DTD/svg11.dtd">
<svg xmlns:xlink="http://www.w3.org/1999/xlink" width="460.8pt" height="345.6pt" viewBox="0 0 460.8 345.6" xmlns="http://www.w3.org/2000/svg" version="1.1">
 <metadata>
  <rdf:RDF xmlns:dc="http://purl.org/dc/elements/1.1/" xmlns:cc="http://creativecommons.org/ns#" xmlns:rdf="http://www.w3.org/1999/02/22-rdf-syntax-ns#">
   <cc:Work>
    <dc:type rdf:resource="http://purl.org/dc/dcmitype/StillImage"/>
    <dc:date>2024-01-17T15:57:02.484682</dc:date>
    <dc:format>image/svg+xml</dc:format>
    <dc:creator>
     <cc:Agent>
      <dc:title>Matplotlib v3.8.2, https://matplotlib.org/</dc:title>
     </cc:Agent>
    </dc:creator>
   </cc:Work>
  </rdf:RDF>
 </metadata>
 <defs>
  <style type="text/css">*{stroke-linejoin: round; stroke-linecap: butt}</style>
 </defs>
 <g id="figure_1">
  <g id="patch_1">
   <path d="M 0 345.6 
L 460.8 345.6 
L 460.8 0 
L 0 0 
z
" style="fill: #ffffff"/>
  </g>
  <g id="axes_1">
   <g id="patch_2">
    <path d="M 0 293.76 
L 460.8 293.76 
L 460.8 3.456 
L 0 3.456 
z
" style="fill: #ffffff"/>
   </g>
   <g id="matplotlib.axis_1">
    <g id="xtick_1">
     <g id="line2d_1">
      <path d="M 104.376121 293.76 
L 104.376121 3.456 
" clip-path="url(#p128b90b307)" style="fill: none; stroke: #b0b0b0; stroke-width: 0.8; stroke-linecap: square"/>
     </g>
     <g id="line2d_2">
      <defs>
       <path id="m10e516f602" d="M 0 0 
L 0 3.5 
" style="stroke: #000000; stroke-width: 0.8"/>
      </defs>
      <g>
       <use xlink:href="#m10e516f602" x="104.376121" y="293.76" style="stroke: #000000; stroke-width: 0.8"/>
      </g>
     </g>
     <g id="text_1">
      <!-- -4 -->
      <g transform="translate(94.405809 315.956875) scale(0.2 -0.2)">
       <defs>
        <path id="DejaVuSans-2d" d="M 313 2009 
L 1997 2009 
L 1997 1497 
L 313 1497 
L 313 2009 
z
" transform="scale(0.015625)"/>
        <path id="DejaVuSans-34" d="M 2419 4116 
L 825 1625 
L 2419 1625 
L 2419 4116 
z
M 2253 4666 
L 3047 4666 
L 3047 1625 
L 3713 1625 
L 3713 1100 
L 3047 1100 
L 3047 0 
L 2419 0 
L 2419 1100 
L 313 1100 
L 313 1709 
L 2253 4666 
z
" transform="scale(0.015625)"/>
       </defs>
       <use xlink:href="#DejaVuSans-2d"/>
       <use xlink:href="#DejaVuSans-34" x="36.083984"/>
      </g>
     </g>
    </g>
    <g id="xtick_2">
     <g id="line2d_3">
      <path d="M 208.865126 293.76 
L 208.865126 3.456 
" clip-path="url(#p128b90b307)" style="fill: none; stroke: #b0b0b0; stroke-width: 0.8; stroke-linecap: square"/>
     </g>
     <g id="line2d_4">
      <g>
       <use xlink:href="#m10e516f602" x="208.865126" y="293.76" style="stroke: #000000; stroke-width: 0.8"/>
      </g>
     </g>
     <g id="text_2">
      <!-- 0 -->
      <g transform="translate(202.502626 315.956875) scale(0.2 -0.2)">
       <defs>
        <path id="DejaVuSans-30" d="M 2034 4250 
Q 1547 4250 1301 3770 
Q 1056 3291 1056 2328 
Q 1056 1369 1301 889 
Q 1547 409 2034 409 
Q 2525 409 2770 889 
Q 3016 1369 3016 2328 
Q 3016 3291 2770 3770 
Q 2525 4250 2034 4250 
z
M 2034 4750 
Q 2819 4750 3233 4129 
Q 3647 3509 3647 2328 
Q 3647 1150 3233 529 
Q 2819 -91 2034 -91 
Q 1250 -91 836 529 
Q 422 1150 422 2328 
Q 422 3509 836 4129 
Q 1250 4750 2034 4750 
z
" transform="scale(0.015625)"/>
       </defs>
       <use xlink:href="#DejaVuSans-30"/>
      </g>
     </g>
    </g>
    <g id="xtick_3">
     <g id="line2d_5">
      <path d="M 313.354131 293.76 
L 313.354131 3.456 
" clip-path="url(#p128b90b307)" style="fill: none; stroke: #b0b0b0; stroke-width: 0.8; stroke-linecap: square"/>
     </g>
     <g id="line2d_6">
      <g>
       <use xlink:href="#m10e516f602" x="313.354131" y="293.76" style="stroke: #000000; stroke-width: 0.8"/>
      </g>
     </g>
     <g id="text_3">
      <!-- 4 -->
      <g transform="translate(306.991631 315.956875) scale(0.2 -0.2)">
       <use xlink:href="#DejaVuSans-34"/>
      </g>
     </g>
    </g>
    <g id="xtick_4">
     <g id="line2d_7">
      <path d="M 417.843137 293.76 
L 417.843137 3.456 
" clip-path="url(#p128b90b307)" style="fill: none; stroke: #b0b0b0; stroke-width: 0.8; stroke-linecap: square"/>
     </g>
     <g id="line2d_8">
      <g>
       <use xlink:href="#m10e516f602" x="417.843137" y="293.76" style="stroke: #000000; stroke-width: 0.8"/>
      </g>
     </g>
     <g id="text_4">
      <!-- 8 -->
      <g transform="translate(411.480637 315.956875) scale(0.2 -0.2)">
       <defs>
        <path id="DejaVuSans-38" d="M 2034 2216 
Q 1584 2216 1326 1975 
Q 1069 1734 1069 1313 
Q 1069 891 1326 650 
Q 1584 409 2034 409 
Q 2484 409 2743 651 
Q 3003 894 3003 1313 
Q 3003 1734 2745 1975 
Q 2488 2216 2034 2216 
z
M 1403 2484 
Q 997 2584 770 2862 
Q 544 3141 544 3541 
Q 544 4100 942 4425 
Q 1341 4750 2034 4750 
Q 2731 4750 3128 4425 
Q 3525 4100 3525 3541 
Q 3525 3141 3298 2862 
Q 3072 2584 2669 2484 
Q 3125 2378 3379 2068 
Q 3634 1759 3634 1313 
Q 3634 634 3220 271 
Q 2806 -91 2034 -91 
Q 1263 -91 848 271 
Q 434 634 434 1313 
Q 434 1759 690 2068 
Q 947 2378 1403 2484 
z
M 1172 3481 
Q 1172 3119 1398 2916 
Q 1625 2713 2034 2713 
Q 2441 2713 2670 2916 
Q 2900 3119 2900 3481 
Q 2900 3844 2670 4047 
Q 2441 4250 2034 4250 
Q 1625 4250 1398 4047 
Q 1172 3844 1172 3481 
z
" transform="scale(0.015625)"/>
       </defs>
       <use xlink:href="#DejaVuSans-38"/>
      </g>
     </g>
    </g>
    <g id="text_5">
     <!-- log10 of Df -->
     <g transform="translate(175.214063 339.313125) scale(0.2 -0.2)">
      <defs>
       <path id="DejaVuSans-6c" d="M 603 4863 
L 1178 4863 
L 1178 0 
L 603 0 
L 603 4863 
z
" transform="scale(0.015625)"/>
       <path id="DejaVuSans-6f" d="M 1959 3097 
Q 1497 3097 1228 2736 
Q 959 2375 959 1747 
Q 959 1119 1226 758 
Q 1494 397 1959 397 
Q 2419 397 2687 759 
Q 2956 1122 2956 1747 
Q 2956 2369 2687 2733 
Q 2419 3097 1959 3097 
z
M 1959 3584 
Q 2709 3584 3137 3096 
Q 3566 2609 3566 1747 
Q 3566 888 3137 398 
Q 2709 -91 1959 -91 
Q 1206 -91 779 398 
Q 353 888 353 1747 
Q 353 2609 779 3096 
Q 1206 3584 1959 3584 
z
" transform="scale(0.015625)"/>
       <path id="DejaVuSans-67" d="M 2906 1791 
Q 2906 2416 2648 2759 
Q 2391 3103 1925 3103 
Q 1463 3103 1205 2759 
Q 947 2416 947 1791 
Q 947 1169 1205 825 
Q 1463 481 1925 481 
Q 2391 481 2648 825 
Q 2906 1169 2906 1791 
z
M 3481 434 
Q 3481 -459 3084 -895 
Q 2688 -1331 1869 -1331 
Q 1566 -1331 1297 -1286 
Q 1028 -1241 775 -1147 
L 775 -588 
Q 1028 -725 1275 -790 
Q 1522 -856 1778 -856 
Q 2344 -856 2625 -561 
Q 2906 -266 2906 331 
L 2906 616 
Q 2728 306 2450 153 
Q 2172 0 1784 0 
Q 1141 0 747 490 
Q 353 981 353 1791 
Q 353 2603 747 3093 
Q 1141 3584 1784 3584 
Q 2172 3584 2450 3431 
Q 2728 3278 2906 2969 
L 2906 3500 
L 3481 3500 
L 3481 434 
z
" transform="scale(0.015625)"/>
       <path id="DejaVuSans-31" d="M 794 531 
L 1825 531 
L 1825 4091 
L 703 3866 
L 703 4441 
L 1819 4666 
L 2450 4666 
L 2450 531 
L 3481 531 
L 3481 0 
L 794 0 
L 794 531 
z
" transform="scale(0.015625)"/>
       <path id="DejaVuSans-20" transform="scale(0.015625)"/>
       <path id="DejaVuSans-66" d="M 2375 4863 
L 2375 4384 
L 1825 4384 
Q 1516 4384 1395 4259 
Q 1275 4134 1275 3809 
L 1275 3500 
L 2222 3500 
L 2222 3053 
L 1275 3053 
L 1275 0 
L 697 0 
L 697 3053 
L 147 3053 
L 147 3500 
L 697 3500 
L 697 3744 
Q 697 4328 969 4595 
Q 1241 4863 1831 4863 
L 2375 4863 
z
" transform="scale(0.015625)"/>
       <path id="DejaVuSans-44" d="M 1259 4147 
L 1259 519 
L 2022 519 
Q 2988 519 3436 956 
Q 3884 1394 3884 2338 
Q 3884 3275 3436 3711 
Q 2988 4147 2022 4147 
L 1259 4147 
z
M 628 4666 
L 1925 4666 
Q 3281 4666 3915 4102 
Q 4550 3538 4550 2338 
Q 4550 1131 3912 565 
Q 3275 0 1925 0 
L 628 0 
L 628 4666 
z
" transform="scale(0.015625)"/>
      </defs>
      <use xlink:href="#DejaVuSans-6c"/>
      <use xlink:href="#DejaVuSans-6f" x="27.783203"/>
      <use xlink:href="#DejaVuSans-67" x="88.964844"/>
      <use xlink:href="#DejaVuSans-31" x="152.441406"/>
      <use xlink:href="#DejaVuSans-30" x="216.064453"/>
      <use xlink:href="#DejaVuSans-20" x="279.6875"/>
      <use xlink:href="#DejaVuSans-6f" x="311.474609"/>
      <use xlink:href="#DejaVuSans-66" x="372.65625"/>
      <use xlink:href="#DejaVuSans-20" x="407.861328"/>
      <use xlink:href="#DejaVuSans-44" x="439.648438"/>
      <use xlink:href="#DejaVuSans-66" x="516.650391"/>
     </g>
    </g>
   </g>
   <g id="matplotlib.axis_2">
    <g id="ytick_1">
     <g id="line2d_9">
      <path d="M 0 293.76 
L 460.8 293.76 
" clip-path="url(#p128b90b307)" style="fill: none; stroke: #b0b0b0; stroke-width: 0.8; stroke-linecap: square"/>
     </g>
     <g id="line2d_10">
      <defs>
       <path id="m9418bc512f" d="M 0 0 
L -3.5 0 
" style="stroke: #000000; stroke-width: 0.8"/>
      </defs>
      <g>
       <use xlink:href="#m9418bc512f" x="0" y="293.76" style="stroke: #000000; stroke-width: 0.8"/>
      </g>
     </g>
    </g>
    <g id="ytick_2">
     <g id="line2d_11">
      <path d="M 0 236.274059 
L 460.8 236.274059 
" clip-path="url(#p128b90b307)" style="fill: none; stroke: #b0b0b0; stroke-width: 0.8; stroke-linecap: square"/>
     </g>
     <g id="line2d_12">
      <g>
       <use xlink:href="#m9418bc512f" x="0" y="236.274059" style="stroke: #000000; stroke-width: 0.8"/>
      </g>
     </g>
    </g>
    <g id="ytick_3">
     <g id="line2d_13">
      <path d="M 0 178.788119 
L 460.8 178.788119 
" clip-path="url(#p128b90b307)" style="fill: none; stroke: #b0b0b0; stroke-width: 0.8; stroke-linecap: square"/>
     </g>
     <g id="line2d_14">
      <g>
       <use xlink:href="#m9418bc512f" x="0" y="178.788119" style="stroke: #000000; stroke-width: 0.8"/>
      </g>
     </g>
    </g>
    <g id="ytick_4">
     <g id="line2d_15">
      <path d="M 0 121.302178 
L 460.8 121.302178 
" clip-path="url(#p128b90b307)" style="fill: none; stroke: #b0b0b0; stroke-width: 0.8; stroke-linecap: square"/>
     </g>
     <g id="line2d_16">
      <g>
       <use xlink:href="#m9418bc512f" x="0" y="121.302178" style="stroke: #000000; stroke-width: 0.8"/>
      </g>
     </g>
    </g>
    <g id="ytick_5">
     <g id="line2d_17">
      <path d="M 0 63.816238 
L 460.8 63.816238 
" clip-path="url(#p128b90b307)" style="fill: none; stroke: #b0b0b0; stroke-width: 0.8; stroke-linecap: square"/>
     </g>
     <g id="line2d_18">
      <g>
       <use xlink:href="#m9418bc512f" x="0" y="63.816238" style="stroke: #000000; stroke-width: 0.8"/>
      </g>
     </g>
    </g>
    <g id="ytick_6">
     <g id="line2d_19">
      <path d="M 0 6.330297 
L 460.8 6.330297 
" clip-path="url(#p128b90b307)" style="fill: none; stroke: #b0b0b0; stroke-width: 0.8; stroke-linecap: square"/>
     </g>
     <g id="line2d_20">
      <g>
       <use xlink:href="#m9418bc512f" x="0" y="6.330297" style="stroke: #000000; stroke-width: 0.8"/>
      </g>
     </g>
    </g>
   </g>
   <g id="line2d_21">
    <path d="M 212.713075 293.76 
L 212.713075 289.927604 
L 216.685182 289.927604 
L 216.685182 286.095208 
L 218.682294 286.095208 
L 218.682294 282.262812 
L 220.761912 282.262812 
L 220.761912 278.430416 
L 221.071248 278.430416 
L 221.071248 274.59802 
L 222.691652 274.59802 
L 222.717957 266.933228 
L 222.988543 266.933228 
L 222.988543 263.100832 
L 224.417019 263.100832 
L 224.417019 259.268436 
L 226.16181 259.268436 
L 226.16181 255.43604 
L 226.942326 255.43604 
L 226.97581 247.771248 
L 228.089355 247.771248 
L 228.089355 243.938851 
L 229.976567 243.938851 
L 229.976567 240.106455 
L 230.568769 240.106455 
L 230.568769 236.274059 
L 230.860207 236.274059 
L 230.955127 228.609267 
L 231.038154 228.609267 
L 231.038154 224.776871 
L 231.448337 224.776871 
L 231.54286 217.112079 
L 233.347429 217.112079 
L 233.347429 213.279683 
L 233.647939 213.279683 
L 233.647939 209.447287 
L 234.17761 209.447287 
L 234.17761 205.614891 
L 234.619382 205.614891 
L 234.619382 201.782495 
L 235.382315 201.782495 
L 235.382315 197.950099 
L 235.672836 197.950099 
L 235.672836 194.117703 
L 236.268565 194.117703 
L 236.268565 190.285307 
L 236.390236 190.285307 
L 236.390236 186.452911 
L 237.036829 186.452911 
L 237.036829 182.620515 
L 237.300135 182.620515 
L 237.300135 178.788119 
L 238.834669 178.788119 
L 238.834669 174.955723 
L 239.346347 174.955723 
L 239.436642 167.290931 
L 242.881442 167.290931 
L 242.881442 163.458535 
L 244.70219 163.458535 
L 244.70219 159.626139 
L 244.924639 159.626139 
L 244.924639 155.793743 
L 245.299167 155.793743 
L 245.325171 148.12895 
L 245.597806 148.12895 
L 245.597806 144.296554 
L 246.129355 144.296554 
L 246.129355 140.464158 
L 246.31658 140.464158 
L 246.31658 136.631762 
L 246.648588 136.631762 
L 246.648588 132.799366 
L 247.657909 132.799366 
L 247.657909 128.96697 
L 248.809509 128.96697 
L 248.809509 125.134574 
L 249.248007 125.134574 
L 249.248007 121.302178 
L 249.363973 121.302178 
L 249.434431 113.637386 
L 249.60411 113.637386 
L 249.60411 109.80499 
L 249.937622 109.80499 
L 249.937622 105.972594 
L 250.418599 105.972594 
L 250.418599 102.140198 
L 250.738961 102.140198 
L 250.738961 98.307802 
L 251.356036 98.307802 
L 251.356036 94.475406 
L 251.930413 94.475406 
L 251.930413 90.64301 
L 252.10392 90.64301 
L 252.10392 86.810614 
L 252.331839 86.810614 
L 252.331839 82.978218 
L 252.731752 82.978218 
L 252.78871 75.313426 
L 253.04674 75.313426 
L 253.04674 71.48103 
L 253.292526 71.48103 
L 253.325889 63.816238 
L 253.405645 63.816238 
L 253.418855 56.151446 
L 253.529268 56.151446 
L 253.529268 52.31905 
L 253.831713 52.31905 
L 253.831713 48.486653 
L 254.087132 48.486653 
L 254.087132 44.654257 
L 255.465222 44.654257 
L 255.465222 40.821861 
L 255.792582 40.821861 
L 255.792582 36.989465 
L 255.993502 36.989465 
L 255.993502 33.157069 
L 256.277793 33.157069 
L 256.277793 29.324673 
L 256.791962 29.324673 
L 256.791962 25.492277 
L 257.614688 25.492277 
L 257.614688 21.659881 
L 258.477563 21.659881 
L 258.477563 17.827485 
L 265.806116 17.827485 
L 265.806116 13.995089 
L 280.368511 13.995089 
L 280.368511 10.162693 
L 284.806618 10.162693 
L 284.806618 6.330297 
L 284.806618 6.330297 
L 460.8 6.330297 
L 460.8 6.330297 
" clip-path="url(#p128b90b307)" style="fill: none; stroke: #ff0000; stroke-width: 3; stroke-linecap: square"/>
   </g>
   <g id="line2d_22">
    <path d="M 230.472706 293.76 
L 230.472706 289.927604 
L 232.568636 289.927604 
L 232.568636 286.095208 
L 235.624381 286.095208 
L 235.672836 278.430416 
L 240.028302 278.430416 
L 240.066925 270.765624 
L 240.331671 270.765624 
L 240.331671 266.933228 
L 241.717013 266.933228 
L 241.717013 263.100832 
L 242.152029 263.100832 
L 242.152029 259.268436 
L 242.958436 259.268436 
L 243.018495 251.603644 
L 243.461779 251.603644 
L 243.461779 247.771248 
L 244.00934 247.771248 
L 244.00934 243.938851 
L 244.729403 243.938851 
L 244.729403 240.106455 
L 245.026668 240.106455 
L 245.026668 236.274059 
L 245.873607 236.274059 
L 245.873607 232.441663 
L 247.201962 232.441663 
L 247.201962 228.609267 
L 248.605609 228.609267 
L 248.605609 224.776871 
L 249.051136 224.776871 
L 249.051136 220.944475 
L 249.184127 220.944475 
L 249.184127 217.112079 
L 251.418435 217.112079 
L 251.418435 213.279683 
L 251.787446 213.279683 
L 251.876374 205.614891 
L 252.491451 205.614891 
L 252.491451 201.782495 
L 252.73794 201.782495 
L 252.798153 194.117703 
L 253.36394 194.117703 
L 253.36394 190.285307 
L 254.340419 190.285307 
L 254.40753 182.620515 
L 254.486007 182.620515 
L 254.486007 178.788119 
L 254.743731 178.788119 
L 254.743731 174.955723 
L 254.859464 174.955723 
L 254.859464 171.123327 
L 254.983366 171.123327 
L 255.057356 163.458535 
L 255.15755 163.458535 
L 255.15755 159.626139 
L 255.482536 159.626139 
L 255.482536 155.793743 
L 255.831688 155.793743 
L 255.831688 151.961347 
L 256.174737 151.961347 
L 256.174737 148.12895 
L 256.289732 148.12895 
L 256.289732 144.296554 
L 256.427428 144.296554 
L 256.535374 128.96697 
L 256.656267 128.96697 
L 256.656267 125.134574 
L 256.876113 125.134574 
L 256.966761 117.469782 
L 256.988344 117.469782 
L 256.988344 113.637386 
L 257.361405 113.637386 
L 257.425996 105.972594 
L 257.539211 105.972594 
L 257.637427 98.307802 
L 257.651071 98.307802 
L 257.651071 94.475406 
L 257.913015 94.475406 
L 257.913015 90.64301 
L 258.477563 90.64301 
L 258.51466 82.978218 
L 258.658905 82.978218 
L 258.658905 79.145822 
L 259.966026 79.145822 
L 259.966026 75.313426 
L 260.209741 75.313426 
L 260.209741 71.48103 
L 260.532877 71.48103 
L 260.532877 67.648634 
L 260.682115 67.648634 
L 260.682115 63.816238 
L 308.62758 63.816238 
L 308.62758 6.330297 
L 308.62758 6.330297 
L 460.8 6.330297 
L 460.8 6.330297 
" clip-path="url(#p128b90b307)" style="fill: none; stroke: #00bfbf; stroke-width: 1.5; stroke-linecap: square"/>
   </g>
   <g id="line2d_23">
    <path d="M 226.583366 293.76 
L 226.583366 289.927604 
L 230.472706 289.927604 
L 230.472706 286.095208 
L 230.955127 286.095208 
L 230.955127 282.262812 
L 231.470477 282.262812 
L 231.470477 278.430416 
L 232.122525 278.430416 
L 232.122525 274.59802 
L 232.862309 274.59802 
L 232.862309 270.765624 
L 233.647939 270.765624 
L 233.647939 266.933228 
L 234.498835 266.933228 
L 234.498835 263.100832 
L 235.382315 263.100832 
L 235.382315 259.268436 
L 235.672836 259.268436 
L 235.672836 255.43604 
L 237.183374 255.43604 
L 237.183374 251.603644 
L 237.300135 251.603644 
L 237.300135 247.771248 
L 238.834669 247.771248 
L 238.834669 243.938851 
L 239.587123 243.938851 
L 239.587123 240.106455 
L 240.578159 240.106455 
L 240.578159 236.274059 
L 242.73083 236.274059 
L 242.73083 232.441663 
L 244.2129 232.441663 
L 244.2129 228.609267 
L 246.897794 228.609267 
L 246.897794 224.776871 
L 248.511934 224.776871 
L 248.593677 217.112079 
L 251.017369 217.112079 
L 251.017369 213.279683 
L 251.167831 213.279683 
L 251.167831 209.447287 
L 251.451979 209.447287 
L 251.451979 205.614891 
L 251.787446 205.614891 
L 251.787446 201.782495 
L 252.096579 201.782495 
L 252.096579 197.950099 
L 252.73794 197.950099 
L 252.822353 190.285307 
L 253.36394 190.285307 
L 253.405645 182.620515 
L 253.691902 182.620515 
L 253.691902 178.788119 
L 253.831713 178.788119 
L 253.831713 174.955723 
L 254.006417 174.955723 
L 254.112783 163.458535 
L 254.467291 163.458535 
L 254.575738 148.12895 
L 254.610675 148.12895 
L 254.610675 144.296554 
L 254.789826 144.296554 
L 254.879229 132.799366 
L 255.065694 132.799366 
L 255.065694 128.96697 
L 255.472326 128.96697 
L 255.472326 125.134574 
L 255.698827 125.134574 
L 255.698827 121.302178 
L 255.993502 121.302178 
L 255.993502 117.469782 
L 256.184388 117.469782 
L 256.277793 109.80499 
L 256.307057 109.80499 
L 256.377122 102.140198 
L 256.524088 102.140198 
L 256.632233 94.475406 
L 256.69136 94.475406 
L 256.69136 90.64301 
L 257.340309 90.64301 
L 257.340309 86.810614 
L 257.614688 86.810614 
L 257.621741 79.145822 
L 257.86678 79.145822 
L 257.86678 75.313426 
L 258.477563 75.313426 
L 258.51466 67.648634 
L 258.651662 67.648634 
L 258.651662 63.816238 
L 307.69876 63.816238 
L 307.69876 36.989465 
L 308.493928 36.989465 
L 308.493928 25.492277 
L 308.625355 25.492277 
L 308.62758 6.330297 
L 308.62758 6.330297 
L 460.8 6.330297 
L 460.8 6.330297 
" clip-path="url(#p128b90b307)" style="fill: none; stroke: #bf00bf; stroke-width: 1.5; stroke-linecap: square"/>
   </g>
   <g id="line2d_24">
    <path d="M 215.562689 293.76 
L 215.562689 289.927604 
L 221.022102 289.927604 
L 221.022102 286.095208 
L 223.154645 286.095208 
L 223.154645 282.262812 
L 224.643929 282.262812 
L 224.643929 278.430416 
L 226.97581 278.430416 
L 226.97581 274.59802 
L 227.30183 274.59802 
L 227.30183 270.765624 
L 228.50499 270.765624 
L 228.50499 266.933228 
L 228.900024 266.933228 
L 228.900024 263.100832 
L 230.955127 263.100832 
L 230.955127 259.268436 
L 231.375037 259.268436 
L 231.375037 255.43604 
L 231.641128 255.43604 
L 231.641128 251.603644 
L 232.137448 251.603644 
L 232.137448 247.771248 
L 233.647939 247.771248 
L 233.647939 243.938851 
L 234.17761 243.938851 
L 234.17761 240.106455 
L 234.390716 240.106455 
L 234.390716 236.274059 
L 235.382315 236.274059 
L 235.382315 232.441663 
L 235.672836 232.441663 
L 235.672836 228.609267 
L 236.268565 228.609267 
L 236.26895 220.944475 
L 237.036829 220.944475 
L 237.036829 217.112079 
L 237.300135 217.112079 
L 237.300135 213.279683 
L 238.834669 213.279683 
L 238.834669 209.447287 
L 238.98812 209.447287 
L 238.98812 205.614891 
L 243.721734 205.614891 
L 243.721734 201.782495 
L 245.783199 201.782495 
L 245.783199 197.950099 
L 246.129355 197.950099 
L 246.129355 194.117703 
L 246.66392 194.117703 
L 246.712828 186.452911 
L 247.838605 186.452911 
L 247.838605 182.620515 
L 248.069124 182.620515 
L 248.173116 174.955723 
L 249.629906 174.955723 
L 249.629906 171.123327 
L 249.747116 171.123327 
L 249.747116 167.290931 
L 249.910247 167.290931 
L 249.910247 163.458535 
L 250.624223 163.458535 
L 250.624223 159.626139 
L 250.846068 159.626139 
L 250.935371 151.961347 
L 251.016814 151.961347 
L 251.016814 148.12895 
L 251.467343 148.12895 
L 251.467343 144.296554 
L 252.13317 144.296554 
L 252.238131 136.631762 
L 252.78871 136.631762 
L 252.78871 132.799366 
L 253.405645 132.799366 
L 253.432847 125.134574 
L 253.600775 125.134574 
L 253.612708 117.469782 
L 253.80887 117.469782 
L 253.831713 109.80499 
L 254.0019 109.80499 
L 254.087132 102.140198 
L 254.233838 102.140198 
L 254.233838 98.307802 
L 254.509819 98.307802 
L 254.509819 94.475406 
L 254.857476 94.475406 
L 254.857476 90.64301 
L 255.465222 90.64301 
L 255.465222 86.810614 
L 255.724098 86.810614 
L 255.724098 82.978218 
L 255.993502 82.978218 
L 255.993502 79.145822 
L 256.277793 79.145822 
L 256.277793 75.313426 
L 257.100135 75.313426 
L 257.100135 71.48103 
L 257.614688 71.48103 
L 257.614688 67.648634 
L 257.945535 67.648634 
L 257.945535 63.816238 
L 258.477563 63.816238 
L 258.477563 59.983842 
L 260.026507 59.983842 
L 260.026507 56.151446 
L 261.291377 56.151446 
L 261.291377 52.31905 
L 267.498814 52.31905 
L 267.498814 48.486653 
L 268.090453 48.486653 
L 268.090453 44.654257 
L 276.116374 44.654257 
L 276.116374 40.821861 
L 276.354701 40.821861 
L 276.354701 36.989465 
L 277.494842 36.989465 
L 277.494842 33.157069 
L 278.161382 33.157069 
L 278.161382 29.324673 
L 279.007334 29.324673 
L 279.007334 25.492277 
L 279.515316 25.492277 
L 279.515316 21.659881 
L 281.122868 21.659881 
L 281.122868 17.827485 
L 281.491221 17.827485 
L 281.491221 13.995089 
L 282.696004 13.995089 
L 282.696004 10.162693 
L 286.777578 10.162693 
L 286.777578 6.330297 
L 286.777578 6.330297 
L 460.8 6.330297 
L 460.8 6.330297 
" clip-path="url(#p128b90b307)" style="fill: none; stroke: #000000; stroke-width: 1.5; stroke-linecap: square"/>
   </g>
   <g id="patch_3">
    <path d="M 0 293.76 
L 0 3.456 
" style="fill: none; stroke: #000000; stroke-width: 0.8; stroke-linejoin: miter; stroke-linecap: square"/>
   </g>
   <g id="patch_4">
    <path d="M 460.8 293.76 
L 460.8 3.456 
" style="fill: none; stroke: #000000; stroke-width: 0.8; stroke-linejoin: miter; stroke-linecap: square"/>
   </g>
   <g id="patch_5">
    <path d="M 0 293.76 
L 460.8 293.76 
" style="fill: none; stroke: #000000; stroke-width: 0.8; stroke-linejoin: miter; stroke-linecap: square"/>
   </g>
   <g id="patch_6">
    <path d="M 0 3.456 
L 460.8 3.456 
" style="fill: none; stroke: #000000; stroke-width: 0.8; stroke-linejoin: miter; stroke-linecap: square"/>
   </g>
   <g id="text_6">
    <!-- {f20-f24}, 5-D -->
    <g transform="translate(305.884 287.95392) scale(0.2 -0.2)">
     <defs>
      <path id="DejaVuSans-7b" d="M 3272 -594 
L 3272 -1044 
L 3078 -1044 
Q 2300 -1044 2036 -812 
Q 1772 -581 1772 109 
L 1772 856 
Q 1772 1328 1603 1509 
Q 1434 1691 991 1691 
L 800 1691 
L 800 2138 
L 991 2138 
Q 1438 2138 1605 2317 
Q 1772 2497 1772 2963 
L 1772 3713 
Q 1772 4403 2036 4633 
Q 2300 4863 3078 4863 
L 3272 4863 
L 3272 4416 
L 3059 4416 
Q 2619 4416 2484 4278 
Q 2350 4141 2350 3700 
L 2350 2925 
Q 2350 2434 2208 2212 
Q 2066 1991 1722 1913 
Q 2069 1828 2209 1606 
Q 2350 1384 2350 897 
L 2350 122 
Q 2350 -319 2484 -456 
Q 2619 -594 3059 -594 
L 3272 -594 
z
" transform="scale(0.015625)"/>
      <path id="DejaVuSans-32" d="M 1228 531 
L 3431 531 
L 3431 0 
L 469 0 
L 469 531 
Q 828 903 1448 1529 
Q 2069 2156 2228 2338 
Q 2531 2678 2651 2914 
Q 2772 3150 2772 3378 
Q 2772 3750 2511 3984 
Q 2250 4219 1831 4219 
Q 1534 4219 1204 4116 
Q 875 4013 500 3803 
L 500 4441 
Q 881 4594 1212 4672 
Q 1544 4750 1819 4750 
Q 2544 4750 2975 4387 
Q 3406 4025 3406 3419 
Q 3406 3131 3298 2873 
Q 3191 2616 2906 2266 
Q 2828 2175 2409 1742 
Q 1991 1309 1228 531 
z
" transform="scale(0.015625)"/>
      <path id="DejaVuSans-7d" d="M 800 -594 
L 1019 -594 
Q 1456 -594 1589 -459 
Q 1722 -325 1722 122 
L 1722 897 
Q 1722 1384 1862 1606 
Q 2003 1828 2350 1913 
Q 2003 1991 1862 2212 
Q 1722 2434 1722 2925 
L 1722 3700 
Q 1722 4144 1589 4280 
Q 1456 4416 1019 4416 
L 800 4416 
L 800 4863 
L 997 4863 
Q 1775 4863 2036 4633 
Q 2297 4403 2297 3713 
L 2297 2963 
Q 2297 2497 2465 2317 
Q 2634 2138 3078 2138 
L 3272 2138 
L 3272 1691 
L 3078 1691 
Q 2634 1691 2465 1509 
Q 2297 1328 2297 856 
L 2297 109 
Q 2297 -581 2036 -812 
Q 1775 -1044 997 -1044 
L 800 -1044 
L 800 -594 
z
" transform="scale(0.015625)"/>
      <path id="DejaVuSans-2c" d="M 750 794 
L 1409 794 
L 1409 256 
L 897 -744 
L 494 -744 
L 750 256 
L 750 794 
z
" transform="scale(0.015625)"/>
      <path id="DejaVuSans-35" d="M 691 4666 
L 3169 4666 
L 3169 4134 
L 1269 4134 
L 1269 2991 
Q 1406 3038 1543 3061 
Q 1681 3084 1819 3084 
Q 2600 3084 3056 2656 
Q 3513 2228 3513 1497 
Q 3513 744 3044 326 
Q 2575 -91 1722 -91 
Q 1428 -91 1123 -41 
Q 819 9 494 109 
L 494 744 
Q 775 591 1075 516 
Q 1375 441 1709 441 
Q 2250 441 2565 725 
Q 2881 1009 2881 1497 
Q 2881 1984 2565 2268 
Q 2250 2553 1709 2553 
Q 1456 2553 1204 2497 
Q 953 2441 691 2322 
L 691 4666 
z
" transform="scale(0.015625)"/>
     </defs>
     <use xlink:href="#DejaVuSans-7b"/>
     <use xlink:href="#DejaVuSans-66" x="63.623047"/>
     <use xlink:href="#DejaVuSans-32" x="98.828125"/>
     <use xlink:href="#DejaVuSans-30" x="162.451172"/>
     <use xlink:href="#DejaVuSans-2d" x="226.074219"/>
     <use xlink:href="#DejaVuSans-66" x="262.158203"/>
     <use xlink:href="#DejaVuSans-32" x="297.363281"/>
     <use xlink:href="#DejaVuSans-34" x="360.986328"/>
     <use xlink:href="#DejaVuSans-7d" x="424.609375"/>
     <use xlink:href="#DejaVuSans-2c" x="488.232422"/>
     <use xlink:href="#DejaVuSans-20" x="520.019531"/>
     <use xlink:href="#DejaVuSans-35" x="551.806641"/>
     <use xlink:href="#DejaVuSans-2d" x="615.429688"/>
     <use xlink:href="#DejaVuSans-44" x="651.513672"/>
    </g>
   </g>
   <g id="text_7">
    <!-- v2.6.3 -->
    <g style="fill: #808080" transform="translate(214.71875 288.777272) scale(0.1 -0.1)">
     <defs>
      <path id="DejaVuSans-76" d="M 191 3500 
L 800 3500 
L 1894 563 
L 2988 3500 
L 3597 3500 
L 2284 0 
L 1503 0 
L 191 3500 
z
" transform="scale(0.015625)"/>
      <path id="DejaVuSans-2e" d="M 684 794 
L 1344 794 
L 1344 0 
L 684 0 
L 684 794 
z
" transform="scale(0.015625)"/>
      <path id="DejaVuSans-36" d="M 2113 2584 
Q 1688 2584 1439 2293 
Q 1191 2003 1191 1497 
Q 1191 994 1439 701 
Q 1688 409 2113 409 
Q 2538 409 2786 701 
Q 3034 994 3034 1497 
Q 3034 2003 2786 2293 
Q 2538 2584 2113 2584 
z
M 3366 4563 
L 3366 3988 
Q 3128 4100 2886 4159 
Q 2644 4219 2406 4219 
Q 1781 4219 1451 3797 
Q 1122 3375 1075 2522 
Q 1259 2794 1537 2939 
Q 1816 3084 2150 3084 
Q 2853 3084 3261 2657 
Q 3669 2231 3669 1497 
Q 3669 778 3244 343 
Q 2819 -91 2113 -91 
Q 1303 -91 875 529 
Q 447 1150 447 2328 
Q 447 3434 972 4092 
Q 1497 4750 2381 4750 
Q 2619 4750 2861 4703 
Q 3103 4656 3366 4563 
z
" transform="scale(0.015625)"/>
      <path id="DejaVuSans-33" d="M 2597 2516 
Q 3050 2419 3304 2112 
Q 3559 1806 3559 1356 
Q 3559 666 3084 287 
Q 2609 -91 1734 -91 
Q 1441 -91 1130 -33 
Q 819 25 488 141 
L 488 750 
Q 750 597 1062 519 
Q 1375 441 1716 441 
Q 2309 441 2620 675 
Q 2931 909 2931 1356 
Q 2931 1769 2642 2001 
Q 2353 2234 1838 2234 
L 1294 2234 
L 1294 2753 
L 1863 2753 
Q 2328 2753 2575 2939 
Q 2822 3125 2822 3475 
Q 2822 3834 2567 4026 
Q 2313 4219 1838 4219 
Q 1578 4219 1281 4162 
Q 984 4106 628 3988 
L 628 4550 
Q 988 4650 1302 4700 
Q 1616 4750 1894 4750 
Q 2613 4750 3031 4423 
Q 3450 4097 3450 3541 
Q 3450 3153 3228 2886 
Q 3006 2619 2597 2516 
z
" transform="scale(0.015625)"/>
     </defs>
     <use xlink:href="#DejaVuSans-76"/>
     <use xlink:href="#DejaVuSans-32" x="59.179688"/>
     <use xlink:href="#DejaVuSans-2e" x="122.802734"/>
     <use xlink:href="#DejaVuSans-36" x="154.589844"/>
     <use xlink:href="#DejaVuSans-2e" x="218.212891"/>
     <use xlink:href="#DejaVuSans-33" x="250"/>
    </g>
   </g>
  </g>
 </g>
 <defs>
  <clipPath id="p128b90b307">
   <rect x="0" y="3.456" width="460.8" height="290.304"/>
  </clipPath>
 </defs>
</svg>
