<?xml version="1.0" encoding="utf-8" standalone="no"?>
<!DOCTYPE svg PUBLIC "-//W3C//DTD SVG 1.1//EN"
  "http://www.w3.org/Graphics/SVG/1.1/DTD/svg11.dtd">
<svg xmlns:xlink="http://www.w3.org/1999/xlink" width="460.8pt" height="345.6pt" viewBox="0 0 460.8 345.6" xmlns="http://www.w3.org/2000/svg" version="1.1">
 <metadata>
  <rdf:RDF xmlns:dc="http://purl.org/dc/elements/1.1/" xmlns:cc="http://creativecommons.org/ns#" xmlns:rdf="http://www.w3.org/1999/02/22-rdf-syntax-ns#">
   <cc:Work>
    <dc:type rdf:resource="http://purl.org/dc/dcmitype/StillImage"/>
    <dc:date>2024-01-25T18:16:44.595935</dc:date>
    <dc:format>image/svg+xml</dc:format>
    <dc:creator>
     <cc:Agent>
      <dc:title>Matplotlib v3.8.2, https://matplotlib.org/</dc:title>
     </cc:Agent>
    </dc:creator>
   </cc:Work>
  </rdf:RDF>
 </metadata>
 <defs>
  <style type="text/css">*{stroke-linejoin: round; stroke-linecap: butt}</style>
 </defs>
 <g id="figure_1">
  <g id="patch_1">
   <path d="M 0 345.6 
L 460.8 345.6 
L 460.8 0 
L 0 0 
z
" style="fill: #ffffff"/>
  </g>
  <g id="axes_1">
   <g id="patch_2">
    <path d="M 0 293.76 
L 460.8 293.76 
L 460.8 3.456 
L 0 3.456 
z
" style="fill: #ffffff"/>
   </g>
   <g id="matplotlib.axis_1">
    <g id="xtick_1">
     <g id="line2d_1">
      <path d="M 102.674388 293.76 
L 102.674388 3.456 
" clip-path="url(#p3e8b62b3e9)" style="fill: none; stroke: #b0b0b0; stroke-width: 0.8; stroke-linecap: square"/>
     </g>
     <g id="line2d_2">
      <defs>
       <path id="me97201bcf6" d="M 0 0 
L 0 3.5 
" style="stroke: #000000; stroke-width: 0.8"/>
      </defs>
      <g>
       <use xlink:href="#me97201bcf6" x="102.674388" y="293.76" style="stroke: #000000; stroke-width: 0.8"/>
      </g>
     </g>
     <g id="text_1">
      <!-- -4 -->
      <g transform="translate(92.704075 315.956875) scale(0.2 -0.2)">
       <defs>
        <path id="DejaVuSans-2d" d="M 313 2009 
L 1997 2009 
L 1997 1497 
L 313 1497 
L 313 2009 
z
" transform="scale(0.015625)"/>
        <path id="DejaVuSans-34" d="M 2419 4116 
L 825 1625 
L 2419 1625 
L 2419 4116 
z
M 2253 4666 
L 3047 4666 
L 3047 1625 
L 3713 1625 
L 3713 1100 
L 3047 1100 
L 3047 0 
L 2419 0 
L 2419 1100 
L 313 1100 
L 313 1709 
L 2253 4666 
z
" transform="scale(0.015625)"/>
       </defs>
       <use xlink:href="#DejaVuSans-2d"/>
       <use xlink:href="#DejaVuSans-34" x="36.083984"/>
      </g>
     </g>
    </g>
    <g id="xtick_2">
     <g id="line2d_3">
      <path d="M 205.459819 293.76 
L 205.459819 3.456 
" clip-path="url(#p3e8b62b3e9)" style="fill: none; stroke: #b0b0b0; stroke-width: 0.8; stroke-linecap: square"/>
     </g>
     <g id="line2d_4">
      <g>
       <use xlink:href="#me97201bcf6" x="205.459819" y="293.76" style="stroke: #000000; stroke-width: 0.8"/>
      </g>
     </g>
     <g id="text_2">
      <!-- 0 -->
      <g transform="translate(199.097319 315.956875) scale(0.2 -0.2)">
       <defs>
        <path id="DejaVuSans-30" d="M 2034 4250 
Q 1547 4250 1301 3770 
Q 1056 3291 1056 2328 
Q 1056 1369 1301 889 
Q 1547 409 2034 409 
Q 2525 409 2770 889 
Q 3016 1369 3016 2328 
Q 3016 3291 2770 3770 
Q 2525 4250 2034 4250 
z
M 2034 4750 
Q 2819 4750 3233 4129 
Q 3647 3509 3647 2328 
Q 3647 1150 3233 529 
Q 2819 -91 2034 -91 
Q 1250 -91 836 529 
Q 422 1150 422 2328 
Q 422 3509 836 4129 
Q 1250 4750 2034 4750 
z
" transform="scale(0.015625)"/>
       </defs>
       <use xlink:href="#DejaVuSans-30"/>
      </g>
     </g>
    </g>
    <g id="xtick_3">
     <g id="line2d_5">
      <path d="M 308.24525 293.76 
L 308.24525 3.456 
" clip-path="url(#p3e8b62b3e9)" style="fill: none; stroke: #b0b0b0; stroke-width: 0.8; stroke-linecap: square"/>
     </g>
     <g id="line2d_6">
      <g>
       <use xlink:href="#me97201bcf6" x="308.24525" y="293.76" style="stroke: #000000; stroke-width: 0.8"/>
      </g>
     </g>
     <g id="text_3">
      <!-- 4 -->
      <g transform="translate(301.88275 315.956875) scale(0.2 -0.2)">
       <use xlink:href="#DejaVuSans-34"/>
      </g>
     </g>
    </g>
    <g id="xtick_4">
     <g id="line2d_7">
      <path d="M 411.030681 293.76 
L 411.030681 3.456 
" clip-path="url(#p3e8b62b3e9)" style="fill: none; stroke: #b0b0b0; stroke-width: 0.8; stroke-linecap: square"/>
     </g>
     <g id="line2d_8">
      <g>
       <use xlink:href="#me97201bcf6" x="411.030681" y="293.76" style="stroke: #000000; stroke-width: 0.8"/>
      </g>
     </g>
     <g id="text_4">
      <!-- 8 -->
      <g transform="translate(404.668181 315.956875) scale(0.2 -0.2)">
       <defs>
        <path id="DejaVuSans-38" d="M 2034 2216 
Q 1584 2216 1326 1975 
Q 1069 1734 1069 1313 
Q 1069 891 1326 650 
Q 1584 409 2034 409 
Q 2484 409 2743 651 
Q 3003 894 3003 1313 
Q 3003 1734 2745 1975 
Q 2488 2216 2034 2216 
z
M 1403 2484 
Q 997 2584 770 2862 
Q 544 3141 544 3541 
Q 544 4100 942 4425 
Q 1341 4750 2034 4750 
Q 2731 4750 3128 4425 
Q 3525 4100 3525 3541 
Q 3525 3141 3298 2862 
Q 3072 2584 2669 2484 
Q 3125 2378 3379 2068 
Q 3634 1759 3634 1313 
Q 3634 634 3220 271 
Q 2806 -91 2034 -91 
Q 1263 -91 848 271 
Q 434 634 434 1313 
Q 434 1759 690 2068 
Q 947 2378 1403 2484 
z
M 1172 3481 
Q 1172 3119 1398 2916 
Q 1625 2713 2034 2713 
Q 2441 2713 2670 2916 
Q 2900 3119 2900 3481 
Q 2900 3844 2670 4047 
Q 2441 4250 2034 4250 
Q 1625 4250 1398 4047 
Q 1172 3844 1172 3481 
z
" transform="scale(0.015625)"/>
       </defs>
       <use xlink:href="#DejaVuSans-38"/>
      </g>
     </g>
    </g>
    <g id="text_5">
     <!-- log10 of Df -->
     <g transform="translate(175.214063 339.313125) scale(0.2 -0.2)">
      <defs>
       <path id="DejaVuSans-6c" d="M 603 4863 
L 1178 4863 
L 1178 0 
L 603 0 
L 603 4863 
z
" transform="scale(0.015625)"/>
       <path id="DejaVuSans-6f" d="M 1959 3097 
Q 1497 3097 1228 2736 
Q 959 2375 959 1747 
Q 959 1119 1226 758 
Q 1494 397 1959 397 
Q 2419 397 2687 759 
Q 2956 1122 2956 1747 
Q 2956 2369 2687 2733 
Q 2419 3097 1959 3097 
z
M 1959 3584 
Q 2709 3584 3137 3096 
Q 3566 2609 3566 1747 
Q 3566 888 3137 398 
Q 2709 -91 1959 -91 
Q 1206 -91 779 398 
Q 353 888 353 1747 
Q 353 2609 779 3096 
Q 1206 3584 1959 3584 
z
" transform="scale(0.015625)"/>
       <path id="DejaVuSans-67" d="M 2906 1791 
Q 2906 2416 2648 2759 
Q 2391 3103 1925 3103 
Q 1463 3103 1205 2759 
Q 947 2416 947 1791 
Q 947 1169 1205 825 
Q 1463 481 1925 481 
Q 2391 481 2648 825 
Q 2906 1169 2906 1791 
z
M 3481 434 
Q 3481 -459 3084 -895 
Q 2688 -1331 1869 -1331 
Q 1566 -1331 1297 -1286 
Q 1028 -1241 775 -1147 
L 775 -588 
Q 1028 -725 1275 -790 
Q 1522 -856 1778 -856 
Q 2344 -856 2625 -561 
Q 2906 -266 2906 331 
L 2906 616 
Q 2728 306 2450 153 
Q 2172 0 1784 0 
Q 1141 0 747 490 
Q 353 981 353 1791 
Q 353 2603 747 3093 
Q 1141 3584 1784 3584 
Q 2172 3584 2450 3431 
Q 2728 3278 2906 2969 
L 2906 3500 
L 3481 3500 
L 3481 434 
z
" transform="scale(0.015625)"/>
       <path id="DejaVuSans-31" d="M 794 531 
L 1825 531 
L 1825 4091 
L 703 3866 
L 703 4441 
L 1819 4666 
L 2450 4666 
L 2450 531 
L 3481 531 
L 3481 0 
L 794 0 
L 794 531 
z
" transform="scale(0.015625)"/>
       <path id="DejaVuSans-20" transform="scale(0.015625)"/>
       <path id="DejaVuSans-66" d="M 2375 4863 
L 2375 4384 
L 1825 4384 
Q 1516 4384 1395 4259 
Q 1275 4134 1275 3809 
L 1275 3500 
L 2222 3500 
L 2222 3053 
L 1275 3053 
L 1275 0 
L 697 0 
L 697 3053 
L 147 3053 
L 147 3500 
L 697 3500 
L 697 3744 
Q 697 4328 969 4595 
Q 1241 4863 1831 4863 
L 2375 4863 
z
" transform="scale(0.015625)"/>
       <path id="DejaVuSans-44" d="M 1259 4147 
L 1259 519 
L 2022 519 
Q 2988 519 3436 956 
Q 3884 1394 3884 2338 
Q 3884 3275 3436 3711 
Q 2988 4147 2022 4147 
L 1259 4147 
z
M 628 4666 
L 1925 4666 
Q 3281 4666 3915 4102 
Q 4550 3538 4550 2338 
Q 4550 1131 3912 565 
Q 3275 0 1925 0 
L 628 0 
L 628 4666 
z
" transform="scale(0.015625)"/>
      </defs>
      <use xlink:href="#DejaVuSans-6c"/>
      <use xlink:href="#DejaVuSans-6f" x="27.783203"/>
      <use xlink:href="#DejaVuSans-67" x="88.964844"/>
      <use xlink:href="#DejaVuSans-31" x="152.441406"/>
      <use xlink:href="#DejaVuSans-30" x="216.064453"/>
      <use xlink:href="#DejaVuSans-20" x="279.6875"/>
      <use xlink:href="#DejaVuSans-6f" x="311.474609"/>
      <use xlink:href="#DejaVuSans-66" x="372.65625"/>
      <use xlink:href="#DejaVuSans-20" x="407.861328"/>
      <use xlink:href="#DejaVuSans-44" x="439.648438"/>
      <use xlink:href="#DejaVuSans-66" x="516.650391"/>
     </g>
    </g>
   </g>
   <g id="matplotlib.axis_2">
    <g id="ytick_1">
     <g id="line2d_9">
      <path d="M 0 293.76 
L 460.8 293.76 
" clip-path="url(#p3e8b62b3e9)" style="fill: none; stroke: #b0b0b0; stroke-width: 0.8; stroke-linecap: square"/>
     </g>
     <g id="line2d_10">
      <defs>
       <path id="ma2dd29afdf" d="M 0 0 
L -3.5 0 
" style="stroke: #000000; stroke-width: 0.8"/>
      </defs>
      <g>
       <use xlink:href="#ma2dd29afdf" x="0" y="293.76" style="stroke: #000000; stroke-width: 0.8"/>
      </g>
     </g>
    </g>
    <g id="ytick_2">
     <g id="line2d_11">
      <path d="M 0 236.274059 
L 460.8 236.274059 
" clip-path="url(#p3e8b62b3e9)" style="fill: none; stroke: #b0b0b0; stroke-width: 0.8; stroke-linecap: square"/>
     </g>
     <g id="line2d_12">
      <g>
       <use xlink:href="#ma2dd29afdf" x="0" y="236.274059" style="stroke: #000000; stroke-width: 0.8"/>
      </g>
     </g>
    </g>
    <g id="ytick_3">
     <g id="line2d_13">
      <path d="M 0 178.788119 
L 460.8 178.788119 
" clip-path="url(#p3e8b62b3e9)" style="fill: none; stroke: #b0b0b0; stroke-width: 0.8; stroke-linecap: square"/>
     </g>
     <g id="line2d_14">
      <g>
       <use xlink:href="#ma2dd29afdf" x="0" y="178.788119" style="stroke: #000000; stroke-width: 0.8"/>
      </g>
     </g>
    </g>
    <g id="ytick_4">
     <g id="line2d_15">
      <path d="M 0 121.302178 
L 460.8 121.302178 
" clip-path="url(#p3e8b62b3e9)" style="fill: none; stroke: #b0b0b0; stroke-width: 0.8; stroke-linecap: square"/>
     </g>
     <g id="line2d_16">
      <g>
       <use xlink:href="#ma2dd29afdf" x="0" y="121.302178" style="stroke: #000000; stroke-width: 0.8"/>
      </g>
     </g>
    </g>
    <g id="ytick_5">
     <g id="line2d_17">
      <path d="M 0 63.816238 
L 460.8 63.816238 
" clip-path="url(#p3e8b62b3e9)" style="fill: none; stroke: #b0b0b0; stroke-width: 0.8; stroke-linecap: square"/>
     </g>
     <g id="line2d_18">
      <g>
       <use xlink:href="#ma2dd29afdf" x="0" y="63.816238" style="stroke: #000000; stroke-width: 0.8"/>
      </g>
     </g>
    </g>
    <g id="ytick_6">
     <g id="line2d_19">
      <path d="M 0 6.330297 
L 460.8 6.330297 
" clip-path="url(#p3e8b62b3e9)" style="fill: none; stroke: #b0b0b0; stroke-width: 0.8; stroke-linecap: square"/>
     </g>
     <g id="line2d_20">
      <g>
       <use xlink:href="#ma2dd29afdf" x="0" y="6.330297" style="stroke: #000000; stroke-width: 0.8"/>
      </g>
     </g>
    </g>
   </g>
   <g id="line2d_21">
    <path d="M -1 263.100832 
L -0.111044 263.100832 
L -0.111044 232.441663 
L 214.591459 232.441663 
L 214.591459 228.609267 
L 230.237779 228.609267 
L 230.237779 224.776871 
L 234.003047 224.776871 
L 234.003047 220.944475 
L 238.032618 220.944475 
L 238.032618 217.112079 
L 239.75042 217.112079 
L 239.75042 213.279683 
L 240.354588 213.279683 
L 240.354588 209.447287 
L 240.562991 209.447287 
L 240.562991 205.614891 
L 242.10945 205.614891 
L 242.184201 197.950099 
L 243.301945 197.950099 
L 243.360006 190.285307 
L 243.846223 190.285307 
L 243.846223 186.452911 
L 245.08029 186.452911 
L 245.08029 182.620515 
L 246.287938 182.620515 
L 246.287938 178.788119 
L 246.574296 178.788119 
L 246.574296 174.955723 
L 247.088979 174.955723 
L 247.088979 171.123327 
L 247.531353 171.123327 
L 247.531353 167.290931 
L 247.690814 167.290931 
L 247.690814 163.458535 
L 248.835249 163.458535 
L 248.835249 159.626139 
L 249.060638 159.626139 
L 249.060638 155.793743 
L 250.325383 155.793743 
L 250.325383 151.961347 
L 251.279833 151.961347 
L 251.279833 148.12895 
L 251.572724 148.12895 
L 251.639735 136.631762 
L 252.081913 136.631762 
L 252.146526 128.96697 
L 252.230297 128.96697 
L 252.230297 125.134574 
L 252.628849 125.134574 
L 252.628849 121.302178 
L 253.28057 121.302178 
L 253.28057 117.469782 
L 254.436261 117.469782 
L 254.436261 113.637386 
L 254.970093 113.637386 
L 255.030062 98.307802 
L 256.966454 98.307802 
L 257.006254 90.64301 
L 257.944839 90.64301 
L 257.944839 86.810614 
L 258.548128 86.810614 
L 258.548128 82.978218 
L 258.776056 82.978218 
L 258.776056 79.145822 
L 259.109966 79.145822 
L 259.109966 75.313426 
L 259.864326 75.313426 
L 259.864326 71.48103 
L 260.194267 71.48103 
L 260.194267 67.648634 
L 260.773892 67.648634 
L 260.86521 59.983842 
L 262.18336 59.983842 
L 262.18336 56.151446 
L 269.579957 56.151446 
L 269.579957 52.31905 
L 273.51524 52.31905 
L 273.51524 48.486653 
L 275.705451 48.486653 
L 275.705451 44.654257 
L 279.200818 44.654257 
L 279.200818 40.821861 
L 279.477475 40.821861 
L 279.477475 36.989465 
L 279.79717 36.989465 
L 279.79717 33.157069 
L 280.341742 33.157069 
L 280.341742 29.324673 
L 283.09334 29.324673 
L 283.09334 25.492277 
L 293.00349 25.492277 
L 293.00349 21.659881 
L 298.287423 21.659881 
L 298.287423 17.827485 
L 300.449685 17.827485 
L 300.449685 13.995089 
L 305.209713 13.995089 
L 305.209713 10.162693 
L 305.653417 10.162693 
L 305.653417 6.330297 
L 305.653417 6.330297 
L 460.8 6.330297 
L 460.8 6.330297 
" clip-path="url(#p3e8b62b3e9)" style="fill: none; stroke: #ff0000; stroke-width: 3; stroke-linecap: square"/>
   </g>
   <g id="line2d_22">
    <path d="M 220.826745 293.76 
L 220.826745 289.927604 
L 233.931966 289.927604 
L 233.931966 286.095208 
L 237.68188 286.095208 
L 237.68188 282.262812 
L 240.190009 282.262812 
L 240.190009 278.430416 
L 241.606179 278.430416 
L 241.606179 274.59802 
L 242.646848 274.59802 
L 242.646848 270.765624 
L 243.301945 270.765624 
L 243.301945 266.933228 
L 243.779412 266.933228 
L 243.779412 263.100832 
L 244.630612 263.100832 
L 244.630612 259.268436 
L 244.75901 259.268436 
L 244.75901 255.43604 
L 244.886742 255.43604 
L 244.886742 251.603644 
L 245.372641 251.603644 
L 245.372641 247.771248 
L 246.106331 247.771248 
L 246.106331 243.938851 
L 246.441425 243.938851 
L 246.441425 240.106455 
L 249.976466 240.106455 
L 249.976466 236.274059 
L 255.272934 236.274059 
L 255.272934 232.441663 
L 255.455787 232.441663 
L 255.455787 228.609267 
L 256.068806 228.609267 
L 256.068806 224.776871 
L 257.227655 224.776871 
L 257.227655 220.944475 
L 257.692773 220.944475 
L 257.692773 163.458535 
L 258.717686 163.458535 
L 258.717686 159.626139 
L 259.092212 159.626139 
L 259.092212 155.793743 
L 259.527544 155.793743 
L 259.527544 151.961347 
L 259.816255 151.961347 
L 259.816255 148.12895 
L 261.594476 148.12895 
L 261.594476 144.296554 
L 261.979712 144.296554 
L 261.979712 140.464158 
L 262.284288 140.464158 
L 262.284288 136.631762 
L 262.970583 136.631762 
L 262.970583 132.799366 
L 263.8216 132.799366 
L 263.878984 125.134574 
L 263.93364 125.134574 
L 263.93364 121.302178 
L 264.125602 121.302178 
L 264.125602 117.469782 
L 264.697704 117.469782 
L 264.717492 109.80499 
L 266.386846 109.80499 
L 266.413474 102.140198 
L 266.746287 102.140198 
L 266.746287 98.307802 
L 266.885377 98.307802 
L 266.885377 94.475406 
L 267.088991 94.475406 
L 267.088991 90.64301 
L 267.396112 90.64301 
L 267.471761 75.313426 
L 267.937801 75.313426 
L 267.937801 71.48103 
L 268.680736 71.48103 
L 268.680736 67.648634 
L 273.135242 67.648634 
L 273.135242 63.816238 
L 311.838235 63.816238 
L 311.838235 59.983842 
L 334.801705 59.983842 
L 334.801705 56.151446 
L 339.97525 56.151446 
L 339.97525 52.31905 
L 348.51816 52.31905 
L 348.51816 48.486653 
L 357.011789 48.486653 
L 357.011789 44.654257 
L 358.799849 44.654257 
L 358.799849 40.821861 
L 373.493241 40.821861 
L 373.493241 36.989465 
L 373.754113 36.989465 
L 373.754113 33.157069 
L 374.161932 33.157069 
L 374.161932 29.324673 
L 379.104085 29.324673 
L 379.104085 25.492277 
L 381.685628 25.492277 
L 381.685628 21.659881 
L 384.073303 21.659881 
L 384.073303 17.827485 
L 384.444988 17.827485 
L 384.444988 13.995089 
L 385.681888 13.995089 
L 385.681888 10.162693 
L 386.859168 10.162693 
L 386.859168 6.330297 
L 386.859168 6.330297 
L 460.8 6.330297 
L 460.8 6.330297 
" clip-path="url(#p3e8b62b3e9)" style="fill: none; stroke: #00bfbf; stroke-width: 1.5; stroke-linecap: square"/>
   </g>
   <g id="line2d_23">
    <path d="M 214.591459 293.76 
L 214.591459 289.927604 
L 232.368542 289.927604 
L 232.368542 286.095208 
L 236.873465 286.095208 
L 236.873465 282.262812 
L 238.962421 282.262812 
L 238.962421 278.430416 
L 240.150381 278.430416 
L 240.150381 274.59802 
L 242.063194 274.59802 
L 242.063194 270.765624 
L 242.496988 270.765624 
L 242.496988 266.933228 
L 243.301945 266.933228 
L 243.30899 259.268436 
L 243.846223 259.268436 
L 243.846223 255.43604 
L 244.210226 255.43604 
L 244.210226 251.603644 
L 244.396767 251.603644 
L 244.396767 247.771248 
L 245.374295 247.771248 
L 245.374295 243.938851 
L 246.106331 243.938851 
L 246.106331 240.106455 
L 249.194234 240.106455 
L 249.194234 236.274059 
L 252.230297 236.274059 
L 252.230297 232.441663 
L 253.510209 232.441663 
L 253.510209 228.609267 
L 254.436261 228.609267 
L 254.436261 224.776871 
L 254.970093 224.776871 
L 254.970093 220.944475 
L 257.397888 220.944475 
L 257.397888 197.950099 
L 257.525104 197.950099 
L 257.600362 174.955723 
L 257.6409 174.955723 
L 257.692773 159.626139 
L 258.232095 159.626139 
L 258.232095 155.793743 
L 259.092212 155.793743 
L 259.092212 151.961347 
L 259.816255 151.961347 
L 259.816255 148.12895 
L 260.163202 148.12895 
L 260.163202 144.296554 
L 260.896969 144.296554 
L 260.896969 140.464158 
L 261.793583 140.464158 
L 261.793583 136.631762 
L 262.1512 136.631762 
L 262.1512 132.799366 
L 262.847038 132.799366 
L 262.847038 128.96697 
L 263.009967 128.96697 
L 263.009967 125.134574 
L 263.152368 125.134574 
L 263.182302 117.469782 
L 263.652049 117.469782 
L 263.652049 113.637386 
L 264.610602 113.637386 
L 264.610602 109.80499 
L 265.221012 109.80499 
L 265.221012 105.972594 
L 265.619336 105.972594 
L 265.726574 98.307802 
L 265.810676 98.307802 
L 265.898666 90.64301 
L 266.35043 90.64301 
L 266.391851 82.978218 
L 266.577329 82.978218 
L 266.656369 75.313426 
L 267.014526 75.313426 
L 267.014526 71.48103 
L 268.013029 71.48103 
L 268.013029 67.648634 
L 272.582369 67.648634 
L 272.582369 63.816238 
L 310.575435 63.816238 
L 310.575435 59.983842 
L 334.795235 59.983842 
L 334.795235 56.151446 
L 339.97525 56.151446 
L 339.97525 52.31905 
L 348.51656 52.31905 
L 348.51656 48.486653 
L 356.991175 48.486653 
L 356.991175 44.654257 
L 357.528224 44.654257 
L 357.528224 40.821861 
L 373.493241 40.821861 
L 373.493241 36.989465 
L 373.748842 36.989465 
L 373.748842 33.157069 
L 374.00521 33.157069 
L 374.00521 29.324673 
L 379.104078 29.324673 
L 379.104078 25.492277 
L 381.61271 25.492277 
L 381.61271 21.659881 
L 384.073303 21.659881 
L 384.073303 17.827485 
L 384.443356 17.827485 
L 384.443356 13.995089 
L 385.5825 13.995089 
L 385.5825 10.162693 
L 386.857607 10.162693 
L 386.857607 6.330297 
L 386.857607 6.330297 
L 460.8 6.330297 
L 460.8 6.330297 
" clip-path="url(#p3e8b62b3e9)" style="fill: none; stroke: #bf00bf; stroke-width: 1.5; stroke-linecap: square"/>
   </g>
   <g id="line2d_24">
    <path d="M -0.111044 293.76 
L -0.111044 263.100832 
L 201.488297 263.100832 
L 201.488297 259.268436 
L 202.722607 259.268436 
L 202.722607 255.43604 
L 204.321741 255.43604 
L 204.321741 251.603644 
L 206.298806 251.603644 
L 206.298806 247.771248 
L 206.687919 247.771248 
L 206.687919 243.938851 
L 214.591459 243.938851 
L 214.591459 240.106455 
L 221.619554 240.106455 
L 221.619554 236.274059 
L 221.989421 236.274059 
L 221.989421 232.441663 
L 226.634775 232.441663 
L 226.634775 228.609267 
L 230.237779 228.609267 
L 230.237779 224.776871 
L 239.75042 224.776871 
L 239.75042 220.944475 
L 240.474397 220.944475 
L 240.474397 217.112079 
L 240.757446 217.112079 
L 240.757446 213.279683 
L 241.430536 213.279683 
L 241.430536 209.447287 
L 243.301945 209.447287 
L 243.301945 205.614891 
L 243.846223 205.614891 
L 243.846223 201.782495 
L 245.8918 201.782495 
L 245.8918 197.950099 
L 246.046257 197.950099 
L 246.106331 190.285307 
L 249.696858 190.285307 
L 249.696858 186.452911 
L 250.27216 186.452911 
L 250.27216 182.620515 
L 250.710841 182.620515 
L 250.710841 178.788119 
L 251.398833 178.788119 
L 251.398833 174.955723 
L 251.764241 174.955723 
L 251.764241 171.123327 
L 252.230297 171.123327 
L 252.230297 167.290931 
L 253.28057 167.290931 
L 253.28057 163.458535 
L 253.621083 163.458535 
L 253.621083 159.626139 
L 253.867378 159.626139 
L 253.867378 155.793743 
L 254.072309 155.793743 
L 254.108337 148.12895 
L 254.204837 148.12895 
L 254.204837 144.296554 
L 254.436261 144.296554 
L 254.436261 140.464158 
L 254.576281 140.464158 
L 254.659355 132.799366 
L 254.970093 132.799366 
L 254.970093 128.96697 
L 255.129853 128.96697 
L 255.129853 125.134574 
L 255.497754 125.134574 
L 255.497754 121.302178 
L 256.010595 121.302178 
L 256.010595 117.469782 
L 256.132427 117.469782 
L 256.132427 113.637386 
L 257.006254 113.637386 
L 257.006254 109.80499 
L 257.162869 109.80499 
L 257.162869 105.972594 
L 257.923475 105.972594 
L 257.944839 98.307802 
L 258.246174 98.307802 
L 258.246174 94.475406 
L 259.864326 94.475406 
L 259.864326 90.64301 
L 260.194267 90.64301 
L 260.194267 86.810614 
L 260.943085 86.810614 
L 260.943085 82.978218 
L 262.252561 82.978218 
L 262.252561 79.145822 
L 262.395331 79.145822 
L 262.395331 75.313426 
L 263.068912 75.313426 
L 263.068912 71.48103 
L 263.677274 71.48103 
L 263.677274 67.648634 
L 266.656369 67.648634 
L 266.656369 63.816238 
L 302.283535 63.816238 
L 302.283535 59.983842 
L 329.918327 59.983842 
L 329.918327 56.151446 
L 330.26652 56.151446 
L 330.26652 52.31905 
L 330.480212 52.31905 
L 330.480212 48.486653 
L 341.308134 48.486653 
L 341.308134 44.654257 
L 341.624231 44.654257 
L 341.624231 40.821861 
L 343.245188 40.821861 
L 343.245188 36.989465 
L 343.969863 36.989465 
L 343.969863 33.157069 
L 348.767476 33.157069 
L 348.858045 25.492277 
L 349.691771 25.492277 
L 349.691771 21.659881 
L 350.155221 21.659881 
L 350.155221 17.827485 
L 352.981721 17.827485 
L 353.092108 10.162693 
L 353.152864 10.162693 
L 353.152864 6.330297 
L 353.152864 6.330297 
L 460.8 6.330297 
L 460.8 6.330297 
" clip-path="url(#p3e8b62b3e9)" style="fill: none; stroke: #000000; stroke-width: 1.5; stroke-linecap: square"/>
   </g>
   <g id="line2d_25">
    <path d="M -0.111044 293.76 
L -0.111044 263.100832 
L 45.659413 263.100832 
L 45.659413 259.268436 
L 59.288998 259.268436 
L 59.288998 255.43604 
L 75.530697 255.43604 
L 75.530697 251.603644 
L 76.215497 251.603644 
L 76.215497 247.771248 
L 79.452357 247.771248 
L 79.452357 243.938851 
L 82.164192 243.938851 
L 82.164192 240.106455 
L 87.687101 240.106455 
L 87.687101 236.274059 
L 105.758538 236.274059 
L 105.758538 232.441663 
L 214.591459 232.441663 
L 214.591459 228.609267 
L 230.237779 228.609267 
L 230.237779 224.776871 
L 234.003047 224.776871 
L 234.003047 220.944475 
L 239.75042 220.944475 
L 239.75042 217.112079 
L 240.467552 217.112079 
L 240.467552 213.279683 
L 240.757446 213.279683 
L 240.757446 209.447287 
L 242.239286 209.447287 
L 242.239286 205.614891 
L 243.301945 205.614891 
L 243.301945 201.782495 
L 243.491063 201.782495 
L 243.491063 197.950099 
L 243.846223 197.950099 
L 243.846223 194.117703 
L 245.8918 194.117703 
L 245.8918 190.285307 
L 246.106331 190.285307 
L 246.106331 186.452911 
L 246.28872 186.452911 
L 246.28872 182.620515 
L 247.184168 182.620515 
L 247.184168 178.788119 
L 248.058906 178.788119 
L 248.058906 174.955723 
L 248.450811 174.955723 
L 248.450811 171.123327 
L 249.258087 171.123327 
L 249.258087 167.290931 
L 249.434816 167.290931 
L 249.434816 163.458535 
L 249.633089 163.458535 
L 249.633089 159.626139 
L 249.952114 159.626139 
L 249.952114 155.793743 
L 251.69025 155.793743 
L 251.69025 151.961347 
L 251.913752 151.961347 
L 251.913752 148.12895 
L 252.230297 148.12895 
L 252.282615 140.464158 
L 253.234417 140.464158 
L 253.28057 132.799366 
L 254.204837 132.799366 
L 254.204837 128.96697 
L 254.436261 128.96697 
L 254.436261 125.134574 
L 254.970093 125.134574 
L 255.023935 117.469782 
L 255.234149 117.469782 
L 255.234149 113.637386 
L 255.628916 113.637386 
L 255.628916 109.80499 
L 257.006254 109.80499 
L 257.006254 105.972594 
L 257.162869 105.972594 
L 257.202707 98.307802 
L 257.944839 98.307802 
L 257.944839 94.475406 
L 258.549887 94.475406 
L 258.549887 90.64301 
L 259.864326 90.64301 
L 259.864326 86.810614 
L 260.194267 86.810614 
L 260.194267 82.978218 
L 260.865341 82.978218 
L 260.865341 79.145822 
L 261.419982 79.145822 
L 261.419982 75.313426 
L 262.385258 75.313426 
L 262.471995 67.648634 
L 263.068912 67.648634 
L 263.068912 63.816238 
L 274.636785 63.816238 
L 274.636785 59.983842 
L 282.172419 59.983842 
L 282.172419 56.151446 
L 307.98532 56.151446 
L 307.98532 52.31905 
L 309.736734 52.31905 
L 309.736734 48.486653 
L 313.82408 48.486653 
L 313.82408 44.654257 
L 314.852894 44.654257 
L 314.852894 40.821861 
L 316.533234 40.821861 
L 316.533234 36.989465 
L 317.293722 36.989465 
L 317.293722 33.157069 
L 323.101521 33.157069 
L 323.101521 29.324673 
L 328.905791 29.324673 
L 328.905791 25.492277 
L 329.018086 25.492277 
L 329.09895 17.827485 
L 329.832879 17.827485 
L 329.832879 13.995089 
L 330.35683 13.995089 
L 330.35683 10.162693 
L 330.760056 10.162693 
L 330.760056 6.330297 
L 330.760056 6.330297 
L 460.8 6.330297 
L 460.8 6.330297 
" clip-path="url(#p3e8b62b3e9)" style="fill: none; stroke: #00bfbf; stroke-width: 1.5; stroke-linecap: square"/>
   </g>
   <g id="patch_3">
    <path d="M 0 293.76 
L 0 3.456 
" style="fill: none; stroke: #000000; stroke-width: 0.8; stroke-linejoin: miter; stroke-linecap: square"/>
   </g>
   <g id="patch_4">
    <path d="M 460.8 293.76 
L 460.8 3.456 
" style="fill: none; stroke: #000000; stroke-width: 0.8; stroke-linejoin: miter; stroke-linecap: square"/>
   </g>
   <g id="patch_5">
    <path d="M 0 293.76 
L 460.8 293.76 
" style="fill: none; stroke: #000000; stroke-width: 0.8; stroke-linejoin: miter; stroke-linecap: square"/>
   </g>
   <g id="patch_6">
    <path d="M 0 3.456 
L 460.8 3.456 
" style="fill: none; stroke: #000000; stroke-width: 0.8; stroke-linejoin: miter; stroke-linecap: square"/>
   </g>
   <g id="text_6">
    <!-- {f1-f5}, 5-D -->
    <g transform="translate(331.334 287.95392) scale(0.2 -0.2)">
     <defs>
      <path id="DejaVuSans-7b" d="M 3272 -594 
L 3272 -1044 
L 3078 -1044 
Q 2300 -1044 2036 -812 
Q 1772 -581 1772 109 
L 1772 856 
Q 1772 1328 1603 1509 
Q 1434 1691 991 1691 
L 800 1691 
L 800 2138 
L 991 2138 
Q 1438 2138 1605 2317 
Q 1772 2497 1772 2963 
L 1772 3713 
Q 1772 4403 2036 4633 
Q 2300 4863 3078 4863 
L 3272 4863 
L 3272 4416 
L 3059 4416 
Q 2619 4416 2484 4278 
Q 2350 4141 2350 3700 
L 2350 2925 
Q 2350 2434 2208 2212 
Q 2066 1991 1722 1913 
Q 2069 1828 2209 1606 
Q 2350 1384 2350 897 
L 2350 122 
Q 2350 -319 2484 -456 
Q 2619 -594 3059 -594 
L 3272 -594 
z
" transform="scale(0.015625)"/>
      <path id="DejaVuSans-35" d="M 691 4666 
L 3169 4666 
L 3169 4134 
L 1269 4134 
L 1269 2991 
Q 1406 3038 1543 3061 
Q 1681 3084 1819 3084 
Q 2600 3084 3056 2656 
Q 3513 2228 3513 1497 
Q 3513 744 3044 326 
Q 2575 -91 1722 -91 
Q 1428 -91 1123 -41 
Q 819 9 494 109 
L 494 744 
Q 775 591 1075 516 
Q 1375 441 1709 441 
Q 2250 441 2565 725 
Q 2881 1009 2881 1497 
Q 2881 1984 2565 2268 
Q 2250 2553 1709 2553 
Q 1456 2553 1204 2497 
Q 953 2441 691 2322 
L 691 4666 
z
" transform="scale(0.015625)"/>
      <path id="DejaVuSans-7d" d="M 800 -594 
L 1019 -594 
Q 1456 -594 1589 -459 
Q 1722 -325 1722 122 
L 1722 897 
Q 1722 1384 1862 1606 
Q 2003 1828 2350 1913 
Q 2003 1991 1862 2212 
Q 1722 2434 1722 2925 
L 1722 3700 
Q 1722 4144 1589 4280 
Q 1456 4416 1019 4416 
L 800 4416 
L 800 4863 
L 997 4863 
Q 1775 4863 2036 4633 
Q 2297 4403 2297 3713 
L 2297 2963 
Q 2297 2497 2465 2317 
Q 2634 2138 3078 2138 
L 3272 2138 
L 3272 1691 
L 3078 1691 
Q 2634 1691 2465 1509 
Q 2297 1328 2297 856 
L 2297 109 
Q 2297 -581 2036 -812 
Q 1775 -1044 997 -1044 
L 800 -1044 
L 800 -594 
z
" transform="scale(0.015625)"/>
      <path id="DejaVuSans-2c" d="M 750 794 
L 1409 794 
L 1409 256 
L 897 -744 
L 494 -744 
L 750 256 
L 750 794 
z
" transform="scale(0.015625)"/>
     </defs>
     <use xlink:href="#DejaVuSans-7b"/>
     <use xlink:href="#DejaVuSans-66" x="63.623047"/>
     <use xlink:href="#DejaVuSans-31" x="98.828125"/>
     <use xlink:href="#DejaVuSans-2d" x="162.451172"/>
     <use xlink:href="#DejaVuSans-66" x="198.535156"/>
     <use xlink:href="#DejaVuSans-35" x="233.740234"/>
     <use xlink:href="#DejaVuSans-7d" x="297.363281"/>
     <use xlink:href="#DejaVuSans-2c" x="360.986328"/>
     <use xlink:href="#DejaVuSans-20" x="392.773438"/>
     <use xlink:href="#DejaVuSans-35" x="424.560547"/>
     <use xlink:href="#DejaVuSans-2d" x="488.183594"/>
     <use xlink:href="#DejaVuSans-44" x="524.267578"/>
    </g>
   </g>
   <g id="text_7">
    <!-- v2.6.3 -->
    <g style="fill: #808080" transform="translate(214.71875 288.777272) scale(0.1 -0.1)">
     <defs>
      <path id="DejaVuSans-76" d="M 191 3500 
L 800 3500 
L 1894 563 
L 2988 3500 
L 3597 3500 
L 2284 0 
L 1503 0 
L 191 3500 
z
" transform="scale(0.015625)"/>
      <path id="DejaVuSans-32" d="M 1228 531 
L 3431 531 
L 3431 0 
L 469 0 
L 469 531 
Q 828 903 1448 1529 
Q 2069 2156 2228 2338 
Q 2531 2678 2651 2914 
Q 2772 3150 2772 3378 
Q 2772 3750 2511 3984 
Q 2250 4219 1831 4219 
Q 1534 4219 1204 4116 
Q 875 4013 500 3803 
L 500 4441 
Q 881 4594 1212 4672 
Q 1544 4750 1819 4750 
Q 2544 4750 2975 4387 
Q 3406 4025 3406 3419 
Q 3406 3131 3298 2873 
Q 3191 2616 2906 2266 
Q 2828 2175 2409 1742 
Q 1991 1309 1228 531 
z
" transform="scale(0.015625)"/>
      <path id="DejaVuSans-2e" d="M 684 794 
L 1344 794 
L 1344 0 
L 684 0 
L 684 794 
z
" transform="scale(0.015625)"/>
      <path id="DejaVuSans-36" d="M 2113 2584 
Q 1688 2584 1439 2293 
Q 1191 2003 1191 1497 
Q 1191 994 1439 701 
Q 1688 409 2113 409 
Q 2538 409 2786 701 
Q 3034 994 3034 1497 
Q 3034 2003 2786 2293 
Q 2538 2584 2113 2584 
z
M 3366 4563 
L 3366 3988 
Q 3128 4100 2886 4159 
Q 2644 4219 2406 4219 
Q 1781 4219 1451 3797 
Q 1122 3375 1075 2522 
Q 1259 2794 1537 2939 
Q 1816 3084 2150 3084 
Q 2853 3084 3261 2657 
Q 3669 2231 3669 1497 
Q 3669 778 3244 343 
Q 2819 -91 2113 -91 
Q 1303 -91 875 529 
Q 447 1150 447 2328 
Q 447 3434 972 4092 
Q 1497 4750 2381 4750 
Q 2619 4750 2861 4703 
Q 3103 4656 3366 4563 
z
" transform="scale(0.015625)"/>
      <path id="DejaVuSans-33" d="M 2597 2516 
Q 3050 2419 3304 2112 
Q 3559 1806 3559 1356 
Q 3559 666 3084 287 
Q 2609 -91 1734 -91 
Q 1441 -91 1130 -33 
Q 819 25 488 141 
L 488 750 
Q 750 597 1062 519 
Q 1375 441 1716 441 
Q 2309 441 2620 675 
Q 2931 909 2931 1356 
Q 2931 1769 2642 2001 
Q 2353 2234 1838 2234 
L 1294 2234 
L 1294 2753 
L 1863 2753 
Q 2328 2753 2575 2939 
Q 2822 3125 2822 3475 
Q 2822 3834 2567 4026 
Q 2313 4219 1838 4219 
Q 1578 4219 1281 4162 
Q 984 4106 628 3988 
L 628 4550 
Q 988 4650 1302 4700 
Q 1616 4750 1894 4750 
Q 2613 4750 3031 4423 
Q 3450 4097 3450 3541 
Q 3450 3153 3228 2886 
Q 3006 2619 2597 2516 
z
" transform="scale(0.015625)"/>
     </defs>
     <use xlink:href="#DejaVuSans-76"/>
     <use xlink:href="#DejaVuSans-32" x="59.179688"/>
     <use xlink:href="#DejaVuSans-2e" x="122.802734"/>
     <use xlink:href="#DejaVuSans-36" x="154.589844"/>
     <use xlink:href="#DejaVuSans-2e" x="218.212891"/>
     <use xlink:href="#DejaVuSans-33" x="250"/>
    </g>
   </g>
  </g>
 </g>
 <defs>
  <clipPath id="p3e8b62b3e9">
   <rect x="0" y="3.456" width="460.8" height="290.304"/>
  </clipPath>
 </defs>
</svg>
