<?xml version="1.0" encoding="utf-8" standalone="no"?>
<!DOCTYPE svg PUBLIC "-//W3C//DTD SVG 1.1//EN"
  "http://www.w3.org/Graphics/SVG/1.1/DTD/svg11.dtd">
<svg xmlns:xlink="http://www.w3.org/1999/xlink" width="460.8pt" height="345.6pt" viewBox="0 0 460.8 345.6" xmlns="http://www.w3.org/2000/svg" version="1.1">
 <metadata>
  <rdf:RDF xmlns:dc="http://purl.org/dc/elements/1.1/" xmlns:cc="http://creativecommons.org/ns#" xmlns:rdf="http://www.w3.org/1999/02/22-rdf-syntax-ns#">
   <cc:Work>
    <dc:type rdf:resource="http://purl.org/dc/dcmitype/StillImage"/>
    <dc:date>2024-01-25T18:16:41.252844</dc:date>
    <dc:format>image/svg+xml</dc:format>
    <dc:creator>
     <cc:Agent>
      <dc:title>Matplotlib v3.8.2, https://matplotlib.org/</dc:title>
     </cc:Agent>
    </dc:creator>
   </cc:Work>
  </rdf:RDF>
 </metadata>
 <defs>
  <style type="text/css">*{stroke-linejoin: round; stroke-linecap: butt}</style>
 </defs>
 <g id="figure_1">
  <g id="patch_1">
   <path d="M 0 345.6 
L 460.8 345.6 
L 460.8 0 
L 0 0 
z
" style="fill: #ffffff"/>
  </g>
  <g id="axes_1">
   <g id="patch_2">
    <path d="M 0 293.76 
L 460.8 293.76 
L 460.8 3.456 
L 0 3.456 
z
" style="fill: #ffffff"/>
   </g>
   <g id="matplotlib.axis_1">
    <g id="xtick_1">
     <g id="line2d_1">
      <path d="M 102.674388 293.76 
L 102.674388 3.456 
" clip-path="url(#p55492cfe58)" style="fill: none; stroke: #b0b0b0; stroke-width: 0.8; stroke-linecap: square"/>
     </g>
     <g id="line2d_2">
      <defs>
       <path id="mec7386819d" d="M 0 0 
L 0 3.5 
" style="stroke: #000000; stroke-width: 0.8"/>
      </defs>
      <g>
       <use xlink:href="#mec7386819d" x="102.674388" y="293.76" style="stroke: #000000; stroke-width: 0.8"/>
      </g>
     </g>
     <g id="text_1">
      <!-- -4 -->
      <g transform="translate(92.704075 315.956875) scale(0.2 -0.2)">
       <defs>
        <path id="DejaVuSans-2d" d="M 313 2009 
L 1997 2009 
L 1997 1497 
L 313 1497 
L 313 2009 
z
" transform="scale(0.015625)"/>
        <path id="DejaVuSans-34" d="M 2419 4116 
L 825 1625 
L 2419 1625 
L 2419 4116 
z
M 2253 4666 
L 3047 4666 
L 3047 1625 
L 3713 1625 
L 3713 1100 
L 3047 1100 
L 3047 0 
L 2419 0 
L 2419 1100 
L 313 1100 
L 313 1709 
L 2253 4666 
z
" transform="scale(0.015625)"/>
       </defs>
       <use xlink:href="#DejaVuSans-2d"/>
       <use xlink:href="#DejaVuSans-34" x="36.083984"/>
      </g>
     </g>
    </g>
    <g id="xtick_2">
     <g id="line2d_3">
      <path d="M 205.459819 293.76 
L 205.459819 3.456 
" clip-path="url(#p55492cfe58)" style="fill: none; stroke: #b0b0b0; stroke-width: 0.8; stroke-linecap: square"/>
     </g>
     <g id="line2d_4">
      <g>
       <use xlink:href="#mec7386819d" x="205.459819" y="293.76" style="stroke: #000000; stroke-width: 0.8"/>
      </g>
     </g>
     <g id="text_2">
      <!-- 0 -->
      <g transform="translate(199.097319 315.956875) scale(0.2 -0.2)">
       <defs>
        <path id="DejaVuSans-30" d="M 2034 4250 
Q 1547 4250 1301 3770 
Q 1056 3291 1056 2328 
Q 1056 1369 1301 889 
Q 1547 409 2034 409 
Q 2525 409 2770 889 
Q 3016 1369 3016 2328 
Q 3016 3291 2770 3770 
Q 2525 4250 2034 4250 
z
M 2034 4750 
Q 2819 4750 3233 4129 
Q 3647 3509 3647 2328 
Q 3647 1150 3233 529 
Q 2819 -91 2034 -91 
Q 1250 -91 836 529 
Q 422 1150 422 2328 
Q 422 3509 836 4129 
Q 1250 4750 2034 4750 
z
" transform="scale(0.015625)"/>
       </defs>
       <use xlink:href="#DejaVuSans-30"/>
      </g>
     </g>
    </g>
    <g id="xtick_3">
     <g id="line2d_5">
      <path d="M 308.24525 293.76 
L 308.24525 3.456 
" clip-path="url(#p55492cfe58)" style="fill: none; stroke: #b0b0b0; stroke-width: 0.8; stroke-linecap: square"/>
     </g>
     <g id="line2d_6">
      <g>
       <use xlink:href="#mec7386819d" x="308.24525" y="293.76" style="stroke: #000000; stroke-width: 0.8"/>
      </g>
     </g>
     <g id="text_3">
      <!-- 4 -->
      <g transform="translate(301.88275 315.956875) scale(0.2 -0.2)">
       <use xlink:href="#DejaVuSans-34"/>
      </g>
     </g>
    </g>
    <g id="xtick_4">
     <g id="line2d_7">
      <path d="M 411.030681 293.76 
L 411.030681 3.456 
" clip-path="url(#p55492cfe58)" style="fill: none; stroke: #b0b0b0; stroke-width: 0.8; stroke-linecap: square"/>
     </g>
     <g id="line2d_8">
      <g>
       <use xlink:href="#mec7386819d" x="411.030681" y="293.76" style="stroke: #000000; stroke-width: 0.8"/>
      </g>
     </g>
     <g id="text_4">
      <!-- 8 -->
      <g transform="translate(404.668181 315.956875) scale(0.2 -0.2)">
       <defs>
        <path id="DejaVuSans-38" d="M 2034 2216 
Q 1584 2216 1326 1975 
Q 1069 1734 1069 1313 
Q 1069 891 1326 650 
Q 1584 409 2034 409 
Q 2484 409 2743 651 
Q 3003 894 3003 1313 
Q 3003 1734 2745 1975 
Q 2488 2216 2034 2216 
z
M 1403 2484 
Q 997 2584 770 2862 
Q 544 3141 544 3541 
Q 544 4100 942 4425 
Q 1341 4750 2034 4750 
Q 2731 4750 3128 4425 
Q 3525 4100 3525 3541 
Q 3525 3141 3298 2862 
Q 3072 2584 2669 2484 
Q 3125 2378 3379 2068 
Q 3634 1759 3634 1313 
Q 3634 634 3220 271 
Q 2806 -91 2034 -91 
Q 1263 -91 848 271 
Q 434 634 434 1313 
Q 434 1759 690 2068 
Q 947 2378 1403 2484 
z
M 1172 3481 
Q 1172 3119 1398 2916 
Q 1625 2713 2034 2713 
Q 2441 2713 2670 2916 
Q 2900 3119 2900 3481 
Q 2900 3844 2670 4047 
Q 2441 4250 2034 4250 
Q 1625 4250 1398 4047 
Q 1172 3844 1172 3481 
z
" transform="scale(0.015625)"/>
       </defs>
       <use xlink:href="#DejaVuSans-38"/>
      </g>
     </g>
    </g>
    <g id="text_5">
     <!-- log10 of Df -->
     <g transform="translate(175.214063 339.313125) scale(0.2 -0.2)">
      <defs>
       <path id="DejaVuSans-6c" d="M 603 4863 
L 1178 4863 
L 1178 0 
L 603 0 
L 603 4863 
z
" transform="scale(0.015625)"/>
       <path id="DejaVuSans-6f" d="M 1959 3097 
Q 1497 3097 1228 2736 
Q 959 2375 959 1747 
Q 959 1119 1226 758 
Q 1494 397 1959 397 
Q 2419 397 2687 759 
Q 2956 1122 2956 1747 
Q 2956 2369 2687 2733 
Q 2419 3097 1959 3097 
z
M 1959 3584 
Q 2709 3584 3137 3096 
Q 3566 2609 3566 1747 
Q 3566 888 3137 398 
Q 2709 -91 1959 -91 
Q 1206 -91 779 398 
Q 353 888 353 1747 
Q 353 2609 779 3096 
Q 1206 3584 1959 3584 
z
" transform="scale(0.015625)"/>
       <path id="DejaVuSans-67" d="M 2906 1791 
Q 2906 2416 2648 2759 
Q 2391 3103 1925 3103 
Q 1463 3103 1205 2759 
Q 947 2416 947 1791 
Q 947 1169 1205 825 
Q 1463 481 1925 481 
Q 2391 481 2648 825 
Q 2906 1169 2906 1791 
z
M 3481 434 
Q 3481 -459 3084 -895 
Q 2688 -1331 1869 -1331 
Q 1566 -1331 1297 -1286 
Q 1028 -1241 775 -1147 
L 775 -588 
Q 1028 -725 1275 -790 
Q 1522 -856 1778 -856 
Q 2344 -856 2625 -561 
Q 2906 -266 2906 331 
L 2906 616 
Q 2728 306 2450 153 
Q 2172 0 1784 0 
Q 1141 0 747 490 
Q 353 981 353 1791 
Q 353 2603 747 3093 
Q 1141 3584 1784 3584 
Q 2172 3584 2450 3431 
Q 2728 3278 2906 2969 
L 2906 3500 
L 3481 3500 
L 3481 434 
z
" transform="scale(0.015625)"/>
       <path id="DejaVuSans-31" d="M 794 531 
L 1825 531 
L 1825 4091 
L 703 3866 
L 703 4441 
L 1819 4666 
L 2450 4666 
L 2450 531 
L 3481 531 
L 3481 0 
L 794 0 
L 794 531 
z
" transform="scale(0.015625)"/>
       <path id="DejaVuSans-20" transform="scale(0.015625)"/>
       <path id="DejaVuSans-66" d="M 2375 4863 
L 2375 4384 
L 1825 4384 
Q 1516 4384 1395 4259 
Q 1275 4134 1275 3809 
L 1275 3500 
L 2222 3500 
L 2222 3053 
L 1275 3053 
L 1275 0 
L 697 0 
L 697 3053 
L 147 3053 
L 147 3500 
L 697 3500 
L 697 3744 
Q 697 4328 969 4595 
Q 1241 4863 1831 4863 
L 2375 4863 
z
" transform="scale(0.015625)"/>
       <path id="DejaVuSans-44" d="M 1259 4147 
L 1259 519 
L 2022 519 
Q 2988 519 3436 956 
Q 3884 1394 3884 2338 
Q 3884 3275 3436 3711 
Q 2988 4147 2022 4147 
L 1259 4147 
z
M 628 4666 
L 1925 4666 
Q 3281 4666 3915 4102 
Q 4550 3538 4550 2338 
Q 4550 1131 3912 565 
Q 3275 0 1925 0 
L 628 0 
L 628 4666 
z
" transform="scale(0.015625)"/>
      </defs>
      <use xlink:href="#DejaVuSans-6c"/>
      <use xlink:href="#DejaVuSans-6f" x="27.783203"/>
      <use xlink:href="#DejaVuSans-67" x="88.964844"/>
      <use xlink:href="#DejaVuSans-31" x="152.441406"/>
      <use xlink:href="#DejaVuSans-30" x="216.064453"/>
      <use xlink:href="#DejaVuSans-20" x="279.6875"/>
      <use xlink:href="#DejaVuSans-6f" x="311.474609"/>
      <use xlink:href="#DejaVuSans-66" x="372.65625"/>
      <use xlink:href="#DejaVuSans-20" x="407.861328"/>
      <use xlink:href="#DejaVuSans-44" x="439.648438"/>
      <use xlink:href="#DejaVuSans-66" x="516.650391"/>
     </g>
    </g>
   </g>
   <g id="matplotlib.axis_2">
    <g id="ytick_1">
     <g id="line2d_9">
      <path d="M 0 293.76 
L 460.8 293.76 
" clip-path="url(#p55492cfe58)" style="fill: none; stroke: #b0b0b0; stroke-width: 0.8; stroke-linecap: square"/>
     </g>
     <g id="line2d_10">
      <defs>
       <path id="m664c703c18" d="M 0 0 
L -3.5 0 
" style="stroke: #000000; stroke-width: 0.8"/>
      </defs>
      <g>
       <use xlink:href="#m664c703c18" x="0" y="293.76" style="stroke: #000000; stroke-width: 0.8"/>
      </g>
     </g>
    </g>
    <g id="ytick_2">
     <g id="line2d_11">
      <path d="M 0 236.274059 
L 460.8 236.274059 
" clip-path="url(#p55492cfe58)" style="fill: none; stroke: #b0b0b0; stroke-width: 0.8; stroke-linecap: square"/>
     </g>
     <g id="line2d_12">
      <g>
       <use xlink:href="#m664c703c18" x="0" y="236.274059" style="stroke: #000000; stroke-width: 0.8"/>
      </g>
     </g>
    </g>
    <g id="ytick_3">
     <g id="line2d_13">
      <path d="M 0 178.788119 
L 460.8 178.788119 
" clip-path="url(#p55492cfe58)" style="fill: none; stroke: #b0b0b0; stroke-width: 0.8; stroke-linecap: square"/>
     </g>
     <g id="line2d_14">
      <g>
       <use xlink:href="#m664c703c18" x="0" y="178.788119" style="stroke: #000000; stroke-width: 0.8"/>
      </g>
     </g>
    </g>
    <g id="ytick_4">
     <g id="line2d_15">
      <path d="M 0 121.302178 
L 460.8 121.302178 
" clip-path="url(#p55492cfe58)" style="fill: none; stroke: #b0b0b0; stroke-width: 0.8; stroke-linecap: square"/>
     </g>
     <g id="line2d_16">
      <g>
       <use xlink:href="#m664c703c18" x="0" y="121.302178" style="stroke: #000000; stroke-width: 0.8"/>
      </g>
     </g>
    </g>
    <g id="ytick_5">
     <g id="line2d_17">
      <path d="M 0 63.816238 
L 460.8 63.816238 
" clip-path="url(#p55492cfe58)" style="fill: none; stroke: #b0b0b0; stroke-width: 0.8; stroke-linecap: square"/>
     </g>
     <g id="line2d_18">
      <g>
       <use xlink:href="#m664c703c18" x="0" y="63.816238" style="stroke: #000000; stroke-width: 0.8"/>
      </g>
     </g>
    </g>
    <g id="ytick_6">
     <g id="line2d_19">
      <path d="M 0 6.330297 
L 460.8 6.330297 
" clip-path="url(#p55492cfe58)" style="fill: none; stroke: #b0b0b0; stroke-width: 0.8; stroke-linecap: square"/>
     </g>
     <g id="line2d_20">
      <g>
       <use xlink:href="#m664c703c18" x="0" y="6.330297" style="stroke: #000000; stroke-width: 0.8"/>
      </g>
     </g>
    </g>
   </g>
   <g id="line2d_21">
    <path d="M -1 287.372673 
L -0.111044 287.372673 
L -0.111044 280.985347 
L 31.070459 280.985347 
L 31.070459 280.186931 
L 128.191667 280.186931 
L 128.191667 279.388515 
L 133.910463 279.388515 
L 133.910463 278.590099 
L 136.760804 278.590099 
L 136.760804 277.791683 
L 137.458344 277.791683 
L 137.458344 276.993267 
L 138.101216 276.993267 
L 138.101216 276.194851 
L 138.212513 276.194851 
L 138.212513 275.396436 
L 159.106448 275.396436 
L 159.106448 269.807525 
L 182.058445 269.807525 
L 182.058445 269.009109 
L 183.298215 269.009109 
L 183.298215 268.210693 
L 186.887714 268.210693 
L 186.887714 267.412277 
L 187.537376 267.412277 
L 187.537376 266.613861 
L 190.005741 266.613861 
L 190.040832 259.428119 
L 190.382244 259.428119 
L 190.382244 258.629703 
L 192.057493 258.629703 
L 192.057493 257.831287 
L 193.310273 257.831287 
L 193.310273 257.032871 
L 194.785057 257.032871 
L 194.785057 256.234455 
L 196.196542 256.234455 
L 196.196542 255.43604 
L 196.791508 255.43604 
L 196.791508 254.637624 
L 196.923014 254.637624 
L 196.923014 253.839208 
L 200.282182 253.839208 
L 200.282182 253.040792 
L 200.870417 253.040792 
L 200.870417 252.242376 
L 200.991732 252.242376 
L 201.028902 250.645545 
L 202.580185 250.645545 
L 202.580185 249.847129 
L 203.918699 249.847129 
L 203.918699 249.048713 
L 204.659145 249.048713 
L 204.659145 248.250297 
L 204.861441 248.250297 
L 204.861441 247.451881 
L 206.953356 247.451881 
L 206.953356 246.653465 
L 207.365744 246.653465 
L 207.365744 245.85505 
L 207.907615 245.85505 
L 207.907615 245.056634 
L 209.112929 245.056634 
L 209.112929 244.258218 
L 209.819721 244.258218 
L 209.819721 243.459802 
L 209.959576 243.459802 
L 209.959576 242.661386 
L 210.443929 242.661386 
L 210.443929 241.86297 
L 210.573105 241.86297 
L 210.573105 241.064554 
L 210.906337 241.064554 
L 210.906337 240.266139 
L 211.697783 240.266139 
L 211.697783 239.467723 
L 212.299056 239.467723 
L 212.299056 238.669307 
L 213.807667 238.669307 
L 213.838274 237.072475 
L 214.259423 237.072475 
L 214.259423 236.274059 
L 214.432845 236.274059 
L 214.470505 232.28198 
L 214.591459 232.28198 
L 214.598378 230.685149 
L 215.378026 230.685149 
L 215.378026 229.886733 
L 215.62579 229.886733 
L 215.652468 228.289901 
L 215.960011 228.289901 
L 215.960011 227.491485 
L 216.197538 227.491485 
L 216.283817 225.894653 
L 216.337513 225.894653 
L 216.352585 224.297822 
L 216.64811 224.297822 
L 216.64811 223.499406 
L 216.845741 223.499406 
L 216.894096 221.902574 
L 217.158056 221.902574 
L 217.158056 221.104158 
L 217.85357 221.104158 
L 217.85357 220.305743 
L 218.446825 220.305743 
L 218.446825 219.507327 
L 219.019884 219.507327 
L 219.019884 218.708911 
L 219.134343 218.708911 
L 219.134343 217.910495 
L 219.871561 217.910495 
L 219.871561 217.112079 
L 220.050807 217.112079 
L 220.050807 216.313663 
L 220.412572 216.313663 
L 220.488791 213.918416 
L 220.833121 213.918416 
L 220.833121 213.12 
L 221.082714 213.12 
L 221.156988 211.523168 
L 221.38623 211.523168 
L 221.465832 209.926337 
L 221.755945 209.926337 
L 221.755945 209.127921 
L 222.477391 209.127921 
L 222.477391 208.329505 
L 223.347974 208.329505 
L 223.3958 204.337426 
L 223.772807 204.337426 
L 223.772807 203.53901 
L 224.148506 203.53901 
L 224.148506 202.740594 
L 224.793751 202.740594 
L 224.888341 201.143762 
L 224.999242 201.143762 
L 224.999242 200.345347 
L 225.165331 200.345347 
L 225.165331 199.546931 
L 225.548238 199.546931 
L 225.548238 198.748515 
L 225.98874 198.748515 
L 226.068931 196.353267 
L 226.397525 196.353267 
L 226.397525 195.554851 
L 226.623015 195.554851 
L 226.701793 193.95802 
L 227.301176 193.95802 
L 227.310723 192.361188 
L 227.600616 192.361188 
L 227.600616 190.764356 
L 228.057808 190.764356 
L 228.057808 189.965941 
L 228.478646 189.965941 
L 228.55304 188.369109 
L 228.766999 188.369109 
L 228.766999 187.570693 
L 228.947092 187.570693 
L 228.947092 186.772277 
L 229.391206 186.772277 
L 229.391206 185.973861 
L 229.723358 185.973861 
L 229.723358 185.175446 
L 229.923968 185.175446 
L 229.923968 184.37703 
L 230.237779 184.37703 
L 230.237779 183.578614 
L 230.489096 183.578614 
L 230.489096 182.780198 
L 230.988721 182.780198 
L 231.078286 181.183366 
L 231.120722 181.183366 
L 231.120722 180.38495 
L 231.615604 180.38495 
L 231.615604 179.586535 
L 232.217554 179.586535 
L 232.26411 177.989703 
L 232.443867 177.989703 
L 232.443867 177.191287 
L 232.613839 177.191287 
L 232.613839 176.392871 
L 232.963571 176.392871 
L 232.963571 175.594455 
L 233.362901 175.594455 
L 233.362901 174.79604 
L 233.660451 174.79604 
L 233.660451 173.997624 
L 233.852882 173.997624 
L 233.852882 173.199208 
L 234.003047 173.199208 
L 234.003047 172.400792 
L 234.173067 172.400792 
L 234.173067 171.602376 
L 234.318826 171.602376 
L 234.389023 170.005545 
L 234.497016 170.005545 
L 234.497016 169.207129 
L 234.917961 169.207129 
L 234.917961 168.408713 
L 235.393595 168.408713 
L 235.393595 167.610297 
L 235.891909 167.610297 
L 235.962387 166.013465 
L 236.039699 166.013465 
L 236.085063 164.416634 
L 236.216564 164.416634 
L 236.216564 163.618218 
L 236.916292 163.618218 
L 236.916292 162.819802 
L 237.028912 162.819802 
L 237.028912 162.021386 
L 237.187796 162.021386 
L 237.187796 161.22297 
L 237.562699 161.22297 
L 237.562699 160.424554 
L 237.690886 160.424554 
L 237.690886 159.626139 
L 237.991414 159.626139 
L 238.032618 158.029307 
L 238.168048 158.029307 
L 238.248595 156.432475 
L 238.297579 156.432475 
L 238.304139 154.835644 
L 238.412636 154.835644 
L 238.509166 153.238812 
L 238.980141 153.238812 
L 238.980141 152.440396 
L 239.173125 152.440396 
L 239.216411 150.843564 
L 239.62841 150.843564 
L 239.715979 148.448317 
L 239.75042 148.448317 
L 239.75042 147.649901 
L 240.190104 147.649901 
L 240.299323 146.053069 
L 240.354588 146.053069 
L 240.46084 144.456238 
L 240.562991 144.456238 
L 240.623184 142.859406 
L 241.008774 142.859406 
L 241.072334 141.262574 
L 241.237103 141.262574 
L 241.237103 140.464158 
L 241.35806 140.464158 
L 241.35806 139.665743 
L 241.551589 139.665743 
L 241.657817 137.270495 
L 241.675925 137.270495 
L 241.771516 135.673663 
L 241.81948 135.673663 
L 241.81948 133.278416 
L 241.957526 133.278416 
L 241.957526 132.48 
L 242.07078 132.48 
L 242.138047 130.084752 
L 242.184201 130.084752 
L 242.293128 126.092673 
L 242.307872 126.092673 
L 242.38088 123.697426 
L 242.577849 123.697426 
L 242.590457 121.302178 
L 242.860086 121.302178 
L 242.860086 120.503762 
L 242.995756 120.503762 
L 242.995756 119.705347 
L 243.301945 119.705347 
L 243.360006 118.108515 
L 243.61189 118.108515 
L 243.706571 115.713267 
L 243.734712 115.713267 
L 243.810712 113.31802 
L 243.846223 113.31802 
L 243.906667 111.721188 
L 243.992096 111.721188 
L 243.992096 110.922772 
L 244.294841 110.922772 
L 244.314374 109.325941 
L 244.755628 109.325941 
L 244.863137 107.729109 
L 244.883401 107.729109 
L 244.955732 106.132277 
L 245.08029 106.132277 
L 245.174584 104.535446 
L 246.21096 104.535446 
L 246.287938 102.938614 
L 246.574296 102.938614 
L 246.574296 102.140198 
L 247.088979 102.140198 
L 247.088979 101.341782 
L 247.370199 101.341782 
L 247.370199 100.543366 
L 247.531353 100.543366 
L 247.588883 98.946535 
L 247.690814 98.946535 
L 247.728248 95.752871 
L 248.414599 95.752871 
L 248.438661 94.15604 
L 248.594608 94.15604 
L 248.614471 91.760792 
L 248.734159 91.760792 
L 248.835249 90.16396 
L 249.00482 90.16396 
L 249.060638 88.567129 
L 249.226903 88.567129 
L 249.314331 86.970297 
L 249.344858 86.970297 
L 249.345365 85.373465 
L 249.698878 85.373465 
L 249.75015 83.776634 
L 249.913699 83.776634 
L 249.913699 82.978218 
L 250.325383 82.978218 
L 250.325383 82.179802 
L 250.687043 82.179802 
L 250.687043 81.381386 
L 251.279833 81.381386 
L 251.279833 80.58297 
L 251.396735 80.58297 
L 251.396735 79.784554 
L 251.572724 79.784554 
L 251.639735 77.389307 
L 252.081913 77.389307 
L 252.146526 74.994059 
L 252.230297 74.994059 
L 252.230297 74.195644 
L 252.387794 74.195644 
L 252.387794 73.397228 
L 252.628849 73.397228 
L 252.628849 72.598812 
L 253.28057 72.598812 
L 253.28057 71.800396 
L 254.178542 71.800396 
L 254.263381 70.203564 
L 254.436261 70.203564 
L 254.436261 69.405149 
L 254.636234 69.405149 
L 254.636234 68.606733 
L 254.970093 68.606733 
L 255.030062 65.413069 
L 255.492421 65.413069 
L 255.492421 64.614653 
L 255.62019 64.614653 
L 255.62019 63.816238 
L 255.986143 63.816238 
L 255.99022 62.219406 
L 256.966454 62.219406 
L 257.006254 60.622574 
L 257.589003 60.622574 
L 257.589003 59.824158 
L 257.944839 59.824158 
L 257.944839 59.025743 
L 258.060563 59.025743 
L 258.060563 58.227327 
L 258.262359 58.227327 
L 258.262359 57.428911 
L 258.391417 57.428911 
L 258.391417 56.630495 
L 258.548128 56.630495 
L 258.548128 55.832079 
L 258.776056 55.832079 
L 258.776056 55.033663 
L 259.109966 55.033663 
L 259.109966 54.235248 
L 259.675826 54.235248 
L 259.675826 53.436832 
L 259.864326 53.436832 
L 259.864326 52.638416 
L 260.14508 52.638416 
L 260.194267 51.041584 
L 260.361574 51.041584 
L 260.361574 50.243168 
L 260.773892 50.243168 
L 260.86521 48.646337 
L 260.914607 48.646337 
L 260.914607 47.847921 
L 261.051828 47.847921 
L 261.051828 47.049505 
L 261.536504 47.049505 
L 261.536504 46.251089 
L 262.014378 46.251089 
L 262.014378 45.452673 
L 262.18336 45.452673 
L 262.18336 44.654257 
L 263.166956 44.654257 
L 263.166956 43.855842 
L 263.298494 43.855842 
L 263.298494 43.057426 
L 263.810054 43.057426 
L 263.810054 42.25901 
L 263.965575 42.25901 
L 263.965575 41.460594 
L 264.346965 41.460594 
L 264.346965 40.662178 
L 264.495344 40.662178 
L 264.559871 38.266931 
L 264.653849 38.266931 
L 264.653849 37.468515 
L 265.517892 37.468515 
L 265.517892 36.670099 
L 266.658297 36.670099 
L 266.658297 35.871683 
L 267.280626 35.871683 
L 267.280626 35.073267 
L 267.906491 35.073267 
L 267.906491 34.274851 
L 268.287804 34.274851 
L 268.287804 33.476436 
L 269.579957 33.476436 
L 269.579957 32.67802 
L 270.316395 32.67802 
L 270.316395 31.879604 
L 271.020288 31.879604 
L 271.020288 31.081188 
L 271.810838 31.081188 
L 271.810838 30.282772 
L 273.51524 30.282772 
L 273.51524 29.484356 
L 274.209607 29.484356 
L 274.209607 28.685941 
L 275.705451 28.685941 
L 275.739203 27.089109 
L 276.01363 27.089109 
L 276.01363 26.290693 
L 276.595729 26.290693 
L 276.595729 25.492277 
L 276.896691 25.492277 
L 276.896691 24.693861 
L 277.227057 24.693861 
L 277.227057 23.895446 
L 279.200818 23.895446 
L 279.200818 23.09703 
L 279.477475 23.09703 
L 279.477475 22.298614 
L 279.79717 22.298614 
L 279.79717 21.500198 
L 280.341742 21.500198 
L 280.341742 20.701782 
L 282.336129 20.701782 
L 282.336129 19.903366 
L 282.465181 19.903366 
L 282.5189 18.306535 
L 282.608246 18.306535 
L 282.608246 17.508119 
L 283.09334 17.508119 
L 283.09334 16.709703 
L 291.388467 16.709703 
L 291.430643 15.112871 
L 292.380133 15.112871 
L 292.380133 14.314455 
L 293.00349 14.314455 
L 293.00349 13.51604 
L 294.236239 13.51604 
L 294.236239 12.717624 
L 294.546429 12.717624 
L 294.546429 11.919208 
L 298.287423 11.919208 
L 298.287423 11.120792 
L 298.447515 11.120792 
L 298.447515 10.322376 
L 300.449685 10.322376 
L 300.449685 9.52396 
L 302.653045 9.52396 
L 302.653045 8.725545 
L 304.939679 8.725545 
L 304.939679 7.927129 
L 305.209713 7.927129 
L 305.209713 7.128713 
L 305.653417 7.128713 
L 305.653417 6.330297 
L 305.653417 6.330297 
L 460.8 6.330297 
L 460.8 6.330297 
" clip-path="url(#p55492cfe58)" style="fill: none; stroke: #ff0000; stroke-width: 3; stroke-linecap: square"/>
   </g>
   <g id="line2d_22">
    <path d="M 190.005741 293.76 
L 190.005741 281.783762 
L 217.82766 281.783762 
L 217.82766 280.985347 
L 220.826745 280.985347 
L 220.826745 280.186931 
L 222.066382 280.186931 
L 222.066382 279.388515 
L 224.747832 279.388515 
L 224.747832 278.590099 
L 224.899459 278.590099 
L 224.899459 277.791683 
L 225.058445 277.791683 
L 225.058445 276.993267 
L 226.701793 276.993267 
L 226.715112 275.396436 
L 228.025894 275.396436 
L 228.025894 274.59802 
L 228.77687 274.59802 
L 228.77687 273.799604 
L 230.537939 273.799604 
L 230.537939 273.001188 
L 231.430518 273.001188 
L 231.430518 272.202772 
L 231.782794 272.202772 
L 231.830459 269.807525 
L 231.968962 269.807525 
L 231.968962 269.009109 
L 233.828451 269.009109 
L 233.931966 267.412277 
L 234.1655 267.412277 
L 234.182512 265.815446 
L 235.22042 265.815446 
L 235.22042 265.01703 
L 236.114914 265.01703 
L 236.152908 263.420198 
L 236.413337 263.420198 
L 236.413337 262.621782 
L 236.712059 262.621782 
L 236.712059 261.823366 
L 237.004788 261.823366 
L 237.004788 261.02495 
L 237.661266 261.02495 
L 237.68188 259.428119 
L 237.776093 259.428119 
L 237.776093 258.629703 
L 238.204016 258.629703 
L 238.204016 257.831287 
L 238.997275 257.831287 
L 239.056355 256.234455 
L 239.492413 256.234455 
L 239.492413 255.43604 
L 240.031046 255.43604 
L 240.031046 254.637624 
L 240.190009 254.637624 
L 240.243508 253.040792 
L 240.739369 253.040792 
L 240.739369 252.242376 
L 241.031788 252.242376 
L 241.031788 251.44396 
L 241.606179 251.44396 
L 241.649002 249.847129 
L 241.81948 249.847129 
L 241.864919 236.274059 
L 242.033142 236.274059 
L 242.110587 234.677228 
L 242.646848 234.677228 
L 242.646848 233.878812 
L 243.171617 233.878812 
L 243.171617 233.080396 
L 243.301945 233.080396 
L 243.301945 232.28198 
L 243.779412 232.28198 
L 243.779412 231.483564 
L 243.921411 231.483564 
L 244.0287 229.886733 
L 244.373529 229.886733 
L 244.373529 229.088317 
L 244.552378 229.088317 
L 244.630612 227.491485 
L 244.75901 227.491485 
L 244.75901 226.693069 
L 244.886742 226.693069 
L 244.990642 224.297822 
L 245.121464 224.297822 
L 245.121464 223.499406 
L 245.333997 223.499406 
L 245.387529 221.104158 
L 246.106331 221.104158 
L 246.106331 220.305743 
L 246.441425 220.305743 
L 246.441425 219.507327 
L 247.226337 219.507327 
L 247.319344 217.910495 
L 247.370199 217.910495 
L 247.370199 217.112079 
L 247.682339 217.112079 
L 247.769817 215.515248 
L 248.198597 215.515248 
L 248.198597 214.716832 
L 248.331218 214.716832 
L 248.374866 213.12 
L 248.617337 213.12 
L 248.676567 211.523168 
L 249.23313 211.523168 
L 249.23313 210.724752 
L 249.976466 210.724752 
L 249.976466 209.926337 
L 250.097312 209.926337 
L 250.193688 208.329505 
L 250.259705 208.329505 
L 250.336903 206.732673 
L 250.590426 206.732673 
L 250.590426 205.934257 
L 250.704271 205.934257 
L 250.704271 205.135842 
L 250.826154 205.135842 
L 250.898937 202.740594 
L 250.997497 202.740594 
L 250.997497 201.942178 
L 251.317185 201.942178 
L 251.317185 201.143762 
L 251.62327 201.143762 
L 251.660644 199.546931 
L 251.812058 199.546931 
L 251.812058 198.748515 
L 251.9981 198.748515 
L 252.04156 197.151683 
L 252.111221 197.151683 
L 252.111221 196.353267 
L 252.246672 196.353267 
L 252.352857 192.361188 
L 252.471779 192.361188 
L 252.471779 191.562772 
L 252.688041 191.562772 
L 252.798442 188.369109 
L 253.16542 188.369109 
L 253.228959 186.772277 
L 253.340328 186.772277 
L 253.450364 184.37703 
L 253.530454 184.37703 
L 253.600989 182.780198 
L 253.701106 182.780198 
L 253.708037 181.183366 
L 253.934309 181.183366 
L 254.035646 178.788119 
L 254.263381 178.788119 
L 254.323106 175.594455 
L 254.441767 175.594455 
L 254.441767 174.79604 
L 255.272934 174.79604 
L 255.299252 173.199208 
L 255.455787 173.199208 
L 255.537109 171.602376 
L 255.727577 171.602376 
L 255.727577 170.80396 
L 255.967318 170.80396 
L 256.068806 169.207129 
L 256.201719 169.207129 
L 256.285186 166.013465 
L 256.395112 166.013465 
L 256.431991 164.416634 
L 256.615172 164.416634 
L 256.66742 162.819802 
L 256.912069 162.819802 
L 256.912069 162.021386 
L 257.227655 162.021386 
L 257.326364 160.424554 
L 257.692773 160.424554 
L 257.692773 148.448317 
L 258.131569 148.448317 
L 258.232729 146.851485 
L 258.368809 146.851485 
L 258.368809 146.053069 
L 258.623511 146.053069 
L 258.717686 144.456238 
L 258.939855 144.456238 
L 258.939855 143.657822 
L 259.092212 143.657822 
L 259.092212 142.859406 
L 259.520683 142.859406 
L 259.527544 141.262574 
L 259.816255 141.262574 
L 259.816255 140.464158 
L 260.071197 140.464158 
L 260.071197 139.665743 
L 260.387847 139.665743 
L 260.450982 138.068911 
L 260.77695 138.068911 
L 260.878918 135.673663 
L 261.095705 135.673663 
L 261.095705 134.875248 
L 261.460177 134.875248 
L 261.460177 134.076832 
L 261.594476 134.076832 
L 261.594476 133.278416 
L 261.753662 133.278416 
L 261.753662 132.48 
L 261.943847 132.48 
L 261.979712 130.883168 
L 262.284288 130.883168 
L 262.284288 130.084752 
L 262.970583 130.084752 
L 262.970583 129.286337 
L 263.151179 129.286337 
L 263.151179 128.487921 
L 263.682928 128.487921 
L 263.682928 127.689505 
L 263.8216 127.689505 
L 263.878984 126.092673 
L 263.93364 126.092673 
L 263.969054 124.495842 
L 264.125602 124.495842 
L 264.125602 123.697426 
L 264.534556 123.697426 
L 264.534556 122.89901 
L 264.697704 122.89901 
L 264.717492 121.302178 
L 264.87995 121.302178 
L 264.87995 120.503762 
L 265.268315 120.503762 
L 265.268315 119.705347 
L 265.575011 119.705347 
L 265.674529 118.108515 
L 266.386846 118.108515 
L 266.413474 116.511683 
L 266.746287 116.511683 
L 266.746287 115.713267 
L 266.885377 115.713267 
L 266.885377 114.914851 
L 267.088991 114.914851 
L 267.088991 114.116436 
L 267.396112 114.116436 
L 267.471761 110.922772 
L 267.937801 110.922772 
L 267.937801 110.124356 
L 268.680736 110.124356 
L 268.680736 109.325941 
L 269.864427 109.325941 
L 269.864427 108.527525 
L 271.78814 108.527525 
L 271.848223 106.930693 
L 273.135242 106.930693 
L 273.210022 105.333861 
L 273.990554 105.333861 
L 273.990554 104.535446 
L 274.459197 104.535446 
L 274.459197 103.73703 
L 275.388196 103.73703 
L 275.409797 102.140198 
L 275.866989 102.140198 
L 275.866989 101.341782 
L 278.263406 101.341782 
L 278.263406 100.543366 
L 278.532971 100.543366 
L 278.532971 99.74495 
L 279.082527 99.74495 
L 279.082527 98.946535 
L 279.841691 98.946535 
L 279.841691 98.148119 
L 280.21139 98.148119 
L 280.21139 97.349703 
L 280.403095 97.349703 
L 280.403095 96.551287 
L 281.374558 96.551287 
L 281.374558 95.752871 
L 281.798752 95.752871 
L 281.798752 94.954455 
L 283.073343 94.954455 
L 283.073343 94.15604 
L 284.09067 94.15604 
L 284.09067 93.357624 
L 284.368451 93.357624 
L 284.368451 92.559208 
L 284.818799 92.559208 
L 284.818799 91.760792 
L 285.030917 91.760792 
L 285.030917 90.962376 
L 285.193774 90.962376 
L 285.193774 90.16396 
L 285.450554 90.16396 
L 285.450554 89.365545 
L 285.706709 89.365545 
L 285.706709 88.567129 
L 286.324544 88.567129 
L 286.324544 87.768713 
L 289.429462 87.768713 
L 289.429462 86.970297 
L 289.796413 86.970297 
L 289.796413 86.171881 
L 292.390195 86.171881 
L 292.390195 85.373465 
L 293.754506 85.373465 
L 293.754506 84.57505 
L 303.595759 84.57505 
L 303.595759 72.598812 
L 306.215512 72.598812 
L 306.215512 71.800396 
L 309.775615 71.800396 
L 309.775615 71.00198 
L 311.838235 71.00198 
L 311.838235 70.203564 
L 312.380971 70.203564 
L 312.380971 69.405149 
L 313.412422 69.405149 
L 313.412422 68.606733 
L 314.963013 68.606733 
L 314.963013 67.808317 
L 315.210645 67.808317 
L 315.210645 67.009901 
L 317.284005 67.009901 
L 317.284005 66.211485 
L 318.117742 66.211485 
L 318.117742 65.413069 
L 318.838976 65.413069 
L 318.838976 64.614653 
L 320.19549 64.614653 
L 320.19549 63.816238 
L 322.279253 63.816238 
L 322.279253 63.017822 
L 323.901937 63.017822 
L 323.901937 62.219406 
L 324.192831 62.219406 
L 324.192831 61.42099 
L 324.766228 61.42099 
L 324.766228 60.622574 
L 327.283258 60.622574 
L 327.283258 59.824158 
L 328.415198 59.824158 
L 328.415198 59.025743 
L 328.741289 59.025743 
L 328.741289 58.227327 
L 328.907215 58.227327 
L 328.907215 57.428911 
L 333.100507 57.428911 
L 333.100507 56.630495 
L 333.672498 56.630495 
L 333.672498 55.832079 
L 334.801705 55.832079 
L 334.801705 55.033663 
L 335.698276 55.033663 
L 335.698276 54.235248 
L 336.522312 54.235248 
L 336.522312 53.436832 
L 339.288645 53.436832 
L 339.288645 52.638416 
L 339.97525 52.638416 
L 339.97525 51.84 
L 347.332949 51.84 
L 347.332949 51.041584 
L 348.000103 51.041584 
L 348.000103 50.243168 
L 348.51816 50.243168 
L 348.51816 49.444752 
L 348.893781 49.444752 
L 348.893781 48.646337 
L 350.354555 48.646337 
L 350.354555 47.847921 
L 353.127595 47.847921 
L 353.127595 47.049505 
L 353.533207 47.049505 
L 353.605734 45.452673 
L 357.011789 45.452673 
L 357.011789 44.654257 
L 358.799849 44.654257 
L 358.799849 43.855842 
L 367.378467 43.855842 
L 367.378467 43.057426 
L 367.734253 43.057426 
L 367.734253 42.25901 
L 368.995745 42.25901 
L 368.995745 41.460594 
L 369.183987 41.460594 
L 369.183987 40.662178 
L 370.423405 40.662178 
L 370.423405 39.863762 
L 373.33638 39.863762 
L 373.33638 39.065347 
L 373.493241 39.065347 
L 373.507396 37.468515 
L 373.754113 37.468515 
L 373.754113 36.670099 
L 374.011992 36.670099 
L 374.011992 35.871683 
L 374.161932 35.871683 
L 374.161932 35.073267 
L 376.125147 35.073267 
L 376.125147 34.274851 
L 377.868874 34.274851 
L 377.868874 33.476436 
L 378.366566 33.476436 
L 378.366566 32.67802 
L 378.551844 32.67802 
L 378.551844 31.879604 
L 379.104085 31.879604 
L 379.104085 31.081188 
L 379.477358 31.081188 
L 379.477358 30.282772 
L 379.70208 30.282772 
L 379.70208 29.484356 
L 379.84195 29.484356 
L 379.84453 27.887525 
L 380.389314 27.887525 
L 380.389314 27.089109 
L 380.723705 27.089109 
L 380.723705 26.290693 
L 380.931316 26.290693 
L 380.931316 25.492277 
L 381.685628 25.492277 
L 381.685628 24.693861 
L 382.074192 24.693861 
L 382.074192 23.895446 
L 384.073303 23.895446 
L 384.073303 23.09703 
L 384.444988 23.09703 
L 384.444988 22.298614 
L 385.681888 22.298614 
L 385.681888 21.500198 
L 385.885487 21.500198 
L 385.885487 20.701782 
L 386.261888 20.701782 
L 386.261888 19.903366 
L 386.859168 19.903366 
L 386.859168 19.10495 
L 387.663808 19.10495 
L 387.663808 18.306535 
L 388.239238 18.306535 
L 388.239238 17.508119 
L 390.897098 17.508119 
L 390.897098 16.709703 
L 391.272912 16.709703 
L 391.272912 15.911287 
L 392.538018 15.911287 
L 392.538018 15.112871 
L 396.210202 15.112871 
L 396.210202 14.314455 
L 398.576188 14.314455 
L 398.576188 13.51604 
L 401.276482 13.51604 
L 401.276482 12.717624 
L 401.425768 12.717624 
L 401.455542 11.120792 
L 401.972396 11.120792 
L 401.972396 10.322376 
L 405.296838 10.322376 
L 405.296838 9.52396 
L 415.723657 9.52396 
L 415.723657 8.725545 
L 416.563043 8.725545 
L 416.563043 7.927129 
L 425.079057 7.927129 
L 425.079057 7.128713 
L 431.69679 7.128713 
L 431.69679 6.330297 
L 431.69679 6.330297 
L 460.8 6.330297 
L 460.8 6.330297 
" clip-path="url(#p55492cfe58)" style="fill: none; stroke: #00bfbf; stroke-width: 1.5; stroke-linecap: square"/>
   </g>
   <g id="line2d_23">
    <path d="M 190.005741 293.76 
L 190.005741 281.783762 
L 214.591459 281.783762 
L 214.591459 280.985347 
L 216.648338 280.985347 
L 216.648338 280.186931 
L 219.349075 280.186931 
L 219.349075 279.388515 
L 220.117134 279.388515 
L 220.117134 278.590099 
L 221.588845 278.590099 
L 221.588845 277.791683 
L 222.408698 277.791683 
L 222.408698 276.993267 
L 223.473747 276.993267 
L 223.473747 276.194851 
L 224.063178 276.194851 
L 224.063178 275.396436 
L 224.249646 275.396436 
L 224.249646 274.59802 
L 225.23326 274.59802 
L 225.23326 273.799604 
L 226.701793 273.799604 
L 226.717046 271.404356 
L 227.301176 271.404356 
L 227.301176 270.605941 
L 227.762751 270.605941 
L 227.831508 269.009109 
L 228.09936 269.009109 
L 228.09936 268.210693 
L 228.766999 268.210693 
L 228.77687 266.613861 
L 229.667951 266.613861 
L 229.714938 265.01703 
L 230.537939 265.01703 
L 230.55528 263.420198 
L 231.120722 263.420198 
L 231.120722 262.621782 
L 232.368542 262.621782 
L 232.403226 261.02495 
L 233.038366 261.02495 
L 233.038366 260.226535 
L 233.562009 260.226535 
L 233.562009 259.428119 
L 233.711851 259.428119 
L 233.711851 258.629703 
L 233.828451 258.629703 
L 233.828451 257.831287 
L 234.120698 257.831287 
L 234.120698 257.032871 
L 234.678553 257.032871 
L 234.678553 256.234455 
L 234.840798 256.234455 
L 234.871686 254.637624 
L 235.891909 254.637624 
L 235.891909 253.839208 
L 236.114914 253.839208 
L 236.216564 251.44396 
L 236.873465 251.44396 
L 236.873465 250.645545 
L 237.008595 250.645545 
L 237.008595 249.847129 
L 237.822826 249.847129 
L 237.822826 249.048713 
L 238.250963 249.048713 
L 238.335829 246.653465 
L 238.681093 246.653465 
L 238.71978 245.056634 
L 238.962421 245.056634 
L 238.962421 244.258218 
L 239.173125 244.258218 
L 239.234784 242.661386 
L 239.493985 242.661386 
L 239.568324 241.064554 
L 239.715979 241.064554 
L 239.715979 240.266139 
L 239.910071 240.266139 
L 239.945433 238.669307 
L 240.150381 238.669307 
L 240.150381 237.870891 
L 240.623184 237.870891 
L 240.623184 237.072475 
L 241.023995 237.072475 
L 241.072334 235.475644 
L 241.541336 235.475644 
L 241.551589 233.080396 
L 241.81948 233.080396 
L 241.81948 225.894653 
L 242.063194 225.894653 
L 242.063194 225.096238 
L 242.496988 225.096238 
L 242.496988 224.297822 
L 242.713958 224.297822 
L 242.713958 223.499406 
L 242.860086 223.499406 
L 242.860086 222.70099 
L 243.09634 222.70099 
L 243.09634 221.902574 
L 243.301945 221.902574 
L 243.30899 220.305743 
L 243.846223 220.305743 
L 243.846223 219.507327 
L 244.210226 219.507327 
L 244.261536 217.910495 
L 244.373529 217.910495 
L 244.396767 216.313663 
L 244.552378 216.313663 
L 244.552378 215.515248 
L 244.780462 215.515248 
L 244.780462 214.716832 
L 244.97115 214.716832 
L 244.97115 213.918416 
L 245.113071 213.918416 
L 245.150484 211.523168 
L 245.374295 211.523168 
L 245.374295 210.724752 
L 245.621719 210.724752 
L 245.621719 209.926337 
L 245.978408 209.926337 
L 245.978408 209.127921 
L 246.106331 209.127921 
L 246.106331 208.329505 
L 246.353828 208.329505 
L 246.353828 207.531089 
L 246.685111 207.531089 
L 246.685111 206.732673 
L 247.370199 206.732673 
L 247.425015 205.135842 
L 247.682339 205.135842 
L 247.767215 202.740594 
L 247.991352 202.740594 
L 247.991352 201.942178 
L 248.594608 201.942178 
L 248.700684 198.748515 
L 248.742737 198.748515 
L 248.742737 197.950099 
L 249.00482 197.950099 
L 249.050519 196.353267 
L 249.194234 196.353267 
L 249.23313 194.756436 
L 249.307761 194.756436 
L 249.32115 193.159604 
L 249.572705 193.159604 
L 249.650934 191.562772 
L 249.765593 191.562772 
L 249.823204 189.965941 
L 250.086531 189.965941 
L 250.193688 188.369109 
L 250.287858 188.369109 
L 250.336903 186.772277 
L 250.423069 186.772277 
L 250.476543 185.175446 
L 250.575461 185.175446 
L 250.630126 183.578614 
L 250.755298 183.578614 
L 250.799556 181.981782 
L 250.898937 181.981782 
L 250.970987 179.586535 
L 251.211794 179.586535 
L 251.262019 177.989703 
L 251.324758 177.989703 
L 251.396735 176.392871 
L 251.54049 176.392871 
L 251.54049 175.594455 
L 251.875825 175.594455 
L 251.875825 174.79604 
L 252.064222 174.79604 
L 252.073562 172.400792 
L 252.230297 172.400792 
L 252.237439 170.80396 
L 252.684503 170.80396 
L 252.729565 168.408713 
L 253.266234 168.408713 
L 253.351479 164.416634 
L 253.497923 164.416634 
L 253.565931 162.021386 
L 253.82676 162.021386 
L 253.82676 161.22297 
L 254.032808 161.22297 
L 254.032808 160.424554 
L 254.263381 160.424554 
L 254.366175 158.827723 
L 254.436261 158.827723 
L 254.436261 158.029307 
L 254.76578 158.029307 
L 254.856179 156.432475 
L 254.970093 156.432475 
L 254.970093 155.634059 
L 255.845856 155.634059 
L 255.845856 154.835644 
L 256.261014 154.835644 
L 256.261014 154.037228 
L 256.841536 154.037228 
L 256.852266 152.440396 
L 257.397888 152.440396 
L 257.397888 147.649901 
L 257.525104 147.649901 
L 257.600362 142.06099 
L 257.6409 142.06099 
L 257.692773 138.867327 
L 258.232095 138.867327 
L 258.232095 138.068911 
L 258.364174 138.068911 
L 258.419415 136.472079 
L 259.092212 136.472079 
L 259.092212 135.673663 
L 259.348351 135.673663 
L 259.348351 134.875248 
L 259.816255 134.875248 
L 259.816255 134.076832 
L 260.163202 134.076832 
L 260.225925 131.681584 
L 260.77695 131.681584 
L 260.77695 130.883168 
L 260.896969 130.883168 
L 260.896969 130.084752 
L 261.300666 130.084752 
L 261.300666 129.286337 
L 261.441296 129.286337 
L 261.441296 128.487921 
L 261.793583 128.487921 
L 261.793583 127.689505 
L 262.1512 127.689505 
L 262.1512 126.891089 
L 262.847038 126.891089 
L 262.847038 126.092673 
L 263.009967 126.092673 
L 263.009967 125.294257 
L 263.152368 125.294257 
L 263.182302 123.697426 
L 263.495928 123.697426 
L 263.495928 122.89901 
L 263.652049 122.89901 
L 263.652049 122.100594 
L 264.346965 122.100594 
L 264.346965 121.302178 
L 264.495344 121.302178 
L 264.497514 119.705347 
L 264.610602 119.705347 
L 264.610602 118.906931 
L 265.098483 118.906931 
L 265.098483 118.108515 
L 265.221012 118.108515 
L 265.221012 117.310099 
L 265.619336 117.310099 
L 265.726574 115.713267 
L 265.810676 115.713267 
L 265.898666 114.116436 
L 266.35043 114.116436 
L 266.391851 112.519604 
L 266.577329 112.519604 
L 266.656369 110.922772 
L 266.783562 110.922772 
L 266.783562 110.124356 
L 267.014526 110.124356 
L 267.014526 109.325941 
L 268.013029 109.325941 
L 268.013029 108.527525 
L 269.798609 108.527525 
L 269.798609 107.729109 
L 270.105427 107.729109 
L 270.105427 106.930693 
L 270.641808 106.930693 
L 270.641808 106.132277 
L 271.090304 106.132277 
L 271.090304 105.333861 
L 272.170696 105.333861 
L 272.170696 104.535446 
L 272.582369 104.535446 
L 272.582369 103.73703 
L 273.320814 103.73703 
L 273.320814 102.938614 
L 274.695321 102.938614 
L 274.695321 102.140198 
L 274.878753 102.140198 
L 274.878753 101.341782 
L 276.265376 101.341782 
L 276.265376 100.543366 
L 276.775456 100.543366 
L 276.775456 99.74495 
L 277.929211 99.74495 
L 277.929211 98.946535 
L 278.532971 98.946535 
L 278.532971 98.148119 
L 278.660906 98.148119 
L 278.660906 97.349703 
L 279.918848 97.349703 
L 279.918848 96.551287 
L 280.403095 96.551287 
L 280.466628 94.954455 
L 280.920038 94.954455 
L 280.920038 94.15604 
L 281.530437 94.15604 
L 281.530437 93.357624 
L 282.718938 93.357624 
L 282.718938 92.559208 
L 283.538491 92.559208 
L 283.586087 90.962376 
L 284.558173 90.962376 
L 284.574043 89.365545 
L 284.838941 89.365545 
L 284.838941 88.567129 
L 285.706709 88.567129 
L 285.706709 87.768713 
L 286.324544 87.768713 
L 286.324544 86.970297 
L 289.429462 86.970297 
L 289.429462 86.171881 
L 289.65222 86.171881 
L 289.65222 85.373465 
L 290.76873 85.373465 
L 290.76873 84.57505 
L 292.619818 84.57505 
L 292.619818 83.776634 
L 295.398101 83.776634 
L 295.398101 82.978218 
L 299.321203 82.978218 
L 299.321203 77.389307 
L 302.982205 77.389307 
L 302.982205 74.994059 
L 303.594274 74.994059 
L 303.595759 71.00198 
L 305.403851 71.00198 
L 305.403851 70.203564 
L 309.775615 70.203564 
L 309.775615 69.405149 
L 310.575435 69.405149 
L 310.575435 68.606733 
L 311.17669 68.606733 
L 311.17669 67.808317 
L 312.249316 67.808317 
L 312.249316 67.009901 
L 312.574085 67.009901 
L 312.574085 66.211485 
L 314.237974 66.211485 
L 314.237974 65.413069 
L 315.036845 65.413069 
L 315.036845 64.614653 
L 317.421106 64.614653 
L 317.421106 63.816238 
L 318.43127 63.816238 
L 318.43127 63.017822 
L 318.584694 63.017822 
L 318.584694 62.219406 
L 319.21606 62.219406 
L 319.21606 61.42099 
L 321.850789 61.42099 
L 321.850789 60.622574 
L 322.506723 60.622574 
L 322.506723 59.824158 
L 324.192831 59.824158 
L 324.192831 59.025743 
L 324.75357 59.025743 
L 324.766228 57.428911 
L 325.080143 57.428911 
L 325.080143 56.630495 
L 328.679489 56.630495 
L 328.679489 55.832079 
L 330.997732 55.832079 
L 330.997732 55.033663 
L 333.032204 55.033663 
L 333.032204 54.235248 
L 334.795235 54.235248 
L 334.795235 53.436832 
L 336.200573 53.436832 
L 336.200573 52.638416 
L 336.937679 52.638416 
L 336.937679 51.84 
L 337.657316 51.84 
L 337.657316 51.041584 
L 339.97525 51.041584 
L 339.97525 50.243168 
L 346.804278 50.243168 
L 346.804278 49.444752 
L 348.51656 49.444752 
L 348.51656 48.646337 
L 350.354555 48.646337 
L 350.354555 47.847921 
L 352.897587 47.847921 
L 352.897587 47.049505 
L 353.472077 47.049505 
L 353.479904 45.452673 
L 356.991175 45.452673 
L 356.991175 44.654257 
L 357.528224 44.654257 
L 357.528224 43.855842 
L 361.505364 43.855842 
L 361.505364 43.057426 
L 362.046613 43.057426 
L 362.046613 42.25901 
L 362.816211 42.25901 
L 362.816211 41.460594 
L 365.801094 41.460594 
L 365.801094 40.662178 
L 367.740425 40.662178 
L 367.815755 39.065347 
L 369.580131 39.065347 
L 369.580131 38.266931 
L 373.016576 38.266931 
L 373.016576 37.468515 
L 373.33638 37.468515 
L 373.33638 36.670099 
L 373.493241 36.670099 
L 373.493241 35.871683 
L 373.748842 35.871683 
L 373.748842 35.073267 
L 374.00521 35.073267 
L 374.00521 34.274851 
L 375.824791 34.274851 
L 375.824791 33.476436 
L 376.100512 33.476436 
L 376.141449 31.879604 
L 376.378367 31.879604 
L 376.378367 31.081188 
L 376.732723 31.081188 
L 376.732723 30.282772 
L 376.994758 30.282772 
L 376.994758 29.484356 
L 377.529569 29.484356 
L 377.529569 28.685941 
L 377.644351 28.685941 
L 377.644351 27.887525 
L 378.306348 27.887525 
L 378.306348 27.089109 
L 378.778279 27.089109 
L 378.778279 26.290693 
L 379.104078 26.290693 
L 379.104078 25.492277 
L 379.467583 25.492277 
L 379.467583 24.693861 
L 381.61271 24.693861 
L 381.61271 23.895446 
L 383.938587 23.895446 
L 383.938587 23.09703 
L 384.073303 23.09703 
L 384.073303 22.298614 
L 384.443356 22.298614 
L 384.443356 21.500198 
L 385.08042 21.500198 
L 385.08042 20.701782 
L 385.5825 20.701782 
L 385.5825 19.903366 
L 385.864577 19.903366 
L 385.864577 19.10495 
L 386.857607 19.10495 
L 386.857607 18.306535 
L 387.286653 18.306535 
L 387.286653 17.508119 
L 388.446387 17.508119 
L 388.446387 16.709703 
L 389.183221 16.709703 
L 389.183221 15.911287 
L 390.577301 15.911287 
L 390.577301 15.112871 
L 396.155159 15.112871 
L 396.155159 14.314455 
L 396.901688 14.314455 
L 396.901688 13.51604 
L 397.107814 13.51604 
L 397.107814 12.717624 
L 397.758225 12.717624 
L 397.758225 11.919208 
L 399.620846 11.919208 
L 399.620846 11.120792 
L 400.324007 11.120792 
L 400.324007 10.322376 
L 401.678409 10.322376 
L 401.678409 9.52396 
L 414.03741 9.52396 
L 414.03741 8.725545 
L 414.829665 8.725545 
L 414.829665 7.927129 
L 424.329975 7.927129 
L 424.329975 7.128713 
L 427.178322 7.128713 
L 427.178322 6.330297 
L 427.178322 6.330297 
L 460.8 6.330297 
L 460.8 6.330297 
" clip-path="url(#p55492cfe58)" style="fill: none; stroke: #bf00bf; stroke-width: 1.5; stroke-linecap: square"/>
   </g>
   <g id="line2d_24">
    <path d="M -0.111044 293.76 
L -0.111044 287.372673 
L 190.005741 287.372673 
L 190.005741 275.396436 
L 201.488297 275.396436 
L 201.488297 274.59802 
L 202.709923 274.59802 
L 202.722607 273.001188 
L 204.321741 273.001188 
L 204.321741 272.202772 
L 206.298806 272.202772 
L 206.298806 271.404356 
L 206.687919 271.404356 
L 206.687919 270.605941 
L 213.652657 270.605941 
L 213.652657 269.807525 
L 213.858775 269.807525 
L 213.858775 269.009109 
L 214.210471 269.009109 
L 214.210471 268.210693 
L 214.591459 268.210693 
L 214.591459 267.412277 
L 214.793294 267.412277 
L 214.793294 266.613861 
L 215.384576 266.613861 
L 215.384576 265.815446 
L 215.656762 265.815446 
L 215.656762 265.01703 
L 215.834397 265.01703 
L 215.834397 264.218614 
L 216.648338 264.218614 
L 216.648338 263.420198 
L 218.576377 263.420198 
L 218.576377 262.621782 
L 219.349075 262.621782 
L 219.349075 261.823366 
L 219.716968 261.823366 
L 219.716968 261.02495 
L 219.963093 261.02495 
L 220.050807 259.428119 
L 220.474311 259.428119 
L 220.474311 258.629703 
L 220.730924 258.629703 
L 220.730924 257.831287 
L 221.588845 257.831287 
L 221.619554 256.234455 
L 221.989421 256.234455 
L 221.989421 255.43604 
L 223.277749 255.43604 
L 223.379794 253.040792 
L 224.249646 253.040792 
L 224.249646 252.242376 
L 225.46504 252.242376 
L 225.46504 251.44396 
L 226.586856 251.44396 
L 226.634775 249.847129 
L 226.701793 249.847129 
L 226.717046 248.250297 
L 227.301176 248.250297 
L 227.301176 247.451881 
L 227.527053 247.451881 
L 227.527053 246.653465 
L 228.006021 246.653465 
L 228.093726 243.459802 
L 228.142721 243.459802 
L 228.142721 242.661386 
L 228.395436 242.661386 
L 228.395436 241.86297 
L 228.633563 241.86297 
L 228.705957 240.266139 
L 228.766999 240.266139 
L 228.801146 237.072475 
L 230.234906 237.072475 
L 230.253302 234.677228 
L 231.120722 234.677228 
L 231.194054 233.080396 
L 231.54848 233.080396 
L 231.603539 231.483564 
L 231.675279 231.483564 
L 231.675279 230.685149 
L 232.908744 230.685149 
L 232.908744 229.886733 
L 233.21629 229.886733 
L 233.31345 228.289901 
L 233.331102 228.289901 
L 233.351571 226.693069 
L 233.711851 226.693069 
L 233.711851 225.894653 
L 234.489343 225.894653 
L 234.489343 225.096238 
L 234.862169 225.096238 
L 234.862169 224.297822 
L 234.977287 224.297822 
L 234.977287 223.499406 
L 235.34387 223.499406 
L 235.34387 222.70099 
L 235.719328 222.70099 
L 235.719328 221.902574 
L 235.891909 221.902574 
L 235.891909 221.104158 
L 236.114914 221.104158 
L 236.216564 219.507327 
L 236.372346 219.507327 
L 236.372346 218.708911 
L 238.025578 218.708911 
L 238.025578 217.910495 
L 238.63838 217.910495 
L 238.63838 217.112079 
L 239.173125 217.112079 
L 239.173125 216.313663 
L 239.715979 216.313663 
L 239.75042 214.716832 
L 239.945433 214.716832 
L 239.945433 213.918416 
L 240.288609 213.918416 
L 240.397378 212.321584 
L 240.474397 212.321584 
L 240.474397 211.523168 
L 240.623184 211.523168 
L 240.645279 209.926337 
L 240.757446 209.926337 
L 240.839634 208.329505 
L 240.896411 208.329505 
L 240.896411 207.531089 
L 241.023995 207.531089 
L 241.072334 205.934257 
L 241.174319 205.934257 
L 241.237103 204.337426 
L 241.430536 204.337426 
L 241.521031 202.740594 
L 241.551589 202.740594 
L 241.619508 201.143762 
L 241.81948 201.143762 
L 241.920059 197.950099 
L 242.334648 197.950099 
L 242.334648 197.151683 
L 242.642979 197.151683 
L 242.642979 196.353267 
L 242.860086 196.353267 
L 242.910914 194.756436 
L 243.301945 194.756436 
L 243.301945 193.95802 
L 243.495454 193.95802 
L 243.495454 193.159604 
L 243.763528 193.159604 
L 243.846223 191.562772 
L 244.780462 191.562772 
L 244.780462 190.764356 
L 244.955732 190.764356 
L 244.97115 189.167525 
L 245.334899 189.167525 
L 245.334899 188.369109 
L 245.625806 188.369109 
L 245.625806 187.570693 
L 245.833278 187.570693 
L 245.8918 185.973861 
L 245.978408 185.973861 
L 246.046257 184.37703 
L 246.106331 184.37703 
L 246.106331 183.578614 
L 246.264183 183.578614 
L 246.264183 182.780198 
L 246.500262 182.780198 
L 246.500262 181.981782 
L 246.685111 181.981782 
L 246.687058 180.38495 
L 246.85346 180.38495 
L 246.85346 179.586535 
L 247.061115 179.586535 
L 247.12382 177.989703 
L 247.17626 177.989703 
L 247.193416 176.392871 
L 247.370199 176.392871 
L 247.370199 175.594455 
L 247.519834 175.594455 
L 247.572671 173.997624 
L 247.767215 173.997624 
L 247.849108 172.400792 
L 248.288086 172.400792 
L 248.345365 170.80396 
L 248.438661 170.80396 
L 248.520753 169.207129 
L 248.594608 169.207129 
L 248.623519 167.610297 
L 248.860958 167.610297 
L 248.94522 166.013465 
L 249.00482 166.013465 
L 249.050519 164.416634 
L 249.172729 164.416634 
L 249.172729 163.618218 
L 249.314331 163.618218 
L 249.378978 161.22297 
L 249.431538 161.22297 
L 249.534782 159.626139 
L 249.572705 159.626139 
L 249.642724 157.230891 
L 249.696858 157.230891 
L 249.696858 156.432475 
L 250.003046 156.432475 
L 250.073452 154.835644 
L 250.143133 154.835644 
L 250.188363 153.238812 
L 250.27216 153.238812 
L 250.27216 152.440396 
L 250.513446 152.440396 
L 250.513446 151.64198 
L 250.710841 151.64198 
L 250.755298 150.045149 
L 250.993324 150.045149 
L 250.993324 149.246733 
L 251.262019 149.246733 
L 251.324758 147.649901 
L 251.396735 147.649901 
L 251.398833 146.053069 
L 251.764241 146.053069 
L 251.764241 145.254653 
L 252.129104 145.254653 
L 252.230297 142.859406 
L 252.353159 142.859406 
L 252.42156 141.262574 
L 252.866707 141.262574 
L 252.866707 140.464158 
L 253.170457 140.464158 
L 253.28057 138.867327 
L 253.327767 138.867327 
L 253.348397 137.270495 
L 253.546215 137.270495 
L 253.621083 134.875248 
L 253.867378 134.875248 
L 253.867378 134.076832 
L 254.072309 134.076832 
L 254.108337 132.48 
L 254.204837 132.48 
L 254.263381 130.883168 
L 254.436261 130.883168 
L 254.436261 130.084752 
L 254.576281 130.084752 
L 254.659355 128.487921 
L 254.970093 128.487921 
L 254.970093 127.689505 
L 255.129853 127.689505 
L 255.129853 126.891089 
L 255.497754 126.891089 
L 255.497754 126.092673 
L 256.010595 126.092673 
L 256.010595 125.294257 
L 256.132427 125.294257 
L 256.132427 124.495842 
L 256.841536 124.495842 
L 256.841536 123.697426 
L 257.006254 123.697426 
L 257.006254 122.89901 
L 257.162869 122.89901 
L 257.162869 122.100594 
L 257.412106 122.100594 
L 257.412106 121.302178 
L 257.589003 121.302178 
L 257.589003 120.503762 
L 257.923475 120.503762 
L 257.944839 118.906931 
L 258.105161 118.906931 
L 258.105161 118.108515 
L 258.246174 118.108515 
L 258.246174 117.310099 
L 258.838989 117.310099 
L 258.875598 115.713267 
L 259.777302 115.713267 
L 259.864326 114.116436 
L 260.059367 114.116436 
L 260.169106 112.519604 
L 260.194267 112.519604 
L 260.194267 111.721188 
L 260.403972 111.721188 
L 260.460592 110.124356 
L 260.943085 110.124356 
L 260.943085 109.325941 
L 262.252561 109.325941 
L 262.252561 108.527525 
L 262.395331 108.527525 
L 262.395331 107.729109 
L 263.005365 107.729109 
L 263.068912 106.132277 
L 263.419312 106.132277 
L 263.495928 104.535446 
L 263.677274 104.535446 
L 263.677274 103.73703 
L 264.346965 103.73703 
L 264.346965 102.938614 
L 264.495344 102.938614 
L 264.530584 100.543366 
L 264.772719 100.543366 
L 264.772719 99.74495 
L 265.148796 99.74495 
L 265.148796 98.946535 
L 265.454424 98.946535 
L 265.454424 98.148119 
L 266.512769 98.148119 
L 266.512769 97.349703 
L 266.656369 97.349703 
L 266.656369 96.551287 
L 266.783562 96.551287 
L 266.783562 95.752871 
L 267.249718 95.752871 
L 267.32337 94.15604 
L 267.451679 94.15604 
L 267.509468 91.760792 
L 267.604462 91.760792 
L 267.68245 90.16396 
L 268.055624 90.16396 
L 268.056538 88.567129 
L 268.171839 88.567129 
L 268.184069 86.970297 
L 268.409849 86.970297 
L 268.409849 86.171881 
L 268.607927 86.171881 
L 268.607927 85.373465 
L 268.782678 85.373465 
L 268.782678 84.57505 
L 269.179818 84.57505 
L 269.210559 82.978218 
L 269.990171 82.978218 
L 269.990171 82.179802 
L 270.122382 82.179802 
L 270.122382 81.381386 
L 270.641808 81.381386 
L 270.641808 80.58297 
L 270.998849 80.58297 
L 271.104647 78.986139 
L 271.97227 78.986139 
L 271.97227 78.187723 
L 272.170696 78.187723 
L 272.267984 75.792475 
L 274.878753 75.792475 
L 274.905539 74.195644 
L 277.493867 74.195644 
L 277.493867 73.397228 
L 280.392377 73.397228 
L 280.392377 72.598812 
L 282.121593 72.598812 
L 282.121593 71.800396 
L 282.480317 71.800396 
L 282.480317 71.00198 
L 284.255442 71.00198 
L 284.255442 70.203564 
L 288.833327 70.203564 
L 288.833327 69.405149 
L 289.851367 69.405149 
L 289.851367 68.606733 
L 290.054031 68.606733 
L 290.054031 67.808317 
L 290.173162 67.808317 
L 290.173162 67.009901 
L 291.596359 67.009901 
L 291.596359 66.211485 
L 291.799607 66.211485 
L 291.799607 65.413069 
L 292.243244 65.413069 
L 292.243244 64.614653 
L 292.448368 64.614653 
L 292.448368 63.816238 
L 294.65297 63.816238 
L 294.65297 63.017822 
L 294.960378 63.017822 
L 294.960378 62.219406 
L 295.133975 62.219406 
L 295.133975 61.42099 
L 297.066473 61.42099 
L 297.08114 59.824158 
L 298.81018 59.824158 
L 298.81018 59.025743 
L 299.787292 59.025743 
L 299.787292 58.227327 
L 302.283535 58.227327 
L 302.283535 57.428911 
L 309.635153 57.428911 
L 309.635153 56.630495 
L 313.675611 56.630495 
L 313.675611 55.832079 
L 315.569283 55.832079 
L 315.569283 55.033663 
L 317.004197 55.033663 
L 317.004197 54.235248 
L 317.605061 54.235248 
L 317.605061 53.436832 
L 318.265017 53.436832 
L 318.265017 52.638416 
L 320.202894 52.638416 
L 320.202894 51.84 
L 321.78983 51.84 
L 321.78983 51.041584 
L 322.180967 51.041584 
L 322.180967 50.243168 
L 323.92765 50.243168 
L 323.92765 49.444752 
L 324.30254 49.444752 
L 324.30254 48.646337 
L 329.391265 48.646337 
L 329.391265 47.847921 
L 329.918327 47.847921 
L 329.918327 47.049505 
L 330.19801 47.049505 
L 330.26652 45.452673 
L 330.35785 45.452673 
L 330.35785 44.654257 
L 330.480212 44.654257 
L 330.480212 43.855842 
L 331.615713 43.855842 
L 331.615713 43.057426 
L 334.805518 43.057426 
L 334.805518 42.25901 
L 335.395239 42.25901 
L 335.395239 41.460594 
L 341.308134 41.460594 
L 341.308134 40.662178 
L 341.624231 40.662178 
L 341.624231 39.863762 
L 342.424337 39.863762 
L 342.424337 39.065347 
L 343.245188 39.065347 
L 343.312951 37.468515 
L 343.969863 37.468515 
L 343.969863 36.670099 
L 345.094132 36.670099 
L 345.094132 35.871683 
L 345.295978 35.871683 
L 345.295978 35.073267 
L 346.72614 35.073267 
L 346.72614 34.274851 
L 348.296908 34.274851 
L 348.381352 32.67802 
L 348.767476 32.67802 
L 348.858045 31.081188 
L 349.691771 31.081188 
L 349.691771 30.282772 
L 350.059585 30.282772 
L 350.155221 28.685941 
L 350.207036 28.685941 
L 350.207036 27.887525 
L 350.53473 27.887525 
L 350.53473 27.089109 
L 350.734588 27.089109 
L 350.734588 26.290693 
L 351.092389 26.290693 
L 351.092389 25.492277 
L 351.225939 25.492277 
L 351.331709 23.895446 
L 351.641854 23.895446 
L 351.641854 23.09703 
L 352.640543 23.09703 
L 352.640543 22.298614 
L 352.981721 22.298614 
L 353.092108 19.903366 
L 353.152864 19.903366 
L 353.152864 19.10495 
L 354.195893 19.10495 
L 354.195893 18.306535 
L 356.062225 18.306535 
L 356.062225 17.508119 
L 357.230929 17.508119 
L 357.230929 16.709703 
L 358.735187 16.709703 
L 358.735187 15.911287 
L 358.852373 15.911287 
L 358.852373 15.112871 
L 364.007489 15.112871 
L 364.007489 14.314455 
L 373.099864 14.314455 
L 373.099864 13.51604 
L 376.083629 13.51604 
L 376.083629 12.717624 
L 377.448772 12.717624 
L 377.448772 11.919208 
L 379.854197 11.919208 
L 379.854197 11.120792 
L 381.905238 11.120792 
L 381.905238 10.322376 
L 388.238786 10.322376 
L 388.238786 9.52396 
L 395.997035 9.52396 
L 395.997035 8.725545 
L 397.712869 8.725545 
L 397.712869 7.927129 
L 402.25589 7.927129 
L 402.25589 7.128713 
L 405.996014 7.128713 
L 405.996014 6.330297 
L 405.996014 6.330297 
L 460.8 6.330297 
L 460.8 6.330297 
" clip-path="url(#p55492cfe58)" style="fill: none; stroke: #000000; stroke-width: 1.5; stroke-linecap: square"/>
   </g>
   <g id="line2d_25">
    <path d="M -0.111044 293.76 
L -0.111044 287.372673 
L 45.659413 287.372673 
L 45.659413 286.574257 
L 59.288998 286.574257 
L 59.288998 285.775842 
L 75.530697 285.775842 
L 75.530697 284.977426 
L 76.215497 284.977426 
L 76.215497 284.17901 
L 79.452357 284.17901 
L 79.452357 283.380594 
L 82.164192 283.380594 
L 82.164192 282.582178 
L 87.687101 282.582178 
L 87.687101 281.783762 
L 105.758538 281.783762 
L 105.758538 280.985347 
L 160.777682 280.985347 
L 160.777682 280.186931 
L 160.942611 280.186931 
L 160.942611 279.388515 
L 161.998969 279.388515 
L 162.034586 277.791683 
L 162.678626 277.791683 
L 162.678626 276.993267 
L 163.873948 276.993267 
L 163.888826 274.59802 
L 164.845543 274.59802 
L 164.845543 273.799604 
L 166.61584 273.799604 
L 166.61584 273.001188 
L 167.986396 273.001188 
L 167.986396 272.202772 
L 169.017429 272.202772 
L 169.017429 271.404356 
L 172.943436 271.404356 
L 172.943436 270.605941 
L 190.005741 270.605941 
L 190.005741 264.218614 
L 190.139278 264.218614 
L 190.139278 263.420198 
L 196.446695 263.420198 
L 196.446695 262.621782 
L 197.364694 262.621782 
L 197.364694 261.823366 
L 202.628647 261.823366 
L 202.628647 261.02495 
L 203.678499 261.02495 
L 203.678499 260.226535 
L 205.435163 260.226535 
L 205.435163 259.428119 
L 205.800116 259.428119 
L 205.800116 258.629703 
L 207.907964 258.629703 
L 207.907964 257.831287 
L 209.434038 257.831287 
L 209.434038 257.032871 
L 209.958594 257.032871 
L 209.958594 256.234455 
L 210.573105 256.234455 
L 210.573105 255.43604 
L 210.984531 255.43604 
L 210.984531 254.637624 
L 211.645116 254.637624 
L 211.645116 253.839208 
L 211.88327 253.839208 
L 211.964687 252.242376 
L 212.514527 252.242376 
L 212.514527 251.44396 
L 214.476011 251.44396 
L 214.476011 250.645545 
L 214.591459 250.645545 
L 214.591459 249.847129 
L 214.955093 249.847129 
L 214.955093 249.048713 
L 215.455827 249.048713 
L 215.455827 248.250297 
L 215.747756 248.250297 
L 215.747756 247.451881 
L 215.888987 247.451881 
L 215.888987 246.653465 
L 216.427657 246.653465 
L 216.501949 245.056634 
L 216.648338 245.056634 
L 216.648338 244.258218 
L 216.844238 244.258218 
L 216.844238 243.459802 
L 217.678905 243.459802 
L 217.685287 241.86297 
L 217.869655 241.86297 
L 217.869655 241.064554 
L 218.78873 241.064554 
L 218.893127 239.467723 
L 218.951738 239.467723 
L 219.021392 237.870891 
L 219.135778 237.870891 
L 219.135778 237.072475 
L 219.366693 237.072475 
L 219.366693 236.274059 
L 219.661644 236.274059 
L 219.708844 234.677228 
L 220.050807 234.677228 
L 220.050807 233.878812 
L 220.258409 233.878812 
L 220.258409 233.080396 
L 221.149885 233.080396 
L 221.149885 232.28198 
L 221.287085 232.28198 
L 221.306554 230.685149 
L 221.699232 230.685149 
L 221.752532 228.289901 
L 222.626931 228.289901 
L 222.626931 227.491485 
L 224.249646 227.491485 
L 224.249646 226.693069 
L 224.850904 226.693069 
L 224.850904 225.894653 
L 225.002023 225.894653 
L 225.036264 224.297822 
L 225.162056 224.297822 
L 225.162056 223.499406 
L 225.999691 223.499406 
L 225.999691 222.70099 
L 226.209425 222.70099 
L 226.296702 221.104158 
L 226.701793 221.104158 
L 226.719975 218.708911 
L 227.193647 218.708911 
L 227.301176 217.112079 
L 227.527053 217.112079 
L 227.604779 214.716832 
L 228.056014 214.716832 
L 228.093726 213.12 
L 228.766999 213.12 
L 228.801146 211.523168 
L 229.282174 211.523168 
L 229.391206 209.127921 
L 230.237779 209.127921 
L 230.237779 208.329505 
L 230.9965 208.329505 
L 230.9965 207.531089 
L 231.120722 207.531089 
L 231.194054 205.934257 
L 232.207113 205.934257 
L 232.207113 205.135842 
L 232.346589 205.135842 
L 232.346589 204.337426 
L 232.5399 204.337426 
L 232.64999 202.740594 
L 232.715762 202.740594 
L 232.766101 201.143762 
L 233.21629 201.143762 
L 233.21629 200.345347 
L 233.351571 200.345347 
L 233.351571 199.546931 
L 233.474034 199.546931 
L 233.474034 198.748515 
L 233.698974 198.748515 
L 233.711851 197.151683 
L 234.003047 197.151683 
L 234.005872 195.554851 
L 234.295587 195.554851 
L 234.295587 194.756436 
L 234.427681 194.756436 
L 234.447246 193.159604 
L 234.810213 193.159604 
L 234.914738 191.562772 
L 235.736035 191.562772 
L 235.822813 189.965941 
L 235.854198 189.965941 
L 235.902163 187.570693 
L 236.114914 187.570693 
L 236.216564 185.175446 
L 237.196563 185.175446 
L 237.196563 184.37703 
L 237.326769 184.37703 
L 237.326769 183.578614 
L 237.894745 183.578614 
L 238.001203 181.981782 
L 238.183105 181.981782 
L 238.183105 181.183366 
L 238.349602 181.183366 
L 238.349602 180.38495 
L 238.703665 180.38495 
L 238.703665 179.586535 
L 239.024181 179.586535 
L 239.024181 178.788119 
L 239.173125 178.788119 
L 239.173125 177.989703 
L 239.715979 177.989703 
L 239.75042 176.392871 
L 239.9053 176.392871 
L 239.945433 174.79604 
L 240.299323 174.79604 
L 240.299323 173.997624 
L 240.467552 173.997624 
L 240.471478 172.400792 
L 240.623184 172.400792 
L 240.699915 170.80396 
L 240.757446 170.80396 
L 240.757446 170.005545 
L 241.023995 170.005545 
L 241.072334 168.408713 
L 241.237103 168.408713 
L 241.237103 167.610297 
L 241.551589 167.610297 
L 241.551589 166.811881 
L 241.81948 166.811881 
L 241.81948 164.416634 
L 241.978969 164.416634 
L 241.978969 163.618218 
L 242.239286 163.618218 
L 242.332342 161.22297 
L 242.38088 161.22297 
L 242.466689 159.626139 
L 242.493224 159.626139 
L 242.578675 156.432475 
L 242.620155 156.432475 
L 242.620155 155.634059 
L 242.752263 155.634059 
L 242.860086 153.238812 
L 243.00879 153.238812 
L 243.00879 152.440396 
L 243.301945 152.440396 
L 243.301945 151.64198 
L 243.491063 151.64198 
L 243.598151 149.246733 
L 243.751502 149.246733 
L 243.846223 146.053069 
L 244.330292 146.053069 
L 244.332078 144.456238 
L 244.546706 144.456238 
L 244.612186 142.06099 
L 244.724833 142.06099 
L 244.803269 138.867327 
L 244.853548 138.867327 
L 244.955732 137.270495 
L 245.314133 137.270495 
L 245.347413 134.875248 
L 245.71163 134.875248 
L 245.71163 134.076832 
L 245.8918 134.076832 
L 245.893002 132.48 
L 246.106331 132.48 
L 246.106331 131.681584 
L 246.28872 131.681584 
L 246.295434 130.084752 
L 246.415887 130.084752 
L 246.500262 128.487921 
L 246.851116 128.487921 
L 246.851116 127.689505 
L 247.023128 127.689505 
L 247.023128 126.891089 
L 247.184168 126.891089 
L 247.184168 126.092673 
L 247.370199 126.092673 
L 247.370199 125.294257 
L 247.490298 125.294257 
L 247.490298 124.495842 
L 247.767215 124.495842 
L 247.767215 123.697426 
L 248.058906 123.697426 
L 248.058906 122.89901 
L 248.345365 122.89901 
L 248.455301 118.906931 
L 248.594608 118.906931 
L 248.662315 115.713267 
L 248.94522 115.713267 
L 249.00482 114.116436 
L 249.153701 114.116436 
L 249.258087 112.519604 
L 249.314331 112.519604 
L 249.345365 110.922772 
L 249.434816 110.922772 
L 249.434816 110.124356 
L 249.633089 110.124356 
L 249.633089 109.325941 
L 249.845516 109.325941 
L 249.952114 107.729109 
L 250.067338 107.729109 
L 250.067338 106.930693 
L 250.543082 106.930693 
L 250.543082 106.132277 
L 250.755298 106.132277 
L 250.755298 105.333861 
L 251.262019 105.333861 
L 251.324758 103.73703 
L 251.381537 103.73703 
L 251.396735 102.140198 
L 251.69025 102.140198 
L 251.745885 100.543366 
L 251.913752 100.543366 
L 251.913752 99.74495 
L 252.123105 99.74495 
L 252.230297 97.349703 
L 252.282615 97.349703 
L 252.302009 95.752871 
L 252.395164 95.752871 
L 252.395164 94.954455 
L 252.585541 94.954455 
L 252.585541 94.15604 
L 252.926488 94.15604 
L 252.926488 93.357624 
L 253.234417 93.357624 
L 253.28057 91.760792 
L 253.348397 91.760792 
L 253.348397 90.962376 
L 253.565931 90.962376 
L 253.565931 90.16396 
L 254.180752 90.16396 
L 254.263381 87.768713 
L 254.436261 87.768713 
L 254.436261 86.970297 
L 254.970093 86.970297 
L 255.023935 85.373465 
L 255.234149 85.373465 
L 255.234149 84.57505 
L 255.379285 84.57505 
L 255.477335 82.978218 
L 255.628916 82.978218 
L 255.628916 82.179802 
L 256.152597 82.179802 
L 256.218057 80.58297 
L 256.270733 80.58297 
L 256.270733 79.784554 
L 256.400881 79.784554 
L 256.400881 78.986139 
L 256.841536 78.986139 
L 256.841536 78.187723 
L 257.006254 78.187723 
L 257.04172 76.590891 
L 257.162869 76.590891 
L 257.202707 74.994059 
L 257.589003 74.994059 
L 257.589003 74.195644 
L 257.944839 74.195644 
L 257.944839 73.397228 
L 258.375249 73.397228 
L 258.375249 72.598812 
L 258.495126 72.598812 
L 258.549887 70.203564 
L 258.875598 70.203564 
L 258.875598 69.405149 
L 259.611087 69.405149 
L 259.611087 68.606733 
L 259.777302 68.606733 
L 259.864326 67.009901 
L 260.148355 67.009901 
L 260.194267 65.413069 
L 260.596401 65.413069 
L 260.703414 63.816238 
L 260.865341 63.816238 
L 260.914607 62.219406 
L 261.419982 62.219406 
L 261.419982 61.42099 
L 261.53773 61.42099 
L 261.546025 59.824158 
L 262.385258 59.824158 
L 262.471995 58.227327 
L 263.068912 58.227327 
L 263.068912 57.428911 
L 263.495928 57.428911 
L 263.495928 56.630495 
L 263.97901 56.630495 
L 263.97901 55.832079 
L 264.247559 55.832079 
L 264.346965 54.235248 
L 264.495344 54.235248 
L 264.497514 52.638416 
L 264.987934 52.638416 
L 264.987934 51.84 
L 265.381735 51.84 
L 265.381735 51.041584 
L 265.794919 51.041584 
L 265.794919 50.243168 
L 266.666493 50.243168 
L 266.666493 49.444752 
L 266.783562 49.444752 
L 266.783562 48.646337 
L 268.249765 48.646337 
L 268.335505 47.049505 
L 268.89031 47.049505 
L 268.89031 46.251089 
L 271.810838 46.251089 
L 271.810838 45.452673 
L 271.97227 45.452673 
L 271.97227 44.654257 
L 273.334393 44.654257 
L 273.334393 43.855842 
L 273.485838 43.855842 
L 273.485838 43.057426 
L 274.209607 43.057426 
L 274.209607 42.25901 
L 274.636785 42.25901 
L 274.636785 41.460594 
L 275.739203 41.460594 
L 275.739203 40.662178 
L 276.547664 40.662178 
L 276.595729 38.266931 
L 277.578081 38.266931 
L 277.578081 37.468515 
L 280.119585 37.468515 
L 280.119585 36.670099 
L 282.172419 36.670099 
L 282.172419 35.871683 
L 282.533135 35.871683 
L 282.548981 33.476436 
L 286.798813 33.476436 
L 286.798813 32.67802 
L 293.495082 32.67802 
L 293.495082 31.879604 
L 296.512584 31.879604 
L 296.512584 31.081188 
L 302.119156 31.081188 
L 302.119156 30.282772 
L 302.992414 30.282772 
L 302.992414 29.484356 
L 305.674715 29.484356 
L 305.674715 28.685941 
L 306.215831 28.685941 
L 306.215831 27.887525 
L 307.102055 27.887525 
L 307.102055 27.089109 
L 307.98532 27.089109 
L 307.98532 26.290693 
L 308.892875 26.290693 
L 308.892875 25.492277 
L 309.153673 25.492277 
L 309.153673 24.693861 
L 309.736734 24.693861 
L 309.736734 23.895446 
L 313.82408 23.895446 
L 313.86097 22.298614 
L 314.852894 22.298614 
L 314.852894 21.500198 
L 316.533234 21.500198 
L 316.533234 20.701782 
L 317.293722 20.701782 
L 317.336446 19.10495 
L 317.905839 19.10495 
L 317.905839 18.306535 
L 321.821294 18.306535 
L 321.821294 17.508119 
L 323.101521 17.508119 
L 323.101521 16.709703 
L 323.25634 16.709703 
L 323.25634 15.911287 
L 328.744688 15.911287 
L 328.744688 15.112871 
L 328.905791 15.112871 
L 328.905791 14.314455 
L 329.018086 14.314455 
L 329.09895 12.717624 
L 329.832879 12.717624 
L 329.832879 11.919208 
L 330.35683 11.919208 
L 330.35683 11.120792 
L 330.760056 11.120792 
L 330.857402 8.725545 
L 333.295699 8.725545 
L 333.295699 7.927129 
L 335.881816 7.927129 
L 335.881816 7.128713 
L 336.634257 7.128713 
L 336.634257 6.330297 
L 336.634257 6.330297 
L 460.8 6.330297 
L 460.8 6.330297 
" clip-path="url(#p55492cfe58)" style="fill: none; stroke: #00bfbf; stroke-width: 1.5; stroke-linecap: square"/>
   </g>
   <g id="patch_3">
    <path d="M 0 293.76 
L 0 3.456 
" style="fill: none; stroke: #000000; stroke-width: 0.8; stroke-linejoin: miter; stroke-linecap: square"/>
   </g>
   <g id="patch_4">
    <path d="M 460.8 293.76 
L 460.8 3.456 
" style="fill: none; stroke: #000000; stroke-width: 0.8; stroke-linejoin: miter; stroke-linecap: square"/>
   </g>
   <g id="patch_5">
    <path d="M 0 293.76 
L 460.8 293.76 
" style="fill: none; stroke: #000000; stroke-width: 0.8; stroke-linejoin: miter; stroke-linecap: square"/>
   </g>
   <g id="patch_6">
    <path d="M 0 3.456 
L 460.8 3.456 
" style="fill: none; stroke: #000000; stroke-width: 0.8; stroke-linejoin: miter; stroke-linecap: square"/>
   </g>
   <g id="text_6">
    <!-- {f1-f24}, 5-D -->
    <g transform="translate(318.609 287.95392) scale(0.2 -0.2)">
     <defs>
      <path id="DejaVuSans-7b" d="M 3272 -594 
L 3272 -1044 
L 3078 -1044 
Q 2300 -1044 2036 -812 
Q 1772 -581 1772 109 
L 1772 856 
Q 1772 1328 1603 1509 
Q 1434 1691 991 1691 
L 800 1691 
L 800 2138 
L 991 2138 
Q 1438 2138 1605 2317 
Q 1772 2497 1772 2963 
L 1772 3713 
Q 1772 4403 2036 4633 
Q 2300 4863 3078 4863 
L 3272 4863 
L 3272 4416 
L 3059 4416 
Q 2619 4416 2484 4278 
Q 2350 4141 2350 3700 
L 2350 2925 
Q 2350 2434 2208 2212 
Q 2066 1991 1722 1913 
Q 2069 1828 2209 1606 
Q 2350 1384 2350 897 
L 2350 122 
Q 2350 -319 2484 -456 
Q 2619 -594 3059 -594 
L 3272 -594 
z
" transform="scale(0.015625)"/>
      <path id="DejaVuSans-32" d="M 1228 531 
L 3431 531 
L 3431 0 
L 469 0 
L 469 531 
Q 828 903 1448 1529 
Q 2069 2156 2228 2338 
Q 2531 2678 2651 2914 
Q 2772 3150 2772 3378 
Q 2772 3750 2511 3984 
Q 2250 4219 1831 4219 
Q 1534 4219 1204 4116 
Q 875 4013 500 3803 
L 500 4441 
Q 881 4594 1212 4672 
Q 1544 4750 1819 4750 
Q 2544 4750 2975 4387 
Q 3406 4025 3406 3419 
Q 3406 3131 3298 2873 
Q 3191 2616 2906 2266 
Q 2828 2175 2409 1742 
Q 1991 1309 1228 531 
z
" transform="scale(0.015625)"/>
      <path id="DejaVuSans-7d" d="M 800 -594 
L 1019 -594 
Q 1456 -594 1589 -459 
Q 1722 -325 1722 122 
L 1722 897 
Q 1722 1384 1862 1606 
Q 2003 1828 2350 1913 
Q 2003 1991 1862 2212 
Q 1722 2434 1722 2925 
L 1722 3700 
Q 1722 4144 1589 4280 
Q 1456 4416 1019 4416 
L 800 4416 
L 800 4863 
L 997 4863 
Q 1775 4863 2036 4633 
Q 2297 4403 2297 3713 
L 2297 2963 
Q 2297 2497 2465 2317 
Q 2634 2138 3078 2138 
L 3272 2138 
L 3272 1691 
L 3078 1691 
Q 2634 1691 2465 1509 
Q 2297 1328 2297 856 
L 2297 109 
Q 2297 -581 2036 -812 
Q 1775 -1044 997 -1044 
L 800 -1044 
L 800 -594 
z
" transform="scale(0.015625)"/>
      <path id="DejaVuSans-2c" d="M 750 794 
L 1409 794 
L 1409 256 
L 897 -744 
L 494 -744 
L 750 256 
L 750 794 
z
" transform="scale(0.015625)"/>
      <path id="DejaVuSans-35" d="M 691 4666 
L 3169 4666 
L 3169 4134 
L 1269 4134 
L 1269 2991 
Q 1406 3038 1543 3061 
Q 1681 3084 1819 3084 
Q 2600 3084 3056 2656 
Q 3513 2228 3513 1497 
Q 3513 744 3044 326 
Q 2575 -91 1722 -91 
Q 1428 -91 1123 -41 
Q 819 9 494 109 
L 494 744 
Q 775 591 1075 516 
Q 1375 441 1709 441 
Q 2250 441 2565 725 
Q 2881 1009 2881 1497 
Q 2881 1984 2565 2268 
Q 2250 2553 1709 2553 
Q 1456 2553 1204 2497 
Q 953 2441 691 2322 
L 691 4666 
z
" transform="scale(0.015625)"/>
     </defs>
     <use xlink:href="#DejaVuSans-7b"/>
     <use xlink:href="#DejaVuSans-66" x="63.623047"/>
     <use xlink:href="#DejaVuSans-31" x="98.828125"/>
     <use xlink:href="#DejaVuSans-2d" x="162.451172"/>
     <use xlink:href="#DejaVuSans-66" x="198.535156"/>
     <use xlink:href="#DejaVuSans-32" x="233.740234"/>
     <use xlink:href="#DejaVuSans-34" x="297.363281"/>
     <use xlink:href="#DejaVuSans-7d" x="360.986328"/>
     <use xlink:href="#DejaVuSans-2c" x="424.609375"/>
     <use xlink:href="#DejaVuSans-20" x="456.396484"/>
     <use xlink:href="#DejaVuSans-35" x="488.183594"/>
     <use xlink:href="#DejaVuSans-2d" x="551.806641"/>
     <use xlink:href="#DejaVuSans-44" x="587.890625"/>
    </g>
   </g>
   <g id="text_7">
    <!-- v2.6.3 -->
    <g style="fill: #808080" transform="translate(214.71875 288.777272) scale(0.1 -0.1)">
     <defs>
      <path id="DejaVuSans-76" d="M 191 3500 
L 800 3500 
L 1894 563 
L 2988 3500 
L 3597 3500 
L 2284 0 
L 1503 0 
L 191 3500 
z
" transform="scale(0.015625)"/>
      <path id="DejaVuSans-2e" d="M 684 794 
L 1344 794 
L 1344 0 
L 684 0 
L 684 794 
z
" transform="scale(0.015625)"/>
      <path id="DejaVuSans-36" d="M 2113 2584 
Q 1688 2584 1439 2293 
Q 1191 2003 1191 1497 
Q 1191 994 1439 701 
Q 1688 409 2113 409 
Q 2538 409 2786 701 
Q 3034 994 3034 1497 
Q 3034 2003 2786 2293 
Q 2538 2584 2113 2584 
z
M 3366 4563 
L 3366 3988 
Q 3128 4100 2886 4159 
Q 2644 4219 2406 4219 
Q 1781 4219 1451 3797 
Q 1122 3375 1075 2522 
Q 1259 2794 1537 2939 
Q 1816 3084 2150 3084 
Q 2853 3084 3261 2657 
Q 3669 2231 3669 1497 
Q 3669 778 3244 343 
Q 2819 -91 2113 -91 
Q 1303 -91 875 529 
Q 447 1150 447 2328 
Q 447 3434 972 4092 
Q 1497 4750 2381 4750 
Q 2619 4750 2861 4703 
Q 3103 4656 3366 4563 
z
" transform="scale(0.015625)"/>
      <path id="DejaVuSans-33" d="M 2597 2516 
Q 3050 2419 3304 2112 
Q 3559 1806 3559 1356 
Q 3559 666 3084 287 
Q 2609 -91 1734 -91 
Q 1441 -91 1130 -33 
Q 819 25 488 141 
L 488 750 
Q 750 597 1062 519 
Q 1375 441 1716 441 
Q 2309 441 2620 675 
Q 2931 909 2931 1356 
Q 2931 1769 2642 2001 
Q 2353 2234 1838 2234 
L 1294 2234 
L 1294 2753 
L 1863 2753 
Q 2328 2753 2575 2939 
Q 2822 3125 2822 3475 
Q 2822 3834 2567 4026 
Q 2313 4219 1838 4219 
Q 1578 4219 1281 4162 
Q 984 4106 628 3988 
L 628 4550 
Q 988 4650 1302 4700 
Q 1616 4750 1894 4750 
Q 2613 4750 3031 4423 
Q 3450 4097 3450 3541 
Q 3450 3153 3228 2886 
Q 3006 2619 2597 2516 
z
" transform="scale(0.015625)"/>
     </defs>
     <use xlink:href="#DejaVuSans-76"/>
     <use xlink:href="#DejaVuSans-32" x="59.179688"/>
     <use xlink:href="#DejaVuSans-2e" x="122.802734"/>
     <use xlink:href="#DejaVuSans-36" x="154.589844"/>
     <use xlink:href="#DejaVuSans-2e" x="218.212891"/>
     <use xlink:href="#DejaVuSans-33" x="250"/>
    </g>
   </g>
  </g>
 </g>
 <defs>
  <clipPath id="p55492cfe58">
   <rect x="0" y="3.456" width="460.8" height="290.304"/>
  </clipPath>
 </defs>
</svg>
