<?xml version="1.0" encoding="utf-8" standalone="no"?>
<!DOCTYPE svg PUBLIC "-//W3C//DTD SVG 1.1//EN"
  "http://www.w3.org/Graphics/SVG/1.1/DTD/svg11.dtd">
<svg xmlns:xlink="http://www.w3.org/1999/xlink" width="460.8pt" height="345.6pt" viewBox="0 0 460.8 345.6" xmlns="http://www.w3.org/2000/svg" version="1.1">
 <metadata>
  <rdf:RDF xmlns:dc="http://purl.org/dc/elements/1.1/" xmlns:cc="http://creativecommons.org/ns#" xmlns:rdf="http://www.w3.org/1999/02/22-rdf-syntax-ns#">
   <cc:Work>
    <dc:type rdf:resource="http://purl.org/dc/dcmitype/StillImage"/>
    <dc:date>2024-01-25T18:16:43.269456</dc:date>
    <dc:format>image/svg+xml</dc:format>
    <dc:creator>
     <cc:Agent>
      <dc:title>Matplotlib v3.8.2, https://matplotlib.org/</dc:title>
     </cc:Agent>
    </dc:creator>
   </cc:Work>
  </rdf:RDF>
 </metadata>
 <defs>
  <style type="text/css">*{stroke-linejoin: round; stroke-linecap: butt}</style>
 </defs>
 <g id="figure_1">
  <g id="patch_1">
   <path d="M 0 345.6 
L 460.8 345.6 
L 460.8 0 
L 0 0 
z
" style="fill: #ffffff"/>
  </g>
  <g id="axes_1">
   <g id="patch_2">
    <path d="M 0 293.76 
L 460.8 293.76 
L 460.8 3.456 
L 0 3.456 
z
" style="fill: #ffffff"/>
   </g>
   <g id="matplotlib.axis_1">
    <g id="xtick_1">
     <g id="line2d_1">
      <path d="M 102.674388 293.76 
L 102.674388 3.456 
" clip-path="url(#pb75771cd1a)" style="fill: none; stroke: #b0b0b0; stroke-width: 0.8; stroke-linecap: square"/>
     </g>
     <g id="line2d_2">
      <defs>
       <path id="mb413540253" d="M 0 0 
L 0 3.5 
" style="stroke: #000000; stroke-width: 0.8"/>
      </defs>
      <g>
       <use xlink:href="#mb413540253" x="102.674388" y="293.76" style="stroke: #000000; stroke-width: 0.8"/>
      </g>
     </g>
     <g id="text_1">
      <!-- -4 -->
      <g transform="translate(92.704075 315.956875) scale(0.2 -0.2)">
       <defs>
        <path id="DejaVuSans-2d" d="M 313 2009 
L 1997 2009 
L 1997 1497 
L 313 1497 
L 313 2009 
z
" transform="scale(0.015625)"/>
        <path id="DejaVuSans-34" d="M 2419 4116 
L 825 1625 
L 2419 1625 
L 2419 4116 
z
M 2253 4666 
L 3047 4666 
L 3047 1625 
L 3713 1625 
L 3713 1100 
L 3047 1100 
L 3047 0 
L 2419 0 
L 2419 1100 
L 313 1100 
L 313 1709 
L 2253 4666 
z
" transform="scale(0.015625)"/>
       </defs>
       <use xlink:href="#DejaVuSans-2d"/>
       <use xlink:href="#DejaVuSans-34" x="36.083984"/>
      </g>
     </g>
    </g>
    <g id="xtick_2">
     <g id="line2d_3">
      <path d="M 205.459819 293.76 
L 205.459819 3.456 
" clip-path="url(#pb75771cd1a)" style="fill: none; stroke: #b0b0b0; stroke-width: 0.8; stroke-linecap: square"/>
     </g>
     <g id="line2d_4">
      <g>
       <use xlink:href="#mb413540253" x="205.459819" y="293.76" style="stroke: #000000; stroke-width: 0.8"/>
      </g>
     </g>
     <g id="text_2">
      <!-- 0 -->
      <g transform="translate(199.097319 315.956875) scale(0.2 -0.2)">
       <defs>
        <path id="DejaVuSans-30" d="M 2034 4250 
Q 1547 4250 1301 3770 
Q 1056 3291 1056 2328 
Q 1056 1369 1301 889 
Q 1547 409 2034 409 
Q 2525 409 2770 889 
Q 3016 1369 3016 2328 
Q 3016 3291 2770 3770 
Q 2525 4250 2034 4250 
z
M 2034 4750 
Q 2819 4750 3233 4129 
Q 3647 3509 3647 2328 
Q 3647 1150 3233 529 
Q 2819 -91 2034 -91 
Q 1250 -91 836 529 
Q 422 1150 422 2328 
Q 422 3509 836 4129 
Q 1250 4750 2034 4750 
z
" transform="scale(0.015625)"/>
       </defs>
       <use xlink:href="#DejaVuSans-30"/>
      </g>
     </g>
    </g>
    <g id="xtick_3">
     <g id="line2d_5">
      <path d="M 308.24525 293.76 
L 308.24525 3.456 
" clip-path="url(#pb75771cd1a)" style="fill: none; stroke: #b0b0b0; stroke-width: 0.8; stroke-linecap: square"/>
     </g>
     <g id="line2d_6">
      <g>
       <use xlink:href="#mb413540253" x="308.24525" y="293.76" style="stroke: #000000; stroke-width: 0.8"/>
      </g>
     </g>
     <g id="text_3">
      <!-- 4 -->
      <g transform="translate(301.88275 315.956875) scale(0.2 -0.2)">
       <use xlink:href="#DejaVuSans-34"/>
      </g>
     </g>
    </g>
    <g id="xtick_4">
     <g id="line2d_7">
      <path d="M 411.030681 293.76 
L 411.030681 3.456 
" clip-path="url(#pb75771cd1a)" style="fill: none; stroke: #b0b0b0; stroke-width: 0.8; stroke-linecap: square"/>
     </g>
     <g id="line2d_8">
      <g>
       <use xlink:href="#mb413540253" x="411.030681" y="293.76" style="stroke: #000000; stroke-width: 0.8"/>
      </g>
     </g>
     <g id="text_4">
      <!-- 8 -->
      <g transform="translate(404.668181 315.956875) scale(0.2 -0.2)">
       <defs>
        <path id="DejaVuSans-38" d="M 2034 2216 
Q 1584 2216 1326 1975 
Q 1069 1734 1069 1313 
Q 1069 891 1326 650 
Q 1584 409 2034 409 
Q 2484 409 2743 651 
Q 3003 894 3003 1313 
Q 3003 1734 2745 1975 
Q 2488 2216 2034 2216 
z
M 1403 2484 
Q 997 2584 770 2862 
Q 544 3141 544 3541 
Q 544 4100 942 4425 
Q 1341 4750 2034 4750 
Q 2731 4750 3128 4425 
Q 3525 4100 3525 3541 
Q 3525 3141 3298 2862 
Q 3072 2584 2669 2484 
Q 3125 2378 3379 2068 
Q 3634 1759 3634 1313 
Q 3634 634 3220 271 
Q 2806 -91 2034 -91 
Q 1263 -91 848 271 
Q 434 634 434 1313 
Q 434 1759 690 2068 
Q 947 2378 1403 2484 
z
M 1172 3481 
Q 1172 3119 1398 2916 
Q 1625 2713 2034 2713 
Q 2441 2713 2670 2916 
Q 2900 3119 2900 3481 
Q 2900 3844 2670 4047 
Q 2441 4250 2034 4250 
Q 1625 4250 1398 4047 
Q 1172 3844 1172 3481 
z
" transform="scale(0.015625)"/>
       </defs>
       <use xlink:href="#DejaVuSans-38"/>
      </g>
     </g>
    </g>
    <g id="text_5">
     <!-- log10 of Df -->
     <g transform="translate(175.214063 339.313125) scale(0.2 -0.2)">
      <defs>
       <path id="DejaVuSans-6c" d="M 603 4863 
L 1178 4863 
L 1178 0 
L 603 0 
L 603 4863 
z
" transform="scale(0.015625)"/>
       <path id="DejaVuSans-6f" d="M 1959 3097 
Q 1497 3097 1228 2736 
Q 959 2375 959 1747 
Q 959 1119 1226 758 
Q 1494 397 1959 397 
Q 2419 397 2687 759 
Q 2956 1122 2956 1747 
Q 2956 2369 2687 2733 
Q 2419 3097 1959 3097 
z
M 1959 3584 
Q 2709 3584 3137 3096 
Q 3566 2609 3566 1747 
Q 3566 888 3137 398 
Q 2709 -91 1959 -91 
Q 1206 -91 779 398 
Q 353 888 353 1747 
Q 353 2609 779 3096 
Q 1206 3584 1959 3584 
z
" transform="scale(0.015625)"/>
       <path id="DejaVuSans-67" d="M 2906 1791 
Q 2906 2416 2648 2759 
Q 2391 3103 1925 3103 
Q 1463 3103 1205 2759 
Q 947 2416 947 1791 
Q 947 1169 1205 825 
Q 1463 481 1925 481 
Q 2391 481 2648 825 
Q 2906 1169 2906 1791 
z
M 3481 434 
Q 3481 -459 3084 -895 
Q 2688 -1331 1869 -1331 
Q 1566 -1331 1297 -1286 
Q 1028 -1241 775 -1147 
L 775 -588 
Q 1028 -725 1275 -790 
Q 1522 -856 1778 -856 
Q 2344 -856 2625 -561 
Q 2906 -266 2906 331 
L 2906 616 
Q 2728 306 2450 153 
Q 2172 0 1784 0 
Q 1141 0 747 490 
Q 353 981 353 1791 
Q 353 2603 747 3093 
Q 1141 3584 1784 3584 
Q 2172 3584 2450 3431 
Q 2728 3278 2906 2969 
L 2906 3500 
L 3481 3500 
L 3481 434 
z
" transform="scale(0.015625)"/>
       <path id="DejaVuSans-31" d="M 794 531 
L 1825 531 
L 1825 4091 
L 703 3866 
L 703 4441 
L 1819 4666 
L 2450 4666 
L 2450 531 
L 3481 531 
L 3481 0 
L 794 0 
L 794 531 
z
" transform="scale(0.015625)"/>
       <path id="DejaVuSans-20" transform="scale(0.015625)"/>
       <path id="DejaVuSans-66" d="M 2375 4863 
L 2375 4384 
L 1825 4384 
Q 1516 4384 1395 4259 
Q 1275 4134 1275 3809 
L 1275 3500 
L 2222 3500 
L 2222 3053 
L 1275 3053 
L 1275 0 
L 697 0 
L 697 3053 
L 147 3053 
L 147 3500 
L 697 3500 
L 697 3744 
Q 697 4328 969 4595 
Q 1241 4863 1831 4863 
L 2375 4863 
z
" transform="scale(0.015625)"/>
       <path id="DejaVuSans-44" d="M 1259 4147 
L 1259 519 
L 2022 519 
Q 2988 519 3436 956 
Q 3884 1394 3884 2338 
Q 3884 3275 3436 3711 
Q 2988 4147 2022 4147 
L 1259 4147 
z
M 628 4666 
L 1925 4666 
Q 3281 4666 3915 4102 
Q 4550 3538 4550 2338 
Q 4550 1131 3912 565 
Q 3275 0 1925 0 
L 628 0 
L 628 4666 
z
" transform="scale(0.015625)"/>
      </defs>
      <use xlink:href="#DejaVuSans-6c"/>
      <use xlink:href="#DejaVuSans-6f" x="27.783203"/>
      <use xlink:href="#DejaVuSans-67" x="88.964844"/>
      <use xlink:href="#DejaVuSans-31" x="152.441406"/>
      <use xlink:href="#DejaVuSans-30" x="216.064453"/>
      <use xlink:href="#DejaVuSans-20" x="279.6875"/>
      <use xlink:href="#DejaVuSans-6f" x="311.474609"/>
      <use xlink:href="#DejaVuSans-66" x="372.65625"/>
      <use xlink:href="#DejaVuSans-20" x="407.861328"/>
      <use xlink:href="#DejaVuSans-44" x="439.648438"/>
      <use xlink:href="#DejaVuSans-66" x="516.650391"/>
     </g>
    </g>
   </g>
   <g id="matplotlib.axis_2">
    <g id="ytick_1">
     <g id="line2d_9">
      <path d="M 0 293.76 
L 460.8 293.76 
" clip-path="url(#pb75771cd1a)" style="fill: none; stroke: #b0b0b0; stroke-width: 0.8; stroke-linecap: square"/>
     </g>
     <g id="line2d_10">
      <defs>
       <path id="m83cbee0c5b" d="M 0 0 
L -3.5 0 
" style="stroke: #000000; stroke-width: 0.8"/>
      </defs>
      <g>
       <use xlink:href="#m83cbee0c5b" x="0" y="293.76" style="stroke: #000000; stroke-width: 0.8"/>
      </g>
     </g>
    </g>
    <g id="ytick_2">
     <g id="line2d_11">
      <path d="M 0 236.274059 
L 460.8 236.274059 
" clip-path="url(#pb75771cd1a)" style="fill: none; stroke: #b0b0b0; stroke-width: 0.8; stroke-linecap: square"/>
     </g>
     <g id="line2d_12">
      <g>
       <use xlink:href="#m83cbee0c5b" x="0" y="236.274059" style="stroke: #000000; stroke-width: 0.8"/>
      </g>
     </g>
    </g>
    <g id="ytick_3">
     <g id="line2d_13">
      <path d="M 0 178.788119 
L 460.8 178.788119 
" clip-path="url(#pb75771cd1a)" style="fill: none; stroke: #b0b0b0; stroke-width: 0.8; stroke-linecap: square"/>
     </g>
     <g id="line2d_14">
      <g>
       <use xlink:href="#m83cbee0c5b" x="0" y="178.788119" style="stroke: #000000; stroke-width: 0.8"/>
      </g>
     </g>
    </g>
    <g id="ytick_4">
     <g id="line2d_15">
      <path d="M 0 121.302178 
L 460.8 121.302178 
" clip-path="url(#pb75771cd1a)" style="fill: none; stroke: #b0b0b0; stroke-width: 0.8; stroke-linecap: square"/>
     </g>
     <g id="line2d_16">
      <g>
       <use xlink:href="#m83cbee0c5b" x="0" y="121.302178" style="stroke: #000000; stroke-width: 0.8"/>
      </g>
     </g>
    </g>
    <g id="ytick_5">
     <g id="line2d_17">
      <path d="M 0 63.816238 
L 460.8 63.816238 
" clip-path="url(#pb75771cd1a)" style="fill: none; stroke: #b0b0b0; stroke-width: 0.8; stroke-linecap: square"/>
     </g>
     <g id="line2d_18">
      <g>
       <use xlink:href="#m83cbee0c5b" x="0" y="63.816238" style="stroke: #000000; stroke-width: 0.8"/>
      </g>
     </g>
    </g>
    <g id="ytick_6">
     <g id="line2d_19">
      <path d="M 0 6.330297 
L 460.8 6.330297 
" clip-path="url(#pb75771cd1a)" style="fill: none; stroke: #b0b0b0; stroke-width: 0.8; stroke-linecap: square"/>
     </g>
     <g id="line2d_20">
      <g>
       <use xlink:href="#m83cbee0c5b" x="0" y="6.330297" style="stroke: #000000; stroke-width: 0.8"/>
      </g>
     </g>
    </g>
   </g>
   <g id="line2d_21">
    <path d="M 31.070459 293.76 
L 31.070459 289.927604 
L 182.058445 289.927604 
L 182.058445 286.095208 
L 194.785057 286.095208 
L 194.785057 282.262812 
L 201.028902 282.262812 
L 201.028902 278.430416 
L 207.365744 278.430416 
L 207.365744 274.59802 
L 207.907615 274.59802 
L 207.907615 270.765624 
L 209.819721 270.765624 
L 209.819721 266.933228 
L 210.443929 266.933228 
L 210.443929 263.100832 
L 213.838274 263.100832 
L 213.838274 259.268436 
L 214.259423 259.268436 
L 214.259423 255.43604 
L 214.432845 255.43604 
L 214.470505 236.274059 
L 214.598378 236.274059 
L 214.598378 232.441663 
L 215.62579 232.441663 
L 215.652468 224.776871 
L 216.197538 224.776871 
L 216.283817 217.112079 
L 216.352585 217.112079 
L 216.352585 213.279683 
L 216.894096 213.279683 
L 216.894096 209.447287 
L 217.85357 209.447287 
L 217.85357 205.614891 
L 219.871561 205.614891 
L 219.871561 201.782495 
L 220.050807 201.782495 
L 220.050807 197.950099 
L 220.429166 197.950099 
L 220.429166 194.117703 
L 221.465832 194.117703 
L 221.465832 190.285307 
L 223.347974 190.285307 
L 223.3958 174.955723 
L 223.772807 174.955723 
L 223.772807 171.123327 
L 224.793751 171.123327 
L 224.793751 167.290931 
L 225.98874 167.290931 
L 226.039391 159.626139 
L 226.397525 159.626139 
L 226.397525 155.793743 
L 227.600616 155.793743 
L 227.600616 148.12895 
L 228.947092 148.12895 
L 228.947092 144.296554 
L 229.723358 144.296554 
L 229.723358 140.464158 
L 231.078286 140.464158 
L 231.078286 136.631762 
L 232.963571 136.631762 
L 232.963571 132.799366 
L 235.393595 132.799366 
L 235.393595 128.96697 
L 235.962387 128.96697 
L 235.962387 125.134574 
L 239.173125 125.134574 
L 239.173125 121.302178 
L 239.674856 121.302178 
L 239.674856 117.469782 
L 240.190104 117.469782 
L 240.299323 109.80499 
L 241.008774 109.80499 
L 241.008774 105.972594 
L 241.574614 105.972594 
L 241.574614 102.140198 
L 241.771516 102.140198 
L 241.771516 98.307802 
L 241.957526 98.307802 
L 241.957526 94.475406 
L 242.138047 94.475406 
L 242.138047 90.64301 
L 242.293128 90.64301 
L 242.38088 75.313426 
L 242.590457 75.313426 
L 242.590457 71.48103 
L 243.61189 71.48103 
L 243.694907 63.816238 
L 243.734712 63.816238 
L 243.810712 56.151446 
L 243.906667 56.151446 
L 243.992096 48.486653 
L 244.883401 48.486653 
L 244.883401 44.654257 
L 246.21096 44.654257 
L 246.21096 40.821861 
L 248.594608 40.821861 
L 248.594608 36.989465 
L 249.226903 36.989465 
L 249.226903 33.157069 
L 250.687043 33.157069 
L 250.687043 29.324673 
L 251.396735 29.324673 
L 251.396735 25.492277 
L 252.082394 25.492277 
L 252.082394 21.659881 
L 252.387794 21.659881 
L 252.387794 17.827485 
L 254.263381 17.827485 
L 254.263381 13.995089 
L 260.914607 13.995089 
L 260.914607 10.162693 
L 275.739203 10.162693 
L 275.739203 6.330297 
L 275.739203 6.330297 
L 460.8 6.330297 
L 460.8 6.330297 
" clip-path="url(#pb75771cd1a)" style="fill: none; stroke: #ff0000; stroke-width: 3; stroke-linecap: square"/>
   </g>
   <g id="line2d_22">
    <path d="M 226.715112 293.76 
L 226.715112 289.927604 
L 228.77687 289.927604 
L 228.77687 286.095208 
L 231.782794 286.095208 
L 231.830459 278.430416 
L 236.114914 278.430416 
L 236.152908 270.765624 
L 236.413337 270.765624 
L 236.413337 266.933228 
L 237.776093 266.933228 
L 237.776093 263.100832 
L 238.204016 263.100832 
L 238.204016 259.268436 
L 238.997275 259.268436 
L 239.056355 251.603644 
L 239.492413 251.603644 
L 239.492413 247.771248 
L 240.031046 247.771248 
L 240.031046 243.938851 
L 240.739369 243.938851 
L 240.739369 240.106455 
L 241.031788 240.106455 
L 241.031788 236.274059 
L 241.864919 236.274059 
L 241.864919 232.441663 
L 243.171617 232.441663 
L 243.171617 228.609267 
L 244.552378 228.609267 
L 244.552378 224.776871 
L 244.990642 224.776871 
L 244.990642 220.944475 
L 245.121464 220.944475 
L 245.121464 217.112079 
L 247.319344 217.112079 
L 247.319344 213.279683 
L 247.682339 213.279683 
L 247.769817 205.614891 
L 248.374866 205.614891 
L 248.374866 201.782495 
L 248.617337 201.782495 
L 248.676567 194.117703 
L 249.23313 194.117703 
L 249.23313 190.285307 
L 250.193688 190.285307 
L 250.259705 182.620515 
L 250.336903 182.620515 
L 250.336903 178.788119 
L 250.590426 178.788119 
L 250.590426 174.955723 
L 250.704271 174.955723 
L 250.704271 171.123327 
L 250.826154 171.123327 
L 250.898937 163.458535 
L 250.997497 163.458535 
L 250.997497 159.626139 
L 251.317185 159.626139 
L 251.317185 155.793743 
L 251.660644 155.793743 
L 251.660644 151.961347 
L 251.9981 151.961347 
L 251.9981 148.12895 
L 252.111221 148.12895 
L 252.111221 144.296554 
L 252.246672 144.296554 
L 252.352857 128.96697 
L 252.471779 128.96697 
L 252.471779 125.134574 
L 252.688041 125.134574 
L 252.798442 113.637386 
L 253.16542 113.637386 
L 253.228959 105.972594 
L 253.340328 105.972594 
L 253.450364 94.475406 
L 253.708037 94.475406 
L 253.708037 90.64301 
L 254.263381 90.64301 
L 254.299873 82.978218 
L 254.441767 82.978218 
L 254.441767 79.145822 
L 255.727577 79.145822 
L 255.727577 75.313426 
L 255.967318 75.313426 
L 255.967318 71.48103 
L 256.285186 71.48103 
L 256.285186 67.648634 
L 256.431991 67.648634 
L 256.431991 63.816238 
L 303.595759 63.816238 
L 303.595759 6.330297 
L 303.595759 6.330297 
L 460.8 6.330297 
L 460.8 6.330297 
" clip-path="url(#pb75771cd1a)" style="fill: none; stroke: #00bfbf; stroke-width: 1.5; stroke-linecap: square"/>
   </g>
   <g id="line2d_23">
    <path d="M 221.588845 293.76 
L 221.588845 289.927604 
L 224.249646 289.927604 
L 224.249646 286.095208 
L 226.715112 286.095208 
L 226.717046 278.430416 
L 227.831508 278.430416 
L 227.831508 274.59802 
L 228.09936 274.59802 
L 228.09936 270.765624 
L 228.77687 270.765624 
L 228.77687 266.933228 
L 232.403226 266.933228 
L 232.403226 263.100832 
L 233.562009 263.100832 
L 233.562009 259.268436 
L 233.711851 259.268436 
L 233.711851 255.43604 
L 234.840798 255.43604 
L 234.840798 251.603644 
L 236.114914 251.603644 
L 236.152908 243.938851 
L 237.008595 243.938851 
L 237.008595 240.106455 
L 238.681093 240.106455 
L 238.681093 236.274059 
L 239.173125 236.274059 
L 239.234784 228.609267 
L 239.910071 228.609267 
L 239.910071 224.776871 
L 241.541336 224.776871 
L 241.541336 220.944475 
L 242.713958 220.944475 
L 242.713958 217.112079 
L 244.261536 217.112079 
L 244.261536 213.279683 
L 244.552378 213.279683 
L 244.552378 209.447287 
L 245.113071 209.447287 
L 245.113071 205.614891 
L 245.621719 205.614891 
L 245.621719 201.782495 
L 246.353828 201.782495 
L 246.353828 197.950099 
L 246.685111 197.950099 
L 246.685111 194.117703 
L 247.682339 194.117703 
L 247.733597 186.452911 
L 248.594608 186.452911 
L 248.700684 171.123327 
L 248.742737 171.123327 
L 248.742737 167.290931 
L 249.23313 167.290931 
L 249.32115 155.793743 
L 249.572705 155.793743 
L 249.650934 148.12895 
L 250.086531 148.12895 
L 250.193688 140.464158 
L 250.336903 140.464158 
L 250.423069 132.799366 
L 250.476543 132.799366 
L 250.575461 125.134574 
L 250.755298 125.134574 
L 250.755298 121.302178 
L 250.898937 121.302178 
L 250.970987 109.80499 
L 251.324758 109.80499 
L 251.396735 102.140198 
L 252.064222 102.140198 
L 252.073562 94.475406 
L 252.237439 94.475406 
L 252.237439 90.64301 
L 252.688041 90.64301 
L 252.729565 82.978218 
L 253.328209 82.978218 
L 253.348397 75.313426 
L 253.497923 75.313426 
L 253.565931 67.648634 
L 254.263381 67.648634 
L 254.263381 63.816238 
L 299.321203 63.816238 
L 299.321203 36.989465 
L 302.982205 36.989465 
L 302.982205 25.492277 
L 303.594274 25.492277 
L 303.595759 6.330297 
L 303.595759 6.330297 
L 460.8 6.330297 
L 460.8 6.330297 
" clip-path="url(#pb75771cd1a)" style="fill: none; stroke: #bf00bf; stroke-width: 1.5; stroke-linecap: square"/>
   </g>
   <g id="line2d_24">
    <path d="M 218.576377 293.76 
L 218.576377 289.927604 
L 220.050807 289.927604 
L 220.050807 286.095208 
L 220.730924 286.095208 
L 220.730924 282.262812 
L 221.588845 282.262812 
L 221.588845 278.430416 
L 223.277749 278.430416 
L 223.277749 274.59802 
L 224.249646 274.59802 
L 224.249646 270.765624 
L 226.717046 270.765624 
L 226.717046 266.933228 
L 227.527053 266.933228 
L 227.527053 263.100832 
L 228.056014 263.100832 
L 228.056014 259.268436 
L 228.395436 259.268436 
L 228.395436 255.43604 
L 228.705957 255.43604 
L 228.801146 240.106455 
L 230.253302 240.106455 
L 230.253302 236.274059 
L 231.194054 236.274059 
L 231.194054 232.441663 
L 231.54848 232.441663 
L 231.603539 224.776871 
L 232.908744 224.776871 
L 232.908744 220.944475 
L 233.21629 220.944475 
L 233.31345 213.279683 
L 233.331102 213.279683 
L 233.331102 209.447287 
L 233.711851 209.447287 
L 233.711851 205.614891 
L 234.977287 205.614891 
L 234.977287 201.782495 
L 236.114914 201.782495 
L 236.114914 197.950099 
L 239.173125 197.950099 
L 239.173125 194.117703 
L 241.521031 194.117703 
L 241.619508 186.452911 
L 242.334648 186.452911 
L 242.334648 182.620515 
L 242.642979 182.620515 
L 242.642979 178.788119 
L 242.910914 178.788119 
L 242.910914 174.955723 
L 243.763528 174.955723 
L 243.763528 171.123327 
L 246.264183 171.123327 
L 246.264183 167.290931 
L 246.500262 167.290931 
L 246.500262 163.458535 
L 246.685111 163.458535 
L 246.687058 155.793743 
L 246.85346 155.793743 
L 246.85346 151.961347 
L 247.061115 151.961347 
L 247.061115 148.12895 
L 247.193416 148.12895 
L 247.193416 144.296554 
L 247.572671 144.296554 
L 247.572671 140.464158 
L 247.849108 140.464158 
L 247.849108 136.631762 
L 248.520753 136.631762 
L 248.623519 125.134574 
L 248.860958 125.134574 
L 248.860958 121.302178 
L 249.172729 121.302178 
L 249.172729 117.469782 
L 249.32115 117.469782 
L 249.378978 109.80499 
L 249.534782 109.80499 
L 249.631306 98.307802 
L 250.143133 98.307802 
L 250.143133 94.475406 
L 250.513446 94.475406 
L 250.513446 90.64301 
L 250.755298 90.64301 
L 250.755298 86.810614 
L 251.324758 86.810614 
L 251.396735 79.145822 
L 252.147993 79.145822 
L 252.147993 75.313426 
L 252.42156 75.313426 
L 252.42156 71.48103 
L 253.348397 71.48103 
L 253.348397 67.648634 
L 253.565931 67.648634 
L 253.565931 63.816238 
L 254.263381 63.816238 
L 254.263381 59.983842 
L 258.838989 59.983842 
L 258.838989 56.151446 
L 264.530584 56.151446 
L 264.530584 52.31905 
L 264.772719 52.31905 
L 264.772719 48.486653 
L 266.512769 48.486653 
L 266.512769 44.654257 
L 267.249718 44.654257 
L 267.32337 36.989465 
L 267.468376 36.989465 
L 267.509468 29.324673 
L 267.68245 29.324673 
L 267.68245 25.492277 
L 268.171839 25.492277 
L 268.184069 17.827485 
L 269.210559 17.827485 
L 269.210559 13.995089 
L 277.493867 13.995089 
L 277.493867 10.162693 
L 280.392377 10.162693 
L 280.392377 6.330297 
L 280.392377 6.330297 
L 460.8 6.330297 
L 460.8 6.330297 
" clip-path="url(#pb75771cd1a)" style="fill: none; stroke: #000000; stroke-width: 1.5; stroke-linecap: square"/>
   </g>
   <g id="line2d_25">
    <path d="M 207.907964 293.76 
L 207.907964 289.927604 
L 210.984531 289.927604 
L 210.984531 286.095208 
L 211.88327 286.095208 
L 211.88327 282.262812 
L 214.476011 282.262812 
L 214.476011 278.430416 
L 214.955093 278.430416 
L 214.955093 274.59802 
L 215.455827 274.59802 
L 215.455827 270.765624 
L 215.747756 270.765624 
L 215.747756 266.933228 
L 215.888987 266.933228 
L 215.888987 263.100832 
L 216.427657 263.100832 
L 216.427657 259.268436 
L 216.844238 259.268436 
L 216.844238 255.43604 
L 217.678905 255.43604 
L 217.678905 251.603644 
L 217.869655 251.603644 
L 217.869655 247.771248 
L 218.78873 247.771248 
L 218.78873 243.938851 
L 218.951738 243.938851 
L 218.951738 240.106455 
L 219.661644 240.106455 
L 219.708844 232.441663 
L 220.050807 232.441663 
L 220.050807 228.609267 
L 220.258409 228.609267 
L 220.258409 224.776871 
L 221.149885 224.776871 
L 221.149885 220.944475 
L 221.752532 220.944475 
L 221.752532 217.112079 
L 224.249646 217.112079 
L 224.249646 213.279683 
L 225.999691 213.279683 
L 225.999691 209.447287 
L 226.209425 209.447287 
L 226.209425 205.614891 
L 226.717046 205.614891 
L 226.717046 201.782495 
L 227.193647 201.782495 
L 227.193647 197.950099 
L 227.527053 197.950099 
L 227.604779 186.452911 
L 228.056014 186.452911 
L 228.056014 182.620515 
L 228.801146 182.620515 
L 228.801146 178.788119 
L 229.348509 178.788119 
L 229.348509 174.955723 
L 231.194054 174.955723 
L 231.194054 171.123327 
L 232.207113 171.123327 
L 232.207113 167.290931 
L 232.346589 167.290931 
L 232.346589 163.458535 
L 233.21629 163.458535 
L 233.21629 159.626139 
L 233.711851 159.626139 
L 233.711851 155.793743 
L 234.295587 155.793743 
L 234.295587 151.961347 
L 235.854198 151.961347 
L 235.854198 148.12895 
L 236.114914 148.12895 
L 236.114914 144.296554 
L 237.894745 144.296554 
L 237.894745 140.464158 
L 239.024181 140.464158 
L 239.024181 136.631762 
L 239.173125 136.631762 
L 239.173125 132.799366 
L 240.299323 132.799366 
L 240.299323 128.96697 
L 241.978969 128.96697 
L 241.978969 125.134574 
L 242.38088 125.134574 
L 242.466689 117.469782 
L 242.541244 117.469782 
L 242.620155 109.80499 
L 242.752263 109.80499 
L 242.766651 102.140198 
L 243.771512 102.140198 
L 243.778716 94.475406 
L 244.330292 94.475406 
L 244.332078 86.810614 
L 244.546706 86.810614 
L 244.546706 82.978218 
L 244.724833 82.978218 
L 244.803269 75.313426 
L 245.347413 75.313426 
L 245.347413 71.48103 
L 246.295434 71.48103 
L 246.295434 67.648634 
L 246.500262 67.648634 
L 246.500262 63.816238 
L 246.851116 63.816238 
L 246.851116 59.983842 
L 247.490298 59.983842 
L 247.490298 56.151446 
L 248.594608 56.151446 
L 248.633106 48.486653 
L 249.153701 48.486653 
L 249.153701 44.654257 
L 250.755298 44.654257 
L 250.755298 40.821861 
L 251.324758 40.821861 
L 251.396735 33.157069 
L 252.395164 33.157069 
L 252.395164 29.324673 
L 253.348397 29.324673 
L 253.348397 25.492277 
L 253.565931 25.492277 
L 253.565931 21.659881 
L 254.263381 21.659881 
L 254.263381 17.827485 
L 260.914607 17.827485 
L 260.914607 13.995089 
L 275.739203 13.995089 
L 275.739203 10.162693 
L 280.119585 10.162693 
L 280.119585 6.330297 
L 280.119585 6.330297 
L 460.8 6.330297 
L 460.8 6.330297 
" clip-path="url(#pb75771cd1a)" style="fill: none; stroke: #00bfbf; stroke-width: 1.5; stroke-linecap: square"/>
   </g>
   <g id="patch_3">
    <path d="M 0 293.76 
L 0 3.456 
" style="fill: none; stroke: #000000; stroke-width: 0.8; stroke-linejoin: miter; stroke-linecap: square"/>
   </g>
   <g id="patch_4">
    <path d="M 460.8 293.76 
L 460.8 3.456 
" style="fill: none; stroke: #000000; stroke-width: 0.8; stroke-linejoin: miter; stroke-linecap: square"/>
   </g>
   <g id="patch_5">
    <path d="M 0 293.76 
L 460.8 293.76 
" style="fill: none; stroke: #000000; stroke-width: 0.8; stroke-linejoin: miter; stroke-linecap: square"/>
   </g>
   <g id="patch_6">
    <path d="M 0 3.456 
L 460.8 3.456 
" style="fill: none; stroke: #000000; stroke-width: 0.8; stroke-linejoin: miter; stroke-linecap: square"/>
   </g>
   <g id="text_6">
    <!-- {f20-f24}, 5-D -->
    <g transform="translate(305.884 287.95392) scale(0.2 -0.2)">
     <defs>
      <path id="DejaVuSans-7b" d="M 3272 -594 
L 3272 -1044 
L 3078 -1044 
Q 2300 -1044 2036 -812 
Q 1772 -581 1772 109 
L 1772 856 
Q 1772 1328 1603 1509 
Q 1434 1691 991 1691 
L 800 1691 
L 800 2138 
L 991 2138 
Q 1438 2138 1605 2317 
Q 1772 2497 1772 2963 
L 1772 3713 
Q 1772 4403 2036 4633 
Q 2300 4863 3078 4863 
L 3272 4863 
L 3272 4416 
L 3059 4416 
Q 2619 4416 2484 4278 
Q 2350 4141 2350 3700 
L 2350 2925 
Q 2350 2434 2208 2212 
Q 2066 1991 1722 1913 
Q 2069 1828 2209 1606 
Q 2350 1384 2350 897 
L 2350 122 
Q 2350 -319 2484 -456 
Q 2619 -594 3059 -594 
L 3272 -594 
z
" transform="scale(0.015625)"/>
      <path id="DejaVuSans-32" d="M 1228 531 
L 3431 531 
L 3431 0 
L 469 0 
L 469 531 
Q 828 903 1448 1529 
Q 2069 2156 2228 2338 
Q 2531 2678 2651 2914 
Q 2772 3150 2772 3378 
Q 2772 3750 2511 3984 
Q 2250 4219 1831 4219 
Q 1534 4219 1204 4116 
Q 875 4013 500 3803 
L 500 4441 
Q 881 4594 1212 4672 
Q 1544 4750 1819 4750 
Q 2544 4750 2975 4387 
Q 3406 4025 3406 3419 
Q 3406 3131 3298 2873 
Q 3191 2616 2906 2266 
Q 2828 2175 2409 1742 
Q 1991 1309 1228 531 
z
" transform="scale(0.015625)"/>
      <path id="DejaVuSans-7d" d="M 800 -594 
L 1019 -594 
Q 1456 -594 1589 -459 
Q 1722 -325 1722 122 
L 1722 897 
Q 1722 1384 1862 1606 
Q 2003 1828 2350 1913 
Q 2003 1991 1862 2212 
Q 1722 2434 1722 2925 
L 1722 3700 
Q 1722 4144 1589 4280 
Q 1456 4416 1019 4416 
L 800 4416 
L 800 4863 
L 997 4863 
Q 1775 4863 2036 4633 
Q 2297 4403 2297 3713 
L 2297 2963 
Q 2297 2497 2465 2317 
Q 2634 2138 3078 2138 
L 3272 2138 
L 3272 1691 
L 3078 1691 
Q 2634 1691 2465 1509 
Q 2297 1328 2297 856 
L 2297 109 
Q 2297 -581 2036 -812 
Q 1775 -1044 997 -1044 
L 800 -1044 
L 800 -594 
z
" transform="scale(0.015625)"/>
      <path id="DejaVuSans-2c" d="M 750 794 
L 1409 794 
L 1409 256 
L 897 -744 
L 494 -744 
L 750 256 
L 750 794 
z
" transform="scale(0.015625)"/>
      <path id="DejaVuSans-35" d="M 691 4666 
L 3169 4666 
L 3169 4134 
L 1269 4134 
L 1269 2991 
Q 1406 3038 1543 3061 
Q 1681 3084 1819 3084 
Q 2600 3084 3056 2656 
Q 3513 2228 3513 1497 
Q 3513 744 3044 326 
Q 2575 -91 1722 -91 
Q 1428 -91 1123 -41 
Q 819 9 494 109 
L 494 744 
Q 775 591 1075 516 
Q 1375 441 1709 441 
Q 2250 441 2565 725 
Q 2881 1009 2881 1497 
Q 2881 1984 2565 2268 
Q 2250 2553 1709 2553 
Q 1456 2553 1204 2497 
Q 953 2441 691 2322 
L 691 4666 
z
" transform="scale(0.015625)"/>
     </defs>
     <use xlink:href="#DejaVuSans-7b"/>
     <use xlink:href="#DejaVuSans-66" x="63.623047"/>
     <use xlink:href="#DejaVuSans-32" x="98.828125"/>
     <use xlink:href="#DejaVuSans-30" x="162.451172"/>
     <use xlink:href="#DejaVuSans-2d" x="226.074219"/>
     <use xlink:href="#DejaVuSans-66" x="262.158203"/>
     <use xlink:href="#DejaVuSans-32" x="297.363281"/>
     <use xlink:href="#DejaVuSans-34" x="360.986328"/>
     <use xlink:href="#DejaVuSans-7d" x="424.609375"/>
     <use xlink:href="#DejaVuSans-2c" x="488.232422"/>
     <use xlink:href="#DejaVuSans-20" x="520.019531"/>
     <use xlink:href="#DejaVuSans-35" x="551.806641"/>
     <use xlink:href="#DejaVuSans-2d" x="615.429688"/>
     <use xlink:href="#DejaVuSans-44" x="651.513672"/>
    </g>
   </g>
   <g id="text_7">
    <!-- v2.6.3 -->
    <g style="fill: #808080" transform="translate(214.71875 288.777272) scale(0.1 -0.1)">
     <defs>
      <path id="DejaVuSans-76" d="M 191 3500 
L 800 3500 
L 1894 563 
L 2988 3500 
L 3597 3500 
L 2284 0 
L 1503 0 
L 191 3500 
z
" transform="scale(0.015625)"/>
      <path id="DejaVuSans-2e" d="M 684 794 
L 1344 794 
L 1344 0 
L 684 0 
L 684 794 
z
" transform="scale(0.015625)"/>
      <path id="DejaVuSans-36" d="M 2113 2584 
Q 1688 2584 1439 2293 
Q 1191 2003 1191 1497 
Q 1191 994 1439 701 
Q 1688 409 2113 409 
Q 2538 409 2786 701 
Q 3034 994 3034 1497 
Q 3034 2003 2786 2293 
Q 2538 2584 2113 2584 
z
M 3366 4563 
L 3366 3988 
Q 3128 4100 2886 4159 
Q 2644 4219 2406 4219 
Q 1781 4219 1451 3797 
Q 1122 3375 1075 2522 
Q 1259 2794 1537 2939 
Q 1816 3084 2150 3084 
Q 2853 3084 3261 2657 
Q 3669 2231 3669 1497 
Q 3669 778 3244 343 
Q 2819 -91 2113 -91 
Q 1303 -91 875 529 
Q 447 1150 447 2328 
Q 447 3434 972 4092 
Q 1497 4750 2381 4750 
Q 2619 4750 2861 4703 
Q 3103 4656 3366 4563 
z
" transform="scale(0.015625)"/>
      <path id="DejaVuSans-33" d="M 2597 2516 
Q 3050 2419 3304 2112 
Q 3559 1806 3559 1356 
Q 3559 666 3084 287 
Q 2609 -91 1734 -91 
Q 1441 -91 1130 -33 
Q 819 25 488 141 
L 488 750 
Q 750 597 1062 519 
Q 1375 441 1716 441 
Q 2309 441 2620 675 
Q 2931 909 2931 1356 
Q 2931 1769 2642 2001 
Q 2353 2234 1838 2234 
L 1294 2234 
L 1294 2753 
L 1863 2753 
Q 2328 2753 2575 2939 
Q 2822 3125 2822 3475 
Q 2822 3834 2567 4026 
Q 2313 4219 1838 4219 
Q 1578 4219 1281 4162 
Q 984 4106 628 3988 
L 628 4550 
Q 988 4650 1302 4700 
Q 1616 4750 1894 4750 
Q 2613 4750 3031 4423 
Q 3450 4097 3450 3541 
Q 3450 3153 3228 2886 
Q 3006 2619 2597 2516 
z
" transform="scale(0.015625)"/>
     </defs>
     <use xlink:href="#DejaVuSans-76"/>
     <use xlink:href="#DejaVuSans-32" x="59.179688"/>
     <use xlink:href="#DejaVuSans-2e" x="122.802734"/>
     <use xlink:href="#DejaVuSans-36" x="154.589844"/>
     <use xlink:href="#DejaVuSans-2e" x="218.212891"/>
     <use xlink:href="#DejaVuSans-33" x="250"/>
    </g>
   </g>
  </g>
 </g>
 <defs>
  <clipPath id="pb75771cd1a">
   <rect x="0" y="3.456" width="460.8" height="290.304"/>
  </clipPath>
 </defs>
</svg>
