<?xml version="1.0" encoding="utf-8" standalone="no"?>
<!DOCTYPE svg PUBLIC "-//W3C//DTD SVG 1.1//EN"
  "http://www.w3.org/Graphics/SVG/1.1/DTD/svg11.dtd">
<svg xmlns:xlink="http://www.w3.org/1999/xlink" width="460.8pt" height="345.6pt" viewBox="0 0 460.8 345.6" xmlns="http://www.w3.org/2000/svg" version="1.1">
 <metadata>
  <rdf:RDF xmlns:dc="http://purl.org/dc/elements/1.1/" xmlns:cc="http://creativecommons.org/ns#" xmlns:rdf="http://www.w3.org/1999/02/22-rdf-syntax-ns#">
   <cc:Work>
    <dc:type rdf:resource="http://purl.org/dc/dcmitype/StillImage"/>
    <dc:date>2024-01-25T18:16:43.915172</dc:date>
    <dc:format>image/svg+xml</dc:format>
    <dc:creator>
     <cc:Agent>
      <dc:title>Matplotlib v3.8.2, https://matplotlib.org/</dc:title>
     </cc:Agent>
    </dc:creator>
   </cc:Work>
  </rdf:RDF>
 </metadata>
 <defs>
  <style type="text/css">*{stroke-linejoin: round; stroke-linecap: butt}</style>
 </defs>
 <g id="figure_1">
  <g id="patch_1">
   <path d="M 0 345.6 
L 460.8 345.6 
L 460.8 0 
L 0 0 
z
" style="fill: #ffffff"/>
  </g>
  <g id="axes_1">
   <g id="patch_2">
    <path d="M 0 293.76 
L 460.8 293.76 
L 460.8 3.456 
L 0 3.456 
z
" style="fill: #ffffff"/>
   </g>
   <g id="matplotlib.axis_1">
    <g id="xtick_1">
     <g id="line2d_1">
      <path d="M 102.674388 293.76 
L 102.674388 3.456 
" clip-path="url(#pf648636f9a)" style="fill: none; stroke: #b0b0b0; stroke-width: 0.8; stroke-linecap: square"/>
     </g>
     <g id="line2d_2">
      <defs>
       <path id="mb74323e634" d="M 0 0 
L 0 3.5 
" style="stroke: #000000; stroke-width: 0.8"/>
      </defs>
      <g>
       <use xlink:href="#mb74323e634" x="102.674388" y="293.76" style="stroke: #000000; stroke-width: 0.8"/>
      </g>
     </g>
     <g id="text_1">
      <!-- -4 -->
      <g transform="translate(92.704075 315.956875) scale(0.2 -0.2)">
       <defs>
        <path id="DejaVuSans-2d" d="M 313 2009 
L 1997 2009 
L 1997 1497 
L 313 1497 
L 313 2009 
z
" transform="scale(0.015625)"/>
        <path id="DejaVuSans-34" d="M 2419 4116 
L 825 1625 
L 2419 1625 
L 2419 4116 
z
M 2253 4666 
L 3047 4666 
L 3047 1625 
L 3713 1625 
L 3713 1100 
L 3047 1100 
L 3047 0 
L 2419 0 
L 2419 1100 
L 313 1100 
L 313 1709 
L 2253 4666 
z
" transform="scale(0.015625)"/>
       </defs>
       <use xlink:href="#DejaVuSans-2d"/>
       <use xlink:href="#DejaVuSans-34" x="36.083984"/>
      </g>
     </g>
    </g>
    <g id="xtick_2">
     <g id="line2d_3">
      <path d="M 205.459819 293.76 
L 205.459819 3.456 
" clip-path="url(#pf648636f9a)" style="fill: none; stroke: #b0b0b0; stroke-width: 0.8; stroke-linecap: square"/>
     </g>
     <g id="line2d_4">
      <g>
       <use xlink:href="#mb74323e634" x="205.459819" y="293.76" style="stroke: #000000; stroke-width: 0.8"/>
      </g>
     </g>
     <g id="text_2">
      <!-- 0 -->
      <g transform="translate(199.097319 315.956875) scale(0.2 -0.2)">
       <defs>
        <path id="DejaVuSans-30" d="M 2034 4250 
Q 1547 4250 1301 3770 
Q 1056 3291 1056 2328 
Q 1056 1369 1301 889 
Q 1547 409 2034 409 
Q 2525 409 2770 889 
Q 3016 1369 3016 2328 
Q 3016 3291 2770 3770 
Q 2525 4250 2034 4250 
z
M 2034 4750 
Q 2819 4750 3233 4129 
Q 3647 3509 3647 2328 
Q 3647 1150 3233 529 
Q 2819 -91 2034 -91 
Q 1250 -91 836 529 
Q 422 1150 422 2328 
Q 422 3509 836 4129 
Q 1250 4750 2034 4750 
z
" transform="scale(0.015625)"/>
       </defs>
       <use xlink:href="#DejaVuSans-30"/>
      </g>
     </g>
    </g>
    <g id="xtick_3">
     <g id="line2d_5">
      <path d="M 308.24525 293.76 
L 308.24525 3.456 
" clip-path="url(#pf648636f9a)" style="fill: none; stroke: #b0b0b0; stroke-width: 0.8; stroke-linecap: square"/>
     </g>
     <g id="line2d_6">
      <g>
       <use xlink:href="#mb74323e634" x="308.24525" y="293.76" style="stroke: #000000; stroke-width: 0.8"/>
      </g>
     </g>
     <g id="text_3">
      <!-- 4 -->
      <g transform="translate(301.88275 315.956875) scale(0.2 -0.2)">
       <use xlink:href="#DejaVuSans-34"/>
      </g>
     </g>
    </g>
    <g id="xtick_4">
     <g id="line2d_7">
      <path d="M 411.030681 293.76 
L 411.030681 3.456 
" clip-path="url(#pf648636f9a)" style="fill: none; stroke: #b0b0b0; stroke-width: 0.8; stroke-linecap: square"/>
     </g>
     <g id="line2d_8">
      <g>
       <use xlink:href="#mb74323e634" x="411.030681" y="293.76" style="stroke: #000000; stroke-width: 0.8"/>
      </g>
     </g>
     <g id="text_4">
      <!-- 8 -->
      <g transform="translate(404.668181 315.956875) scale(0.2 -0.2)">
       <defs>
        <path id="DejaVuSans-38" d="M 2034 2216 
Q 1584 2216 1326 1975 
Q 1069 1734 1069 1313 
Q 1069 891 1326 650 
Q 1584 409 2034 409 
Q 2484 409 2743 651 
Q 3003 894 3003 1313 
Q 3003 1734 2745 1975 
Q 2488 2216 2034 2216 
z
M 1403 2484 
Q 997 2584 770 2862 
Q 544 3141 544 3541 
Q 544 4100 942 4425 
Q 1341 4750 2034 4750 
Q 2731 4750 3128 4425 
Q 3525 4100 3525 3541 
Q 3525 3141 3298 2862 
Q 3072 2584 2669 2484 
Q 3125 2378 3379 2068 
Q 3634 1759 3634 1313 
Q 3634 634 3220 271 
Q 2806 -91 2034 -91 
Q 1263 -91 848 271 
Q 434 634 434 1313 
Q 434 1759 690 2068 
Q 947 2378 1403 2484 
z
M 1172 3481 
Q 1172 3119 1398 2916 
Q 1625 2713 2034 2713 
Q 2441 2713 2670 2916 
Q 2900 3119 2900 3481 
Q 2900 3844 2670 4047 
Q 2441 4250 2034 4250 
Q 1625 4250 1398 4047 
Q 1172 3844 1172 3481 
z
" transform="scale(0.015625)"/>
       </defs>
       <use xlink:href="#DejaVuSans-38"/>
      </g>
     </g>
    </g>
    <g id="text_5">
     <!-- log10 of Df -->
     <g transform="translate(175.214063 339.313125) scale(0.2 -0.2)">
      <defs>
       <path id="DejaVuSans-6c" d="M 603 4863 
L 1178 4863 
L 1178 0 
L 603 0 
L 603 4863 
z
" transform="scale(0.015625)"/>
       <path id="DejaVuSans-6f" d="M 1959 3097 
Q 1497 3097 1228 2736 
Q 959 2375 959 1747 
Q 959 1119 1226 758 
Q 1494 397 1959 397 
Q 2419 397 2687 759 
Q 2956 1122 2956 1747 
Q 2956 2369 2687 2733 
Q 2419 3097 1959 3097 
z
M 1959 3584 
Q 2709 3584 3137 3096 
Q 3566 2609 3566 1747 
Q 3566 888 3137 398 
Q 2709 -91 1959 -91 
Q 1206 -91 779 398 
Q 353 888 353 1747 
Q 353 2609 779 3096 
Q 1206 3584 1959 3584 
z
" transform="scale(0.015625)"/>
       <path id="DejaVuSans-67" d="M 2906 1791 
Q 2906 2416 2648 2759 
Q 2391 3103 1925 3103 
Q 1463 3103 1205 2759 
Q 947 2416 947 1791 
Q 947 1169 1205 825 
Q 1463 481 1925 481 
Q 2391 481 2648 825 
Q 2906 1169 2906 1791 
z
M 3481 434 
Q 3481 -459 3084 -895 
Q 2688 -1331 1869 -1331 
Q 1566 -1331 1297 -1286 
Q 1028 -1241 775 -1147 
L 775 -588 
Q 1028 -725 1275 -790 
Q 1522 -856 1778 -856 
Q 2344 -856 2625 -561 
Q 2906 -266 2906 331 
L 2906 616 
Q 2728 306 2450 153 
Q 2172 0 1784 0 
Q 1141 0 747 490 
Q 353 981 353 1791 
Q 353 2603 747 3093 
Q 1141 3584 1784 3584 
Q 2172 3584 2450 3431 
Q 2728 3278 2906 2969 
L 2906 3500 
L 3481 3500 
L 3481 434 
z
" transform="scale(0.015625)"/>
       <path id="DejaVuSans-31" d="M 794 531 
L 1825 531 
L 1825 4091 
L 703 3866 
L 703 4441 
L 1819 4666 
L 2450 4666 
L 2450 531 
L 3481 531 
L 3481 0 
L 794 0 
L 794 531 
z
" transform="scale(0.015625)"/>
       <path id="DejaVuSans-20" transform="scale(0.015625)"/>
       <path id="DejaVuSans-66" d="M 2375 4863 
L 2375 4384 
L 1825 4384 
Q 1516 4384 1395 4259 
Q 1275 4134 1275 3809 
L 1275 3500 
L 2222 3500 
L 2222 3053 
L 1275 3053 
L 1275 0 
L 697 0 
L 697 3053 
L 147 3053 
L 147 3500 
L 697 3500 
L 697 3744 
Q 697 4328 969 4595 
Q 1241 4863 1831 4863 
L 2375 4863 
z
" transform="scale(0.015625)"/>
       <path id="DejaVuSans-44" d="M 1259 4147 
L 1259 519 
L 2022 519 
Q 2988 519 3436 956 
Q 3884 1394 3884 2338 
Q 3884 3275 3436 3711 
Q 2988 4147 2022 4147 
L 1259 4147 
z
M 628 4666 
L 1925 4666 
Q 3281 4666 3915 4102 
Q 4550 3538 4550 2338 
Q 4550 1131 3912 565 
Q 3275 0 1925 0 
L 628 0 
L 628 4666 
z
" transform="scale(0.015625)"/>
      </defs>
      <use xlink:href="#DejaVuSans-6c"/>
      <use xlink:href="#DejaVuSans-6f" x="27.783203"/>
      <use xlink:href="#DejaVuSans-67" x="88.964844"/>
      <use xlink:href="#DejaVuSans-31" x="152.441406"/>
      <use xlink:href="#DejaVuSans-30" x="216.064453"/>
      <use xlink:href="#DejaVuSans-20" x="279.6875"/>
      <use xlink:href="#DejaVuSans-6f" x="311.474609"/>
      <use xlink:href="#DejaVuSans-66" x="372.65625"/>
      <use xlink:href="#DejaVuSans-20" x="407.861328"/>
      <use xlink:href="#DejaVuSans-44" x="439.648438"/>
      <use xlink:href="#DejaVuSans-66" x="516.650391"/>
     </g>
    </g>
   </g>
   <g id="matplotlib.axis_2">
    <g id="ytick_1">
     <g id="line2d_9">
      <path d="M 0 293.76 
L 460.8 293.76 
" clip-path="url(#pf648636f9a)" style="fill: none; stroke: #b0b0b0; stroke-width: 0.8; stroke-linecap: square"/>
     </g>
     <g id="line2d_10">
      <defs>
       <path id="mfac62697e6" d="M 0 0 
L -3.5 0 
" style="stroke: #000000; stroke-width: 0.8"/>
      </defs>
      <g>
       <use xlink:href="#mfac62697e6" x="0" y="293.76" style="stroke: #000000; stroke-width: 0.8"/>
      </g>
     </g>
    </g>
    <g id="ytick_2">
     <g id="line2d_11">
      <path d="M 0 236.274059 
L 460.8 236.274059 
" clip-path="url(#pf648636f9a)" style="fill: none; stroke: #b0b0b0; stroke-width: 0.8; stroke-linecap: square"/>
     </g>
     <g id="line2d_12">
      <g>
       <use xlink:href="#mfac62697e6" x="0" y="236.274059" style="stroke: #000000; stroke-width: 0.8"/>
      </g>
     </g>
    </g>
    <g id="ytick_3">
     <g id="line2d_13">
      <path d="M 0 178.788119 
L 460.8 178.788119 
" clip-path="url(#pf648636f9a)" style="fill: none; stroke: #b0b0b0; stroke-width: 0.8; stroke-linecap: square"/>
     </g>
     <g id="line2d_14">
      <g>
       <use xlink:href="#mfac62697e6" x="0" y="178.788119" style="stroke: #000000; stroke-width: 0.8"/>
      </g>
     </g>
    </g>
    <g id="ytick_4">
     <g id="line2d_15">
      <path d="M 0 121.302178 
L 460.8 121.302178 
" clip-path="url(#pf648636f9a)" style="fill: none; stroke: #b0b0b0; stroke-width: 0.8; stroke-linecap: square"/>
     </g>
     <g id="line2d_16">
      <g>
       <use xlink:href="#mfac62697e6" x="0" y="121.302178" style="stroke: #000000; stroke-width: 0.8"/>
      </g>
     </g>
    </g>
    <g id="ytick_5">
     <g id="line2d_17">
      <path d="M 0 63.816238 
L 460.8 63.816238 
" clip-path="url(#pf648636f9a)" style="fill: none; stroke: #b0b0b0; stroke-width: 0.8; stroke-linecap: square"/>
     </g>
     <g id="line2d_18">
      <g>
       <use xlink:href="#mfac62697e6" x="0" y="63.816238" style="stroke: #000000; stroke-width: 0.8"/>
      </g>
     </g>
    </g>
    <g id="ytick_6">
     <g id="line2d_19">
      <path d="M 0 6.330297 
L 460.8 6.330297 
" clip-path="url(#pf648636f9a)" style="fill: none; stroke: #b0b0b0; stroke-width: 0.8; stroke-linecap: square"/>
     </g>
     <g id="line2d_20">
      <g>
       <use xlink:href="#mfac62697e6" x="0" y="6.330297" style="stroke: #000000; stroke-width: 0.8"/>
      </g>
     </g>
    </g>
   </g>
   <g id="line2d_21">
    <path d="M 159.106448 293.76 
L 159.106448 266.933228 
L 190.005741 266.933228 
L 190.005741 236.274059 
L 219.019884 236.274059 
L 219.019884 232.441663 
L 219.134343 232.441663 
L 219.134343 228.609267 
L 221.156988 228.609267 
L 221.156988 224.776871 
L 221.38623 224.776871 
L 221.38623 220.944475 
L 223.365415 220.944475 
L 223.365415 217.112079 
L 224.888341 217.112079 
L 224.999242 209.447287 
L 225.165331 209.447287 
L 225.165331 205.614891 
L 225.548238 205.614891 
L 225.548238 201.782495 
L 226.701793 201.782495 
L 226.701793 197.950099 
L 227.301176 197.950099 
L 227.301176 194.117703 
L 228.766999 194.117703 
L 228.766999 190.285307 
L 229.923968 190.285307 
L 229.923968 186.452911 
L 230.988721 186.452911 
L 230.988721 182.620515 
L 231.120722 182.620515 
L 231.120722 178.788119 
L 232.217554 178.788119 
L 232.217554 174.955723 
L 232.443867 174.955723 
L 232.443867 171.123327 
L 235.891909 171.123327 
L 235.891909 167.290931 
L 236.085063 167.290931 
L 236.085063 163.458535 
L 236.216564 163.458535 
L 236.216564 159.626139 
L 237.028912 159.626139 
L 237.028912 155.793743 
L 237.562699 155.793743 
L 237.562699 151.961347 
L 237.991414 151.961347 
L 237.991414 148.12895 
L 238.168048 148.12895 
L 238.248595 140.464158 
L 238.509166 140.464158 
L 238.509166 136.631762 
L 239.216411 136.631762 
L 239.216411 132.799366 
L 240.46084 132.799366 
L 240.46084 128.96697 
L 240.623184 128.96697 
L 240.623184 125.134574 
L 241.072334 125.134574 
L 241.072334 121.302178 
L 241.551589 121.302178 
L 241.551589 117.469782 
L 242.185198 117.469782 
L 242.185198 113.637386 
L 242.577849 113.637386 
L 242.577849 109.80499 
L 242.860086 109.80499 
L 242.860086 105.972594 
L 242.995756 105.972594 
L 242.995756 102.140198 
L 244.314374 102.140198 
L 244.314374 98.307802 
L 244.755628 98.307802 
L 244.863137 90.64301 
L 245.174584 90.64301 
L 245.174584 86.810614 
L 247.370199 86.810614 
L 247.370199 82.978218 
L 247.588883 82.978218 
L 247.588883 79.145822 
L 248.605122 79.145822 
L 248.614471 71.48103 
L 248.734159 71.48103 
L 248.734159 67.648634 
L 249.00482 67.648634 
L 249.00482 63.816238 
L 249.314331 63.816238 
L 249.314331 59.983842 
L 249.913699 59.983842 
L 249.913699 56.151446 
L 255.62019 56.151446 
L 255.62019 52.31905 
L 255.986143 52.31905 
L 255.99022 44.654257 
L 257.589003 44.654257 
L 257.589003 40.821861 
L 258.060563 40.821861 
L 258.060563 36.989465 
L 258.391417 36.989465 
L 258.391417 33.157069 
L 260.14508 33.157069 
L 260.14508 29.324673 
L 261.051828 29.324673 
L 261.051828 25.492277 
L 263.965575 25.492277 
L 263.965575 21.659881 
L 264.346965 21.659881 
L 264.346965 17.827485 
L 264.495344 17.827485 
L 264.497514 10.162693 
L 266.658297 10.162693 
L 266.658297 6.330297 
L 266.658297 6.330297 
L 460.8 6.330297 
L 460.8 6.330297 
" clip-path="url(#pf648636f9a)" style="fill: none; stroke: #ff0000; stroke-width: 3; stroke-linecap: square"/>
   </g>
   <g id="line2d_22">
    <path d="M 190.005741 293.76 
L 190.005741 236.274059 
L 224.899459 236.274059 
L 224.899459 232.441663 
L 226.701793 232.441663 
L 226.701793 228.609267 
L 228.025894 228.609267 
L 228.025894 224.776871 
L 230.537939 224.776871 
L 230.537939 220.944475 
L 231.430518 220.944475 
L 231.430518 217.112079 
L 231.783217 217.112079 
L 231.783217 213.279683 
L 231.968962 213.279683 
L 231.968962 209.447287 
L 233.828451 209.447287 
L 233.828451 205.614891 
L 234.1655 205.614891 
L 234.1655 201.782495 
L 235.22042 201.782495 
L 235.22042 197.950099 
L 236.712059 197.950099 
L 236.712059 194.117703 
L 237.004788 194.117703 
L 237.004788 190.285307 
L 242.033142 190.285307 
L 242.110587 182.620515 
L 243.921411 182.620515 
L 244.0287 174.955723 
L 244.946071 174.955723 
L 244.946071 171.123327 
L 245.333997 171.123327 
L 245.333997 167.290931 
L 247.370199 167.290931 
L 247.370199 163.458535 
L 250.868421 163.458535 
L 250.868421 159.626139 
L 251.62327 159.626139 
L 251.62327 155.793743 
L 252.04156 155.793743 
L 252.04156 151.961347 
L 252.709532 151.961347 
L 252.709532 148.12895 
L 253.530454 148.12895 
L 253.600989 140.464158 
L 253.701106 140.464158 
L 253.701106 136.631762 
L 253.934309 136.631762 
L 254.035646 125.134574 
L 254.305803 125.134574 
L 254.323106 117.469782 
L 255.299252 117.469782 
L 255.299252 113.637386 
L 255.537109 113.637386 
L 255.537109 109.80499 
L 256.227162 109.80499 
L 256.244961 102.140198 
L 256.912069 102.140198 
L 256.912069 98.307802 
L 257.326364 98.307802 
L 257.326364 94.475406 
L 258.131569 94.475406 
L 258.232729 86.810614 
L 258.623511 86.810614 
L 258.623511 82.978218 
L 258.939855 82.978218 
L 258.939855 79.145822 
L 259.520683 79.145822 
L 259.520683 75.313426 
L 260.071197 75.313426 
L 260.071197 71.48103 
L 260.387847 71.48103 
L 260.450982 63.816238 
L 260.77695 63.816238 
L 260.878918 52.31905 
L 261.095705 52.31905 
L 261.095705 48.486653 
L 261.460177 48.486653 
L 261.460177 44.654257 
L 263.682928 44.654257 
L 263.682928 40.821861 
L 263.969054 40.821861 
L 263.969054 36.989465 
L 264.534556 36.989465 
L 264.534556 33.157069 
L 264.87995 33.157069 
L 264.87995 29.324673 
L 265.268315 29.324673 
L 265.268315 25.492277 
L 265.575011 25.492277 
L 265.674529 17.827485 
L 269.864427 17.827485 
L 269.864427 13.995089 
L 271.848223 13.995089 
L 271.848223 10.162693 
L 273.210022 10.162693 
L 273.210022 6.330297 
L 273.210022 6.330297 
L 460.8 6.330297 
L 460.8 6.330297 
" clip-path="url(#pf648636f9a)" style="fill: none; stroke: #00bfbf; stroke-width: 1.5; stroke-linecap: square"/>
   </g>
   <g id="line2d_23">
    <path d="M 190.005741 293.76 
L 190.005741 236.274059 
L 220.117134 236.274059 
L 220.117134 232.441663 
L 222.408698 232.441663 
L 222.408698 228.609267 
L 225.23326 228.609267 
L 225.23326 224.776871 
L 226.701793 224.776871 
L 226.701793 220.944475 
L 227.301176 220.944475 
L 227.301176 217.112079 
L 227.762751 217.112079 
L 227.762751 213.279683 
L 228.766999 213.279683 
L 228.766999 209.447287 
L 229.667951 209.447287 
L 229.714938 201.782495 
L 230.537939 201.782495 
L 230.537939 197.950099 
L 231.120722 197.950099 
L 231.120722 194.117703 
L 233.828451 194.117703 
L 233.828451 190.285307 
L 234.678553 190.285307 
L 234.678553 186.452911 
L 235.891909 186.452911 
L 235.891909 182.620515 
L 236.216564 182.620515 
L 236.216564 178.788119 
L 237.822826 178.788119 
L 237.822826 174.955723 
L 238.320157 174.955723 
L 238.320157 171.123327 
L 239.568324 171.123327 
L 239.568324 167.290931 
L 240.623184 167.290931 
L 240.623184 163.458535 
L 241.072334 163.458535 
L 241.072334 159.626139 
L 241.545504 159.626139 
L 241.551589 151.961347 
L 242.860086 151.961347 
L 242.860086 148.12895 
L 244.97115 148.12895 
L 244.97115 144.296554 
L 245.978408 144.296554 
L 245.978408 140.464158 
L 247.370199 140.464158 
L 247.425015 132.799366 
L 247.767215 132.799366 
L 247.767215 128.96697 
L 247.991352 128.96697 
L 247.991352 125.134574 
L 249.00482 125.134574 
L 249.00482 121.302178 
L 249.765593 121.302178 
L 249.765593 117.469782 
L 250.287858 117.469782 
L 250.287858 113.637386 
L 250.630126 113.637386 
L 250.630126 109.80499 
L 250.799556 109.80499 
L 250.799556 105.972594 
L 251.211794 105.972594 
L 251.262019 98.307802 
L 251.875825 98.307802 
L 251.875825 94.475406 
L 252.684503 94.475406 
L 252.684503 90.64301 
L 253.266234 90.64301 
L 253.299595 82.978218 
L 253.82676 82.978218 
L 253.82676 79.145822 
L 254.032808 79.145822 
L 254.032808 75.313426 
L 254.76578 75.313426 
L 254.76578 71.48103 
L 256.261014 71.48103 
L 256.261014 67.648634 
L 257.589003 67.648634 
L 257.589003 63.816238 
L 258.364174 63.816238 
L 258.419415 56.151446 
L 259.348351 56.151446 
L 259.348351 52.31905 
L 260.169106 52.31905 
L 260.225925 44.654257 
L 260.77695 44.654257 
L 260.77695 40.821861 
L 261.441296 40.821861 
L 261.441296 36.989465 
L 263.495928 36.989465 
L 263.495928 33.157069 
L 264.346965 33.157069 
L 264.346965 29.324673 
L 264.495344 29.324673 
L 264.497514 21.659881 
L 265.098483 21.659881 
L 265.098483 17.827485 
L 266.783562 17.827485 
L 266.783562 13.995089 
L 269.798609 13.995089 
L 269.798609 10.162693 
L 270.105427 10.162693 
L 270.105427 6.330297 
L 270.105427 6.330297 
L 460.8 6.330297 
L 460.8 6.330297 
" clip-path="url(#pf648636f9a)" style="fill: none; stroke: #bf00bf; stroke-width: 1.5; stroke-linecap: square"/>
   </g>
   <g id="line2d_24">
    <path d="M 190.005741 293.76 
L 190.005741 236.274059 
L 219.963093 236.274059 
L 219.963093 232.441663 
L 220.474311 232.441663 
L 220.474311 228.609267 
L 223.359267 228.609267 
L 223.379794 220.944475 
L 226.701793 220.944475 
L 226.701793 217.112079 
L 227.301176 217.112079 
L 227.301176 213.279683 
L 228.006021 213.279683 
L 228.076289 205.614891 
L 228.142721 205.614891 
L 228.142721 201.782495 
L 228.766999 201.782495 
L 228.766999 197.950099 
L 230.234906 197.950099 
L 230.234906 194.117703 
L 231.120722 194.117703 
L 231.120722 190.285307 
L 233.351571 190.285307 
L 233.351571 186.452911 
L 234.862169 186.452911 
L 234.862169 182.620515 
L 235.719328 182.620515 
L 235.719328 178.788119 
L 235.891909 178.788119 
L 235.891909 174.955723 
L 236.216564 174.955723 
L 236.216564 171.123327 
L 236.372346 171.123327 
L 236.372346 167.290931 
L 238.025578 167.290931 
L 238.025578 163.458535 
L 240.397378 163.458535 
L 240.397378 159.626139 
L 240.623184 159.626139 
L 240.645279 151.961347 
L 240.839634 151.961347 
L 240.839634 148.12895 
L 241.072334 148.12895 
L 241.174319 140.464158 
L 241.551589 140.464158 
L 241.551589 136.631762 
L 241.920059 136.631762 
L 241.920059 132.799366 
L 242.860086 132.799366 
L 242.860086 128.96697 
L 244.97115 128.96697 
L 244.97115 125.134574 
L 245.625806 125.134574 
L 245.625806 121.302178 
L 245.833278 121.302178 
L 245.833278 117.469782 
L 245.978408 117.469782 
L 245.978408 113.637386 
L 247.12382 113.637386 
L 247.12382 109.80499 
L 247.370199 109.80499 
L 247.370199 105.972594 
L 247.519834 105.972594 
L 247.519834 102.140198 
L 247.767215 102.140198 
L 247.767215 98.307802 
L 248.288086 98.307802 
L 248.288086 94.475406 
L 248.94522 94.475406 
L 249.00482 86.810614 
L 249.314331 86.810614 
L 249.314331 82.978218 
L 249.431538 82.978218 
L 249.431538 79.145822 
L 249.642724 79.145822 
L 249.642724 75.313426 
L 250.003046 75.313426 
L 250.003046 71.48103 
L 251.262019 71.48103 
L 251.262019 67.648634 
L 252.129104 67.648634 
L 252.129104 63.816238 
L 252.866707 63.816238 
L 252.866707 59.983842 
L 253.170457 59.983842 
L 253.170457 56.151446 
L 257.412106 56.151446 
L 257.412106 52.31905 
L 257.589003 52.31905 
L 257.589003 48.486653 
L 258.105161 48.486653 
L 258.105161 44.654257 
L 260.059367 44.654257 
L 260.169106 36.989465 
L 260.403972 36.989465 
L 260.403972 33.157069 
L 263.495928 33.157069 
L 263.495928 29.324673 
L 264.346965 29.324673 
L 264.346965 25.492277 
L 264.495344 25.492277 
L 264.497514 17.827485 
L 266.783562 17.827485 
L 266.783562 13.995089 
L 267.451679 13.995089 
L 267.451679 10.162693 
L 269.990171 10.162693 
L 269.990171 6.330297 
L 269.990171 6.330297 
L 460.8 6.330297 
L 460.8 6.330297 
" clip-path="url(#pf648636f9a)" style="fill: none; stroke: #000000; stroke-width: 1.5; stroke-linecap: square"/>
   </g>
   <g id="line2d_25">
    <path d="M 160.777682 293.76 
L 160.777682 289.927604 
L 160.942611 289.927604 
L 160.942611 286.095208 
L 161.998969 286.095208 
L 161.998969 282.262812 
L 162.678626 282.262812 
L 162.678626 278.430416 
L 163.884962 278.430416 
L 163.884962 274.59802 
L 164.845543 274.59802 
L 164.845543 270.765624 
L 166.61584 270.765624 
L 166.61584 266.933228 
L 190.005741 266.933228 
L 190.005741 236.274059 
L 219.021392 236.274059 
L 219.021392 232.441663 
L 219.135778 232.441663 
L 219.135778 228.609267 
L 221.287085 228.609267 
L 221.287085 224.776871 
L 221.699232 224.776871 
L 221.699232 220.944475 
L 225.002023 220.944475 
L 225.036264 213.279683 
L 226.296702 213.279683 
L 226.296702 209.447287 
L 226.701793 209.447287 
L 226.719975 201.782495 
L 227.301176 201.782495 
L 227.301176 197.950099 
L 228.766999 197.950099 
L 228.766999 194.117703 
L 230.9965 194.117703 
L 230.9965 190.285307 
L 231.120722 190.285307 
L 231.120722 186.452911 
L 232.5399 186.452911 
L 232.5399 182.620515 
L 232.715762 182.620515 
L 232.715762 178.788119 
L 233.351571 178.788119 
L 233.351571 174.955723 
L 234.447246 174.955723 
L 234.447246 171.123327 
L 235.891909 171.123327 
L 235.891909 167.290931 
L 236.138324 167.290931 
L 236.216564 159.626139 
L 237.196563 159.626139 
L 237.196563 155.793743 
L 238.001203 155.793743 
L 238.001203 151.961347 
L 238.183105 151.961347 
L 238.183105 148.12895 
L 238.703665 148.12895 
L 238.703665 144.296554 
L 240.471478 144.296554 
L 240.471478 140.464158 
L 240.623184 140.464158 
L 240.623184 136.631762 
L 241.072334 136.631762 
L 241.072334 132.799366 
L 241.551589 132.799366 
L 241.551589 128.96697 
L 242.578675 128.96697 
L 242.578675 125.134574 
L 242.860086 125.134574 
L 242.860086 121.302178 
L 243.00879 121.302178 
L 243.00879 117.469782 
L 243.598151 117.469782 
L 243.598151 113.637386 
L 244.763046 113.637386 
L 244.763046 109.80499 
L 245.314133 109.80499 
L 245.314133 105.972594 
L 245.71163 105.972594 
L 245.71163 102.140198 
L 245.893002 102.140198 
L 245.893002 98.307802 
L 246.415887 98.307802 
L 246.415887 94.475406 
L 247.370199 94.475406 
L 247.370199 90.64301 
L 247.767215 90.64301 
L 247.767215 86.810614 
L 248.610772 86.810614 
L 248.610772 82.978218 
L 248.94522 82.978218 
L 249.00482 75.313426 
L 249.314331 75.313426 
L 249.314331 71.48103 
L 249.845516 71.48103 
L 249.845516 67.648634 
L 251.262019 67.648634 
L 251.262019 63.816238 
L 252.123105 63.816238 
L 252.124467 56.151446 
L 256.152597 56.151446 
L 256.218057 48.486653 
L 256.270733 48.486653 
L 256.270733 44.654257 
L 257.589003 44.654257 
L 257.589003 40.821861 
L 258.547885 40.821861 
L 258.547885 36.989465 
L 260.148355 36.989465 
L 260.148355 33.157069 
L 263.495928 33.157069 
L 263.495928 29.324673 
L 264.346965 29.324673 
L 264.346965 25.492277 
L 264.495344 25.492277 
L 264.497514 17.827485 
L 266.666493 17.827485 
L 266.666493 13.995089 
L 266.783562 13.995089 
L 266.783562 10.162693 
L 268.249765 10.162693 
L 268.249765 6.330297 
L 268.249765 6.330297 
L 460.8 6.330297 
L 460.8 6.330297 
" clip-path="url(#pf648636f9a)" style="fill: none; stroke: #00bfbf; stroke-width: 1.5; stroke-linecap: square"/>
   </g>
   <g id="patch_3">
    <path d="M 0 293.76 
L 0 3.456 
" style="fill: none; stroke: #000000; stroke-width: 0.8; stroke-linejoin: miter; stroke-linecap: square"/>
   </g>
   <g id="patch_4">
    <path d="M 460.8 293.76 
L 460.8 3.456 
" style="fill: none; stroke: #000000; stroke-width: 0.8; stroke-linejoin: miter; stroke-linecap: square"/>
   </g>
   <g id="patch_5">
    <path d="M 0 293.76 
L 460.8 293.76 
" style="fill: none; stroke: #000000; stroke-width: 0.8; stroke-linejoin: miter; stroke-linecap: square"/>
   </g>
   <g id="patch_6">
    <path d="M 0 3.456 
L 460.8 3.456 
" style="fill: none; stroke: #000000; stroke-width: 0.8; stroke-linejoin: miter; stroke-linecap: square"/>
   </g>
   <g id="text_6">
    <!-- {f15-f19}, 5-D -->
    <g transform="translate(305.884 287.95392) scale(0.2 -0.2)">
     <defs>
      <path id="DejaVuSans-7b" d="M 3272 -594 
L 3272 -1044 
L 3078 -1044 
Q 2300 -1044 2036 -812 
Q 1772 -581 1772 109 
L 1772 856 
Q 1772 1328 1603 1509 
Q 1434 1691 991 1691 
L 800 1691 
L 800 2138 
L 991 2138 
Q 1438 2138 1605 2317 
Q 1772 2497 1772 2963 
L 1772 3713 
Q 1772 4403 2036 4633 
Q 2300 4863 3078 4863 
L 3272 4863 
L 3272 4416 
L 3059 4416 
Q 2619 4416 2484 4278 
Q 2350 4141 2350 3700 
L 2350 2925 
Q 2350 2434 2208 2212 
Q 2066 1991 1722 1913 
Q 2069 1828 2209 1606 
Q 2350 1384 2350 897 
L 2350 122 
Q 2350 -319 2484 -456 
Q 2619 -594 3059 -594 
L 3272 -594 
z
" transform="scale(0.015625)"/>
      <path id="DejaVuSans-35" d="M 691 4666 
L 3169 4666 
L 3169 4134 
L 1269 4134 
L 1269 2991 
Q 1406 3038 1543 3061 
Q 1681 3084 1819 3084 
Q 2600 3084 3056 2656 
Q 3513 2228 3513 1497 
Q 3513 744 3044 326 
Q 2575 -91 1722 -91 
Q 1428 -91 1123 -41 
Q 819 9 494 109 
L 494 744 
Q 775 591 1075 516 
Q 1375 441 1709 441 
Q 2250 441 2565 725 
Q 2881 1009 2881 1497 
Q 2881 1984 2565 2268 
Q 2250 2553 1709 2553 
Q 1456 2553 1204 2497 
Q 953 2441 691 2322 
L 691 4666 
z
" transform="scale(0.015625)"/>
      <path id="DejaVuSans-39" d="M 703 97 
L 703 672 
Q 941 559 1184 500 
Q 1428 441 1663 441 
Q 2288 441 2617 861 
Q 2947 1281 2994 2138 
Q 2813 1869 2534 1725 
Q 2256 1581 1919 1581 
Q 1219 1581 811 2004 
Q 403 2428 403 3163 
Q 403 3881 828 4315 
Q 1253 4750 1959 4750 
Q 2769 4750 3195 4129 
Q 3622 3509 3622 2328 
Q 3622 1225 3098 567 
Q 2575 -91 1691 -91 
Q 1453 -91 1209 -44 
Q 966 3 703 97 
z
M 1959 2075 
Q 2384 2075 2632 2365 
Q 2881 2656 2881 3163 
Q 2881 3666 2632 3958 
Q 2384 4250 1959 4250 
Q 1534 4250 1286 3958 
Q 1038 3666 1038 3163 
Q 1038 2656 1286 2365 
Q 1534 2075 1959 2075 
z
" transform="scale(0.015625)"/>
      <path id="DejaVuSans-7d" d="M 800 -594 
L 1019 -594 
Q 1456 -594 1589 -459 
Q 1722 -325 1722 122 
L 1722 897 
Q 1722 1384 1862 1606 
Q 2003 1828 2350 1913 
Q 2003 1991 1862 2212 
Q 1722 2434 1722 2925 
L 1722 3700 
Q 1722 4144 1589 4280 
Q 1456 4416 1019 4416 
L 800 4416 
L 800 4863 
L 997 4863 
Q 1775 4863 2036 4633 
Q 2297 4403 2297 3713 
L 2297 2963 
Q 2297 2497 2465 2317 
Q 2634 2138 3078 2138 
L 3272 2138 
L 3272 1691 
L 3078 1691 
Q 2634 1691 2465 1509 
Q 2297 1328 2297 856 
L 2297 109 
Q 2297 -581 2036 -812 
Q 1775 -1044 997 -1044 
L 800 -1044 
L 800 -594 
z
" transform="scale(0.015625)"/>
      <path id="DejaVuSans-2c" d="M 750 794 
L 1409 794 
L 1409 256 
L 897 -744 
L 494 -744 
L 750 256 
L 750 794 
z
" transform="scale(0.015625)"/>
     </defs>
     <use xlink:href="#DejaVuSans-7b"/>
     <use xlink:href="#DejaVuSans-66" x="63.623047"/>
     <use xlink:href="#DejaVuSans-31" x="98.828125"/>
     <use xlink:href="#DejaVuSans-35" x="162.451172"/>
     <use xlink:href="#DejaVuSans-2d" x="226.074219"/>
     <use xlink:href="#DejaVuSans-66" x="262.158203"/>
     <use xlink:href="#DejaVuSans-31" x="297.363281"/>
     <use xlink:href="#DejaVuSans-39" x="360.986328"/>
     <use xlink:href="#DejaVuSans-7d" x="424.609375"/>
     <use xlink:href="#DejaVuSans-2c" x="488.232422"/>
     <use xlink:href="#DejaVuSans-20" x="520.019531"/>
     <use xlink:href="#DejaVuSans-35" x="551.806641"/>
     <use xlink:href="#DejaVuSans-2d" x="615.429688"/>
     <use xlink:href="#DejaVuSans-44" x="651.513672"/>
    </g>
   </g>
   <g id="text_7">
    <!-- v2.6.3 -->
    <g style="fill: #808080" transform="translate(214.71875 288.777272) scale(0.1 -0.1)">
     <defs>
      <path id="DejaVuSans-76" d="M 191 3500 
L 800 3500 
L 1894 563 
L 2988 3500 
L 3597 3500 
L 2284 0 
L 1503 0 
L 191 3500 
z
" transform="scale(0.015625)"/>
      <path id="DejaVuSans-32" d="M 1228 531 
L 3431 531 
L 3431 0 
L 469 0 
L 469 531 
Q 828 903 1448 1529 
Q 2069 2156 2228 2338 
Q 2531 2678 2651 2914 
Q 2772 3150 2772 3378 
Q 2772 3750 2511 3984 
Q 2250 4219 1831 4219 
Q 1534 4219 1204 4116 
Q 875 4013 500 3803 
L 500 4441 
Q 881 4594 1212 4672 
Q 1544 4750 1819 4750 
Q 2544 4750 2975 4387 
Q 3406 4025 3406 3419 
Q 3406 3131 3298 2873 
Q 3191 2616 2906 2266 
Q 2828 2175 2409 1742 
Q 1991 1309 1228 531 
z
" transform="scale(0.015625)"/>
      <path id="DejaVuSans-2e" d="M 684 794 
L 1344 794 
L 1344 0 
L 684 0 
L 684 794 
z
" transform="scale(0.015625)"/>
      <path id="DejaVuSans-36" d="M 2113 2584 
Q 1688 2584 1439 2293 
Q 1191 2003 1191 1497 
Q 1191 994 1439 701 
Q 1688 409 2113 409 
Q 2538 409 2786 701 
Q 3034 994 3034 1497 
Q 3034 2003 2786 2293 
Q 2538 2584 2113 2584 
z
M 3366 4563 
L 3366 3988 
Q 3128 4100 2886 4159 
Q 2644 4219 2406 4219 
Q 1781 4219 1451 3797 
Q 1122 3375 1075 2522 
Q 1259 2794 1537 2939 
Q 1816 3084 2150 3084 
Q 2853 3084 3261 2657 
Q 3669 2231 3669 1497 
Q 3669 778 3244 343 
Q 2819 -91 2113 -91 
Q 1303 -91 875 529 
Q 447 1150 447 2328 
Q 447 3434 972 4092 
Q 1497 4750 2381 4750 
Q 2619 4750 2861 4703 
Q 3103 4656 3366 4563 
z
" transform="scale(0.015625)"/>
      <path id="DejaVuSans-33" d="M 2597 2516 
Q 3050 2419 3304 2112 
Q 3559 1806 3559 1356 
Q 3559 666 3084 287 
Q 2609 -91 1734 -91 
Q 1441 -91 1130 -33 
Q 819 25 488 141 
L 488 750 
Q 750 597 1062 519 
Q 1375 441 1716 441 
Q 2309 441 2620 675 
Q 2931 909 2931 1356 
Q 2931 1769 2642 2001 
Q 2353 2234 1838 2234 
L 1294 2234 
L 1294 2753 
L 1863 2753 
Q 2328 2753 2575 2939 
Q 2822 3125 2822 3475 
Q 2822 3834 2567 4026 
Q 2313 4219 1838 4219 
Q 1578 4219 1281 4162 
Q 984 4106 628 3988 
L 628 4550 
Q 988 4650 1302 4700 
Q 1616 4750 1894 4750 
Q 2613 4750 3031 4423 
Q 3450 4097 3450 3541 
Q 3450 3153 3228 2886 
Q 3006 2619 2597 2516 
z
" transform="scale(0.015625)"/>
     </defs>
     <use xlink:href="#DejaVuSans-76"/>
     <use xlink:href="#DejaVuSans-32" x="59.179688"/>
     <use xlink:href="#DejaVuSans-2e" x="122.802734"/>
     <use xlink:href="#DejaVuSans-36" x="154.589844"/>
     <use xlink:href="#DejaVuSans-2e" x="218.212891"/>
     <use xlink:href="#DejaVuSans-33" x="250"/>
    </g>
   </g>
  </g>
 </g>
 <defs>
  <clipPath id="pf648636f9a">
   <rect x="0" y="3.456" width="460.8" height="290.304"/>
  </clipPath>
 </defs>
</svg>
