<?xml version="1.0" encoding="utf-8" standalone="no"?>
<!DOCTYPE svg PUBLIC "-//W3C//DTD SVG 1.1//EN"
  "http://www.w3.org/Graphics/SVG/1.1/DTD/svg11.dtd">
<svg xmlns:xlink="http://www.w3.org/1999/xlink" width="460.8pt" height="345.6pt" viewBox="0 0 460.8 345.6" xmlns="http://www.w3.org/2000/svg" version="1.1">
 <metadata>
  <rdf:RDF xmlns:dc="http://purl.org/dc/elements/1.1/" xmlns:cc="http://creativecommons.org/ns#" xmlns:rdf="http://www.w3.org/1999/02/22-rdf-syntax-ns#">
   <cc:Work>
    <dc:type rdf:resource="http://purl.org/dc/dcmitype/StillImage"/>
    <dc:date>2024-01-25T18:16:41.913982</dc:date>
    <dc:format>image/svg+xml</dc:format>
    <dc:creator>
     <cc:Agent>
      <dc:title>Matplotlib v3.8.2, https://matplotlib.org/</dc:title>
     </cc:Agent>
    </dc:creator>
   </cc:Work>
  </rdf:RDF>
 </metadata>
 <defs>
  <style type="text/css">*{stroke-linejoin: round; stroke-linecap: butt}</style>
 </defs>
 <g id="figure_1">
  <g id="patch_1">
   <path d="M 0 345.6 
L 460.8 345.6 
L 460.8 0 
L 0 0 
z
" style="fill: #ffffff"/>
  </g>
  <g id="axes_1">
   <g id="patch_2">
    <path d="M 0 293.76 
L 460.8 293.76 
L 460.8 3.456 
L 0 3.456 
z
" style="fill: #ffffff"/>
   </g>
   <g id="matplotlib.axis_1">
    <g id="xtick_1">
     <g id="line2d_1">
      <path d="M 102.674388 293.76 
L 102.674388 3.456 
" clip-path="url(#p0faf167c12)" style="fill: none; stroke: #b0b0b0; stroke-width: 0.8; stroke-linecap: square"/>
     </g>
     <g id="line2d_2">
      <defs>
       <path id="maf4d9585c8" d="M 0 0 
L 0 3.5 
" style="stroke: #000000; stroke-width: 0.8"/>
      </defs>
      <g>
       <use xlink:href="#maf4d9585c8" x="102.674388" y="293.76" style="stroke: #000000; stroke-width: 0.8"/>
      </g>
     </g>
     <g id="text_1">
      <!-- -4 -->
      <g transform="translate(92.704075 315.956875) scale(0.2 -0.2)">
       <defs>
        <path id="DejaVuSans-2d" d="M 313 2009 
L 1997 2009 
L 1997 1497 
L 313 1497 
L 313 2009 
z
" transform="scale(0.015625)"/>
        <path id="DejaVuSans-34" d="M 2419 4116 
L 825 1625 
L 2419 1625 
L 2419 4116 
z
M 2253 4666 
L 3047 4666 
L 3047 1625 
L 3713 1625 
L 3713 1100 
L 3047 1100 
L 3047 0 
L 2419 0 
L 2419 1100 
L 313 1100 
L 313 1709 
L 2253 4666 
z
" transform="scale(0.015625)"/>
       </defs>
       <use xlink:href="#DejaVuSans-2d"/>
       <use xlink:href="#DejaVuSans-34" x="36.083984"/>
      </g>
     </g>
    </g>
    <g id="xtick_2">
     <g id="line2d_3">
      <path d="M 205.459819 293.76 
L 205.459819 3.456 
" clip-path="url(#p0faf167c12)" style="fill: none; stroke: #b0b0b0; stroke-width: 0.8; stroke-linecap: square"/>
     </g>
     <g id="line2d_4">
      <g>
       <use xlink:href="#maf4d9585c8" x="205.459819" y="293.76" style="stroke: #000000; stroke-width: 0.8"/>
      </g>
     </g>
     <g id="text_2">
      <!-- 0 -->
      <g transform="translate(199.097319 315.956875) scale(0.2 -0.2)">
       <defs>
        <path id="DejaVuSans-30" d="M 2034 4250 
Q 1547 4250 1301 3770 
Q 1056 3291 1056 2328 
Q 1056 1369 1301 889 
Q 1547 409 2034 409 
Q 2525 409 2770 889 
Q 3016 1369 3016 2328 
Q 3016 3291 2770 3770 
Q 2525 4250 2034 4250 
z
M 2034 4750 
Q 2819 4750 3233 4129 
Q 3647 3509 3647 2328 
Q 3647 1150 3233 529 
Q 2819 -91 2034 -91 
Q 1250 -91 836 529 
Q 422 1150 422 2328 
Q 422 3509 836 4129 
Q 1250 4750 2034 4750 
z
" transform="scale(0.015625)"/>
       </defs>
       <use xlink:href="#DejaVuSans-30"/>
      </g>
     </g>
    </g>
    <g id="xtick_3">
     <g id="line2d_5">
      <path d="M 308.24525 293.76 
L 308.24525 3.456 
" clip-path="url(#p0faf167c12)" style="fill: none; stroke: #b0b0b0; stroke-width: 0.8; stroke-linecap: square"/>
     </g>
     <g id="line2d_6">
      <g>
       <use xlink:href="#maf4d9585c8" x="308.24525" y="293.76" style="stroke: #000000; stroke-width: 0.8"/>
      </g>
     </g>
     <g id="text_3">
      <!-- 4 -->
      <g transform="translate(301.88275 315.956875) scale(0.2 -0.2)">
       <use xlink:href="#DejaVuSans-34"/>
      </g>
     </g>
    </g>
    <g id="xtick_4">
     <g id="line2d_7">
      <path d="M 411.030681 293.76 
L 411.030681 3.456 
" clip-path="url(#p0faf167c12)" style="fill: none; stroke: #b0b0b0; stroke-width: 0.8; stroke-linecap: square"/>
     </g>
     <g id="line2d_8">
      <g>
       <use xlink:href="#maf4d9585c8" x="411.030681" y="293.76" style="stroke: #000000; stroke-width: 0.8"/>
      </g>
     </g>
     <g id="text_4">
      <!-- 8 -->
      <g transform="translate(404.668181 315.956875) scale(0.2 -0.2)">
       <defs>
        <path id="DejaVuSans-38" d="M 2034 2216 
Q 1584 2216 1326 1975 
Q 1069 1734 1069 1313 
Q 1069 891 1326 650 
Q 1584 409 2034 409 
Q 2484 409 2743 651 
Q 3003 894 3003 1313 
Q 3003 1734 2745 1975 
Q 2488 2216 2034 2216 
z
M 1403 2484 
Q 997 2584 770 2862 
Q 544 3141 544 3541 
Q 544 4100 942 4425 
Q 1341 4750 2034 4750 
Q 2731 4750 3128 4425 
Q 3525 4100 3525 3541 
Q 3525 3141 3298 2862 
Q 3072 2584 2669 2484 
Q 3125 2378 3379 2068 
Q 3634 1759 3634 1313 
Q 3634 634 3220 271 
Q 2806 -91 2034 -91 
Q 1263 -91 848 271 
Q 434 634 434 1313 
Q 434 1759 690 2068 
Q 947 2378 1403 2484 
z
M 1172 3481 
Q 1172 3119 1398 2916 
Q 1625 2713 2034 2713 
Q 2441 2713 2670 2916 
Q 2900 3119 2900 3481 
Q 2900 3844 2670 4047 
Q 2441 4250 2034 4250 
Q 1625 4250 1398 4047 
Q 1172 3844 1172 3481 
z
" transform="scale(0.015625)"/>
       </defs>
       <use xlink:href="#DejaVuSans-38"/>
      </g>
     </g>
    </g>
    <g id="text_5">
     <!-- log10 of Df -->
     <g transform="translate(175.214063 339.313125) scale(0.2 -0.2)">
      <defs>
       <path id="DejaVuSans-6c" d="M 603 4863 
L 1178 4863 
L 1178 0 
L 603 0 
L 603 4863 
z
" transform="scale(0.015625)"/>
       <path id="DejaVuSans-6f" d="M 1959 3097 
Q 1497 3097 1228 2736 
Q 959 2375 959 1747 
Q 959 1119 1226 758 
Q 1494 397 1959 397 
Q 2419 397 2687 759 
Q 2956 1122 2956 1747 
Q 2956 2369 2687 2733 
Q 2419 3097 1959 3097 
z
M 1959 3584 
Q 2709 3584 3137 3096 
Q 3566 2609 3566 1747 
Q 3566 888 3137 398 
Q 2709 -91 1959 -91 
Q 1206 -91 779 398 
Q 353 888 353 1747 
Q 353 2609 779 3096 
Q 1206 3584 1959 3584 
z
" transform="scale(0.015625)"/>
       <path id="DejaVuSans-67" d="M 2906 1791 
Q 2906 2416 2648 2759 
Q 2391 3103 1925 3103 
Q 1463 3103 1205 2759 
Q 947 2416 947 1791 
Q 947 1169 1205 825 
Q 1463 481 1925 481 
Q 2391 481 2648 825 
Q 2906 1169 2906 1791 
z
M 3481 434 
Q 3481 -459 3084 -895 
Q 2688 -1331 1869 -1331 
Q 1566 -1331 1297 -1286 
Q 1028 -1241 775 -1147 
L 775 -588 
Q 1028 -725 1275 -790 
Q 1522 -856 1778 -856 
Q 2344 -856 2625 -561 
Q 2906 -266 2906 331 
L 2906 616 
Q 2728 306 2450 153 
Q 2172 0 1784 0 
Q 1141 0 747 490 
Q 353 981 353 1791 
Q 353 2603 747 3093 
Q 1141 3584 1784 3584 
Q 2172 3584 2450 3431 
Q 2728 3278 2906 2969 
L 2906 3500 
L 3481 3500 
L 3481 434 
z
" transform="scale(0.015625)"/>
       <path id="DejaVuSans-31" d="M 794 531 
L 1825 531 
L 1825 4091 
L 703 3866 
L 703 4441 
L 1819 4666 
L 2450 4666 
L 2450 531 
L 3481 531 
L 3481 0 
L 794 0 
L 794 531 
z
" transform="scale(0.015625)"/>
       <path id="DejaVuSans-20" transform="scale(0.015625)"/>
       <path id="DejaVuSans-66" d="M 2375 4863 
L 2375 4384 
L 1825 4384 
Q 1516 4384 1395 4259 
Q 1275 4134 1275 3809 
L 1275 3500 
L 2222 3500 
L 2222 3053 
L 1275 3053 
L 1275 0 
L 697 0 
L 697 3053 
L 147 3053 
L 147 3500 
L 697 3500 
L 697 3744 
Q 697 4328 969 4595 
Q 1241 4863 1831 4863 
L 2375 4863 
z
" transform="scale(0.015625)"/>
       <path id="DejaVuSans-44" d="M 1259 4147 
L 1259 519 
L 2022 519 
Q 2988 519 3436 956 
Q 3884 1394 3884 2338 
Q 3884 3275 3436 3711 
Q 2988 4147 2022 4147 
L 1259 4147 
z
M 628 4666 
L 1925 4666 
Q 3281 4666 3915 4102 
Q 4550 3538 4550 2338 
Q 4550 1131 3912 565 
Q 3275 0 1925 0 
L 628 0 
L 628 4666 
z
" transform="scale(0.015625)"/>
      </defs>
      <use xlink:href="#DejaVuSans-6c"/>
      <use xlink:href="#DejaVuSans-6f" x="27.783203"/>
      <use xlink:href="#DejaVuSans-67" x="88.964844"/>
      <use xlink:href="#DejaVuSans-31" x="152.441406"/>
      <use xlink:href="#DejaVuSans-30" x="216.064453"/>
      <use xlink:href="#DejaVuSans-20" x="279.6875"/>
      <use xlink:href="#DejaVuSans-6f" x="311.474609"/>
      <use xlink:href="#DejaVuSans-66" x="372.65625"/>
      <use xlink:href="#DejaVuSans-20" x="407.861328"/>
      <use xlink:href="#DejaVuSans-44" x="439.648438"/>
      <use xlink:href="#DejaVuSans-66" x="516.650391"/>
     </g>
    </g>
   </g>
   <g id="matplotlib.axis_2">
    <g id="ytick_1">
     <g id="line2d_9">
      <path d="M 0 293.76 
L 460.8 293.76 
" clip-path="url(#p0faf167c12)" style="fill: none; stroke: #b0b0b0; stroke-width: 0.8; stroke-linecap: square"/>
     </g>
     <g id="line2d_10">
      <defs>
       <path id="m995a90f3c6" d="M 0 0 
L -3.5 0 
" style="stroke: #000000; stroke-width: 0.8"/>
      </defs>
      <g>
       <use xlink:href="#m995a90f3c6" x="0" y="293.76" style="stroke: #000000; stroke-width: 0.8"/>
      </g>
     </g>
    </g>
    <g id="ytick_2">
     <g id="line2d_11">
      <path d="M 0 236.274059 
L 460.8 236.274059 
" clip-path="url(#p0faf167c12)" style="fill: none; stroke: #b0b0b0; stroke-width: 0.8; stroke-linecap: square"/>
     </g>
     <g id="line2d_12">
      <g>
       <use xlink:href="#m995a90f3c6" x="0" y="236.274059" style="stroke: #000000; stroke-width: 0.8"/>
      </g>
     </g>
    </g>
    <g id="ytick_3">
     <g id="line2d_13">
      <path d="M 0 178.788119 
L 460.8 178.788119 
" clip-path="url(#p0faf167c12)" style="fill: none; stroke: #b0b0b0; stroke-width: 0.8; stroke-linecap: square"/>
     </g>
     <g id="line2d_14">
      <g>
       <use xlink:href="#m995a90f3c6" x="0" y="178.788119" style="stroke: #000000; stroke-width: 0.8"/>
      </g>
     </g>
    </g>
    <g id="ytick_4">
     <g id="line2d_15">
      <path d="M 0 121.302178 
L 460.8 121.302178 
" clip-path="url(#p0faf167c12)" style="fill: none; stroke: #b0b0b0; stroke-width: 0.8; stroke-linecap: square"/>
     </g>
     <g id="line2d_16">
      <g>
       <use xlink:href="#m995a90f3c6" x="0" y="121.302178" style="stroke: #000000; stroke-width: 0.8"/>
      </g>
     </g>
    </g>
    <g id="ytick_5">
     <g id="line2d_17">
      <path d="M 0 63.816238 
L 460.8 63.816238 
" clip-path="url(#p0faf167c12)" style="fill: none; stroke: #b0b0b0; stroke-width: 0.8; stroke-linecap: square"/>
     </g>
     <g id="line2d_18">
      <g>
       <use xlink:href="#m995a90f3c6" x="0" y="63.816238" style="stroke: #000000; stroke-width: 0.8"/>
      </g>
     </g>
    </g>
    <g id="ytick_6">
     <g id="line2d_19">
      <path d="M 0 6.330297 
L 460.8 6.330297 
" clip-path="url(#p0faf167c12)" style="fill: none; stroke: #b0b0b0; stroke-width: 0.8; stroke-linecap: square"/>
     </g>
     <g id="line2d_20">
      <g>
       <use xlink:href="#m995a90f3c6" x="0" y="6.330297" style="stroke: #000000; stroke-width: 0.8"/>
      </g>
     </g>
    </g>
   </g>
   <g id="line2d_21">
    <path d="M 128.191667 293.76 
L 128.191667 289.927604 
L 133.910463 289.927604 
L 133.910463 286.095208 
L 136.760804 286.095208 
L 136.760804 282.262812 
L 137.458344 282.262812 
L 137.458344 278.430416 
L 138.101216 278.430416 
L 138.101216 274.59802 
L 138.212513 274.59802 
L 138.212513 270.765624 
L 183.298215 270.765624 
L 183.298215 266.933228 
L 187.537376 266.933228 
L 187.537376 263.100832 
L 192.057493 263.100832 
L 192.057493 259.268436 
L 196.196542 259.268436 
L 196.196542 255.43604 
L 206.953356 255.43604 
L 206.953356 251.603644 
L 209.959576 251.603644 
L 209.959576 247.771248 
L 210.573105 247.771248 
L 210.573105 243.938851 
L 210.906337 243.938851 
L 210.906337 240.106455 
L 211.697783 240.106455 
L 211.697783 236.274059 
L 213.807667 236.274059 
L 213.807667 232.441663 
L 216.64811 232.441663 
L 216.64811 228.609267 
L 218.446825 228.609267 
L 218.446825 224.776871 
L 226.068931 224.776871 
L 226.068931 220.944475 
L 226.623015 220.944475 
L 226.623015 217.112079 
L 227.310723 217.112079 
L 227.310723 213.279683 
L 228.057808 213.279683 
L 228.057808 209.447287 
L 228.478646 209.447287 
L 228.478646 205.614891 
L 229.391206 205.614891 
L 229.391206 201.782495 
L 230.489096 201.782495 
L 230.489096 197.950099 
L 231.615604 197.950099 
L 231.615604 194.117703 
L 233.362901 194.117703 
L 233.362901 190.285307 
L 233.660451 190.285307 
L 233.660451 186.452911 
L 233.852882 186.452911 
L 233.852882 182.620515 
L 234.173067 182.620515 
L 234.173067 178.788119 
L 236.039699 178.788119 
L 236.039699 174.955723 
L 236.916292 174.955723 
L 236.916292 171.123327 
L 237.187796 171.123327 
L 237.187796 167.290931 
L 237.690886 167.290931 
L 237.690886 163.458535 
L 238.297579 163.458535 
L 238.297579 159.626139 
L 238.412636 159.626139 
L 238.412636 155.793743 
L 238.980141 155.793743 
L 238.980141 151.961347 
L 239.62841 151.961347 
L 239.62841 148.12895 
L 241.237103 148.12895 
L 241.237103 144.296554 
L 241.35806 144.296554 
L 241.35806 140.464158 
L 241.657817 140.464158 
L 241.657817 136.631762 
L 242.07078 136.631762 
L 242.07078 132.799366 
L 242.256251 132.799366 
L 242.256251 128.96697 
L 243.706571 128.96697 
L 243.741125 121.302178 
L 244.294841 121.302178 
L 244.294841 117.469782 
L 249.345365 117.469782 
L 249.345365 113.637386 
L 254.178542 113.637386 
L 254.178542 109.80499 
L 258.262359 109.80499 
L 258.262359 105.972594 
L 260.361574 105.972594 
L 260.361574 102.140198 
L 263.166956 102.140198 
L 263.166956 98.307802 
L 263.298494 98.307802 
L 263.298494 94.475406 
L 263.810054 94.475406 
L 263.810054 90.64301 
L 264.559871 90.64301 
L 264.653849 82.978218 
L 267.280626 82.978218 
L 267.280626 79.145822 
L 267.906491 79.145822 
L 267.906491 75.313426 
L 268.287804 75.313426 
L 268.287804 71.48103 
L 270.316395 71.48103 
L 270.316395 67.648634 
L 271.020288 67.648634 
L 271.020288 63.816238 
L 274.209607 63.816238 
L 274.209607 59.983842 
L 276.01363 59.983842 
L 276.01363 56.151446 
L 276.595729 56.151446 
L 276.595729 52.31905 
L 276.896691 52.31905 
L 276.896691 48.486653 
L 277.227057 48.486653 
L 277.227057 44.654257 
L 282.465181 44.654257 
L 282.465181 40.821861 
L 282.608246 40.821861 
L 282.608246 36.989465 
L 291.388467 36.989465 
L 291.430643 29.324673 
L 292.380133 29.324673 
L 292.380133 25.492277 
L 294.236239 25.492277 
L 294.236239 21.659881 
L 294.546429 21.659881 
L 294.546429 17.827485 
L 298.447515 17.827485 
L 298.447515 13.995089 
L 302.653045 13.995089 
L 302.653045 10.162693 
L 304.939679 10.162693 
L 304.939679 6.330297 
L 304.939679 6.330297 
L 460.8 6.330297 
L 460.8 6.330297 
" clip-path="url(#p0faf167c12)" style="fill: none; stroke: #ff0000; stroke-width: 3; stroke-linecap: square"/>
   </g>
   <g id="line2d_22">
    <path d="M 217.82766 293.76 
L 217.82766 289.927604 
L 222.066382 289.927604 
L 222.066382 286.095208 
L 224.747832 286.095208 
L 224.747832 282.262812 
L 225.058445 282.262812 
L 225.058445 278.430416 
L 237.661266 278.430416 
L 237.661266 274.59802 
L 240.243508 274.59802 
L 240.243508 270.765624 
L 241.649002 270.765624 
L 241.649002 266.933228 
L 241.859051 266.933228 
L 241.859051 263.100832 
L 245.387529 263.100832 
L 245.387529 259.268436 
L 247.226337 259.268436 
L 247.226337 255.43604 
L 248.331218 255.43604 
L 248.331218 251.603644 
L 250.097312 251.603644 
L 250.097312 247.771248 
L 251.812058 247.771248 
L 251.812058 243.938851 
L 256.201719 243.938851 
L 256.201719 240.106455 
L 256.615172 240.106455 
L 256.615172 236.274059 
L 275.866989 236.274059 
L 275.866989 232.441663 
L 278.263406 232.441663 
L 278.263406 228.609267 
L 278.532971 228.609267 
L 278.532971 224.776871 
L 279.841691 224.776871 
L 279.841691 220.944475 
L 280.21139 220.944475 
L 280.21139 217.112079 
L 280.403095 217.112079 
L 280.403095 213.279683 
L 281.374558 213.279683 
L 281.374558 209.447287 
L 281.798752 209.447287 
L 281.798752 205.614891 
L 283.073343 205.614891 
L 283.073343 201.782495 
L 284.09067 201.782495 
L 284.09067 197.950099 
L 284.368451 197.950099 
L 284.368451 194.117703 
L 285.193774 194.117703 
L 285.193774 190.285307 
L 285.450554 190.285307 
L 285.450554 186.452911 
L 286.324544 186.452911 
L 286.324544 182.620515 
L 289.429462 182.620515 
L 289.429462 178.788119 
L 289.796413 178.788119 
L 289.796413 174.955723 
L 320.19549 174.955723 
L 320.19549 171.123327 
L 323.901937 171.123327 
L 323.901937 167.290931 
L 333.672498 167.290931 
L 333.672498 163.458535 
L 335.698276 163.458535 
L 335.698276 159.626139 
L 347.332949 159.626139 
L 347.332949 155.793743 
L 348.893781 155.793743 
L 348.893781 151.961347 
L 367.378467 151.961347 
L 367.378467 148.12895 
L 367.734253 148.12895 
L 367.734253 144.296554 
L 368.995745 144.296554 
L 368.995745 140.464158 
L 369.183987 140.464158 
L 369.183987 136.631762 
L 370.423405 136.631762 
L 370.423405 132.799366 
L 373.33638 132.799366 
L 373.33638 128.96697 
L 373.507396 128.96697 
L 373.507396 125.134574 
L 374.011992 125.134574 
L 374.011992 121.302178 
L 376.125147 121.302178 
L 376.125147 117.469782 
L 377.868874 117.469782 
L 377.868874 113.637386 
L 378.366566 113.637386 
L 378.366566 109.80499 
L 378.551844 109.80499 
L 378.551844 105.972594 
L 379.477358 105.972594 
L 379.477358 102.140198 
L 379.70208 102.140198 
L 379.70208 98.307802 
L 379.84195 98.307802 
L 379.84453 90.64301 
L 380.389314 90.64301 
L 380.389314 86.810614 
L 380.723705 86.810614 
L 380.723705 82.978218 
L 380.931316 82.978218 
L 380.931316 79.145822 
L 382.074192 79.145822 
L 382.074192 75.313426 
L 385.885487 75.313426 
L 385.885487 71.48103 
L 386.261888 71.48103 
L 386.261888 67.648634 
L 387.663808 67.648634 
L 387.663808 63.816238 
L 388.239238 63.816238 
L 388.239238 59.983842 
L 390.897098 59.983842 
L 390.897098 56.151446 
L 391.272912 56.151446 
L 391.272912 52.31905 
L 392.538018 52.31905 
L 392.538018 48.486653 
L 396.210202 48.486653 
L 396.210202 44.654257 
L 398.576188 44.654257 
L 398.576188 40.821861 
L 401.276482 40.821861 
L 401.276482 36.989465 
L 401.425768 36.989465 
L 401.455542 29.324673 
L 401.972396 29.324673 
L 401.972396 25.492277 
L 405.296838 25.492277 
L 405.296838 21.659881 
L 415.723657 21.659881 
L 415.723657 17.827485 
L 416.563043 17.827485 
L 416.563043 13.995089 
L 425.079057 13.995089 
L 425.079057 10.162693 
L 431.69679 10.162693 
L 431.69679 6.330297 
L 431.69679 6.330297 
L 460.8 6.330297 
L 460.8 6.330297 
" clip-path="url(#p0faf167c12)" style="fill: none; stroke: #00bfbf; stroke-width: 1.5; stroke-linecap: square"/>
   </g>
   <g id="line2d_23">
    <path d="M 216.648338 293.76 
L 216.648338 289.927604 
L 219.349075 289.927604 
L 219.349075 286.095208 
L 223.473747 286.095208 
L 223.473747 282.262812 
L 224.063178 282.262812 
L 224.063178 278.430416 
L 234.120698 278.430416 
L 234.120698 274.59802 
L 238.335829 274.59802 
L 238.335829 270.765624 
L 239.945433 270.765624 
L 239.945433 266.933228 
L 241.023995 266.933228 
L 241.023995 263.100832 
L 243.09634 263.100832 
L 243.09634 259.268436 
L 244.780462 259.268436 
L 244.780462 255.43604 
L 245.150484 255.43604 
L 245.150484 251.603644 
L 249.050519 251.603644 
L 249.050519 247.771248 
L 249.823204 247.771248 
L 249.823204 243.938851 
L 253.351479 243.938851 
L 253.351479 240.106455 
L 254.856179 240.106455 
L 254.856179 236.274059 
L 274.695321 236.274059 
L 274.695321 232.441663 
L 276.775456 232.441663 
L 276.775456 228.609267 
L 277.929211 228.609267 
L 277.929211 224.776871 
L 278.532971 224.776871 
L 278.532971 220.944475 
L 278.660906 220.944475 
L 278.660906 217.112079 
L 279.918848 217.112079 
L 279.918848 213.279683 
L 280.403095 213.279683 
L 280.466628 205.614891 
L 280.920038 205.614891 
L 280.920038 201.782495 
L 282.718938 201.782495 
L 282.718938 197.950099 
L 283.538491 197.950099 
L 283.586087 190.285307 
L 284.558173 190.285307 
L 284.574043 182.620515 
L 286.324544 182.620515 
L 286.324544 178.788119 
L 289.429462 178.788119 
L 289.429462 174.955723 
L 289.65222 174.955723 
L 289.65222 171.123327 
L 295.398101 171.123327 
L 295.398101 167.290931 
L 318.43127 167.290931 
L 318.43127 163.458535 
L 319.21606 163.458535 
L 319.21606 159.626139 
L 333.032204 159.626139 
L 333.032204 155.793743 
L 336.937679 155.793743 
L 336.937679 151.961347 
L 361.505364 151.961347 
L 361.505364 148.12895 
L 362.046613 148.12895 
L 362.046613 144.296554 
L 362.816211 144.296554 
L 362.816211 140.464158 
L 365.801094 140.464158 
L 365.801094 136.631762 
L 367.740425 136.631762 
L 367.815755 128.96697 
L 369.580131 128.96697 
L 369.580131 125.134574 
L 373.016576 125.134574 
L 373.016576 121.302178 
L 373.33638 121.302178 
L 373.33638 117.469782 
L 375.824791 117.469782 
L 375.824791 113.637386 
L 376.100512 113.637386 
L 376.141449 105.972594 
L 376.378367 105.972594 
L 376.378367 102.140198 
L 376.732723 102.140198 
L 376.732723 98.307802 
L 376.994758 98.307802 
L 376.994758 94.475406 
L 377.529569 94.475406 
L 377.529569 90.64301 
L 377.644351 90.64301 
L 377.644351 86.810614 
L 378.306348 86.810614 
L 378.306348 82.978218 
L 378.778279 82.978218 
L 378.778279 79.145822 
L 379.467583 79.145822 
L 379.467583 75.313426 
L 383.938587 75.313426 
L 383.938587 71.48103 
L 385.08042 71.48103 
L 385.08042 67.648634 
L 385.864577 67.648634 
L 385.864577 63.816238 
L 387.286653 63.816238 
L 387.286653 59.983842 
L 388.446387 59.983842 
L 388.446387 56.151446 
L 389.183221 56.151446 
L 389.183221 52.31905 
L 390.577301 52.31905 
L 390.577301 48.486653 
L 396.155159 48.486653 
L 396.155159 44.654257 
L 396.901688 44.654257 
L 396.901688 40.821861 
L 397.107814 40.821861 
L 397.107814 36.989465 
L 397.758225 36.989465 
L 397.758225 33.157069 
L 399.620846 33.157069 
L 399.620846 29.324673 
L 400.324007 29.324673 
L 400.324007 25.492277 
L 401.678409 25.492277 
L 401.678409 21.659881 
L 414.03741 21.659881 
L 414.03741 17.827485 
L 414.829665 17.827485 
L 414.829665 13.995089 
L 424.329975 13.995089 
L 424.329975 10.162693 
L 427.178322 10.162693 
L 427.178322 6.330297 
L 427.178322 6.330297 
L 460.8 6.330297 
L 460.8 6.330297 
" clip-path="url(#p0faf167c12)" style="fill: none; stroke: #bf00bf; stroke-width: 1.5; stroke-linecap: square"/>
   </g>
   <g id="line2d_24">
    <path d="M 202.709923 293.76 
L 202.709923 289.927604 
L 213.652657 289.927604 
L 213.652657 286.095208 
L 213.858775 286.095208 
L 213.858775 282.262812 
L 214.210471 282.262812 
L 214.210471 278.430416 
L 215.384576 278.430416 
L 215.384576 274.59802 
L 216.648338 274.59802 
L 216.648338 270.765624 
L 219.349075 270.765624 
L 219.349075 266.933228 
L 219.716968 266.933228 
L 219.716968 263.100832 
L 234.489343 263.100832 
L 234.489343 259.268436 
L 239.945433 259.268436 
L 239.945433 255.43604 
L 241.023995 255.43604 
L 241.023995 251.603644 
L 241.237103 251.603644 
L 241.237103 247.771248 
L 244.780462 247.771248 
L 244.780462 243.938851 
L 248.345365 243.938851 
L 248.345365 240.106455 
L 249.050519 240.106455 
L 249.050519 236.274059 
L 252.353159 236.274059 
L 252.353159 232.441663 
L 253.327767 232.441663 
L 253.327767 228.609267 
L 259.777302 228.609267 
L 259.777302 224.776871 
L 260.460592 224.776871 
L 260.460592 220.944475 
L 263.005365 220.944475 
L 263.005365 217.112079 
L 265.148796 217.112079 
L 265.148796 213.279683 
L 265.454424 213.279683 
L 265.454424 209.447287 
L 268.055624 209.447287 
L 268.056538 201.782495 
L 268.607927 201.782495 
L 268.607927 197.950099 
L 268.782678 197.950099 
L 268.782678 194.117703 
L 269.179818 194.117703 
L 269.179818 190.285307 
L 270.122382 190.285307 
L 270.122382 186.452911 
L 271.104647 186.452911 
L 271.104647 182.620515 
L 272.185148 182.620515 
L 272.267984 174.955723 
L 274.905539 174.955723 
L 274.905539 171.123327 
L 282.480317 171.123327 
L 282.480317 167.290931 
L 294.960378 167.290931 
L 294.960378 163.458535 
L 299.787292 163.458535 
L 299.787292 159.626139 
L 318.265017 159.626139 
L 318.265017 155.793743 
L 323.92765 155.793743 
L 323.92765 151.961347 
L 324.30254 151.961347 
L 324.30254 148.12895 
L 330.19801 148.12895 
L 330.19801 144.296554 
L 330.35785 144.296554 
L 330.35785 140.464158 
L 331.615713 140.464158 
L 331.615713 136.631762 
L 335.395239 136.631762 
L 335.395239 132.799366 
L 342.424337 132.799366 
L 342.424337 128.96697 
L 343.312951 128.96697 
L 343.312951 125.134574 
L 345.094132 125.134574 
L 345.094132 121.302178 
L 345.295978 121.302178 
L 345.295978 117.469782 
L 346.72614 117.469782 
L 346.72614 113.637386 
L 348.296908 113.637386 
L 348.381352 105.972594 
L 350.059585 105.972594 
L 350.059585 102.140198 
L 350.207036 102.140198 
L 350.207036 98.307802 
L 350.53473 98.307802 
L 350.53473 94.475406 
L 350.734588 94.475406 
L 350.734588 90.64301 
L 351.092389 90.64301 
L 351.092389 86.810614 
L 351.225939 86.810614 
L 351.331709 79.145822 
L 351.641854 79.145822 
L 351.641854 75.313426 
L 352.640543 75.313426 
L 352.640543 71.48103 
L 353.054612 71.48103 
L 353.054612 67.648634 
L 354.195893 67.648634 
L 354.195893 63.816238 
L 356.062225 63.816238 
L 356.062225 59.983842 
L 357.230929 59.983842 
L 357.230929 56.151446 
L 358.735187 56.151446 
L 358.735187 52.31905 
L 358.852373 52.31905 
L 358.852373 48.486653 
L 364.007489 48.486653 
L 364.007489 44.654257 
L 373.099864 44.654257 
L 373.099864 40.821861 
L 376.083629 40.821861 
L 376.083629 36.989465 
L 377.448772 36.989465 
L 377.448772 33.157069 
L 379.854197 33.157069 
L 379.854197 29.324673 
L 381.905238 29.324673 
L 381.905238 25.492277 
L 388.238786 25.492277 
L 388.238786 21.659881 
L 395.997035 21.659881 
L 395.997035 17.827485 
L 397.712869 17.827485 
L 397.712869 13.995089 
L 402.25589 13.995089 
L 402.25589 10.162693 
L 405.996014 10.162693 
L 405.996014 6.330297 
L 405.996014 6.330297 
L 460.8 6.330297 
L 460.8 6.330297 
" clip-path="url(#p0faf167c12)" style="fill: none; stroke: #000000; stroke-width: 1.5; stroke-linecap: square"/>
   </g>
   <g id="line2d_25">
    <path d="M 162.034586 293.76 
L 162.034586 289.927604 
L 163.873948 289.927604 
L 163.888826 282.262812 
L 167.986396 282.262812 
L 167.986396 278.430416 
L 169.017429 278.430416 
L 169.017429 274.59802 
L 172.943436 274.59802 
L 172.943436 270.765624 
L 210.573105 270.765624 
L 210.573105 266.933228 
L 216.648338 266.933228 
L 216.648338 263.100832 
L 217.685287 263.100832 
L 217.685287 259.268436 
L 218.893127 259.268436 
L 218.893127 255.43604 
L 219.366693 255.43604 
L 219.366693 251.603644 
L 229.282174 251.603644 
L 229.391206 243.938851 
L 232.766101 243.938851 
L 232.766101 240.106455 
L 233.474034 240.106455 
L 233.474034 236.274059 
L 234.005872 236.274059 
L 234.005872 232.441663 
L 234.427681 232.441663 
L 234.427681 228.609267 
L 234.810213 228.609267 
L 234.810213 224.776871 
L 235.736035 224.776871 
L 235.822813 217.112079 
L 237.326769 217.112079 
L 237.326769 213.279683 
L 238.349602 213.279683 
L 238.349602 209.447287 
L 239.9053 209.447287 
L 239.945433 201.782495 
L 240.699915 201.782495 
L 240.699915 197.950099 
L 241.023995 197.950099 
L 241.023995 194.117703 
L 241.237103 194.117703 
L 241.237103 190.285307 
L 242.266974 190.285307 
L 242.266974 186.452911 
L 242.550519 186.452911 
L 242.550519 182.620515 
L 243.751502 182.620515 
L 243.751502 178.788119 
L 244.58298 178.788119 
L 244.612186 171.123327 
L 244.780462 171.123327 
L 244.780462 167.290931 
L 247.023128 167.290931 
L 247.023128 163.458535 
L 248.345365 163.458535 
L 248.345365 159.626139 
L 248.662315 159.626139 
L 248.662315 155.793743 
L 249.345365 155.793743 
L 249.345365 151.961347 
L 251.745885 151.961347 
L 251.745885 148.12895 
L 254.180752 148.12895 
L 254.180752 144.296554 
L 258.375249 144.296554 
L 258.375249 140.464158 
L 259.777302 140.464158 
L 259.777302 136.631762 
L 260.703414 136.631762 
L 260.703414 132.799366 
L 263.97901 132.799366 
L 263.97901 128.96697 
L 264.247559 128.96697 
L 264.247559 125.134574 
L 268.335505 125.134574 
L 268.335505 121.302178 
L 268.89031 121.302178 
L 268.89031 117.469782 
L 273.334393 117.469782 
L 273.334393 113.637386 
L 273.485838 113.637386 
L 273.485838 109.80499 
L 274.209607 109.80499 
L 274.209607 105.972594 
L 276.547664 105.972594 
L 276.595729 94.475406 
L 277.578081 94.475406 
L 277.578081 90.64301 
L 282.548981 90.64301 
L 282.548981 86.810614 
L 286.798813 86.810614 
L 286.798813 82.978218 
L 293.495082 82.978218 
L 293.495082 79.145822 
L 296.512584 79.145822 
L 296.512584 75.313426 
L 302.119156 75.313426 
L 302.119156 71.48103 
L 302.992414 71.48103 
L 302.992414 67.648634 
L 305.674715 67.648634 
L 305.674715 63.816238 
L 306.215831 63.816238 
L 306.215831 59.983842 
L 307.102055 59.983842 
L 307.102055 56.151446 
L 308.892875 56.151446 
L 308.892875 52.31905 
L 309.153673 52.31905 
L 309.153673 48.486653 
L 313.86097 48.486653 
L 313.86097 44.654257 
L 317.336446 44.654257 
L 317.336446 40.821861 
L 317.905839 40.821861 
L 317.905839 36.989465 
L 321.821294 36.989465 
L 321.821294 33.157069 
L 323.25634 33.157069 
L 323.25634 29.324673 
L 328.744688 29.324673 
L 328.744688 25.492277 
L 330.848768 25.492277 
L 330.857402 17.827485 
L 333.295699 17.827485 
L 333.295699 13.995089 
L 335.881816 13.995089 
L 335.881816 10.162693 
L 336.634257 10.162693 
L 336.634257 6.330297 
L 336.634257 6.330297 
L 460.8 6.330297 
L 460.8 6.330297 
" clip-path="url(#p0faf167c12)" style="fill: none; stroke: #00bfbf; stroke-width: 1.5; stroke-linecap: square"/>
   </g>
   <g id="patch_3">
    <path d="M 0 293.76 
L 0 3.456 
" style="fill: none; stroke: #000000; stroke-width: 0.8; stroke-linejoin: miter; stroke-linecap: square"/>
   </g>
   <g id="patch_4">
    <path d="M 460.8 293.76 
L 460.8 3.456 
" style="fill: none; stroke: #000000; stroke-width: 0.8; stroke-linejoin: miter; stroke-linecap: square"/>
   </g>
   <g id="patch_5">
    <path d="M 0 293.76 
L 460.8 293.76 
" style="fill: none; stroke: #000000; stroke-width: 0.8; stroke-linejoin: miter; stroke-linecap: square"/>
   </g>
   <g id="patch_6">
    <path d="M 0 3.456 
L 460.8 3.456 
" style="fill: none; stroke: #000000; stroke-width: 0.8; stroke-linejoin: miter; stroke-linecap: square"/>
   </g>
   <g id="text_6">
    <!-- {f10-f14}, 5-D -->
    <g transform="translate(305.884 287.95392) scale(0.2 -0.2)">
     <defs>
      <path id="DejaVuSans-7b" d="M 3272 -594 
L 3272 -1044 
L 3078 -1044 
Q 2300 -1044 2036 -812 
Q 1772 -581 1772 109 
L 1772 856 
Q 1772 1328 1603 1509 
Q 1434 1691 991 1691 
L 800 1691 
L 800 2138 
L 991 2138 
Q 1438 2138 1605 2317 
Q 1772 2497 1772 2963 
L 1772 3713 
Q 1772 4403 2036 4633 
Q 2300 4863 3078 4863 
L 3272 4863 
L 3272 4416 
L 3059 4416 
Q 2619 4416 2484 4278 
Q 2350 4141 2350 3700 
L 2350 2925 
Q 2350 2434 2208 2212 
Q 2066 1991 1722 1913 
Q 2069 1828 2209 1606 
Q 2350 1384 2350 897 
L 2350 122 
Q 2350 -319 2484 -456 
Q 2619 -594 3059 -594 
L 3272 -594 
z
" transform="scale(0.015625)"/>
      <path id="DejaVuSans-7d" d="M 800 -594 
L 1019 -594 
Q 1456 -594 1589 -459 
Q 1722 -325 1722 122 
L 1722 897 
Q 1722 1384 1862 1606 
Q 2003 1828 2350 1913 
Q 2003 1991 1862 2212 
Q 1722 2434 1722 2925 
L 1722 3700 
Q 1722 4144 1589 4280 
Q 1456 4416 1019 4416 
L 800 4416 
L 800 4863 
L 997 4863 
Q 1775 4863 2036 4633 
Q 2297 4403 2297 3713 
L 2297 2963 
Q 2297 2497 2465 2317 
Q 2634 2138 3078 2138 
L 3272 2138 
L 3272 1691 
L 3078 1691 
Q 2634 1691 2465 1509 
Q 2297 1328 2297 856 
L 2297 109 
Q 2297 -581 2036 -812 
Q 1775 -1044 997 -1044 
L 800 -1044 
L 800 -594 
z
" transform="scale(0.015625)"/>
      <path id="DejaVuSans-2c" d="M 750 794 
L 1409 794 
L 1409 256 
L 897 -744 
L 494 -744 
L 750 256 
L 750 794 
z
" transform="scale(0.015625)"/>
      <path id="DejaVuSans-35" d="M 691 4666 
L 3169 4666 
L 3169 4134 
L 1269 4134 
L 1269 2991 
Q 1406 3038 1543 3061 
Q 1681 3084 1819 3084 
Q 2600 3084 3056 2656 
Q 3513 2228 3513 1497 
Q 3513 744 3044 326 
Q 2575 -91 1722 -91 
Q 1428 -91 1123 -41 
Q 819 9 494 109 
L 494 744 
Q 775 591 1075 516 
Q 1375 441 1709 441 
Q 2250 441 2565 725 
Q 2881 1009 2881 1497 
Q 2881 1984 2565 2268 
Q 2250 2553 1709 2553 
Q 1456 2553 1204 2497 
Q 953 2441 691 2322 
L 691 4666 
z
" transform="scale(0.015625)"/>
     </defs>
     <use xlink:href="#DejaVuSans-7b"/>
     <use xlink:href="#DejaVuSans-66" x="63.623047"/>
     <use xlink:href="#DejaVuSans-31" x="98.828125"/>
     <use xlink:href="#DejaVuSans-30" x="162.451172"/>
     <use xlink:href="#DejaVuSans-2d" x="226.074219"/>
     <use xlink:href="#DejaVuSans-66" x="262.158203"/>
     <use xlink:href="#DejaVuSans-31" x="297.363281"/>
     <use xlink:href="#DejaVuSans-34" x="360.986328"/>
     <use xlink:href="#DejaVuSans-7d" x="424.609375"/>
     <use xlink:href="#DejaVuSans-2c" x="488.232422"/>
     <use xlink:href="#DejaVuSans-20" x="520.019531"/>
     <use xlink:href="#DejaVuSans-35" x="551.806641"/>
     <use xlink:href="#DejaVuSans-2d" x="615.429688"/>
     <use xlink:href="#DejaVuSans-44" x="651.513672"/>
    </g>
   </g>
   <g id="text_7">
    <!-- v2.6.3 -->
    <g style="fill: #808080" transform="translate(214.71875 288.777272) scale(0.1 -0.1)">
     <defs>
      <path id="DejaVuSans-76" d="M 191 3500 
L 800 3500 
L 1894 563 
L 2988 3500 
L 3597 3500 
L 2284 0 
L 1503 0 
L 191 3500 
z
" transform="scale(0.015625)"/>
      <path id="DejaVuSans-32" d="M 1228 531 
L 3431 531 
L 3431 0 
L 469 0 
L 469 531 
Q 828 903 1448 1529 
Q 2069 2156 2228 2338 
Q 2531 2678 2651 2914 
Q 2772 3150 2772 3378 
Q 2772 3750 2511 3984 
Q 2250 4219 1831 4219 
Q 1534 4219 1204 4116 
Q 875 4013 500 3803 
L 500 4441 
Q 881 4594 1212 4672 
Q 1544 4750 1819 4750 
Q 2544 4750 2975 4387 
Q 3406 4025 3406 3419 
Q 3406 3131 3298 2873 
Q 3191 2616 2906 2266 
Q 2828 2175 2409 1742 
Q 1991 1309 1228 531 
z
" transform="scale(0.015625)"/>
      <path id="DejaVuSans-2e" d="M 684 794 
L 1344 794 
L 1344 0 
L 684 0 
L 684 794 
z
" transform="scale(0.015625)"/>
      <path id="DejaVuSans-36" d="M 2113 2584 
Q 1688 2584 1439 2293 
Q 1191 2003 1191 1497 
Q 1191 994 1439 701 
Q 1688 409 2113 409 
Q 2538 409 2786 701 
Q 3034 994 3034 1497 
Q 3034 2003 2786 2293 
Q 2538 2584 2113 2584 
z
M 3366 4563 
L 3366 3988 
Q 3128 4100 2886 4159 
Q 2644 4219 2406 4219 
Q 1781 4219 1451 3797 
Q 1122 3375 1075 2522 
Q 1259 2794 1537 2939 
Q 1816 3084 2150 3084 
Q 2853 3084 3261 2657 
Q 3669 2231 3669 1497 
Q 3669 778 3244 343 
Q 2819 -91 2113 -91 
Q 1303 -91 875 529 
Q 447 1150 447 2328 
Q 447 3434 972 4092 
Q 1497 4750 2381 4750 
Q 2619 4750 2861 4703 
Q 3103 4656 3366 4563 
z
" transform="scale(0.015625)"/>
      <path id="DejaVuSans-33" d="M 2597 2516 
Q 3050 2419 3304 2112 
Q 3559 1806 3559 1356 
Q 3559 666 3084 287 
Q 2609 -91 1734 -91 
Q 1441 -91 1130 -33 
Q 819 25 488 141 
L 488 750 
Q 750 597 1062 519 
Q 1375 441 1716 441 
Q 2309 441 2620 675 
Q 2931 909 2931 1356 
Q 2931 1769 2642 2001 
Q 2353 2234 1838 2234 
L 1294 2234 
L 1294 2753 
L 1863 2753 
Q 2328 2753 2575 2939 
Q 2822 3125 2822 3475 
Q 2822 3834 2567 4026 
Q 2313 4219 1838 4219 
Q 1578 4219 1281 4162 
Q 984 4106 628 3988 
L 628 4550 
Q 988 4650 1302 4700 
Q 1616 4750 1894 4750 
Q 2613 4750 3031 4423 
Q 3450 4097 3450 3541 
Q 3450 3153 3228 2886 
Q 3006 2619 2597 2516 
z
" transform="scale(0.015625)"/>
     </defs>
     <use xlink:href="#DejaVuSans-76"/>
     <use xlink:href="#DejaVuSans-32" x="59.179688"/>
     <use xlink:href="#DejaVuSans-2e" x="122.802734"/>
     <use xlink:href="#DejaVuSans-36" x="154.589844"/>
     <use xlink:href="#DejaVuSans-2e" x="218.212891"/>
     <use xlink:href="#DejaVuSans-33" x="250"/>
    </g>
   </g>
  </g>
 </g>
 <defs>
  <clipPath id="p0faf167c12">
   <rect x="0" y="3.456" width="460.8" height="290.304"/>
  </clipPath>
 </defs>
</svg>
